<svg width="353" height="158" viewBox="0 0 353 158" fill="none" xmlns="http://www.w3.org/2000/svg">
<rect width="353" height="158" fill="white"/>
<g opacity="0.9">
<rect width="353" height="135" fill="#E37EF3"/>
<path opacity="0.1" d="M96.7108 8H68.0225C66.8466 8 65.8933 9.15735 65.8933 10.585V20.415C65.8933 21.8426 66.8466 23 68.0225 23H96.7108C97.8867 23 98.84 21.8426 98.84 20.415V10.585C98.84 9.15735 97.8867 8 96.7108 8Z" fill="#1E0728"/>
<path opacity="0.1" d="M302.863 89H274.175C272.999 89 272.045 90.1574 272.045 91.585V101.415C272.045 102.843 272.999 104 274.175 104H302.863C304.039 104 304.992 102.843 304.992 101.415V91.585C304.992 90.1574 304.039 89 302.863 89Z" fill="#1E0728"/>
<path opacity="0.1" d="M330.161 68H301.473C300.297 68 299.344 69.1574 299.344 70.585V80.415C299.344 81.8426 300.297 83 301.473 83H330.161C331.337 83 332.291 81.8426 332.291 80.415V70.585C332.291 69.1574 331.337 68 330.161 68Z" fill="#1E0728"/>
<path opacity="0.1" d="M330.161 110H301.473C300.297 110 299.344 111.157 299.344 112.585V122.415C299.344 123.843 300.297 125 301.473 125H330.161C331.337 125 332.291 123.843 332.291 122.415V112.585C332.291 111.157 331.337 110 330.161 110Z" fill="#1E0728"/>
<path opacity="0.1" d="M151.308 97H122.62C121.444 97 120.491 98.1574 120.491 99.585V109.415C120.491 110.843 121.444 112 122.62 112H151.308C152.484 112 153.437 110.843 153.437 109.415V99.585C153.437 98.1574 152.484 97 151.308 97Z" fill="#1E0728"/>
</g>
<path d="M135.958 34.0778H10.2943V121.957H135.958V34.0778Z" fill="#E6E6E6"/>
<path d="M132.364 45.1H13.8868V116.758H132.364V45.1Z" fill="white"/>
<path d="M135.904 34H10.24V39.8294H135.904V34Z" fill="#5A0157"/>
<path d="M14.2073 38.0607C14.7537 38.0607 15.1967 37.577 15.1967 36.9803C15.1967 36.3836 14.7537 35.8999 14.2073 35.8999C13.6608 35.8999 13.2178 36.3836 13.2178 36.9803C13.2178 37.577 13.6608 38.0607 14.2073 38.0607Z" fill="white"/>
<path d="M17.9629 38.0607C18.5094 38.0607 18.9524 37.577 18.9524 36.9803C18.9524 36.3836 18.5094 35.8999 17.9629 35.8999C17.4165 35.8999 16.9734 36.3836 16.9734 36.9803C16.9734 37.577 17.4165 38.0607 17.9629 38.0607Z" fill="white"/>
<path d="M21.719 38.0607C22.2654 38.0607 22.7085 37.577 22.7085 36.9803C22.7085 36.3836 22.2654 35.8999 21.719 35.8999C21.1725 35.8999 20.7295 36.3836 20.7295 36.9803C20.7295 37.577 21.1725 38.0607 21.719 38.0607Z" fill="white"/>
<path d="M51.6367 50.9938H28.4643V78.4447H51.6367V50.9938Z" fill="#E6E6E6"/>
<path d="M84.7116 50.9938H61.5392V78.4447H84.7116V50.9938Z" fill="#E6E6E6"/>
<path d="M117.787 50.9938H94.6143V78.4447H117.787V50.9938Z" fill="#E6E6E6"/>
<path d="M51.6367 83.4135H28.4643V110.864H51.6367V83.4135Z" fill="#E6E6E6"/>
<path d="M84.7116 83.4135H61.5392V110.864H84.7116V83.4135Z" fill="#E6E6E6"/>
<path d="M117.787 83.4135H94.6143V110.864H117.787V83.4135Z" fill="#E6E6E6"/>
<path d="M67.14 90.4685L71.3738 88.6408L71.8661 97.7794C71.8661 97.7794 72.7523 100.575 72.4569 101.65C72.4569 101.65 72.6538 103.478 72.1615 103.585C71.6692 103.693 70.2907 103.908 70.1923 103.8C70.0938 103.693 70.0938 103.37 70.0938 103.37C70.0938 103.37 69.1092 104.123 69.0107 104.983C69.0107 104.983 64.8753 106.38 64.7769 105.09C64.6784 103.8 66.8446 102.725 66.8446 102.725L68.5184 99.9296L67.14 90.4685Z" fill="white"/>
<path d="M76.1 90.4685L80.3339 88.6408L80.8262 97.7794C80.8262 97.7794 81.7124 100.575 81.417 101.65C81.417 101.65 81.6139 103.478 81.1216 103.585C80.6293 103.693 79.2508 103.908 79.1524 103.8C79.0539 103.693 79.0539 103.37 79.0539 103.37C79.0539 103.37 78.0693 104.123 77.9708 104.983C77.9708 104.983 73.8354 106.38 73.737 105.09C73.6385 103.8 75.8047 102.725 75.8047 102.725L77.4785 99.9296L76.1 90.4685Z" fill="white"/>
<path d="M76.5142 55.1784C76.5142 55.1784 75.6127 57.9289 76.6572 59.1693L75.7865 62.4368C75.7865 62.4368 78.8805 72.572 77.9965 73.9877C77.9965 73.9877 74.6962 75.7895 68.0956 73.3442L70.7771 61.9863L70.394 57.1922L70.9244 54.9399L72.1031 54.8112C72.1031 54.8112 71.3959 57.707 72.6925 58.1574C73.989 58.6079 75.2539 54.8835 75.2539 54.8835L76.5142 55.1784Z" fill="#612156"/>
<path d="M34.8809 72.9349L36.0186 73.4431L41.4483 65.6509L43.1548 74.7983L44.2925 74.5724C45.0223 66.6862 45.6174 58.6423 44.8872 54.8378L40.6727 54.6402L38.7593 61.3031L37.8285 65.8203L34.8809 72.9349Z" fill="white"/>
<path d="M103.93 54.7746C103.93 54.7746 102.377 57.1315 102.453 58.0825C102.528 59.0336 103.513 74.5398 103.513 74.5398L105.823 74.6638L105.141 63.4994L105.709 60.4809L107.111 74.5398L109.951 74.6225L107.413 56.3872L106.921 54.7746L103.93 54.7746Z" fill="white"/>
<path d="M112.705 92.7442C112.293 92.204 111.584 91.912 110.904 91.7542C110.924 91.6866 108.834 91.2152 108.799 91.3124L108.011 90.6273L105.591 91.9994L104.231 90.9886L103.6 91.2334C103.625 91.1117 101.639 91.4874 101.639 91.4874C101.259 91.5023 100.774 91.5282 100.232 91.5738C98.3317 91.7334 98.1855 97.1068 98.1855 97.1068C99.0598 96.7162 99.992 96.5031 100.936 96.4779L101.45 102.906C104.092 102.658 106.862 102.946 109.733 103.651L111.079 98.598L114.215 97.2664C114.215 97.2664 113.679 94.0211 112.705 92.7442Z" fill="#A53499"/>
<path d="M45.41 89.6838C45.0703 89.2388 44.4865 88.9981 43.9257 88.8681C43.9425 88.8124 42.2204 88.424 42.1916 88.5041L41.5426 87.9395L39.5487 89.0701L38.4282 88.2372L37.9077 88.439C37.9289 88.3387 36.2919 88.6482 36.2919 88.6482C35.9792 88.6605 35.5797 88.6819 35.1327 88.7194C33.567 88.8509 33.4465 93.2784 33.4465 93.2784C34.1669 92.9566 34.935 92.781 35.7131 92.7602L36.1363 105.724C38.3129 105.521 40.5956 105.758 42.9611 106.338L44.0706 94.5071L46.6545 93.4099C46.6545 93.4099 46.2129 90.7359 45.41 89.6838Z" fill="#BA63FF"/>
<path d="M137.594 102.86L137.875 105.123C137.913 105.43 137.89 105.743 137.807 106.038C137.725 106.333 137.585 106.601 137.399 106.822C137.213 107.042 136.986 107.208 136.736 107.308C136.486 107.407 136.22 107.436 135.958 107.393V107.393C135.705 107.352 135.462 107.243 135.249 107.076C135.036 106.908 134.858 106.686 134.728 106.426C134.598 106.166 134.52 105.875 134.499 105.575C134.478 105.275 134.515 104.972 134.608 104.691L135.562 101.784L135.054 82.1787L138 80.8636L137.594 102.86Z" fill="#A0616A"/>
<path d="M129.264 70.3435C131.508 70.3435 133.327 68.2026 133.327 65.5616C133.327 62.9206 131.508 60.7797 129.264 60.7797C127.02 60.7797 125.201 62.9206 125.201 65.5616C125.201 68.2026 127.02 70.3435 129.264 70.3435Z" fill="#A0616A"/>
<path d="M134.14 74.5276L126.623 74.169C127.458 72.0181 127.789 69.9375 127.436 67.9525H132.413C132.151 69.8245 132.874 72.0723 134.14 74.5276Z" fill="#A0616A"/>
<path d="M132.921 93.1771L121.849 94.1334L122.251 86.77C120.975 83.1981 121.179 80.6188 122.681 78.9101L122.817 76.4222C122.86 75.626 123.115 74.8658 123.545 74.2486C123.974 73.6314 124.558 73.1883 125.213 72.9815L127.131 72.3757C129.615 74.0883 131.595 74.065 133.023 72.1367L135.306 73.513C135.859 73.8465 136.313 74.3701 136.607 75.0143C136.902 75.6585 137.022 76.3928 136.954 77.1197L132.921 93.1771Z" fill="#920DC0"/>
<path d="M115.957 93.8944L112.832 95.8255C112.565 95.9907 112.258 96.0454 111.961 95.9807C111.664 95.9161 111.394 95.7359 111.194 95.4691V95.4691C111.038 95.2605 110.932 95.0074 110.885 94.735C110.838 94.4627 110.853 94.1807 110.928 93.9173C111.004 93.6539 111.136 93.4184 111.313 93.2343C111.49 93.0501 111.704 92.9239 111.936 92.8682L114.129 92.3403L120.935 89.2321L122.052 79.9073L125.201 80.8637L124.591 91.8621L115.957 93.8944Z" fill="#A0616A"/>
<path d="M138.203 81.4614L134.749 83.8524L134.546 74.2886L135.142 74.0495C135.954 74.0495 136.732 74.4291 137.306 75.1047C137.881 75.7804 138.203 76.6968 138.203 77.6524V81.4614Z" fill="#920DC0"/>
<path d="M135.816 140.1L132.879 139.559C132.286 127.75 131.092 116.726 128.959 106.925C124.028 114.615 119.894 125.95 116.364 140.04L112.91 138.964L121.95 92.5794L132.718 92.3403C137.121 99.4361 135.832 121.351 135.816 140.1Z" fill="#2F2E41"/>
<path d="M114.839 144.181L109.736 143.339C109.594 143.316 109.459 143.257 109.338 143.167C109.217 143.078 109.114 142.958 109.035 142.818C108.957 142.678 108.904 142.519 108.882 142.353C108.859 142.187 108.867 142.017 108.905 141.855V141.855C108.956 141.632 109.062 141.432 109.209 141.279C109.356 141.127 109.538 141.028 109.732 140.995L110.638 140.84L113.505 138.78L115.877 139.524L116.58 141.966C116.634 142.256 116.628 142.557 116.562 142.843C116.496 143.129 116.372 143.392 116.201 143.609C116.03 143.827 115.817 143.993 115.58 144.092C115.342 144.192 115.088 144.222 114.839 144.181Z" fill="#2F2E41"/>
<path d="M134.85 144.181L129.747 143.339C129.605 143.316 129.47 143.257 129.349 143.167C129.228 143.078 129.125 142.958 129.046 142.818C128.968 142.678 128.915 142.519 128.893 142.353C128.87 142.187 128.878 142.017 128.916 141.855C128.967 141.632 129.073 141.432 129.22 141.279C129.367 141.127 129.549 141.028 129.743 140.995L130.649 140.84L133.516 138.78L135.888 139.524L136.591 141.966C136.645 142.256 136.639 142.557 136.573 142.843C136.507 143.129 136.383 143.392 136.212 143.609C136.041 143.827 135.828 143.993 135.591 144.092C135.353 144.192 135.099 144.222 134.85 144.181V144.181Z" fill="#2F2E41"/>
<path d="M125.81 83.2546C124.887 80.8654 123.292 79.9398 120.63 81.3419L120.989 78.2265C121.124 77.0567 121.546 75.9588 122.204 75.068C122.862 74.1772 123.728 73.5323 124.693 73.2126L125.81 83.2546Z" fill="#920DC0"/>
<path d="M124.469 63.108C124.469 63.108 123.83 57.2535 129.045 59.1733C129.045 59.1733 132.77 58.3689 133.992 63.8524L135.229 69.6005L134.626 69.2144L134.345 69.9373L133.368 70.2285L132.95 69.252L132.748 70.4378L124.747 71.3765C124.747 71.3765 128.33 68.8824 128.387 64.4125L127.705 65.2614L124.469 63.108Z" fill="#2F2E41"/>
<path d="M133.334 61.5983C134.445 61.5983 135.346 60.5383 135.346 59.2307C135.346 57.9231 134.445 56.863 133.334 56.863C132.223 56.863 131.322 57.9231 131.322 59.2307C131.322 60.5383 132.223 61.5983 133.334 61.5983Z" fill="#2F2E41"/>
<path d="M131.261 58.651C131.294 58.0503 131.521 57.487 131.894 57.0759C132.268 56.6647 132.761 56.4366 133.272 56.4381C133.231 56.4319 133.189 56.4243 133.147 56.4211C132.883 56.4012 132.619 56.4426 132.369 56.5429C132.119 56.6432 131.888 56.8005 131.69 57.0058C131.491 57.2111 131.329 57.4603 131.213 57.7394C131.096 58.0184 131.027 58.3217 131.01 58.632C130.993 58.9423 131.029 59.2535 131.114 59.5478C131.199 59.8421 131.333 60.1137 131.507 60.3472C131.682 60.5807 131.893 60.7715 132.13 60.9087C132.367 61.0459 132.625 61.1267 132.889 61.1467C132.931 61.1499 132.973 61.1486 133.015 61.1487C132.507 61.0731 132.043 60.7726 131.718 60.3086C131.392 59.8445 131.229 59.2517 131.261 58.651V58.651Z" fill="#2F2E41"/>
<path d="M143.02 142.983C141.967 147.693 104.317 146.479 104.401 142.164C105.454 137.454 143.104 138.668 143.02 142.983Z" fill="#585591" fill-opacity="0.5"/>
</svg>
