<svg width="1440" height="380" viewBox="0 0 1440 380" fill="none" xmlns="http://www.w3.org/2000/svg">
<rect width="1440" height="380" fill="white"/>
<g opacity="0.9">
<rect width="1440" height="332" fill="#E37EF3"/>
<path opacity="0.1" d="M94.2726 166H25.1315C22.2975 166 20 168.134 20 170.767V188.893C20 191.526 22.2975 193.66 25.1315 193.66H94.2726C97.1066 193.66 99.4041 191.526 99.4041 188.893V170.767C99.4041 168.134 97.1066 166 94.2726 166Z" fill="#1E0728"/>
<path opacity="0.1" d="M94.2726 230H25.1315C22.2975 230 20 232.134 20 234.767V252.893C20 255.526 22.2975 257.66 25.1315 257.66H94.2726C97.1066 257.66 99.4041 255.526 99.4041 252.893V234.767C99.4041 232.134 97.1066 230 94.2726 230Z" fill="#1E0728"/>
<path opacity="0.1" d="M134.273 198H65.1315C62.2975 198 60 200.134 60 202.767V220.893C60 223.526 62.2975 225.66 65.1315 225.66H134.273C137.107 225.66 139.404 223.526 139.404 220.893V202.767C139.404 200.134 137.107 198 134.273 198Z" fill="#1E0728"/>
</g>
<path d="M448 126.179H129.137V302.606H448V126.179Z" fill="#E6E6E6"/>
<path d="M438.881 148.307H138.254V292.169H438.881V148.307Z" fill="white"/>
<path d="M447.863 126.023H129V137.726H447.863V126.023Z" fill="#5A0157"/>
<path d="M139.067 134.175C140.453 134.175 141.577 133.204 141.577 132.006C141.577 130.808 140.453 129.837 139.067 129.837C137.68 129.837 136.556 130.808 136.556 132.006C136.556 133.204 137.68 134.175 139.067 134.175Z" fill="white"/>
<path d="M148.596 134.175C149.983 134.175 151.107 133.204 151.107 132.006C151.107 130.808 149.983 129.837 148.596 129.837C147.21 129.837 146.086 130.808 146.086 132.006C146.086 133.204 147.21 134.175 148.596 134.175Z" fill="white"/>
<path d="M158.127 134.175C159.514 134.175 160.638 133.204 160.638 132.006C160.638 130.808 159.514 129.837 158.127 129.837C156.74 129.837 155.616 130.808 155.616 132.006C155.616 133.204 156.74 134.175 158.127 134.175Z" fill="white"/>
<path d="M234.041 160.14H175.243V215.251H234.041V160.14Z" fill="#E6E6E6"/>
<path d="M317.966 160.14H259.168V215.251H317.966V160.14Z" fill="#E6E6E6"/>
<path d="M401.891 160.14H343.093V215.251H401.891V160.14Z" fill="#E6E6E6"/>
<path d="M234.041 225.226H175.243V280.337H234.041V225.226Z" fill="#E6E6E6"/>
<path d="M317.966 225.226H259.168V280.337H317.966V225.226Z" fill="#E6E6E6"/>
<path d="M401.891 225.226H343.093V280.337H401.891V225.226Z" fill="#E6E6E6"/>
<path d="M273.379 239.39L284.122 235.721L285.371 254.067C285.371 254.067 287.62 259.679 286.871 261.838C286.871 261.838 287.37 265.507 286.121 265.723C284.872 265.939 281.374 266.37 281.124 266.155C280.874 265.939 280.874 265.291 280.874 265.291C280.874 265.291 278.376 266.802 278.126 268.529C278.126 268.529 267.633 271.335 267.383 268.745C267.133 266.155 272.63 263.996 272.63 263.996L276.877 258.384L273.379 239.39Z" fill="white"/>
<path d="M296.115 239.39L306.858 235.721L308.107 254.067C308.107 254.067 310.355 259.679 309.606 261.838C309.606 261.838 310.106 265.507 308.856 265.723C307.607 265.939 304.109 266.37 303.86 266.155C303.61 265.939 303.61 265.291 303.61 265.291C303.61 265.291 301.111 266.802 300.862 268.529C300.862 268.529 290.368 271.335 290.118 268.745C289.869 266.155 295.365 263.996 295.365 263.996L299.612 258.384L296.115 239.39Z" fill="white"/>
<path d="M297.166 168.541C297.166 168.541 294.878 174.063 297.529 176.553L295.319 183.113C295.319 183.113 303.17 203.461 300.927 206.303C300.927 206.303 292.553 209.92 275.804 205.011L282.608 182.209L281.636 172.584L282.982 168.062L285.973 167.804C285.973 167.804 284.178 173.617 287.468 174.522C290.758 175.426 293.968 167.949 293.968 167.949L297.166 168.541Z" fill="#612156"/>
<path d="M191.524 204.189L194.411 205.209L208.189 189.566L212.519 207.93L215.406 207.477C217.257 191.644 218.767 175.495 216.915 167.857L206.221 167.46L201.366 180.837L199.004 189.906L191.524 204.189Z" fill="white"/>
<path d="M366.73 167.73C366.73 167.73 362.79 172.462 362.982 174.371C363.175 176.281 365.673 207.411 365.673 207.411L371.534 207.66L369.805 185.246L371.246 179.186L374.801 207.411L382.008 207.577L375.57 170.968L374.321 167.73L366.73 167.73Z" fill="white"/>
<path d="M388.997 243.959C387.951 242.874 386.153 242.288 384.426 241.971C384.478 241.835 379.174 240.889 379.086 241.084L377.087 239.709L370.947 242.463L367.496 240.434L365.893 240.926C365.958 240.681 360.917 241.435 360.917 241.435C359.954 241.465 358.724 241.517 357.347 241.609C352.526 241.929 352.155 252.717 352.155 252.717C354.373 251.933 356.739 251.505 359.135 251.455L360.438 264.359C367.141 263.863 374.171 264.441 381.455 265.855L384.872 255.711L392.829 253.037C392.829 253.037 391.469 246.522 388.997 243.959Z" fill="#A53499"/>
<path d="M218.241 237.815C217.379 236.921 215.898 236.438 214.475 236.177C214.518 236.065 210.148 235.286 210.075 235.446L208.428 234.313L203.369 236.583L200.525 234.911L199.205 235.316C199.258 235.114 195.105 235.736 195.105 235.736C194.311 235.76 193.298 235.803 192.163 235.879C188.19 236.143 187.885 245.031 187.885 245.031C189.713 244.385 191.662 244.033 193.636 243.991L194.71 270.018C200.233 269.609 206.025 270.085 212.027 271.25L214.843 247.498L221.399 245.295C221.399 245.295 220.278 239.927 218.241 237.815Z" fill="#BA63FF"/>
<path d="M447.224 278.322L447.937 282.863C448.034 283.48 447.976 284.109 447.766 284.702C447.557 285.294 447.202 285.832 446.73 286.275C446.258 286.717 445.682 287.051 445.047 287.25C444.413 287.449 443.737 287.508 443.074 287.422C442.431 287.338 441.815 287.12 441.275 286.784C440.734 286.448 440.283 286.002 439.953 285.481C439.623 284.959 439.425 284.375 439.372 283.772C439.319 283.168 439.413 282.562 439.647 281.997L442.069 276.162L440.78 236.801L448.255 234.161L447.224 278.322Z" fill="#A0616A"/>
<path d="M426.088 213.04C431.782 213.04 436.398 208.742 436.398 203.44C436.398 198.138 431.782 193.84 426.088 193.84C420.394 193.84 415.778 198.138 415.778 203.44C415.778 208.742 420.394 213.04 426.088 213.04Z" fill="#A0616A"/>
<path d="M438.46 221.44L419.387 220.72C421.504 216.402 422.344 212.225 421.449 208.24H434.079C433.414 211.998 435.247 216.511 438.46 221.44Z" fill="#A0616A"/>
<path d="M435.367 258.881L407.273 260.801L408.294 246.018C405.056 238.847 405.573 233.669 409.384 230.238L409.729 225.244C409.839 223.645 410.485 222.119 411.576 220.88C412.666 219.641 414.146 218.751 415.808 218.336L420.676 217.12C426.979 220.558 432.003 220.511 435.625 216.64L441.419 219.403C442.822 220.073 443.974 221.124 444.721 222.417C445.468 223.71 445.774 225.185 445.6 226.644L435.367 258.881Z" fill="#920DC0"/>
<path d="M392.323 260.321L384.393 264.198C383.714 264.53 382.936 264.639 382.182 264.51C381.429 264.38 380.744 264.018 380.238 263.483C379.842 263.064 379.571 262.556 379.453 262.009C379.334 261.462 379.372 260.896 379.563 260.367C379.753 259.838 380.09 259.366 380.538 258.996C380.987 258.626 381.532 258.373 382.119 258.261L387.684 257.201L404.953 250.961L407.788 232.241L415.778 234.161L414.232 256.241L392.323 260.321Z" fill="#A0616A"/>
<path d="M448.77 235.361L440.007 240.161L439.491 220.96L441.002 220.48C443.062 220.48 445.038 221.242 446.495 222.599C447.952 223.955 448.77 225.795 448.77 227.713V235.361Z" fill="#920DC0"/>
<path d="M442.713 353.084L435.261 351.998C433.756 328.291 430.726 306.158 425.315 286.482C412.802 301.921 402.313 324.676 393.354 352.964L384.591 350.804L407.53 257.681L434.852 257.201C446.025 271.447 442.754 315.444 442.713 353.084Z" fill="#2F2E41"/>
<path d="M389.484 361.278L376.537 359.587C376.178 359.541 375.833 359.423 375.527 359.243C375.22 359.062 374.959 358.823 374.759 358.541C374.56 358.259 374.427 357.941 374.37 357.608C374.313 357.274 374.333 356.933 374.428 356.608C374.559 356.161 374.827 355.759 375.2 355.452C375.573 355.145 376.034 354.947 376.526 354.88L378.827 354.571L386.102 350.434L392.119 351.928L393.904 356.831C394.041 357.413 394.025 358.016 393.858 358.591C393.69 359.165 393.376 359.693 392.942 360.13C392.508 360.567 391.967 360.899 391.365 361.099C390.762 361.299 390.117 361.36 389.484 361.278Z" fill="#2F2E41"/>
<path d="M440.261 361.278L427.313 359.587C426.954 359.541 426.61 359.423 426.303 359.243C425.997 359.062 425.735 358.823 425.536 358.541C425.336 358.259 425.204 357.941 425.146 357.608C425.089 357.274 425.109 356.933 425.205 356.608C425.335 356.161 425.604 355.759 425.977 355.452C426.349 355.145 426.81 354.947 427.303 354.88L429.603 354.571L436.878 350.434L442.896 351.928L444.68 356.831C444.818 357.413 444.802 358.016 444.634 358.591C444.467 359.165 444.153 359.693 443.719 360.13C443.284 360.567 442.743 360.899 442.141 361.099C441.539 361.299 440.894 361.36 440.261 361.278Z" fill="#2F2E41"/>
<path d="M417.325 238.961C414.981 234.164 410.934 232.306 404.18 235.121L405.09 228.866C405.432 226.518 406.504 224.313 408.174 222.525C409.844 220.737 412.04 219.442 414.49 218.8L417.325 238.961Z" fill="#920DC0"/>
<path d="M413.92 198.514C413.92 198.514 412.299 186.76 425.532 190.614C425.532 190.614 434.984 189 438.084 200.008L441.222 211.548L439.693 210.773L438.98 212.225L436.501 212.809L435.44 210.849L434.927 213.229L414.626 215.114C414.626 215.114 423.719 210.107 423.863 201.133L422.131 202.837L413.92 198.514Z" fill="#2F2E41"/>
<path d="M436.416 195.483C439.235 195.483 441.521 193.355 441.521 190.73C441.521 188.105 439.235 185.976 436.416 185.976C433.597 185.976 431.311 188.105 431.311 190.73C431.311 193.355 433.597 195.483 436.416 195.483Z" fill="#2F2E41"/>
<path d="M431.156 189.566C431.24 188.36 431.814 187.229 432.762 186.404C433.71 185.578 434.96 185.12 436.258 185.123C436.153 185.111 436.048 185.096 435.941 185.089C435.272 185.049 434.601 185.132 433.966 185.334C433.332 185.535 432.746 185.851 432.243 186.263C431.739 186.675 431.328 187.176 431.032 187.736C430.736 188.296 430.562 188.905 430.519 189.528C430.476 190.151 430.565 190.775 430.782 191.366C430.998 191.957 431.337 192.503 431.78 192.971C432.222 193.44 432.76 193.823 433.361 194.099C433.963 194.374 434.617 194.536 435.286 194.576C435.393 194.583 435.499 194.58 435.605 194.58C434.318 194.429 433.141 193.825 432.314 192.894C431.487 191.962 431.073 190.772 431.156 189.566Z" fill="#2F2E41"/>
<path d="M460.993 358.872C458.32 368.328 362.788 365.89 363 357.227C365.673 347.772 461.205 350.209 460.993 358.872Z" fill="#585591" fill-opacity="0.5"/>
<path opacity="0.1" d="M1398.27 271H1329.13C1326.3 271 1324 273.134 1324 275.767V293.893C1324 296.526 1326.3 298.66 1329.13 298.66H1398.27C1401.11 298.66 1403.4 296.526 1403.4 293.893V275.767C1403.4 273.134 1401.11 271 1398.27 271Z" fill="#1E0728"/>
<path opacity="0.1" d="M1358.27 98H1289.13C1286.3 98 1284 100.134 1284 102.767V120.893C1284 123.526 1286.3 125.66 1289.13 125.66H1358.27C1361.11 125.66 1363.4 123.526 1363.4 120.893V102.767C1363.4 100.134 1361.11 98 1358.27 98Z" fill="#1E0728"/>
<path opacity="0.1" d="M1189.27 177H1120.13C1117.3 177 1115 179.134 1115 181.767V199.893C1115 202.526 1117.3 204.66 1120.13 204.66H1189.27C1192.11 204.66 1194.4 202.526 1194.4 199.893V181.767C1194.4 179.134 1192.11 177 1189.27 177Z" fill="#1E0728"/>
<path opacity="0.1" d="M686.273 141H617.132C614.297 141 612 143.134 612 145.767V163.893C612 166.526 614.297 168.66 617.132 168.66H686.273C689.107 168.66 691.404 166.526 691.404 163.893V145.767C691.404 143.134 689.107 141 686.273 141Z" fill="#1E0728"/>
<path opacity="0.1" d="M483.273 32H414.132C411.297 32 409 34.1342 409 36.7668V54.8934C409 57.526 411.297 59.6602 414.132 59.6602H483.273C486.107 59.6602 488.404 57.526 488.404 54.8934V36.7668C488.404 34.1342 486.107 32 483.273 32Z" fill="#1E0728"/>
<path opacity="0.1" d="M815.273 284H746.132C743.297 284 741 286.134 741 288.767V306.893C741 309.526 743.297 311.66 746.132 311.66H815.273C818.107 311.66 820.404 309.526 820.404 306.893V288.767C820.404 286.134 818.107 284 815.273 284Z" fill="#1E0728"/>
<path opacity="0.1" d="M686.273 205H617.132C614.297 205 612 207.134 612 209.767V227.893C612 230.526 614.297 232.66 617.132 232.66H686.273C689.107 232.66 691.404 230.526 691.404 227.893V209.767C691.404 207.134 689.107 205 686.273 205Z" fill="#1E0728"/>
<path opacity="0.1" d="M726.273 173H657.132C654.297 173 652 175.134 652 177.767V195.893C652 198.526 654.297 200.66 657.132 200.66H726.273C729.107 200.66 731.404 198.526 731.404 195.893V177.767C731.404 175.134 729.107 173 726.273 173Z" fill="#1E0728"/>
<path d="M1055.99 358.702C1053.32 368.158 957.788 365.72 958 357.057C960.673 347.602 1056.21 350.039 1055.99 358.702Z" fill="#585591" fill-opacity="0.5"/>
<path d="M1045.64 225.847C1046.02 226.252 1046.3 226.726 1046.46 227.237C1046.62 227.747 1046.67 228.284 1046.59 228.812C1046.52 229.34 1046.32 229.847 1046.02 230.301C1045.71 230.754 1045.31 231.145 1044.83 231.446L1024.65 244.184L1015.76 249.631C1015.26 249.94 1014.65 250.066 1014.05 249.983C1013.44 249.901 1012.9 249.616 1012.52 249.184V249.184C1012.29 248.932 1012.13 248.639 1012.04 248.324C1011.95 248.009 1011.94 247.681 1012 247.361C1012.07 247.041 1012.2 246.737 1012.41 246.471C1012.61 246.205 1012.87 245.983 1013.18 245.819L1021.79 241.225L1036.81 228.072L1027.15 218.537L1034.31 213.605L1045.64 225.847Z" fill="#A0616A"/>
<path d="M998.18 345.787H993.243L990.311 308.302L1002.83 307.973L998.18 345.787Z" fill="#A0616A"/>
<path d="M998.538 357.953C997.221 358.505 996.119 354.03 995.008 355.033C991.902 357.839 987.146 358.45 983 357.225L984.451 357.21C984.201 357.136 983.97 357.017 983.771 356.858C983.573 356.7 983.412 356.506 983.297 356.288C983.183 356.071 983.118 355.834 983.106 355.593C983.094 355.352 983.135 355.111 983.227 354.884V354.884C983.338 354.614 983.518 354.372 983.753 354.179C983.987 353.987 984.269 353.85 984.574 353.78L987.877 353.02L993.064 344.636L998.359 344.307C999.539 345.69 1000.36 347.302 1000.77 349.02C1001.17 350.738 1001.15 352.518 1000.7 354.227C1000.22 356.03 999.476 357.559 998.538 357.953Z" fill="#2F2E41"/>
<path d="M1031.05 345.787H1026.12L1023.18 308.302L1036.06 306.001L1031.05 345.787Z" fill="#A0616A"/>
<path d="M1031.41 357.953C1030.09 358.505 1028.99 354.03 1027.88 355.033C1024.77 357.839 1020.02 358.45 1015.87 357.225L1017.32 357.21C1017.07 357.136 1016.84 357.017 1016.64 356.858C1016.45 356.7 1016.28 356.506 1016.17 356.288C1016.06 356.071 1015.99 355.834 1015.98 355.593C1015.97 355.352 1016.01 355.111 1016.1 354.884C1016.21 354.614 1016.39 354.372 1016.63 354.179C1016.86 353.987 1017.14 353.85 1017.45 353.78L1020.75 353.02L1025.94 344.636L1031.59 343.978L1031.73 344.193C1032.82 345.812 1033.53 347.626 1033.8 349.515C1034.07 351.404 1033.9 353.325 1033.29 355.148C1032.82 356.532 1032.18 357.628 1031.41 357.953Z" fill="#2F2E41"/>
<path d="M1036.65 214.453C1032.11 215.033 1028.97 217.319 1027.69 221.878L1019.34 207.714C1018.85 206.814 1018.72 205.78 1018.99 204.802C1019.26 203.823 1019.9 202.966 1020.8 202.388C1021.75 201.773 1022.92 201.518 1024.07 201.673C1025.23 201.828 1026.27 202.382 1026.99 203.222L1036.65 214.453Z" fill="#7F2F87"/>
<path d="M1045.4 304.356C1025.1 312.609 1004.34 313.625 983.157 308.302C990.892 280.725 1000.02 255.79 999.968 235.306L1020.71 233.662L1023.91 238.317C1031.49 249.362 1036.72 261.628 1039.33 274.465L1045.4 304.356Z" fill="#2F2E41"/>
<path d="M1011.41 192.89C1017.34 192.89 1022.15 188.473 1022.15 183.025C1022.15 177.577 1017.34 173.161 1011.41 173.161C1005.49 173.161 1000.68 177.577 1000.68 183.025C1000.68 188.473 1005.49 192.89 1011.41 192.89Z" fill="#A0616A"/>
<path d="M1023.22 200.452L1009.98 201.11L1007.84 190.259L1018.57 188.615L1023.22 200.452Z" fill="#A0616A"/>
<path d="M1021.79 235.306L1007.29 235.682L999.968 236.621C996.375 225.711 993.35 214.825 1000.68 205.713L1009.27 197.822L1022.15 197.493L1022.32 197.583C1024.36 198.66 1025.95 200.345 1026.81 202.361C1027.67 204.377 1027.76 206.603 1027.07 208.672C1023.87 218.218 1021.82 227.232 1021.79 235.306Z" fill="#7F2F87"/>
<path d="M999.611 265.886L998.711 277.185C998.663 277.79 998.379 278.359 997.91 278.787C997.442 279.214 996.822 279.472 996.163 279.512V279.512C995.783 279.536 995.403 279.486 995.045 279.366C994.688 279.247 994.361 279.06 994.087 278.818C993.812 278.576 993.595 278.285 993.45 277.961C993.305 277.638 993.235 277.291 993.244 276.941L993.53 265.886L1002.47 234.649L1002.83 215.578L1012.85 215.249L1012.13 237.279L999.611 265.886Z" fill="#A0616A"/>
<path d="M1013.92 216.893C1009.67 215.306 1005.71 215.837 1002.11 219.194L1002.61 203.092C1002.67 202.085 1003.12 201.133 1003.89 200.409C1004.65 199.685 1005.67 199.239 1006.77 199.151V199.151C1007.93 199.058 1009.08 199.377 1009.99 200.042C1010.91 200.706 1011.51 201.666 1011.68 202.726L1013.92 216.893Z" fill="#7F2F87"/>
<path d="M1034 208H1001C1008.7 195.314 1011.18 183.512 1001 173.401C1001.17 170.364 1007.43 167.731 1012.3 168.022C1018.04 168.366 1025.75 170.991 1026.83 174.517L1034 208Z" fill="#2F2E41"/>
<path d="M983 141.495H981.557V105.077C981.557 102.31 980.965 99.5687 979.814 97.0115C978.664 94.4542 976.978 92.1307 974.853 90.1734C972.728 88.2162 970.204 86.6637 967.428 85.6044C964.651 84.5452 961.675 84 958.669 84H874.888C871.882 84 868.906 84.5452 866.129 85.6044C863.352 86.6637 860.829 88.2162 858.704 90.1734C856.578 92.1307 854.892 94.4542 853.742 97.0115C852.592 99.5687 852 102.31 852 105.077V304.866C852 307.634 852.592 310.375 853.742 312.932C854.892 315.49 856.578 317.813 858.704 319.77C860.829 321.728 863.352 323.28 866.129 324.339C868.906 325.399 871.882 325.944 874.888 325.944H958.669C961.675 325.944 964.651 325.399 967.428 324.339C970.204 323.28 972.728 321.728 974.853 319.77C976.978 317.813 978.664 315.49 979.814 312.932C980.965 310.375 981.557 307.634 981.557 304.866V167.417H983V141.495Z" fill="#3F3D56"/>
<path d="M959.592 89.4836H948.656C949.159 90.6191 949.351 91.8511 949.215 93.071C949.079 94.291 948.62 95.4614 947.877 96.4792C947.134 97.4971 946.131 98.3311 944.956 98.9077C943.781 99.4844 942.469 99.7861 941.138 99.7862H893.141C891.809 99.7861 890.498 99.4844 889.322 98.9077C888.147 98.3311 887.144 97.4971 886.401 96.4792C885.659 95.4614 885.199 94.291 885.063 93.0711C884.927 91.8511 885.119 90.6191 885.622 89.4836H875.408C873.163 89.4836 870.94 89.8908 868.867 90.6818C866.793 91.4728 864.909 92.6323 863.322 94.0939C861.734 95.5555 860.475 97.2907 859.617 99.2004C858.758 101.11 858.315 103.157 858.315 105.224V304.72C858.315 306.787 858.758 308.834 859.616 310.743C860.475 312.653 861.734 314.388 863.322 315.85C864.909 317.311 866.793 318.471 868.867 319.262C870.94 320.053 873.163 320.46 875.408 320.46H959.592C961.837 320.46 964.06 320.053 966.133 319.262C968.207 318.471 970.091 317.311 971.678 315.85C973.266 314.388 974.525 312.653 975.384 310.743C976.242 308.834 976.685 306.787 976.685 304.72V105.224C976.685 101.049 974.884 97.0458 971.678 94.0939C968.473 91.142 964.126 89.4836 959.592 89.4836V89.4836Z" fill="white"/>
<path d="M961.902 120.646H873.098V190.791H961.902V120.646Z" fill="#E6E6E6"/>
<path d="M961.902 219.381H873.098V289.527H961.902V219.381Z" fill="#E6E6E6"/>
<path d="M898.317 142.304C899.146 142.304 899.818 141.515 899.818 140.542C899.818 139.569 899.146 138.78 898.317 138.78C897.488 138.78 896.816 139.569 896.816 140.542C896.816 141.515 897.488 142.304 898.317 142.304Z" fill="#B13DA6"/>
<path opacity="0.2" d="M898.951 138.946C899.217 139.229 899.388 139.615 899.432 140.033C899.476 140.451 899.391 140.874 899.192 141.225C898.994 141.576 898.694 141.831 898.348 141.945C898.002 142.058 897.633 142.022 897.308 141.843C897.468 142.014 897.657 142.143 897.863 142.22C898.069 142.297 898.287 142.321 898.501 142.29C898.716 142.259 898.922 142.174 899.106 142.04C899.29 141.907 899.447 141.729 899.567 141.517C899.687 141.306 899.766 141.067 899.8 140.817C899.834 140.566 899.821 140.31 899.762 140.066C899.704 139.821 899.601 139.595 899.461 139.402C899.321 139.208 899.147 139.053 898.951 138.946V138.946Z" fill="black"/>
<path d="M936.909 144.212C938.947 144.212 940.599 143.423 940.599 142.45C940.599 141.477 938.947 140.688 936.909 140.688C934.87 140.688 933.218 141.477 933.218 142.45C933.218 143.423 934.87 144.212 936.909 144.212Z" fill="#3F3D56"/>
<path opacity="0.2" d="M936.909 140.688C936.782 140.688 936.657 140.691 936.533 140.697C938.395 140.787 939.848 141.538 939.848 142.45C939.848 143.363 938.395 144.113 936.533 144.203C936.657 144.209 936.782 144.212 936.909 144.212C938.947 144.212 940.599 143.423 940.599 142.45C940.599 141.477 938.947 140.688 936.909 140.688Z" fill="black"/>
<path d="M941.725 142.45H923.211V140.101C923.211 139.984 923.171 139.872 923.101 139.79C923.031 139.707 922.935 139.661 922.836 139.661H912.578C912.478 139.661 912.383 139.707 912.313 139.79C912.242 139.872 912.203 139.984 912.203 140.101V142.45H901.445V140.982C901.445 140.865 901.405 140.753 901.335 140.671C901.264 140.588 901.169 140.542 901.069 140.542H895.565C895.466 140.542 895.37 140.588 895.3 140.671C895.229 140.753 895.19 140.865 895.19 140.982V142.45H893.689C893.64 142.45 893.591 142.462 893.545 142.484C893.5 142.506 893.458 142.538 893.423 142.579C893.388 142.62 893.361 142.669 893.342 142.722C893.323 142.776 893.313 142.833 893.314 142.891V171.816C893.313 171.874 893.323 171.931 893.342 171.984C893.361 172.038 893.388 172.086 893.423 172.127C893.458 172.168 893.5 172.201 893.545 172.223C893.591 172.245 893.64 172.256 893.689 172.256H941.725C941.774 172.256 941.823 172.245 941.869 172.223C941.914 172.201 941.956 172.168 941.99 172.127C942.025 172.086 942.053 172.038 942.072 171.984C942.091 171.931 942.1 171.874 942.1 171.816V142.891C942.1 142.833 942.091 142.776 942.072 142.722C942.053 142.669 942.025 142.62 941.99 142.579C941.956 142.538 941.914 142.506 941.869 142.484C941.823 142.462 941.774 142.45 941.725 142.45V142.45Z" fill="#3F3D56"/>
<path opacity="0.2" d="M941.723 170.099H893.686C893.637 170.099 893.588 170.088 893.543 170.066C893.497 170.044 893.456 170.011 893.421 169.97C893.386 169.929 893.358 169.881 893.34 169.827C893.321 169.774 893.311 169.716 893.311 169.659V171.714C893.311 171.772 893.321 171.829 893.34 171.883C893.358 171.936 893.386 171.985 893.421 172.026C893.456 172.067 893.497 172.099 893.543 172.121C893.588 172.143 893.637 172.155 893.686 172.155H941.723C941.772 172.155 941.821 172.143 941.866 172.121C941.912 172.099 941.953 172.067 941.988 172.026C942.023 171.985 942.051 171.936 942.069 171.883C942.088 171.829 942.098 171.772 942.098 171.714V169.659C942.098 169.716 942.088 169.774 942.069 169.827C942.051 169.881 942.023 169.929 941.988 169.97C941.953 170.011 941.912 170.044 941.866 170.066C941.821 170.088 941.772 170.099 941.723 170.099Z" fill="black"/>
<path opacity="0.2" d="M942.1 155.958H893.314V161.538H942.1V155.958Z" fill="black"/>
<path opacity="0.2" d="M942.1 153.169H893.314V158.748H942.1V153.169Z" fill="black"/>
<path d="M942.1 154.49H893.314V160.07H942.1V154.49Z" fill="#B13DA6"/>
<path d="M917.707 168.439C922.957 168.439 927.214 163.443 927.214 157.28C927.214 151.117 922.957 146.121 917.707 146.121C912.456 146.121 908.199 151.117 908.199 157.28C908.199 163.443 912.456 168.439 917.707 168.439Z" fill="#B13DA6"/>
<path opacity="0.2" d="M925.03 150.164C926.239 152.583 926.628 155.447 926.12 158.187C925.611 160.927 924.242 163.342 922.286 164.951C920.329 166.56 917.928 167.245 915.56 166.87C913.192 166.495 911.031 165.088 909.508 162.927C910.172 164.256 911.064 165.409 912.127 166.314C913.19 167.218 914.401 167.855 915.683 168.183C916.966 168.511 918.293 168.523 919.58 168.22C920.867 167.916 922.087 167.303 923.162 166.419C924.237 165.535 925.145 164.399 925.827 163.083C926.51 161.766 926.953 160.299 927.128 158.771C927.304 157.244 927.208 155.691 926.847 154.21C926.486 152.728 925.867 151.351 925.03 150.164V150.164Z" fill="black"/>
<path d="M917.707 165.584C921.614 165.584 924.782 161.866 924.782 157.28C924.782 152.694 921.614 148.976 917.707 148.976C913.799 148.976 910.632 152.694 910.632 157.28C910.632 161.866 913.799 165.584 917.707 165.584Z" fill="#3F3D56"/>
<path d="M923.211 157.28C923.212 158.157 923.06 159.025 922.764 159.83C922.606 160.265 922.406 160.677 922.17 161.059C921.704 161.818 921.103 162.45 920.408 162.909C919.713 163.369 918.942 163.646 918.147 163.721C917.352 163.796 916.553 163.668 915.805 163.345C915.057 163.022 914.377 162.512 913.813 161.85C913.249 161.188 912.815 160.39 912.539 159.512C912.264 158.634 912.155 157.696 912.219 156.763C912.283 155.83 912.519 154.925 912.91 154.109C913.302 153.294 913.84 152.588 914.487 152.041C914.812 151.764 915.164 151.53 915.534 151.344C916.371 150.922 917.285 150.75 918.192 150.845C919.1 150.939 919.973 151.297 920.734 151.885C921.495 152.473 922.12 153.274 922.552 154.216C922.984 155.158 923.211 156.21 923.211 157.28V157.28Z" fill="white"/>
<path opacity="0.2" d="M923.152 156.339C922.947 154.696 922.21 153.21 921.094 152.189C921.578 153.077 921.869 154.09 921.942 155.141C922.015 156.191 921.867 157.247 921.513 158.215C921.355 158.65 921.156 159.062 920.919 159.444C920.486 160.149 919.936 160.744 919.302 161.194C918.668 161.644 917.964 161.939 917.23 162.061C916.497 162.183 915.751 162.13 915.035 161.906C914.32 161.681 913.65 161.289 913.067 160.754C913.55 161.643 914.211 162.38 914.992 162.9C915.773 163.421 916.651 163.708 917.549 163.739C918.447 163.769 919.338 163.54 920.144 163.073C920.949 162.606 921.645 161.915 922.17 161.059C922.406 160.677 922.606 160.265 922.764 159.83C923.166 158.731 923.3 157.522 923.152 156.339V156.339Z" fill="black"/>
<path d="M919.754 272.207C919.754 272.207 908.552 268.099 910.153 256.555C911.753 245.011 911.219 246.185 911.219 246.185C911.219 246.185 913.886 239.729 918.687 237.381C918.687 237.381 907.219 228.772 898.151 244.424C898.151 244.424 895.751 253.816 897.618 260.077C899.485 266.338 903.752 271.425 903.752 271.425C903.752 271.425 907.752 274.36 912.286 274.36C916.82 274.36 919.754 272.207 919.754 272.207Z" fill="#807D7D"/>
<path d="M938.289 265.262C938.289 265.262 931.888 277.784 911.886 275.436C891.884 273.088 897.218 247.653 897.218 247.653C897.218 247.653 894.983 266.627 906.677 272.207C909.918 273.753 914.15 273.767 917.245 272.068C919.296 270.943 921.054 268.979 920.82 265.555L938.289 265.262Z" fill="#3C3F85"/>
<path d="M937.665 241.438C937.665 241.438 928.554 229.359 908.819 233.468C896.586 237.292 896.813 247.137 896.813 247.137C895.338 263.462 911.215 263.198 914.953 245.794C915.609 242.738 914.286 241 914.286 241C914.286 241 912.419 245.109 906.686 245.99C900.943 246.871 899.961 245.469 900.152 243.348C900.153 243.327 900.155 243.306 900.157 243.285C900.315 241.568 901.223 239.933 902.748 238.624C906.035 235.816 913.201 231.716 920.82 240.316L921.354 241.283C921.354 241.283 930.774 243.147 937.665 241.438Z" fill="#3C3F85"/>
<path d="M922.951 241.098C921.573 241.099 920.252 241.502 919.277 242.216C918.303 242.931 917.755 243.901 917.753 244.912V262.857C917.755 263.909 918.326 264.919 919.34 265.663C920.355 266.407 921.73 266.826 923.165 266.827H936.034C937.763 266.825 939.421 266.321 940.644 265.424C941.866 264.527 942.554 263.311 942.556 262.043V245.92C942.554 244.642 941.861 243.416 940.629 242.512C939.397 241.608 937.726 241.1 935.984 241.098L922.951 241.098Z" fill="#3F3D56"/>
<path d="M925.183 241.881C924.451 241.882 923.748 242.095 923.23 242.475C922.713 242.855 922.421 243.37 922.42 243.908V264.115C922.421 264.653 922.713 265.168 923.23 265.548C923.748 265.928 924.451 266.142 925.183 266.142H937.421C938.889 266.141 940.295 265.713 941.333 264.952C942.371 264.19 942.954 263.158 942.956 262.082V245.458C942.954 244.51 942.44 243.6 941.526 242.93C940.612 242.259 939.373 241.882 938.08 241.881H925.183Z" fill="#48095F"/>
<path opacity="0.2" d="M924.732 241.993C924.387 242.181 924.107 242.426 923.915 242.707C923.722 242.989 923.621 243.299 923.621 243.614V263.822C923.621 264.359 923.913 264.874 924.431 265.254C924.948 265.634 925.651 265.848 926.383 265.849H938.622C939.086 265.847 939.548 265.803 939.997 265.717C939.171 266.06 938.238 266.24 937.288 266.24H925.05C924.317 266.239 923.615 266.026 923.097 265.646C922.579 265.266 922.288 264.751 922.287 264.213V244.005C922.288 243.509 922.538 243.029 922.988 242.658C923.439 242.288 924.059 242.051 924.732 241.993V241.993Z" fill="black"/>
<path d="M918.687 251.664C920.16 251.664 921.354 250.569 921.354 249.218C921.354 247.867 920.16 246.772 918.687 246.772C917.214 246.772 916.02 247.867 916.02 249.218C916.02 250.569 917.214 251.664 918.687 251.664Z" fill="#48095F"/>
<path opacity="0.2" d="M920.554 249.218C920.554 248.035 919.637 247.048 918.42 246.821C918.594 246.789 918.774 246.772 918.953 246.772C920.426 246.772 921.62 247.867 921.62 249.218C921.62 250.569 920.426 251.664 918.953 251.664C918.774 251.664 918.594 251.647 918.42 251.615C919.637 251.388 920.554 250.401 920.554 249.218Z" fill="black"/>
<path d="M918.153 255.479V260.566C918.153 260.748 918.252 260.922 918.427 261.05C918.602 261.179 918.839 261.251 919.087 261.251C919.334 261.251 919.572 261.179 919.747 261.05C919.922 260.922 920.02 260.748 920.02 260.566V255.479C920.02 255.297 919.922 255.123 919.747 254.995C919.572 254.866 919.334 254.794 919.087 254.794C918.839 254.794 918.602 254.866 918.427 254.995C918.252 255.123 918.153 255.297 918.153 255.479V255.479Z" fill="#48095F"/>
<path opacity="0.2" d="M919.62 260.566V255.479C919.619 255.332 919.554 255.189 919.434 255.072C919.314 254.954 919.145 254.868 918.953 254.826C919.04 254.806 919.13 254.795 919.22 254.794C919.468 254.794 919.705 254.867 919.88 254.995C920.055 255.123 920.153 255.297 920.154 255.479V260.566C920.153 260.748 920.055 260.922 919.88 261.05C919.705 261.178 919.468 261.251 919.22 261.251C919.13 261.25 919.04 261.239 918.953 261.219C919.145 261.177 919.314 261.091 919.434 260.973C919.554 260.856 919.619 260.713 919.62 260.566Z" fill="black"/>
<path d="M904.819 265.946C905.555 265.946 906.152 265.508 906.152 264.968C906.152 264.428 905.555 263.99 904.819 263.99C904.082 263.99 903.485 264.428 903.485 264.968C903.485 265.508 904.082 265.946 904.819 265.946Z" fill="white"/>
<path opacity="0.3" d="M905.619 264.968C905.619 264.743 905.513 264.524 905.318 264.349C905.124 264.175 904.853 264.055 904.552 264.01C904.746 263.981 904.946 263.984 905.138 264.018C905.33 264.053 905.509 264.119 905.662 264.211C905.815 264.302 905.938 264.418 906.023 264.549C906.108 264.68 906.152 264.823 906.152 264.968C906.152 265.113 906.108 265.256 906.023 265.388C905.938 265.519 905.815 265.634 905.662 265.726C905.509 265.818 905.33 265.883 905.138 265.918C904.946 265.953 904.746 265.956 904.552 265.927C904.853 265.882 905.124 265.762 905.318 265.587C905.513 265.412 905.619 265.194 905.619 264.968V264.968Z" fill="black"/>
<path d="M904.217 262.064C904.954 262.064 905.551 261.626 905.551 261.086C905.551 260.546 904.954 260.108 904.217 260.108C903.481 260.108 902.884 260.546 902.884 261.086C902.884 261.626 903.481 262.064 904.217 262.064Z" fill="white"/>
<path opacity="0.3" d="M905.017 261.086C905.017 260.861 904.911 260.642 904.717 260.467C904.522 260.293 904.252 260.173 903.951 260.127C904.144 260.098 904.344 260.101 904.536 260.136C904.728 260.171 904.907 260.237 905.061 260.328C905.214 260.42 905.337 260.536 905.422 260.667C905.507 260.798 905.55 260.941 905.55 261.086C905.55 261.231 905.507 261.374 905.422 261.505C905.337 261.636 905.214 261.752 905.061 261.844C904.907 261.935 904.728 262.001 904.536 262.036C904.344 262.071 904.144 262.074 903.951 262.045C904.252 261.999 904.522 261.879 904.717 261.705C904.911 261.53 905.017 261.311 905.017 261.086V261.086Z" fill="black"/>
<path d="M905.619 244.229C906.355 244.229 906.952 243.791 906.952 243.251C906.952 242.71 906.355 242.272 905.619 242.272C904.882 242.272 904.285 242.71 904.285 243.251C904.285 243.791 904.882 244.229 905.619 244.229Z" fill="white"/>
<path opacity="0.3" d="M906.419 243.251C906.419 243.025 906.313 242.806 906.118 242.632C905.924 242.457 905.653 242.337 905.352 242.292C905.546 242.263 905.746 242.266 905.938 242.301C906.13 242.335 906.309 242.401 906.462 242.493C906.615 242.585 906.738 242.7 906.823 242.831C906.908 242.962 906.952 243.105 906.952 243.251C906.952 243.396 906.908 243.539 906.823 243.67C906.738 243.801 906.615 243.916 906.462 244.008C906.309 244.1 906.13 244.166 905.938 244.2C905.746 244.235 905.546 244.238 905.352 244.209C905.653 244.164 905.924 244.044 906.118 243.869C906.313 243.695 906.419 243.476 906.419 243.251V243.251Z" fill="black"/>
<path opacity="0.2" d="M933.207 257.019C934.68 257.019 935.874 255.924 935.874 254.573C935.874 253.223 934.68 252.128 933.207 252.128C931.734 252.128 930.54 253.223 930.54 254.573C930.54 255.924 931.734 257.019 933.207 257.019Z" fill="white"/>
<path opacity="0.2" d="M933.207 259.143C935.959 259.143 938.19 257.097 938.19 254.573C938.19 252.05 935.959 250.004 933.207 250.004C930.454 250.004 928.223 252.05 928.223 254.573C928.223 257.097 930.454 259.143 933.207 259.143Z" fill="white"/>
<path opacity="0.2" d="M933.207 261.458C937.353 261.458 940.714 258.376 940.714 254.573C940.714 250.771 937.353 247.688 933.207 247.688C929.06 247.688 925.699 250.771 925.699 254.573C925.699 258.376 929.06 261.458 933.207 261.458Z" fill="white"/>
</svg>
