<svg width="375" height="158" viewBox="0 0 375 158" fill="none" xmlns="http://www.w3.org/2000/svg">
<rect width="375" height="158" fill="white"/>
<g opacity="0.9">
<rect width="375" height="135" fill="#E37EF3"/>
<path opacity="0.1" d="M266.738 40H236.262C235.013 40 234 41.1574 234 42.585V52.415C234 53.8426 235.013 55 236.262 55H266.738C267.987 55 269 53.8426 269 52.415V42.585C269 41.1574 267.987 40 266.738 40Z" fill="#1E0728"/>
<path opacity="0.1" d="M321.738 89H291.262C290.013 89 289 90.1574 289 91.585V101.415C289 102.843 290.013 104 291.262 104H321.738C322.987 104 324 102.843 324 101.415V91.585C324 90.1574 322.987 89 321.738 89Z" fill="#1E0728"/>
<path opacity="0.1" d="M350.738 68H320.262C319.013 68 318 69.1574 318 70.585V80.415C318 81.8426 319.013 83 320.262 83H350.738C351.987 83 353 81.8426 353 80.415V70.585C353 69.1574 351.987 68 350.738 68Z" fill="#1E0728"/>
<path opacity="0.1" d="M350.738 110H320.262C319.013 110 318 111.157 318 112.585V122.415C318 123.843 319.013 125 320.262 125H350.738C351.987 125 353 123.843 353 122.415V112.585C353 111.157 351.987 110 350.738 110Z" fill="#1E0728"/>
<path opacity="0.1" d="M219.738 89H189.262C188.013 89 187 90.1574 187 91.585V101.415C187 102.843 188.013 104 189.262 104H219.738C220.987 104 222 102.843 222 101.415V91.585C222 90.1574 220.987 89 219.738 89Z" fill="#1E0728"/>
</g>
<path d="M163.554 30.0778H30.0577V117.957H163.554V30.0778Z" fill="#E6E6E6"/>
<path d="M159.736 41.1H33.8741V112.758H159.736V41.1Z" fill="white"/>
<path d="M163.496 30H30V35.8294H163.496V30Z" fill="#5A0157"/>
<path d="M34.2145 34.0607C34.7951 34.0607 35.2657 33.577 35.2657 32.9803C35.2657 32.3836 34.7951 31.8999 34.2145 31.8999C33.634 31.8999 33.1634 32.3836 33.1634 32.9803C33.1634 33.577 33.634 34.0607 34.2145 34.0607Z" fill="white"/>
<path d="M38.2043 34.0607C38.7848 34.0607 39.2554 33.577 39.2554 32.9803C39.2554 32.3836 38.7848 31.8999 38.2043 31.8999C37.6238 31.8999 37.1531 32.3836 37.1531 32.9803C37.1531 33.577 37.6238 34.0607 38.2043 34.0607Z" fill="white"/>
<path d="M42.1943 34.0607C42.7749 34.0607 43.2455 33.577 43.2455 32.9803C43.2455 32.3836 42.7749 31.8999 42.1943 31.8999C41.6138 31.8999 41.1432 32.3836 41.1432 32.9803C41.1432 33.577 41.6138 34.0607 42.1943 34.0607Z" fill="white"/>
<path d="M73.9767 46.9938H49.36V74.4447H73.9767V46.9938Z" fill="#E6E6E6"/>
<path d="M109.113 46.9938H84.4963V74.4447H109.113V46.9938Z" fill="#E6E6E6"/>
<path d="M144.249 46.9938H119.633V74.4447H144.249V46.9938Z" fill="#E6E6E6"/>
<path d="M73.9767 79.4135H49.36V106.864H73.9767V79.4135Z" fill="#E6E6E6"/>
<path d="M109.113 79.4135H84.4963V106.864H109.113V79.4135Z" fill="#E6E6E6"/>
<path d="M144.249 79.4135H119.633V106.864H144.249V79.4135Z" fill="#E6E6E6"/>
<path d="M90.4461 86.4685L94.9439 84.6408L95.4668 93.7794C95.4668 93.7794 96.4082 96.5747 96.0944 97.6498C96.0944 97.6498 96.3036 99.4775 95.7806 99.585C95.2576 99.6925 93.7933 99.9076 93.6887 99.8001C93.5841 99.6925 93.5841 99.37 93.5841 99.37C93.5841 99.37 92.5381 100.123 92.4335 100.983C92.4335 100.983 88.0404 102.38 87.9358 101.09C87.8312 99.8001 90.1323 98.7249 90.1323 98.7249L91.9105 95.9296L90.4461 86.4685Z" fill="white"/>
<path d="M99.9647 86.4685L104.462 84.6408L104.985 93.7794C104.985 93.7794 105.927 96.5747 105.613 97.6498C105.613 97.6498 105.822 99.4775 105.299 99.585C104.776 99.6925 103.312 99.9076 103.207 99.8001C103.103 99.6925 103.103 99.37 103.103 99.37C103.103 99.37 102.057 100.123 101.952 100.983C101.952 100.983 97.5589 102.38 97.4543 101.09C97.3497 99.8001 99.6509 98.7249 99.6509 98.7249L101.429 95.9296L99.9647 86.4685Z" fill="white"/>
<path d="M100.405 51.1784C100.405 51.1784 99.4469 53.9289 100.557 55.1693L99.6315 58.4368C99.6315 58.4368 102.918 68.572 101.979 69.9877C101.979 69.9877 98.4733 71.7895 91.4614 69.3442L94.31 57.9863L93.9031 53.1922L94.4665 50.9399L95.7187 50.8112C95.7187 50.8112 94.9674 53.707 96.3447 54.1574C97.7221 54.6079 99.0658 50.8835 99.0658 50.8835L100.405 51.1784Z" fill="#612156"/>
<path d="M56.1766 68.9349L57.3852 69.4431L63.1533 61.6509L64.9662 70.7983L66.1748 70.5724C66.95 62.6862 67.5822 54.6423 66.8065 50.8378L62.3293 50.6402L60.2967 57.3031L59.3079 61.8203L56.1766 68.9349Z" fill="white"/>
<path d="M129.529 50.7746C129.529 50.7746 127.879 53.1315 127.96 54.0825C128.04 55.0336 129.086 70.5398 129.086 70.5398L131.54 70.6638L130.816 59.4994L131.419 56.4809L132.908 70.5398L135.925 70.6225L133.23 52.3872L132.707 50.7746L129.529 50.7746Z" fill="white"/>
<path d="M138.851 88.7442C138.413 88.204 137.66 87.912 136.937 87.7542C136.959 87.6866 134.739 87.2152 134.701 87.3124L133.865 86.6273L131.294 87.9994L129.849 86.9886L129.178 87.2334C129.206 87.1117 127.095 87.4874 127.095 87.4874C126.692 87.5023 126.177 87.5282 125.6 87.5738C123.582 87.7334 123.427 93.1068 123.427 93.1068C124.355 92.7162 125.346 92.5031 126.349 92.4779L126.894 98.9057C129.701 98.6583 132.644 98.9462 135.694 99.6506L137.124 94.598L140.455 93.2664C140.455 93.2664 139.886 90.0211 138.851 88.7442Z" fill="#A53499"/>
<path d="M67.3619 85.6838C67.0011 85.2388 66.3808 84.9981 65.7851 84.8681C65.803 84.8124 63.9735 84.424 63.9429 84.5041L63.2534 83.9395L61.1353 85.0701L59.9449 84.2372L59.392 84.439C59.4145 84.3387 57.6755 84.6482 57.6755 84.6482C57.3433 84.6605 56.919 84.6819 56.444 84.7194C54.7808 84.8509 54.6528 89.2784 54.6528 89.2784C55.4181 88.9566 56.2341 88.781 57.0607 88.7602L57.5102 101.724C59.8225 101.521 62.2475 101.758 64.7604 102.338L65.939 90.5071L68.684 89.4099C68.684 89.4099 68.2149 86.7359 67.3619 85.6838Z" fill="#BA63FF"/>
<path d="M164.228 102.86L164.527 105.123C164.568 105.43 164.543 105.743 164.455 106.038C164.368 106.333 164.219 106.601 164.022 106.822C163.824 107.042 163.583 107.208 163.317 107.308C163.052 107.407 162.769 107.436 162.491 107.393C162.222 107.352 161.964 107.243 161.738 107.076C161.512 106.908 161.322 106.686 161.184 106.426C161.046 106.166 160.963 105.875 160.941 105.575C160.919 105.275 160.958 104.972 161.056 104.691L162.07 101.784L161.531 82.1787L164.66 80.8636L164.228 102.86Z" fill="#A0616A"/>
<path d="M155.38 70.3435C157.764 70.3435 159.696 68.2026 159.696 65.5616C159.696 62.9206 157.764 60.7797 155.38 60.7797C152.996 60.7797 151.063 62.9206 151.063 65.5616C151.063 68.2026 152.996 70.3435 155.38 70.3435Z" fill="#A0616A"/>
<path d="M160.559 74.5276L152.574 74.169C153.461 72.0181 153.812 69.9375 153.437 67.9525H158.725C158.447 69.8245 159.214 72.0722 160.559 74.5276Z" fill="#A0616A"/>
<path d="M159.264 93.1771L147.502 94.1334L147.93 86.77C146.574 83.1981 146.791 80.6188 148.386 78.9101L148.531 76.4222C148.577 75.626 148.847 74.8658 149.304 74.2486C149.76 73.6314 150.38 73.1883 151.076 72.9815L153.114 72.3757C155.753 74.0883 157.856 74.065 159.372 72.1367L161.798 73.513C162.386 73.8465 162.868 74.3701 163.181 75.0143C163.493 75.6585 163.622 76.3928 163.549 77.1197L159.264 93.1771Z" fill="#920DC0"/>
<path d="M141.244 93.8944L137.923 95.8255C137.639 95.9907 137.313 96.0453 136.998 95.9807C136.682 95.9161 136.396 95.7359 136.184 95.4691C136.018 95.2605 135.905 95.0074 135.855 94.735C135.806 94.4627 135.822 94.1807 135.901 93.9173C135.981 93.6539 136.122 93.4184 136.31 93.2342C136.498 93.0501 136.726 92.9239 136.971 92.8682L139.301 92.3403L146.531 89.2321L147.718 79.9073L151.063 80.8637L150.416 91.8621L141.244 93.8944Z" fill="#A0616A"/>
<path d="M164.876 81.4614L161.207 83.8524L160.991 74.2886L161.624 74.0495C162.486 74.0495 163.313 74.4291 163.923 75.1047C164.533 75.7804 164.876 76.6968 164.876 77.6524V81.4614Z" fill="#920DC0"/>
<path d="M162.34 140.1L159.22 139.559C158.59 127.75 157.321 116.726 155.056 106.925C149.817 114.615 145.426 125.95 141.675 140.04L138.006 138.964L147.61 92.5794L159.049 92.3403C163.727 99.4361 162.357 121.351 162.34 140.1Z" fill="#2F2E41"/>
<path d="M140.055 144.181L134.634 143.339C134.484 143.316 134.34 143.257 134.212 143.167C134.083 143.078 133.974 142.958 133.89 142.818C133.807 142.678 133.751 142.519 133.727 142.353C133.703 142.187 133.712 142.017 133.752 141.855C133.806 141.632 133.919 141.432 134.075 141.279C134.231 141.127 134.424 141.028 134.63 140.995L135.593 140.84L138.639 138.78L141.158 139.524L141.905 141.966C141.963 142.256 141.956 142.557 141.886 142.843C141.816 143.129 141.684 143.392 141.503 143.609C141.321 143.827 141.094 143.993 140.842 144.092C140.59 144.192 140.32 144.222 140.055 144.181Z" fill="#2F2E41"/>
<path d="M161.313 144.181L155.892 143.339C155.742 143.316 155.598 143.257 155.47 143.167C155.341 143.078 155.232 142.958 155.148 142.818C155.065 142.678 155.009 142.519 154.985 142.353C154.961 142.187 154.97 142.017 155.01 141.855C155.065 141.632 155.177 141.432 155.333 141.279C155.489 141.127 155.682 141.028 155.888 140.995L156.851 140.84L159.897 138.78L162.416 139.524L163.163 141.966C163.221 142.256 163.214 142.557 163.144 142.843C163.074 143.129 162.943 143.392 162.761 143.609C162.579 143.827 162.352 143.993 162.1 144.092C161.848 144.192 161.578 144.222 161.313 144.181Z" fill="#2F2E41"/>
<path d="M151.711 83.2546C150.73 80.8654 149.035 79.9398 146.207 81.3419L146.589 78.2265C146.732 77.0567 147.181 75.9588 147.88 75.068C148.579 74.1772 149.498 73.5323 150.524 73.2126L151.711 83.2546Z" fill="#920DC0"/>
<path d="M150.286 63.108C150.286 63.108 149.606 57.2535 155.147 59.1733C155.147 59.1733 159.104 58.3689 160.402 63.8524L161.716 69.6005L161.075 69.2144L160.777 69.9373L159.739 70.2285L159.295 69.252L159.08 70.4378L150.581 71.3765C150.581 71.3765 154.388 68.8824 154.448 64.4125L153.723 65.2614L150.286 63.108Z" fill="#2F2E41"/>
<path d="M159.703 61.5983C160.884 61.5983 161.841 60.5383 161.841 59.2307C161.841 57.9231 160.884 56.863 159.703 56.863C158.523 56.863 157.566 57.9231 157.566 59.2307C157.566 60.5383 158.523 61.5983 159.703 61.5983Z" fill="#2F2E41"/>
<path d="M157.501 58.651C157.536 58.0503 157.777 57.487 158.174 57.0759C158.571 56.6647 159.094 56.4366 159.637 56.4381C159.593 56.4319 159.55 56.4243 159.505 56.4211C159.225 56.4012 158.944 56.4426 158.678 56.5429C158.412 56.6432 158.167 56.8005 157.956 57.0058C157.746 57.2111 157.573 57.4603 157.45 57.7394C157.326 58.0184 157.253 58.3217 157.235 58.632C157.217 58.9423 157.254 59.2535 157.345 59.5478C157.435 59.8421 157.577 60.1137 157.762 60.3472C157.948 60.5807 158.173 60.7715 158.425 60.9087C158.677 61.0459 158.95 61.1267 159.23 61.1467C159.275 61.1499 159.32 61.1486 159.364 61.1487C158.825 61.0731 158.332 60.7726 157.986 60.3086C157.64 59.8445 157.467 59.2517 157.501 58.651Z" fill="#2F2E41"/>
<path d="M169.993 142.983C168.874 147.693 128.878 146.479 128.967 142.164C130.086 137.454 170.082 138.668 169.993 142.983Z" fill="#585591" fill-opacity="0.5"/>
</svg>
