<svg width="1440" height="380" viewBox="0 0 1440 380" fill="none" xmlns="http://www.w3.org/2000/svg">
<rect width="1440" height="380" fill="white"/>
<path opacity="0.1" d="M1398.27 271H1329.13C1326.3 271 1324 273.134 1324 275.767V293.893C1324 296.526 1326.3 298.66 1329.13 298.66H1398.27C1401.11 298.66 1403.4 296.526 1403.4 293.893V275.767C1403.4 273.134 1401.11 271 1398.27 271Z" fill="#1E0728"/>
<path opacity="0.1" d="M1358.27 98H1289.13C1286.3 98 1284 100.134 1284 102.767V120.893C1284 123.526 1286.3 125.66 1289.13 125.66H1358.27C1361.11 125.66 1363.4 123.526 1363.4 120.893V102.767C1363.4 100.134 1361.11 98 1358.27 98Z" fill="#1E0728"/>
<path opacity="0.1" d="M1189.27 177H1120.13C1117.3 177 1115 179.134 1115 181.767V199.893C1115 202.526 1117.3 204.66 1120.13 204.66H1189.27C1192.11 204.66 1194.4 202.526 1194.4 199.893V181.767C1194.4 179.134 1192.11 177 1189.27 177Z" fill="#1E0728"/>
<g opacity="0.9">
<rect width="1440" height="332" transform="translate(0 2)" fill="#E37EF3"/>
<path opacity="0.1" d="M84.2726 292H15.1315C12.2975 292 10 294.134 10 296.767V314.893C10 317.526 12.2975 319.66 15.1315 319.66H84.2726C87.1066 319.66 89.4041 317.526 89.4041 314.893V296.767C89.4041 294.134 87.1066 292 84.2726 292Z" fill="#1E0728"/>
<path opacity="0.1" d="M133.273 208H64.1315C61.2975 208 59 210.134 59 212.767V230.893C59 233.526 61.2975 235.66 64.1315 235.66H133.273C136.107 235.66 138.404 233.526 138.404 230.893V212.767C138.404 210.134 136.107 208 133.273 208Z" fill="#1E0728"/>
<path opacity="0.1" d="M74.2726 58H5.1315C2.29746 58 0 60.1342 0 62.7668V80.8934C0 83.526 2.29746 85.6602 5.1315 85.6602H74.2726C77.1066 85.6602 79.4041 83.526 79.4041 80.8934V62.7668C79.4041 60.1342 77.1066 58 74.2726 58Z" fill="#1E0728"/>
<path opacity="0.1" d="M94.2726 18H25.1315C22.2975 18 20 20.1342 20 22.7668V40.8934C20 43.526 22.2975 45.6602 25.1315 45.6602H94.2726C97.1066 45.6602 99.4041 43.526 99.4041 40.8934V22.7668C99.4041 20.1342 97.1066 18 94.2726 18Z" fill="#1E0728"/>
</g>
<path d="M448 128.179H129.137V304.606H448V128.179Z" fill="#E6E6E6"/>
<path d="M438.881 150.307H138.254V294.169H438.881V150.307Z" fill="white"/>
<path d="M447.863 128.023H129V139.726H447.863V128.023Z" fill="#5A0157"/>
<path d="M139.067 136.175C140.453 136.175 141.577 135.204 141.577 134.006C141.577 132.808 140.453 131.837 139.067 131.837C137.68 131.837 136.556 132.808 136.556 134.006C136.556 135.204 137.68 136.175 139.067 136.175Z" fill="white"/>
<path d="M148.596 136.175C149.983 136.175 151.107 135.204 151.107 134.006C151.107 132.808 149.983 131.837 148.596 131.837C147.21 131.837 146.086 132.808 146.086 134.006C146.086 135.204 147.21 136.175 148.596 136.175Z" fill="white"/>
<path d="M158.127 136.175C159.514 136.175 160.638 135.204 160.638 134.006C160.638 132.808 159.514 131.837 158.127 131.837C156.74 131.837 155.616 132.808 155.616 134.006C155.616 135.204 156.74 136.175 158.127 136.175Z" fill="white"/>
<path d="M234.041 162.14H175.243V217.251H234.041V162.14Z" fill="#E6E6E6"/>
<path d="M317.966 162.14H259.168V217.251H317.966V162.14Z" fill="#E6E6E6"/>
<path d="M401.891 162.14H343.093V217.251H401.891V162.14Z" fill="#E6E6E6"/>
<path d="M234.041 227.226H175.243V282.337H234.041V227.226Z" fill="#E6E6E6"/>
<path d="M317.966 227.226H259.168V282.337H317.966V227.226Z" fill="#E6E6E6"/>
<path d="M401.891 227.226H343.093V282.337H401.891V227.226Z" fill="#E6E6E6"/>
<path d="M273.379 241.39L284.122 237.721L285.371 256.067C285.371 256.067 287.62 261.679 286.871 263.838C286.871 263.838 287.37 267.507 286.121 267.723C284.872 267.939 281.374 268.37 281.124 268.155C280.874 267.939 280.874 267.291 280.874 267.291C280.874 267.291 278.376 268.802 278.126 270.529C278.126 270.529 267.633 273.335 267.383 270.745C267.133 268.155 272.63 265.996 272.63 265.996L276.877 260.384L273.379 241.39Z" fill="white"/>
<path d="M296.115 241.39L306.858 237.721L308.107 256.067C308.107 256.067 310.355 261.679 309.606 263.838C309.606 263.838 310.106 267.507 308.856 267.723C307.607 267.939 304.109 268.37 303.86 268.155C303.61 267.939 303.61 267.291 303.61 267.291C303.61 267.291 301.111 268.802 300.862 270.529C300.862 270.529 290.368 273.335 290.118 270.745C289.869 268.155 295.365 265.996 295.365 265.996L299.612 260.384L296.115 241.39Z" fill="white"/>
<path d="M297.166 170.541C297.166 170.541 294.878 176.063 297.529 178.553L295.319 185.113C295.319 185.113 303.17 205.461 300.927 208.303C300.927 208.303 292.553 211.92 275.804 207.011L282.608 184.209L281.636 174.584L282.982 170.062L285.973 169.804C285.973 169.804 284.178 175.617 287.468 176.522C290.758 177.426 293.968 169.949 293.968 169.949L297.166 170.541Z" fill="#612156"/>
<path d="M191.524 206.189L194.411 207.209L208.189 191.566L212.519 209.93L215.406 209.477C217.257 193.644 218.767 177.495 216.915 169.857L206.221 169.46L201.366 182.837L199.004 191.906L191.524 206.189Z" fill="white"/>
<path d="M366.73 169.73C366.73 169.73 362.79 174.462 362.982 176.371C363.175 178.281 365.673 209.411 365.673 209.411L371.534 209.66L369.805 187.246L371.246 181.186L374.801 209.411L382.008 209.577L375.57 172.968L374.321 169.73L366.73 169.73Z" fill="white"/>
<path d="M388.997 245.959C387.951 244.874 386.153 244.288 384.426 243.971C384.478 243.835 379.174 242.889 379.086 243.084L377.087 241.709L370.947 244.463L367.496 242.434L365.893 242.926C365.958 242.681 360.917 243.435 360.917 243.435C359.954 243.465 358.724 243.517 357.347 243.609C352.526 243.929 352.155 254.717 352.155 254.717C354.373 253.933 356.739 253.505 359.135 253.455L360.438 266.359C367.141 265.863 374.171 266.441 381.455 267.855L384.872 257.711L392.829 255.037C392.829 255.037 391.469 248.522 388.997 245.959Z" fill="#A53499"/>
<path d="M218.241 239.815C217.379 238.921 215.898 238.438 214.475 238.177C214.518 238.065 210.148 237.286 210.075 237.446L208.428 236.313L203.369 238.583L200.525 236.911L199.205 237.316C199.258 237.114 195.105 237.736 195.105 237.736C194.311 237.76 193.298 237.803 192.163 237.879C188.19 238.143 187.885 247.031 187.885 247.031C189.713 246.385 191.662 246.033 193.636 245.991L194.71 272.018C200.233 271.609 206.025 272.085 212.027 273.25L214.843 249.498L221.399 247.295C221.399 247.295 220.278 241.927 218.241 239.815Z" fill="#BA63FF"/>
<path opacity="0.1" d="M736.273 79H667.132C664.297 79 662 81.1342 662 83.7668V101.893C662 104.526 664.297 106.66 667.132 106.66H736.273C739.107 106.66 741.404 104.526 741.404 101.893V83.7668C741.404 81.1342 739.107 79 736.273 79Z" fill="#1E0728"/>
<path opacity="0.1" d="M1218.27 215H1149.13C1146.3 215 1144 217.134 1144 219.767V237.893C1144 240.526 1146.3 242.66 1149.13 242.66H1218.27C1221.11 242.66 1223.4 240.526 1223.4 237.893V219.767C1223.4 217.134 1221.11 215 1218.27 215Z" fill="#1E0728"/>
<path opacity="0.1" d="M483.273 32H414.132C411.297 32 409 34.1342 409 36.7668V54.8934C409 57.526 411.297 59.6602 414.132 59.6602H483.273C486.107 59.6602 488.404 57.526 488.404 54.8934V36.7668C488.404 34.1342 486.107 32 483.273 32Z" fill="#1E0728"/>
<path opacity="0.1" d="M815.273 284H746.132C743.297 284 741 286.134 741 288.767V306.893C741 309.526 743.297 311.66 746.132 311.66H815.273C818.107 311.66 820.404 309.526 820.404 306.893V288.767C820.404 286.134 818.107 284 815.273 284Z" fill="#1E0728"/>
<path opacity="0.1" d="M667.273 192H598.132C595.297 192 593 194.134 593 196.767V214.893C593 217.526 595.297 219.66 598.132 219.66H667.273C670.107 219.66 672.404 217.526 672.404 214.893V196.767C672.404 194.134 670.107 192 667.273 192Z" fill="#1E0728"/>
<path opacity="0.1" d="M588.273 262H519.132C516.297 262 514 264.134 514 266.767V284.893C514 287.526 516.297 289.66 519.132 289.66H588.273C591.107 289.66 593.404 287.526 593.404 284.893V266.767C593.404 264.134 591.107 262 588.273 262Z" fill="#1E0728"/>
<path opacity="0.1" d="M1218.27 134H1149.13C1146.3 134 1144 136.134 1144 138.767V156.893C1144 159.526 1146.3 161.66 1149.13 161.66H1218.27C1221.11 161.66 1223.4 159.526 1223.4 156.893V138.767C1223.4 136.134 1221.11 134 1218.27 134Z" fill="#1E0728"/>
<path opacity="0.1" d="M995.273 65H926.132C923.297 65 921 67.1342 921 69.7668V87.8934C921 90.526 923.297 92.6602 926.132 92.6602H995.273C998.107 92.6602 1000.4 90.526 1000.4 87.8934V69.7668C1000.4 67.1342 998.107 65 995.273 65Z" fill="#1E0728"/>
<path d="M983 141.495H981.557V105.077C981.557 102.31 980.965 99.5687 979.814 97.0115C978.664 94.4542 976.978 92.1307 974.853 90.1734C972.728 88.2162 970.204 86.6637 967.428 85.6044C964.651 84.5452 961.675 84 958.669 84H874.888C871.882 84 868.906 84.5452 866.129 85.6044C863.352 86.6637 860.829 88.2162 858.704 90.1734C856.578 92.1307 854.892 94.4542 853.742 97.0115C852.592 99.5687 852 102.31 852 105.077V304.866C852 307.634 852.592 310.375 853.742 312.932C854.892 315.49 856.578 317.813 858.704 319.77C860.829 321.728 863.352 323.28 866.129 324.339C868.906 325.399 871.882 325.944 874.888 325.944H958.669C961.675 325.944 964.651 325.399 967.428 324.339C970.204 323.28 972.728 321.728 974.853 319.77C976.978 317.813 978.664 315.49 979.814 312.932C980.965 310.375 981.557 307.634 981.557 304.866V167.417H983V141.495Z" fill="#3F3D56"/>
<path d="M959.592 89.4836H948.656C949.159 90.6191 949.351 91.8511 949.215 93.071C949.079 94.291 948.62 95.4614 947.877 96.4792C947.134 97.4971 946.131 98.3311 944.956 98.9077C943.781 99.4844 942.469 99.7861 941.138 99.7862H893.141C891.809 99.7861 890.498 99.4844 889.322 98.9077C888.147 98.3311 887.144 97.4971 886.401 96.4792C885.659 95.4614 885.199 94.291 885.063 93.0711C884.927 91.8511 885.119 90.6191 885.622 89.4836H875.408C873.163 89.4836 870.94 89.8908 868.867 90.6818C866.793 91.4728 864.909 92.6323 863.322 94.0939C861.734 95.5555 860.475 97.2907 859.617 99.2004C858.758 101.11 858.315 103.157 858.315 105.224V304.72C858.315 306.787 858.758 308.834 859.616 310.743C860.475 312.653 861.734 314.388 863.322 315.85C864.909 317.311 866.793 318.471 868.867 319.262C870.94 320.053 873.163 320.46 875.408 320.46H959.592C961.837 320.46 964.06 320.053 966.133 319.262C968.207 318.471 970.091 317.311 971.678 315.85C973.266 314.388 974.525 312.653 975.384 310.743C976.242 308.834 976.685 306.787 976.685 304.72V105.224C976.685 101.049 974.884 97.0458 971.678 94.0939C968.473 91.142 964.126 89.4836 959.592 89.4836Z" fill="white"/>
<path d="M961.902 120.646H873.098V190.791H961.902V120.646Z" fill="#E6E6E6"/>
<path d="M961.902 219.381H873.098V289.527H961.902V219.381Z" fill="#E6E6E6"/>
<path d="M898.317 142.304C899.146 142.304 899.818 141.515 899.818 140.542C899.818 139.569 899.146 138.78 898.317 138.78C897.488 138.78 896.816 139.569 896.816 140.542C896.816 141.515 897.488 142.304 898.317 142.304Z" fill="#B13DA6"/>
<path opacity="0.2" d="M898.951 138.946C899.217 139.229 899.388 139.615 899.432 140.033C899.476 140.451 899.391 140.874 899.192 141.225C898.994 141.576 898.694 141.831 898.348 141.945C898.002 142.058 897.633 142.022 897.308 141.843C897.468 142.014 897.657 142.143 897.863 142.22C898.069 142.297 898.287 142.321 898.501 142.29C898.716 142.259 898.922 142.174 899.106 142.04C899.29 141.907 899.447 141.729 899.567 141.517C899.687 141.306 899.766 141.067 899.8 140.817C899.834 140.566 899.821 140.31 899.762 140.066C899.704 139.821 899.601 139.595 899.461 139.402C899.321 139.208 899.147 139.053 898.951 138.946Z" fill="black"/>
<path d="M936.909 144.212C938.947 144.212 940.599 143.423 940.599 142.45C940.599 141.477 938.947 140.688 936.909 140.688C934.87 140.688 933.218 141.477 933.218 142.45C933.218 143.423 934.87 144.212 936.909 144.212Z" fill="#3F3D56"/>
<path opacity="0.2" d="M936.909 140.688C936.782 140.688 936.657 140.691 936.533 140.697C938.395 140.787 939.848 141.538 939.848 142.45C939.848 143.363 938.395 144.113 936.533 144.203C936.657 144.209 936.782 144.212 936.909 144.212C938.947 144.212 940.599 143.423 940.599 142.45C940.599 141.477 938.947 140.688 936.909 140.688Z" fill="black"/>
<path d="M941.725 142.45H923.211V140.101C923.211 139.984 923.171 139.872 923.101 139.79C923.031 139.707 922.935 139.661 922.836 139.661H912.578C912.478 139.661 912.383 139.707 912.313 139.79C912.242 139.872 912.203 139.984 912.203 140.101V142.45H901.445V140.982C901.445 140.865 901.405 140.753 901.335 140.671C901.264 140.588 901.169 140.542 901.069 140.542H895.565C895.466 140.542 895.37 140.588 895.3 140.671C895.229 140.753 895.19 140.865 895.19 140.982V142.45H893.689C893.64 142.45 893.591 142.462 893.545 142.484C893.5 142.506 893.458 142.538 893.423 142.579C893.388 142.62 893.361 142.669 893.342 142.722C893.323 142.776 893.313 142.833 893.314 142.891V171.816C893.313 171.874 893.323 171.931 893.342 171.984C893.361 172.038 893.388 172.086 893.423 172.127C893.458 172.168 893.5 172.201 893.545 172.223C893.591 172.245 893.64 172.256 893.689 172.256H941.725C941.774 172.256 941.823 172.245 941.869 172.223C941.914 172.201 941.956 172.168 941.99 172.127C942.025 172.086 942.053 172.038 942.072 171.984C942.091 171.931 942.1 171.874 942.1 171.816V142.891C942.1 142.833 942.091 142.776 942.072 142.722C942.053 142.669 942.025 142.62 941.99 142.579C941.956 142.538 941.914 142.506 941.869 142.484C941.823 142.462 941.774 142.45 941.725 142.45Z" fill="#3F3D56"/>
<path opacity="0.2" d="M941.723 170.099H893.686C893.637 170.099 893.588 170.088 893.543 170.066C893.497 170.044 893.456 170.011 893.421 169.97C893.386 169.929 893.358 169.881 893.34 169.827C893.321 169.774 893.311 169.716 893.311 169.659V171.714C893.311 171.772 893.321 171.829 893.34 171.883C893.358 171.936 893.386 171.985 893.421 172.026C893.456 172.067 893.497 172.099 893.543 172.121C893.588 172.143 893.637 172.155 893.686 172.155H941.723C941.772 172.155 941.821 172.143 941.866 172.121C941.912 172.099 941.953 172.067 941.988 172.026C942.023 171.985 942.051 171.936 942.069 171.883C942.088 171.829 942.098 171.772 942.098 171.714V169.659C942.098 169.716 942.088 169.774 942.069 169.827C942.051 169.881 942.023 169.929 941.988 169.97C941.953 170.011 941.912 170.044 941.866 170.066C941.821 170.088 941.772 170.099 941.723 170.099Z" fill="black"/>
<path opacity="0.2" d="M942.1 155.958H893.314V161.538H942.1V155.958Z" fill="black"/>
<path opacity="0.2" d="M942.1 153.169H893.314V158.748H942.1V153.169Z" fill="black"/>
<path d="M942.1 154.49H893.314V160.07H942.1V154.49Z" fill="#B13DA6"/>
<path d="M917.707 168.439C922.957 168.439 927.214 163.443 927.214 157.28C927.214 151.117 922.957 146.121 917.707 146.121C912.456 146.121 908.199 151.117 908.199 157.28C908.199 163.443 912.456 168.439 917.707 168.439Z" fill="#B13DA6"/>
<path opacity="0.2" d="M925.03 150.164C926.239 152.583 926.628 155.447 926.12 158.187C925.611 160.927 924.242 163.342 922.286 164.951C920.329 166.56 917.928 167.245 915.56 166.87C913.192 166.495 911.031 165.088 909.508 162.927C910.172 164.256 911.064 165.409 912.127 166.314C913.19 167.218 914.401 167.855 915.683 168.183C916.966 168.511 918.293 168.523 919.58 168.22C920.867 167.916 922.087 167.303 923.162 166.419C924.237 165.535 925.145 164.399 925.827 163.083C926.51 161.766 926.953 160.299 927.128 158.771C927.304 157.244 927.208 155.691 926.847 154.21C926.486 152.728 925.867 151.351 925.03 150.164Z" fill="black"/>
<path d="M917.707 165.584C921.614 165.584 924.782 161.866 924.782 157.28C924.782 152.694 921.614 148.976 917.707 148.976C913.799 148.976 910.632 152.694 910.632 157.28C910.632 161.866 913.799 165.584 917.707 165.584Z" fill="#3F3D56"/>
<path d="M923.211 157.28C923.212 158.157 923.06 159.025 922.764 159.83C922.606 160.265 922.406 160.677 922.17 161.059C921.704 161.818 921.103 162.45 920.408 162.909C919.713 163.369 918.942 163.646 918.147 163.721C917.352 163.796 916.553 163.668 915.805 163.345C915.057 163.022 914.377 162.512 913.813 161.85C913.249 161.188 912.815 160.39 912.539 159.512C912.264 158.634 912.155 157.696 912.219 156.763C912.283 155.83 912.519 154.925 912.91 154.109C913.302 153.294 913.84 152.588 914.487 152.041C914.812 151.764 915.164 151.53 915.534 151.344C916.371 150.922 917.285 150.75 918.192 150.845C919.1 150.939 919.973 151.297 920.734 151.885C921.495 152.473 922.12 153.274 922.552 154.216C922.984 155.158 923.211 156.21 923.211 157.28Z" fill="white"/>
<path opacity="0.2" d="M923.152 156.339C922.947 154.696 922.21 153.21 921.094 152.189C921.578 153.077 921.869 154.09 921.942 155.141C922.015 156.191 921.867 157.247 921.513 158.215C921.355 158.65 921.156 159.062 920.919 159.444C920.486 160.149 919.936 160.744 919.302 161.194C918.668 161.644 917.964 161.939 917.23 162.061C916.497 162.183 915.751 162.13 915.035 161.906C914.32 161.681 913.65 161.289 913.067 160.754C913.55 161.643 914.211 162.38 914.992 162.9C915.773 163.421 916.651 163.708 917.549 163.739C918.447 163.769 919.338 163.54 920.144 163.073C920.949 162.606 921.645 161.915 922.17 161.059C922.406 160.677 922.606 160.265 922.764 159.83C923.166 158.731 923.3 157.522 923.152 156.339V156.339Z" fill="black"/>
<path d="M919.754 272.207C919.754 272.207 908.552 268.099 910.153 256.555C911.753 245.011 911.219 246.185 911.219 246.185C911.219 246.185 913.886 239.729 918.687 237.381C918.687 237.381 907.219 228.772 898.151 244.424C898.151 244.424 895.751 253.816 897.618 260.077C899.485 266.338 903.752 271.425 903.752 271.425C903.752 271.425 907.752 274.36 912.286 274.36C916.82 274.36 919.754 272.207 919.754 272.207Z" fill="#807D7D"/>
<path d="M938.289 265.262C938.289 265.262 931.888 277.784 911.886 275.436C891.884 273.088 897.218 247.653 897.218 247.653C897.218 247.653 894.983 266.627 906.677 272.207C909.918 273.753 914.15 273.767 917.245 272.068C919.296 270.943 921.054 268.979 920.82 265.555L938.289 265.262Z" fill="#3C3F85"/>
<path d="M937.665 241.438C937.665 241.438 928.554 229.359 908.819 233.468C896.586 237.292 896.813 247.137 896.813 247.137C895.338 263.462 911.215 263.198 914.953 245.794C915.609 242.738 914.286 241 914.286 241C914.286 241 912.419 245.109 906.686 245.99C900.943 246.871 899.961 245.469 900.152 243.348C900.153 243.327 900.155 243.306 900.157 243.285C900.315 241.568 901.223 239.933 902.748 238.624C906.035 235.816 913.201 231.716 920.82 240.316L921.354 241.283C921.354 241.283 930.774 243.147 937.665 241.438Z" fill="#3C3F85"/>
<path d="M922.951 241.098C921.573 241.099 920.252 241.502 919.277 242.216C918.303 242.931 917.755 243.901 917.753 244.912V262.857C917.755 263.909 918.326 264.919 919.34 265.663C920.355 266.407 921.73 266.826 923.165 266.827H936.034C937.763 266.825 939.421 266.321 940.644 265.424C941.866 264.527 942.554 263.311 942.556 262.043V245.92C942.554 244.642 941.861 243.416 940.629 242.512C939.397 241.608 937.726 241.1 935.984 241.098L922.951 241.098Z" fill="#3F3D56"/>
<path d="M925.183 241.881C924.451 241.882 923.748 242.095 923.23 242.475C922.713 242.855 922.421 243.37 922.42 243.908V264.115C922.421 264.653 922.713 265.168 923.23 265.548C923.748 265.928 924.451 266.142 925.183 266.142H937.421C938.889 266.141 940.295 265.713 941.333 264.952C942.371 264.19 942.954 263.158 942.956 262.082V245.458C942.954 244.51 942.44 243.6 941.526 242.93C940.612 242.259 939.373 241.882 938.08 241.881H925.183Z" fill="#48095F"/>
<path opacity="0.2" d="M924.732 241.993C924.387 242.181 924.107 242.426 923.915 242.707C923.722 242.989 923.621 243.299 923.621 243.614V263.822C923.621 264.359 923.913 264.874 924.431 265.254C924.948 265.634 925.651 265.848 926.383 265.849H938.622C939.086 265.847 939.548 265.803 939.997 265.717C939.171 266.06 938.238 266.24 937.288 266.24H925.05C924.317 266.239 923.615 266.026 923.097 265.646C922.579 265.266 922.288 264.751 922.287 264.213V244.005C922.288 243.509 922.538 243.029 922.988 242.658C923.439 242.288 924.059 242.051 924.732 241.993Z" fill="black"/>
<path d="M918.687 251.664C920.16 251.664 921.354 250.569 921.354 249.218C921.354 247.867 920.16 246.772 918.687 246.772C917.214 246.772 916.02 247.867 916.02 249.218C916.02 250.569 917.214 251.664 918.687 251.664Z" fill="#48095F"/>
<path opacity="0.2" d="M920.554 249.218C920.554 248.035 919.637 247.048 918.42 246.821C918.594 246.789 918.774 246.772 918.953 246.772C920.426 246.772 921.62 247.867 921.62 249.218C921.62 250.569 920.426 251.664 918.953 251.664C918.774 251.664 918.594 251.647 918.42 251.615C919.637 251.388 920.554 250.401 920.554 249.218Z" fill="black"/>
<path d="M918.153 255.479V260.566C918.153 260.748 918.252 260.922 918.427 261.05C918.602 261.179 918.839 261.251 919.087 261.251C919.334 261.251 919.572 261.179 919.747 261.05C919.922 260.922 920.02 260.748 920.02 260.566V255.479C920.02 255.297 919.922 255.123 919.747 254.995C919.572 254.866 919.334 254.794 919.087 254.794C918.839 254.794 918.602 254.866 918.427 254.995C918.252 255.123 918.153 255.297 918.153 255.479Z" fill="#48095F"/>
<path opacity="0.2" d="M919.62 260.566V255.479C919.619 255.332 919.554 255.189 919.434 255.072C919.314 254.954 919.145 254.868 918.953 254.826C919.04 254.806 919.13 254.795 919.22 254.794C919.468 254.794 919.705 254.867 919.88 254.995C920.055 255.123 920.153 255.297 920.154 255.479V260.566C920.153 260.748 920.055 260.922 919.88 261.05C919.705 261.178 919.468 261.251 919.22 261.251C919.13 261.25 919.04 261.239 918.953 261.219C919.145 261.177 919.314 261.091 919.434 260.973C919.554 260.856 919.619 260.713 919.62 260.566Z" fill="black"/>
<path d="M904.819 265.946C905.555 265.946 906.152 265.508 906.152 264.968C906.152 264.428 905.555 263.99 904.819 263.99C904.082 263.99 903.485 264.428 903.485 264.968C903.485 265.508 904.082 265.946 904.819 265.946Z" fill="white"/>
<path opacity="0.3" d="M905.619 264.968C905.619 264.743 905.513 264.524 905.318 264.349C905.124 264.175 904.853 264.055 904.552 264.01C904.746 263.981 904.946 263.984 905.138 264.018C905.33 264.053 905.509 264.119 905.662 264.211C905.815 264.302 905.938 264.418 906.023 264.549C906.108 264.68 906.152 264.823 906.152 264.968C906.152 265.113 906.108 265.256 906.023 265.388C905.938 265.519 905.815 265.634 905.662 265.726C905.509 265.818 905.33 265.883 905.138 265.918C904.946 265.953 904.746 265.956 904.552 265.927C904.853 265.882 905.124 265.762 905.318 265.587C905.513 265.412 905.619 265.194 905.619 264.968Z" fill="black"/>
<path d="M904.217 262.064C904.954 262.064 905.551 261.626 905.551 261.086C905.551 260.546 904.954 260.108 904.217 260.108C903.481 260.108 902.884 260.546 902.884 261.086C902.884 261.626 903.481 262.064 904.217 262.064Z" fill="white"/>
<path opacity="0.3" d="M905.017 261.086C905.017 260.861 904.911 260.642 904.717 260.467C904.522 260.293 904.252 260.173 903.951 260.127C904.144 260.098 904.344 260.101 904.536 260.136C904.728 260.171 904.907 260.237 905.061 260.328C905.214 260.42 905.337 260.536 905.422 260.667C905.507 260.798 905.55 260.941 905.55 261.086C905.55 261.231 905.507 261.374 905.422 261.505C905.337 261.636 905.214 261.752 905.061 261.844C904.907 261.935 904.728 262.001 904.536 262.036C904.344 262.071 904.144 262.074 903.951 262.045C904.252 261.999 904.522 261.879 904.717 261.705C904.911 261.53 905.017 261.311 905.017 261.086Z" fill="black"/>
<path d="M905.619 244.229C906.355 244.229 906.952 243.791 906.952 243.251C906.952 242.71 906.355 242.272 905.619 242.272C904.882 242.272 904.285 242.71 904.285 243.251C904.285 243.791 904.882 244.229 905.619 244.229Z" fill="white"/>
<path opacity="0.3" d="M906.419 243.251C906.419 243.025 906.313 242.806 906.118 242.632C905.924 242.457 905.653 242.337 905.352 242.292C905.546 242.263 905.746 242.266 905.938 242.301C906.13 242.335 906.309 242.401 906.462 242.493C906.615 242.585 906.738 242.7 906.823 242.831C906.908 242.962 906.952 243.105 906.952 243.251C906.952 243.396 906.908 243.539 906.823 243.67C906.738 243.801 906.615 243.916 906.462 244.008C906.309 244.1 906.13 244.166 905.938 244.2C905.746 244.235 905.546 244.238 905.352 244.209C905.653 244.164 905.924 244.044 906.118 243.869C906.313 243.695 906.419 243.476 906.419 243.251Z" fill="black"/>
<path opacity="0.2" d="M933.207 257.019C934.68 257.019 935.874 255.924 935.874 254.573C935.874 253.223 934.68 252.128 933.207 252.128C931.734 252.128 930.54 253.223 930.54 254.573C930.54 255.924 931.734 257.019 933.207 257.019Z" fill="white"/>
<path opacity="0.2" d="M933.207 259.143C935.959 259.143 938.19 257.097 938.19 254.573C938.19 252.05 935.959 250.004 933.207 250.004C930.454 250.004 928.223 252.05 928.223 254.573C928.223 257.097 930.454 259.143 933.207 259.143Z" fill="white"/>
<path opacity="0.2" d="M933.207 261.458C937.353 261.458 940.714 258.376 940.714 254.573C940.714 250.771 937.353 247.688 933.207 247.688C929.06 247.688 925.699 250.771 925.699 254.573C925.699 258.376 929.06 261.458 933.207 261.458Z" fill="white"/>
<path d="M996.197 213.402L995.013 215.389C992.868 214.545 990.679 212.102 989.378 209.631L990.863 208.072C991.844 210.653 993.827 212.134 996.197 213.402Z" fill="#F2F2F2"/>
<path d="M995.132 207.711L990.838 208.468C990.8 208.475 990.758 208.462 990.72 208.432C990.682 208.402 990.651 208.357 990.636 208.308C990.62 208.259 990.62 208.209 990.636 208.169C990.651 208.13 990.682 208.104 990.719 208.097L995.013 207.34C995.051 207.333 995.094 207.346 995.132 207.376C995.17 207.406 995.2 207.451 995.216 207.5C995.232 207.549 995.232 207.599 995.216 207.639C995.2 207.678 995.17 207.704 995.132 207.711V207.711Z" fill="#F2F2F2"/>
<path d="M996.054 213.427C996.031 213.431 996.005 213.428 995.98 213.417C995.955 213.407 995.931 213.389 995.91 213.366C995.888 213.344 995.871 213.316 995.859 213.286C995.847 213.257 995.84 213.226 995.84 213.196L995.798 209.284C995.797 209.261 995.801 209.238 995.809 209.218C995.816 209.198 995.827 209.182 995.842 209.169C995.856 209.156 995.873 209.148 995.891 209.144C995.91 209.141 995.93 209.142 995.951 209.148C995.971 209.154 995.991 209.164 996.01 209.179C996.029 209.194 996.046 209.212 996.061 209.233C996.075 209.254 996.087 209.278 996.095 209.302C996.103 209.327 996.107 209.351 996.107 209.375L996.15 213.287C996.15 213.323 996.141 213.356 996.124 213.381C996.107 213.406 996.083 213.422 996.054 213.427V213.427Z" fill="#F2F2F2"/>
<path d="M1022.22 283.242L1022.94 287.784C1023.03 288.401 1022.98 289.03 1022.77 289.622C1022.56 290.214 1022.2 290.753 1021.73 291.195C1021.26 291.638 1020.68 291.972 1020.05 292.171C1019.41 292.37 1018.74 292.429 1018.07 292.342C1017.43 292.259 1016.82 292.041 1016.27 291.705C1015.73 291.368 1015.28 290.923 1014.95 290.401C1014.62 289.88 1014.42 289.295 1014.37 288.692C1014.32 288.089 1014.41 287.482 1014.65 286.918L1017.07 281.082L1015.78 241.721L1023.25 239.081L1022.22 283.242Z" fill="#A0616A"/>
<path d="M1001.09 217.961C1006.78 217.961 1011.4 213.662 1011.4 208.36C1011.4 203.058 1006.78 198.76 1001.09 198.76C995.394 198.76 990.778 203.058 990.778 208.36C990.778 213.662 995.394 217.961 1001.09 217.961Z" fill="#A0616A"/>
<path d="M1013.46 226.361L994.387 225.641C996.504 221.323 997.344 217.146 996.449 213.16H1009.08C1008.41 216.919 1010.25 221.431 1013.46 226.361Z" fill="#A0616A"/>
<path d="M1010.37 263.802L982.273 265.722L983.294 250.939C980.056 243.768 980.573 238.59 984.384 235.159L984.729 230.164C984.839 228.566 985.485 227.04 986.576 225.801C987.666 224.561 989.146 223.672 990.808 223.257L995.676 222.041C1001.98 225.479 1007 225.432 1010.62 221.561L1016.42 224.324C1017.82 224.993 1018.97 226.044 1019.72 227.338C1020.47 228.631 1020.77 230.105 1020.6 231.565L1010.37 263.802Z" fill="#920DC0"/>
<path d="M967.323 265.242L959.393 269.119C958.714 269.45 957.936 269.56 957.182 269.43C956.429 269.301 955.744 268.939 955.238 268.403C954.842 267.984 954.571 267.476 954.453 266.929C954.334 266.383 954.372 265.817 954.563 265.288C954.753 264.759 955.09 264.286 955.538 263.916C955.987 263.547 956.532 263.293 957.119 263.182L962.684 262.122L979.953 255.882L982.788 237.161L990.778 239.081L989.232 261.162L967.323 265.242Z" fill="#A0616A"/>
<path d="M1023.77 240.281L1015.01 245.081L1014.49 225.881L1016 225.401C1018.06 225.401 1020.04 226.163 1021.49 227.519C1022.95 228.876 1023.77 230.716 1023.77 232.634V240.281Z" fill="#920DC0"/>
<path d="M1017.71 358.004L1010.26 356.919C1008.76 333.211 1005.73 311.079 1000.31 291.403C987.802 306.842 977.313 329.597 968.354 357.884L959.591 355.724L982.53 262.602L1009.85 262.122C1021.03 276.367 1017.75 320.365 1017.71 358.004Z" fill="#2F2E41"/>
<path d="M964.484 366.198L951.537 364.508C951.177 364.461 950.833 364.344 950.527 364.163C950.22 363.983 949.959 363.744 949.759 363.462C949.56 363.18 949.427 362.862 949.37 362.528C949.313 362.195 949.333 361.854 949.428 361.528C949.559 361.081 949.827 360.68 950.2 360.373C950.573 360.066 951.034 359.867 951.526 359.801L953.827 359.492L961.102 355.354L967.119 356.849L968.904 361.752C969.041 362.333 969.025 362.937 968.858 363.511C968.69 364.086 968.376 364.614 967.942 365.051C967.508 365.487 966.967 365.82 966.365 366.02C965.762 366.22 965.117 366.281 964.484 366.198Z" fill="#2F2E41"/>
<path d="M1015.26 366.198L1002.31 364.508C1001.95 364.461 1001.61 364.344 1001.3 364.163C1001 363.983 1000.74 363.744 1000.54 363.462C1000.34 363.18 1000.2 362.862 1000.15 362.528C1000.09 362.195 1000.11 361.854 1000.2 361.528C1000.34 361.081 1000.6 360.68 1000.98 360.373C1001.35 360.066 1001.81 359.867 1002.3 359.801L1004.6 359.492L1011.88 355.354L1017.9 356.849L1019.68 361.752C1019.82 362.333 1019.8 362.937 1019.63 363.511C1019.47 364.086 1019.15 364.614 1018.72 365.051C1018.28 365.487 1017.74 365.82 1017.14 366.02C1016.54 366.22 1015.89 366.281 1015.26 366.198Z" fill="#2F2E41"/>
<path d="M992.325 243.881C989.981 239.085 985.934 237.226 979.18 240.041L980.09 233.787C980.432 231.438 981.504 229.234 983.174 227.446C984.844 225.657 987.04 224.362 989.49 223.721L992.325 243.881Z" fill="#920DC0"/>
<path d="M988.92 203.434C988.92 203.434 987.299 191.681 1000.53 195.535C1000.53 195.535 1009.98 193.92 1013.08 204.929L1016.22 216.469L1014.69 215.694L1013.98 217.145L1011.5 217.73L1010.44 215.769L1009.93 218.15L989.626 220.034C989.626 220.034 998.719 215.027 998.863 206.053L997.131 207.758L988.92 203.434Z" fill="#2F2E41"/>
<path d="M1011.42 200.404C1014.24 200.404 1016.52 198.275 1016.52 195.65C1016.52 193.025 1014.24 190.897 1011.42 190.897C1008.6 190.897 1006.31 193.025 1006.31 195.65C1006.31 198.275 1008.6 200.404 1011.42 200.404Z" fill="#2F2E41"/>
<path d="M1006.16 194.486C1006.24 193.28 1006.81 192.15 1007.76 191.324C1008.71 190.499 1009.96 190.041 1011.26 190.044C1011.15 190.031 1011.05 190.016 1010.94 190.01C1010.27 189.97 1009.6 190.053 1008.97 190.254C1008.33 190.456 1007.75 190.771 1007.24 191.183C1006.74 191.596 1006.33 192.096 1006.03 192.656C1005.74 193.216 1005.56 193.825 1005.52 194.448C1005.48 195.071 1005.57 195.696 1005.78 196.287C1006 196.878 1006.34 197.423 1006.78 197.892C1007.22 198.361 1007.76 198.744 1008.36 199.019C1008.96 199.294 1009.62 199.457 1010.29 199.497C1010.39 199.503 1010.5 199.501 1010.61 199.501C1009.32 199.349 1008.14 198.746 1007.31 197.814C1006.49 196.883 1006.07 195.693 1006.16 194.486Z" fill="#2F2E41"/>
<path d="M1035.99 363.792C1033.32 373.248 937.788 370.811 938 362.148C940.673 352.692 1036.21 355.13 1035.99 363.792Z" fill="#585591" fill-opacity="0.5"/>
<path d="M479.993 362.702C477.32 372.158 381.788 369.72 382 361.057C384.673 351.602 480.205 354.039 479.993 362.702Z" fill="#585591" fill-opacity="0.5"/>
<path d="M432.286 357.775L425.904 357.775L422.867 336.986L432.287 336.986L432.286 357.775Z" fill="#FFB8B8"/>
<path d="M433.914 363L413.333 362.999V362.78C413.333 361.891 413.54 361.012 413.943 360.191C414.345 359.37 414.936 358.625 415.679 357.996C416.423 357.368 417.306 356.87 418.278 356.53C419.25 356.19 420.292 356.015 421.344 356.015H421.344L433.914 356.016L433.914 363Z" fill="#2F2E41"/>
<path d="M451.029 357.775L444.646 357.775L441.61 336.986L451.03 336.986L451.029 357.775Z" fill="#FFB8B8"/>
<path d="M452.657 363L432.076 362.999V362.78C432.076 361.891 432.283 361.012 432.686 360.191C433.088 359.37 433.678 358.625 434.422 357.996C435.166 357.368 436.049 356.87 437.021 356.53C437.993 356.19 439.035 356.015 440.087 356.015H440.087L452.657 356.016L452.657 363Z" fill="#2F2E41"/>
<path d="M455.313 273.758L453.789 350.12C453.784 350.362 453.72 350.6 453.601 350.82C453.482 351.04 453.311 351.237 453.098 351.399C452.885 351.56 452.634 351.683 452.362 351.759C452.091 351.835 451.803 351.863 451.518 351.841L444.049 351.268C443.559 351.23 443.1 351.048 442.755 350.752C442.409 350.456 442.199 350.067 442.161 349.653L437.788 302.021C437.778 301.909 437.717 301.804 437.619 301.729C437.521 301.654 437.392 301.613 437.259 301.615C437.126 301.617 436.999 301.662 436.904 301.741C436.809 301.82 436.754 301.926 436.749 302.038L434.563 350.761C434.543 351.215 434.315 351.645 433.927 351.961C433.539 352.276 433.021 352.452 432.482 352.452H424.472C423.942 352.452 423.431 352.282 423.045 351.975C422.659 351.668 422.426 351.248 422.393 350.801L416.786 273.319L450.106 266.285L455.313 273.758Z" fill="#2F2E41"/>
<path d="M431.144 206.013C438.206 206.013 443.932 201.178 443.932 195.215C443.932 189.252 438.206 184.417 431.144 184.417C424.082 184.417 418.357 189.252 418.357 195.215C418.357 201.178 424.082 206.013 431.144 206.013Z" fill="#FFB8B8"/>
<path d="M415.645 275.59C415.423 275.41 415.246 275.194 415.125 274.955C415.003 274.716 414.938 274.459 414.935 274.199L414.072 222.128C414.02 219.479 414.964 216.885 416.767 214.717C418.571 212.549 421.142 210.92 424.111 210.064C425.309 205.474 431.685 204.9 435.402 204.968C436.33 204.985 437.239 205.191 438.053 205.567C438.866 205.944 439.56 206.481 440.076 207.132L442.741 210.507L448.613 213.414C451.331 214.754 453.475 216.788 454.736 219.223C455.996 221.658 456.308 224.368 455.626 226.962L454.722 230.435C451.538 242.727 451.841 255.48 455.606 267.654L457.426 273.512C457.52 273.817 457.527 274.137 457.446 274.445C457.365 274.753 457.197 275.04 456.958 275.282C456.719 275.524 456.414 275.714 456.07 275.837C455.726 275.959 455.352 276.011 454.98 275.986L452.867 275.849C452.318 275.814 451.802 275.617 451.408 275.292C451.015 274.967 450.769 274.536 450.715 274.074L450.365 271.121C450.359 271.066 450.329 271.016 450.281 270.98C450.233 270.943 450.171 270.923 450.106 270.923C450.042 270.923 449.98 270.943 449.932 270.98C449.884 271.016 449.854 271.066 449.847 271.121L449.509 273.98C449.452 274.463 449.186 274.911 448.763 275.239C448.34 275.568 447.788 275.753 447.214 275.761L417.313 276.149C417.301 276.149 417.288 276.15 417.276 276.15C416.667 276.151 416.081 275.95 415.645 275.59Z" fill="#3F3D56"/>
<path d="M432.145 201.439C432.197 202.965 433.452 203.849 434.993 204.648C436.533 205.448 438.334 205.794 440.099 206.129C440.336 206.235 440.601 206.288 440.87 206.282C441.138 206.277 441.4 206.213 441.63 206.097C441.861 205.981 442.052 205.817 442.186 205.62C442.319 205.424 442.39 205.201 442.392 204.975L444.011 199.777C444.583 198.117 445 196.421 445.257 194.705C445.646 191.404 444.72 187.852 441.991 185.465C439.262 183.079 434.53 182.231 431.26 184.07C427.38 179.885 409.642 189.131 414.017 192.041C414.796 192.559 415.986 191.904 416.974 191.841C417.962 191.777 419.069 191.924 419.696 192.571C420.516 193.417 420.159 194.677 420.497 195.733C420.637 196.104 420.862 196.448 421.161 196.746C421.459 197.043 421.824 197.288 422.234 197.465C422.645 197.643 423.093 197.75 423.553 197.781C424.013 197.812 424.475 197.765 424.914 197.644C425.731 197.304 426.5 196.887 427.205 196.401C427.963 195.975 428.92 195.66 429.773 195.928C430.898 196.283 431.297 197.445 431.399 198.455C431.57 199.462 431.819 200.459 432.145 201.439Z" fill="#2F2E41"/>
<path opacity="0.2" d="M429.158 226.422L427.076 247.963L416.142 270.385L432.282 248.403L429.158 226.422Z" fill="black"/>
<path d="M413.586 278.734C414.183 278.33 414.667 277.819 415.005 277.24C415.343 276.66 415.526 276.024 415.542 275.378C415.558 274.732 415.406 274.091 415.096 273.5C414.787 272.909 414.328 272.382 413.751 271.957L420.716 257.389L411.24 259.005L406.078 272.591C405.297 273.456 404.918 274.534 405.015 275.619C405.111 276.704 405.675 277.721 406.601 278.479C407.526 279.236 408.748 279.68 410.036 279.727C411.323 279.774 412.586 279.421 413.586 278.734V278.734Z" fill="#FFB8B8"/>
<path d="M413.079 272.309L407.714 270.677C407.162 270.506 406.705 270.167 406.433 269.726C406.162 269.285 406.096 268.774 406.249 268.294L415.098 240.941L416.447 216.219C416.488 215.473 416.704 214.741 417.082 214.066C417.461 213.391 417.995 212.786 418.653 212.287C419.311 211.787 420.08 211.403 420.915 211.157C421.75 210.911 422.635 210.808 423.518 210.853C424.401 210.898 425.264 211.091 426.058 211.421C426.852 211.75 427.56 212.21 428.142 212.772C428.724 213.335 429.167 213.99 429.447 214.699C429.726 215.408 429.835 216.156 429.769 216.901L427.359 243.971L416.084 271.104C415.913 271.514 415.587 271.865 415.156 272.103C414.726 272.342 414.215 272.454 413.701 272.423C413.489 272.409 413.279 272.371 413.079 272.309V272.309Z" fill="#3F3D56"/>
<path d="M468.362 280.163C468.728 279.596 468.943 278.967 468.99 278.322C469.037 277.677 468.917 277.031 468.636 276.43C468.356 275.828 467.923 275.286 467.368 274.841C466.813 274.396 466.148 274.06 465.423 273.855L465.203 258.146L457.196 262.72L458.631 276.937C458.305 277.989 458.447 279.107 459.031 280.077C459.615 281.046 460.6 281.802 461.8 282.2C462.999 282.597 464.33 282.61 465.539 282.234C466.749 281.859 467.753 281.122 468.362 280.163L468.362 280.163Z" fill="#FFB8B8"/>
<path d="M464.963 274.399L459.268 274.638C458.68 274.66 458.103 274.496 457.652 274.177C457.2 273.858 456.906 273.409 456.828 272.916L452.514 244.795L442.479 221.543C442.176 220.841 442.041 220.096 442.083 219.35C442.124 218.604 442.341 217.872 442.72 217.197C443.099 216.522 443.634 215.918 444.292 215.419C444.951 214.92 445.72 214.537 446.555 214.291C447.391 214.046 448.276 213.943 449.159 213.989C450.042 214.034 450.905 214.228 451.698 214.558C452.492 214.888 453.2 215.348 453.781 215.911C454.362 216.474 454.805 217.129 455.084 217.838L465.211 243.602L467.186 272.309C467.215 272.743 467.075 273.173 466.786 273.533C466.498 273.893 466.077 274.163 465.589 274.301C465.387 274.358 465.176 274.391 464.963 274.399V274.399Z" fill="#3F3D56"/>
<path d="M427.196 203.971L426.864 206.578C424.398 206.116 421.219 203.802 418.902 201.239L419.71 199.059C421.759 201.828 424.332 203.072 427.196 203.971Z" fill="#F2F2F2"/>
<path d="M423.762 197.597L419.852 199.527C419.817 199.544 419.77 199.539 419.72 199.513C419.67 199.488 419.622 199.443 419.585 199.39C419.549 199.336 419.528 199.278 419.527 199.228C419.526 199.178 419.545 199.14 419.58 199.123L423.489 197.193C423.524 197.176 423.571 197.181 423.621 197.207C423.671 197.232 423.719 197.277 423.756 197.33C423.792 197.384 423.813 197.442 423.814 197.492C423.815 197.542 423.796 197.58 423.762 197.597V197.597Z" fill="#F2F2F2"/>
<path d="M427.066 204.036C427.045 204.046 427.018 204.048 426.989 204.042C426.96 204.036 426.929 204.022 426.898 204C426.868 203.979 426.839 203.951 426.815 203.92C426.79 203.888 426.771 203.853 426.758 203.819L425.077 199.269C425.066 199.241 425.06 199.214 425.06 199.189C425.059 199.164 425.063 199.142 425.071 199.123C425.08 199.105 425.093 199.091 425.11 199.082C425.127 199.074 425.147 199.07 425.17 199.072C425.192 199.074 425.217 199.082 425.241 199.094C425.266 199.107 425.291 199.124 425.314 199.145C425.337 199.166 425.359 199.19 425.377 199.217C425.395 199.243 425.409 199.271 425.42 199.299L427.101 203.849C427.117 203.891 427.122 203.932 427.116 203.965C427.109 203.998 427.092 204.023 427.066 204.036V204.036Z" fill="#F2F2F2"/>
</svg>
