<svg width="353" height="158" viewBox="0 0 353 158" fill="none" xmlns="http://www.w3.org/2000/svg">
<rect width="353" height="158" fill="white"/>
<g opacity="0.9">
<rect width="353" height="135" fill="#CCB3EB"/>
<path opacity="0.1" d="M96.7108 8H68.0225C66.8466 8 65.8933 9.15735 65.8933 10.585V20.415C65.8933 21.8426 66.8466 23 68.0225 23H96.7108C97.8867 23 98.84 21.8426 98.84 20.415V10.585C98.84 9.15735 97.8867 8 96.7108 8Z" fill="#1E0728"/>
<path opacity="0.1" d="M302.863 89H274.175C272.999 89 272.045 90.1574 272.045 91.585V101.415C272.045 102.843 272.999 104 274.175 104H302.863C304.039 104 304.992 102.843 304.992 101.415V91.585C304.992 90.1574 304.039 89 302.863 89Z" fill="#1E0728"/>
<path opacity="0.1" d="M330.161 68H301.473C300.297 68 299.344 69.1574 299.344 70.585V80.415C299.344 81.8426 300.297 83 301.473 83H330.161C331.337 83 332.291 81.8426 332.291 80.415V70.585C332.291 69.1574 331.337 68 330.161 68Z" fill="#1E0728"/>
<path opacity="0.1" d="M330.161 110H301.473C300.297 110 299.344 111.157 299.344 112.585V122.415C299.344 123.843 300.297 125 301.473 125H330.161C331.337 125 332.291 123.843 332.291 122.415V112.585C332.291 111.157 331.337 110 330.161 110Z" fill="#1E0728"/>
<path opacity="0.1" d="M151.308 97H122.62C121.444 97 120.491 98.1574 120.491 99.585V109.415C120.491 110.843 121.444 112 122.62 112H151.308C152.484 112 153.437 110.843 153.437 109.415V99.585C153.437 98.1574 152.484 97 151.308 97Z" fill="#1E0728"/>
</g>
<path d="M29.68 88H4V137.69H29.68V88Z" fill="#969696"/>
<path d="M26.9038 94.2112H6.77625L6.77625 134.867H26.9038L26.9038 94.2112Z" fill="white"/>
<path d="M29.68 88H4V91.388H29.68V88Z" fill="#3F3D56"/>
<path d="M6.75353 90.2929C7.13281 90.2929 7.44028 90.0198 7.44028 89.6829C7.44028 89.3459 7.13281 89.0728 6.75353 89.0728C6.37424 89.0728 6.06677 89.3459 6.06677 89.6829C6.06677 90.0198 6.37424 90.2929 6.75353 90.2929Z" fill="white"/>
<path d="M9.36015 90.2929C9.73944 90.2929 10.0469 90.0198 10.0469 89.6829C10.0469 89.3459 9.73944 89.0728 9.36015 89.0728C8.98087 89.0728 8.6734 89.3459 8.6734 89.6829C8.6734 90.0198 8.98087 90.2929 9.36015 90.2929Z" fill="white"/>
<path d="M11.9671 90.2929C12.3464 90.2929 12.6538 90.0198 12.6538 89.6829C12.6538 89.3459 12.3464 89.0728 11.9671 89.0728C11.5878 89.0728 11.2803 89.3459 11.2803 89.6829C11.2803 90.0198 11.5878 90.2929 11.9671 90.2929Z" fill="white"/>
<path d="M25.097 97.5957H9.0141L9.0141 113.096H25.097V97.5957Z" fill="#E0CCCC"/>
<path d="M25.097 115.902H9.01404L9.01404 131.402H25.097V115.902Z" fill="#E0CCCC"/>
<path d="M20.2953 101.147C20.0708 100.869 19.6849 100.719 19.3142 100.638C19.3253 100.603 18.187 100.361 18.168 100.411L17.739 100.058L16.4211 100.764L15.6805 100.244L15.3364 100.37C15.3504 100.308 14.2684 100.501 14.2684 100.501C14.0617 100.508 13.7977 100.522 13.5022 100.545C12.4673 100.627 12.3877 103.392 12.3877 103.392C12.8639 103.191 13.3716 103.081 13.8859 103.068L14.1656 111.162C15.6043 111.035 17.1131 111.183 18.6766 111.546L19.41 104.159L21.1179 103.474C21.1179 103.474 20.826 101.804 20.2953 101.147Z" fill="#6C2D76"/>
<path d="M50 85L25.8679 93.7834L42.8626 140.476L66.9947 131.693L50 85Z" fill="#E6E6E6"/>
<path d="M49.5155 91.7862L30.6012 98.6704L44.506 136.873L63.4203 129.989L49.5155 91.7862Z" fill="white"/>
<path d="M50 85L25.8679 93.7834L27.0267 96.9669L51.1587 88.1836L50 85Z" fill="#3D2B3C"/>
<path d="M29.2397 94.9962C29.5961 94.8665 29.7916 94.5046 29.6764 94.188C29.5611 93.8714 29.1788 93.7199 28.8224 93.8496C28.4659 93.9794 28.2704 94.3412 28.3857 94.6578C28.5009 94.9744 28.8832 95.1259 29.2397 94.9962Z" fill="white"/>
<path d="M31.6892 94.1046C32.0456 93.9749 32.2411 93.6131 32.1259 93.2965C32.0107 92.9798 31.6283 92.8283 31.2719 92.9581C30.9155 93.0878 30.7199 93.4496 30.8352 93.7662C30.9504 94.0829 31.3328 94.2344 31.6892 94.1046Z" fill="white"/>
<path d="M34.139 93.213C34.4954 93.0833 34.6909 92.7214 34.5757 92.4048C34.4604 92.0882 34.0781 91.9367 33.7217 92.0664C33.3652 92.1962 33.1697 92.558 33.2849 92.8746C33.4002 93.1912 33.7825 93.3427 34.139 93.213Z" fill="white"/>
<path d="M48.9751 95.5844L33.8616 101.085L39.163 115.651L54.2765 110.15L48.9751 95.5844Z" fill="#E6E6E6"/>
<path d="M39.6521 101.385C39.6521 101.385 37.9497 103.429 38.2398 103.898C38.5298 104.367 42.9109 112.142 42.9109 112.142L46.1488 111.038L43.0324 105.427L43.2365 103.528L47.916 110.32L51.8835 108.926L44.8124 100.481L43.8143 99.8701L39.6521 101.385Z" fill="#877489"/>
<path d="M55.2361 112.786L40.1226 118.287L45.4239 132.852L60.5374 127.352L55.2361 112.786Z" fill="#E6E6E6"/>
<path d="M45.4951 125.574L56.1569 121.693L55.7748 120.644C54.7431 117.809 51.5123 116.373 48.5729 117.443C45.6334 118.513 44.0814 121.69 45.1131 124.524L45.4951 125.574Z" fill="#73727D"/>
<path opacity="0.2" d="M45.4951 125.574L56.1569 121.693L55.7748 120.644C54.7431 117.809 51.5123 116.373 48.5729 117.443C45.6334 118.513 44.0814 121.69 45.1131 124.524L45.4951 125.574Z" fill="#0B0303"/>
<path d="M47.0092 125.434L55.2143 122.448C55.055 122.034 54.7338 121.702 54.3196 121.522C53.9055 121.342 53.4316 121.329 52.9997 121.486L48.0875 123.274C47.6559 123.432 47.3012 123.746 47.0996 124.15C46.8979 124.554 46.8655 125.015 47.0092 125.434V125.434Z" fill="#837FC5"/>
<path d="M45.9733 125.628C46.8827 125.297 47.3612 124.318 47.042 123.441C46.7228 122.564 45.7268 122.121 44.8173 122.452C43.9079 122.783 43.4294 123.763 43.7486 124.64C44.0678 125.517 45.0638 125.959 45.9733 125.628Z" fill="#73727D"/>
<path d="M55.9651 121.992C56.8746 121.661 57.353 120.681 57.0338 119.804C56.7146 118.927 55.7186 118.485 54.8092 118.816C53.8997 119.147 53.4212 120.126 53.7405 121.003C54.0597 121.88 55.0557 122.323 55.9651 121.992Z" fill="#73727D"/>
<path d="M54.4391 121.663L54.6546 122.255L47.0491 125.023L46.8336 124.431L45.1311 125.051L46.1815 127.937C46.2459 128.114 46.3805 128.257 46.5556 128.335C46.7308 128.413 46.9322 128.419 47.1156 128.352L56.7433 124.848C56.8341 124.815 56.9178 124.765 56.9895 124.701C57.0611 124.637 57.1195 124.56 57.1611 124.475C57.2028 124.389 57.227 124.297 57.2323 124.204C57.2376 124.11 57.2239 124.017 57.1921 123.93L56.1416 121.044L54.4391 121.663Z" fill="#73727D"/>
<path opacity="0.2" d="M45.5129 124.363C45.6978 124.296 45.7952 124.097 45.7302 123.918C45.6653 123.74 45.4627 123.65 45.2778 123.717C45.0928 123.785 44.9955 123.984 45.0604 124.162C45.1254 124.341 45.3279 124.431 45.5129 124.363Z" fill="#0B0303"/>
<path opacity="0.2" d="M55.5048 120.727C55.6898 120.659 55.7871 120.46 55.7221 120.282C55.6572 120.103 55.4546 120.013 55.2697 120.081C55.0847 120.148 54.9874 120.347 55.0523 120.526C55.1172 120.704 55.3198 120.794 55.5048 120.727Z" fill="#0B0303"/>
<path d="M20.808 125.366L20.6002 125.323C20.7211 124.849 20.7618 124.361 20.7203 123.881C20.5195 121.52 18.416 119.853 16.0313 120.164C13.6465 120.476 11.8697 122.651 12.0706 125.012C12.1084 125.462 12.2176 125.9 12.3941 126.309L12.1964 126.401C11.9165 125.752 11.7992 125.039 11.8541 124.32C11.909 123.601 12.1346 122.897 12.5123 122.267C12.8899 121.637 13.4087 121.098 14.0259 120.695C14.6431 120.292 15.3408 120.037 16.0616 119.95C16.7823 119.864 17.5053 119.948 18.1709 120.197C18.8364 120.446 19.4254 120.851 19.8891 121.38C20.3528 121.909 20.678 122.547 20.8378 123.24C20.9976 123.933 20.9874 124.662 20.808 125.366V125.366Z" fill="black"/>
<path d="M13.3102 124.451C12.9055 124.504 12.5309 124.714 12.2689 125.035C12.0068 125.355 11.8787 125.761 11.9128 126.161C11.9469 126.562 12.1403 126.925 12.4506 127.171C12.7608 127.417 13.1625 127.525 13.5672 127.472L13.9462 127.423L13.6892 124.401L13.3102 124.451Z" fill="black"/>
<path d="M13.681 124.188C13.5908 124.2 13.5073 124.247 13.4489 124.319C13.3905 124.39 13.3619 124.48 13.3694 124.57L13.6051 127.341C13.6127 127.43 13.6558 127.511 13.725 127.566C13.7942 127.621 13.8837 127.645 13.9739 127.633C14.0641 127.621 14.1476 127.575 14.2061 127.503C14.2645 127.432 14.293 127.341 14.2854 127.252L14.0498 124.481C14.0421 124.391 13.9989 124.311 13.9298 124.256C13.8606 124.201 13.7711 124.177 13.681 124.188Z" fill="#C175CD"/>
<path d="M19.2916 126.724L19.6706 126.674C20.0753 126.621 20.4498 126.411 20.7119 126.091C20.974 125.77 21.102 125.365 21.068 124.964C21.0511 124.766 20.9949 124.574 20.9027 124.401C20.8104 124.228 20.6838 124.076 20.5302 123.954C20.22 123.708 19.8183 123.6 19.4136 123.653L19.0346 123.702L19.2916 126.724Z" fill="black"/>
<path d="M19.0069 123.492C18.9167 123.504 18.8333 123.551 18.7749 123.622C18.7165 123.694 18.6879 123.784 18.6954 123.873L18.9311 126.645C18.9387 126.734 18.9819 126.815 19.051 126.869C19.1202 126.924 19.2097 126.948 19.2998 126.937C19.39 126.925 19.4735 126.878 19.5319 126.807C19.5903 126.735 19.6189 126.645 19.6114 126.556L19.3757 123.784C19.368 123.695 19.3248 123.614 19.2557 123.559C19.1866 123.505 19.0971 123.48 19.0069 123.492V123.492Z" fill="#C175CD"/>
</svg>
