<svg width="1440" height="380" viewBox="0 0 1440 380" fill="none" xmlns="http://www.w3.org/2000/svg">
<rect width="1440" height="380" fill="white"/>
<path opacity="0.1" d="M1398.27 271H1329.13C1326.3 271 1324 273.134 1324 275.767V293.893C1324 296.526 1326.3 298.66 1329.13 298.66H1398.27C1401.11 298.66 1403.4 296.526 1403.4 293.893V275.767C1403.4 273.134 1401.11 271 1398.27 271Z" fill="#1E0728"/>
<path opacity="0.1" d="M1358.27 98H1289.13C1286.3 98 1284 100.134 1284 102.767V120.893C1284 123.526 1286.3 125.66 1289.13 125.66H1358.27C1361.11 125.66 1363.4 123.526 1363.4 120.893V102.767C1363.4 100.134 1361.11 98 1358.27 98Z" fill="#1E0728"/>
<path opacity="0.1" d="M1189.27 177H1120.13C1117.3 177 1115 179.134 1115 181.767V199.893C1115 202.526 1117.3 204.66 1120.13 204.66H1189.27C1192.11 204.66 1194.4 202.526 1194.4 199.893V181.767C1194.4 179.134 1192.11 177 1189.27 177Z" fill="#1E0728"/>
<g opacity="0.9">
<rect width="1440" height="332" fill="#CCB3EB"/>
<path opacity="0.1" d="M84.2726 290H15.1315C12.2975 290 10 292.134 10 294.767V312.893C10 315.526 12.2975 317.66 15.1315 317.66H84.2726C87.1066 317.66 89.4041 315.526 89.4041 312.893V294.767C89.4041 292.134 87.1066 290 84.2726 290Z" fill="#1E0728"/>
<path opacity="0.1" d="M133.273 206H64.1315C61.2975 206 59 208.134 59 210.767V228.893C59 231.526 61.2975 233.66 64.1315 233.66H133.273C136.107 233.66 138.404 231.526 138.404 228.893V210.767C138.404 208.134 136.107 206 133.273 206Z" fill="#1E0728"/>
<path opacity="0.1" d="M74.2726 56H5.1315C2.29746 56 0 58.1342 0 60.7668V78.8934C0 81.526 2.29746 83.6602 5.1315 83.6602H74.2726C77.1066 83.6602 79.4041 81.526 79.4041 78.8934V60.7668C79.4041 58.1342 77.1066 56 74.2726 56Z" fill="#1E0728"/>
<path opacity="0.1" d="M94.2726 16H25.1315C22.2975 16 20 18.1342 20 20.7668V38.8934C20 41.526 22.2975 43.6602 25.1315 43.6602H94.2726C97.1066 43.6602 99.4041 41.526 99.4041 38.8934V20.7668C99.4041 18.1342 97.1066 16 94.2726 16Z" fill="#1E0728"/>
</g>
<path d="M258.122 145.136H30.0981V298.938H258.122V145.136Z" fill="#E6E6E6"/>
<path d="M251.6 164.427H36.6175V289.839H251.6V164.427Z" fill="white"/>
<path d="M258.023 145H30V155.202H258.023V145Z" fill="#5A0157"/>
<path d="M37.1988 152.107C38.1904 152.107 38.9942 151.26 38.9942 150.216C38.9942 149.172 38.1904 148.325 37.1988 148.325C36.2072 148.325 35.4033 149.172 35.4033 150.216C35.4033 151.26 36.2072 152.107 37.1988 152.107Z" fill="white"/>
<path d="M44.0137 152.107C45.0053 152.107 45.8092 151.26 45.8092 150.216C45.8092 149.172 45.0053 148.325 44.0137 148.325C43.0221 148.325 42.2183 149.172 42.2183 150.216C42.2183 151.26 43.0221 152.107 44.0137 152.107Z" fill="white"/>
<path d="M50.8291 152.107C51.8207 152.107 52.6245 151.26 52.6245 150.216C52.6245 149.172 51.8207 148.325 50.8291 148.325C49.8375 148.325 49.0336 149.172 49.0336 150.216C49.0336 151.26 49.8375 152.107 50.8291 152.107Z" fill="white"/>
<path d="M105.116 174.742H63.0687V222.785H105.116V174.742Z" fill="#E6E6E6"/>
<path d="M165.132 174.742H123.085V222.785H165.132V174.742Z" fill="#E6E6E6"/>
<path d="M225.148 174.742H183.101V222.785H225.148V174.742Z" fill="#E6E6E6"/>
<path d="M105.116 231.482H63.0687V279.525H105.116V231.482Z" fill="#E6E6E6"/>
<path d="M165.132 231.482H123.085V279.525H165.132V231.482Z" fill="#E6E6E6"/>
<path d="M225.148 231.482H183.101V279.525H225.148V231.482Z" fill="#E6E6E6"/>
<path d="M133.248 243.829L140.93 240.63L141.823 256.624C141.823 256.624 143.431 261.517 142.895 263.398C142.895 263.398 143.253 266.597 142.359 266.785C141.466 266.973 138.965 267.35 138.786 267.161C138.607 266.973 138.607 266.409 138.607 266.409C138.607 266.409 136.821 267.726 136.642 269.231C136.642 269.231 129.138 271.677 128.96 269.419C128.781 267.161 132.712 265.28 132.712 265.28L135.749 260.388L133.248 243.829Z" fill="white"/>
<path d="M149.506 243.829L157.189 240.63L158.082 256.624C158.082 256.624 159.69 261.517 159.154 263.398C159.154 263.398 159.511 266.597 158.618 266.785C157.725 266.973 155.223 267.35 155.045 267.161C154.866 266.973 154.866 266.409 154.866 266.409C154.866 266.409 153.079 267.726 152.901 269.231C152.901 269.231 145.397 271.677 145.218 269.419C145.039 267.161 148.97 265.28 148.97 265.28L152.007 260.388L149.506 243.829Z" fill="white"/>
<path d="M150.258 182.066C150.258 182.066 148.622 186.88 150.517 189.05L148.937 194.769C148.937 194.769 154.551 212.507 152.947 214.985C152.947 214.985 146.959 218.139 134.982 213.859L139.847 193.981L139.152 185.59L140.115 181.648L142.253 181.423C142.253 181.423 140.97 186.491 143.323 187.28C145.675 188.068 147.971 181.55 147.971 181.55L150.258 182.066Z" fill="#612156"/>
<path d="M74.712 213.142L76.7764 214.032L86.6289 200.394L89.7254 216.404L91.7898 216.008C93.114 202.206 94.1938 188.128 92.8688 181.47L85.2214 181.124L81.7496 192.785L80.0606 200.691L74.712 213.142Z" fill="white"/>
<path d="M200.004 181.359C200.004 181.359 197.187 185.484 197.324 187.148C197.462 188.813 199.248 215.951 199.248 215.951L203.44 216.168L202.203 196.629L203.234 191.346L205.776 215.951L210.93 216.096L206.326 184.181L205.432 181.359L200.004 181.359Z" fill="white"/>
<path d="M215.927 247.812C215.179 246.867 213.893 246.355 212.658 246.079C212.696 245.961 208.903 245.136 208.84 245.306L207.41 244.107L203.019 246.508L200.552 244.739L199.405 245.168C199.452 244.955 195.847 245.612 195.847 245.612C195.158 245.638 194.279 245.684 193.294 245.764C189.846 246.043 189.581 255.447 189.581 255.447C191.168 254.764 192.859 254.391 194.573 254.347L195.504 265.596C200.298 265.163 205.325 265.667 210.534 266.9L212.978 258.057L218.668 255.726C218.668 255.726 217.696 250.047 215.927 247.812Z" fill="#A53499"/>
<path d="M93.8176 242.456C93.2012 241.677 92.1418 241.256 91.1242 241.028C91.1548 240.931 88.0299 240.251 87.9776 240.391L86.7999 239.403L83.182 241.382L81.1487 239.924L80.2043 240.277C80.2427 240.102 77.2723 240.643 77.2723 240.643C76.7049 240.665 75.9801 240.702 75.1689 240.768C72.3278 240.998 72.1093 248.747 72.1093 248.747C73.4165 248.184 74.8102 247.876 76.2221 247.84L76.99 270.53C80.9395 270.173 85.0817 270.588 89.3739 271.604L91.3872 250.897L96.0758 248.977C96.0758 248.977 95.2745 244.297 93.8176 242.456Z" fill="#BA63FF"/>
<path opacity="0.1" d="M736.273 79H667.132C664.297 79 662 81.1342 662 83.7668V101.893C662 104.526 664.297 106.66 667.132 106.66H736.273C739.107 106.66 741.404 104.526 741.404 101.893V83.7668C741.404 81.1342 739.107 79 736.273 79Z" fill="#1E0728"/>
<path opacity="0.1" d="M1218.27 215H1149.13C1146.3 215 1144 217.134 1144 219.767V237.893C1144 240.526 1146.3 242.66 1149.13 242.66H1218.27C1221.11 242.66 1223.4 240.526 1223.4 237.893V219.767C1223.4 217.134 1221.11 215 1218.27 215Z" fill="#1E0728"/>
<path opacity="0.1" d="M483.273 32H414.132C411.297 32 409 34.1342 409 36.7668V54.8934C409 57.526 411.297 59.6602 414.132 59.6602H483.273C486.107 59.6602 488.404 57.526 488.404 54.8934V36.7668C488.404 34.1342 486.107 32 483.273 32Z" fill="#1E0728"/>
<path opacity="0.1" d="M815.273 284H746.132C743.297 284 741 286.134 741 288.767V306.893C741 309.526 743.297 311.66 746.132 311.66H815.273C818.107 311.66 820.404 309.526 820.404 306.893V288.767C820.404 286.134 818.107 284 815.273 284Z" fill="#1E0728"/>
<path opacity="0.1" d="M667.273 192H598.132C595.297 192 593 194.134 593 196.767V214.893C593 217.526 595.297 219.66 598.132 219.66H667.273C670.107 219.66 672.404 217.526 672.404 214.893V196.767C672.404 194.134 670.107 192 667.273 192Z" fill="#1E0728"/>
<path opacity="0.1" d="M588.273 262H519.132C516.297 262 514 264.134 514 266.767V284.893C514 287.526 516.297 289.66 519.132 289.66H588.273C591.107 289.66 593.404 287.526 593.404 284.893V266.767C593.404 264.134 591.107 262 588.273 262Z" fill="#1E0728"/>
<path opacity="0.1" d="M1218.27 134H1149.13C1146.3 134 1144 136.134 1144 138.767V156.893C1144 159.526 1146.3 161.66 1149.13 161.66H1218.27C1221.11 161.66 1223.4 159.526 1223.4 156.893V138.767C1223.4 136.134 1221.11 134 1218.27 134Z" fill="#1E0728"/>
<path opacity="0.1" d="M995.273 65H926.132C923.297 65 921 67.1342 921 69.7668V87.8934C921 90.526 923.297 92.6602 926.132 92.6602H995.273C998.107 92.6602 1000.4 90.526 1000.4 87.8934V69.7668C1000.4 67.1342 998.107 65 995.273 65Z" fill="#1E0728"/>
<path d="M1311.52 174.226H1310.39V145.58C1310.39 143.402 1309.93 141.246 1309.03 139.235C1308.13 137.223 1306.81 135.396 1305.14 133.856C1303.48 132.316 1301.51 131.095 1299.33 130.262C1297.16 129.429 1294.83 129 1292.48 129H1226.91C1224.56 129 1222.23 129.429 1220.06 130.262C1217.88 131.095 1215.91 132.316 1214.25 133.856C1212.58 135.396 1211.26 137.223 1210.36 139.235C1209.46 141.246 1209 143.402 1209 145.58V302.734C1209 304.911 1209.46 307.067 1210.36 309.078C1211.26 311.09 1212.58 312.918 1214.25 314.457C1215.91 315.997 1217.88 317.218 1220.06 318.051C1222.23 318.884 1224.56 319.313 1226.91 319.313H1292.48C1294.83 319.313 1297.16 318.884 1299.33 318.051C1301.51 317.218 1303.48 315.997 1305.14 314.457C1306.81 312.918 1308.13 311.09 1309.03 309.078C1309.93 307.067 1310.39 304.911 1310.39 302.734V194.616H1311.52V174.226Z" fill="#3F3D56"/>
<path d="M1293.2 133.313H1284.64C1285.04 134.207 1285.19 135.176 1285.08 136.135C1284.97 137.095 1284.61 138.016 1284.03 138.816C1283.45 139.617 1282.67 140.273 1281.75 140.726C1280.83 141.18 1279.8 141.417 1278.76 141.417H1241.2C1240.15 141.417 1239.13 141.18 1238.21 140.726C1237.29 140.273 1236.5 139.617 1235.92 138.816C1235.34 138.016 1234.98 137.095 1234.88 136.135C1234.77 135.176 1234.92 134.207 1235.31 133.313H1227.32C1225.56 133.313 1223.82 133.634 1222.2 134.256C1220.58 134.878 1219.1 135.79 1217.86 136.94C1216.62 138.09 1215.63 139.454 1214.96 140.957C1214.29 142.459 1213.94 144.069 1213.94 145.695V302.618C1213.94 304.244 1214.29 305.854 1214.96 307.357C1215.63 308.859 1216.62 310.224 1217.86 311.373C1219.1 312.523 1220.58 313.435 1222.2 314.057C1223.82 314.68 1225.56 315 1227.32 315H1293.2C1294.96 315 1296.7 314.68 1298.32 314.057C1299.94 313.435 1301.42 312.523 1302.66 311.373C1303.9 310.224 1304.89 308.859 1305.56 307.357C1306.23 305.854 1306.58 304.244 1306.58 302.618V145.695C1306.58 142.411 1305.17 139.262 1302.66 136.94C1300.15 134.618 1296.75 133.313 1293.2 133.313V133.313Z" fill="white"/>
<path d="M1295.01 157.826H1225.51V213.002H1295.01V157.826Z" fill="#E6E6E6"/>
<path d="M1295.01 235.491H1225.51V290.667H1295.01V235.491Z" fill="#E6E6E6"/>
<path d="M1245.25 174.862C1245.9 174.862 1246.42 174.241 1246.42 173.476C1246.42 172.71 1245.9 172.09 1245.25 172.09C1244.6 172.09 1244.07 172.71 1244.07 173.476C1244.07 174.241 1244.6 174.862 1245.25 174.862Z" fill="#B13DA6"/>
<path opacity="0.2" d="M1245.74 172.221C1245.95 172.443 1246.09 172.746 1246.12 173.075C1246.16 173.404 1246.09 173.737 1245.93 174.013C1245.78 174.289 1245.54 174.49 1245.27 174.579C1245 174.669 1244.71 174.64 1244.46 174.5C1244.58 174.634 1244.73 174.735 1244.89 174.796C1245.05 174.856 1245.22 174.875 1245.39 174.851C1245.56 174.826 1245.72 174.759 1245.87 174.655C1246.01 174.55 1246.13 174.409 1246.23 174.243C1246.32 174.077 1246.38 173.889 1246.41 173.692C1246.43 173.495 1246.42 173.293 1246.38 173.101C1246.33 172.909 1246.25 172.731 1246.14 172.579C1246.03 172.427 1245.9 172.305 1245.74 172.221V172.221Z" fill="black"/>
<path d="M1275.45 176.363C1277.04 176.363 1278.34 175.743 1278.34 174.977C1278.34 174.212 1277.04 173.591 1275.45 173.591C1273.85 173.591 1272.56 174.212 1272.56 174.977C1272.56 175.743 1273.85 176.363 1275.45 176.363Z" fill="#3F3D56"/>
<path opacity="0.2" d="M1275.45 173.591C1275.35 173.591 1275.25 173.594 1275.16 173.598C1276.61 173.669 1277.75 174.259 1277.75 174.977C1277.75 175.695 1276.61 176.285 1275.16 176.356C1275.25 176.361 1275.35 176.363 1275.45 176.363C1277.04 176.363 1278.34 175.743 1278.34 174.977C1278.34 174.212 1277.04 173.591 1275.45 173.591Z" fill="black"/>
<path d="M1279.22 174.977H1264.73V173.129C1264.73 173.037 1264.7 172.949 1264.64 172.884C1264.59 172.819 1264.51 172.783 1264.44 172.783H1256.41C1256.33 172.783 1256.26 172.819 1256.2 172.884C1256.15 172.949 1256.11 173.037 1256.11 173.129V174.977H1247.7V173.822C1247.7 173.73 1247.66 173.642 1247.61 173.577C1247.55 173.512 1247.48 173.476 1247.4 173.476H1243.09C1243.02 173.476 1242.94 173.512 1242.89 173.577C1242.83 173.642 1242.8 173.73 1242.8 173.822V174.977H1241.63C1241.59 174.977 1241.55 174.986 1241.51 175.003C1241.48 175.021 1241.45 175.046 1241.42 175.078C1241.39 175.111 1241.37 175.149 1241.35 175.191C1241.34 175.233 1241.33 175.278 1241.33 175.324V198.076C1241.33 198.121 1241.34 198.167 1241.35 198.209C1241.37 198.251 1241.39 198.289 1241.42 198.321C1241.45 198.353 1241.48 198.379 1241.51 198.396C1241.55 198.414 1241.59 198.422 1241.63 198.422H1279.22C1279.26 198.422 1279.3 198.414 1279.33 198.396C1279.37 198.379 1279.4 198.353 1279.43 198.321C1279.45 198.289 1279.48 198.251 1279.49 198.209C1279.5 198.167 1279.51 198.121 1279.51 198.076V175.324C1279.51 175.278 1279.5 175.233 1279.49 175.191C1279.48 175.149 1279.45 175.111 1279.43 175.078C1279.4 175.046 1279.37 175.021 1279.33 175.003C1279.3 174.986 1279.26 174.977 1279.22 174.977V174.977Z" fill="#3F3D56"/>
<path opacity="0.2" d="M1279.22 196.726H1241.62C1241.59 196.726 1241.55 196.717 1241.51 196.699C1241.48 196.682 1241.44 196.656 1241.42 196.624C1241.39 196.592 1241.37 196.554 1241.35 196.512C1241.34 196.47 1241.33 196.425 1241.33 196.379V197.996C1241.33 198.042 1241.34 198.087 1241.35 198.129C1241.37 198.171 1241.39 198.209 1241.42 198.241C1241.44 198.273 1241.48 198.299 1241.51 198.316C1241.55 198.334 1241.59 198.343 1241.62 198.343H1279.22C1279.26 198.343 1279.29 198.334 1279.33 198.316C1279.37 198.299 1279.4 198.273 1279.42 198.241C1279.45 198.209 1279.47 198.171 1279.49 198.129C1279.5 198.087 1279.51 198.042 1279.51 197.996V196.379C1279.51 196.425 1279.5 196.47 1279.49 196.512C1279.47 196.554 1279.45 196.592 1279.42 196.624C1279.4 196.656 1279.37 196.682 1279.33 196.699C1279.29 196.717 1279.26 196.726 1279.22 196.726Z" fill="black"/>
<path opacity="0.2" d="M1279.51 185.603H1241.33V189.991H1279.51V185.603Z" fill="black"/>
<path opacity="0.2" d="M1279.51 183.408H1241.33V187.797H1279.51V183.408Z" fill="black"/>
<path d="M1279.51 184.448H1241.33V188.836H1279.51V184.448Z" fill="#B13DA6"/>
<path d="M1260.42 195.42C1264.53 195.42 1267.86 191.49 1267.86 186.642C1267.86 181.794 1264.53 177.864 1260.42 177.864C1256.31 177.864 1252.98 181.794 1252.98 186.642C1252.98 191.49 1256.31 195.42 1260.42 195.42Z" fill="#B13DA6"/>
<path opacity="0.2" d="M1266.15 181.045C1267.1 182.947 1267.4 185.2 1267.01 187.356C1266.61 189.511 1265.54 191.41 1264.01 192.676C1262.47 193.942 1260.59 194.481 1258.74 194.186C1256.89 193.891 1255.2 192.784 1254.01 191.084C1254.53 192.13 1255.22 193.037 1256.06 193.748C1256.89 194.46 1257.83 194.96 1258.84 195.218C1259.84 195.476 1260.88 195.486 1261.89 195.247C1262.9 195.008 1263.85 194.526 1264.69 193.831C1265.53 193.135 1266.24 192.242 1266.78 191.206C1267.31 190.171 1267.66 189.017 1267.8 187.815C1267.93 186.614 1267.86 185.392 1267.58 184.227C1267.29 183.062 1266.81 181.978 1266.15 181.045V181.045Z" fill="black"/>
<path d="M1260.42 193.174C1263.48 193.174 1265.96 190.25 1265.96 186.642C1265.96 183.034 1263.48 180.11 1260.42 180.11C1257.36 180.11 1254.89 183.034 1254.89 186.642C1254.89 190.25 1257.36 193.174 1260.42 193.174Z" fill="#3F3D56"/>
<path d="M1264.73 186.642C1264.73 187.332 1264.61 188.015 1264.38 188.648C1264.26 188.99 1264.1 189.314 1263.91 189.615C1263.55 190.212 1263.08 190.709 1262.54 191.07C1261.99 191.432 1261.39 191.65 1260.77 191.709C1260.14 191.768 1259.52 191.667 1258.93 191.413C1258.35 191.158 1257.82 190.757 1257.37 190.237C1256.93 189.716 1256.59 189.089 1256.38 188.398C1256.16 187.707 1256.08 186.969 1256.13 186.235C1256.18 185.501 1256.36 184.789 1256.67 184.148C1256.97 183.507 1257.4 182.952 1257.9 182.521C1258.16 182.303 1258.43 182.119 1258.72 181.973C1259.38 181.641 1260.09 181.506 1260.8 181.58C1261.51 181.654 1262.2 181.936 1262.79 182.398C1263.39 182.861 1263.88 183.491 1264.21 184.232C1264.55 184.973 1264.73 185.801 1264.73 186.642V186.642Z" fill="white"/>
<path opacity="0.2" d="M1264.68 185.902C1264.52 184.61 1263.95 183.44 1263.07 182.637C1263.45 183.336 1263.68 184.133 1263.74 184.959C1263.79 185.786 1263.68 186.616 1263.4 187.378C1263.28 187.719 1263.12 188.044 1262.94 188.344C1262.6 188.899 1262.17 189.367 1261.67 189.721C1261.17 190.075 1260.62 190.307 1260.05 190.403C1259.48 190.499 1258.89 190.458 1258.33 190.281C1257.77 190.104 1257.25 189.796 1256.79 189.374C1257.17 190.074 1257.69 190.654 1258.3 191.063C1258.91 191.472 1259.6 191.699 1260.3 191.722C1261 191.746 1261.7 191.566 1262.33 191.199C1262.96 190.832 1263.5 190.288 1263.91 189.615C1264.1 189.314 1264.26 188.99 1264.38 188.648C1264.69 187.783 1264.8 186.833 1264.68 185.902V185.902Z" fill="black"/>
<path d="M1262.02 277.044C1262.02 277.044 1253.26 273.812 1254.51 264.732C1255.76 255.652 1255.35 256.575 1255.35 256.575C1255.35 256.575 1257.43 251.496 1261.19 249.65C1261.19 249.65 1252.21 242.878 1245.12 255.19C1245.12 255.19 1243.24 262.577 1244.7 267.502C1246.16 272.427 1249.5 276.429 1249.5 276.429C1249.5 276.429 1252.63 278.737 1256.18 278.737C1259.73 278.737 1262.02 277.044 1262.02 277.044Z" fill="#807D7D"/>
<path d="M1276.53 271.581C1276.53 271.581 1271.52 281.43 1255.87 279.584C1240.21 277.737 1244.39 257.729 1244.39 257.729C1244.39 257.729 1242.64 272.654 1251.79 277.044C1254.33 278.26 1257.64 278.271 1260.06 276.935C1261.67 276.049 1263.04 274.505 1262.86 271.812L1276.53 271.581Z" fill="#3C3F85"/>
<path d="M1276.04 252.841C1276.04 252.841 1268.91 243.34 1253.47 246.572C1243.89 249.579 1244.07 257.324 1244.07 257.324C1242.92 270.165 1255.34 269.958 1258.27 256.267C1258.78 253.864 1257.75 252.497 1257.75 252.497C1257.75 252.497 1256.28 255.729 1251.8 256.421C1247.3 257.115 1246.53 256.012 1246.68 254.344C1246.68 254.327 1246.69 254.31 1246.69 254.294C1246.81 252.943 1247.52 251.657 1248.72 250.628C1251.29 248.419 1256.9 245.193 1262.86 251.958L1263.28 252.719C1263.28 252.719 1270.65 254.185 1276.04 252.841Z" fill="#3C3F85"/>
<path d="M1264.53 252.574C1263.45 252.575 1262.41 252.891 1261.65 253.453C1260.89 254.016 1260.46 254.778 1260.46 255.573V269.689C1260.46 270.517 1260.91 271.311 1261.7 271.896C1262.49 272.482 1263.57 272.811 1264.69 272.812H1274.77C1276.12 272.811 1277.42 272.414 1278.37 271.708C1279.33 271.003 1279.87 270.046 1279.87 269.049V256.366C1279.87 255.361 1279.33 254.397 1278.36 253.686C1277.4 252.975 1276.09 252.575 1274.73 252.574L1264.53 252.574Z" fill="#3F3D56"/>
<path d="M1266.27 253.189C1265.7 253.19 1265.15 253.358 1264.75 253.657C1264.34 253.956 1264.11 254.361 1264.11 254.784V270.679C1264.11 271.102 1264.34 271.507 1264.74 271.806C1265.15 272.105 1265.7 272.273 1266.27 272.273H1275.85C1277 272.272 1278.1 271.935 1278.91 271.337C1279.72 270.738 1280.18 269.926 1280.18 269.079V256.003C1280.18 255.257 1279.78 254.542 1279.06 254.014C1278.35 253.487 1277.38 253.19 1276.37 253.189H1266.27Z" fill="#48095F"/>
<path opacity="0.2" d="M1265.92 253.278C1265.65 253.426 1265.43 253.618 1265.28 253.839C1265.13 254.061 1265.05 254.305 1265.05 254.553V270.448C1265.05 270.871 1265.28 271.276 1265.68 271.575C1266.09 271.874 1266.64 272.042 1267.21 272.042H1276.79C1277.15 272.041 1277.52 272.006 1277.87 271.938C1277.22 272.208 1276.49 272.35 1275.75 272.35H1266.17C1265.6 272.35 1265.05 272.182 1264.64 271.883C1264.24 271.584 1264.01 271.179 1264.01 270.756V254.86C1264.01 254.47 1264.2 254.093 1264.56 253.801C1264.91 253.509 1265.39 253.323 1265.92 253.278V253.278Z" fill="black"/>
<path d="M1261.19 260.884C1262.34 260.884 1263.28 260.023 1263.28 258.961C1263.28 257.898 1262.34 257.037 1261.19 257.037C1260.04 257.037 1259.1 257.898 1259.1 258.961C1259.1 260.023 1260.04 260.884 1261.19 260.884Z" fill="#48095F"/>
<path opacity="0.2" d="M1262.65 258.961C1262.65 258.03 1261.93 257.254 1260.98 257.076C1261.12 257.05 1261.26 257.037 1261.4 257.037C1262.55 257.037 1263.48 257.898 1263.48 258.961C1263.48 260.023 1262.55 260.884 1261.4 260.884C1261.26 260.884 1261.12 260.871 1260.98 260.846C1261.93 260.668 1262.65 259.891 1262.65 258.961Z" fill="black"/>
<path d="M1260.77 263.886V267.887C1260.77 268.03 1260.85 268.167 1260.99 268.268C1261.12 268.369 1261.31 268.426 1261.5 268.426C1261.7 268.426 1261.88 268.369 1262.02 268.268C1262.16 268.167 1262.23 268.03 1262.23 267.887V263.886C1262.23 263.743 1262.16 263.606 1262.02 263.505C1261.88 263.404 1261.7 263.347 1261.5 263.347C1261.31 263.347 1261.12 263.404 1260.99 263.505C1260.85 263.606 1260.77 263.743 1260.77 263.886V263.886Z" fill="#48095F"/>
<path opacity="0.2" d="M1261.92 267.887V263.886C1261.92 263.77 1261.87 263.658 1261.77 263.565C1261.68 263.473 1261.55 263.405 1261.4 263.372C1261.47 263.356 1261.54 263.348 1261.61 263.347C1261.8 263.347 1261.99 263.404 1262.12 263.505C1262.26 263.606 1262.34 263.743 1262.34 263.886V267.887C1262.34 268.03 1262.26 268.167 1262.12 268.268C1261.99 268.369 1261.8 268.426 1261.61 268.426C1261.54 268.425 1261.47 268.416 1261.4 268.401C1261.55 268.368 1261.68 268.3 1261.77 268.207C1261.87 268.115 1261.92 268.003 1261.92 267.887Z" fill="black"/>
<path d="M1250.34 272.119C1250.91 272.119 1251.38 271.775 1251.38 271.35C1251.38 270.925 1250.91 270.58 1250.34 270.58C1249.76 270.58 1249.29 270.925 1249.29 271.35C1249.29 271.775 1249.76 272.119 1250.34 272.119Z" fill="white"/>
<path opacity="0.3" d="M1250.96 271.35C1250.96 271.172 1250.88 271.001 1250.73 270.863C1250.57 270.726 1250.36 270.631 1250.13 270.596C1250.28 270.573 1250.44 270.575 1250.59 270.603C1250.74 270.63 1250.88 270.682 1251 270.754C1251.12 270.826 1251.21 270.917 1251.28 271.02C1251.34 271.123 1251.38 271.236 1251.38 271.35C1251.38 271.464 1251.34 271.577 1251.28 271.68C1251.21 271.783 1251.12 271.874 1251 271.946C1250.88 272.018 1250.74 272.07 1250.59 272.097C1250.44 272.124 1250.28 272.127 1250.13 272.104C1250.36 272.068 1250.57 271.974 1250.73 271.836C1250.88 271.699 1250.96 271.527 1250.96 271.35V271.35Z" fill="black"/>
<path d="M1249.87 269.066C1250.44 269.066 1250.91 268.721 1250.91 268.296C1250.91 267.871 1250.44 267.527 1249.87 267.527C1249.29 267.527 1248.82 267.871 1248.82 268.296C1248.82 268.721 1249.29 269.066 1249.87 269.066Z" fill="white"/>
<path opacity="0.3" d="M1250.49 268.296C1250.49 268.119 1250.41 267.947 1250.26 267.809C1250.1 267.672 1249.89 267.578 1249.66 267.542C1249.81 267.519 1249.96 267.522 1250.12 267.549C1250.27 267.576 1250.41 267.628 1250.53 267.7C1250.65 267.772 1250.74 267.863 1250.81 267.966C1250.87 268.069 1250.91 268.182 1250.91 268.296C1250.91 268.41 1250.87 268.523 1250.81 268.626C1250.74 268.729 1250.65 268.82 1250.53 268.892C1250.41 268.964 1250.27 269.016 1250.12 269.043C1249.96 269.071 1249.81 269.073 1249.66 269.05C1249.89 269.015 1250.1 268.92 1250.26 268.783C1250.41 268.645 1250.49 268.473 1250.49 268.296V268.296Z" fill="black"/>
<path d="M1250.96 255.036C1251.54 255.036 1252.01 254.692 1252.01 254.267C1252.01 253.842 1251.54 253.497 1250.96 253.497C1250.39 253.497 1249.92 253.842 1249.92 254.267C1249.92 254.692 1250.39 255.036 1250.96 255.036Z" fill="white"/>
<path opacity="0.3" d="M1251.59 254.267C1251.59 254.089 1251.51 253.917 1251.35 253.78C1251.2 253.643 1250.99 253.548 1250.75 253.513C1250.9 253.49 1251.06 253.492 1251.21 253.52C1251.36 253.547 1251.5 253.598 1251.62 253.671C1251.74 253.743 1251.84 253.834 1251.9 253.937C1251.97 254.04 1252.01 254.153 1252.01 254.267C1252.01 254.381 1251.97 254.493 1251.9 254.596C1251.84 254.7 1251.74 254.79 1251.62 254.863C1251.5 254.935 1251.36 254.986 1251.21 255.014C1251.06 255.041 1250.9 255.043 1250.75 255.021C1250.99 254.985 1251.2 254.891 1251.35 254.753C1251.51 254.616 1251.59 254.444 1251.59 254.267V254.267Z" fill="black"/>
<path opacity="0.2" d="M1272.55 265.097C1273.71 265.097 1274.64 264.236 1274.64 263.173C1274.64 262.111 1273.71 261.249 1272.55 261.249C1271.4 261.249 1270.47 262.111 1270.47 263.173C1270.47 264.236 1271.4 265.097 1272.55 265.097Z" fill="white"/>
<path opacity="0.2" d="M1272.55 266.768C1274.71 266.768 1276.45 265.159 1276.45 263.173C1276.45 261.188 1274.71 259.579 1272.55 259.579C1270.4 259.579 1268.65 261.188 1268.65 263.173C1268.65 265.159 1270.4 266.768 1272.55 266.768Z" fill="white"/>
<path opacity="0.2" d="M1272.55 268.589C1275.8 268.589 1278.43 266.164 1278.43 263.173C1278.43 260.182 1275.8 257.758 1272.55 257.758C1269.31 257.758 1266.68 260.182 1266.68 263.173C1266.68 266.164 1269.31 268.589 1272.55 268.589Z" fill="white"/>
<path d="M996.197 213.402L995.013 215.389C992.868 214.545 990.679 212.102 989.378 209.631L990.863 208.072C991.844 210.653 993.827 212.134 996.197 213.402Z" fill="#F2F2F2"/>
<path d="M995.132 207.711L990.838 208.468C990.8 208.475 990.758 208.462 990.72 208.432C990.682 208.402 990.651 208.357 990.636 208.308C990.62 208.259 990.62 208.209 990.636 208.169C990.651 208.13 990.682 208.104 990.719 208.097L995.013 207.34C995.051 207.333 995.094 207.346 995.132 207.376C995.17 207.406 995.2 207.451 995.216 207.5C995.232 207.549 995.232 207.599 995.216 207.639C995.2 207.678 995.17 207.704 995.132 207.711Z" fill="#F2F2F2"/>
<path d="M996.054 213.427C996.031 213.431 996.005 213.428 995.98 213.417C995.955 213.407 995.931 213.389 995.91 213.366C995.888 213.344 995.871 213.316 995.859 213.286C995.847 213.257 995.84 213.226 995.84 213.196L995.798 209.284C995.797 209.261 995.801 209.238 995.809 209.218C995.816 209.198 995.827 209.182 995.842 209.169C995.856 209.156 995.873 209.148 995.891 209.144C995.91 209.141 995.93 209.142 995.951 209.148C995.971 209.154 995.991 209.164 996.01 209.179C996.029 209.194 996.046 209.212 996.061 209.233C996.075 209.254 996.087 209.278 996.095 209.302C996.103 209.327 996.107 209.351 996.107 209.375L996.15 213.287C996.15 213.323 996.141 213.356 996.124 213.381C996.107 213.406 996.083 213.422 996.054 213.427Z" fill="#F2F2F2"/>
<path d="M1342.22 285.724L1342.78 289.296C1342.85 289.782 1342.81 290.277 1342.64 290.743C1342.48 291.208 1342.2 291.632 1341.83 291.98C1341.46 292.328 1341.01 292.591 1340.51 292.747C1340.02 292.904 1339.49 292.95 1338.97 292.882V292.882C1338.47 292.817 1337.98 292.645 1337.56 292.381C1337.14 292.116 1336.78 291.766 1336.53 291.355C1336.27 290.945 1336.11 290.486 1336.07 290.011C1336.03 289.537 1336.1 289.059 1336.29 288.615L1338.18 284.025L1337.17 253.064L1343.02 250.987L1342.22 285.724Z" fill="#A0616A"/>
<path d="M1325.68 234.374C1330.13 234.374 1333.75 230.993 1333.75 226.822C1333.75 222.651 1330.13 219.27 1325.68 219.27C1321.22 219.27 1317.61 222.651 1317.61 226.822C1317.61 230.993 1321.22 234.374 1325.68 234.374Z" fill="#A0616A"/>
<path d="M1335.36 240.981L1320.43 240.415C1322.09 237.018 1322.75 233.732 1322.05 230.598H1331.93C1331.41 233.554 1332.84 237.104 1335.36 240.981Z" fill="#A0616A"/>
<path d="M1332.94 270.432L1310.95 271.943L1311.75 260.314C1309.22 254.674 1309.62 250.6 1312.6 247.902L1312.87 243.973C1312.96 242.716 1313.47 241.515 1314.32 240.541C1315.17 239.566 1316.33 238.866 1317.63 238.54L1321.44 237.583C1326.37 240.287 1330.31 240.251 1333.14 237.205L1337.67 239.379C1338.77 239.905 1339.67 240.732 1340.26 241.75C1340.84 242.767 1341.08 243.927 1340.95 245.075L1332.94 270.432Z" fill="#920DC0"/>
<path d="M1299.25 271.565L1293.05 274.615C1292.51 274.875 1291.91 274.962 1291.32 274.86C1290.73 274.758 1290.19 274.473 1289.79 274.052V274.052C1289.48 273.722 1289.27 273.323 1289.18 272.893C1289.09 272.462 1289.12 272.017 1289.27 271.601C1289.41 271.185 1289.68 270.813 1290.03 270.523C1290.38 270.232 1290.81 270.032 1291.27 269.945L1295.62 269.111L1309.14 264.202L1311.35 249.477L1317.61 250.987L1316.4 268.356L1299.25 271.565Z" fill="#A0616A"/>
<path d="M1343.43 251.931L1336.57 255.707L1336.17 240.604L1337.35 240.226C1338.96 240.226 1340.51 240.825 1341.65 241.892C1342.79 242.959 1343.43 244.407 1343.43 245.916V251.931Z" fill="#920DC0"/>
<path d="M1338.69 344.532L1332.86 343.678C1331.68 325.03 1329.31 307.62 1325.07 292.143C1315.28 304.288 1307.07 322.187 1300.06 344.438L1293.2 342.739L1311.15 269.488L1332.53 269.111C1341.28 280.316 1338.72 314.925 1338.69 344.532Z" fill="#2F2E41"/>
<path d="M1297.03 350.977L1286.9 349.648C1286.62 349.611 1286.35 349.519 1286.11 349.377C1285.87 349.235 1285.66 349.047 1285.51 348.825C1285.35 348.603 1285.25 348.353 1285.2 348.091C1285.16 347.828 1285.17 347.56 1285.25 347.304V347.304C1285.35 346.953 1285.56 346.637 1285.85 346.395C1286.14 346.154 1286.5 345.997 1286.89 345.945L1288.69 345.702L1294.38 342.448L1299.09 343.623L1300.49 347.48C1300.6 347.937 1300.58 348.412 1300.45 348.864C1300.32 349.316 1300.08 349.731 1299.74 350.075C1299.4 350.418 1298.97 350.68 1298.5 350.837C1298.03 350.994 1297.53 351.042 1297.03 350.977Z" fill="#2F2E41"/>
<path d="M1336.77 350.977L1326.64 349.648C1326.35 349.611 1326.08 349.519 1325.84 349.377C1325.61 349.235 1325.4 349.047 1325.24 348.825C1325.09 348.603 1324.98 348.353 1324.94 348.091C1324.89 347.828 1324.91 347.56 1324.98 347.304C1325.09 346.953 1325.3 346.637 1325.59 346.395C1325.88 346.154 1326.24 345.997 1326.63 345.945L1328.43 345.702L1334.12 342.448L1338.83 343.623L1340.23 347.48C1340.33 347.937 1340.32 348.412 1340.19 348.864C1340.06 349.316 1339.81 349.731 1339.47 350.075C1339.13 350.418 1338.71 350.68 1338.24 350.837C1337.77 350.994 1337.26 351.042 1336.77 350.977V350.977Z" fill="#2F2E41"/>
<path d="M1318.82 254.763C1316.98 250.99 1313.82 249.528 1308.53 251.742L1309.24 246.822C1309.51 244.975 1310.35 243.241 1311.66 241.834C1312.96 240.428 1314.68 239.409 1316.6 238.905L1318.82 254.763Z" fill="#920DC0"/>
<path d="M1316.15 222.947C1316.15 222.947 1314.88 213.702 1325.24 216.734C1325.24 216.734 1332.64 215.463 1335.06 224.123L1337.52 233.2L1336.32 232.59L1335.77 233.732L1333.83 234.192L1333 232.65L1332.59 234.522L1316.71 236.005C1316.71 236.005 1323.82 232.066 1323.93 225.007L1322.58 226.348L1316.15 222.947Z" fill="#2F2E41"/>
<path d="M1333.76 220.563C1335.97 220.563 1337.75 218.889 1337.75 216.824C1337.75 214.759 1335.97 213.085 1333.76 213.085C1331.55 213.085 1329.76 214.759 1329.76 216.824C1329.76 218.889 1331.55 220.563 1333.76 220.563Z" fill="#2F2E41"/>
<path d="M1329.64 215.909C1329.71 214.96 1330.16 214.071 1330.9 213.421C1331.64 212.772 1332.62 212.412 1333.64 212.414C1333.55 212.404 1333.47 212.393 1333.39 212.387C1332.86 212.356 1332.34 212.421 1331.84 212.58C1331.35 212.738 1330.89 212.986 1330.49 213.311C1330.1 213.635 1329.78 214.029 1329.55 214.469C1329.31 214.91 1329.18 215.389 1329.14 215.879C1329.11 216.369 1329.18 216.86 1329.35 217.325C1329.52 217.79 1329.78 218.219 1330.13 218.588C1330.48 218.956 1330.9 219.258 1331.37 219.474C1331.84 219.691 1332.35 219.819 1332.87 219.85C1332.96 219.855 1333.04 219.853 1333.12 219.853C1332.12 219.734 1331.2 219.259 1330.55 218.526C1329.9 217.794 1329.58 216.858 1329.64 215.909V215.909Z" fill="#2F2E41"/>
<path d="M1352.99 349.085C1350.9 356.523 1276.14 354.606 1276.3 347.792C1278.4 340.354 1353.16 342.271 1352.99 349.085Z" fill="#585591" fill-opacity="0.5"/>
<path d="M281 350.456C279.088 358.699 210.772 356.574 210.924 349.022C212.835 340.779 281.152 342.904 281 350.456Z" fill="#585591" fill-opacity="0.5"/>
<path d="M246.884 346.161L242.32 346.161L240.148 328.038L246.885 328.038L246.884 346.161Z" fill="#FFB8B8"/>
<path d="M248.048 350.716L233.331 350.715V350.524C233.331 349.749 233.479 348.982 233.767 348.267C234.055 347.551 234.476 346.901 235.008 346.354C235.54 345.806 236.172 345.372 236.867 345.076C237.562 344.779 238.307 344.627 239.059 344.627H239.06L248.049 344.627L248.048 350.716Z" fill="#2F2E41"/>
<path d="M260.287 346.161L255.723 346.161L253.551 328.038L260.288 328.038L260.287 346.161Z" fill="#FFB8B8"/>
<path d="M261.452 350.716L246.734 350.715V350.524C246.734 349.749 246.882 348.982 247.17 348.267C247.458 347.551 247.88 346.901 248.412 346.354C248.944 345.806 249.575 345.372 250.27 345.076C250.965 344.779 251.71 344.627 252.462 344.627H252.463L261.452 344.627L261.452 350.716Z" fill="#2F2E41"/>
<path d="M263.351 272.918L262.261 339.487C262.257 339.698 262.212 339.906 262.127 340.098C262.042 340.29 261.919 340.461 261.767 340.602C261.614 340.743 261.435 340.85 261.241 340.916C261.047 340.983 260.841 341.007 260.637 340.988L255.296 340.488C254.945 340.455 254.618 340.296 254.371 340.038C254.123 339.781 253.973 339.441 253.946 339.08L250.819 297.556C250.811 297.459 250.768 297.368 250.698 297.302C250.627 297.236 250.535 297.201 250.44 297.203C250.345 297.205 250.254 297.244 250.187 297.313C250.119 297.381 250.079 297.474 250.076 297.571L248.513 340.046C248.498 340.442 248.335 340.817 248.057 341.092C247.78 341.367 247.41 341.521 247.024 341.521H241.296C240.917 341.521 240.552 341.372 240.276 341.104C239.999 340.837 239.833 340.471 239.81 340.081L235.8 272.535L259.628 266.403L263.351 272.918Z" fill="#2F2E41"/>
<path d="M246.068 213.86C251.118 213.86 255.212 209.646 255.212 204.447C255.212 199.249 251.118 195.034 246.068 195.034C241.017 195.034 236.923 199.249 236.923 204.447C236.923 209.646 241.017 213.86 246.068 213.86Z" fill="#FFB8B8"/>
<path d="M234.984 274.515C234.825 274.358 234.699 274.17 234.612 273.961C234.524 273.753 234.478 273.529 234.476 273.302L233.859 227.909C233.822 225.6 234.497 223.338 235.787 221.448C237.076 219.559 238.915 218.139 241.038 217.392C241.895 213.391 246.454 212.89 249.112 212.95C249.776 212.964 250.426 213.144 251.008 213.472C251.59 213.8 252.086 214.269 252.455 214.836L254.36 217.779L258.56 220.313C260.504 221.481 262.037 223.254 262.938 225.376C263.839 227.499 264.063 229.862 263.575 232.123L262.929 235.151C260.652 245.866 260.868 256.984 263.561 267.597L264.862 272.704C264.93 272.97 264.935 273.248 264.876 273.517C264.818 273.785 264.699 274.035 264.527 274.246C264.356 274.457 264.139 274.623 263.892 274.73C263.646 274.837 263.379 274.882 263.113 274.861L261.602 274.741C261.209 274.71 260.84 274.538 260.559 274.255C260.277 273.972 260.102 273.596 260.063 273.193L259.813 270.619C259.808 270.572 259.787 270.528 259.753 270.496C259.718 270.464 259.674 270.446 259.628 270.446C259.582 270.446 259.537 270.464 259.503 270.496C259.469 270.528 259.447 270.572 259.442 270.619L259.2 273.111C259.16 273.532 258.97 273.923 258.667 274.209C258.364 274.496 257.97 274.658 257.559 274.664L236.177 275.003C236.168 275.003 236.159 275.003 236.15 275.003C235.714 275.004 235.296 274.829 234.984 274.515Z" fill="#3F3D56"/>
<path d="M246.783 209.873C246.82 211.204 247.718 211.974 248.82 212.671C249.921 213.368 251.209 213.67 252.471 213.961C252.641 214.054 252.831 214.1 253.022 214.095C253.214 214.09 253.402 214.035 253.566 213.934C253.731 213.833 253.868 213.689 253.963 213.518C254.059 213.347 254.11 213.153 254.111 212.955L255.269 208.424C255.678 206.977 255.976 205.498 256.16 204.003C256.438 201.125 255.776 198.029 253.824 195.948C251.873 193.867 248.489 193.128 246.15 194.731C243.375 191.083 230.691 199.144 233.82 201.681C234.376 202.132 235.227 201.561 235.934 201.506C236.64 201.45 237.432 201.578 237.881 202.143C238.467 202.88 238.212 203.979 238.454 204.899C238.554 205.222 238.715 205.522 238.928 205.782C239.141 206.041 239.402 206.254 239.696 206.409C239.989 206.564 240.31 206.657 240.639 206.684C240.968 206.711 241.299 206.671 241.612 206.565C242.196 206.269 242.746 205.905 243.25 205.481C243.792 205.109 244.477 204.835 245.087 205.069C245.891 205.378 246.177 206.392 246.25 207.272C246.372 208.15 246.55 209.019 246.783 209.873Z" fill="#2F2E41"/>
<path opacity="0.2" d="M244.647 231.652L243.158 250.431L235.34 269.977L246.881 250.815L244.647 231.652Z" fill="black"/>
<path d="M233.511 277.256C233.938 276.903 234.284 276.459 234.526 275.953C234.768 275.448 234.899 274.894 234.91 274.33C234.922 273.767 234.813 273.208 234.591 272.693C234.37 272.178 234.042 271.718 233.629 271.348L238.61 258.648L231.834 260.057L228.143 271.901C227.584 272.655 227.313 273.594 227.382 274.54C227.451 275.486 227.854 276.373 228.516 277.033C229.178 277.693 230.052 278.081 230.973 278.122C231.893 278.163 232.796 277.855 233.511 277.256V277.256Z" fill="#FFB8B8"/>
<path d="M233.149 271.655L229.312 270.232C228.917 270.083 228.59 269.787 228.397 269.403C228.203 269.019 228.155 268.573 228.264 268.155L234.593 244.309L235.557 222.758C235.587 222.107 235.741 221.469 236.012 220.881C236.283 220.292 236.664 219.765 237.135 219.33C237.605 218.894 238.155 218.56 238.752 218.345C239.35 218.131 239.982 218.04 240.614 218.08C241.245 218.119 241.863 218.287 242.43 218.575C242.998 218.862 243.505 219.263 243.921 219.753C244.337 220.244 244.654 220.815 244.853 221.433C245.053 222.05 245.132 222.703 245.084 223.352L243.361 246.951L235.298 270.604C235.175 270.962 234.942 271.268 234.634 271.476C234.327 271.683 233.961 271.781 233.594 271.754C233.442 271.742 233.292 271.709 233.149 271.655V271.655Z" fill="#3F3D56"/>
<path d="M272.683 278.502C272.944 278.007 273.098 277.459 273.132 276.897C273.165 276.334 273.079 275.771 272.879 275.247C272.678 274.723 272.369 274.25 271.972 273.862C271.574 273.475 271.1 273.181 270.58 273.003L270.424 259.308L264.697 263.296L265.724 275.689C265.491 276.607 265.592 277.581 266.01 278.426C266.428 279.272 267.132 279.93 267.99 280.277C268.847 280.624 269.799 280.635 270.664 280.307C271.529 279.98 272.247 279.338 272.683 278.502L272.683 278.502Z" fill="#FFB8B8"/>
<path d="M270.252 273.477L266.179 273.685C265.759 273.705 265.346 273.561 265.023 273.283C264.701 273.006 264.49 272.613 264.434 272.184L261.349 247.669L254.173 227.399C253.956 226.787 253.86 226.137 253.89 225.487C253.919 224.836 254.074 224.199 254.346 223.61C254.617 223.022 254.999 222.495 255.47 222.06C255.941 221.625 256.491 221.291 257.088 221.077C257.686 220.863 258.319 220.773 258.95 220.813C259.581 220.853 260.199 221.022 260.766 221.31C261.334 221.598 261.84 221.999 262.255 222.489C262.671 222.98 262.988 223.551 263.187 224.17L270.429 246.629L271.841 271.655C271.862 272.033 271.762 272.408 271.556 272.722C271.349 273.036 271.048 273.271 270.7 273.391C270.555 273.441 270.404 273.469 270.252 273.477V273.477Z" fill="#3F3D56"/>
<path d="M243.244 212.081L243.007 214.353C241.243 213.951 238.97 211.933 237.313 209.699L237.891 207.798C239.356 210.213 241.196 211.297 243.244 212.081Z" fill="#F2F2F2"/>
<path d="M240.788 206.523L237.992 208.206C237.968 208.221 237.934 208.217 237.898 208.194C237.862 208.172 237.827 208.133 237.802 208.086C237.776 208.04 237.761 207.989 237.76 207.946C237.759 207.902 237.773 207.869 237.797 207.854L240.593 206.172C240.618 206.157 240.652 206.161 240.688 206.184C240.723 206.206 240.758 206.245 240.784 206.291C240.81 206.338 240.825 206.389 240.825 206.432C240.826 206.476 240.813 206.509 240.788 206.523V206.523Z" fill="#F2F2F2"/>
<path d="M243.151 212.137C243.136 212.146 243.117 212.148 243.096 212.143C243.075 212.137 243.053 212.125 243.031 212.106C243.01 212.087 242.989 212.063 242.972 212.036C242.954 212.008 242.94 211.978 242.931 211.948L241.729 207.981C241.721 207.957 241.717 207.933 241.716 207.912C241.716 207.89 241.719 207.87 241.725 207.854C241.731 207.839 241.74 207.826 241.752 207.819C241.764 207.811 241.779 207.808 241.795 207.81C241.811 207.811 241.829 207.818 241.846 207.829C241.864 207.84 241.882 207.855 241.898 207.873C241.915 207.892 241.93 207.913 241.943 207.936C241.956 207.959 241.966 207.983 241.974 208.008L243.176 211.974C243.188 212.011 243.191 212.046 243.187 212.075C243.182 212.104 243.17 212.126 243.151 212.137V212.137Z" fill="#F2F2F2"/>
</svg>
