<svg width="353" height="158" viewBox="0 0 353 158" fill="none" xmlns="http://www.w3.org/2000/svg">
<rect width="353" height="158" fill="white"/>
<g opacity="0.9">
<rect width="353" height="135" fill="#E37EF3"/>
<path opacity="0.1" d="M96.7108 8H68.0225C66.8466 8 65.8933 9.15735 65.8933 10.585V20.415C65.8933 21.8426 66.8466 23 68.0225 23H96.7108C97.8867 23 98.84 21.8426 98.84 20.415V10.585C98.84 9.15735 97.8867 8 96.7108 8Z" fill="#1E0728"/>
<path opacity="0.1" d="M302.863 89H274.175C272.999 89 272.045 90.1574 272.045 91.585V101.415C272.045 102.843 272.999 104 274.175 104H302.863C304.039 104 304.992 102.843 304.992 101.415V91.585C304.992 90.1574 304.039 89 302.863 89Z" fill="#1E0728"/>
<path opacity="0.1" d="M330.161 68H301.473C300.297 68 299.344 69.1574 299.344 70.585V80.415C299.344 81.8426 300.297 83 301.473 83H330.161C331.337 83 332.291 81.8426 332.291 80.415V70.585C332.291 69.1574 331.337 68 330.161 68Z" fill="#1E0728"/>
<path opacity="0.1" d="M330.161 110H301.473C300.297 110 299.344 111.157 299.344 112.585V122.415C299.344 123.843 300.297 125 301.473 125H330.161C331.337 125 332.291 123.843 332.291 122.415V112.585C332.291 111.157 331.337 110 330.161 110Z" fill="#1E0728"/>
<path opacity="0.1" d="M151.308 97H122.62C121.444 97 120.491 98.1574 120.491 99.585V109.415C120.491 110.843 121.444 112 122.62 112H151.308C152.484 112 153.437 110.843 153.437 109.415V99.585C153.437 98.1574 152.484 97 151.308 97Z" fill="#1E0728"/>
</g>
<path d="M135.958 34.0778H10.2943V121.957H135.958V34.0778Z" fill="#E6E6E6"/>
<path d="M132.364 45.1H13.8868V116.758H132.364V45.1Z" fill="white"/>
<path d="M135.904 34H10.24V39.8294H135.904V34Z" fill="#5A0157"/>
<path d="M14.2073 38.0607C14.7537 38.0607 15.1967 37.577 15.1967 36.9803C15.1967 36.3836 14.7537 35.8999 14.2073 35.8999C13.6608 35.8999 13.2178 36.3836 13.2178 36.9803C13.2178 37.577 13.6608 38.0607 14.2073 38.0607Z" fill="white"/>
<path d="M17.9629 38.0607C18.5094 38.0607 18.9524 37.577 18.9524 36.9803C18.9524 36.3836 18.5094 35.8999 17.9629 35.8999C17.4165 35.8999 16.9734 36.3836 16.9734 36.9803C16.9734 37.577 17.4165 38.0607 17.9629 38.0607Z" fill="white"/>
<path d="M21.719 38.0607C22.2654 38.0607 22.7085 37.577 22.7085 36.9803C22.7085 36.3836 22.2654 35.8999 21.719 35.8999C21.1725 35.8999 20.7295 36.3836 20.7295 36.9803C20.7295 37.577 21.1725 38.0607 21.719 38.0607Z" fill="white"/>
<path d="M51.6367 50.9938H28.4643V78.4447H51.6367V50.9938Z" fill="#E6E6E6"/>
<path d="M36.1561 55C36.1561 55 32.8442 57.3701 33.0057 58.3264C33.1673 59.2827 35.2675 74.8753 35.2675 74.8753L40.1951 75L38.741 63.7734L39.9527 60.7381L42.9416 74.8753L49 74.9584L43.5878 56.6216L42.5377 55L36.1561 55Z" fill="#877489"/>
<path d="M84.7116 50.9938H61.5392V78.4447H84.7116V50.9938Z" fill="#E6E6E6"/>
<path d="M117.787 50.9938H94.6143V78.4447H117.787V50.9938Z" fill="#E6E6E6"/>
<path d="M51.6367 83.4135H28.4643V110.864H51.6367V83.4135Z" fill="#E6E6E6"/>
<path d="M84.7116 83.4135H61.5392V110.864H84.7116V83.4135Z" fill="#E6E6E6"/>
<path d="M117.787 83.4135H94.6143V110.864H117.787V83.4135Z" fill="#E6E6E6"/>
<path d="M67.14 90.4685L71.3738 88.6408L71.8661 97.7794C71.8661 97.7794 72.7523 100.575 72.4569 101.65C72.4569 101.65 72.6538 103.478 72.1615 103.585C71.6692 103.693 70.2907 103.908 70.1923 103.8C70.0938 103.693 70.0938 103.37 70.0938 103.37C70.0938 103.37 69.1092 104.123 69.0107 104.983C69.0107 104.983 64.8753 106.38 64.7769 105.09C64.6784 103.8 66.8446 102.725 66.8446 102.725L68.5184 99.9296L67.14 90.4685Z" fill="white"/>
<path d="M76.1 90.4685L80.3339 88.6408L80.8262 97.7794C80.8262 97.7794 81.7124 100.575 81.417 101.65C81.417 101.65 81.6139 103.478 81.1216 103.585C80.6293 103.693 79.2508 103.908 79.1524 103.8C79.0539 103.693 79.0539 103.37 79.0539 103.37C79.0539 103.37 78.0693 104.123 77.9708 104.983C77.9708 104.983 73.8354 106.38 73.737 105.09C73.6385 103.8 75.8047 102.725 75.8047 102.725L77.4785 99.9296L76.1 90.4685Z" fill="white"/>
<path d="M76.5142 55.1784C76.5142 55.1784 75.6127 57.9289 76.6572 59.1693L75.7865 62.4368C75.7865 62.4368 78.8805 72.572 77.9965 73.9877C77.9965 73.9877 74.6962 75.7895 68.0956 73.3442L70.7771 61.9863L70.394 57.1922L70.9244 54.9399L72.1031 54.8112C72.1031 54.8112 71.3959 57.707 72.6925 58.1574C73.989 58.6079 75.2539 54.8835 75.2539 54.8835L76.5142 55.1784Z" fill="#612156"/>
<path d="M103.93 54.7746C103.93 54.7746 102.377 57.1315 102.453 58.0825C102.528 59.0336 103.513 74.5398 103.513 74.5398L105.823 74.6638L105.141 63.4994L105.709 60.4809L107.111 74.5398L109.951 74.6225L107.413 56.3872L106.921 54.7746L103.93 54.7746Z" fill="white"/>
<path d="M46.5195 92.117C46.1072 91.5768 45.3986 91.2847 44.718 91.1269C44.7385 91.0593 42.6484 90.588 42.6134 90.6851L41.8257 90L39.4059 91.3721L38.046 90.3613L37.4143 90.6061C37.44 90.4845 35.4532 90.8601 35.4532 90.8601C35.0737 90.875 34.589 90.9009 34.0464 90.9465C32.1462 91.1061 32 96.4795 32 96.4795C32.8743 96.089 33.8065 95.8759 34.7508 95.8506L35.2644 102.278C37.906 102.031 40.6765 102.319 43.5473 103.023L44.8939 97.9707L48.0299 96.6391C48.0299 96.6391 47.4939 93.3938 46.5195 92.117Z" fill="#A53499"/>
<path d="M110.963 90.7443C110.624 90.2992 110.04 90.0586 109.479 89.9285C109.496 89.8729 107.774 89.4845 107.745 89.5645L107.096 89L105.102 90.1306L103.982 89.2977L103.461 89.4994C103.482 89.3992 101.845 89.7087 101.845 89.7087C101.533 89.721 101.133 89.7423 100.686 89.7799C99.1204 89.9114 99 94.3389 99 94.3389C99.7204 94.0171 100.488 93.8415 101.267 93.8207L101.69 106.785C103.866 106.581 106.149 106.818 108.515 107.399L109.624 95.5676L112.208 94.4704C112.208 94.4704 111.766 91.7964 110.963 90.7443Z" fill="#BA63FF"/>
<path d="M152 147.865C150.854 152.383 109.909 151.218 110 147.079C111.146 142.561 152.091 143.726 152 147.865Z" fill="#585591" fill-opacity="0.5"/>
<path d="M131.553 145.511L128.817 145.511L127.516 135.577L131.553 135.577L131.553 145.511Z" fill="#FFB8B8"/>
<path d="M132.25 148.007L123.429 148.007V147.902C123.429 147.478 123.518 147.057 123.691 146.665C123.863 146.273 124.116 145.917 124.435 145.617C124.754 145.316 125.132 145.078 125.549 144.916C125.965 144.754 126.412 144.67 126.863 144.67H126.863L132.251 144.67L132.25 148.007Z" fill="#2F2E41"/>
<path d="M139.586 145.511L136.85 145.511L135.549 135.577L139.586 135.577L139.586 145.511Z" fill="#FFB8B8"/>
<path d="M140.284 148.007L131.463 148.007V147.902C131.463 147.478 131.551 147.057 131.724 146.665C131.897 146.273 132.149 145.917 132.468 145.617C132.787 145.316 133.166 145.078 133.582 144.916C133.999 144.754 134.445 144.67 134.896 144.67H134.896L140.284 144.67L140.284 148.007Z" fill="#2F2E41"/>
<path d="M141.422 105.366L140.769 141.853C140.767 141.969 140.739 142.082 140.688 142.188C140.637 142.293 140.564 142.387 140.473 142.464C140.381 142.541 140.274 142.6 140.157 142.636C140.041 142.673 139.918 142.686 139.795 142.676L136.594 142.402C136.384 142.384 136.188 142.296 136.04 142.155C135.892 142.014 135.801 141.828 135.785 141.63L133.911 118.87C133.906 118.817 133.881 118.767 133.838 118.731C133.796 118.695 133.741 118.675 133.684 118.677C133.627 118.678 133.573 118.699 133.532 118.737C133.491 118.774 133.468 118.825 133.465 118.879L132.529 142.159C132.52 142.376 132.422 142.582 132.256 142.733C132.09 142.883 131.868 142.968 131.637 142.968H128.204C127.976 142.968 127.757 142.886 127.592 142.739C127.426 142.593 127.326 142.392 127.313 142.179L124.909 105.156L139.19 101.795L141.422 105.366Z" fill="#2F2E41"/>
<path d="M131.063 72.996C134.09 72.996 136.544 70.686 136.544 67.8366C136.544 64.9871 134.09 62.6772 131.063 62.6772C128.036 62.6772 125.583 64.9871 125.583 67.8366C125.583 70.686 128.036 72.996 131.063 72.996Z" fill="#FFB8B8"/>
<path d="M124.42 106.241C124.325 106.155 124.25 106.052 124.197 105.938C124.145 105.824 124.117 105.701 124.116 105.577L123.746 80.6961C123.724 79.4304 124.128 78.1907 124.901 77.155C125.674 76.1193 126.776 75.3409 128.049 74.9316C128.562 72.7387 131.295 72.464 132.888 72.4968C133.286 72.5049 133.676 72.6031 134.024 72.7831C134.373 72.9631 134.67 73.2196 134.891 73.5309L136.033 75.1435L138.551 76.5325C139.716 77.1726 140.634 78.1445 141.175 79.3079C141.715 80.4714 141.849 81.7663 141.556 83.006L141.169 84.6653C139.804 90.5386 139.934 96.6324 141.548 102.449L142.328 105.248C142.368 105.394 142.371 105.547 142.336 105.694C142.301 105.841 142.23 105.978 142.127 106.094C142.025 106.21 141.894 106.301 141.747 106.359C141.599 106.418 141.439 106.442 141.279 106.431L140.374 106.365C140.138 106.348 139.917 106.254 139.749 106.099C139.58 105.944 139.475 105.738 139.451 105.517L139.302 104.106C139.299 104.08 139.286 104.056 139.265 104.038C139.245 104.021 139.218 104.011 139.191 104.011C139.163 104.011 139.136 104.021 139.116 104.038C139.095 104.056 139.082 104.08 139.08 104.106L138.934 105.472C138.91 105.703 138.796 105.917 138.615 106.074C138.433 106.231 138.197 106.319 137.951 106.323L125.135 106.509C125.13 106.509 125.125 106.509 125.119 106.509C124.858 106.509 124.607 106.413 124.42 106.241Z" fill="#3F3D56"/>
<path d="M131.492 70.8105C131.514 71.5399 132.052 71.9618 132.713 72.3439C133.373 72.7259 134.145 72.8915 134.901 73.0513C135.003 73.1021 135.117 73.1274 135.232 73.1247C135.347 73.1221 135.459 73.0915 135.558 73.0361C135.656 72.9807 135.738 72.9023 135.796 72.8084C135.853 72.7144 135.883 72.6082 135.884 72.5L136.578 70.0163C136.823 69.223 137.002 68.4126 137.112 67.5928C137.279 66.0154 136.882 64.3185 135.712 63.178C134.543 62.0375 132.514 61.6324 131.113 62.5111C129.45 60.5114 121.847 64.9296 123.723 66.3202C124.056 66.5676 124.566 66.2545 124.99 66.2242C125.413 66.1939 125.888 66.264 126.157 66.5734C126.508 66.9776 126.355 67.5797 126.5 68.0839C126.56 68.2613 126.656 68.4258 126.784 68.5679C126.912 68.71 127.068 68.8269 127.244 68.9118C127.42 68.9967 127.612 69.048 127.81 69.0627C128.007 69.0774 128.205 69.0552 128.393 68.9973C128.743 68.8349 129.073 68.6356 129.375 68.4032C129.7 68.1995 130.11 68.049 130.476 68.1774C130.958 68.3468 131.129 68.9023 131.173 69.3848C131.246 69.8661 131.353 70.3423 131.492 70.8105Z" fill="#2F2E41"/>
<path opacity="0.2" d="M130.212 82.7476L129.32 93.0408L124.634 103.754L131.551 93.2508L130.212 82.7476Z" fill="black"/>
<path d="M123.538 107.744C123.794 107.55 124.001 107.307 124.146 107.029C124.291 106.752 124.37 106.449 124.376 106.14C124.383 105.831 124.318 105.525 124.185 105.242C124.053 104.96 123.856 104.708 123.609 104.505L126.594 97.5446L122.532 98.3168L120.32 104.808C119.985 105.222 119.823 105.736 119.864 106.255C119.905 106.773 120.147 107.26 120.544 107.621C120.941 107.983 121.464 108.196 122.016 108.218C122.568 108.241 123.109 108.072 123.538 107.744V107.744Z" fill="#FFB8B8"/>
<path d="M123.32 104.674L121.021 103.894C120.784 103.812 120.588 103.65 120.472 103.439C120.356 103.229 120.328 102.985 120.393 102.755L124.186 89.6851L124.764 77.8727C124.781 77.5162 124.874 77.1664 125.036 76.8439C125.199 76.5213 125.427 76.2323 125.709 75.9937C125.991 75.7551 126.321 75.5717 126.679 75.4541C127.037 75.3365 127.416 75.287 127.795 75.3086C128.173 75.3302 128.543 75.4225 128.883 75.5799C129.224 75.7374 129.527 75.9569 129.777 76.2258C130.026 76.4948 130.216 76.8076 130.336 77.1463C130.455 77.485 130.502 77.8427 130.474 78.1986L129.441 91.1329L124.608 104.098C124.535 104.294 124.395 104.461 124.211 104.575C124.026 104.689 123.807 104.743 123.587 104.728C123.496 104.721 123.406 104.703 123.32 104.674V104.674Z" fill="#3F3D56"/>
<path d="M147.015 108.426C147.172 108.155 147.264 107.855 147.284 107.547C147.304 107.238 147.253 106.93 147.133 106.642C147.012 106.355 146.827 106.096 146.589 105.883C146.351 105.671 146.066 105.51 145.755 105.412L145.661 97.9062L142.229 100.092L142.844 106.885C142.705 107.388 142.766 107.922 143.016 108.385C143.266 108.848 143.688 109.209 144.202 109.399C144.716 109.589 145.287 109.595 145.805 109.416C146.324 109.237 146.754 108.885 147.015 108.426L147.015 108.426Z" fill="#FFB8B8"/>
<path d="M145.558 105.672L143.117 105.786C142.865 105.797 142.618 105.718 142.424 105.566C142.231 105.414 142.105 105.199 142.071 104.964L140.222 91.5269L135.921 80.4167C135.792 80.0814 135.734 79.7251 135.752 79.3685C135.769 79.012 135.862 78.6624 136.025 78.3399C136.187 78.0175 136.416 77.7287 136.699 77.4904C136.981 77.252 137.31 77.0688 137.669 76.9515C138.027 76.8342 138.406 76.785 138.784 76.8069C139.163 76.8288 139.533 76.9213 139.873 77.079C140.213 77.2367 140.516 77.4565 140.765 77.7256C141.015 77.9947 141.204 78.3077 141.324 78.6465L145.664 90.9568L146.511 104.674C146.523 104.881 146.463 105.086 146.339 105.258C146.216 105.43 146.036 105.559 145.826 105.625C145.74 105.652 145.649 105.668 145.558 105.672V105.672Z" fill="#3F3D56"/>
<path d="M129.371 72.0205L129.229 73.2658C128.172 73.0455 126.809 71.9395 125.816 70.7149L126.163 69.6733C127.041 70.9966 128.143 71.5907 129.371 72.0205Z" fill="#F2F2F2"/>
<path d="M127.899 68.9745L126.223 69.8969C126.209 69.905 126.188 69.9027 126.167 69.8904C126.145 69.8781 126.125 69.8568 126.109 69.8312C126.094 69.8056 126.085 69.7779 126.084 69.754C126.084 69.7302 126.092 69.7122 126.107 69.7041L127.782 68.7817C127.797 68.7736 127.817 68.7759 127.839 68.7882C127.86 68.8005 127.881 68.8218 127.897 68.8474C127.912 68.8729 127.921 68.9007 127.921 68.9245C127.922 68.9484 127.914 68.9664 127.899 68.9745V68.9745Z" fill="#F2F2F2"/>
<path d="M129.315 72.0512C129.306 72.0563 129.295 72.0574 129.282 72.0544C129.27 72.0515 129.257 72.0446 129.244 72.0344C129.23 72.0241 129.218 72.0109 129.208 71.9957C129.197 71.9806 129.189 71.9641 129.184 71.9476L128.463 69.7735C128.458 69.7602 128.456 69.7472 128.455 69.7353C128.455 69.7234 128.457 69.7128 128.46 69.7041C128.464 69.6953 128.47 69.6887 128.477 69.6845C128.484 69.6803 128.493 69.6786 128.503 69.6795C128.512 69.6805 128.523 69.6841 128.533 69.69C128.544 69.696 128.555 69.7043 128.565 69.7143C128.574 69.7244 128.584 69.7361 128.591 69.7487C128.599 69.7614 128.605 69.7747 128.61 69.788L129.331 71.9621C129.337 71.9823 129.339 72.0015 129.337 72.0174C129.334 72.0333 129.327 72.0451 129.315 72.0512V72.0512Z" fill="#F2F2F2"/>
</svg>
