<svg width="353" height="158" viewBox="0 0 353 158" fill="none" xmlns="http://www.w3.org/2000/svg">
<rect width="353" height="158" fill="white"/>
<g opacity="0.9">
<rect width="353" height="135" fill="#CCB3EB"/>
<path opacity="0.1" d="M96.7108 8H68.0225C66.8466 8 65.8933 9.15735 65.8933 10.585V20.415C65.8933 21.8426 66.8466 23 68.0225 23H96.7108C97.8867 23 98.84 21.8426 98.84 20.415V10.585C98.84 9.15735 97.8867 8 96.7108 8Z" fill="#1E0728"/>
<path opacity="0.1" d="M302.863 89H274.175C272.999 89 272.045 90.1574 272.045 91.585V101.415C272.045 102.843 272.999 104 274.175 104H302.863C304.039 104 304.992 102.843 304.992 101.415V91.585C304.992 90.1574 304.039 89 302.863 89Z" fill="#1E0728"/>
<path opacity="0.1" d="M330.161 68H301.473C300.297 68 299.344 69.1574 299.344 70.585V80.415C299.344 81.8426 300.297 83 301.473 83H330.161C331.337 83 332.291 81.8426 332.291 80.415V70.585C332.291 69.1574 331.337 68 330.161 68Z" fill="#1E0728"/>
<path opacity="0.1" d="M330.161 110H301.473C300.297 110 299.344 111.157 299.344 112.585V122.415C299.344 123.843 300.297 125 301.473 125H330.161C331.337 125 332.291 123.843 332.291 122.415V112.585C332.291 111.157 331.337 110 330.161 110Z" fill="#1E0728"/>
<path opacity="0.1" d="M151.308 97H122.62C121.444 97 120.491 98.1574 120.491 99.585V109.415C120.491 110.843 121.444 112 122.62 112H151.308C152.484 112 153.437 110.843 153.437 109.415V99.585C153.437 98.1574 152.484 97 151.308 97Z" fill="#1E0728"/>
</g>
<path d="M29.68 88H4V137.69H29.68V88Z" fill="#969696"/>
<path d="M26.9038 94.2112H6.77625L6.77625 134.867H26.9038L26.9038 94.2112Z" fill="white"/>
<path d="M29.68 88H4V91.388H29.68V88Z" fill="#3F3D56"/>
<path d="M6.75353 90.2929C7.13281 90.2929 7.44028 90.0198 7.44028 89.6829C7.44028 89.3459 7.13281 89.0728 6.75353 89.0728C6.37424 89.0728 6.06677 89.3459 6.06677 89.6829C6.06677 90.0198 6.37424 90.2929 6.75353 90.2929Z" fill="white"/>
<path d="M9.36015 90.2929C9.73944 90.2929 10.0469 90.0198 10.0469 89.6829C10.0469 89.3459 9.73944 89.0728 9.36015 89.0728C8.98087 89.0728 8.6734 89.3459 8.6734 89.6829C8.6734 90.0198 8.98087 90.2929 9.36015 90.2929Z" fill="white"/>
<path d="M11.9671 90.2929C12.3464 90.2929 12.6538 90.0198 12.6538 89.6829C12.6538 89.3459 12.3464 89.0728 11.9671 89.0728C11.5878 89.0728 11.2803 89.3459 11.2803 89.6829C11.2803 90.0198 11.5878 90.2929 11.9671 90.2929Z" fill="white"/>
<path d="M25.097 97.5957H9.0141L9.0141 113.096H25.097V97.5957Z" fill="#E0CCCC"/>
<path d="M25.097 115.902H9.01404L9.01404 131.402H25.097V115.902Z" fill="#E0CCCC"/>
<path d="M20.2953 101.147C20.0708 100.869 19.6849 100.719 19.3142 100.638C19.3253 100.603 18.187 100.361 18.168 100.411L17.739 100.058L16.4211 100.764L15.6805 100.244L15.3364 100.37C15.3504 100.308 14.2684 100.501 14.2684 100.501C14.0617 100.508 13.7977 100.522 13.5022 100.545C12.4673 100.627 12.3877 103.392 12.3877 103.392C12.8639 103.191 13.3716 103.081 13.8859 103.068L14.1656 111.162C15.6043 111.035 17.1131 111.183 18.6766 111.546L19.41 104.159L21.1179 103.474C21.1179 103.474 20.826 101.804 20.2953 101.147Z" fill="#6C2D76"/>
<path d="M15.7071 118.55L19.3685 117.167L19.7943 124.078C19.7943 124.078 20.5606 126.192 20.3052 127.005C20.3052 127.005 20.4755 128.387 20.0497 128.469C19.624 128.55 18.4319 128.713 18.3467 128.631C18.2616 128.55 18.2616 128.306 18.2616 128.306C18.2616 128.306 17.4101 128.875 17.325 129.526C17.325 129.526 13.7487 130.583 13.6636 129.607C13.5784 128.631 15.4517 127.818 15.4517 127.818L16.8992 125.704L15.7071 118.55Z" fill="#705F5F"/>
<path d="M50 85L25.8679 93.7834L42.8626 140.476L66.9947 131.693L50 85Z" fill="#E6E6E6"/>
<path d="M49.5155 91.7862L30.6012 98.6704L44.506 136.873L63.4203 129.989L49.5155 91.7862Z" fill="white"/>
<path d="M50 85L25.8679 93.7834L27.0267 96.9669L51.1587 88.1836L50 85Z" fill="#3D2B3C"/>
<path d="M29.2397 94.9962C29.5961 94.8665 29.7916 94.5046 29.6764 94.188C29.5611 93.8714 29.1788 93.7199 28.8224 93.8496C28.4659 93.9794 28.2704 94.3412 28.3857 94.6578C28.5009 94.9744 28.8832 95.1259 29.2397 94.9962Z" fill="white"/>
<path d="M31.6892 94.1046C32.0456 93.9749 32.2411 93.6131 32.1259 93.2965C32.0107 92.9798 31.6283 92.8283 31.2719 92.9581C30.9155 93.0878 30.7199 93.4496 30.8352 93.7662C30.9504 94.0829 31.3328 94.2344 31.6892 94.1046Z" fill="white"/>
<path d="M34.139 93.213C34.4954 93.0833 34.6909 92.7214 34.5757 92.4048C34.4604 92.0882 34.0781 91.9367 33.7217 92.0664C33.3652 92.1962 33.1697 92.558 33.2849 92.8746C33.4002 93.1912 33.7825 93.3427 34.139 93.213Z" fill="white"/>
<path d="M48.9751 95.5844L33.8616 101.085L39.163 115.651L54.2765 110.15L48.9751 95.5844Z" fill="#E6E6E6"/>
<path d="M39.6521 101.385C39.6521 101.385 37.9497 103.429 38.2398 103.898C38.5298 104.367 42.9109 112.142 42.9109 112.142L46.1488 111.038L43.0324 105.427L43.2365 103.528L47.916 110.32L51.8835 108.926L44.8124 100.481L43.8143 99.8701L39.6521 101.385Z" fill="#877489"/>
<path d="M55.2361 112.786L40.1226 118.287L45.4239 132.852L60.5374 127.352L55.2361 112.786Z" fill="#E6E6E6"/>
<path d="M53.5793 118.619C53.2061 118.43 52.6875 118.444 52.2132 118.521C52.2135 118.481 50.7593 118.727 50.7552 118.787L50.1092 118.61L48.7959 119.912L47.7137 119.699L47.349 119.979C47.3422 119.908 46.119 120.579 46.119 120.579C45.8744 120.677 45.5632 120.806 45.2181 120.959C44.0096 121.495 44.952 124.381 44.952 124.381C45.4468 123.966 46.0136 123.631 46.6247 123.394L48.201 126.683C49.8761 125.924 51.7387 125.419 53.7471 125.111L53.6496 122.111L55.4378 120.66C55.4378 120.66 54.4615 119.065 53.5793 118.619Z" fill="#A53499"/>
</svg>
