<svg width="373" height="318" viewBox="0 0 373 318" fill="none" xmlns="http://www.w3.org/2000/svg">
<path d="M373 17.2223V56.8856H371.892V56.4629H1.10847V56.8856H0V17.2223C0.00475998 12.656 1.93324 8.27806 5.3622 5.04923C8.79116 1.8204 13.4405 0.00448216 18.2897 0H354.71C359.56 0.00448216 364.209 1.8204 367.638 5.04923C371.067 8.27806 372.995 12.656 373 17.2223Z" fill="#6C63FF"/>
<path d="M354.71 0H18.2897C13.4405 0.00546221 8.79116 2.21844 5.3622 6.15327C1.93324 10.0881 0.00475998 15.4233 0 20.988V297.012C0.00475998 302.577 1.93324 307.912 5.3622 311.847C8.79116 315.782 13.4405 317.995 18.2897 318H354.71C359.56 317.995 364.209 315.782 367.638 311.847C371.067 307.912 372.995 302.577 373 297.012V20.988C372.995 15.4233 371.067 10.0881 367.638 6.15327C364.209 2.21844 359.56 0.00546221 354.71 0V0ZM371.892 297.012C371.886 302.239 370.074 307.25 366.853 310.946C363.632 314.642 359.265 316.721 354.71 316.728H18.2897C13.7348 316.721 9.36802 314.642 6.14716 310.946C2.92631 307.25 1.11428 302.239 1.10847 297.012V20.988C1.11428 15.761 2.92631 10.7501 6.14716 7.05405C9.36802 3.35803 13.7348 1.27867 18.2897 1.272H354.71C359.265 1.27867 363.632 3.35803 366.853 7.05405C370.074 10.7501 371.886 15.761 371.892 20.988V297.012Z" fill="#3F3D56"/>
<path d="M75.376 41.2682C81.4979 41.2682 86.4606 36.3081 86.4606 30.1895C86.4606 24.0709 81.4979 19.1107 75.376 19.1107C69.254 19.1107 64.2913 24.0709 64.2913 30.1895C64.2913 36.3081 69.254 41.2682 75.376 41.2682Z" fill="white"/>
<path d="M297.624 41.2682C303.746 41.2682 308.709 36.3081 308.709 30.1895C308.709 24.0709 303.746 19.1107 297.624 19.1107C291.502 19.1107 286.539 24.0709 286.539 30.1895C286.539 36.3081 291.502 41.2682 297.624 41.2682Z" fill="white"/>
<path d="M108.402 137.836H42.4614C39.6679 137.833 36.9896 136.642 35.0143 134.525C33.0389 132.408 31.9278 129.537 31.9246 126.543V93.1412C31.9278 90.1472 33.0389 87.2768 35.0143 85.1597C36.9896 83.0426 39.6679 81.8517 42.4614 81.8484H108.402C111.196 81.8517 113.874 83.0426 115.849 85.1597C117.825 87.2768 118.936 90.1472 118.939 93.1412V126.543C118.936 129.537 117.825 132.408 115.849 134.525C113.874 136.642 111.196 137.833 108.402 137.836V137.836Z" fill="#6C63FF"/>
<path d="M220.578 137.836H154.638C151.844 137.833 149.166 136.642 147.191 134.525C145.215 132.408 144.104 129.537 144.101 126.543V93.1412C144.104 90.1472 145.215 87.2768 147.191 85.1597C149.166 83.0426 151.844 81.8517 154.638 81.8484H220.578C223.372 81.8517 226.05 83.0426 228.026 85.1597C230.001 87.2768 231.112 90.1472 231.115 93.1412V126.543C231.112 129.537 230.001 132.408 228.026 134.525C226.05 136.642 223.372 137.833 220.578 137.836V137.836Z" fill="#6C63FF"/>
<path d="M75.4318 129.006C85.307 129.006 93.3124 120.426 93.3124 109.842C93.3124 99.2585 85.307 90.6787 75.4318 90.6787C65.5566 90.6787 57.5511 99.2585 57.5511 109.842C57.5511 120.426 65.5566 129.006 75.4318 129.006Z" fill="white"/>
<path d="M73.6594 117.153C73.2571 117.154 72.8655 117.014 72.5436 116.755L72.5237 116.739L68.3216 113.291C68.1267 113.132 67.9631 112.932 67.8402 112.705C67.7172 112.477 67.6373 112.226 67.605 111.965C67.5726 111.705 67.5886 111.44 67.6518 111.186C67.7151 110.932 67.8245 110.694 67.9737 110.485C68.1229 110.276 68.309 110.101 68.5214 109.97C68.7338 109.838 68.9683 109.753 69.2115 109.718C69.4547 109.684 69.7019 109.701 69.9388 109.769C70.1758 109.837 70.3979 109.955 70.5925 110.115L73.3143 112.352L79.7463 103.362C79.8954 103.153 80.0815 102.978 80.2937 102.847C80.506 102.715 80.7404 102.63 80.9834 102.595C81.2265 102.561 81.4735 102.578 81.7103 102.646C81.9471 102.714 82.1692 102.831 82.3637 102.991L82.3237 103.049L82.3647 102.992C82.7572 103.315 83.014 103.792 83.0787 104.318C83.1435 104.844 83.011 105.376 82.7102 105.797L75.1447 116.372C74.9697 116.616 74.7447 116.813 74.4871 116.948C74.2295 117.084 73.9463 117.154 73.6594 117.153V117.153Z" fill="#6C63FF"/>
<path d="M187.927 128.731C197.803 128.731 205.808 120.151 205.808 109.567C205.808 98.9833 197.803 90.4035 187.927 90.4035C178.052 90.4035 170.047 98.9833 170.047 109.567C170.047 120.151 178.052 128.731 187.927 128.731Z" fill="white"/>
<path d="M186.155 116.877C185.753 116.878 185.361 116.739 185.039 116.48L185.019 116.464L180.817 113.016C180.424 112.693 180.167 112.217 180.102 111.69C180.037 111.164 180.17 110.632 180.471 110.211C180.772 109.79 181.217 109.514 181.708 109.444C182.199 109.375 182.695 109.517 183.088 109.84L185.81 112.076L192.242 103.086C192.391 102.878 192.577 102.703 192.789 102.571C193.002 102.44 193.236 102.355 193.479 102.32C193.722 102.286 193.969 102.303 194.206 102.371C194.443 102.439 194.665 102.556 194.859 102.716L194.819 102.774L194.86 102.717C195.253 103.04 195.51 103.517 195.574 104.043C195.639 104.569 195.507 105.101 195.206 105.522L187.64 116.097C187.465 116.34 187.24 116.538 186.983 116.673C186.725 116.808 186.442 116.878 186.155 116.877V116.877Z" fill="#6C63FF"/>
<path d="M331.478 137.988H265.537C262.743 137.984 260.065 136.794 258.09 134.676C256.114 132.559 255.003 129.689 255 126.695V93.2928C255.003 90.2988 256.114 87.4284 258.09 85.3113C260.065 83.1942 262.743 82.0034 265.537 82H331.478C334.271 82.0034 336.949 83.1942 338.925 85.3113C340.9 87.4284 342.011 90.2988 342.014 93.2928V126.695C342.011 129.689 340.9 132.559 338.925 134.676C336.949 136.794 334.271 137.984 331.478 137.988V137.988Z" fill="#6C63FF"/>
<path d="M298.826 128.882C308.702 128.882 316.707 120.302 316.707 109.719C316.707 99.1349 308.702 90.5551 298.826 90.5551C288.951 90.5551 280.946 99.1349 280.946 109.719C280.946 120.302 288.951 128.882 298.826 128.882Z" fill="white"/>
<path d="M297.054 117.029C296.652 117.03 296.26 116.891 295.938 116.632L295.918 116.616L291.716 113.168C291.323 112.845 291.066 112.368 291.001 111.842C290.936 111.316 291.069 110.784 291.37 110.363C291.671 109.941 292.116 109.666 292.607 109.596C293.098 109.526 293.594 109.669 293.987 109.991L296.709 112.228L303.141 103.238C303.29 103.029 303.476 102.854 303.688 102.723C303.901 102.592 304.135 102.506 304.378 102.472C304.621 102.437 304.868 102.455 305.105 102.523C305.342 102.591 305.564 102.708 305.758 102.868L305.718 102.926L305.759 102.869C306.152 103.192 306.409 103.669 306.473 104.195C306.538 104.721 306.406 105.252 306.105 105.674L298.539 116.248C298.364 116.492 298.139 116.689 297.882 116.825C297.624 116.96 297.341 117.03 297.054 117.029V117.029Z" fill="#6C63FF"/>
<path d="M108.402 213.836H42.4614C39.6679 213.833 36.9896 212.642 35.0143 210.525C33.0389 208.408 31.9278 205.537 31.9246 202.543V169.141C31.9278 166.147 33.0389 163.277 35.0143 161.16C36.9896 159.043 39.6679 157.852 42.4614 157.848H108.402C111.196 157.852 113.874 159.043 115.849 161.16C117.825 163.277 118.936 166.147 118.939 169.141V202.543C118.936 205.537 117.825 208.408 115.849 210.525C113.874 212.642 111.196 213.833 108.402 213.836V213.836Z" fill="#6C63FF"/>
<path d="M220.578 213.836H154.638C151.844 213.833 149.166 212.642 147.191 210.525C145.215 208.408 144.104 205.537 144.101 202.543V169.141C144.104 166.147 145.215 163.277 147.191 161.16C149.166 159.043 151.844 157.852 154.638 157.848H220.578C223.372 157.852 226.05 159.043 228.026 161.16C230.001 163.277 231.112 166.147 231.115 169.141V202.543C231.112 205.537 230.001 208.408 228.026 210.525C226.05 212.642 223.372 213.833 220.578 213.836V213.836Z" fill="#6C63FF"/>
<path d="M75.4318 205.006C85.307 205.006 93.3124 196.426 93.3124 185.842C93.3124 175.259 85.307 166.679 75.4318 166.679C65.5566 166.679 57.5511 175.259 57.5511 185.842C57.5511 196.426 65.5566 205.006 75.4318 205.006Z" fill="white"/>
<path d="M73.6594 193.153C73.2571 193.154 72.8655 193.014 72.5436 192.755L72.5237 192.739L68.3216 189.291C68.1267 189.132 67.9631 188.932 67.8402 188.705C67.7172 188.477 67.6373 188.226 67.605 187.965C67.5726 187.705 67.5886 187.44 67.6518 187.186C67.7151 186.932 67.8245 186.694 67.9737 186.485C68.1229 186.276 68.309 186.101 68.5214 185.97C68.7338 185.838 68.9683 185.753 69.2115 185.718C69.4547 185.684 69.7019 185.701 69.9388 185.769C70.1758 185.837 70.3979 185.955 70.5925 186.115L73.3143 188.352L79.7463 179.362C79.8954 179.153 80.0815 178.978 80.2937 178.847C80.506 178.715 80.7404 178.63 80.9834 178.595C81.2265 178.561 81.4735 178.578 81.7103 178.646C81.9471 178.714 82.1692 178.831 82.3637 178.991L82.3237 179.049L82.3647 178.992C82.7572 179.315 83.014 179.792 83.0787 180.318C83.1435 180.844 83.011 181.376 82.7102 181.797L75.1447 192.372C74.9697 192.616 74.7447 192.813 74.4871 192.948C74.2295 193.084 73.9463 193.154 73.6594 193.153V193.153Z" fill="#6C63FF"/>
<path d="M187.927 204.731C197.803 204.731 205.808 196.151 205.808 185.567C205.808 174.983 197.803 166.404 187.927 166.404C178.052 166.404 170.047 174.983 170.047 185.567C170.047 196.151 178.052 204.731 187.927 204.731Z" fill="white"/>
<path d="M186.155 192.877C185.753 192.878 185.361 192.739 185.039 192.48L185.019 192.464L180.817 189.016C180.424 188.693 180.167 188.217 180.102 187.69C180.037 187.164 180.17 186.632 180.471 186.211C180.772 185.79 181.217 185.514 181.708 185.444C182.199 185.375 182.695 185.517 183.088 185.84L185.81 188.076L192.242 179.086C192.391 178.878 192.577 178.703 192.789 178.571C193.002 178.44 193.236 178.355 193.479 178.32C193.722 178.286 193.969 178.303 194.206 178.371C194.443 178.439 194.665 178.556 194.859 178.716L194.819 178.774L194.86 178.717C195.253 179.04 195.51 179.517 195.574 180.043C195.639 180.569 195.507 181.101 195.206 181.522L187.64 192.097C187.465 192.34 187.24 192.538 186.983 192.673C186.725 192.808 186.442 192.878 186.155 192.877V192.877Z" fill="#6C63FF"/>
<path d="M220.578 291.836H154.638C151.844 291.833 149.166 290.642 147.191 288.525C145.215 286.408 144.104 283.537 144.101 280.543V247.141C144.104 244.147 145.215 241.277 147.191 239.16C149.166 237.043 151.844 235.852 154.638 235.848H220.578C223.372 235.852 226.05 237.043 228.026 239.16C230.001 241.277 231.112 244.147 231.115 247.141V280.543C231.112 283.537 230.001 286.408 228.026 288.525C226.05 290.642 223.372 291.833 220.578 291.836V291.836Z" fill="#6C63FF"/>
<path d="M187.927 282.731C197.803 282.731 205.808 274.151 205.808 263.567C205.808 252.983 197.803 244.404 187.927 244.404C178.052 244.404 170.047 252.983 170.047 263.567C170.047 274.151 178.052 282.731 187.927 282.731Z" fill="white"/>
<path d="M186.155 270.877C185.753 270.878 185.361 270.739 185.039 270.48L185.019 270.464L180.817 267.016C180.424 266.693 180.167 266.217 180.102 265.69C180.037 265.164 180.17 264.632 180.471 264.211C180.772 263.79 181.217 263.514 181.708 263.444C182.199 263.375 182.695 263.517 183.088 263.84L185.81 266.076L192.242 257.086C192.391 256.878 192.577 256.703 192.789 256.571C193.002 256.44 193.236 256.355 193.479 256.32C193.722 256.286 193.969 256.303 194.206 256.371C194.443 256.439 194.665 256.556 194.859 256.716L194.819 256.774L194.86 256.717C195.253 257.04 195.51 257.517 195.574 258.043C195.639 258.569 195.507 259.101 195.206 259.522L187.64 270.097C187.465 270.34 187.24 270.538 186.983 270.673C186.725 270.808 186.442 270.878 186.155 270.877V270.877Z" fill="#6C63FF"/>
<path d="M331.478 213.988H265.537C262.743 213.984 260.065 212.794 258.09 210.676C256.114 208.559 255.003 205.689 255 202.695V169.293C255.003 166.299 256.114 163.428 258.09 161.311C260.065 159.194 262.743 158.003 265.537 158H331.478C334.271 158.003 336.949 159.194 338.925 161.311C340.9 163.428 342.011 166.299 342.014 169.293V202.695C342.011 205.689 340.9 208.559 338.925 210.676C336.949 212.794 334.271 213.984 331.478 213.988V213.988Z" fill="#6C63FF"/>
<path d="M298.826 204.882C308.702 204.882 316.707 196.302 316.707 185.719C316.707 175.135 308.702 166.555 298.826 166.555C288.951 166.555 280.946 175.135 280.946 185.719C280.946 196.302 288.951 204.882 298.826 204.882Z" fill="white"/>
<path d="M297.054 193.029C296.652 193.03 296.26 192.891 295.938 192.632L295.918 192.616L291.716 189.168C291.323 188.845 291.066 188.368 291.001 187.842C290.936 187.316 291.069 186.784 291.37 186.363C291.671 185.941 292.116 185.666 292.607 185.596C293.098 185.526 293.594 185.669 293.987 185.991L296.709 188.228L303.141 179.238C303.29 179.029 303.476 178.854 303.688 178.723C303.901 178.592 304.135 178.506 304.378 178.472C304.621 178.437 304.868 178.455 305.105 178.523C305.342 178.591 305.564 178.708 305.758 178.868L305.718 178.926L305.759 178.869C306.152 179.192 306.409 179.669 306.473 180.195C306.538 180.721 306.406 181.252 306.105 181.674L298.539 192.248C298.364 192.492 298.139 192.689 297.882 192.825C297.624 192.96 297.341 193.03 297.054 193.029V193.029Z" fill="#6C63FF"/>
</svg>
