<svg width="373" height="318" viewBox="0 0 373 318" fill="none" xmlns="http://www.w3.org/2000/svg">
<path d="M373 17.2223V56.8856H371.892V56.4629H1.10847V56.8856H0V17.2223C0.00475998 12.656 1.93324 8.27806 5.3622 5.04923C8.79116 1.8204 13.4405 0.00448216 18.2897 0H354.71C359.56 0.00448216 364.209 1.8204 367.638 5.04923C371.067 8.27806 372.995 12.656 373 17.2223Z" fill="#A3A0CD"/>
<path d="M354.71 0H18.2897C13.4405 0.00546221 8.79116 2.21844 5.3622 6.15327C1.93324 10.0881 0.00475998 15.4233 0 20.988V297.012C0.00475998 302.577 1.93324 307.912 5.3622 311.847C8.79116 315.782 13.4405 317.995 18.2897 318H354.71C359.56 317.995 364.209 315.782 367.638 311.847C371.067 307.912 372.995 302.577 373 297.012V20.988C372.995 15.4233 371.067 10.0881 367.638 6.15327C364.209 2.21844 359.56 0.00546221 354.71 0ZM371.892 297.012C371.886 302.239 370.074 307.25 366.853 310.946C363.632 314.642 359.265 316.721 354.71 316.728H18.2897C13.7348 316.721 9.36802 314.642 6.14716 310.946C2.92631 307.25 1.11428 302.239 1.10847 297.012V20.988C1.11428 15.761 2.92631 10.7501 6.14716 7.05405C9.36802 3.35803 13.7348 1.27867 18.2897 1.272H354.71C359.265 1.27867 363.632 3.35803 366.853 7.05405C370.074 10.7501 371.886 15.761 371.892 20.988V297.012Z" fill="#3F3D56"/>
<path d="M75.376 41.2682C81.4979 41.2682 86.4606 36.3081 86.4606 30.1895C86.4606 24.0709 81.4979 19.1107 75.376 19.1107C69.254 19.1107 64.2913 24.0709 64.2913 30.1895C64.2913 36.3081 69.254 41.2682 75.376 41.2682Z" fill="#FFD567"/>
<path d="M297.624 41.2682C303.746 41.2682 308.709 36.3081 308.709 30.1895C308.709 24.0709 303.746 19.1107 297.624 19.1107C291.502 19.1107 286.539 24.0709 286.539 30.1895C286.539 36.3081 291.502 41.2682 297.624 41.2682Z" fill="#E12222"/>
<path d="M108.402 137.836H42.4614C39.6679 137.833 36.9896 136.642 35.0143 134.525C33.0389 132.408 31.9278 129.537 31.9246 126.543V93.1412C31.9278 90.1472 33.0389 87.2768 35.0143 85.1597C36.9896 83.0426 39.6679 81.8517 42.4614 81.8484H108.402C111.196 81.8517 113.874 83.0426 115.849 85.1597C117.825 87.2768 118.936 90.1472 118.939 93.1412V126.543C118.936 129.537 117.825 132.408 115.849 134.525C113.874 136.642 111.196 137.833 108.402 137.836Z" fill="#B7B3F3"/>
<path d="M220.578 137.836H154.638C151.844 137.833 149.166 136.642 147.191 134.525C145.215 132.408 144.104 129.537 144.101 126.543V93.1412C144.104 90.1472 145.215 87.2768 147.191 85.1597C149.166 83.0426 151.844 81.8517 154.638 81.8484H220.578C223.372 81.8517 226.05 83.0426 228.026 85.1597C230.001 87.2768 231.112 90.1472 231.115 93.1412V126.543C231.112 129.537 230.001 132.408 228.026 134.525C226.05 136.642 223.372 137.833 220.578 137.836Z" fill="#B7B3F3"/>
<path d="M331.478 137.988H265.537C262.743 137.984 260.065 136.794 258.09 134.676C256.114 132.559 255.003 129.689 255 126.695V93.2928C255.003 90.2988 256.114 87.4284 258.09 85.3113C260.065 83.1942 262.743 82.0034 265.537 82H331.478C334.271 82.0034 336.949 83.1942 338.925 85.3113C340.9 87.4284 342.011 90.2988 342.014 93.2928V126.695C342.011 129.689 340.9 132.559 338.925 134.676C336.949 136.794 334.271 137.984 331.478 137.988Z" fill="#B7B3F3"/>
<path d="M108.402 213.836H42.4614C39.6679 213.833 36.9896 212.642 35.0143 210.525C33.0389 208.408 31.9278 205.537 31.9246 202.543V169.141C31.9278 166.147 33.0389 163.277 35.0143 161.16C36.9896 159.043 39.6679 157.852 42.4614 157.848H108.402C111.196 157.852 113.874 159.043 115.849 161.16C117.825 163.277 118.936 166.147 118.939 169.141V202.543C118.936 205.537 117.825 208.408 115.849 210.525C113.874 212.642 111.196 213.833 108.402 213.836Z" fill="#B7B3F3"/>
<path d="M220.578 213.836H154.638C151.844 213.833 149.166 212.642 147.191 210.525C145.215 208.408 144.104 205.537 144.101 202.543V169.141C144.104 166.147 145.215 163.277 147.191 161.16C149.166 159.043 151.844 157.852 154.638 157.848H220.578C223.372 157.852 226.05 159.043 228.026 161.16C230.001 163.277 231.112 166.147 231.115 169.141V202.543C231.112 205.537 230.001 208.408 228.026 210.525C226.05 212.642 223.372 213.833 220.578 213.836Z" fill="#B7B3F3"/>
<path d="M220.578 291.836H154.638C151.844 291.833 149.166 290.642 147.191 288.525C145.215 286.408 144.104 283.537 144.101 280.543V247.141C144.104 244.147 145.215 241.277 147.191 239.16C149.166 237.043 151.844 235.852 154.638 235.848H220.578C223.372 235.852 226.05 237.043 228.026 239.16C230.001 241.277 231.112 244.147 231.115 247.141V280.543C231.112 283.537 230.001 286.408 228.026 288.525C226.05 290.642 223.372 291.833 220.578 291.836Z" fill="#B7B3F3"/>
<path d="M331.478 213.988H265.537C262.743 213.984 260.065 212.794 258.09 210.676C256.114 208.559 255.003 205.689 255 202.695V169.293C255.003 166.299 256.114 163.428 258.09 161.311C260.065 159.194 262.743 158.003 265.537 158H331.478C334.271 158.003 336.949 159.194 338.925 161.311C340.9 163.428 342.011 166.299 342.014 169.293V202.695C342.011 205.689 340.9 208.559 338.925 210.676C336.949 212.794 334.271 213.984 331.478 213.988Z" fill="#B7B3F3"/>
<path d="M290.399 89.6993C290.399 89.6993 289.231 89.5411 289.838 91.1816C290.444 92.8221 291.563 98.2183 291.005 99.3292C290.447 100.44 290.726 103.456 288.3 104.041L288.998 107.16C288.998 107.16 289.137 114.039 288.858 115.047C288.579 116.054 288.531 121.605 288.625 122.186C288.719 122.768 288.673 126.578 288.3 126.74C287.927 126.902 287.693 128.748 288.907 129.065C290.12 129.381 295.297 129.543 296.231 129.859C297.165 130.176 303.789 129.859 303.789 129.859C303.789 129.859 306.588 129.436 307.289 129.172C307.99 128.907 308.129 128.274 307.896 127.056C307.662 125.839 306.588 117.003 306.822 115.893C307.055 114.782 307.104 103.934 307.104 103.934C307.104 103.934 305.284 103.246 305.284 101.235C305.284 99.2226 304.584 93.8264 306.03 90.4422C306.03 90.4422 304.863 89.5342 304.678 89.6958C304.493 89.8575 302.731 89.2763 302.731 89.2763C302.731 89.2763 301.821 98.4831 298.014 98.5347C294.208 98.5863 292.513 89.2763 292.513 89.2763C292.513 89.2763 292.546 88.4302 290.399 89.6993Z" fill="#716ADE"/>
<path d="M92.5809 114.471L91.7609 114.268C92.3352 112.929 92.5918 111.522 92.5199 110.106C92.1778 103.144 84.117 97.5043 74.551 97.5344C64.9849 97.5646 57.4806 103.253 57.8226 110.215C57.886 111.541 58.2363 112.859 58.8606 114.119L58.0544 114.314C57.0649 112.317 56.7357 110.192 57.0942 108.116C57.4528 106.039 58.4886 104.069 60.1162 102.37C61.7438 100.67 63.9165 99.2901 66.4547 98.3426C68.9928 97.3951 71.8237 96.9078 74.7133 96.9209C77.6029 96.9341 80.4684 97.4473 83.0729 98.4181C85.6775 99.3889 87.9463 100.79 89.692 102.504C91.4377 104.219 92.6102 106.198 93.1125 108.279C93.6148 110.36 93.4326 112.482 92.5809 114.471V114.471Z" fill="black"/>
<path d="M62.8672 109.034C61.2439 109.039 59.71 109.513 58.6029 110.352C57.4959 111.19 56.9063 112.325 56.964 113.507C57.0217 114.688 57.7218 115.819 58.9104 116.651C60.0991 117.483 61.6788 117.948 63.3021 117.943L64.8225 117.939L64.3877 109.029L62.8672 109.034Z" fill="black"/>
<path d="M64.3962 108.405C64.0345 108.407 63.6928 108.512 63.4461 108.699C63.1994 108.886 63.0678 109.139 63.0802 109.402L63.4791 117.574C63.492 117.837 63.648 118.09 63.913 118.275C64.178 118.46 64.5302 118.564 64.892 118.563C65.2539 118.562 65.5959 118.456 65.8427 118.269C66.0895 118.082 66.2209 117.829 66.208 117.566L65.8092 109.394C65.7959 109.131 65.6397 108.879 65.3748 108.694C65.1099 108.508 64.758 108.405 64.3962 108.405Z" fill="#9927AB"/>
<path d="M86.2643 117.875L87.7848 117.87C89.4081 117.866 90.942 117.392 92.049 116.553C93.1561 115.714 93.7457 114.579 93.688 113.397C93.6594 112.812 93.4728 112.234 93.1389 111.694C92.8049 111.155 92.3301 110.665 91.7415 110.253C90.5529 109.421 88.9732 108.956 87.3499 108.961L85.8295 108.966L86.2643 117.875Z" fill="black"/>
<path d="M85.7602 108.341C85.3985 108.343 85.0568 108.449 84.8101 108.636C84.5634 108.822 84.4318 109.075 84.4442 109.339L84.8431 117.51C84.8562 117.773 85.0124 118.025 85.2773 118.211C85.5423 118.396 85.8943 118.5 86.256 118.498C86.6177 118.497 86.9596 118.392 87.2063 118.205C87.4531 118.018 87.5847 117.765 87.5721 117.502L87.1732 109.33C87.1599 109.067 87.0037 108.815 86.7388 108.63C86.474 108.444 86.122 108.341 85.7602 108.341V108.341Z" fill="#9927AB"/>
<path d="M179.6 114.69L179.356 114.685L179.381 114.095L180.24 114.173L180.208 114.337L179.617 114.284L179.6 114.69Z" fill="#3F3D56"/>
<path d="M179.414 119.143L179.17 119.139L179.217 118.026L179.46 118.03L179.414 119.143ZM179.476 117.659L179.232 117.655L179.279 116.542L179.523 116.546L179.476 117.659ZM179.538 116.175L179.294 116.171L179.341 115.057L179.585 115.062L179.538 116.175Z" fill="#3F3D56"/>
<path d="M179.129 120.1L179.154 119.51L179.398 119.515L179.381 119.921L179.975 119.889L179.994 120.055L179.129 120.1Z" fill="#3F3D56"/>
<path d="M180.46 120.03L180.441 119.864L181.84 119.79L181.859 119.956L180.46 120.03ZM182.325 119.931L182.306 119.765L183.705 119.691L183.724 119.857L182.325 119.931ZM184.19 119.832L184.171 119.666L185.57 119.592L185.589 119.758L184.19 119.832ZM186.056 119.733L186.037 119.568L187.436 119.493L187.454 119.659L186.056 119.733ZM187.921 119.634L187.902 119.469L189.301 119.394L189.32 119.56L187.921 119.634ZM189.786 119.536L189.767 119.37L191.166 119.295L191.185 119.461L189.786 119.536ZM191.651 119.437L191.632 119.271L193.032 119.197L193.05 119.362L191.651 119.437ZM193.517 119.338L193.498 119.172L194.897 119.098L194.916 119.263L193.517 119.338ZM195.382 119.239L195.363 119.073L196.762 118.999L196.781 119.165L195.382 119.239ZM197.247 119.14L197.228 118.974L198.627 118.9L198.646 119.066L197.247 119.14ZM199.112 119.041L199.094 118.875L200.493 118.801L200.511 118.967L199.112 119.041ZM200.978 118.942L200.959 118.776L202.358 118.702L202.377 118.868L200.978 118.942Z" fill="#3F3D56"/>
<path d="M202.843 118.843L202.824 118.677L203.35 118.65L203.064 118.348L203.269 118.258L203.776 118.794L202.843 118.843Z" fill="#3F3D56"/>
<path d="M202.759 118.025L201.846 117.058L202.05 116.968L202.964 117.935L202.759 118.025ZM201.541 116.735L200.627 115.767L200.832 115.677L201.746 116.645L201.541 116.735Z" fill="#3F3D56"/>
<path d="M198.262 122.423C202.838 122.423 206.547 119.891 206.547 116.768C206.547 113.645 202.838 111.114 198.262 111.114C193.687 111.114 189.977 113.645 189.977 116.768C189.977 119.891 193.687 122.423 198.262 122.423Z" fill="#3A1E77"/>
<path d="M205.086 123.337L192.962 108.66L190.282 110.489L202.222 123.295L205.086 123.337Z" fill="#3F3D56"/>
<path d="M168.35 122.963L195.582 104.128L197.836 107.163L172.006 123.794L168.35 122.963Z" fill="#3F3D56"/>
<path d="M179.438 120.967C182.466 120.967 184.921 119.292 184.921 117.225C184.921 115.159 182.466 113.483 179.438 113.483C176.41 113.483 173.955 115.159 173.955 117.225C173.955 119.292 176.41 120.967 179.438 120.967Z" fill="#3F3D56"/>
<path d="M172.127 118.306C172.095 118.306 172.064 118.315 172.041 118.33C172.018 118.346 172.006 118.367 172.006 118.389V119.055C172.006 119.077 172.018 119.099 172.041 119.114C172.064 119.13 172.095 119.139 172.127 119.139H175.173C175.206 119.139 175.237 119.13 175.259 119.114C175.282 119.099 175.295 119.077 175.295 119.055V118.389C175.295 118.367 175.282 118.346 175.259 118.33C175.237 118.315 175.206 118.306 175.173 118.306H172.127Z" fill="#3A1E77"/>
<path d="M179.133 109.035C179.101 109.035 179.07 109.044 179.047 109.059C179.024 109.075 179.011 109.096 179.011 109.118V109.784C179.011 109.806 179.024 109.828 179.047 109.843C179.07 109.859 179.101 109.868 179.133 109.868H182.179C182.212 109.868 182.243 109.859 182.266 109.843C182.288 109.828 182.301 109.806 182.301 109.784V109.118C182.301 109.096 182.288 109.075 182.266 109.059C182.243 109.044 182.212 109.035 182.179 109.035H179.133Z" fill="#3A1E77"/>
<path d="M193.937 107.662H190.769V105.999L191.988 105.667L193.937 106.664V107.662Z" fill="#3F3D56"/>
<path d="M191.171 105.245L190.84 105.352L191.465 106.253L191.796 106.147L191.171 105.245Z" fill="#3F3D56"/>
<path d="M191.52 104.166C191.497 104.166 191.474 104.171 191.455 104.179L189.303 105.124C189.275 105.136 189.256 105.155 189.25 105.176C189.243 105.198 189.249 105.22 189.266 105.239L189.793 105.798C189.811 105.817 189.838 105.83 189.87 105.835C189.901 105.839 189.934 105.835 189.962 105.823L192.114 104.879V104.879C192.141 104.867 192.16 104.848 192.167 104.826C192.174 104.805 192.168 104.782 192.15 104.764L191.623 104.204C191.614 104.195 191.603 104.187 191.59 104.181C191.577 104.175 191.562 104.17 191.546 104.168C191.538 104.167 191.529 104.166 191.52 104.166V104.166Z" fill="#3A1E77"/>
<path d="M196.374 107.496L193.876 99.2224L196.8 98.8898L198.794 105.555C198.88 105.797 198.881 106.049 198.796 106.291C198.712 106.532 198.545 106.757 198.309 106.947C198.073 107.136 197.774 107.284 197.438 107.38C197.102 107.476 196.737 107.515 196.374 107.496Z" fill="#3F3D56"/>
<path d="M205.577 97.5919L202.684 97.4509C202.645 97.449 202.608 97.4408 202.575 97.4271C202.542 97.4133 202.514 97.3944 202.494 97.3718C202.473 97.3493 202.461 97.3237 202.458 97.2973C202.455 97.271 202.462 97.2445 202.477 97.2201L206.679 90.4492C206.695 90.4237 206.719 90.4013 206.751 90.384C206.783 90.3668 206.82 90.3552 206.86 90.3503L209.713 90.0026C209.756 89.9974 209.8 90 209.841 90.0103C209.881 90.0205 209.917 90.0379 209.945 90.0608C209.972 90.0837 209.99 90.1111 209.997 90.1403C210.004 90.1695 209.999 90.1994 209.983 90.2269L205.821 97.4866C205.802 97.5196 205.768 97.5477 205.724 97.5666C205.68 97.5856 205.628 97.5944 205.577 97.5919Z" fill="#3F3D56"/>
<path d="M203.075 96.9343L205.39 97.1006L209.167 90.6145L206.73 90.864L203.075 96.9343Z" fill="#3A1E77"/>
<path d="M177.854 114.731L174.808 116.809L170.422 103.754L172.859 104.004L177.854 114.731Z" fill="#3F3D56"/>
<path d="M174.304 103.984L173.778 103.876C172.744 104.187 171.62 104.331 170.491 104.298C170.247 104.291 170.017 104.22 169.848 104.1C169.68 103.979 169.587 103.819 169.588 103.652V103.652C169.588 103.481 169.688 103.316 169.865 103.195C170.043 103.074 170.284 103.006 170.535 103.006H175.131C175.255 103.006 175.375 103.039 175.463 103.099C175.551 103.159 175.6 103.241 175.6 103.326C175.6 103.433 175.563 103.538 175.493 103.634C175.422 103.73 175.32 103.813 175.194 103.877C175.068 103.941 174.922 103.984 174.768 104.002C174.613 104.021 174.455 104.014 174.304 103.984V103.984Z" fill="#3F3D56"/>
<path d="M203.412 95.8193C203.295 95.8192 203.18 95.8455 203.087 95.8943L199.346 97.8465L195.159 98.2192C194.438 98.2834 193.939 98.8186 193.876 99.3052L198.805 98.8381C199.49 98.7931 200.137 98.6035 200.656 98.2959L203.763 96.4619C203.846 96.4131 203.905 96.3482 203.932 96.2758C203.96 96.2035 203.954 96.1272 203.915 96.0572C203.877 95.9873 203.808 95.927 203.719 95.8844C203.629 95.8419 203.522 95.8192 203.412 95.8193V95.8193Z" fill="#3F3D56"/>
<path d="M201.585 94.5723C201.467 94.5722 201.353 94.5985 201.259 94.6473L197.518 96.5996L193.331 96.9723C192.61 97.0365 192.111 97.5717 192.048 98.0584L196.977 97.5912C197.662 97.5462 198.309 97.3566 198.829 97.049L201.936 95.2149C202.019 95.1661 202.078 95.1012 202.105 95.0288C202.132 94.9565 202.126 94.8802 202.088 94.8103C202.05 94.7403 201.981 94.68 201.891 94.6374C201.801 94.5949 201.694 94.5722 201.585 94.5723V94.5723Z" fill="#3F3D56"/>
<path d="M203.867 99.5959C202.996 99.5946 202.137 99.4539 201.361 99.185C200.584 98.9161 199.91 98.5266 199.394 98.0477L199.885 97.8018C200.279 98.1691 200.778 98.4781 201.352 98.7101C201.926 98.9421 202.563 99.0923 203.224 99.1516C203.885 99.2109 204.557 99.1781 205.2 99.0551C205.842 98.9322 206.441 98.7217 206.96 98.4363C207.48 98.1509 207.91 97.7966 208.223 97.3948C208.536 96.9929 208.727 96.5519 208.784 96.0983C208.84 95.6447 208.762 95.188 208.552 94.7558C208.343 94.3235 208.008 93.9247 207.566 93.5835L208.023 93.3082C208.729 93.8542 209.19 94.5277 209.349 95.2478C209.508 95.968 209.359 96.7042 208.92 97.3681C208.482 98.032 207.771 98.5953 206.875 98.9905C205.979 99.3856 204.934 99.5959 203.867 99.5959V99.5959Z" fill="#3F3D56"/>
<path d="M208.131 122.921L165 122.921V125L208.131 125V122.921Z" fill="#3F3D56"/>
<path d="M181.448 109.783H180.108V114.772H181.448V109.783Z" fill="#3F3D56"/>
<path d="M192.78 97.7332L192.414 97.8995L194.851 99.5626L196.313 98.6479L193.876 97.3174L192.78 97.7332Z" fill="#3F3D56"/>
<path d="M169.329 269.546H206.488V265.723C206.488 255.399 198.154 247 187.909 247C177.664 247 169.329 255.399 169.329 265.723V269.546Z" fill="#3F3D56"/>
<path opacity="0.2" d="M169.329 269.546H206.488V265.723C206.488 255.399 198.154 247 187.909 247C177.664 247 169.329 255.399 169.329 265.723V269.546Z" fill="black"/>
<path d="M174.145 270.87H202.742C202.715 269.353 202.099 267.909 201.026 266.845C199.953 265.782 198.509 265.186 197.004 265.184H179.883C178.379 265.186 176.935 265.782 175.861 266.845C174.788 267.909 174.172 269.353 174.145 270.87V270.87Z" fill="#A275C6"/>
<path d="M170.739 270.281C173.909 270.281 176.479 267.692 176.479 264.498C176.479 261.303 173.909 258.714 170.739 258.714C167.57 258.714 165 261.303 165 264.498C165 267.692 167.57 270.281 170.739 270.281Z" fill="#3F3D56"/>
<path d="M205.564 270.281C208.734 270.281 211.303 267.692 211.303 264.498C211.303 261.303 208.734 258.714 205.564 258.714C202.395 258.714 199.825 261.303 199.825 264.498C199.825 267.692 202.395 270.281 205.564 270.281Z" fill="#3F3D56"/>
<path d="M201.236 267.439V269.595H174.728V267.439H168.794V277.95C168.794 278.594 169.048 279.212 169.5 279.667C169.952 280.122 170.565 280.378 171.204 280.378H204.76C205.076 280.378 205.389 280.315 205.682 280.193C205.974 280.071 206.24 279.893 206.464 279.667C206.687 279.442 206.865 279.174 206.986 278.879C207.107 278.585 207.169 278.269 207.169 277.95V267.439H201.236Z" fill="#3F3D56"/>
<path opacity="0.2" d="M170.739 265.674C171.384 265.674 171.907 265.147 171.907 264.498C171.907 263.848 171.384 263.321 170.739 263.321C170.095 263.321 169.572 263.848 169.572 264.498C169.572 265.147 170.095 265.674 170.739 265.674Z" fill="black"/>
<path opacity="0.2" d="M205.564 265.674C206.209 265.674 206.732 265.147 206.732 264.498C206.732 263.848 206.209 263.321 205.564 263.321C204.92 263.321 204.397 263.848 204.397 264.498C204.397 265.147 204.92 265.674 205.564 265.674Z" fill="black"/>
<path d="M303.72 204.435H291.872L292.274 199.539H303.319L303.72 204.435Z" fill="#E6E6E6"/>
<path d="M304.523 203.87H291.27V205H304.523V203.87Z" fill="#E6E6E6"/>
<path d="M320.488 168H275.205C274.885 168 274.579 168.119 274.353 168.331C274.127 168.543 274 168.83 274 169.13V169.13V195.02H321.693V169.13C321.693 168.981 321.662 168.834 321.601 168.697C321.541 168.56 321.452 168.436 321.34 168.331C321.228 168.226 321.095 168.143 320.949 168.086C320.803 168.029 320.646 168 320.488 168H320.488Z" fill="#3F3D56"/>
<path d="M274 195.02V199.257C274 199.405 274.031 199.552 274.092 199.689C274.152 199.826 274.241 199.951 274.353 200.056C274.465 200.161 274.598 200.244 274.744 200.301C274.89 200.358 275.047 200.387 275.205 200.387H320.488C320.808 200.387 321.114 200.268 321.34 200.056C321.566 199.844 321.693 199.557 321.693 199.257V195.02H274Z" fill="#E6E6E6"/>
<path d="M319.384 170.354H276.41V192.949H319.384V170.354Z" fill="#E6E6E6"/>
<path d="M297.897 198.786C298.562 198.786 299.102 198.28 299.102 197.657C299.102 197.033 298.562 196.527 297.897 196.527C297.231 196.527 296.692 197.033 296.692 197.657C296.692 198.28 297.231 198.786 297.897 198.786Z" fill="#3F3D56"/>
<path d="M277.75 171.308C277.876 171.308 277.978 171.212 277.978 171.094C277.978 170.975 277.876 170.879 277.75 170.879C277.623 170.879 277.521 170.975 277.521 171.094C277.521 171.212 277.623 171.308 277.75 171.308Z" fill="#FAFBFC"/>
<path d="M278.618 171.308C278.744 171.308 278.846 171.212 278.846 171.094C278.846 170.975 278.744 170.879 278.618 170.879C278.491 170.879 278.389 170.975 278.389 171.094C278.389 171.212 278.491 171.308 278.618 171.308Z" fill="#FAFBFC"/>
<path d="M279.486 171.308C279.612 171.308 279.714 171.212 279.714 171.094C279.714 170.975 279.612 170.879 279.486 170.879C279.359 170.879 279.257 170.975 279.257 171.094C279.257 171.212 279.359 171.308 279.486 171.308Z" fill="#FAFBFC"/>
<path d="M318.145 171.822H277.521V190.799H318.145V171.822Z" fill="#FAFBFC"/>
<path d="M88 174.694H87.6915V167.92C87.6915 167.405 87.5649 166.896 87.3191 166.42C87.0732 165.944 86.7129 165.512 86.2586 165.148C85.8044 164.784 85.2651 164.495 84.6715 164.298C84.078 164.101 83.4419 164 82.7994 164H64.892C64.2496 164 63.6134 164.101 63.0199 164.298C62.4264 164.495 61.8871 164.784 61.4328 165.148C60.9786 165.512 60.6182 165.944 60.3724 166.42C60.1265 166.896 60 167.405 60 167.92V205.08C60 205.595 60.1265 206.104 60.3724 206.58C60.6182 207.056 60.9786 207.488 61.4328 207.852C61.8871 208.216 62.4264 208.505 63.0199 208.702C63.6134 208.899 64.2496 209 64.892 209H82.7994C83.4419 209 84.078 208.899 84.6715 208.702C85.2651 208.505 85.8044 208.216 86.2586 207.852C86.7129 207.488 87.0732 207.056 87.3191 206.58C87.5649 206.104 87.6915 205.595 87.6915 205.08V179.515H88V174.694Z" fill="#3F3D56"/>
<path d="M82.9968 165.02H80.6593C80.7668 165.231 80.8078 165.46 80.7788 165.687C80.7498 165.914 80.6515 166.132 80.4928 166.321C80.334 166.51 80.1196 166.665 79.8684 166.773C79.6172 166.88 79.337 166.936 79.0523 166.936H68.7934C68.5088 166.936 68.2285 166.88 67.9773 166.773C67.7261 166.665 67.5117 166.51 67.3529 166.321C67.1942 166.132 67.0959 165.914 67.0669 165.687C67.0379 165.46 67.0789 165.231 67.1864 165.02H65.0031C64.5234 165.02 64.0483 165.096 63.6051 165.243C63.1619 165.39 62.7591 165.606 62.4199 165.877C62.0806 166.149 61.8115 166.472 61.6279 166.827C61.4443 167.182 61.3499 167.563 61.3499 167.948V205.052C61.3499 205.437 61.4443 205.818 61.6279 206.173C61.8115 206.528 62.0806 206.851 62.4199 207.123C62.7591 207.394 63.1619 207.61 63.6051 207.757C64.0483 207.904 64.5234 207.98 65.0031 207.98H82.9968C83.4766 207.98 83.9517 207.904 84.3949 207.757C84.8381 207.61 85.2409 207.394 85.5801 207.123C85.9193 206.851 86.1884 206.528 86.372 206.173C86.5556 205.818 86.6501 205.437 86.6501 205.052V167.948C86.6501 167.171 86.2652 166.426 85.5801 165.877C84.895 165.328 83.9657 165.02 82.9968 165.02V165.02Z" fill="#C5C4C4"/>
<path d="M79.5064 187.709L77.5247 187.006C77.44 186.976 77.346 186.97 77.2566 186.988C77.1673 187.006 77.0875 187.048 77.0293 187.107L76.1517 187.995C74.7744 187.457 73.666 186.539 73.0166 185.399L74.0888 184.672C74.1603 184.624 74.2108 184.558 74.2328 184.484C74.2549 184.41 74.2472 184.332 74.2109 184.262L73.3616 182.622C73.3218 182.546 73.2515 182.484 73.1627 182.447C73.0738 182.41 72.9721 182.4 72.8751 182.418L71.035 182.769C70.9414 182.787 70.8579 182.831 70.7981 182.893C70.7384 182.955 70.7059 183.033 70.7059 183.112C70.7059 186.869 74.3843 189.909 78.9156 189.909C79.0116 189.909 79.1049 189.882 79.1801 189.833C79.2553 189.783 79.308 189.714 79.3296 189.637L79.7542 188.113C79.7762 188.032 79.7634 187.948 79.7181 187.874C79.6729 187.8 79.598 187.742 79.5064 187.709V187.709Z" fill="black"/>
<path d="M202.807 219.493V218.679H197.326V219.493H202.807Z" fill="white"/>
<path d="M194.578 162C194.578 162 197.508 165.397 193.229 170.524C188.95 175.65 185.434 179.99 186.85 183.18C186.85 183.18 193.303 173.655 198.558 173.524C203.813 173.393 200.359 167.727 194.578 162Z" fill="#9C5BAC"/>
<path opacity="0.1" d="M194.643 162C194.896 162.327 195.096 162.685 195.236 163.063C200.314 168.408 203.015 173.396 198.136 173.524C193.595 173.64 188.14 180.922 186.836 182.761C186.879 182.903 186.93 183.043 186.99 183.18C186.99 183.18 193.38 173.655 198.583 173.524C203.787 173.393 200.366 167.727 194.643 162Z" fill="#9C5BAC"/>
<path d="M199.931 166.311C199.931 167.529 199.794 168.517 199.628 168.517C199.462 168.517 199.322 167.529 199.322 166.311C199.322 165.094 199.492 165.665 199.661 165.665C199.831 165.665 199.931 165.09 199.931 166.311Z" fill="#407BFF"/>
<path d="M201.94 167.71C200.755 168.283 199.719 168.63 199.632 168.484C199.546 168.338 200.43 167.753 201.615 167.18C202.799 166.607 202.334 167.027 202.437 167.18C202.54 167.333 203.124 167.147 201.94 167.71Z" fill="#407BFF"/>
<path d="M179.094 162C179.094 162 176.166 165.397 180.444 170.524C184.722 175.65 188.237 179.99 186.822 183.18C186.822 183.18 180.37 173.655 175.116 173.524C169.861 173.393 173.307 167.727 179.094 162Z" fill="#9C5BAC"/>
<path opacity="0.1" d="M179.168 162C178.91 162.327 178.706 162.685 178.563 163.063C173.378 168.408 170.619 173.396 175.601 173.524C180.242 173.64 185.809 180.922 187.14 182.761C187.099 182.904 187.046 183.044 186.983 183.18C186.983 183.18 180.458 173.655 175.145 173.524C169.831 173.393 173.315 167.727 179.168 162Z" fill="black"/>
<path d="M173.741 166.311C173.741 167.529 173.877 168.517 174.047 168.517C174.217 168.517 174.35 167.529 174.35 166.311C174.35 165.094 174.18 165.665 174.014 165.665C173.848 165.665 173.741 165.09 173.741 166.311Z" fill="#407BFF"/>
<path d="M171.731 167.71C172.918 168.283 173.949 168.63 174.039 168.484C174.129 168.338 173.238 167.753 172.055 167.18C170.873 166.607 171.337 167.027 171.234 167.18C171.131 167.333 170.548 167.147 171.731 167.71Z" fill="#407BFF"/>
<path d="M202.665 178.502L202.517 179.556L202.311 181.047L202.224 181.666L202.018 183.158L201.927 183.781L201.721 185.269L199.367 202.213C199.157 203.726 196.346 204.903 192.949 204.903H180.722C177.326 204.903 174.539 203.726 174.308 202.213L171.95 185.262L171.744 183.774L171.657 183.151L171.447 181.659L171.361 181.04L171.154 179.548L171.006 178.495C170.891 177.659 172.428 176.934 174.333 176.934H199.343C201.259 176.934 202.785 177.659 202.665 178.502Z" fill="#65617D"/>
<path d="M202.367 179.65L202.163 181.008H171.509L171.305 179.65H202.367Z" fill="#9D9CB5"/>
<path d="M202.367 181.551L202.161 183.18H171.819L171.609 181.551H202.367Z" fill="#9D9CB5"/>
<path d="M202.063 183.723L201.857 185.352H172.119L171.914 183.723H202.063Z" fill="#9D9CB5"/>
<path d="M299.516 30L301.791 27.7257C302.07 27.4466 302.07 26.9941 301.791 26.7148L301.285 26.2093C301.006 25.9302 300.554 25.9302 300.274 26.2093L298 28.4836L295.726 26.2093C295.447 25.9302 294.994 25.9302 294.715 26.2093L294.209 26.7148C293.93 26.9939 293.93 27.4464 294.209 27.7257L296.484 30L294.209 32.2743C293.93 32.5534 293.93 33.0059 294.209 33.2852L294.715 33.7907C294.994 34.0698 295.447 34.0698 295.726 33.7907L298 31.5164L300.274 33.7907C300.553 34.0698 301.006 34.0698 301.285 33.7907L301.791 33.2852C302.07 33.0061 302.07 32.5536 301.791 32.2743L299.516 30Z" fill="white"/>
<path d="M80.1429 28H69.8571C69.3838 28 69 28.6717 69 29.5V31C69 31.8283 69.3838 32.5 69.8571 32.5H80.1429C80.6162 32.5 81 31.8283 81 31V29.5C81 28.6717 80.6162 28 80.1429 28Z" fill="white"/>
</svg>
