<svg width="791" height="398" viewBox="0 0 791 398" fill="none" xmlns="http://www.w3.org/2000/svg">
<g opacity="0.4">
<path d="M791 227.838C791 269.383 673.856 209.089 635.924 319.975C622.403 359.5 525.149 318.535 497.583 323.313C447.814 331.939 503.154 373.387 443.473 373.387C251.539 373.387 0 294.869 0 214.485C0 134.1 155.593 68.9352 347.527 68.9352C539.461 68.9352 791 147.453 791 227.838Z" fill="#C4A8C5"/>
<rect y="50.2407" width="791" height="171.588" fill="#C4A8C5"/>
</g>
<g opacity="0.75">
<path d="M791 252.451C791 293.996 673.856 233.702 635.924 344.587C622.403 384.113 525.149 343.148 497.583 347.926C447.814 356.552 503.154 398 443.473 398C251.539 398 0 319.482 0 239.097C0 158.713 155.593 93.5479 347.527 93.5479C539.461 93.5479 791 172.066 791 252.451Z" fill="#FEDDFF"/>
<rect y="74.8535" width="791" height="171.588" fill="#FEDDFF"/>
</g>
<g opacity="0.99">
<path d="M791 188.987C791 233.197 673.856 169.037 635.924 287.034C622.403 329.094 525.149 285.501 497.583 290.586C447.814 299.766 503.154 343.872 443.473 343.872C251.539 343.872 0 260.318 0 174.778C0 89.2376 155.593 19.8934 347.527 19.8934C539.461 19.8934 791 103.447 791 188.987Z" fill="#F3D1FF"/>
<rect width="791" height="182.593" fill="#F3D1FF"/>
</g>
</svg>
