<svg width="100" height="100" viewBox="0 0 100 100" fill="none" xmlns="http://www.w3.org/2000/svg">
<circle cx="50" cy="50" r="50" fill="#343434"/>
<path fill-rule="evenodd" clip-rule="evenodd" d="M50 0C77.6 0 100 22.4 100 50C100 77.6 77.6 100 50 100C22.4 100 0 77.6 0 50C0 22.4 22.4 0 50 0ZM75.0333 30.0667L26.5 29.9333L50.7667 49.2L75.0333 30.0667ZM45.0333 54.5667L23.8333 37.9V69.5667H76.2667V38.5667L56.6 54.6333C49.9333 60.0667 51.9333 59.9667 45.0333 54.5667ZM24.1 23.8667H76.4C80.6333 23.8667 84.0667 27.3333 84.0667 31.5333V68.2C84.0667 72.4333 80.6 75.8667 76.4 75.8667H24.1C19.8667 75.8667 16.4333 72.4 16.4333 68.2V31.5333C16.4333 27.3 19.9 23.8667 24.1 23.8667Z" fill="white"/>
</svg>
