<svg width="100" height="100" viewBox="0 0 100 100" fill="none" xmlns="http://www.w3.org/2000/svg">
<circle cx="50" cy="50" r="50" fill="white"/>
<path d="M49.9999 0C22.3855 0 0 22.3856 0 50C0 77.6144 22.3855 100 49.9999 100C77.6143 100 100 77.6144 100 50C99.9998 22.3856 77.6139 0 49.9999 0ZM36.6598 74.1727H25.6818V38.7059H36.6598V74.1727ZM31.1185 34.0612C27.5332 34.0612 24.6267 31.131 24.6267 27.517C24.6267 23.9026 27.5336 20.9726 31.1185 20.9726C34.7034 20.9726 37.6099 23.9026 37.6099 27.517C37.6101 31.1312 34.7036 34.0612 31.1185 34.0612V34.0612ZM77.7998 74.1727H66.8751V55.5556C66.8751 50.4494 64.9355 47.5992 60.898 47.5992C56.5038 47.5992 54.2081 50.5677 54.2081 55.5556V74.1727H43.679V38.7059H54.2081V43.4827C54.2081 43.4827 57.3753 37.6241 64.8957 37.6241C72.4164 37.6241 77.8 42.2161 77.8 51.7156L77.7998 74.1727V74.1727Z" fill="url(#paint0_linear)"/>
<defs>
<linearGradient id="paint0_linear" x1="14.6446" y1="14.6446" x2="85.3553" y2="85.3552" gradientUnits="userSpaceOnUse">
<stop stop-color="#2489BE"/>
<stop offset="1" stop-color="#0575B3"/>
</linearGradient>
</defs>
</svg>
