<svg width="888" height="424" viewBox="0 0 888 424" fill="none" xmlns="http://www.w3.org/2000/svg">
<g clip-path="url(#clip0)">
<path d="M341 0H13V420H341V0Z" fill="#E6E6E6"/>
<path d="M318.547 25.3257H34.7721V204.988H318.547V25.3257Z" fill="white"/>
<path d="M318.55 197.62H34.77V390.18H318.55V197.62Z" fill="white"/>
<path d="M184.03 24.4043H169.289V204.988H184.03V24.4043Z" fill="#3F3D56"/>
<path d="M318.547 24.4043H303.805V204.988H318.547V24.4043Z" fill="#3F3D56"/>
<path d="M318.547 190.247H34.7721V204.988H318.547V190.247Z" fill="#3F3D56"/>
<path d="M74.876 122.067L49.514 139.115V153.219L87.935 122.067H74.876Z" fill="white"/>
<path d="M116.663 122.067L49.514 174.634V186.649L137.034 122.067H116.663Z" fill="#E6E6E6"/>
<path d="M49.5137 24.4043H34.7721V204.988H49.5137V24.4043Z" fill="#3F3D56"/>
<path d="M277.543 39.1461L220.884 111.011L238.39 112.853L287.221 36.3821L277.543 39.1461Z" fill="#E6E6E6"/>
<path d="M318.547 24.4043H34.7721V39.1458H318.547V24.4043Z" fill="#3F3D56"/>
<path d="M318.547 107.325H34.7721V122.067H318.547V107.325Z" fill="#3F3D56"/>
<path d="M878 0H550V420H878V0Z" fill="#E6E6E6"/>
<path d="M855.524 24.7976H571.749V204.46H855.524V24.7976Z" fill="white"/>
<path d="M855.52 197.09H571.75V389.65H855.52V197.09Z" fill="white"/>
<path d="M721.007 23.8765H706.265V204.46H721.007V23.8765Z" fill="#3F3D56"/>
<path d="M855.524 23.8765H840.782V204.46H855.524V23.8765Z" fill="#3F3D56"/>
<path d="M855.524 189.719H571.749V204.46H855.524V189.719Z" fill="#3F3D56"/>
<path d="M611.853 121.539L586.49 138.588V152.691L624.911 121.539H611.853Z" fill="#E6E6E6"/>
<path d="M653.64 121.539L586.49 174.106V186.121L674.011 121.539H653.64Z" fill="#E6E6E6"/>
<path d="M586.49 23.8765H571.749V204.46H586.49V23.8765Z" fill="#3F3D56"/>
<path d="M814.52 38.618L757.861 110.483L775.366 112.325L824.198 35.854L814.52 38.618Z" fill="#E6E6E6"/>
<path d="M855.524 23.8765H571.749V38.618H855.524V23.8765Z" fill="#3F3D56"/>
<path d="M855.524 106.798H571.749V121.539H855.524V106.798Z" fill="#3F3D56"/>
<path d="M707.447 241C707.447 241 708.528 245.887 702.403 250.286C696.279 254.685 694.477 271.302 701.683 276.189C708.888 281.077 711.05 287.43 707.447 291.829C703.844 296.228 697.359 307.957 706.006 310.89C714.652 313.822 715.733 319.687 713.211 322.131C710.689 324.574 718.976 317.732 718.976 317.732C718.976 317.732 720.417 329.462 727.982 326.529C735.548 323.597 756.804 267.881 745.996 260.061C735.188 252.241 707.447 241 707.447 241Z" fill="#2F2E41"/>
<path d="M697.54 322.81L663.013 347.072C663.013 347.072 636.885 320.011 636.885 304.147C636.885 288.284 622.888 258.423 616.356 270.554C609.824 282.685 623.821 311.613 623.821 311.613L649.949 373.201C649.949 373.201 664.88 376 673.278 369.468C681.676 362.936 705.005 349.872 705.005 349.872L697.54 322.81Z" fill="#FFB9B9"/>
<path d="M731.6 282.218C746.03 282.218 757.728 270.52 757.728 256.09C757.728 241.66 746.03 229.962 731.6 229.962C717.17 229.962 705.472 241.66 705.472 256.09C705.472 270.52 717.17 282.218 731.6 282.218Z" fill="#FFB9B9"/>
<path d="M718.069 274.287C718.069 274.287 727.401 298.548 723.668 304.147C719.936 309.746 715.27 309.746 711.537 311.613C709.671 312.546 690.075 320.011 690.075 325.61C690.165 329.207 691.125 332.729 692.874 335.875L695.674 351.738L719.003 366.669L749.797 362.936L773.125 349.872C773.125 349.872 776.858 315.345 766.593 309.746C756.329 304.147 744.198 291.083 745.131 286.418C746.064 281.752 746.997 270.554 746.997 270.554L718.069 274.287Z" fill="#FFB9B9"/>
<path d="M767.53 345.21V345.24L766.69 353.48L765.62 364.05L764.4 376L763.02 389.65H695.4C694.49 382.19 692.88 374.28 690.07 369.47C688.304 366.608 687.517 363.249 687.83 359.9C688.46 353.65 692.87 349.29 692.87 348.01C692.87 346.61 685.01 338.4 681.08 334.37C679.76 333.02 678.88 332.14 678.88 332.14L691.01 322.81L691.18 323.1L692.88 326.08L698.47 335.87L696.61 343.34C696.61 343.34 699.5 343.84 703.52 344.48C710.47 345.57 720.81 347.07 725.53 347.07C729.91 347.07 735.26 349.32 739.68 350.61C739.82 350.65 739.95 350.69 740.08 350.73C742.86 351.51 745.24 351.87 746.74 350.97C746.83 350.919 746.917 350.863 747 350.8C747.782 350.271 748.629 349.844 749.52 349.53H749.53C752.762 348.386 756.07 347.471 759.43 346.79C763.21 345.96 766.53 345.38 767.34 345.24C767.341 345.239 767.343 345.238 767.345 345.237C767.346 345.236 767.348 345.236 767.35 345.236C767.352 345.236 767.354 345.236 767.355 345.237C767.357 345.238 767.359 345.239 767.36 345.24C767.47 345.22 767.53 345.21 767.53 345.21Z" fill="#6C63FF"/>
<path d="M770.44 343.79C770.37 344.29 770.31 344.8 770.25 345.3C769.96 347.5 769.72 349.7 769.51 351.9C768.93 357.74 768.58 363.597 768.46 369.47C768.426 371.663 768.195 373.848 767.77 376C766.842 380.631 765.592 385.192 764.03 389.65H737.61C738.31 384.45 739.25 376.45 739.71 368.07V368.06C739.78 366.76 739.83 365.45 739.88 364.14C740.053 359.737 739.993 355.327 739.7 350.93C739.69 350.82 739.69 350.71 739.68 350.61C739.63 350.04 739.58 349.49 739.53 348.94C737.67 330.28 748.86 309.75 748.86 309.75C752.65 309.75 756.35 311.84 759.65 314.72C763.68 318.321 766.769 322.851 768.649 327.917C770.53 332.983 771.144 338.432 770.44 343.79Z" fill="#FFB9B9"/>
<path opacity="0.1" d="M768.46 369.47C768.426 371.663 768.195 373.848 767.77 376C766.842 380.631 765.592 385.192 764.03 389.65H737.41C738.223 381.243 738.474 372.791 738.16 364.35C738.11 363.11 738.04 361.85 737.94 360.6V360.58C737.87 359.5 737.78 358.42 737.67 357.34C737.506 356.092 737.573 354.824 737.87 353.6V353.58C738.083 352.65 738.592 351.815 739.32 351.2C739.438 351.099 739.566 351.008 739.7 350.93C739.819 350.85 739.946 350.783 740.08 350.73C740.202 350.663 740.329 350.606 740.46 350.56C741.503 350.215 742.613 350.119 743.7 350.28C744.735 350.403 745.754 350.635 746.74 350.97C751.147 352.584 755.263 354.901 758.93 357.83C761.368 359.667 763.61 361.752 765.62 364.05C767.38 366.13 768.46 368.05 768.46 369.47Z" fill="black"/>
<path d="M736.732 355.471L739.708 368.068L756.329 376H770.326L776.858 346.139C776.858 346.139 765.325 343.7 759.427 346.786C753.529 349.872 739.679 350.61 739.679 350.61L736.732 355.471Z" fill="#6C63FF"/>
<path d="M731.814 229.866C731.814 229.866 733.01 233.852 726.233 237.44C719.456 241.027 717.463 254.581 725.436 258.567C733.408 262.553 735.8 267.735 731.814 271.323C727.827 274.911 720.652 284.478 730.219 286.87C739.786 289.261 740.982 294.045 738.192 296.038C735.401 298.031 744.57 292.45 744.57 292.45C744.57 292.45 746.164 302.017 754.536 299.626C762.907 297.234 771.259 253.757 761.928 242.559C753.251 232.147 731.814 229.866 731.814 229.866Z" fill="#2F2E41"/>
<path d="M733.052 224.483C709.687 223.076 707.342 240.663 707.342 240.663C707.503 250.841 723.666 245.882 728.156 247.399C733.572 243.503 744.011 236.132 751.477 230.871C746.057 227.054 739.671 224.84 733.052 224.483Z" fill="#2F2E41"/>
<path d="M888 419.839H0V421.839H888V419.839Z" fill="#3F3D56"/>
<path d="M92.2342 387.428V393.307C92.2342 393.307 88.3152 423.679 77.5381 423.679C66.761 423.679 75.5786 392.327 75.5786 392.327V387.428L92.2342 387.428Z" fill="#9E616A"/>
<path d="M255.85 276.718L253.891 271.819C253.891 271.819 241.154 253.204 249.972 248.306C258.79 243.407 269.567 267.9 269.567 267.9L271.526 275.738L255.85 276.718Z" fill="#9E616A"/>
<path d="M215.191 270.738C229.474 270.738 241.053 259.16 241.053 244.877C241.053 230.594 229.474 219.015 215.191 219.015C200.908 219.015 189.33 230.594 189.33 244.877C189.33 259.16 200.908 270.738 215.191 270.738Z" fill="#9E616A"/>
<path d="M196.576 247.816L178.942 261.532L203.435 282.106L217.15 265.451L196.576 247.816Z" fill="#9E616A"/>
<path d="M212.67 390.18H122.61L129.44 317.75L134.51 263.96V263.95C134.618 262.796 134.953 261.675 135.496 260.65C136.038 259.626 136.777 258.718 137.671 257.98C138.565 257.241 139.595 256.686 140.703 256.347C141.812 256.007 142.976 255.889 144.13 256L181.5 259.54L209 275.35L209.8 282.6L237.24 302.19L218.59 337.67L206.86 360L212.67 390.18Z" fill="#C75CED"/>
<path d="M135.343 310.029L109.869 343.34L94.1937 390.368H70.68L87.3355 320.806L131.3 260.692C132.431 259.153 134.029 258.022 135.855 257.466C137.682 256.91 139.639 256.959 141.435 257.606C141.996 257.837 142.582 258.004 143.181 258.103L135.343 310.029Z" fill="#C75CED"/>
<path d="M215.681 336.482L276.915 361.465L287.691 350.689L272.506 271.819L252.911 275.739L260.749 322.766L237.236 302.192L229.397 300.232L215.681 336.482Z" fill="#C75CED"/>
<path d="M189.868 253.253C188.628 242.963 189.781 232.526 193.234 222.754C198.972 207.352 217.266 211.994 227.683 215.487C238.101 218.98 251.905 233.59 248.313 241.565C244.722 249.54 227.676 239.465 221.596 234.329C215.516 229.192 204.893 244.792 204.893 244.792L189.868 253.253Z" fill="#2F2E41"/>
<path d="M208.19 243.997C209.144 241.37 208.735 238.811 207.276 238.281C205.817 237.75 203.86 239.45 202.906 242.076C201.951 244.702 202.36 247.261 203.819 247.792C205.278 248.322 207.235 246.623 208.19 243.997Z" fill="#9E616A"/>
<path d="M538.82 299L510.407 326.494L417 324.893L442.683 299H538.82Z" fill="#DDA2A6"/>
<path d="M538.82 393.055V299L510.407 326.494V418.529L538.82 393.055Z" fill="#B77B7F"/>
<path d="M417 324.893V418.529H510.407V326.494L417 324.893Z" fill="#DDA2A6"/>
<path opacity="0.3" d="M417 324.893V418.529H510.407V326.494L417 324.893Z" fill="white"/>
<path d="M502.817 352.268L433.349 340.567L424.293 385.317L495.812 398.209L502.817 352.268Z" fill="#DCE0ED"/>
<path d="M489.094 362.719L442.395 355.52L441.226 361.495L487.925 369.267L489.094 362.719Z" fill="#5F63C7"/>
<path d="M476.253 375.499L449.688 371.716L448.519 378.35L476.253 382.167V375.499Z" fill="#5F63C7"/>
<path d="M527.331 348.364L526.066 311.334L518.764 318.405L520.038 355.52L527.331 348.364Z" fill="#65617D"/>
<path d="M433.287 308.476L523.048 309.665L526.066 311.335L518.764 318.405L516.243 316.95L427.338 314.476L433.287 308.476Z" fill="#65617D"/>
<rect x="697" y="331" width="52" height="25" fill="#6C63FF"/>
<path d="M729 227.883C729.001 217.839 755.873 228.865 761.419 242.889C765.259 252.6 771.093 267.21 766.205 277.508C761.317 287.807 760.646 297.498 764.204 301.591C767.762 305.685 774.787 318.202 768.444 326.599C762.101 334.996 762.203 343.473 764.59 345.48C766.977 347.487 759.327 342.496 759.327 342.496C759.327 342.496 760.1 359.079 753.655 359C747.21 358.92 728.719 276.635 733.136 253.763C737.243 232.496 729 227.883 729 227.883Z" fill="#2F2E41"/>
<g clip-path="url(#clip1)">
<path d="M338.221 342V344.227C338.221 350.55 341.785 356.398 347.56 359.248L348.011 359.471H350.989L351.44 359.248C357.215 356.398 360.779 350.55 360.779 344.227V342H338.221Z" fill="#5F63C7"/>
<path d="M350.989 359.471H349.5V342H360.779V344.227C360.779 350.55 357.215 356.398 351.44 359.248L350.989 359.471Z" fill="#5F63C7"/>
<path d="M354.914 355.864C353.109 355.597 351.305 355.508 349.5 355.508C347.65 355.508 345.846 355.597 344.086 355.864C340.747 356.354 338.221 359.204 338.221 362.544C338.221 366.596 341.83 369.713 345.891 369.134C347.064 368.956 348.282 368.867 349.5 368.867C350.718 368.867 351.936 368.956 353.109 369.134C357.17 369.713 360.779 366.551 360.779 362.544C360.779 359.204 358.253 356.354 354.914 355.864Z" fill="#FEA832"/>
<path d="M360.779 362.544C360.779 366.552 357.17 369.713 353.109 369.134C351.936 368.956 350.718 368.867 349.5 368.867V355.508C351.305 355.508 353.109 355.597 354.914 355.864C358.253 356.354 360.779 359.204 360.779 362.544Z" fill="#FE8821"/>
<path d="M380.044 398.985C379.683 398.629 379.232 398.317 378.826 398.05V393.508C378.826 377.565 365.652 364.414 349.5 364.414C333.348 364.414 320.174 377.565 320.174 393.508V398.05C319.768 398.317 319.317 398.629 318.956 398.985C316.835 401.078 315.662 403.883 315.662 406.867C315.662 409.851 316.835 412.656 318.956 414.749C321.076 416.842 323.919 418 326.941 418H372.059C375.081 418 377.924 416.842 380.044 414.749C382.165 412.656 383.338 409.851 383.338 406.867C383.338 403.883 382.165 401.078 380.044 398.985Z" fill="#5F63C7"/>
<path d="M383.338 406.867C383.338 409.851 382.165 412.656 380.044 414.749C377.924 416.842 375.081 418 372.059 418H349.5V364.414C365.652 364.414 378.826 377.565 378.826 393.508V398.05C379.232 398.317 379.683 398.629 380.044 398.985C382.165 401.078 383.338 403.883 383.338 406.867Z" fill="#5F63C7"/>
<g clip-path="url(#clip2)">
<path d="M360.511 383.403C360.375 383.259 360.2 383.188 359.987 383.188H356.091C355.833 381.861 355.347 380.709 354.633 379.733H359.942C360.155 379.733 360.329 379.661 360.466 379.518C360.602 379.374 360.67 379.19 360.67 378.966V376.518C360.67 376.294 360.602 376.111 360.466 375.967C360.329 375.823 360.155 375.751 359.942 375.751H340.984C340.771 375.751 340.596 375.823 340.459 375.967C340.323 376.111 340.254 376.294 340.254 376.518V379.709C340.254 379.917 340.327 380.097 340.471 380.249C340.615 380.4 340.786 380.476 340.984 380.476H344.288C347.493 380.476 349.528 381.38 350.394 383.187H340.984C340.771 383.187 340.596 383.259 340.459 383.403C340.323 383.547 340.254 383.731 340.254 383.955V386.402C340.254 386.626 340.323 386.81 340.459 386.953C340.596 387.097 340.771 387.169 340.984 387.169H350.714C350.379 388.481 349.601 389.48 348.378 390.168C347.155 390.856 345.541 391.2 343.536 391.2H340.984C340.786 391.2 340.615 391.276 340.471 391.428C340.327 391.58 340.254 391.76 340.254 391.967V395.014C340.254 395.223 340.323 395.398 340.459 395.542C343.376 398.805 347.159 403.37 351.807 409.24C351.944 409.432 352.134 409.528 352.377 409.528H356.82C357.139 409.528 357.36 409.385 357.481 409.096C357.633 408.808 357.603 408.536 357.39 408.28C352.954 402.555 349.468 398.269 346.931 395.422C349.513 395.102 351.61 394.222 353.22 392.783C354.83 391.344 355.81 389.472 356.159 387.17H359.987C360.2 387.17 360.375 387.098 360.511 386.954C360.648 386.81 360.717 386.626 360.717 386.402V383.955C360.717 383.731 360.648 383.547 360.511 383.403Z" fill="white"/>
</g>
</g>
<path d="M229.412 267.426C219.24 265.916 210.632 260.769 203.404 252.411C208.496 249.666 206.492 244.057 206.958 238.587L241.263 257.123C236.523 259.372 230.164 261.59 229.412 267.426Z" fill="white"/>
<path d="M240.495 257.628L240.318 257.03L241.174 256.824L246.595 255.07L246.819 255.654L241.375 257.415L240.495 257.628Z" fill="white"/>
<path d="M206.07 234.784L205.482 234.983L207.286 239.527L207.873 239.328L206.07 234.784Z" fill="white"/>
<path d="M239.665 261.268L228.848 266.582L229.152 267.133L239.969 261.82L239.665 261.268Z" fill="white"/>
<path d="M203.611 240.451L202.981 240.464L203.786 252.488L204.416 252.476L203.611 240.451Z" fill="white"/>
<path d="M728.114 271.348C720.947 275.126 713.431 274.972 705.608 271.348C707.884 266.425 704.482 262.569 702.735 257.6L731.945 256.5C729.711 260.817 726.415 265.918 728.114 271.348Z" fill="white"/>
<path d="M731.636 257.321L731.297 256.892L731.775 256.285L734.636 252.055L735 252.45L732.127 256.697L731.636 257.321Z" fill="white"/>
<path d="M732.461 260.888L727.432 270.898L727.836 271.224L732.865 261.214L732.461 260.888Z" fill="white"/>
</g>
<defs>
<clipPath id="clip0">
<rect width="888" height="423.679" fill="white"/>
</clipPath>
<clipPath id="clip1">
<rect width="77" height="76" fill="white" transform="translate(311 342)"/>
</clipPath>
<clipPath id="clip2">
<rect width="32.0833" height="33.7778" fill="white" transform="translate(334.444 375.751)"/>
</clipPath>
</defs>
</svg>
