<svg width="861" height="586" viewBox="0 0 861 586" fill="none" xmlns="http://www.w3.org/2000/svg">
<g id="buy-1" clip-path="url(#clip0)">
<g id="background2">
<path id="Vector" opacity="0.1" d="M282.318 -58.8458C307.518 -89.6888 347.052 -95.9782 383.047 -93.5186C496.092 -85.8051 598.147 -10.8066 686.386 74.0198C718.345 104.723 749.801 137.82 770.542 180.109C812.761 266.198 800.24 385.46 741.495 456.381C721.524 480.503 697.306 499.004 672.412 515.402C628.206 544.53 580.515 567.961 530.32 574.628C494.546 579.375 458.332 575.513 422.77 568.889C323.399 550.366 225.858 509.415 144.081 439.357C108.22 408.622 74.4241 370.421 59.6497 320.689C44.8752 270.956 54.4527 208.061 91.0669 178.578C106.21 166.409 124.313 160.907 142.04 155.75C168.126 148.198 194.637 140.647 218.188 125.22C242.525 109.275 271.304 78.4213 266.492 43.1121C261.318 5.24602 257.197 -28.0351 282.318 -58.8458Z" fill="#6C63FF"/>
</g>
<g id="background">
<path id="Vector_2" opacity="0.1" d="M393.832 58.1917H324.321C321.472 58.1917 319.162 60.5547 319.162 63.4697V83.5408C319.162 86.4558 321.472 88.8188 324.321 88.8188H393.832C396.681 88.8188 398.991 86.4558 398.991 83.5408V63.4697C398.991 60.5547 396.681 58.1917 393.832 58.1917Z" fill="#6C63FF"/>
<path id="Vector_3" opacity="0.1" d="M631.323 30.6272H561.812C558.963 30.6272 556.653 32.9903 556.653 35.9053V55.9763C556.653 58.8913 558.963 61.2544 561.812 61.2544H631.323C634.173 61.2544 636.482 58.8913 636.482 55.9763V35.9053C636.482 32.9903 634.173 30.6272 631.323 30.6272Z" fill="#6C63FF"/>
<path id="Vector_4" opacity="0.1" d="M587.418 342.004H517.906C515.057 342.004 512.747 344.367 512.747 347.282V367.353C512.747 370.268 515.057 372.631 517.906 372.631H587.418C590.267 372.631 592.576 370.268 592.576 367.353V347.282C592.576 344.367 590.267 342.004 587.418 342.004Z" fill="#6C63FF"/>
<path id="Vector_5" opacity="0.1" d="M623.341 375.693H553.829C550.98 375.693 548.671 378.056 548.671 380.971V401.042C548.671 403.957 550.98 406.321 553.829 406.321H623.341C626.19 406.321 628.5 403.957 628.5 401.042V380.971C628.5 378.056 626.19 375.693 623.341 375.693Z" fill="#6C63FF"/>
<path id="Vector_6" opacity="0.1" d="M187.275 384.882H117.763C114.914 384.882 112.604 387.245 112.604 390.16V410.231C112.604 413.146 114.914 415.509 117.763 415.509H187.275C190.124 415.509 192.433 413.146 192.433 410.231V390.16C192.433 387.245 190.124 384.882 187.275 384.882Z" fill="#6C63FF"/>
<path id="Vector_7" opacity="0.1" d="M562.471 409.383H492.96C490.111 409.383 487.801 411.746 487.801 414.661V434.732C487.801 437.647 490.111 440.01 492.96 440.01H562.471C565.32 440.01 567.63 437.647 567.63 434.732V414.661C567.63 411.746 565.32 409.383 562.471 409.383Z" fill="#6C63FF"/>
<path id="Vector_8" opacity="0.1" d="M315.999 242.976H246.488C243.639 242.976 241.329 245.339 241.329 248.254V268.325C241.329 271.24 243.639 273.603 246.488 273.603H315.999C318.848 273.603 321.158 271.24 321.158 268.325V248.254C321.158 245.339 318.848 242.976 315.999 242.976Z" fill="#6C63FF"/>
<path id="Vector_9" opacity="0.1" d="M351.922 276.666H282.411C279.562 276.666 277.252 279.029 277.252 281.944V302.015C277.252 304.93 279.562 307.293 282.411 307.293H351.922C354.771 307.293 357.081 304.93 357.081 302.015V281.944C357.081 279.029 354.771 276.666 351.922 276.666Z" fill="#6C63FF"/>
<path id="Vector_10" opacity="0.1" d="M666.249 245.017H596.738C593.888 245.017 591.579 247.381 591.579 250.296V270.367C591.579 273.282 593.888 275.645 596.738 275.645H666.249C669.098 275.645 671.408 273.282 671.408 270.367V250.296C671.408 247.381 669.098 245.017 666.249 245.017Z" fill="#6C63FF"/>
<path id="Vector_11" opacity="0.1" d="M702.172 278.707H632.661C629.811 278.707 627.502 281.07 627.502 283.985V304.056C627.502 306.971 629.811 309.335 632.661 309.335H702.172C705.021 309.335 707.331 306.971 707.331 304.056V283.985C707.331 281.07 705.021 278.707 702.172 278.707Z" fill="#6C63FF"/>
<path id="Vector_12" opacity="0.1" d="M291.052 310.355H221.541C218.692 310.355 216.382 312.719 216.382 315.634V335.705C216.382 338.62 218.692 340.983 221.541 340.983H291.052C293.901 340.983 296.211 338.62 296.211 335.705V315.634C296.211 312.719 293.901 310.355 291.052 310.355Z" fill="#6C63FF"/>
<path id="Vector_13" opacity="0.1" d="M370.881 429.801H301.37C298.521 429.801 296.211 432.164 296.211 435.079V455.15C296.211 458.065 298.521 460.429 301.37 460.429H370.881C373.73 460.429 376.04 458.065 376.04 455.15V435.079C376.04 432.164 373.73 429.801 370.881 429.801Z" fill="#6C63FF"/>
<path id="Vector_14" opacity="0.1" d="M406.804 463.491H337.293C334.444 463.491 332.134 465.854 332.134 468.769V488.84C332.134 491.755 334.444 494.119 337.293 494.119H406.804C409.654 494.119 411.963 491.755 411.963 488.84V468.769C411.963 465.854 409.654 463.491 406.804 463.491Z" fill="#6C63FF"/>
</g>
<path id="Vector_15" d="M448.82 404.737C442.136 379.915 405.025 361.621 376.068 356.899V344.975C376.603 344.771 377.135 344.561 377.664 344.345C377.512 341.962 377.044 339.612 376.273 337.358C388.643 332.213 399.323 323.571 407.066 312.441C415.215 303.716 421.356 293.238 425.04 281.774C428.724 270.309 429.859 258.148 428.36 246.177C426.861 234.207 422.768 222.73 416.379 212.586C409.989 202.441 401.465 193.885 391.43 187.543C394.182 185.768 396.32 183.153 397.543 180.068C398.765 176.982 399.009 173.583 398.242 170.348C397.474 167.113 395.733 164.206 393.265 162.037C390.796 159.868 387.724 158.548 384.483 158.261C387.129 151.867 387.603 144.75 385.828 138.048C384.054 131.347 380.133 125.448 374.694 121.295C369.255 117.143 362.612 114.977 355.827 115.144C349.043 115.311 342.509 117.801 337.271 122.217C341.892 119.702 347.069 118.453 352.301 118.592C357.533 118.732 362.64 120.254 367.126 123.012C371.612 125.77 375.324 129.669 377.901 134.329C380.477 138.99 381.83 144.253 381.829 149.608C381.829 149.88 381.813 150.148 381.806 150.419C381.674 145.928 380.589 141.52 378.628 137.5C376.667 133.48 373.875 129.944 370.447 127.136C367.018 124.328 363.034 122.316 358.771 121.239C354.507 120.161 350.066 120.044 345.754 120.895C341.442 121.747 337.362 123.546 333.797 126.169C330.231 128.793 327.265 132.177 325.104 136.088C322.943 139.999 321.638 144.344 321.279 148.822C320.921 153.3 321.518 157.804 323.028 162.023C320.712 162.536 318.545 163.596 316.702 165.12C314.859 166.644 313.391 168.588 312.415 170.797C311.439 173.007 310.983 175.419 311.083 177.841C311.184 180.264 311.838 182.628 312.993 184.745C302.02 190.644 292.554 199.095 285.356 209.419C278.158 219.744 273.429 231.653 271.551 244.188C269.672 256.723 270.696 269.534 274.54 281.59C278.383 293.647 284.94 304.612 293.681 313.603C301.046 323.756 310.897 331.742 322.242 336.758V356.632C292.978 360.909 254.441 379.543 247.707 404.977C241.839 427.14 235.575 451.481 232.459 465.771C259.173 484.975 315.226 496.252 350.355 496.252C383.732 496.252 438.285 486.074 464.212 468.588C461.404 452.885 454.943 427.476 448.82 404.737ZM395.307 175.462C395.307 175.745 395.295 176.024 395.281 176.303C395.085 172.798 393.733 169.465 391.446 166.848C389.159 164.231 386.072 162.485 382.689 161.895C382.983 161.386 383.263 160.869 383.529 160.342C386.875 161.127 389.862 163.049 392.001 165.796C394.141 168.542 395.306 171.95 395.307 175.462Z" fill="url(#paint0_linear)"/>
<path id="Vector_16" d="M350.298 490.824C382.724 490.824 435.723 480.936 460.912 463.948C458.184 448.693 451.906 424.007 445.957 401.915C438.381 373.78 390.565 354.275 362.04 354.275H334.553C305.94 354.275 258.054 373.893 250.574 402.149C244.873 423.681 238.787 447.328 235.759 461.212C261.712 479.869 316.169 490.824 350.298 490.824Z" fill="#9234B4"/>
<path id="Vector_17" d="M350.096 336.899C390.326 336.899 422.94 301.704 422.94 258.289C422.94 214.874 390.326 179.679 350.096 179.679C309.865 179.679 277.252 214.874 277.252 258.289C277.252 301.704 309.865 336.899 350.096 336.899Z" fill="black"/>
<path id="Vector_18" d="M329.007 312.582H369.256C370.853 312.582 372.385 313.231 373.514 314.387C374.643 315.542 375.278 317.109 375.278 318.743V360.847C375.278 364.169 374.638 367.459 373.396 370.528C372.153 373.597 370.332 376.386 368.035 378.735C365.739 381.084 363.013 382.948 360.013 384.219C357.013 385.49 353.798 386.145 350.551 386.145H347.712C344.465 386.145 341.249 385.49 338.249 384.219C335.249 382.948 332.523 381.084 330.227 378.735C327.931 376.386 326.11 373.597 324.867 370.528C323.625 367.459 322.985 364.169 322.985 360.847V318.743C322.985 317.934 323.141 317.133 323.443 316.385C323.746 315.638 324.19 314.959 324.749 314.387C325.308 313.814 325.972 313.361 326.703 313.051C327.433 312.741 328.216 312.582 329.007 312.582Z" fill="#FDA57D"/>
<path id="Vector_19" opacity="0.05" d="M351.547 348.228C360.208 348.233 368.79 346.542 376.829 343.244C376.417 336.749 373.605 330.656 368.964 326.204C364.323 321.752 358.2 319.272 351.837 319.27H349.694C343.437 319.271 337.407 321.666 332.789 325.984C328.17 330.303 325.297 336.232 324.733 342.607C333.205 346.326 342.329 348.238 351.547 348.228Z" fill="black"/>
<path id="Vector_20" d="M350.595 343.024C377.874 343.024 399.989 311.715 399.989 273.092C399.989 234.47 377.874 203.16 350.595 203.16C323.315 203.16 301.201 234.47 301.201 273.092C301.201 311.715 323.315 343.024 350.595 343.024Z" fill="#FDA57D"/>
<path id="Vector_21" d="M326.862 195.917C334.998 195.917 341.593 189.17 341.593 180.846C341.593 172.523 334.998 165.775 326.862 165.775C318.726 165.775 312.131 172.523 312.131 180.846C312.131 189.17 318.726 195.917 326.862 195.917Z" fill="black"/>
<path id="Vector_22" d="M379.238 195.917C387.374 195.917 393.969 189.17 393.969 180.846C393.969 172.523 387.374 165.775 379.238 165.775C371.103 165.775 364.507 172.523 364.507 180.846C364.507 189.17 371.103 195.917 379.238 195.917Z" fill="black"/>
<path id="Vector_23" d="M351.413 185.87C367.685 185.87 380.875 172.375 380.875 155.728C380.875 139.081 367.685 125.586 351.413 125.586C335.142 125.586 321.952 139.081 321.952 155.728C321.952 172.375 335.142 185.87 351.413 185.87Z" fill="black"/>
<path id="Vector_24" d="M382.512 162.426C379.583 162.422 376.719 163.315 374.291 164.991C377.67 163.755 381.375 163.825 384.707 165.187C388.04 166.549 390.772 169.11 392.389 172.388C394.006 175.666 394.398 179.435 393.49 182.987C392.582 186.539 390.437 189.63 387.459 191.678C390.729 190.487 393.482 188.152 395.232 185.086C396.983 182.02 397.619 178.42 397.027 174.921C396.435 171.422 394.654 168.249 391.998 165.963C389.342 163.677 385.982 162.424 382.512 162.426Z" fill="black"/>
<path id="Vector_25" d="M356.324 120.563C349.485 120.552 342.858 122.986 337.587 127.443C344.034 123.936 351.526 123.004 358.607 124.828C365.689 126.651 371.856 131.101 375.912 137.313C379.968 143.526 381.625 151.058 380.56 158.45C379.495 165.841 375.786 172.564 370.15 177.315C375.955 174.159 380.562 169.107 383.236 162.964C385.911 156.82 386.5 149.938 384.911 143.412C383.321 136.886 379.643 131.092 374.463 126.951C369.282 122.811 362.897 120.562 356.324 120.563Z" fill="black"/>
<path id="Vector_26" d="M300.674 209.314C300.674 209.314 308.858 264.574 411.973 234.432L361.234 189.219L300.674 209.314Z" fill="black"/>
<path id="Vector_27" d="M670.017 554.517H25.7903V576.86H670.017V554.517Z" fill="#E0E0E0"/>
<g id="Group" opacity="0.7">
<path id="Vector_28" opacity="0.7" d="M470.42 393.111H225.388C217.397 393.111 210.919 399.739 210.919 407.914V539.714C210.919 547.89 217.397 554.517 225.388 554.517H470.42C478.411 554.517 484.889 547.89 484.889 539.714V407.914C484.889 399.739 478.411 393.111 470.42 393.111Z" fill="url(#paint1_linear)"/>
</g>
<path id="Vector_29" d="M453.148 396.089H242.66C227.871 396.089 215.882 408.355 215.882 423.485V527.121C215.882 542.252 227.871 554.517 242.66 554.517H453.148C467.937 554.517 479.925 542.252 479.925 527.121V423.485C479.925 408.355 467.937 396.089 453.148 396.089Z" fill="#85858C"/>
<path id="Vector_30" d="M347.904 484.443C352.838 484.443 356.837 480.351 356.837 475.303C356.837 470.255 352.838 466.163 347.904 466.163C342.97 466.163 338.97 470.255 338.97 475.303C338.97 480.351 342.97 484.443 347.904 484.443Z" fill="white"/>
<path id="Vector_31" d="M642.719 576.86H53.088V586H642.719V576.86Z" fill="#E0E0E0"/>
<path id="Vector_32" opacity="0.1" d="M642.719 576.86H53.088V579.907H642.719V576.86Z" fill="black"/>
<g id="apple 1">
<path id="Vector_33" d="M353.656 461.92C357.495 463.571 358.919 468.405 358.919 472.007C358.919 478.424 352.943 487.174 349.103 487.174C348.151 487.174 347.253 486.622 346.601 486.206C346.03 485.842 344.973 485.972 344.61 486.206C343.961 486.626 343.035 487.174 342.108 487.174C337.519 487.174 332.328 478.523 332.291 472.007C332.274 468.87 333.913 462.917 338.361 461.632C338.556 461.575 338.755 461.532 338.955 461.501C341.781 461.081 343.579 463.704 344.461 464.978C344.527 465.072 344.609 465.152 344.702 465.215C345.21 465.568 346.095 465.545 346.64 465.082C346.678 465.05 346.715 465.015 346.75 464.978C347.924 463.728 349.68 460.716 352.85 461.632C353.124 461.711 353.393 461.807 353.656 461.92Z" fill="#BD5DDF"/>
<path id="Vector_34" d="M338.423 474.975C336.887 472.037 335.543 465.564 339.098 461.963C339.254 461.805 339.419 461.657 339.593 461.521C339.62 461.499 339.648 461.479 339.675 461.458C339.434 461.451 339.193 461.466 338.955 461.501C338.754 461.532 338.556 461.575 338.361 461.632C333.913 462.917 332.274 468.87 332.291 472.007C332.328 478.522 337.519 487.174 342.108 487.174C343.035 487.174 343.961 486.626 344.61 486.206C344.973 485.972 346.03 485.842 346.601 486.206C347.253 486.622 348.151 487.174 349.103 487.174C350.442 487.174 352.04 486.11 353.555 484.452C348.915 485.326 341.292 480.461 338.423 474.975Z" fill="#9441B0"/>
<g id="Group_2" opacity="0.6">
<path id="Vector_35" opacity="0.6" d="M335.767 473.898C335.677 473.898 335.59 473.865 335.521 473.804C335.452 473.744 335.405 473.659 335.388 473.566C334.496 468.546 336.554 466.3 336.643 466.207C336.715 466.131 336.813 466.089 336.914 466.089C337.016 466.089 337.114 466.131 337.186 466.207C337.259 466.282 337.3 466.385 337.3 466.492C337.301 466.6 337.262 466.703 337.19 466.78C337.179 466.793 336.718 467.303 336.362 468.358C336.029 469.344 335.721 471.023 336.147 473.416C336.158 473.475 336.155 473.535 336.141 473.593C336.127 473.651 336.101 473.705 336.065 473.751C336.028 473.797 335.983 473.834 335.932 473.859C335.88 473.885 335.824 473.898 335.768 473.898L335.767 473.898Z" fill="#BD5DDF"/>
</g>
<g id="Group_3" opacity="0.6">
<path id="Vector_36" opacity="0.6" d="M336.127 475.839C336.039 475.839 335.954 475.807 335.885 475.749C335.817 475.691 335.769 475.61 335.75 475.519L335.58 474.695C335.568 474.642 335.567 474.588 335.576 474.535C335.584 474.482 335.603 474.431 335.63 474.386C335.658 474.341 335.693 474.301 335.735 474.271C335.777 474.24 335.824 474.218 335.874 474.207C335.924 474.195 335.975 474.194 336.025 474.204C336.075 474.213 336.123 474.234 336.166 474.263C336.209 474.292 336.246 474.33 336.275 474.374C336.303 474.419 336.323 474.469 336.334 474.521L336.504 475.346C336.516 475.405 336.516 475.467 336.503 475.526C336.489 475.585 336.464 475.64 336.428 475.688C336.391 475.735 336.346 475.773 336.293 475.799C336.241 475.826 336.185 475.839 336.127 475.839Z" fill="#BD5DDF"/>
</g>
</g>
<path id="Vector_37" d="M443.194 194.051L443.747 193.787L443.378 193.298C427.809 172.646 421.054 147.708 424.327 123.004C427.6 98.2994 440.688 75.4469 461.234 58.5965C481.782 41.7452 508.425 32.0164 536.334 31.1852C564.244 30.354 591.556 38.476 613.319 54.0689C635.082 69.6611 649.849 91.6864 654.961 116.143C660.072 140.597 655.196 165.881 641.205 187.411C627.214 208.943 605.029 225.301 578.665 233.503C552.3 241.705 523.512 241.204 497.527 232.091L497.039 231.92L496.884 232.413C495.22 237.713 492.108 242.568 487.819 246.541C483.53 250.514 478.199 253.48 472.302 255.169C466.404 256.858 460.128 257.216 454.036 256.21C447.944 255.204 442.231 252.867 437.408 249.411C432.584 245.955 428.803 241.49 426.395 236.42C423.988 231.35 423.029 225.83 423.6 220.353C424.171 214.876 426.256 209.605 429.673 205.015C433.091 200.424 437.735 196.655 443.194 194.051Z" fill="#C9D1EE" stroke="#36344D"/>
<g id="plant">
<path id="Vector_38" d="M579.662 556.394C579.435 556.111 574.079 549.312 572.222 535.192C570.519 522.237 571.615 500.402 586.507 469.943C614.72 412.24 580.005 365.683 579.65 365.219L581.363 364.463C581.453 364.581 590.411 376.451 595.702 395.353C602.695 420.413 600.148 446.469 588.363 470.467C560.198 528.071 581.137 555.34 581.351 555.609L579.662 556.394Z" fill="#3F3D56"/>
<path id="Vector_39" d="M572.619 367.526C579.784 367.526 585.592 361.584 585.592 354.254C585.592 346.925 579.784 340.983 572.619 340.983C565.455 340.983 559.647 346.925 559.647 354.254C559.647 361.584 565.455 367.526 572.619 367.526Z" fill="#9441B0"/>
<path id="Vector_40" d="M609.237 405.3C616.402 405.3 622.209 399.358 622.209 392.028C622.209 384.698 616.402 378.756 609.237 378.756C602.073 378.756 596.265 384.698 596.265 392.028C596.265 399.358 602.073 405.3 609.237 405.3Z" fill="#CA82E3"/>
<path id="Vector_41" d="M581.297 437.969C588.461 437.969 594.269 432.027 594.269 424.697C594.269 417.367 588.461 411.425 581.297 411.425C574.133 411.425 568.325 417.367 568.325 424.697C568.325 432.027 574.133 437.969 581.297 437.969Z" fill="#9441B0"/>
<path id="Vector_42" d="M615.224 465.533C622.389 465.533 628.197 459.591 628.197 452.261C628.197 444.931 622.389 438.99 615.224 438.99C608.06 438.99 602.252 444.931 602.252 452.261C602.252 459.591 608.06 465.533 615.224 465.533Z" fill="#9441B0"/>
<path id="Vector_43" d="M565.634 492.077C572.798 492.077 578.606 486.135 578.606 478.805C578.606 471.475 572.798 465.533 565.634 465.533C558.47 465.533 552.662 471.475 552.662 478.805C552.662 486.135 558.47 492.077 565.634 492.077Z" fill="#CA82E3"/>
<path id="Vector_44" d="M583.676 543.122C583.676 543.122 570.703 510.453 609.62 485.951L583.676 543.122Z" fill="#6C63FF"/>
<path id="Vector_45" d="M568.337 542.856C568.337 542.856 562.433 508.115 516.739 508.413L568.337 542.856Z" fill="#6C63FF"/>
</g>
<g id="earphones">
<path id="Vector_46" d="M540.224 142.956L539.113 141.028C542.908 138.263 546.25 134.78 549 130.727C562.541 110.818 559.045 81.7484 541.206 65.9263C523.368 50.1043 497.839 53.4294 484.298 73.3387C481.714 77.1286 479.683 81.3707 478.278 85.9087L476.381 85.1114C478.609 77.9184 482.324 71.4687 487.219 66.2952C492.115 61.1216 498.05 57.3726 504.535 55.3581C511.02 53.3435 517.869 53.1212 524.515 54.7094C531.161 56.2976 537.414 59.6509 542.757 64.492C548.101 69.3332 552.381 75.5233 555.244 82.551C558.107 89.5786 559.471 97.2421 559.223 104.908C558.976 112.574 557.124 120.023 553.82 126.639C550.516 133.254 545.856 138.847 540.224 142.956Z" fill="black"/>
<path id="Vector_47" d="M496.084 78.4591C493.057 75.7742 489.241 74.5413 485.475 75.0317C481.71 75.5222 478.304 77.6957 476.006 81.0743C473.708 84.4528 472.707 88.7595 473.222 93.047C473.738 97.3345 475.728 101.252 478.755 103.937L481.591 106.451L498.919 80.9739L496.084 78.4591Z" fill="black"/>
<path id="Vector_48" d="M500.206 79.2533C499.531 78.6558 498.68 78.3816 497.841 78.4909C497.002 78.6002 496.243 79.084 495.73 79.8363L479.836 103.204C479.324 103.957 479.101 104.917 479.216 105.873C479.331 106.829 479.774 107.702 480.449 108.301C481.124 108.899 481.975 109.174 482.814 109.065C483.653 108.956 484.413 108.471 484.925 107.718L500.819 84.35C501.33 83.5964 501.553 82.6365 501.438 81.6811C501.323 80.7256 500.88 79.8525 500.206 79.2533Z" fill="#6C63FF"/>
<path id="Vector_49" d="M521.575 141.916L524.41 144.431C527.437 147.116 531.253 148.349 535.019 147.858C538.784 147.368 542.19 145.194 544.488 141.816C545.626 140.143 546.457 138.224 546.935 136.17C547.413 134.116 547.527 131.966 547.272 129.843C546.756 125.555 544.766 121.638 541.739 118.953L538.903 116.439L521.575 141.916Z" fill="black"/>
<path id="Vector_50" d="M540.045 114.589C539.37 113.992 538.519 113.717 537.68 113.827C536.841 113.936 536.082 114.42 535.569 115.172L519.675 138.54C519.164 139.293 518.941 140.253 519.056 141.208C519.171 142.164 519.615 143.036 520.289 143.635C520.964 144.233 521.814 144.508 522.653 144.399C523.492 144.29 524.252 143.806 524.764 143.054L540.658 119.686C541.169 118.932 541.392 117.972 541.277 117.017C541.162 116.061 540.719 115.188 540.045 114.589Z" fill="#6C63FF"/>
</g>
<g id="joystick">
<path id="Vector_51" d="M555.928 168.635L554.963 167.806C554.963 167.806 556.031 161.58 561.194 160.209L562.072 160.962L555.928 168.635Z" fill="#DEABF0"/>
<path id="Vector_52" d="M587.227 130.474L586.261 129.645C586.261 129.645 587.329 123.419 592.493 122.047L593.37 122.801L587.227 130.474Z" fill="#DEABF0"/>
<path id="Vector_53" d="M566.154 155.985L562.788 160.089C562.788 160.089 560.7 160.082 557.923 163.65C555.146 167.219 555.626 168.822 555.626 168.822C555.626 168.822 555.123 174.268 557.375 177.54C557.375 177.54 566.672 192.739 576.607 201.417C586.541 210.094 591.097 207.457 593.008 205.675C594.918 203.892 597.504 200.011 591.503 188.907L587.542 182.977C587.542 182.977 584.685 180.078 589.194 178.592C593.704 177.106 593.011 171.749 593.011 171.749L602.68 159.96C602.68 159.96 608.361 158.14 609.366 152.902C609.366 152.902 608.669 149.923 615.975 153.963C615.975 153.963 632.085 160.947 635.853 153.617C639.622 146.286 628.34 137.792 628.34 137.792C628.34 137.792 611.29 124.569 602.704 123.001C602.704 123.001 594.006 121.114 591.952 123.071C591.952 123.071 587.207 127.033 586.492 129.545L586.511 131.347L566.154 155.985Z" fill="black"/>
<path id="Vector_54" d="M574.585 179.443C578.027 175.247 577.398 168.911 573.18 165.29C568.963 161.67 562.754 162.136 559.313 166.332C555.872 170.528 556.501 176.864 560.718 180.485C564.936 184.106 571.144 183.639 574.585 179.443Z" fill="#DEABF0"/>
<path id="Vector_55" d="M607.102 139.797C610.543 135.601 609.914 129.265 605.696 125.644C601.479 122.024 595.27 122.49 591.829 126.686C588.388 130.882 589.017 137.219 593.234 140.839C597.452 144.46 603.66 143.993 607.102 139.797Z" fill="#DEABF0"/>
<path id="Vector_56" d="M566.332 170.102L566.402 171.888C566.408 172.039 566.359 172.185 566.265 172.3C566.171 172.414 566.039 172.488 565.893 172.509L564.16 172.751C564.075 172.762 563.989 172.756 563.906 172.731C563.823 172.707 563.745 172.665 563.679 172.608L561.201 170.481C561.076 170.373 560.997 170.221 560.98 170.057C560.964 169.893 561.013 169.731 561.115 169.606L562.78 167.576C562.882 167.452 563.029 167.375 563.189 167.362C563.35 167.35 563.51 167.403 563.636 167.51L566.113 169.637C566.179 169.695 566.233 169.766 566.271 169.847C566.309 169.927 566.33 170.014 566.332 170.102Z" fill="black"/>
<path id="Vector_57" d="M569.737 173.025L568.006 173.265C567.86 173.286 567.728 173.361 567.634 173.475C567.54 173.589 567.492 173.735 567.497 173.886L567.566 175.674C567.569 175.762 567.59 175.848 567.628 175.927C567.666 176.006 567.72 176.077 567.786 176.135L570.262 178.259C570.386 178.367 570.547 178.421 570.707 178.409C570.868 178.397 571.015 178.321 571.118 178.197L572.784 176.165C572.887 176.041 572.935 175.879 572.919 175.715C572.903 175.551 572.824 175.399 572.699 175.291L570.223 173.165C570.156 173.108 570.077 173.066 569.993 173.042C569.91 173.018 569.822 173.012 569.737 173.025Z" fill="black"/>
<path id="Vector_58" d="M566.893 175.725L566.608 173.953C566.584 173.804 566.507 173.667 566.392 173.568C566.277 173.469 566.132 173.416 565.984 173.417L564.229 173.438C564.143 173.439 564.059 173.458 563.982 173.495C563.905 173.531 563.837 173.584 563.783 173.65L561.763 176.113C561.661 176.237 561.613 176.399 561.63 176.563C561.646 176.727 561.726 176.879 561.851 176.987L563.891 178.739C564.016 178.846 564.177 178.9 564.337 178.888C564.498 178.877 564.645 178.8 564.748 178.676L566.769 176.212C566.822 176.145 566.861 176.067 566.882 175.983C566.904 175.899 566.907 175.811 566.893 175.725Z" fill="black"/>
<path id="Vector_59" d="M569.671 172.337L567.917 172.355C567.769 172.357 567.624 172.304 567.509 172.205C567.394 172.106 567.317 171.969 567.293 171.82L567.008 170.048C566.994 169.961 566.998 169.873 567.02 169.79C567.042 169.706 567.081 169.628 567.135 169.562L569.154 167.099C569.256 166.974 569.403 166.897 569.564 166.885C569.724 166.873 569.885 166.926 570.01 167.033L572.053 168.786C572.178 168.894 572.257 169.046 572.274 169.21C572.29 169.373 572.243 169.535 572.141 169.66L570.12 172.123C570.066 172.19 569.997 172.243 569.92 172.28C569.842 172.317 569.758 172.337 569.671 172.337Z" fill="black"/>
<path id="Vector_60" d="M589.269 174.489C591.761 171.45 591.305 166.862 588.251 164.24C585.197 161.618 580.701 161.956 578.209 164.994C575.717 168.033 576.173 172.621 579.227 175.243C582.281 177.865 586.777 177.527 589.269 174.489Z" fill="#DEABF0"/>
<path id="Vector_61" d="M604.882 155.452C607.374 152.413 606.919 147.825 603.865 145.203C600.811 142.581 596.315 142.919 593.823 145.957C591.331 148.996 591.786 153.584 594.84 156.206C597.894 158.828 602.39 158.49 604.882 155.452Z" fill="#DEABF0"/>
<path id="Vector_62" d="M587.426 172.906C589.087 170.881 588.783 167.822 586.747 166.074C584.711 164.326 581.714 164.551 580.053 166.577C578.391 168.602 578.695 171.661 580.731 173.409C582.767 175.157 585.764 174.932 587.426 172.906Z" fill="black"/>
<path id="Vector_63" d="M586.284 171.927C585.874 172.428 585.323 172.789 584.702 172.965C584.08 173.142 583.417 173.125 582.794 172.917C582.172 172.71 581.619 172.321 581.205 171.799C580.792 171.277 580.536 170.647 580.471 169.987C580.405 169.327 580.533 168.668 580.837 168.092C581.142 167.517 581.61 167.051 582.182 166.754C582.754 166.456 583.405 166.341 584.052 166.422C584.699 166.503 585.313 166.777 585.816 167.209C586.49 167.789 586.918 168.612 587.006 169.496C587.094 170.381 586.834 171.255 586.284 171.927ZM581.369 167.707C580.987 168.173 580.752 168.749 580.694 169.36C580.637 169.971 580.759 170.591 581.046 171.141C581.332 171.692 581.77 172.147 582.305 172.451C582.839 172.755 583.446 172.893 584.047 172.847C584.649 172.802 585.22 172.576 585.686 172.197C586.153 171.818 586.495 171.304 586.669 170.719C586.843 170.134 586.841 169.505 586.664 168.911C586.486 168.318 586.142 167.786 585.673 167.384C585.044 166.845 584.238 166.577 583.431 166.637C582.624 166.698 581.883 167.083 581.369 167.707Z" fill="#DEABF0"/>
<path id="Vector_64" d="M603.039 153.869C604.7 151.844 604.397 148.785 602.361 147.037C600.325 145.289 597.327 145.514 595.666 147.54C594.005 149.565 594.308 152.624 596.344 154.372C598.38 156.12 601.378 155.895 603.039 153.869Z" fill="black"/>
<path id="Vector_65" d="M601.898 152.89C601.487 153.391 600.936 153.752 600.315 153.928C599.694 154.105 599.03 154.088 598.408 153.88C597.785 153.673 597.232 153.284 596.819 152.762C596.405 152.24 596.149 151.61 596.084 150.95C596.018 150.29 596.146 149.631 596.451 149.055C596.755 148.48 597.223 148.014 597.796 147.717C598.368 147.419 599.018 147.304 599.665 147.385C600.312 147.466 600.926 147.74 601.429 148.172C602.104 148.752 602.532 149.575 602.619 150.459C602.707 151.344 602.448 152.218 601.898 152.89ZM596.983 148.67C596.6 149.136 596.365 149.712 596.308 150.323C596.25 150.934 596.372 151.554 596.659 152.104C596.946 152.655 597.384 153.11 597.918 153.414C598.452 153.718 599.059 153.856 599.661 153.81C600.263 153.765 600.833 153.539 601.3 153.16C601.766 152.781 602.108 152.267 602.282 151.682C602.456 151.097 602.454 150.468 602.277 149.874C602.1 149.281 601.755 148.749 601.286 148.347C600.657 147.808 599.851 147.54 599.044 147.6C598.237 147.661 597.496 148.046 596.983 148.67Z" fill="#DEABF0"/>
<path id="Vector_66" d="M593.883 161.932C594.595 161.064 594.465 159.753 593.593 159.004C592.72 158.255 591.435 158.351 590.723 159.22C590.011 160.088 590.142 161.399 591.014 162.148C591.887 162.897 593.171 162.8 593.883 161.932Z" fill="#DEABF0"/>
<path id="Vector_67" d="M585.404 158.747C585.559 158.558 585.531 158.271 585.341 158.108C585.15 157.945 584.87 157.966 584.715 158.155C584.559 158.345 584.588 158.631 584.778 158.794C584.968 158.958 585.249 158.936 585.404 158.747Z" fill="#DEABF0"/>
<path id="Vector_68" d="M586.458 157.462C586.614 157.272 586.585 156.986 586.395 156.823C586.204 156.659 585.924 156.68 585.769 156.87C585.613 157.059 585.642 157.345 585.832 157.509C586.023 157.672 586.303 157.651 586.458 157.462Z" fill="#DEABF0"/>
<path id="Vector_69" d="M587.955 159.038C588.11 158.849 588.082 158.563 587.892 158.399C587.701 158.236 587.421 158.257 587.265 158.446C587.11 158.636 587.138 158.922 587.329 159.085C587.519 159.249 587.8 159.227 587.955 159.038Z" fill="#DEABF0"/>
<path id="Vector_70" d="M588.984 157.875C589.142 157.682 589.113 157.391 588.919 157.225C588.725 157.058 588.44 157.08 588.282 157.273C588.124 157.465 588.153 157.757 588.346 157.923C588.54 158.089 588.825 158.068 588.984 157.875Z" fill="#DEABF0"/>
<path id="Vector_71" d="M589.923 156.638C590.078 156.449 590.05 156.163 589.86 155.999C589.669 155.836 589.389 155.857 589.234 156.047C589.078 156.236 589.107 156.522 589.297 156.685C589.487 156.849 589.768 156.828 589.923 156.638Z" fill="#DEABF0"/>
<path id="Vector_72" d="M586.758 158.887C586.913 158.698 586.885 158.411 586.695 158.248C586.504 158.085 586.224 158.106 586.069 158.295C585.913 158.485 585.942 158.771 586.132 158.934C586.322 159.098 586.603 159.076 586.758 158.887Z" fill="#DEABF0"/>
<path id="Vector_73" d="M587.692 157.808C587.85 157.615 587.821 157.324 587.628 157.158C587.434 156.991 587.149 157.013 586.991 157.206C586.832 157.399 586.861 157.69 587.055 157.856C587.249 158.022 587.534 158.001 587.692 157.808Z" fill="#DEABF0"/>
<path id="Vector_74" d="M588.623 156.673C588.781 156.48 588.752 156.189 588.559 156.023C588.365 155.856 588.08 155.878 587.922 156.07C587.763 156.263 587.792 156.554 587.986 156.721C588.18 156.887 588.465 156.866 588.623 156.673Z" fill="#DEABF0"/>
<path id="Vector_75" d="M589.57 155.459C589.725 155.269 589.697 154.983 589.506 154.82C589.316 154.656 589.036 154.677 588.88 154.867C588.725 155.056 588.753 155.342 588.944 155.506C589.134 155.669 589.414 155.648 589.57 155.459Z" fill="#DEABF0"/>
<path id="Vector_76" d="M587.316 156.443C587.474 156.25 587.445 155.959 587.251 155.793C587.058 155.627 586.772 155.648 586.614 155.841C586.456 156.034 586.485 156.325 586.679 156.491C586.872 156.658 587.158 156.636 587.316 156.443Z" fill="#DEABF0"/>
<path id="Vector_77" d="M588.319 155.221C588.477 155.028 588.448 154.737 588.254 154.57C588.06 154.404 587.775 154.426 587.617 154.618C587.459 154.811 587.488 155.102 587.681 155.269C587.875 155.435 588.16 155.414 588.319 155.221Z" fill="#DEABF0"/>
<path id="Vector_78" d="M589.13 154.204C589.285 154.015 589.257 153.729 589.066 153.565C588.876 153.402 588.596 153.423 588.44 153.612C588.285 153.802 588.313 154.088 588.504 154.251C588.694 154.415 588.974 154.394 589.13 154.204Z" fill="#DEABF0"/>
<path id="Vector_79" d="M564.789 159.203C564.657 159.365 564.595 159.575 564.616 159.788C564.637 160.001 564.74 160.198 564.902 160.338L566.745 161.92C566.908 162.06 567.116 162.129 567.325 162.113C567.533 162.098 567.725 161.998 567.857 161.837L568.216 161.4C568.348 161.239 568.41 161.028 568.389 160.816C568.368 160.603 568.265 160.405 568.103 160.265L566.26 158.683C566.097 158.544 565.889 158.474 565.68 158.49C565.472 158.506 565.28 158.605 565.148 158.766L564.789 159.203Z" fill="#DEABF0"/>
<path id="Vector_80" d="M585.703 133.704C585.57 133.866 585.508 134.076 585.529 134.289C585.55 134.502 585.653 134.699 585.815 134.839L587.659 136.421C587.821 136.561 588.03 136.63 588.238 136.614C588.447 136.599 588.638 136.499 588.771 136.338L589.129 135.901C589.261 135.74 589.324 135.529 589.303 135.316C589.281 135.104 589.178 134.906 589.016 134.766L587.173 133.184C587.01 133.045 586.802 132.975 586.594 132.991C586.385 133.006 586.194 133.106 586.061 133.267L585.703 133.704Z" fill="#DEABF0"/>
<path id="Vector_81" d="M596.991 130.969C597.941 129.812 597.767 128.064 596.604 127.065C595.44 126.066 593.728 126.195 592.778 127.352C591.829 128.51 592.002 130.258 593.166 131.257C594.329 132.255 596.042 132.127 596.991 130.969Z" fill="black"/>
<path id="Vector_82" d="M597.815 139.266C598.765 138.108 598.591 136.36 597.428 135.361C596.264 134.363 594.551 134.491 593.602 135.649C592.653 136.806 592.826 138.554 593.99 139.553C595.153 140.552 596.866 140.423 597.815 139.266Z" fill="black"/>
<path id="Vector_83" d="M605 129.958C605.95 128.8 605.776 127.052 604.613 126.054C603.449 125.055 601.737 125.184 600.787 126.341C599.838 127.498 600.012 129.246 601.175 130.245C602.338 131.244 604.051 131.115 605 129.958Z" fill="black"/>
<path id="Vector_84" d="M606.143 138.23C607.092 137.073 606.919 135.325 605.755 134.326C604.592 133.327 602.879 133.456 601.93 134.614C600.981 135.771 601.154 137.519 602.318 138.518C603.481 139.517 605.194 139.388 606.143 138.23Z" fill="black"/>
<path id="Vector_85" d="M566.801 154.197C566.418 154.665 566.237 155.275 566.298 155.892C566.359 156.509 566.658 157.083 567.128 157.487L574.984 164.231C575.455 164.635 576.059 164.836 576.663 164.79C577.268 164.745 577.823 164.457 578.208 163.989L592.926 146.043C593.31 145.575 593.491 144.965 593.429 144.348C593.368 143.731 593.07 143.158 592.599 142.753L584.744 136.009C584.272 135.605 583.668 135.404 583.064 135.45C582.46 135.495 581.904 135.783 581.52 136.251L566.801 154.197Z" fill="#DEABF0"/>
<path id="Vector_86" d="M597.018 128.566L594.687 131.408L593.448 128.006L597.018 128.566ZM594.761 130.953L596.584 128.73L593.792 128.293L594.761 130.953Z" fill="#DEABF0"/>
<path id="Vector_87" d="M597.729 137.183L595.795 139.54L593.688 137.732L595.622 135.374L597.729 137.183ZM595.763 139.215L597.41 137.207L595.655 135.7L594.007 137.708L595.763 139.215Z" fill="#DEABF0"/>
<path id="Vector_88" d="M604.21 129.28C603.998 129.539 603.713 129.726 603.392 129.817C603.07 129.908 602.727 129.9 602.405 129.792C602.083 129.685 601.797 129.483 601.583 129.214C601.369 128.944 601.237 128.618 601.203 128.276C601.169 127.935 601.235 127.594 601.393 127.296C601.551 126.999 601.793 126.758 602.089 126.604C602.385 126.45 602.721 126.39 603.056 126.432C603.39 126.474 603.708 126.616 603.968 126.84C604.317 127.14 604.538 127.565 604.584 128.022C604.629 128.48 604.495 128.932 604.21 129.28ZM601.753 127.17C601.569 127.394 601.456 127.671 601.428 127.966C601.4 128.26 601.459 128.558 601.597 128.823C601.735 129.088 601.946 129.308 602.203 129.454C602.461 129.6 602.753 129.667 603.042 129.645C603.332 129.623 603.607 129.514 603.831 129.332C604.056 129.149 604.221 128.902 604.304 128.62C604.388 128.338 604.387 128.036 604.302 127.75C604.217 127.464 604.051 127.208 603.825 127.014C603.522 126.755 603.134 126.626 602.745 126.655C602.357 126.684 602 126.869 601.753 127.17Z" fill="#DEABF0"/>
<path id="Vector_89" d="M602.214 136.464L602.237 136.694L605.823 136.424L605.8 136.194L602.214 136.464Z" fill="#DEABF0"/>
<path id="Vector_90" d="M603.759 134.576L604.044 138.242L604.269 138.23L603.984 134.564L603.759 134.576Z" fill="#DEABF0"/>
</g>
<ellipse id="Ellipse 1" cx="327" cy="267.5" rx="10" ry="4.5" fill="black"/>
<g id="face">
<line id="Line 1" x1="351.5" y1="271.017" x2="350.5" y2="301.017" stroke="black"/>
<line id="Line 2" x1="350" y1="300.5" x2="359" y2="300.5" stroke="black"/>
<line id="Line 4" x1="339.118" y1="255" x2="319.882" y2="255" stroke="black"/>
<path id="Line 6" d="M365.269 315C356.077 320.008 350.923 320.764 341.731 315" stroke="black"/>
<line id="Line 5" x1="383.118" y1="255" x2="363.882" y2="255" stroke="black"/>
<ellipse id="Ellipse 2" cx="374" cy="267.5" rx="10" ry="4.5" fill="black"/>
</g>
<path id="Vector_91" d="M387.74 302.494C384.928 309.786 383.619 317.538 386.192 325.551C363.786 336.357 340.303 335.939 315.827 325.556C319.262 318.317 318.317 311.829 315.844 305.399C314.638 302.264 313.063 299.129 311.456 295.928C311.384 295.786 311.313 295.644 311.242 295.502C309.657 292.347 308.052 289.119 306.719 285.72L398.129 282.531C397.479 283.681 396.804 284.853 396.117 286.045C393.146 291.201 389.963 296.726 387.74 302.494Z" fill="white" stroke="white"/>
<path id="Vector_92" d="M398.934 284.175L398.946 284.161L398.957 284.146L407.88 271.773L408.348 272.248L399.296 284.796L398.098 286.223L397.654 285.696L398.934 284.175Z" fill="white" stroke="white"/>
<path id="Vector_93" d="M308.067 288.487L299.647 280.251L300.043 279.693L308.464 287.929L308.067 288.487Z" fill="white" stroke="white"/>
<path id="Vector_94" d="M385.989 326.72L385.505 326.359L401.019 297.754L401.503 298.116L385.989 326.72Z" fill="white" stroke="white"/>
<path id="Vector_95" d="M316.517 326.721L301.007 298.114L301.49 297.752L317.001 326.36L316.517 326.721Z" fill="white" stroke="white"/>
</g>
<defs>
<linearGradient id="paint0_linear" x1="348.336" y1="496.252" x2="348.336" y2="115.135" gradientUnits="userSpaceOnUse">
<stop stop-color="#808080" stop-opacity="0.25"/>
<stop offset="0.53514" stop-color="#808080" stop-opacity="0.12"/>
<stop offset="1" stop-color="#808080" stop-opacity="0.1"/>
</linearGradient>
<linearGradient id="paint1_linear" x1="88649.3" y1="88063" x2="88649.3" y2="62544.5" gradientUnits="userSpaceOnUse">
<stop stop-color="#808080" stop-opacity="0.25"/>
<stop offset="0.53514" stop-color="#808080" stop-opacity="0.12"/>
<stop offset="1" stop-color="#808080" stop-opacity="0.1"/>
</linearGradient>
<clipPath id="clip0">
<rect width="861" height="586" fill="white"/>
</clipPath>
</defs>
</svg>
