<svg width="509" height="205" viewBox="0 0 509 205" fill="none" xmlns="http://www.w3.org/2000/svg">
<rect width="509" height="205" fill="url(#paint0_linear)"/>
<path opacity="0.3" d="M244.67 114.469V100.983H236.792V114.469H227.462V93.6081H220.62V78.0148H215.022V62H203.412V78.0148H197.814V93.6081H191.179V74.854H187.447V65.3715H185.166V74.854H171.897V134.699H161.738V128.377H155.518V134.699H145.359V114.469H127.114V100.983H119.236V114.469H118.821V140.388H110.528V125.216H100.576V140.388H92.2827V93.6081H85.8555V78.0148H62.2199V93.6081H56V176H92.2827H118.821H145.359H171.897H191.179H227.462H254V114.469H244.67Z" fill="#6F69D1"/>
<path opacity="0.4" d="M68.6468 98.4547H59.939V103.512H68.6468V98.4547Z" fill="white"/>
<path opacity="0.4" d="M79.4279 103.512H88.1357V98.4547H79.4279V103.512Z" fill="white"/>
<path opacity="0.4" d="M68.6468 108.359H59.939V113.416H68.6468V108.359Z" fill="white"/>
<path opacity="0.4" d="M79.4279 113.416H88.1357V108.359H79.4279V113.416Z" fill="white"/>
<path opacity="0.4" d="M68.6468 118.262H59.939V123.32H68.6468V118.262Z" fill="white"/>
<path opacity="0.4" d="M79.4279 123.32H88.1357V118.262H79.4279V123.32Z" fill="white"/>
<path opacity="0.4" d="M68.6468 128.166H59.939V133.224H68.6468V128.166Z" fill="white"/>
<path opacity="0.4" d="M79.4279 133.224H88.1357V128.166H79.4279V133.224Z" fill="white"/>
<path opacity="0.4" d="M68.6468 138.07H59.939V143.128H68.6468V138.07Z" fill="white"/>
<path opacity="0.4" d="M79.4279 143.128H88.1357V138.07H79.4279V143.128Z" fill="white"/>
<path opacity="0.4" d="M68.6468 147.974H59.939V153.031H68.6468V147.974Z" fill="white"/>
<path opacity="0.4" d="M79.4279 153.031H88.1357V147.974H79.4279V153.031Z" fill="white"/>
<path opacity="0.4" d="M68.6468 157.878H59.939V162.935H68.6468V157.878Z" fill="white"/>
<path opacity="0.4" d="M79.4279 162.935H88.1357V157.878H79.4279V162.935Z" fill="white"/>
<path opacity="0.4" d="M115.711 145.445H95.3926V147.974H115.711V145.445Z" fill="white"/>
<path opacity="0.4" d="M115.711 149.238H95.3926V151.767H115.711V149.238Z" fill="white"/>
<path opacity="0.4" d="M115.711 153.031H95.3926V155.56H115.711V153.031Z" fill="white"/>
<path opacity="0.4" d="M168.787 146.71H148.469V149.238H168.787V146.71Z" fill="white"/>
<path opacity="0.4" d="M168.787 150.503H148.469V153.031H168.787V150.503Z" fill="white"/>
<path opacity="0.4" d="M168.787 154.296H148.469V156.824H168.787V154.296Z" fill="white"/>
<path opacity="0.4" d="M115.711 156.824H95.3926V159.353H115.711V156.824Z" fill="white"/>
<path opacity="0.4" d="M115.711 160.617H95.3926V163.146H115.711V160.617Z" fill="white"/>
<path opacity="0.4" d="M115.711 164.41H95.3926V166.939H115.711V164.41Z" fill="white"/>
<path opacity="0.4" d="M128.773 119.316H123.175V126.691H128.773V119.316Z" fill="white"/>
<path opacity="0.4" d="M135.407 126.691H141.005V119.316H135.407V126.691Z" fill="white"/>
<path opacity="0.4" d="M128.773 131.116H123.175V138.492H128.773V131.116Z" fill="white"/>
<path opacity="0.4" d="M135.407 138.492H141.005V131.116H135.407V138.492Z" fill="white"/>
<path opacity="0.4" d="M128.773 142.917H123.175V150.292H128.773V142.917Z" fill="white"/>
<path opacity="0.4" d="M135.407 150.292H141.005V142.917H135.407V150.292Z" fill="white"/>
<path opacity="0.4" d="M128.773 154.717H123.175V162.092H128.773V154.717Z" fill="white"/>
<path opacity="0.4" d="M135.407 162.093H141.005V154.717H135.407V162.093Z" fill="white"/>
<path opacity="0.4" d="M181.849 79.7006H174.385V89.3937H181.849V79.7006Z" fill="white"/>
<path opacity="0.4" d="M181.849 93.6082H174.385V103.301H181.849V93.6082Z" fill="white"/>
<path opacity="0.4" d="M181.849 107.516H174.385V117.209H181.849V107.516Z" fill="white"/>
<path opacity="0.4" d="M181.849 121.423H174.385V131.116H181.849V121.423Z" fill="white"/>
<path opacity="0.4" d="M181.849 135.331H174.385V145.024H181.849V135.331Z" fill="white"/>
<path opacity="0.4" d="M181.849 149.238H174.385V158.932H181.849V149.238Z" fill="white"/>
<path opacity="0.4" d="M223.211 99.5083H195.429V107.726H223.211V99.5083Z" fill="white"/>
<path opacity="0.4" d="M223.315 117.209H195.533V125.427H223.315V117.209Z" fill="white"/>
<path opacity="0.4" d="M223.419 134.909H195.637V143.128H223.419V134.909Z" fill="white"/>
<path opacity="0.4" d="M223.522 152.61H195.74V160.828H223.522V152.61Z" fill="white"/>
<path opacity="0.4" d="M75.8901 82.4399H72.1582V90.4473H75.8901V82.4399Z" fill="white"/>
<path opacity="0.4" d="M245.5 119.316H236.17V131.538H245.5V119.316Z" fill="white"/>
<path opacity="0.4" d="M245.5 137.017H236.17V149.239H245.5V137.017Z" fill="white"/>
<path opacity="0.4" d="M245.5 154.928H236.17V167.15H245.5V154.928Z" fill="white"/>
<path opacity="0.3" d="M442.67 114.469V100.983H434.792V114.469H425.462V93.6081H418.62V78.0148H413.022V62H401.412V78.0148H395.814V93.6081H389.179V74.854H385.447V65.3715H383.166V74.854H369.897V134.699H359.738V128.377H353.518V134.699H343.359V114.469H325.114V100.983H317.236V114.469H316.821V140.388H308.528V125.216H298.576V140.388H290.283V93.6081H283.855V78.0148H260.22V93.6081H254V176H290.283H316.821H343.359H369.897H389.179H425.462H452V114.469H442.67Z" fill="#6F69D1"/>
<path opacity="0.4" d="M266.647 98.4547H257.939V103.512H266.647V98.4547Z" fill="white"/>
<path opacity="0.4" d="M277.428 103.512H286.136V98.4547H277.428V103.512Z" fill="white"/>
<path opacity="0.4" d="M266.647 108.359H257.939V113.416H266.647V108.359Z" fill="white"/>
<path opacity="0.4" d="M277.428 113.416H286.136V108.359H277.428V113.416Z" fill="white"/>
<path opacity="0.4" d="M266.647 118.262H257.939V123.32H266.647V118.262Z" fill="white"/>
<path opacity="0.4" d="M277.428 123.32H286.136V118.262H277.428V123.32Z" fill="white"/>
<path opacity="0.4" d="M266.647 128.166H257.939V133.224H266.647V128.166Z" fill="white"/>
<path opacity="0.4" d="M277.428 133.224H286.136V128.166H277.428V133.224Z" fill="white"/>
<path opacity="0.4" d="M266.647 138.07H257.939V143.127H266.647V138.07Z" fill="white"/>
<path opacity="0.4" d="M277.428 143.127H286.136V138.07H277.428V143.127Z" fill="white"/>
<path opacity="0.4" d="M266.647 147.974H257.939V153.031H266.647V147.974Z" fill="white"/>
<path opacity="0.4" d="M277.428 153.031H286.136V147.974H277.428V153.031Z" fill="white"/>
<path opacity="0.4" d="M266.647 157.878H257.939V162.935H266.647V157.878Z" fill="white"/>
<path opacity="0.4" d="M277.428 162.935H286.136V157.878H277.428V162.935Z" fill="white"/>
<path opacity="0.4" d="M313.711 145.445H293.393V147.974H313.711V145.445Z" fill="white"/>
<path opacity="0.4" d="M313.711 149.238H293.393V151.767H313.711V149.238Z" fill="white"/>
<path opacity="0.4" d="M313.711 153.031H293.393V155.56H313.711V153.031Z" fill="white"/>
<path opacity="0.4" d="M366.787 146.71H346.469V149.238H366.787V146.71Z" fill="white"/>
<path opacity="0.4" d="M366.787 150.503H346.469V153.031H366.787V150.503Z" fill="white"/>
<path opacity="0.4" d="M366.787 154.296H346.469V156.824H366.787V154.296Z" fill="white"/>
<path opacity="0.4" d="M313.711 156.824H293.393V159.353H313.711V156.824Z" fill="white"/>
<path opacity="0.4" d="M313.711 160.617H293.393V163.146H313.711V160.617Z" fill="white"/>
<path opacity="0.4" d="M313.711 164.41H293.393V166.939H313.711V164.41Z" fill="white"/>
<path opacity="0.4" d="M326.773 119.316H321.175V126.691H326.773V119.316Z" fill="white"/>
<path opacity="0.4" d="M333.407 126.691H339.005V119.316H333.407V126.691Z" fill="white"/>
<path opacity="0.4" d="M326.773 131.116H321.175V138.492H326.773V131.116Z" fill="white"/>
<path opacity="0.4" d="M333.407 138.492H339.005V131.116H333.407V138.492Z" fill="white"/>
<path opacity="0.4" d="M326.773 142.917H321.175V150.292H326.773V142.917Z" fill="white"/>
<path opacity="0.4" d="M333.407 150.292H339.005V142.917H333.407V150.292Z" fill="white"/>
<path opacity="0.4" d="M326.773 154.717H321.175V162.092H326.773V154.717Z" fill="white"/>
<path opacity="0.4" d="M333.407 162.093H339.005V154.717H333.407V162.093Z" fill="white"/>
<path opacity="0.4" d="M379.85 79.7006H372.386V89.3937H379.85V79.7006Z" fill="white"/>
<path opacity="0.4" d="M379.85 93.6082H372.386V103.301H379.85V93.6082Z" fill="white"/>
<path opacity="0.4" d="M379.85 107.516H372.386V117.209H379.85V107.516Z" fill="white"/>
<path opacity="0.4" d="M379.85 121.423H372.386V131.116H379.85V121.423Z" fill="white"/>
<path opacity="0.4" d="M379.85 135.331H372.386V145.024H379.85V135.331Z" fill="white"/>
<path opacity="0.4" d="M379.85 149.238H372.386V158.932H379.85V149.238Z" fill="white"/>
<path opacity="0.4" d="M421.212 99.5083H393.43V107.726H421.212V99.5083Z" fill="white"/>
<path opacity="0.4" d="M421.315 117.209H393.533V125.427H421.315V117.209Z" fill="white"/>
<path opacity="0.4" d="M421.419 134.91H393.637V143.128H421.419V134.91Z" fill="white"/>
<path opacity="0.4" d="M421.522 152.61H393.74V160.828H421.522V152.61Z" fill="white"/>
<path opacity="0.4" d="M273.89 82.4398H270.158V90.4472H273.89V82.4398Z" fill="white"/>
<path opacity="0.4" d="M443.5 119.316H434.17V131.538H443.5V119.316Z" fill="white"/>
<path opacity="0.4" d="M443.5 137.017H434.17V149.239H443.5V137.017Z" fill="white"/>
<path opacity="0.4" d="M443.5 154.928H434.17V167.15H443.5V154.928Z" fill="white"/>
<path d="M80.2072 52.5446C79.7503 52.7253 78.9477 52.8739 78.0188 52.9934C75.4932 53.3187 72.0321 53.4342 72.0321 53.4342C72.0321 53.4342 54.24 55.0182 40.9052 49.1271C40.9052 49.1271 38.9656 48.0357 40.7649 46.5667C41.0419 46.3472 41.3365 46.1543 41.6451 45.9904L41.6671 45.9668C41.8717 45.7637 42.0929 45.5807 42.3279 45.42C43.0187 44.9406 44.1852 44.3723 45.6052 44.6298L80.6282 50.7101C80.6282 50.7101 81.9073 51.8703 80.2072 52.5446Z" fill="#3F3D56"/>
<path d="M73.2285 49.7886L80.5603 44.2048L83.7917 44.8048L80.6277 50.7099C80.6277 50.7099 73.3127 50.7726 73.2285 49.7886Z" fill="#3F3D56"/>
<path d="M54.7705 46.3964L69.3747 42L71.7287 42.5282L65.1317 45.7136L63.07 48.1897L54.7705 46.3964Z" fill="#3F3D56"/>
<path d="M78.0188 52.9934C75.4932 53.3187 72.0321 53.4342 72.0321 53.4342C72.0321 53.4342 54.24 55.0181 40.9052 49.1271C40.9052 49.1271 38.9656 48.0356 40.7649 46.5667L40.7709 46.5938C40.7709 46.5938 43.6483 48.6813 57.3961 50.4239L78.0188 52.9934Z" fill="#6C63FF"/>
<path d="M75.6707 52.8728L82.1999 55.7345L83.8401 55.5392L79.9348 52.3883C79.9348 52.3883 75.2109 51.3064 75.6707 52.8728Z" fill="#3F3D56"/>
<path d="M43.139 46.8995C42.8275 46.905 42.1138 46.3442 41.6699 45.9667C41.8746 45.7636 42.0958 45.5806 42.3308 45.4199C42.6886 45.7146 43.3251 46.1916 43.6792 46.173C44.1904 46.1504 43.6081 46.8904 43.139 46.8995Z" fill="#6C63FF"/>
<path d="M72.8007 62.7645L68.6086 63L56.8224 54.4692L54.6344 52.8853L53.5718 52.1156C55.5656 50.3083 63.7005 52.8009 63.7005 52.8009C63.8562 52.942 63.9058 53.1764 63.8988 53.4355C63.8852 53.9205 63.6729 54.4898 63.591 54.6946C63.5714 54.7448 63.5592 54.7714 63.5592 54.7714L72.8007 62.7645Z" fill="#3F3D56"/>
<path d="M245.121 49.3915L249.397 51.5301L246.804 47.8104C247.537 47.3454 248.446 47.0878 249.386 47.0787H249.452C249.749 47.0811 250.047 47.0636 250.34 47.0264L251.786 47.7494L251.168 46.8783C252.194 46.5946 253.08 46.0626 253.7 45.3582L256.288 46.6649L254.633 44.3172C255.321 43.6145 256.199 43.0418 257.203 42.641C258.207 42.2401 259.312 42.0211 260.437 42C263.129 42 265.529 43.2631 267.058 45.2362C267.518 45.8285 268.169 46.3137 268.944 46.642C269.72 46.9703 270.592 47.13 271.472 47.1048H271.615C274.589 47.1048 277 49.7704 277 53.0546C277 56.3387 274.589 59 271.615 59C270.961 58.9983 270.317 58.8713 269.739 58.6298C268.726 58.2406 267.619 58.03 266.492 58.0127C265.366 57.9954 264.249 58.1718 263.218 58.5296C262.349 58.8343 261.409 58.9918 260.459 58.9918C259.509 58.9918 258.569 58.8343 257.7 58.5296C256.677 58.1793 255.571 58.0069 254.456 58.0242C253.341 58.0415 252.244 58.248 251.24 58.6298C250.666 58.864 250.031 58.9878 249.386 58.9913C246.412 58.9913 244.001 56.33 244.001 53.0459C243.98 51.7729 244.365 50.5161 245.121 49.3915V49.3915Z" fill="#F2F2F2"/>
<path opacity="0.03" d="M198.252 93.0969C196.26 92.8626 194.2 93.0002 192.337 93.492C191.223 93.794 190.02 93.9507 188.803 93.9522C187.584 93.9489 186.38 93.7876 185.269 93.479C183.947 93.1239 182.516 92.9493 181.073 92.9672C179.631 92.9852 178.212 93.1954 176.915 93.5831C176.177 93.8238 175.355 93.9505 174.519 93.9522C171.134 93.9522 168.314 91.8553 167.727 89.0941C168.402 88.7898 168.978 88.4098 169.423 87.9741C171.402 86.0074 174.477 84.7484 177.904 84.7484C181.332 84.7484 184.393 85.9944 186.386 87.935C186.977 88.5219 187.804 89.005 188.789 89.3375C189.773 89.6699 190.881 89.8403 192.004 89.8322H192.096C194.761 89.8322 197.114 91.1607 198.252 93.0969Z" fill="black"/>
<path d="M437.121 49.3915L441.397 51.5301L438.804 47.8104C439.537 47.3454 440.446 47.0878 441.386 47.0787H441.452C441.749 47.0811 442.047 47.0636 442.34 47.0264L443.786 47.7494L443.168 46.8783C444.194 46.5946 445.08 46.0626 445.7 45.3582L448.288 46.6649L446.633 44.3172C447.321 43.6145 448.199 43.0418 449.203 42.641C450.207 42.2401 451.312 42.0211 452.437 42C455.129 42 457.529 43.2631 459.058 45.2362C459.518 45.8285 460.169 46.3137 460.944 46.642C461.72 46.9703 462.592 47.13 463.472 47.1048H463.615C466.589 47.1048 469 49.7704 469 53.0546C469 56.3387 466.589 59 463.615 59C462.961 58.9983 462.317 58.8713 461.739 58.6298C460.726 58.2406 459.619 58.03 458.492 58.0127C457.366 57.9954 456.249 58.1718 455.218 58.5296C454.349 58.8343 453.409 58.9918 452.459 58.9918C451.509 58.9918 450.569 58.8343 449.7 58.5296C448.677 58.1793 447.571 58.0069 446.456 58.0242C445.341 58.0415 444.244 58.248 443.24 58.6298C442.666 58.864 442.031 58.9878 441.386 58.9913C438.412 58.9913 436.001 56.33 436.001 53.0459C435.98 51.7729 436.365 50.5161 437.121 49.3915V49.3915Z" fill="#F2F2F2"/>
<defs>
<linearGradient id="paint0_linear" x1="0" y1="102.5" x2="509" y2="102.5" gradientUnits="userSpaceOnUse">
<stop stop-color="#5D9FFF"/>
<stop offset="0.48" stop-color="#B8DCFF"/>
<stop offset="1" stop-color="#6BBBFF"/>
</linearGradient>
</defs>
</svg>
