<svg width="136" height="95" viewBox="0 0 136 95" fill="none" xmlns="http://www.w3.org/2000/svg">
<g opacity="0.9">
<rect width="136" height="95" fill="url(#paint0_linear)"/>
<path opacity="0.3" d="M120.628 49.536V42.2015H116.092V49.536H110.72V38.1904H106.781V29.7098H103.558V21H96.8733V29.7098H93.6503V38.1904H89.8304V27.9908H87.6817V22.8336H86.3686V27.9908H78.7288V60.5379H72.8796V57.0998H69.2984V60.5379H63.4492V49.536H52.9445V42.2015H48.4084V49.536H48.1696V63.6322H43.3948V55.3808H37.6649V63.6322H32.8901V38.1904H29.1895V29.7098H15.5812V38.1904H12V83H32.8901H48.1696H63.4492H78.7288H89.8304H110.72H126V49.536H120.628Z" fill="#6F69D1"/>
<path d="M125.592 20.174L124.038 20.803L124.98 19.7089C124.714 19.5722 124.383 19.4964 124.042 19.4937H124.017C123.909 19.4944 123.801 19.4893 123.694 19.4784L123.169 19.691L123.393 19.4348C123.02 19.3514 122.698 19.1949 122.473 18.9877L121.532 19.372L122.134 18.6815C121.883 18.4748 121.564 18.3064 121.199 18.1885C120.834 18.0706 120.432 18.0062 120.023 18C119.044 18 118.171 18.3715 117.615 18.9518C117.448 19.126 117.211 19.2687 116.929 19.3653C116.647 19.4619 116.33 19.5088 116.01 19.5014H115.958C114.877 19.5014 114 20.2854 114 21.2513C114 22.2173 114.877 23 115.958 23C116.196 22.9995 116.43 22.9621 116.64 22.8911C117.009 22.7766 117.411 22.7147 117.821 22.7096C118.23 22.7045 118.637 22.7564 119.012 22.8616C119.328 22.9513 119.669 22.9976 120.015 22.9976C120.36 22.9976 120.702 22.9513 121.018 22.8616C121.39 22.7586 121.792 22.7079 122.198 22.713C122.603 22.7181 123.002 22.7788 123.367 22.8911C123.576 22.96 123.807 22.9964 124.042 22.9974C125.123 22.9974 126 22.2147 126 21.2488C126.007 20.8744 125.867 20.5047 125.592 20.174V20.174Z" fill="#F2F2F2"/>
<path opacity="0.03" d="M122.665 22.7335C122.1 22.6644 121.515 22.705 120.986 22.8501C120.67 22.9392 120.328 22.9854 119.983 22.9859C119.637 22.9849 119.295 22.9373 118.98 22.8462C118.604 22.7415 118.198 22.6899 117.789 22.6952C117.379 22.7006 116.976 22.7626 116.608 22.877C116.399 22.948 116.165 22.9854 115.928 22.9859C114.967 22.9859 114.167 22.3671 114 21.5524C114.192 21.4626 114.355 21.3504 114.482 21.2219C115.043 20.6415 115.916 20.27 116.889 20.27C117.862 20.27 118.731 20.6377 119.297 21.2103C119.464 21.3835 119.699 21.5261 119.979 21.6242C120.258 21.7223 120.573 21.7725 120.892 21.7701H120.918C121.674 21.7701 122.342 22.1622 122.665 22.7335Z" fill="black"/>
<path opacity="0.4" d="M19.2817 40.8263H14.2681V43.5768H19.2817V40.8263Z" fill="white"/>
<path opacity="0.4" d="M25.4893 43.5767H30.5029V40.8262H25.4893V43.5767Z" fill="white"/>
<path opacity="0.4" d="M19.2817 46.2125H14.2681V48.963H19.2817V46.2125Z" fill="white"/>
<path opacity="0.4" d="M25.4893 48.963H30.5029V46.2126H25.4893V48.963Z" fill="white"/>
<path opacity="0.4" d="M19.2817 51.5989H14.2681V54.3493H19.2817V51.5989Z" fill="white"/>
<path opacity="0.4" d="M25.4893 54.3494H30.5029V51.5989H25.4893V54.3494Z" fill="white"/>
<path opacity="0.4" d="M19.2817 56.9852H14.2681V59.7357H19.2817V56.9852Z" fill="white"/>
<path opacity="0.4" d="M25.4893 59.7356H30.5029V56.9851H25.4893V59.7356Z" fill="white"/>
<path opacity="0.4" d="M19.2817 62.3715H14.2681V65.1219H19.2817V62.3715Z" fill="white"/>
<path opacity="0.4" d="M25.4893 65.1219H30.5029V62.3715H25.4893V65.1219Z" fill="white"/>
<path opacity="0.4" d="M19.2817 67.7579H14.2681V70.5084H19.2817V67.7579Z" fill="white"/>
<path opacity="0.4" d="M25.4893 70.5083H30.5029V67.7578H25.4893V70.5083Z" fill="white"/>
<path opacity="0.4" d="M19.2817 73.1443H14.2681V75.8947H19.2817V73.1443Z" fill="white"/>
<path opacity="0.4" d="M25.4893 75.8947H30.5029V73.1442H25.4893V75.8947Z" fill="white"/>
<path opacity="0.4" d="M46.3791 66.3827H34.6807V67.7579H46.3791V66.3827Z" fill="white"/>
<path opacity="0.4" d="M46.3791 68.4454H34.6807V69.8207H46.3791V68.4454Z" fill="white"/>
<path opacity="0.4" d="M46.3791 70.5083H34.6807V71.8835H46.3791V70.5083Z" fill="white"/>
<path opacity="0.4" d="M76.9377 67.0702H65.2393V68.4454H76.9377V67.0702Z" fill="white"/>
<path opacity="0.4" d="M76.9377 69.1331H65.2393V70.5083H76.9377V69.1331Z" fill="white"/>
<path opacity="0.4" d="M76.9377 71.1959H65.2393V72.5712H76.9377V71.1959Z" fill="white"/>
<path opacity="0.4" d="M46.3791 72.571H34.6807V73.9463H46.3791V72.571Z" fill="white"/>
<path opacity="0.4" d="M46.3791 74.6342H34.6807V76.0094H46.3791V74.6342Z" fill="white"/>
<path opacity="0.4" d="M46.3791 76.6969H34.6807V78.0721H46.3791V76.6969Z" fill="white"/>
<path opacity="0.4" d="M53.8993 52.1719H50.6763V56.183H53.8993V52.1719Z" fill="white"/>
<path opacity="0.4" d="M57.7198 56.1831H60.9429V52.172H57.7198V56.1831Z" fill="white"/>
<path opacity="0.4" d="M53.8993 58.5897H50.6763V62.6008H53.8993V58.5897Z" fill="white"/>
<path opacity="0.4" d="M57.7198 62.6007H60.9429V58.5896H57.7198V62.6007Z" fill="white"/>
<path opacity="0.4" d="M53.8993 65.0073H50.6763V69.0184H53.8993V65.0073Z" fill="white"/>
<path opacity="0.4" d="M57.7198 69.0184H60.9429V65.0073H57.7198V69.0184Z" fill="white"/>
<path opacity="0.4" d="M53.8993 71.4252H50.6763V75.4363H53.8993V71.4252Z" fill="white"/>
<path opacity="0.4" d="M57.7198 75.4363H60.9429V71.4252H57.7198V75.4363Z" fill="white"/>
<path opacity="0.4" d="M84.4585 30.6267H80.1611V35.8984H84.4585V30.6267Z" fill="white"/>
<path opacity="0.4" d="M84.4585 38.1904H80.1611V43.4621H84.4585V38.1904Z" fill="white"/>
<path opacity="0.4" d="M84.4585 45.7542H80.1611V51.0259H84.4585V45.7542Z" fill="white"/>
<path opacity="0.4" d="M84.4585 53.3179H80.1611V58.5896H84.4585V53.3179Z" fill="white"/>
<path opacity="0.4" d="M84.4585 60.8817H80.1611V66.1534H84.4585V60.8817Z" fill="white"/>
<path opacity="0.4" d="M84.4585 68.4454H80.1611V73.7172H84.4585V68.4454Z" fill="white"/>
<path opacity="0.4" d="M108.274 41.3993H92.2778V45.8688H108.274V41.3993Z" fill="white"/>
<path opacity="0.4" d="M108.333 51.0259H92.3374V55.4954H108.333V51.0259Z" fill="white"/>
<path opacity="0.4" d="M108.392 60.6525H92.3965V65.122H108.392V60.6525Z" fill="white"/>
<path opacity="0.4" d="M108.452 70.2792H92.4565V74.7487H108.452V70.2792Z" fill="white"/>
<path opacity="0.4" d="M23.4524 32.1165H21.3037V36.4714H23.4524V32.1165Z" fill="white"/>
<path opacity="0.4" d="M121.106 52.1719H115.734V58.8188H121.106V52.1719Z" fill="white"/>
<path opacity="0.4" d="M121.106 61.7986H115.734V68.4455H121.106V61.7986Z" fill="white"/>
<path opacity="0.4" d="M121.106 71.5398H115.734V78.1867H121.106V71.5398Z" fill="white"/>
<path d="M33.7568 13.0212C33.6004 13.1073 33.3258 13.178 33.008 13.2349C32.1439 13.3898 30.9597 13.4448 30.9597 13.4448C30.9597 13.4448 24.8722 14.1991 20.3097 11.3939C20.3097 11.3939 19.6461 10.8741 20.2617 10.1746C20.3565 10.0701 20.4573 9.97824 20.5629 9.90015L20.5704 9.88892C20.6404 9.79223 20.7161 9.7051 20.7965 9.62857C21.0329 9.40026 21.432 9.12963 21.9178 9.25228L33.9008 12.1476C33.9008 12.1476 34.3385 12.7001 33.7568 13.0212Z" fill="#3F3D56"/>
<path d="M31.3691 11.7088L33.8777 9.04993L34.9833 9.33561L33.9007 12.1475C33.9007 12.1475 31.3979 12.1774 31.3691 11.7088Z" fill="#3F3D56"/>
<path d="M25.0537 10.0935L30.0505 8L30.8559 8.2515L28.5988 9.76839L27.8934 10.9475L25.0537 10.0935Z" fill="#3F3D56"/>
<path d="M33.008 13.2349C32.1439 13.3898 30.9597 13.4448 30.9597 13.4448C30.9597 13.4448 24.8722 14.199 20.3097 11.3938C20.3097 11.3938 19.6461 10.8741 20.2617 10.1746L20.2638 10.1875C20.2638 10.1875 21.2482 11.1815 25.952 12.0113L33.008 13.2349Z" fill="#6C63FF"/>
<path d="M32.2046 13.1775L34.4386 14.5402L34.9998 14.4472L33.6636 12.9468C33.6636 12.9468 32.0473 12.4316 32.2046 13.1775Z" fill="#3F3D56"/>
<path d="M21.0739 10.3331C20.9674 10.3357 20.7232 10.0687 20.5713 9.88889C20.6413 9.7922 20.717 9.70507 20.7974 9.62854C20.9198 9.76887 21.1376 9.99599 21.2588 9.98714C21.4337 9.97638 21.2344 10.3288 21.0739 10.3331Z" fill="#6C63FF"/>
<path d="M31.2227 17.8878L29.7884 17.9999L25.7557 13.9377L25.0071 13.1834L24.6436 12.8169C25.3257 11.9563 28.1091 13.1433 28.1091 13.1433C28.1624 13.2104 28.1793 13.3221 28.1769 13.4454C28.1723 13.6764 28.0996 13.9475 28.0716 14.045C28.0649 14.0689 28.0607 14.0816 28.0607 14.0816L31.2227 17.8878Z" fill="#3F3D56"/>
<path d="M63.5924 23.174L62.0375 23.803L62.9805 22.7089C62.714 22.5722 62.3834 22.4964 62.0416 22.4937H62.0175C61.9093 22.4944 61.8012 22.4893 61.6944 22.4784L61.1688 22.691L61.3935 22.4348C61.0205 22.3514 60.6982 22.1949 60.4726 21.9877L59.5317 22.372L60.1336 21.6815C59.8833 21.4748 59.5639 21.3064 59.1988 21.1885C58.8337 21.0706 58.432 21.0062 58.0229 21C57.0438 21 56.1711 21.3715 55.6154 21.9518C55.4481 22.126 55.2113 22.2687 54.9293 22.3653C54.6473 22.4619 54.3301 22.5088 54.0103 22.5014H53.9582C52.8768 22.5014 52 23.2854 52 24.2513C52 25.2173 52.8768 26 53.9582 26C54.196 25.9995 54.4301 25.9621 54.6403 25.8911C55.0086 25.7766 55.4114 25.7147 55.8209 25.7096C56.2304 25.7045 56.6368 25.7564 57.0117 25.8616C57.3275 25.9513 57.6693 25.9976 58.0149 25.9976C58.3605 25.9976 58.7022 25.9513 59.018 25.8616C59.39 25.7586 59.7924 25.7079 60.1978 25.713C60.6032 25.7181 61.0021 25.7788 61.3674 25.8911C61.5759 25.96 61.8069 25.9964 62.0416 25.9974C63.1229 25.9974 63.9997 25.2147 63.9997 24.2488C64.0073 23.8744 63.8673 23.5047 63.5924 23.174V23.174Z" fill="#F2F2F2"/>
<path opacity="0.03" d="M60.6652 25.7335C60.0998 25.6644 59.5149 25.705 58.9859 25.8501C58.6699 25.9392 58.3283 25.9854 57.9828 25.9859C57.6367 25.9849 57.2949 25.9373 56.9796 25.8462C56.6044 25.7415 56.1981 25.6899 55.7886 25.6952C55.3792 25.7006 54.9764 25.7626 54.6082 25.877C54.3987 25.948 54.1652 25.9854 53.9281 25.9859C52.967 25.9859 52.1665 25.3671 52 24.5524C52.1917 24.4626 52.3551 24.3504 52.4815 24.2219C53.0433 23.6415 53.916 23.27 54.8891 23.27C55.8621 23.27 56.7309 23.6377 57.2966 24.2103C57.4644 24.3835 57.6994 24.5261 57.9788 24.6242C58.2583 24.7223 58.5728 24.7725 58.8916 24.7701H58.9177C59.6741 24.7701 60.3422 25.1622 60.6652 25.7335Z" fill="black"/>
</g>
<defs>
<linearGradient id="paint0_linear" x1="0" y1="47.5" x2="136" y2="47.5" gradientUnits="userSpaceOnUse">
<stop stop-color="#5D9FFF"/>
<stop offset="0.48" stop-color="#B8DCFF"/>
<stop offset="1" stop-color="#6BBBFF"/>
</linearGradient>
</defs>
</svg>
