<svg width="121" height="95" viewBox="0 0 121 95" fill="none" xmlns="http://www.w3.org/2000/svg">
<g opacity="0.9">
<rect width="121" height="95" fill="url(#paint0_linear)"/>
<path opacity="0.3" d="M107.016 49.1101V42.3398H102.807V49.1101H97.8232V38.6372H94.1683V30.809H91.1779V22.7692H84.9755V30.809H81.9851V38.6372H78.4409V29.2222H76.4473V24.4618H75.229V29.2222H68.1406V59.2657H62.7136V56.0921H59.3909V59.2657H53.9639V49.1101H44.2173V42.3398H40.0086V49.1101H39.7871V62.1219H35.3569V54.5053H30.0406V62.1219H25.6103V38.6372H22.1769V30.809H9.55071V38.6372H6.22803V79.9999H25.6103H39.7871H53.9639H68.1406H78.4409H97.8232H112V49.1101H107.016Z" fill="#6F69D1"/>
<path d="M111.621 22.0067L110.179 22.5874L111.054 21.5775C110.806 21.4512 110.5 21.3813 110.183 21.3788H110.16C110.06 21.3795 109.96 21.3747 109.86 21.3646L109.373 21.5609L109.581 21.3244C109.235 21.2474 108.936 21.103 108.727 20.9117L107.854 21.2665L108.412 20.6291C108.18 20.4383 107.884 20.2828 107.545 20.174C107.206 20.0652 106.833 20.0057 106.454 20C105.546 20 104.736 20.3429 104.22 20.8786C104.065 21.0394 103.845 21.1711 103.584 21.2603C103.322 21.3494 103.028 21.3928 102.731 21.3859H102.683C101.679 21.3859 100.866 22.1096 100.866 23.0012C100.866 23.8929 101.679 24.6154 102.683 24.6154C102.903 24.6149 103.12 24.5804 103.315 24.5149C103.657 24.4092 104.031 24.352 104.411 24.3473C104.791 24.3426 105.168 24.3905 105.516 24.4877C105.809 24.5704 106.126 24.6132 106.446 24.6132C106.767 24.6132 107.084 24.5704 107.377 24.4877C107.722 24.3926 108.096 24.3458 108.472 24.3505C108.848 24.3552 109.218 24.4112 109.557 24.5149C109.75 24.5784 109.965 24.6121 110.183 24.613C111.186 24.613 111.999 23.8905 111.999 22.9989C112.006 22.6533 111.876 22.3121 111.621 22.0067V22.0067Z" fill="#F2F2F2"/>
<path opacity="0.03" d="M108.906 24.3693C108.381 24.3055 107.838 24.343 107.347 24.4769C107.054 24.5592 106.737 24.6019 106.417 24.6023C106.096 24.6014 105.778 24.5575 105.486 24.4734C105.138 24.3767 104.761 24.3291 104.381 24.334C104.001 24.3389 103.627 24.3962 103.286 24.5018C103.091 24.5673 102.875 24.6018 102.655 24.6023C101.763 24.6023 101.02 24.0311 100.866 23.279C101.044 23.1961 101.195 23.0926 101.312 22.974C101.834 22.4383 102.643 22.0953 103.546 22.0953C104.449 22.0953 105.255 22.4347 105.78 22.9633C105.936 23.1232 106.154 23.2548 106.413 23.3453C106.672 23.4359 106.964 23.4823 107.26 23.4801H107.284C107.986 23.4801 108.606 23.8419 108.906 24.3693Z" fill="black"/>
<path opacity="0.4" d="M12.9838 41.0703H8.33203V43.6092H12.9838V41.0703Z" fill="white"/>
<path opacity="0.4" d="M18.7438 43.6091H23.3955V41.0702H18.7438V43.6091Z" fill="white"/>
<path opacity="0.4" d="M12.9838 46.0424H8.33203V48.5812H12.9838V46.0424Z" fill="white"/>
<path opacity="0.4" d="M18.7438 48.5813H23.3955V46.0424H18.7438V48.5813Z" fill="white"/>
<path opacity="0.4" d="M12.9838 51.0143H8.33203V53.5532H12.9838V51.0143Z" fill="white"/>
<path opacity="0.4" d="M18.7438 53.5532H23.3955V51.0143H18.7438V53.5532Z" fill="white"/>
<path opacity="0.4" d="M12.9838 55.9863H8.33203V58.5252H12.9838V55.9863Z" fill="white"/>
<path opacity="0.4" d="M18.7438 58.5251H23.3955V55.9863H18.7438V58.5251Z" fill="white"/>
<path opacity="0.4" d="M12.9838 60.9584H8.33203V63.4973H12.9838V60.9584Z" fill="white"/>
<path opacity="0.4" d="M18.7438 63.4971H23.3955V60.9582H18.7438V63.4971Z" fill="white"/>
<path opacity="0.4" d="M12.9838 65.9304H8.33203V68.4693H12.9838V65.9304Z" fill="white"/>
<path opacity="0.4" d="M18.7438 68.4692H23.3955V65.9303H18.7438V68.4692Z" fill="white"/>
<path opacity="0.4" d="M12.9838 70.9025H8.33203V73.4414H12.9838V70.9025Z" fill="white"/>
<path opacity="0.4" d="M18.7438 73.4413H23.3955V70.9024H18.7438V73.4413Z" fill="white"/>
<path opacity="0.4" d="M38.1256 64.6609H27.2715V65.9303H38.1256V64.6609Z" fill="white"/>
<path opacity="0.4" d="M38.1256 66.5651H27.2715V67.8345H38.1256V66.5651Z" fill="white"/>
<path opacity="0.4" d="M38.1256 68.4692H27.2715V69.7387H38.1256V68.4692Z" fill="white"/>
<path opacity="0.4" d="M66.4786 65.2955H55.6245V66.565H66.4786V65.2955Z" fill="white"/>
<path opacity="0.4" d="M66.4786 67.1997H55.6245V68.4691H66.4786V67.1997Z" fill="white"/>
<path opacity="0.4" d="M66.4786 69.1039H55.6245V70.3733H66.4786V69.1039Z" fill="white"/>
<path opacity="0.4" d="M38.1256 70.3733H27.2715V71.6427H38.1256V70.3733Z" fill="white"/>
<path opacity="0.4" d="M38.1256 72.2777H27.2715V73.5472H38.1256V72.2777Z" fill="white"/>
<path opacity="0.4" d="M38.1256 74.1818H27.2715V75.4512H38.1256V74.1818Z" fill="white"/>
<path opacity="0.4" d="M45.1032 51.5432H42.1128V55.2458H45.1032V51.5432Z" fill="white"/>
<path opacity="0.4" d="M48.6478 55.246H51.6382V51.5434H48.6478V55.246Z" fill="white"/>
<path opacity="0.4" d="M45.1032 57.4675H42.1128V61.1701H45.1032V57.4675Z" fill="white"/>
<path opacity="0.4" d="M48.6478 61.1698H51.6382V57.4673H48.6478V61.1698Z" fill="white"/>
<path opacity="0.4" d="M45.1032 63.3914H42.1128V67.0939H45.1032V63.3914Z" fill="white"/>
<path opacity="0.4" d="M48.6478 67.094H51.6382V63.3914H48.6478V67.094Z" fill="white"/>
<path opacity="0.4" d="M45.1032 69.3156H42.1128V73.0181H45.1032V69.3156Z" fill="white"/>
<path opacity="0.4" d="M48.6478 73.0181H51.6382V69.3155H48.6478V73.0181Z" fill="white"/>
<path opacity="0.4" d="M73.4565 31.6554H69.4692V36.5216H73.4565V31.6554Z" fill="white"/>
<path opacity="0.4" d="M73.4565 38.6373H69.4692V43.5035H73.4565V38.6373Z" fill="white"/>
<path opacity="0.4" d="M73.4565 45.6193H69.4692V50.4855H73.4565V45.6193Z" fill="white"/>
<path opacity="0.4" d="M73.4565 52.6011H69.4692V57.4673H73.4565V52.6011Z" fill="white"/>
<path opacity="0.4" d="M73.4565 59.5831H69.4692V64.4493H73.4565V59.5831Z" fill="white"/>
<path opacity="0.4" d="M73.4565 66.5651H69.4692V71.4313H73.4565V66.5651Z" fill="white"/>
<path opacity="0.4" d="M95.5532 41.5994H80.7119V45.7251H95.5532V41.5994Z" fill="white"/>
<path opacity="0.4" d="M95.6084 50.4855H80.7671V54.6112H95.6084V50.4855Z" fill="white"/>
<path opacity="0.4" d="M95.6631 59.3716H80.8218V63.4973H95.6631V59.3716Z" fill="white"/>
<path opacity="0.4" d="M95.7188 68.2577H80.8774V72.3834H95.7188V68.2577Z" fill="white"/>
<path opacity="0.4" d="M16.854 33.0305H14.8604V37.0504H16.854V33.0305Z" fill="white"/>
<path opacity="0.4" d="M107.459 51.5432H102.475V57.6789H107.459V51.5432Z" fill="white"/>
<path opacity="0.4" d="M107.459 60.4294H102.475V66.5651H107.459V60.4294Z" fill="white"/>
<path opacity="0.4" d="M107.459 69.4214H102.475V75.557H107.459V69.4214Z" fill="white"/>
<path d="M30.0334 13.0212C29.8943 13.1073 29.65 13.178 29.3673 13.2349C28.5984 13.3898 27.5449 13.4448 27.5449 13.4448C27.5449 13.4448 22.1288 14.1991 18.0695 11.3939C18.0695 11.3939 17.4791 10.8741 18.0268 10.1746C18.1111 10.0701 18.2008 9.97824 18.2947 9.90015L18.3014 9.88892C18.3637 9.79223 18.431 9.7051 18.5026 9.62857C18.7129 9.40026 19.068 9.12963 19.5002 9.25228L30.1616 12.1476C30.1616 12.1476 30.551 12.7001 30.0334 13.0212Z" fill="#3F3D56"/>
<path d="M27.9092 11.7088L30.1411 9.04993L31.1247 9.33561L30.1616 12.1475C30.1616 12.1475 27.9348 12.1774 27.9092 11.7088Z" fill="#3F3D56"/>
<path d="M22.29 10.0935L26.7357 8L27.4523 8.2515L25.4441 9.76839L24.8165 10.9475L22.29 10.0935Z" fill="#3F3D56"/>
<path d="M29.3673 13.2349C28.5984 13.3898 27.5449 13.4448 27.5449 13.4448C27.5449 13.4448 22.1288 14.199 18.0695 11.3938C18.0695 11.3938 17.4791 10.8741 18.0268 10.1746L18.0286 10.1875C18.0286 10.1875 18.9045 11.1815 23.0895 12.0113L29.3673 13.2349Z" fill="#6C63FF"/>
<path d="M28.6527 13.1775L30.6402 14.5402L31.1395 14.4472L29.9507 12.9468C29.9507 12.9468 28.5127 12.4316 28.6527 13.1775Z" fill="#3F3D56"/>
<path d="M18.7494 10.3331C18.6546 10.3357 18.4374 10.0687 18.3022 9.88889C18.3645 9.7922 18.4319 9.70507 18.5034 9.62854C18.6123 9.76887 18.8061 9.99599 18.9139 9.98714C19.0695 9.97638 18.8923 10.3288 18.7494 10.3331Z" fill="#6C63FF"/>
<path d="M27.7788 17.8878L26.5027 17.9999L22.9148 13.9377L22.2488 13.1834L21.9253 12.8169C22.5322 11.9563 25.0086 13.1433 25.0086 13.1433C25.056 13.2104 25.0711 13.3221 25.0689 13.4454C25.0648 13.6764 25.0002 13.9475 24.9753 14.045C24.9693 14.0689 24.9656 14.0816 24.9656 14.0816L27.7788 17.8878Z" fill="#3F3D56"/>
<path d="M56.5785 20.174L55.1951 20.803L56.0341 19.7089C55.797 19.5722 55.5028 19.4964 55.1987 19.4937H55.1773C55.081 19.4944 54.9849 19.4893 54.8899 19.4784L54.4222 19.691L54.6221 19.4348C54.2902 19.3514 54.0035 19.1949 53.8028 18.9877L52.9656 19.372L53.5011 18.6815C53.2785 18.4748 52.9943 18.3064 52.6695 18.1885C52.3446 18.0706 51.9872 18.0062 51.6233 18C50.7522 18 49.9757 18.3715 49.4813 18.9518C49.3324 19.126 49.1218 19.2687 48.8709 19.3653C48.6199 19.4619 48.3378 19.5088 48.0532 19.5014H48.0068C47.0447 19.5014 46.2646 20.2854 46.2646 21.2513C46.2646 22.2173 47.0447 23 48.0068 23C48.2184 22.9995 48.4267 22.9621 48.6137 22.8911C48.9414 22.7766 49.2998 22.7147 49.6642 22.7096C50.0285 22.7045 50.39 22.7564 50.7236 22.8616C51.0046 22.9513 51.3087 22.9976 51.6161 22.9976C51.9236 22.9976 52.2277 22.9513 52.5086 22.8616C52.8396 22.7586 53.1976 22.7079 53.5583 22.713C53.9189 22.7181 54.2738 22.7788 54.5989 22.8911C54.7843 22.96 54.9899 22.9964 55.1987 22.9974C56.1608 22.9974 56.9409 22.2147 56.9409 21.2488C56.9476 20.8744 56.823 20.5047 56.5785 20.174V20.174Z" fill="#F2F2F2"/>
<path opacity="0.03" d="M53.9741 22.7335C53.4711 22.6644 52.9507 22.705 52.4801 22.8501C52.1989 22.9392 51.895 22.9854 51.5876 22.9859C51.2797 22.9849 50.9756 22.9373 50.6951 22.8462C50.3612 22.7415 49.9997 22.6899 49.6354 22.6952C49.2711 22.7006 48.9128 22.7626 48.5852 22.877C48.3988 22.948 48.1911 22.9854 47.98 22.9859C47.125 22.9859 46.4128 22.3671 46.2646 21.5524C46.4352 21.4626 46.5806 21.3504 46.6931 21.2219C47.1929 20.6415 47.9693 20.27 48.8351 20.27C49.7008 20.27 50.4737 20.6377 50.9771 21.2103C51.1263 21.3835 51.3354 21.5261 51.5841 21.6242C51.8327 21.7223 52.1125 21.7725 52.3962 21.7701H52.4194C53.0923 21.7701 53.6867 22.1622 53.9741 22.7335Z" fill="black"/>
</g>
<defs>
<linearGradient id="paint0_linear" x1="0" y1="47.5" x2="121" y2="47.5" gradientUnits="userSpaceOnUse">
<stop stop-color="#5D9FFF"/>
<stop offset="0.48" stop-color="#B8DCFF"/>
<stop offset="1" stop-color="#6BBBFF"/>
</linearGradient>
</defs>
</svg>
