<svg width="121" height="95" viewBox="0 0 121 95" fill="none" xmlns="http://www.w3.org/2000/svg">
<g opacity="0.9">
<rect width="121" height="95" fill="url(#paint0_linear)"/>
<path opacity="0.3" d="M103.44 49.1101V42.3398H99.5895V49.1101H95.0295V38.6372H91.6856V30.809H88.9496V22.7692H83.275V30.809H80.5391V38.6372H77.2964V29.2222H75.4725V24.4618H74.3578V29.2222H67.8726V59.2657H62.9073V56.0921H59.8673V59.2657H54.9021V49.1101H45.9849V42.3398H42.1343V49.1101H41.9316V62.1219H37.8783V54.5053H33.0144V62.1219H28.9611V38.6372H25.8198V30.809H14.268V38.6372H11.228V79.9999H28.9611H41.9316H54.9021H67.8726H77.2964H95.0295H108V49.1101H103.44Z" fill="#6F69D1"/>
<path d="M107.654 22.0067L106.334 22.5874L107.134 21.5775C106.908 21.4512 106.627 21.3813 106.337 21.3788H106.317C106.225 21.3795 106.133 21.3747 106.042 21.3646L105.596 21.5609L105.787 21.3244C105.47 21.2474 105.197 21.103 105.005 20.9117L104.206 21.2665L104.717 20.6291C104.505 20.4383 104.234 20.2828 103.924 20.174C103.614 20.0652 103.273 20.0057 102.926 20C102.095 20 101.354 20.3429 100.882 20.8786C100.74 21.0394 100.539 21.1711 100.3 21.2603C100.06 21.3494 99.791 21.3928 99.5195 21.3859H99.4752C98.5572 21.3859 97.813 22.1096 97.813 23.0012C97.813 23.8929 98.5572 24.6154 99.4752 24.6154C99.6771 24.6149 99.8758 24.5804 100.054 24.5149C100.367 24.4092 100.709 24.352 101.056 24.3473C101.404 24.3426 101.749 24.3905 102.067 24.4877C102.335 24.5704 102.626 24.6132 102.919 24.6132C103.212 24.6132 103.502 24.5704 103.77 24.4877C104.086 24.3926 104.428 24.3458 104.772 24.3505C105.116 24.3552 105.455 24.4112 105.765 24.5149C105.942 24.5784 106.138 24.6121 106.337 24.613C107.255 24.613 107.999 23.8905 107.999 22.9989C108.006 22.6533 107.887 22.3121 107.654 22.0067V22.0067Z" fill="#F2F2F2"/>
<path opacity="0.03" d="M105.169 24.3693C104.689 24.3055 104.192 24.343 103.743 24.4769C103.475 24.5592 103.185 24.6019 102.892 24.6023C102.598 24.6014 102.308 24.5575 102.04 24.4734C101.722 24.3767 101.377 24.3291 101.029 24.334C100.682 24.3389 100.34 24.3962 100.027 24.5018C99.8492 24.5673 99.651 24.6018 99.4497 24.6023C98.6339 24.6023 97.9543 24.0311 97.813 23.279C97.9757 23.1961 98.1144 23.0926 98.2217 22.974C98.6986 22.4383 99.4395 22.0953 100.265 22.0953C101.091 22.0953 101.829 22.4347 102.309 22.9633C102.452 23.1232 102.651 23.2548 102.888 23.3453C103.126 23.4359 103.392 23.4823 103.663 23.4801H103.685C104.327 23.4801 104.894 23.8419 105.169 24.3693Z" fill="black"/>
<path opacity="0.4" d="M17.4088 41.0703H13.1528V43.6092H17.4088V41.0703Z" fill="white"/>
<path opacity="0.4" d="M22.6786 43.6091H26.9346V41.0702H22.6786V43.6091Z" fill="white"/>
<path opacity="0.4" d="M17.4088 46.0424H13.1528V48.5812H17.4088V46.0424Z" fill="white"/>
<path opacity="0.4" d="M22.6786 48.5813H26.9346V46.0424H22.6786V48.5813Z" fill="white"/>
<path opacity="0.4" d="M17.4088 51.0143H13.1528V53.5532H17.4088V51.0143Z" fill="white"/>
<path opacity="0.4" d="M22.6786 53.5532H26.9346V51.0143H22.6786V53.5532Z" fill="white"/>
<path opacity="0.4" d="M17.4088 55.9863H13.1528V58.5252H17.4088V55.9863Z" fill="white"/>
<path opacity="0.4" d="M22.6786 58.5251H26.9346V55.9863H22.6786V58.5251Z" fill="white"/>
<path opacity="0.4" d="M17.4088 60.9584H13.1528V63.4973H17.4088V60.9584Z" fill="white"/>
<path opacity="0.4" d="M22.6786 63.4971H26.9346V60.9582H22.6786V63.4971Z" fill="white"/>
<path opacity="0.4" d="M17.4088 65.9304H13.1528V68.4693H17.4088V65.9304Z" fill="white"/>
<path opacity="0.4" d="M22.6786 68.4692H26.9346V65.9303H22.6786V68.4692Z" fill="white"/>
<path opacity="0.4" d="M17.4088 70.9025H13.1528V73.4414H17.4088V70.9025Z" fill="white"/>
<path opacity="0.4" d="M22.6786 73.4413H26.9346V70.9024H22.6786V73.4413Z" fill="white"/>
<path opacity="0.4" d="M40.4115 64.6609H30.481V65.9303H40.4115V64.6609Z" fill="white"/>
<path opacity="0.4" d="M40.4115 66.5651H30.481V67.8345H40.4115V66.5651Z" fill="white"/>
<path opacity="0.4" d="M40.4115 68.4692H30.481V69.7387H40.4115V68.4692Z" fill="white"/>
<path opacity="0.4" d="M66.3519 65.2955H56.4214V66.565H66.3519V65.2955Z" fill="white"/>
<path opacity="0.4" d="M66.3519 67.1997H56.4214V68.4691H66.3519V67.1997Z" fill="white"/>
<path opacity="0.4" d="M66.3519 69.1039H56.4214V70.3733H66.3519V69.1039Z" fill="white"/>
<path opacity="0.4" d="M40.4115 70.3733H30.481V71.6427H40.4115V70.3733Z" fill="white"/>
<path opacity="0.4" d="M40.4115 72.2777H30.481V73.5472H40.4115V72.2777Z" fill="white"/>
<path opacity="0.4" d="M40.4115 74.1818H30.481V75.4512H40.4115V74.1818Z" fill="white"/>
<path opacity="0.4" d="M46.7955 51.5432H44.0596V55.2458H46.7955V51.5432Z" fill="white"/>
<path opacity="0.4" d="M50.0385 55.246H52.7744V51.5434H50.0385V55.246Z" fill="white"/>
<path opacity="0.4" d="M46.7955 57.4675H44.0596V61.1701H46.7955V57.4675Z" fill="white"/>
<path opacity="0.4" d="M50.0385 61.1698H52.7744V57.4673H50.0385V61.1698Z" fill="white"/>
<path opacity="0.4" d="M46.7955 63.3914H44.0596V67.0939H46.7955V63.3914Z" fill="white"/>
<path opacity="0.4" d="M50.0385 67.094H52.7744V63.3914H50.0385V67.094Z" fill="white"/>
<path opacity="0.4" d="M46.7955 69.3156H44.0596V73.0181H46.7955V69.3156Z" fill="white"/>
<path opacity="0.4" d="M50.0385 73.0181H52.7744V69.3155H50.0385V73.0181Z" fill="white"/>
<path opacity="0.4" d="M72.7358 31.6554H69.0879V36.5216H72.7358V31.6554Z" fill="white"/>
<path opacity="0.4" d="M72.7358 38.6373H69.0879V43.5035H72.7358V38.6373Z" fill="white"/>
<path opacity="0.4" d="M72.7358 45.6193H69.0879V50.4855H72.7358V45.6193Z" fill="white"/>
<path opacity="0.4" d="M72.7358 52.6011H69.0879V57.4673H72.7358V52.6011Z" fill="white"/>
<path opacity="0.4" d="M72.7358 59.5831H69.0879V64.4493H72.7358V59.5831Z" fill="white"/>
<path opacity="0.4" d="M72.7358 66.5651H69.0879V71.4313H72.7358V66.5651Z" fill="white"/>
<path opacity="0.4" d="M92.9525 41.5994H79.374V45.7251H92.9525V41.5994Z" fill="white"/>
<path opacity="0.4" d="M93.0033 50.4855H79.4248V54.6112H93.0033V50.4855Z" fill="white"/>
<path opacity="0.4" d="M93.0531 59.3716H79.4746V63.4973H93.0531V59.3716Z" fill="white"/>
<path opacity="0.4" d="M93.1039 68.2577H79.5254V72.3834H93.1039V68.2577Z" fill="white"/>
<path opacity="0.4" d="M20.95 33.0305H19.126V37.0504H20.95V33.0305Z" fill="white"/>
<path opacity="0.4" d="M103.846 51.5432H99.2856V57.6789H103.846V51.5432Z" fill="white"/>
<path opacity="0.4" d="M103.846 60.4294H99.2856V66.5651H103.846V60.4294Z" fill="white"/>
<path opacity="0.4" d="M103.846 69.4214H99.2856V75.557H103.846V69.4214Z" fill="white"/>
<path d="M30.0334 13.0212C29.8943 13.1073 29.65 13.178 29.3673 13.2349C28.5984 13.3898 27.5449 13.4448 27.5449 13.4448C27.5449 13.4448 22.1288 14.1991 18.0695 11.3939C18.0695 11.3939 17.4791 10.8741 18.0268 10.1746C18.1111 10.0701 18.2008 9.97824 18.2947 9.90015L18.3014 9.88892C18.3637 9.79223 18.431 9.7051 18.5026 9.62857C18.7129 9.40026 19.068 9.12963 19.5002 9.25228L30.1616 12.1476C30.1616 12.1476 30.551 12.7001 30.0334 13.0212Z" fill="#3F3D56"/>
<path d="M27.9092 11.7088L30.1411 9.04993L31.1247 9.33561L30.1616 12.1475C30.1616 12.1475 27.9348 12.1774 27.9092 11.7088Z" fill="#3F3D56"/>
<path d="M22.29 10.0935L26.7357 8L27.4523 8.2515L25.4441 9.76839L24.8165 10.9475L22.29 10.0935Z" fill="#3F3D56"/>
<path d="M29.3673 13.2349C28.5984 13.3898 27.5449 13.4448 27.5449 13.4448C27.5449 13.4448 22.1288 14.199 18.0695 11.3938C18.0695 11.3938 17.4791 10.8741 18.0268 10.1746L18.0286 10.1875C18.0286 10.1875 18.9045 11.1815 23.0895 12.0113L29.3673 13.2349Z" fill="#6C63FF"/>
<path d="M28.6527 13.1775L30.6402 14.5402L31.1395 14.4472L29.9507 12.9468C29.9507 12.9468 28.5127 12.4316 28.6527 13.1775Z" fill="#3F3D56"/>
<path d="M18.7494 10.3331C18.6546 10.3357 18.4374 10.0687 18.3022 9.88889C18.3645 9.7922 18.4319 9.70507 18.5034 9.62854C18.6123 9.76887 18.8061 9.99599 18.9139 9.98714C19.0695 9.97638 18.8923 10.3288 18.7494 10.3331Z" fill="#6C63FF"/>
<path d="M27.7788 17.8878L26.5027 17.9999L22.9148 13.9377L22.2488 13.1834L21.9253 12.8169C22.5322 11.9563 25.0086 13.1433 25.0086 13.1433C25.056 13.2104 25.0711 13.3221 25.0689 13.4454C25.0648 13.6764 25.0002 13.9475 24.9753 14.045C24.9693 14.0689 24.9656 14.0816 24.9656 14.0816L27.7788 17.8878Z" fill="#3F3D56"/>
<path d="M56.5785 20.174L55.1951 20.803L56.0341 19.7089C55.797 19.5722 55.5028 19.4964 55.1987 19.4937H55.1773C55.081 19.4944 54.9849 19.4893 54.8899 19.4784L54.4222 19.691L54.6221 19.4348C54.2902 19.3514 54.0035 19.1949 53.8028 18.9877L52.9656 19.372L53.5011 18.6815C53.2785 18.4748 52.9943 18.3064 52.6695 18.1885C52.3446 18.0706 51.9872 18.0062 51.6233 18C50.7522 18 49.9757 18.3715 49.4813 18.9518C49.3324 19.126 49.1218 19.2687 48.8709 19.3653C48.6199 19.4619 48.3378 19.5088 48.0532 19.5014H48.0068C47.0447 19.5014 46.2646 20.2854 46.2646 21.2513C46.2646 22.2173 47.0447 23 48.0068 23C48.2184 22.9995 48.4267 22.9621 48.6137 22.8911C48.9414 22.7766 49.2998 22.7147 49.6642 22.7096C50.0285 22.7045 50.39 22.7564 50.7236 22.8616C51.0046 22.9513 51.3087 22.9976 51.6161 22.9976C51.9236 22.9976 52.2277 22.9513 52.5086 22.8616C52.8396 22.7586 53.1976 22.7079 53.5583 22.713C53.9189 22.7181 54.2738 22.7788 54.5989 22.8911C54.7843 22.96 54.9899 22.9964 55.1987 22.9974C56.1608 22.9974 56.9409 22.2147 56.9409 21.2488C56.9476 20.8744 56.823 20.5047 56.5785 20.174V20.174Z" fill="#F2F2F2"/>
<path opacity="0.03" d="M53.9741 22.7335C53.4711 22.6644 52.9507 22.705 52.4801 22.8501C52.1989 22.9392 51.895 22.9854 51.5876 22.9859C51.2797 22.9849 50.9756 22.9373 50.6951 22.8462C50.3612 22.7415 49.9997 22.6899 49.6354 22.6952C49.2711 22.7006 48.9128 22.7626 48.5852 22.877C48.3988 22.948 48.1911 22.9854 47.98 22.9859C47.125 22.9859 46.4128 22.3671 46.2646 21.5524C46.4352 21.4626 46.5806 21.3504 46.6931 21.2219C47.1929 20.6415 47.9693 20.27 48.8351 20.27C49.7008 20.27 50.4737 20.6377 50.9771 21.2103C51.1263 21.3835 51.3354 21.5261 51.5841 21.6242C51.8327 21.7223 52.1125 21.7725 52.3962 21.7701H52.4194C53.0923 21.7701 53.6867 22.1622 53.9741 22.7335Z" fill="black"/>
<path d="M110.66 27.3752C110.66 30.3439 108.371 32.7504 105.934 32.7504C103.498 32.7504 101 30.3439 101 27.3752C101 24.4065 103.498 22 105.934 22C108.371 22 110.66 24.4067 110.66 27.3752Z" fill="url(#paint1_linear)"/>
<path d="M110.433 27.3752C110.433 30.2048 108.252 32.4988 105.929 32.4988C103.606 32.4988 101.226 30.205 101.226 27.3752C101.226 24.5454 103.607 22.2516 105.929 22.2516C108.252 22.2516 110.433 24.5463 110.433 27.3752Z" fill="#6C63FF"/>
<path d="M107.25 35.2354H104.297V38H107.25V35.2354Z" fill="url(#paint2_linear)"/>
<path d="M107.183 35.2354H104.384V37.8562H107.183V35.2354Z" fill="#85828B"/>
<path d="M107.148 35.2353L107.265 32.8405" stroke="#AD7676" stroke-width="0.5" stroke-miterlimit="10"/>
<path d="M104.453 35.2353L104.295 32.8405" stroke="#AD7676" stroke-width="0.5" stroke-miterlimit="10"/>
<path d="M106.253 32.6786H105.208V33.074H106.253V32.6786Z" fill="#6C63FF"/>
<g opacity="0.2">
<path opacity="0.2" d="M105.93 22.2338C105.874 22.2338 105.819 22.2355 105.764 22.2381C108.023 22.3438 110.102 24.5944 110.102 27.3574C110.102 30.1203 108.023 32.371 105.764 32.4766C105.819 32.4793 105.874 32.481 105.93 32.481C108.252 32.481 110.434 30.187 110.434 27.3574C110.434 24.5277 108.252 22.2338 105.93 22.2338Z" fill="black"/>
</g>
<g opacity="0.2">
<path opacity="0.2" d="M101.492 27.3752C101.492 24.586 103.804 22.3173 106.095 22.2531C106.062 22.2531 106.029 22.2516 105.996 22.2516C103.673 22.2516 101.292 24.5463 101.292 27.3752C101.292 30.2041 103.673 32.4988 105.996 32.4988C106.029 32.4988 106.062 32.4988 106.095 32.4973C103.805 32.4323 101.492 30.1646 101.492 27.3752Z" fill="white"/>
</g>
<path d="M107.282 31.7798H104.279V32.8405H107.282V31.7798Z" fill="#6C63FF"/>
<path opacity="0.2" d="M104.279 22.6248C104.279 22.6248 100.712 27.0426 104.279 32.126L105.456 32.1216C105.456 32.1216 102.205 27.9221 105.307 22.3059L104.727 22.4494L104.279 22.6248Z" fill="white"/>
<path opacity="0.2" d="M107.381 22.5574C107.381 22.5574 110.948 27.042 107.381 32.1259L106.203 32.1215C106.203 32.1215 109.455 27.8862 106.352 22.2699L106.933 22.3955L107.381 22.5574Z" fill="white"/>
</g>
<defs>
<linearGradient id="paint0_linear" x1="0" y1="47.5" x2="121" y2="47.5" gradientUnits="userSpaceOnUse">
<stop stop-color="#5D9FFF"/>
<stop offset="0.48" stop-color="#B8DCFF"/>
<stop offset="1" stop-color="#6BBBFF"/>
</linearGradient>
<linearGradient id="paint1_linear" x1="105.83" y1="32.7506" x2="105.83" y2="22" gradientUnits="userSpaceOnUse">
<stop stop-color="#808080" stop-opacity="0.25"/>
<stop offset="0.54" stop-color="#808080" stop-opacity="0.12"/>
<stop offset="1" stop-color="#808080" stop-opacity="0.1"/>
</linearGradient>
<linearGradient id="paint2_linear" x1="2245.25" y1="2407.31" x2="2245.25" y2="2005.08" gradientUnits="userSpaceOnUse">
<stop stop-color="#808080" stop-opacity="0.25"/>
<stop offset="0.54" stop-color="#808080" stop-opacity="0.12"/>
<stop offset="1" stop-color="#808080" stop-opacity="0.1"/>
</linearGradient>
</defs>
</svg>
