<svg width="1026" height="264" viewBox="0 0 1026 264" fill="none" xmlns="http://www.w3.org/2000/svg">
<g opacity="0.9">
<rect width="1026" height="264" fill="url(#paint0_linear)"/>
<path d="M670.101 56.1351L665.728 58.3352L668.377 54.5051C667.627 54.0292 666.699 53.7656 665.739 53.756H665.669C665.366 53.7607 665.063 53.7428 664.764 53.7024L663.284 54.4492L663.917 53.5324C662.869 53.24 661.964 52.6923 661.33 51.9673L658.684 53.3088L660.354 50.8895C658.808 49.4116 656.721 48.506 654.424 48.506C651.671 48.506 649.219 49.8074 647.636 51.8376C647.167 52.4456 646.503 52.9438 645.713 53.2816C644.922 53.6193 644.034 53.7846 643.137 53.7605H642.991C639.951 53.7605 637.488 56.4995 637.488 59.8803C637.488 63.261 639.951 66 642.991 66C643.659 65.9983 644.316 65.8671 644.906 65.6177C645.941 65.2184 647.072 65.0025 648.222 64.9847C649.372 64.967 650.513 65.1478 651.567 65.5148C652.458 65.831 653.423 65.9944 654.399 65.9944C655.374 65.9944 656.339 65.831 657.23 65.5148C658.275 65.1547 659.405 64.9773 660.544 64.9947C661.683 65.0121 662.803 65.2237 663.83 65.6154C664.416 65.8586 665.067 65.9867 665.728 65.9888C668.768 65.9888 671.231 63.2498 671.231 59.8691C671.253 58.5688 670.864 57.285 670.101 56.1351Z" fill="#F2F2F2"/>
<path d="M233.984 42.328L229.634 44.4517L232.272 40.7579C231.526 40.2962 230.601 40.0403 229.645 40.0313H229.577C229.275 40.0337 228.972 40.0163 228.674 39.9794L227.203 40.6974L227.832 39.8323C226.788 39.5506 225.887 39.0223 225.255 38.3228L222.623 39.6204L224.307 37.289C223.607 36.5912 222.713 36.0225 221.692 35.6245C220.67 35.2264 219.546 35.009 218.402 34.988C215.663 34.988 213.221 36.2423 211.666 38.2017C211.198 38.7898 210.536 39.2716 209.747 39.5977C208.958 39.9237 208.071 40.0823 207.176 40.0572H207.03C204.005 40.0572 201.552 42.7043 201.552 45.9656C201.552 49.2269 204.005 51.8696 207.03 51.8696C207.695 51.868 208.35 51.7418 208.938 51.502C209.969 51.1155 211.096 50.9064 212.242 50.8892C213.387 50.8721 214.524 51.0472 215.573 51.4025C216.456 51.7051 217.413 51.8615 218.379 51.8615C219.346 51.8615 220.302 51.7051 221.186 51.4025C222.227 51.0546 223.352 50.8835 224.486 50.9006C225.621 50.9178 226.737 51.1229 227.759 51.502C228.342 51.7345 228.988 51.8576 229.645 51.861C232.67 51.861 235.123 49.2182 235.123 45.957C235.144 44.6928 234.752 43.4448 233.984 42.328V42.328Z" fill="#F2F2F2"/>
<path opacity="0.03" d="M225.794 50.97C224.212 50.7365 222.576 50.8736 221.096 51.3636C220.212 51.6645 219.256 51.8206 218.29 51.8221C217.322 51.8188 216.365 51.6581 215.483 51.3506C214.433 50.9968 213.297 50.8229 212.151 50.8408C211.006 50.8587 209.879 51.0681 208.849 51.4544C208.263 51.6942 207.609 51.8204 206.946 51.8221C204.257 51.8221 202.018 49.7329 201.552 46.982C202.088 46.6788 202.545 46.3002 202.899 45.8661C204.471 43.9067 206.912 42.6524 209.634 42.6524C212.357 42.6524 214.787 43.8938 216.37 45.8272C216.839 46.4119 217.497 46.8933 218.279 47.2244C219.06 47.5556 219.94 47.7254 220.832 47.7173H220.905C223.021 47.7173 224.891 49.0409 225.794 50.97Z" fill="black"/>
<path d="M943.701 41.8218L939.328 44.0219L941.977 40.1918C941.227 39.7159 940.299 39.4523 939.339 39.4427H939.269C938.966 39.4474 938.663 39.4295 938.364 39.3891L936.885 40.1359L937.517 39.2191C936.469 38.9267 935.564 38.379 934.93 37.654L932.284 38.9955L933.954 36.5763C932.408 35.0983 930.321 34.1927 928.024 34.1927C925.271 34.1927 922.819 35.4941 921.236 37.5243C920.767 38.1323 920.103 38.6305 919.313 38.9683C918.522 39.306 917.634 39.4713 916.737 39.4472H916.591C913.551 39.4472 911.088 42.1862 911.088 45.567C911.088 48.9477 913.551 51.6867 916.591 51.6867C917.259 51.685 917.916 51.5538 918.506 51.3044C919.541 50.9051 920.672 50.6892 921.822 50.6715C922.972 50.6537 924.114 50.8346 925.167 51.2015C926.058 51.5177 927.023 51.6811 927.999 51.6811C928.975 51.6811 929.939 51.5177 930.83 51.2015C931.875 50.8414 933.005 50.664 934.144 50.6814C935.283 50.6988 936.403 50.9104 937.43 51.3021C938.016 51.5453 938.667 51.6734 939.328 51.6755C942.368 51.6755 944.831 48.9365 944.831 45.5558C944.853 44.2555 944.464 42.9717 943.701 41.8218Z" fill="#F2F2F2"/>
<path d="M213.887 54.9782C213.373 55.1835 212.472 55.3523 211.428 55.4881C208.591 55.8576 204.703 55.9888 204.703 55.9888C204.703 55.9888 184.717 57.7881 169.737 51.0961C169.737 51.0961 167.558 49.8563 169.579 48.1875C169.891 47.9382 170.222 47.7191 170.568 47.5328L170.593 47.506C170.823 47.2754 171.071 47.0675 171.335 46.885C172.111 46.3403 173.422 45.6947 175.017 45.9873L214.359 52.8943C214.359 52.8943 215.796 54.2123 213.887 54.9782Z" fill="#441853"/>
<path d="M206.048 51.8478L214.284 45.5048L217.914 46.1863L214.36 52.8943C214.36 52.8943 206.142 52.9656 206.048 51.8478Z" fill="#441853"/>
<path d="M185.312 47.9942L201.718 43L204.362 43.6L196.952 47.2186L194.636 50.0313L185.312 47.9942Z" fill="#441853"/>
<path d="M211.428 55.488C208.591 55.8576 204.703 55.9888 204.703 55.9888C204.703 55.9888 184.717 57.7881 169.737 51.0961C169.737 51.0961 167.558 49.8562 169.579 48.1875L169.586 48.2183C169.586 48.2183 172.818 50.5896 188.262 52.5692L211.428 55.488Z" fill="white"/>
<path d="M208.791 55.3512L216.126 58.6019L217.968 58.3801L213.581 54.8008C213.581 54.8008 208.275 53.5718 208.791 55.3512Z" fill="#441853"/>
<path d="M172.246 48.5656C171.896 48.5719 171.094 47.9348 170.596 47.506C170.826 47.2753 171.074 47.0675 171.338 46.8849C171.74 47.2197 172.455 47.7615 172.853 47.7404C173.427 47.7147 172.773 48.5553 172.246 48.5656Z" fill="white"/>
<path d="M205.567 66.5879L200.858 66.8554L187.618 57.1647L185.16 55.3654L183.966 54.4911C186.206 52.438 195.344 55.2696 195.344 55.2696C195.519 55.4299 195.575 55.6962 195.567 55.9905C195.552 56.5414 195.313 57.1881 195.221 57.4208C195.199 57.4778 195.186 57.5081 195.186 57.5081L205.567 66.5879Z" fill="#441853"/>
<path opacity="0.3" d="M899.544 143.688V121.921H882.693V143.688H862.738V110.017H848.104V84.8484H836.13V59H811.297V84.8484H799.324V110.017H785.133V79.7468H777.151V64.4418H772.273V79.7468H743.892V176.338H722.162V166.135H708.859V176.338H687.129V143.688H648.105V121.921H631.254V143.688H630.367V185.521H612.629V161.033H591.343V185.521H573.605V110.017H559.858V84.8484H509.304V110.017H496V243H573.605H630.367H687.129H743.892H785.133H862.738H919.5V143.688H899.544Z" fill="#6F69D1"/>
<path opacity="0.4" d="M523.051 117.839H504.426V126.002H523.051V117.839Z" fill="white"/>
<path opacity="0.4" d="M546.111 126.002H564.736V117.839H546.111V126.002Z" fill="white"/>
<path opacity="0.4" d="M523.051 133.824H504.426V141.987H523.051V133.824Z" fill="white"/>
<path opacity="0.4" d="M546.111 141.987H564.736V133.824H546.111V141.987Z" fill="white"/>
<path opacity="0.4" d="M523.051 149.81H504.426V157.972H523.051V149.81Z" fill="white"/>
<path opacity="0.4" d="M546.111 157.972H564.736V149.81H546.111V157.972Z" fill="white"/>
<path opacity="0.4" d="M523.051 165.795H504.426V173.957H523.051V165.795Z" fill="white"/>
<path opacity="0.4" d="M546.111 173.957H564.736V165.795H546.111V173.957Z" fill="white"/>
<path opacity="0.4" d="M523.051 181.78H504.426V189.943H523.051V181.78Z" fill="white"/>
<path opacity="0.4" d="M546.111 189.943H564.736V181.78H546.111V189.943Z" fill="white"/>
<path opacity="0.4" d="M523.051 197.765H504.426V205.928H523.051V197.765Z" fill="white"/>
<path opacity="0.4" d="M546.111 205.928H564.736V197.765H546.111V205.928Z" fill="white"/>
<path opacity="0.4" d="M523.051 213.75H504.426V221.913H523.051V213.75Z" fill="white"/>
<path opacity="0.4" d="M546.111 221.913H564.736V213.75H546.111V221.913Z" fill="white"/>
<path opacity="0.4" d="M623.715 193.684H580.256V197.765H623.715V193.684Z" fill="white"/>
<path opacity="0.4" d="M623.715 199.806H580.256V203.887H623.715V199.806Z" fill="white"/>
<path opacity="0.4" d="M623.715 205.928H580.256V210.009H623.715V205.928Z" fill="white"/>
<path opacity="0.4" d="M737.24 195.725H693.781V199.806H737.24V195.725Z" fill="white"/>
<path opacity="0.4" d="M737.24 201.847H693.781V205.928H737.24V201.847Z" fill="white"/>
<path opacity="0.4" d="M737.24 207.969H693.781V212.05H737.24V207.969Z" fill="white"/>
<path opacity="0.4" d="M623.715 212.05H580.256V216.131H623.715V212.05Z" fill="white"/>
<path opacity="0.4" d="M623.715 218.172H580.256V222.253H623.715V218.172Z" fill="white"/>
<path opacity="0.4" d="M623.715 224.294H580.256V228.375H623.715V224.294Z" fill="white"/>
<path opacity="0.4" d="M651.653 151.51H639.68V163.414H651.653V151.51Z" fill="white"/>
<path opacity="0.4" d="M665.844 163.414H677.817V151.51H665.844V163.414Z" fill="white"/>
<path opacity="0.4" d="M651.653 170.556H639.68V182.46H651.653V170.556Z" fill="white"/>
<path opacity="0.4" d="M665.844 182.46H677.817V170.556H665.844V182.46Z" fill="white"/>
<path opacity="0.4" d="M651.653 189.603H639.68V201.506H651.653V189.603Z" fill="white"/>
<path opacity="0.4" d="M665.844 201.507H677.817V189.603H665.844V201.507Z" fill="white"/>
<path opacity="0.4" d="M651.653 208.649H639.68V220.553H651.653V208.649Z" fill="white"/>
<path opacity="0.4" d="M665.844 220.553H677.817V208.649H665.844V220.553Z" fill="white"/>
<path opacity="0.4" d="M765.177 87.5693H749.213V103.214H765.177V87.5693Z" fill="white"/>
<path opacity="0.4" d="M765.177 110.017H749.213V125.662H765.177V110.017Z" fill="white"/>
<path opacity="0.4" d="M765.177 132.464H749.213V148.109H765.177V132.464Z" fill="white"/>
<path opacity="0.4" d="M765.177 154.911H749.213V170.556H765.177V154.911Z" fill="white"/>
<path opacity="0.4" d="M765.177 177.359H749.213V193.004H765.177V177.359Z" fill="white"/>
<path opacity="0.4" d="M765.177 199.806H749.213V215.451H765.177V199.806Z" fill="white"/>
<path opacity="0.4" d="M853.647 119.54H794.224V132.804H853.647V119.54Z" fill="white"/>
<path opacity="0.4" d="M853.868 148.109H794.445V161.373H853.868V148.109Z" fill="white"/>
<path opacity="0.4" d="M854.09 176.678H794.667V189.943H854.09V176.678Z" fill="white"/>
<path opacity="0.4" d="M854.312 205.248H794.889V218.512H854.312V205.248Z" fill="white"/>
<path opacity="0.4" d="M538.543 91.9907H530.561V104.915H538.543V91.9907Z" fill="white"/>
<path opacity="0.4" d="M901.32 151.51H881.364V171.237H901.32V151.51Z" fill="white"/>
<path opacity="0.4" d="M901.32 180.079H881.364V199.806H901.32V180.079Z" fill="white"/>
<path opacity="0.4" d="M901.32 208.989H881.364V228.715H901.32V208.989Z" fill="white"/>
<path opacity="0.3" d="M476.544 143.688V121.921H459.693V143.688H439.738V110.017H425.104V84.8484H413.13V59H388.297V84.8484H376.324V110.017H362.133V79.7468H354.151V64.4418H349.273V79.7468H320.892V176.338H299.162V166.135H285.859V176.338H264.129V143.688H225.105V121.921H208.254V143.688H207.367V185.521H189.629V161.033H168.343V185.521H150.605V110.017H136.858V84.8484H86.3037V110.017H73V243H150.605H207.367H264.129H320.892H362.133H439.738H496.5V143.688H476.544Z" fill="#6F69D1"/>
<path opacity="0.4" d="M100.051 117.839H81.4258V126.002H100.051V117.839Z" fill="white"/>
<path opacity="0.4" d="M123.111 126.002H141.736V117.839H123.111V126.002Z" fill="white"/>
<path opacity="0.4" d="M100.051 133.824H81.4258V141.987H100.051V133.824Z" fill="white"/>
<path opacity="0.4" d="M123.111 141.987H141.736V133.824H123.111V141.987Z" fill="white"/>
<path opacity="0.4" d="M100.051 149.81H81.4258V157.972H100.051V149.81Z" fill="white"/>
<path opacity="0.4" d="M123.111 157.972H141.736V149.81H123.111V157.972Z" fill="white"/>
<path opacity="0.4" d="M100.051 165.795H81.4258V173.957H100.051V165.795Z" fill="white"/>
<path opacity="0.4" d="M123.111 173.957H141.736V165.795H123.111V173.957Z" fill="white"/>
<path opacity="0.4" d="M100.051 181.78H81.4258V189.943H100.051V181.78Z" fill="white"/>
<path opacity="0.4" d="M123.111 189.943H141.736V181.78H123.111V189.943Z" fill="white"/>
<path opacity="0.4" d="M100.051 197.765H81.4258V205.928H100.051V197.765Z" fill="white"/>
<path opacity="0.4" d="M123.111 205.928H141.736V197.765H123.111V205.928Z" fill="white"/>
<path opacity="0.4" d="M100.051 213.75H81.4258V221.913H100.051V213.75Z" fill="white"/>
<path opacity="0.4" d="M123.111 221.913H141.736V213.75H123.111V221.913Z" fill="white"/>
<path opacity="0.4" d="M200.715 193.684H157.256V197.765H200.715V193.684Z" fill="white"/>
<path opacity="0.4" d="M200.715 199.806H157.256V203.887H200.715V199.806Z" fill="white"/>
<path opacity="0.4" d="M200.715 205.928H157.256V210.009H200.715V205.928Z" fill="white"/>
<path opacity="0.4" d="M314.24 195.725H270.781V199.806H314.24V195.725Z" fill="white"/>
<path opacity="0.4" d="M314.24 201.847H270.781V205.928H314.24V201.847Z" fill="white"/>
<path opacity="0.4" d="M314.24 207.969H270.781V212.05H314.24V207.969Z" fill="white"/>
<path opacity="0.4" d="M200.715 212.05H157.256V216.131H200.715V212.05Z" fill="white"/>
<path opacity="0.4" d="M200.715 218.172H157.256V222.253H200.715V218.172Z" fill="white"/>
<path opacity="0.4" d="M200.715 224.294H157.256V228.375H200.715V224.294Z" fill="white"/>
<path opacity="0.4" d="M228.653 151.51H216.68V163.414H228.653V151.51Z" fill="white"/>
<path opacity="0.4" d="M242.844 163.414H254.817V151.51H242.844V163.414Z" fill="white"/>
<path opacity="0.4" d="M228.653 170.556H216.68V182.46H228.653V170.556Z" fill="white"/>
<path opacity="0.4" d="M242.844 182.46H254.817V170.556H242.844V182.46Z" fill="white"/>
<path opacity="0.4" d="M228.653 189.603H216.68V201.506H228.653V189.603Z" fill="white"/>
<path opacity="0.4" d="M242.844 201.507H254.817V189.603H242.844V201.507Z" fill="white"/>
<path opacity="0.4" d="M228.653 208.649H216.68V220.553H228.653V208.649Z" fill="white"/>
<path opacity="0.4" d="M242.844 220.553H254.817V208.649H242.844V220.553Z" fill="white"/>
<path opacity="0.4" d="M342.177 87.5693H326.213V103.214H342.177V87.5693Z" fill="white"/>
<path opacity="0.4" d="M342.177 110.017H326.213V125.662H342.177V110.017Z" fill="white"/>
<path opacity="0.4" d="M342.177 132.464H326.213V148.109H342.177V132.464Z" fill="white"/>
<path opacity="0.4" d="M342.177 154.911H326.213V170.556H342.177V154.911Z" fill="white"/>
<path opacity="0.4" d="M342.177 177.359H326.213V193.004H342.177V177.359Z" fill="white"/>
<path opacity="0.4" d="M342.177 199.806H326.213V215.451H342.177V199.806Z" fill="white"/>
<path opacity="0.4" d="M430.647 119.54H371.224V132.804H430.647V119.54Z" fill="white"/>
<path opacity="0.4" d="M430.868 148.109H371.445V161.373H430.868V148.109Z" fill="white"/>
<path opacity="0.4" d="M431.09 176.678H371.667V189.943H431.09V176.678Z" fill="white"/>
<path opacity="0.4" d="M431.312 205.248H371.889V218.512H431.312V205.248Z" fill="white"/>
<path opacity="0.4" d="M115.543 91.9907H107.561V104.915H115.543V91.9907Z" fill="white"/>
<path opacity="0.4" d="M478.319 151.51H458.364V171.237H478.319V151.51Z" fill="white"/>
<path opacity="0.4" d="M478.319 180.079H458.364V199.806H478.319V180.079Z" fill="white"/>
<path opacity="0.4" d="M478.319 208.989H458.364V228.715H478.319V208.989Z" fill="white"/>
<path d="M927.66 49.1256C927.66 58.0318 920.396 65.2512 912.662 65.2512C904.927 65.2512 897 58.0318 897 49.1256C897 40.2194 904.927 33 912.662 33C920.396 33 927.66 40.22 927.66 49.1256Z" fill="url(#paint1_linear)"/>
<path d="M926.942 49.1257C926.942 57.6146 920.018 64.4965 912.646 64.4965C905.273 64.4965 897.718 57.6152 897.718 49.1257C897.718 40.6362 905.274 33.7548 912.646 33.7548C920.019 33.7548 926.942 40.639 926.942 49.1257Z" fill="#6C63FF"/>
<path d="M916.837 72.7061H907.464V81H916.837V72.7061Z" fill="url(#paint2_linear)"/>
<path d="M916.624 72.7061H907.742V80.5685H916.624V72.7061Z" fill="#85828B"/>
<path d="M916.514 72.706L916.885 65.5214" stroke="#AD7676" stroke-width="0.5" stroke-miterlimit="10"/>
<path d="M907.961 72.706L907.459 65.5214" stroke="#AD7676" stroke-width="0.5" stroke-miterlimit="10"/>
<path d="M913.673 65.0358H910.356V66.2221H913.673V65.0358Z" fill="#6C63FF"/>
<g opacity="0.2">
<path opacity="0.2" d="M912.646 33.7012C912.47 33.7012 912.295 33.7064 912.119 33.7143C919.291 34.0313 925.889 40.7832 925.889 49.0721C925.889 57.3609 919.291 64.1128 912.119 64.4298C912.295 64.4378 912.471 64.4429 912.646 64.4429C920.018 64.4429 926.943 57.561 926.943 49.0721C926.943 40.5831 920.018 33.7012 912.646 33.7012Z" fill="black"/>
</g>
<g opacity="0.2">
<path opacity="0.2" d="M898.56 49.1257C898.56 40.7581 905.901 33.9521 913.172 33.7594C913.067 33.7594 912.961 33.7548 912.856 33.7548C905.484 33.7548 897.928 40.639 897.928 49.1257C897.928 57.6123 905.484 64.4965 912.856 64.4965C912.961 64.4965 913.067 64.4965 913.172 64.4919C905.902 64.297 898.56 57.4937 898.56 49.1257Z" fill="white"/>
</g>
<path d="M916.938 62.3393H907.407V65.5214H916.938V62.3393Z" fill="#6C63FF"/>
<path opacity="0.2" d="M907.406 34.8744C907.406 34.8744 896.086 48.128 907.406 63.3779L911.145 63.3648C911.145 63.3648 900.824 50.7662 910.671 33.9178L908.829 34.3482L907.406 34.8744Z" fill="white"/>
<path opacity="0.2" d="M917.253 34.672C917.253 34.672 928.574 48.1257 917.253 63.3774L913.515 63.3643C913.515 63.3643 923.835 50.6585 913.988 33.8095L915.83 34.1863L917.253 34.672Z" fill="white"/>
</g>
<defs>
<linearGradient id="paint0_linear" x1="0" y1="132" x2="1026" y2="132" gradientUnits="userSpaceOnUse">
<stop stop-color="#5D9FFF"/>
<stop offset="0.48" stop-color="#B8DCFF"/>
<stop offset="1" stop-color="#6BBBFF"/>
</linearGradient>
<linearGradient id="paint1_linear" x1="912.33" y1="65.2518" x2="912.33" y2="33" gradientUnits="userSpaceOnUse">
<stop stop-color="#808080" stop-opacity="0.25"/>
<stop offset="0.54" stop-color="#808080" stop-opacity="0.12"/>
<stop offset="1" stop-color="#808080" stop-opacity="0.1"/>
</linearGradient>
<linearGradient id="paint2_linear" x1="7702.76" y1="7188.93" x2="7702.76" y2="5982.24" gradientUnits="userSpaceOnUse">
<stop stop-color="#808080" stop-opacity="0.25"/>
<stop offset="0.54" stop-color="#808080" stop-opacity="0.12"/>
<stop offset="1" stop-color="#808080" stop-opacity="0.1"/>
</linearGradient>
</defs>
</svg>
