<svg width="121" height="95" viewBox="0 0 121 95" fill="none" xmlns="http://www.w3.org/2000/svg">
<g opacity="0.9">
<rect width="121" height="95" fill="url(#paint0_linear)"/>
<path opacity="0.3" d="M98.4401 49.1101V42.3398H94.5895V49.1101H90.0295V38.6372H86.6856V30.809H83.9496V22.7692H78.275V30.809H75.5391V38.6372H72.2964V29.2222H70.4725V24.4618H69.3578V29.2222H62.8726V59.2657H57.9073V56.0921H54.8673V59.2657H49.9021V49.1101H40.9849V42.3398H37.1343V49.1101H36.9316V62.1219H32.8783V54.5053H28.0144V62.1219H23.9611V38.6372H20.8198V30.809H9.26798V38.6372H6.22803V79.9999H23.9611H36.9316H49.9021H62.8726H72.2964H90.0295H103V49.1101H98.4401Z" fill="#6F69D1"/>
<path d="M102.654 22.0067L101.334 22.5874L102.134 21.5775C101.908 21.4512 101.627 21.3813 101.337 21.3788H101.317C101.225 21.3795 101.133 21.3747 101.042 21.3646L100.596 21.5609L100.787 21.3244C100.47 21.2474 100.197 21.103 100.005 20.9117L99.2065 21.2665L99.7174 20.6291C99.5049 20.4383 99.2338 20.2828 98.9239 20.174C98.6139 20.0652 98.2729 20.0057 97.9257 20C97.0946 20 96.3537 20.3429 95.882 20.8786C95.74 21.0394 95.539 21.1711 95.2996 21.2603C95.0602 21.3494 94.791 21.3928 94.5195 21.3859H94.4752C93.5572 21.3859 92.813 22.1096 92.813 23.0012C92.813 23.8929 93.5572 24.6154 94.4752 24.6154C94.6771 24.6149 94.8758 24.5804 95.0543 24.5149C95.3669 24.4092 95.7089 24.352 96.0565 24.3473C96.4041 24.3426 96.749 24.3905 97.0673 24.4877C97.3354 24.5704 97.6255 24.6132 97.9189 24.6132C98.2123 24.6132 98.5024 24.5704 98.7704 24.4877C99.0862 24.3926 99.4278 24.3458 99.7719 24.3505C100.116 24.3552 100.455 24.4112 100.765 24.5149C100.942 24.5784 101.138 24.6121 101.337 24.613C102.255 24.613 102.999 23.8905 102.999 22.9989C103.006 22.6533 102.887 22.3121 102.654 22.0067V22.0067Z" fill="#F2F2F2"/>
<path opacity="0.03" d="M100.169 24.3693C99.6887 24.3055 99.1922 24.343 98.7432 24.4769C98.4749 24.5592 98.1849 24.6019 97.8916 24.6023C97.5979 24.6014 97.3077 24.5575 97.0401 24.4734C96.7216 24.3767 96.3766 24.3291 96.0291 24.334C95.6815 24.3389 95.3396 24.3962 95.027 24.5018C94.8492 24.5673 94.651 24.6018 94.4497 24.6023C93.6339 24.6023 92.9543 24.0311 92.813 23.279C92.9757 23.1961 93.1144 23.0926 93.2217 22.974C93.6986 22.4383 94.4395 22.0953 95.2655 22.0953C96.0915 22.0953 96.8289 22.4347 97.3092 22.9633C97.4516 23.1232 97.6511 23.2548 97.8883 23.3453C98.1255 23.4359 98.3925 23.4823 98.6632 23.4801H98.6853C99.3274 23.4801 99.8945 23.8419 100.169 24.3693Z" fill="black"/>
<path opacity="0.4" d="M12.4088 41.0703H8.15283V43.6092H12.4088V41.0703Z" fill="white"/>
<path opacity="0.4" d="M17.6786 43.6091H21.9346V41.0702H17.6786V43.6091Z" fill="white"/>
<path opacity="0.4" d="M12.4088 46.0424H8.15283V48.5812H12.4088V46.0424Z" fill="white"/>
<path opacity="0.4" d="M17.6786 48.5813H21.9346V46.0424H17.6786V48.5813Z" fill="white"/>
<path opacity="0.4" d="M12.4088 51.0143H8.15283V53.5532H12.4088V51.0143Z" fill="white"/>
<path opacity="0.4" d="M17.6786 53.5532H21.9346V51.0143H17.6786V53.5532Z" fill="white"/>
<path opacity="0.4" d="M12.4088 55.9863H8.15283V58.5252H12.4088V55.9863Z" fill="white"/>
<path opacity="0.4" d="M17.6786 58.5251H21.9346V55.9863H17.6786V58.5251Z" fill="white"/>
<path opacity="0.4" d="M12.4088 60.9584H8.15283V63.4973H12.4088V60.9584Z" fill="white"/>
<path opacity="0.4" d="M17.6786 63.4971H21.9346V60.9582H17.6786V63.4971Z" fill="white"/>
<path opacity="0.4" d="M12.4088 65.9304H8.15283V68.4693H12.4088V65.9304Z" fill="white"/>
<path opacity="0.4" d="M17.6786 68.4692H21.9346V65.9303H17.6786V68.4692Z" fill="white"/>
<path opacity="0.4" d="M12.4088 70.9025H8.15283V73.4414H12.4088V70.9025Z" fill="white"/>
<path opacity="0.4" d="M17.6786 73.4413H21.9346V70.9024H17.6786V73.4413Z" fill="white"/>
<path opacity="0.4" d="M35.4115 64.6609H25.481V65.9303H35.4115V64.6609Z" fill="white"/>
<path opacity="0.4" d="M35.4115 66.5651H25.481V67.8345H35.4115V66.5651Z" fill="white"/>
<path opacity="0.4" d="M35.4115 68.4692H25.481V69.7387H35.4115V68.4692Z" fill="white"/>
<path opacity="0.4" d="M61.3519 65.2955H51.4214V66.565H61.3519V65.2955Z" fill="white"/>
<path opacity="0.4" d="M61.3519 67.1997H51.4214V68.4691H61.3519V67.1997Z" fill="white"/>
<path opacity="0.4" d="M61.3519 69.1039H51.4214V70.3733H61.3519V69.1039Z" fill="white"/>
<path opacity="0.4" d="M35.4115 70.3733H25.481V71.6427H35.4115V70.3733Z" fill="white"/>
<path opacity="0.4" d="M35.4115 72.2777H25.481V73.5472H35.4115V72.2777Z" fill="white"/>
<path opacity="0.4" d="M35.4115 74.1818H25.481V75.4512H35.4115V74.1818Z" fill="white"/>
<path opacity="0.4" d="M41.7955 51.5432H39.0596V55.2458H41.7955V51.5432Z" fill="white"/>
<path opacity="0.4" d="M45.0385 55.246H47.7744V51.5434H45.0385V55.246Z" fill="white"/>
<path opacity="0.4" d="M41.7955 57.4675H39.0596V61.1701H41.7955V57.4675Z" fill="white"/>
<path opacity="0.4" d="M45.0385 61.1698H47.7744V57.4673H45.0385V61.1698Z" fill="white"/>
<path opacity="0.4" d="M41.7955 63.3914H39.0596V67.0939H41.7955V63.3914Z" fill="white"/>
<path opacity="0.4" d="M45.0385 67.094H47.7744V63.3914H45.0385V67.094Z" fill="white"/>
<path opacity="0.4" d="M41.7955 69.3156H39.0596V73.0181H41.7955V69.3156Z" fill="white"/>
<path opacity="0.4" d="M45.0385 73.0181H47.7744V69.3155H45.0385V73.0181Z" fill="white"/>
<path opacity="0.4" d="M67.7358 31.6554H64.0879V36.5216H67.7358V31.6554Z" fill="white"/>
<path opacity="0.4" d="M67.7358 38.6373H64.0879V43.5035H67.7358V38.6373Z" fill="white"/>
<path opacity="0.4" d="M67.7358 45.6193H64.0879V50.4855H67.7358V45.6193Z" fill="white"/>
<path opacity="0.4" d="M67.7358 52.6011H64.0879V57.4673H67.7358V52.6011Z" fill="white"/>
<path opacity="0.4" d="M67.7358 59.5831H64.0879V64.4493H67.7358V59.5831Z" fill="white"/>
<path opacity="0.4" d="M67.7358 66.5651H64.0879V71.4313H67.7358V66.5651Z" fill="white"/>
<path opacity="0.4" d="M87.9525 41.5994H74.374V45.7251H87.9525V41.5994Z" fill="white"/>
<path opacity="0.4" d="M88.0033 50.4855H74.4248V54.6112H88.0033V50.4855Z" fill="white"/>
<path opacity="0.4" d="M88.0531 59.3716H74.4746V63.4973H88.0531V59.3716Z" fill="white"/>
<path opacity="0.4" d="M88.1039 68.2577H74.5254V72.3834H88.1039V68.2577Z" fill="white"/>
<path opacity="0.4" d="M15.95 33.0305H14.126V37.0504H15.95V33.0305Z" fill="white"/>
<path opacity="0.4" d="M98.8456 51.5432H94.2856V57.6789H98.8456V51.5432Z" fill="white"/>
<path opacity="0.4" d="M98.8456 60.4294H94.2856V66.5651H98.8456V60.4294Z" fill="white"/>
<path opacity="0.4" d="M98.8456 69.4214H94.2856V75.557H98.8456V69.4214Z" fill="white"/>
<path d="M30.0334 13.0212C29.8943 13.1073 29.65 13.178 29.3673 13.2349C28.5984 13.3898 27.5449 13.4448 27.5449 13.4448C27.5449 13.4448 22.1288 14.1991 18.0695 11.3939C18.0695 11.3939 17.4791 10.8741 18.0268 10.1746C18.1111 10.0701 18.2008 9.97824 18.2947 9.90015L18.3014 9.88892C18.3637 9.79223 18.431 9.7051 18.5026 9.62857C18.7129 9.40026 19.068 9.12963 19.5002 9.25228L30.1616 12.1476C30.1616 12.1476 30.551 12.7001 30.0334 13.0212Z" fill="#3F3D56"/>
<path d="M27.9092 11.7088L30.1411 9.04993L31.1247 9.33561L30.1616 12.1475C30.1616 12.1475 27.9348 12.1774 27.9092 11.7088Z" fill="#3F3D56"/>
<path d="M22.29 10.0935L26.7357 8L27.4523 8.2515L25.4441 9.76839L24.8165 10.9475L22.29 10.0935Z" fill="#3F3D56"/>
<path d="M29.3673 13.2349C28.5984 13.3898 27.5449 13.4448 27.5449 13.4448C27.5449 13.4448 22.1288 14.199 18.0695 11.3938C18.0695 11.3938 17.4791 10.8741 18.0268 10.1746L18.0286 10.1875C18.0286 10.1875 18.9045 11.1815 23.0895 12.0113L29.3673 13.2349Z" fill="#6C63FF"/>
<path d="M28.6527 13.1775L30.6402 14.5402L31.1395 14.4472L29.9507 12.9468C29.9507 12.9468 28.5127 12.4316 28.6527 13.1775Z" fill="#3F3D56"/>
<path d="M18.7494 10.3331C18.6546 10.3357 18.4374 10.0687 18.3022 9.88889C18.3645 9.7922 18.4319 9.70507 18.5034 9.62854C18.6123 9.76887 18.8061 9.99599 18.9139 9.98714C19.0695 9.97638 18.8923 10.3288 18.7494 10.3331Z" fill="#6C63FF"/>
<path d="M27.7788 17.8878L26.5027 17.9999L22.9148 13.9377L22.2488 13.1834L21.9253 12.8169C22.5322 11.9563 25.0086 13.1433 25.0086 13.1433C25.056 13.2104 25.0711 13.3221 25.0689 13.4454C25.0648 13.6764 25.0002 13.9475 24.9753 14.045C24.9693 14.0689 24.9656 14.0816 24.9656 14.0816L27.7788 17.8878Z" fill="#3F3D56"/>
<path d="M56.5785 20.174L55.1951 20.803L56.0341 19.7089C55.797 19.5722 55.5028 19.4964 55.1987 19.4937H55.1773C55.081 19.4944 54.9849 19.4893 54.8899 19.4784L54.4222 19.691L54.6221 19.4348C54.2902 19.3514 54.0035 19.1949 53.8028 18.9877L52.9656 19.372L53.5011 18.6815C53.2785 18.4748 52.9943 18.3064 52.6695 18.1885C52.3446 18.0706 51.9872 18.0062 51.6233 18C50.7522 18 49.9757 18.3715 49.4813 18.9518C49.3324 19.126 49.1218 19.2687 48.8709 19.3653C48.6199 19.4619 48.3378 19.5088 48.0532 19.5014H48.0068C47.0447 19.5014 46.2646 20.2854 46.2646 21.2513C46.2646 22.2173 47.0447 23 48.0068 23C48.2184 22.9995 48.4267 22.9621 48.6137 22.8911C48.9414 22.7766 49.2998 22.7147 49.6642 22.7096C50.0285 22.7045 50.39 22.7564 50.7236 22.8616C51.0046 22.9513 51.3087 22.9976 51.6161 22.9976C51.9236 22.9976 52.2277 22.9513 52.5086 22.8616C52.8396 22.7586 53.1976 22.7079 53.5583 22.713C53.9189 22.7181 54.2738 22.7788 54.5989 22.8911C54.7843 22.96 54.9899 22.9964 55.1987 22.9974C56.1608 22.9974 56.9409 22.2147 56.9409 21.2488C56.9476 20.8744 56.823 20.5047 56.5785 20.174V20.174Z" fill="#F2F2F2"/>
<path opacity="0.03" d="M53.9741 22.7335C53.4711 22.6644 52.9507 22.705 52.4801 22.8501C52.1989 22.9392 51.895 22.9854 51.5876 22.9859C51.2797 22.9849 50.9756 22.9373 50.6951 22.8462C50.3612 22.7415 49.9997 22.6899 49.6354 22.6952C49.2711 22.7006 48.9128 22.7626 48.5852 22.877C48.3988 22.948 48.1911 22.9854 47.98 22.9859C47.125 22.9859 46.4128 22.3671 46.2646 21.5524C46.4352 21.4626 46.5806 21.3504 46.6931 21.2219C47.1929 20.6415 47.9693 20.27 48.8351 20.27C49.7008 20.27 50.4737 20.6377 50.9771 21.2103C51.1263 21.3835 51.3354 21.5261 51.5841 21.6242C51.8327 21.7223 52.1125 21.7725 52.3962 21.7701H52.4194C53.0923 21.7701 53.6867 22.1622 53.9741 22.7335Z" fill="black"/>
</g>
<defs>
<linearGradient id="paint0_linear" x1="0" y1="47.5" x2="121" y2="47.5" gradientUnits="userSpaceOnUse">
<stop stop-color="#5D9FFF"/>
<stop offset="0.48" stop-color="#B8DCFF"/>
<stop offset="1" stop-color="#6BBBFF"/>
</linearGradient>
</defs>
</svg>
