<svg width="121" height="95" viewBox="0 0 121 95" fill="none" xmlns="http://www.w3.org/2000/svg">
<g opacity="0.9">
<rect width="121" height="95" fill="url(#paint0_linear)"/>
<path opacity="0.3" d="M107.016 56.536V49.2015H102.807V56.536H97.8232V45.1904H94.1683V36.7098H91.1779V28H84.9755V36.7098H81.9851V45.1904H78.4409V34.9908H76.4473V29.8336H75.229V34.9908H68.1406V67.5379H62.7136V64.0998H59.3909V67.5379H53.9639V56.536H44.2173V49.2015H40.0086V56.536H39.7871V70.6322H35.3569V62.3808H30.0406V70.6322H25.6103V45.1904H22.1769V36.7098H9.55071V45.1904H6.22803V90H25.6103H39.7871H53.9639H68.1406H78.4409H97.8232H112V56.536H107.016Z" fill="#6F69D1"/>
<path d="M111.621 27.174L110.179 27.803L111.054 26.7089C110.806 26.5722 110.5 26.4964 110.183 26.4937H110.16C110.06 26.4944 109.96 26.4893 109.86 26.4784L109.373 26.691L109.581 26.4348C109.235 26.3514 108.936 26.1949 108.727 25.9877L107.854 26.372L108.412 25.6815C108.18 25.4748 107.884 25.3064 107.545 25.1885C107.206 25.0706 106.833 25.0062 106.454 25C105.546 25 104.736 25.3715 104.22 25.9518C104.065 26.126 103.845 26.2687 103.584 26.3653C103.322 26.4619 103.028 26.5088 102.731 26.5014H102.683C101.679 26.5014 100.866 27.2854 100.866 28.2513C100.866 29.2173 101.679 30 102.683 30C102.903 29.9995 103.12 29.9621 103.315 29.8911C103.657 29.7766 104.031 29.7147 104.411 29.7096C104.791 29.7045 105.168 29.7564 105.516 29.8616C105.809 29.9513 106.126 29.9976 106.446 29.9976C106.767 29.9976 107.084 29.9513 107.377 29.8616C107.722 29.7586 108.096 29.7079 108.472 29.713C108.848 29.7181 109.218 29.7788 109.557 29.8911C109.75 29.96 109.965 29.9964 110.183 29.9974C111.186 29.9974 111.999 29.2147 111.999 28.2488C112.006 27.8744 111.876 27.5047 111.621 27.174V27.174Z" fill="#F2F2F2"/>
<path opacity="0.03" d="M108.906 29.7335C108.381 29.6644 107.838 29.705 107.347 29.8501C107.054 29.9392 106.737 29.9854 106.417 29.9859C106.096 29.9849 105.778 29.9373 105.486 29.8462C105.138 29.7415 104.761 29.6899 104.381 29.6952C104.001 29.7006 103.627 29.7626 103.286 29.877C103.091 29.948 102.875 29.9854 102.655 29.9859C101.763 29.9859 101.02 29.3671 100.866 28.5524C101.044 28.4626 101.195 28.3504 101.312 28.2219C101.834 27.6415 102.643 27.27 103.546 27.27C104.449 27.27 105.255 27.6377 105.78 28.2103C105.936 28.3835 106.154 28.5261 106.413 28.6242C106.672 28.7223 106.964 28.7725 107.26 28.7701H107.284C107.986 28.7701 108.606 29.1622 108.906 29.7335Z" fill="black"/>
<path opacity="0.4" d="M12.9838 47.8263H8.33203V50.5768H12.9838V47.8263Z" fill="white"/>
<path opacity="0.4" d="M18.7438 50.5767H23.3955V47.8262H18.7438V50.5767Z" fill="white"/>
<path opacity="0.4" d="M12.9838 53.2125H8.33203V55.963H12.9838V53.2125Z" fill="white"/>
<path opacity="0.4" d="M18.7438 55.963H23.3955V53.2126H18.7438V55.963Z" fill="white"/>
<path opacity="0.4" d="M12.9838 58.5989H8.33203V61.3493H12.9838V58.5989Z" fill="white"/>
<path opacity="0.4" d="M18.7438 61.3494H23.3955V58.5989H18.7438V61.3494Z" fill="white"/>
<path opacity="0.4" d="M12.9838 63.9852H8.33203V66.7357H12.9838V63.9852Z" fill="white"/>
<path opacity="0.4" d="M18.7438 66.7356H23.3955V63.9851H18.7438V66.7356Z" fill="white"/>
<path opacity="0.4" d="M12.9838 69.3715H8.33203V72.1219H12.9838V69.3715Z" fill="white"/>
<path opacity="0.4" d="M18.7438 72.1219H23.3955V69.3715H18.7438V72.1219Z" fill="white"/>
<path opacity="0.4" d="M12.9838 74.7579H8.33203V77.5084H12.9838V74.7579Z" fill="white"/>
<path opacity="0.4" d="M18.7438 77.5083H23.3955V74.7578H18.7438V77.5083Z" fill="white"/>
<path opacity="0.4" d="M12.9838 80.1443H8.33203V82.8948H12.9838V80.1443Z" fill="white"/>
<path opacity="0.4" d="M18.7438 82.8947H23.3955V80.1442H18.7438V82.8947Z" fill="white"/>
<path opacity="0.4" d="M38.1256 73.3827H27.2715V74.7579H38.1256V73.3827Z" fill="white"/>
<path opacity="0.4" d="M38.1256 75.4454H27.2715V76.8207H38.1256V75.4454Z" fill="white"/>
<path opacity="0.4" d="M38.1256 77.5083H27.2715V78.8835H38.1256V77.5083Z" fill="white"/>
<path opacity="0.4" d="M66.4786 74.0702H55.6245V75.4454H66.4786V74.0702Z" fill="white"/>
<path opacity="0.4" d="M66.4786 76.1331H55.6245V77.5083H66.4786V76.1331Z" fill="white"/>
<path opacity="0.4" d="M66.4786 78.1959H55.6245V79.5712H66.4786V78.1959Z" fill="white"/>
<path opacity="0.4" d="M38.1256 79.571H27.2715V80.9463H38.1256V79.571Z" fill="white"/>
<path opacity="0.4" d="M38.1256 81.6342H27.2715V83.0094H38.1256V81.6342Z" fill="white"/>
<path opacity="0.4" d="M38.1256 83.6969H27.2715V85.0721H38.1256V83.6969Z" fill="white"/>
<path opacity="0.4" d="M45.1032 59.1719H42.1128V63.183H45.1032V59.1719Z" fill="white"/>
<path opacity="0.4" d="M48.6478 63.1831H51.6382V59.172H48.6478V63.1831Z" fill="white"/>
<path opacity="0.4" d="M45.1032 65.5897H42.1128V69.6008H45.1032V65.5897Z" fill="white"/>
<path opacity="0.4" d="M48.6478 69.6007H51.6382V65.5896H48.6478V69.6007Z" fill="white"/>
<path opacity="0.4" d="M45.1032 72.0073H42.1128V76.0184H45.1032V72.0073Z" fill="white"/>
<path opacity="0.4" d="M48.6478 76.0184H51.6382V72.0073H48.6478V76.0184Z" fill="white"/>
<path opacity="0.4" d="M45.1032 78.4252H42.1128V82.4363H45.1032V78.4252Z" fill="white"/>
<path opacity="0.4" d="M48.6478 82.4363H51.6382V78.4252H48.6478V82.4363Z" fill="white"/>
<path opacity="0.4" d="M73.4565 37.6267H69.4692V42.8984H73.4565V37.6267Z" fill="white"/>
<path opacity="0.4" d="M73.4565 45.1904H69.4692V50.4622H73.4565V45.1904Z" fill="white"/>
<path opacity="0.4" d="M73.4565 52.7542H69.4692V58.0259H73.4565V52.7542Z" fill="white"/>
<path opacity="0.4" d="M73.4565 60.3179H69.4692V65.5896H73.4565V60.3179Z" fill="white"/>
<path opacity="0.4" d="M73.4565 67.8817H69.4692V73.1534H73.4565V67.8817Z" fill="white"/>
<path opacity="0.4" d="M73.4565 75.4454H69.4692V80.7172H73.4565V75.4454Z" fill="white"/>
<path opacity="0.4" d="M95.5532 48.3993H80.7119V52.8688H95.5532V48.3993Z" fill="white"/>
<path opacity="0.4" d="M95.6084 58.0259H80.7671V62.4954H95.6084V58.0259Z" fill="white"/>
<path opacity="0.4" d="M95.6631 67.6525H80.8218V72.122H95.6631V67.6525Z" fill="white"/>
<path opacity="0.4" d="M95.7188 77.2792H80.8774V81.7487H95.7188V77.2792Z" fill="white"/>
<path opacity="0.4" d="M16.854 39.1165H14.8604V43.4714H16.854V39.1165Z" fill="white"/>
<path opacity="0.4" d="M107.459 59.1719H102.475V65.8188H107.459V59.1719Z" fill="white"/>
<path opacity="0.4" d="M107.459 68.7986H102.475V75.4455H107.459V68.7986Z" fill="white"/>
<path opacity="0.4" d="M107.459 78.5398H102.475V85.1867H107.459V78.5398Z" fill="white"/>
<path d="M30.0334 13.0212C29.8943 13.1073 29.65 13.178 29.3673 13.2349C28.5984 13.3898 27.5449 13.4448 27.5449 13.4448C27.5449 13.4448 22.1288 14.1991 18.0695 11.3939C18.0695 11.3939 17.4791 10.8741 18.0268 10.1746C18.1111 10.0701 18.2008 9.97824 18.2947 9.90015L18.3014 9.88892C18.3637 9.79223 18.431 9.7051 18.5026 9.62857C18.7129 9.40026 19.068 9.12963 19.5002 9.25228L30.1616 12.1476C30.1616 12.1476 30.551 12.7001 30.0334 13.0212Z" fill="#3F3D56"/>
<path d="M27.9092 11.7088L30.1411 9.04993L31.1247 9.33561L30.1616 12.1475C30.1616 12.1475 27.9348 12.1774 27.9092 11.7088Z" fill="#3F3D56"/>
<path d="M22.29 10.0935L26.7357 8L27.4523 8.2515L25.4441 9.76839L24.8165 10.9475L22.29 10.0935Z" fill="#3F3D56"/>
<path d="M29.3673 13.2349C28.5984 13.3898 27.5449 13.4448 27.5449 13.4448C27.5449 13.4448 22.1288 14.199 18.0695 11.3938C18.0695 11.3938 17.4791 10.8741 18.0268 10.1746L18.0286 10.1875C18.0286 10.1875 18.9045 11.1815 23.0895 12.0113L29.3673 13.2349Z" fill="#6C63FF"/>
<path d="M28.6527 13.1775L30.6402 14.5402L31.1395 14.4472L29.9507 12.9468C29.9507 12.9468 28.5127 12.4316 28.6527 13.1775Z" fill="#3F3D56"/>
<path d="M18.7494 10.3331C18.6546 10.3357 18.4374 10.0687 18.3022 9.88889C18.3645 9.7922 18.4319 9.70507 18.5034 9.62854C18.6123 9.76887 18.8061 9.99599 18.9139 9.98714C19.0695 9.97638 18.8923 10.3288 18.7494 10.3331Z" fill="#6C63FF"/>
<path d="M27.7788 17.8878L26.5027 17.9999L22.9148 13.9377L22.2488 13.1834L21.9253 12.8169C22.5322 11.9563 25.0086 13.1433 25.0086 13.1433C25.056 13.2104 25.0711 13.3221 25.0689 13.4454C25.0648 13.6764 25.0002 13.9475 24.9753 14.045C24.9693 14.0689 24.9656 14.0816 24.9656 14.0816L27.7788 17.8878Z" fill="#3F3D56"/>
<path d="M56.5785 23.174L55.1951 23.803L56.0341 22.7089C55.797 22.5722 55.5028 22.4964 55.1987 22.4937H55.1773C55.081 22.4944 54.9849 22.4893 54.8899 22.4784L54.4222 22.691L54.6221 22.4348C54.2902 22.3514 54.0035 22.1949 53.8028 21.9877L52.9656 22.372L53.5011 21.6815C53.2785 21.4748 52.9943 21.3064 52.6695 21.1885C52.3446 21.0706 51.9872 21.0062 51.6233 21C50.7522 21 49.9757 21.3715 49.4813 21.9518C49.3324 22.126 49.1218 22.2687 48.8709 22.3653C48.6199 22.4619 48.3378 22.5088 48.0532 22.5014H48.0068C47.0447 22.5014 46.2646 23.2854 46.2646 24.2513C46.2646 25.2173 47.0447 26 48.0068 26C48.2184 25.9995 48.4267 25.9621 48.6137 25.8911C48.9414 25.7766 49.2998 25.7147 49.6642 25.7096C50.0285 25.7045 50.39 25.7564 50.7236 25.8616C51.0046 25.9513 51.3087 25.9976 51.6161 25.9976C51.9236 25.9976 52.2277 25.9513 52.5086 25.8616C52.8396 25.7586 53.1976 25.7079 53.5583 25.713C53.9189 25.7181 54.2738 25.7788 54.5989 25.8911C54.7843 25.96 54.9899 25.9964 55.1987 25.9974C56.1608 25.9974 56.9409 25.2147 56.9409 24.2488C56.9476 23.8744 56.823 23.5047 56.5785 23.174V23.174Z" fill="#F2F2F2"/>
<path opacity="0.03" d="M53.9741 25.7335C53.4711 25.6644 52.9507 25.705 52.4801 25.8501C52.1989 25.9392 51.895 25.9854 51.5876 25.9859C51.2797 25.9849 50.9756 25.9373 50.6951 25.8462C50.3612 25.7415 49.9997 25.6899 49.6354 25.6952C49.2711 25.7006 48.9128 25.7626 48.5852 25.877C48.3988 25.948 48.1911 25.9854 47.98 25.9859C47.125 25.9859 46.4128 25.3671 46.2646 24.5524C46.4352 24.4626 46.5806 24.3504 46.6931 24.2219C47.1929 23.6415 47.9693 23.27 48.8351 23.27C49.7008 23.27 50.4737 23.6377 50.9771 24.2103C51.1263 24.3835 51.3354 24.5261 51.5841 24.6242C51.8327 24.7223 52.1125 24.7725 52.3962 24.7701H52.4194C53.0923 24.7701 53.6867 25.1622 53.9741 25.7335Z" fill="black"/>
</g>
<defs>
<linearGradient id="paint0_linear" x1="0" y1="47.5" x2="121" y2="47.5" gradientUnits="userSpaceOnUse">
<stop stop-color="#5D9FFF"/>
<stop offset="0.48" stop-color="#B8DCFF"/>
<stop offset="1" stop-color="#6BBBFF"/>
</linearGradient>
</defs>
</svg>
