<svg width="614" height="461" viewBox="0 0 614 461" fill="none" xmlns="http://www.w3.org/2000/svg">
<g clip-path="url(#clip0_390:9842)">
<path fill-rule="evenodd" clip-rule="evenodd" d="M306.188 3.29813C378.376 -6.86932 460.606 6.53639 515.534 42.6136C568.927 77.683 569.908 137.184 587.832 188.284C602.691 230.654 616.022 272.123 611.335 315.754C606.396 361.739 589.881 374.42 552.911 411.587C514.412 450.293 468.017 441.36 403.309 445.954C340.13 450.441 296.169 454.369 238.283 435.13C189.82 419.021 126.382 450.382 89.9135 421.818C52.8189 392.765 45.5183 351.152 32.1428 312.449C17.1812 269.159 -14.0713 224.255 7.17844 182.425C28.6575 140.142 95.0552 123.59 142.53 95.1493C196.844 62.6121 237.505 12.9716 306.188 3.29813Z" fill="#CCE6F4" fill-opacity="0.5"/>
<path d="M153.922 155.564C171.985 155.564 186.629 141.416 186.629 123.963C186.629 106.511 171.985 92.3623 153.922 92.3623C135.858 92.3623 121.215 106.511 121.215 123.963C121.215 141.416 135.858 155.564 153.922 155.564Z" fill="#FF6584"/>
<path d="M250.384 109.963H238.793V137.964H250.384V109.963Z" fill="#6C63FF"/>
<path d="M249.558 135.563H151.024V459.573H249.558V135.563Z" fill="#6C63FF"/>
<path d="M289.302 135.563H249.558V459.573H289.302V135.563Z" fill="#3F3D56"/>
<path d="M183.73 163.564H168.826V177.965H183.73V163.564Z" fill="white"/>
<path d="M207.742 163.564H192.837V177.965H207.742V163.564Z" fill="white"/>
<path d="M231.755 163.564H216.852V177.965H231.755V163.564Z" fill="white"/>
<path d="M184.144 196.365H169.24V210.767H184.144V196.365Z" fill="white"/>
<path d="M208.156 196.365H193.253V210.767H208.156V196.365Z" fill="white"/>
<path d="M232.169 196.365H217.264V210.767H232.169V196.365Z" fill="white"/>
<path d="M184.557 229.166H169.654V243.567H184.557V229.166Z" fill="white"/>
<path d="M208.57 229.166H193.667V243.567H208.57V229.166Z" fill="white"/>
<path d="M232.583 229.166H217.677V243.567H232.583V229.166Z" fill="white"/>
<path d="M184.971 261.968H170.068V276.368H184.971V261.968Z" fill="white"/>
<path d="M208.984 261.968H194.081V276.368H208.984V261.968Z" fill="white"/>
<path d="M232.997 261.968H218.093V276.368H232.997V261.968Z" fill="white"/>
<path d="M185.387 294.769H170.482V309.168H185.387V294.769Z" fill="white"/>
<path d="M209.398 294.769H194.494V309.168H209.398V294.769Z" fill="white"/>
<path d="M233.411 294.769H218.507V309.168H233.411V294.769Z" fill="white"/>
<path d="M185.799 327.57H170.895V341.97H185.799V327.57Z" fill="white"/>
<path d="M209.812 327.57H194.908V341.97H209.812V327.57Z" fill="white"/>
<path d="M233.824 327.57H218.919V341.97H233.824V327.57Z" fill="white"/>
<path d="M186.213 360.371H171.31V374.77H186.213V360.371Z" fill="white"/>
<path d="M210.226 360.371H195.322V374.77H210.226V360.371Z" fill="white"/>
<path d="M234.238 360.371H219.335V374.77H234.238V360.371Z" fill="white"/>
<path d="M186.629 393.171H171.723V407.573H186.629V393.171Z" fill="white"/>
<path d="M210.64 393.171H195.736V407.573H210.64V393.171Z" fill="white"/>
<path d="M210.64 431.572H195.736V458.773H210.64V431.572Z" fill="white"/>
<path d="M234.652 393.171H219.749V407.573H234.652V393.171Z" fill="white"/>
<path d="M256.182 109.963H249.558V137.164H256.182V109.963Z" fill="#3F3D56"/>
<path d="M83.9881 427.638C95.8963 427.638 105.55 418.31 105.55 406.805C105.55 395.299 95.8963 385.971 83.9881 385.971C72.0797 385.971 62.4263 395.299 62.4263 406.805C62.4263 418.31 72.0797 427.638 83.9881 427.638Z" fill="#6C63FF"/>
<path opacity="0.2" d="M100.027 392.889C102.038 397.435 102.311 402.524 100.797 407.246C99.2826 411.968 96.0799 416.015 91.7609 418.666C87.442 421.316 82.2883 422.398 77.2209 421.714C72.1534 421.031 67.5024 418.63 64.0989 414.939C65.3276 417.716 67.1663 420.201 69.4881 422.224C71.8096 424.246 74.5588 425.758 77.5445 426.65C80.5303 427.545 83.6817 427.801 86.7801 427.402C89.8785 427.001 92.85 425.956 95.4886 424.337C98.1273 422.717 100.37 420.563 102.061 418.023C103.753 415.482 104.853 412.619 105.284 409.628C105.716 406.636 105.469 403.589 104.562 400.7C103.654 397.809 102.107 395.145 100.027 392.889Z" fill="black"/>
<path d="M84.0476 400.312H84.1073L85.173 459.377H82.9224L84.0476 400.312Z" fill="#3F3D56"/>
<path d="M582.512 419.882C594.42 419.882 604.073 410.553 604.073 399.048C604.073 387.542 594.42 378.215 582.512 378.215C570.604 378.215 560.95 387.542 560.95 399.048C560.95 410.553 570.604 419.882 582.512 419.882Z" fill="#6C63FF"/>
<path opacity="0.2" d="M598.551 385.133C600.562 389.678 600.836 394.767 599.32 399.489C597.807 404.211 594.603 408.26 590.285 410.91C585.966 413.561 580.811 414.641 575.745 413.959C570.678 413.275 566.026 410.873 562.622 407.182C563.852 409.959 565.691 412.446 568.011 414.468C570.334 416.491 573.083 418.001 576.069 418.895C579.055 419.789 582.205 420.044 585.304 419.645C588.402 419.246 591.374 418.2 594.013 416.58C596.651 414.962 598.894 412.806 600.586 410.268C602.277 407.727 603.375 404.862 603.808 401.871C604.239 398.879 603.993 395.834 603.085 392.943C602.178 390.053 600.63 387.388 598.551 385.133Z" fill="black"/>
<path d="M582.571 400.648H582.631L583.697 459.713H581.446L582.571 400.648Z" fill="#3F3D56"/>
<path d="M586.498 432.82L586.001 431.908L582.436 433.721L582.934 434.634L586.498 432.82Z" fill="#3F3D56"/>
<path d="M128.465 132.736L136.088 126.846C130.166 126.214 127.733 129.335 126.737 131.805C122.111 129.949 117.075 132.381 117.075 132.381L132.326 137.73C131.557 135.745 130.217 134.012 128.465 132.736Z" fill="#3F3D56"/>
<path d="M296.552 110.336L304.173 104.445C298.252 103.814 295.82 106.934 294.823 109.404C290.198 107.548 285.161 109.981 285.161 109.981L300.412 115.33C299.642 113.344 298.303 111.612 296.552 110.336Z" fill="#3F3D56"/>
<path d="M203.814 87.135L211.437 81.2446C205.514 80.6135 203.082 83.7337 202.086 86.2034C197.46 84.3474 192.423 86.7798 192.423 86.7798L207.674 92.1294C206.906 90.1438 205.565 88.4113 203.814 87.135Z" fill="#3F3D56"/>
<path d="M72.678 441.972H21.3413V443.573H29.3474V458.773H31.0033V443.573H62.1879V458.773H63.844V443.573H72.678V441.972Z" fill="#3F3D56"/>
<path d="M124.842 449.996C122.816 449.996 120.825 450.512 119.071 451.493C117.29 449.936 115.079 448.912 112.708 448.546C110.336 448.179 107.905 448.488 105.711 449.429C103.516 450.372 101.652 451.911 100.345 453.858C99.0373 455.804 98.3429 458.076 98.346 460.396H136.393C136.185 457.573 134.878 454.931 132.735 453C130.592 451.07 127.772 449.998 124.842 449.996Z" fill="#3F3D56"/>
<path d="M173.379 449.173C171.354 449.173 169.363 449.689 167.609 450.668C165.828 449.113 163.617 448.089 161.245 447.723C158.873 447.357 156.443 447.663 154.248 448.606C152.054 449.549 150.19 451.088 148.882 453.035C147.575 454.981 146.88 457.253 146.884 459.573H184.93C184.723 456.75 183.417 454.108 181.272 452.178C179.129 450.247 176.309 449.174 173.379 449.173Z" fill="#3F3D56"/>
<path d="M382.457 110.38H370.865V138.381H382.457V110.38Z" fill="#6C63FF"/>
<path d="M381.629 135.981H283.095V459.991H381.629V135.981Z" fill="#6C63FF"/>
<path d="M421.373 135.981H381.629V459.991H421.373V135.981Z" fill="#3F3D56"/>
<path d="M315.801 163.981H300.898V178.383H315.801V163.981Z" fill="white"/>
<path d="M339.814 163.981H324.91V178.383H339.814V163.981Z" fill="white"/>
<path d="M363.827 163.981H348.923V178.383H363.827V163.981Z" fill="white"/>
<path d="M316.217 196.784H301.312V211.183H316.217V196.784Z" fill="white"/>
<path d="M340.228 196.784H325.324V211.183H340.228V196.784Z" fill="white"/>
<path d="M364.241 196.784H349.337V211.183H364.241V196.784Z" fill="white"/>
<path d="M316.631 229.584H301.727V243.984H316.631V229.584Z" fill="white"/>
<path d="M340.642 229.584H325.738V243.984H340.642V229.584Z" fill="white"/>
<path d="M364.655 229.584H349.751V243.984H364.655V229.584Z" fill="white"/>
<path d="M317.044 262.385H302.139V276.785H317.044V262.385Z" fill="white"/>
<path d="M341.057 262.385H326.152V276.785H341.057V262.385Z" fill="white"/>
<path d="M365.068 262.385H350.165V276.785H365.068V262.385Z" fill="white"/>
<path d="M317.459 295.186H302.553V309.586H317.459V295.186Z" fill="white"/>
<path d="M341.471 295.186H326.566V309.586H341.471V295.186Z" fill="white"/>
<path d="M365.482 295.186H350.579V309.586H365.482V295.186Z" fill="white"/>
<path d="M317.872 327.987H302.969V342.387H317.872V327.987Z" fill="white"/>
<path d="M341.884 327.987H326.98V342.387H341.884V327.987Z" fill="white"/>
<path d="M365.896 327.987H350.992V342.387H365.896V327.987Z" fill="white"/>
<path d="M318.286 360.788H303.383V375.189H318.286V360.788Z" fill="white"/>
<path d="M342.299 360.788H327.394V375.189H342.299V360.788Z" fill="white"/>
<path d="M366.31 360.788H351.406V375.189H366.31V360.788Z" fill="white"/>
<path d="M318.7 393.588H303.795V407.99H318.7V393.588Z" fill="white"/>
<path d="M342.713 393.588H327.809V407.99H342.713V393.588Z" fill="white"/>
<path d="M342.713 431.989H327.809V459.191H342.713V431.989Z" fill="white"/>
<path d="M366.726 393.588H351.82V407.99H366.726V393.588Z" fill="white"/>
<path d="M388.253 110.38H381.629V137.581H388.253V110.38Z" fill="#3F3D56"/>
<path d="M72.779 437.186H21.4424V438.786H72.779V437.186Z" fill="#3F3D56"/>
<path d="M72.779 433.186H21.4424V434.787H72.779V433.186Z" fill="#3F3D56"/>
<path d="M72.779 429.186H21.4424V430.785H72.779V429.186Z" fill="#3F3D56"/>
<path d="M301.722 449.173C299.695 449.173 297.704 449.689 295.95 450.668C294.169 449.113 291.958 448.089 289.587 447.723C287.215 447.357 284.785 447.663 282.589 448.606C280.394 449.549 278.53 451.088 277.223 453.035C275.917 454.981 275.222 457.253 275.224 459.573H313.272C313.065 456.75 311.758 454.108 309.613 452.178C307.47 450.247 304.65 449.174 301.722 449.173Z" fill="#3F3D56"/>
<path d="M507.994 110.38H496.401V138.381H507.994V110.38Z" fill="#6C63FF"/>
<path d="M507.166 135.981H408.633V459.991H507.166V135.981Z" fill="#6C63FF"/>
<path d="M546.91 135.981H507.166V459.991H546.91V135.981Z" fill="#3F3D56"/>
<path d="M441.339 163.981H426.434V178.383H441.339V163.981Z" fill="white"/>
<path d="M465.35 163.981H450.447V178.383H465.35V163.981Z" fill="white"/>
<path d="M489.363 163.981H474.459V178.383H489.363V163.981Z" fill="white"/>
<path d="M441.753 196.784H426.848V211.183H441.753V196.784Z" fill="white"/>
<path d="M465.766 196.784H450.861V211.183H465.766V196.784Z" fill="white"/>
<path d="M489.777 196.784H474.874V211.183H489.777V196.784Z" fill="white"/>
<path d="M442.167 229.584H427.262V243.984H442.167V229.584Z" fill="white"/>
<path d="M466.18 229.584H451.275V243.984H466.18V229.584Z" fill="white"/>
<path d="M490.191 229.584H475.287V243.984H490.191V229.584Z" fill="white"/>
<path d="M442.581 262.385H427.677V276.785H442.581V262.385Z" fill="white"/>
<path d="M466.594 262.385H451.688V276.785H466.594V262.385Z" fill="white"/>
<path d="M490.606 262.385H475.701V276.785H490.606V262.385Z" fill="white"/>
<path d="M442.995 295.186H428.091V309.586H442.995V295.186Z" fill="white"/>
<path d="M467.008 295.186H452.103V309.586H467.008V295.186Z" fill="white"/>
<path d="M491.019 295.186H476.115V309.586H491.019V295.186Z" fill="white"/>
<path d="M443.409 327.987H428.505V342.387H443.409V327.987Z" fill="white"/>
<path d="M467.422 327.987H452.518V342.387H467.422V327.987Z" fill="white"/>
<path d="M491.433 327.987H476.529V342.387H491.433V327.987Z" fill="white"/>
<path d="M443.823 360.788H428.919V375.189H443.823V360.788Z" fill="white"/>
<path d="M467.835 360.788H452.93V375.189H467.835V360.788Z" fill="white"/>
<path d="M491.848 360.788H476.943V375.189H491.848V360.788Z" fill="white"/>
<path d="M444.237 393.588H429.333V407.99H444.237V393.588Z" fill="white"/>
<path d="M468.249 393.588H453.346V407.99H468.249V393.588Z" fill="white"/>
<path d="M468.249 431.989H453.346V459.191H468.249V431.989Z" fill="white"/>
<path d="M492.262 393.588H477.357V407.99H492.262V393.588Z" fill="white"/>
<path d="M513.789 110.38H507.166V137.581H513.789V110.38Z" fill="#3F3D56"/>
<path d="M612.839 459.377H10.2617V461H612.839V459.377Z" fill="#3F3D56"/>
<path d="M502.444 449.173C500.372 449.173 498.339 449.689 496.546 450.668C494.727 449.113 492.467 448.089 490.044 447.723C487.62 447.357 485.137 447.663 482.895 448.606C480.653 449.549 478.747 451.088 477.412 453.035C476.076 454.981 475.366 457.253 475.369 459.573H514.245C514.033 456.75 512.699 454.108 510.508 452.178C508.318 450.247 505.437 449.174 502.444 449.173Z" fill="#3F3D56"/>
<line x1="196.497" y1="136.14" x2="205.469" y2="33.5896" stroke="black" stroke-width="4"/>
<line x1="463.481" y1="33.5898" x2="472.453" y2="136.14" stroke="black" stroke-width="4"/>
<path d="M482.592 79.0125L191.372 104.159C189.942 104.281 188.52 103.852 187.418 102.965C186.317 102.078 185.625 100.806 185.495 99.429L179.021 29.8287C178.895 28.451 179.34 27.0812 180.261 26.0199C181.181 24.9585 182.501 24.2922 183.931 24.1671L475.151 -0.97968C476.581 -1.10152 478.002 -0.671935 479.104 0.214843C480.206 1.10162 480.897 2.37318 481.027 3.75059L487.501 73.3509C487.628 74.7286 487.182 76.0984 486.261 77.1598C485.341 78.2212 484.021 78.8875 482.592 79.0125V79.0125Z" fill="#BEBBF2"/>
<path d="M345.553 32.6651L345.131 28.4266L319.771 31.228L319.797 31.4931L320.193 35.4666L323.593 69.6396L324.015 73.8782L329.087 73.3179L349.375 71.0767L348.954 66.8381L328.665 69.0793L325.265 34.9063L345.553 32.6651Z" fill="white"/>
<path d="M356.834 27.4785L361.078 70.1285L386.439 67.327L382.195 24.677L356.834 27.4785ZM380.945 63.6488L365.728 65.3297L362.328 31.1567L377.544 29.4759L380.945 63.6488Z" fill="white"/>
<path d="M291.604 72.8289L287.808 34.6839L282.737 35.2441L286.532 73.3892L286.954 77.6276L292.025 77.0673L312.312 74.8262L311.89 70.5878L291.604 72.8289Z" fill="white"/>
<path d="M272.361 40.0699L271.939 35.8313L246.578 38.6328L246.605 38.8979L247 42.8714L248.476 57.7062L248.898 61.9448L250.401 77.0444L250.822 81.2829L255.894 80.7226L276.183 78.4815L275.761 74.2429L255.473 76.4841L253.97 61.3845L274.259 59.1433L273.837 54.9047L253.548 57.1459L252.072 42.3111L272.361 40.0699Z" fill="white"/>
<path d="M467.333 20.3451L466.911 16.1065L441.551 18.908L441.577 19.173L441.972 23.1465L443.448 37.9813L443.87 42.2199L445.373 57.3195L445.794 61.5581L450.867 60.9978L471.155 58.7566L470.733 54.518L450.445 56.7592L448.942 41.6596L469.231 39.4184L468.809 35.1799L448.521 37.421L447.044 22.5862L467.333 20.3451Z" fill="white"/>
<path d="M230.188 40.3734L233.656 75.3044L219.244 65.634L219.216 65.663L219.185 65.6425L206.714 78.5407L203.208 43.2269L198.161 43.7856L202.357 86.0505L207.404 85.4918L207.307 84.5178L219.807 71.5905L234.25 81.2818L234.384 82.6383L239.431 82.0795L235.235 39.8147L230.188 40.3734Z" fill="white"/>
<path d="M425.472 20.6172L425.569 21.5909L413.069 34.5181L398.626 24.8271L398.491 23.4706L393.445 24.0293L397.641 66.2941L402.687 65.7355L399.219 30.8042L413.632 40.475L413.66 40.4459L413.69 40.4662L426.162 27.5679L429.668 62.882L434.714 62.3234L430.518 20.0585L425.472 20.6172Z" fill="white"/>
<path d="M433.376 60.1033L440.997 54.2129C435.076 53.5816 432.644 56.702 431.647 59.1717C427.022 57.3155 421.986 59.7481 421.986 59.7481L437.236 65.0975C436.467 63.112 435.128 61.3795 433.376 60.1033Z" fill="#3F3D56"/>
</g>
<defs>
<clipPath id="clip0_390:9842">
<rect width="614" height="461" fill="white"/>
</clipPath>
</defs>
</svg>
