<svg width="359" height="284" viewBox="0 0 359 284" fill="none" xmlns="http://www.w3.org/2000/svg">
<path fill-rule="evenodd" clip-rule="evenodd" d="M179.025 2.03182C221.233 -4.23186 269.312 4.02676 301.428 26.2522C332.646 47.8568 333.22 84.5126 343.7 115.993C352.388 142.095 360.182 167.642 357.442 194.521C354.554 222.85 344.898 230.662 323.282 253.559C300.772 277.404 273.645 271.901 235.811 274.731C198.871 277.495 173.167 279.915 139.322 268.063C110.986 258.139 73.8945 277.459 52.5716 259.862C30.8827 241.964 26.6141 216.328 18.7936 192.485C10.0457 165.816 -8.22738 138.153 4.19717 112.383C16.7558 86.3348 55.5779 76.1379 83.3362 58.6169C115.093 38.5723 138.867 7.99121 179.025 2.03182Z" fill="#CCE6F4" fill-opacity="0.5"/>
<path d="M89.9967 95.8357C100.558 95.8357 109.12 87.1197 109.12 76.3679C109.12 65.6161 100.558 56.9 89.9967 56.9C79.4352 56.9 70.8735 65.6161 70.8735 76.3679C70.8735 87.1197 79.4352 95.8357 89.9967 95.8357Z" fill="#FF6584"/>
<path d="M146.397 67.7428H139.62V84.9928H146.397V67.7428Z" fill="#6C63FF"/>
<path d="M145.914 83.5143H88.3022V283.121H145.914V83.5143Z" fill="#6C63FF"/>
<path d="M169.152 83.5143H145.914V283.121H169.152V83.5143Z" fill="#3F3D56"/>
<path d="M107.425 100.764H98.7109V109.636H107.425V100.764Z" fill="white"/>
<path d="M121.465 100.764H112.75V109.636H121.465V100.764Z" fill="white"/>
<path d="M135.505 100.764H126.791V109.636H135.505V100.764Z" fill="white"/>
<path d="M107.667 120.971H98.9531V129.843H107.667V120.971Z" fill="white"/>
<path d="M121.707 120.971H112.993V129.843H121.707V120.971Z" fill="white"/>
<path d="M135.747 120.971H127.032V129.843H135.747V120.971Z" fill="white"/>
<path d="M107.909 141.178H99.1948V150.05H107.909V141.178Z" fill="white"/>
<path d="M121.949 141.178H113.235V150.05H121.949V141.178Z" fill="white"/>
<path d="M135.989 141.178H127.274V150.05H135.989V141.178Z" fill="white"/>
<path d="M108.151 161.386H99.437V170.257H108.151V161.386Z" fill="white"/>
<path d="M122.191 161.386H113.477V170.257H122.191V161.386Z" fill="white"/>
<path d="M136.231 161.386H127.517V170.257H136.231V161.386Z" fill="white"/>
<path d="M108.394 181.593H99.6792V190.464H108.394V181.593Z" fill="white"/>
<path d="M122.433 181.593H113.719V190.464H122.433V181.593Z" fill="white"/>
<path d="M136.473 181.593H127.759V190.464H136.473V181.593Z" fill="white"/>
<path d="M108.635 201.8H99.9209V210.671H108.635V201.8Z" fill="white"/>
<path d="M122.675 201.8H113.961V210.671H122.675V201.8Z" fill="white"/>
<path d="M136.715 201.8H128V210.671H136.715V201.8Z" fill="white"/>
<path d="M108.877 222.007H100.163V230.878H108.877V222.007Z" fill="white"/>
<path d="M122.917 222.007H114.203V230.878H122.917V222.007Z" fill="white"/>
<path d="M136.957 222.007H128.243V230.878H136.957V222.007Z" fill="white"/>
<path d="M109.12 242.214H100.405V251.086H109.12V242.214Z" fill="white"/>
<path d="M123.159 242.214H114.445V251.086H123.159V242.214Z" fill="white"/>
<path d="M123.159 265.871H114.445V282.628H123.159V265.871Z" fill="white"/>
<path d="M137.199 242.214H128.485V251.086H137.199V242.214Z" fill="white"/>
<path d="M149.787 67.7428H145.914V84.4999H149.787V67.7428Z" fill="#3F3D56"/>
<path d="M49.107 263.447C56.0696 263.447 61.714 257.701 61.714 250.613C61.714 243.525 56.0696 237.778 49.107 237.778C42.1443 237.778 36.5 243.525 36.5 250.613C36.5 257.701 42.1443 263.447 49.107 263.447Z" fill="#6C63FF"/>
<path opacity="0.2" d="M58.485 242.04C59.6609 244.841 59.8204 247.976 58.935 250.885C58.0496 253.794 56.177 256.287 53.6517 257.92C51.1265 259.553 48.1132 260.219 45.1503 259.798C42.1874 259.377 39.468 257.898 37.478 255.624C38.1964 257.335 39.2715 258.866 40.629 260.112C41.9864 261.358 43.5938 262.289 45.3395 262.839C47.0853 263.39 48.9279 263.548 50.7395 263.302C52.5511 263.055 54.2885 262.411 55.8313 261.414C57.3741 260.416 58.6854 259.089 59.6743 257.524C60.6633 255.959 61.3063 254.195 61.5587 252.352C61.8111 250.509 61.667 248.632 61.1362 246.852C60.6055 245.071 59.7009 243.43 58.485 242.04Z" fill="black"/>
<path d="M49.1418 246.613H49.1767L49.7998 283H48.4839L49.1418 246.613Z" fill="#3F3D56"/>
<path d="M340.589 258.669C347.552 258.669 353.196 252.922 353.196 245.834C353.196 238.746 347.552 233 340.589 233C333.627 233 327.982 238.746 327.982 245.834C327.982 252.922 333.627 258.669 340.589 258.669Z" fill="#6C63FF"/>
<path opacity="0.2" d="M349.967 237.262C351.143 240.062 351.303 243.197 350.417 246.106C349.532 249.015 347.659 251.509 345.134 253.142C342.609 254.775 339.595 255.44 336.633 255.02C333.67 254.599 330.95 253.119 328.96 250.845C329.679 252.556 330.754 254.088 332.111 255.334C333.469 256.58 335.076 257.51 336.822 258.061C338.568 258.612 340.41 258.769 342.222 258.523C344.033 258.277 345.771 257.633 347.314 256.635C348.856 255.638 350.168 254.31 351.157 252.746C352.146 251.181 352.788 249.416 353.041 247.573C353.293 245.73 353.149 243.854 352.618 242.073C352.088 240.293 351.183 238.651 349.967 237.262H349.967Z" fill="black"/>
<path d="M340.624 246.82H340.659L341.282 283.207H339.966L340.624 246.82Z" fill="#3F3D56"/>
<path d="M342.92 266.64L342.629 266.078L340.545 267.195L340.836 267.757L342.92 266.64Z" fill="#3F3D56"/>
<path d="M75.1123 81.7724L79.5691 78.1436C76.1068 77.7547 74.6842 79.677 74.102 81.1985C71.3972 80.0551 68.4526 81.5536 68.4526 81.5536L77.3698 84.8492C76.9199 83.626 76.1368 82.5586 75.1123 81.7724Z" fill="#3F3D56"/>
<path d="M173.391 67.9725L177.847 64.3437C174.385 63.9548 172.963 65.8771 172.38 67.3986C169.676 66.2551 166.731 67.7537 166.731 67.7537L175.648 71.0492C175.198 69.826 174.415 68.7587 173.391 67.9725Z" fill="#3F3D56"/>
<path d="M119.168 53.6796L123.625 50.0508C120.162 49.662 118.74 51.5842 118.158 53.1057C115.453 51.9623 112.508 53.4608 112.508 53.4608L121.425 56.7564C120.976 55.5332 120.192 54.4659 119.168 53.6796Z" fill="#3F3D56"/>
<path d="M42.4941 272.278H12.478V273.264H17.1591V282.628H18.1273V273.264H36.3606V282.628H37.3289V273.264H42.4941V272.278Z" fill="#3F3D56"/>
<path d="M72.9941 277.221C71.8094 277.221 70.6455 277.539 69.6199 278.143C68.5784 277.184 67.2858 276.553 65.8991 276.328C64.5124 276.102 63.0912 276.292 61.8081 276.872C60.5249 277.453 59.435 278.401 58.6706 279.6C57.9062 280.799 57.5002 282.199 57.502 283.628H79.7475C79.6262 281.889 78.8621 280.261 77.6091 279.072C76.356 277.883 74.707 277.222 72.9941 277.221Z" fill="#3F3D56"/>
<path d="M101.373 276.714C100.189 276.714 99.0249 277.032 97.9993 277.635C96.9578 276.677 95.6652 276.046 94.2785 275.821C92.8918 275.595 91.4706 275.784 90.1875 276.365C88.9043 276.946 87.8144 277.894 87.05 279.093C86.2856 280.292 85.8796 281.692 85.8814 283.121H108.127C108.006 281.382 107.242 279.754 105.988 278.565C104.735 277.376 103.086 276.715 101.373 276.714Z" fill="#3F3D56"/>
<path d="M223.619 68H216.841V85.25H223.619V68Z" fill="#6C63FF"/>
<path d="M223.135 83.7715H165.523V283.378H223.135V83.7715Z" fill="#6C63FF"/>
<path d="M246.373 83.7715H223.135V283.378H246.373V83.7715Z" fill="#3F3D56"/>
<path d="M184.646 101.021H175.932V109.893H184.646V101.021Z" fill="white"/>
<path d="M198.686 101.021H189.972V109.893H198.686V101.021Z" fill="white"/>
<path d="M212.726 101.021H204.012V109.893H212.726V101.021Z" fill="white"/>
<path d="M184.889 121.229H176.174V130.1H184.889V121.229Z" fill="white"/>
<path d="M198.928 121.229H190.214V130.1H198.928V121.229Z" fill="white"/>
<path d="M212.968 121.229H204.254V130.1H212.968V121.229Z" fill="white"/>
<path d="M185.131 141.436H176.417V150.307H185.131V141.436Z" fill="white"/>
<path d="M199.17 141.436H190.456V150.307H199.17V141.436Z" fill="white"/>
<path d="M213.21 141.436H204.496V150.307H213.21V141.436Z" fill="white"/>
<path d="M185.373 161.643H176.658V170.514H185.373V161.643Z" fill="white"/>
<path d="M199.413 161.643H190.698V170.514H199.413V161.643Z" fill="white"/>
<path d="M213.452 161.643H204.738V170.514H213.452V161.643Z" fill="white"/>
<path d="M185.615 181.85H176.9V190.721H185.615V181.85Z" fill="white"/>
<path d="M199.655 181.85H190.94V190.721H199.655V181.85Z" fill="white"/>
<path d="M213.694 181.85H204.98V190.721H213.694V181.85Z" fill="white"/>
<path d="M185.857 202.057H177.143V210.928H185.857V202.057Z" fill="white"/>
<path d="M199.896 202.057H191.182V210.928H199.896V202.057Z" fill="white"/>
<path d="M213.936 202.057H205.222V210.928H213.936V202.057Z" fill="white"/>
<path d="M186.099 222.264H177.385V231.136H186.099V222.264Z" fill="white"/>
<path d="M200.139 222.264H191.424V231.136H200.139V222.264Z" fill="white"/>
<path d="M214.178 222.264H205.464V231.136H214.178V222.264Z" fill="white"/>
<path d="M186.341 242.471H177.626V251.343H186.341V242.471Z" fill="white"/>
<path d="M200.381 242.471H191.667V251.343H200.381V242.471Z" fill="white"/>
<path d="M200.381 266.128H191.667V282.886H200.381V266.128Z" fill="white"/>
<path d="M214.421 242.471H205.706V251.343H214.421V242.471Z" fill="white"/>
<path d="M227.008 68H223.135V84.7571H227.008V68Z" fill="#3F3D56"/>
<path d="M42.5531 269.329H12.5371V270.315H42.5531V269.329Z" fill="#3F3D56"/>
<path d="M42.5531 266.865H12.5371V267.851H42.5531V266.865Z" fill="#3F3D56"/>
<path d="M42.5531 264.401H12.5371V265.386H42.5531V264.401Z" fill="#3F3D56"/>
<path d="M176.414 276.714C175.229 276.714 174.065 277.032 173.039 277.635C171.998 276.677 170.705 276.046 169.319 275.821C167.932 275.595 166.511 275.784 165.227 276.365C163.944 276.946 162.854 277.894 162.09 279.093C161.326 280.292 160.92 281.692 160.921 283.121H183.167C183.046 281.382 182.282 279.754 181.028 278.565C179.775 277.376 178.126 276.715 176.414 276.714Z" fill="#3F3D56"/>
<path d="M297.019 68H290.241V85.25H297.019V68Z" fill="#6C63FF"/>
<path d="M296.535 83.7715H238.924V283.378H296.535V83.7715Z" fill="#6C63FF"/>
<path d="M319.773 83.7715H296.535V283.378H319.773V83.7715Z" fill="#3F3D56"/>
<path d="M258.047 101.021H249.332V109.893H258.047V101.021Z" fill="white"/>
<path d="M272.086 101.021H263.372V109.893H272.086V101.021Z" fill="white"/>
<path d="M286.126 101.021H277.412V109.893H286.126V101.021Z" fill="white"/>
<path d="M258.289 121.229H249.574V130.1H258.289V121.229Z" fill="white"/>
<path d="M272.329 121.229H263.614V130.1H272.329V121.229Z" fill="white"/>
<path d="M286.368 121.229H277.654V130.1H286.368V121.229Z" fill="white"/>
<path d="M258.531 141.436H249.816V150.307H258.531V141.436Z" fill="white"/>
<path d="M272.571 141.436H263.856V150.307H272.571V141.436Z" fill="white"/>
<path d="M286.61 141.436H277.896V150.307H286.61V141.436Z" fill="white"/>
<path d="M258.773 161.643H250.059V170.514H258.773V161.643Z" fill="white"/>
<path d="M272.813 161.643H264.098V170.514H272.813V161.643Z" fill="white"/>
<path d="M286.853 161.643H278.138V170.514H286.853V161.643Z" fill="white"/>
<path d="M259.015 181.85H250.301V190.721H259.015V181.85Z" fill="white"/>
<path d="M273.055 181.85H264.34V190.721H273.055V181.85Z" fill="white"/>
<path d="M287.094 181.85H278.38V190.721H287.094V181.85Z" fill="white"/>
<path d="M259.257 202.057H250.543V210.928H259.257V202.057Z" fill="white"/>
<path d="M273.297 202.057H264.583V210.928H273.297V202.057Z" fill="white"/>
<path d="M287.336 202.057H278.622V210.928H287.336V202.057Z" fill="white"/>
<path d="M259.499 222.264H250.785V231.136H259.499V222.264Z" fill="white"/>
<path d="M273.539 222.264H264.824V231.136H273.539V222.264Z" fill="white"/>
<path d="M287.579 222.264H278.864V231.136H287.579V222.264Z" fill="white"/>
<path d="M259.741 242.471H251.027V251.343H259.741V242.471Z" fill="white"/>
<path d="M273.781 242.471H265.067V251.343H273.781V242.471Z" fill="white"/>
<path d="M273.781 266.128H265.067V282.886H273.781V266.128Z" fill="white"/>
<path d="M287.821 242.471H279.106V251.343H287.821V242.471Z" fill="white"/>
<path d="M300.408 68H296.535V84.7571H300.408V68Z" fill="#3F3D56"/>
<path d="M358.321 283H6V284H358.321V283Z" fill="#3F3D56"/>
<path d="M253.391 57.9725L257.847 54.3437C254.385 53.9548 252.963 55.8771 252.38 57.3986C249.676 56.2551 246.731 57.7537 246.731 57.7537L255.648 61.0492C255.198 59.826 254.415 58.7587 253.391 57.9725Z" fill="#3F3D56"/>
<path d="M293.774 276.714C292.563 276.714 291.374 277.032 290.326 277.635C289.262 276.677 287.941 276.046 286.524 275.821C285.107 275.595 283.655 275.784 282.344 276.365C281.033 276.946 279.919 277.894 279.138 279.093C278.357 280.292 277.942 281.692 277.944 283.121H300.674C300.55 281.382 299.77 279.754 298.489 278.565C297.209 277.376 295.524 276.715 293.774 276.714Z" fill="#3F3D56"/>
</svg>
