<svg width="353" height="234" viewBox="0 0 353 234" fill="none" xmlns="http://www.w3.org/2000/svg">
<path d="M83.9967 45.8356C94.5581 45.8356 103.12 37.1195 103.12 26.3677C103.12 15.616 94.5581 6.8999 83.9967 6.8999C73.4352 6.8999 64.8735 15.616 64.8735 26.3677C64.8735 37.1195 73.4352 45.8356 83.9967 45.8356Z" fill="#FF6584"/>
<path d="M140.397 17.7429H133.62V34.9929H140.397V17.7429Z" fill="#6C63FF"/>
<path d="M139.914 33.5143H82.3022V233.121H139.914V33.5143Z" fill="#6C63FF"/>
<path d="M163.152 33.5143H139.914V233.121H163.152V33.5143Z" fill="#3F3D56"/>
<path d="M101.425 50.7643H92.7109V59.6357H101.425V50.7643Z" fill="white"/>
<path d="M115.465 50.7643H106.75V59.6357H115.465V50.7643Z" fill="white"/>
<path d="M129.505 50.7643H120.791V59.6357H129.505V50.7643Z" fill="white"/>
<path d="M101.667 70.9713H92.9526V79.8427H101.667V70.9713Z" fill="white"/>
<path d="M115.707 70.9713H106.993V79.8427H115.707V70.9713Z" fill="white"/>
<path d="M129.747 70.9713H121.032V79.8427H129.747V70.9713Z" fill="white"/>
<path d="M101.909 91.1785H93.1948V100.05H101.909V91.1785Z" fill="white"/>
<path d="M115.949 91.1785H107.235V100.05H115.949V91.1785Z" fill="white"/>
<path d="M129.989 91.1785H121.274V100.05H129.989V91.1785Z" fill="white"/>
<path d="M102.151 111.386H93.437V120.257H102.151V111.386Z" fill="white"/>
<path d="M116.191 111.386H107.477V120.257H116.191V111.386Z" fill="white"/>
<path d="M130.231 111.386H121.517V120.257H130.231V111.386Z" fill="white"/>
<path d="M102.394 131.593H93.6792V140.464H102.394V131.593Z" fill="white"/>
<path d="M116.433 131.593H107.719V140.464H116.433V131.593Z" fill="white"/>
<path d="M130.473 131.593H121.759V140.464H130.473V131.593Z" fill="white"/>
<path d="M102.636 151.8H93.9214V160.671H102.636V151.8Z" fill="white"/>
<path d="M116.675 151.8H107.961V160.671H116.675V151.8Z" fill="white"/>
<path d="M130.715 151.8H122V160.671H130.715V151.8Z" fill="white"/>
<path d="M102.877 172.007H94.1631V180.878H102.877V172.007Z" fill="white"/>
<path d="M116.917 172.007H108.203V180.878H116.917V172.007Z" fill="white"/>
<path d="M130.957 172.007H122.243V180.878H130.957V172.007Z" fill="white"/>
<path d="M103.12 192.214H94.4053V201.086H103.12V192.214Z" fill="white"/>
<path d="M117.159 192.214H108.445V201.086H117.159V192.214Z" fill="white"/>
<path d="M117.159 215.871H108.445V232.628H117.159V215.871Z" fill="white"/>
<path d="M131.199 192.214H122.485V201.086H131.199V192.214Z" fill="white"/>
<path d="M143.787 17.7429H139.914V34.5H143.787V17.7429Z" fill="#3F3D56"/>
<path d="M43.107 213.447C50.0696 213.447 55.714 207.701 55.714 200.613C55.714 193.525 50.0696 187.778 43.107 187.778C36.1443 187.778 30.5 193.525 30.5 200.613C30.5 207.701 36.1443 213.447 43.107 213.447Z" fill="#6C63FF"/>
<path opacity="0.2" d="M52.485 192.04C53.6609 194.841 53.8204 197.976 52.935 200.885C52.0496 203.794 50.177 206.287 47.6517 207.92C45.1265 209.553 42.1132 210.219 39.1503 209.798C36.1874 209.377 33.468 207.898 31.478 205.624C32.1964 207.335 33.2715 208.866 34.629 210.112C35.9864 211.358 37.5938 212.289 39.3395 212.839C41.0853 213.39 42.9279 213.548 44.7395 213.302C46.5511 213.055 48.2885 212.411 49.8313 211.414C51.3741 210.416 52.6854 209.089 53.6743 207.524C54.6633 205.959 55.3063 204.195 55.5587 202.352C55.8111 200.509 55.667 198.632 55.1362 196.852C54.6055 195.071 53.7009 193.43 52.485 192.04Z" fill="black"/>
<path d="M43.1418 196.613H43.1767L43.7998 233H42.4839L43.1418 196.613Z" fill="#3F3D56"/>
<path d="M334.589 208.669C341.552 208.669 347.196 202.922 347.196 195.834C347.196 188.746 341.552 183 334.589 183C327.627 183 321.982 188.746 321.982 195.834C321.982 202.922 327.627 208.669 334.589 208.669Z" fill="#6C63FF"/>
<path opacity="0.2" d="M343.967 187.262C345.143 190.062 345.303 193.197 344.417 196.106C343.532 199.015 341.659 201.509 339.134 203.142C336.609 204.775 333.595 205.44 330.633 205.02C327.67 204.599 324.95 203.119 322.96 200.845C323.679 202.556 324.754 204.088 326.111 205.334C327.469 206.58 329.076 207.51 330.822 208.061C332.568 208.612 334.41 208.769 336.222 208.523C338.033 208.277 339.771 207.633 341.314 206.635C342.856 205.638 344.168 204.31 345.157 202.746C346.146 201.181 346.788 199.416 347.041 197.573C347.293 195.73 347.149 193.854 346.618 192.073C346.088 190.293 345.183 188.651 343.967 187.262H343.967Z" fill="black"/>
<path d="M334.624 196.82H334.659L335.282 233.207H333.966L334.624 196.82Z" fill="#3F3D56"/>
<path d="M336.92 216.64L336.629 216.078L334.545 217.195L334.836 217.757L336.92 216.64Z" fill="#3F3D56"/>
<path d="M69.1123 31.7724L73.5691 28.1436C70.1068 27.7547 68.6842 29.677 68.102 31.1985C65.3972 30.0551 62.4526 31.5536 62.4526 31.5536L71.3698 34.8492C70.9199 33.626 70.1368 32.5586 69.1123 31.7724Z" fill="#3F3D56"/>
<path d="M167.391 17.9723L171.847 14.3435C168.385 13.9547 166.963 15.877 166.38 17.3984C163.676 16.255 160.731 17.7535 160.731 17.7535L169.648 21.0491C169.198 19.8259 168.415 18.7586 167.391 17.9723Z" fill="#3F3D56"/>
<path d="M113.168 3.67962L117.625 0.0508194C114.162 -0.338045 112.74 1.58423 112.158 3.10572C109.453 1.9623 106.508 3.46081 106.508 3.46081L115.425 6.7564C114.976 5.53318 114.192 4.46587 113.168 3.67962Z" fill="#3F3D56"/>
<path d="M36.4941 222.278H6.47803V223.264H11.1591V232.628H12.1273V223.264H30.3606V232.628H31.3289V223.264H36.4941V222.278Z" fill="#3F3D56"/>
<path d="M66.9941 227.221C65.8094 227.221 64.6455 227.539 63.6199 228.143C62.5784 227.184 61.2858 226.553 59.8991 226.328C58.5124 226.102 57.0912 226.292 55.8081 226.872C54.5249 227.453 53.435 228.401 52.6706 229.6C51.9062 230.799 51.5002 232.199 51.502 233.628H73.7475C73.6262 231.889 72.8621 230.261 71.6091 229.072C70.356 227.883 68.707 227.222 66.9941 227.221Z" fill="#3F3D56"/>
<path d="M95.3735 226.714C94.1888 226.714 93.0249 227.032 91.9993 227.636C90.9578 226.677 89.6652 226.046 88.2785 225.821C86.8918 225.595 85.4706 225.785 84.1875 226.365C82.9043 226.946 81.8144 227.894 81.05 229.093C80.2856 230.292 79.8796 231.692 79.8814 233.121H102.127C102.006 231.382 101.242 229.754 99.9884 228.565C98.7354 227.376 97.0864 226.715 95.3735 226.714Z" fill="#3F3D56"/>
<path d="M217.619 18H210.841V35.25H217.619V18Z" fill="#6C63FF"/>
<path d="M217.135 33.7715H159.523V233.378H217.135V33.7715Z" fill="#6C63FF"/>
<path d="M240.373 33.7715H217.135V233.378H240.373V33.7715Z" fill="#3F3D56"/>
<path d="M178.646 51.0214H169.932V59.8928H178.646V51.0214Z" fill="white"/>
<path d="M192.686 51.0214H183.972V59.8928H192.686V51.0214Z" fill="white"/>
<path d="M206.726 51.0214H198.012V59.8928H206.726V51.0214Z" fill="white"/>
<path d="M178.889 71.2285H170.174V80.0999H178.889V71.2285Z" fill="white"/>
<path d="M192.928 71.2285H184.214V80.0999H192.928V71.2285Z" fill="white"/>
<path d="M206.968 71.2285H198.254V80.0999H206.968V71.2285Z" fill="white"/>
<path d="M179.131 91.4357H170.417V100.307H179.131V91.4357Z" fill="white"/>
<path d="M193.17 91.4357H184.456V100.307H193.17V91.4357Z" fill="white"/>
<path d="M207.21 91.4357H198.496V100.307H207.21V91.4357Z" fill="white"/>
<path d="M179.373 111.643H170.658V120.514H179.373V111.643Z" fill="white"/>
<path d="M193.413 111.643H184.698V120.514H193.413V111.643Z" fill="white"/>
<path d="M207.452 111.643H198.738V120.514H207.452V111.643Z" fill="white"/>
<path d="M179.615 131.85H170.9V140.721H179.615V131.85Z" fill="white"/>
<path d="M193.655 131.85H184.94V140.721H193.655V131.85Z" fill="white"/>
<path d="M207.694 131.85H198.98V140.721H207.694V131.85Z" fill="white"/>
<path d="M179.857 152.057H171.143V160.928H179.857V152.057Z" fill="white"/>
<path d="M193.896 152.057H185.182V160.928H193.896V152.057Z" fill="white"/>
<path d="M207.936 152.057H199.222V160.928H207.936V152.057Z" fill="white"/>
<path d="M180.099 172.264H171.385V181.136H180.099V172.264Z" fill="white"/>
<path d="M194.139 172.264H185.424V181.136H194.139V172.264Z" fill="white"/>
<path d="M208.179 172.264H199.464V181.136H208.179V172.264Z" fill="white"/>
<path d="M180.341 192.471H171.626V201.343H180.341V192.471Z" fill="white"/>
<path d="M194.381 192.471H185.667V201.343H194.381V192.471Z" fill="white"/>
<path d="M194.381 216.128H185.667V232.886H194.381V216.128Z" fill="white"/>
<path d="M208.42 192.471H199.706V201.343H208.42V192.471Z" fill="white"/>
<path d="M221.008 18H217.135V34.7571H221.008V18Z" fill="#3F3D56"/>
<path d="M36.5531 219.329H6.53711V220.315H36.5531V219.329Z" fill="#3F3D56"/>
<path d="M36.5531 216.865H6.53711V217.851H36.5531V216.865Z" fill="#3F3D56"/>
<path d="M36.5531 214.401H6.53711V215.386H36.5531V214.401Z" fill="#3F3D56"/>
<path d="M170.414 226.714C169.229 226.714 168.065 227.032 167.039 227.636C165.998 226.677 164.705 226.046 163.319 225.821C161.932 225.595 160.511 225.785 159.227 226.365C157.944 226.946 156.854 227.894 156.09 229.093C155.326 230.292 154.92 231.692 154.921 233.121H177.167C177.046 231.382 176.282 229.754 175.028 228.565C173.775 227.376 172.126 226.715 170.414 226.714Z" fill="#3F3D56"/>
<path d="M291.019 18H284.241V35.25H291.019V18Z" fill="#6C63FF"/>
<path d="M290.535 33.7715H232.923V233.378H290.535V33.7715Z" fill="#6C63FF"/>
<path d="M313.773 33.7715H290.535V233.378H313.773V33.7715Z" fill="#3F3D56"/>
<path d="M252.046 51.0214H243.332V59.8928H252.046V51.0214Z" fill="white"/>
<path d="M266.086 51.0214H257.372V59.8928H266.086V51.0214Z" fill="white"/>
<path d="M280.126 51.0214H271.412V59.8928H280.126V51.0214Z" fill="white"/>
<path d="M252.289 71.2285H243.574V80.0999H252.289V71.2285Z" fill="white"/>
<path d="M266.328 71.2285H257.614V80.0999H266.328V71.2285Z" fill="white"/>
<path d="M280.368 71.2285H271.654V80.0999H280.368V71.2285Z" fill="white"/>
<path d="M252.531 91.4357H243.816V100.307H252.531V91.4357Z" fill="white"/>
<path d="M266.57 91.4357H257.856V100.307H266.57V91.4357Z" fill="white"/>
<path d="M280.61 91.4357H271.896V100.307H280.61V91.4357Z" fill="white"/>
<path d="M252.772 111.643H244.058V120.514H252.772V111.643Z" fill="white"/>
<path d="M266.812 111.643H258.098V120.514H266.812V111.643Z" fill="white"/>
<path d="M280.852 111.643H272.138V120.514H280.852V111.643Z" fill="white"/>
<path d="M253.015 131.85H244.3V140.721H253.015V131.85Z" fill="white"/>
<path d="M267.054 131.85H258.34V140.721H267.054V131.85Z" fill="white"/>
<path d="M281.094 131.85H272.38V140.721H281.094V131.85Z" fill="white"/>
<path d="M253.257 152.057H244.542V160.928H253.257V152.057Z" fill="white"/>
<path d="M267.297 152.057H258.582V160.928H267.297V152.057Z" fill="white"/>
<path d="M281.336 152.057H272.622V160.928H281.336V152.057Z" fill="white"/>
<path d="M253.499 172.264H244.785V181.136H253.499V172.264Z" fill="white"/>
<path d="M267.539 172.264H258.824V181.136H267.539V172.264Z" fill="white"/>
<path d="M281.578 172.264H272.864V181.136H281.578V172.264Z" fill="white"/>
<path d="M253.741 192.471H245.026V201.343H253.741V192.471Z" fill="white"/>
<path d="M267.781 192.471H259.066V201.343H267.781V192.471Z" fill="white"/>
<path d="M267.781 216.128H259.066V232.886H267.781V216.128Z" fill="white"/>
<path d="M281.821 192.471H273.106V201.343H281.821V192.471Z" fill="white"/>
<path d="M294.408 18H290.535V34.7571H294.408V18Z" fill="#3F3D56"/>
<path d="M352.321 233H0V234H352.321V233Z" fill="#3F3D56"/>
<path d="M247.391 7.97235L251.847 4.34354C248.385 3.95468 246.963 5.87695 246.38 7.39845C243.676 6.25502 240.731 7.75353 240.731 7.75353L249.648 11.0491C249.198 9.8259 248.415 8.7586 247.391 7.97235Z" fill="#3F3D56"/>
<path d="M287.774 226.714C286.563 226.714 285.374 227.032 284.326 227.636C283.262 226.677 281.941 226.046 280.524 225.821C279.107 225.595 277.655 225.785 276.344 226.365C275.033 226.946 273.919 227.894 273.138 229.093C272.357 230.292 271.942 231.692 271.944 233.121H294.674C294.55 231.382 293.77 229.754 292.489 228.565C291.209 227.376 289.524 226.715 287.774 226.714Z" fill="#3F3D56"/>
</svg>
