<svg width="353" height="234" viewBox="0 0 353 234" fill="none" xmlns="http://www.w3.org/2000/svg">
<path d="M84.6753 45.8357C95.2367 45.8357 103.798 37.1196 103.798 26.3678C103.798 15.616 95.2367 6.89999 84.6753 6.89999C74.1139 6.89999 65.5522 15.616 65.5522 26.3678C65.5522 37.1196 74.1139 45.8357 84.6753 45.8357Z" fill="#FF6584"/>
<path d="M141.076 17.7428H134.299V34.9928H141.076V17.7428Z" fill="#6C63FF"/>
<path d="M140.592 33.5143H82.9809V233.121H140.592V33.5143Z" fill="#6C63FF"/>
<path d="M163.831 33.5143H140.592V233.121H163.831V33.5143Z" fill="#3F3D56"/>
<path d="M102.104 50.7642H93.3897V59.6357H102.104V50.7642Z" fill="white"/>
<path d="M116.144 50.7642H107.429V59.6357H116.144V50.7642Z" fill="white"/>
<path d="M130.184 50.7642H121.469V59.6357H130.184V50.7642Z" fill="white"/>
<path d="M102.346 70.9714H93.6317V79.8428H102.346V70.9714Z" fill="white"/>
<path d="M116.386 70.9714H107.672V79.8428H116.386V70.9714Z" fill="white"/>
<path d="M130.426 70.9714H121.711V79.8428H130.426V70.9714Z" fill="white"/>
<path d="M102.588 91.1785H93.8738V100.05H102.588V91.1785Z" fill="white"/>
<path d="M116.628 91.1785H107.914V100.05H116.628V91.1785Z" fill="white"/>
<path d="M130.668 91.1785H121.953V100.05H130.668V91.1785Z" fill="white"/>
<path d="M102.83 111.386H94.1159V120.257H102.83V111.386Z" fill="white"/>
<path d="M116.87 111.386H108.156V120.257H116.87V111.386Z" fill="white"/>
<path d="M130.91 111.386H122.195V120.257H130.91V111.386Z" fill="white"/>
<path d="M103.072 131.593H94.3579V140.464H103.072V131.593Z" fill="white"/>
<path d="M117.112 131.593H108.398V140.464H117.112V131.593Z" fill="white"/>
<path d="M131.152 131.593H122.437V140.464H131.152V131.593Z" fill="white"/>
<path d="M103.314 151.8H94.6V160.671H103.314V151.8Z" fill="white"/>
<path d="M117.354 151.8H108.64V160.671H117.354V151.8Z" fill="white"/>
<path d="M131.394 151.8H122.68V160.671H131.394V151.8Z" fill="white"/>
<path d="M103.556 172.007H94.8421V180.878H103.556V172.007Z" fill="white"/>
<path d="M117.596 172.007H108.882V180.878H117.596V172.007Z" fill="white"/>
<path d="M131.636 172.007H122.922V180.878H131.636V172.007Z" fill="white"/>
<path d="M103.798 192.214H95.0841V201.086H103.798V192.214Z" fill="white"/>
<path d="M117.838 192.214H109.124V201.086H117.838V192.214Z" fill="white"/>
<path d="M117.838 215.871H109.124V232.628H117.838V215.871Z" fill="white"/>
<path d="M131.878 192.214H123.164V201.086H131.878V192.214Z" fill="white"/>
<path d="M144.465 17.7428H140.592V34.5H144.465V17.7428Z" fill="#3F3D56"/>
<path d="M43.786 213.447C50.7487 213.447 56.3931 207.701 56.3931 200.613C56.3931 193.524 50.7487 187.778 43.786 187.778C36.8234 187.778 31.179 193.524 31.179 200.613C31.179 207.701 36.8234 213.447 43.786 213.447Z" fill="#6C63FF"/>
<path opacity="0.2" d="M53.1639 192.04C54.3399 194.841 54.4994 197.976 53.6139 200.885C52.7285 203.794 50.8559 206.287 48.3307 207.92C45.8054 209.553 42.7921 210.219 39.8292 209.798C36.8663 209.377 34.1469 207.898 32.1569 205.624C32.8753 207.335 33.9504 208.866 35.3079 210.112C36.6653 211.358 38.2727 212.288 40.0185 212.839C41.7643 213.39 43.6068 213.548 45.4184 213.302C47.23 213.055 48.9674 212.411 50.5102 211.414C52.053 210.416 53.3643 209.089 54.3533 207.524C55.3422 205.959 55.9852 204.194 56.2376 202.352C56.49 200.509 56.3459 198.632 55.8151 196.852C55.2844 195.071 54.3798 193.43 53.1639 192.04V192.04Z" fill="black"/>
<path d="M43.8206 196.613H43.8554L44.4785 233H43.1626L43.8206 196.613Z" fill="#3F3D56"/>
<path d="M335.268 208.669C342.231 208.669 347.875 202.922 347.875 195.834C347.875 188.746 342.231 183 335.268 183C328.306 183 322.661 188.746 322.661 195.834C322.661 202.922 328.306 208.669 335.268 208.669Z" fill="#6C63FF"/>
<path opacity="0.2" d="M344.646 187.262C345.822 190.062 345.982 193.197 345.096 196.106C344.211 199.015 342.338 201.509 339.813 203.142C337.288 204.775 334.274 205.44 331.311 205.02C328.349 204.599 325.629 203.119 323.639 200.845C324.357 202.556 325.433 204.088 326.79 205.334C328.148 206.58 329.755 207.51 331.501 208.061C333.246 208.612 335.089 208.769 336.901 208.523C338.712 208.277 340.45 207.633 341.992 206.635C343.535 205.638 344.847 204.31 345.835 202.746C346.824 201.181 347.467 199.416 347.72 197.573C347.972 195.73 347.828 193.854 347.297 192.073C346.767 190.293 345.862 188.651 344.646 187.262H344.646Z" fill="black"/>
<path d="M335.303 196.82H335.338L335.961 233.207H334.645L335.303 196.82Z" fill="#3F3D56"/>
<path d="M337.598 216.64L337.308 216.078L335.224 217.195L335.514 217.757L337.598 216.64Z" fill="#3F3D56"/>
<path d="M69.7913 31.7725L74.248 28.1437C70.7858 27.7548 69.3632 29.6771 68.781 31.1986C66.0762 30.0551 63.1316 31.5536 63.1316 31.5536L72.0487 34.8492C71.5989 33.626 70.8158 32.5587 69.7913 31.7725V31.7725Z" fill="#3F3D56"/>
<path d="M168.07 17.9725L172.526 14.3437C169.064 13.9548 167.641 15.8771 167.059 17.3986C164.354 16.2551 161.41 17.7536 161.41 17.7536L170.327 21.0492C169.877 19.826 169.094 18.7587 168.07 17.9725V17.9725Z" fill="#3F3D56"/>
<path d="M113.847 3.67962L118.304 0.0508194C114.842 -0.338045 113.419 1.58423 112.837 3.10572C110.132 1.9623 107.187 3.46081 107.187 3.46081L116.105 6.7564C115.655 5.53318 114.872 4.46587 113.847 3.67962V3.67962Z" fill="#3F3D56"/>
<path d="M37.173 222.278H7.15694V223.264H11.838V232.628H12.8062V223.264H31.0395V232.628H32.0078V223.264H37.173V222.278Z" fill="#3F3D56"/>
<path d="M67.6732 227.221C66.4884 227.221 65.3246 227.539 64.299 228.143C63.2575 227.184 61.9649 226.553 60.5782 226.328C59.1915 226.102 57.7703 226.292 56.4871 226.872C55.204 227.453 54.1141 228.401 53.3497 229.6C52.5853 230.799 52.1793 232.199 52.181 233.628H74.4266C74.3053 231.889 73.5412 230.261 72.2881 229.072C71.0351 227.883 69.3861 227.222 67.6732 227.221Z" fill="#3F3D56"/>
<path d="M96.0524 226.714C94.8677 226.714 93.7038 227.032 92.6783 227.636C91.6367 226.677 90.3441 226.046 88.9574 225.821C87.5707 225.595 86.1495 225.784 84.8664 226.365C83.5832 226.946 82.4933 227.894 81.7289 229.093C80.9646 230.292 80.5586 231.692 80.5603 233.121H102.806C102.685 231.382 101.92 229.754 100.667 228.565C99.4143 227.376 97.7653 226.715 96.0524 226.714V226.714Z" fill="#3F3D56"/>
<path d="M218.298 18H211.52V35.25H218.298V18Z" fill="#6C63FF"/>
<path d="M217.814 33.7714H160.202V233.378H217.814V33.7714Z" fill="#6C63FF"/>
<path d="M241.052 33.7714H217.814V233.378H241.052V33.7714Z" fill="#3F3D56"/>
<path d="M179.325 51.0214H170.611V59.8928H179.325V51.0214Z" fill="white"/>
<path d="M193.365 51.0214H184.651V59.8928H193.365V51.0214Z" fill="white"/>
<path d="M207.405 51.0214H198.69V59.8928H207.405V51.0214Z" fill="white"/>
<path d="M179.567 71.2285H170.853V80.0999H179.567V71.2285Z" fill="white"/>
<path d="M193.607 71.2285H184.893V80.0999H193.607V71.2285Z" fill="white"/>
<path d="M207.647 71.2285H198.933V80.0999H207.647V71.2285Z" fill="white"/>
<path d="M179.809 91.4357H171.095V100.307H179.809V91.4357Z" fill="white"/>
<path d="M193.849 91.4357H185.135V100.307H193.849V91.4357Z" fill="white"/>
<path d="M207.889 91.4357H199.175V100.307H207.889V91.4357Z" fill="white"/>
<path d="M180.051 111.643H171.337V120.514H180.051V111.643Z" fill="white"/>
<path d="M194.091 111.643H185.377V120.514H194.091V111.643Z" fill="white"/>
<path d="M208.131 111.643H199.417V120.514H208.131V111.643Z" fill="white"/>
<path d="M180.294 131.85H171.579V140.721H180.294V131.85Z" fill="white"/>
<path d="M194.333 131.85H185.619V140.721H194.333V131.85Z" fill="white"/>
<path d="M208.373 131.85H199.659V140.721H208.373V131.85Z" fill="white"/>
<path d="M180.536 152.057H171.821V160.928H180.536V152.057Z" fill="white"/>
<path d="M194.575 152.057H185.861V160.928H194.575V152.057Z" fill="white"/>
<path d="M208.615 152.057H199.901V160.928H208.615V152.057Z" fill="white"/>
<path d="M180.778 172.264H172.063V181.136H180.778V172.264Z" fill="white"/>
<path d="M194.817 172.264H186.103V181.136H194.817V172.264Z" fill="white"/>
<path d="M208.857 172.264H200.143V181.136H208.857V172.264Z" fill="white"/>
<path d="M181.02 192.471H172.305V201.343H181.02V192.471Z" fill="white"/>
<path d="M195.059 192.471H186.345V201.343H195.059V192.471Z" fill="white"/>
<path d="M195.059 216.128H186.345V232.886H195.059V216.128Z" fill="white"/>
<path d="M209.099 192.471H200.385V201.343H209.099V192.471Z" fill="white"/>
<path d="M221.687 18H217.814V34.7571H221.687V18Z" fill="#3F3D56"/>
<path d="M37.2321 219.329H7.21603V220.315H37.2321V219.329Z" fill="#3F3D56"/>
<path d="M37.2321 216.865H7.21603V217.851H37.2321V216.865Z" fill="#3F3D56"/>
<path d="M37.2321 214.401H7.21603V215.386H37.2321V214.401Z" fill="#3F3D56"/>
<path d="M171.092 226.714C169.908 226.714 168.744 227.032 167.718 227.636C166.677 226.677 165.384 226.046 163.997 225.821C162.611 225.595 161.19 225.784 159.906 226.365C158.623 226.946 157.533 227.894 156.769 229.093C156.005 230.292 155.599 231.692 155.6 233.121H177.846C177.725 231.382 176.961 229.754 175.707 228.565C174.454 227.376 172.805 226.715 171.092 226.714V226.714Z" fill="#3F3D56"/>
<path d="M291.698 18H284.92V35.25H291.698V18Z" fill="#6C63FF"/>
<path d="M291.214 33.7714H233.602V233.378H291.214V33.7714Z" fill="#6C63FF"/>
<path d="M314.452 33.7714H291.214V233.378H314.452V33.7714Z" fill="#3F3D56"/>
<path d="M252.726 51.0214H244.011V59.8928H252.726V51.0214Z" fill="white"/>
<path d="M266.765 51.0214H258.051V59.8928H266.765V51.0214Z" fill="white"/>
<path d="M280.805 51.0214H272.091V59.8928H280.805V51.0214Z" fill="white"/>
<path d="M252.968 71.2285H244.253V80.0999H252.968V71.2285Z" fill="white"/>
<path d="M267.007 71.2285H258.293V80.0999H267.007V71.2285Z" fill="white"/>
<path d="M281.047 71.2285H272.333V80.0999H281.047V71.2285Z" fill="white"/>
<path d="M253.21 91.4357H244.495V100.307H253.21V91.4357Z" fill="white"/>
<path d="M267.249 91.4357H258.535V100.307H267.249V91.4357Z" fill="white"/>
<path d="M281.289 91.4357H272.575V100.307H281.289V91.4357Z" fill="white"/>
<path d="M253.452 111.643H244.737V120.514H253.452V111.643Z" fill="white"/>
<path d="M267.491 111.643H258.777V120.514H267.491V111.643Z" fill="white"/>
<path d="M281.531 111.643H272.817V120.514H281.531V111.643Z" fill="white"/>
<path d="M253.694 131.85H244.979V140.721H253.694V131.85Z" fill="white"/>
<path d="M267.734 131.85H259.019V140.721H267.734V131.85Z" fill="white"/>
<path d="M281.773 131.85H273.059V140.721H281.773V131.85Z" fill="white"/>
<path d="M253.936 152.057H245.222V160.928H253.936V152.057Z" fill="white"/>
<path d="M267.976 152.057H259.261V160.928H267.976V152.057Z" fill="white"/>
<path d="M282.015 152.057H273.301V160.928H282.015V152.057Z" fill="white"/>
<path d="M254.178 172.264H245.464V181.136H254.178V172.264Z" fill="white"/>
<path d="M268.218 172.264H259.503V181.136H268.218V172.264Z" fill="white"/>
<path d="M282.257 172.264H273.543V181.136H282.257V172.264Z" fill="white"/>
<path d="M254.42 192.471H245.706V201.343H254.42V192.471Z" fill="white"/>
<path d="M268.46 192.471H259.745V201.343H268.46V192.471Z" fill="white"/>
<path d="M268.46 216.128H259.745V232.886H268.46V216.128Z" fill="white"/>
<path d="M282.5 192.471H273.785V201.343H282.5V192.471Z" fill="white"/>
<path d="M295.087 18H291.214V34.7571H295.087V18Z" fill="#3F3D56"/>
<path d="M353 233H0.678864V234H353V233Z" fill="#3F3D56"/>
</svg>
