<svg width="1200" height="220" viewBox="0 0 1200 220" fill="none" xmlns="http://www.w3.org/2000/svg">
<g opacity="0.3">
<path d="M876.979 119.688V97.9205H863.45V119.688H847.429V86.0166H835.681V60.8484H826.068V35H806.131V60.8484H796.518V86.0166H785.126V55.7468H778.717V40.4418H774.801V55.7468H752.016V152.338H734.571V142.135H723.89V152.338H706.445V119.688H675.115V97.9205H661.586V119.688H660.874V161.521H646.634V137.033H629.545V161.521H615.304V86.0166H604.267V60.8484H563.681V86.0166H553V219H615.304H660.874H706.445H752.016H785.126H847.429H893V119.688H876.979Z" fill="#AC96EA"/>
<path opacity="0.4" d="M574.743 92.8954H559.772V100.927H574.743V92.8954Z" fill="white"/>
<path opacity="0.4" d="M593.278 100.927H608.249V92.8952H593.278V100.927Z" fill="white"/>
<path opacity="0.4" d="M574.743 108.624H559.772V116.656H574.743V108.624Z" fill="white"/>
<path opacity="0.4" d="M593.278 116.656H608.249V108.624H593.278V116.656Z" fill="white"/>
<path opacity="0.4" d="M574.743 124.353H559.772V132.384H574.743V124.353Z" fill="white"/>
<path opacity="0.4" d="M593.278 132.385H608.249V124.353H593.278V132.385Z" fill="white"/>
<path opacity="0.4" d="M574.743 140.082H559.772V148.113H574.743V140.082Z" fill="white"/>
<path opacity="0.4" d="M593.278 148.113H608.249V140.081H593.278V148.113Z" fill="white"/>
<path opacity="0.4" d="M574.743 155.81H559.772V163.842H574.743V155.81Z" fill="white"/>
<path opacity="0.4" d="M593.278 163.842H608.249V155.81H593.278V163.842Z" fill="white"/>
<path opacity="0.4" d="M574.743 171.539H559.772V179.571H574.743V171.539Z" fill="white"/>
<path opacity="0.4" d="M593.278 179.571H608.249V171.539H593.278V179.571Z" fill="white"/>
<path opacity="0.4" d="M574.743 187.268H559.772V195.3H574.743V187.268Z" fill="white"/>
<path opacity="0.4" d="M593.278 195.3H608.249V187.268H593.278V195.3Z" fill="white"/>
<path opacity="0.4" d="M655.655 167.523H620.724V171.539H655.655V167.523Z" fill="white"/>
<path opacity="0.4" d="M655.655 173.547H620.724V177.563H655.655V173.547Z" fill="white"/>
<path opacity="0.4" d="M655.655 179.571H620.724V183.587H655.655V179.571Z" fill="white"/>
<path opacity="0.4" d="M746.904 169.531H711.973V173.547H746.904V169.531Z" fill="white"/>
<path opacity="0.4" d="M746.904 175.555H711.973V179.571H746.904V175.555Z" fill="white"/>
<path opacity="0.4" d="M746.904 181.579H711.973V185.594H746.904V181.579Z" fill="white"/>
<path opacity="0.4" d="M655.655 185.594H620.724V189.61H655.655V185.594Z" fill="white"/>
<path opacity="0.4" d="M655.655 191.618H620.724V195.634H655.655V191.618Z" fill="white"/>
<path opacity="0.4" d="M655.655 197.642H620.724V201.658H655.655V197.642Z" fill="white"/>
<path opacity="0.4" d="M678.111 126.026H668.487V137.739H678.111V126.026Z" fill="white"/>
<path opacity="0.4" d="M689.517 137.739H699.141V126.026H689.517V137.739Z" fill="white"/>
<path opacity="0.4" d="M678.111 144.767H668.487V156.48H678.111V144.767Z" fill="white"/>
<path opacity="0.4" d="M689.517 156.48H699.141V144.767H689.517V156.48Z" fill="white"/>
<path opacity="0.4" d="M678.111 163.507H668.487V175.22H678.111V163.507Z" fill="white"/>
<path opacity="0.4" d="M689.517 175.22H699.141V163.508H689.517V175.22Z" fill="white"/>
<path opacity="0.4" d="M678.111 182.248H668.487V193.961H678.111V182.248Z" fill="white"/>
<path opacity="0.4" d="M689.517 193.961H699.141V182.248H689.517V193.961Z" fill="white"/>
<path opacity="0.4" d="M769.36 63.111H756.528V78.5051H769.36V63.111Z" fill="white"/>
<path opacity="0.4" d="M769.36 85.1981H756.528V100.592H769.36V85.1981Z" fill="white"/>
<path opacity="0.4" d="M769.36 107.285H756.528V122.68H769.36V107.285Z" fill="white"/>
<path opacity="0.4" d="M769.36 129.372H756.528V144.767H769.36V129.372Z" fill="white"/>
<path opacity="0.4" d="M769.36 151.46H756.528V166.854H769.36V151.46Z" fill="white"/>
<path opacity="0.4" d="M769.36 173.547H756.528V188.941H769.36V173.547Z" fill="white"/>
<path opacity="0.4" d="M840.47 94.5685H792.707V107.62H840.47V94.5685Z" fill="white"/>
<path opacity="0.4" d="M840.648 122.679H792.885V135.731H840.648V122.679Z" fill="white"/>
<path opacity="0.4" d="M840.826 150.791H793.063V163.842H840.826V150.791Z" fill="white"/>
<path opacity="0.4" d="M841.005 178.901H793.241V191.953H841.005V178.901Z" fill="white"/>
<path opacity="0.4" d="M587.195 67.4614H580.779V80.1783H587.195V67.4614Z" fill="white"/>
<path opacity="0.4" d="M878.788 126.026H862.749V145.436H878.788V126.026Z" fill="white"/>
<path opacity="0.4" d="M878.788 154.137H862.749V173.547H878.788V154.137Z" fill="white"/>
<path opacity="0.4" d="M878.788 182.583H862.749V201.993H878.788V182.583Z" fill="white"/>
<path d="M1019.63 100.797V74.8891H1007.49V100.797H993.12V60.7209H982.581V30.7653H973.958V0H956.073V30.7653H947.45V60.7209H937.23V24.6932H931.482V6.47689H927.969V24.6932H907.529V139.658H891.88V127.514H882.298V139.658H866.649V100.797H838.545V74.8891H826.408V100.797H825.77V150.588H812.995V121.442H797.665V150.588H784.89V60.7209H774.99V30.7653H738.581V60.7209H729V219H784.89H825.77H866.649H907.529H937.23H993.12H1034V100.797H1019.63Z" fill="#AC96EA"/>
<path opacity="0.4" d="M748.505 68.9082H735.075V78.4677H748.505V68.9082Z" fill="white"/>
<path opacity="0.4" d="M765.132 78.4674H778.562V68.9079H765.132V78.4674Z" fill="white"/>
<path opacity="0.4" d="M748.505 87.6287H735.075V97.1881H748.505V87.6287Z" fill="white"/>
<path opacity="0.4" d="M765.132 97.1881H778.562V87.6286H765.132V97.1881Z" fill="white"/>
<path opacity="0.4" d="M748.505 106.349H735.075V115.908H748.505V106.349Z" fill="white"/>
<path opacity="0.4" d="M765.132 115.909H778.562V106.349H765.132V115.909Z" fill="white"/>
<path opacity="0.4" d="M748.505 125.07H735.075V134.629H748.505V125.07Z" fill="white"/>
<path opacity="0.4" d="M765.132 134.629H778.562V125.07H765.132V134.629Z" fill="white"/>
<path opacity="0.4" d="M748.505 143.791H735.075V153.35H748.505V143.791Z" fill="white"/>
<path opacity="0.4" d="M765.132 153.35H778.562V143.791H765.132V153.35Z" fill="white"/>
<path opacity="0.4" d="M748.505 162.511H735.075V172.071H748.505V162.511Z" fill="white"/>
<path opacity="0.4" d="M765.132 172.071H778.562V162.511H765.132V172.071Z" fill="white"/>
<path opacity="0.4" d="M748.505 181.232H735.075V190.791H748.505V181.232Z" fill="white"/>
<path opacity="0.4" d="M765.132 190.791H778.562V181.232H765.132V190.791Z" fill="white"/>
<path opacity="0.4" d="M821.088 157.731H789.752V162.511H821.088V157.731Z" fill="white"/>
<path opacity="0.4" d="M821.088 164.901H789.752V169.681H821.088V164.901Z" fill="white"/>
<path opacity="0.4" d="M821.088 172.071H789.752V176.851H821.088V172.071Z" fill="white"/>
<path opacity="0.4" d="M902.944 160.121H871.608V164.901H902.944V160.121Z" fill="white"/>
<path opacity="0.4" d="M902.944 167.291H871.608V172.071H902.944V167.291Z" fill="white"/>
<path opacity="0.4" d="M902.944 174.46H871.608V179.24H902.944V174.46Z" fill="white"/>
<path opacity="0.4" d="M821.088 179.24H789.752V184.02H821.088V179.24Z" fill="white"/>
<path opacity="0.4" d="M821.088 186.41H789.752V191.19H821.088V186.41Z" fill="white"/>
<path opacity="0.4" d="M821.088 193.579H789.752V198.359H821.088V193.579Z" fill="white"/>
<path opacity="0.4" d="M841.232 108.341H832.599V122.282H841.232V108.341Z" fill="white"/>
<path opacity="0.4" d="M851.464 122.282H860.097V108.341H851.464V122.282Z" fill="white"/>
<path opacity="0.4" d="M841.232 130.646H832.599V144.587H841.232V130.646Z" fill="white"/>
<path opacity="0.4" d="M851.464 144.587H860.097V130.646H851.464V144.587Z" fill="white"/>
<path opacity="0.4" d="M841.232 152.952H832.599V166.893H841.232V152.952Z" fill="white"/>
<path opacity="0.4" d="M851.464 166.893H860.097V152.952H851.464V166.893Z" fill="white"/>
<path opacity="0.4" d="M841.232 175.257H832.599V189.198H841.232V175.257Z" fill="white"/>
<path opacity="0.4" d="M851.464 189.198H860.097V175.257H851.464V189.198Z" fill="white"/>
<path opacity="0.4" d="M923.088 33.4583H911.577V51.7806H923.088V33.4583Z" fill="white"/>
<path opacity="0.4" d="M923.088 59.7467H911.577V78.069H923.088V59.7467Z" fill="white"/>
<path opacity="0.4" d="M923.088 86.0354H911.577V104.358H923.088V86.0354Z" fill="white"/>
<path opacity="0.4" d="M923.088 112.324H911.577V130.646H923.088V112.324Z" fill="white"/>
<path opacity="0.4" d="M923.088 138.612H911.577V156.935H923.088V138.612Z" fill="white"/>
<path opacity="0.4" d="M923.088 164.901H911.577V183.223H923.088V164.901Z" fill="white"/>
<path opacity="0.4" d="M986.878 70.8994H944.031V86.4336H986.878V70.8994Z" fill="white"/>
<path opacity="0.4" d="M987.037 104.358H944.191V119.892H987.037V104.358Z" fill="white"/>
<path opacity="0.4" d="M987.197 137.816H944.351V153.35H987.197V137.816Z" fill="white"/>
<path opacity="0.4" d="M987.357 171.274H944.511V186.808H987.357V171.274Z" fill="white"/>
<path opacity="0.4" d="M759.675 38.6361H753.919V53.772H759.675V38.6361Z" fill="white"/>
<path opacity="0.4" d="M1021.25 108.341H1006.86V131.443H1021.25V108.341Z" fill="white"/>
<path opacity="0.4" d="M1021.25 141.799H1006.86V164.901H1021.25V141.799Z" fill="white"/>
<path opacity="0.4" d="M1021.25 175.656H1006.86V198.758H1021.25V175.656Z" fill="white"/>
<path d="M323.979 156.311V142.351H310.45V156.311H294.429V134.717H282.681V118.577H273.068V102H253.131V118.577H243.518V134.717H232.126V115.305H225.717V105.49H221.801V115.305H199.016V177.25H181.571V170.706H170.89V177.25H153.445V156.311H122.115V142.351H108.586V156.311H107.874V183.139H93.6335V167.434H76.5445V183.139H62.3037V134.717H51.267V118.577H10.6806V134.717H0V220H62.3037H107.874H153.445H199.016H232.126H294.429H340V156.311H323.979Z" fill="#AC96EA"/>
<path opacity="0.4" d="M21.743 139.129H6.77246V144.279H21.743V139.129Z" fill="white"/>
<path opacity="0.4" d="M40.278 144.279H55.2485V139.128H40.278V144.279Z" fill="white"/>
<path opacity="0.4" d="M21.743 149.215H6.77246V154.366H21.743V149.215Z" fill="white"/>
<path opacity="0.4" d="M40.278 154.366H55.2485V149.215H40.278V154.366Z" fill="white"/>
<path opacity="0.4" d="M21.743 159.302H6.77246V164.453H21.743V159.302Z" fill="white"/>
<path opacity="0.4" d="M40.278 164.453H55.2485V159.302H40.278V164.453Z" fill="white"/>
<path opacity="0.4" d="M21.743 169.389H6.77246V174.54H21.743V169.389Z" fill="white"/>
<path opacity="0.4" d="M40.278 174.54H55.2485V169.389H40.278V174.54Z" fill="white"/>
<path opacity="0.4" d="M21.743 179.476H6.77246V184.627H21.743V179.476Z" fill="white"/>
<path opacity="0.4" d="M40.278 184.627H55.2485V179.476H40.278V184.627Z" fill="white"/>
<path opacity="0.4" d="M21.743 189.563H6.77246V194.714H21.743V189.563Z" fill="white"/>
<path opacity="0.4" d="M40.278 194.714H55.2485V189.563H40.278V194.714Z" fill="white"/>
<path opacity="0.4" d="M21.743 199.65H6.77246V204.801H21.743V199.65Z" fill="white"/>
<path opacity="0.4" d="M40.278 204.801H55.2485V199.65H40.278V204.801Z" fill="white"/>
<path opacity="0.4" d="M102.655 186.988H67.7236V189.563H102.655V186.988Z" fill="white"/>
<path opacity="0.4" d="M102.655 190.851H67.7236V193.426H102.655V190.851Z" fill="white"/>
<path opacity="0.4" d="M102.655 194.714H67.7236V197.289H102.655V194.714Z" fill="white"/>
<path opacity="0.4" d="M193.904 188.275H158.973V190.851H193.904V188.275Z" fill="white"/>
<path opacity="0.4" d="M193.904 192.139H158.973V194.714H193.904V192.139Z" fill="white"/>
<path opacity="0.4" d="M193.904 196.001H158.973V198.577H193.904V196.001Z" fill="white"/>
<path opacity="0.4" d="M102.655 198.577H67.7236V201.152H102.655V198.577Z" fill="white"/>
<path opacity="0.4" d="M102.655 202.44H67.7236V205.015H102.655V202.44Z" fill="white"/>
<path opacity="0.4" d="M102.655 206.303H67.7236V208.878H102.655V206.303Z" fill="white"/>
<path opacity="0.4" d="M125.111 160.375H115.487V167.887H125.111V160.375Z" fill="white"/>
<path opacity="0.4" d="M136.517 167.887H146.141V160.375H136.517V167.887Z" fill="white"/>
<path opacity="0.4" d="M125.111 172.394H115.487V179.905H125.111V172.394Z" fill="white"/>
<path opacity="0.4" d="M136.517 179.905H146.141V172.394H136.517V179.905Z" fill="white"/>
<path opacity="0.4" d="M125.111 184.412H115.487V191.924H125.111V184.412Z" fill="white"/>
<path opacity="0.4" d="M136.517 191.924H146.141V184.412H136.517V191.924Z" fill="white"/>
<path opacity="0.4" d="M125.111 196.431H115.487V203.942H125.111V196.431Z" fill="white"/>
<path opacity="0.4" d="M136.517 203.942H146.141V196.431H136.517V203.942Z" fill="white"/>
<path opacity="0.4" d="M216.36 120.028H203.528V129.9H216.36V120.028Z" fill="white"/>
<path opacity="0.4" d="M216.36 134.192H203.528V144.065H216.36V134.192Z" fill="white"/>
<path opacity="0.4" d="M216.36 148.357H203.528V158.229H216.36V148.357Z" fill="white"/>
<path opacity="0.4" d="M216.36 162.521H203.528V172.394H216.36V162.521Z" fill="white"/>
<path opacity="0.4" d="M216.36 176.686H203.528V186.558H216.36V176.686Z" fill="white"/>
<path opacity="0.4" d="M216.36 190.851H203.528V200.723H216.36V190.851Z" fill="white"/>
<path opacity="0.4" d="M287.471 140.202H239.708V148.572H287.471V140.202Z" fill="white"/>
<path opacity="0.4" d="M287.648 158.229H239.885V166.599H287.648V158.229Z" fill="white"/>
<path opacity="0.4" d="M287.827 176.257H240.063V184.627H287.827V176.257Z" fill="white"/>
<path opacity="0.4" d="M288.005 194.285H240.242V202.655H288.005V194.285Z" fill="white"/>
<path opacity="0.4" d="M34.1952 122.818H27.7793V130.973H34.1952V122.818Z" fill="white"/>
<path opacity="0.4" d="M325.788 160.375H309.749V172.823H325.788V160.375Z" fill="white"/>
<path opacity="0.4" d="M325.788 178.403H309.749V190.851H325.788V178.403Z" fill="white"/>
<path opacity="0.4" d="M325.788 196.646H309.749V209.093H325.788V196.646Z" fill="white"/>
<path d="M581.544 119.688V97.9205H564.693V119.688H544.738V86.0166H530.104V60.8484H518.13V35H493.297V60.8484H481.324V86.0166H467.133V55.7468H459.151V40.4418H454.273V55.7468H425.892V152.338H404.162V142.135H390.859V152.338H369.129V119.688H330.105V97.9205H313.254V119.688H312.367V161.521H294.629V137.033H273.343V161.521H255.605V86.0166H241.858V60.8484H191.304V86.0166H178V219H255.605H312.367H369.129H425.892H467.133H544.738H601.5V119.688H581.544Z" fill="#AC96EA"/>
<path opacity="0.4" d="M205.051 93.8392H186.426V102.002H205.051V93.8392Z" fill="white"/>
<path opacity="0.4" d="M228.111 102.002H246.736V93.8392H228.111V102.002Z" fill="white"/>
<path opacity="0.4" d="M205.051 109.824H186.426V117.987H205.051V109.824Z" fill="white"/>
<path opacity="0.4" d="M228.111 117.987H246.736V109.824H228.111V117.987Z" fill="white"/>
<path opacity="0.4" d="M205.051 125.81H186.426V133.972H205.051V125.81Z" fill="white"/>
<path opacity="0.4" d="M228.111 133.972H246.736V125.81H228.111V133.972Z" fill="white"/>
<path opacity="0.4" d="M205.051 141.795H186.426V149.957H205.051V141.795Z" fill="white"/>
<path opacity="0.4" d="M228.111 149.957H246.736V141.795H228.111V149.957Z" fill="white"/>
<path opacity="0.4" d="M205.051 157.78H186.426V165.943H205.051V157.78Z" fill="white"/>
<path opacity="0.4" d="M228.111 165.943H246.736V157.78H228.111V165.943Z" fill="white"/>
<path opacity="0.4" d="M205.051 173.765H186.426V181.928H205.051V173.765Z" fill="white"/>
<path opacity="0.4" d="M228.111 181.928H246.736V173.765H228.111V181.928Z" fill="white"/>
<path opacity="0.4" d="M205.051 189.75H186.426V197.913H205.051V189.75Z" fill="white"/>
<path opacity="0.4" d="M228.111 197.913H246.736V189.75H228.111V197.913Z" fill="white"/>
<path opacity="0.4" d="M305.715 169.684H262.256V173.765H305.715V169.684Z" fill="white"/>
<path opacity="0.4" d="M305.715 175.806H262.256V179.887H305.715V175.806Z" fill="white"/>
<path opacity="0.4" d="M305.715 181.928H262.256V186.009H305.715V181.928Z" fill="white"/>
<path opacity="0.4" d="M419.24 171.725H375.781V175.806H419.24V171.725Z" fill="white"/>
<path opacity="0.4" d="M419.24 177.847H375.781V181.928H419.24V177.847Z" fill="white"/>
<path opacity="0.4" d="M419.24 183.969H375.781V188.05H419.24V183.969Z" fill="white"/>
<path opacity="0.4" d="M305.715 188.05H262.256V192.131H305.715V188.05Z" fill="white"/>
<path opacity="0.4" d="M305.715 194.172H262.256V198.253H305.715V194.172Z" fill="white"/>
<path opacity="0.4" d="M305.715 200.294H262.256V204.375H305.715V200.294Z" fill="white"/>
<path opacity="0.4" d="M333.653 127.51H321.68V139.414H333.653V127.51Z" fill="white"/>
<path opacity="0.4" d="M347.844 139.414H359.817V127.51H347.844V139.414Z" fill="white"/>
<path opacity="0.4" d="M333.653 146.556H321.68V158.46H333.653V146.556Z" fill="white"/>
<path opacity="0.4" d="M347.844 158.46H359.817V146.556H347.844V158.46Z" fill="white"/>
<path opacity="0.4" d="M333.653 165.603H321.68V177.506H333.653V165.603Z" fill="white"/>
<path opacity="0.4" d="M347.844 177.507H359.817V165.603H347.844V177.507Z" fill="white"/>
<path opacity="0.4" d="M333.653 184.649H321.68V196.553H333.653V184.649Z" fill="white"/>
<path opacity="0.4" d="M347.844 196.553H359.817V184.649H347.844V196.553Z" fill="white"/>
<path opacity="0.4" d="M447.177 63.5693H431.213V79.2144H447.177V63.5693Z" fill="white"/>
<path opacity="0.4" d="M447.177 86.0166H431.213V101.662H447.177V86.0166Z" fill="white"/>
<path opacity="0.4" d="M447.177 108.464H431.213V124.109H447.177V108.464Z" fill="white"/>
<path opacity="0.4" d="M447.177 130.911H431.213V146.556H447.177V130.911Z" fill="white"/>
<path opacity="0.4" d="M447.177 153.359H431.213V169.004H447.177V153.359Z" fill="white"/>
<path opacity="0.4" d="M447.177 175.806H431.213V191.451H447.177V175.806Z" fill="white"/>
<path opacity="0.4" d="M535.647 95.5398H476.224V108.804H535.647V95.5398Z" fill="white"/>
<path opacity="0.4" d="M535.868 124.109H476.445V137.373H535.868V124.109Z" fill="white"/>
<path opacity="0.4" d="M536.09 152.678H476.667V165.943H536.09V152.678Z" fill="white"/>
<path opacity="0.4" d="M536.312 181.248H476.889V194.512H536.312V181.248Z" fill="white"/>
<path opacity="0.4" d="M220.543 67.9907H212.561V80.9149H220.543V67.9907Z" fill="white"/>
<path opacity="0.4" d="M583.32 127.51H563.364V147.237H583.32V127.51Z" fill="white"/>
<path opacity="0.4" d="M583.32 156.079H563.364V175.806H583.32V156.079Z" fill="white"/>
<path opacity="0.4" d="M583.32 184.989H563.364V204.715H583.32V184.989Z" fill="white"/>
<path d="M1183.98 155.311V141.351H1170.45V155.311H1154.43V133.717H1142.68V117.577H1133.07V101H1113.13V117.577H1103.52V133.717H1092.13V114.305H1085.72V104.49H1081.8V114.305H1059.02V176.25H1041.57V169.706H1030.89V176.25H1013.45V155.311H982.115V141.351H968.586V155.311H967.874V182.139H953.634V166.434H936.545V182.139H922.304V133.717H911.267V117.577H870.681V133.717H860V219H922.304H967.874H1013.45H1059.02H1092.13H1154.43H1200V155.311H1183.98Z" fill="#AC96EA"/>
<path opacity="0.4" d="M881.743 138.129H866.772V143.279H881.743V138.129Z" fill="white"/>
<path opacity="0.4" d="M900.278 143.279H915.249V138.128H900.278V143.279Z" fill="white"/>
<path opacity="0.4" d="M881.743 148.215H866.772V153.366H881.743V148.215Z" fill="white"/>
<path opacity="0.4" d="M900.278 153.366H915.249V148.215H900.278V153.366Z" fill="white"/>
<path opacity="0.4" d="M881.743 158.302H866.772V163.453H881.743V158.302Z" fill="white"/>
<path opacity="0.4" d="M900.278 163.453H915.249V158.302H900.278V163.453Z" fill="white"/>
<path opacity="0.4" d="M881.743 168.389H866.772V173.54H881.743V168.389Z" fill="white"/>
<path opacity="0.4" d="M900.278 173.54H915.249V168.389H900.278V173.54Z" fill="white"/>
<path opacity="0.4" d="M881.743 178.476H866.772V183.627H881.743V178.476Z" fill="white"/>
<path opacity="0.4" d="M900.278 183.627H915.249V178.476H900.278V183.627Z" fill="white"/>
<path opacity="0.4" d="M881.743 188.563H866.772V193.714H881.743V188.563Z" fill="white"/>
<path opacity="0.4" d="M900.278 193.714H915.249V188.563H900.278V193.714Z" fill="white"/>
<path opacity="0.4" d="M881.743 198.65H866.772V203.801H881.743V198.65Z" fill="white"/>
<path opacity="0.4" d="M900.278 203.801H915.249V198.65H900.278V203.801Z" fill="white"/>
<path opacity="0.4" d="M962.655 185.988H927.724V188.563H962.655V185.988Z" fill="white"/>
<path opacity="0.4" d="M962.655 189.851H927.724V192.426H962.655V189.851Z" fill="white"/>
<path opacity="0.4" d="M962.655 193.714H927.724V196.289H962.655V193.714Z" fill="white"/>
<path opacity="0.4" d="M1053.9 187.275H1018.97V189.851H1053.9V187.275Z" fill="white"/>
<path opacity="0.4" d="M1053.9 191.139H1018.97V193.714H1053.9V191.139Z" fill="white"/>
<path opacity="0.4" d="M1053.9 195.001H1018.97V197.577H1053.9V195.001Z" fill="white"/>
<path opacity="0.4" d="M962.655 197.577H927.724V200.152H962.655V197.577Z" fill="white"/>
<path opacity="0.4" d="M962.655 201.44H927.724V204.015H962.655V201.44Z" fill="white"/>
<path opacity="0.4" d="M962.655 205.303H927.724V207.878H962.655V205.303Z" fill="white"/>
<path opacity="0.4" d="M985.111 159.375H975.487V166.887H985.111V159.375Z" fill="white"/>
<path opacity="0.4" d="M996.517 166.887H1006.14V159.375H996.517V166.887Z" fill="white"/>
<path opacity="0.4" d="M985.111 171.394H975.487V178.905H985.111V171.394Z" fill="white"/>
<path opacity="0.4" d="M996.517 178.905H1006.14V171.394H996.517V178.905Z" fill="white"/>
<path opacity="0.4" d="M985.111 183.412H975.487V190.924H985.111V183.412Z" fill="white"/>
<path opacity="0.4" d="M996.517 190.924H1006.14V183.412H996.517V190.924Z" fill="white"/>
<path opacity="0.4" d="M985.111 195.431H975.487V202.942H985.111V195.431Z" fill="white"/>
<path opacity="0.4" d="M996.517 202.942H1006.14V195.431H996.517V202.942Z" fill="white"/>
<path opacity="0.4" d="M1076.36 119.028H1063.53V128.9H1076.36V119.028Z" fill="white"/>
<path opacity="0.4" d="M1076.36 133.192H1063.53V143.065H1076.36V133.192Z" fill="white"/>
<path opacity="0.4" d="M1076.36 147.357H1063.53V157.229H1076.36V147.357Z" fill="white"/>
<path opacity="0.4" d="M1076.36 161.521H1063.53V171.394H1076.36V161.521Z" fill="white"/>
<path opacity="0.4" d="M1076.36 175.686H1063.53V185.558H1076.36V175.686Z" fill="white"/>
<path opacity="0.4" d="M1076.36 189.851H1063.53V199.723H1076.36V189.851Z" fill="white"/>
<path opacity="0.4" d="M1147.47 139.202H1099.71V147.572H1147.47V139.202Z" fill="white"/>
<path opacity="0.4" d="M1147.65 157.229H1099.89V165.599H1147.65V157.229Z" fill="white"/>
<path opacity="0.4" d="M1147.83 175.257H1100.06V183.627H1147.83V175.257Z" fill="white"/>
<path opacity="0.4" d="M1148 193.285H1100.24V201.655H1148V193.285Z" fill="white"/>
<path opacity="0.4" d="M894.195 121.818H887.779V129.973H894.195V121.818Z" fill="white"/>
<path opacity="0.4" d="M1185.79 159.375H1169.75V171.823H1185.79V159.375Z" fill="white"/>
<path opacity="0.4" d="M1185.79 177.403H1169.75V189.851H1185.79V177.403Z" fill="white"/>
<path opacity="0.4" d="M1185.79 195.646H1169.75V208.093H1185.79V195.646Z" fill="white"/>
</g>
</svg>
