<svg width="281" height="48" viewBox="0 0 281 48" fill="none" xmlns="http://www.w3.org/2000/svg">
<rect width="281" height="48" fill="#F5F3FF" fill-opacity="0.5"/>
<path opacity="0.15" d="M215.717 8.76341C211.069 6.07956 206.976 6.21501 202.683 8.19198C201.904 8.55061 201.556 9.45808 201.897 10.2497L203.327 13.5743C203.671 14.3737 204.592 14.7646 205.401 14.4547C207.898 13.4989 209.578 13.0885 211.857 14.4041C213.648 15.4385 215.209 17.8524 214.222 19.5617C213.476 20.8538 212.009 20.8915 209.677 20.8459C206.957 20.7927 203.409 20.6327 201.364 24.1753L201.04 24.7362C200.601 25.4956 200.872 26.4726 201.644 26.9183L205.864 29.3551C206.636 29.8007 207.618 29.5464 208.056 28.7869L208.247 28.4561C209.665 26.0004 217.019 30.1101 220.856 23.4647C223.746 18.4602 220.661 11.6175 215.717 8.76341ZM202.78 29.8246C200.555 28.5403 197.717 29.2759 196.454 31.4644C195.19 33.6529 195.972 36.4783 198.197 37.7626C200.421 39.0469 203.259 38.3113 204.522 36.1228C205.786 33.9342 205.004 31.1089 202.78 29.8246Z" fill="#CD95FA"/>
</svg>
