<svg width="281" height="51" viewBox="0 0 281 51" fill="none" xmlns="http://www.w3.org/2000/svg">
<rect y="3" width="281" height="48" fill="#F5F3FF" fill-opacity="0.5"/>
<path opacity="0.15" d="M243.717 6.76341C239.069 4.07956 234.976 4.21501 230.683 6.19198C229.904 6.55061 229.556 7.45808 229.897 8.24967L231.327 11.5743C231.671 12.3737 232.592 12.7646 233.401 12.4547C235.898 11.4989 237.578 11.0885 239.857 12.4041C241.648 13.4385 243.209 15.8524 242.222 17.5617C241.476 18.8538 240.009 18.8915 237.677 18.8459C234.957 18.7927 231.409 18.6327 229.364 22.1753L229.04 22.7362C228.601 23.4956 228.872 24.4726 229.644 24.9183L233.864 27.3551C234.636 27.8007 235.618 27.5464 236.056 26.7869L236.247 26.4561C237.665 24.0004 245.019 28.1101 248.856 21.4647C251.746 16.4602 248.661 9.61747 243.717 6.76341ZM230.78 27.8246C228.555 26.5403 225.717 27.2759 224.454 29.4644C223.19 31.6529 223.972 34.4783 226.197 35.7626C228.421 37.0469 231.259 36.3113 232.522 34.1228C233.786 31.9342 233.004 29.1089 230.78 27.8246Z" fill="#CD95FA"/>
</svg>
