<svg width="151" height="34" viewBox="0 0 151 34" fill="none" xmlns="http://www.w3.org/2000/svg">
<rect width="151" height="34" fill="white"/>
<rect width="151" height="27" fill="#E7BFFF"/>
<path opacity="0.2" d="M14.4011 0.225625H9.17657C8.96242 0.225625 8.78882 0.399711 8.78882 0.614456V2.09306C8.78882 2.30781 8.96242 2.48189 9.17657 2.48189H14.4011C14.6152 2.48189 14.7888 2.30781 14.7888 2.09306V0.614456C14.7888 0.399711 14.6152 0.225625 14.4011 0.225625Z" fill="#EFE4F4"/>
<path opacity="0.05" d="M51.5623 1.80501H46.3378C46.1237 1.80501 45.9501 1.9791 45.9501 2.19384V3.67245C45.9501 3.88719 46.1237 4.06128 46.3378 4.06128H51.5623C51.7765 4.06128 51.9501 3.88719 51.9501 3.67245V2.19384C51.9501 1.9791 51.7765 1.80501 51.5623 1.80501Z" fill="#1E0728"/>
<path opacity="0.05" d="M55.3092 4.58774H50.0847C49.8706 4.58774 49.697 4.76183 49.697 4.97657V6.45518C49.697 6.66992 49.8706 6.84401 50.0847 6.84401H55.3092C55.5234 6.84401 55.697 6.66992 55.697 6.45518V4.97657C55.697 4.76183 55.5234 4.58774 55.3092 4.58774Z" fill="#1E0728"/>
<path opacity="0.2" d="M14.3157 4.86313H9.09124C8.87709 4.86313 8.70349 5.03722 8.70349 5.25196V6.73057C8.70349 6.94531 8.87709 7.1194 9.09124 7.1194H14.3157C14.5299 7.1194 14.7035 6.94531 14.7035 6.73057V5.25196C14.7035 5.03722 14.5299 4.86313 14.3157 4.86313Z" fill="#EFE4F4"/>
<path opacity="0.05" d="M20.7546 15.4178H15.5301C15.316 15.4178 15.1424 15.5919 15.1424 15.8067V17.2853C15.1424 17.5 15.316 17.6741 15.5301 17.6741H20.7546C20.9688 17.6741 21.1424 17.5 21.1424 17.2853V15.8067C21.1424 15.5919 20.9688 15.4178 20.7546 15.4178Z" fill="#1E0728"/>
<path opacity="0.05" d="M37.7457 13.1329H32.5212C32.3071 13.1329 32.1335 13.307 32.1335 13.5218V15.0004C32.1335 15.2151 32.3071 15.3892 32.5212 15.3892H37.7457C37.9599 15.3892 38.1335 15.2151 38.1335 15.0004V13.5218C38.1335 13.307 37.9599 13.1329 37.7457 13.1329Z" fill="#1E0728"/>
<path opacity="0.05" d="M67.2922 23.4109H62.0677C61.8535 23.4109 61.6799 23.585 61.6799 23.7997V25.2783C61.6799 25.4931 61.8535 25.6671 62.0677 25.6671H67.2922C67.5063 25.6671 67.6799 25.4931 67.6799 25.2783V23.7997C67.6799 23.585 67.5063 23.4109 67.2922 23.4109Z" fill="#1E0728"/>
<path opacity="0.2" d="M5.90732 0.225625H0.682825C0.468677 0.225625 0.295074 0.399711 0.295074 0.614456V2.09306C0.295074 2.30781 0.468677 2.48189 0.682825 2.48189H5.90732C6.12147 2.48189 6.29507 2.30781 6.29507 2.09306V0.614456C6.29507 0.399711 6.12147 0.225625 5.90732 0.225625Z" fill="#EFE4F4"/>
<path opacity="0.2" d="M10.598 2.54437H5.37347C5.15932 2.54437 4.98572 2.71846 4.98572 2.93321V4.41181C4.98572 4.62656 5.15932 4.80064 5.37347 4.80064H10.598C10.8121 4.80064 10.9857 4.62656 10.9857 4.41181V2.93321C10.9857 2.71846 10.8121 2.54437 10.598 2.54437Z" fill="#EFE4F4"/>
<path opacity="0.05" d="M93.5907 4.07855H88.3662C88.1521 4.07855 87.9785 4.25264 87.9785 4.46738V5.94599C87.9785 6.16073 88.1521 6.33482 88.3662 6.33482H93.5907C93.8049 6.33482 93.9785 6.16073 93.9785 5.94599V4.46738C93.9785 4.25264 93.8049 4.07855 93.5907 4.07855Z" fill="#1E0728"/>
<path opacity="0.05" d="M143.553 9.92758H138.328C138.114 9.92758 137.941 10.1017 137.941 10.3164V11.795C137.941 12.0098 138.114 12.1838 138.328 12.1838H143.553C143.767 12.1838 143.941 12.0098 143.941 11.795V10.3164C143.941 10.1017 143.767 9.92758 143.553 9.92758Z" fill="#1E0728"/>
<path opacity="0.05" d="M145.287 4.89426H140.063C139.849 4.89426 139.675 5.06835 139.675 5.28309V6.7617C139.675 6.97644 139.849 7.15053 140.063 7.15053H145.287C145.501 7.15053 145.675 6.97644 145.675 6.7617V5.28309C145.675 5.06835 145.501 4.89426 145.287 4.89426Z" fill="#1E0728"/>
<path opacity="0.05" d="M78.4908 7.74652H73.2663C73.0521 7.74652 72.8785 7.9206 72.8785 8.13535V9.61395C72.8785 9.8287 73.0521 10.0028 73.2663 10.0028H78.4908C78.7049 10.0028 78.8785 9.8287 78.8785 9.61395V8.13535C78.8785 7.9206 78.7049 7.74652 78.4908 7.74652Z" fill="#1E0728"/>
<path opacity="0.05" d="M123.896 4.58774H118.671C118.457 4.58774 118.283 4.76183 118.283 4.97657V6.45518C118.283 6.66993 118.457 6.84401 118.671 6.84401H123.896C124.11 6.84401 124.283 6.66993 124.283 6.45518V4.97657C124.283 4.76183 124.11 4.58774 123.896 4.58774Z" fill="#1E0728"/>
<path opacity="0.2" d="M5.92686 2.54437H0.702357C0.488208 2.54437 0.314606 2.71846 0.314606 2.93321V4.41181C0.314606 4.62656 0.488208 4.80064 0.702357 4.80064H5.92686C6.141 4.80064 6.31461 4.62656 6.31461 4.41181V2.93321C6.31461 2.71846 6.141 2.54437 5.92686 2.54437Z" fill="#EFE4F4"/>
<path opacity="0.2" d="M7.70948 7.17825H2.48498C2.27083 7.17825 2.09723 7.35234 2.09723 7.56708V9.04569C2.09723 9.26043 2.27083 9.43452 2.48498 9.43452H7.70948C7.92363 9.43452 8.09723 9.26043 8.09723 9.04569V7.56708C8.09723 7.35234 7.92363 7.17825 7.70948 7.17825Z" fill="#EFE4F4"/>
<path opacity="0.2" d="M61.6081 1.30514H56.3836C56.1695 1.30514 55.9958 1.47922 55.9958 1.69397V3.17257C55.9958 3.38732 56.1695 3.5614 56.3836 3.5614H61.6081C61.8222 3.5614 61.9958 3.38732 61.9958 3.17257V1.69397C61.9958 1.47922 61.8222 1.30514 61.6081 1.30514Z" fill="#EFE4F4"/>
<path opacity="0.2" d="M35.7074 4.07855H30.4829C30.2688 4.07855 30.0952 4.25264 30.0952 4.46738V5.94599C30.0952 6.16073 30.2688 6.33482 30.4829 6.33482H35.7074C35.9216 6.33482 36.0952 6.16073 36.0952 5.94599V4.46738C36.0952 4.25264 35.9216 4.07855 35.7074 4.07855Z" fill="#EFE4F4"/>
<path opacity="0.2" d="M105.008 22.2689H99.7836C99.5695 22.2689 99.3959 22.443 99.3959 22.6577V24.1363C99.3959 24.3511 99.5695 24.5251 99.7836 24.5251H105.008C105.222 24.5251 105.396 24.3511 105.396 24.1363V22.6577C105.396 22.443 105.222 22.2689 105.008 22.2689Z" fill="#EFE4F4"/>
<path opacity="0.2" d="M16.6411 11.9909H11.4166C11.2025 11.9909 11.0289 12.165 11.0289 12.3798V13.8584C11.0289 14.0731 11.2025 14.2472 11.4166 14.2472H16.6411C16.8553 14.2472 17.0289 14.0731 17.0289 13.8584V12.3798C17.0289 12.165 16.8553 11.9909 16.6411 11.9909Z" fill="#EFE4F4"/>
<path d="M18.3275 27.4053H8V27.4052C8 26.3561 8.35621 25.35 8.99028 24.6081C9.62435 23.8663 10.4843 23.4495 11.381 23.4495C13.2628 22.7633 15.7174 22.9835 18.3275 23.4495V27.4053Z" fill="#E28CC5"/>
<path d="M16.8421 26.5444H21.693C21.7333 26.5444 21.7732 26.5537 21.8105 26.5718C21.8477 26.5898 21.8816 26.6163 21.9101 26.6497C21.9386 26.683 21.9612 26.7226 21.9766 26.7662C21.9921 26.8098 22 26.8566 22 26.9037V26.9037C22 26.999 21.9677 27.0904 21.9101 27.1578C21.8525 27.2252 21.7744 27.2631 21.693 27.2631H16.8421V26.5444Z" fill="#3F3D56"/>
<path d="M17.6823 20.0714L18.9825 18.2268C19.0124 18.1536 19.0607 18.0929 19.1209 18.0526C19.1811 18.0124 19.2503 17.9945 19.3194 18.0015C19.3885 18.0084 19.4541 18.0398 19.5075 18.0914C19.561 18.1431 19.5998 18.2125 19.6186 18.2906L20.1314 20.4093L17.6823 20.0714Z" fill="#3F3D56"/>
<path d="M16.1053 21.0109L16.5965 18.6897C16.5965 18.6086 16.6176 18.5294 16.657 18.4626C16.6964 18.3959 16.7522 18.3448 16.8171 18.3161C16.8819 18.2874 16.9527 18.2825 17.02 18.302C17.0872 18.3216 17.1479 18.3646 17.1937 18.4254L18.4386 20.0766L16.1053 21.0109Z" fill="#E28CC5"/>
<path d="M8 27.4068H8.98246V29.8502C8.98246 30.0012 8.95705 30.1507 8.90767 30.2902C8.8583 30.4297 8.78593 30.5564 8.6947 30.6632C8.60347 30.77 8.49517 30.8547 8.37597 30.9125C8.25677 30.9703 8.12902 31 8 31V31V27.4068L8 27.4068Z" fill="#E28CC5"/>
<path d="M16.6579 26.6881H21.5088C21.5491 26.6881 21.589 26.6974 21.6263 26.7155C21.6635 26.7336 21.6974 26.76 21.7259 26.7934C21.7544 26.8268 21.777 26.8664 21.7924 26.91C21.8079 26.9536 21.8158 27.0003 21.8158 27.0475C21.8158 27.0947 21.8079 27.1414 21.7924 27.185C21.777 27.2286 21.7544 27.2682 21.7259 27.3015C21.6974 27.3349 21.6635 27.3614 21.6263 27.3794C21.589 27.3975 21.5491 27.4068 21.5088 27.4068H16.6579V26.6881Z" fill="#E28CC5"/>
<path d="M18.3158 27.4068C20.147 27.4068 21.6316 25.6694 21.6316 23.5261C21.6316 21.3829 20.147 19.6455 18.3158 19.6455C16.4845 19.6455 15 21.3829 15 23.5261C15 25.6694 16.4845 27.4068 18.3158 27.4068Z" fill="#E28CC5"/>
<path d="M21.5087 24.8197C21.7122 24.8197 21.8772 24.3692 21.8772 23.8136C21.8772 23.2579 21.7122 22.8075 21.5087 22.8075C21.3053 22.8075 21.1403 23.2579 21.1403 23.8136C21.1403 24.3692 21.3053 24.8197 21.5087 24.8197Z" fill="#3F3D56"/>
<path d="M20.6184 23.0231C20.6693 23.0231 20.7105 22.9105 20.7105 22.7715C20.7105 22.6326 20.6693 22.52 20.6184 22.52C20.5675 22.52 20.5263 22.6326 20.5263 22.7715C20.5263 22.9105 20.5675 23.0231 20.6184 23.0231Z" fill="#3F3D56"/>
<path d="M21.2939 22.52C21.3447 22.52 21.386 22.4074 21.386 22.2685C21.386 22.1296 21.3447 22.017 21.2939 22.017C21.243 22.017 21.2018 22.1296 21.2018 22.2685C21.2018 22.4074 21.243 22.52 21.2939 22.52Z" fill="#3F3D56"/>
<path d="M18.0376 19.6023C18.0376 19.6023 17.8533 19.2271 17.8533 18.9982Z" fill="#3F3D56"/>
<path d="M18.1187 19.3596C18.1187 19.3596 18.2191 18.9431 18.3589 18.7831Z" fill="#3F3D56"/>
<path d="M8 29.52H8.98286V30.04H8V29.52Z" fill="#3F3D56"/>
<path d="M8 29.52H8.98286V30.04H8V29.52Z" fill="#3F3D56"/>
<path d="M8 29.52H8.98286V30.04H8V29.52Z" fill="#3F3D56"/>
<path d="M8 28.64H8.98286V29.16H8V28.64Z" fill="#3F3D56"/>
<path d="M8 28.64H8.98286V29.16H8V28.64Z" fill="#3F3D56"/>
<path d="M8 28.64H8.98286V29.16H8V28.64Z" fill="#3F3D56"/>
</svg>
