<svg width="369" height="94" viewBox="0 0 369 94" fill="none" xmlns="http://www.w3.org/2000/svg">
<rect width="369" height="94" fill="white"/>
<path opacity="0.1" d="M25 48.95H24.9148L24.8473 49.0021L11.25 59.4914V11.4C11.25 10.009 11.9872 8.72666 13.209 7.7842C14.4307 6.8417 16.126 6.25 18 6.25H74C75.874 6.25 77.5693 6.8417 78.791 7.7842C80.0128 8.72666 80.75 10.009 80.75 11.4V43.8C80.75 45.191 80.0128 46.4733 78.791 47.4158C77.5693 48.3583 75.874 48.95 74 48.95H25ZM74 44.05H74.25V43.8V11.4V11.15H74H18H17.75V11.4V49.2V49.7086L18.1527 49.3979L25.0852 44.05H74Z" fill="#EEB4E5" stroke="#EEB4E5" stroke-width="0.5"/>
<path opacity="0.1" d="M115.8 69.95H115.884L115.951 70.001L129.75 80.4958V32.4C129.75 31.0105 129.003 29.7283 127.763 28.7852C126.523 27.8422 124.802 27.25 122.9 27.25H66.1C64.1977 27.25 62.4769 27.8422 61.237 28.7852C59.997 29.7283 59.25 31.0105 59.25 32.4V64.8C59.25 66.1895 59.997 67.4717 61.237 68.4148C62.4769 69.3578 64.1977 69.95 66.1 69.95H115.8ZM66.1 65.05H65.85V64.8V32.4V32.15H66.1H122.9H123.15V32.4V70.2V70.7042L122.749 70.399L115.716 65.05H66.1Z" fill="#BCA0D2" stroke="#EEB4E5" stroke-width="0.5"/>
</svg>
