<svg width="577" height="494" viewBox="0 0 577 494" fill="none" xmlns="http://www.w3.org/2000/svg">
<g clip-path="url(#clip0)">
<path d="M203.277 222C220.398 222 234.277 208.121 234.277 191C234.277 173.879 220.398 160 203.277 160C186.156 160 172.277 173.879 172.277 191C172.277 208.121 186.156 222 203.277 222Z" fill="#F2F2F2"/>
<path d="M107.695 84.1377H321.277V95.823H134.961C124.006 95.823 113.159 97.9806 103.038 102.173C92.9172 106.365 83.7212 112.509 75.9751 120.256C68.2289 128.002 62.0844 137.198 57.8922 147.319C53.7 157.439 51.5424 168.287 51.5424 179.241V312H28.1718C27.1388 312 26.1481 311.59 25.4176 310.859C24.6872 310.129 24.2768 309.138 24.2768 308.105V167.556C24.2768 156.601 26.4344 145.754 30.6266 135.633C34.8188 125.512 40.9634 116.316 48.7095 108.57C56.4556 100.824 65.6516 94.6796 75.7724 90.4875C85.8932 86.2953 96.7407 84.1377 107.695 84.1377V84.1377Z" fill="#F2F2F2"/>
<path d="M148.777 489V311.5H200.777V489C200.775 490.193 200.301 491.337 199.457 492.18C198.614 493.024 197.47 493.499 196.277 493.5H153.277C152.084 493.499 150.94 493.024 150.096 492.18C149.253 491.337 148.778 490.193 148.777 489Z" fill="#3F3D56"/>
<path d="M13.2768 308V163.666C13.3027 140.688 22.4418 118.66 38.6891 102.412C54.9364 86.1652 76.9649 77.026 99.942 77H320.277V313H18.2768C16.9511 312.998 15.6803 312.471 14.7429 311.534C13.8056 310.597 13.2783 309.326 13.2768 308V308ZM318.277 79H99.942C77.4952 79.0254 55.975 87.9537 40.1027 103.826C24.2303 119.698 15.3021 141.219 15.2768 163.666V308C15.2776 308.795 15.594 309.558 16.1564 310.12C16.7188 310.683 17.4814 310.999 18.2768 311H318.277V79Z" fill="#3F3D56"/>
<path d="M203.277 207C198.505 206.995 193.929 205.096 190.555 201.722C187.18 198.347 185.282 193.772 185.277 189V60C185.276 59.2046 184.96 58.4421 184.397 57.8796C183.835 57.3172 183.072 57.0009 182.277 57H112.277C110.951 56.9985 109.68 56.4712 108.743 55.5338C107.806 54.5965 107.278 53.3256 107.277 52V5C107.278 3.67439 107.806 2.40351 108.743 1.46616C109.68 0.528807 110.951 0.00153504 112.277 0H216.277C217.602 0.00151655 218.873 0.528787 219.811 1.46614C220.748 2.40349 221.275 3.67438 221.277 5V189C221.271 193.772 219.373 198.347 215.999 201.722C212.624 205.096 208.049 206.995 203.277 207Z" fill="#5581DE" fill-opacity="0.830345"/>
<path d="M328.277 75C343.362 74.9684 357.843 80.9308 368.532 91.5757C379.222 102.22 385.245 116.676 385.277 131.761V296.071H497.277C501.776 296.062 506.095 297.84 509.283 301.015C512.471 304.19 514.267 308.501 514.277 313H271.277V131.761C271.308 116.676 277.332 102.22 288.021 91.5757C298.711 80.9308 313.191 74.9684 328.277 75Z" fill="#3F3D56"/>
<path d="M314.599 168.568L326.402 217.324L557.283 161.432L545.48 112.676C545.337 112.08 545.046 111.529 544.634 111.076C544.222 110.622 543.702 110.28 543.122 110.081C542.694 109.93 542.242 109.862 541.788 109.88L408.329 40.7782C407.547 40.3788 406.648 40.2722 405.794 40.4774C404.94 40.6826 404.188 41.1863 403.673 41.8974L339.353 131.591L315.105 165.414C315.061 165.473 315.03 165.541 315.015 165.613C314.999 165.686 315 165.76 315.016 165.832C314.522 166.654 314.373 167.636 314.599 168.568V168.568Z" fill="white"/>
<path d="M315.016 165.832C315.027 165.896 315.051 165.956 315.086 166.01C315.121 166.065 315.166 166.111 315.219 166.148C315.282 166.191 315.352 166.221 315.427 166.235C315.501 166.25 315.578 166.25 315.652 166.234C315.773 166.201 315.879 166.128 315.951 166.026L316.035 165.911L317.297 164.145L340.226 132.181L404.527 42.508C404.894 41.9998 405.431 41.64 406.04 41.4939C406.65 41.3478 407.291 41.4251 407.849 41.7117L540.274 110.278L541.462 110.895C541.511 110.915 541.56 110.933 541.61 110.947C541.699 110.931 541.79 110.922 541.881 110.921C542.006 110.879 542.109 110.792 542.171 110.676C542.203 110.615 542.223 110.549 542.23 110.48C542.236 110.411 542.229 110.342 542.209 110.276C542.188 110.211 542.155 110.149 542.111 110.096C542.067 110.043 542.013 109.999 541.952 109.967L541.788 109.88L408.329 40.7782C407.547 40.3788 406.648 40.2722 405.794 40.4774C404.94 40.6826 404.188 41.1863 403.673 41.8974L339.353 131.591L315.105 165.414C315.061 165.473 315.03 165.541 315.015 165.613C314.999 165.686 315 165.76 315.016 165.832V165.832Z" fill="#3F3D56"/>
<path d="M384.357 170.804L389.496 171.374L427.639 175.599L452.925 178.399L454.418 178.565L485.97 153.92L487.179 152.976L494.631 147.156L521.145 126.449L521.304 124.995L530.735 39.8809C530.863 38.7089 530.522 37.5337 529.785 36.613C529.049 35.6924 527.977 35.1013 526.805 34.9694L400.95 21.0276C399.778 20.8996 398.603 21.2413 397.682 21.9777C396.762 22.7142 396.17 23.7854 396.038 24.9568L389.388 84.9944L385.699 118.28L382.399 148.059L380.869 161.888L380.422 165.894C380.295 167.066 380.638 168.241 381.375 169.162C382.113 170.082 383.185 170.672 384.357 170.804V170.804Z" fill="#E6E6E6"/>
<path d="M418.942 96.1978L473.459 102.236L492.792 104.377C493.646 104.471 494.51 104.397 495.334 104.157C496.159 103.918 496.929 103.519 497.599 102.982C498.27 102.445 498.828 101.782 499.242 101.029C499.656 100.277 499.917 99.4501 500.012 98.5965C500.107 97.7429 500.032 96.8791 499.793 96.0543C499.553 95.2295 499.154 94.4599 498.617 93.7895C498.081 93.1191 497.417 92.5609 496.665 92.147C495.912 91.733 495.086 91.4712 494.232 91.3767L470.185 88.7135L420.386 83.1916C418.661 83.0011 416.932 83.5031 415.578 84.5873C414.224 85.6714 413.356 87.249 413.164 88.9732C412.973 90.6973 413.474 92.4269 414.557 93.7817C415.641 95.1365 417.218 96.0055 418.942 96.1978Z" fill="white"/>
<path d="M415.838 120.314C415.979 120.339 416.119 120.364 416.263 120.378L479.548 127.389L490.114 128.562C491.839 128.752 493.568 128.25 494.923 127.166C496.277 126.081 497.145 124.503 497.336 122.778C497.527 121.054 497.024 119.324 495.94 117.97C494.855 116.615 493.277 115.747 491.552 115.557L476.274 113.866L426.144 108.312L417.708 107.377C416.02 107.188 414.326 107.664 412.983 108.702C411.64 109.74 410.753 111.26 410.511 112.94C410.268 114.62 410.688 116.329 411.682 117.705C412.676 119.081 414.167 120.017 415.838 120.314V120.314Z" fill="white"/>
<path d="M408.675 141.698C409.194 142.559 409.904 143.288 410.751 143.831C411.597 144.373 412.557 144.712 413.556 144.823L439.495 147.696L485.692 152.814L485.702 152.811L487.179 152.976L494.631 147.156C494.678 146.714 494.678 146.268 494.633 145.826C494.475 144.341 493.816 142.955 492.764 141.896C491.712 140.837 490.329 140.168 488.846 140.002L482.428 139.289L456.971 136.472L438.655 134.44L414.994 131.818C413.782 131.684 412.556 131.891 411.455 132.417C410.354 132.943 409.423 133.767 408.765 134.795C408.108 135.822 407.751 137.013 407.735 138.233C407.72 139.453 408.045 140.653 408.676 141.698L408.675 141.698Z" fill="white"/>
<path d="M445.108 66.7196L458.673 68.2219L464.664 68.8872L473.714 69.8888C475.439 70.0796 477.168 69.5775 478.523 68.4929C479.877 67.4083 480.745 65.8302 480.936 64.1056C481.127 62.381 480.625 60.6513 479.54 59.297C478.455 57.9426 476.877 57.0746 475.153 56.8838L446.553 53.7184C444.829 53.5268 443.1 54.0279 441.745 55.1115C440.391 56.1951 439.522 57.7724 439.33 59.4964C439.139 61.2205 439.64 62.9501 440.723 64.3047C441.807 65.6593 443.384 66.5279 445.108 66.7195V66.7196Z" fill="white"/>
<path d="M334.193 102.932L350.731 171.246L378.332 176.494L403.864 181.355L431.258 186.567L440.011 188.233C440.523 188.33 441.05 188.316 441.557 188.194C442.064 188.071 442.539 187.842 442.95 187.521L449.972 182.037L454.418 178.565L485.97 153.92L465.908 71.0463C465.71 70.2218 465.278 69.4721 464.664 68.8872C464.126 68.3697 463.465 67.9961 462.745 67.8009C462.024 67.6056 461.265 67.595 460.539 67.77L337.47 97.5627C336.324 97.8409 335.335 98.5626 334.721 99.5693C334.106 100.576 333.917 101.785 334.193 102.932V102.932Z" fill="#5581DE" fill-opacity="0.830345"/>
<path d="M372.114 157.278C372.523 158.963 373.585 160.417 375.065 161.32C376.545 162.223 378.324 162.502 380.009 162.096L452.224 144.614C453.909 144.204 455.362 143.142 456.265 141.662C457.168 140.182 457.447 138.404 457.042 136.718C457.023 136.635 457 136.553 456.971 136.472C456.51 134.846 455.438 133.463 453.979 132.611C452.52 131.758 450.788 131.504 449.146 131.9L376.932 149.382C375.247 149.792 373.793 150.853 372.889 152.333C371.986 153.814 371.707 155.592 372.114 157.278Z" fill="white"/>
<path d="M378.332 176.494L403.864 181.355L457.948 168.262C459.634 167.854 461.089 166.793 461.993 165.312C462.896 163.831 463.175 162.052 462.766 160.366C462.358 158.68 461.297 157.225 459.816 156.322C458.336 155.418 456.557 155.14 454.871 155.548L382.656 173.03C381.147 173.392 379.818 174.283 378.909 175.541C378.69 175.842 378.497 176.161 378.332 176.494Z" fill="white"/>
<path d="M431.258 186.567L440.01 188.233C440.523 188.33 441.05 188.316 441.557 188.194C442.064 188.071 442.539 187.842 442.95 187.521L449.972 182.037L431.258 186.567Z" fill="white"/>
<path d="M386.664 120.647C387.074 122.332 388.135 123.786 389.616 124.689C391.096 125.592 392.874 125.871 394.56 125.465L422.531 118.694C424.215 118.283 425.668 117.222 426.572 115.742C427.475 114.261 427.754 112.484 427.349 110.798C427.131 109.892 426.72 109.044 426.144 108.312C425.37 107.322 424.328 106.576 423.141 106.162C421.955 105.749 420.674 105.685 419.453 105.98L391.483 112.751C389.797 113.159 388.342 114.22 387.439 115.701C386.535 117.182 386.257 118.961 386.664 120.647V120.647Z" fill="white"/>
<path d="M403.862 181.354L431.26 186.568L440.01 188.234C440.522 188.33 441.049 188.316 441.555 188.193C442.062 188.071 442.537 187.842 442.948 187.523L449.975 182.037L447.509 182.634L442.304 186.695C442.01 186.923 441.671 187.087 441.309 187.174C440.947 187.262 440.571 187.272 440.205 187.203L433.726 185.971L406.328 180.757L403.862 181.354ZM485.7 152.815L485.966 153.917L487.181 152.972L485.7 152.815ZM403.862 181.354L431.26 186.568L440.01 188.234C440.522 188.33 441.049 188.316 441.555 188.193C442.062 188.071 442.537 187.842 442.948 187.523L449.975 182.037L447.509 182.634L442.304 186.695C442.01 186.923 441.671 187.087 441.309 187.174C440.947 187.262 440.571 187.272 440.205 187.203L433.726 185.971L406.328 180.757L403.862 181.354ZM403.862 181.354L431.26 186.568L440.01 188.234C440.522 188.33 441.049 188.316 441.555 188.193C442.062 188.071 442.537 187.842 442.948 187.523L449.975 182.037L447.509 182.634L442.304 186.695C442.01 186.923 441.671 187.087 441.309 187.174C440.947 187.262 440.571 187.272 440.205 187.203L433.726 185.971L406.328 180.757L403.862 181.354ZM314.599 168.567L345.515 296.278C345.744 297.221 346.339 298.036 347.168 298.541C347.997 299.047 348.993 299.204 349.937 298.976L573.698 244.808C574.641 244.579 575.456 243.984 575.961 243.155C576.467 242.326 576.624 241.33 576.396 240.386L545.48 112.676C545.337 112.08 545.046 111.529 544.634 111.076C544.222 110.622 543.702 110.28 543.122 110.081C542.694 109.93 542.242 109.862 541.788 109.88C541.26 109.895 540.742 110.032 540.274 110.278C540.058 110.381 539.854 110.507 539.667 110.655L521.303 124.995L494.633 145.829L485.698 152.808L485.7 152.815L485.692 152.817L452.926 178.395L447.51 182.634L442.304 186.695C442.01 186.923 441.671 187.086 441.309 187.174C440.947 187.262 440.571 187.272 440.205 187.203L433.726 185.971L406.328 180.757L378.906 175.542L318.844 164.112C318.332 164.01 317.804 164.022 317.297 164.145C316.614 164.312 315.993 164.672 315.509 165.181C315.323 165.381 315.158 165.599 315.016 165.832C314.522 166.654 314.373 167.636 314.599 168.567V168.567ZM403.862 181.354L431.26 186.568L440.01 188.234C440.522 188.33 441.049 188.316 441.555 188.193C442.062 188.071 442.537 187.842 442.948 187.523L449.975 182.037L447.509 182.634L442.304 186.695C442.01 186.923 441.671 187.087 441.309 187.174C440.947 187.262 440.571 187.272 440.205 187.203L433.726 185.971L406.328 180.757L403.862 181.354ZM403.862 181.354L431.26 186.568L440.01 188.234C440.522 188.33 441.049 188.316 441.555 188.193C442.062 188.071 442.537 187.842 442.948 187.523L449.975 182.037L447.509 182.634L442.304 186.695C442.01 186.923 441.671 187.087 441.309 187.174C440.947 187.262 440.571 187.272 440.205 187.203L433.726 185.971L406.328 180.757L403.862 181.354ZM403.862 181.354L431.26 186.568L440.01 188.234C440.522 188.33 441.049 188.316 441.555 188.193C442.062 188.071 442.537 187.842 442.948 187.523L449.975 182.037L447.509 182.634L442.304 186.695C442.01 186.923 441.671 187.087 441.309 187.174C440.947 187.262 440.571 187.272 440.205 187.203L433.726 185.971L406.328 180.757L403.862 181.354Z" fill="white"/>
<path d="M403.862 181.354L431.26 186.568L440.01 188.234C440.522 188.33 441.049 188.316 441.555 188.194C442.062 188.071 442.537 187.842 442.948 187.523L449.975 182.037L447.509 182.634L442.304 186.695C442.01 186.923 441.671 187.087 441.309 187.174C440.947 187.262 440.571 187.272 440.205 187.203L433.726 185.971L406.328 180.757L403.862 181.354ZM485.7 152.815L485.966 153.917L487.181 152.972L485.7 152.815ZM403.862 181.354L431.26 186.568L440.01 188.234C440.522 188.33 441.049 188.316 441.555 188.194C442.062 188.071 442.537 187.842 442.948 187.523L449.975 182.037L447.509 182.634L442.304 186.695C442.01 186.923 441.671 187.087 441.309 187.174C440.947 187.262 440.571 187.272 440.205 187.203L433.726 185.971L406.328 180.757L403.862 181.354ZM403.862 181.354L431.26 186.568L440.01 188.234C440.522 188.33 441.049 188.316 441.555 188.194C442.062 188.071 442.537 187.842 442.948 187.523L449.975 182.037L447.509 182.634L442.304 186.695C442.01 186.923 441.671 187.087 441.309 187.174C440.947 187.262 440.571 187.272 440.205 187.203L433.726 185.971L406.328 180.757L403.862 181.354ZM316.035 165.911L316.17 166.013C316.193 165.976 316.233 165.942 316.263 165.903C316.566 165.588 316.942 165.353 317.359 165.219C317.775 165.085 318.218 165.056 318.648 165.136L378.334 176.49L403.862 181.354L431.26 186.568L440.01 188.234C440.522 188.33 441.049 188.316 441.555 188.193C442.062 188.071 442.537 187.842 442.948 187.523L449.975 182.037L447.509 182.634L442.304 186.695C442.01 186.923 441.671 187.087 441.309 187.174C440.947 187.262 440.571 187.272 440.205 187.203L433.726 185.971L406.328 180.757L378.906 175.542L318.844 164.112C318.332 164.011 317.804 164.022 317.297 164.145L316.035 165.911ZM314.599 168.568L345.515 296.278C345.744 297.221 346.339 298.036 347.168 298.541C347.997 299.047 348.993 299.204 349.937 298.976L573.698 244.808C574.641 244.579 575.456 243.984 575.961 243.155C576.467 242.326 576.624 241.33 576.396 240.386L545.48 112.676C545.337 112.08 545.046 111.529 544.634 111.076C544.222 110.622 543.702 110.28 543.122 110.081C542.694 109.93 542.242 109.862 541.788 109.88C541.26 109.895 540.742 110.032 540.274 110.278C540.058 110.381 539.854 110.507 539.667 110.656L521.303 124.995L494.633 145.829L485.698 152.808L485.7 152.815L485.692 152.817L452.926 178.395L447.51 182.634L442.304 186.695C442.01 186.923 441.671 187.087 441.309 187.174C440.947 187.262 440.571 187.272 440.205 187.203L433.726 185.971L406.328 180.757L378.906 175.542L318.844 164.112C318.332 164.011 317.804 164.022 317.297 164.145C316.614 164.312 315.993 164.672 315.509 165.181C315.323 165.381 315.158 165.599 315.016 165.832C314.522 166.654 314.373 167.636 314.599 168.568V168.568ZM315.618 168.321C315.527 167.944 315.521 167.552 315.601 167.173C315.681 166.794 315.844 166.438 316.08 166.13C316.101 166.085 316.132 166.045 316.17 166.013C316.193 165.976 316.233 165.942 316.263 165.903C316.566 165.588 316.942 165.353 317.359 165.219C317.775 165.085 318.218 165.056 318.648 165.136L378.334 176.49L403.862 181.354L431.26 186.568L440.01 188.234C440.522 188.33 441.049 188.316 441.555 188.194C442.062 188.071 442.537 187.842 442.948 187.523L449.975 182.037L454.419 178.565L485.966 153.917L487.181 152.972L494.628 147.155L521.146 126.445L540.317 111.474C540.609 111.247 540.945 111.084 541.305 110.997C541.405 110.972 541.507 110.956 541.61 110.947C541.699 110.931 541.79 110.922 541.881 110.921C542.188 110.918 542.492 110.968 542.782 111.068C543.195 111.212 543.566 111.457 543.86 111.78C544.155 112.104 544.364 112.496 544.468 112.921L575.384 240.631C575.465 240.966 575.48 241.313 575.427 241.653C575.374 241.994 575.254 242.32 575.075 242.614C574.895 242.908 574.66 243.164 574.381 243.367C574.103 243.57 573.787 243.716 573.453 243.796L349.692 297.964C349.017 298.126 348.305 298.014 347.713 297.651C347.121 297.289 346.697 296.706 346.534 296.031L315.618 168.321ZM403.862 181.354L431.26 186.568L440.01 188.234C440.522 188.33 441.049 188.316 441.555 188.194C442.062 188.071 442.537 187.842 442.948 187.523L449.975 182.037L447.509 182.634L442.304 186.695C442.01 186.923 441.671 187.087 441.309 187.174C440.947 187.262 440.571 187.272 440.205 187.203L433.726 185.971L406.328 180.757L403.862 181.354ZM403.862 181.354L431.26 186.568L440.01 188.234C440.522 188.33 441.049 188.316 441.555 188.194C442.062 188.071 442.537 187.842 442.948 187.523L449.975 182.037L447.509 182.634L442.304 186.695C442.01 186.923 441.671 187.087 441.309 187.174C440.947 187.262 440.571 187.272 440.205 187.203L433.726 185.971L406.328 180.757L403.862 181.354ZM403.862 181.354L431.26 186.568L440.01 188.234C440.522 188.33 441.049 188.316 441.555 188.194C442.062 188.071 442.537 187.842 442.948 187.523L449.975 182.037L447.509 182.634L442.304 186.695C442.01 186.923 441.671 187.087 441.309 187.174C440.947 187.262 440.571 187.272 440.205 187.203L433.726 185.971L406.328 180.757L403.862 181.354Z" fill="#3F3D56"/>
<path d="M515.379 219.717C514.875 217.625 515.221 215.418 516.342 213.58C517.464 211.743 519.268 210.425 521.36 209.916L549.601 203.079C551.691 202.581 553.893 202.932 555.725 204.054C557.557 205.176 558.869 206.979 559.375 209.067C559.88 211.155 559.537 213.358 558.422 215.194C557.306 217.03 555.508 218.349 553.422 218.861L525.18 225.698C523.087 226.202 520.88 225.856 519.043 224.734C517.205 223.613 515.888 221.809 515.379 219.717Z" fill="#5581DE" fill-opacity="0.830345"/>
<path d="M203.277 196C207.143 196 210.277 192.866 210.277 189C210.277 185.134 207.143 182 203.277 182C199.411 182 196.277 185.134 196.277 189C196.277 192.866 199.411 196 203.277 196Z" fill="white"/>
<path d="M384.476 200.247L377.955 198.673L372.784 202.946" stroke="black"/>
<path d="M336.727 221.203C336.722 221.204 336.714 221.206 336.704 221.208C336.121 221.343 335.783 221.21 335.69 220.809C335.645 220.616 335.641 220.366 335.677 220.058C335.713 219.75 335.705 219.45 335.654 219.157C335.601 218.86 335.505 218.409 335.365 217.805L335.037 216.381L334.961 215.982C334.91 215.716 334.871 215.527 334.846 215.415L334.589 214.649C334.548 214.471 334.684 214.346 334.999 214.273C335.319 214.199 335.666 214.21 336.041 214.305C336.416 214.401 336.641 214.439 336.717 214.422C336.798 214.403 336.936 214.318 337.131 214.166C337.331 214.013 337.567 213.843 337.84 213.658C338.116 213.465 338.414 213.333 338.734 213.259L338.932 213.213C339.312 213.125 339.674 213.151 340.016 213.291C340.362 213.425 340.644 213.66 340.86 213.995C341.08 214.323 341.33 214.966 341.61 215.922L341.729 216.336L341.841 216.751C341.913 216.991 341.991 217.251 342.077 217.53C342.163 217.81 342.301 218.093 342.49 218.381C342.678 218.664 342.785 218.858 342.809 218.965C342.913 219.416 342.621 219.722 341.93 219.881C341.636 219.949 341.407 219.941 341.243 219.856C341.078 219.765 340.962 219.578 340.897 219.294L340.847 219.009C340.391 217.035 339.939 215.723 339.489 215.073C339.138 214.571 338.681 214.385 338.118 214.515C337.849 214.577 337.601 214.707 337.374 214.904C337.15 215.094 337.002 215.356 336.929 215.688C336.798 216.279 336.908 217.334 337.259 218.851L337.638 220.215C337.688 220.433 337.625 220.635 337.448 220.82C337.272 221.005 337.032 221.132 336.727 221.203ZM345.341 219.479L345.151 219.523C344.725 219.621 344.479 219.528 344.413 219.244C344.408 219.224 344.651 218.609 345.142 217.4C345.636 216.185 345.865 215.496 345.827 215.333C345.79 215.171 345.336 214.696 344.464 213.908C344.221 213.686 343.908 213.443 343.526 213.179C343.148 212.908 342.944 212.709 342.915 212.582C342.848 212.293 343.178 212.064 343.904 211.897C344.431 211.775 344.832 211.821 345.106 212.036C345.159 212.077 345.235 212.175 345.334 212.328C345.433 212.477 345.598 212.682 345.829 212.944C346.334 213.511 346.663 213.777 346.815 213.742C346.937 213.714 347.126 213.318 347.383 212.553C347.484 212.251 347.549 211.977 347.577 211.73C347.611 211.482 347.638 211.334 347.659 211.286C347.766 211.053 347.982 210.899 348.306 210.824C348.92 210.682 349.253 210.721 349.303 210.939C349.332 211.066 349.098 211.66 348.6 212.721C348.102 213.782 347.883 214.444 347.944 214.708C348.004 214.967 348.524 215.507 349.505 216.328C349.83 216.601 350.16 216.84 350.496 217.046C350.838 217.25 351.026 217.429 351.061 217.581C351.127 217.865 350.739 218.107 349.897 218.306C349.476 218.404 349.144 218.355 348.901 218.16C348.855 218.122 348.767 218.017 348.636 217.844C348.51 217.67 348.366 217.495 348.202 217.319C347.564 216.638 347.184 216.311 347.062 216.339C346.91 216.374 346.699 216.805 346.43 217.632C346.353 217.874 346.295 218.144 346.256 218.441C346.222 218.733 346.198 218.896 346.185 218.931C346.074 219.192 345.793 219.374 345.341 219.479ZM355.627 217.04L355.337 217.107C354.607 217.275 354.009 217.082 353.544 216.527C353.161 216.075 352.835 215.263 352.564 214.091C352.294 212.918 352.045 212.129 351.817 211.722C351.734 211.57 351.564 211.414 351.308 211.254C351.052 211.094 350.906 210.938 350.871 210.785L350.848 210.686C350.818 210.554 350.904 210.382 351.106 210.17C351.308 209.957 351.419 209.814 351.44 209.74C351.464 209.66 351.483 209.396 351.498 208.949C351.516 208.496 351.567 208.171 351.65 207.976C351.737 207.774 351.884 207.649 352.092 207.601C352.306 207.552 352.469 207.578 352.584 207.68C352.703 207.781 352.85 208.011 353.024 208.372C353.203 208.731 353.362 208.967 353.5 209.08C353.637 209.187 353.928 209.267 354.373 209.319C354.818 209.372 355.066 209.507 355.116 209.725C355.161 209.918 354.985 210.14 354.589 210.392C354.198 210.643 353.972 210.893 353.912 211.142C353.799 211.622 353.868 212.411 354.121 213.507C354.374 214.603 354.624 215.254 354.869 215.459C355.113 215.659 355.452 215.739 355.886 215.697C356.325 215.655 356.575 215.765 356.636 216.029C356.683 216.232 356.602 216.435 356.392 216.639C356.186 216.836 355.931 216.97 355.627 217.04ZM357.807 212.664C357.584 212.715 357.443 212.612 357.383 212.353L357.342 212.178C357.264 211.838 357.298 211.624 357.443 211.537C357.588 211.445 358.307 211.25 359.601 210.951L361.088 210.583L361.369 210.518C361.664 210.45 361.841 210.548 361.902 210.812L361.941 210.98C361.947 211.053 361.955 211.11 361.964 211.151C362.023 211.405 361.961 211.577 361.779 211.667C361.6 211.751 360.9 211.934 359.677 212.216L359.334 212.295L359.168 212.342L358.826 212.421L358.599 212.481L357.807 212.664ZM368.248 208.778C368.145 208.331 367.949 207.994 367.662 207.767C367.379 207.538 366.984 207.482 366.476 207.599L366.408 207.615L366.333 207.64C365.806 207.762 365.427 208.114 365.198 208.696C364.973 209.272 364.962 209.999 365.164 210.877L365.245 211.227C365.427 212.014 365.722 212.585 366.13 212.939C366.543 213.293 366.978 213.417 367.434 213.312L367.503 213.296C368.036 213.173 368.407 212.892 368.615 212.454C368.824 212.015 368.849 211.451 368.69 210.761C368.674 210.647 368.66 210.564 368.649 210.514L368.561 210.029L368.36 209.161L368.291 208.929C368.274 208.879 368.26 208.829 368.248 208.778ZM366.37 206.654C366.929 206.525 367.248 206.379 367.328 206.216C367.451 205.963 367.432 205.489 367.272 204.794C367.224 204.586 367.152 204.378 367.056 204.17C366.959 203.958 366.902 203.816 366.885 203.745C366.833 203.516 366.874 203.303 367.011 203.106C367.147 202.909 367.38 202.773 367.71 202.696L367.854 202.663C368.255 202.57 368.528 202.697 368.672 203.044C368.777 203.292 369.129 204.71 369.726 207.298L369.922 208.215L370.215 209.486L370.392 210.183C370.419 210.3 370.446 210.417 370.473 210.533L370.519 210.699C370.55 210.81 370.6 211.012 370.668 211.306C370.734 211.596 370.841 211.87 370.986 212.131C371.136 212.385 371.223 212.568 371.249 212.679C371.275 212.791 371.237 212.915 371.135 213.051C371.032 213.187 370.857 213.283 370.608 213.341C370.365 213.397 370.106 213.422 369.832 213.416C369.562 213.403 369.378 213.408 369.282 213.43C369.185 213.453 368.938 213.587 368.541 213.834C368.149 214.079 367.793 214.239 367.473 214.313L367.306 214.352C366.443 214.551 365.703 214.414 365.086 213.942C364.473 213.463 364.057 212.75 363.838 211.801L363.749 211.412C363.634 210.915 363.598 210.4 363.64 209.866C363.686 209.326 363.819 208.836 364.038 208.395C364.497 207.487 365.274 206.907 366.37 206.654ZM376.188 211.395L376.341 211.36C376.853 211.241 377.222 210.918 377.448 210.39C377.673 209.863 377.707 209.254 377.547 208.563L377.524 208.392L377.472 208.132L377.393 207.789C377.218 207.033 376.92 206.447 376.498 206.032C376.08 205.61 375.614 205.458 375.102 205.576L374.949 205.611C374.447 205.727 374.081 206.074 373.85 206.651C373.625 207.227 373.607 207.926 373.797 208.748L373.917 209.265C373.955 209.385 373.979 209.467 373.99 209.513C374.124 210.092 374.404 210.577 374.832 210.97C375.259 211.363 375.711 211.505 376.188 211.395ZM379.138 207.499L379.196 207.75C379.3 208.202 379.333 208.683 379.296 209.194C379.221 210.232 378.793 211.064 378.012 211.687C377.561 212.048 377.086 212.286 376.589 212.401L376.33 212.461C375.858 212.57 375.397 212.574 374.947 212.475C374.051 212.276 373.368 211.76 372.897 210.928C372.646 210.489 372.465 210.026 372.352 209.538L372.263 209.15C372.152 208.673 372.116 208.179 372.153 207.668C372.224 206.657 372.642 205.85 373.406 205.246C373.798 204.931 374.225 204.72 374.687 204.613L375.068 204.526C375.504 204.425 375.957 204.419 376.427 204.508C377.366 204.687 378.094 205.225 378.611 206.121C378.841 206.517 379.017 206.976 379.138 207.499ZM384.531 209.469L384.684 209.434C385.196 209.315 385.565 208.992 385.791 208.464C386.017 207.936 386.05 207.327 385.89 206.637L385.867 206.466L385.815 206.206L385.736 205.863C385.561 205.107 385.263 204.521 384.841 204.105C384.423 203.683 383.957 203.532 383.445 203.65L383.292 203.685C382.79 203.801 382.424 204.148 382.193 204.725C381.968 205.3 381.951 205.999 382.14 206.822L382.26 207.339C382.298 207.459 382.323 207.541 382.333 207.587C382.467 208.165 382.747 208.651 383.175 209.044C383.602 209.437 384.054 209.579 384.531 209.469ZM387.481 205.573L387.539 205.824C387.643 206.275 387.677 206.757 387.639 207.268C387.564 208.306 387.136 209.137 386.355 209.761C385.904 210.122 385.429 210.36 384.932 210.475L384.673 210.534C384.201 210.643 383.74 210.648 383.29 210.549C382.394 210.35 381.711 209.834 381.241 209.002C380.989 208.563 380.808 208.099 380.695 207.612L380.606 207.224C380.495 206.747 380.459 206.253 380.496 205.742C380.567 204.731 380.985 203.924 381.749 203.32C382.141 203.005 382.568 202.794 383.03 202.687L383.411 202.599C383.847 202.499 384.3 202.493 384.77 202.582C385.709 202.761 386.437 203.299 386.954 204.195C387.184 204.591 387.36 205.05 387.481 205.573ZM392.284 202.275C391.807 202.385 391.491 202.709 391.338 203.247C391.183 203.78 391.218 204.533 391.443 205.508C391.542 205.939 391.631 206.242 391.709 206.417C391.785 206.586 391.89 206.797 392.023 207.05C392.16 207.296 392.251 207.518 392.297 207.716C392.342 207.909 392.266 208.113 392.07 208.33C391.874 208.546 391.588 208.697 391.213 208.784L391.082 208.806L390.945 208.838C390.701 208.894 390.482 208.873 390.288 208.773C390.099 208.672 389.985 208.536 389.945 208.363L389.917 208.241C389.909 208.206 389.918 208.027 389.946 207.706C389.973 207.384 389.962 207.082 389.913 206.799C389.863 206.517 389.784 206.139 389.675 205.667L389.48 204.822L389.441 204.687C389.42 204.596 389.399 204.504 389.378 204.413L389.268 204.005C389.241 203.915 389.198 203.738 389.137 203.474C389.075 203.205 388.968 202.963 388.817 202.747C388.669 202.524 388.587 202.377 388.571 202.306C388.5 202.002 388.732 201.788 389.264 201.665C389.797 201.542 390.216 201.597 390.522 201.832C390.613 201.902 390.696 201.928 390.772 201.91C390.854 201.891 390.971 201.797 391.124 201.628C391.552 201.166 391.939 200.895 392.284 200.816L392.405 200.787C392.71 200.717 392.957 200.732 393.146 200.833C393.34 200.933 393.463 201.097 393.516 201.325C393.62 201.777 393.421 202.06 392.919 202.176C392.714 202.192 392.502 202.224 392.284 202.275Z" fill="black"/>
<path d="M383.704 207.054C382.818 207.434 382.184 207.959 381.585 208.814C381.137 209.454 380.901 209.954 380.679 210.716C380.5 211.348 380.405 211.912 380.389 212.476L380.371 212.914L376.94 213.725L373.502 214.536L373.034 214.807C372.047 215.384 372.252 215.12 366.995 222.696L362.135 229.691L361.989 230.237C361.635 231.517 362.017 232.827 362.985 233.688C363.509 234.151 372.998 239.424 373.622 239.6C374.896 239.95 376.264 239.676 377.359 238.851L377.84 238.493L382.685 231.489C386.324 226.239 387.569 224.397 387.67 224.115C387.741 223.906 387.837 223.492 387.887 223.191L387.966 222.643L387.021 218.463C386.11 214.432 386.067 214.274 385.864 213.941C385.569 213.467 385.123 213.058 384.619 212.795C384.153 212.559 383.199 212.328 383.131 212.439C383.025 212.608 383.142 213.461 383.512 215.237L383.91 217.133L383.798 217.478C383.663 217.871 383.41 218.237 383.057 218.517C382.855 218.678 382.722 218.733 382.219 218.849C381.716 218.965 381.572 218.974 381.32 218.918C380.881 218.821 380.492 218.603 380.199 218.309C379.972 218.072 379.935 217.997 379.821 217.505C379.685 216.916 379.718 216.685 379.997 216.199C380.138 215.95 380.558 215.528 380.696 215.496C380.759 215.481 380.827 215.689 381.004 216.455L381.229 217.433L381.45 217.556C381.761 217.725 382.14 217.644 382.339 217.357L382.478 217.156L382.087 215.319C381.678 213.377 381.625 212.889 381.752 211.944C381.982 210.156 382.877 208.751 384.133 208.19C385.479 207.589 387.174 208.102 388.401 209.481C390.403 211.724 390.764 215.412 389.189 217.601C389.018 217.839 388.789 218.109 388.678 218.201L388.471 218.369L388.619 219.01C388.72 219.445 388.794 219.651 388.838 219.64C388.989 219.606 389.684 218.999 390.001 218.625C392.181 216.037 391.941 211.496 389.476 208.74C388.705 207.87 387.583 207.147 386.608 206.884C385.676 206.635 384.55 206.696 383.704 207.054Z" fill="#9063CA"/>
<path d="M370.325 233.209C370.129 233.091 369.94 233.044 369.758 233.069C369.578 233.091 369.42 233.214 369.286 233.437L369.268 233.467L369.251 233.503C369.112 233.735 369.107 233.993 369.237 234.278C369.366 234.559 369.623 234.815 370.009 235.047L370.163 235.14C370.509 235.348 370.817 235.44 371.086 235.416C371.357 235.391 371.553 235.277 371.673 235.077L371.691 235.046C371.832 234.812 371.86 234.581 371.775 234.354C371.69 234.126 371.495 233.921 371.192 233.739C371.145 233.705 371.111 233.681 371.089 233.668L370.884 233.531L370.502 233.302L370.394 233.246C370.371 233.235 370.348 233.223 370.325 233.209ZM368.909 233.147C369.057 232.901 369.115 232.736 369.084 232.65C369.036 232.518 368.859 232.36 368.553 232.176C368.462 232.122 368.362 232.075 368.254 232.038C368.144 231.999 368.073 231.97 368.042 231.951C367.941 231.891 367.879 231.802 367.856 231.684C367.832 231.567 367.864 231.436 367.951 231.29L367.989 231.227C368.095 231.051 368.235 230.997 368.41 231.065C368.536 231.113 369.168 231.48 370.307 232.164L370.704 232.412L371.263 232.748L371.576 232.926C371.627 232.957 371.678 232.988 371.73 233.019L371.805 233.059C371.856 233.087 371.946 233.139 372.075 233.217C372.202 233.294 372.338 233.351 372.482 233.389C372.626 233.423 372.722 233.455 372.771 233.485C372.82 233.514 372.851 233.571 372.865 233.655C372.878 233.739 372.852 233.836 372.786 233.945C372.722 234.052 372.641 234.154 372.543 234.25C372.445 234.343 372.383 234.411 372.358 234.453C372.332 234.496 372.295 234.631 372.246 234.86C372.198 235.086 372.131 235.27 372.047 235.41L372.003 235.484C371.775 235.864 371.469 236.082 371.084 236.14C370.699 236.194 370.298 236.096 369.881 235.845L369.71 235.743C369.491 235.611 369.293 235.445 369.116 235.244C368.938 235.04 368.808 234.822 368.725 234.59C368.558 234.11 368.619 233.629 368.909 233.147ZM372.598 230.049C372.689 229.898 372.73 229.776 372.72 229.686C372.711 229.595 372.676 229.532 372.616 229.495L372.475 229.411C372.315 229.314 372.146 229.294 371.97 229.349C371.794 229.404 371.664 229.502 371.58 229.643L371.527 229.73C371.405 229.933 371.385 230.162 371.465 230.417C371.544 230.671 371.685 230.859 371.888 230.981L371.945 231.015C372.023 231.062 372.105 231.014 372.191 230.871L372.237 230.794L372.246 230.772L372.38 230.511L372.467 230.335L372.522 230.213C372.532 230.192 372.544 230.163 372.56 230.127C372.577 230.089 372.59 230.063 372.598 230.049ZM374.531 231.398L374.442 231.545C374.174 231.992 373.808 232.259 373.345 232.348C373.138 232.388 372.912 232.38 372.667 232.324C372.419 232.266 372.193 232.176 371.99 232.054L371.839 231.964C371.636 231.841 371.449 231.671 371.276 231.452C370.939 231.028 370.81 230.573 370.888 230.089C370.926 229.838 371.013 229.6 371.148 229.375L371.193 229.301C371.38 228.988 371.63 228.788 371.942 228.698C372.121 228.648 372.305 228.64 372.494 228.675C372.682 228.706 372.837 228.758 372.96 228.832C373.23 228.994 373.356 229.185 373.336 229.404C373.322 229.554 373.215 229.851 373.015 230.296C372.816 230.738 372.71 230.983 372.697 231.03C372.629 231.253 372.658 231.403 372.783 231.478C373 231.608 373.24 231.617 373.504 231.506C373.699 231.425 373.877 231.25 374.039 230.979C374.101 230.877 374.169 230.691 374.242 230.422C374.315 230.153 374.359 230.008 374.372 229.986C374.442 229.869 374.529 229.843 374.634 229.906C374.766 229.985 374.821 230.189 374.801 230.516C374.779 230.841 374.689 231.134 374.531 231.398ZM375.888 228.085L375.951 227.981C376.075 227.773 376.096 227.537 376.013 227.271C375.967 227.125 375.81 226.971 375.542 226.81L375.5 226.781L375.417 226.73C375.249 226.63 375.124 226.649 375.041 226.787L374.977 226.894L374.885 227.076L374.841 227.173C374.718 227.378 374.674 227.582 374.711 227.783C374.746 227.983 374.843 228.131 375.001 228.226L375.118 228.296C375.239 228.369 375.374 228.392 375.523 228.366C375.671 228.337 375.793 228.243 375.888 228.085ZM377.067 226.487C377.216 226.577 377.201 226.772 377.02 227.074C376.987 227.127 376.902 227.209 376.762 227.32C376.622 227.427 376.54 227.5 376.518 227.538C376.496 227.573 376.463 227.717 376.418 227.97C376.37 228.221 376.299 228.424 376.205 228.581L376.159 228.658C376.013 228.901 375.808 229.063 375.543 229.144C375.277 229.224 375.005 229.181 374.728 229.014C374.165 228.676 374.029 228.11 374.318 227.315C374.505 226.797 374.599 226.529 374.602 226.509C374.612 226.367 374.544 226.252 374.399 226.164C374.252 226.076 374.101 226.049 373.946 226.084C373.791 226.115 373.665 226.211 373.568 226.371C373.473 226.53 373.415 226.75 373.394 227.033C373.371 227.313 373.336 227.494 373.287 227.574C373.2 227.72 373.057 227.732 372.858 227.613C372.733 227.538 372.684 227.353 372.709 227.058C372.735 226.761 372.836 226.467 373.012 226.174L373.113 226.007C373.244 225.788 373.402 225.619 373.587 225.499C373.771 225.379 373.961 225.316 374.155 225.311C374.43 225.304 374.922 225.513 375.632 225.939C376.034 226.181 376.289 226.323 376.396 226.367C376.505 226.408 376.628 226.428 376.765 226.428C376.899 226.427 377 226.447 377.067 226.487ZM373.208 223.02C373.031 222.914 373.03 222.716 373.205 222.425L373.241 222.365C373.366 222.158 373.522 222.092 373.71 222.169L374.437 222.605L374.684 222.763L374.808 222.837L375.183 223.077L375.307 223.151L375.372 223.195C375.415 223.22 375.457 223.246 375.499 223.271L375.561 223.313C375.603 223.338 375.646 223.364 375.688 223.389L375.75 223.431L376.065 223.62L376.499 223.867C376.541 223.889 376.643 223.949 376.806 224.047C376.969 224.145 377.156 224.228 377.366 224.297C377.576 224.362 377.756 224.395 377.906 224.393C378.053 224.391 378.165 224.412 378.241 224.458C378.316 224.503 378.355 224.591 378.357 224.719C378.36 224.846 378.309 224.996 378.205 225.17L378.134 225.287C377.945 225.602 377.726 225.684 377.476 225.534C377.458 225.523 377.405 225.479 377.317 225.402C377.23 225.326 377.056 225.208 376.797 225.048L376.008 224.548L375.947 224.506C375.904 224.48 375.862 224.455 375.82 224.429L375.694 224.35C375.652 224.324 375.609 224.299 375.567 224.273L375.505 224.232C375.463 224.206 375.421 224.181 375.378 224.155L375.253 224.075C375.211 224.05 375.168 224.024 375.126 223.999L375.001 223.919L374.87 223.841L374.745 223.761L374.115 223.383C373.861 223.23 373.655 223.137 373.499 223.104C373.343 223.07 373.246 223.042 373.208 223.02ZM377.333 222.509C377.048 222.599 376.772 222.564 376.504 222.403C376.234 222.24 376.083 221.993 376.052 221.662C376.018 221.328 376.108 220.984 376.321 220.629C376.534 220.274 376.733 220.042 376.918 219.931C377.101 219.819 377.262 219.805 377.4 219.888C377.59 220.002 377.648 220.12 377.574 220.243C377.548 220.285 377.435 220.371 377.234 220.499C377.032 220.627 376.88 220.777 376.776 220.949C376.673 221.12 376.634 221.273 376.66 221.407C376.687 221.539 376.762 221.642 376.885 221.716C377.008 221.789 377.167 221.773 377.362 221.665C377.429 221.629 377.616 221.495 377.922 221.263C378.228 221.028 378.473 220.88 378.658 220.821C378.946 220.73 379.228 220.767 379.502 220.932C379.777 221.097 379.939 221.351 379.988 221.694C380.037 222.033 379.952 222.383 379.735 222.744C379.366 223.358 379.018 223.667 378.691 223.671C378.587 223.672 378.505 223.655 378.447 223.621C378.253 223.504 378.192 223.385 378.265 223.265C378.286 223.229 378.425 223.135 378.681 222.982C378.936 222.825 379.117 222.659 379.223 222.482C379.33 222.304 379.376 222.14 379.362 221.992C379.348 221.844 379.276 221.731 379.147 221.653C379.015 221.574 378.846 221.583 378.638 221.68C378.553 221.72 378.36 221.855 378.059 222.084C377.755 222.311 377.513 222.453 377.333 222.509Z" fill="white"/>
</g>
<defs>
<clipPath id="clip0">
<rect width="576.499" height="493.5" fill="white"/>
</clipPath>
</defs>
</svg>
