<svg width="1050" height="867" viewBox="0 0 1050 867" fill="none" xmlns="http://www.w3.org/2000/svg">
<path opacity="0.3" fill-rule="evenodd" clip-rule="evenodd" d="M514.51 0.428452C595.983 -6.03368 656.439 62.2082 726.556 96.8186C791.081 128.669 849.093 164.624 913.096 197.175C1004.99 243.911 1041.99 269.922 1049.44 358.345C1057.63 455.5 973.731 443.797 941.772 537.595C912.156 624.514 1077.06 713.11 1030.45 794.867C989.099 867.378 852.055 869.456 754.482 866.054C665.618 862.956 602.034 789.857 514.51 776.881C446.887 766.855 381.404 806.003 313 800.601C230.761 794.107 138.165 789.519 78.7508 742.468C19.7499 695.745 9.24198 620.605 1.20599 553.69C-6.37242 490.584 23.8533 430.636 33.7501 367.746C44.6391 298.551 2.97226 212.093 62.776 162.439C124.854 110.897 240.395 157.992 321.351 128.958C398.296 101.363 430.911 7.05931 514.51 0.428452Z" fill="#6FB6EA"/>
<path d="M114.555 357.2C115.447 413.363 136.032 419.443 161.312 413.586C190.192 406.894 213.895 385.92 225.578 358.169L233.635 339.031C238.991 326.308 239.171 311.936 234.136 299.077C229.101 286.219 219.262 275.926 206.785 270.464H206.785C200.606 267.76 193.966 266.323 187.244 266.235C180.521 266.147 173.847 267.411 167.603 269.953C161.359 272.495 155.667 276.267 150.853 281.052C146.038 285.838 142.195 291.543 139.543 297.843C113.617 308.228 108.497 329.728 114.555 357.2Z" fill="#2F2E41"/>
<path d="M277.108 244.162L284.868 230.773C285.815 229.138 286.387 227.305 286.541 225.413C286.695 223.52 286.426 221.617 285.756 219.845C285.085 218.073 284.03 216.479 282.669 215.183C281.308 213.887 279.677 212.921 277.898 212.36C276.02 211.767 274.03 211.64 272.095 211.99C270.159 212.34 268.334 213.157 266.771 214.372C265.207 215.587 263.952 217.166 263.108 218.976C262.264 220.787 261.857 222.777 261.921 224.78L262.377 239.172L225.912 341.074L245.797 345.307L277.108 244.162Z" fill="#9F616A"/>
<path d="M85.2685 495.367L75.7179 507.491C74.5516 508.972 73.7293 510.703 73.3127 512.554C72.896 514.405 72.8958 516.328 73.312 518.179C73.7283 520.03 74.5502 521.761 75.7162 523.242C76.8821 524.723 78.3618 525.915 80.0442 526.729C81.8199 527.589 83.7714 528.004 85.7361 527.938C87.7008 527.873 89.6217 527.33 91.3388 526.354C93.0559 525.378 94.5194 523.998 95.6073 522.329C96.6952 520.659 97.3761 518.749 97.5932 516.757L99.1526 502.445L149.482 406.881L130.392 399.802L85.2685 495.367Z" fill="#9F616A"/>
<path d="M144.276 596.24L145.682 613.46L146.011 617.477L239.486 608.31C242.708 607.939 245.799 606.799 248.507 604.982C251.216 603.164 253.466 600.72 255.074 597.849C256.682 594.978 257.603 591.761 257.763 588.459C257.922 585.156 257.315 581.862 255.991 578.844L225.845 512.851L215.432 490.057L170.309 479.439C133.099 508.48 166.577 540.53 208.698 572.951C210.347 574.225 212.013 575.499 213.696 576.773L144.276 596.24Z" fill="#2F2E41"/>
<path d="M112.779 655.868C113.918 656.033 115.08 655.898 116.153 655.475C117.225 655.051 118.174 654.354 118.906 653.45L149.482 615.707L147.747 598.01L137.321 591.632C136.469 591.11 135.515 590.784 134.526 590.676C133.537 590.568 132.537 590.681 131.595 591.007C130.653 591.333 129.792 591.864 129.072 592.563C128.352 593.263 127.79 594.113 127.425 595.057L107.482 646.574C107.109 647.536 106.956 648.572 107.032 649.603C107.108 650.635 107.413 651.635 107.922 652.529C108.432 653.424 109.134 654.189 109.975 654.767C110.816 655.345 111.775 655.721 112.779 655.868Z" fill="#2F2E41"/>
<path opacity="0.2" d="M139.069 592.701L140.805 613.938L145.682 613.46L234.279 604.77C237.502 604.4 240.592 603.26 243.301 601.442C246.009 599.625 248.259 597.181 249.867 594.31C251.476 591.439 252.397 588.221 252.556 584.919C252.715 581.617 252.108 578.323 250.784 575.305L225.845 518.373V512.851L215.432 490.057L170.309 479.439C133.099 508.48 166.577 540.53 208.698 572.951L208.49 573.234L139.069 592.701Z" fill="black"/>
<path d="M104.101 648.789C105.24 648.955 106.402 648.819 107.475 648.396C108.548 647.973 109.496 647.275 110.229 646.371L140.805 608.628L139.069 590.931L128.644 584.553C127.791 584.031 126.837 583.705 125.848 583.597C124.859 583.489 123.859 583.602 122.917 583.928C121.976 584.254 121.115 584.785 120.395 585.484C119.674 586.184 119.112 587.035 118.747 587.978L98.8044 639.495C98.4319 640.457 98.2781 641.493 98.3543 642.524C98.4306 643.556 98.735 644.556 99.2448 645.45C99.7545 646.345 100.456 647.11 101.297 647.688C102.139 648.266 103.097 648.642 104.101 648.789Z" fill="#2F2E41"/>
<path d="M135.598 589.161L137.334 610.398L230.808 601.228C234.03 600.858 237.121 599.718 239.83 597.901C242.538 596.084 244.788 593.641 246.397 590.771C248.006 587.9 248.928 584.683 249.088 581.381C249.249 578.079 248.643 574.785 247.32 571.767L222.374 514.833V482.979L161.631 472.36C122.957 502.541 160.639 535.975 205.019 569.695L135.598 589.161Z" fill="#2F2E41"/>
<path d="M194.606 339.632C208.983 339.632 220.638 327.747 220.638 313.086C220.638 298.425 208.983 286.54 194.606 286.54C180.228 286.54 168.573 298.425 168.573 313.086C168.573 327.747 180.228 339.632 194.606 339.632Z" fill="#9F616A"/>
<path d="M159.896 357.329L196.341 382.105L227.58 375.026L210.225 357.329V330.783L182.457 329.013C181.874 339.614 175.917 349.314 159.896 357.329Z" fill="#9F616A"/>
<path d="M154.689 481.209L222.374 490.057L237.994 415.729C245.25 396 241.086 378.568 227.652 363.002C227.138 360.383 225.769 358.018 223.769 356.293C221.768 354.568 219.254 353.585 216.635 353.505L210.225 353.789C210.95 377.26 193.992 371.607 168.573 352.019L165.504 352.958C161.536 354.172 158.129 356.802 155.907 360.368C153.685 363.933 152.797 368.195 153.404 372.373L156.202 391.637C157.389 399.275 159.233 406.791 161.712 414.098C168.651 435.246 166.171 457.635 154.689 481.209Z" fill="#6C63FF"/>
<path d="M123.45 401.571L154.689 412.19L168.573 360.868L163.869 358.688C159.97 356.88 155.542 356.653 151.484 358.053C147.426 359.453 144.042 362.374 142.02 366.224L123.45 401.571Z" fill="#6C63FF"/>
<path d="M215.432 353.789L232.787 373.256L253.613 339.631L227.58 325.474L215.432 353.789Z" fill="#6C63FF"/>
<path d="M164.234 305.122C180.593 311.412 198.052 310.76 216.3 305.122V283.885H164.234V305.122Z" fill="#2F2E41"/>
<path d="M976.152 669.669L958.204 677.294L838.557 511.061L751.812 680.345L729.379 675.77L795.185 442.433H871.46L976.152 669.669Z" fill="#2F2E41"/>
<path d="M1000.23 708.448C999.235 708.724 998.196 708.798 997.173 708.663C996.15 708.529 995.164 708.19 994.27 707.665L956.421 685.443C955.399 684.844 954.526 684.012 953.871 683.013C953.215 682.014 952.793 680.875 952.639 679.683C952.484 678.491 952.601 677.279 952.979 676.141C953.358 675.003 953.988 673.968 954.822 673.118L958.205 669.669L976.152 668.144L1003.59 695.002C1004.59 695.978 1005.31 697.208 1005.69 698.564C1006.07 699.92 1006.09 701.355 1005.75 702.722C1005.41 704.089 1004.72 705.339 1003.75 706.345C1002.78 707.351 1001.56 708.076 1000.23 708.448Z" fill="#2F2E41"/>
<path d="M706.796 714.548C707.791 714.825 708.83 714.898 709.853 714.764C710.876 714.629 711.862 714.29 712.756 713.765L750.606 691.544C751.627 690.944 752.5 690.112 753.155 689.113C753.811 688.115 754.233 686.975 754.387 685.783C754.542 684.592 754.425 683.38 754.047 682.241C753.668 681.103 753.038 680.069 752.204 679.219L748.821 675.769L730.874 674.244L703.438 701.102C702.44 702.079 701.714 703.308 701.334 704.664C700.955 706.021 700.934 707.456 701.276 708.823C701.617 710.189 702.308 711.44 703.278 712.446C704.248 713.451 705.462 714.177 706.796 714.548Z" fill="#2F2E41"/>
<path d="M744.335 199.947L736.857 204.523L721.36 178.844C720.408 177.267 719.842 175.48 719.71 173.633C719.578 171.786 719.883 169.934 720.6 168.232C721.317 166.531 722.424 165.03 723.829 163.857C725.234 162.684 726.895 161.872 728.672 161.491C730.252 161.151 731.885 161.161 733.461 161.518C735.038 161.875 736.521 162.571 737.811 163.561C739.102 164.55 740.17 165.81 740.944 167.255C741.719 168.699 742.181 170.296 742.3 171.938L744.335 199.947Z" fill="#9F616A"/>
<path d="M951.484 399.866L954.587 391.555L982.337 401.965C984.041 402.604 985.57 403.652 986.794 405.02C988.018 406.388 988.901 408.036 989.369 409.825C989.838 411.614 989.877 413.492 989.485 415.3C989.092 417.108 988.279 418.793 987.114 420.213C986.078 421.476 984.789 422.499 983.333 423.212C981.878 423.925 980.29 424.313 978.676 424.349C977.062 424.385 975.458 424.069 973.974 423.422C972.489 422.774 971.157 421.811 970.068 420.595L951.484 399.866Z" fill="#9F616A"/>
<path d="M834.07 291.452C846.46 291.452 856.504 281.21 856.504 268.576C856.504 255.941 846.46 245.699 834.07 245.699C821.68 245.699 811.636 255.941 811.636 268.576C811.636 281.21 821.68 291.452 834.07 291.452Z" fill="#9F616A"/>
<path d="M853.513 317.377H822.105V282.301L849.026 279.251L853.513 317.377Z" fill="#9F616A"/>
<path d="M875.947 451.584H790.698C793.704 403.081 796.084 356.209 790.698 329.578L795.655 305.316C796.342 301.954 798.244 298.979 800.984 296.983C803.724 294.986 807.1 294.114 810.441 294.54L822.105 296.027C830.005 310.187 839.551 310.051 850.522 297.552H864.571C866.445 297.552 868.299 297.933 870.026 298.672C871.753 299.412 873.318 300.496 874.629 301.859C875.94 303.223 876.972 304.84 877.663 306.616C878.354 308.391 878.691 310.289 878.654 312.199C882.314 329.287 883.531 346.825 882.268 364.269L875.947 451.584Z" fill="#3F3D56"/>
<path d="M732.369 199.947L744.334 193.847L808.645 302.127L790.698 329.578L732.369 199.947Z" fill="#3F3D56"/>
<path d="M951.654 404.205L961.879 395.41L907.548 317.777C902.232 310.182 894.905 304.288 886.423 300.787C877.941 297.285 868.657 296.32 859.657 298.005L857.943 298.326L878.487 334.987L905.546 355.878L951.654 404.205Z" fill="#3F3D56"/>
<path d="M860.015 255.071C860.015 255.071 864.207 245.667 853.308 241.392C853.308 241.392 844.085 226.004 825.64 236.263C825.64 236.263 813.064 241.392 813.064 255.071C813.064 268.75 808.872 271.315 808.872 271.315C808.872 271.315 815.115 264.784 816.792 259.655C818.469 254.525 831.509 253.361 836.54 258.491C841.57 263.621 854.146 262.766 854.146 262.766L853.308 281.574C853.308 281.574 857.5 270.46 859.177 270.46C860.854 270.46 862.53 255.071 860.015 255.071Z" fill="#2F2E41"/>
<path d="M841.268 751.581C917.079 751.581 978.535 748.317 978.535 744.29C978.535 740.264 917.079 737 841.268 737C765.457 737 704 740.264 704 744.29C704 748.317 765.457 751.581 841.268 751.581Z" fill="#6C6175"/>
<path d="M213.556 751.707C253.627 751.707 286.112 749.982 286.112 747.853C286.112 745.725 253.627 744 213.556 744C173.484 744 141 745.725 141 747.853C141 749.982 173.484 751.707 213.556 751.707Z" fill="#6C6175"/>
<path d="M726.935 230.263L285.846 270.574C283.68 270.769 281.527 270.081 279.858 268.659C278.19 267.238 277.142 265.199 276.946 262.991L267.139 151.419C266.948 149.211 267.623 147.015 269.017 145.314C270.411 143.612 272.41 142.544 274.576 142.344L715.665 102.033C717.83 101.837 719.984 102.526 721.652 103.947C723.321 105.369 724.368 107.407 724.565 109.615L734.371 221.187C734.563 223.396 733.887 225.591 732.493 227.293C731.099 228.994 729.1 230.062 726.935 230.263Z" fill="#BEBBF2"/>
<path d="M213.648 332.592C201.831 336.428 189.44 336.272 176.542 332.592C180.295 327.593 174.685 323.677 171.805 318.63L219.963 317.513C216.281 321.898 210.847 327.078 213.648 332.592Z" fill="white"/>
<path d="M219.453 318.348L218.894 317.912L219.684 317.296L224.4 313L225 313.4L220.263 317.714L219.453 318.348Z" fill="white"/>
<path d="M168.506 315.737L168 316.21L172.737 319.291L173.242 318.817L168.506 315.737Z" fill="white"/>
<path d="M220.814 321.97L212.522 332.135L213.189 332.466L221.48 322.301L220.814 321.97Z" fill="white"/>
<path d="M169.375 321.969L168.709 322.3L176.998 332.467L177.665 332.136L169.375 321.969Z" fill="white"/>
<path d="M518.623 156.003L517.929 149.171L480.116 153.287L480.159 153.714L480.809 160.119L486.404 215.2L487.098 222.032L494.661 221.209L524.911 217.916L524.218 211.084L493.967 214.377L488.372 159.295L518.623 156.003Z" fill="#2E26B1"/>
<path d="M536.198 147.276L543.18 216.021L580.994 211.905L574.012 143.161L536.198 147.276ZM572.737 205.897L550.049 208.366L544.455 153.285L567.143 150.816L572.737 205.897Z" fill="#6C63FF"/>
<path d="M437.884 220.387L431.64 158.902L424.077 159.725L430.322 221.21L431.015 228.042L438.578 227.219L468.829 223.927L468.135 217.095L437.884 220.387Z" fill="#6C63FF"/>
<path d="M407.872 167.873L407.178 161.041L369.364 165.157L369.407 165.584L370.058 171.988L372.486 195.9L373.18 202.732L375.652 227.07L376.346 233.902L383.909 233.078L414.16 229.786L413.466 222.954L383.215 226.247L380.743 201.908L410.994 198.616L410.3 191.784L380.049 195.077L377.621 171.165L407.872 167.873Z" fill="#2E26B1"/>
<path d="M702.895 136.254L702.201 129.422L664.387 133.537L664.43 133.965L665.081 140.369L667.509 164.28L668.203 171.112L670.675 195.45L671.369 202.282L678.932 201.459L709.183 198.167L708.489 191.335L678.238 194.627L675.766 170.289L706.017 166.997L705.323 160.165L675.072 163.457L672.644 139.546L702.895 136.254Z" fill="#6C63FF"/>
<path d="M344.059 168.251L349.789 224.688L328.038 208.853L327.996 208.899L327.95 208.866L309.451 229.489L303.658 172.434L296.102 173.257L303.035 241.543L310.591 240.72L310.431 239.146L328.972 218.476L350.77 234.345L350.992 236.537L358.549 235.714L351.616 167.429L344.059 168.251Z" fill="#2E26B1"/>
<path d="M639.554 136.582L639.713 138.155L621.172 158.825L599.375 142.956L599.152 140.765L591.596 141.588L598.528 209.873L606.085 209.05L600.355 152.613L622.107 168.449L622.148 168.402L622.194 168.435L640.694 147.812L646.487 204.867L654.043 204.044L647.11 135.759L639.554 136.582Z" fill="#2E26B1"/>
<path d="M845.635 283.592C836.928 287.428 827.798 287.272 818.294 283.592C821.06 278.593 816.926 274.677 814.804 269.63L850.289 268.513C847.575 272.898 843.571 278.078 845.635 283.592Z" fill="#B7B9E6"/>
<path d="M849.913 269.348L849.501 268.912L850.083 268.296L853.558 264L854 264.4L850.51 268.714L849.913 269.348Z" fill="#B7B9E6"/>
<path d="M812.373 266.737L812 267.21L815.49 270.291L815.863 269.817L812.373 266.737Z" fill="#B7B9E6"/>
<path d="M850.916 272.97L844.806 283.135L845.297 283.466L851.406 273.301L850.916 272.97Z" fill="#B7B9E6"/>
<path d="M813.013 272.969L812.522 273.3L818.63 283.467L819.121 283.136L813.013 272.969Z" fill="#B7B9E6"/>
</svg>
