<svg width="1440" height="1024" viewBox="0 0 1440 1024" fill="none" xmlns="http://www.w3.org/2000/svg">
<rect width="1440" height="1024" rx="5" fill="#FAF5FF"/>
<path fill-rule="evenodd" clip-rule="evenodd" d="M0 20.8864L60 23.6713C120 26.4562 240 32.0259 360 29.241C480 26.4562 600 15.3167 720 14.6205C840 13.9243 960 23.6713 1080 25.7599C1200 27.8486 1320 22.2789 1380 19.494L1440 16.7091V7.55797e-07H1380C1320 7.55797e-07 1200 7.55797e-07 1080 7.55797e-07C960 7.55797e-07 840 7.55797e-07 720 7.55797e-07C600 7.55797e-07 480 7.55797e-07 360 7.55797e-07C240 7.55797e-07 120 7.55797e-07 60 7.55797e-07H0V20.8864Z" fill="white"/>
</svg>
