<svg width="1440" height="1024" viewBox="0 0 1440 1024" fill="none" xmlns="http://www.w3.org/2000/svg">
<rect width="1440" height="1024" rx="5" fill="#FAF5FF"/>
<path fill-rule="evenodd" clip-rule="evenodd" d="M0 80.0647L60 90.74C120 101.415 240 122.766 360 112.091C480 101.415 600 58.7141 720 56.0453C840 53.3764 960 90.74 1080 98.7464C1200 106.753 1320 85.4023 1380 74.727L1440 64.0517V3.53932e-06H1380C1320 3.53932e-06 1200 3.53932e-06 1080 3.53932e-06C960 3.53932e-06 840 3.53932e-06 720 3.53932e-06C600 3.53932e-06 480 3.53932e-06 360 3.53932e-06C240 3.53932e-06 120 3.53932e-06 60 3.53932e-06H0V80.0647Z" fill="white"/>
</svg>
