<svg width="982" height="265" viewBox="0 0 982 265" fill="none" xmlns="http://www.w3.org/2000/svg">
<rect width="982" height="265" fill="white"/>
<rect width="981" height="230" fill="#C7B1E2"/>
<path opacity="0.2" d="M107.696 1.922H60.594C58.6633 1.922 57.0982 3.40495 57.0982 5.23426V17.8298C57.0982 19.6591 58.6633 21.1421 60.594 21.1421H107.696C109.627 21.1421 111.192 19.6591 111.192 17.8298V5.23426C111.192 3.40495 109.627 1.922 107.696 1.922Z" fill="#EFE4F4"/>
<path opacity="0.2" d="M137.489 21.6743H90.3863C88.4556 21.6743 86.8905 23.1573 86.8905 24.9866V37.5821C86.8905 39.4114 88.4556 40.8944 90.3863 40.8944H137.489C139.419 40.8944 140.985 39.4114 140.985 37.5821V24.9866C140.985 23.1573 139.419 21.6743 137.489 21.6743Z" fill="#EFE4F4"/>
<path opacity="0.1" d="M349.121 15.376H302.019C300.088 15.376 298.523 16.8589 298.523 18.6882V31.2838C298.523 33.1131 300.088 34.596 302.019 34.596H349.121C351.052 34.596 352.617 33.1131 352.617 31.2838V18.6882C352.617 16.8589 351.052 15.376 349.121 15.376Z" fill="#1E0728"/>
<path opacity="0.1" d="M373.464 39.0808H326.361C324.431 39.0808 322.866 40.5638 322.866 42.3931V54.9886C322.866 56.8179 324.431 58.3009 326.361 58.3009H373.464C375.395 58.3009 376.96 56.8179 376.96 54.9886V42.3931C376.96 40.5638 375.395 39.0808 373.464 39.0808Z" fill="#1E0728"/>
<path opacity="0.2" d="M107.142 41.4266H60.0396C58.1089 41.4266 56.5438 42.9096 56.5438 44.7389V57.3344C56.5438 59.1637 58.1089 60.6467 60.0396 60.6467H107.142C109.073 60.6467 110.638 59.1637 110.638 57.3344V44.7389C110.638 42.9096 109.073 41.4266 107.142 41.4266Z" fill="#EFE4F4"/>
<path opacity="0.1" d="M148.974 131.337H101.871C99.9405 131.337 98.3754 132.82 98.3754 134.649V147.245C98.3754 149.074 99.9405 150.557 101.871 150.557H148.974C150.904 150.557 152.469 149.074 152.469 147.245V134.649C152.469 132.82 150.904 131.337 148.974 131.337Z" fill="#1E0728"/>
<path opacity="0.1" d="M173.316 152.479H126.213C124.283 152.479 122.718 153.962 122.718 155.791V168.387C122.718 170.216 124.283 171.699 126.213 171.699H173.316C175.247 171.699 176.812 170.216 176.812 168.387V155.791C176.812 153.962 175.247 152.479 173.316 152.479Z" fill="#1E0728"/>
<path opacity="0.1" d="M132.069 173.621H84.9668C83.0361 173.621 81.4709 175.104 81.4709 176.933V189.529C81.4709 191.358 83.0361 192.841 84.9668 192.841H132.069C134 192.841 135.565 191.358 135.565 189.529V176.933C135.565 175.104 134 173.621 132.069 173.621Z" fill="#1E0728"/>
<path opacity="0.1" d="M366.702 182.852H319.6C317.669 182.852 316.104 184.335 316.104 186.164V198.76C316.104 200.589 317.669 202.072 319.6 202.072H366.702C368.633 202.072 370.198 200.589 370.198 198.76V186.164C370.198 184.335 368.633 182.852 366.702 182.852Z" fill="#1E0728"/>
<path opacity="0.1" d="M325.455 206.295H278.353C276.422 206.295 274.857 207.778 274.857 209.608V222.203C274.857 224.032 276.422 225.515 278.353 225.515H325.455C327.386 225.515 328.951 224.032 328.951 222.203V209.608C328.951 207.778 327.386 206.295 325.455 206.295Z" fill="#1E0728"/>
<path opacity="0.2" d="M52.5151 1.922H5.41277C3.48208 1.922 1.91693 3.40495 1.91693 5.23426V17.8298C1.91693 19.6591 3.48208 21.1421 5.41277 21.1421H52.5151C54.4458 21.1421 56.011 19.6591 56.011 17.8298V5.23426C56.011 3.40495 54.4458 1.922 52.5151 1.922Z" fill="#EFE4F4"/>
<path opacity="0.2" d="M82.9887 21.6743H35.8863C33.9556 21.6743 32.3905 23.1573 32.3905 24.9866V37.5821C32.3905 39.4114 33.9556 40.8944 35.8863 40.8944H82.9887C84.9194 40.8944 86.4846 39.4114 86.4846 37.5821V24.9866C86.4846 23.1573 84.9194 21.6743 82.9887 21.6743Z" fill="#EFE4F4"/>
<path opacity="0.1" d="M622.167 34.7432H575.065C573.134 34.7432 571.569 36.2261 571.569 38.0554V50.651C571.569 52.4803 573.134 53.9632 575.065 53.9632H622.167C624.098 53.9632 625.663 52.4803 625.663 50.651V38.0554C625.663 36.2261 624.098 34.7432 622.167 34.7432Z" fill="#1E0728"/>
<path opacity="0.1" d="M675.986 103.788H628.883C626.953 103.788 625.388 105.271 625.388 107.101V119.696C625.388 121.525 626.953 123.008 628.883 123.008H675.986C677.916 123.008 679.482 121.525 679.482 119.696V107.101C679.482 105.271 677.916 103.788 675.986 103.788Z" fill="#1E0728"/>
<path opacity="0.2" d="M52.642 41.4266H5.53959C3.6089 41.4266 2.04376 42.9096 2.04376 44.7389V57.3344C2.04376 59.1637 3.6089 60.6467 5.53959 60.6467H52.642C54.5727 60.6467 56.1378 59.1637 56.1378 57.3344V44.7389C56.1378 42.9096 54.5727 41.4266 52.642 41.4266Z" fill="#EFE4F4"/>
<path opacity="0.1" d="M946.755 84.5682H899.653C897.722 84.5682 896.157 86.0512 896.157 87.8805V100.476C896.157 102.305 897.722 103.788 899.653 103.788H946.755C948.686 103.788 950.251 102.305 950.251 100.476V87.8805C950.251 86.0512 948.686 84.5682 946.755 84.5682Z" fill="#1E0728"/>
<path opacity="0.1" d="M958.023 41.6919H910.921C908.99 41.6919 907.425 43.1749 907.425 45.0042V57.5997C907.425 59.429 908.99 60.9119 910.921 60.9119H958.023C959.954 60.9119 961.519 59.429 961.519 57.5997V45.0042C961.519 43.1749 959.954 41.6919 958.023 41.6919Z" fill="#1E0728"/>
<path opacity="0.1" d="M524.067 65.9889H476.965C475.034 65.9889 473.469 67.4718 473.469 69.3012V81.8967C473.469 83.726 475.034 85.2089 476.965 85.2089H524.067C525.998 85.2089 527.563 83.726 527.563 81.8967V69.3012C527.563 67.4718 525.998 65.9889 524.067 65.9889Z" fill="#1E0728"/>
<path opacity="0.1" d="M523.478 152.479H476.376C474.445 152.479 472.88 153.962 472.88 155.791V168.387C472.88 170.216 474.445 171.699 476.376 171.699H523.478C525.409 171.699 526.974 170.216 526.974 168.387V155.791C526.974 153.962 525.409 152.479 523.478 152.479Z" fill="#1E0728"/>
<path opacity="0.1" d="M482.232 173.621H435.129C433.199 173.621 431.633 175.104 431.633 176.933V189.529C431.633 191.358 433.199 192.841 435.129 192.841H482.232C484.162 192.841 485.727 191.358 485.727 189.529V176.933C485.727 175.104 484.162 173.621 482.232 173.621Z" fill="#1E0728"/>
<path opacity="0.1" d="M819.048 39.0808H771.946C770.015 39.0808 768.45 40.5637 768.45 42.3931V54.9886C768.45 56.8179 770.015 58.3009 771.946 58.3009H819.048C820.979 58.3009 822.544 56.8179 822.544 54.9886V42.3931C822.544 40.5637 820.979 39.0808 819.048 39.0808Z" fill="#1E0728"/>
<path opacity="0.1" d="M719.218 176.416H672.115C670.185 176.416 668.62 177.899 668.62 179.728V192.324C668.62 194.153 670.185 195.636 672.115 195.636H719.218C721.149 195.636 722.714 194.153 722.714 192.324V179.728C722.714 177.899 721.149 176.416 719.218 176.416Z" fill="#1E0728"/>
<path opacity="0.1" d="M849.578 145.432H802.475C800.545 145.432 798.979 146.915 798.979 148.744V161.34C798.979 163.169 800.545 164.652 802.475 164.652H849.578C851.508 164.652 853.073 163.169 853.073 161.34V148.744C853.073 146.915 851.508 145.432 849.578 145.432Z" fill="#1E0728"/>
<path opacity="0.1" d="M873.92 166.574H826.818C824.887 166.574 823.322 168.057 823.322 169.886V182.482C823.322 184.311 824.887 185.794 826.818 185.794H873.92C875.851 185.794 877.416 184.311 877.416 182.482V169.886C877.416 168.057 875.851 166.574 873.92 166.574Z" fill="#1E0728"/>
<path opacity="0.1" d="M832.673 187.716H785.571C783.64 187.716 782.075 189.199 782.075 191.028V203.624C782.075 205.453 783.64 206.936 785.571 206.936H832.673C834.604 206.936 836.169 205.453 836.169 203.624V191.028C836.169 189.199 834.604 187.716 832.673 187.716Z" fill="#1E0728"/>
<path opacity="0.2" d="M30.0816 21.6743H3.9809C2.91105 21.6743 2.04376 23.1573 2.04376 24.9866V37.5821C2.04376 39.4114 2.91105 40.8944 3.9809 40.8944H30.0816C31.1515 40.8944 32.0188 39.4114 32.0188 37.5821V24.9866C32.0188 23.1573 31.1515 21.6743 30.0816 21.6743Z" fill="#EFE4F4"/>
<path opacity="0.2" d="M64.2232 61.1481H17.1208C15.1901 61.1481 13.625 62.631 13.625 64.4603V77.0559C13.625 78.8852 15.1901 80.3681 17.1208 80.3681H64.2232C66.1539 80.3681 67.7191 78.8852 67.7191 77.0559V64.4603C67.7191 62.631 66.1539 61.1481 64.2232 61.1481Z" fill="#EFE4F4"/>
<path opacity="0.2" d="M119.095 61.2815H71.9925C70.0618 61.2815 68.4967 62.7645 68.4967 64.5938V77.1893C68.4967 79.0186 70.0618 80.5016 71.9925 80.5016H119.095C121.026 80.5016 122.591 79.0186 122.591 77.1893V64.5938C122.591 62.7645 121.026 61.2815 119.095 61.2815Z" fill="#EFE4F4"/>
<path opacity="0.2" d="M228.404 187.613H181.302C179.371 187.613 177.806 189.096 177.806 190.926V203.521C177.806 205.35 179.371 206.833 181.302 206.833H228.404C230.335 206.833 231.9 205.35 231.9 203.521V190.926C231.9 189.096 230.335 187.613 228.404 187.613Z" fill="#EFE4F4"/>
<path opacity="0.2" d="M414.386 11.1178H367.283C365.353 11.1178 363.788 12.6008 363.788 14.4301V27.0256C363.788 28.8549 365.353 30.3379 367.283 30.3379H414.386C416.316 30.3379 417.882 28.8549 417.882 27.0256V14.4301C417.882 12.6008 416.316 11.1178 414.386 11.1178Z" fill="#EFE4F4"/>
<path opacity="0.2" d="M246.117 34.7432H199.015C197.084 34.7432 195.519 36.2261 195.519 38.0554V50.651C195.519 52.4803 197.084 53.9632 199.015 53.9632H246.117C248.048 53.9632 249.613 52.4803 249.613 50.651V38.0554C249.613 36.2261 248.048 34.7432 246.117 34.7432Z" fill="#EFE4F4"/>
<path opacity="0.2" d="M973.692 206.375H926.59C924.659 206.375 923.094 207.858 923.094 209.687V222.282C923.094 224.112 924.659 225.595 926.59 225.595H973.692C975.623 225.595 977.188 224.112 977.188 222.282V209.687C977.188 207.858 975.623 206.375 973.692 206.375Z" fill="#EFE4F4"/>
<path opacity="0.2" d="M65.5857 141.057H18.4833C16.5526 141.057 14.9875 142.54 14.9875 144.37V156.965C14.9875 158.794 16.5526 160.277 18.4833 160.277H65.5857C67.5164 160.277 69.0815 158.794 69.0815 156.965V144.37C69.0815 142.54 67.5164 141.057 65.5857 141.057Z" fill="#EFE4F4"/>
<path d="M141.765 246.241C138.007 254.606 3.70158 252.45 4.0005 244.787C7.75796 236.422 142.064 238.579 141.765 246.241Z" fill="#585591" fill-opacity="0.5"/>
<path d="M54.2634 156.358L52.3809 160.424L40.8353 174.597C40.8353 174.597 32.929 182.497 37.3214 182.961C41.7137 183.426 44.6001 175.642 44.6001 175.642L58.1537 163.212L59.6597 157.519L54.2634 156.358Z" fill="#9F616A"/>
<path d="M60.2102 139.514L58.3767 139.986C58.3767 139.986 50.144 160.084 50.9029 162.525C51.6618 164.965 55.0769 167.988 56.5947 167.755C58.1125 167.523 60.2102 139.514 60.2102 139.514Z" fill="#EBCBB3"/>
<path d="M85.6456 243.876C85.6456 243.876 84.9103 247.731 87.12 246.188C89.3297 244.646 90.4817 241.662 90.4817 241.662L85.6456 243.876Z" fill="#28256D"/>
<path d="M57.1204 159.074C57.1204 159.074 31.6495 243.617 40.6835 246.097C49.7175 248.576 63.0176 245.861 62.8921 244.208C62.7666 242.554 60.5081 209.847 60.5081 209.847C60.5081 209.847 73.6827 253.299 89.9941 243.145C106.305 232.99 102.667 231.101 101.161 230.393C99.6555 229.684 76.945 196.032 77.0705 189.774C77.196 183.516 76.8196 163.915 74.0592 160.963L57.1204 159.074Z" fill="#403C71"/>
<path d="M73.1004 129.447C72.0736 128.601 71.4332 127.435 71.3062 126.18C71.1792 124.925 71.5748 123.672 72.4146 122.67C72.3034 122.765 72.1948 122.864 72.0908 122.968C71.1099 123.957 70.6005 125.261 70.6746 126.591C70.7487 127.922 71.4002 129.172 72.4858 130.066C73.5715 130.959 75.0024 131.424 76.4642 131.357C77.926 131.291 79.2989 130.699 80.2813 129.711C80.3853 129.606 80.482 129.498 80.5746 129.387C79.5638 130.249 78.2345 130.733 76.8502 130.744C75.4658 130.755 74.1274 130.292 73.1004 129.447V129.447Z" fill="#2F2E41"/>
<path d="M72.5939 130.82C78.5214 130.82 83.3266 126.198 83.3266 120.497C83.3266 114.795 78.5214 110.173 72.5939 110.173C66.6664 110.173 61.8613 114.795 61.8613 120.497C61.8613 126.198 66.6664 130.82 72.5939 130.82Z" fill="#2F2E41"/>
<path d="M43.3717 245.466C43.3717 245.466 40.3916 248.183 43.3717 248.183C46.3517 248.183 49.2023 246.411 49.2023 246.411L43.3717 245.466Z" fill="#28256D"/>
<path d="M65.7792 126.994C65.7792 126.994 67.675 134.161 66.2848 135.549C64.8945 136.936 61.8613 137.976 61.8613 137.976L62.3668 150.924C62.3668 150.924 68.1806 149.075 68.4333 148.843C68.6861 148.612 73.8679 141.098 73.8679 141.098L78.9234 136.705C78.9234 136.705 71.2138 133.352 73.4888 127.572C75.7637 121.791 65.7792 126.994 65.7792 126.994Z" fill="#9F616A"/>
<path d="M76.8595 124.354C77.4363 121.025 75.0224 117.889 71.4678 117.349C67.9132 116.809 64.5641 119.069 63.9872 122.398C63.4104 125.726 65.8244 128.862 69.3789 129.402C72.9335 129.942 76.2827 127.682 76.8595 124.354Z" fill="#9F616A"/>
<path d="M73.8532 161.242C73.8532 161.242 76.7036 152.326 78.0668 151.153C79.4301 149.98 82.7762 138.952 82.7762 138.952C82.7762 138.952 80.6694 136.254 78.9343 136.254C77.1993 136.254 75.5882 136.84 73.6053 138.6C72.6716 139.429 70.9684 140.341 69.4276 141.073C68.8807 141.338 68.2837 141.497 67.6714 141.54C67.059 141.584 66.4436 141.512 65.8612 141.328C65.2787 141.144 64.7408 140.851 64.2789 140.468C63.817 140.085 63.4403 139.619 63.1709 139.097C62.8628 138.477 62.7614 137.883 63.0713 137.427C63.0713 137.427 58.4858 138.6 58.238 140.243C57.9901 141.885 58.238 145.287 57.8662 145.991C57.4944 146.695 56.379 147.751 56.8748 152.209C57.3705 156.667 56.3574 162.304 56.3574 162.304C60.9868 166.485 67.4003 163.904 73.8532 161.242Z" fill="#EBCBB3"/>
<path d="M70.1172 121.584C73.1569 121.584 75.6211 120.002 75.6211 118.052C75.6211 116.101 73.1569 114.52 70.1172 114.52C67.0775 114.52 64.6133 116.101 64.6133 118.052C64.6133 120.002 67.0775 121.584 70.1172 121.584Z" fill="#2F2E41"/>
<path d="M79.749 117.78C82.6368 117.78 84.9778 115.591 84.9778 112.89C84.9778 110.189 82.6368 108 79.749 108C76.8613 108 74.5203 110.189 74.5203 112.89C74.5203 115.591 76.8613 117.78 79.749 117.78Z" fill="#2F2E41"/>
<path d="M83.6018 116.402C82.2906 116.401 81.0274 115.929 80.0626 115.077C79.0977 114.225 78.5016 113.057 78.3925 111.803C78.3806 111.941 78.373 112.081 78.373 112.221C78.3733 113.551 78.9239 114.827 79.904 115.767C80.8841 116.708 82.2133 117.236 83.5995 117.237C84.9858 117.237 86.3155 116.71 87.2964 115.77C88.2773 114.831 88.8291 113.556 88.8305 112.226V112.221C88.8305 112.081 88.8229 111.941 88.811 111.803C88.7019 113.057 88.1058 114.225 87.141 115.077C86.1761 115.929 84.9129 116.401 83.6018 116.402V116.402Z" fill="#2F2E41"/>
<path d="M70.972 191.675H69.2185L65.7141 220.472L77.2723 220.107L70.972 191.675Z" fill="#EBCBB3"/>
<path opacity="0.2" d="M70.972 191.675H69.2185L65.7141 220.472L77.2723 220.107L70.972 191.675Z" fill="black"/>
<path d="M70.5844 191.131L68.466 220.258L94.4176 222.102L96.536 193.712L70.5844 191.131Z" fill="#EBCBB3"/>
<path opacity="0.2" d="M79.4739 194.392C79.7778 194.392 80.0242 194.148 80.0242 193.848C80.0242 193.548 79.7778 193.305 79.4739 193.305C79.1699 193.305 78.9235 193.548 78.9235 193.848C78.9235 194.148 79.1699 194.392 79.4739 194.392Z" fill="black"/>
<path opacity="0.2" d="M87.4545 194.935C87.6065 194.935 87.7297 194.813 87.7297 194.663C87.7297 194.513 87.6065 194.392 87.4545 194.392C87.3025 194.392 87.1793 194.513 87.1793 194.663C87.1793 194.813 87.3025 194.935 87.4545 194.935Z" fill="black"/>
<path d="M87.7289 194.935H87.5289C87.5289 194.857 87.6706 187.176 82.8062 186.468C81.8477 186.33 81.0643 186.526 80.4781 187.053C78.4696 188.859 79.3002 193.96 79.3086 194.01L79.1113 194.038C79.0752 193.824 78.2585 188.793 80.3392 186.924C80.9726 186.353 81.8172 186.138 82.8395 186.287C87.8733 187.018 87.7317 194.857 87.7289 194.935Z" fill="#3F3D56"/>
<path d="M83.4303 155.271L82.8072 161.811L84.0534 181.433C84.0534 181.433 86.9195 191.361 82.558 191.127C78.1965 190.894 79.8165 180.732 79.8165 180.732L77.8226 157.957L83.4303 155.271Z" fill="#9F616A"/>
<path d="M79.5498 137.341L82.8449 138.981C82.8449 138.981 87.2805 166.863 84.7458 169.559C82.2112 172.255 77.0152 173.31 76.7617 172.255C76.5082 171.2 75.6211 149.764 75.6211 149.764L79.5498 137.341Z" fill="#EBCBB3"/>
<path d="M74.1344 127.765C71.5285 128.724 68.7961 128.686 65.952 127.765C66.7796 126.515 65.5425 125.536 64.9074 124.275L75.5272 123.995C74.7151 125.092 73.5168 126.387 74.1344 127.765Z" fill="white"/>
<path d="M75.4148 124.204L75.2915 124.095L75.4656 123.941L76.5056 122.867L76.6379 122.967L75.5934 124.045L75.4148 124.204Z" fill="white"/>
<path d="M64.1797 123.551L64.0682 123.669L65.1128 124.44L65.2243 124.321L64.1797 123.551Z" fill="white"/>
<path d="M75.7148 125.11L73.8864 127.651L74.0333 127.734L75.8617 125.192L75.7148 125.11Z" fill="white"/>
<path d="M64.3716 125.11L64.2247 125.192L66.0527 127.734L66.1996 127.651L64.3716 125.11Z" fill="white"/>
<path d="M902.512 255.25C936.485 255.25 964.025 251.861 964.025 247.68C964.025 243.499 936.485 240.11 902.512 240.11C868.54 240.11 841 243.499 841 247.68C841 251.861 868.54 255.25 902.512 255.25Z" fill="#585590" fill-opacity="0.5"/>
<path d="M967 134.773L956.428 111.056L952.627 111.501L949.224 111.838C949.31 110.946 949.46 107.746 947.349 106.068C947.144 105.493 946.605 104.84 945.567 104.104C940.509 100.521 939.456 107.851 939.456 107.851C939.456 107.851 938.302 109.398 936.713 111.559L935.88 111.437L935.644 113.033C932.125 117.84 927.45 124.345 927.45 124.956C927.45 125.934 926.819 127.236 926.819 127.236C926.819 127.236 923.237 131.796 921.971 134.078C921.234 135.424 920.155 136.643 918.799 137.662C918.799 137.662 918.493 137.842 917.991 138.107C918.023 137.676 918.12 137.249 918.28 136.835C918.741 135.669 919.814 134.671 920.099 133.472C920.166 133.184 920.191 132.892 920.174 132.6C920.241 131.194 919.355 129.81 918.986 128.404C918.556 126.775 918.787 124.98 917.662 123.565C916.797 122.484 915.263 121.811 913.668 121.502C912.203 121.218 910.761 121.319 909.285 121.198C907.929 121.087 906.634 120.623 905.279 120.452C904.555 120.33 903.806 120.33 903.082 120.452C900.789 120.94 900.071 123.173 898.3 124.401C897.663 124.847 896.881 125.154 896.304 125.642C895.465 126.353 895.174 127.345 895.217 128.317C895.206 128.643 895.231 128.968 895.292 129.291C895.511 130.456 896.094 131.56 896.446 132.703C896.712 133.549 896.856 134.415 896.875 135.286C896.875 135.482 896.875 135.678 896.852 135.872C896.863 136.265 896.728 136.651 896.463 136.986C896.143 137.327 895.615 137.492 895.145 137.711C893.609 136.768 892.455 135.504 891.823 134.069C891.823 134.069 891.745 134.145 891.612 134.292V134.069C891.612 134.069 888.728 130.797 888.29 128.125L889.294 128.205L891.601 103.122L885.709 102.453C885.545 101.158 885.098 99.2793 883.912 97.9087C884.902 96.4021 885.4 94.3628 881.063 94.16C875.987 93.9216 876.299 96.9771 876.838 98.6486C876.594 99.5607 876.497 100.493 876.55 101.423L871.359 100.839L871.33 101.165H870.096L866.318 126.755L869.536 126.63L881.331 127.579C882.274 134.205 883.757 142.393 885.516 144.323C885.574 144.388 885.639 144.45 885.709 144.508V156.233C885.709 156.233 885.498 171.388 881.914 173.824C884.113 173.22 886.439 172.938 888.772 172.993C888.731 173.093 888.691 173.2 888.651 173.314C888.126 174.81 887.76 176.336 887.558 177.878C887.508 178.219 887.462 178.574 887.422 178.944C887.092 182.338 887.153 185.749 887.604 189.135C889.08 201.188 891.399 209.822 891.399 209.822L892.045 216.829C892.045 216.829 891.413 228.719 893.098 232.628C893.732 233.08 894.462 233.446 895.255 233.709C895.269 233.82 895.286 233.932 895.301 234.05C895.315 234.168 895.338 234.351 895.358 234.507C894.603 234.772 893.193 235.824 892.887 239.956C892.887 239.956 893.308 243.052 892.255 244.516C891.203 245.98 891.834 250.217 894.995 250.705C897.015 250.992 899.086 250.992 901.106 250.705C901.106 250.705 902.583 250.705 901.527 246.633L901.343 245.59C901.319 243.573 901.429 241.414 901.948 240.769C903.001 239.466 901.527 238.164 901.527 238.164C901.527 238.164 901.423 238.209 901.253 238.269C900.982 237.143 900.627 235.316 900.754 233.921C900.754 233.803 900.78 233.698 900.797 233.575C901.441 233.316 902.04 232.996 902.583 232.624V217.154C902.583 217.154 902.372 193.374 904.691 192.884C904.691 192.884 905.743 201.516 905.322 205.752C904.901 209.989 905.954 214.549 905.954 214.549L906.375 231.815C906.375 231.815 906.779 231.964 907.43 232.14L907.387 232.454C907.131 234.373 906.718 237.27 906.343 239.044C906.09 239.122 905.865 239.246 905.687 239.405C905.509 239.564 905.383 239.754 905.319 239.958C904.688 241.587 905.109 245.659 903.843 246.8C903.096 247.469 902.202 248.831 902.64 249.793C902.366 250.638 902.487 251.957 905.74 252.176C910.588 252.501 912.696 250.547 912.696 250.547C912.696 250.547 913.328 249.733 912.696 248.267C912.065 246.8 912.907 244.195 912.907 244.195C912.907 244.195 913.36 241.984 912.619 241.694C912.555 241.431 912.497 241.264 912.497 241.264C912.507 240.763 912.269 240.279 911.831 239.909C911.814 238.204 911.903 235.051 912.679 232.974C912.725 232.855 912.771 232.751 912.82 232.628C913.445 232.545 914.048 232.381 914.603 232.144C914.603 232.144 914.392 228.398 915.869 225.793C917.345 223.187 916.5 212.762 916.5 212.762C916.5 212.762 915.869 210.023 916.76 207.803C917.781 205.343 918.546 202.824 919.05 200.27L920.293 193.541C920.293 193.541 923.566 185.351 919.254 176.944C919.078 176.597 918.885 176.249 918.678 175.901C918.32 175.297 917.922 174.691 917.478 174.09C917.409 173.996 917.334 173.9 917.262 173.806C917.714 173.72 917.971 173.668 917.971 173.668C917.971 173.668 912.281 163.416 915.863 158.195C915.863 158.195 917.882 156.634 918.17 154.921C918.528 152.654 918.917 150.39 919.557 148.161L919.67 147.769C919.67 147.769 919.687 147.693 919.716 147.557C919.797 147.517 919.874 147.475 919.952 147.43C926.026 144.002 931.263 129.69 931.263 129.69L932.95 127.238L933.752 125.928L932.108 137.011L944.964 139.462L953.183 138.974L953.16 137.608L959.424 137.232L967 134.773ZM885.501 102.457L883.217 102.199C882.816 100.605 882.545 99.5601 882.545 99.5601C883.024 99.1028 883.448 98.6127 883.811 98.0959C884.916 99.4019 885.34 101.185 885.501 102.448V102.457ZM876.971 99.0364C877.129 99.4554 877.274 99.725 877.274 99.725L877.562 101.564L876.783 101.477C876.739 100.657 876.803 99.8368 876.974 99.0275L876.971 99.0364ZM949.01 111.876L945.919 112.183C946.354 111.194 946.894 109.571 946.579 108.103C946.882 107.889 947.116 107.623 947.263 107.327C947.41 107.031 947.466 106.713 947.427 106.398C949.264 108.094 949.091 111.089 949.01 111.869V111.876ZM943.877 109.333C944.798 109.095 945.653 108.723 946.395 108.239C946.66 109.681 946.106 111.265 945.685 112.206L942.801 112.491L942.005 112.373L943.877 109.333Z" fill="url(#paint0_linear)"/>
<path d="M966.449 135.194L958.925 137.622L950.184 114.067L952.235 112.186L955.992 111.735L966.449 135.194Z" fill="#2F0428"/>
<path opacity="0.2" d="M966.449 135.194L958.925 137.622L950.184 114.067L952.235 112.186L955.992 111.735L966.449 135.194Z" fill="white"/>
<path d="M952.235 112.186L939.176 113.48L945.87 138.406L958.925 137.621L952.235 112.186Z" fill="#F2B2E0"/>
<path opacity="0.07" d="M952.235 112.186L939.176 113.48L945.87 138.406L958.925 137.621L952.235 112.186Z" fill="white"/>
<path d="M948.84 112.747L948.633 112.727C948.633 112.667 949.498 106.783 944.719 106.041L944.759 105.883C949.743 106.656 948.857 112.687 948.84 112.747Z" fill="#535461"/>
<path d="M914.92 129.922H900.535V146.193H914.92V129.922Z" fill="#774E55"/>
<path opacity="0.2" d="M914.92 129.922H900.535V146.193H914.92V129.922Z" fill="black"/>
<path d="M952.754 139.344L944.624 139.828L945.876 115.342L948.583 114.053L952.335 114.537L952.754 139.344Z" fill="#2F0428"/>
<path opacity="0.2" d="M952.754 139.344L944.624 139.828L945.876 115.342L948.583 114.053L952.335 114.537L952.754 139.344Z" fill="#FF00D6"/>
<path d="M948.584 114.053L935.661 112.119L931.909 137.412L944.624 139.828L948.584 114.053Z" fill="#F2B2E0"/>
<path d="M872.498 101.972H870.62L866.868 127.263L875.206 126.942L872.498 101.972Z" fill="#B73DE1"/>
<path opacity="0.2" d="M872.498 101.972H870.62L866.868 127.263L875.206 126.942L872.498 101.972Z" fill="#462643"/>
<path d="M871.872 101.648L869.579 127.102L889.591 128.714L891.883 103.904L871.872 101.648Z" fill="#F2B2E0"/>
<path d="M896.053 233.749C896.053 233.749 893.553 233.589 893.135 239.227C893.135 239.227 893.553 242.287 892.509 243.738C891.465 245.189 892.091 249.377 895.22 249.86C897.222 250.145 899.274 250.145 901.276 249.86C901.276 249.86 902.735 249.86 901.694 245.833L899.609 234.072L896.053 233.749Z" fill="#5F3B54"/>
<path opacity="0.05" d="M896.053 233.749C896.053 233.749 893.553 233.589 893.135 239.227C893.135 239.227 893.553 242.287 892.509 243.738C891.465 245.189 892.091 249.377 895.22 249.86C897.222 250.145 899.274 250.145 901.276 249.86C901.276 249.86 902.735 249.86 901.694 245.833L899.609 234.072L896.053 233.749Z" fill="black"/>
<path d="M909.161 140.722C908.982 143.12 909.602 144.51 909.602 144.51L904.183 145.638C904.183 145.638 895.22 146.605 898.764 143.855C899.99 142.908 900.593 141.283 900.855 139.567C901.019 138.395 901.07 137.215 901.008 136.037C900.96 134.933 900.837 133.832 900.639 132.738C900.639 132.738 913.772 129.195 910.854 134.994C910.322 136.043 909.902 137.124 909.599 138.226C909.374 139.048 909.227 139.882 909.161 140.722Z" fill="#FDA57D"/>
<path opacity="0.1" d="M910.854 134.996C910.322 136.045 909.902 137.126 909.599 138.228C908.045 138.483 906.43 138.415 904.921 138.03C903.412 137.646 902.061 136.959 901.008 136.039C900.96 134.935 900.837 133.834 900.639 132.741C900.639 132.741 913.772 129.197 910.854 134.996Z" fill="black"/>
<path d="M907.727 138.056C912.678 138.056 916.691 134.955 916.691 131.129C916.691 127.304 912.678 124.203 907.727 124.203C902.777 124.203 898.764 127.304 898.764 131.129C898.764 134.955 902.777 138.056 907.727 138.056Z" fill="#FDA57D"/>
<path d="M901.68 238.581C901.68 238.581 894.591 240.836 895.425 238.741C895.932 237.471 895.745 235.071 895.52 233.393C895.376 232.298 895.214 231.5 895.214 231.5L901.27 231.984C901.059 232.392 900.941 232.826 900.921 233.265C900.722 235.403 901.68 238.581 901.68 238.581Z" fill="#FDA57D"/>
<path d="M912.702 232.314C911.609 235.247 911.895 240.355 911.895 240.355C911.895 240.355 905.432 240.999 906.058 239.711C906.493 238.819 907.131 234.402 907.477 231.806C907.629 230.671 907.725 229.885 907.725 229.885L913.562 230.852C913.164 231.295 912.873 231.791 912.702 232.314V232.314Z" fill="#FDA57D"/>
<path opacity="0.1" d="M895.217 231.494L901.273 231.977C901.062 232.386 900.944 232.819 900.924 233.259C900.096 233.594 899.181 233.779 898.247 233.801C897.313 233.823 896.384 233.681 895.531 233.386C895.379 232.289 895.217 231.494 895.217 231.494Z" fill="black"/>
<path opacity="0.1" d="M913.564 230.85C913.165 231.294 912.872 231.79 912.699 232.314C910.73 232.559 908.662 232.129 907.477 231.806C907.629 230.671 907.725 229.885 907.725 229.885L913.564 230.85Z" fill="black"/>
<path d="M920.235 193.312L919.006 199.967C918.508 202.493 917.75 204.984 916.74 207.417C915.857 209.612 916.483 212.32 916.483 212.32C916.483 212.32 917.316 222.63 915.857 225.209C914.398 227.787 914.606 231.491 914.606 231.491C911.269 232.942 906.476 231.168 906.476 231.168L906.058 214.092C906.058 214.092 905.017 209.581 905.432 205.4C905.847 201.219 904.806 192.674 904.806 192.674C902.499 193.158 902.721 216.677 902.721 216.677V231.982C897.717 235.365 893.34 231.982 893.34 231.982C891.673 228.115 892.299 216.354 892.299 216.354L891.673 209.427C891.673 209.427 889.366 200.889 887.924 188.968C887.478 185.619 887.418 182.245 887.745 178.888C887.785 178.522 887.829 178.171 887.878 177.834C888.077 176.309 888.438 174.8 888.956 173.321C889.121 172.833 889.334 172.355 889.591 171.892L911.99 172.697L913.311 172.743L916.483 172.857C916.829 173.26 917.155 173.67 917.458 174.081C917.896 174.676 918.291 175.275 918.643 175.863C918.845 176.207 919.035 176.552 919.22 176.895C923.479 185.206 920.235 193.312 920.235 193.312Z" fill="#413870"/>
<path opacity="0.1" d="M895.635 173.499C895.635 173.499 894.655 181.076 887.742 178.883C887.783 178.518 887.827 178.167 887.875 177.829C889.501 178.17 894.003 178.641 894.173 173.497L895.635 173.499Z" fill="black"/>
<path opacity="0.1" d="M919.208 176.898C914.421 178.219 912.616 174.7 911.999 172.692L913.319 172.739C914.037 175.897 916.904 176.082 918.649 175.859C918.845 176.211 919.032 176.557 919.208 176.898Z" fill="black"/>
<path d="M897.911 237.725C896.847 237.596 895.22 237.143 895.73 235.563C895.73 235.563 893.761 235.037 893.968 241.32C893.968 241.32 893.761 244.38 893.343 245.026C892.924 245.673 893.343 249.537 897.72 249.214C897.72 249.214 900.846 250.019 901.68 248.73C901.68 248.73 901.054 241.32 902.098 240.039C903.142 238.757 901.68 237.46 901.68 237.46C901.68 237.46 900.203 238.093 899.142 237.906C898.738 237.819 898.323 237.776 897.911 237.725Z" fill="#5F3B54"/>
<path d="M903.139 248.247C903.139 248.247 901.054 250.986 905.85 251.307C910.646 251.628 912.728 249.695 912.728 249.695C912.728 249.695 913.354 248.891 912.728 247.44C912.102 245.989 912.936 243.413 912.936 243.413C912.936 243.413 913.561 240.353 912.102 240.997C910.643 241.641 903.139 248.247 903.139 248.247Z" fill="#5F3B54"/>
<path opacity="0.05" d="M903.139 248.247C903.139 248.247 901.054 250.986 905.85 251.307C910.646 251.628 912.728 249.695 912.728 249.695C912.728 249.695 913.354 248.891 912.728 247.44C912.102 245.989 912.936 243.413 912.936 243.413C912.936 243.413 913.561 240.353 912.102 240.997C910.643 241.641 903.139 248.247 903.139 248.247Z" fill="black"/>
<path d="M908.561 238.42C908.561 238.42 906.061 237.616 905.435 239.225C904.809 240.834 905.227 244.864 903.975 245.991C902.724 247.119 901.057 250.179 906.061 250.018C911.064 249.858 912.117 248.568 912.117 248.568C912.117 248.568 911.909 244.54 912.535 243.413C913.161 242.285 912.535 240.515 912.535 240.515C912.535 240.515 912.728 238.249 908.561 238.42Z" fill="#5F3B54"/>
<path opacity="0.2" d="M877.291 104.227C877.522 104.227 877.709 104.082 877.709 103.904C877.709 103.725 877.522 103.581 877.291 103.581C877.06 103.581 876.873 103.725 876.873 103.904C876.873 104.082 877.06 104.227 877.291 104.227Z" fill="black"/>
<path opacity="0.2" d="M886.046 105.031C886.277 105.031 886.465 104.887 886.465 104.708C886.465 104.53 886.277 104.385 886.046 104.385C885.815 104.385 885.628 104.53 885.628 104.708C885.628 104.887 885.815 105.031 886.046 105.031Z" fill="black"/>
<path d="M886.15 104.711H885.943C885.943 104.641 886.09 97.8462 881.04 97.22C880.045 97.0974 879.232 97.2712 878.623 97.737C876.538 99.335 877.4 103.848 877.409 103.893L877.204 103.917C877.167 103.728 876.319 99.277 878.479 97.6233C879.137 97.1174 880.013 96.928 881.075 97.0595C886.3 97.7058 886.153 104.641 886.15 104.711Z" fill="#535461"/>
<path d="M945.134 113.766L944.947 113.697C944.979 113.643 948.191 108.265 943.946 106.391L944.05 106.251C948.46 108.199 945.169 113.71 945.134 113.766Z" fill="#535461"/>
<path opacity="0.1" d="M909.602 144.501L904.183 145.629C904.183 145.629 895.22 146.596 898.764 143.846C899.99 142.899 900.593 141.274 900.855 139.558C902.271 141.274 903.976 140.786 903.976 140.786L909.144 140.708H909.164C908.982 143.12 909.602 144.501 909.602 144.501Z" fill="black"/>
<path opacity="0.1" d="M919.889 147.709C919.544 147.907 919.171 148.074 918.776 148.206L917.524 140.472L918.678 138.226L918.966 138.054C921.57 138.627 920.226 146.035 919.889 147.709Z" fill="black"/>
<path opacity="0.1" d="M891.883 134.513V136.608L887.298 145.79L886.046 144.822C885.977 144.765 885.914 144.704 885.856 144.64C886.398 139.852 891.883 134.513 891.883 134.513Z" fill="black"/>
<path opacity="0.1" d="M917.455 174.076C914.539 174.64 899.318 177.404 894.802 174.787C893.02 173.755 890.92 173.376 888.956 173.316C889.122 172.828 889.334 172.351 889.591 171.888L911.99 172.692L913.311 172.739L916.483 172.853C916.829 173.258 917.152 173.666 917.455 174.076Z" fill="black"/>
<path d="M878.231 96.4132C878.231 96.4132 881.357 100.44 883.442 96.4132Z" fill="#BF7A47"/>
<path d="M942.539 104.708C942.539 104.708 941.287 109.542 946.288 107.287Z" fill="#E29454"/>
<g opacity="0.1">
<path opacity="0.1" d="M903.837 194.264C903.736 193.283 903.661 192.67 903.661 192.67C901.354 193.154 901.576 216.673 901.576 216.673V231.977C900.111 232.967 898.692 233.377 897.438 233.464C898.943 233.566 900.737 233.241 902.629 231.977V216.673C902.629 216.673 902.467 199.63 903.837 194.264Z" fill="black"/>
<path opacity="0.1" d="M919.104 176.898C918.929 176.554 918.741 176.209 918.528 175.866C918.176 175.269 917.781 174.669 917.342 174.083C917.054 173.673 916.714 173.265 916.368 172.859L913.195 172.746L911.875 172.699L889.475 171.894L889.455 171.93L910.833 172.699L912.154 172.746L915.327 172.859C915.673 173.263 915.998 173.673 916.301 174.083C916.74 174.678 917.135 175.277 917.487 175.866C917.688 176.209 917.879 176.554 918.063 176.898C922.326 185.211 919.09 193.312 919.09 193.312L917.861 199.967C917.363 202.493 916.605 204.984 915.595 207.417C914.712 209.613 915.338 212.32 915.338 212.32C915.338 212.32 916.172 222.63 914.712 225.209C913.253 227.787 913.461 231.491 913.461 231.491C912.655 231.827 911.762 232.018 910.848 232.049C912.11 232.136 913.378 231.943 914.502 231.491C914.502 231.491 914.294 227.785 915.753 225.209C917.213 222.632 916.379 212.32 916.379 212.32C916.379 212.32 915.753 209.61 916.636 207.417C917.646 204.984 918.404 202.493 918.903 199.967L920.131 193.312C920.131 193.312 923.367 185.206 919.104 176.898Z" fill="black"/>
</g>
<path d="M909.143 141.038C912.027 142.088 918.776 138.056 918.776 138.056C921.694 138.7 919.609 148.045 919.609 148.045L919.497 148.433C918.862 150.637 918.479 152.877 918.124 155.119C917.856 156.811 915.857 158.357 915.857 158.357C912.313 163.512 917.942 173.662 917.942 173.662C917.942 173.662 899.805 177.368 894.805 174.466C889.804 171.564 882.297 173.822 882.297 173.822C885.842 171.406 886.046 156.423 886.046 156.423V144.834C886.465 140 892.103 134.524 892.103 134.524C894.41 139.518 900.821 139.848 900.821 139.848C902.242 141.631 903.993 141.13 903.993 141.13L909.143 141.038Z" fill="#5E1C3E"/>
<path opacity="0.1" d="M905.394 121.368C904.679 121.248 903.938 121.248 903.223 121.368C900.956 121.851 900.244 124.06 898.493 125.272C897.865 125.718 897.089 126.017 896.518 126.5C895.503 127.361 895.298 128.636 895.514 129.788C895.73 130.94 896.307 132.032 896.668 133.162C897.024 134.293 897.159 135.459 897.069 136.621C897.077 137.007 896.943 137.386 896.682 137.715C896.264 138.161 895.494 138.301 894.952 138.658C893.296 139.759 894.663 142.043 893.449 143.45C892.927 144.058 891.95 144.459 891.751 145.172C891.609 145.678 891.909 146.189 892.203 146.654C892.976 147.88 893.778 149.139 895.087 150.053C896.397 150.967 898.015 151.426 899.624 151.892C900.111 152.032 900.722 152.155 901.095 151.876C901.553 151.529 901.207 150.94 900.89 150.51C900.388 149.842 899.996 149.035 900.29 148.281C900.584 147.528 901.527 147.029 902.162 146.4C903.797 144.773 903.26 142.438 902.45 140.477C902.107 139.65 901.72 138.769 902.012 137.929C902.136 137.568 902.381 137.241 902.536 136.886C903.229 135.308 902.066 133.577 902.407 131.932C902.584 131.29 902.875 130.669 903.272 130.089L905.103 127.047C905.287 126.68 905.563 126.346 905.913 126.061C906.483 125.708 907.204 125.534 907.932 125.576C908.675 125.588 909.406 125.718 910.081 125.956C910.757 126.194 911.363 126.535 911.863 126.96C913.824 128.644 913.7 131.194 913.464 133.441L913.293 135.063C913.169 136.231 913.005 137.477 912.053 138.386C911.312 139.09 910.115 139.57 909.81 140.448C909.544 141.203 910.043 142.023 909.781 142.779C909.389 143.909 907.583 144.317 906.629 145.23C906.227 145.627 905.99 146.109 905.948 146.612C905.906 147.115 906.06 147.616 906.392 148.05C906.756 148.495 907.335 148.941 907.257 149.465C907.191 149.886 906.701 150.227 906.704 150.651C906.727 150.84 906.824 151.02 906.982 151.166C907.14 151.312 907.352 151.417 907.589 151.468C908.066 151.564 908.564 151.582 909.051 151.522L914.222 151.161C914.546 151.16 914.863 151.092 915.142 150.965C915.502 150.764 915.621 150.394 915.67 150.053C915.877 148.631 915.381 147.078 916.301 145.834C916.59 145.435 917.014 145.103 917.334 144.72C919.099 142.58 917.319 139.679 918.28 137.252C918.735 136.099 919.797 135.11 920.079 133.926C920.454 132.349 919.39 130.806 918.977 129.246C918.554 127.635 918.781 125.861 917.668 124.459C916.817 123.389 915.295 122.723 913.72 122.418C912.278 122.137 910.836 122.237 909.394 122.117C908.016 121.994 906.735 121.535 905.394 121.368Z" fill="black"/>
<path d="M905.394 121.045C904.679 120.924 903.938 120.924 903.223 121.045C900.956 121.528 900.244 123.737 898.493 124.949C897.865 125.395 897.089 125.694 896.518 126.177C895.503 127.038 895.298 128.312 895.514 129.465C895.73 130.617 896.307 131.709 896.668 132.839C897.024 133.97 897.159 135.136 897.069 136.298C897.077 136.683 896.943 137.063 896.682 137.392C896.264 137.838 895.494 137.978 894.952 138.335C893.296 139.436 894.663 141.72 893.449 143.126C892.927 143.735 891.95 144.136 891.751 144.849C891.609 145.355 891.909 145.865 892.203 146.331C892.976 147.557 893.778 148.816 895.087 149.73C896.397 150.644 898.015 151.103 899.624 151.569C900.111 151.709 900.722 151.832 901.095 151.553C901.553 151.205 901.207 150.617 900.89 150.187C900.388 149.518 899.996 148.711 900.29 147.958C900.584 147.205 901.527 146.706 902.162 146.077C903.797 144.45 903.26 142.115 902.45 140.153C902.107 139.326 901.72 138.446 902.012 137.606C902.136 137.245 902.381 136.917 902.536 136.563C903.229 134.985 902.066 133.253 902.407 131.609C902.584 130.966 902.875 130.346 903.272 129.765L905.103 126.723C905.287 126.357 905.563 126.022 905.913 125.738C906.483 125.385 907.204 125.211 907.932 125.252C908.675 125.265 909.406 125.394 910.081 125.632C910.757 125.87 911.363 126.212 911.863 126.636C913.824 128.321 913.7 130.871 913.464 133.117L913.293 134.74C913.169 135.908 913.005 137.154 912.053 138.063C911.312 138.767 910.115 139.246 909.81 140.124C909.544 140.88 910.043 141.7 909.781 142.456C909.389 143.585 907.583 143.993 906.629 144.907C906.227 145.304 905.99 145.786 905.948 146.289C905.906 146.791 906.06 147.293 906.392 147.726C906.756 148.172 907.335 148.618 907.257 149.142C907.191 149.563 906.701 149.904 906.704 150.327C906.727 150.517 906.824 150.696 906.982 150.842C907.14 150.988 907.352 151.094 907.589 151.145C908.066 151.241 908.564 151.259 909.051 151.199L914.222 150.838C914.546 150.837 914.863 150.769 915.142 150.641C915.502 150.441 915.621 150.071 915.67 149.73C915.877 148.308 915.381 146.755 916.301 145.511C916.59 145.112 917.014 144.78 917.334 144.397C919.099 142.257 917.319 139.355 918.28 136.928C918.735 135.776 919.797 134.787 920.079 133.603C920.454 132.025 919.39 130.483 918.977 128.923C918.554 127.312 918.781 125.538 917.668 124.136C916.817 123.066 915.295 122.4 913.72 122.094C912.278 121.813 910.836 121.914 909.394 121.793C908.016 121.673 906.735 121.214 905.394 121.045Z" fill="black"/>
<path opacity="0.1" d="M894.28 157.952C894.28 157.952 898.45 158.919 904.495 156.824H907.618C907.618 156.824 907.826 159.079 915.955 158.112" fill="black"/>
<path d="M880.798 109.765L882.352 113.615H887.38L883.312 115.995L884.866 119.845L880.798 117.465L876.729 119.845L878.283 115.995L874.215 113.615H879.244L880.798 109.765Z" fill="#472F43"/>
<path d="M891.883 134.513V136.608L887.298 145.79L886.046 144.822C885.977 144.765 885.914 144.704 885.856 144.64C882.828 141.315 880.625 119.208 880.625 119.208L877.709 100.516C877.709 100.516 874.583 94.7217 881.458 95.0381C888.333 95.3546 882.917 100.354 882.917 100.354C882.917 100.354 887.503 118.074 886.877 118.718C886.251 119.362 886.877 121.296 886.877 121.296C886.877 121.296 888.754 125.003 888.544 127.74C888.333 130.476 891.883 134.513 891.883 134.513Z" fill="#FDA57D"/>
<g style="mix-blend-mode:overlay" filter="url(#filter0_d)">
<path d="M944.474 125.514C944.313 125.441 944.145 125.382 943.978 125.332C944.145 125.282 944.313 125.223 944.474 125.15C945.581 124.645 946.199 123.73 946.204 122.788C945.172 122.32 943.857 122.283 942.744 122.788C942.582 122.861 942.432 122.947 942.294 123.034C942.323 122.893 942.34 122.747 942.34 122.602C942.34 121.592 941.642 120.713 940.61 120.24C939.577 120.713 938.879 121.592 938.879 122.602C938.879 122.747 938.897 122.893 938.925 123.034C938.787 122.943 938.637 122.856 938.476 122.784C937.368 122.279 936.053 122.315 935.015 122.784C935.015 123.726 935.632 124.64 936.745 125.145C936.907 125.218 937.074 125.277 937.241 125.327C937.074 125.377 936.907 125.436 936.745 125.509C935.638 126.014 935.021 126.929 935.015 127.871C936.047 128.34 937.362 128.376 938.476 127.871C938.637 127.798 938.787 127.712 938.925 127.625C938.897 127.771 938.879 127.916 938.879 128.062C938.879 129.072 939.577 129.95 940.61 130.424C941.642 129.95 942.34 129.072 942.34 128.062C942.34 127.916 942.323 127.771 942.294 127.63C942.432 127.721 942.582 127.803 942.744 127.875C943.851 128.38 945.166 128.344 946.204 127.875C946.199 126.933 945.581 126.019 944.474 125.514V125.514ZM940.61 127.152C939.335 127.152 938.303 126.337 938.303 125.332C938.303 124.326 939.335 123.512 940.61 123.512C941.884 123.512 942.917 124.326 942.917 125.332C942.917 126.337 941.884 127.152 940.61 127.152Z" fill="#41044A"/>
</g>
<path d="M943.58 110.026L932.739 127.746L931.073 130.158C931.073 130.158 925.881 144.314 919.886 147.704C919.541 147.903 919.168 148.07 918.773 148.201L917.521 140.468L918.675 138.221L918.761 138.049C920.099 137.041 921.162 135.836 921.887 134.506C923.139 132.25 926.683 127.74 926.683 127.74C926.683 127.74 927.309 126.451 927.309 125.484C927.309 124.517 939.191 108.568 939.191 108.568C939.191 108.568 940.232 101.319 945.247 104.862C950.262 108.406 943.58 110.026 943.58 110.026Z" fill="#FDA57D"/>
<path d="M912.999 135.553C909.81 136.548 906.467 136.508 902.987 135.553C904 134.257 902.486 133.242 901.709 131.934L914.703 131.644C913.709 132.781 912.243 134.124 912.999 135.553Z" fill="white"/>
<path d="M914.565 131.861L914.414 131.748L914.627 131.588L915.9 130.474L916.062 130.578L914.784 131.696L914.565 131.861Z" fill="white"/>
<path d="M900.819 131.184L900.682 131.307L901.961 132.105L902.097 131.982L900.819 131.184Z" fill="white"/>
<path d="M914.932 132.8L912.695 135.435L912.875 135.521L915.112 132.885L914.932 132.8Z" fill="white"/>
<path d="M901.054 132.799L900.874 132.885L903.11 135.521L903.29 135.435L901.054 132.799Z" fill="white"/>
<defs>
<filter id="filter0_d" x="931.015" y="120.24" width="19.1895" height="18.1834" filterUnits="userSpaceOnUse" color-interpolation-filters="sRGB">
<feFlood flood-opacity="0" result="BackgroundImageFix"/>
<feColorMatrix in="SourceAlpha" type="matrix" values="0 0 0 0 0 0 0 0 0 0 0 0 0 0 0 0 0 0 127 0"/>
<feOffset dy="4"/>
<feGaussianBlur stdDeviation="2"/>
<feColorMatrix type="matrix" values="0 0 0 0 0 0 0 0 0 0 0 0 0 0 0 0 0 0 0.25 0"/>
<feBlend mode="normal" in2="BackgroundImageFix" result="effect1_dropShadow"/>
<feBlend mode="normal" in="SourceGraphic" in2="effect1_dropShadow" result="shape"/>
</filter>
<linearGradient id="paint0_linear" x1="916.659" y1="252.209" x2="916.659" y2="94.1645" gradientUnits="userSpaceOnUse">
<stop stop-color="#808080" stop-opacity="0.25"/>
<stop offset="0.54" stop-color="#808080" stop-opacity="0.12"/>
<stop offset="1" stop-color="#808080" stop-opacity="0.1"/>
</linearGradient>
</defs>
</svg>
