<svg width="375" height="206" viewBox="0 0 375 206" fill="none" xmlns="http://www.w3.org/2000/svg">
<rect width="375" height="206" fill="white"/>
<rect width="375" height="189" fill="#C7B1E2"/>
<path opacity="0.2" d="M62.983 1.57935H24.67C23.0996 1.57935 21.8265 2.81385 21.8265 4.33669V14.822C21.8265 16.3448 23.0996 17.5793 24.67 17.5793H62.983C64.5535 17.5793 65.8265 16.3448 65.8265 14.822V4.33669C65.8265 2.81385 64.5535 1.57935 62.983 1.57935Z" fill="#EFE4F4"/>
<path opacity="0.2" d="M87.1565 22H48.8435C47.2731 22 46 23.2345 46 24.7573V35.2427C46 36.7655 47.2731 38 48.8435 38H87.1565C88.7269 38 90 36.7655 90 35.2427V24.7573C90 23.2345 88.7269 22 87.1565 22Z" fill="#EFE4F4"/>
<path opacity="0.1" d="M155.271 12.6351H116.958C115.387 12.6351 114.114 13.8696 114.114 15.3925V25.8778C114.114 27.4006 115.387 28.6351 116.958 28.6351H155.271C156.841 28.6351 158.114 27.4006 158.114 25.8778V15.3925C158.114 13.8696 156.841 12.6351 155.271 12.6351Z" fill="#1E0728"/>
<path opacity="0.1" d="M348.157 50H309.843C308.273 50 307 51.2345 307 52.7573V63.2427C307 64.7655 308.273 66 309.843 66H348.157C349.727 66 351 64.7655 351 63.2427V52.7573C351 51.2345 349.727 50 348.157 50Z" fill="#1E0728"/>
<path opacity="0.2" d="M63.1565 42H24.8435C23.2731 42 22 43.2345 22 44.7573V55.2427C22 56.7655 23.2731 58 24.8435 58H63.1565C64.7269 58 66 56.7655 66 55.2427V44.7573C66 43.2345 64.7269 42 63.1565 42Z" fill="#EFE4F4"/>
<path opacity="0.1" d="M78.7617 105.925H40.4487C38.8783 105.925 37.6052 107.159 37.6052 108.682V119.167C37.6052 120.69 38.8783 121.925 40.4487 121.925H78.7617C80.3321 121.925 81.6052 120.69 81.6052 119.167V108.682C81.6052 107.159 80.3321 105.925 78.7617 105.925Z" fill="#1E0728"/>
<path opacity="0.1" d="M100.067 125.298H61.7539C60.1835 125.298 58.9104 126.533 58.9104 128.055V138.541C58.9104 140.064 60.1835 141.298 61.7539 141.298H100.067C101.637 141.298 102.91 140.064 102.91 138.541V128.055C102.91 126.533 101.637 125.298 100.067 125.298Z" fill="#1E0728"/>
<path opacity="0.1" d="M72.2998 142.671H33.9868C32.4164 142.671 31.1433 143.906 31.1433 145.429V155.914C31.1433 157.437 32.4164 158.671 33.9868 158.671H72.2998C73.8702 158.671 75.1433 157.437 75.1433 155.914V145.429C75.1433 143.906 73.8702 142.671 72.2998 142.671Z" fill="#1E0728"/>
<path opacity="0.1" d="M299.618 117H261.305C259.735 117 258.462 118.235 258.462 119.757V130.243C258.462 131.765 259.735 133 261.305 133H299.618C301.189 133 302.462 131.765 302.462 130.243V119.757C302.462 118.235 301.189 117 299.618 117Z" fill="#1E0728"/>
<path opacity="0.1" d="M216.156 50H177.844C176.273 50 175 51.2345 175 52.7573V63.2427C175 64.7655 176.273 66 177.844 66H216.156C217.727 66 219 64.7655 219 63.2427V52.7573C219 51.2345 217.727 50 216.156 50Z" fill="#1E0728"/>
<path opacity="0.1" d="M320.924 136.373H282.611C281.04 136.373 279.767 137.608 279.767 139.131V149.616C279.767 151.139 281.04 152.373 282.611 152.373H320.924C322.494 152.373 323.767 151.139 323.767 149.616V139.131C323.767 137.608 322.494 136.373 320.924 136.373Z" fill="#1E0728"/>
<path opacity="0.1" d="M337.156 156H298.844C297.273 156 296 157.234 296 158.757V169.243C296 170.766 297.273 172 298.844 172H337.156C338.727 172 340 170.766 340 169.243V158.757C340 157.234 338.727 156 337.156 156Z" fill="#1E0728"/>
<path opacity="0.2" d="M185.156 90H146.843C145.273 90 144 91.2345 144 92.7573V103.243C144 104.765 145.273 106 146.843 106H185.156C186.727 106 188 104.765 188 103.243V92.7573C188 91.2345 186.727 90 185.156 90Z" fill="#EFE4F4"/>
<path opacity="0.2" d="M238.156 156H199.843C198.273 156 197 157.235 197 158.757V169.243C197 170.765 198.273 172 199.843 172H238.156C239.727 172 241 170.765 241 169.243V158.757C241 157.235 239.727 156 238.156 156Z" fill="#EFE4F4"/>
<path d="M198 198.786C196.063 205.105 126.846 203.476 127 197.688C128.937 191.369 198.154 192.998 198 198.786Z" fill="#585591" fill-opacity="0.5"/>
<path d="M150.049 127.435L148.521 130.583L139.149 141.555C139.149 141.555 132.732 147.67 136.297 148.03C139.862 148.39 142.205 142.364 142.205 142.364L153.207 132.741L154.429 128.334L150.049 127.435Z" fill="#9F616A"/>
<path d="M154.876 114.396L153.388 114.761C153.388 114.761 146.705 130.32 147.321 132.209C147.937 134.099 150.709 136.438 151.941 136.258C153.173 136.078 154.876 114.396 154.876 114.396Z" fill="#E2A284"/>
<path d="M175.522 195.186C175.522 195.186 174.925 198.17 176.719 196.976C178.513 195.782 179.448 193.472 179.448 193.472L175.522 195.186Z" fill="#28256D"/>
<path d="M152.368 129.538C152.368 129.538 131.693 194.985 139.026 196.905C146.359 198.824 157.155 196.722 157.053 195.442C156.951 194.163 155.118 168.843 155.118 168.843C155.118 168.843 165.812 202.481 179.052 194.62C192.292 186.759 189.339 185.296 188.116 184.748C186.894 184.199 168.46 158.148 168.562 153.304C168.664 148.459 168.358 133.286 166.118 131.001L152.368 129.538Z" fill="#403C71"/>
<path d="M165.339 106.603C164.506 105.948 163.986 105.046 163.883 104.074C163.78 103.102 164.101 102.132 164.783 101.357C164.692 101.43 164.604 101.506 164.52 101.588C163.724 102.353 163.31 103.362 163.37 104.392C163.43 105.422 163.959 106.39 164.841 107.082C165.722 107.774 166.883 108.133 168.07 108.082C169.256 108.03 170.371 107.572 171.168 106.807C171.253 106.726 171.331 106.642 171.406 106.557C170.586 107.224 169.507 107.598 168.383 107.607C167.259 107.615 166.173 107.257 165.339 106.603V106.603Z" fill="#2F2E41"/>
<path d="M164.928 107.666C169.74 107.666 173.64 104.088 173.64 99.6741C173.64 95.2604 169.74 91.6824 164.928 91.6824C160.117 91.6824 156.217 95.2604 156.217 99.6741C156.217 104.088 160.117 107.666 164.928 107.666Z" fill="#2F2E41"/>
<path d="M141.208 196.417C141.208 196.417 138.789 198.52 141.208 198.52C143.627 198.52 145.941 197.148 145.941 197.148L141.208 196.417Z" fill="#28256D"/>
<path d="M159.397 104.704C159.397 104.704 160.936 110.252 159.807 111.326C158.679 112.4 156.217 113.206 156.217 113.206L156.627 123.229C156.627 123.229 161.346 121.797 161.551 121.618C161.756 121.439 165.962 115.622 165.962 115.622L170.066 112.221C170.066 112.221 163.808 109.626 165.655 105.151C167.501 100.676 159.397 104.704 159.397 104.704Z" fill="#9F616A"/>
<path d="M168.39 102.66C168.859 100.083 166.899 97.6556 164.014 97.2375C161.129 96.8194 158.41 98.5692 157.942 101.146C157.474 103.722 159.433 106.15 162.318 106.568C165.204 106.986 167.922 105.236 168.39 102.66Z" fill="#9F616A"/>
<path d="M165.95 131.216C165.95 131.216 168.264 124.314 169.371 123.406C170.477 122.498 173.193 113.961 173.193 113.961C173.193 113.961 171.483 111.872 170.075 111.872C168.666 111.872 167.359 112.326 165.749 113.688C164.991 114.33 163.609 115.036 162.358 115.603C161.914 115.808 161.43 115.931 160.933 115.964C160.436 115.998 159.936 115.942 159.463 115.8C158.99 115.657 158.554 115.431 158.179 115.135C157.804 114.838 157.498 114.477 157.28 114.073C157.029 113.593 156.947 113.133 157.199 112.78C157.199 112.78 153.477 113.688 153.275 114.96C153.074 116.231 153.275 118.865 152.974 119.41C152.672 119.955 151.766 120.772 152.169 124.223C152.571 127.674 151.749 132.038 151.749 132.038C155.507 135.275 160.713 133.277 165.95 131.216Z" fill="#E2A284"/>
<path d="M162.918 100.515C165.385 100.515 167.385 99.2913 167.385 97.7814C167.385 96.2714 165.385 95.0474 162.918 95.0474C160.45 95.0474 158.45 96.2714 158.45 97.7814C158.45 99.2913 160.45 100.515 162.918 100.515Z" fill="#2F2E41"/>
<path d="M170.736 97.5711C173.08 97.5711 174.98 95.8763 174.98 93.7856C174.98 91.6949 173.08 90 170.736 90C168.392 90 166.492 91.6949 166.492 93.7856C166.492 95.8763 168.392 97.5711 170.736 97.5711Z" fill="#2F2E41"/>
<path d="M173.863 96.5039C172.799 96.5038 171.774 96.1378 170.991 95.4785C170.207 94.8192 169.724 93.9147 169.635 92.9443C169.625 93.0511 169.619 93.1589 169.619 93.2679C169.619 94.2974 170.066 95.2847 170.862 96.0128C171.657 96.7409 172.736 97.1501 173.862 97.1505C174.987 97.151 176.066 96.7426 176.862 96.0151C177.659 95.2877 178.106 94.3007 178.108 93.2712V93.2679C178.108 93.1589 178.101 93.0511 178.092 92.9443C178.003 93.9147 177.519 94.8192 176.736 95.4785C175.953 96.1378 174.928 96.5038 173.863 96.5039V96.5039Z" fill="#2F2E41"/>
<path d="M163.611 154.775H162.188L159.344 177.068L168.725 176.785L163.611 154.775Z" fill="#E2A284"/>
<path opacity="0.2" d="M163.611 154.775H162.188L159.344 177.068L168.725 176.785L163.611 154.775Z" fill="black"/>
<path d="M163.297 154.355L161.578 176.903L182.643 178.33L184.362 156.353L163.297 154.355Z" fill="#E2A284"/>
<path opacity="0.2" d="M170.513 156.878C170.759 156.878 170.959 156.69 170.959 156.458C170.959 156.225 170.759 156.037 170.513 156.037C170.266 156.037 170.066 156.225 170.066 156.458C170.066 156.69 170.266 156.878 170.513 156.878Z" fill="black"/>
<path opacity="0.2" d="M176.991 157.299C177.114 157.299 177.214 157.205 177.214 157.089C177.214 156.973 177.114 156.878 176.991 156.878C176.867 156.878 176.767 156.973 176.767 157.089C176.767 157.205 176.867 157.299 176.991 157.299Z" fill="black"/>
<path d="M177.213 157.299H177.051C177.051 157.239 177.166 151.293 173.217 150.745C172.44 150.638 171.804 150.79 171.328 151.197C169.697 152.595 170.372 156.544 170.378 156.583L170.218 156.605C170.189 156.439 169.526 152.545 171.215 151.098C171.729 150.655 172.415 150.489 173.245 150.604C177.331 151.17 177.216 157.239 177.213 157.299Z" fill="#3F3D56"/>
<path d="M173.724 126.594L173.218 131.657L174.23 146.847C174.23 146.847 176.556 154.532 173.016 154.351C169.476 154.171 170.791 146.304 170.791 146.304L169.172 128.673L173.724 126.594Z" fill="#9F616A"/>
<path d="M170.574 112.713L173.249 113.984C173.249 113.984 176.85 135.568 174.792 137.655C172.735 139.741 168.517 140.558 168.311 139.741C168.106 138.925 167.386 122.331 167.386 122.331L170.574 112.713Z" fill="#E2A284"/>
<path d="M166.179 105.301C164.063 106.044 161.845 106.013 159.537 105.301C160.209 104.333 159.204 103.576 158.689 102.599L167.309 102.383C166.65 103.231 165.677 104.234 166.179 105.301Z" fill="white"/>
<path d="M167.218 102.544L167.118 102.46L167.259 102.34L168.103 101.509L168.211 101.587L167.363 102.421L167.218 102.544Z" fill="white"/>
<path d="M158.098 102.039L158.008 102.13L158.856 102.727L158.946 102.635L158.098 102.039Z" fill="white"/>
<path d="M167.461 103.245L165.977 105.213L166.096 105.277L167.581 103.309L167.461 103.245Z" fill="white"/>
<path d="M158.254 103.245L158.135 103.309L159.619 105.277L159.738 105.213L158.254 103.245Z" fill="white"/>
</svg>
