<svg width="375" height="206" viewBox="0 0 375 206" fill="none" xmlns="http://www.w3.org/2000/svg">
<rect width="375" height="206" fill="white"/>
<rect width="375" height="189" fill="#C7B1E2"/>
<path opacity="0.2" d="M62.983 1.57935H24.67C23.0996 1.57935 21.8265 2.81385 21.8265 4.33669V14.822C21.8265 16.3448 23.0996 17.5793 24.67 17.5793H62.983C64.5535 17.5793 65.8265 16.3448 65.8265 14.822V4.33669C65.8265 2.81385 64.5535 1.57935 62.983 1.57935Z" fill="#EFE4F4"/>
<path opacity="0.2" d="M87.1565 22H48.8435C47.2731 22 46 23.2345 46 24.7573V35.2427C46 36.7655 47.2731 38 48.8435 38H87.1565C88.7269 38 90 36.7655 90 35.2427V24.7573C90 23.2345 88.7269 22 87.1565 22Z" fill="#EFE4F4"/>
<path opacity="0.1" d="M155.271 12.6351H116.958C115.387 12.6351 114.114 13.8696 114.114 15.3925V25.8778C114.114 27.4006 115.387 28.6351 116.958 28.6351H155.271C156.841 28.6351 158.114 27.4006 158.114 25.8778V15.3925C158.114 13.8696 156.841 12.6351 155.271 12.6351Z" fill="#1E0728"/>
<path opacity="0.1" d="M348.157 50H309.843C308.273 50 307 51.2345 307 52.7573V63.2427C307 64.7655 308.273 66 309.843 66H348.157C349.727 66 351 64.7655 351 63.2427V52.7573C351 51.2345 349.727 50 348.157 50Z" fill="#1E0728"/>
<path opacity="0.2" d="M63.1565 42H24.8435C23.2731 42 22 43.2345 22 44.7573V55.2427C22 56.7655 23.2731 58 24.8435 58H63.1565C64.7269 58 66 56.7655 66 55.2427V44.7573C66 43.2345 64.7269 42 63.1565 42Z" fill="#EFE4F4"/>
<path opacity="0.1" d="M78.7617 105.925H40.4487C38.8783 105.925 37.6052 107.159 37.6052 108.682V119.167C37.6052 120.69 38.8783 121.925 40.4487 121.925H78.7617C80.3321 121.925 81.6052 120.69 81.6052 119.167V108.682C81.6052 107.159 80.3321 105.925 78.7617 105.925Z" fill="#1E0728"/>
<path opacity="0.1" d="M100.067 125.298H61.7539C60.1835 125.298 58.9104 126.533 58.9104 128.055V138.541C58.9104 140.064 60.1835 141.298 61.7539 141.298H100.067C101.637 141.298 102.91 140.064 102.91 138.541V128.055C102.91 126.533 101.637 125.298 100.067 125.298Z" fill="#1E0728"/>
<path opacity="0.1" d="M72.2998 142.671H33.9868C32.4164 142.671 31.1433 143.906 31.1433 145.429V155.914C31.1433 157.437 32.4164 158.671 33.9868 158.671H72.2998C73.8702 158.671 75.1433 157.437 75.1433 155.914V145.429C75.1433 143.906 73.8702 142.671 72.2998 142.671Z" fill="#1E0728"/>
<path opacity="0.1" d="M299.618 117H261.305C259.735 117 258.462 118.235 258.462 119.757V130.243C258.462 131.765 259.735 133 261.305 133H299.618C301.189 133 302.462 131.765 302.462 130.243V119.757C302.462 118.235 301.189 117 299.618 117Z" fill="#1E0728"/>
<path opacity="0.1" d="M216.156 50H177.844C176.273 50 175 51.2345 175 52.7573V63.2427C175 64.7655 176.273 66 177.844 66H216.156C217.727 66 219 64.7655 219 63.2427V52.7573C219 51.2345 217.727 50 216.156 50Z" fill="#1E0728"/>
<path opacity="0.1" d="M320.924 136.373H282.611C281.04 136.373 279.767 137.608 279.767 139.131V149.616C279.767 151.139 281.04 152.373 282.611 152.373H320.924C322.494 152.373 323.767 151.139 323.767 149.616V139.131C323.767 137.608 322.494 136.373 320.924 136.373Z" fill="#1E0728"/>
<path opacity="0.1" d="M337.156 156H298.844C297.273 156 296 157.234 296 158.757V169.243C296 170.766 297.273 172 298.844 172H337.156C338.727 172 340 170.766 340 169.243V158.757C340 157.234 338.727 156 337.156 156Z" fill="#1E0728"/>
<path opacity="0.2" d="M185.156 90H146.843C145.273 90 144 91.2345 144 92.7573V103.243C144 104.765 145.273 106 146.843 106H185.156C186.727 106 188 104.765 188 103.243V92.7573C188 91.2345 186.727 90 185.156 90Z" fill="#EFE4F4"/>
<path opacity="0.2" d="M238.156 156H199.843C198.273 156 197 157.235 197 158.757V169.243C197 170.765 198.273 172 199.843 172H238.156C239.727 172 241 170.765 241 169.243V158.757C241 157.235 239.727 156 238.156 156Z" fill="#EFE4F4"/>
<path d="M74.9997 198.786C73.0632 205.105 3.8462 203.476 4.00026 197.688C5.93674 191.369 75.1538 192.998 74.9997 198.786Z" fill="#585591" fill-opacity="0.5"/>
<path d="M27.049 127.435L25.5211 130.583L16.1494 141.555C16.1494 141.555 9.73179 147.67 13.2971 148.03C16.8624 148.39 19.2053 142.364 19.2053 142.364L30.2069 132.741L31.4293 128.334L27.049 127.435Z" fill="#9F616A"/>
<path d="M31.8761 114.396L30.3879 114.761C30.3879 114.761 23.7054 130.32 24.3214 132.209C24.9374 134.099 27.7094 136.438 28.9414 136.258C30.1734 136.078 31.8761 114.396 31.8761 114.396Z" fill="#E2A284"/>
<path d="M52.5222 195.186C52.5222 195.186 51.9254 198.17 53.719 196.976C55.5126 195.782 56.4477 193.472 56.4477 193.472L52.5222 195.186Z" fill="#28256D"/>
<path d="M29.3683 129.538C29.3683 129.538 8.69343 194.985 16.0264 196.905C23.3593 198.824 34.1551 196.722 34.0532 195.442C33.9514 194.163 32.1182 168.843 32.1182 168.843C32.1182 168.843 42.812 202.481 56.0521 194.62C69.2922 186.759 66.3386 185.296 65.1165 184.748C63.8943 184.199 45.4601 158.148 45.5619 153.304C45.6638 148.459 45.3582 133.286 43.1176 131.001L29.3683 129.538Z" fill="#403C71"/>
<path d="M42.3394 106.603C41.5059 105.948 40.9861 105.046 40.883 104.074C40.7799 103.102 41.101 102.132 41.7827 101.357C41.6925 101.43 41.6043 101.506 41.5199 101.588C40.7237 102.353 40.3102 103.362 40.3704 104.392C40.4305 105.422 40.9593 106.39 41.8405 107.082C42.7217 107.774 43.8833 108.133 45.0698 108.082C46.2563 108.03 47.3708 107.572 48.1681 106.807C48.2526 106.726 48.3311 106.642 48.4062 106.557C47.5858 107.224 46.5068 107.598 45.3831 107.607C44.2594 107.615 43.173 107.257 42.3394 106.603Z" fill="#2F2E41"/>
<path d="M41.9283 107.666C46.7397 107.666 50.6401 104.088 50.6401 99.6741C50.6401 95.2604 46.7397 91.6824 41.9283 91.6824C37.1169 91.6824 33.2166 95.2604 33.2166 99.6741C33.2166 104.088 37.1169 107.666 41.9283 107.666Z" fill="#2F2E41"/>
<path d="M18.2082 196.417C18.2082 196.417 15.7892 198.52 18.2082 198.52C20.6271 198.52 22.9409 197.148 22.9409 197.148L18.2082 196.417Z" fill="#28256D"/>
<path d="M36.3968 104.704C36.3968 104.704 37.9356 110.252 36.8071 111.326C35.6787 112.4 33.2166 113.206 33.2166 113.206L33.6269 123.229C33.6269 123.229 38.346 121.797 38.5512 121.618C38.7563 121.439 42.9625 115.622 42.9625 115.622L47.066 112.221C47.066 112.221 40.8081 109.626 42.6547 105.151C44.5013 100.676 36.3968 104.704 36.3968 104.704Z" fill="#9F616A"/>
<path d="M45.3905 102.66C45.8587 100.083 43.8993 97.6556 41.014 97.2375C38.1288 96.8194 35.4102 98.5692 34.942 101.146C34.4738 103.722 36.4332 106.15 39.3185 106.568C42.2037 106.986 44.9223 105.236 45.3905 102.66Z" fill="#9F616A"/>
<path d="M42.9504 131.216C42.9504 131.216 45.2641 124.314 46.3706 123.406C47.4772 122.498 50.1933 113.961 50.1933 113.961C50.1933 113.961 48.4831 111.872 47.0748 111.872C45.6665 111.872 44.3587 112.326 42.7492 113.688C41.9913 114.33 40.6088 115.036 39.3581 115.603C38.9142 115.808 38.4296 115.931 37.9326 115.964C37.4355 115.998 36.936 115.942 36.4632 115.8C35.9904 115.657 35.5538 115.431 35.1788 115.135C34.8039 114.838 34.4982 114.477 34.2795 114.073C34.0295 113.593 33.9471 113.133 34.1986 112.78C34.1986 112.78 30.4766 113.688 30.2754 114.96C30.0742 116.231 30.2754 118.865 29.9736 119.41C29.6719 119.955 28.7665 120.772 29.1689 124.223C29.5713 127.674 28.7489 132.038 28.7489 132.038C32.5067 135.275 37.7126 133.277 42.9504 131.216Z" fill="#E2A284"/>
<path d="M39.9178 100.515C42.3852 100.515 44.3854 99.2913 44.3854 97.7814C44.3854 96.2714 42.3852 95.0474 39.9178 95.0474C37.4505 95.0474 35.4503 96.2714 35.4503 97.7814C35.4503 99.2913 37.4505 100.515 39.9178 100.515Z" fill="#2F2E41"/>
<path d="M47.7358 97.5711C50.0798 97.5711 51.98 95.8763 51.98 93.7856C51.98 91.6949 50.0798 90 47.7358 90C45.3918 90 43.4916 91.6949 43.4916 93.7856C43.4916 95.8763 45.3918 97.5711 47.7358 97.5711Z" fill="#2F2E41"/>
<path d="M50.8634 96.5039C49.7991 96.5038 48.7738 96.1378 47.9906 95.4785C47.2074 94.8192 46.7236 93.9147 46.635 92.9443C46.6254 93.0511 46.6192 93.1589 46.6192 93.2679C46.6194 94.2974 47.0663 95.2847 47.8619 96.0128C48.6574 96.7409 49.7364 97.1501 50.8616 97.1505C51.9868 97.151 53.0661 96.7426 53.8623 96.0151C54.6586 95.2877 55.1064 94.3007 55.1076 93.2712V93.2679C55.1076 93.1589 55.1014 93.0511 55.0918 92.9443C55.0032 93.9147 54.5193 94.8192 53.7362 95.4785C52.953 96.1378 51.9276 96.5038 50.8634 96.5039Z" fill="#2F2E41"/>
<path d="M40.6115 154.775H39.1882L36.3436 177.068L45.7255 176.785L40.6115 154.775Z" fill="#E2A284"/>
<path opacity="0.2" d="M40.6115 154.775H39.1882L36.3436 177.068L45.7255 176.785L40.6115 154.775Z" fill="black"/>
<path d="M40.2972 154.355L38.5776 176.903L59.6427 178.33L61.3622 156.353L40.2972 154.355Z" fill="#E2A284"/>
<path opacity="0.2" d="M47.5127 156.878C47.7594 156.878 47.9594 156.69 47.9594 156.458C47.9594 156.225 47.7594 156.037 47.5127 156.037C47.2659 156.037 47.0659 156.225 47.0659 156.458C47.0659 156.69 47.2659 156.878 47.5127 156.878Z" fill="black"/>
<path opacity="0.2" d="M53.9905 157.299C54.1139 157.299 54.2139 157.205 54.2139 157.089C54.2139 156.973 54.1139 156.878 53.9905 156.878C53.8672 156.878 53.7672 156.973 53.7672 157.089C53.7672 157.205 53.8672 157.299 53.9905 157.299Z" fill="black"/>
<path d="M54.2133 157.299H54.051C54.051 157.239 54.166 151.293 50.2175 150.745C49.4396 150.638 48.8037 150.79 48.3279 151.197C46.6975 152.595 47.3717 156.544 47.3785 156.583L47.2184 156.605C47.1891 156.439 46.5261 152.545 48.2151 151.098C48.7292 150.655 49.4147 150.489 50.2446 150.604C54.3306 151.17 54.2156 157.239 54.2133 157.299Z" fill="#3F3D56"/>
<path d="M50.7241 126.594L50.2183 131.657L51.2298 146.847C51.2298 146.847 53.5563 154.532 50.016 154.351C46.4758 154.171 47.7907 146.304 47.7907 146.304L46.1723 128.673L50.7241 126.594Z" fill="#9F616A"/>
<path d="M47.5745 112.713L50.2491 113.984C50.2491 113.984 53.8495 135.568 51.7921 137.655C49.7347 139.741 45.5171 140.558 45.3113 139.741C45.1056 138.925 44.3855 122.331 44.3855 122.331L47.5745 112.713Z" fill="#E2A284"/>
<path d="M43.1786 105.301C41.0634 106.044 38.8455 106.013 36.5369 105.301C37.2086 104.333 36.2045 103.576 35.689 102.599L44.3091 102.383C43.6499 103.231 42.6772 104.234 43.1786 105.301Z" fill="white"/>
<path d="M44.2178 102.544L44.1178 102.46L44.2591 102.34L45.1033 101.509L45.2107 101.587L44.3628 102.421L44.2178 102.544Z" fill="white"/>
<path d="M35.0984 102.039L35.0079 102.13L35.8558 102.727L35.9463 102.635L35.0984 102.039Z" fill="white"/>
<path d="M44.4614 103.245L42.9772 105.213L43.0965 105.277L44.5806 103.309L44.4614 103.245Z" fill="white"/>
<path d="M35.2541 103.245L35.1349 103.309L36.6187 105.277L36.7379 105.213L35.2541 103.245Z" fill="white"/>
</svg>
