<svg width="1440" height="378" viewBox="0 0 1440 378" fill="none" xmlns="http://www.w3.org/2000/svg">
<g clip-path="url(#clip0)">
<rect width="1440" height="378" fill="white"/>
<rect width="1440" height="331" transform="translate(-1)" fill="#DC6BE0"/>
<path opacity="0.2" d="M157.086 2.76599H87.9453C85.1113 2.76599 82.8138 4.90016 82.8138 7.53277V25.6594C82.8138 28.292 85.1113 30.4262 87.9453 30.4262H157.086C159.92 30.4262 162.218 28.292 162.218 25.6594V7.53277C162.218 4.90016 159.92 2.76599 157.086 2.76599Z" fill="#EFE4F4"/>
<path opacity="0.2" d="M200.818 31.1921H131.677C128.843 31.1921 126.546 33.3263 126.546 35.9589V54.0855C126.546 56.7181 128.843 58.8523 131.677 58.8523H200.818C203.652 58.8523 205.95 56.7181 205.95 54.0855V35.9589C205.95 33.3263 203.652 31.1921 200.818 31.1921Z" fill="#EFE4F4"/>
<path opacity="0.1" d="M511.472 22.1282H442.331C439.497 22.1282 437.199 24.2623 437.199 26.895V45.0216C437.199 47.6542 439.497 49.7883 442.331 49.7883H511.472C514.306 49.7883 516.603 47.6542 516.603 45.0216V26.895C516.603 24.2623 514.306 22.1282 511.472 22.1282Z" fill="#1E0728"/>
<path opacity="0.1" d="M547.204 56.2423H478.063C475.229 56.2423 472.931 58.3765 472.931 61.0091V79.1357C472.931 81.7683 475.229 83.9025 478.063 83.9025H547.204C550.038 83.9025 552.335 81.7683 552.335 79.1357V61.0091C552.335 58.3765 550.038 56.2423 547.204 56.2423Z" fill="#1E0728"/>
<path opacity="0.2" d="M156.273 59.6184H87.1315C84.2974 59.6184 82 61.7526 82 64.3852V82.5118C82 85.1444 84.2974 87.2786 87.1315 87.2786H156.273C159.107 87.2786 161.404 85.1444 161.404 82.5118V64.3852C161.404 61.7526 159.107 59.6184 156.273 59.6184Z" fill="#EFE4F4"/>
<path opacity="0.1" d="M217.677 189.011H148.536C145.702 189.011 143.404 191.145 143.404 193.778V211.904C143.404 214.537 145.702 216.671 148.536 216.671H217.677C220.511 216.671 222.808 214.537 222.808 211.904V193.778C222.808 191.145 220.511 189.011 217.677 189.011Z" fill="#1E0728"/>
<path opacity="0.1" d="M253.409 219.437H184.267C181.433 219.437 179.136 221.572 179.136 224.204V242.331C179.136 244.963 181.433 247.098 184.267 247.098H253.409C256.243 247.098 258.54 244.963 258.54 242.331V224.204C258.54 221.572 256.243 219.437 253.409 219.437Z" fill="#1E0728"/>
<path opacity="0.1" d="M192.863 249.864H123.722C120.888 249.864 118.59 251.998 118.59 254.63V272.757C118.59 275.39 120.888 277.524 123.722 277.524H192.863C195.697 277.524 197.994 275.39 197.994 272.757V254.63C197.994 251.998 195.697 249.864 192.863 249.864Z" fill="#1E0728"/>
<path opacity="0.1" d="M537.278 263.148H468.137C465.303 263.148 463.006 265.282 463.006 267.914V286.041C463.006 288.674 465.303 290.808 468.137 290.808H537.278C540.112 290.808 542.41 288.674 542.41 286.041V267.914C542.41 265.282 540.112 263.148 537.278 263.148Z" fill="#1E0728"/>
<path opacity="0.1" d="M476.733 296.886H407.591C404.757 296.886 402.46 299.02 402.46 301.652V319.779C402.46 322.412 404.757 324.546 407.591 324.546H476.733C479.567 324.546 481.864 322.412 481.864 319.779V301.652C481.864 299.02 479.567 296.886 476.733 296.886Z" fill="#1E0728"/>
<path opacity="0.2" d="M76.0864 2.76599H6.94535C4.1113 2.76599 1.81384 4.90016 1.81384 7.53277V25.6594C1.81384 28.292 4.1113 30.4262 6.94535 30.4262H76.0864C78.9205 30.4262 81.2179 28.292 81.2179 25.6594V7.53277C81.2179 4.90016 78.9205 2.76599 76.0864 2.76599Z" fill="#EFE4F4"/>
<path opacity="0.2" d="M120.818 31.1921H51.6772C48.8431 31.1921 46.5457 33.3263 46.5457 35.9589V54.0855C46.5457 56.7181 48.8431 58.8523 51.6772 58.8523H120.818C123.652 58.8523 125.95 56.7181 125.95 54.0855V35.9589C125.95 33.3263 123.652 31.1921 120.818 31.1921Z" fill="#EFE4F4"/>
<path opacity="0.1" d="M912.273 50H843.131C840.297 50 838 52.1342 838 54.7668V72.8934C838 75.526 840.297 77.6602 843.131 77.6602H912.273C915.107 77.6602 917.404 75.526 917.404 72.8934V54.7668C917.404 52.1342 915.107 50 912.273 50Z" fill="#1E0728"/>
<path opacity="0.1" d="M991.273 149.365H922.131C919.297 149.365 917 151.499 917 154.132V172.258C917 174.891 919.297 177.025 922.131 177.025H991.273C994.107 177.025 996.404 174.891 996.404 172.258V154.132C996.404 151.499 994.107 149.365 991.273 149.365Z" fill="#1E0728"/>
<path opacity="0.2" d="M76.2726 59.6184H7.13149C4.29745 59.6184 2 61.7526 2 64.3852V82.5118C2 85.1444 4.29745 87.2786 7.13149 87.2786H76.2726C79.1067 87.2786 81.4041 85.1444 81.4041 82.5118V64.3852C81.4041 61.7526 79.1067 59.6184 76.2726 59.6184Z" fill="#EFE4F4"/>
<path opacity="0.1" d="M1388.73 121.705H1319.59C1316.76 121.705 1314.46 123.839 1314.46 126.471V144.598C1314.46 147.231 1316.76 149.365 1319.59 149.365H1388.73C1391.57 149.365 1393.86 147.231 1393.86 144.598V126.471C1393.86 123.839 1391.57 121.705 1388.73 121.705Z" fill="#1E0728"/>
<path opacity="0.1" d="M1405.27 60H1336.13C1333.3 60 1331 62.1342 1331 64.7668V82.8934C1331 85.526 1333.3 87.6602 1336.13 87.6602H1405.27C1408.11 87.6602 1410.4 85.526 1410.4 82.8934V64.7668C1410.4 62.1342 1408.11 60 1405.27 60Z" fill="#1E0728"/>
<path opacity="0.1" d="M768.273 94.9666H699.132C696.297 94.9666 694 97.1007 694 99.7333V117.86C694 120.493 696.297 122.627 699.132 122.627H768.273C771.107 122.627 773.404 120.493 773.404 117.86V99.7333C773.404 97.1007 771.107 94.9666 768.273 94.9666Z" fill="#1E0728"/>
<path opacity="0.1" d="M767.409 219.437H698.267C695.433 219.437 693.136 221.572 693.136 224.204V242.331C693.136 244.963 695.433 247.098 698.267 247.098H767.409C770.243 247.098 772.54 244.963 772.54 242.331V224.204C772.54 221.572 770.243 219.437 767.409 219.437Z" fill="#1E0728"/>
<path opacity="0.1" d="M706.863 249.864H637.722C634.888 249.864 632.59 251.998 632.59 254.63V272.757C632.59 275.39 634.888 277.524 637.722 277.524H706.863C709.697 277.524 711.994 275.39 711.994 272.757V254.63C711.994 251.998 709.697 249.864 706.863 249.864Z" fill="#1E0728"/>
<path opacity="0.1" d="M1201.27 56.2423H1132.13C1129.3 56.2423 1127 58.3764 1127 61.0091V79.1357C1127 81.7683 1129.3 83.9025 1132.13 83.9025H1201.27C1204.11 83.9025 1206.4 81.7683 1206.4 79.1357V61.0091C1206.4 58.3764 1204.11 56.2423 1201.27 56.2423Z" fill="#1E0728"/>
<path opacity="0.1" d="M1054.73 253.886H985.591C982.757 253.886 980.46 256.02 980.46 258.652V276.779C980.46 279.412 982.757 281.546 985.591 281.546H1054.73C1057.57 281.546 1059.86 279.412 1059.86 276.779V258.652C1059.86 256.02 1057.57 253.886 1054.73 253.886Z" fill="#1E0728"/>
<path opacity="0.1" d="M1246.09 209.295H1176.95C1174.11 209.295 1171.81 211.429 1171.81 214.062V232.189C1171.81 234.821 1174.11 236.955 1176.95 236.955H1246.09C1248.92 236.955 1251.22 234.821 1251.22 232.189V214.062C1251.22 211.429 1248.92 209.295 1246.09 209.295Z" fill="#1E0728"/>
<path opacity="0.1" d="M1281.82 239.721H1212.68C1209.84 239.721 1207.55 241.856 1207.55 244.488V262.615C1207.55 265.247 1209.84 267.382 1212.68 267.382H1281.82C1284.65 267.382 1286.95 265.247 1286.95 262.615V244.488C1286.95 241.856 1284.65 239.721 1281.82 239.721Z" fill="#1E0728"/>
<path opacity="0.1" d="M1221.27 270.148H1152.13C1149.3 270.148 1147 272.282 1147 274.914V293.041C1147 295.674 1149.3 297.808 1152.13 297.808H1221.27C1224.11 297.808 1226.4 295.674 1226.4 293.041V274.914C1226.4 272.282 1224.11 270.148 1221.27 270.148Z" fill="#1E0728"/>
<path opacity="0.2" d="M43.1565 31.1921H4.84351C3.27309 31.1921 2 33.3263 2 35.9589V54.0855C2 56.7181 3.27309 58.8523 4.84351 58.8523H43.1565C44.7269 58.8523 46 56.7181 46 54.0855V35.9589C46 33.3263 44.7269 31.1921 43.1565 31.1921Z" fill="#EFE4F4"/>
<path opacity="0.2" d="M93.2726 88H24.1315C21.2974 88 19 90.1342 19 92.7668V110.893C19 113.526 21.2974 115.66 24.1315 115.66H93.2726C96.1067 115.66 98.4041 113.526 98.4041 110.893V92.7668C98.4041 90.1342 96.1067 88 93.2726 88Z" fill="#EFE4F4"/>
<path opacity="0.2" d="M173.818 88.1921H104.677C101.843 88.1921 99.5457 90.3263 99.5457 92.9589V111.086C99.5457 113.718 101.843 115.852 104.677 115.852H173.818C176.652 115.852 178.95 113.718 178.95 111.086V92.9589C178.95 90.3263 176.652 88.1921 173.818 88.1921Z" fill="#EFE4F4"/>
<path opacity="0.2" d="M334.273 270H265.132C262.297 270 260 272.134 260 274.767V292.893C260 295.526 262.297 297.66 265.132 297.66H334.273C337.107 297.66 339.404 295.526 339.404 292.893V274.767C339.404 272.134 337.107 270 334.273 270Z" fill="#EFE4F4"/>
<path opacity="0.2" d="M607.273 16H538.132C535.297 16 533 18.1342 533 20.7668V38.8934C533 41.526 535.297 43.6602 538.132 43.6602H607.273C610.107 43.6602 612.404 41.526 612.404 38.8934V20.7668C612.404 18.1342 610.107 16 607.273 16Z" fill="#EFE4F4"/>
<path opacity="0.2" d="M360.273 50H291.132C288.297 50 286 52.1342 286 54.7668V72.8934C286 75.526 288.297 77.6602 291.132 77.6602H360.273C363.107 77.6602 365.404 75.526 365.404 72.8934V54.7668C365.404 52.1342 363.107 50 360.273 50Z" fill="#EFE4F4"/>
<path opacity="0.2" d="M1428.27 297H1359.13C1356.3 297 1354 299.134 1354 301.767V319.893C1354 322.526 1356.3 324.66 1359.13 324.66H1428.27C1431.11 324.66 1433.4 322.526 1433.4 319.893V301.767C1433.4 299.134 1431.11 297 1428.27 297Z" fill="#EFE4F4"/>
<path opacity="0.2" d="M95.2726 203H26.1315C23.2974 203 21 205.134 21 207.767V225.893C21 228.526 23.2974 230.66 26.1315 230.66H95.2726C98.1067 230.66 100.404 228.526 100.404 225.893V207.767C100.404 205.134 98.1067 203 95.2726 203Z" fill="#EFE4F4"/>
<path d="M1301 371.551C1350.15 371.551 1390 366.722 1390 360.764C1390 354.807 1350.15 349.978 1301 349.978C1251.85 349.978 1212 354.807 1212 360.764C1212 366.722 1251.85 371.551 1301 371.551Z" fill="#585590" fill-opacity="0.5"/>
<path d="M1394.31 199.883L1379.01 166.088L1373.51 166.723L1368.59 167.203C1368.71 165.932 1368.93 161.372 1365.87 158.981C1365.58 158.162 1364.8 157.231 1363.29 156.183C1355.98 151.077 1354.45 161.521 1354.45 161.521C1354.45 161.521 1352.78 163.725 1350.48 166.806L1349.28 166.631L1348.94 168.905C1343.85 175.755 1337.08 185.024 1337.08 185.895C1337.08 187.289 1336.17 189.143 1336.17 189.143C1336.17 189.143 1330.99 195.641 1329.15 198.893C1328.09 200.811 1326.53 202.547 1324.56 203.999C1324.56 203.999 1324.12 204.256 1323.4 204.634C1323.44 204.019 1323.58 203.411 1323.81 202.821C1324.48 201.16 1326.03 199.737 1326.45 198.029C1326.54 197.619 1326.58 197.203 1326.55 196.787C1326.65 194.783 1325.37 192.811 1324.84 190.807C1324.21 188.486 1324.55 185.93 1322.92 183.913C1321.67 182.373 1319.45 181.414 1317.14 180.972C1315.02 180.569 1312.94 180.712 1310.8 180.54C1308.84 180.382 1306.96 179.721 1305 179.477C1303.96 179.303 1302.87 179.303 1301.82 179.477C1298.51 180.172 1297.47 183.354 1294.91 185.104C1293.98 185.739 1292.85 186.177 1292.02 186.873C1290.8 187.886 1290.38 189.299 1290.44 190.683C1290.43 191.148 1290.47 191.612 1290.55 192.071C1290.87 193.732 1291.71 195.304 1292.22 196.933C1292.61 198.139 1292.82 199.373 1292.84 200.614C1292.84 200.893 1292.84 201.173 1292.81 201.449C1292.83 202.008 1292.63 202.559 1292.25 203.037C1291.78 203.523 1291.02 203.758 1290.34 204.069C1288.12 202.726 1286.45 200.925 1285.53 198.88C1285.53 198.88 1285.42 198.988 1285.23 199.197V198.88C1285.23 198.88 1281.06 194.218 1280.42 190.41L1281.87 190.525L1285.21 154.783L1276.69 153.83C1276.45 151.985 1275.8 149.308 1274.09 147.355C1275.52 145.208 1276.24 142.302 1269.97 142.013C1262.62 141.674 1263.07 146.027 1263.85 148.409C1263.5 149.709 1263.36 151.037 1263.44 152.363L1255.93 151.531L1255.88 151.994H1254.1L1248.63 188.457L1253.29 188.279L1270.35 189.632C1271.72 199.074 1273.86 210.741 1276.41 213.491C1276.49 213.584 1276.59 213.672 1276.69 213.755V230.462C1276.69 230.462 1276.38 252.056 1271.2 255.527C1274.38 254.666 1277.74 254.264 1281.12 254.343C1281.06 254.486 1281 254.638 1280.94 254.8C1280.18 256.931 1279.66 259.107 1279.36 261.304C1279.29 261.788 1279.22 262.294 1279.17 262.822C1278.69 267.659 1278.78 272.519 1279.43 277.344C1281.57 294.518 1284.92 306.82 1284.92 306.82L1285.86 316.804C1285.86 316.804 1284.94 333.747 1287.38 339.317C1288.3 339.961 1289.35 340.481 1290.5 340.857C1290.52 341.016 1290.55 341.174 1290.57 341.343C1290.59 341.511 1290.62 341.771 1290.65 341.994C1289.56 342.372 1287.52 343.871 1287.07 349.758C1287.07 349.758 1287.68 354.169 1286.16 356.256C1284.64 358.342 1285.55 364.379 1290.12 365.074C1293.05 365.484 1296.04 365.484 1298.97 365.074C1298.97 365.074 1301.1 365.074 1299.57 359.272L1299.31 357.786C1299.27 354.912 1299.43 351.835 1300.18 350.917C1301.71 349.06 1299.57 347.205 1299.57 347.205C1299.57 347.205 1299.42 347.269 1299.18 347.354C1298.79 345.751 1298.27 343.147 1298.46 341.159C1298.46 340.99 1298.49 340.841 1298.52 340.666C1299.45 340.296 1300.32 339.841 1301.1 339.31V317.268C1301.1 317.268 1300.8 283.384 1304.15 282.685C1304.15 282.685 1305.67 294.985 1305.07 301.022C1304.46 307.058 1305.98 313.556 1305.98 313.556L1306.59 338.158C1306.59 338.158 1307.17 338.37 1308.12 338.621L1308.05 339.069C1307.68 341.803 1307.09 345.932 1306.54 348.459C1306.18 348.57 1305.85 348.746 1305.59 348.973C1305.34 349.199 1305.15 349.47 1305.06 349.761C1304.15 352.083 1304.76 357.885 1302.93 359.511C1301.84 360.463 1300.55 362.404 1301.19 363.776C1300.79 364.979 1300.96 366.859 1305.67 367.17C1312.68 367.634 1315.74 364.849 1315.74 364.849C1315.74 364.849 1316.65 363.69 1315.74 361.6C1314.82 359.511 1316.04 355.798 1316.04 355.798C1316.04 355.798 1316.69 352.648 1315.62 352.235C1315.53 351.861 1315.45 351.622 1315.45 351.622C1315.46 350.909 1315.12 350.218 1314.48 349.692C1314.46 347.262 1314.59 342.769 1315.71 339.809C1315.78 339.641 1315.84 339.491 1315.91 339.317C1316.82 339.198 1317.69 338.965 1318.49 338.628C1318.49 338.628 1318.19 333.289 1320.32 329.577C1322.46 325.865 1321.24 311.009 1321.24 311.009C1321.24 311.009 1320.32 307.106 1321.61 303.943C1323.09 300.438 1324.2 296.849 1324.93 293.209L1326.73 283.622C1326.73 283.622 1331.46 271.952 1325.22 259.973C1324.97 259.478 1324.69 258.982 1324.39 258.487C1323.87 257.626 1323.3 256.762 1322.65 255.905C1322.55 255.772 1322.44 255.635 1322.34 255.502C1323 255.378 1323.37 255.305 1323.37 255.305C1323.37 255.305 1315.13 240.697 1320.32 233.256C1320.32 233.256 1323.24 231.033 1323.65 228.591C1324.17 225.362 1324.74 222.135 1325.66 218.959L1325.82 218.401C1325.82 218.401 1325.85 218.293 1325.89 218.099C1326.01 218.042 1326.12 217.981 1326.23 217.918C1335.02 213.034 1342.6 192.64 1342.6 192.64L1345.04 189.146L1346.2 187.279L1343.82 203.072L1362.42 206.565L1374.31 205.869L1374.28 203.923L1383.34 203.386L1394.31 199.883ZM1276.39 153.836L1273.08 153.468C1272.5 151.197 1272.11 149.708 1272.11 149.708C1272.8 149.056 1273.42 148.358 1273.94 147.622C1275.54 149.483 1276.15 152.023 1276.39 153.824V153.836ZM1264.04 148.962C1264.27 149.559 1264.48 149.943 1264.48 149.943L1264.9 152.563L1263.77 152.439C1263.71 151.272 1263.8 150.102 1264.05 148.949L1264.04 148.962ZM1368.28 167.257L1363.8 167.695C1364.43 166.285 1365.21 163.973 1364.76 161.88C1365.2 161.575 1365.54 161.197 1365.75 160.775C1365.96 160.354 1366.04 159.9 1365.99 159.451C1368.64 161.868 1368.39 166.136 1368.28 167.247V167.257ZM1360.85 163.633C1362.18 163.294 1363.42 162.765 1364.49 162.074C1364.88 164.129 1364.07 166.387 1363.47 167.727L1359.29 168.133L1358.14 167.965L1360.85 163.633Z" fill="url(#paint0_linear)"/>
<path d="M1393.51 200.483L1382.62 203.942L1369.97 170.378L1372.94 167.698L1378.38 167.057L1393.51 200.483Z" fill="#2F0428"/>
<path opacity="0.2" d="M1393.51 200.483L1382.62 203.942L1369.97 170.378L1372.94 167.698L1378.38 167.057L1393.51 200.483Z" fill="white"/>
<path d="M1372.94 167.698L1354.05 169.543L1363.73 205.06L1382.62 203.942L1372.94 167.698Z" fill="#F2B2E0"/>
<path opacity="0.07" d="M1372.94 167.698L1354.05 169.543L1363.73 205.06L1382.62 203.942L1372.94 167.698Z" fill="white"/>
<path d="M1368.03 168.498L1367.73 168.47C1367.73 168.384 1368.98 160 1362.07 158.943L1362.13 158.717C1369.34 159.819 1368.06 168.413 1368.03 168.498Z" fill="#535461"/>
<path d="M1318.95 192.97H1298.14V216.155H1318.95V192.97Z" fill="#774E55"/>
<path opacity="0.2" d="M1318.95 192.97H1298.14V216.155H1318.95V192.97Z" fill="black"/>
<path d="M1373.69 206.397L1361.93 207.086L1363.74 172.195L1367.66 170.359L1373.09 171.048L1373.69 206.397Z" fill="#2F0428"/>
<path opacity="0.2" d="M1373.69 206.397L1361.93 207.086L1363.74 172.195L1367.66 170.359L1373.09 171.048L1373.69 206.397Z" fill="#FF00D6"/>
<path d="M1367.66 170.359L1348.96 167.603L1343.53 203.643L1361.93 207.086L1367.66 170.359Z" fill="#F2B2E0"/>
<path d="M1257.57 153.144H1254.86L1249.43 189.181L1261.49 188.724L1257.57 153.144Z" fill="#B73DE1"/>
<path opacity="0.2" d="M1257.57 153.144H1254.86L1249.43 189.181L1261.49 188.724L1257.57 153.144Z" fill="#462643"/>
<path d="M1256.67 152.684L1253.35 188.953L1282.3 191.249L1285.62 155.897L1256.67 152.684Z" fill="#F2B2E0"/>
<path d="M1291.66 340.914C1291.66 340.914 1288.04 340.685 1287.43 348.72C1287.43 348.72 1288.04 353.08 1286.53 355.147C1285.02 357.215 1285.92 363.182 1290.45 363.871C1293.35 364.277 1296.32 364.277 1299.21 363.871C1299.21 363.871 1301.32 363.871 1299.82 358.132L1296.8 341.374L1291.66 340.914Z" fill="#5F3B54"/>
<path opacity="0.05" d="M1291.66 340.914C1291.66 340.914 1288.04 340.685 1287.43 348.72C1287.43 348.72 1288.04 353.08 1286.53 355.147C1285.02 357.215 1285.92 363.182 1290.45 363.871C1293.35 364.277 1296.32 364.277 1299.21 363.871C1299.21 363.871 1301.32 363.871 1299.82 358.132L1296.8 341.374L1291.66 340.914Z" fill="black"/>
<path d="M1310.62 208.359C1310.36 211.776 1311.26 213.758 1311.26 213.758L1303.42 215.365C1303.42 215.365 1290.45 216.743 1295.58 212.824C1297.35 211.474 1298.22 209.159 1298.6 206.714C1298.84 205.044 1298.91 203.362 1298.82 201.684C1298.75 200.111 1298.58 198.542 1298.29 196.984C1298.29 196.984 1317.29 191.935 1313.07 200.198C1312.3 201.692 1311.69 203.232 1311.25 204.802C1310.93 205.974 1310.72 207.163 1310.62 208.359Z" fill="#FDA57D"/>
<path opacity="0.1" d="M1313.07 200.201C1312.3 201.696 1311.69 203.236 1311.25 204.806C1309 205.169 1306.67 205.072 1304.49 204.524C1302.3 203.977 1300.35 202.998 1298.82 201.687C1298.75 200.114 1298.58 198.546 1298.29 196.987C1298.29 196.987 1317.29 191.938 1313.07 200.201Z" fill="black"/>
<path d="M1308.55 204.561C1315.71 204.561 1321.51 200.142 1321.51 194.691C1321.51 189.24 1315.71 184.821 1308.55 184.821C1301.38 184.821 1295.58 189.24 1295.58 194.691C1295.58 200.142 1301.38 204.561 1308.55 204.561Z" fill="#FDA57D"/>
<path d="M1299.8 347.799C1299.8 347.799 1289.54 351.013 1290.75 348.028C1291.48 346.217 1291.21 342.797 1290.88 340.406C1290.67 338.847 1290.44 337.71 1290.44 337.71L1299.2 338.399C1298.9 338.981 1298.73 339.599 1298.7 340.225C1298.41 343.27 1299.8 347.799 1299.8 347.799Z" fill="#FDA57D"/>
<path d="M1315.74 338.869C1314.16 343.048 1314.58 350.327 1314.58 350.327C1314.58 350.327 1305.22 351.244 1306.13 349.409C1306.76 348.139 1307.68 341.845 1308.18 338.145C1308.4 336.528 1308.54 335.407 1308.54 335.407L1316.99 336.786C1316.41 337.418 1315.99 338.123 1315.74 338.869V338.869Z" fill="#FDA57D"/>
<path opacity="0.1" d="M1290.44 337.7L1299.21 338.389C1298.9 338.971 1298.73 339.589 1298.7 340.215C1297.5 340.693 1296.18 340.957 1294.83 340.988C1293.48 341.02 1292.13 340.817 1290.9 340.396C1290.68 338.834 1290.44 337.7 1290.44 337.7Z" fill="black"/>
<path opacity="0.1" d="M1316.99 336.783C1316.41 337.415 1315.99 338.122 1315.74 338.869C1312.89 339.218 1309.9 338.605 1308.18 338.145C1308.4 336.528 1308.54 335.407 1308.54 335.407L1316.99 336.783Z" fill="black"/>
<path d="M1326.64 283.295L1324.86 292.778C1324.14 296.377 1323.05 299.927 1321.59 303.394C1320.31 306.522 1321.21 310.38 1321.21 310.38C1321.21 310.38 1322.42 325.071 1320.31 328.745C1318.2 332.419 1318.5 337.697 1318.5 337.697C1313.67 339.765 1306.73 337.237 1306.73 337.237L1306.13 312.905C1306.13 312.905 1304.62 306.477 1305.22 300.52C1305.83 294.562 1304.32 282.387 1304.32 282.387C1300.98 283.076 1301.3 316.589 1301.3 316.589V338.396C1294.06 343.216 1287.73 338.396 1287.73 338.396C1285.32 332.886 1286.22 316.128 1286.22 316.128L1285.32 306.258C1285.32 306.258 1281.98 294.092 1279.89 277.106C1279.25 272.333 1279.16 267.526 1279.63 262.742C1279.69 262.221 1279.76 261.721 1279.83 261.24C1280.11 259.068 1280.64 256.917 1281.39 254.809C1281.63 254.114 1281.93 253.434 1282.3 252.774L1314.71 253.92L1316.62 253.987L1321.21 254.149C1321.71 254.724 1322.19 255.308 1322.62 255.892C1323.26 256.74 1323.83 257.594 1324.34 258.433C1324.63 258.922 1324.91 259.414 1325.17 259.903C1331.34 271.745 1326.64 283.295 1326.64 283.295Z" fill="#413870"/>
<path opacity="0.1" d="M1291.05 255.063C1291.05 255.063 1289.63 265.861 1279.63 262.736C1279.69 262.215 1279.75 261.714 1279.82 261.234C1282.17 261.72 1288.69 262.39 1288.93 255.06L1291.05 255.063Z" fill="black"/>
<path opacity="0.1" d="M1325.16 259.906C1318.23 261.789 1315.62 256.775 1314.73 253.914L1316.64 253.981C1317.68 258.48 1321.82 258.744 1324.35 258.426C1324.63 258.928 1324.9 259.42 1325.16 259.906Z" fill="black"/>
<path d="M1294.34 346.579C1292.8 346.395 1290.45 345.751 1291.19 343.499C1291.19 343.499 1288.34 342.75 1288.64 351.702C1288.64 351.702 1288.34 356.062 1287.73 356.983C1287.13 357.904 1287.73 363.41 1294.07 362.95C1294.07 362.95 1298.59 364.096 1299.8 362.261C1299.8 362.261 1298.89 351.702 1300.4 349.876C1301.91 348.05 1299.8 346.202 1299.8 346.202C1299.8 346.202 1297.66 347.103 1296.12 346.837C1295.54 346.713 1294.94 346.652 1294.34 346.579Z" fill="#5F3B54"/>
<path d="M1301.91 361.572C1301.91 361.572 1298.89 365.475 1305.83 365.932C1312.77 366.389 1315.78 363.636 1315.78 363.636C1315.78 363.636 1316.69 362.49 1315.78 360.422C1314.88 358.355 1316.08 354.684 1316.08 354.684C1316.08 354.684 1316.99 350.324 1314.88 351.241C1312.76 352.159 1301.91 361.572 1301.91 361.572Z" fill="#5F3B54"/>
<path opacity="0.05" d="M1301.91 361.572C1301.91 361.572 1298.89 365.475 1305.83 365.932C1312.77 366.389 1315.78 363.636 1315.78 363.636C1315.78 363.636 1316.69 362.49 1315.78 360.422C1314.88 358.355 1316.08 354.684 1316.08 354.684C1316.08 354.684 1316.99 350.324 1314.88 351.241C1312.76 352.159 1301.91 361.572 1301.91 361.572Z" fill="black"/>
<path d="M1309.75 347.57C1309.75 347.57 1306.13 346.424 1305.23 348.717C1304.32 351.009 1304.93 356.751 1303.12 358.358C1301.31 359.965 1298.89 364.325 1306.13 364.096C1313.37 363.868 1314.9 362.029 1314.9 362.029C1314.9 362.029 1314.6 356.291 1315.5 354.684C1316.41 353.077 1315.5 350.555 1315.5 350.555C1315.5 350.555 1315.78 347.326 1309.75 347.57Z" fill="#5F3B54"/>
<path opacity="0.2" d="M1264.51 156.358C1264.84 156.358 1265.11 156.152 1265.11 155.897C1265.11 155.643 1264.84 155.437 1264.51 155.437C1264.17 155.437 1263.9 155.643 1263.9 155.897C1263.9 156.152 1264.17 156.358 1264.51 156.358Z" fill="black"/>
<path opacity="0.2" d="M1277.18 157.504C1277.51 157.504 1277.78 157.298 1277.78 157.044C1277.78 156.79 1277.51 156.583 1277.18 156.583C1276.84 156.583 1276.57 156.79 1276.57 157.044C1276.57 157.298 1276.84 157.504 1277.18 157.504Z" fill="black"/>
<path d="M1277.33 157.047H1277.03C1277.03 156.948 1277.24 147.266 1269.93 146.374C1268.49 146.199 1267.32 146.447 1266.44 147.11C1263.42 149.387 1264.67 155.818 1264.68 155.881L1264.38 155.916C1264.33 155.646 1263.1 149.305 1266.23 146.948C1267.18 146.227 1268.45 145.958 1269.98 146.145C1277.54 147.066 1277.33 156.948 1277.33 157.047Z" fill="#535461"/>
<path d="M1362.67 169.95L1362.4 169.851C1362.44 169.775 1367.09 162.112 1360.95 159.441L1361.1 159.241C1367.48 162.017 1362.72 169.87 1362.67 169.95Z" fill="#535461"/>
<path opacity="0.1" d="M1311.26 213.745L1303.42 215.352C1303.42 215.352 1290.45 216.73 1295.58 212.811C1297.35 211.462 1298.22 209.147 1298.6 206.701C1300.65 209.147 1303.12 208.451 1303.12 208.451L1310.59 208.34H1310.62C1310.36 211.776 1311.26 213.745 1311.26 213.745Z" fill="black"/>
<path opacity="0.1" d="M1326.14 218.315C1325.64 218.598 1325.1 218.836 1324.53 219.023L1322.72 208.003L1324.39 204.802L1324.81 204.558C1328.57 205.374 1326.63 215.93 1326.14 218.315Z" fill="black"/>
<path opacity="0.1" d="M1285.62 199.512V202.497L1278.99 215.581L1277.18 214.202C1277.08 214.121 1276.98 214.034 1276.9 213.942C1277.69 207.121 1285.62 199.512 1285.62 199.512Z" fill="black"/>
<path opacity="0.1" d="M1322.62 255.886C1318.4 256.689 1296.38 260.627 1289.84 256.899C1287.27 255.429 1284.23 254.889 1281.39 254.803C1281.63 254.108 1281.93 253.428 1282.3 252.767L1314.71 253.914L1316.62 253.981L1321.21 254.143C1321.71 254.72 1322.18 255.302 1322.62 255.886Z" fill="black"/>
<path d="M1265.87 145.224C1265.87 145.224 1270.39 150.962 1273.41 145.224Z" fill="#BF7A47"/>
<path d="M1358.91 157.044C1358.91 157.044 1357.1 163.932 1364.34 160.718Z" fill="#E29454"/>
<g opacity="0.1">
<path opacity="0.1" d="M1302.92 284.651C1302.77 283.254 1302.66 282.38 1302.66 282.38C1299.32 283.069 1299.65 316.582 1299.65 316.582V338.389C1297.53 339.799 1295.47 340.384 1293.66 340.508C1295.84 340.654 1298.43 340.19 1301.17 338.389V316.582C1301.17 316.582 1300.93 292.298 1302.92 284.651Z" fill="black"/>
<path opacity="0.1" d="M1325.01 259.906C1324.75 259.417 1324.48 258.925 1324.17 258.436C1323.66 257.585 1323.09 256.731 1322.46 255.895C1322.04 255.311 1321.55 254.73 1321.05 254.152L1316.46 253.99L1314.55 253.923L1282.14 252.777L1282.11 252.828L1313.04 253.923L1314.95 253.99L1319.54 254.152C1320.04 254.727 1320.51 255.311 1320.95 255.895C1321.59 256.743 1322.16 257.598 1322.67 258.436C1322.96 258.925 1323.23 259.417 1323.5 259.906C1329.67 271.752 1324.99 283.295 1324.99 283.295L1323.21 292.777C1322.49 296.377 1321.39 299.927 1319.93 303.394C1318.65 306.522 1319.56 310.38 1319.56 310.38C1319.56 310.38 1320.76 325.071 1318.65 328.745C1316.54 332.419 1316.84 337.697 1316.84 337.697C1315.68 338.176 1314.38 338.447 1313.06 338.491C1314.89 338.616 1316.72 338.341 1318.35 337.697C1318.35 337.697 1318.05 332.416 1320.16 328.745C1322.27 325.074 1321.06 310.38 1321.06 310.38C1321.06 310.38 1320.16 306.519 1321.43 303.394C1322.9 299.927 1323.99 296.377 1324.71 292.777L1326.49 283.295C1326.49 283.295 1331.17 271.745 1325.01 259.906Z" fill="black"/>
</g>
<path d="M1310.59 208.81C1314.77 210.306 1324.53 204.561 1324.53 204.561C1328.75 205.479 1325.74 218.794 1325.74 218.794L1325.57 219.347C1324.66 222.488 1324.1 225.679 1323.59 228.874C1323.2 231.284 1320.31 233.488 1320.31 233.488C1315.18 240.833 1323.33 255.295 1323.33 255.295C1323.33 255.295 1297.08 260.576 1289.85 256.442C1282.61 252.307 1271.75 255.524 1271.75 255.524C1276.88 252.082 1277.18 230.732 1277.18 230.732V214.218C1277.78 207.33 1285.94 199.528 1285.94 199.528C1289.28 206.644 1298.55 207.114 1298.55 207.114C1300.61 209.655 1303.14 208.94 1303.14 208.94L1310.59 208.81Z" fill="#5E1C3E"/>
<path opacity="0.1" d="M1305.17 180.782C1304.13 180.611 1303.06 180.611 1302.03 180.782C1298.75 181.471 1297.72 184.618 1295.19 186.345C1294.28 186.981 1293.15 187.406 1292.33 188.095C1290.86 189.321 1290.56 191.138 1290.87 192.779C1291.19 194.421 1292.02 195.977 1292.54 197.587C1293.06 199.199 1293.25 200.86 1293.12 202.516C1293.14 203.065 1292.94 203.606 1292.56 204.075C1291.96 204.71 1290.85 204.91 1290.06 205.418C1287.67 206.987 1289.64 210.242 1287.89 212.246C1287.13 213.113 1285.72 213.685 1285.43 214.701C1285.23 215.422 1285.66 216.149 1286.08 216.813C1287.2 218.559 1288.36 220.354 1290.26 221.656C1292.15 222.958 1294.49 223.612 1296.82 224.275C1297.53 224.476 1298.41 224.65 1298.95 224.253C1299.61 223.758 1299.11 222.919 1298.65 222.307C1297.93 221.354 1297.36 220.204 1297.78 219.131C1298.21 218.058 1299.57 217.346 1300.49 216.451C1302.86 214.132 1302.08 210.804 1300.91 208.01C1300.41 206.832 1299.85 205.577 1300.28 204.38C1300.46 203.866 1300.81 203.399 1301.03 202.894C1302.04 200.645 1300.35 198.178 1300.85 195.834C1301.1 194.919 1301.52 194.035 1302.1 193.208L1304.75 188.873C1305.02 188.352 1305.41 187.875 1305.92 187.47C1306.74 186.966 1307.79 186.718 1308.84 186.777C1309.92 186.796 1310.97 186.98 1311.95 187.319C1312.93 187.658 1313.81 188.145 1314.53 188.749C1317.37 191.15 1317.19 194.783 1316.84 197.984L1316.6 200.296C1316.42 201.96 1316.18 203.735 1314.8 205.031C1313.73 206.035 1312 206.717 1311.56 207.969C1311.17 209.045 1311.9 210.214 1311.52 211.29C1310.95 212.9 1308.34 213.481 1306.96 214.783C1306.38 215.349 1306.03 216.035 1305.97 216.752C1305.91 217.468 1306.13 218.182 1306.61 218.801C1307.14 219.436 1307.98 220.071 1307.87 220.817C1307.77 221.417 1307.06 221.903 1307.06 222.507C1307.1 222.777 1307.24 223.032 1307.47 223.24C1307.7 223.448 1308 223.599 1308.35 223.672C1309.04 223.808 1309.76 223.834 1310.46 223.748L1317.94 223.234C1318.41 223.232 1318.87 223.136 1319.27 222.954C1319.8 222.669 1319.97 222.141 1320.04 221.656C1320.34 219.63 1319.62 217.416 1320.95 215.644C1321.37 215.076 1321.98 214.602 1322.44 214.056C1325 211.008 1322.42 206.873 1323.81 203.415C1324.47 201.773 1326.01 200.363 1326.42 198.677C1326.96 196.428 1325.42 194.231 1324.82 192.008C1324.21 189.712 1324.54 187.184 1322.93 185.186C1321.7 183.662 1319.49 182.713 1317.22 182.277C1315.13 181.877 1313.04 182.02 1310.96 181.849C1308.96 181.674 1307.11 181.02 1305.17 180.782Z" fill="black"/>
<path d="M1305.17 180.321C1304.13 180.15 1303.06 180.15 1302.03 180.321C1298.75 181.01 1297.72 184.157 1295.19 185.885C1294.28 186.52 1293.15 186.946 1292.33 187.635C1290.86 188.861 1290.56 190.677 1290.87 192.319C1291.19 193.961 1292.02 195.517 1292.54 197.127C1293.06 198.739 1293.25 200.4 1293.12 202.055C1293.14 202.605 1292.94 203.146 1292.56 203.615C1291.96 204.25 1290.85 204.45 1290.06 204.958C1287.67 206.527 1289.64 209.782 1287.89 211.786C1287.13 212.653 1285.72 213.224 1285.43 214.24C1285.23 214.961 1285.66 215.689 1286.08 216.352C1287.2 218.099 1288.36 219.893 1290.26 221.195C1292.15 222.497 1294.49 223.151 1296.82 223.815C1297.53 224.015 1298.41 224.19 1298.95 223.793C1299.61 223.297 1299.11 222.459 1298.65 221.846C1297.93 220.893 1297.36 219.744 1297.78 218.67C1298.21 217.597 1299.57 216.886 1300.49 215.99C1302.86 213.672 1302.08 210.344 1300.91 207.549C1300.41 206.371 1299.85 205.117 1300.28 203.92C1300.46 203.405 1300.81 202.938 1301.03 202.433C1302.04 200.185 1300.35 197.718 1300.85 195.374C1301.1 194.459 1301.52 193.575 1302.1 192.748L1304.75 188.413C1305.02 187.891 1305.41 187.414 1305.92 187.009C1306.74 186.505 1307.79 186.258 1308.84 186.317C1309.92 186.335 1310.97 186.519 1311.95 186.858C1312.93 187.197 1313.81 187.684 1314.53 188.289C1317.37 190.69 1317.19 194.323 1316.84 197.524L1316.6 199.836C1316.42 201.5 1316.18 203.275 1314.8 204.571C1313.73 205.574 1312 206.257 1311.56 207.508C1311.17 208.585 1311.9 209.753 1311.52 210.83C1310.95 212.44 1308.34 213.021 1306.96 214.323C1306.38 214.889 1306.03 215.575 1305.97 216.291C1305.91 217.008 1306.13 217.722 1306.61 218.34C1307.14 218.975 1307.98 219.61 1307.87 220.357C1307.77 220.957 1307.06 221.443 1307.06 222.046C1307.1 222.316 1307.24 222.572 1307.47 222.78C1307.7 222.988 1308 223.138 1308.35 223.212C1309.04 223.348 1309.76 223.374 1310.46 223.288L1317.94 222.773C1318.41 222.772 1318.87 222.676 1319.27 222.494C1319.8 222.208 1319.97 221.681 1320.04 221.195C1320.34 219.169 1319.62 216.956 1320.95 215.184C1321.37 214.615 1321.98 214.142 1322.44 213.596C1325 210.547 1322.42 206.412 1323.81 202.954C1324.47 201.312 1326.01 199.902 1326.42 198.216C1326.96 195.968 1325.42 193.77 1324.82 191.547C1324.21 189.251 1324.54 186.723 1322.93 184.726C1321.7 183.202 1319.49 182.252 1317.22 181.817C1315.13 181.417 1313.04 181.56 1310.96 181.388C1308.96 181.217 1307.11 180.563 1305.17 180.321Z" fill="black"/>
<path opacity="0.1" d="M1289.09 232.91C1289.09 232.91 1295.12 234.288 1303.87 231.303H1308.39C1308.39 231.303 1308.69 234.517 1320.45 233.139" fill="black"/>
<path d="M1269.58 164.249L1271.83 169.735H1279.11L1273.22 173.125L1275.47 178.611L1269.58 175.221L1263.7 178.611L1265.94 173.125L1260.06 169.735H1267.33L1269.58 164.249Z" fill="#472F43"/>
<path d="M1285.62 199.512V202.497L1278.99 215.581L1277.18 214.202C1277.08 214.121 1276.98 214.034 1276.9 213.942C1272.52 209.204 1269.33 177.705 1269.33 177.705L1265.11 151.07C1265.11 151.07 1260.59 142.814 1270.54 143.265C1280.48 143.716 1272.65 150.839 1272.65 150.839C1272.65 150.839 1279.28 176.088 1278.38 177.006C1277.47 177.924 1278.38 180.68 1278.38 180.68C1278.38 180.68 1281.09 185.961 1280.79 189.861C1280.48 193.761 1285.62 199.512 1285.62 199.512Z" fill="#FDA57D"/>
<g style="mix-blend-mode:overlay" filter="url(#filter0_d)">
<path d="M1361.71 186.689C1361.48 186.586 1361.24 186.501 1361 186.43C1361.24 186.359 1361.48 186.274 1361.71 186.171C1363.32 185.451 1364.21 184.148 1364.22 182.806C1362.72 182.138 1360.82 182.086 1359.21 182.806C1358.98 182.909 1358.76 183.033 1358.56 183.156C1358.6 182.955 1358.63 182.747 1358.63 182.54C1358.63 181.101 1357.62 179.849 1356.12 179.175C1354.63 179.849 1353.62 181.101 1353.62 182.54C1353.62 182.747 1353.64 182.955 1353.68 183.156C1353.48 183.026 1353.27 182.903 1353.03 182.799C1351.43 182.08 1349.53 182.131 1348.03 182.799C1348.03 184.141 1348.92 185.445 1350.53 186.164C1350.76 186.268 1351.01 186.352 1351.25 186.424C1351.01 186.495 1350.76 186.579 1350.53 186.683C1348.93 187.403 1348.04 188.706 1348.03 190.048C1349.52 190.716 1351.42 190.768 1353.03 190.048C1353.27 189.944 1353.48 189.821 1353.68 189.698C1353.64 189.905 1353.62 190.113 1353.62 190.32C1353.62 191.76 1354.63 193.011 1356.12 193.685C1357.62 193.011 1358.63 191.76 1358.63 190.32C1358.63 190.113 1358.6 189.905 1358.56 189.704C1358.76 189.834 1358.98 189.951 1359.21 190.054C1360.81 190.774 1362.71 190.722 1364.22 190.054C1364.21 188.712 1363.32 187.409 1361.71 186.689V186.689ZM1356.12 189.024C1354.28 189.024 1352.78 187.863 1352.78 186.43C1352.78 184.997 1354.28 183.837 1356.12 183.837C1357.97 183.837 1359.46 184.997 1359.46 186.43C1359.46 187.863 1357.97 189.024 1356.12 189.024Z" fill="#41044A"/>
</g>
<path d="M1360.42 164.621L1344.73 189.87L1342.32 193.307C1342.32 193.307 1334.81 213.478 1326.14 218.308C1325.64 218.592 1325.1 218.829 1324.53 219.017L1322.72 207.997L1324.38 204.796L1324.51 204.552C1326.45 203.115 1327.98 201.398 1329.03 199.502C1330.84 196.288 1335.97 189.861 1335.97 189.861C1335.97 189.861 1336.88 188.025 1336.88 186.647C1336.88 185.269 1354.07 162.544 1354.07 162.544C1354.07 162.544 1355.58 152.214 1362.83 157.263C1370.09 162.312 1360.42 164.621 1360.42 164.621Z" fill="#FDA57D"/>
<path d="M1316.17 200.995C1311.56 202.412 1306.72 202.354 1301.69 200.995C1303.15 199.148 1300.96 197.702 1299.84 195.838L1318.64 195.425C1317.2 197.044 1315.08 198.958 1316.17 200.995Z" fill="white"/>
<path d="M1318.44 195.733L1318.22 195.572L1318.53 195.345L1320.37 193.758L1320.6 193.906L1318.75 195.499L1318.44 195.733Z" fill="white"/>
<path d="M1298.55 194.769L1298.35 194.943L1300.2 196.082L1300.4 195.907L1298.55 194.769Z" fill="white"/>
<path d="M1318.97 197.071L1315.73 200.826L1315.99 200.949L1319.23 197.193L1318.97 197.071Z" fill="white"/>
<path d="M1298.89 197.071L1298.63 197.193L1301.87 200.949L1302.13 200.826L1298.89 197.071Z" fill="white"/>
<path d="M269.999 367.779C264.244 378.737 58.5429 375.912 59.0008 365.873C64.7557 354.915 270.457 357.74 269.999 367.779Z" fill="#585591" fill-opacity="0.5"/>
<path d="M135.983 250.026L133.1 255.353L115.417 273.92C115.417 273.92 103.307 284.27 110.035 284.878C116.762 285.487 121.183 275.29 121.183 275.29L141.941 259.005L144.248 251.548L135.983 250.026Z" fill="#9F616A"/>
<path d="M145.091 227.96L142.283 228.578C142.283 228.578 129.674 254.907 130.836 258.105C131.998 261.303 137.229 265.262 139.553 264.957C141.878 264.653 145.091 227.96 145.091 227.96Z" fill="#B482C6"/>
<path d="M184.048 364.681C184.048 364.681 182.921 369.73 186.306 367.709C189.69 365.688 191.455 361.78 191.455 361.78L184.048 364.681Z" fill="#28256D"/>
<path d="M140.359 253.585C140.359 253.585 101.348 364.341 115.184 367.589C129.02 370.838 149.391 367.28 149.199 365.114C149.006 362.949 145.547 320.1 145.547 320.1C145.547 320.1 165.725 377.025 190.708 363.722C215.69 350.419 210.117 347.944 207.811 347.016C205.505 346.088 170.722 302.002 170.914 293.804C171.106 285.605 170.53 259.927 166.302 256.06L140.359 253.585Z" fill="#403C71"/>
<path d="M164.834 214.771C163.261 213.664 162.28 212.136 162.086 210.492C161.891 208.848 162.497 207.206 163.783 205.894C163.613 206.018 163.447 206.147 163.287 206.284C161.785 207.58 161.005 209.287 161.118 211.031C161.232 212.774 162.23 214.411 163.892 215.582C165.555 216.753 167.747 217.362 169.986 217.274C172.224 217.187 174.327 216.411 175.832 215.117C175.991 214.98 176.139 214.838 176.281 214.694C174.733 215.822 172.697 216.456 170.577 216.471C168.456 216.485 166.407 215.879 164.834 214.771V214.771Z" fill="#2F2E41"/>
<path d="M164.058 216.571C173.136 216.571 180.496 210.516 180.496 203.046C180.496 195.577 173.136 189.522 164.058 189.522C154.979 189.522 147.62 195.577 147.62 203.046C147.62 210.516 154.979 216.571 164.058 216.571Z" fill="#2F2E41"/>
<path d="M119.301 366.763C119.301 366.763 114.737 370.322 119.301 370.322C123.866 370.322 128.231 368.001 128.231 368.001L119.301 366.763Z" fill="#28256D"/>
<path d="M153.621 211.557C153.621 211.557 156.524 220.947 154.395 222.765C152.266 224.582 147.62 225.945 147.62 225.945L148.394 242.908C148.394 242.908 157.298 240.485 157.686 240.182C158.073 239.879 166.009 230.035 166.009 230.035L173.752 224.279C173.752 224.279 161.944 219.887 165.428 212.315C168.913 204.742 153.621 211.557 153.621 211.557Z" fill="#9F616A"/>
<path d="M170.591 208.099C171.474 203.739 167.777 199.631 162.333 198.923C156.889 198.215 151.759 201.177 150.876 205.537C149.992 209.897 153.69 214.005 159.134 214.713C164.578 215.421 169.707 212.46 170.591 208.099Z" fill="#9F616A"/>
<path d="M165.987 256.425C165.987 256.425 170.352 244.744 172.44 243.207C174.528 241.67 179.653 227.224 179.653 227.224C179.653 227.224 176.426 223.689 173.769 223.689C171.111 223.689 168.644 224.457 165.607 226.763C164.177 227.848 161.568 229.043 159.208 230.003C158.371 230.349 157.456 230.557 156.519 230.614C155.581 230.672 154.638 230.577 153.746 230.336C152.854 230.095 152.03 229.712 151.323 229.21C150.615 228.708 150.038 228.098 149.626 227.413C149.154 226.601 148.998 225.824 149.473 225.226C149.473 225.226 142.45 226.763 142.07 228.914C141.691 231.066 142.07 235.523 141.501 236.445C140.932 237.367 139.223 238.75 139.983 244.591C140.742 250.431 139.19 257.816 139.19 257.816C146.28 263.294 156.103 259.912 165.987 256.425Z" fill="#B482C6"/>
<path d="M160.264 204.47C164.92 204.47 168.694 202.399 168.694 199.843C168.694 197.288 164.92 195.217 160.264 195.217C155.609 195.217 151.835 197.288 151.835 199.843C151.835 202.399 155.609 204.47 160.264 204.47Z" fill="#2F2E41"/>
<path d="M175.016 199.487C179.439 199.487 183.025 196.619 183.025 193.081C183.025 189.543 179.439 186.675 175.016 186.675C170.594 186.675 167.008 189.543 167.008 193.081C167.008 196.619 170.594 199.487 175.016 199.487Z" fill="#2F2E41"/>
<path d="M180.917 197.681C178.909 197.681 176.974 197.062 175.497 195.946C174.019 194.83 173.106 193.3 172.939 191.657C172.921 191.838 172.909 192.02 172.909 192.205C172.909 193.947 173.753 195.618 175.254 196.85C176.755 198.082 178.791 198.775 180.914 198.776C183.037 198.776 185.074 198.085 186.576 196.854C188.078 195.623 188.923 193.953 188.926 192.211V192.205C188.926 192.02 188.914 191.838 188.896 191.657C188.729 193.3 187.816 194.83 186.338 195.946C184.86 197.062 182.925 197.681 180.917 197.681V197.681Z" fill="#2F2E41"/>
<path d="M161.574 296.294H158.888L153.521 334.02L171.223 333.541L161.574 296.294Z" fill="#B482C6"/>
<path opacity="0.2" d="M161.574 296.294H158.888L153.521 334.02L171.223 333.541L161.574 296.294Z" fill="black"/>
<path d="M160.98 295.582L157.736 333.739L197.483 336.155L200.727 298.963L160.98 295.582Z" fill="#B482C6"/>
<path opacity="0.2" d="M174.595 299.853C175.061 299.853 175.438 299.534 175.438 299.141C175.438 298.748 175.061 298.429 174.595 298.429C174.129 298.429 173.752 298.748 173.752 299.141C173.752 299.534 174.129 299.853 174.595 299.853Z" fill="black"/>
<path opacity="0.2" d="M186.818 300.564C187.051 300.564 187.24 300.405 187.24 300.209C187.24 300.012 187.051 299.853 186.818 299.853C186.585 299.853 186.397 300.012 186.397 300.209C186.397 300.405 186.585 300.564 186.818 300.564Z" fill="black"/>
<path d="M187.238 300.565H186.932C186.932 300.462 187.149 290.4 179.699 289.473C178.231 289.292 177.031 289.549 176.133 290.239C173.057 292.605 174.329 299.287 174.342 299.353L174.04 299.39C173.984 299.109 172.734 292.519 175.92 290.07C176.891 289.321 178.184 289.041 179.75 289.235C187.46 290.192 187.243 300.462 187.238 300.565Z" fill="#3F3D56"/>
<path d="M180.655 248.602L179.7 257.171L181.609 282.877C181.609 282.877 185.999 295.882 179.319 295.576C172.639 295.27 175.12 281.959 175.12 281.959L172.066 252.122L180.655 248.602Z" fill="#9F616A"/>
<path d="M174.711 225.113L179.758 227.262C179.758 227.262 186.552 263.789 182.67 267.32C178.788 270.852 170.829 272.234 170.441 270.852C170.053 269.47 168.694 241.388 168.694 241.388L174.711 225.113Z" fill="#B482C6"/>
<path d="M166.417 212.569C162.426 213.825 158.241 213.774 153.885 212.569C155.153 210.931 153.258 209.649 152.285 207.996L168.55 207.63C167.307 209.066 165.471 210.762 166.417 212.569Z" fill="white"/>
<path d="M168.378 207.903L168.189 207.76L168.456 207.558L170.049 206.151L170.252 206.283L168.652 207.695L168.378 207.903Z" fill="white"/>
<path d="M151.171 207.048L151 207.203L152.6 208.212L152.771 208.057L151.171 207.048Z" fill="white"/>
<path d="M168.838 209.089L166.037 212.419L166.262 212.527L169.063 209.198L168.838 209.089Z" fill="white"/>
<path d="M151.465 209.089L151.24 209.198L154.039 212.528L154.264 212.419L151.465 209.089Z" fill="white"/>
</g>
<defs>
<filter id="filter0_d" x="1344.03" y="179.175" width="24.1897" height="22.5103" filterUnits="userSpaceOnUse" color-interpolation-filters="sRGB">
<feFlood flood-opacity="0" result="BackgroundImageFix"/>
<feColorMatrix in="SourceAlpha" type="matrix" values="0 0 0 0 0 0 0 0 0 0 0 0 0 0 0 0 0 0 127 0"/>
<feOffset dy="4"/>
<feGaussianBlur stdDeviation="2"/>
<feColorMatrix type="matrix" values="0 0 0 0 0 0 0 0 0 0 0 0 0 0 0 0 0 0 0.25 0"/>
<feBlend mode="normal" in2="BackgroundImageFix" result="effect1_dropShadow"/>
<feBlend mode="normal" in="SourceGraphic" in2="effect1_dropShadow" result="shape"/>
</filter>
<linearGradient id="paint0_linear" x1="1321.47" y1="367.218" x2="1321.47" y2="142.02" gradientUnits="userSpaceOnUse">
<stop stop-color="#808080" stop-opacity="0.25"/>
<stop offset="0.54" stop-color="#808080" stop-opacity="0.12"/>
<stop offset="1" stop-color="#808080" stop-opacity="0.1"/>
</linearGradient>
<clipPath id="clip0">
<rect width="1440" height="378" fill="white"/>
</clipPath>
</defs>
</svg>
