<svg width="375" height="206" viewBox="0 0 375 206" fill="none" xmlns="http://www.w3.org/2000/svg">
<rect width="375" height="206" fill="white"/>
<rect width="375" height="189" fill="#DC6BE0"/>
<path opacity="0.2" d="M62.983 1.57935H24.67C23.0996 1.57935 21.8265 2.81385 21.8265 4.33669V14.822C21.8265 16.3448 23.0996 17.5793 24.67 17.5793H62.983C64.5535 17.5793 65.8265 16.3448 65.8265 14.822V4.33669C65.8265 2.81385 64.5535 1.57935 62.983 1.57935Z" fill="#EFE4F4"/>
<path opacity="0.2" d="M87.1565 22H48.8435C47.2731 22 46 23.2345 46 24.7573V35.2427C46 36.7655 47.2731 38 48.8435 38H87.1565C88.7269 38 90 36.7655 90 35.2427V24.7573C90 23.2345 88.7269 22 87.1565 22Z" fill="#EFE4F4"/>
<path opacity="0.1" d="M155.271 12.6351H116.958C115.387 12.6351 114.114 13.8696 114.114 15.3925V25.8778C114.114 27.4006 115.387 28.6351 116.958 28.6351H155.271C156.841 28.6351 158.114 27.4006 158.114 25.8778V15.3925C158.114 13.8696 156.841 12.6351 155.271 12.6351Z" fill="#1E0728"/>
<path opacity="0.1" d="M348.157 50H309.843C308.273 50 307 51.2345 307 52.7573V63.2427C307 64.7655 308.273 66 309.843 66H348.157C349.727 66 351 64.7655 351 63.2427V52.7573C351 51.2345 349.727 50 348.157 50Z" fill="#1E0728"/>
<path opacity="0.2" d="M63.1565 42H24.8435C23.2731 42 22 43.2345 22 44.7573V55.2427C22 56.7655 23.2731 58 24.8435 58H63.1565C64.7269 58 66 56.7655 66 55.2427V44.7573C66 43.2345 64.7269 42 63.1565 42Z" fill="#EFE4F4"/>
<path opacity="0.1" d="M78.7617 105.925H40.4487C38.8783 105.925 37.6052 107.159 37.6052 108.682V119.167C37.6052 120.69 38.8783 121.925 40.4487 121.925H78.7617C80.3321 121.925 81.6052 120.69 81.6052 119.167V108.682C81.6052 107.159 80.3321 105.925 78.7617 105.925Z" fill="#1E0728"/>
<path opacity="0.1" d="M100.067 125.298H61.7539C60.1835 125.298 58.9104 126.533 58.9104 128.055V138.541C58.9104 140.064 60.1835 141.298 61.7539 141.298H100.067C101.637 141.298 102.91 140.064 102.91 138.541V128.055C102.91 126.533 101.637 125.298 100.067 125.298Z" fill="#1E0728"/>
<path opacity="0.1" d="M72.2998 142.671H33.9868C32.4164 142.671 31.1433 143.906 31.1433 145.429V155.914C31.1433 157.437 32.4164 158.671 33.9868 158.671H72.2998C73.8702 158.671 75.1433 157.437 75.1433 155.914V145.429C75.1433 143.906 73.8702 142.671 72.2998 142.671Z" fill="#1E0728"/>
<path opacity="0.1" d="M299.618 117H261.305C259.735 117 258.462 118.235 258.462 119.757V130.243C258.462 131.765 259.735 133 261.305 133H299.618C301.189 133 302.462 131.765 302.462 130.243V119.757C302.462 118.235 301.189 117 299.618 117Z" fill="#1E0728"/>
<path opacity="0.1" d="M216.156 50H177.844C176.273 50 175 51.2345 175 52.7573V63.2427C175 64.7655 176.273 66 177.844 66H216.156C217.727 66 219 64.7655 219 63.2427V52.7573C219 51.2345 217.727 50 216.156 50Z" fill="#1E0728"/>
<path opacity="0.1" d="M320.924 136.373H282.611C281.04 136.373 279.767 137.608 279.767 139.131V149.616C279.767 151.139 281.04 152.373 282.611 152.373H320.924C322.494 152.373 323.767 151.139 323.767 149.616V139.131C323.767 137.608 322.494 136.373 320.924 136.373Z" fill="#1E0728"/>
<path opacity="0.1" d="M337.156 156H298.844C297.273 156 296 157.234 296 158.757V169.243C296 170.766 297.273 172 298.844 172H337.156C338.727 172 340 170.766 340 169.243V158.757C340 157.234 338.727 156 337.156 156Z" fill="#1E0728"/>
<path opacity="0.2" d="M185.156 90H146.843C145.273 90 144 91.2345 144 92.7573V103.243C144 104.765 145.273 106 146.843 106H185.156C186.727 106 188 104.765 188 103.243V92.7573C188 91.2345 186.727 90 185.156 90Z" fill="#EFE4F4"/>
<path opacity="0.2" d="M238.156 156H199.843C198.273 156 197 157.235 197 158.757V169.243C197 170.765 198.273 172 199.843 172H238.156C239.727 172 241 170.765 241 169.243V158.757C241 157.235 239.727 156 238.156 156Z" fill="#EFE4F4"/>
<path d="M80.9997 198.786C79.0632 205.105 9.8462 203.476 10.0003 197.688C11.9367 191.369 81.1538 192.998 80.9997 198.786Z" fill="#585591" fill-opacity="0.5"/>
<path d="M33.049 127.435L31.5211 130.583L22.1494 141.555C22.1494 141.555 15.7318 147.67 19.2971 148.03C22.8624 148.39 25.2053 142.364 25.2053 142.364L36.2069 132.741L37.4293 128.334L33.049 127.435Z" fill="#9F616A"/>
<path d="M37.8761 114.396L36.3879 114.761C36.3879 114.761 29.7054 130.32 30.3214 132.209C30.9374 134.099 33.7094 136.438 34.9414 136.258C36.1734 136.078 37.8761 114.396 37.8761 114.396Z" fill="#B482C6"/>
<path d="M58.5222 195.186C58.5222 195.186 57.9254 198.17 59.719 196.976C61.5126 195.782 62.4477 193.472 62.4477 193.472L58.5222 195.186Z" fill="#28256D"/>
<path d="M35.3683 129.538C35.3683 129.538 14.6934 194.985 22.0264 196.905C29.3593 198.824 40.1551 196.722 40.0532 195.442C39.9514 194.163 38.1182 168.843 38.1182 168.843C38.1182 168.843 48.812 202.481 62.0521 194.62C75.2922 186.759 72.3386 185.296 71.1165 184.748C69.8943 184.199 51.4601 158.148 51.5619 153.304C51.6638 148.459 51.3582 133.286 49.1176 131.001L35.3683 129.538Z" fill="#403C71"/>
<path d="M48.3394 106.603C47.5059 105.948 46.9861 105.046 46.883 104.074C46.7799 103.102 47.101 102.132 47.7827 101.357C47.6925 101.43 47.6043 101.506 47.5199 101.588C46.7237 102.353 46.3102 103.362 46.3704 104.392C46.4305 105.422 46.9593 106.39 47.8405 107.082C48.7217 107.774 49.8833 108.133 51.0698 108.082C52.2563 108.03 53.3708 107.572 54.1681 106.807C54.2526 106.726 54.3311 106.642 54.4062 106.557C53.5858 107.224 52.5068 107.598 51.3831 107.607C50.2594 107.615 49.173 107.257 48.3394 106.603V106.603Z" fill="#2F2E41"/>
<path d="M47.9283 107.666C52.7397 107.666 56.6401 104.088 56.6401 99.6741C56.6401 95.2604 52.7397 91.6824 47.9283 91.6824C43.1169 91.6824 39.2166 95.2604 39.2166 99.6741C39.2166 104.088 43.1169 107.666 47.9283 107.666Z" fill="#2F2E41"/>
<path d="M24.2082 196.417C24.2082 196.417 21.7892 198.52 24.2082 198.52C26.6271 198.52 28.9409 197.148 28.9409 197.148L24.2082 196.417Z" fill="#28256D"/>
<path d="M42.3968 104.704C42.3968 104.704 43.9356 110.252 42.8071 111.326C41.6787 112.4 39.2166 113.206 39.2166 113.206L39.6269 123.229C39.6269 123.229 44.346 121.797 44.5512 121.618C44.7563 121.439 48.9625 115.622 48.9625 115.622L53.066 112.221C53.066 112.221 46.8081 109.626 48.6547 105.151C50.5013 100.676 42.3968 104.704 42.3968 104.704Z" fill="#9F616A"/>
<path d="M51.3905 102.66C51.8587 100.083 49.8993 97.6556 47.014 97.2375C44.1288 96.8194 41.4102 98.5692 40.942 101.146C40.4738 103.722 42.4332 106.15 45.3185 106.568C48.2037 106.986 50.9223 105.236 51.3905 102.66Z" fill="#9F616A"/>
<path d="M48.9504 131.216C48.9504 131.216 51.2641 124.314 52.3706 123.406C53.4772 122.498 56.1933 113.961 56.1933 113.961C56.1933 113.961 54.4831 111.872 53.0748 111.872C51.6665 111.872 50.3587 112.326 48.7492 113.688C47.9913 114.33 46.6088 115.036 45.3581 115.603C44.9142 115.808 44.4296 115.931 43.9326 115.964C43.4355 115.998 42.936 115.942 42.4632 115.8C41.9904 115.657 41.5538 115.431 41.1788 115.135C40.8039 114.838 40.4982 114.477 40.2795 114.073C40.0295 113.593 39.9471 113.133 40.1986 112.78C40.1986 112.78 36.4766 113.688 36.2754 114.96C36.0742 116.231 36.2754 118.865 35.9736 119.41C35.6719 119.955 34.7665 120.772 35.1689 124.223C35.5713 127.674 34.7489 132.038 34.7489 132.038C38.5067 135.275 43.7126 133.277 48.9504 131.216Z" fill="#B482C6"/>
<path d="M45.9178 100.515C48.3852 100.515 50.3854 99.2913 50.3854 97.7814C50.3854 96.2714 48.3852 95.0474 45.9178 95.0474C43.4505 95.0474 41.4503 96.2714 41.4503 97.7814C41.4503 99.2913 43.4505 100.515 45.9178 100.515Z" fill="#2F2E41"/>
<path d="M53.7358 97.5711C56.0798 97.5711 57.98 95.8763 57.98 93.7856C57.98 91.6949 56.0798 90 53.7358 90C51.3918 90 49.4916 91.6949 49.4916 93.7856C49.4916 95.8763 51.3918 97.5711 53.7358 97.5711Z" fill="#2F2E41"/>
<path d="M56.8634 96.5039C55.7991 96.5038 54.7738 96.1378 53.9906 95.4785C53.2074 94.8192 52.7236 93.9147 52.635 92.9443C52.6254 93.0511 52.6192 93.1589 52.6192 93.2679C52.6194 94.2974 53.0663 95.2847 53.8619 96.0128C54.6574 96.7409 55.7364 97.1501 56.8616 97.1505C57.9868 97.151 59.0661 96.7426 59.8623 96.0151C60.6586 95.2877 61.1064 94.3007 61.1076 93.2712V93.2679C61.1076 93.1589 61.1014 93.0511 61.0918 92.9443C61.0032 93.9147 60.5193 94.8192 59.7362 95.4785C58.953 96.1378 57.9276 96.5038 56.8634 96.5039V96.5039Z" fill="#2F2E41"/>
<path d="M46.6115 154.775H45.1882L42.3436 177.068L51.7255 176.785L46.6115 154.775Z" fill="#B482C6"/>
<path opacity="0.2" d="M46.6115 154.775H45.1882L42.3436 177.068L51.7255 176.785L46.6115 154.775Z" fill="black"/>
<path d="M46.2972 154.355L44.5776 176.903L65.6427 178.33L67.3622 156.353L46.2972 154.355Z" fill="#B482C6"/>
<path opacity="0.2" d="M53.5127 156.878C53.7594 156.878 53.9594 156.69 53.9594 156.458C53.9594 156.225 53.7594 156.037 53.5127 156.037C53.2659 156.037 53.0659 156.225 53.0659 156.458C53.0659 156.69 53.2659 156.878 53.5127 156.878Z" fill="black"/>
<path opacity="0.2" d="M59.9905 157.299C60.1139 157.299 60.2139 157.205 60.2139 157.089C60.2139 156.973 60.1139 156.878 59.9905 156.878C59.8672 156.878 59.7672 156.973 59.7672 157.089C59.7672 157.205 59.8672 157.299 59.9905 157.299Z" fill="black"/>
<path d="M60.2133 157.299H60.051C60.051 157.239 60.166 151.293 56.2175 150.745C55.4396 150.638 54.8037 150.79 54.3279 151.197C52.6975 152.595 53.3717 156.544 53.3785 156.583L53.2184 156.605C53.1891 156.439 52.5261 152.545 54.2151 151.098C54.7292 150.655 55.4147 150.489 56.2446 150.604C60.3306 151.17 60.2156 157.239 60.2133 157.299Z" fill="#3F3D56"/>
<path d="M56.7241 126.594L56.2183 131.657L57.2298 146.847C57.2298 146.847 59.5563 154.532 56.016 154.351C52.4758 154.171 53.7907 146.304 53.7907 146.304L52.1723 128.673L56.7241 126.594Z" fill="#9F616A"/>
<path d="M53.5745 112.713L56.2491 113.984C56.2491 113.984 59.8495 135.568 57.7921 137.655C55.7347 139.741 51.5171 140.558 51.3113 139.741C51.1056 138.925 50.3855 122.331 50.3855 122.331L53.5745 112.713Z" fill="#B482C6"/>
<path d="M49.1786 105.301C47.0634 106.044 44.8455 106.013 42.5369 105.301C43.2086 104.333 42.2045 103.576 41.689 102.599L50.3091 102.383C49.6499 103.231 48.6772 104.234 49.1786 105.301Z" fill="white"/>
<path d="M50.2178 102.544L50.1178 102.46L50.2591 102.34L51.1033 101.509L51.2107 101.587L50.3628 102.421L50.2178 102.544Z" fill="white"/>
<path d="M41.0984 102.039L41.0079 102.13L41.8558 102.727L41.9463 102.635L41.0984 102.039Z" fill="white"/>
<path d="M50.4614 103.245L48.9772 105.213L49.0965 105.277L50.5806 103.309L50.4614 103.245Z" fill="white"/>
<path d="M41.2541 103.245L41.1349 103.309L42.6187 105.277L42.7379 105.213L41.2541 103.245Z" fill="white"/>
</svg>
