<svg width="635" height="341" viewBox="0 0 635 341" fill="none" xmlns="http://www.w3.org/2000/svg">
<rect width="635" height="341" fill="white"/>
<rect width="635" height="316" fill="#DC6BE0"/>
<path opacity="0.2" d="M106.651 2.64062H41.7746C39.1153 2.64062 36.9596 4.70467 36.9596 7.25078V24.7818C36.9596 27.3279 39.1153 29.3919 41.7746 29.3919H106.651C109.311 29.3919 111.466 27.3279 111.466 24.7818V7.25078C111.466 4.70467 109.311 2.64062 106.651 2.64062Z" fill="#EFE4F4"/>
<path opacity="0.2" d="M147.585 36.783H82.7083C80.0491 36.783 77.8933 38.847 77.8933 41.3931V58.9241C77.8933 61.4702 80.0491 63.5343 82.7083 63.5343H147.585C150.244 63.5343 152.4 61.4702 152.4 58.9241V41.3931C152.4 38.847 150.244 36.783 147.585 36.783Z" fill="#EFE4F4"/>
<path opacity="0.1" d="M262.926 21.1252H198.049C195.39 21.1252 193.234 23.1893 193.234 25.7354V43.2664C193.234 45.8125 195.39 47.8766 198.049 47.8766H262.926C265.585 47.8766 267.74 45.8125 267.74 43.2664V25.7354C267.74 23.1893 265.585 21.1252 262.926 21.1252Z" fill="#1E0728"/>
<path opacity="0.1" d="M589.545 83.5979H524.668C522.009 83.5979 519.853 85.6619 519.853 88.2081V105.739C519.853 108.285 522.009 110.349 524.668 110.349H589.545C592.204 110.349 594.36 108.285 594.36 105.739V88.2081C594.36 85.6619 592.204 83.5979 589.545 83.5979Z" fill="#1E0728"/>
<path opacity="0.2" d="M106.945 70.2222H42.0683C39.4091 70.2222 37.2533 72.2862 37.2533 74.8323V92.3633C37.2533 94.9094 39.4091 96.9735 42.0683 96.9735H106.945C109.604 96.9735 111.76 94.9094 111.76 92.3633V74.8323C111.76 72.2862 109.604 70.2222 106.945 70.2222Z" fill="#EFE4F4"/>
<path opacity="0.1" d="M133.37 177.102H68.4932C65.8339 177.102 63.6782 179.166 63.6782 181.712V199.243C63.6782 201.789 65.8339 203.853 68.4932 203.853H133.37C136.029 203.853 138.185 201.789 138.185 199.243V181.712C138.185 179.166 136.029 177.102 133.37 177.102Z" fill="#1E0728"/>
<path opacity="0.1" d="M169.447 209.493H104.57C101.911 209.493 99.7549 211.557 99.7549 214.103V231.634C99.7549 234.18 101.911 236.244 104.57 236.244H169.447C172.106 236.244 174.262 234.18 174.262 231.634V214.103C174.262 211.557 172.106 209.493 169.447 209.493Z" fill="#1E0728"/>
<path opacity="0.1" d="M122.428 238.541H57.551C54.8918 238.541 52.736 240.605 52.736 243.151V260.682C52.736 263.228 54.8918 265.292 57.551 265.292H122.428C125.087 265.292 127.243 263.228 127.243 260.682V243.151C127.243 240.605 125.087 238.541 122.428 238.541Z" fill="#1E0728"/>
<path opacity="0.1" d="M507.354 195.619H442.477C439.818 195.619 437.662 197.683 437.662 200.229V217.76C437.662 220.306 439.818 222.37 442.477 222.37H507.354C510.013 222.37 512.169 220.306 512.169 217.76V200.229C512.169 197.683 510.013 195.619 507.354 195.619Z" fill="#1E0728"/>
<path opacity="0.1" d="M366.025 83.5979H301.148C298.489 83.5979 296.333 85.6619 296.333 88.2081V105.739C296.333 108.285 298.489 110.349 301.148 110.349H366.025C368.684 110.349 370.84 108.285 370.84 105.739V88.2081C370.84 85.6619 368.684 83.5979 366.025 83.5979Z" fill="#1E0728"/>
<path opacity="0.1" d="M543.431 228.01H478.554C475.895 228.01 473.739 230.074 473.739 232.62V250.151C473.739 252.698 475.895 254.762 478.554 254.762H543.431C546.09 254.762 548.246 252.698 548.246 250.151V232.62C548.246 230.074 546.09 228.01 543.431 228.01Z" fill="#1E0728"/>
<path opacity="0.1" d="M570.918 260.825H506.042C503.382 260.825 501.227 262.889 501.227 265.436V282.967C501.227 285.513 503.382 287.577 506.042 287.577H570.918C573.578 287.577 575.733 285.513 575.733 282.967V265.436C575.733 262.889 573.578 260.825 570.918 260.825Z" fill="#1E0728"/>
<path opacity="0.2" d="M313.532 150.476H248.655C245.996 150.476 243.84 152.54 243.84 155.086V172.617C243.84 175.163 245.996 177.227 248.655 177.227H313.532C316.191 177.227 318.347 175.163 318.347 172.617V155.086C318.347 152.54 316.191 150.476 313.532 150.476Z" fill="#EFE4F4"/>
<path opacity="0.2" d="M403.278 260.825H338.402C335.742 260.825 333.587 262.889 333.587 265.436V282.967C333.587 285.513 335.742 287.577 338.402 287.577H403.278C405.938 287.577 408.093 285.513 408.093 282.967V265.436C408.093 262.889 405.938 260.825 403.278 260.825Z" fill="#EFE4F4"/>
<path d="M501.23 325.516C498.987 334.026 418.822 331.832 419 324.036C421.243 315.527 501.408 317.72 501.23 325.516Z" fill="#585591" fill-opacity="0.5"/>
<path d="M445.695 229.418L443.925 233.658L433.071 248.435C433.071 248.435 425.638 256.672 429.768 257.156C433.897 257.641 436.61 249.525 436.61 249.525L449.352 236.565L450.768 230.63L445.695 229.418Z" fill="#9F616A"/>
<path d="M451.285 211.857L449.562 212.349C449.562 212.349 441.822 233.303 442.536 235.848C443.249 238.393 446.46 241.544 447.887 241.302C449.313 241.059 451.285 211.857 451.285 211.857Z" fill="#B482C6"/>
<path d="M475.197 320.667C475.197 320.667 474.506 324.685 476.583 323.077C478.66 321.469 479.743 318.358 479.743 318.358L475.197 320.667Z" fill="#28256D"/>
<path d="M448.381 232.251C448.381 232.251 424.436 320.396 432.929 322.982C441.421 325.567 453.925 322.736 453.807 321.012C453.689 319.288 451.566 285.187 451.566 285.187C451.566 285.187 463.951 330.491 479.285 319.904C494.619 309.317 491.199 307.347 489.783 306.608C488.368 305.87 467.018 270.784 467.136 264.259C467.254 257.734 466.9 237.298 464.305 234.22L448.381 232.251Z" fill="#403C71"/>
<path d="M463.404 201.361C462.438 200.479 461.836 199.264 461.717 197.955C461.597 196.646 461.969 195.34 462.759 194.295C462.654 194.394 462.552 194.497 462.454 194.606C461.532 195.637 461.053 196.996 461.123 198.384C461.193 199.771 461.805 201.074 462.826 202.006C463.846 202.938 465.192 203.422 466.566 203.353C467.94 203.283 469.231 202.666 470.154 201.636C470.252 201.527 470.343 201.414 470.43 201.299C469.48 202.197 468.23 202.702 466.929 202.713C465.627 202.725 464.369 202.242 463.404 201.361V201.361Z" fill="#2F2E41"/>
<path d="M462.928 202.793C468.5 202.793 473.017 197.974 473.017 192.029C473.017 186.085 468.5 181.266 462.928 181.266C457.355 181.266 452.838 186.085 452.838 192.029C452.838 197.974 457.355 202.793 462.928 202.793Z" fill="#2F2E41"/>
<path d="M435.455 322.324C435.455 322.324 432.654 325.156 435.455 325.156C438.257 325.156 440.937 323.309 440.937 323.309L435.455 322.324Z" fill="#28256D"/>
<path d="M456.521 198.803C456.521 198.803 458.303 206.276 456.996 207.723C455.689 209.169 452.838 210.254 452.838 210.254L453.313 223.753C453.313 223.753 458.779 221.825 459.016 221.584C459.254 221.343 464.125 213.508 464.125 213.508L468.878 208.928C468.878 208.928 461.63 205.432 463.769 199.406C465.907 193.379 456.521 198.803 456.521 198.803Z" fill="#9F616A"/>
<path d="M466.937 196.051C467.479 192.58 465.21 189.311 461.869 188.748C458.527 188.185 455.378 190.541 454.836 194.011C454.294 197.482 456.563 200.751 459.905 201.314C463.246 201.877 466.395 199.521 466.937 196.051Z" fill="#9F616A"/>
<path d="M464.111 234.511C464.111 234.511 466.791 225.215 468.072 223.992C469.354 222.769 472.5 211.271 472.5 211.271C472.5 211.271 470.519 208.458 468.888 208.458C467.257 208.458 465.742 209.07 463.878 210.904C463 211.768 461.399 212.719 459.951 213.483C459.437 213.759 458.875 213.924 458.3 213.97C457.724 214.015 457.146 213.94 456.598 213.748C456.05 213.556 455.545 213.252 455.11 212.852C454.676 212.453 454.322 211.967 454.069 211.422C453.779 210.776 453.684 210.157 453.975 209.681C453.975 209.681 449.664 210.904 449.431 212.617C449.198 214.329 449.431 217.876 449.082 218.61C448.732 219.344 447.684 220.445 448.15 225.093C448.616 229.741 447.664 235.618 447.664 235.618C452.016 239.978 458.045 237.287 464.111 234.511Z" fill="#B482C6"/>
<path d="M460.599 193.163C463.457 193.163 465.773 191.514 465.773 189.48C465.773 187.447 463.457 185.798 460.599 185.798C457.741 185.798 455.425 187.447 455.425 189.48C455.425 191.514 457.741 193.163 460.599 193.163Z" fill="#2F2E41"/>
<path d="M469.654 189.197C472.368 189.197 474.569 186.914 474.569 184.098C474.569 181.283 472.368 179 469.654 179C466.939 179 464.738 181.283 464.738 184.098C464.738 186.914 466.939 189.197 469.654 189.197Z" fill="#2F2E41"/>
<path d="M473.276 187.76C472.043 187.759 470.856 187.267 469.949 186.379C469.042 185.491 468.481 184.272 468.379 182.966C468.368 183.109 468.36 183.254 468.36 183.401C468.361 184.788 468.878 186.118 469.8 187.098C470.721 188.079 471.971 188.63 473.274 188.631C474.577 188.631 475.827 188.081 476.749 187.101C477.671 186.122 478.19 184.792 478.191 183.406V183.401C478.191 183.254 478.184 183.109 478.173 182.966C478.07 184.272 477.51 185.491 476.603 186.379C475.696 187.267 474.508 187.759 473.276 187.76V187.76Z" fill="#2F2E41"/>
<path d="M461.402 266.241H459.754L456.459 296.265L467.325 295.884L461.402 266.241Z" fill="#B482C6"/>
<path opacity="0.2" d="M461.402 266.241H459.754L456.459 296.265L467.325 295.884L461.402 266.241Z" fill="black"/>
<path d="M461.038 265.674L459.047 296.042L483.444 297.965L485.435 268.365L461.038 265.674Z" fill="#B482C6"/>
<path opacity="0.2" d="M469.395 269.073C469.681 269.073 469.912 268.82 469.912 268.507C469.912 268.194 469.681 267.94 469.395 267.94C469.109 267.94 468.878 268.194 468.878 268.507C468.878 268.82 469.109 269.073 469.395 269.073Z" fill="black"/>
<path opacity="0.2" d="M476.898 269.64C477.041 269.64 477.156 269.513 477.156 269.357C477.156 269.2 477.041 269.073 476.898 269.073C476.755 269.073 476.639 269.2 476.639 269.357C476.639 269.513 476.755 269.64 476.898 269.64Z" fill="black"/>
<path d="M477.156 269.64H476.968C476.968 269.558 477.101 261.55 472.528 260.812C471.627 260.668 470.89 260.873 470.339 261.422C468.451 263.305 469.232 268.623 469.24 268.676L469.054 268.705C469.02 268.481 468.252 263.237 470.209 261.288C470.804 260.692 471.598 260.468 472.559 260.623C477.291 261.385 477.158 269.558 477.156 269.64Z" fill="#3F3D56"/>
<path d="M473.114 228.285L472.529 235.105L473.7 255.563C473.7 255.563 476.395 265.913 472.294 265.67C468.194 265.426 469.717 254.832 469.717 254.832L467.843 231.086L473.114 228.285Z" fill="#9F616A"/>
<path d="M469.467 209.591L472.564 211.302C472.564 211.302 476.734 240.372 474.352 243.182C471.969 245.993 467.084 247.093 466.846 245.993C466.607 244.893 465.773 222.544 465.773 222.544L469.467 209.591Z" fill="#B482C6"/>
<path d="M464.376 199.608C461.926 200.608 459.357 200.567 456.683 199.608C457.461 198.304 456.298 197.284 455.701 195.968L465.685 195.677C464.921 196.82 463.795 198.17 464.376 199.608Z" fill="white"/>
<path d="M465.579 195.894L465.463 195.781L465.627 195.62L466.605 194.5L466.729 194.605L465.747 195.729L465.579 195.894Z" fill="white"/>
<path d="M455.017 195.214L454.912 195.337L455.894 196.14L455.999 196.017L455.017 195.214Z" fill="white"/>
<path d="M465.861 196.839L464.142 199.489L464.28 199.575L465.999 196.925L465.861 196.839Z" fill="white"/>
<path d="M455.198 196.839L455.059 196.925L456.778 199.575L456.916 199.489L455.198 196.839Z" fill="white"/>
</svg>
