<svg width="1108" height="378" viewBox="0 0 1108 378" fill="none" xmlns="http://www.w3.org/2000/svg">
<g clip-path="url(#clip0)">
<rect width="1108" height="378" fill="white"/>
<rect x="-1" width="1109" height="331" fill="#DC88DF"/>
<path opacity="0.2" d="M120.748 2.76599H67.5002C65.3176 2.76599 63.5483 4.90016 63.5483 7.53277V25.6594C63.5483 28.292 65.3176 30.4262 67.5002 30.4262H120.748C122.931 30.4262 124.7 28.292 124.7 25.6594V7.53277C124.7 4.90016 122.931 2.76599 120.748 2.76599Z" fill="#EFE4F4"/>
<path opacity="0.2" d="M154.428 31.1921H101.18C98.9972 31.1921 97.2278 33.3263 97.2278 35.9589V54.0855C97.2278 56.7181 98.9972 58.8523 101.18 58.8523H154.428C156.611 58.8523 158.38 56.7181 158.38 54.0855V35.9589C158.38 33.3263 156.611 31.1921 154.428 31.1921Z" fill="#EFE4F4"/>
<path opacity="0.1" d="M393.675 22.1282H340.426C338.244 22.1282 336.474 24.2623 336.474 26.895V45.0216C336.474 47.6542 338.244 49.7883 340.426 49.7883H393.675C395.857 49.7883 397.626 47.6542 397.626 45.0216V26.895C397.626 24.2623 395.857 22.1282 393.675 22.1282Z" fill="#1E0728"/>
<path opacity="0.1" d="M421.193 56.2423H367.945C365.762 56.2423 363.993 58.3765 363.993 61.0091V79.1357C363.993 81.7683 365.762 83.9025 367.945 83.9025H421.193C423.376 83.9025 425.145 81.7683 425.145 79.1357V61.0091C425.145 58.3765 423.376 56.2423 421.193 56.2423Z" fill="#1E0728"/>
<path opacity="0.2" d="M120.122 59.6184H66.8735C64.6909 59.6184 62.9215 61.7526 62.9215 64.3852V82.5118C62.9215 85.1444 64.6909 87.2786 66.8735 87.2786H120.122C122.304 87.2786 124.074 85.1444 124.074 82.5118V64.3852C124.074 61.7526 122.304 59.6184 120.122 59.6184Z" fill="#EFE4F4"/>
<path opacity="0.1" d="M167.412 189.011H114.163C111.981 189.011 110.211 191.145 110.211 193.778V211.904C110.211 214.537 111.981 216.671 114.163 216.671H167.412C169.594 216.671 171.363 214.537 171.363 211.904V193.778C171.363 191.145 169.594 189.011 167.412 189.011Z" fill="#1E0728"/>
<path opacity="0.1" d="M194.93 219.437H141.682C139.499 219.437 137.73 221.572 137.73 224.204V242.331C137.73 244.963 139.499 247.098 141.682 247.098H194.93C197.113 247.098 198.882 244.963 198.882 242.331V224.204C198.882 221.572 197.113 219.437 194.93 219.437Z" fill="#1E0728"/>
<path opacity="0.1" d="M148.301 249.864H95.0532C92.8706 249.864 91.1012 251.998 91.1012 254.63V272.757C91.1012 275.39 92.8706 277.524 95.0532 277.524H148.301C150.484 277.524 152.253 275.39 152.253 272.757V254.63C152.253 251.998 150.484 249.864 148.301 249.864Z" fill="#1E0728"/>
<path opacity="0.1" d="M413.549 263.148H360.301C358.118 263.148 356.349 265.282 356.349 267.914V286.041C356.349 288.674 358.118 290.808 360.301 290.808H413.549C415.732 290.808 417.501 288.674 417.501 286.041V267.914C417.501 265.282 415.732 263.148 413.549 263.148Z" fill="#1E0728"/>
<path opacity="0.1" d="M366.92 296.886H313.672C311.49 296.886 309.72 299.02 309.72 301.652V319.779C309.72 322.412 311.49 324.546 313.672 324.546H366.92C369.103 324.546 370.872 322.412 370.872 319.779V301.652C370.872 299.02 369.103 296.886 366.92 296.886Z" fill="#1E0728"/>
<path opacity="0.2" d="M58.3673 2.76599H5.11902C2.93642 2.76599 1.16705 4.90016 1.16705 7.53277V25.6594C1.16705 28.292 2.93642 30.4262 5.11902 30.4262H58.3673C60.5499 30.4262 62.3192 28.292 62.3192 25.6594V7.53277C62.3192 4.90016 60.5499 2.76599 58.3673 2.76599Z" fill="#EFE4F4"/>
<path opacity="0.2" d="M92.817 31.1921H39.5687C37.3861 31.1921 35.6168 33.3263 35.6168 35.9589V54.0855C35.6168 56.7181 37.3861 58.8523 39.5687 58.8523H92.817C94.9996 58.8523 96.769 56.7181 96.769 54.0855V35.9589C96.769 33.3263 94.9996 31.1921 92.817 31.1921Z" fill="#EFE4F4"/>
<path opacity="0.1" d="M702.347 50H649.098C646.916 50 645.147 52.1342 645.147 54.7668V72.8934C645.147 75.526 646.916 77.6602 649.098 77.6602H702.347C704.529 77.6602 706.299 75.526 706.299 72.8934V54.7668C706.299 52.1342 704.529 50 702.347 50Z" fill="#1E0728"/>
<path opacity="0.1" d="M763.188 149.365H709.939C707.757 149.365 705.987 151.499 705.987 154.132V172.258C705.987 174.891 707.757 177.025 709.939 177.025H763.188C765.37 177.025 767.14 174.891 767.14 172.258V154.132C767.14 151.499 765.37 149.365 763.188 149.365Z" fill="#1E0728"/>
<path opacity="0.2" d="M58.5107 59.6184H5.26238C3.07978 59.6184 1.31042 61.7526 1.31042 64.3852V82.5118C1.31042 85.1444 3.07978 87.2786 5.26238 87.2786H58.5107C60.6933 87.2786 62.4626 85.1444 62.4626 82.5118V64.3852C62.4626 61.7526 60.6933 59.6184 58.5107 59.6184Z" fill="#EFE4F4"/>
<path opacity="0.1" d="M1069.29 121.705H1016.04C1013.86 121.705 1012.09 123.839 1012.09 126.471V144.598C1012.09 147.231 1013.86 149.365 1016.04 149.365H1069.29C1071.47 149.365 1073.24 147.231 1073.24 144.598V126.471C1073.24 123.839 1071.47 121.705 1069.29 121.705Z" fill="#1E0728"/>
<path opacity="0.1" d="M1082.03 60H1028.78C1026.59 60 1024.83 62.1342 1024.83 64.7668V82.8934C1024.83 85.526 1026.59 87.6602 1028.78 87.6602H1082.03C1084.21 87.6602 1085.98 85.526 1085.98 82.8934V64.7668C1085.98 62.1342 1084.21 60 1082.03 60Z" fill="#1E0728"/>
<path opacity="0.1" d="M591.447 94.9666H538.198C536.016 94.9666 534.247 97.1007 534.247 99.7333V117.86C534.247 120.493 536.016 122.627 538.198 122.627H591.447C593.629 122.627 595.399 120.493 595.399 117.86V99.7333C595.399 97.1007 593.629 94.9666 591.447 94.9666Z" fill="#1E0728"/>
<path opacity="0.1" d="M590.781 219.437H537.533C535.35 219.437 533.581 221.572 533.581 224.204V242.331C533.581 244.963 535.35 247.098 537.533 247.098H590.781C592.964 247.098 594.733 244.963 594.733 242.331V224.204C594.733 221.572 592.964 219.437 590.781 219.437Z" fill="#1E0728"/>
<path opacity="0.1" d="M544.153 249.864H490.905C488.722 249.864 486.953 251.998 486.953 254.63V272.757C486.953 275.39 488.722 277.524 490.905 277.524H544.153C546.335 277.524 548.105 275.39 548.105 272.757V254.63C548.105 251.998 546.335 249.864 544.153 249.864Z" fill="#1E0728"/>
<path opacity="0.1" d="M924.917 56.2423H871.669C869.486 56.2423 867.717 58.3764 867.717 61.0091V79.1357C867.717 81.7683 869.486 83.9025 871.669 83.9025H924.917C927.099 83.9025 928.869 81.7683 928.869 79.1357V61.0091C928.869 58.3764 927.099 56.2423 924.917 56.2423Z" fill="#1E0728"/>
<path opacity="0.1" d="M812.061 253.886H758.812C756.63 253.886 754.861 256.02 754.861 258.652V276.779C754.861 279.412 756.63 281.546 758.812 281.546H812.061C814.243 281.546 816.013 279.412 816.013 276.779V258.652C816.013 256.02 814.243 253.886 812.061 253.886Z" fill="#1E0728"/>
<path opacity="0.1" d="M959.43 209.295H906.182C903.999 209.295 902.23 211.429 902.23 214.062V232.189C902.23 234.821 903.999 236.955 906.182 236.955H959.43C961.612 236.955 963.382 234.821 963.382 232.189V214.062C963.382 211.429 961.612 209.295 959.43 209.295Z" fill="#1E0728"/>
<path opacity="0.1" d="M986.948 239.721H933.7C931.517 239.721 929.748 241.856 929.748 244.488V262.615C929.748 265.247 931.517 267.382 933.7 267.382H986.948C989.131 267.382 990.9 265.247 990.9 262.615V244.488C990.9 241.856 989.131 239.721 986.948 239.721Z" fill="#1E0728"/>
<path opacity="0.1" d="M940.32 270.148H887.071C884.889 270.148 883.119 272.282 883.119 274.914V293.041C883.119 295.674 884.889 297.808 887.071 297.808H940.32C942.502 297.808 944.272 295.674 944.272 293.041V274.914C944.272 272.282 942.502 270.148 940.32 270.148Z" fill="#1E0728"/>
<path opacity="0.2" d="M33.0066 31.1921H3.50032C2.29088 31.1921 1.31042 33.3263 1.31042 35.9589V54.0855C1.31042 56.7181 2.29088 58.8523 3.50032 58.8523H33.0066C34.2161 58.8523 35.1965 56.7181 35.1965 54.0855V35.9589C35.1965 33.3263 34.2161 31.1921 33.0066 31.1921Z" fill="#EFE4F4"/>
<path opacity="0.2" d="M71.603 88H18.3547C16.1721 88 14.4028 90.1342 14.4028 92.7668V110.893C14.4028 113.526 16.1721 115.66 18.3547 115.66H71.603C73.7856 115.66 75.555 113.526 75.555 110.893V92.7668C75.555 90.1342 73.7856 88 71.603 88Z" fill="#EFE4F4"/>
<path opacity="0.2" d="M133.634 88.1921H80.3861C78.2035 88.1921 76.4341 90.3263 76.4341 92.9589V111.086C76.4341 113.718 78.2035 115.852 80.3861 115.852H133.634C135.817 115.852 137.586 113.718 137.586 111.086V92.9589C137.586 90.3263 135.817 88.1921 133.634 88.1921Z" fill="#EFE4F4"/>
<path opacity="0.2" d="M257.206 270H203.958C201.776 270 200.006 272.134 200.006 274.767V292.893C200.006 295.526 201.776 297.66 203.958 297.66H257.206C259.389 297.66 261.158 295.526 261.158 292.893V274.767C261.158 272.134 259.389 270 257.206 270Z" fill="#EFE4F4"/>
<path opacity="0.2" d="M467.454 16H414.206C412.024 16 410.254 18.1342 410.254 20.7668V38.8934C410.254 41.526 412.024 43.6602 414.206 43.6602H467.454C469.637 43.6602 471.406 41.526 471.406 38.8934V20.7668C471.406 18.1342 469.637 16 467.454 16Z" fill="#EFE4F4"/>
<path opacity="0.2" d="M277.23 50H223.982C221.799 50 220.03 52.1342 220.03 54.7668V72.8934C220.03 75.526 221.799 77.6602 223.982 77.6602H277.23C279.413 77.6602 281.182 75.526 281.182 72.8934V54.7668C281.182 52.1342 279.413 50 277.23 50Z" fill="#EFE4F4"/>
<path opacity="0.2" d="M1099.74 297H1046.49C1044.31 297 1042.54 299.134 1042.54 301.767V319.893C1042.54 322.526 1044.31 324.66 1046.49 324.66H1099.74C1101.92 324.66 1103.69 322.526 1103.69 319.893V301.767C1103.69 299.134 1101.92 297 1099.74 297Z" fill="#EFE4F4"/>
<path opacity="0.2" d="M73.1433 203H19.895C17.7124 203 15.9431 205.134 15.9431 207.767V225.893C15.9431 228.526 17.7124 230.66 19.895 230.66H73.1433C75.3259 230.66 77.0953 228.526 77.0953 225.893V207.767C77.0953 205.134 75.3259 203 73.1433 203Z" fill="#EFE4F4"/>
<path d="M1001.05 371.551C1038.87 371.551 1069.53 366.722 1069.53 360.764C1069.53 354.807 1038.87 349.978 1001.05 349.978C963.226 349.978 932.567 354.807 932.567 360.764C932.567 366.722 963.226 371.551 1001.05 371.551Z" fill="#585590" fill-opacity="0.5"/>
<path d="M1072.84 199.883L1061.07 166.088L1056.84 166.723L1053.05 167.203C1053.15 165.932 1053.31 161.372 1050.96 158.981C1050.74 158.162 1050.14 157.231 1048.98 156.183C1043.35 151.077 1042.18 161.521 1042.18 161.521C1042.18 161.521 1040.89 163.725 1039.12 166.806L1038.19 166.631L1037.93 168.905C1034.01 175.755 1028.81 185.024 1028.81 185.895C1028.81 187.289 1028.11 189.143 1028.11 189.143C1028.11 189.143 1024.12 195.641 1022.71 198.893C1021.89 200.811 1020.69 202.547 1019.18 203.999C1019.18 203.999 1018.84 204.256 1018.28 204.634C1018.32 204.019 1018.42 203.411 1018.6 202.821C1019.11 201.16 1020.31 199.737 1020.63 198.029C1020.7 197.619 1020.73 197.203 1020.71 196.787C1020.78 194.783 1019.8 192.811 1019.39 190.807C1018.91 188.486 1019.17 185.93 1017.91 183.913C1016.95 182.373 1015.24 181.414 1013.47 180.972C1011.84 180.569 1010.23 180.712 1008.59 180.54C1007.08 180.382 1005.64 179.721 1004.13 179.477C1003.32 179.303 1002.49 179.303 1001.68 179.477C999.129 180.172 998.329 183.354 996.358 185.104C995.648 185.739 994.778 186.177 994.136 186.873C993.202 187.886 992.878 189.299 992.926 190.683C992.913 191.148 992.941 191.612 993.009 192.071C993.253 193.732 993.902 195.304 994.293 196.933C994.59 198.139 994.75 199.373 994.772 200.614C994.772 200.893 994.772 201.173 994.746 201.449C994.758 202.008 994.607 202.559 994.313 203.037C993.956 203.523 993.369 203.758 992.845 204.069C991.135 202.726 989.851 200.925 989.147 198.88C989.147 198.88 989.06 198.988 988.913 199.197V198.88C988.913 198.88 985.702 194.218 985.214 190.41L986.331 190.525L988.9 154.783L982.34 153.83C982.157 151.985 981.66 149.308 980.34 147.355C981.441 145.208 981.997 142.302 977.168 142.013C971.518 141.674 971.864 146.027 972.465 148.409C972.193 149.709 972.085 151.037 972.144 152.363L966.365 151.531L966.332 151.994H964.958L960.753 188.457L964.336 188.279L977.467 189.632C978.517 199.074 980.167 210.741 982.125 213.491C982.191 213.584 982.262 213.672 982.34 213.755V230.462C982.34 230.462 982.106 252.056 978.115 255.527C980.563 254.666 983.153 254.264 985.75 254.343C985.705 254.486 985.66 254.638 985.615 254.8C985.031 256.931 984.624 259.107 984.398 261.304C984.343 261.788 984.292 262.294 984.248 262.822C983.88 267.659 983.948 272.519 984.45 277.344C986.094 294.518 988.675 306.82 988.675 306.82L989.394 316.804C989.394 316.804 988.691 333.747 990.566 339.317C991.273 339.961 992.085 340.481 992.967 340.857C992.984 341.016 993.003 341.174 993.019 341.343C993.035 341.511 993.061 341.771 993.083 341.994C992.242 342.372 990.672 343.871 990.332 349.758C990.332 349.758 990.8 354.169 989.628 356.256C988.457 358.342 989.16 364.379 992.679 365.074C994.927 365.484 997.233 365.484 999.482 365.074C999.482 365.074 1001.13 365.074 999.95 359.272L999.745 357.786C999.719 354.912 999.841 351.835 1000.42 350.917C1001.59 349.06 999.95 347.205 999.95 347.205C999.95 347.205 999.835 347.269 999.645 347.354C999.344 345.751 998.949 343.147 999.09 341.159C999.09 340.99 999.119 340.841 999.138 340.666C999.854 340.296 1000.52 339.841 1001.13 339.31V317.268C1001.13 317.268 1000.89 283.384 1003.47 282.685C1003.47 282.685 1004.64 294.985 1004.18 301.022C1003.71 307.058 1004.88 313.556 1004.88 313.556L1005.35 338.158C1005.35 338.158 1005.8 338.37 1006.52 338.621L1006.47 339.069C1006.19 341.803 1005.73 345.932 1005.31 348.459C1005.03 348.57 1004.78 348.746 1004.58 348.973C1004.38 349.199 1004.24 349.47 1004.17 349.761C1003.47 352.083 1003.94 357.885 1002.53 359.511C1001.7 360.463 1000.7 362.404 1001.19 363.776C1000.88 364.979 1001.02 366.859 1004.64 367.17C1010.04 367.634 1012.39 364.849 1012.39 364.849C1012.39 364.849 1013.09 363.69 1012.39 361.6C1011.68 359.511 1012.62 355.798 1012.62 355.798C1012.62 355.798 1013.12 352.648 1012.3 352.235C1012.23 351.861 1012.16 351.622 1012.16 351.622C1012.17 350.909 1011.91 350.218 1011.42 349.692C1011.4 347.262 1011.5 342.769 1012.37 339.809C1012.42 339.641 1012.47 339.491 1012.52 339.317C1013.22 339.198 1013.89 338.965 1014.51 338.628C1014.51 338.628 1014.27 333.289 1015.92 329.577C1017.56 325.865 1016.62 311.009 1016.62 311.009C1016.62 311.009 1015.92 307.106 1016.91 303.943C1018.05 300.438 1018.9 296.849 1019.46 293.209L1020.84 283.622C1020.84 283.622 1024.49 271.952 1019.69 259.973C1019.49 259.478 1019.27 258.982 1019.04 258.487C1018.65 257.626 1018.2 256.762 1017.71 255.905C1017.63 255.772 1017.55 255.635 1017.47 255.502C1017.97 255.378 1018.26 255.305 1018.26 255.305C1018.26 255.305 1011.92 240.697 1015.91 233.256C1015.91 233.256 1018.16 231.033 1018.48 228.591C1018.88 225.362 1019.31 222.135 1020.02 218.959L1020.15 218.401C1020.15 218.401 1020.17 218.293 1020.2 218.099C1020.29 218.042 1020.38 217.981 1020.46 217.918C1027.22 213.034 1033.05 192.64 1033.05 192.64L1034.93 189.146L1035.83 187.279L1034 203.072L1048.31 206.565L1057.46 205.869L1057.43 203.923L1064.41 203.386L1072.84 199.883ZM982.109 153.836L979.567 153.468C979.12 151.197 978.818 149.708 978.818 149.708C979.351 149.056 979.823 148.358 980.228 147.622C981.458 149.483 981.929 152.023 982.109 153.824V153.836ZM972.612 148.962C972.789 149.559 972.95 149.943 972.95 149.943L973.271 152.563L972.404 152.439C972.354 151.272 972.425 150.102 972.616 148.949L972.612 148.962ZM1052.81 167.257L1049.37 167.695C1049.86 166.285 1050.46 163.973 1050.11 161.88C1050.44 161.575 1050.7 161.197 1050.87 160.775C1051.03 160.354 1051.09 159.9 1051.05 159.451C1053.1 161.868 1052.9 166.136 1052.81 167.247V167.257ZM1047.1 163.633C1048.12 163.294 1049.07 162.765 1049.9 162.074C1050.2 164.129 1049.58 166.387 1049.11 167.727L1045.9 168.133L1045.01 167.965L1047.1 163.633Z" fill="url(#paint0_linear)"/>
<path d="M1072.23 200.483L1063.85 203.942L1054.12 170.378L1056.4 167.698L1060.59 167.057L1072.23 200.483Z" fill="#2F0428"/>
<path opacity="0.2" d="M1072.23 200.483L1063.85 203.942L1054.12 170.378L1056.4 167.698L1060.59 167.057L1072.23 200.483Z" fill="white"/>
<path d="M1056.4 167.698L1041.86 169.543L1049.32 205.06L1063.85 203.942L1056.4 167.698Z" fill="#F2B2E0"/>
<path opacity="0.07" d="M1056.4 167.698L1041.86 169.543L1049.32 205.06L1063.85 203.942L1056.4 167.698Z" fill="white"/>
<path d="M1052.62 168.498L1052.39 168.47C1052.39 168.384 1053.36 160 1048.04 158.943L1048.08 158.717C1053.63 159.819 1052.64 168.413 1052.62 168.498Z" fill="#535461"/>
<path d="M1014.86 192.97H998.846V216.155H1014.86V192.97Z" fill="#774E55"/>
<path opacity="0.2" d="M1014.86 192.97H998.846V216.155H1014.86V192.97Z" fill="black"/>
<path d="M1056.98 206.397L1047.93 207.086L1049.32 172.195L1052.34 170.359L1056.51 171.048L1056.98 206.397Z" fill="#2F0428"/>
<path opacity="0.2" d="M1056.98 206.397L1047.93 207.086L1049.32 172.195L1052.34 170.359L1056.51 171.048L1056.98 206.397Z" fill="#FF00D6"/>
<path d="M1052.34 170.359L1037.95 167.603L1033.77 203.643L1047.93 207.086L1052.34 170.359Z" fill="#F2B2E0"/>
<path d="M967.633 153.144H965.543L961.366 189.181L970.647 188.724L967.633 153.144Z" fill="#B73DE1"/>
<path opacity="0.2" d="M967.633 153.144H965.543L961.366 189.181L970.647 188.724L967.633 153.144Z" fill="#462643"/>
<path d="M966.936 152.684L964.384 188.953L986.662 191.249L989.214 155.897L966.936 152.684Z" fill="#F2B2E0"/>
<path d="M993.857 340.914C993.857 340.914 991.073 340.685 990.608 348.72C990.608 348.72 991.073 353.08 989.911 355.147C988.749 357.215 989.445 363.182 992.929 363.871C995.158 364.277 997.442 364.277 999.671 363.871C999.671 363.871 1001.3 363.871 1000.14 358.132L997.815 341.374L993.857 340.914Z" fill="#5F3B54"/>
<path opacity="0.05" d="M993.857 340.914C993.857 340.914 991.073 340.685 990.608 348.72C990.608 348.72 991.073 353.08 989.911 355.147C988.749 357.215 989.445 363.182 992.929 363.871C995.158 364.277 997.442 364.277 999.671 363.871C999.671 363.871 1001.3 363.871 1000.14 358.132L997.815 341.374L993.857 340.914Z" fill="black"/>
<path d="M1008.45 208.359C1008.25 211.776 1008.94 213.758 1008.94 213.758L1002.91 215.365C1002.91 215.365 992.929 216.743 996.875 212.824C998.239 211.474 998.91 209.159 999.202 206.714C999.385 205.044 999.442 203.362 999.373 201.684C999.319 200.111 999.182 198.542 998.962 196.984C998.962 196.984 1013.58 191.935 1010.33 200.198C1009.74 201.692 1009.27 203.232 1008.94 204.802C1008.69 205.974 1008.52 207.163 1008.45 208.359Z" fill="#FDA57D"/>
<path opacity="0.1" d="M1010.33 200.201C1009.74 201.696 1009.27 203.236 1008.94 204.806C1007.21 205.169 1005.41 205.072 1003.73 204.524C1002.05 203.977 1000.55 202.998 999.373 201.687C999.319 200.114 999.182 198.546 998.962 196.987C998.962 196.987 1013.58 191.938 1010.33 200.201Z" fill="black"/>
<path d="M1006.85 204.561C1012.36 204.561 1016.83 200.142 1016.83 194.691C1016.83 189.24 1012.36 184.821 1006.85 184.821C1001.34 184.821 996.875 189.24 996.875 194.691C996.875 200.142 1001.34 204.561 1006.85 204.561Z" fill="#FDA57D"/>
<path d="M1000.12 347.799C1000.12 347.799 992.229 351.013 993.157 348.028C993.722 346.217 993.513 342.797 993.263 340.406C993.102 338.847 992.922 337.71 992.922 337.71L999.665 338.399C999.429 338.981 999.298 339.599 999.276 340.225C999.055 343.27 1000.12 347.799 1000.12 347.799Z" fill="#FDA57D"/>
<path d="M1012.39 338.869C1011.17 343.048 1011.49 350.327 1011.49 350.327C1011.49 350.327 1004.3 351.244 1004.99 349.409C1005.48 348.139 1006.19 341.845 1006.57 338.145C1006.74 336.528 1006.85 335.407 1006.85 335.407L1013.35 336.786C1012.91 337.418 1012.58 338.123 1012.39 338.869V338.869Z" fill="#FDA57D"/>
<path opacity="0.1" d="M992.926 337.7L999.668 338.389C999.432 338.971 999.301 339.589 999.279 340.215C998.358 340.693 997.338 340.957 996.299 340.988C995.259 341.02 994.225 340.817 993.276 340.396C993.105 338.834 992.926 337.7 992.926 337.7Z" fill="black"/>
<path opacity="0.1" d="M1013.35 336.783C1012.91 337.415 1012.58 338.122 1012.39 338.869C1010.2 339.218 1007.89 338.605 1006.57 338.145C1006.74 336.528 1006.85 335.407 1006.85 335.407L1013.35 336.783Z" fill="black"/>
<path d="M1020.78 283.295L1019.41 292.777C1018.85 296.377 1018.01 299.927 1016.89 303.394C1015.9 306.522 1016.6 310.38 1016.6 310.38C1016.6 310.38 1017.53 325.071 1015.9 328.745C1014.28 332.419 1014.51 337.697 1014.51 337.697C1010.8 339.764 1005.46 337.237 1005.46 337.237L1004.99 312.905C1004.99 312.905 1003.84 306.477 1004.3 300.52C1004.76 294.562 1003.6 282.387 1003.6 282.387C1001.03 283.076 1001.28 316.588 1001.28 316.588V338.396C995.709 343.216 990.836 338.396 990.836 338.396C988.98 332.886 989.677 316.128 989.677 316.128L988.98 306.258C988.98 306.258 986.411 294.092 984.806 277.106C984.31 272.333 984.243 267.526 984.607 262.742C984.652 262.221 984.701 261.721 984.755 261.24C984.977 259.068 985.379 256.917 985.955 254.809C986.14 254.114 986.376 253.434 986.662 252.774L1011.6 253.92L1013.07 253.987L1016.6 254.149C1016.99 254.724 1017.35 255.308 1017.69 255.892C1018.17 256.74 1018.61 257.594 1019.01 258.433C1019.23 258.922 1019.44 259.414 1019.65 259.903C1024.39 271.745 1020.78 283.295 1020.78 283.295Z" fill="#413870"/>
<path opacity="0.1" d="M993.391 255.063C993.391 255.063 992.3 265.861 984.604 262.736C984.649 262.215 984.698 261.714 984.752 261.234C986.562 261.72 991.574 262.39 991.763 255.06L993.391 255.063Z" fill="black"/>
<path opacity="0.1" d="M1019.63 259.906C1014.3 261.789 1012.3 256.775 1011.61 253.914L1013.08 253.981C1013.88 258.48 1017.07 258.744 1019.01 258.426C1019.23 258.928 1019.44 259.42 1019.63 259.906Z" fill="black"/>
<path d="M995.924 346.579C994.74 346.395 992.929 345.751 993.497 343.499C993.497 343.499 991.304 342.75 991.535 351.702C991.535 351.702 991.304 356.062 990.839 356.983C990.373 357.904 990.839 363.41 995.712 362.95C995.712 362.95 999.193 364.096 1000.12 362.261C1000.12 362.261 999.424 351.702 1000.59 349.876C1001.75 348.05 1000.12 346.202 1000.12 346.202C1000.12 346.202 998.477 347.103 997.295 346.837C996.846 346.713 996.383 346.652 995.924 346.579Z" fill="#5F3B54"/>
<path d="M1001.75 361.572C1001.75 361.572 999.424 365.475 1004.76 365.932C1010.1 366.389 1012.42 363.636 1012.42 363.636C1012.42 363.636 1013.12 362.49 1012.42 360.422C1011.72 358.355 1012.65 354.684 1012.65 354.684C1012.65 354.684 1013.35 350.324 1011.72 351.241C1010.1 352.159 1001.75 361.572 1001.75 361.572Z" fill="#5F3B54"/>
<path opacity="0.05" d="M1001.75 361.572C1001.75 361.572 999.424 365.475 1004.76 365.932C1010.1 366.389 1012.42 363.636 1012.42 363.636C1012.42 363.636 1013.12 362.49 1012.42 360.422C1011.72 358.355 1012.65 354.684 1012.65 354.684C1012.65 354.684 1013.35 350.324 1011.72 351.241C1010.1 352.159 1001.75 361.572 1001.75 361.572Z" fill="black"/>
<path d="M1007.78 347.57C1007.78 347.57 1005 346.424 1004.3 348.717C1003.6 351.009 1004.07 356.751 1002.68 358.358C1001.28 359.965 999.427 364.325 1005 364.096C1010.57 363.868 1011.74 362.029 1011.74 362.029C1011.74 362.029 1011.51 356.291 1012.21 354.684C1012.9 353.077 1012.21 350.555 1012.21 350.555C1012.21 350.555 1012.42 347.326 1007.78 347.57Z" fill="#5F3B54"/>
<path opacity="0.2" d="M972.969 156.358C973.226 156.358 973.434 156.152 973.434 155.897C973.434 155.643 973.226 155.437 972.969 155.437C972.712 155.437 972.503 155.643 972.503 155.897C972.503 156.152 972.712 156.358 972.969 156.358Z" fill="black"/>
<path opacity="0.2" d="M982.716 157.504C982.973 157.504 983.182 157.298 983.182 157.044C983.182 156.789 982.973 156.583 982.716 156.583C982.459 156.583 982.251 156.789 982.251 157.044C982.251 157.298 982.459 157.504 982.716 157.504Z" fill="black"/>
<path d="M982.832 157.047H982.6C982.6 156.948 982.764 147.266 977.142 146.374C976.035 146.199 975.129 146.447 974.452 147.11C972.131 149.387 973.091 155.818 973.1 155.881L972.872 155.916C972.831 155.646 971.887 149.305 974.291 146.948C975.023 146.227 975.999 145.958 977.181 146.145C982.998 147.066 982.835 156.948 982.832 157.047Z" fill="#535461"/>
<path d="M1048.5 169.95L1048.29 169.851C1048.32 169.775 1051.9 162.112 1047.17 159.441L1047.29 159.241C1052.2 162.017 1048.54 169.87 1048.5 169.95Z" fill="#535461"/>
<path opacity="0.1" d="M1008.94 213.745L1002.91 215.352C1002.91 215.352 992.929 216.73 996.875 212.811C998.239 211.462 998.91 209.147 999.202 206.701C1000.78 209.147 1002.68 208.451 1002.68 208.451L1008.43 208.34H1008.45C1008.25 211.776 1008.94 213.745 1008.94 213.745Z" fill="black"/>
<path opacity="0.1" d="M1020.39 218.315C1020.01 218.598 1019.59 218.836 1019.15 219.023L1017.76 208.003L1019.04 204.802L1019.36 204.558C1022.26 205.374 1020.77 215.93 1020.39 218.315Z" fill="black"/>
<path opacity="0.1" d="M989.214 199.512V202.497L984.109 215.581L982.716 214.202C982.639 214.121 982.568 214.034 982.504 213.942C983.108 207.121 989.214 199.512 989.214 199.512Z" fill="black"/>
<path opacity="0.1" d="M1017.68 255.886C1014.44 256.689 997.491 260.627 992.463 256.899C990.479 255.429 988.142 254.889 985.956 254.803C986.14 254.108 986.376 253.428 986.662 252.767L1011.6 253.914L1013.07 253.981L1016.6 254.143C1016.99 254.72 1017.35 255.302 1017.68 255.886Z" fill="black"/>
<path d="M974.015 145.224C974.015 145.224 977.496 150.962 979.817 145.224Z" fill="#BF7A47"/>
<path d="M1045.61 157.044C1045.61 157.044 1044.21 163.932 1049.78 160.718Z" fill="#E29454"/>
<g opacity="0.1">
<path opacity="0.1" d="M1002.52 284.651C1002.41 283.254 1002.33 282.38 1002.33 282.38C999.758 283.069 1000.01 316.582 1000.01 316.582V338.389C998.374 339.799 996.794 340.384 995.398 340.508C997.074 340.654 999.071 340.19 1001.18 338.389V316.582C1001.18 316.582 1001 292.298 1002.52 284.651Z" fill="black"/>
<path opacity="0.1" d="M1019.52 259.906C1019.32 259.417 1019.11 258.925 1018.88 258.436C1018.49 257.585 1018.05 256.731 1017.56 255.896C1017.24 255.311 1016.86 254.73 1016.47 254.152L1012.94 253.99L1011.47 253.924L986.534 252.777L986.511 252.828L1010.31 253.924L1011.78 253.99L1015.31 254.152C1015.7 254.727 1016.06 255.311 1016.4 255.896C1016.89 256.743 1017.33 257.598 1017.72 258.436C1017.94 258.925 1018.15 259.417 1018.36 259.906C1023.11 271.752 1019.5 283.295 1019.5 283.295L1018.14 292.778C1017.58 296.377 1016.74 299.927 1015.61 303.394C1014.63 306.522 1015.33 310.38 1015.33 310.38C1015.33 310.38 1016.25 325.071 1014.63 328.745C1013 332.419 1013.24 337.697 1013.24 337.697C1012.34 338.176 1011.34 338.447 1010.33 338.491C1011.73 338.616 1013.14 338.341 1014.39 337.697C1014.39 337.697 1014.16 332.416 1015.79 328.745C1017.41 325.074 1016.49 310.38 1016.49 310.38C1016.49 310.38 1015.79 306.519 1016.77 303.394C1017.9 299.927 1018.74 296.377 1019.29 292.778L1020.66 283.295C1020.66 283.295 1024.26 271.745 1019.52 259.906Z" fill="black"/>
</g>
<path d="M1008.43 208.81C1011.64 210.306 1019.15 204.561 1019.15 204.561C1022.4 205.479 1020.08 218.794 1020.08 218.794L1019.96 219.347C1019.25 222.488 1018.82 225.679 1018.43 228.874C1018.13 231.284 1015.9 233.488 1015.9 233.488C1011.96 240.833 1018.23 255.295 1018.23 255.295C1018.23 255.295 998.034 260.576 992.467 256.442C986.899 252.307 978.542 255.524 978.542 255.524C982.488 252.081 982.716 230.732 982.716 230.732V214.218C983.182 207.33 989.458 199.528 989.458 199.528C992.027 206.644 999.164 207.114 999.164 207.114C1000.75 209.655 1002.7 208.94 1002.7 208.94L1008.43 208.81Z" fill="#5E1C3E"/>
<path opacity="0.1" d="M1004.26 180.782C1003.46 180.611 1002.63 180.611 1001.84 180.782C999.315 181.471 998.522 184.618 996.573 186.345C995.873 186.981 995.009 187.406 994.374 188.095C993.244 189.321 993.016 191.138 993.256 192.779C993.497 194.421 994.139 195.977 994.541 197.587C994.937 199.199 995.087 200.86 994.987 202.516C994.996 203.065 994.847 203.606 994.557 204.075C994.091 204.71 993.234 204.91 992.63 205.418C990.787 206.987 992.309 210.242 990.958 212.246C990.376 213.113 989.288 213.685 989.067 214.701C988.909 215.422 989.243 216.149 989.571 216.813C990.431 218.559 991.324 220.354 992.781 221.656C994.239 222.958 996.04 223.612 997.831 224.275C998.374 224.476 999.055 224.65 999.469 224.253C999.979 223.758 999.594 222.919 999.241 222.307C998.682 221.354 998.246 220.204 998.573 219.131C998.901 218.058 999.95 217.346 1000.66 216.451C1002.48 214.132 1001.88 210.804 1000.98 208.01C1000.6 206.832 1000.17 205.577 1000.49 204.38C1000.63 203.866 1000.9 203.399 1001.07 202.894C1001.84 200.645 1000.55 198.178 1000.93 195.834C1001.13 194.919 1001.45 194.035 1001.89 193.208L1003.93 188.873C1004.14 188.352 1004.44 187.875 1004.83 187.47C1005.47 186.966 1006.27 186.718 1007.08 186.777C1007.91 186.796 1008.72 186.98 1009.47 187.319C1010.23 187.658 1010.9 188.145 1011.46 188.749C1013.64 191.15 1013.5 194.783 1013.24 197.984L1013.05 200.296C1012.91 201.96 1012.73 203.735 1011.67 205.031C1010.84 206.035 1009.51 206.717 1009.17 207.969C1008.88 209.045 1009.43 210.214 1009.14 211.29C1008.7 212.9 1006.69 213.481 1005.63 214.783C1005.18 215.349 1004.92 216.035 1004.87 216.752C1004.82 217.469 1005 218.182 1005.37 218.801C1005.77 219.436 1006.42 220.071 1006.33 220.817C1006.26 221.417 1005.71 221.903 1005.71 222.507C1005.74 222.777 1005.85 223.032 1006.02 223.24C1006.2 223.449 1006.44 223.599 1006.7 223.672C1007.23 223.808 1007.78 223.834 1008.33 223.748L1014.08 223.234C1014.44 223.233 1014.8 223.136 1015.11 222.954C1015.51 222.669 1015.64 222.141 1015.7 221.656C1015.93 219.63 1015.37 217.416 1016.4 215.644C1016.72 215.076 1017.19 214.602 1017.55 214.056C1019.51 211.008 1017.53 206.873 1018.6 203.415C1019.11 201.773 1020.29 200.363 1020.6 198.677C1021.02 196.428 1019.84 194.231 1019.38 192.008C1018.91 189.712 1019.16 187.184 1017.92 185.186C1016.97 183.662 1015.28 182.713 1013.52 182.277C1011.92 181.877 1010.31 182.02 1008.71 181.849C1007.17 181.674 1005.75 181.02 1004.26 180.782Z" fill="black"/>
<path d="M1004.26 180.321C1003.46 180.15 1002.63 180.15 1001.84 180.321C999.315 181.01 998.522 184.157 996.573 185.885C995.873 186.52 995.009 186.946 994.374 187.635C993.244 188.861 993.016 190.677 993.256 192.319C993.497 193.961 994.139 195.517 994.541 197.127C994.937 198.739 995.087 200.4 994.987 202.055C994.996 202.605 994.847 203.146 994.557 203.615C994.091 204.25 993.234 204.45 992.63 204.958C990.787 206.527 992.309 209.782 990.958 211.786C990.376 212.653 989.288 213.224 989.067 214.24C988.909 214.961 989.243 215.689 989.571 216.352C990.431 218.099 991.324 219.893 992.781 221.195C994.239 222.497 996.04 223.151 997.831 223.815C998.374 224.015 999.055 224.19 999.469 223.793C999.979 223.297 999.594 222.459 999.241 221.846C998.682 220.893 998.246 219.744 998.573 218.67C998.901 217.597 999.95 216.886 1000.66 215.99C1002.48 213.672 1001.88 210.344 1000.98 207.549C1000.6 206.371 1000.17 205.117 1000.49 203.92C1000.63 203.405 1000.9 202.938 1001.07 202.433C1001.84 200.185 1000.55 197.718 1000.93 195.374C1001.13 194.459 1001.45 193.575 1001.89 192.748L1003.93 188.413C1004.14 187.891 1004.44 187.414 1004.83 187.009C1005.47 186.505 1006.27 186.258 1007.08 186.317C1007.91 186.335 1008.72 186.519 1009.47 186.858C1010.23 187.197 1010.9 187.684 1011.46 188.289C1013.64 190.69 1013.5 194.323 1013.24 197.524L1013.05 199.836C1012.91 201.5 1012.73 203.275 1011.67 204.571C1010.84 205.574 1009.51 206.257 1009.17 207.508C1008.88 208.585 1009.43 209.753 1009.14 210.83C1008.7 212.44 1006.69 213.021 1005.63 214.323C1005.18 214.889 1004.92 215.575 1004.87 216.291C1004.82 217.008 1005 217.722 1005.37 218.34C1005.77 218.975 1006.42 219.61 1006.33 220.357C1006.26 220.957 1005.71 221.443 1005.71 222.046C1005.74 222.316 1005.85 222.572 1006.02 222.78C1006.2 222.988 1006.44 223.139 1006.7 223.212C1007.23 223.348 1007.78 223.374 1008.33 223.288L1014.08 222.773C1014.44 222.772 1014.8 222.676 1015.11 222.494C1015.51 222.208 1015.64 221.681 1015.7 221.195C1015.93 219.169 1015.37 216.956 1016.4 215.184C1016.72 214.615 1017.19 214.142 1017.55 213.596C1019.51 210.547 1017.53 206.412 1018.6 202.954C1019.11 201.312 1020.29 199.902 1020.6 198.216C1021.02 195.968 1019.84 193.77 1019.38 191.547C1018.91 189.251 1019.16 186.723 1017.92 184.726C1016.97 183.202 1015.28 182.252 1013.52 181.817C1011.92 181.417 1010.31 181.56 1008.71 181.388C1007.17 181.217 1005.75 180.563 1004.26 180.321Z" fill="black"/>
<path opacity="0.1" d="M991.882 232.91C991.882 232.91 996.525 234.288 1003.25 231.303H1006.73C1006.73 231.303 1006.96 234.517 1016.01 233.139" fill="black"/>
<path d="M976.873 164.249L978.603 169.735H984.201L979.672 173.125L981.402 178.611L976.873 175.221L972.344 178.611L974.074 173.125L969.544 169.735H975.143L976.873 164.249Z" fill="#472F43"/>
<path d="M989.214 199.512V202.497L984.109 215.581L982.716 214.202C982.639 214.121 982.568 214.034 982.504 213.942C979.133 209.204 976.68 177.705 976.68 177.705L973.434 151.07C973.434 151.07 969.954 142.814 977.608 143.265C985.262 143.716 979.233 150.839 979.233 150.839C979.233 150.839 984.337 176.088 983.641 177.006C982.944 177.924 983.641 180.68 983.641 180.68C983.641 180.68 985.731 185.961 985.496 189.861C985.262 193.761 989.214 199.512 989.214 199.512Z" fill="#FDA57D"/>
<g style="mix-blend-mode:overlay" filter="url(#filter0_d)">
<path d="M1047.76 186.689C1047.58 186.586 1047.4 186.501 1047.21 186.43C1047.4 186.359 1047.58 186.274 1047.76 186.171C1049 185.451 1049.68 184.148 1049.69 182.806C1048.54 182.138 1047.08 182.086 1045.84 182.806C1045.66 182.909 1045.49 183.033 1045.34 183.156C1045.37 182.955 1045.39 182.747 1045.39 182.54C1045.39 181.101 1044.61 179.849 1043.46 179.175C1042.31 179.849 1041.53 181.101 1041.53 182.54C1041.53 182.747 1041.55 182.955 1041.59 183.156C1041.43 183.026 1041.26 182.903 1041.08 182.799C1039.85 182.08 1038.39 182.131 1037.23 182.799C1037.23 184.141 1037.92 185.445 1039.16 186.164C1039.34 186.268 1039.52 186.352 1039.71 186.424C1039.52 186.495 1039.34 186.579 1039.16 186.683C1037.93 187.403 1037.24 188.706 1037.23 190.048C1038.38 190.716 1039.85 190.768 1041.08 190.048C1041.26 189.944 1041.43 189.821 1041.59 189.698C1041.55 189.905 1041.53 190.113 1041.53 190.32C1041.53 191.76 1042.31 193.011 1043.46 193.685C1044.61 193.011 1045.39 191.76 1045.39 190.32C1045.39 190.113 1045.37 189.905 1045.34 189.704C1045.49 189.834 1045.66 189.951 1045.84 190.054C1047.07 190.774 1048.53 190.722 1049.69 190.054C1049.68 188.712 1049 187.409 1047.76 186.689V186.689ZM1043.46 189.024C1042.04 189.024 1040.89 187.863 1040.89 186.43C1040.89 184.997 1042.04 183.837 1043.46 183.837C1044.88 183.837 1046.03 184.997 1046.03 186.43C1046.03 187.863 1044.88 189.024 1043.46 189.024Z" fill="#41044A"/>
</g>
<path d="M1046.77 164.621L1034.7 189.87L1032.84 193.307C1032.84 193.307 1027.06 213.478 1020.39 218.308C1020.01 218.592 1019.59 218.829 1019.15 219.017L1017.76 207.997L1019.04 204.796L1019.14 204.552C1020.63 203.115 1021.81 201.398 1022.62 199.502C1024.01 196.288 1027.96 189.861 1027.96 189.861C1027.96 189.861 1028.65 188.025 1028.65 186.647C1028.65 185.269 1041.88 162.544 1041.88 162.544C1041.88 162.544 1043.04 152.214 1048.62 157.263C1054.21 162.312 1046.77 164.621 1046.77 164.621Z" fill="#FDA57D"/>
<path d="M1012.72 200.995C1009.17 202.412 1005.45 202.355 1001.58 200.995C1002.7 199.148 1001.02 197.702 1000.15 195.838L1014.62 195.425C1013.51 197.045 1011.88 198.958 1012.72 200.995Z" fill="white"/>
<path d="M1014.47 195.733L1014.3 195.572L1014.53 195.345L1015.95 193.758L1016.13 193.906L1014.71 195.499L1014.47 195.733Z" fill="white"/>
<path d="M999.162 194.769L999.01 194.943L1000.43 196.082L1000.58 195.907L999.162 194.769Z" fill="white"/>
<path d="M1014.87 197.071L1012.38 200.826L1012.58 200.949L1015.07 197.193L1014.87 197.071Z" fill="white"/>
<path d="M999.423 197.071L999.223 197.193L1001.71 200.949L1001.91 200.826L999.423 197.071Z" fill="white"/>
<path d="M207.749 367.779C203.321 378.737 45.0455 375.912 45.3978 365.873C49.8259 354.915 208.102 357.74 207.749 367.779Z" fill="#585591" fill-opacity="0.5"/>
<path d="M104.631 250.026L102.413 255.353L88.8066 273.92C88.8066 273.92 79.4893 284.27 84.6656 284.878C89.8419 285.487 93.2434 275.29 93.2434 275.29L109.216 259.005L110.991 251.548L104.631 250.026Z" fill="#9F616A"/>
<path d="M111.639 227.96L109.479 228.578C109.479 228.578 99.7767 254.907 100.671 258.105C101.565 261.303 105.59 265.262 107.379 264.957C109.167 264.653 111.639 227.96 111.639 227.96Z" fill="#B482C6"/>
<path d="M141.614 364.681C141.614 364.681 140.748 369.73 143.352 367.709C145.956 365.688 147.314 361.78 147.314 361.78L141.614 364.681Z" fill="#28256D"/>
<path d="M107.998 253.585C107.998 253.585 77.9815 364.341 88.6278 367.589C99.2741 370.838 114.948 367.28 114.8 365.114C114.652 362.949 111.991 320.1 111.991 320.1C111.991 320.1 127.516 377.025 146.739 363.722C165.962 350.419 161.673 347.944 159.899 347.016C158.125 346.088 131.361 302.002 131.509 293.804C131.657 285.605 131.213 259.927 127.96 256.06L107.998 253.585Z" fill="#403C71"/>
<path d="M126.83 214.771C125.62 213.664 124.866 212.136 124.716 210.492C124.566 208.848 125.032 207.206 126.022 205.894C125.891 206.018 125.763 206.147 125.64 206.284C124.485 207.58 123.884 209.287 123.972 211.031C124.059 212.774 124.827 214.411 126.106 215.582C127.385 216.753 129.072 217.362 130.794 217.274C132.517 217.187 134.135 216.411 135.293 215.117C135.415 214.98 135.529 214.838 135.638 214.694C134.447 215.822 132.881 216.456 131.249 216.471C129.618 216.485 128.041 215.879 126.83 214.771V214.771Z" fill="#2F2E41"/>
<path d="M126.233 216.571C133.219 216.571 138.882 210.516 138.882 203.046C138.882 195.577 133.219 189.522 126.233 189.522C119.248 189.522 113.585 195.577 113.585 203.046C113.585 210.516 119.248 216.571 126.233 216.571Z" fill="#2F2E41"/>
<path d="M91.7957 366.763C91.7957 366.763 88.2838 370.322 91.7957 370.322C95.3077 370.322 98.667 368.001 98.667 368.001L91.7957 366.763Z" fill="#28256D"/>
<path d="M118.202 211.557C118.202 211.557 120.437 220.947 118.798 222.765C117.16 224.582 113.585 225.945 113.585 225.945L114.181 242.908C114.181 242.908 121.032 240.485 121.33 240.182C121.628 239.879 127.735 230.035 127.735 230.035L133.693 224.279C133.693 224.279 124.607 219.887 127.288 212.315C129.969 204.742 118.202 211.557 118.202 211.557Z" fill="#9F616A"/>
<path d="M131.26 208.099C131.94 203.739 129.095 199.631 124.906 198.923C120.717 198.215 116.77 201.177 116.091 205.537C115.411 209.897 118.256 214.005 122.445 214.713C126.633 215.421 130.58 212.46 131.26 208.099Z" fill="#9F616A"/>
<path d="M127.717 256.425C127.717 256.425 131.077 244.744 132.683 243.207C134.29 241.67 138.233 227.224 138.233 227.224C138.233 227.224 135.75 223.689 133.705 223.689C131.661 223.689 129.762 224.457 127.425 226.763C126.325 227.848 124.318 229.043 122.502 230.003C121.858 230.349 121.154 230.557 120.432 230.614C119.711 230.672 118.985 230.577 118.299 230.336C117.613 230.095 116.979 229.712 116.434 229.21C115.89 228.708 115.446 228.098 115.129 227.413C114.766 226.601 114.646 225.824 115.011 225.226C115.011 225.226 109.607 226.763 109.315 228.914C109.023 231.066 109.315 235.523 108.877 236.445C108.439 237.367 107.125 238.75 107.709 244.591C108.293 250.431 107.099 257.816 107.099 257.816C112.555 263.294 120.113 259.912 127.717 256.425Z" fill="#B482C6"/>
<path d="M123.315 204.47C126.897 204.47 129.801 202.399 129.801 199.843C129.801 197.288 126.897 195.217 123.315 195.217C119.732 195.217 116.828 197.288 116.828 199.843C116.828 202.399 119.732 204.47 123.315 204.47Z" fill="#2F2E41"/>
<path d="M134.665 199.487C138.069 199.487 140.827 196.619 140.827 193.081C140.827 189.543 138.069 186.675 134.665 186.675C131.262 186.675 128.504 189.543 128.504 193.081C128.504 196.619 131.262 199.487 134.665 199.487Z" fill="#2F2E41"/>
<path d="M139.206 197.681C137.661 197.681 136.172 197.062 135.035 195.946C133.898 194.83 133.195 193.3 133.067 191.657C133.053 191.838 133.044 192.02 133.044 192.205C133.044 193.947 133.693 195.618 134.848 196.85C136.003 198.082 137.57 198.775 139.203 198.776C140.837 198.776 142.404 198.085 143.56 196.854C144.716 195.623 145.366 193.953 145.368 192.211V192.205C145.368 192.02 145.359 191.838 145.345 191.657C145.216 193.3 144.514 194.83 143.377 195.946C142.24 197.062 140.751 197.681 139.206 197.681V197.681Z" fill="#2F2E41"/>
<path d="M124.322 296.294H122.255L118.126 334.02L131.747 333.541L124.322 296.294Z" fill="#B482C6"/>
<path opacity="0.2" d="M124.322 296.294H122.255L118.126 334.02L131.747 333.541L124.322 296.294Z" fill="black"/>
<path d="M123.865 295.582L121.369 333.739L151.952 336.155L154.448 298.963L123.865 295.582Z" fill="#B482C6"/>
<path opacity="0.2" d="M134.341 299.853C134.699 299.853 134.99 299.534 134.99 299.141C134.99 298.748 134.699 298.429 134.341 298.429C133.983 298.429 133.693 298.748 133.693 299.141C133.693 299.534 133.983 299.853 134.341 299.853Z" fill="black"/>
<path opacity="0.2" d="M143.746 300.564C143.925 300.564 144.071 300.405 144.071 300.209C144.071 300.012 143.925 299.853 143.746 299.853C143.567 299.853 143.422 300.012 143.422 300.209C143.422 300.405 143.567 300.564 143.746 300.564Z" fill="black"/>
<path d="M144.07 300.565H143.834C143.834 300.462 144.001 290.4 138.268 289.473C137.139 289.292 136.215 289.549 135.525 290.239C133.158 292.605 134.137 299.287 134.146 299.353L133.914 299.39C133.871 299.109 132.909 292.519 135.361 290.07C136.107 289.321 137.103 289.041 138.308 289.235C144.24 290.192 144.073 300.462 144.07 300.565Z" fill="#3F3D56"/>
<path d="M139.004 248.602L138.27 257.171L139.738 282.877C139.738 282.877 143.116 295.882 137.976 295.576C132.836 295.27 134.745 281.959 134.745 281.959L132.395 252.122L139.004 248.602Z" fill="#9F616A"/>
<path d="M134.431 225.113L138.314 227.262C138.314 227.262 143.541 263.789 140.554 267.32C137.567 270.852 131.444 272.234 131.145 270.852C130.846 269.47 129.801 241.388 129.801 241.388L134.431 225.113Z" fill="#B482C6"/>
<path d="M128.049 212.569C124.978 213.825 121.758 213.774 118.406 212.569C119.381 210.931 117.923 209.649 117.175 207.996L129.69 207.63C128.733 209.066 127.321 210.762 128.049 212.569Z" fill="white"/>
<path d="M129.558 207.903L129.412 207.76L129.618 207.558L130.843 206.151L130.999 206.283L129.768 207.695L129.558 207.903Z" fill="white"/>
<path d="M116.318 207.048L116.186 207.203L117.417 208.212L117.548 208.057L116.318 207.048Z" fill="white"/>
<path d="M129.911 209.089L127.756 212.419L127.93 212.527L130.084 209.198L129.911 209.089Z" fill="white"/>
<path d="M116.543 209.089L116.37 209.198L118.525 212.528L118.698 212.419L116.543 209.089Z" fill="white"/>
</g>
<defs>
<filter id="filter0_d" x="1033.23" y="179.175" width="20.457" height="22.5103" filterUnits="userSpaceOnUse" color-interpolation-filters="sRGB">
<feFlood flood-opacity="0" result="BackgroundImageFix"/>
<feColorMatrix in="SourceAlpha" type="matrix" values="0 0 0 0 0 0 0 0 0 0 0 0 0 0 0 0 0 0 127 0"/>
<feOffset dy="4"/>
<feGaussianBlur stdDeviation="2"/>
<feColorMatrix type="matrix" values="0 0 0 0 0 0 0 0 0 0 0 0 0 0 0 0 0 0 0.25 0"/>
<feBlend mode="normal" in2="BackgroundImageFix" result="effect1_dropShadow"/>
<feBlend mode="normal" in="SourceGraphic" in2="effect1_dropShadow" result="shape"/>
</filter>
<linearGradient id="paint0_linear" x1="1016.8" y1="367.218" x2="1016.8" y2="142.02" gradientUnits="userSpaceOnUse">
<stop stop-color="#808080" stop-opacity="0.25"/>
<stop offset="0.54" stop-color="#808080" stop-opacity="0.12"/>
<stop offset="1" stop-color="#808080" stop-opacity="0.1"/>
</linearGradient>
<clipPath id="clip0">
<rect width="1108" height="378" fill="white"/>
</clipPath>
</defs>
</svg>
