<svg width="761" height="557" viewBox="0 0 761 557" fill="none" xmlns="http://www.w3.org/2000/svg">
<path fill-rule="evenodd" clip-rule="evenodd" d="M347.029 7.8164C399.292 19.8473 434.665 62.8828 476.978 95.8331C517.481 127.374 564.285 151.041 588.842 196.123C616.928 247.682 632.475 306.467 623.305 364.459C613.113 428.906 589.638 497.692 535.414 533.981C481.74 569.901 411.581 551.41 347.029 549.353C284.91 547.374 217.96 558.068 167.17 522.248C116.118 486.245 106.37 418.143 80.4112 361.322C50.1708 295.13 -14.6738 233.505 3.00337 162.911C20.7089 92.2049 98.4334 53.9454 164.883 23.9886C221.845 -1.69148 286.138 -6.20074 347.029 7.8164Z" fill="#F9C6F4" fill-opacity="0.3"/>
<path d="M761 435H759V453.5H761V435Z" fill="#F2F2F2"/>
<path d="M622 132H482V134H622V132Z" fill="#F2F2F2"/>
<path d="M522 114H520V132.5H522V114Z" fill="#F2F2F2"/>
<path d="M583 114H581V132.5H583V114Z" fill="#F2F2F2"/>
<path d="M666 373H526V375H666V373Z" fill="#F2F2F2"/>
<path d="M566 355H564V373.5H566V355Z" fill="#F2F2F2"/>
<path d="M627 355H625V373.5H627V355Z" fill="#F2F2F2"/>
<path d="M426.811 514.276H190.025V512.573H425.107V429.953H209.931L199.478 408.176L201.014 407.439L211.003 428.249H426.811V514.276Z" fill="#2F2E41"/>
<path d="M221.54 556.012C231.419 556.012 239.427 548.004 239.427 538.125C239.427 528.247 231.419 520.239 221.54 520.239C211.661 520.239 203.653 528.247 203.653 538.125C203.653 548.004 211.661 556.012 221.54 556.012Z" fill="#3F3D56"/>
<path d="M397.852 556.012C407.731 556.012 415.739 548.004 415.739 538.125C415.739 528.247 407.731 520.239 397.852 520.239C387.973 520.239 379.965 528.247 379.965 538.125C379.965 548.004 387.973 556.012 397.852 556.012Z" fill="#3F3D56"/>
<path d="M605.679 169.318C611.794 169.318 616.751 164.36 616.751 158.245C616.751 152.13 611.794 147.172 605.679 147.172C599.563 147.172 594.606 152.13 594.606 158.245C594.606 164.36 599.563 169.318 605.679 169.318Z" fill="#3F3D56"/>
<path d="M452.137 401.845H185.988L128.4 213.609H511.444L511.096 214.716L452.137 401.845ZM187.248 400.142H450.887L509.122 215.312H130.702L187.248 400.142Z" fill="#2F2E41"/>
<path d="M431.361 392.05H197.593L147.011 225.107H483.452L483.146 226.09L431.361 392.05Z" fill="#F2F2F2"/>
<path d="M516.216 196.792L514.569 196.355L525.81 153.986H591.199V155.69H527.121L516.216 196.792Z" fill="#2F2E41"/>
<path d="M492.303 270.676H147.01V272.38H492.303V270.676Z" fill="#2F2E41"/>
<path d="M472.529 333.436H166.21V335.14H472.529V333.436Z" fill="#2F2E41"/>
<path d="M320.769 214.461H319.065V400.994H320.769V214.461Z" fill="#2F2E41"/>
<path d="M397.037 214.407L384.809 400.936L386.509 401.047L398.737 214.519L397.037 214.407Z" fill="#2F2E41"/>
<path d="M242.832 214.405L241.132 214.516L253.289 401.049L254.989 400.938L242.832 214.405Z" fill="#2F2E41"/>
</svg>
