<svg width="72" height="69" viewBox="0 0 72 69" fill="none" xmlns="http://www.w3.org/2000/svg">
<path d="M71.9997 63.7874C70.036 71.9244 -0.155964 69.8268 0.000260388 62.3724C1.96402 54.2359 72.1559 56.3335 71.9997 63.7874Z" fill="#585591" fill-opacity="0.5"/>
<path d="M59.9322 0.261826C58.665 0.795447 56.0261 2.00929 51.0832 4.31969C49.7585 4.94127 48.1824 5.68013 47.575 5.9616L46.4755 6.47763L46.2922 7.65629C46.1927 8.30132 46.088 8.85253 46.0566 8.88772C46.0147 8.92877 39.6267 11.9077 36.2913 13.4382C35.9614 13.5906 35.3593 13.8662 34.9561 14.0539C34.5529 14.2415 32.5841 15.1504 30.5839 16.0769C28.5838 17.0034 25.8715 18.2583 24.5625 18.8623C23.2534 19.4663 20.2636 20.8502 17.9231 21.935C15.5826 23.014 13.6295 23.9288 13.5719 23.9581C13.4934 24.005 13.4515 24.2161 13.3311 25.213L13.1897 26.4034L9.27834 28.2036C7.13154 29.1888 5.33557 30.0156 5.29368 30.0332C5.23084 30.0566 5.09471 29.74 4.66535 28.5379C4.36166 27.6993 4.09985 27.0132 4.08414 27.0132C4.03702 27.0132 1.41898 28.2857 1.38233 28.3209C1.36662 28.3444 1.99495 30.0918 2.44525 31.2646C2.46096 31.2998 1.91117 31.5871 1.23572 31.9096L0 32.496L0.0157082 32.9593L0.0314165 33.4225L4.41402 35.4573L8.79138 37.498L12.4043 35.8326L16.0172 34.1614L16.8707 34.8709C17.3419 35.258 17.7503 35.5688 17.7765 35.557C17.8079 35.5394 20.5254 34.2846 23.8137 32.7599L29.7933 29.9921L30.4269 30.6196L31.0604 31.247L32.4218 30.5903C33.1653 30.2267 33.7937 29.9452 33.8094 29.9628C33.8565 30.0156 34.3016 31.464 34.3016 31.5637C34.3016 31.6164 33.469 33.6806 32.448 36.1493C30.097 41.8608 21.7245 62.1442 21.1904 63.4226C20.9705 63.9562 20.8082 64.4077 20.8291 64.4312C20.8815 64.484 21.9601 65.0176 21.9758 64.9941C21.9863 64.9824 25.3165 58.403 31.7778 45.6196C35.1393 38.9699 35.642 38.0082 35.6734 38.143C35.6944 38.231 35.7624 39.1575 35.82 40.2072C35.9195 41.9136 35.9981 43.233 36.2651 47.6251C36.307 48.3346 36.485 51.249 36.6578 54.1048C36.8254 56.9605 36.9824 59.4586 36.9981 59.6579L37.0348 60.0274H37.6055C38.0192 60.0274 38.1867 60.0039 38.2024 59.9511C38.2129 59.9159 38.3281 57.8342 38.459 55.3362C38.5952 52.8381 38.7261 50.3811 38.7522 49.8827C38.7837 49.3843 38.9355 46.5461 39.0926 43.5789C39.2497 40.6118 39.3858 38.1313 39.3963 38.0668C39.4067 37.9671 39.4277 37.9847 39.5167 38.1548C39.5795 38.2662 42.6636 44.2943 46.3707 51.5539C50.0779 58.8077 53.141 64.8065 53.1829 64.8769L53.2509 65L53.8321 64.7303C54.1463 64.5778 54.4081 64.4312 54.4081 64.4019C54.4081 64.3491 53.4028 61.9273 49.0411 51.4366C47.7164 48.2584 45.5696 43.0981 44.0669 39.4742C40.8362 31.7044 40.9619 31.9976 40.4906 31.4112C40.1346 30.9655 39.7942 30.6899 39.1554 30.3264L38.637 30.0332L38.281 29.0363C38.082 28.4851 37.9406 28.0218 37.9564 27.9984C37.9773 27.9749 38.5952 27.6817 39.3282 27.3475L40.6634 26.7435L40.7001 25.8404C40.721 25.342 40.7577 24.9198 40.7786 24.9022C40.8414 24.8436 50.2297 20.4866 50.3502 20.4632C50.4444 20.4397 50.7219 20.6626 52.0781 21.8588C52.1095 21.8823 52.4551 21.7533 52.8635 21.5656C53.2667 21.378 56.3298 19.953 59.6704 18.3932C63.011 16.8393 65.8437 15.514 65.9641 15.4554C66.3987 15.2267 66.7181 14.6755 66.9066 13.8486C67.0218 13.3385 67.0323 11.6555 66.9276 10.858C66.5401 7.89084 65.3253 4.62462 63.7912 2.41977C63.0267 1.3232 62.1104 0.437745 61.4402 0.156275C60.8956 -0.0724199 60.7019 -0.0606919 59.9322 0.261826ZM61.7386 2.15589C62.6026 2.61328 63.8069 4.46629 64.6656 6.67114C65.4196 8.60038 65.8228 10.3478 65.8228 11.679C65.8175 14.136 64.5818 14.3002 63.0529 12.0425C61.0841 9.12814 59.7489 3.97958 60.5605 2.40804C60.8014 1.95065 61.1888 1.86269 61.7386 2.15589Z" fill="#5D0B64"/>
</svg>
