<svg width="248" height="227" viewBox="0 0 248 227" fill="none" xmlns="http://www.w3.org/2000/svg">
<g clip-path="url(#clip0)">
<path opacity="0.4" fill-rule="evenodd" clip-rule="evenodd" d="M134.223 20.0625C150.495 22.2055 166.099 13.3866 182.545 14.3215C203.056 15.4874 228.632 13.3178 241.664 26.17C254.637 38.964 243.566 58.5941 244.199 75.1266C244.726 88.8736 245.989 102.129 245.102 115.864C244.076 131.734 248.066 148.738 238.543 162.643C228.818 176.842 209.22 184.141 192.329 192.92C173.811 202.544 154.869 223.038 134.223 216.86C109.667 209.512 105.765 181.955 83.0001 171.5C62.5702 162.118 23.0159 197.692 5.00005 185.5C-11.1668 174.559 24.3079 132.874 23.4284 115.848C22.7014 101.772 15.6523 87.9918 19.4301 74.2384C23.2152 60.4584 35.4625 49.7196 44.8608 37.8217C55.1485 24.7977 59.1023 4.19936 77.669 0.509525C97.8325 -3.49765 113.729 17.3635 134.223 20.0625Z" fill="#DBC1E7"/>
<path d="M170.541 116.316C157.435 115.785 144.29 115.923 131.214 116.731C124.912 117.122 118.51 117.544 112.324 118.487C107.341 119.247 101.559 120.531 98.4542 123.522C97.8041 124.125 97.3659 124.823 97.174 125.561C96.9822 126.299 97.0418 127.058 97.3482 127.777C98.0884 129.482 99.9298 130.901 101.891 132.013C106.404 134.571 112.004 136.06 117.007 138.093C126.14 141.804 134.499 146.806 139.864 153.16C142.225 155.956 144.47 159.674 141.842 162.755C139.266 165.774 133.517 166.814 128.828 167.304C122.952 167.919 116.898 167.752 110.997 167.408C104.527 166.994 98.0937 166.347 91.7227 165.471C79.2417 163.826 66.8742 161.735 54.2197 160.783C47.8746 160.271 41.476 160.144 35.0984 160.404C29.3387 160.67 23.5297 161.296 18.1189 162.721C13.9494 163.819 9.50493 165.48 7.25273 168.251C5.08171 170.922 5.92848 174.002 8.29245 176.466C11.1368 179.431 15.5721 181.462 20.1834 182.947C25.4338 184.638 31.0496 185.734 36.6725 186.666C39.5243 187.139 42.3915 187.566 45.259 187.991C45.8572 188.08 46.1128 187.45 45.5125 187.361C39.7299 186.503 33.9307 185.643 28.2917 184.402C23.0735 183.254 17.7333 181.782 13.4601 179.371C10.003 177.42 6.71602 174.57 6.92008 171.33C7.12578 168.064 11.1197 165.783 15.0344 164.379C19.9266 162.625 25.4849 161.771 30.9313 161.324C37.1676 160.847 43.4567 160.789 49.7096 161.149C62.3343 161.808 74.6769 163.781 87.0549 165.502C99.0799 167.174 111.48 168.723 123.804 168.294C128.688 168.124 133.922 167.644 138.234 165.952C140.209 165.177 141.99 164.085 142.993 162.664C143.897 161.311 144.183 159.803 143.813 158.336C143.114 155.116 140.326 152.13 137.544 149.564C134.495 146.782 130.958 144.268 127.013 142.079C122.683 139.688 118.015 137.602 113.078 135.85C110.46 134.905 107.805 133.995 105.31 132.9C102.918 131.849 100.558 130.586 99.0972 128.881C97.8337 127.406 97.6019 125.723 98.9179 124.227C100.249 122.714 102.542 121.659 104.804 120.888C110.253 119.031 116.587 118.533 122.549 118.024C135.349 116.934 148.25 116.492 161.145 116.703C164.279 116.754 167.411 116.843 170.541 116.97C171.154 116.995 171.152 116.341 170.541 116.316Z" fill="black"/>
<path d="M193.033 31.6015L196.361 29.0359C193.776 28.761 192.713 30.12 192.278 31.1957C190.258 30.3873 188.059 31.4468 188.059 31.4468L194.719 33.7767C194.383 32.9119 193.798 32.1573 193.033 31.6015Z" fill="#3F3D56"/>
<path d="M174.216 52.8026L177.544 50.2371C174.958 49.9622 173.896 51.3212 173.461 52.3969C171.441 51.5885 169.242 52.6479 169.242 52.6479L175.902 54.9779C175.566 54.1131 174.981 53.3585 174.216 52.8026Z" fill="#3F3D56"/>
<path d="M146.407 51.3554L149.736 48.7898C147.15 48.5149 146.088 49.8739 145.653 50.9496C143.633 50.1412 141.434 51.2007 141.434 51.2007L148.094 53.5306C147.758 52.6658 147.173 51.9112 146.407 51.3554Z" fill="#3F3D56"/>
<path d="M74.0863 223.871L72.2454 224.416L68.7312 219.019L71.4482 218.215L74.0863 223.871Z" fill="#FFB7B7"/>
<path d="M75.0313 225.262L69.2244 227L69.1971 226.941C68.9744 226.458 68.999 225.924 69.2653 225.456C69.5317 224.987 70.0181 224.624 70.6175 224.444H70.6176L74.1643 223.383L75.0313 225.262Z" fill="#2F2E41"/>
<path d="M56.1305 225.45H54.2096L53.2958 219.249H56.1308L56.1305 225.45Z" fill="#FFB7B7"/>
<path d="M56.4457 227L50.4607 226.999V226.934C50.4607 226.403 50.7062 225.894 51.143 225.519C51.5799 225.144 52.1724 224.933 52.7902 224.933H52.7904H56.4458L56.4457 227Z" fill="#2F2E41"/>
<path d="M65.065 183.33L64.4372 182.301L59.1003 184.487L59.2573 185.387L58.237 186.48C58.237 186.48 56.5103 187.251 56.8243 189.822L57.1382 192.265L57.5306 195.415L54.7837 203.194L53.371 213.479L52.3507 221.772L57.2952 221.579L61.8472 208.079L69.8525 222.607L75.3463 221.45L67.8119 207.051L66.8701 201.008C66.8701 201.008 67.498 197.794 64.5157 195.608L64.9865 194.451V193.025L66.5562 186.223L65.065 183.33Z" fill="#2F2E41"/>
<path opacity="0.2" d="M65.2156 197.949L61.7513 207.981L61.9294 208.022L65.3937 197.99L65.2156 197.949Z" fill="black"/>
<path d="M64.9511 195.22H57.0759V195.995H64.9511V195.22Z" fill="#3F3D56"/>
<path d="M57.0759 196.254C57.2498 196.254 57.3909 195.965 57.3909 195.608C57.3909 195.251 57.2498 194.962 57.0759 194.962C56.9019 194.962 56.7609 195.251 56.7609 195.608C56.7609 195.965 56.9019 196.254 57.0759 196.254Z" fill="#3F3D56"/>
<path d="M62.688 183.393C64.7221 182.485 65.4697 180.402 64.3577 178.741C63.2458 177.079 60.6955 176.469 58.6614 177.377C56.6273 178.285 55.8798 180.368 56.9917 182.03C58.1036 183.691 60.654 184.302 62.688 183.393Z" fill="#FFB7B7"/>
<path d="M67.1561 179.201C69.2438 179.201 70.9362 177.813 70.9362 176.1C70.9362 174.388 69.2438 173 67.1561 173C65.0684 173 63.376 174.388 63.376 176.1C63.376 177.813 65.0684 179.201 67.1561 179.201Z" fill="#2F2E41"/>
<path d="M71.7301 175.842C71.8735 176.242 71.9155 176.662 71.8534 177.075C71.7912 177.489 71.6264 177.887 71.3691 178.245C71.1119 178.604 70.7679 178.914 70.3588 179.156C69.9498 179.398 69.4846 179.568 68.9926 179.653C68.5007 179.739 67.9926 179.739 67.5005 179.654C67.0084 179.569 66.5429 179.4 66.1336 179.158C65.7242 178.916 65.3797 178.606 65.122 178.248C64.8642 177.891 64.6988 177.492 64.6361 177.079C64.8966 177.804 65.4766 178.422 66.2609 178.809C67.0453 179.196 67.9765 179.325 68.8698 179.169C69.7631 179.013 70.5531 178.585 71.083 177.968C71.6129 177.352 71.8439 176.593 71.7301 175.842Z" fill="#2F2E41"/>
<path d="M57.0165 179.454C56.9059 180.217 57.1196 180.986 57.6245 181.644C58.1293 182.302 58.8971 182.811 59.8089 183.092C60.7206 183.374 61.7255 183.412 62.6677 183.201C63.6099 182.99 64.4368 182.541 65.0204 181.924C65.604 181.308 65.9116 180.558 65.8956 179.79C65.8796 179.023 65.5408 178.281 64.9319 177.68C64.3229 177.079 63.4776 176.651 62.5271 176.464C61.5766 176.277 60.5739 176.341 59.6744 176.646C58.9304 176.176 58.0081 176.322 57.2582 176.817C56.4102 177.378 56.1586 177.763 55.5009 178.685C56.1476 178.756 56.3698 179.383 57.0165 179.454Z" fill="#2F2E41"/>
<path d="M72.5092 188.011C72.4627 189.018 72.3705 191 72.3705 191.101C72.3705 191.207 70.5318 194.318 69.7375 195.657V195.658C69.681 195.752 69.6303 195.837 69.5854 195.913C69.524 196.017 69.4274 196.104 69.3071 196.164C69.1868 196.225 69.0478 196.256 68.9066 196.254L65.4354 196.203C65.2446 196.2 65.0624 196.137 64.9269 196.027C64.7914 195.918 64.7131 195.769 64.7084 195.613L64.3212 183.135C64.3199 183.094 64.3287 183.053 64.3471 183.014C64.3654 182.976 64.393 182.941 64.4282 182.912C64.4633 182.882 64.5053 182.859 64.5517 182.843C64.5981 182.827 64.648 182.818 64.6984 182.818H69.175C69.3641 182.818 69.5493 182.862 69.7095 182.944C69.8697 183.026 69.9983 183.144 70.0806 183.283L72.2292 186.915C72.4307 187.256 72.5268 187.633 72.5092 188.011Z" fill="#6C63FF"/>
<path d="M64.6577 194.703C63.7284 194.262 62.8933 193.71 62.1831 193.066C60.5329 191.613 59.5293 189.78 59.323 187.842C59.1389 186.184 59.5591 184.951 60.5718 184.179C61.8592 183.196 63.6115 183.339 63.6855 183.346L63.7639 183.353L64.9511 184.139L64.6151 184.45L63.5529 183.746C63.2277 183.734 61.9003 183.731 60.9306 184.474C60.038 185.157 59.6715 186.278 59.8412 187.806C60.0375 189.651 60.9906 191.397 62.5583 192.783C63.2346 193.396 64.0274 193.923 64.9087 194.347L64.6577 194.703Z" fill="#6C63FF"/>
<path d="M71.1541 189.953L65.0308 190.98L65.0645 191.115L71.1879 190.087L71.1541 189.953Z" fill="#3F3D56"/>
<path d="M67.1191 182.687L66.9504 182.692L67.3481 190.651L67.5168 190.645L67.1191 182.687Z" fill="#3F3D56"/>
<path d="M72.5089 188.046C72.4613 189.058 72.3671 191.052 72.3671 191.154C72.3671 191.261 70.4879 194.39 69.6761 195.737L71.1893 188.671C71.2478 188.399 71.3951 188.144 71.6161 187.933C71.837 187.722 72.1237 187.562 72.4469 187.469C72.4977 187.659 72.5185 187.852 72.5089 188.046Z" fill="#3F3D56"/>
<path d="M63.3954 202.768C63.5216 202.632 63.6106 202.476 63.6561 202.309C63.7017 202.142 63.7027 201.968 63.659 201.801C63.6153 201.633 63.5281 201.476 63.4035 201.34C63.2788 201.203 63.1197 201.092 62.9375 201.012L63.2272 198.345L61.3229 197.804L60.9774 201.574C60.837 201.838 60.8176 202.135 60.9231 202.41C61.0285 202.685 61.2513 202.918 61.5494 203.065C61.8474 203.212 62.2 203.263 62.5402 203.208C62.8805 203.153 63.1847 202.997 63.3954 202.768Z" fill="#FFB7B7"/>
<path d="M63.6249 200.129L60.226 200.023L60.3698 185.999C60.3674 185.603 60.5108 185.215 60.7798 184.892C61.0487 184.568 61.4297 184.326 61.8687 184.198C62.279 184.081 62.7224 184.081 63.1329 184.197C63.5985 184.331 63.9984 184.595 64.2694 184.946C64.5404 185.297 64.6672 185.715 64.6297 186.134L63.6249 200.129Z" fill="#CBCBCB"/>
<path d="M94.6918 227H24.185C24.1359 227 24.0889 226.986 24.0542 226.962C24.0195 226.938 24 226.905 24 226.87C24 226.836 24.0195 226.803 24.0542 226.779C24.0889 226.755 24.1359 226.741 24.185 226.741H94.6918C94.7409 226.741 94.788 226.755 94.8227 226.779C94.8574 226.803 94.8769 226.836 94.8769 226.87C94.8769 226.905 94.8574 226.938 94.8227 226.962C94.788 226.986 94.7409 227 94.6918 227Z" fill="#CBCBCB"/>
<path d="M185.783 110.444C208.859 110.444 227.566 108.342 227.566 105.75C227.566 103.157 208.859 101.056 185.783 101.056C162.707 101.056 144 103.157 144 105.75C144 108.342 162.707 110.444 185.783 110.444Z" fill="#3F3D56"/>
<path opacity="0.1" d="M183.742 107.953C205.205 107.953 222.604 106.967 222.604 105.75C222.604 104.533 205.205 103.546 183.742 103.546C162.279 103.546 144.88 104.533 144.88 105.75C144.88 106.967 162.279 107.953 183.742 107.953Z" fill="black"/>
<path d="M205.241 42.8813V48.1477H199.512V105.582H211.468V50.3339V48.1477V42.8813H205.241Z" fill="#575A89"/>
<path d="M173.691 78.2561V69.2139H166.385V78.2561H163.645V105.681H176.348V78.2561H173.691Z" fill="#575A89"/>
<path d="M174.937 92.9629H165.057V105.781H174.937V92.9629Z" fill="#3F3D56"/>
<path opacity="0.1" d="M166.634 92.9629H165.057V105.781H166.634V92.9629Z" fill="black"/>
<path d="M195.278 40V43.0804H180.665V40H176.348V105.781H199.512V40H195.278Z" fill="#3F3D56"/>
<path opacity="0.1" d="M198.516 40H195.278V43.0804H198.516V40Z" fill="black"/>
<path opacity="0.1" d="M179.586 40H176.348V105.781H179.586V40Z" fill="black"/>
<path d="M159.826 58.7806V56.2964H157.668V58.7806H153.765V105.781H163.645V58.7806H159.826Z" fill="#3F3D56"/>
<path opacity="0.1" d="M158.83 56.2964H157.668V58.7806H158.83V56.2964Z" fill="black"/>
<path opacity="0.1" d="M154.928 58.7808H153.765V105.781H154.928V58.7808Z" fill="black"/>
<path opacity="0.1" d="M198.516 65.3389H195.278V105.781H198.516V65.3389Z" fill="black"/>
<path opacity="0.1" d="M163.645 58.7808H160.657V67.4257H163.645V58.7808Z" fill="black"/>
<path d="M184.568 48.3472H179.918V50.732H184.568V48.3472Z" fill="#925694"/>
<path d="M194.448 72.8906H189.798V75.2754H194.448V72.8906Z" fill="#925694"/>
<path d="M184.568 90.0811H179.918V92.4659H184.568V90.0811Z" fill="#925694"/>
<path d="M161.072 69.5122H156.422V71.897H161.072V69.5122Z" fill="#925694"/>
<path d="M172.363 94.354H167.714V96.7388H172.363V94.354Z" fill="#925694"/>
<path opacity="0.1" d="M174.023 80.3428H166.053V84.3174H174.023V80.3428Z" fill="black"/>
<path opacity="0.1" d="M208.894 52.7192H200.924V56.6939H208.894V52.7192Z" fill="black"/>
<path opacity="0.1" d="M208.894 61.165H200.924V65.1397H208.894V61.165Z" fill="black"/>
<path opacity="0.1" d="M208.894 69.6113H200.924V73.586H208.894V69.6113Z" fill="black"/>
<path opacity="0.1" d="M208.894 78.0576H200.924V82.0323H208.894V78.0576Z" fill="black"/>
<path opacity="0.1" d="M208.894 86.5039H200.924V90.4786H208.894V86.5039Z" fill="black"/>
<path opacity="0.1" d="M208.894 94.9502H200.924V98.9249H208.894V94.9502Z" fill="black"/>
<path d="M214.208 70.7045V59.8735H208.396V70.7045H206.32V105.781H216.2V70.7045H214.208Z" fill="#3F3D56"/>
<path opacity="0.1" d="M210.222 59.8735H208.396V70.7045H210.222V59.8735Z" fill="black"/>
<path opacity="0.1" d="M208.147 70.7046H206.32V105.781H208.147V70.7046Z" fill="black"/>
<path opacity="0.1" d="M216.2 88.2925H211.302V91.7703H216.2V88.2925Z" fill="black"/>
<path d="M216.117 83.1255H211.468V85.5103H216.117V83.1255Z" fill="#925694"/>
<path opacity="0.1" d="M191.956 52.6477V52.6816C191.957 52.6879 191.957 52.6943 191.956 52.7006C191.956 52.7155 191.956 52.7304 191.956 52.7453V52.7548C191.956 52.767 191.956 52.7792 191.956 52.7914V52.809V52.8429C191.957 52.8519 191.957 52.861 191.956 52.87L191.95 52.9378C191.95 52.9527 191.95 52.9676 191.95 52.9825V53.0042C191.95 53.0087 191.95 53.0132 191.95 53.0177C191.95 53.0177 191.95 53.0259 191.95 53.0299C191.95 53.0376 191.95 53.0453 191.95 53.053V53.076V53.0936C191.95 53.1031 191.95 53.1126 191.95 53.1234C191.949 53.1302 191.949 53.137 191.95 53.1438C191.95 53.1519 191.95 53.16 191.95 53.1682L191.943 53.198C191.943 53.198 191.943 53.198 191.943 53.2061C191.94 53.2158 191.937 53.2258 191.935 53.2359C191.927 53.2671 191.919 53.2983 191.91 53.3294C191.906 53.3387 191.903 53.3482 191.901 53.3579L191.895 53.3742C191.929 53.2064 191.945 53.0344 191.944 52.8619C191.941 52.5098 191.865 52.1642 191.722 51.8565C191.579 51.5488 191.374 51.2887 191.125 51.1C191.093 51.0756 191.062 51.0526 191.029 51.0309C190.769 50.8605 190.476 50.7711 190.18 50.7711C189.883 50.7711 189.591 50.8605 189.33 51.0309C189.273 51.0691 189.217 51.1112 189.163 51.157C189.082 51.2269 189.006 51.3049 188.936 51.3901C188.87 51.3095 188.798 51.2356 188.721 51.1692C188.662 51.1202 188.602 51.075 188.539 51.0336C188.278 50.8634 187.986 50.7742 187.69 50.7742C187.393 50.7742 187.101 50.8634 186.84 51.0336C186.752 51.0921 186.669 51.1592 186.59 51.2342C186.538 51.2834 186.489 51.3364 186.443 51.3928C186.372 51.476 186.307 51.5668 186.249 51.6638C186.214 51.7228 186.181 51.7843 186.152 51.8481C186.124 51.9078 186.099 51.9688 186.076 52.0297C186.063 52.0636 186.052 52.0975 186.041 52.1327C186.041 52.1192 186.041 52.1056 186.05 52.0921C186.049 52.0853 186.049 52.0785 186.05 52.0718C186.049 52.0677 186.049 52.0636 186.05 52.0596L186.057 52.0297C186.057 52.0067 186.069 51.9837 186.075 51.9606C186.078 51.95 186.081 51.9391 186.084 51.9281C186.097 51.8834 186.112 51.84 186.127 51.7926L186.137 51.7655C186.137 51.7533 186.146 51.7397 186.152 51.7262C186.157 51.7126 186.169 51.6842 186.178 51.6638L186.189 51.6354L186.204 51.6042C186.211 51.5906 186.216 51.5771 186.223 51.5649C186.226 51.5583 186.229 51.5519 186.232 51.5459C186.232 51.5459 186.232 51.5391 186.232 51.5351C186.232 51.5269 186.24 51.5188 186.245 51.512L186.258 51.4863L186.29 51.4294L186.301 51.4104L186.316 51.386L186.331 51.3616L186.35 51.3318L186.367 51.306V51.2966L186.379 51.2789L186.399 51.2518L186.408 51.2396L186.422 51.2193L186.439 51.1976C186.455 51.1773 186.471 51.157 186.488 51.138C186.494 51.1297 186.5 51.1219 186.507 51.1149C186.517 51.103 186.526 51.0917 186.537 51.0811L186.557 51.0594C186.564 51.0501 186.572 51.0415 186.58 51.0336L186.596 51.0174L186.612 51.0025L186.643 50.9713L186.659 50.9564C186.686 50.932 186.713 50.9076 186.741 50.8859L186.758 50.8724L186.775 50.8588L186.79 50.8466L186.814 50.829L186.826 50.8209L186.843 50.8087L186.912 50.7626L186.925 50.7531L186.947 50.7409L186.965 50.7301L186.983 50.7206L187.001 50.7097L187.018 50.7002L187.036 50.6908L187.11 50.6555L187.128 50.6474L187.147 50.6393L187.164 50.6325L187.179 50.6257L187.213 50.6135H187.23H187.243H187.257L187.282 50.6054L187.314 50.5959C187.348 50.5864 187.38 50.5769 187.414 50.5701H187.428H187.447H187.466H187.49H187.505L187.602 50.5579H187.87L187.948 50.5674H187.982H188.006H188.025H188.044H188.056C188.09 50.5739 188.123 50.5825 188.156 50.5932L188.197 50.6054H188.208H188.225L188.259 50.6176H188.274L188.346 50.6474H188.362L188.384 50.6569L188.417 50.6731L188.454 50.6921L188.469 50.7002L188.489 50.7124L188.507 50.7219L188.524 50.7328L188.547 50.7463L188.565 50.7572L188.605 50.7843L188.623 50.7951L188.682 50.8385L188.697 50.8507L188.714 50.8642L188.73 50.8778L188.742 50.8873L188.811 50.9483L188.828 50.9632L188.859 50.9943L188.875 51.0092L188.89 51.0255L188.914 51.0513L188.934 51.0729L188.963 51.1068C188.97 51.1138 188.977 51.1215 188.983 51.1299C188.99 51.1217 188.995 51.1136 189.002 51.1068L189.033 51.0729C189.038 51.065 189.045 51.0578 189.052 51.0513L189.076 51.0255L189.091 51.0092L189.107 50.9943L189.139 50.9632L189.155 50.9483C189.182 50.9239 189.209 50.8995 189.236 50.8778L189.253 50.8642L189.27 50.8507L189.286 50.8385L189.309 50.8209L189.321 50.8127L189.338 50.8005L189.407 50.7545L189.421 50.745L189.442 50.7328L189.461 50.7219L189.478 50.7124L189.496 50.7016L189.514 50.6921L189.532 50.6826L189.604 50.6474L189.623 50.6393L189.642 50.6311L189.66 50.6243L189.675 50.6176L189.709 50.6054H189.726H189.739H189.753L189.778 50.5972L189.809 50.5878C189.842 50.5783 189.876 50.5688 189.909 50.562H189.924H189.942H189.962H189.986H190.001L190.097 50.5498H190.365L190.442 50.5593H190.477H190.501H190.521H190.54H190.552C190.585 50.5661 190.619 50.5742 190.652 50.585L190.693 50.5972H190.703H190.721L190.754 50.6094H190.768L190.841 50.6393H190.858L190.879 50.6487L190.912 50.665L190.95 50.684L190.964 50.6921L190.985 50.7043L191.002 50.7138L191.02 50.7246L191.043 50.7382L191.06 50.749L191.1 50.7761L191.117 50.787C191.138 50.8005 191.157 50.8154 191.176 50.8303L191.192 50.8425L191.209 50.8561L191.226 50.8696L191.237 50.8791L191.306 50.9401L191.322 50.955L191.354 50.9862L191.37 51.0011L191.386 51.0174L191.406 51.0391L191.426 51.0607C191.43 51.0656 191.434 51.0701 191.438 51.0743C191.438 51.0824 191.45 51.0892 191.457 51.0973L191.466 51.1068L191.476 51.1204L191.495 51.1434L191.525 51.18L191.541 51.2017C191.55 51.2137 191.56 51.2264 191.568 51.2396L191.597 51.2803C191.63 51.3291 191.661 51.3779 191.69 51.4294C191.69 51.4361 191.698 51.4429 191.702 51.4511L191.714 51.4727L191.724 51.4931C191.731 51.5039 191.737 51.5161 191.742 51.5269L191.757 51.5581L191.767 51.5771L191.774 51.5934L191.781 51.6083L191.791 51.6313L191.801 51.6543C191.824 51.7086 191.845 51.7628 191.864 51.8183C191.867 51.8262 191.869 51.8344 191.871 51.8427C191.879 51.8658 191.886 51.8888 191.893 51.9118L191.9 51.9335C191.902 51.9432 191.905 51.9527 191.908 51.962L191.914 51.9891V52.0067C191.914 52.0148 191.914 52.023 191.914 52.0311L191.921 52.0609C191.921 52.0772 191.929 52.0948 191.933 52.1111C191.936 52.1273 191.933 52.1273 191.933 52.1368L191.939 52.1734V52.1883V52.21C191.939 52.21 191.939 52.2208 191.939 52.2263C191.939 52.2317 191.939 52.2357 191.939 52.2412V52.2534C191.939 52.2534 191.939 52.2629 191.939 52.2669V52.2927V52.3198V52.3482V52.3767V52.393C191.939 52.4024 191.939 52.4119 191.939 52.4214C191.939 52.4309 191.939 52.4309 191.939 52.4363C191.939 52.4417 191.939 52.4567 191.939 52.4661C191.939 52.472 191.939 52.4779 191.939 52.4838V52.5027C191.94 52.5136 191.94 52.5244 191.939 52.5353C191.94 52.5461 191.94 52.557 191.939 52.5678L191.956 52.6477Z" fill="black"/>
<path d="M97.8648 138.442C101.201 140.044 103.232 142.16 103.232 144.481C103.232 149.481 93.8162 153.534 82.2013 153.534C77.1514 153.534 72.5185 152.767 68.8932 151.49C72.7438 153.339 78.3334 154.504 84.5567 154.504C96.1716 154.504 105.588 150.451 105.588 145.451C105.588 142.625 102.578 140.102 97.8648 138.442Z" fill="#F1F1F1"/>
<path d="M105.286 141.876C109.05 143.684 111.342 146.072 111.342 148.691C111.342 154.332 100.717 158.906 87.6113 158.906C81.9132 158.906 76.6855 158.04 72.5947 156.6C76.9397 158.686 83.2469 160 90.2692 160C103.375 160 114 155.427 114 149.785C114 146.596 110.604 143.75 105.286 141.876Z" fill="#F1F1F1"/>
<path d="M95.0249 139.955C97.3753 141.084 98.8063 142.574 98.8063 144.209C98.8063 147.732 92.1726 150.587 83.9895 150.587C80.8015 150.627 77.63 150.14 74.6136 149.147C77.3265 150.45 81.2645 151.271 85.649 151.271C93.832 151.271 100.466 148.415 100.466 144.893C100.466 142.902 98.3455 141.124 95.0249 139.955Z" fill="#F1F1F1"/>
<path d="M62 139.308C62 139.308 62.5165 146.562 77.3222 146.562C92.1279 146.562 96.5482 139.308 96.5482 139.308H62Z" fill="#3F3D56"/>
<path d="M83.0152 120.277C80.8778 118.717 78.195 118.012 75.5287 118.309C77.9115 118.861 80.0158 120.202 81.4724 122.096C82.929 123.99 83.6447 126.316 83.494 128.667C83.3433 131.017 82.3358 133.242 80.6483 134.95C78.9608 136.658 76.7011 137.74 74.2659 138.007C76.5953 138.547 79.0472 138.3 81.2096 137.308C83.3719 136.316 85.1127 134.638 86.1393 132.558C87.1659 130.478 87.4158 128.121 86.8468 125.884C86.2779 123.648 84.9249 121.668 83.0152 120.277V120.277Z" fill="#3F3D56"/>
<path d="M78.1634 117H77.1539V140.087H78.1634V117Z" fill="#3F3D56"/>
<path d="M146.108 147.226L146.096 147.212L146.066 146.297L153 139.14L146.074 145.612L146.05 145.806L145.812 138.491L151.802 131.071L145.796 137.205L145.858 122.05L145.858 122L145.856 122.05L145.458 133.994L140 129.142L145.441 135.023L145.321 141.566L140.299 135.18L145.303 142.528L145.236 146.166L145.053 156.246L145.04 156.999C145.502 157.002 145.96 156.996 146.413 156.983L146.099 147.301L146.108 147.226Z" fill="#390C0C"/>
<path d="M158.108 156.226L158.096 156.212L158.066 155.297L165 148.14L158.074 154.612L158.05 154.806L157.812 147.491L163.802 140.071L157.796 146.205L157.858 131.05L157.858 131L157.856 131.05L157.458 142.994L152 138.142L157.441 144.023L157.321 150.566L152.299 144.18L157.303 151.528L157.236 155.166L157.053 165.246L157.04 165.999C157.502 166.002 157.96 165.996 158.413 165.983L158.099 156.301L158.108 156.226Z" fill="#390C0C"/>
</g>
<defs>
<clipPath id="clip0">
<rect width="248" height="227" fill="white"/>
</clipPath>
</defs>
</svg>
