<svg width="430" height="270" viewBox="0 0 430 270" fill="none" xmlns="http://www.w3.org/2000/svg">
<path opacity="0.7" d="M404.336 71.7589C368.144 25.1412 313.566 8.27292 259.376 10.8373C228.306 12.3195 197.479 18.7674 166.349 18.634C149.175 18.5599 131.711 16.3069 115.253 10.0813C99.6091 4.15219 80.8337 -2.82933 64.2794 1.18764C37.5787 7.75413 22.0802 28.091 12.3588 56.1653C1.84846 86.4927 -1.69544 120.481 0.731888 153.121C0.934165 155.947 1.18903 158.769 1.49649 161.585C4.04519 184.946 10.3198 207.535 21.9346 224.952C43.7077 257.562 89.827 282.153 126.443 263.625C148.471 253.501 155.438 234.557 168.12 245.586C174.848 251.411 183.047 254.142 191.265 253.293L194.154 252.997C199.546 252.483 204.767 250.443 209.402 247.036C214.037 243.629 217.958 238.951 220.854 233.372C223.168 228.875 226.444 225.237 230.329 222.852C234.214 220.467 238.559 219.424 242.894 219.838C260.577 221.321 273.806 229.681 286.793 233.713C302.57 238.619 318.858 242.606 335.655 242.399C373.036 241.91 417.844 208.603 427.893 159.821C435.284 123.994 422.225 94.7786 404.336 71.7589Z" fill="#F7FEDD"/>
<path d="M176.3 105.372L176.301 105.375C180.902 118.515 179.964 131.388 173.66 142.936L173.66 142.936C173.314 143.57 172.95 144.228 172.575 144.908C170.493 148.677 168.058 153.085 166.326 157.545C164.289 162.788 163.127 168.331 164.816 173.156L167.079 179.619L137.594 189.945L135.331 183.482C133.625 178.611 129.24 174.98 124.369 172.151C120.148 169.7 115.402 167.764 111.4 166.132C110.766 165.873 110.151 165.622 109.56 165.378L109.559 165.378C97.7553 160.511 88.5043 150.34 84.0685 137.673L83.9732 137.401C79.9795 125.868 80.9938 113.115 86.8136 101.942C92.635 90.767 102.788 82.0915 115.046 77.8387C127.305 73.5859 140.646 74.111 152.132 79.282C163.615 84.4519 172.302 93.8402 176.3 105.372Z" fill="#FCFF6C" stroke="black" stroke-width="2"/>
<path d="M168.161 196.445L147.246 203.769C146.759 203.94 146.228 203.921 145.771 203.716C145.313 203.512 144.965 203.139 144.804 202.679C144.643 202.219 144.682 201.711 144.912 201.265C145.143 200.82 145.545 200.474 146.032 200.304L166.948 192.979C167.434 192.809 167.965 192.828 168.423 193.033C168.88 193.237 169.228 193.61 169.389 194.07C169.55 194.529 169.511 195.038 169.281 195.483C169.051 195.929 168.648 196.275 168.161 196.445V196.445Z" fill="#3F3D56"/>
<path d="M164.018 210.93L159.517 212.507C157.954 213.055 156.279 213.191 154.673 212.899C154.436 212.86 154.222 212.744 154.067 212.572C153.912 212.399 153.824 212.18 153.817 211.948C153.803 211.714 153.87 211.478 154.009 211.279C154.148 211.079 154.351 210.927 154.585 210.846L166.837 206.556C167.071 206.473 167.324 206.465 167.557 206.534C167.79 206.604 167.99 206.746 168.125 206.938C168.264 207.123 168.332 207.35 168.318 207.581C168.304 207.813 168.21 208.036 168.049 208.215C166.976 209.445 165.582 210.384 164.018 210.93V210.93Z" fill="#3F3D56"/>
<path d="M170.082 201.918L149.041 209.283L148.93 209.174C148.783 208.953 148.692 208.701 148.664 208.437C148.636 208.174 148.671 207.905 148.768 207.652C148.865 207.393 149.021 207.157 149.225 206.961C149.429 206.765 149.676 206.614 149.946 206.52L167.764 200.281C168.034 200.186 168.32 200.15 168.602 200.175C168.884 200.201 169.154 200.289 169.391 200.43C169.622 200.565 169.816 200.75 169.958 200.971C170.1 201.191 170.187 201.441 170.212 201.702L170.226 201.847L170.082 201.918Z" fill="#3F3D56"/>
<path d="M67.7653 96.7358C67.596 96.9563 67.3627 97.129 67.0937 97.2302L67.0586 97.2425C66.7223 97.3607 66.3605 97.3578 66.0423 97.2401L66.0416 97.2399L45.7413 89.7687C45.7406 89.7684 45.7398 89.7682 45.7391 89.7679C45.3953 89.6368 45.1323 89.3833 44.998 89.0685C44.8636 88.7533 44.8643 88.3912 45.0087 88.0582C45.1536 87.724 45.4324 87.4462 45.7899 87.2927C46.1467 87.1395 46.5436 87.1267 46.8925 87.2505C46.8932 87.2508 46.8939 87.251 46.8946 87.2513L67.195 94.7225L67.195 94.7225C67.463 94.8212 67.6851 94.9947 67.8357 95.2159C67.9862 95.4369 68.061 95.6987 68.0498 95.968C68.0387 96.2379 67.9414 96.5063 67.7653 96.7358Z" fill="#FCFF6C" stroke="black"/>
<path d="M161.758 64.0804L161.758 64.0805C161.475 64.1798 161.171 64.1942 160.89 64.1247C160.609 64.0553 160.366 63.9061 160.189 63.7022C160.012 63.4986 159.907 63.2474 159.887 62.9808C159.867 62.7139 159.932 62.4398 160.08 62.1955L160.08 62.1955L171.284 43.6909C171.284 43.6903 171.284 43.6896 171.285 43.689C171.48 43.3745 171.798 43.1369 172.173 43.0341C172.548 42.931 172.939 42.9742 173.261 43.145C173.581 43.3151 173.808 43.5977 173.899 43.9279C173.991 44.2577 173.944 44.62 173.757 44.937C173.756 44.9376 173.756 44.9382 173.755 44.9389L162.551 63.4425L162.55 63.4436C162.375 63.7343 162.095 63.9625 161.758 64.0804Z" fill="#FCFF6C" stroke="black"/>
<path d="M171.236 188.464L139.862 199.451C139.376 199.621 138.845 199.602 138.387 199.397C137.929 199.193 137.582 198.82 137.421 198.36C137.26 197.901 137.299 197.392 137.529 196.947C137.759 196.501 138.162 196.155 138.649 195.985L170.022 184.998C170.509 184.828 171.039 184.847 171.497 185.052C171.955 185.256 172.303 185.629 172.464 186.089C172.625 186.548 172.586 187.057 172.355 187.502C172.125 187.948 171.722 188.294 171.236 188.464V188.464Z" fill="#3F3D56"/>
<path d="M138.926 148.956L145.372 188.28L141.648 189.584L135.105 149.656C135.026 149.174 135.151 148.675 135.454 148.269C135.756 147.863 136.21 147.583 136.717 147.49C137.224 147.397 137.741 147.499 138.155 147.774C138.569 148.049 138.846 148.474 138.926 148.956V148.956Z" fill="#B7B3B3"/>
<path d="M164.435 181.605L160.71 182.909L141.215 148.154C140.977 147.728 140.928 147.223 141.08 146.75C141.233 146.277 141.573 145.874 142.027 145.631C142.481 145.387 143.011 145.323 143.501 145.451C143.99 145.58 144.399 145.892 144.638 146.317L164.435 181.605Z" fill="#B7B3B3"/>
<path d="M127.339 151.624C127.178 151.165 127.217 150.656 127.447 150.211C127.678 149.765 128.08 149.419 128.567 149.249L148.746 142.182C149.233 142.012 149.763 142.031 150.221 142.236C150.679 142.44 151.027 142.813 151.188 143.273C151.348 143.732 151.31 144.241 151.079 144.686C150.849 145.132 150.446 145.478 149.96 145.648L129.781 152.715C129.294 152.885 128.763 152.866 128.305 152.661C127.848 152.457 127.5 152.084 127.339 151.624V151.624Z" fill="#B7B3B3"/>
<path d="M109.658 62.9053C109.288 63.0348 108.89 63.0182 108.552 62.8674C108.215 62.7171 107.967 62.447 107.853 62.1215L97.4765 32.4883C97.3625 32.1629 97.3878 31.797 97.557 31.4696C97.7268 31.1411 98.0278 30.8796 98.3977 30.7501C98.7675 30.6206 99.1659 30.6371 99.5036 30.788C99.8401 30.9383 100.088 31.2084 100.202 31.5339L110.579 61.167C110.693 61.4925 110.668 61.8583 110.499 62.1857C110.329 62.5143 110.028 62.7758 109.658 62.9053Z" fill="#FCFF6C" stroke="black"/>
<path d="M232.996 151.728L218.431 154.296L220.531 166.206L237.45 163.223L238.089 166.847L216.739 170.612L210.813 137.005L231.933 133.281L232.576 136.928L215.888 139.87L217.792 150.672L232.357 148.104L232.996 151.728ZM261.338 128.096L265.367 150.947C265.911 154.119 265.368 156.888 263.738 159.254C262.124 161.617 259.646 163.22 256.304 164.063L255.135 164.317C251.458 164.966 248.351 164.49 245.816 162.89C243.281 161.291 241.692 158.755 241.048 155.282L237.01 132.386L241.396 131.612L245.409 154.371C245.838 156.802 246.841 158.577 248.418 159.695C249.993 160.797 252.019 161.13 254.496 160.693C257.005 160.251 258.802 159.244 259.89 157.672C260.992 156.097 261.329 154.094 260.901 151.663L256.884 128.881L261.338 128.096ZM284.186 144.701L276.292 146.093L278.689 159.688L274.235 160.473L268.309 126.867L279.434 124.905C283.219 124.238 286.28 124.587 288.615 125.952C290.965 127.314 292.431 129.642 293.011 132.935C293.38 135.028 293.133 136.952 292.268 138.707C291.419 140.459 290.054 141.897 288.174 143.022L298.583 155.895L298.632 156.172L293.877 157.01L284.186 144.701ZM275.653 142.469L282.462 141.269C284.663 140.881 286.309 140.003 287.401 138.637C288.508 137.267 288.893 135.629 288.557 133.721C288.19 131.643 287.286 130.161 285.845 129.272C284.418 128.382 282.534 128.135 280.193 128.532L273.407 129.728L275.653 142.469ZM319.643 136.45L305.079 139.018L307.179 150.928L324.098 147.945L324.737 151.569L303.386 155.333L297.461 121.727L318.58 118.003L319.223 121.65L302.535 124.592L304.44 135.394L319.005 132.826L319.643 136.45ZM336.038 133.464L332.683 138.458L334.685 149.814L330.253 150.596L324.328 116.989L328.759 116.208L331.689 132.826L343.693 113.575L349.048 112.63L338.439 129.804L356.012 146.054L350.703 146.99L336.038 133.464ZM376.901 133.327L362.821 135.81L361.205 145.138L356.635 145.944L363.543 110.075L367.421 109.391L386.203 140.73L381.656 141.532L376.901 133.327ZM363.517 131.927L374.942 129.912L366.446 115.203L363.517 131.927ZM393.162 129.722L389.308 130.402L384.755 106.334L389.233 105.545L393.162 129.722ZM390.14 137.823C390.018 137.13 390.124 136.517 390.458 135.982C390.805 135.429 391.394 135.079 392.225 134.933C393.056 134.786 393.729 134.913 394.244 135.314C394.756 135.7 395.073 136.239 395.195 136.932C395.317 137.624 395.204 138.239 394.854 138.777C394.502 139.299 393.91 139.633 393.08 139.78C392.249 139.926 391.578 139.814 391.069 139.444C390.572 139.056 390.262 138.515 390.14 137.823Z" fill="black"/>
</svg>
