<svg width="622" height="643" viewBox="0 0 622 643" fill="none" xmlns="http://www.w3.org/2000/svg">
<path d="M546.6 126.37H77.83C73.732 126.37 70.41 129.692 70.41 133.79V223.3C70.41 227.398 73.732 230.72 77.83 230.72H546.6C550.698 230.72 554.02 227.398 554.02 223.3V133.79C554.02 129.692 550.698 126.37 546.6 126.37Z" fill="#35323E"/>
<path d="M111.34 0.149994C111.34 0.149994 118.21 186.98 106.03 208.85H517.77C517.77 208.85 500.28 65.14 517.77 0.149994H111.34Z" fill="white"/>
<path opacity="0.03" d="M111.34 0.149994C111.34 0.149994 118.21 186.98 106.03 208.85H517.77C517.77 208.85 500.28 65.14 517.77 0.149994H111.34Z" fill="#F0D0ED"/>
<path d="M455.3 200.89H153.51V238.38H455.3V200.89Z" fill="#35323E"/>
<path d="M589.67 642.19H30.31C26.1153 642.19 21.9677 641.306 18.1381 639.594C14.3085 637.882 10.8832 635.382 8.08584 632.256C5.2885 629.13 3.18207 625.45 1.9042 621.454C0.626335 617.459 0.205774 613.239 0.669978 609.07L12.11 505.98C12.8633 499.127 13.4067 492.257 13.74 485.37L15.89 415.47C16.3833 399.677 17.45 383.923 19.09 368.21C19.9433 360.063 20.9433 351.933 22.09 343.82L36.8 241.34C38.6726 228.512 45.098 216.785 54.9024 208.303C64.7067 199.82 77.2355 195.148 90.2 195.14H112.54C123.877 195.18 134.896 198.888 143.95 205.71C167.09 222.98 232.83 235.44 310.33 235.44C387.83 235.44 453.58 222.98 476.77 205.67C485.824 198.848 496.843 195.14 508.18 195.1H544.37C551.977 195.1 559.341 197.781 565.167 202.671C570.994 207.561 574.911 214.348 576.23 221.84L595.98 333.84C597.98 345.227 599.677 356.66 601.07 368.14C603.39 387.227 604.847 406.397 605.44 425.65L607.44 490.6C607.859 504.145 609.03 517.656 610.95 531.07L621.56 605.38C622.22 609.952 621.888 614.613 620.588 619.045C619.288 623.478 617.05 627.579 614.025 631.071C611 634.562 607.26 637.362 603.057 639.281C598.855 641.199 594.289 642.191 589.67 642.19V642.19Z" fill="#464353"/>
<path opacity="0.1" d="M557.81 382.88H63.51C52.4864 382.88 43.55 391.816 43.55 402.84V592.55C43.55 603.574 52.4864 612.51 63.51 612.51H557.81C568.834 612.51 577.77 603.574 577.77 592.55V402.84C577.77 391.816 568.834 382.88 557.81 382.88Z" fill="black"/>
<path d="M77.91 422.55C86.3655 422.55 93.22 416.815 93.22 409.74C93.22 402.665 86.3655 396.93 77.91 396.93C69.4545 396.93 62.6 402.665 62.6 409.74C62.6 416.815 69.4545 422.55 77.91 422.55Z" fill="#6C63FF"/>
<path opacity="0.1" d="M77.91 422.55C86.3655 422.55 93.22 416.815 93.22 409.74C93.22 402.665 86.3655 396.93 77.91 396.93C69.4545 396.93 62.6 402.665 62.6 409.74C62.6 416.815 69.4545 422.55 77.91 422.55Z" fill="black"/>
<path d="M77.91 419.74C86.3655 419.74 93.22 414.005 93.22 406.93C93.22 399.855 86.3655 394.12 77.91 394.12C69.4545 394.12 62.6 399.855 62.6 406.93C62.6 414.005 69.4545 419.74 77.91 419.74Z" fill="#6C63FF"/>
<path d="M96.03 467.23C104.485 467.23 111.34 461.495 111.34 454.42C111.34 447.345 104.485 441.61 96.03 441.61C87.5745 441.61 80.72 447.345 80.72 454.42C80.72 461.495 87.5745 467.23 96.03 467.23Z" fill="#35323E"/>
<path opacity="0.1" d="M96.03 467.23C104.485 467.23 111.34 461.495 111.34 454.42C111.34 447.345 104.485 441.61 96.03 441.61C87.5745 441.61 80.72 447.345 80.72 454.42C80.72 461.495 87.5745 467.23 96.03 467.23Z" fill="black"/>
<path d="M96.03 464.42C104.485 464.42 111.34 458.685 111.34 451.61C111.34 444.535 104.485 438.8 96.03 438.8C87.5745 438.8 80.72 444.535 80.72 451.61C80.72 458.685 87.5745 464.42 96.03 464.42Z" fill="#35323E"/>
<path d="M106.03 511.91C114.485 511.91 121.34 506.175 121.34 499.1C121.34 492.025 114.485 486.29 106.03 486.29C97.5745 486.29 90.72 492.025 90.72 499.1C90.72 506.175 97.5745 511.91 106.03 511.91Z" fill="#35323E"/>
<path opacity="0.1" d="M106.03 511.91C114.485 511.91 121.34 506.175 121.34 499.1C121.34 492.025 114.485 486.29 106.03 486.29C97.5745 486.29 90.72 492.025 90.72 499.1C90.72 506.175 97.5745 511.91 106.03 511.91Z" fill="black"/>
<path d="M106.03 509.1C114.485 509.1 121.34 503.365 121.34 496.29C121.34 489.215 114.485 483.48 106.03 483.48C97.5745 483.48 90.72 489.215 90.72 496.29C90.72 503.365 97.5745 509.1 106.03 509.1Z" fill="#35323E"/>
<path d="M67.29 517.22C75.7455 517.22 82.6 511.485 82.6 504.41C82.6 497.335 75.7455 491.6 67.29 491.6C58.8345 491.6 51.98 497.335 51.98 504.41C51.98 511.485 58.8345 517.22 67.29 517.22Z" fill="#35323E"/>
<path opacity="0.1" d="M67.29 517.22C75.7455 517.22 82.6 511.485 82.6 504.41C82.6 497.335 75.7455 491.6 67.29 491.6C58.8345 491.6 51.98 497.335 51.98 504.41C51.98 511.485 58.8345 517.22 67.29 517.22Z" fill="black"/>
<path d="M67.29 514.41C75.7455 514.41 82.6 508.675 82.6 501.6C82.6 494.525 75.7455 488.79 67.29 488.79C58.8345 488.79 51.98 494.525 51.98 501.6C51.98 508.675 58.8345 514.41 67.29 514.41Z" fill="#35323E"/>
<path d="M124.77 556.58C133.225 556.58 140.08 550.845 140.08 543.77C140.08 536.695 133.225 530.96 124.77 530.96C116.315 530.96 109.46 536.695 109.46 543.77C109.46 550.845 116.315 556.58 124.77 556.58Z" fill="#35323E"/>
<path opacity="0.1" d="M124.77 556.58C133.225 556.58 140.08 550.845 140.08 543.77C140.08 536.695 133.225 530.96 124.77 530.96C116.315 530.96 109.46 536.695 109.46 543.77C109.46 550.845 116.315 556.58 124.77 556.58Z" fill="black"/>
<path d="M124.77 553.77C133.225 553.77 140.08 548.035 140.08 540.96C140.08 533.885 133.225 528.15 124.77 528.15C116.315 528.15 109.46 533.885 109.46 540.96C109.46 548.035 116.315 553.77 124.77 553.77Z" fill="#35323E"/>
<path d="M73.54 558.15C81.9955 558.15 88.85 552.415 88.85 545.34C88.85 538.265 81.9955 532.53 73.54 532.53C65.0845 532.53 58.23 538.265 58.23 545.34C58.23 552.415 65.0845 558.15 73.54 558.15Z" fill="#35323E"/>
<path opacity="0.1" d="M73.54 558.15C81.9955 558.15 88.85 552.415 88.85 545.34C88.85 538.265 81.9955 532.53 73.54 532.53C65.0845 532.53 58.23 538.265 58.23 545.34C58.23 552.415 65.0845 558.15 73.54 558.15Z" fill="black"/>
<path d="M73.54 555.33C81.9955 555.33 88.85 549.595 88.85 542.52C88.85 535.445 81.9955 529.71 73.54 529.71C65.0845 529.71 58.23 535.445 58.23 542.52C58.23 549.595 65.0845 555.33 73.54 555.33Z" fill="#35323E"/>
<path d="M166.95 556.58C175.405 556.58 182.26 550.845 182.26 543.77C182.26 536.695 175.405 530.96 166.95 530.96C158.495 530.96 151.64 536.695 151.64 543.77C151.64 550.845 158.495 556.58 166.95 556.58Z" fill="#35323E"/>
<path opacity="0.1" d="M166.95 556.58C175.405 556.58 182.26 550.845 182.26 543.77C182.26 536.695 175.405 530.96 166.95 530.96C158.495 530.96 151.64 536.695 151.64 543.77C151.64 550.845 158.495 556.58 166.95 556.58Z" fill="black"/>
<path d="M166.95 553.77C175.405 553.77 182.26 548.035 182.26 540.96C182.26 533.885 175.405 528.15 166.95 528.15C158.495 528.15 151.64 533.885 151.64 540.96C151.64 548.035 158.495 553.77 166.95 553.77Z" fill="#35323E"/>
<path d="M211.62 556.58C220.075 556.58 226.93 550.845 226.93 543.77C226.93 536.695 220.075 530.96 211.62 530.96C203.165 530.96 196.31 536.695 196.31 543.77C196.31 550.845 203.165 556.58 211.62 556.58Z" fill="#35323E"/>
<path opacity="0.1" d="M211.62 556.58C220.075 556.58 226.93 550.845 226.93 543.77C226.93 536.695 220.075 530.96 211.62 530.96C203.165 530.96 196.31 536.695 196.31 543.77C196.31 550.845 203.165 556.58 211.62 556.58Z" fill="black"/>
<path d="M211.62 553.77C220.075 553.77 226.93 548.035 226.93 540.96C226.93 533.885 220.075 528.15 211.62 528.15C203.165 528.15 196.31 533.885 196.31 540.96C196.31 548.035 203.165 553.77 211.62 553.77Z" fill="#35323E"/>
<path d="M252.86 556.58C261.315 556.58 268.17 550.845 268.17 543.77C268.17 536.695 261.315 530.96 252.86 530.96C244.405 530.96 237.55 536.695 237.55 543.77C237.55 550.845 244.405 556.58 252.86 556.58Z" fill="#35323E"/>
<path opacity="0.1" d="M252.86 556.58C261.315 556.58 268.17 550.845 268.17 543.77C268.17 536.695 261.315 530.96 252.86 530.96C244.405 530.96 237.55 536.695 237.55 543.77C237.55 550.845 244.405 556.58 252.86 556.58Z" fill="black"/>
<path d="M252.86 553.77C261.315 553.77 268.17 548.035 268.17 540.96C268.17 533.885 261.315 528.15 252.86 528.15C244.405 528.15 237.55 533.885 237.55 540.96C237.55 548.035 244.405 553.77 252.86 553.77Z" fill="#35323E"/>
<path d="M298.47 556.58C306.925 556.58 313.78 550.845 313.78 543.77C313.78 536.695 306.925 530.96 298.47 530.96C290.015 530.96 283.16 536.695 283.16 543.77C283.16 550.845 290.015 556.58 298.47 556.58Z" fill="#35323E"/>
<path opacity="0.1" d="M298.47 556.58C306.925 556.58 313.78 550.845 313.78 543.77C313.78 536.695 306.925 530.96 298.47 530.96C290.015 530.96 283.16 536.695 283.16 543.77C283.16 550.845 290.015 556.58 298.47 556.58Z" fill="black"/>
<path d="M298.47 553.77C306.925 553.77 313.78 548.035 313.78 540.96C313.78 533.885 306.925 528.15 298.47 528.15C290.015 528.15 283.16 533.885 283.16 540.96C283.16 548.035 290.015 553.77 298.47 553.77Z" fill="#35323E"/>
<path d="M339.71 556.58C348.166 556.58 355.02 550.845 355.02 543.77C355.02 536.695 348.166 530.96 339.71 530.96C331.255 530.96 324.4 536.695 324.4 543.77C324.4 550.845 331.255 556.58 339.71 556.58Z" fill="#35323E"/>
<path opacity="0.1" d="M339.71 556.58C348.166 556.58 355.02 550.845 355.02 543.77C355.02 536.695 348.166 530.96 339.71 530.96C331.255 530.96 324.4 536.695 324.4 543.77C324.4 550.845 331.255 556.58 339.71 556.58Z" fill="black"/>
<path d="M339.71 553.77C348.166 553.77 355.02 548.035 355.02 540.96C355.02 533.885 348.166 528.15 339.71 528.15C331.255 528.15 324.4 533.885 324.4 540.96C324.4 548.035 331.255 553.77 339.71 553.77Z" fill="#35323E"/>
<path d="M380.63 556.58C389.085 556.58 395.94 550.845 395.94 543.77C395.94 536.695 389.085 530.96 380.63 530.96C372.175 530.96 365.32 536.695 365.32 543.77C365.32 550.845 372.175 556.58 380.63 556.58Z" fill="#35323E"/>
<path opacity="0.1" d="M380.63 556.58C389.085 556.58 395.94 550.845 395.94 543.77C395.94 536.695 389.085 530.96 380.63 530.96C372.175 530.96 365.32 536.695 365.32 543.77C365.32 550.845 372.175 556.58 380.63 556.58Z" fill="black"/>
<path d="M380.63 553.77C389.085 553.77 395.94 548.035 395.94 540.96C395.94 533.885 389.085 528.15 380.63 528.15C372.175 528.15 365.32 533.885 365.32 540.96C365.32 548.035 372.175 553.77 380.63 553.77Z" fill="#35323E"/>
<path d="M425 556.58C433.455 556.58 440.31 550.845 440.31 543.77C440.31 536.695 433.455 530.96 425 530.96C416.545 530.96 409.69 536.695 409.69 543.77C409.69 550.845 416.545 556.58 425 556.58Z" fill="#35323E"/>
<path opacity="0.1" d="M425 556.58C433.455 556.58 440.31 550.845 440.31 543.77C440.31 536.695 433.455 530.96 425 530.96C416.545 530.96 409.69 536.695 409.69 543.77C409.69 550.845 416.545 556.58 425 556.58Z" fill="black"/>
<path d="M425 553.77C433.455 553.77 440.31 548.035 440.31 540.96C440.31 533.885 433.455 528.15 425 528.15C416.545 528.15 409.69 533.885 409.69 540.96C409.69 548.035 416.545 553.77 425 553.77Z" fill="#35323E"/>
<path d="M466.55 556.58C475.005 556.58 481.86 550.845 481.86 543.77C481.86 536.695 475.005 530.96 466.55 530.96C458.095 530.96 451.24 536.695 451.24 543.77C451.24 550.845 458.095 556.58 466.55 556.58Z" fill="#35323E"/>
<path opacity="0.1" d="M466.55 556.58C475.005 556.58 481.86 550.845 481.86 543.77C481.86 536.695 475.005 530.96 466.55 530.96C458.095 530.96 451.24 536.695 451.24 543.77C451.24 550.845 458.095 556.58 466.55 556.58Z" fill="black"/>
<path d="M466.55 553.77C475.005 553.77 481.86 548.035 481.86 540.96C481.86 533.885 475.005 528.15 466.55 528.15C458.095 528.15 451.24 533.885 451.24 540.96C451.24 548.035 458.095 553.77 466.55 553.77Z" fill="#35323E"/>
<path d="M512.47 556.58C520.925 556.58 527.78 550.845 527.78 543.77C527.78 536.695 520.925 530.96 512.47 530.96C504.014 530.96 497.16 536.695 497.16 543.77C497.16 550.845 504.014 556.58 512.47 556.58Z" fill="#35323E"/>
<path opacity="0.1" d="M512.47 556.58C520.925 556.58 527.78 550.845 527.78 543.77C527.78 536.695 520.925 530.96 512.47 530.96C504.014 530.96 497.16 536.695 497.16 543.77C497.16 550.845 504.014 556.58 512.47 556.58Z" fill="black"/>
<path d="M512.47 553.77C520.925 553.77 527.78 548.035 527.78 540.96C527.78 533.885 520.925 528.15 512.47 528.15C504.014 528.15 497.16 533.885 497.16 540.96C497.16 548.035 504.014 553.77 512.47 553.77Z" fill="#35323E"/>
<path d="M559.65 556.58C568.106 556.58 574.96 550.845 574.96 543.77C574.96 536.695 568.106 530.96 559.65 530.96C551.195 530.96 544.34 536.695 544.34 543.77C544.34 550.845 551.195 556.58 559.65 556.58Z" fill="#35323E"/>
<path opacity="0.1" d="M559.65 556.58C568.106 556.58 574.96 550.845 574.96 543.77C574.96 536.695 568.106 530.96 559.65 530.96C551.195 530.96 544.34 536.695 544.34 543.77C544.34 550.845 551.195 556.58 559.65 556.58Z" fill="black"/>
<path d="M559.65 553.77C568.106 553.77 574.96 548.035 574.96 540.96C574.96 533.885 568.106 528.15 559.65 528.15C551.195 528.15 544.34 533.885 544.34 540.96C544.34 548.035 551.195 553.77 559.65 553.77Z" fill="#35323E"/>
<path d="M148.52 511.91C156.975 511.91 163.83 506.175 163.83 499.1C163.83 492.025 156.975 486.29 148.52 486.29C140.065 486.29 133.21 492.025 133.21 499.1C133.21 506.175 140.065 511.91 148.52 511.91Z" fill="#35323E"/>
<path opacity="0.1" d="M148.52 511.91C156.975 511.91 163.83 506.175 163.83 499.1C163.83 492.025 156.975 486.29 148.52 486.29C140.065 486.29 133.21 492.025 133.21 499.1C133.21 506.175 140.065 511.91 148.52 511.91Z" fill="black"/>
<path d="M148.52 509.1C156.975 509.1 163.83 503.365 163.83 496.29C163.83 489.215 156.975 483.48 148.52 483.48C140.065 483.48 133.21 489.215 133.21 496.29C133.21 503.365 140.065 509.1 148.52 509.1Z" fill="#35323E"/>
<path d="M191 511.91C199.455 511.91 206.31 506.175 206.31 499.1C206.31 492.025 199.455 486.29 191 486.29C182.545 486.29 175.69 492.025 175.69 499.1C175.69 506.175 182.545 511.91 191 511.91Z" fill="#35323E"/>
<path opacity="0.1" d="M191 511.91C199.455 511.91 206.31 506.175 206.31 499.1C206.31 492.025 199.455 486.29 191 486.29C182.545 486.29 175.69 492.025 175.69 499.1C175.69 506.175 182.545 511.91 191 511.91Z" fill="black"/>
<path d="M191 509.1C199.455 509.1 206.31 503.365 206.31 496.29C206.31 489.215 199.455 483.48 191 483.48C182.545 483.48 175.69 489.215 175.69 496.29C175.69 503.365 182.545 509.1 191 509.1Z" fill="#35323E"/>
<path d="M234.74 511.91C243.195 511.91 250.05 506.175 250.05 499.1C250.05 492.025 243.195 486.29 234.74 486.29C226.285 486.29 219.43 492.025 219.43 499.1C219.43 506.175 226.285 511.91 234.74 511.91Z" fill="#35323E"/>
<path opacity="0.1" d="M234.74 511.91C243.195 511.91 250.05 506.175 250.05 499.1C250.05 492.025 243.195 486.29 234.74 486.29C226.285 486.29 219.43 492.025 219.43 499.1C219.43 506.175 226.285 511.91 234.74 511.91Z" fill="black"/>
<path d="M234.74 509.1C243.195 509.1 250.05 503.365 250.05 496.29C250.05 489.215 243.195 483.48 234.74 483.48C226.285 483.48 219.43 489.215 219.43 496.29C219.43 503.365 226.285 509.1 234.74 509.1Z" fill="#35323E"/>
<path d="M276.6 511.91C285.055 511.91 291.91 506.175 291.91 499.1C291.91 492.025 285.055 486.29 276.6 486.29C268.145 486.29 261.29 492.025 261.29 499.1C261.29 506.175 268.145 511.91 276.6 511.91Z" fill="#35323E"/>
<path opacity="0.1" d="M276.6 511.91C285.055 511.91 291.91 506.175 291.91 499.1C291.91 492.025 285.055 486.29 276.6 486.29C268.145 486.29 261.29 492.025 261.29 499.1C261.29 506.175 268.145 511.91 276.6 511.91Z" fill="black"/>
<path d="M276.6 509.1C285.055 509.1 291.91 503.365 291.91 496.29C291.91 489.215 285.055 483.48 276.6 483.48C268.145 483.48 261.29 489.215 261.29 496.29C261.29 503.365 268.145 509.1 276.6 509.1Z" fill="#35323E"/>
<path d="M319.4 511.91C327.856 511.91 334.71 506.175 334.71 499.1C334.71 492.025 327.856 486.29 319.4 486.29C310.945 486.29 304.09 492.025 304.09 499.1C304.09 506.175 310.945 511.91 319.4 511.91Z" fill="#35323E"/>
<path opacity="0.1" d="M319.4 511.91C327.856 511.91 334.71 506.175 334.71 499.1C334.71 492.025 327.856 486.29 319.4 486.29C310.945 486.29 304.09 492.025 304.09 499.1C304.09 506.175 310.945 511.91 319.4 511.91Z" fill="black"/>
<path d="M319.4 509.1C327.856 509.1 334.71 503.365 334.71 496.29C334.71 489.215 327.856 483.48 319.4 483.48C310.945 483.48 304.09 489.215 304.09 496.29C304.09 503.365 310.945 509.1 319.4 509.1Z" fill="#35323E"/>
<path d="M360.33 511.91C368.785 511.91 375.64 506.175 375.64 499.1C375.64 492.025 368.785 486.29 360.33 486.29C351.875 486.29 345.02 492.025 345.02 499.1C345.02 506.175 351.875 511.91 360.33 511.91Z" fill="#35323E"/>
<path opacity="0.1" d="M360.33 511.91C368.785 511.91 375.64 506.175 375.64 499.1C375.64 492.025 368.785 486.29 360.33 486.29C351.875 486.29 345.02 492.025 345.02 499.1C345.02 506.175 351.875 511.91 360.33 511.91Z" fill="black"/>
<path d="M360.33 509.1C368.785 509.1 375.64 503.365 375.64 496.29C375.64 489.215 368.785 483.48 360.33 483.48C351.875 483.48 345.02 489.215 345.02 496.29C345.02 503.365 351.875 509.1 360.33 509.1Z" fill="#35323E"/>
<path d="M404.69 511.91C413.145 511.91 420 506.175 420 499.1C420 492.025 413.145 486.29 404.69 486.29C396.235 486.29 389.38 492.025 389.38 499.1C389.38 506.175 396.235 511.91 404.69 511.91Z" fill="#35323E"/>
<path opacity="0.1" d="M404.69 511.91C413.145 511.91 420 506.175 420 499.1C420 492.025 413.145 486.29 404.69 486.29C396.235 486.29 389.38 492.025 389.38 499.1C389.38 506.175 396.235 511.91 404.69 511.91Z" fill="black"/>
<path d="M404.69 509.1C413.145 509.1 420 503.365 420 496.29C420 489.215 413.145 483.48 404.69 483.48C396.235 483.48 389.38 489.215 389.38 496.29C389.38 503.365 396.235 509.1 404.69 509.1Z" fill="#35323E"/>
<path d="M446.87 511.91C455.325 511.91 462.18 506.175 462.18 499.1C462.18 492.025 455.325 486.29 446.87 486.29C438.415 486.29 431.56 492.025 431.56 499.1C431.56 506.175 438.415 511.91 446.87 511.91Z" fill="#35323E"/>
<path opacity="0.1" d="M446.87 511.91C455.325 511.91 462.18 506.175 462.18 499.1C462.18 492.025 455.325 486.29 446.87 486.29C438.415 486.29 431.56 492.025 431.56 499.1C431.56 506.175 438.415 511.91 446.87 511.91Z" fill="black"/>
<path d="M446.87 509.1C455.325 509.1 462.18 503.365 462.18 496.29C462.18 489.215 455.325 483.48 446.87 483.48C438.415 483.48 431.56 489.215 431.56 496.29C431.56 503.365 438.415 509.1 446.87 509.1Z" fill="#35323E"/>
<path d="M489.98 511.91C498.435 511.91 505.29 506.175 505.29 499.1C505.29 492.025 498.435 486.29 489.98 486.29C481.525 486.29 474.67 492.025 474.67 499.1C474.67 506.175 481.525 511.91 489.98 511.91Z" fill="#35323E"/>
<path opacity="0.1" d="M489.98 511.91C498.435 511.91 505.29 506.175 505.29 499.1C505.29 492.025 498.435 486.29 489.98 486.29C481.525 486.29 474.67 492.025 474.67 499.1C474.67 506.175 481.525 511.91 489.98 511.91Z" fill="black"/>
<path d="M489.98 509.1C498.435 509.1 505.29 503.365 505.29 496.29C505.29 489.215 498.435 483.48 489.98 483.48C481.525 483.48 474.67 489.215 474.67 496.29C474.67 503.365 481.525 509.1 489.98 509.1Z" fill="#35323E"/>
<path d="M533.09 511.91C541.546 511.91 548.4 506.175 548.4 499.1C548.4 492.025 541.546 486.29 533.09 486.29C524.635 486.29 517.78 492.025 517.78 499.1C517.78 506.175 524.635 511.91 533.09 511.91Z" fill="#35323E"/>
<path opacity="0.1" d="M533.09 511.91C541.546 511.91 548.4 506.175 548.4 499.1C548.4 492.025 541.546 486.29 533.09 486.29C524.635 486.29 517.78 492.025 517.78 499.1C517.78 506.175 524.635 511.91 533.09 511.91Z" fill="black"/>
<path d="M533.09 509.1C541.546 509.1 548.4 503.365 548.4 496.29C548.4 489.215 541.546 483.48 533.09 483.48C524.635 483.48 517.78 489.215 517.78 496.29C517.78 503.365 524.635 509.1 533.09 509.1Z" fill="#35323E"/>
<path d="M139.14 467.23C147.595 467.23 154.45 461.495 154.45 454.42C154.45 447.345 147.595 441.61 139.14 441.61C130.685 441.61 123.83 447.345 123.83 454.42C123.83 461.495 130.685 467.23 139.14 467.23Z" fill="#35323E"/>
<path opacity="0.1" d="M139.14 467.23C147.595 467.23 154.45 461.495 154.45 454.42C154.45 447.345 147.595 441.61 139.14 441.61C130.685 441.61 123.83 447.345 123.83 454.42C123.83 461.495 130.685 467.23 139.14 467.23Z" fill="black"/>
<path d="M139.14 464.42C147.595 464.42 154.45 458.685 154.45 451.61C154.45 444.535 147.595 438.8 139.14 438.8C130.685 438.8 123.83 444.535 123.83 451.61C123.83 458.685 130.685 464.42 139.14 464.42Z" fill="#35323E"/>
<path d="M182.26 467.23C190.715 467.23 197.57 461.495 197.57 454.42C197.57 447.345 190.715 441.61 182.26 441.61C173.805 441.61 166.95 447.345 166.95 454.42C166.95 461.495 173.805 467.23 182.26 467.23Z" fill="#35323E"/>
<path opacity="0.1" d="M182.26 467.23C190.715 467.23 197.57 461.495 197.57 454.42C197.57 447.345 190.715 441.61 182.26 441.61C173.805 441.61 166.95 447.345 166.95 454.42C166.95 461.495 173.805 467.23 182.26 467.23Z" fill="black"/>
<path d="M182.26 464.42C190.715 464.42 197.57 458.685 197.57 451.61C197.57 444.535 190.715 438.8 182.26 438.8C173.805 438.8 166.95 444.535 166.95 451.61C166.95 458.685 173.805 464.42 182.26 464.42Z" fill="#35323E"/>
<path d="M223.81 467.23C232.265 467.23 239.12 461.495 239.12 454.42C239.12 447.345 232.265 441.61 223.81 441.61C215.355 441.61 208.5 447.345 208.5 454.42C208.5 461.495 215.355 467.23 223.81 467.23Z" fill="#35323E"/>
<path opacity="0.1" d="M223.81 467.23C232.265 467.23 239.12 461.495 239.12 454.42C239.12 447.345 232.265 441.61 223.81 441.61C215.355 441.61 208.5 447.345 208.5 454.42C208.5 461.495 215.355 467.23 223.81 467.23Z" fill="black"/>
<path d="M223.81 464.42C232.265 464.42 239.12 458.685 239.12 451.61C239.12 444.535 232.265 438.8 223.81 438.8C215.355 438.8 208.5 444.535 208.5 451.61C208.5 458.685 215.355 464.42 223.81 464.42Z" fill="#35323E"/>
<path d="M265.36 467.23C273.815 467.23 280.67 461.495 280.67 454.42C280.67 447.345 273.815 441.61 265.36 441.61C256.905 441.61 250.05 447.345 250.05 454.42C250.05 461.495 256.905 467.23 265.36 467.23Z" fill="#35323E"/>
<path opacity="0.1" d="M265.36 467.23C273.815 467.23 280.67 461.495 280.67 454.42C280.67 447.345 273.815 441.61 265.36 441.61C256.905 441.61 250.05 447.345 250.05 454.42C250.05 461.495 256.905 467.23 265.36 467.23Z" fill="black"/>
<path d="M265.36 464.42C273.815 464.42 280.67 458.685 280.67 451.61C280.67 444.535 273.815 438.8 265.36 438.8C256.905 438.8 250.05 444.535 250.05 451.61C250.05 458.685 256.905 464.42 265.36 464.42Z" fill="#35323E"/>
<path d="M307.22 467.23C315.675 467.23 322.53 461.495 322.53 454.42C322.53 447.345 315.675 441.61 307.22 441.61C298.765 441.61 291.91 447.345 291.91 454.42C291.91 461.495 298.765 467.23 307.22 467.23Z" fill="#35323E"/>
<path opacity="0.1" d="M307.22 467.23C315.675 467.23 322.53 461.495 322.53 454.42C322.53 447.345 315.675 441.61 307.22 441.61C298.765 441.61 291.91 447.345 291.91 454.42C291.91 461.495 298.765 467.23 307.22 467.23Z" fill="black"/>
<path d="M307.22 464.42C315.675 464.42 322.53 458.685 322.53 451.61C322.53 444.535 315.675 438.8 307.22 438.8C298.765 438.8 291.91 444.535 291.91 451.61C291.91 458.685 298.765 464.42 307.22 464.42Z" fill="#35323E"/>
<path d="M348.46 467.23C356.916 467.23 363.77 461.495 363.77 454.42C363.77 447.345 356.916 441.61 348.46 441.61C340.005 441.61 333.15 447.345 333.15 454.42C333.15 461.495 340.005 467.23 348.46 467.23Z" fill="#35323E"/>
<path opacity="0.1" d="M348.46 467.23C356.916 467.23 363.77 461.495 363.77 454.42C363.77 447.345 356.916 441.61 348.46 441.61C340.005 441.61 333.15 447.345 333.15 454.42C333.15 461.495 340.005 467.23 348.46 467.23Z" fill="black"/>
<path d="M348.46 464.42C356.916 464.42 363.77 458.685 363.77 451.61C363.77 444.535 356.916 438.8 348.46 438.8C340.005 438.8 333.15 444.535 333.15 451.61C333.15 458.685 340.005 464.42 348.46 464.42Z" fill="#35323E"/>
<path d="M392.19 467.23C400.645 467.23 407.5 461.495 407.5 454.42C407.5 447.345 400.645 441.61 392.19 441.61C383.735 441.61 376.88 447.345 376.88 454.42C376.88 461.495 383.735 467.23 392.19 467.23Z" fill="#35323E"/>
<path opacity="0.1" d="M392.19 467.23C400.645 467.23 407.5 461.495 407.5 454.42C407.5 447.345 400.645 441.61 392.19 441.61C383.735 441.61 376.88 447.345 376.88 454.42C376.88 461.495 383.735 467.23 392.19 467.23Z" fill="black"/>
<path d="M392.19 464.42C400.645 464.42 407.5 458.685 407.5 451.61C407.5 444.535 400.645 438.8 392.19 438.8C383.735 438.8 376.88 444.535 376.88 451.61C376.88 458.685 383.735 464.42 392.19 464.42Z" fill="#35323E"/>
<path d="M433.43 467.23C441.885 467.23 448.74 461.495 448.74 454.42C448.74 447.345 441.885 441.61 433.43 441.61C424.975 441.61 418.12 447.345 418.12 454.42C418.12 461.495 424.975 467.23 433.43 467.23Z" fill="#35323E"/>
<path opacity="0.1" d="M433.43 467.23C441.885 467.23 448.74 461.495 448.74 454.42C448.74 447.345 441.885 441.61 433.43 441.61C424.975 441.61 418.12 447.345 418.12 454.42C418.12 461.495 424.975 467.23 433.43 467.23Z" fill="black"/>
<path d="M433.43 464.42C441.885 464.42 448.74 458.685 448.74 451.61C448.74 444.535 441.885 438.8 433.43 438.8C424.975 438.8 418.12 444.535 418.12 451.61C418.12 458.685 424.975 464.42 433.43 464.42Z" fill="#35323E"/>
<path d="M477.48 467.23C485.935 467.23 492.79 461.495 492.79 454.42C492.79 447.345 485.935 441.61 477.48 441.61C469.025 441.61 462.17 447.345 462.17 454.42C462.17 461.495 469.025 467.23 477.48 467.23Z" fill="#35323E"/>
<path opacity="0.1" d="M477.48 467.23C485.935 467.23 492.79 461.495 492.79 454.42C492.79 447.345 485.935 441.61 477.48 441.61C469.025 441.61 462.17 447.345 462.17 454.42C462.17 461.495 469.025 467.23 477.48 467.23Z" fill="black"/>
<path d="M477.48 464.42C485.935 464.42 492.79 458.685 492.79 451.61C492.79 444.535 485.935 438.8 477.48 438.8C469.025 438.8 462.17 444.535 462.17 451.61C462.17 458.685 469.025 464.42 477.48 464.42Z" fill="#35323E"/>
<path d="M520.59 467.23C529.046 467.23 535.9 461.495 535.9 454.42C535.9 447.345 529.046 441.61 520.59 441.61C512.135 441.61 505.28 447.345 505.28 454.42C505.28 461.495 512.135 467.23 520.59 467.23Z" fill="#35323E"/>
<path opacity="0.1" d="M520.59 467.23C529.046 467.23 535.9 461.495 535.9 454.42C535.9 447.345 529.046 441.61 520.59 441.61C512.135 441.61 505.28 447.345 505.28 454.42C505.28 461.495 512.135 467.23 520.59 467.23Z" fill="black"/>
<path d="M520.59 464.42C529.046 464.42 535.9 458.685 535.9 451.61C535.9 444.535 529.046 438.8 520.59 438.8C512.135 438.8 505.28 444.535 505.28 451.61C505.28 458.685 512.135 464.42 520.59 464.42Z" fill="#35323E"/>
<path d="M117.9 422.55C126.355 422.55 133.21 416.815 133.21 409.74C133.21 402.665 126.355 396.93 117.9 396.93C109.445 396.93 102.59 402.665 102.59 409.74C102.59 416.815 109.445 422.55 117.9 422.55Z" fill="#35323E"/>
<path opacity="0.1" d="M117.9 422.55C126.355 422.55 133.21 416.815 133.21 409.74C133.21 402.665 126.355 396.93 117.9 396.93C109.445 396.93 102.59 402.665 102.59 409.74C102.59 416.815 109.445 422.55 117.9 422.55Z" fill="black"/>
<path d="M117.9 419.74C126.355 419.74 133.21 414.005 133.21 406.93C133.21 399.855 126.355 394.12 117.9 394.12C109.445 394.12 102.59 399.855 102.59 406.93C102.59 414.005 109.445 419.74 117.9 419.74Z" fill="#35323E"/>
<path d="M160.39 422.55C168.845 422.55 175.7 416.815 175.7 409.74C175.7 402.665 168.845 396.93 160.39 396.93C151.935 396.93 145.08 402.665 145.08 409.74C145.08 416.815 151.935 422.55 160.39 422.55Z" fill="#35323E"/>
<path opacity="0.1" d="M160.39 422.55C168.845 422.55 175.7 416.815 175.7 409.74C175.7 402.665 168.845 396.93 160.39 396.93C151.935 396.93 145.08 402.665 145.08 409.74C145.08 416.815 151.935 422.55 160.39 422.55Z" fill="black"/>
<path d="M160.39 419.74C168.845 419.74 175.7 414.005 175.7 406.93C175.7 399.855 168.845 394.12 160.39 394.12C151.935 394.12 145.08 399.855 145.08 406.93C145.08 414.005 151.935 419.74 160.39 419.74Z" fill="#35323E"/>
<path d="M201.31 422.55C209.765 422.55 216.62 416.815 216.62 409.74C216.62 402.665 209.765 396.93 201.31 396.93C192.855 396.93 186 402.665 186 409.74C186 416.815 192.855 422.55 201.31 422.55Z" fill="#35323E"/>
<path opacity="0.1" d="M201.31 422.55C209.765 422.55 216.62 416.815 216.62 409.74C216.62 402.665 209.765 396.93 201.31 396.93C192.855 396.93 186 402.665 186 409.74C186 416.815 192.855 422.55 201.31 422.55Z" fill="black"/>
<path d="M201.31 419.74C209.765 419.74 216.62 414.005 216.62 406.93C216.62 399.855 209.765 394.12 201.31 394.12C192.855 394.12 186 399.855 186 406.93C186 414.005 192.855 419.74 201.31 419.74Z" fill="#35323E"/>
<path d="M243.49 422.55C251.945 422.55 258.8 416.815 258.8 409.74C258.8 402.665 251.945 396.93 243.49 396.93C235.035 396.93 228.18 402.665 228.18 409.74C228.18 416.815 235.035 422.55 243.49 422.55Z" fill="#35323E"/>
<path opacity="0.1" d="M243.49 422.55C251.945 422.55 258.8 416.815 258.8 409.74C258.8 402.665 251.945 396.93 243.49 396.93C235.035 396.93 228.18 402.665 228.18 409.74C228.18 416.815 235.035 422.55 243.49 422.55Z" fill="black"/>
<path d="M243.49 419.74C251.945 419.74 258.8 414.005 258.8 406.93C258.8 399.855 251.945 394.12 243.49 394.12C235.035 394.12 228.18 399.855 228.18 406.93C228.18 414.005 235.035 419.74 243.49 419.74Z" fill="#35323E"/>
<path d="M285.04 422.55C293.495 422.55 300.35 416.815 300.35 409.74C300.35 402.665 293.495 396.93 285.04 396.93C276.585 396.93 269.73 402.665 269.73 409.74C269.73 416.815 276.585 422.55 285.04 422.55Z" fill="#35323E"/>
<path opacity="0.1" d="M285.04 422.55C293.495 422.55 300.35 416.815 300.35 409.74C300.35 402.665 293.495 396.93 285.04 396.93C276.585 396.93 269.73 402.665 269.73 409.74C269.73 416.815 276.585 422.55 285.04 422.55Z" fill="black"/>
<path d="M285.04 419.74C293.495 419.74 300.35 414.005 300.35 406.93C300.35 399.855 293.495 394.12 285.04 394.12C276.585 394.12 269.73 399.855 269.73 406.93C269.73 414.005 276.585 419.74 285.04 419.74Z" fill="#35323E"/>
<path d="M327.53 422.55C335.986 422.55 342.84 416.815 342.84 409.74C342.84 402.665 335.986 396.93 327.53 396.93C319.075 396.93 312.22 402.665 312.22 409.74C312.22 416.815 319.075 422.55 327.53 422.55Z" fill="#35323E"/>
<path opacity="0.1" d="M327.53 422.55C335.986 422.55 342.84 416.815 342.84 409.74C342.84 402.665 335.986 396.93 327.53 396.93C319.075 396.93 312.22 402.665 312.22 409.74C312.22 416.815 319.075 422.55 327.53 422.55Z" fill="black"/>
<path d="M327.53 419.74C335.986 419.74 342.84 414.005 342.84 406.93C342.84 399.855 335.986 394.12 327.53 394.12C319.075 394.12 312.22 399.855 312.22 406.93C312.22 414.005 319.075 419.74 327.53 419.74Z" fill="#35323E"/>
<path d="M369.08 422.55C377.535 422.55 384.39 416.815 384.39 409.74C384.39 402.665 377.535 396.93 369.08 396.93C360.625 396.93 353.77 402.665 353.77 409.74C353.77 416.815 360.625 422.55 369.08 422.55Z" fill="#35323E"/>
<path opacity="0.1" d="M369.08 422.55C377.535 422.55 384.39 416.815 384.39 409.74C384.39 402.665 377.535 396.93 369.08 396.93C360.625 396.93 353.77 402.665 353.77 409.74C353.77 416.815 360.625 422.55 369.08 422.55Z" fill="black"/>
<path d="M369.08 419.74C377.535 419.74 384.39 414.005 384.39 406.93C384.39 399.855 377.535 394.12 369.08 394.12C360.625 394.12 353.77 399.855 353.77 406.93C353.77 414.005 360.625 419.74 369.08 419.74Z" fill="#35323E"/>
<path d="M411.25 422.55C419.705 422.55 426.56 416.815 426.56 409.74C426.56 402.665 419.705 396.93 411.25 396.93C402.795 396.93 395.94 402.665 395.94 409.74C395.94 416.815 402.795 422.55 411.25 422.55Z" fill="#35323E"/>
<path opacity="0.1" d="M411.25 422.55C419.705 422.55 426.56 416.815 426.56 409.74C426.56 402.665 419.705 396.93 411.25 396.93C402.795 396.93 395.94 402.665 395.94 409.74C395.94 416.815 402.795 422.55 411.25 422.55Z" fill="black"/>
<path d="M411.25 419.74C419.705 419.74 426.56 414.005 426.56 406.93C426.56 399.855 419.705 394.12 411.25 394.12C402.795 394.12 395.94 399.855 395.94 406.93C395.94 414.005 402.795 419.74 411.25 419.74Z" fill="#35323E"/>
<path d="M454.68 422.55C463.135 422.55 469.99 416.815 469.99 409.74C469.99 402.665 463.135 396.93 454.68 396.93C446.225 396.93 439.37 402.665 439.37 409.74C439.37 416.815 446.225 422.55 454.68 422.55Z" fill="#35323E"/>
<path opacity="0.1" d="M454.68 422.55C463.135 422.55 469.99 416.815 469.99 409.74C469.99 402.665 463.135 396.93 454.68 396.93C446.225 396.93 439.37 402.665 439.37 409.74C439.37 416.815 446.225 422.55 454.68 422.55Z" fill="black"/>
<path d="M454.68 419.74C463.135 419.74 469.99 414.005 469.99 406.93C469.99 399.855 463.135 394.12 454.68 394.12C446.225 394.12 439.37 399.855 439.37 406.93C439.37 414.005 446.225 419.74 454.68 419.74Z" fill="#35323E"/>
<path d="M497.16 422.55C505.615 422.55 512.47 416.815 512.47 409.74C512.47 402.665 505.615 396.93 497.16 396.93C488.704 396.93 481.85 402.665 481.85 409.74C481.85 416.815 488.704 422.55 497.16 422.55Z" fill="#35323E"/>
<path opacity="0.1" d="M497.16 422.55C505.615 422.55 512.47 416.815 512.47 409.74C512.47 402.665 505.615 396.93 497.16 396.93C488.704 396.93 481.85 402.665 481.85 409.74C481.85 416.815 488.704 422.55 497.16 422.55Z" fill="black"/>
<path d="M497.16 419.74C505.615 419.74 512.47 414.005 512.47 406.93C512.47 399.855 505.615 394.12 497.16 394.12C488.704 394.12 481.85 399.855 481.85 406.93C481.85 414.005 488.704 419.74 497.16 419.74Z" fill="#35323E"/>
<path d="M538.71 422.55C547.166 422.55 554.02 416.815 554.02 409.74C554.02 402.665 547.166 396.93 538.71 396.93C530.255 396.93 523.4 402.665 523.4 409.74C523.4 416.815 530.255 422.55 538.71 422.55Z" fill="#6C63FF"/>
<path opacity="0.1" d="M538.71 422.55C547.166 422.55 554.02 416.815 554.02 409.74C554.02 402.665 547.166 396.93 538.71 396.93C530.255 396.93 523.4 402.665 523.4 409.74C523.4 416.815 530.255 422.55 538.71 422.55Z" fill="black"/>
<path d="M538.71 419.74C547.166 419.74 554.02 414.005 554.02 406.93C554.02 399.855 547.166 394.12 538.71 394.12C530.255 394.12 523.4 399.855 523.4 406.93C523.4 414.005 530.255 419.74 538.71 419.74Z" fill="#6C63FF"/>
<path d="M536.52 573.77H86.98C81.9708 573.77 77.91 577.831 77.91 582.84V589.38C77.91 594.389 81.9708 598.45 86.98 598.45H536.52C541.529 598.45 545.59 594.389 545.59 589.38V582.84C545.59 577.831 541.529 573.77 536.52 573.77Z" fill="#35323E"/>
<path opacity="0.1" d="M536.52 573.77H86.98C81.9708 573.77 77.91 577.831 77.91 582.84V589.38C77.91 594.389 81.9708 598.45 86.98 598.45H536.52C541.529 598.45 545.59 594.389 545.59 589.38V582.84C545.59 577.831 541.529 573.77 536.52 573.77Z" fill="black"/>
<path d="M536.52 571.89H86.98C81.9708 571.89 77.91 575.951 77.91 580.96V587.5C77.91 592.509 81.9708 596.57 86.98 596.57H536.52C541.529 596.57 545.59 592.509 545.59 587.5V580.96C545.59 575.951 541.529 571.89 536.52 571.89Z" fill="#35323E"/>
<path opacity="0.1" d="M481.86 279.46C481.86 305.86 398.3 334.13 304.09 334.13C209.88 334.13 140.09 303.67 140.09 277.27C140.09 250.87 209.9 238.53 304.09 238.53C398.28 238.53 481.86 253.06 481.86 279.46Z" fill="black"/>
<path d="M564.64 201.98C570.334 201.98 574.95 190.581 574.95 176.52C574.95 162.459 570.334 151.06 564.64 151.06C558.946 151.06 554.33 162.459 554.33 176.52C554.33 190.581 558.946 201.98 564.64 201.98Z" fill="#464353"/>
<path d="M59.79 201.98C65.484 201.98 70.1 190.581 70.1 176.52C70.1 162.459 65.484 151.06 59.79 151.06C54.0959 151.06 49.48 162.459 49.48 176.52C49.48 190.581 54.0959 201.98 59.79 201.98Z" fill="#464353"/>
<path opacity="0.1" d="M564.64 170.43H67.29V177.93H564.64V170.43Z" fill="black"/>
<path d="M564.64 169.18H67.29V176.68H564.64V169.18Z" fill="#464353"/>
<path d="M323.77 178.55C319.7 177.3 312.21 201.98 312.21 201.98H335.01C335.01 201.98 327.84 179.8 323.77 178.55ZM323.45 181.67C323.884 181.668 324.308 181.795 324.669 182.034C325.031 182.274 325.313 182.615 325.48 183.015C325.648 183.415 325.692 183.856 325.609 184.281C325.526 184.707 325.318 185.098 325.012 185.405C324.706 185.712 324.316 185.922 323.891 186.007C323.466 186.092 323.025 186.05 322.624 185.884C322.223 185.719 321.881 185.438 321.64 185.078C321.399 184.717 321.27 184.294 321.27 183.86C321.27 183.572 321.327 183.288 321.437 183.022C321.547 182.756 321.708 182.515 321.911 182.311C322.115 182.108 322.356 181.947 322.622 181.837C322.888 181.727 323.172 181.67 323.46 181.67H323.45ZM323.71 188.73C326.38 189.38 331.11 201.04 331.11 201.04H316.11C316.11 201.04 321.05 188.07 323.77 188.73H323.71Z" fill="#464353"/>
<path opacity="0.03" d="M601.07 368.17H19.07C19.9233 360.023 20.9233 351.893 22.07 343.78L36.78 241.3C38.6527 228.472 45.0781 216.745 54.8824 208.262C64.6868 199.78 77.2156 195.108 90.18 195.1H112.52C123.857 195.14 134.876 198.848 143.93 205.67C167.07 222.94 232.81 235.4 310.31 235.4C387.81 235.4 453.58 222.98 476.77 205.67C485.824 198.848 496.843 195.14 508.18 195.1H544.37C551.977 195.1 559.341 197.781 565.167 202.671C570.994 207.561 574.911 214.348 576.23 221.84L595.98 333.84C597.98 345.267 599.677 356.71 601.07 368.17Z" fill="white"/>
<path opacity="0.1" d="M87.86 192.76C87.8375 192.819 87.8107 192.875 87.78 192.93C87.9654 193.274 88.169 193.608 88.39 193.93L97.21 191.22C97.21 191.22 96.7 189.22 95.93 186.86C92.44 185.86 87.44 191.99 87.44 191.99L87.86 192.76Z" fill="black"/>
<path opacity="0.1" d="M75.02 152.58C77.558 152.263 80.0532 151.666 82.46 150.8C82.46 150.8 84.33 150.39 87.11 149.46C87.03 148.46 86.97 147.4 86.96 146.15C86.7787 142.566 86.3139 139.001 85.57 135.49L75.28 137.36L75.01 148.85C74.7076 150.075 74.711 151.356 75.02 152.58V152.58Z" fill="black"/>
<path opacity="0.1" d="M122.05 6.19L123.71 12.9L125.87 11.6C125.39 8.59999 124.65 5.77 123.97 5.12L122.05 6.19Z" fill="black"/>
<path opacity="0.1" d="M122.03 5.09999C122.199 5.06943 122.371 5.06943 122.54 5.09999C124.13 5.58999 126.2 19.35 124.54 20.61C123.721 21.232 122.764 21.6471 121.75 21.82H121.51L120.98 17.23C120.844 17.3039 120.714 17.3875 120.59 17.48V17.29C121.005 15.5309 121.017 13.7009 120.626 11.9364C120.235 10.172 119.45 8.51866 118.33 7.09999L122.03 5.09999Z" fill="black"/>
<path d="M121 17.3L121.53 21.89C122.777 21.8066 123.972 21.3618 124.97 20.61C126.61 19.35 124.54 5.61 122.97 5.1C121.71 4.71 119.5 6.28 118.62 6.95C119.79 8.37384 120.613 10.0495 121.026 11.8453C121.439 13.6411 121.43 15.5083 121 17.3V17.3Z" fill="#444053"/>
<path d="M110.93 0.160004L112.5 41.51L157.98 0.160004H110.93Z" fill="white"/>
<path opacity="0.03" d="M110.93 0.160004L112.5 41.51L157.98 0.160004H110.93Z" fill="black"/>
</svg>
