<svg width="101" height="101" viewBox="0 0 101 101" fill="none" xmlns="http://www.w3.org/2000/svg">
<path d="M88.3707 19.8092H12.9334C12.2739 19.8092 11.7393 20.3266 11.7393 20.9649V34.9064C11.7393 35.5447 12.2739 36.0621 12.9334 36.0621H88.3707C89.0301 36.0621 89.5648 35.5447 89.5648 34.9064V20.9649C89.5648 20.3266 89.0301 19.8092 88.3707 19.8092Z" fill="#35323E"/>
<path d="M18.326 0.149994C18.326 0.149994 19.4315 29.2494 17.4715 32.6558H83.7312C83.7312 32.6558 80.9166 10.2724 83.7312 0.149994H18.326Z" fill="white"/>
<path d="M73.6781 31.416H25.1122V37.2552H73.6781V31.416Z" fill="#35323E"/>
<path d="M95.3018 100.15H5.28614C4.6111 100.15 3.94364 100.012 3.32737 99.7457C2.71109 99.4791 2.15986 99.0896 1.7097 98.6028C1.25953 98.1159 0.920552 97.5426 0.714911 96.9203C0.509269 96.298 0.441589 95.6408 0.516292 94.9914L2.35729 78.9348C2.47852 77.8674 2.56595 76.7973 2.6196 75.7247L2.96559 64.8375C3.04498 62.3777 3.21663 59.924 3.48055 57.4766C3.61788 56.2078 3.7788 54.9415 3.96333 53.6778L6.33055 37.7162C6.63191 35.7181 7.66592 33.8916 9.2437 32.5705C10.8215 31.2493 12.8377 30.5216 14.924 30.5204H18.5191C20.3434 30.5265 22.1167 31.1041 23.5738 32.1667C27.2976 34.8566 37.8769 36.7972 50.3487 36.7972C62.8204 36.7972 73.4013 34.8566 77.1332 32.1605C78.5902 31.0979 80.3635 30.5203 82.1879 30.5141H88.0118C89.2359 30.5141 90.4209 30.9317 91.3586 31.6933C92.2963 32.455 92.9266 33.5121 93.1389 34.679L96.3172 52.1234C96.639 53.8969 96.9121 55.6777 97.1363 57.4657C97.5096 60.4386 97.7441 63.4243 97.8395 66.4231L98.1614 76.5393C98.2288 78.6489 98.4174 80.7533 98.7263 82.8427L100.434 94.4167C100.54 95.1288 100.487 95.8547 100.277 96.5451C100.068 97.2355 99.7078 97.8743 99.2211 98.4181C98.7343 98.9619 98.1324 99.398 97.4561 99.6969C96.7799 99.9957 96.0451 100.15 95.3018 100.15V100.15Z" fill="#464353"/>
<path opacity="0.1" d="M90.1747 59.7615H10.6289C8.85491 59.7615 7.41681 61.1534 7.41681 62.8704V92.4184C7.41681 94.1353 8.85491 95.5272 10.6289 95.5272H90.1747C91.9486 95.5272 93.3867 94.1353 93.3867 92.4184V62.8704C93.3867 61.1534 91.9486 59.7615 90.1747 59.7615Z" fill="black"/>
<path d="M12.9462 65.9403C14.3069 65.9403 15.41 65.047 15.41 63.9451C15.41 62.8432 14.3069 61.9499 12.9462 61.9499C11.5855 61.9499 10.4825 62.8432 10.4825 63.9451C10.4825 65.047 11.5855 65.9403 12.9462 65.9403Z" fill="#6C63FF"/>
<path opacity="0.1" d="M12.9462 65.9403C14.3069 65.9403 15.41 65.047 15.41 63.9451C15.41 62.8432 14.3069 61.9499 12.9462 61.9499C11.5855 61.9499 10.4825 62.8432 10.4825 63.9451C10.4825 65.047 11.5855 65.9403 12.9462 65.9403Z" fill="black"/>
<path d="M12.9462 65.5026C14.3069 65.5026 15.41 64.6093 15.41 63.5074C15.41 62.4055 14.3069 61.5122 12.9462 61.5122C11.5855 61.5122 10.4825 62.4055 10.4825 63.5074C10.4825 64.6093 11.5855 65.5026 12.9462 65.5026Z" fill="#6C63FF"/>
<path d="M15.8622 72.8993C17.2229 72.8993 18.326 72.0061 18.326 70.9041C18.326 69.8022 17.2229 68.9089 15.8622 68.9089C14.5015 68.9089 13.3984 69.8022 13.3984 70.9041C13.3984 72.0061 14.5015 72.8993 15.8622 72.8993Z" fill="#35323E"/>
<path opacity="0.1" d="M15.8622 72.8993C17.2229 72.8993 18.326 72.0061 18.326 70.9041C18.326 69.8022 17.2229 68.9089 15.8622 68.9089C14.5015 68.9089 13.3984 69.8022 13.3984 70.9041C13.3984 72.0061 14.5015 72.8993 15.8622 72.8993Z" fill="black"/>
<path d="M15.8622 72.4617C17.2229 72.4617 18.326 71.5684 18.326 70.4665C18.326 69.3646 17.2229 68.4713 15.8622 68.4713C14.5015 68.4713 13.3984 69.3646 13.3984 70.4665C13.3984 71.5684 14.5015 72.4617 15.8622 72.4617Z" fill="#35323E"/>
<path d="M17.4715 79.8584C18.8322 79.8584 19.9352 78.9651 19.9352 77.8632C19.9352 76.7613 18.8322 75.868 17.4715 75.868C16.1108 75.868 15.0077 76.7613 15.0077 77.8632C15.0077 78.9651 16.1108 79.8584 17.4715 79.8584Z" fill="#35323E"/>
<path opacity="0.1" d="M17.4715 79.8584C18.8322 79.8584 19.9352 78.9651 19.9352 77.8632C19.9352 76.7613 18.8322 75.868 17.4715 75.868C16.1108 75.868 15.0077 76.7613 15.0077 77.8632C15.0077 78.9651 16.1108 79.8584 17.4715 79.8584Z" fill="black"/>
<path d="M17.4715 79.4207C18.8322 79.4207 19.9352 78.5275 19.9352 77.4255C19.9352 76.3236 18.8322 75.4303 17.4715 75.4303C16.1108 75.4303 15.0077 76.3236 15.0077 77.4255C15.0077 78.5275 16.1108 79.4207 17.4715 79.4207Z" fill="#35323E"/>
<path d="M11.2372 80.6855C12.5979 80.6855 13.701 79.7922 13.701 78.6903C13.701 77.5884 12.5979 76.6951 11.2372 76.6951C9.87648 76.6951 8.77341 77.5884 8.77341 78.6903C8.77341 79.7922 9.87648 80.6855 11.2372 80.6855Z" fill="#35323E"/>
<path opacity="0.1" d="M11.2372 80.6855C12.5979 80.6855 13.701 79.7922 13.701 78.6903C13.701 77.5884 12.5979 76.6951 11.2372 76.6951C9.87648 76.6951 8.77341 77.5884 8.77341 78.6903C8.77341 79.7922 9.87648 80.6855 11.2372 80.6855Z" fill="black"/>
<path d="M11.2372 80.2478C12.5979 80.2478 13.701 79.3545 13.701 78.2526C13.701 77.1507 12.5979 76.2574 11.2372 76.2574C9.87648 76.2574 8.77341 77.1507 8.77341 78.2526C8.77341 79.3545 9.87648 80.2478 11.2372 80.2478Z" fill="#35323E"/>
<path d="M20.4872 86.8159C21.8479 86.8159 22.951 85.9227 22.951 84.8207C22.951 83.7188 21.8479 82.8255 20.4872 82.8255C19.1265 82.8255 18.0234 83.7188 18.0234 84.8207C18.0234 85.9227 19.1265 86.8159 20.4872 86.8159Z" fill="#35323E"/>
<path opacity="0.1" d="M20.4872 86.8159C21.8479 86.8159 22.951 85.9227 22.951 84.8207C22.951 83.7188 21.8479 82.8255 20.4872 82.8255C19.1265 82.8255 18.0234 83.7188 18.0234 84.8207C18.0234 85.9227 19.1265 86.8159 20.4872 86.8159Z" fill="black"/>
<path d="M20.4872 86.3783C21.8479 86.3783 22.951 85.485 22.951 84.3831C22.951 83.2811 21.8479 82.3878 20.4872 82.3878C19.1265 82.3878 18.0234 83.2811 18.0234 84.3831C18.0234 85.485 19.1265 86.3783 20.4872 86.3783Z" fill="#35323E"/>
<path d="M12.243 87.0605C13.6037 87.0605 14.7068 86.1672 14.7068 85.0653C14.7068 83.9633 13.6037 83.0701 12.243 83.0701C10.8823 83.0701 9.77921 83.9633 9.77921 85.0653C9.77921 86.1672 10.8823 87.0605 12.243 87.0605Z" fill="#35323E"/>
<path opacity="0.1" d="M12.243 87.0605C13.6037 87.0605 14.7068 86.1672 14.7068 85.0653C14.7068 83.9633 13.6037 83.0701 12.243 83.0701C10.8823 83.0701 9.77921 83.9633 9.77921 85.0653C9.77921 86.1672 10.8823 87.0605 12.243 87.0605Z" fill="black"/>
<path d="M12.243 86.6212C13.6037 86.6212 14.7068 85.728 14.7068 84.626C14.7068 83.5241 13.6037 82.6308 12.243 82.6308C10.8823 82.6308 9.77921 83.5241 9.77921 84.626C9.77921 85.728 10.8823 86.6212 12.243 86.6212Z" fill="#35323E"/>
<path d="M27.2751 86.8159C28.6358 86.8159 29.7389 85.9227 29.7389 84.8207C29.7389 83.7188 28.6358 82.8255 27.2751 82.8255C25.9144 82.8255 24.8113 83.7188 24.8113 84.8207C24.8113 85.9227 25.9144 86.8159 27.2751 86.8159Z" fill="#35323E"/>
<path opacity="0.1" d="M27.2751 86.8159C28.6358 86.8159 29.7389 85.9227 29.7389 84.8207C29.7389 83.7188 28.6358 82.8255 27.2751 82.8255C25.9144 82.8255 24.8113 83.7188 24.8113 84.8207C24.8113 85.9227 25.9144 86.8159 27.2751 86.8159Z" fill="black"/>
<path d="M27.2751 86.3783C28.6358 86.3783 29.7389 85.485 29.7389 84.3831C29.7389 83.2811 28.6358 82.3878 27.2751 82.3878C25.9144 82.3878 24.8113 83.2811 24.8113 84.3831C24.8113 85.485 25.9144 86.3783 27.2751 86.3783Z" fill="#35323E"/>
<path d="M34.4637 86.8159C35.8244 86.8159 36.9274 85.9227 36.9274 84.8207C36.9274 83.7188 35.8244 82.8255 34.4637 82.8255C33.1029 82.8255 31.9999 83.7188 31.9999 84.8207C31.9999 85.9227 33.1029 86.8159 34.4637 86.8159Z" fill="#35323E"/>
<path opacity="0.1" d="M34.4637 86.8159C35.8244 86.8159 36.9274 85.9227 36.9274 84.8207C36.9274 83.7188 35.8244 82.8255 34.4637 82.8255C33.1029 82.8255 31.9999 83.7188 31.9999 84.8207C31.9999 85.9227 33.1029 86.8159 34.4637 86.8159Z" fill="black"/>
<path d="M34.4637 86.3783C35.8244 86.3783 36.9274 85.485 36.9274 84.3831C36.9274 83.2811 35.8244 82.3878 34.4637 82.3878C33.1029 82.3878 31.9999 83.2811 31.9999 84.3831C31.9999 85.485 33.1029 86.3783 34.4637 86.3783Z" fill="#35323E"/>
<path d="M41.1003 86.8159C42.461 86.8159 43.564 85.9227 43.564 84.8207C43.564 83.7188 42.461 82.8255 41.1003 82.8255C39.7395 82.8255 38.6365 83.7188 38.6365 84.8207C38.6365 85.9227 39.7395 86.8159 41.1003 86.8159Z" fill="#35323E"/>
<path opacity="0.1" d="M41.1003 86.8159C42.461 86.8159 43.564 85.9227 43.564 84.8207C43.564 83.7188 42.461 82.8255 41.1003 82.8255C39.7395 82.8255 38.6365 83.7188 38.6365 84.8207C38.6365 85.9227 39.7395 86.8159 41.1003 86.8159Z" fill="black"/>
<path d="M41.1003 86.3783C42.461 86.3783 43.564 85.485 43.564 84.3831C43.564 83.2811 42.461 82.3878 41.1003 82.3878C39.7395 82.3878 38.6365 83.2811 38.6365 84.3831C38.6365 85.485 39.7395 86.3783 41.1003 86.3783Z" fill="#35323E"/>
<path d="M48.4401 86.8159C49.8008 86.8159 50.9039 85.9227 50.9039 84.8207C50.9039 83.7188 49.8008 82.8255 48.4401 82.8255C47.0794 82.8255 45.9763 83.7188 45.9763 84.8207C45.9763 85.9227 47.0794 86.8159 48.4401 86.8159Z" fill="#35323E"/>
<path opacity="0.1" d="M48.4401 86.8159C49.8008 86.8159 50.9039 85.9227 50.9039 84.8207C50.9039 83.7188 49.8008 82.8255 48.4401 82.8255C47.0794 82.8255 45.9763 83.7188 45.9763 84.8207C45.9763 85.9227 47.0794 86.8159 48.4401 86.8159Z" fill="black"/>
<path d="M48.4401 86.3783C49.8008 86.3783 50.9039 85.485 50.9039 84.3831C50.9039 83.2811 49.8008 82.3878 48.4401 82.3878C47.0794 82.3878 45.9763 83.2811 45.9763 84.3831C45.9763 85.485 47.0794 86.3783 48.4401 86.3783Z" fill="#35323E"/>
<path d="M55.0767 86.8159C56.4374 86.8159 57.5405 85.9227 57.5405 84.8207C57.5405 83.7188 56.4374 82.8255 55.0767 82.8255C53.716 82.8255 52.6129 83.7188 52.6129 84.8207C52.6129 85.9227 53.716 86.8159 55.0767 86.8159Z" fill="#35323E"/>
<path opacity="0.1" d="M55.0767 86.8159C56.4374 86.8159 57.5405 85.9227 57.5405 84.8207C57.5405 83.7188 56.4374 82.8255 55.0767 82.8255C53.716 82.8255 52.6129 83.7188 52.6129 84.8207C52.6129 85.9227 53.716 86.8159 55.0767 86.8159Z" fill="black"/>
<path d="M55.0767 86.3783C56.4374 86.3783 57.5405 85.485 57.5405 84.3831C57.5405 83.2811 56.4374 82.3878 55.0767 82.3878C53.716 82.3878 52.6129 83.2811 52.6129 84.3831C52.6129 85.485 53.716 86.3783 55.0767 86.3783Z" fill="#35323E"/>
<path d="M61.6618 86.8159C63.0225 86.8159 64.1256 85.9227 64.1256 84.8207C64.1256 83.7188 63.0225 82.8255 61.6618 82.8255C60.3011 82.8255 59.198 83.7188 59.198 84.8207C59.198 85.9227 60.3011 86.8159 61.6618 86.8159Z" fill="#35323E"/>
<path opacity="0.1" d="M61.6618 86.8159C63.0225 86.8159 64.1256 85.9227 64.1256 84.8207C64.1256 83.7188 63.0225 82.8255 61.6618 82.8255C60.3011 82.8255 59.198 83.7188 59.198 84.8207C59.198 85.9227 60.3011 86.8159 61.6618 86.8159Z" fill="black"/>
<path d="M61.6618 86.3783C63.0225 86.3783 64.1256 85.485 64.1256 84.3831C64.1256 83.2811 63.0225 82.3878 61.6618 82.3878C60.3011 82.3878 59.198 83.2811 59.198 84.3831C59.198 85.485 60.3011 86.3783 61.6618 86.3783Z" fill="#35323E"/>
<path d="M68.8021 86.8159C70.1628 86.8159 71.2658 85.9227 71.2658 84.8207C71.2658 83.7188 70.1628 82.8255 68.8021 82.8255C67.4414 82.8255 66.3383 83.7188 66.3383 84.8207C66.3383 85.9227 67.4414 86.8159 68.8021 86.8159Z" fill="#35323E"/>
<path opacity="0.1" d="M68.8021 86.8159C70.1628 86.8159 71.2658 85.9227 71.2658 84.8207C71.2658 83.7188 70.1628 82.8255 68.8021 82.8255C67.4414 82.8255 66.3383 83.7188 66.3383 84.8207C66.3383 85.9227 67.4414 86.8159 68.8021 86.8159Z" fill="black"/>
<path d="M68.8021 86.3783C70.1628 86.3783 71.2658 85.485 71.2658 84.3831C71.2658 83.2811 70.1628 82.3878 68.8021 82.3878C67.4414 82.3878 66.3383 83.2811 66.3383 84.3831C66.3383 85.485 67.4414 86.3783 68.8021 86.3783Z" fill="#35323E"/>
<path d="M75.4885 86.8159C76.8492 86.8159 77.9523 85.9227 77.9523 84.8207C77.9523 83.7188 76.8492 82.8255 75.4885 82.8255C74.1278 82.8255 73.0247 83.7188 73.0247 84.8207C73.0247 85.9227 74.1278 86.8159 75.4885 86.8159Z" fill="#35323E"/>
<path opacity="0.1" d="M75.4885 86.8159C76.8492 86.8159 77.9523 85.9227 77.9523 84.8207C77.9523 83.7188 76.8492 82.8255 75.4885 82.8255C74.1278 82.8255 73.0247 83.7188 73.0247 84.8207C73.0247 85.9227 74.1278 86.8159 75.4885 86.8159Z" fill="black"/>
<path d="M75.4885 86.3783C76.8492 86.3783 77.9523 85.485 77.9523 84.3831C77.9523 83.2811 76.8492 82.3878 75.4885 82.3878C74.1278 82.3878 73.0247 83.2811 73.0247 84.3831C73.0247 85.485 74.1278 86.3783 75.4885 86.3783Z" fill="#35323E"/>
<path d="M82.8783 86.8159C84.239 86.8159 85.3421 85.9227 85.3421 84.8207C85.3421 83.7188 84.239 82.8255 82.8783 82.8255C81.5176 82.8255 80.4145 83.7188 80.4145 84.8207C80.4145 85.9227 81.5176 86.8159 82.8783 86.8159Z" fill="#35323E"/>
<path opacity="0.1" d="M82.8783 86.8159C84.239 86.8159 85.3421 85.9227 85.3421 84.8207C85.3421 83.7188 84.239 82.8255 82.8783 82.8255C81.5176 82.8255 80.4145 83.7188 80.4145 84.8207C80.4145 85.9227 81.5176 86.8159 82.8783 86.8159Z" fill="black"/>
<path d="M82.8783 86.3783C84.239 86.3783 85.3421 85.485 85.3421 84.3831C85.3421 83.2811 84.239 82.3878 82.8783 82.3878C81.5176 82.3878 80.4145 83.2811 80.4145 84.3831C80.4145 85.485 81.5176 86.3783 82.8783 86.3783Z" fill="#35323E"/>
<path d="M90.4708 86.8159C91.8315 86.8159 92.9345 85.9227 92.9345 84.8207C92.9345 83.7188 91.8315 82.8255 90.4708 82.8255C89.1101 82.8255 88.007 83.7188 88.007 84.8207C88.007 85.9227 89.1101 86.8159 90.4708 86.8159Z" fill="#35323E"/>
<path opacity="0.1" d="M90.4708 86.8159C91.8315 86.8159 92.9345 85.9227 92.9345 84.8207C92.9345 83.7188 91.8315 82.8255 90.4708 82.8255C89.1101 82.8255 88.007 83.7188 88.007 84.8207C88.007 85.9227 89.1101 86.8159 90.4708 86.8159Z" fill="black"/>
<path d="M90.4708 86.3783C91.8315 86.3783 92.9345 85.485 92.9345 84.3831C92.9345 83.2811 91.8315 82.3878 90.4708 82.3878C89.1101 82.3878 88.007 83.2811 88.007 84.3831C88.007 85.485 89.1101 86.3783 90.4708 86.3783Z" fill="#35323E"/>
<path d="M24.3092 79.8584C25.6699 79.8584 26.773 78.9651 26.773 77.8632C26.773 76.7613 25.6699 75.868 24.3092 75.868C22.9485 75.868 21.8454 76.7613 21.8454 77.8632C21.8454 78.9651 22.9485 79.8584 24.3092 79.8584Z" fill="#35323E"/>
<path opacity="0.1" d="M24.3092 79.8584C25.6699 79.8584 26.773 78.9651 26.773 77.8632C26.773 76.7613 25.6699 75.868 24.3092 75.868C22.9485 75.868 21.8454 76.7613 21.8454 77.8632C21.8454 78.9651 22.9485 79.8584 24.3092 79.8584Z" fill="black"/>
<path d="M24.3092 79.4207C25.6699 79.4207 26.773 78.5275 26.773 77.4255C26.773 76.3236 25.6699 75.4303 24.3092 75.4303C22.9485 75.4303 21.8454 76.3236 21.8454 77.4255C21.8454 78.5275 22.9485 79.4207 24.3092 79.4207Z" fill="#35323E"/>
<path d="M31.1454 79.8584C32.5061 79.8584 33.6091 78.9651 33.6091 77.8632C33.6091 76.7613 32.5061 75.868 31.1454 75.868C29.7847 75.868 28.6816 76.7613 28.6816 77.8632C28.6816 78.9651 29.7847 79.8584 31.1454 79.8584Z" fill="#35323E"/>
<path opacity="0.1" d="M31.1454 79.8584C32.5061 79.8584 33.6091 78.9651 33.6091 77.8632C33.6091 76.7613 32.5061 75.868 31.1454 75.868C29.7847 75.868 28.6816 76.7613 28.6816 77.8632C28.6816 78.9651 29.7847 79.8584 31.1454 79.8584Z" fill="black"/>
<path d="M31.1454 79.4207C32.5061 79.4207 33.6091 78.5275 33.6091 77.4255C33.6091 76.3236 32.5061 75.4303 31.1454 75.4303C29.7847 75.4303 28.6816 76.3236 28.6816 77.4255C28.6816 78.5275 29.7847 79.4207 31.1454 79.4207Z" fill="#35323E"/>
<path d="M38.1843 79.8584C39.545 79.8584 40.648 78.9651 40.648 77.8632C40.648 76.7613 39.545 75.868 38.1843 75.868C36.8236 75.868 35.7205 76.7613 35.7205 77.8632C35.7205 78.9651 36.8236 79.8584 38.1843 79.8584Z" fill="#35323E"/>
<path opacity="0.1" d="M38.1843 79.8584C39.545 79.8584 40.648 78.9651 40.648 77.8632C40.648 76.7613 39.545 75.868 38.1843 75.868C36.8236 75.868 35.7205 76.7613 35.7205 77.8632C35.7205 78.9651 36.8236 79.8584 38.1843 79.8584Z" fill="black"/>
<path d="M38.1843 79.4207C39.545 79.4207 40.648 78.5275 40.648 77.4255C40.648 76.3236 39.545 75.4303 38.1843 75.4303C36.8236 75.4303 35.7205 76.3236 35.7205 77.4255C35.7205 78.5275 36.8236 79.4207 38.1843 79.4207Z" fill="#35323E"/>
<path d="M44.9206 79.8584C46.2813 79.8584 47.3844 78.9651 47.3844 77.8632C47.3844 76.7613 46.2813 75.868 44.9206 75.868C43.5599 75.868 42.4568 76.7613 42.4568 77.8632C42.4568 78.9651 43.5599 79.8584 44.9206 79.8584Z" fill="#35323E"/>
<path opacity="0.1" d="M44.9206 79.8584C46.2813 79.8584 47.3844 78.9651 47.3844 77.8632C47.3844 76.7613 46.2813 75.868 44.9206 75.868C43.5599 75.868 42.4568 76.7613 42.4568 77.8632C42.4568 78.9651 43.5599 79.8584 44.9206 79.8584Z" fill="black"/>
<path d="M44.9206 79.4207C46.2813 79.4207 47.3844 78.5275 47.3844 77.4255C47.3844 76.3236 46.2813 75.4303 44.9206 75.4303C43.5599 75.4303 42.4568 76.3236 42.4568 77.4255C42.4568 78.5275 43.5599 79.4207 44.9206 79.4207Z" fill="#35323E"/>
<path d="M51.8083 79.8584C53.169 79.8584 54.272 78.9651 54.272 77.8632C54.272 76.7613 53.169 75.868 51.8083 75.868C50.4476 75.868 49.3445 76.7613 49.3445 77.8632C49.3445 78.9651 50.4476 79.8584 51.8083 79.8584Z" fill="#35323E"/>
<path opacity="0.1" d="M51.8083 79.8584C53.169 79.8584 54.272 78.9651 54.272 77.8632C54.272 76.7613 53.169 75.868 51.8083 75.868C50.4476 75.868 49.3445 76.7613 49.3445 77.8632C49.3445 78.9651 50.4476 79.8584 51.8083 79.8584Z" fill="black"/>
<path d="M51.8083 79.4207C53.169 79.4207 54.272 78.5275 54.272 77.4255C54.272 76.3236 53.169 75.4303 51.8083 75.4303C50.4476 75.4303 49.3445 76.3236 49.3445 77.4255C49.3445 78.5275 50.4476 79.4207 51.8083 79.4207Z" fill="#35323E"/>
<path d="M58.395 79.8584C59.7557 79.8584 60.8587 78.9651 60.8587 77.8632C60.8587 76.7613 59.7557 75.868 58.395 75.868C57.0343 75.868 55.9312 76.7613 55.9312 77.8632C55.9312 78.9651 57.0343 79.8584 58.395 79.8584Z" fill="#35323E"/>
<path opacity="0.1" d="M58.395 79.8584C59.7557 79.8584 60.8587 78.9651 60.8587 77.8632C60.8587 76.7613 59.7557 75.868 58.395 75.868C57.0343 75.868 55.9312 76.7613 55.9312 77.8632C55.9312 78.9651 57.0343 79.8584 58.395 79.8584Z" fill="black"/>
<path d="M58.395 79.4207C59.7557 79.4207 60.8587 78.5275 60.8587 77.4255C60.8587 76.3236 59.7557 75.4303 58.395 75.4303C57.0343 75.4303 55.9312 76.3236 55.9312 77.4255C55.9312 78.5275 57.0343 79.4207 58.395 79.4207Z" fill="#35323E"/>
<path d="M65.5337 79.8584C66.8944 79.8584 67.9974 78.9651 67.9974 77.8632C67.9974 76.7613 66.8944 75.868 65.5337 75.868C64.173 75.868 63.0699 76.7613 63.0699 77.8632C63.0699 78.9651 64.173 79.8584 65.5337 79.8584Z" fill="#35323E"/>
<path opacity="0.1" d="M65.5337 79.8584C66.8944 79.8584 67.9974 78.9651 67.9974 77.8632C67.9974 76.7613 66.8944 75.868 65.5337 75.868C64.173 75.868 63.0699 76.7613 63.0699 77.8632C63.0699 78.9651 64.173 79.8584 65.5337 79.8584Z" fill="black"/>
<path d="M65.5337 79.4207C66.8944 79.4207 67.9974 78.5275 67.9974 77.4255C67.9974 76.3236 66.8944 75.4303 65.5337 75.4303C64.173 75.4303 63.0699 76.3236 63.0699 77.4255C63.0699 78.5275 64.173 79.4207 65.5337 79.4207Z" fill="#35323E"/>
<path d="M72.3215 79.8584C73.6822 79.8584 74.7853 78.9651 74.7853 77.8632C74.7853 76.7613 73.6822 75.868 72.3215 75.868C70.9608 75.868 69.8577 76.7613 69.8577 77.8632C69.8577 78.9651 70.9608 79.8584 72.3215 79.8584Z" fill="#35323E"/>
<path opacity="0.1" d="M72.3215 79.8584C73.6822 79.8584 74.7853 78.9651 74.7853 77.8632C74.7853 76.7613 73.6822 75.868 72.3215 75.868C70.9608 75.868 69.8577 76.7613 69.8577 77.8632C69.8577 78.9651 70.9608 79.8584 72.3215 79.8584Z" fill="black"/>
<path d="M72.3215 79.4207C73.6822 79.4207 74.7853 78.5275 74.7853 77.4255C74.7853 76.3236 73.6822 75.4303 72.3215 75.4303C70.9608 75.4303 69.8577 76.3236 69.8577 77.4255C69.8577 78.5275 70.9608 79.4207 72.3215 79.4207Z" fill="#35323E"/>
<path d="M79.259 79.8584C80.6197 79.8584 81.7228 78.9651 81.7228 77.8632C81.7228 76.7613 80.6197 75.868 79.259 75.868C77.8983 75.868 76.7953 76.7613 76.7953 77.8632C76.7953 78.9651 77.8983 79.8584 79.259 79.8584Z" fill="#35323E"/>
<path opacity="0.1" d="M79.259 79.8584C80.6197 79.8584 81.7228 78.9651 81.7228 77.8632C81.7228 76.7613 80.6197 75.868 79.259 75.868C77.8983 75.868 76.7953 76.7613 76.7953 77.8632C76.7953 78.9651 77.8983 79.8584 79.259 79.8584Z" fill="black"/>
<path d="M79.259 79.4207C80.6197 79.4207 81.7228 78.5275 81.7228 77.4255C81.7228 76.3236 80.6197 75.4303 79.259 75.4303C77.8983 75.4303 76.7953 76.3236 76.7953 77.4255C76.7953 78.5275 77.8983 79.4207 79.259 79.4207Z" fill="#35323E"/>
<path d="M86.1966 79.8584C87.5573 79.8584 88.6603 78.9651 88.6603 77.8632C88.6603 76.7613 87.5573 75.868 86.1966 75.868C84.8359 75.868 83.7328 76.7613 83.7328 77.8632C83.7328 78.9651 84.8359 79.8584 86.1966 79.8584Z" fill="#35323E"/>
<path opacity="0.1" d="M86.1966 79.8584C87.5573 79.8584 88.6603 78.9651 88.6603 77.8632C88.6603 76.7613 87.5573 75.868 86.1966 75.868C84.8359 75.868 83.7328 76.7613 83.7328 77.8632C83.7328 78.9651 84.8359 79.8584 86.1966 79.8584Z" fill="black"/>
<path d="M86.1966 79.4207C87.5573 79.4207 88.6603 78.5275 88.6603 77.4255C88.6603 76.3236 87.5573 75.4303 86.1966 75.4303C84.8359 75.4303 83.7328 76.3236 83.7328 77.4255C83.7328 78.5275 84.8359 79.4207 86.1966 79.4207Z" fill="#35323E"/>
<path d="M22.7997 72.8993C24.1604 72.8993 25.2635 72.0061 25.2635 70.9041C25.2635 69.8022 24.1604 68.9089 22.7997 68.9089C21.439 68.9089 20.3359 69.8022 20.3359 70.9041C20.3359 72.0061 21.439 72.8993 22.7997 72.8993Z" fill="#35323E"/>
<path opacity="0.1" d="M22.7997 72.8993C24.1604 72.8993 25.2635 72.0061 25.2635 70.9041C25.2635 69.8022 24.1604 68.9089 22.7997 68.9089C21.439 68.9089 20.3359 69.8022 20.3359 70.9041C20.3359 72.0061 21.439 72.8993 22.7997 72.8993Z" fill="black"/>
<path d="M22.7997 72.4617C24.1604 72.4617 25.2635 71.5684 25.2635 70.4665C25.2635 69.3646 24.1604 68.4713 22.7997 68.4713C21.439 68.4713 20.3359 69.3646 20.3359 70.4665C20.3359 71.5684 21.439 72.4617 22.7997 72.4617Z" fill="#35323E"/>
<path d="M29.7389 72.8993C31.0996 72.8993 32.2026 72.0061 32.2026 70.9041C32.2026 69.8022 31.0996 68.9089 29.7389 68.9089C28.3782 68.9089 27.2751 69.8022 27.2751 70.9041C27.2751 72.0061 28.3782 72.8993 29.7389 72.8993Z" fill="#35323E"/>
<path opacity="0.1" d="M29.7389 72.8993C31.0996 72.8993 32.2026 72.0061 32.2026 70.9041C32.2026 69.8022 31.0996 68.9089 29.7389 68.9089C28.3782 68.9089 27.2751 69.8022 27.2751 70.9041C27.2751 72.0061 28.3782 72.8993 29.7389 72.8993Z" fill="black"/>
<path d="M29.7389 72.4617C31.0996 72.4617 32.2026 71.5684 32.2026 70.4665C32.2026 69.3646 31.0996 68.4713 29.7389 68.4713C28.3782 68.4713 27.2751 69.3646 27.2751 70.4665C27.2751 71.5684 28.3782 72.4617 29.7389 72.4617Z" fill="#35323E"/>
<path d="M36.4253 72.8993C37.786 72.8993 38.8891 72.0061 38.8891 70.9041C38.8891 69.8022 37.786 68.9089 36.4253 68.9089C35.0646 68.9089 33.9615 69.8022 33.9615 70.9041C33.9615 72.0061 35.0646 72.8993 36.4253 72.8993Z" fill="#35323E"/>
<path opacity="0.1" d="M36.4253 72.8993C37.786 72.8993 38.8891 72.0061 38.8891 70.9041C38.8891 69.8022 37.786 68.9089 36.4253 68.9089C35.0646 68.9089 33.9615 69.8022 33.9615 70.9041C33.9615 72.0061 35.0646 72.8993 36.4253 72.8993Z" fill="black"/>
<path d="M36.4253 72.4617C37.786 72.4617 38.8891 71.5684 38.8891 70.4665C38.8891 69.3646 37.786 68.4713 36.4253 68.4713C35.0646 68.4713 33.9615 69.3646 33.9615 70.4665C33.9615 71.5684 35.0646 72.4617 36.4253 72.4617Z" fill="#35323E"/>
<path d="M43.1118 72.8993C44.4725 72.8993 45.5756 72.0061 45.5756 70.9041C45.5756 69.8022 44.4725 68.9089 43.1118 68.9089C41.7511 68.9089 40.648 69.8022 40.648 70.9041C40.648 72.0061 41.7511 72.8993 43.1118 72.8993Z" fill="#35323E"/>
<path opacity="0.1" d="M43.1118 72.8993C44.4725 72.8993 45.5756 72.0061 45.5756 70.9041C45.5756 69.8022 44.4725 68.9089 43.1118 68.9089C41.7511 68.9089 40.648 69.8022 40.648 70.9041C40.648 72.0061 41.7511 72.8993 43.1118 72.8993Z" fill="black"/>
<path d="M43.1118 72.4617C44.4725 72.4617 45.5756 71.5684 45.5756 70.4665C45.5756 69.3646 44.4725 68.4713 43.1118 68.4713C41.7511 68.4713 40.648 69.3646 40.648 70.4665C40.648 71.5684 41.7511 72.4617 43.1118 72.4617Z" fill="#35323E"/>
<path d="M49.8482 72.8993C51.2089 72.8993 52.312 72.0061 52.312 70.9041C52.312 69.8022 51.2089 68.9089 49.8482 68.9089C48.4875 68.9089 47.3844 69.8022 47.3844 70.9041C47.3844 72.0061 48.4875 72.8993 49.8482 72.8993Z" fill="#35323E"/>
<path opacity="0.1" d="M49.8482 72.8993C51.2089 72.8993 52.312 72.0061 52.312 70.9041C52.312 69.8022 51.2089 68.9089 49.8482 68.9089C48.4875 68.9089 47.3844 69.8022 47.3844 70.9041C47.3844 72.0061 48.4875 72.8993 49.8482 72.8993Z" fill="black"/>
<path d="M49.8482 72.4617C51.2089 72.4617 52.312 71.5684 52.312 70.4665C52.312 69.3646 51.2089 68.4713 49.8482 68.4713C48.4875 68.4713 47.3844 69.3646 47.3844 70.4665C47.3844 71.5684 48.4875 72.4617 49.8482 72.4617Z" fill="#35323E"/>
<path d="M56.4848 72.8993C57.8455 72.8993 58.9486 72.0061 58.9486 70.9041C58.9486 69.8022 57.8455 68.9089 56.4848 68.9089C55.1241 68.9089 54.021 69.8022 54.021 70.9041C54.021 72.0061 55.1241 72.8993 56.4848 72.8993Z" fill="#35323E"/>
<path opacity="0.1" d="M56.4848 72.8993C57.8455 72.8993 58.9486 72.0061 58.9486 70.9041C58.9486 69.8022 57.8455 68.9089 56.4848 68.9089C55.1241 68.9089 54.021 69.8022 54.021 70.9041C54.021 72.0061 55.1241 72.8993 56.4848 72.8993Z" fill="black"/>
<path d="M56.4848 72.4617C57.8455 72.4617 58.9486 71.5684 58.9486 70.4665C58.9486 69.3646 57.8455 68.4713 56.4848 68.4713C55.1241 68.4713 54.021 69.3646 54.021 70.4665C54.021 71.5684 55.1241 72.4617 56.4848 72.4617Z" fill="#35323E"/>
<path d="M63.5221 72.8993C64.8828 72.8993 65.9858 72.0061 65.9858 70.9041C65.9858 69.8022 64.8828 68.9089 63.5221 68.9089C62.1614 68.9089 61.0583 69.8022 61.0583 70.9041C61.0583 72.0061 62.1614 72.8993 63.5221 72.8993Z" fill="#35323E"/>
<path opacity="0.1" d="M63.5221 72.8993C64.8828 72.8993 65.9858 72.0061 65.9858 70.9041C65.9858 69.8022 64.8828 68.9089 63.5221 68.9089C62.1614 68.9089 61.0583 69.8022 61.0583 70.9041C61.0583 72.0061 62.1614 72.8993 63.5221 72.8993Z" fill="black"/>
<path d="M63.5221 72.4617C64.8828 72.4617 65.9858 71.5684 65.9858 70.4665C65.9858 69.3646 64.8828 68.4713 63.5221 68.4713C62.1614 68.4713 61.0583 69.3646 61.0583 70.4665C61.0583 71.5684 62.1614 72.4617 63.5221 72.4617Z" fill="#35323E"/>
<path d="M70.1587 72.8993C71.5194 72.8993 72.6224 72.0061 72.6224 70.9041C72.6224 69.8022 71.5194 68.9089 70.1587 68.9089C68.798 68.9089 67.6949 69.8022 67.6949 70.9041C67.6949 72.0061 68.798 72.8993 70.1587 72.8993Z" fill="#35323E"/>
<path opacity="0.1" d="M70.1587 72.8993C71.5194 72.8993 72.6224 72.0061 72.6224 70.9041C72.6224 69.8022 71.5194 68.9089 70.1587 68.9089C68.798 68.9089 67.6949 69.8022 67.6949 70.9041C67.6949 72.0061 68.798 72.8993 70.1587 72.8993Z" fill="black"/>
<path d="M70.1587 72.4617C71.5194 72.4617 72.6224 71.5684 72.6224 70.4665C72.6224 69.3646 71.5194 68.4713 70.1587 68.4713C68.798 68.4713 67.6949 69.3646 67.6949 70.4665C67.6949 71.5684 68.798 72.4617 70.1587 72.4617Z" fill="#35323E"/>
<path d="M77.2475 72.8993C78.6082 72.8993 79.7112 72.0061 79.7112 70.9041C79.7112 69.8022 78.6082 68.9089 77.2475 68.9089C75.8868 68.9089 74.7837 69.8022 74.7837 70.9041C74.7837 72.0061 75.8868 72.8993 77.2475 72.8993Z" fill="#35323E"/>
<path opacity="0.1" d="M77.2475 72.8993C78.6082 72.8993 79.7112 72.0061 79.7112 70.9041C79.7112 69.8022 78.6082 68.9089 77.2475 68.9089C75.8868 68.9089 74.7837 69.8022 74.7837 70.9041C74.7837 72.0061 75.8868 72.8993 77.2475 72.8993Z" fill="black"/>
<path d="M77.2475 72.4617C78.6082 72.4617 79.7112 71.5684 79.7112 70.4665C79.7112 69.3646 78.6082 68.4713 77.2475 68.4713C75.8868 68.4713 74.7837 69.3646 74.7837 70.4665C74.7837 71.5684 75.8868 72.4617 77.2475 72.4617Z" fill="#35323E"/>
<path d="M84.185 72.8993C85.5457 72.8993 86.6487 72.0061 86.6487 70.9041C86.6487 69.8022 85.5457 68.9089 84.185 68.9089C82.8243 68.9089 81.7212 69.8022 81.7212 70.9041C81.7212 72.0061 82.8243 72.8993 84.185 72.8993Z" fill="#35323E"/>
<path opacity="0.1" d="M84.185 72.8993C85.5457 72.8993 86.6487 72.0061 86.6487 70.9041C86.6487 69.8022 85.5457 68.9089 84.185 68.9089C82.8243 68.9089 81.7212 69.8022 81.7212 70.9041C81.7212 72.0061 82.8243 72.8993 84.185 72.8993Z" fill="black"/>
<path d="M84.185 72.4617C85.5457 72.4617 86.6487 71.5684 86.6487 70.4665C86.6487 69.3646 85.5457 68.4713 84.185 68.4713C82.8243 68.4713 81.7212 69.3646 81.7212 70.4665C81.7212 71.5684 82.8243 72.4617 84.185 72.4617Z" fill="#35323E"/>
<path d="M19.3817 65.9403C20.7424 65.9403 21.8454 65.047 21.8454 63.9451C21.8454 62.8432 20.7424 61.9499 19.3817 61.9499C18.0209 61.9499 16.9179 62.8432 16.9179 63.9451C16.9179 65.047 18.0209 65.9403 19.3817 65.9403Z" fill="#35323E"/>
<path opacity="0.1" d="M19.3817 65.9403C20.7424 65.9403 21.8454 65.047 21.8454 63.9451C21.8454 62.8432 20.7424 61.9499 19.3817 61.9499C18.0209 61.9499 16.9179 62.8432 16.9179 63.9451C16.9179 65.047 18.0209 65.9403 19.3817 65.9403Z" fill="black"/>
<path d="M19.3817 65.5026C20.7424 65.5026 21.8454 64.6093 21.8454 63.5074C21.8454 62.4055 20.7424 61.5122 19.3817 61.5122C18.0209 61.5122 16.9179 62.4055 16.9179 63.5074C16.9179 64.6093 18.0209 65.5026 19.3817 65.5026Z" fill="#35323E"/>
<path d="M26.2194 65.9403C27.5801 65.9403 28.6832 65.047 28.6832 63.9451C28.6832 62.8432 27.5801 61.9499 26.2194 61.9499C24.8587 61.9499 23.7556 62.8432 23.7556 63.9451C23.7556 65.047 24.8587 65.9403 26.2194 65.9403Z" fill="#35323E"/>
<path opacity="0.1" d="M26.2194 65.9403C27.5801 65.9403 28.6832 65.047 28.6832 63.9451C28.6832 62.8432 27.5801 61.9499 26.2194 61.9499C24.8587 61.9499 23.7556 62.8432 23.7556 63.9451C23.7556 65.047 24.8587 65.9403 26.2194 65.9403Z" fill="black"/>
<path d="M26.2194 65.5026C27.5801 65.5026 28.6832 64.6093 28.6832 63.5074C28.6832 62.4055 27.5801 61.5122 26.2194 61.5122C24.8587 61.5122 23.7556 62.4055 23.7556 63.5074C23.7556 64.6093 24.8587 65.5026 26.2194 65.5026Z" fill="#35323E"/>
<path d="M32.8045 65.9403C34.1652 65.9403 35.2683 65.047 35.2683 63.9451C35.2683 62.8432 34.1652 61.9499 32.8045 61.9499C31.4438 61.9499 30.3407 62.8432 30.3407 63.9451C30.3407 65.047 31.4438 65.9403 32.8045 65.9403Z" fill="#35323E"/>
<path opacity="0.1" d="M32.8045 65.9403C34.1652 65.9403 35.2683 65.047 35.2683 63.9451C35.2683 62.8432 34.1652 61.9499 32.8045 61.9499C31.4438 61.9499 30.3407 62.8432 30.3407 63.9451C30.3407 65.047 31.4438 65.9403 32.8045 65.9403Z" fill="black"/>
<path d="M32.8045 65.5026C34.1652 65.5026 35.2683 64.6093 35.2683 63.5074C35.2683 62.4055 34.1652 61.5122 32.8045 61.5122C31.4438 61.5122 30.3407 62.4055 30.3407 63.5074C30.3407 64.6093 31.4438 65.5026 32.8045 65.5026Z" fill="#35323E"/>
<path d="M39.5924 65.9403C40.9531 65.9403 42.0562 65.047 42.0562 63.9451C42.0562 62.8432 40.9531 61.9499 39.5924 61.9499C38.2317 61.9499 37.1286 62.8432 37.1286 63.9451C37.1286 65.047 38.2317 65.9403 39.5924 65.9403Z" fill="#35323E"/>
<path opacity="0.1" d="M39.5924 65.9403C40.9531 65.9403 42.0562 65.047 42.0562 63.9451C42.0562 62.8432 40.9531 61.9499 39.5924 61.9499C38.2317 61.9499 37.1286 62.8432 37.1286 63.9451C37.1286 65.047 38.2317 65.9403 39.5924 65.9403Z" fill="black"/>
<path d="M39.5924 65.5026C40.9531 65.5026 42.0562 64.6093 42.0562 63.5074C42.0562 62.4055 40.9531 61.5122 39.5924 61.5122C38.2317 61.5122 37.1286 62.4055 37.1286 63.5074C37.1286 64.6093 38.2317 65.5026 39.5924 65.5026Z" fill="#35323E"/>
<path d="M46.2788 65.9403C47.6395 65.9403 48.7426 65.047 48.7426 63.9451C48.7426 62.8432 47.6395 61.9499 46.2788 61.9499C44.9181 61.9499 43.8151 62.8432 43.8151 63.9451C43.8151 65.047 44.9181 65.9403 46.2788 65.9403Z" fill="#35323E"/>
<path opacity="0.1" d="M46.2788 65.9403C47.6395 65.9403 48.7426 65.047 48.7426 63.9451C48.7426 62.8432 47.6395 61.9499 46.2788 61.9499C44.9181 61.9499 43.8151 62.8432 43.8151 63.9451C43.8151 65.047 44.9181 65.9403 46.2788 65.9403Z" fill="black"/>
<path d="M46.2788 65.5026C47.6395 65.5026 48.7426 64.6093 48.7426 63.5074C48.7426 62.4055 47.6395 61.5122 46.2788 61.5122C44.9181 61.5122 43.8151 62.4055 43.8151 63.5074C43.8151 64.6093 44.9181 65.5026 46.2788 65.5026Z" fill="#35323E"/>
<path d="M53.1166 65.9403C54.4773 65.9403 55.5804 65.047 55.5804 63.9451C55.5804 62.8432 54.4773 61.9499 53.1166 61.9499C51.7559 61.9499 50.6528 62.8432 50.6528 63.9451C50.6528 65.047 51.7559 65.9403 53.1166 65.9403Z" fill="#35323E"/>
<path opacity="0.1" d="M53.1166 65.9403C54.4773 65.9403 55.5804 65.047 55.5804 63.9451C55.5804 62.8432 54.4773 61.9499 53.1166 61.9499C51.7559 61.9499 50.6528 62.8432 50.6528 63.9451C50.6528 65.047 51.7559 65.9403 53.1166 65.9403Z" fill="black"/>
<path d="M53.1166 65.5026C54.4773 65.5026 55.5804 64.6093 55.5804 63.5074C55.5804 62.4055 54.4773 61.5122 53.1166 61.5122C51.7559 61.5122 50.6528 62.4055 50.6528 63.5074C50.6528 64.6093 51.7559 65.5026 53.1166 65.5026Z" fill="#35323E"/>
<path d="M59.8031 65.9403C61.1638 65.9403 62.2668 65.047 62.2668 63.9451C62.2668 62.8432 61.1638 61.9499 59.8031 61.9499C58.4424 61.9499 57.3393 62.8432 57.3393 63.9451C57.3393 65.047 58.4424 65.9403 59.8031 65.9403Z" fill="#35323E"/>
<path opacity="0.1" d="M59.8031 65.9403C61.1638 65.9403 62.2668 65.047 62.2668 63.9451C62.2668 62.8432 61.1638 61.9499 59.8031 61.9499C58.4424 61.9499 57.3393 62.8432 57.3393 63.9451C57.3393 65.047 58.4424 65.9403 59.8031 65.9403Z" fill="black"/>
<path d="M59.8031 65.5026C61.1638 65.5026 62.2668 64.6093 62.2668 63.5074C62.2668 62.4055 61.1638 61.5122 59.8031 61.5122C58.4424 61.5122 57.3393 62.4055 57.3393 63.5074C57.3393 64.6093 58.4424 65.5026 59.8031 65.5026Z" fill="#35323E"/>
<path d="M66.5893 65.9403C67.95 65.9403 69.0531 65.047 69.0531 63.9451C69.0531 62.8432 67.95 61.9499 66.5893 61.9499C65.2286 61.9499 64.1255 62.8432 64.1255 63.9451C64.1255 65.047 65.2286 65.9403 66.5893 65.9403Z" fill="#35323E"/>
<path opacity="0.1" d="M66.5893 65.9403C67.95 65.9403 69.0531 65.047 69.0531 63.9451C69.0531 62.8432 67.95 61.9499 66.5893 61.9499C65.2286 61.9499 64.1255 62.8432 64.1255 63.9451C64.1255 65.047 65.2286 65.9403 66.5893 65.9403Z" fill="black"/>
<path d="M66.5893 65.5026C67.95 65.5026 69.0531 64.6093 69.0531 63.5074C69.0531 62.4055 67.95 61.5122 66.5893 61.5122C65.2286 61.5122 64.1255 62.4055 64.1255 63.5074C64.1255 64.6093 65.2286 65.5026 66.5893 65.5026Z" fill="#35323E"/>
<path d="M73.5783 65.9403C74.939 65.9403 76.0421 65.047 76.0421 63.9451C76.0421 62.8432 74.939 61.9499 73.5783 61.9499C72.2176 61.9499 71.1146 62.8432 71.1146 63.9451C71.1146 65.047 72.2176 65.9403 73.5783 65.9403Z" fill="#35323E"/>
<path opacity="0.1" d="M73.5783 65.9403C74.939 65.9403 76.0421 65.047 76.0421 63.9451C76.0421 62.8432 74.939 61.9499 73.5783 61.9499C72.2176 61.9499 71.1146 62.8432 71.1146 63.9451C71.1146 65.047 72.2176 65.9403 73.5783 65.9403Z" fill="black"/>
<path d="M73.5783 65.5026C74.939 65.5026 76.0421 64.6093 76.0421 63.5074C76.0421 62.4055 74.939 61.5122 73.5783 61.5122C72.2176 61.5122 71.1146 62.4055 71.1146 63.5074C71.1146 64.6093 72.2176 65.5026 73.5783 65.5026Z" fill="#35323E"/>
<path d="M80.4145 65.9403C81.7752 65.9403 82.8782 65.047 82.8782 63.9451C82.8782 62.8432 81.7752 61.9499 80.4145 61.9499C79.0538 61.9499 77.9507 62.8432 77.9507 63.9451C77.9507 65.047 79.0538 65.9403 80.4145 65.9403Z" fill="#35323E"/>
<path opacity="0.1" d="M80.4145 65.9403C81.7752 65.9403 82.8782 65.047 82.8782 63.9451C82.8782 62.8432 81.7752 61.9499 80.4145 61.9499C79.0538 61.9499 77.9507 62.8432 77.9507 63.9451C77.9507 65.047 79.0538 65.9403 80.4145 65.9403Z" fill="black"/>
<path d="M80.4145 65.5026C81.7752 65.5026 82.8782 64.6093 82.8782 63.5074C82.8782 62.4055 81.7752 61.5122 80.4145 61.5122C79.0538 61.5122 77.9507 62.4055 77.9507 63.5074C77.9507 64.6093 79.0538 65.5026 80.4145 65.5026Z" fill="#35323E"/>
<path d="M87.101 65.9403C88.4617 65.9403 89.5648 65.047 89.5648 63.9451C89.5648 62.8432 88.4617 61.9499 87.101 61.9499C85.7403 61.9499 84.6372 62.8432 84.6372 63.9451C84.6372 65.047 85.7403 65.9403 87.101 65.9403Z" fill="#6C63FF"/>
<path opacity="0.1" d="M87.101 65.9403C88.4617 65.9403 89.5648 65.047 89.5648 63.9451C89.5648 62.8432 88.4617 61.9499 87.101 61.9499C85.7403 61.9499 84.6372 62.8432 84.6372 63.9451C84.6372 65.047 85.7403 65.9403 87.101 65.9403Z" fill="black"/>
<path d="M87.101 65.5026C88.4617 65.5026 89.5648 64.6093 89.5648 63.5074C89.5648 62.4055 88.4617 61.5122 87.101 61.5122C85.7403 61.5122 84.6372 62.4055 84.6372 63.5074C84.6372 64.6093 85.7403 65.5026 87.101 65.5026Z" fill="#6C63FF"/>
<path d="M86.7485 89.4933H14.4058C13.5997 89.4933 12.9462 90.1258 12.9462 90.906V91.9246C12.9462 92.7048 13.5997 93.3373 14.4058 93.3373H86.7485C87.5546 93.3373 88.2081 92.7048 88.2081 91.9246V90.906C88.2081 90.1258 87.5546 89.4933 86.7485 89.4933Z" fill="#35323E"/>
<path opacity="0.1" d="M86.7485 89.4933H14.4058C13.5997 89.4933 12.9462 90.1258 12.9462 90.906V91.9246C12.9462 92.7048 13.5997 93.3373 14.4058 93.3373H86.7485C87.5546 93.3373 88.2081 92.7048 88.2081 91.9246V90.906C88.2081 90.1258 87.5546 89.4933 86.7485 89.4933Z" fill="black"/>
<path d="M86.7485 89.2005H14.4058C13.5997 89.2005 12.9462 89.833 12.9462 90.6132V91.6318C12.9462 92.412 13.5997 93.0445 14.4058 93.0445H86.7485C87.5546 93.0445 88.2081 92.412 88.2081 91.6318V90.6132C88.2081 89.833 87.5546 89.2005 86.7485 89.2005Z" fill="#35323E"/>
<path opacity="0.1" d="M77.9523 43.6535C77.9523 47.7654 64.5053 52.1686 49.3445 52.1686C34.1836 52.1686 22.9526 47.4243 22.9526 43.3124C22.9526 39.2005 34.1869 37.2785 49.3445 37.2785C64.5021 37.2785 77.9523 39.5416 77.9523 43.6535Z" fill="black"/>
<path d="M91.2738 31.5857C92.1901 31.5857 92.9329 29.8103 92.9329 27.6202C92.9329 25.4302 92.1901 23.6548 91.2738 23.6548C90.3574 23.6548 89.6146 25.4302 89.6146 27.6202C89.6146 29.8103 90.3574 31.5857 91.2738 31.5857Z" fill="#464353"/>
<path d="M10.0302 31.5857C10.9466 31.5857 11.6894 29.8103 11.6894 27.6202C11.6894 25.4302 10.9466 23.6548 10.0302 23.6548C9.11392 23.6548 8.37109 25.4302 8.37109 27.6202C8.37109 29.8103 9.11392 31.5857 10.0302 31.5857Z" fill="#464353"/>
<path opacity="0.1" d="M91.2738 26.6717H11.2372V27.8399H91.2738V26.6717Z" fill="black"/>
<path d="M91.2738 26.477H11.2372V27.6452H91.2738V26.477Z" fill="#464353"/>
<path d="M52.5115 27.9364C51.8566 27.7417 50.6512 31.5857 50.6512 31.5857H54.3203C54.3203 31.5857 53.1665 28.1311 52.5115 27.9364ZM52.46 28.4224C52.5298 28.4221 52.5981 28.4418 52.6563 28.4791C52.7144 28.5164 52.7598 28.5696 52.7868 28.6319C52.8137 28.6942 52.8209 28.7628 52.8075 28.8291C52.7941 28.8953 52.7606 28.9563 52.7114 29.0041C52.6622 29.052 52.5994 29.0846 52.531 29.0979C52.4626 29.1112 52.3916 29.1045 52.3271 29.0788C52.2626 29.053 52.2075 29.0093 52.1687 28.9531C52.1299 28.897 52.1092 28.831 52.1092 28.7635C52.1092 28.7187 52.1183 28.6743 52.136 28.6329C52.1537 28.5916 52.1797 28.554 52.2124 28.5223C52.2452 28.4906 52.284 28.4655 52.3268 28.4483C52.3695 28.4312 52.4154 28.4224 52.4616 28.4224H52.46ZM52.5019 29.522C52.9315 29.6232 53.6927 31.4393 53.6927 31.4393H51.2788C51.2788 31.4393 52.0738 29.4192 52.5115 29.522H52.5019Z" fill="#464353"/>
<path opacity="0.03" d="M97.1363 57.4704H3.47733C3.61465 56.2015 3.77558 54.9353 3.9601 53.6716L6.32733 37.71C6.62869 35.7119 7.6627 33.8854 9.24048 32.5643C10.8183 31.2431 12.8345 30.5154 14.9208 30.5141H18.5159C20.3402 30.5203 22.1135 31.0979 23.5706 32.1605C27.2944 34.8503 37.8737 36.791 50.3454 36.791C62.8172 36.791 73.4013 34.8566 77.1332 32.1605C78.5902 31.0979 80.3635 30.5203 82.1879 30.5141H88.0118C89.2359 30.5141 90.421 30.9317 91.3586 31.6933C92.2963 32.455 92.9266 33.5121 93.1389 34.679L96.3172 52.1234C96.6391 53.9031 96.9121 55.6855 97.1363 57.4704Z" fill="white"/>
<path opacity="0.1" d="M14.5474 30.1497C14.5438 30.1588 14.5395 30.1676 14.5346 30.1762C14.5644 30.2297 14.5972 30.2817 14.6327 30.3319L16.0521 29.9098C16.0521 29.9098 15.97 29.5983 15.8461 29.2307C15.2845 29.075 14.4799 30.0298 14.4799 30.0298L14.5474 30.1497Z" fill="black"/>
<path opacity="0.1" d="M12.4812 23.8915C12.8896 23.8421 13.2911 23.7491 13.6784 23.6143C13.6784 23.6143 13.9794 23.5504 14.4268 23.4056C14.4139 23.2498 14.4042 23.0847 14.4026 22.89C14.3734 22.3317 14.2986 21.7765 14.1789 21.2297L12.523 21.5209L12.4795 23.3105C12.4309 23.5014 12.4314 23.7009 12.4812 23.8915V23.8915Z" fill="black"/>
<path opacity="0.1" d="M20.0495 1.09074L20.3166 2.13585L20.6642 1.93337C20.587 1.46611 20.4679 1.02533 20.3585 0.924088L20.0495 1.09074Z" fill="black"/>
<path opacity="0.1" d="M20.0463 0.920974C20.0734 0.916214 20.1012 0.916214 20.1284 0.920974C20.3842 0.997293 20.7174 3.14046 20.4502 3.33671C20.3184 3.43359 20.1644 3.49824 20.0012 3.52517H19.9626L19.8773 2.81026C19.8555 2.82178 19.8345 2.83479 19.8146 2.8492V2.81961C19.8813 2.54563 19.8833 2.26059 19.8203 1.98577C19.7574 1.71095 19.6311 1.45344 19.4509 1.23248L20.0463 0.920974Z" fill="black"/>
<path d="M19.8805 2.82116L19.9658 3.53607C20.1664 3.52308 20.3588 3.45381 20.5194 3.33671C20.7833 3.14046 20.4502 1.0004 20.1976 0.920967C19.9948 0.860223 19.6391 1.10476 19.4975 1.20911C19.6858 1.43088 19.8183 1.69187 19.8848 1.97157C19.9512 2.25128 19.9498 2.54209 19.8805 2.82116V2.82116Z" fill="#444053"/>
<path d="M18.26 0.15155L18.5127 6.59196L25.8316 0.15155H18.26Z" fill="white"/>
<path opacity="0.03" d="M18.26 0.15155L18.5127 6.59196L25.8316 0.15155H18.26Z" fill="black"/>
<path opacity="0.03" d="M18.326 0.149994C18.326 0.149994 19.4315 29.2494 17.4715 32.6558H83.7312C83.7312 32.6558 80.9166 10.2724 83.7312 0.149994H18.326Z" fill="#9B2F90"/>
</svg>
