<svg width="500" height="500" viewBox="0 0 500 500" fill="none" xmlns="http://www.w3.org/2000/svg">
<g clip-path="url(#clip0)">
<path d="M279.413 118.819H276.334V43.5585C276.334 32.0061 271.191 20.9268 262.036 12.758C252.881 4.5892 240.464 -6.81877e-07 227.517 -1.52587e-05H48.8174C42.4067 -2.9694e-05 36.0586 1.12663 30.1358 3.31564C24.213 5.50465 18.8314 8.71313 14.2983 12.7579C9.76517 16.8027 6.1693 21.6045 3.71598 26.8893C1.26267 32.174 -4.68792e-05 37.8382 -6.10351e-05 43.5584V456.441C-6.7102e-05 462.162 1.26261 467.826 3.71591 473.111C6.16921 478.395 9.76509 483.197 14.2982 487.242C18.8313 491.287 24.2129 494.495 30.1357 496.684C36.0585 498.873 42.4065 500 48.8173 500H227.517C240.464 500 252.881 495.411 262.036 487.242C271.191 479.073 276.334 467.994 276.334 456.442V172.39H279.413V118.819Z" fill="black"/>
<path d="M229.486 11.3324H206.16C207.233 13.6791 207.642 16.2251 207.353 18.7462C207.063 21.2673 206.083 23.6861 204.498 25.7895C202.914 27.8929 200.774 29.6165 198.268 30.8082C195.761 32 192.964 32.6234 190.124 32.6236H87.7495C84.9092 32.6234 82.1125 32 79.6059 30.8082C77.0992 29.6165 74.9595 27.8929 73.3752 25.7895C71.7909 23.686 70.8107 21.2672 70.5209 18.7461C70.2311 16.225 70.6405 13.679 71.7133 11.3324H49.9266C40.2578 11.3324 30.985 14.7595 24.1481 20.8599C17.3112 26.9603 13.4703 35.2341 13.4703 43.8614V456.139C13.4703 464.766 17.3112 473.04 24.1481 479.14C30.9849 485.241 40.2577 488.668 49.9265 488.668H229.486C234.274 488.668 239.015 487.826 243.438 486.192C247.861 484.557 251.88 482.161 255.265 479.14C258.65 476.12 261.336 472.534 263.168 468.587C265 464.64 265.943 460.41 265.943 456.139V43.8614C265.943 39.5896 265 35.3597 263.168 31.4131C261.336 27.4665 258.65 23.8805 255.265 20.8599C251.88 17.8393 247.861 15.4433 243.438 13.8085C239.015 12.1738 234.274 11.3324 229.486 11.3324Z" fill="#515063"/>
<path d="M251.126 335.143H35.8285C34.7714 335.142 33.7581 334.766 33.0106 334.099C32.2632 333.433 31.8428 332.528 31.8416 331.585V283.933C31.8428 282.989 32.2632 282.085 33.0106 281.418C33.7581 280.751 34.7714 280.376 35.8285 280.375H251.126C252.183 280.376 253.196 280.751 253.944 281.418C254.691 282.085 255.112 282.989 255.113 283.933V331.586C255.112 332.529 254.691 333.433 253.944 334.1C253.196 334.766 252.183 335.142 251.126 335.143ZM35.8285 281.798C35.1942 281.799 34.586 282.024 34.1375 282.424C33.689 282.824 33.4368 283.367 33.4362 283.933V331.586C33.4368 332.152 33.689 332.694 34.1375 333.095C34.586 333.495 35.1942 333.72 35.8285 333.72H251.126C251.76 333.72 252.368 333.495 252.817 333.095C253.265 332.694 253.518 332.152 253.518 331.586V283.933C253.518 283.367 253.265 282.824 252.817 282.424C252.368 282.024 251.76 281.799 251.126 281.798H35.8285Z" fill="#908FD3"/>
<path d="M63.7367 322.7C72.9849 322.7 80.482 316.01 80.482 307.759C80.482 299.507 72.9849 292.817 63.7367 292.817C54.4886 292.817 46.9915 299.507 46.9915 307.759C46.9915 316.01 54.4886 322.7 63.7367 322.7Z" fill="#908FD3"/>
<path d="M102.411 297.798C101.679 297.809 100.98 298.076 100.467 298.542C99.9536 299.008 99.6658 299.635 99.6658 300.288C99.6658 300.942 99.9536 301.569 100.467 302.035C100.98 302.5 101.679 302.768 102.411 302.778H233.981C234.721 302.791 235.437 302.541 235.97 302.083C236.504 301.625 236.811 300.997 236.826 300.336C236.84 299.676 236.56 299.038 236.046 298.562C235.533 298.086 234.829 297.811 234.089 297.798L234.073 297.798C234.042 297.798 234.012 297.798 233.981 297.798H102.411Z" fill="#908FD3"/>
<path d="M102.411 312.739C101.679 312.75 100.98 313.017 100.467 313.483C99.9536 313.949 99.6658 314.576 99.6658 315.23C99.6658 315.883 99.9536 316.51 100.467 316.976C100.98 317.442 101.679 317.709 102.411 317.72H233.981C234.72 317.729 235.433 317.476 235.963 317.017C236.494 316.558 236.799 315.93 236.811 315.27C236.823 314.611 236.541 313.974 236.028 313.5C235.515 313.025 234.812 312.752 234.073 312.739C234.042 312.739 234.012 312.739 233.981 312.739H102.411Z" fill="#908FD3"/>
<path d="M251.126 414.83H35.8285C34.7714 414.829 33.7581 414.454 33.0106 413.787C32.2632 413.12 31.8428 412.216 31.8416 411.273V363.62C31.8428 362.677 32.2632 361.773 33.0106 361.106C33.7581 360.439 34.7714 360.064 35.8285 360.063H251.126C252.183 360.064 253.196 360.439 253.944 361.106C254.691 361.773 255.112 362.677 255.113 363.62V411.274C255.112 412.217 254.691 413.121 253.944 413.787C253.196 414.454 252.183 414.829 251.126 414.83ZM35.8285 361.486C35.1942 361.486 34.586 361.711 34.1375 362.112C33.689 362.512 33.4368 363.054 33.4362 363.62V411.274C33.4368 411.84 33.689 412.382 34.1375 412.782C34.586 413.183 35.1942 413.408 35.8285 413.408H251.126C251.76 413.408 252.368 413.183 252.817 412.782C253.265 412.382 253.518 411.84 253.518 411.274V363.62C253.518 363.054 253.265 362.512 252.817 362.112C252.368 361.711 251.76 361.486 251.126 361.486H35.8285Z" fill="#908FD3"/>
<path d="M63.7367 402.388C72.9849 402.388 80.482 395.698 80.482 387.446C80.482 379.195 72.9849 372.505 63.7367 372.505C54.4886 372.505 46.9915 379.195 46.9915 387.446C46.9915 395.698 54.4886 402.388 63.7367 402.388Z" fill="#908FD3"/>
<path d="M102.411 377.486C101.679 377.497 100.98 377.764 100.467 378.23C99.9536 378.696 99.6658 379.323 99.6658 379.976C99.6658 380.629 99.9536 381.257 100.467 381.722C100.98 382.188 101.679 382.455 102.411 382.466H233.981C234.72 382.475 235.433 382.223 235.963 381.763C236.494 381.304 236.799 380.676 236.811 380.017C236.823 379.357 236.541 378.721 236.028 378.246C235.515 377.772 234.812 377.498 234.073 377.486C234.042 377.485 234.012 377.485 233.981 377.486H102.411Z" fill="#908FD3"/>
<path d="M102.411 392.427C101.679 392.438 100.98 392.705 100.467 393.171C99.9536 393.637 99.6658 394.264 99.6658 394.917C99.6658 395.571 99.9536 396.198 100.467 396.664C100.98 397.13 101.679 397.397 102.411 397.408H233.981C234.72 397.417 235.433 397.164 235.963 396.705C236.494 396.246 236.799 395.617 236.811 394.958C236.823 394.299 236.541 393.662 236.028 393.188C235.515 392.713 234.812 392.44 234.073 392.427C234.042 392.427 234.012 392.427 233.981 392.427H102.411Z" fill="#908FD3"/>
<path d="M139.745 237.023C118.823 237.031 98.7552 229.514 83.9554 216.125C69.1556 202.737 60.8362 184.574 60.8275 165.632V165.573C60.8275 165.423 60.8274 165.266 60.8371 165.116C61.0777 125.987 96.4775 94.1221 139.745 94.1221C160.675 94.1199 180.749 101.646 195.55 115.044C210.352 128.442 218.668 146.614 218.671 165.564C218.673 184.514 210.361 202.688 195.563 216.089C180.765 229.49 160.693 237.02 139.763 237.022H139.745V237.023ZM139.745 95.6247C119.348 95.666 99.7939 102.993 85.3301 116.013C70.8663 129.033 62.6618 146.695 62.4991 165.161C62.4903 165.321 62.4903 165.452 62.4903 165.571C62.4884 179.406 67.0181 192.932 75.5065 204.437C83.995 215.942 96.061 224.909 110.179 230.206C124.296 235.502 139.832 236.889 154.82 234.192C169.809 231.494 183.577 224.833 194.384 215.051C205.191 205.269 212.552 192.805 215.535 179.235C218.518 165.666 216.99 151.6 211.144 138.817C205.297 126.034 195.396 115.107 182.69 107.419C169.985 99.7309 155.047 95.6264 139.766 95.6247H139.745Z" fill="#908FD3"/>
<path d="M189.094 145.653L174.094 140.653L159.094 145.653" stroke="white" stroke-width="4"/>
<path d="M171.93 158.213C170.261 158.513 168.967 159.165 167.604 160.397C166.582 161.318 165.98 162.084 165.299 163.306C164.743 164.32 164.357 165.251 164.107 166.214L163.903 166.96L157.704 166.991L151.494 167.022L150.586 167.302C148.668 167.902 149.122 167.529 137.121 178.46L126.03 188.551L125.565 189.431C124.452 191.49 124.588 193.892 125.905 195.755C126.62 196.759 140.789 209.584 141.788 210.132C143.832 211.24 146.284 211.312 148.486 210.329L149.451 209.904L160.52 199.792C168.831 192.215 171.691 189.545 171.975 189.099C172.179 188.768 172.509 188.095 172.713 187.598L173.065 186.687L173.099 179.131C173.133 171.845 173.121 171.555 172.906 170.903C172.588 169.971 171.986 169.091 171.226 168.439C170.522 167.85 168.978 167.073 168.819 167.239C168.569 167.487 168.433 168.998 168.365 172.196L168.297 175.612L167.967 176.161C167.581 176.782 167.003 177.31 166.287 177.651C165.879 177.848 165.629 177.889 164.721 177.889C163.813 177.889 163.563 177.848 163.155 177.651C162.439 177.31 161.861 176.782 161.475 176.161C161.179 175.664 161.145 175.519 161.145 174.629C161.145 173.563 161.293 173.18 161.963 172.455C162.303 172.083 163.189 171.524 163.439 171.524C163.552 171.524 163.586 171.907 163.586 173.294V175.063L163.915 175.363C164.381 175.777 165.062 175.788 165.516 175.374L165.834 175.084L165.891 171.772C165.959 168.273 166.061 167.414 166.651 165.841C167.753 162.86 169.842 160.8 172.214 160.334C174.758 159.837 177.459 161.39 179.015 164.246C181.558 168.894 180.718 175.373 177.153 178.51C176.767 178.851 176.268 179.224 176.041 179.337L175.621 179.545V180.705C175.621 181.491 175.666 181.875 175.746 181.875C176.018 181.875 177.449 181.109 178.141 180.591C182.897 177.01 184.283 169.112 181.149 163.399C180.173 161.598 178.538 159.911 176.972 159.073C175.472 158.275 173.519 157.934 171.93 158.213Z" fill="#550052"/>
<path d="M138.797 197.865C138.493 197.604 138.172 197.46 137.834 197.432C137.499 197.402 137.164 197.541 136.829 197.849L136.784 197.891L136.739 197.942C136.39 198.262 136.272 198.675 136.387 199.178C136.501 199.676 136.857 200.181 137.456 200.694L137.695 200.899C138.231 201.359 138.746 201.619 139.242 201.68C139.74 201.738 140.14 201.628 140.442 201.351L140.488 201.309C140.84 200.985 140.987 200.625 140.929 200.23C140.871 199.834 140.607 199.435 140.136 199.031C140.067 198.96 140.015 198.909 139.98 198.88L139.668 198.586L139.077 198.078L138.906 197.949C138.868 197.923 138.832 197.895 138.797 197.865ZM136.272 197.246C136.64 196.907 136.815 196.663 136.796 196.515C136.764 196.285 136.512 195.967 136.038 195.561C135.896 195.439 135.736 195.329 135.557 195.229C135.374 195.126 135.259 195.054 135.21 195.012C135.055 194.879 134.98 194.714 134.987 194.517C134.994 194.32 135.106 194.121 135.324 193.921L135.42 193.833C135.685 193.589 135.96 193.554 136.246 193.728C136.453 193.851 137.438 194.67 139.203 196.183L139.815 196.726L140.682 197.469L141.169 197.869C141.249 197.938 141.328 198.006 141.408 198.074L141.527 198.167C141.606 198.23 141.746 198.347 141.947 198.519C142.144 198.688 142.365 198.829 142.609 198.943C142.853 199.051 143.013 199.137 143.089 199.203C143.165 199.268 143.197 199.37 143.186 199.51C143.175 199.649 143.087 199.795 142.923 199.946C142.762 200.094 142.573 200.227 142.357 200.346C142.141 200.459 142.001 200.544 141.937 200.603C141.873 200.662 141.749 200.865 141.564 201.213C141.383 201.558 141.187 201.828 140.975 202.023L140.865 202.124C140.294 202.649 139.651 202.887 138.935 202.839C138.218 202.785 137.536 202.48 136.889 201.925L136.625 201.698C136.286 201.408 135.999 201.069 135.764 200.683C135.529 200.29 135.385 199.893 135.334 199.492C135.234 198.661 135.547 197.912 136.272 197.246ZM144.219 193.635C144.447 193.425 144.572 193.246 144.593 193.097C144.614 192.948 144.578 192.834 144.485 192.754L144.267 192.567C144.018 192.353 143.723 192.259 143.383 192.283C143.042 192.307 142.767 192.416 142.555 192.61L142.424 192.731C142.119 193.011 141.986 193.371 142.024 193.809C142.059 194.244 142.234 194.597 142.548 194.867L142.637 194.943C142.758 195.047 142.925 195 143.14 194.802L143.256 194.696L143.281 194.664L143.632 194.294L143.863 194.045L144.013 193.87C144.04 193.839 144.075 193.798 144.119 193.746C144.165 193.69 144.199 193.653 144.219 193.635ZM147.136 196.504L146.915 196.707C146.244 197.324 145.472 197.619 144.599 197.592C144.211 197.581 143.807 197.485 143.388 197.304C142.966 197.121 142.597 196.894 142.282 196.624L142.049 196.424C141.734 196.154 141.467 195.812 141.249 195.398C140.819 194.594 140.777 193.819 141.122 193.071C141.296 192.684 141.552 192.334 141.891 192.023L142.001 191.921C142.471 191.489 143.005 191.259 143.605 191.23C143.949 191.215 144.284 191.27 144.609 191.394C144.935 191.513 145.193 191.654 145.384 191.817C145.802 192.176 145.948 192.527 145.821 192.872C145.733 193.106 145.415 193.543 144.867 194.182C144.323 194.818 144.029 195.171 143.986 195.242C143.77 195.575 143.759 195.825 143.953 195.991C144.289 196.279 144.718 196.382 145.241 196.3C145.626 196.242 146.021 196.027 146.426 195.653C146.581 195.511 146.78 195.239 147.026 194.835C147.271 194.431 147.41 194.214 147.444 194.183C147.618 194.022 147.787 194.012 147.949 194.151C148.153 194.326 148.168 194.673 147.993 195.19C147.818 195.702 147.532 196.14 147.136 196.504ZM150.974 191.693L151.13 191.549C151.442 191.262 151.578 190.891 151.54 190.434C151.518 190.183 151.3 189.88 150.885 189.524L150.822 189.461L150.693 189.35C150.433 189.128 150.2 189.112 149.992 189.303L149.831 189.451L149.59 189.71L149.469 189.848C149.161 190.132 148.998 190.442 148.98 190.778C148.958 191.112 149.07 191.384 149.316 191.594L149.497 191.75C149.684 191.91 149.917 191.997 150.197 192.01C150.477 192.017 150.735 191.912 150.974 191.693ZM153.769 189.565C154 189.763 153.89 190.071 153.437 190.488C153.356 190.562 153.167 190.662 152.87 190.788C152.572 190.908 152.394 190.994 152.337 191.047C152.284 191.096 152.163 191.315 151.976 191.702C151.785 192.087 151.572 192.387 151.337 192.603L151.221 192.71C150.856 193.046 150.418 193.231 149.907 193.264C149.393 193.294 148.921 193.125 148.492 192.757C147.621 192.009 147.613 191.052 148.468 189.884C149.021 189.123 149.304 188.728 149.317 188.697C149.394 188.472 149.321 188.263 149.096 188.07C148.868 187.874 148.607 187.776 148.314 187.775C148.021 187.768 147.754 187.875 147.512 188.098C147.274 188.317 147.077 188.648 146.921 189.093C146.762 189.535 146.622 189.811 146.501 189.922C146.283 190.123 146.02 190.091 145.712 189.827C145.518 189.661 145.506 189.346 145.675 188.883C145.848 188.417 146.154 187.982 146.593 187.578L146.845 187.346C147.173 187.044 147.529 186.831 147.912 186.706C148.295 186.581 148.663 186.551 149.015 186.614C149.514 186.702 150.313 187.218 151.413 188.162C152.036 188.696 152.435 189.017 152.611 189.126C152.79 189.232 153.003 189.31 153.249 189.36C153.492 189.408 153.665 189.476 153.769 189.565ZM148.27 182.595C147.997 182.361 148.078 182.043 148.514 181.642L148.605 181.559C148.917 181.272 149.226 181.224 149.533 181.415L150.659 182.381L151.038 182.724L151.23 182.889L151.806 183.41L151.998 183.575L152.097 183.668C152.163 183.725 152.229 183.781 152.294 183.838L152.388 183.927C152.454 183.983 152.519 184.04 152.585 184.096L152.679 184.185L153.166 184.603L153.846 185.159C153.911 185.209 154.07 185.343 154.323 185.56C154.575 185.776 154.877 185.978 155.228 186.166C155.579 186.347 155.889 186.465 156.159 186.517C156.426 186.567 156.618 186.643 156.736 186.744C156.853 186.844 156.887 186.998 156.836 187.205C156.788 187.409 156.633 187.631 156.372 187.871L156.196 188.033C155.723 188.468 155.292 188.52 154.905 188.187C154.877 188.164 154.801 188.074 154.675 187.919C154.55 187.764 154.287 187.511 153.885 187.161L152.675 186.069L152.582 185.98C152.516 185.924 152.45 185.867 152.385 185.811L152.193 185.637C152.127 185.581 152.061 185.525 151.995 185.468L151.902 185.379C151.836 185.323 151.77 185.266 151.705 185.21L151.513 185.036C151.447 184.98 151.381 184.923 151.315 184.867L151.123 184.693L150.921 184.52L150.729 184.346L149.753 183.509C149.359 183.171 149.028 182.947 148.76 182.836C148.492 182.726 148.329 182.646 148.27 182.595ZM155.919 183.289C155.368 183.329 154.885 183.171 154.469 182.815C154.051 182.456 153.883 182.005 153.965 181.461C154.045 180.915 154.351 180.397 154.884 179.906C155.418 179.416 155.874 179.116 156.254 179.006C156.63 178.894 156.926 178.929 157.14 179.113C157.434 179.366 157.489 179.576 157.304 179.746C157.241 179.805 157 179.9 156.583 180.031C156.167 180.162 155.829 180.347 155.571 180.584C155.312 180.822 155.178 181.053 155.169 181.277C155.162 181.498 155.254 181.69 155.444 181.853C155.635 182.017 155.928 182.048 156.325 181.947C156.461 181.914 156.854 181.768 157.504 181.509C158.153 181.243 158.657 181.097 159.014 181.07C159.572 181.03 160.064 181.192 160.49 181.557C160.915 181.922 161.1 182.388 161.046 182.955C160.99 183.516 160.691 184.046 160.148 184.546C159.225 185.394 158.468 185.762 157.877 185.648C157.689 185.612 157.55 185.555 157.46 185.478C157.159 185.22 157.099 185.007 157.28 184.841C157.334 184.791 157.624 184.691 158.149 184.54C158.675 184.382 159.07 184.182 159.335 183.938C159.603 183.691 159.756 183.446 159.792 183.204C159.829 182.961 159.747 182.753 159.546 182.581C159.342 182.406 159.033 182.359 158.619 182.439C158.449 182.472 158.044 182.616 157.405 182.873C156.761 183.126 156.266 183.265 155.919 183.289Z" fill="white"/>
<path d="M83.9447 164.89C83.9343 164.89 83.9186 164.89 83.8978 164.89C82.6999 164.89 82.1009 164.479 82.1009 163.656C82.1009 163.26 82.2051 162.771 82.4134 162.187C82.6218 161.604 82.7415 161.015 82.7728 160.422C82.804 159.817 82.8197 158.896 82.8197 157.656V154.734L82.8509 153.922C82.8718 153.38 82.8822 152.995 82.8822 152.765L82.7259 151.156C82.7259 150.791 83.0488 150.609 83.6947 150.609C84.3509 150.609 85.0228 150.786 85.7103 151.14C86.3978 151.495 86.8197 151.672 86.9759 151.672C87.1426 151.672 87.4499 151.567 87.8978 151.359C88.3561 151.151 88.8926 150.927 89.5072 150.687C90.1322 150.437 90.7728 150.312 91.429 150.312H91.8353C92.6165 150.312 93.3093 150.526 93.9134 150.953C94.528 151.37 94.9707 151.953 95.2415 152.703C95.5228 153.442 95.7207 154.807 95.8353 156.797L95.8822 157.656L95.9134 158.515C95.9447 159.015 95.9811 159.557 96.0228 160.14C96.0645 160.724 96.2051 161.338 96.4447 161.984C96.6843 162.62 96.804 163.047 96.804 163.265C96.804 164.192 96.0957 164.656 94.679 164.656C94.0749 164.656 93.6322 164.536 93.3509 164.297C93.0697 164.047 92.929 163.63 92.929 163.047L92.9603 162.468C92.9603 158.416 92.6686 155.656 92.0853 154.187C91.627 153.052 90.8197 152.484 89.6634 152.484C89.1113 152.484 88.5697 152.625 88.0384 152.906C87.5176 153.177 87.1113 153.62 86.8197 154.234C86.2988 155.328 86.0384 157.432 86.0384 160.547L86.1634 163.375C86.1634 163.823 85.9499 164.187 85.5228 164.468C85.0957 164.75 84.5697 164.89 83.9447 164.89ZM101.507 165.406H101.117C100.242 165.406 99.804 165.114 99.804 164.531C99.804 164.489 100.554 163.401 102.054 161.265C103.564 159.12 104.32 157.88 104.32 157.547C104.32 157.213 103.648 156.083 102.304 154.156C101.929 153.614 101.429 153 100.804 152.312C100.189 151.614 99.8822 151.135 99.8822 150.875C99.8822 150.281 100.627 149.984 102.117 149.984C103.2 149.984 103.96 150.255 104.398 150.797C104.481 150.901 104.585 151.125 104.71 151.468C104.835 151.802 105.064 152.276 105.398 152.89C106.127 154.224 106.648 154.89 106.96 154.89C107.21 154.89 107.757 154.203 108.601 152.828C108.934 152.286 109.184 151.781 109.351 151.312C109.528 150.843 109.648 150.567 109.71 150.484C110.023 150.078 110.512 149.875 111.179 149.875C112.439 149.875 113.07 150.099 113.07 150.547C113.07 150.807 112.346 151.859 110.898 153.703C109.45 155.547 108.726 156.739 108.726 157.281C108.726 157.812 109.497 159.099 111.038 161.14C111.549 161.817 112.085 162.432 112.648 162.984C113.221 163.536 113.507 163.968 113.507 164.281C113.507 164.864 112.643 165.161 110.913 165.172C110.049 165.172 109.424 164.927 109.038 164.437C108.966 164.343 108.841 164.099 108.663 163.703C108.497 163.307 108.294 162.901 108.054 162.484C107.117 160.87 106.523 160.062 106.273 160.062C105.96 160.062 105.356 160.807 104.46 162.297C104.2 162.734 103.966 163.234 103.757 163.797C103.559 164.349 103.439 164.656 103.398 164.718C103.064 165.177 102.434 165.406 101.507 165.406ZM122.648 165.281H122.054C120.554 165.281 119.476 164.635 118.82 163.343C118.278 162.291 118.007 160.562 118.007 158.156C118.007 155.75 117.877 154.099 117.617 153.203C117.523 152.87 117.262 152.489 116.835 152.062C116.408 151.635 116.195 151.265 116.195 150.953V150.75C116.195 150.479 116.439 150.182 116.929 149.859C117.419 149.536 117.7 149.307 117.773 149.172C117.856 149.026 118.012 148.521 118.242 147.656C118.481 146.781 118.726 146.172 118.976 145.828C119.236 145.474 119.58 145.297 120.007 145.297C120.445 145.297 120.752 145.422 120.929 145.672C121.117 145.922 121.299 146.437 121.476 147.218C121.663 148 121.867 148.531 122.085 148.812C122.304 149.083 122.835 149.37 123.679 149.672C124.523 149.974 124.945 150.349 124.945 150.797C124.945 151.192 124.502 151.547 123.617 151.859C122.742 152.172 122.189 152.557 121.96 153.015C121.523 153.901 121.304 155.468 121.304 157.718C121.304 159.968 121.497 161.349 121.882 161.859C122.268 162.359 122.893 162.666 123.757 162.781C124.632 162.896 125.07 163.224 125.07 163.765C125.07 164.182 124.82 164.541 124.32 164.843C123.83 165.135 123.273 165.281 122.648 165.281ZM128.867 157.734C128.408 157.734 128.179 157.468 128.179 156.937V156.578C128.179 155.88 128.341 155.479 128.663 155.375C128.986 155.26 130.476 155.203 133.132 155.203L136.195 155.156H136.773C137.377 155.156 137.679 155.427 137.679 155.968V156.312C137.658 156.458 137.648 156.573 137.648 156.656C137.648 157.177 137.45 157.484 137.054 157.578C136.669 157.661 135.221 157.703 132.71 157.703H132.007L131.663 157.718H130.96L130.492 157.734H128.867ZM150.96 154.859C150.96 153.942 150.731 153.198 150.273 152.625C149.825 152.052 149.08 151.765 148.038 151.765H147.898L147.742 151.781C146.658 151.781 145.762 152.297 145.054 153.328C144.356 154.349 144.007 155.76 144.007 157.562V158.281C144.007 159.896 144.325 161.14 144.96 162.015C145.606 162.89 146.398 163.328 147.335 163.328H147.476C148.57 163.328 149.419 162.948 150.023 162.187C150.627 161.427 150.929 160.338 150.929 158.922C150.95 158.692 150.96 158.526 150.96 158.422L151.007 157.437V155.656L150.976 155.172C150.966 155.067 150.96 154.963 150.96 154.859ZM148.257 149.875C149.403 149.875 150.091 149.734 150.32 149.453C150.674 149.015 150.851 148.083 150.851 146.656C150.851 146.229 150.804 145.791 150.71 145.343C150.617 144.885 150.57 144.583 150.57 144.437C150.57 143.968 150.747 143.573 151.101 143.25C151.455 142.927 151.971 142.765 152.648 142.765H152.945C153.768 142.765 154.242 143.135 154.367 143.875C154.46 144.406 154.507 147.328 154.507 152.64L154.476 154.515V157.125L154.507 158.562C154.507 158.802 154.507 159.041 154.507 159.281L154.523 159.625C154.533 159.854 154.538 160.271 154.538 160.875C154.538 161.468 154.622 162.052 154.788 162.625C154.966 163.187 155.054 163.583 155.054 163.812C155.054 164.041 154.924 164.265 154.663 164.484C154.403 164.703 154.018 164.812 153.507 164.812C153.007 164.812 152.492 164.745 151.96 164.609C151.439 164.463 151.08 164.39 150.882 164.39C150.684 164.39 150.143 164.541 149.257 164.843C148.382 165.146 147.617 165.297 146.96 165.297H146.617C144.846 165.297 143.466 164.698 142.476 163.5C141.497 162.291 141.007 160.713 141.007 158.765V157.968C141.007 156.948 141.169 155.927 141.492 154.906C141.825 153.875 142.304 152.979 142.929 152.218C144.231 150.656 146.007 149.875 148.257 149.875ZM165.257 163.531H165.57C166.622 163.531 167.486 163.067 168.163 162.14C168.841 161.213 169.179 160.041 169.179 158.625L169.21 158.281L169.226 157.75V157.047C169.226 155.495 168.908 154.218 168.273 153.218C167.648 152.208 166.809 151.703 165.757 151.703H165.445C164.413 151.703 163.544 152.213 162.835 153.234C162.137 154.255 161.788 155.609 161.788 157.297V158.359C161.809 158.609 161.82 158.781 161.82 158.875C161.82 160.062 162.148 161.135 162.804 162.093C163.46 163.052 164.278 163.531 165.257 163.531ZM172.757 157.265V157.781C172.757 158.708 172.606 159.661 172.304 160.64C171.689 162.63 170.481 164.057 168.679 164.922C167.637 165.422 166.606 165.672 165.585 165.672H165.054C164.085 165.672 163.184 165.474 162.351 165.078C160.695 164.286 159.596 162.974 159.054 161.14C158.762 160.172 158.617 159.187 158.617 158.187V157.39C158.617 156.411 158.768 155.432 159.07 154.453C159.663 152.515 160.841 151.13 162.601 150.297C163.507 149.859 164.434 149.64 165.382 149.64H166.163C167.059 149.64 167.945 149.833 168.82 150.218C170.57 150.989 171.747 152.364 172.351 154.343C172.622 155.218 172.757 156.192 172.757 157.265ZM182.382 163.531H182.695C183.747 163.531 184.611 163.067 185.288 162.14C185.966 161.213 186.304 160.041 186.304 158.625L186.335 158.281L186.351 157.75V157.047C186.351 155.495 186.033 154.218 185.398 153.218C184.773 152.208 183.934 151.703 182.882 151.703H182.57C181.538 151.703 180.669 152.213 179.96 153.234C179.262 154.255 178.913 155.609 178.913 157.297V158.359C178.934 158.609 178.945 158.781 178.945 158.875C178.945 160.062 179.273 161.135 179.929 162.093C180.585 163.052 181.403 163.531 182.382 163.531ZM189.882 157.265V157.781C189.882 158.708 189.731 159.661 189.429 160.64C188.814 162.63 187.606 164.057 185.804 164.922C184.762 165.422 183.731 165.672 182.71 165.672H182.179C181.21 165.672 180.309 165.474 179.476 165.078C177.82 164.286 176.721 162.974 176.179 161.14C175.887 160.172 175.742 159.187 175.742 158.187V157.39C175.742 156.411 175.893 155.432 176.195 154.453C176.788 152.515 177.966 151.13 179.726 150.297C180.632 149.859 181.559 149.64 182.507 149.64H183.288C184.184 149.64 185.07 149.833 185.945 150.218C187.695 150.989 188.872 152.364 189.476 154.343C189.747 155.218 189.882 156.192 189.882 157.265ZM200.726 153C199.747 153 198.986 153.489 198.445 154.468C197.903 155.437 197.632 156.922 197.632 158.922C197.632 159.807 197.669 160.437 197.742 160.812C197.814 161.177 197.924 161.635 198.07 162.187C198.226 162.729 198.304 163.203 198.304 163.609C198.304 164.005 198.064 164.37 197.585 164.703C197.106 165.036 196.481 165.203 195.71 165.203L195.445 165.187H195.163C194.663 165.187 194.247 165.047 193.913 164.765C193.591 164.484 193.429 164.166 193.429 163.812V163.562C193.429 163.489 193.528 163.146 193.726 162.531C193.924 161.916 194.038 161.323 194.07 160.75C194.101 160.177 194.117 159.406 194.117 158.437V156.703L194.101 156.422C194.101 156.234 194.101 156.047 194.101 155.859L194.07 155.015C194.059 154.828 194.054 154.463 194.054 153.922C194.054 153.37 193.955 152.849 193.757 152.359C193.57 151.859 193.476 151.536 193.476 151.39C193.476 150.765 194.023 150.453 195.117 150.453C196.21 150.453 197.002 150.75 197.492 151.343C197.637 151.521 197.788 151.609 197.945 151.609C198.111 151.609 198.382 151.479 198.757 151.218C199.799 150.51 200.674 150.156 201.382 150.156H201.632C202.257 150.156 202.731 150.297 203.054 150.578C203.387 150.859 203.554 151.234 203.554 151.703C203.554 152.63 203.038 153.093 202.007 153.093C201.601 153.031 201.174 153 200.726 153Z" fill="white"/>
<line y1="-1.5" x2="4.38936" y2="-1.5" transform="matrix(0.74768 0.664059 -0.74768 0.664059 181.761 163.511)" stroke="#550052" stroke-width="3"/>
<path d="M433.756 289.81C434.923 291.871 435.785 293.819 436.8 295.854C437.814 297.889 438.555 299.916 439.346 301.995C440.95 306.209 442.134 310.532 442.886 314.918C442.988 315.466 443.038 316.058 443.109 316.658L443.211 317.528C443.211 317.684 443.211 317.797 443.211 317.98V318.545C443.245 319.864 443.112 321.182 442.815 322.476C442.312 324.726 441.596 326.936 440.675 329.086C438.943 333.173 436.783 337.117 434.223 340.871L429.07 339.001C430.216 335.035 431.373 330.991 432.245 327.086C432.672 325.215 432.973 323.324 433.148 321.424C433.208 320.647 433.187 319.867 433.087 319.093L432.975 318.545L432.833 317.849C432.722 317.388 432.651 316.927 432.519 316.458C431.508 312.619 430.2 308.842 428.603 305.152C427.832 303.264 426.98 301.386 426.128 299.498C425.276 297.611 424.333 295.715 423.46 293.976L433.756 289.81Z" fill="#AB6461"/>
<path d="M429.293 337.844L425.337 341.149L433.969 344.628C433.969 344.628 436.059 341.497 434.619 338.662L429.293 337.844Z" fill="#AB6461"/>
<path d="M422.152 346.08L429.435 348.637L433.969 344.593L425.337 341.149L422.152 346.08Z" fill="#AB6461"/>
<path opacity="0.2" d="M274.404 342.514C288.759 341.136 302.314 336.14 313.356 328.157C324.399 320.174 332.432 309.563 336.442 297.666C340.451 285.769 340.256 273.12 335.881 261.318C331.506 249.515 323.148 239.091 311.863 231.361C300.578 223.631 286.874 218.944 272.482 217.891C258.09 216.839 243.658 219.469 231.009 225.448C218.361 231.428 208.064 240.488 201.421 251.485C194.778 262.481 192.087 274.919 193.689 287.227C194.752 295.402 197.684 303.317 202.316 310.52C206.949 317.723 213.191 324.073 220.687 329.207C228.183 334.342 236.785 338.159 246.002 340.443C255.219 342.726 264.87 343.43 274.404 342.514V342.514Z" fill="#5F81CD"/>
<path opacity="0.1" d="M221.26 230.956L332.337 307.021C332.814 306.151 333.26 305.282 333.696 304.412C336.48 298.733 338.258 292.73 338.971 286.6V286.6L243.029 220.92C235.155 223.171 227.792 226.566 221.26 230.956V230.956Z" fill="white"/>
<path opacity="0.1" d="M195.636 264.292L300.059 335.826C309.981 331.39 318.581 325.058 325.195 317.319L211.157 239.184C203.807 246.423 198.497 255.014 195.636 264.292V264.292Z" fill="white"/>
<path d="M446.203 350.611C446.07 349.028 445.465 347.501 444.448 346.175C443.709 345.2 442.675 344.416 441.456 343.905L434.527 340.992C429.922 339.035 425.286 337.13 420.65 335.226C416.015 333.321 411.348 331.451 406.702 329.564C402.056 327.677 397.37 325.842 392.673 324.041C383.3 320.4 373.866 316.857 364.371 313.413C359.624 311.674 354.867 310.004 350.068 308.369C348.668 307.896 347.529 306.984 346.883 305.818C346.237 304.652 346.132 303.319 346.589 302.09C353.012 284.729 351.549 265.928 342.494 249.452C333.439 232.976 317.46 220.04 297.756 213.234C278.052 206.428 256.076 206.254 236.228 212.746C216.38 219.239 200.125 231.919 190.716 248.248C181.307 264.578 179.439 283.352 185.486 300.812C191.533 318.272 205.048 333.129 223.327 342.41C241.605 351.691 263.298 354.711 284.062 350.865C304.826 347.018 323.13 336.59 335.309 321.667C336.171 320.606 337.471 319.866 338.946 319.596C340.421 319.327 341.96 319.548 343.252 320.214C347.688 322.476 352.145 324.699 356.621 326.885C365.568 331.257 374.583 335.519 383.665 339.67C388.2 341.775 392.795 343.801 397.309 345.862C401.823 347.924 406.439 349.933 411.034 351.95C415.629 353.968 420.163 355.942 424.82 357.89L431.728 360.83C432.941 361.353 434.299 361.582 435.653 361.491C437.497 361.379 439.275 360.861 440.817 359.986C442.655 359.019 444.136 357.625 445.089 355.966C446.042 354.307 446.428 352.45 446.203 350.611V350.611ZM236.861 331.373C225.069 326.384 215.267 318.509 208.695 308.744C202.124 298.978 199.077 287.761 199.941 276.512C200.805 265.262 205.54 254.484 213.549 245.542C221.557 236.6 232.479 229.894 244.932 226.274C257.386 222.654 270.812 222.281 283.512 225.203C296.213 228.125 307.617 234.211 316.284 242.69C324.95 251.169 330.489 261.662 332.2 272.84C333.911 284.019 331.717 295.381 325.895 305.49C322.032 312.202 316.664 318.196 310.099 323.129C303.533 328.062 295.899 331.839 287.631 334.242C279.363 336.646 270.624 337.629 261.913 337.137C253.202 336.645 244.69 334.686 236.861 331.373V331.373Z" fill="#5F81CD"/>
<path d="M395.503 262.927C395.503 263.44 395.189 263.858 394.793 263.858C394.398 263.858 394.083 263.44 394.083 262.927C394.083 262.414 394.398 261.988 394.793 261.988C395.189 261.988 395.503 262.405 395.503 262.927Z" fill="#263238"/>
<path d="M395.24 263.857C394.527 265.433 393.564 266.917 392.379 268.267C392.789 268.519 393.259 268.69 393.755 268.77C394.251 268.849 394.761 268.835 395.25 268.728L395.24 263.857Z" fill="#C55555"/>
<path d="M397.634 260.057C397.707 260.055 397.779 260.033 397.837 259.995C397.896 259.957 397.94 259.905 397.962 259.844C397.984 259.784 397.984 259.719 397.962 259.659C397.939 259.599 397.895 259.546 397.837 259.509C397.388 259.221 396.867 259.028 396.315 258.946C395.763 258.865 395.196 258.896 394.661 259.039C394.614 259.05 394.569 259.07 394.53 259.097C394.492 259.124 394.46 259.157 394.438 259.195C394.416 259.233 394.403 259.275 394.4 259.317C394.398 259.36 394.406 259.402 394.423 259.442C394.441 259.482 394.469 259.518 394.504 259.548C394.539 259.578 394.581 259.601 394.627 259.617C394.674 259.632 394.723 259.639 394.773 259.637C394.822 259.635 394.871 259.623 394.915 259.604V259.604C395.341 259.496 395.79 259.475 396.227 259.543C396.664 259.611 397.077 259.766 397.431 259.996C397.488 260.036 397.56 260.057 397.634 260.057V260.057Z" fill="#263238"/>
<path d="M416.025 266.806C414.949 271.485 413.884 280.052 417.698 283.165C417.698 283.165 416.207 287.905 406.084 287.905C394.925 287.905 400.758 283.165 400.758 283.165C406.844 281.922 406.682 278.051 405.617 274.468L416.025 266.806Z" fill="#AB6461"/>
<path d="M419.656 280.234C420.498 280.469 419.403 284.765 419.403 284.765C419.403 284.765 418.013 287.766 400.748 286.722C399.419 286.635 399.926 282.513 401.194 281.913C405.282 279.999 416.938 279.469 419.656 280.234Z" fill="#263238"/>
<path d="M454.724 459.926C455.657 459.847 457.017 458.378 457.402 457.838C457.419 457.815 457.428 457.788 457.428 457.76C457.428 457.732 457.419 457.705 457.402 457.682C457.386 457.656 457.36 457.636 457.329 457.623C457.298 457.611 457.263 457.607 457.23 457.612C457.128 457.612 454.673 458.012 454.075 458.83C454.012 458.916 453.97 459.012 453.953 459.112C453.935 459.212 453.942 459.315 453.973 459.413C454.105 459.795 454.359 459.9 454.562 459.926H454.724ZM456.864 457.986C456.205 458.769 455.12 459.682 454.602 459.621C454.552 459.621 454.399 459.621 454.308 459.326C454.288 459.269 454.284 459.209 454.294 459.15C454.305 459.091 454.33 459.036 454.369 458.986C455.068 458.45 455.936 458.102 456.864 457.986Z" fill="#5F81CD"/>
<path d="M456.763 457.986C456.944 457.973 457.124 457.947 457.301 457.908C457.331 457.9 457.358 457.885 457.379 457.865C457.4 457.845 457.415 457.821 457.422 457.795C457.428 457.768 457.426 457.74 457.415 457.714C457.404 457.688 457.386 457.665 457.362 457.647C457.301 457.595 455.657 456.395 454.542 456.49C454.407 456.498 454.276 456.53 454.158 456.584C454.039 456.638 453.934 456.713 453.852 456.804C453.756 456.882 453.697 456.988 453.684 457.101C453.671 457.214 453.705 457.328 453.781 457.421C454.146 457.917 455.749 458.073 456.763 457.986ZM456.844 457.682C455.83 457.786 454.349 457.612 454.065 457.256C454.065 457.256 453.984 457.143 454.126 456.986C454.183 456.929 454.252 456.882 454.331 456.847C454.409 456.813 454.494 456.792 454.582 456.786V456.786C455.423 456.886 456.21 457.198 456.844 457.682V457.682Z" fill="#5F81CD"/>
<path d="M384.984 482.799C385.753 482.797 386.52 482.739 387.277 482.625C387.311 482.617 387.342 482.602 387.366 482.58C387.391 482.559 387.409 482.533 387.419 482.503C387.425 482.472 387.419 482.441 387.403 482.412C387.387 482.384 387.36 482.361 387.327 482.347C387.216 482.286 384.619 481.016 383.371 481.303C383.138 481.354 382.937 481.482 382.813 481.66C382.734 481.757 382.691 481.872 382.691 481.99C382.691 482.109 382.734 482.224 382.813 482.321C383.138 482.704 384.031 482.799 384.984 482.799ZM386.709 482.399C385.319 482.564 383.432 482.556 383.087 482.147C383.036 482.095 382.996 481.999 383.087 481.808C383.124 481.754 383.174 481.708 383.234 481.672C383.293 481.636 383.361 481.611 383.432 481.599C384.233 481.416 385.796 481.999 386.709 482.399V482.399Z" fill="#5F81CD"/>
<path d="M387.195 482.625C387.232 482.634 387.271 482.634 387.307 482.625C387.33 482.608 387.349 482.586 387.361 482.562C387.374 482.538 387.379 482.512 387.378 482.486C387.378 482.416 387.165 480.694 386.222 480.024C386.082 479.924 385.92 479.85 385.746 479.805C385.571 479.76 385.388 479.746 385.207 479.763C384.72 479.807 384.588 480.016 384.548 480.19C384.416 480.911 386.201 482.294 387.094 482.642L387.195 482.625ZM385.38 480.016C385.606 480.021 385.824 480.092 385.998 480.216C386.562 480.767 386.915 481.453 387.013 482.181C386.09 481.712 384.883 480.624 384.984 480.19C384.984 480.19 384.984 480.05 385.329 480.024L385.38 480.016Z" fill="#5F81CD"/>
<path d="M395.432 482.477H387.987L387.236 467.675H394.692L395.432 482.477Z" fill="#AB6461"/>
<path d="M463.915 453.159L458.102 457.151L443.312 448.349L449.135 444.357L463.915 453.159Z" fill="#AB6461"/>
<path d="M457.037 456.899L462.981 451.846C463.088 451.758 463.226 451.703 463.373 451.69C463.52 451.678 463.668 451.708 463.793 451.776L469.504 454.924C469.642 455.001 469.759 455.104 469.844 455.225C469.929 455.346 469.981 455.482 469.996 455.623C470.01 455.764 469.987 455.906 469.929 456.038C469.87 456.17 469.777 456.289 469.656 456.385C467.546 458.125 466.42 458.873 463.803 461.091C462.2 462.465 458.275 466.552 456.053 468.44C453.831 470.327 451.356 468.692 452.077 467.744C455.272 463.517 456.357 460.03 456.499 457.907C456.53 457.526 456.721 457.168 457.037 456.899V456.899Z" fill="#263238"/>
<path d="M388.027 481.738H396.143C396.29 481.737 396.433 481.78 396.547 481.859C396.662 481.939 396.741 482.049 396.771 482.173L398.242 487.852C398.279 487.988 398.28 488.13 398.243 488.267C398.207 488.403 398.134 488.531 398.032 488.64C397.929 488.749 397.799 488.837 397.65 488.896C397.502 488.955 397.341 488.985 397.177 488.983C394.235 488.983 389.995 488.8 386.303 488.8C381.992 488.8 378.269 489 373.207 489C370.164 489 369.301 486.347 370.58 486.104C376.412 485.017 381.17 484.895 386.201 482.234C386.744 481.926 387.377 481.754 388.027 481.738V481.738Z" fill="#263238"/>
<path d="M432.387 285.078C438.849 287.687 441.517 305.569 441.517 305.569L426.656 310.569C424.349 305.728 422.48 300.741 421.066 295.654C418.987 287.583 425.743 282.365 432.387 285.078Z" fill="#5F81CD"/>
<path opacity="0.3" d="M432.387 285.078C438.849 287.687 441.517 305.569 441.517 305.569L426.656 310.569C424.349 305.728 422.48 300.741 421.066 295.654C418.987 287.583 425.743 282.365 432.387 285.078Z" fill="white"/>
<path opacity="0.2" d="M422.76 290.323C422.254 290.112 421.724 289.946 421.178 289.827C420.585 291.734 420.564 293.738 421.117 295.654C422.525 300.742 424.39 305.729 426.696 310.57L431.596 308.926C430.693 304.256 427.924 292.445 422.76 290.323Z" fill="black"/>
<path d="M389.295 284.94C389.295 284.94 381.363 292.619 388.849 340.166H428.715C428.989 334.948 425.144 309.326 431.048 284.609C426.639 283.882 422.18 283.4 417.699 283.165C412.056 282.887 406.4 282.887 400.758 283.165C396.889 283.5 393.056 284.093 389.295 284.94Z" fill="#5F81CD"/>
<path opacity="0.3" d="M389.295 284.94C389.295 284.94 381.363 292.619 388.849 340.166H428.715C428.989 334.948 425.144 309.326 431.048 284.609C426.639 283.882 422.18 283.4 417.699 283.165C412.056 282.887 406.4 282.887 400.758 283.165C396.889 283.5 393.056 284.093 389.295 284.94Z" fill="white"/>
<path opacity="0.2" d="M397.339 295.132C395.534 290.488 391.192 289.001 386.769 291.758C385.877 296.263 385.248 303.525 385.968 315.04L393.749 314.979C393.749 314.979 400.007 302.046 397.339 295.132Z" fill="black"/>
<path d="M395.879 293.228C395.554 295.559 395.108 297.672 394.611 299.873C394.114 302.073 393.535 304.221 392.876 306.387C391.574 310.813 389.802 315.127 387.581 319.276C387.003 320.346 386.333 321.398 385.623 322.45C385.258 322.981 384.893 323.511 384.477 324.033C383.938 324.758 383.301 325.427 382.58 326.025C381.18 327.138 379.521 327.983 377.711 328.504C376.241 328.945 374.721 329.251 373.176 329.417C370.419 329.71 367.633 329.739 364.869 329.504C363.516 329.411 362.197 329.263 360.912 329.06C359.594 328.86 358.346 328.651 356.987 328.347L357.646 323.581C362.276 323.414 366.873 322.831 371.361 321.842C372.274 321.61 373.16 321.307 374.008 320.937C374.565 320.718 375.053 320.387 375.428 319.972C375.347 320.033 376.088 318.98 376.524 318.232C376.96 317.484 377.447 316.493 377.863 315.623C378.715 313.832 379.445 311.936 380.115 309.996C380.784 308.057 381.373 306.082 381.921 304.082C382.468 302.082 382.935 300.064 383.442 297.994C383.949 295.924 384.315 293.872 384.68 291.95L395.879 293.228Z" fill="#AB6461"/>
<path d="M399.257 289.627C401.357 295.463 392.836 312.857 392.836 312.857L374.891 308.987C375.989 303.489 377.838 298.12 380.399 292.993C386.181 282.139 396.731 282.591 399.257 289.627Z" fill="#5F81CD"/>
<path opacity="0.3" d="M399.257 289.627C401.357 295.463 392.836 312.857 392.836 312.857L374.891 308.987C375.989 303.489 377.838 298.12 380.399 292.993C386.181 282.139 396.731 282.591 399.257 289.627Z" fill="white"/>
<path d="M357.9 323.607L349.46 323.424L353.517 330.947C353.517 330.947 356.946 331.339 359.766 327.364L362.738 324.329L359.32 323.737C358.852 323.659 358.377 323.616 357.9 323.607Z" fill="#AB6461"/>
<path d="M344.134 324.825L348.973 331.06L353.528 330.947L349.46 323.424L344.134 324.825Z" fill="#AB6461"/>
<path opacity="0.2" d="M387.246 467.684L387.622 475.311H395.077L394.692 467.684H387.246Z" fill="black"/>
<path opacity="0.2" d="M449.135 444.357L443.312 448.349L450.94 452.889L456.763 448.897L449.135 444.357Z" fill="black"/>
<path d="M415.599 261.797C415.152 268.128 415.274 271.85 411.541 275.103C405.942 279.991 396.822 277.103 395.057 270.755C393.464 265.067 394.469 255.674 401.691 253.143C403.284 252.578 405.019 252.373 406.73 252.546C408.442 252.72 410.073 253.267 411.468 254.135C412.863 255.003 413.975 256.163 414.698 257.504C415.421 258.845 415.731 260.323 415.599 261.797V261.797Z" fill="#AB6461"/>
<path d="M421.563 255.917C421.563 255.917 425.449 256.909 424.231 260.709C422.395 266.484 418.074 273.129 412.495 273.546C405.546 274.077 402.412 267.928 401.499 261.57C397.34 259.127 394.256 256.839 395.25 254.3C396.771 250.386 402.29 247.011 411.074 247.881C419.859 248.751 424.231 253.621 421.563 255.917Z" fill="#263238"/>
<path d="M405.729 262.874C405.594 264.445 404.859 265.933 403.639 267.11C402.016 268.641 400.312 267.684 400.028 265.823C399.774 264.136 400.302 261.309 402.29 260.465C404.278 259.622 405.86 260.979 405.729 262.874Z" fill="#AB6461"/>
<path d="M402.99 340.166C402.99 340.166 400.474 383.234 405.374 401.481C413.134 430.372 447.248 453.524 447.248 453.524L458.204 446.001C458.204 446.001 430.135 428.094 427.609 404.038C425.347 382.434 428.695 357.621 428.695 340.166H402.99Z" fill="#5F81CD"/>
<path opacity="0.2" d="M402.99 340.166C402.99 340.166 400.474 383.234 405.374 401.481C413.134 430.372 447.248 453.524 447.248 453.524L458.204 446.001C458.204 446.001 430.135 428.094 427.609 404.038C425.347 382.434 428.695 357.621 428.695 340.166H402.99Z" fill="black"/>
<path opacity="0.2" d="M406.733 352.925C405.718 351.246 403.74 356.247 402.361 362.666C402.361 371.519 402.543 381.591 403.446 390.122C410.334 379.208 408.873 356.404 406.733 352.925Z" fill="black"/>
<path d="M442.277 451.672L446.436 454.438L459.086 445.645L455.292 442.697L442.277 451.672Z" fill="#2C6BDB"/>
<path opacity="0.4" d="M442.277 451.672L446.436 454.438L459.086 445.645L455.292 442.697L442.277 451.672Z" fill="#FAFAFA"/>
<path d="M388.849 340.166C388.849 340.166 377.63 380.955 376.838 400.437C375.956 422.293 384.842 473.832 384.842 473.832H397.471C397.471 473.832 399.023 421.893 399.591 401.985C400.2 380.286 415.051 340.166 415.051 340.166H388.849Z" fill="#5F81CD"/>
<path opacity="0.2" d="M388.849 340.166C388.849 340.166 377.63 380.955 376.838 400.437C375.956 422.293 384.842 473.832 384.842 473.832H397.471C397.471 473.832 399.023 421.893 399.591 401.985C400.2 380.286 415.051 340.166 415.051 340.166H388.849Z" fill="black"/>
<path d="M382.418 469.518C382.357 469.518 383.128 474.015 383.128 474.015H398.486L398.902 470.005L382.418 469.518Z" fill="#2C6BDB"/>
<path opacity="0.4" d="M382.418 469.518C382.357 469.518 383.128 474.015 383.128 474.015H398.486L398.902 470.005L382.418 469.518Z" fill="#FAFAFA"/>
<path d="M403.109 272.075L399.448 275.167C395.321 273.157 392.002 268.4 390.599 263.828L394.663 261.549C395.317 266.226 398.737 269.282 403.109 272.075Z" fill="white"/>
<path d="M404.027 262.053L394.388 262.221C394.303 262.222 394.218 262.189 394.154 262.127C394.089 262.066 394.05 261.982 394.044 261.893C394.037 261.805 394.065 261.72 394.121 261.656C394.177 261.593 394.257 261.556 394.342 261.555L403.981 261.386C404.066 261.385 404.151 261.419 404.215 261.48C404.28 261.541 404.319 261.626 404.325 261.714C404.332 261.802 404.304 261.888 404.248 261.951C404.192 262.015 404.112 262.051 404.027 262.053V262.053Z" fill="white"/>
<path d="M402.787 272.081C402.735 272.082 402.682 272.069 402.634 272.045C402.586 272.02 402.544 271.984 402.511 271.939C402.479 271.894 402.457 271.843 402.448 271.789C402.438 271.735 402.442 271.68 402.458 271.629L404.57 264.921C404.582 264.88 404.603 264.843 404.63 264.811C404.658 264.779 404.691 264.753 404.729 264.735C404.766 264.717 404.807 264.707 404.849 264.706C404.892 264.705 404.934 264.712 404.974 264.728C405.015 264.743 405.052 264.767 405.085 264.797C405.117 264.827 405.143 264.863 405.163 264.903C405.182 264.943 405.194 264.986 405.197 265.03C405.201 265.074 405.196 265.117 405.183 265.158L403.071 271.866C403.052 271.928 403.014 271.982 402.964 272.02C402.913 272.059 402.852 272.08 402.787 272.081V272.081Z" fill="white"/>
</g>
<defs>
<clipPath id="clip0">
<rect width="500" height="500" fill="white"/>
</clipPath>
</defs>
</svg>
