<svg width="650" height="728" viewBox="0 0 650 728" fill="none" xmlns="http://www.w3.org/2000/svg">
<g clip-path="url(#clip0)">
<path d="M362.889 172.947H358.891V63.4019C358.891 46.5867 352.211 30.4602 340.321 18.57C328.43 6.67986 312.304 2.12175e-05 295.489 2.01908e-10H63.402C55.0759 -2.10113e-05 46.8314 1.6399 39.1391 4.82612C31.4468 8.01234 24.4575 12.6825 18.57 18.5699C12.6826 24.4573 8.01246 31.4466 4.8262 39.1389C1.63994 46.8311 -1.21325e-05 55.0756 -3.05175e-05 63.4017V664.376C-3.83969e-05 672.702 1.63987 680.947 4.82611 688.639C8.01235 696.331 12.6825 703.321 18.5699 709.208C24.4573 715.095 31.4467 719.766 39.1389 722.952C46.8312 726.138 55.0757 727.778 63.4018 727.778H295.488C312.304 727.778 328.43 721.098 340.32 709.208C352.21 697.318 358.89 681.191 358.89 664.376V250.923H362.889V172.947Z" fill="#908FD3"/>
<path d="M298.047 16.495H267.752C269.145 19.9106 269.677 23.6165 269.3 27.2861C268.924 30.9557 267.651 34.4764 265.593 37.538C263.536 40.5997 260.757 43.1084 257.501 44.8431C254.246 46.5778 250.613 47.4852 246.925 47.4855H113.965C110.276 47.4852 106.644 46.5778 103.389 44.8431C100.133 43.1084 97.354 40.5997 95.2964 37.538C93.2388 34.4763 91.9658 30.9556 91.5894 27.286C91.213 23.6164 91.7448 19.9106 93.138 16.4949H64.8424C52.285 16.4949 40.2419 21.4833 31.3625 30.3627C22.483 39.2421 17.4946 51.2852 17.4946 63.8426V663.935C17.4946 676.493 22.483 688.536 31.3624 697.415C40.2418 706.295 52.2849 711.283 64.8423 711.283H298.047C304.265 711.283 310.421 710.058 316.166 707.679C321.91 705.3 327.13 701.812 331.527 697.415C335.923 693.019 339.411 687.799 341.79 682.055C344.17 676.31 345.395 670.153 345.395 663.935V663.935V63.8427C345.395 57.6249 344.17 51.468 341.79 45.7235C339.411 39.979 335.923 34.7594 331.527 30.3628C327.13 25.9661 321.91 22.4785 316.166 20.0991C310.421 17.7197 304.265 16.495 298.047 16.495V16.495Z" fill="#3F3D56"/>
<path d="M326.151 487.819H46.5324C45.1596 487.817 43.8435 487.271 42.8728 486.3C41.9021 485.33 41.356 484.014 41.3544 482.641V413.28C41.356 411.907 41.9021 410.591 42.8728 409.62C43.8435 408.649 45.1596 408.103 46.5324 408.102H326.151C327.524 408.103 328.84 408.649 329.811 409.62C330.782 410.591 331.328 411.907 331.329 413.28V482.642C331.328 484.014 330.781 485.33 329.811 486.301C328.84 487.271 327.524 487.817 326.151 487.819V487.819ZM46.5324 410.173C45.7087 410.174 44.9188 410.501 44.3363 411.084C43.7538 411.666 43.4262 412.456 43.4254 413.28V482.642C43.4262 483.466 43.7538 484.255 44.3363 484.838C44.9188 485.42 45.7087 485.748 46.5324 485.749H326.151C326.975 485.748 327.765 485.42 328.348 484.838C328.93 484.255 329.258 483.466 329.258 482.642V413.28C329.258 412.456 328.93 411.666 328.348 411.084C327.765 410.501 326.975 410.174 326.151 410.173H46.5324Z" fill="#908FD3"/>
<path d="M82.7784 469.708C94.7895 469.708 104.526 459.971 104.526 447.96C104.526 435.949 94.7895 426.212 82.7784 426.212C70.7673 426.212 61.0304 435.949 61.0304 447.96C61.0304 459.971 70.7673 469.708 82.7784 469.708Z" fill="#908FD3"/>
<path d="M133.006 433.462C132.056 433.478 131.149 433.866 130.482 434.544C129.815 435.222 129.442 436.135 129.442 437.086C129.442 438.037 129.815 438.95 130.482 439.628C131.149 440.306 132.056 440.695 133.006 440.711H303.884C304.846 440.729 305.775 440.365 306.468 439.699C307.16 439.032 307.56 438.118 307.579 437.156C307.597 436.195 307.233 435.266 306.567 434.573C305.9 433.88 304.985 433.481 304.024 433.462L304.003 433.462C303.964 433.461 303.924 433.461 303.884 433.462H133.006Z" fill="#908FD3"/>
<path d="M133.006 455.21C132.056 455.226 131.149 455.614 130.482 456.292C129.815 456.97 129.442 457.883 129.442 458.834C129.442 459.785 129.815 460.698 130.482 461.376C131.149 462.054 132.056 462.443 133.006 462.459H303.884C304.844 462.472 305.77 462.104 306.459 461.436C307.148 460.768 307.543 459.853 307.559 458.894C307.575 457.934 307.209 457.007 306.543 456.317C305.876 455.626 304.963 455.228 304.003 455.21C303.964 455.209 303.924 455.209 303.884 455.21H133.006Z" fill="#908FD3"/>
<path d="M326.151 603.809H46.5324C45.1596 603.807 43.8435 603.261 42.8728 602.29C41.9021 601.32 41.356 600.004 41.3544 598.631V529.27C41.356 527.897 41.9021 526.581 42.8728 525.61C43.8435 524.639 45.1596 524.093 46.5324 524.092H326.151C327.524 524.093 328.84 524.639 329.811 525.61C330.782 526.581 331.328 527.897 331.329 529.27V598.632C331.328 600.004 330.781 601.32 329.811 602.291C328.84 603.261 327.524 603.807 326.151 603.809V603.809ZM46.5324 526.163C45.7087 526.164 44.9188 526.491 44.3363 527.074C43.7538 527.656 43.4262 528.446 43.4254 529.27V598.632C43.4262 599.456 43.7538 600.245 44.3363 600.828C44.9188 601.41 45.7087 601.738 46.5324 601.739H326.151C326.975 601.738 327.765 601.41 328.348 600.828C328.93 600.245 329.258 599.456 329.258 598.632V529.27C329.258 528.446 328.93 527.656 328.348 527.074C327.765 526.491 326.975 526.164 326.151 526.163H46.5324Z" fill="#908FD3"/>
<path d="M82.7784 585.698C94.7895 585.698 104.526 575.961 104.526 563.95C104.526 551.939 94.7895 542.202 82.7784 542.202C70.7673 542.202 61.0304 551.939 61.0304 563.95C61.0304 575.961 70.7673 585.698 82.7784 585.698Z" fill="#908FD3"/>
<path d="M133.006 549.452C132.056 549.468 131.149 549.856 130.482 550.534C129.815 551.213 129.442 552.125 129.442 553.076C129.442 554.027 129.815 554.94 130.482 555.618C131.149 556.296 132.056 556.685 133.006 556.701H303.884C304.844 556.714 305.77 556.346 306.459 555.678C307.148 555.01 307.543 554.095 307.559 553.136C307.575 552.176 307.209 551.249 306.543 550.559C305.876 549.868 304.963 549.47 304.003 549.452C303.964 549.451 303.924 549.451 303.884 549.452H133.006Z" fill="#908FD3"/>
<path d="M133.006 571.2C132.056 571.216 131.149 571.604 130.482 572.282C129.815 572.96 129.442 573.873 129.442 574.824C129.442 575.775 129.815 576.688 130.482 577.366C131.149 578.044 132.056 578.433 133.006 578.449H303.884C304.844 578.462 305.77 578.094 306.459 577.426C307.148 576.758 307.543 575.843 307.559 574.884C307.575 573.924 307.209 572.997 306.543 572.307C305.876 571.616 304.963 571.218 304.003 571.2C303.964 571.199 303.924 571.199 303.884 571.2H133.006Z" fill="#908FD3"/>
<path d="M181.494 345C154.322 345.011 128.259 334.07 109.038 314.583C89.8162 295.095 79.0113 268.658 79 241.087V241.001C79 240.783 79 240.553 79.0125 240.336C79.325 183.381 125.301 137 181.494 137C208.677 136.997 234.748 147.951 253.972 167.452C273.195 186.954 283.997 213.405 284 240.988C284.003 268.57 273.208 295.024 253.988 314.53C234.769 334.036 208.701 344.996 181.518 344.999H181.494V345ZM181.494 139.187C155.004 139.247 129.608 149.912 110.823 168.863C92.038 187.815 81.3823 213.523 81.171 240.401C81.1596 240.634 81.1596 240.824 81.1596 240.997C81.1571 261.136 87.0401 280.823 98.0645 297.569C109.089 314.315 124.76 327.368 143.095 335.077C161.431 342.786 181.607 344.805 201.074 340.879C220.54 336.953 238.422 327.257 252.458 313.019C266.493 298.78 276.053 280.638 279.927 260.887C283.802 241.136 281.817 220.662 274.224 202.056C266.631 183.449 253.771 167.545 237.27 156.354C220.769 145.164 201.368 139.19 181.521 139.187H181.494V139.187Z" fill="#908FD3"/>
<path d="M315.114 462.842C337.205 462.842 355.114 444.933 355.114 422.842C355.114 400.75 337.205 382.842 315.114 382.842C293.023 382.842 275.114 400.75 275.114 422.842C275.114 444.933 293.023 462.842 315.114 462.842Z" fill="white"/>
<path d="M301.222 440.838C301.153 440.838 301.084 440.837 301.016 440.836H279.516C276.788 440.793 274.186 439.679 272.271 437.735C270.357 435.791 269.284 433.172 269.283 430.444C269.281 427.715 270.353 425.096 272.266 423.15C274.178 421.205 276.779 420.089 279.507 420.043H301.025C301.131 420.041 301.246 420.041 301.359 420.043C304.104 420.081 306.722 421.203 308.643 423.163C310.564 425.124 311.632 427.764 311.613 430.509C311.595 433.254 310.493 435.88 308.546 437.815C306.599 439.75 303.966 440.836 301.222 440.838V440.838Z" fill="#EA71CF"/>
<path d="M649.378 725.344H325.345V727.584H649.378V725.344Z" fill="#3F3D56"/>
<path d="M345.31 535.731C345.055 535.335 344.844 534.913 344.68 534.472L339.517 520.645C338.916 519.03 338.98 517.243 339.695 515.675C340.41 514.107 341.718 512.887 343.332 512.282L458.574 469.25C460.189 468.649 461.977 468.713 463.545 469.428C465.113 470.143 466.333 471.451 466.937 473.065L472.1 486.893C472.399 487.692 472.537 488.543 472.507 489.396C472.477 490.249 472.279 491.088 471.924 491.864C471.57 492.641 471.066 493.34 470.442 493.922C469.817 494.504 469.084 494.957 468.284 495.256L353.043 538.287C351.656 538.805 350.133 538.834 348.727 538.369C347.321 537.904 346.115 536.974 345.31 535.731Z" fill="#CF60F5"/>
<path d="M458.207 465.677L411.344 484.364C409.867 484.809 408.618 485.804 407.856 487.145C407.094 488.485 406.877 490.068 407.251 491.564L412.69 513.339C412.904 514.199 413.307 515.001 413.869 515.687C414.431 516.373 415.138 516.926 415.939 517.306C416.74 517.686 417.615 517.884 418.501 517.885C419.388 517.887 420.264 517.692 421.066 517.314L468.058 495.195C469.547 494.637 470.754 493.511 471.414 492.065C472.075 490.618 472.136 488.969 471.583 487.478L465.934 469.203C465.376 467.711 464.249 466.503 462.8 465.842C461.351 465.181 459.699 465.122 458.207 465.677V465.677Z" fill="#2F2E41"/>
<path d="M543.969 601.339C542.498 601.508 541.013 601.17 539.76 600.381C538.507 599.591 537.561 598.398 537.077 596.999L496.963 480.71C496.685 479.903 496.568 479.049 496.62 478.197C496.671 477.345 496.89 476.511 497.264 475.744C497.638 474.976 498.159 474.29 498.798 473.724C499.437 473.158 500.181 472.724 500.988 472.445L514.941 467.632C516.571 467.071 518.356 467.18 519.906 467.935C521.455 468.689 522.642 470.028 523.205 471.657L563.319 587.947C563.879 589.577 563.77 591.362 563.015 592.912C562.261 594.461 560.922 595.647 559.294 596.211L545.341 601.024C544.897 601.178 544.437 601.283 543.969 601.339Z" fill="#CF60F5"/>
<path d="M526.195 469.667L541.591 517.712C542.187 519.134 542.214 520.731 541.664 522.172C541.115 523.613 540.032 524.787 538.64 525.45L518.379 535.108C517.579 535.489 516.704 535.688 515.818 535.691C514.931 535.694 514.055 535.501 513.252 535.124C512.449 534.748 511.74 534.199 511.175 533.516C510.609 532.833 510.203 532.033 509.984 531.174L497.153 480.846C496.637 479.342 496.738 477.694 497.434 476.265C498.129 474.835 499.363 473.739 500.865 473.217L518.559 465.948C520.065 465.431 521.715 465.531 523.146 466.228C524.578 466.926 525.674 468.162 526.195 469.667V469.667Z" fill="#2F2E41"/>
<path d="M479.58 726.003H464.82C463.097 726.001 461.445 725.316 460.226 724.097C459.008 722.879 458.322 721.226 458.32 719.503V596.489C458.322 594.765 459.008 593.113 460.226 591.895C461.445 590.676 463.097 589.991 464.82 589.989H479.58C481.303 589.991 482.955 590.676 484.174 591.895C485.392 593.113 486.078 594.765 486.08 596.489V719.503C486.078 721.226 485.392 722.879 484.174 724.097C482.955 725.316 481.303 726.001 479.58 726.003Z" fill="#2F2E41"/>
<path d="M508.772 726.003H494.012C492.289 726.001 490.637 725.316 489.418 724.097C488.2 722.879 487.514 721.226 487.512 719.503V596.489C487.514 594.765 488.2 593.113 489.418 591.895C490.637 590.676 492.289 589.991 494.012 589.989H508.772C510.495 589.991 512.147 590.676 513.366 591.895C514.585 593.113 515.27 594.765 515.272 596.489V719.503C515.27 721.226 514.585 722.879 513.366 724.097C512.147 725.316 510.495 726.001 508.772 726.003Z" fill="#2F2E41"/>
<path d="M520.936 610.951H453.873C452.017 610.948 450.238 610.21 448.926 608.898C447.613 607.586 446.875 605.806 446.873 603.951V495.006C446.873 484.257 451.143 473.947 458.745 466.346C466.346 458.745 476.655 454.475 487.404 454.475C498.154 454.475 508.463 458.745 516.064 466.346C523.665 473.947 527.936 484.257 527.936 495.006V603.951C527.934 605.806 527.195 607.586 525.883 608.898C524.571 610.21 522.792 610.948 520.936 610.951Z" fill="#CCCCCC"/>
<path d="M531.03 637.6H497.03V445.445L497.662 445.618C507.237 448.246 515.686 453.943 521.714 461.834C527.741 469.725 531.014 479.375 531.03 489.305V637.6Z" fill="#2F2E41"/>
<path d="M475.015 637.6H441.015V489.305C441.032 479.375 444.305 469.725 450.332 461.834C456.359 453.943 464.808 448.246 474.384 445.618L475.015 445.445V637.6Z" fill="#2F2E41"/>
<path d="M486.897 454.94C516.455 454.94 540.416 430.978 540.416 401.421C540.416 371.863 516.455 347.901 486.897 347.901C457.339 347.901 433.378 371.863 433.378 401.421C433.378 430.978 457.339 454.94 486.897 454.94Z" fill="#CF60F5"/>
<path d="M547.404 389.099C547.404 389.099 550.404 306.099 511.404 333.099C511.404 333.099 488.904 257.599 433.904 370.599L417.904 386.599C417.904 386.599 489.904 376.599 556.904 407.599L547.404 389.099Z" fill="#2F2E41"/>
<path d="M469.963 395.852H459.192V397.852H469.963V395.852Z" fill="#2F2E41"/>
<path d="M503.963 395.852H493.192V397.852H503.963V395.852Z" fill="#2F2E41"/>
<path d="M367.571 540.833C366.128 541.503 364.477 541.571 362.983 541.024C361.489 540.477 360.273 539.359 359.603 537.915L325.092 463.531C324.423 462.088 324.354 460.438 324.901 458.943C325.448 457.449 326.567 456.234 328.01 455.564C329.453 454.895 331.104 454.826 332.598 455.373C334.092 455.92 335.308 457.038 335.978 458.481L370.489 532.865C371.158 534.309 371.227 535.959 370.68 537.453C370.133 538.947 369.015 540.163 367.571 540.833Z" fill="#3F3D56"/>
<path d="M332.114 460.794C331.053 460.794 330.036 460.373 329.286 459.623C328.535 458.873 328.114 457.855 328.114 456.794V405.842H278.114C277.053 405.842 276.036 405.42 275.286 404.67C274.535 403.92 274.114 402.903 274.114 401.842C274.114 400.781 274.535 399.763 275.286 399.013C276.036 398.263 277.053 397.842 278.114 397.842H332.114C333.175 397.842 334.192 398.263 334.942 399.013C335.693 399.763 336.114 400.781 336.114 401.842V456.794C336.114 457.855 335.693 458.873 334.942 459.623C334.192 460.373 333.175 460.794 332.114 460.794V460.794Z" fill="#EA71CF"/>
<path d="M333.06 466.449C324.448 470.444 314.845 471.796 305.465 470.334C296.085 468.872 287.349 464.661 280.362 458.234C273.375 451.806 268.451 443.452 266.212 434.226C263.973 425 264.521 415.318 267.785 406.403C271.049 397.488 276.884 389.742 284.55 384.143C292.217 378.544 301.372 375.344 310.857 374.949C320.343 374.553 329.732 376.979 337.839 381.919C345.945 386.86 352.405 394.094 356.4 402.705C361.743 414.255 362.286 427.453 357.911 439.403C353.535 451.353 344.598 461.08 333.06 466.449V466.449ZM297.707 390.251C291.248 393.247 285.823 398.092 282.118 404.172C278.412 410.252 276.593 417.294 276.89 424.408C277.187 431.522 279.586 438.388 283.785 444.138C287.984 449.888 293.794 454.264 300.48 456.712C307.166 459.16 314.428 459.571 321.347 457.892C328.267 456.213 334.533 452.52 339.353 447.279C344.174 442.039 347.332 435.487 348.429 428.452C349.525 421.417 348.511 414.215 345.515 407.756C341.488 399.102 334.193 392.399 325.231 389.118C316.268 385.836 306.37 386.243 297.707 390.251V390.251Z" fill="#3F3D56"/>
<path d="M462.356 290.266C463.04 291.452 463.346 292.82 463.236 294.197C463.127 295.574 462.606 296.898 461.74 298.003C460.874 299.107 459.701 299.942 458.371 300.402C457.04 300.861 455.611 300.925 454.264 300.585C452.917 300.245 451.713 299.517 450.803 298.491C449.893 297.466 449.319 296.191 449.154 294.826C448.988 293.461 449.238 292.068 449.872 290.824C450.505 289.579 451.495 288.538 452.715 287.832C453.525 287.361 454.418 287.051 455.343 286.918C456.267 286.786 457.204 286.834 458.1 287.06C458.996 287.286 459.833 287.686 460.564 288.236C461.294 288.786 461.903 289.476 462.356 290.266V290.266Z" fill="#6C63FF"/>
<path opacity="0.3" d="M462.356 290.266C463.04 291.452 463.346 292.82 463.236 294.197C463.127 295.574 462.606 296.898 461.74 298.003C460.874 299.107 459.701 299.942 458.371 300.402C457.04 300.861 455.611 300.925 454.264 300.585C452.917 300.245 451.713 299.517 450.803 298.491C449.893 297.466 449.319 296.191 449.154 294.826C448.988 293.461 449.238 292.068 449.872 290.824C450.505 289.579 451.495 288.538 452.715 287.832C453.525 287.361 454.418 287.051 455.343 286.918C456.267 286.786 457.204 286.834 458.1 287.06C458.996 287.286 459.833 287.686 460.564 288.236C461.294 288.786 461.903 289.476 462.356 290.266V290.266Z" fill="black"/>
<path d="M456.082 253.561C457.226 255.515 457.931 257.696 458.15 259.961C458.242 260.937 458.246 261.922 458.16 262.903C457.969 264.91 457.489 266.888 456.737 268.777C456.612 269.107 456.468 269.458 456.27 269.919C456.016 270.486 455.721 271.097 455.369 271.776C454.74 272.965 454.18 274.186 453.691 275.435C453.389 276.152 453.205 276.911 453.147 277.681C453.138 278.751 453.793 280.433 455.093 282.685L455.307 283.056L444.995 289.01L443.991 287.271C443.206 285.911 442.58 284.747 442.07 283.714C441.596 282.785 441.174 281.83 440.806 280.853C440.454 280.01 440.258 279.108 440.227 278.19C440.272 276.703 441.045 274.27 442.585 270.756C442.653 270.608 442.718 270.456 442.788 270.302C442.856 270.164 442.918 270.024 442.981 269.878C443.539 268.703 443.969 267.475 444.263 266.215C444.34 265.832 444.392 265.444 444.42 265.055L444.426 264.952C444.43 263.574 444.047 262.232 443.319 261.074C443.149 260.772 442.956 260.485 442.741 260.214C441.954 259.126 440.782 258.371 439.447 258.093C437.999 257.794 436.478 258.006 435.147 258.693C434.974 258.773 434.819 258.858 434.662 258.949C434.05 259.297 433.483 259.718 432.973 260.201C432.017 261.108 431.366 262.28 431.114 263.553C430.981 264.23 430.933 264.918 430.971 265.602C431.236 268.149 431.898 270.63 432.934 272.959L433.121 273.372L421.963 276.465L419.563 272.308C419.512 272.114 419.465 271.918 419.425 271.724C418.841 269.281 418.694 266.746 418.99 264.232C419.12 263.163 419.352 262.105 419.681 261.074C419.754 260.819 419.843 260.559 419.935 260.303C420.535 258.644 421.353 257.065 422.37 255.608L422.46 255.482C424.416 252.773 426.952 250.516 429.883 248.878C430.185 248.704 430.543 248.502 430.906 248.317C433.836 246.72 437.077 245.786 440.388 245.582C441.878 245.496 443.369 245.579 444.831 245.831C448.869 246.425 452.475 248.549 454.886 251.755C455.322 252.332 455.721 252.935 456.082 253.561Z" fill="#6C63FF"/>
<path opacity="0.3" d="M456.082 253.561C457.226 255.515 457.931 257.696 458.15 259.961C458.242 260.937 458.246 261.922 458.16 262.903C457.969 264.91 457.489 266.888 456.737 268.777C456.612 269.107 456.468 269.458 456.27 269.919C456.016 270.486 455.721 271.097 455.369 271.776C454.74 272.965 454.18 274.186 453.691 275.435C453.389 276.152 453.205 276.911 453.147 277.681C453.138 278.751 453.793 280.433 455.093 282.685L455.307 283.056L444.995 289.01L443.991 287.271C443.206 285.911 442.58 284.747 442.07 283.714C441.596 282.785 441.174 281.83 440.806 280.853C440.454 280.01 440.258 279.108 440.227 278.19C440.272 276.703 441.045 274.27 442.585 270.756C442.653 270.608 442.718 270.456 442.788 270.302C442.856 270.164 442.918 270.024 442.981 269.878C443.539 268.703 443.969 267.475 444.263 266.215C444.34 265.832 444.392 265.444 444.42 265.055L444.426 264.952C444.43 263.574 444.047 262.232 443.319 261.074C443.149 260.772 442.956 260.485 442.741 260.214C441.954 259.126 440.782 258.371 439.447 258.093C437.999 257.794 436.478 258.006 435.147 258.693C434.974 258.773 434.819 258.858 434.662 258.949C434.05 259.297 433.483 259.718 432.973 260.201C432.017 261.108 431.366 262.28 431.114 263.553C430.981 264.23 430.933 264.918 430.971 265.602C431.236 268.149 431.898 270.63 432.934 272.959L433.121 273.372L421.963 276.465L419.563 272.308C419.512 272.114 419.465 271.918 419.425 271.724C418.841 269.281 418.694 266.746 418.99 264.232C419.12 263.163 419.352 262.105 419.681 261.074C419.754 260.819 419.843 260.559 419.935 260.303C420.535 258.644 421.353 257.065 422.37 255.608L422.46 255.482C424.416 252.773 426.952 250.516 429.883 248.878C430.185 248.704 430.543 248.502 430.906 248.317C433.836 246.72 437.077 245.786 440.388 245.582C441.878 245.496 443.369 245.579 444.831 245.831C448.869 246.425 452.475 248.549 454.886 251.755C455.322 252.332 455.721 252.935 456.082 253.561Z" fill="black"/>
<path d="M517.085 286.379C517.084 287.748 516.665 289.086 515.881 290.224C515.098 291.362 513.984 292.248 512.682 292.772C511.38 293.295 509.947 293.432 508.565 293.164C507.183 292.897 505.913 292.238 504.917 291.27C503.92 290.302 503.241 289.069 502.966 287.726C502.691 286.384 502.832 284.992 503.371 283.727C503.909 282.463 504.822 281.381 505.994 280.62C507.165 279.859 508.542 279.452 509.952 279.451C510.889 279.449 511.818 279.626 512.684 279.973C513.551 280.321 514.338 280.831 515.001 281.475C515.664 282.119 516.189 282.883 516.547 283.725C516.904 284.567 517.087 285.469 517.085 286.379V286.379Z" fill="#6C63FF"/>
<path opacity="0.3" d="M517.085 286.379C517.084 287.748 516.665 289.086 515.881 290.224C515.098 291.362 513.984 292.248 512.682 292.772C511.38 293.295 509.947 293.432 508.565 293.164C507.183 292.897 505.913 292.238 504.917 291.27C503.92 290.302 503.241 289.069 502.966 287.726C502.691 286.384 502.832 284.992 503.371 283.727C503.909 282.463 504.822 281.381 505.994 280.62C507.165 279.859 508.542 279.452 509.952 279.451C510.889 279.449 511.818 279.626 512.684 279.973C513.551 280.321 514.338 280.831 515.001 281.475C515.664 282.119 516.189 282.883 516.547 283.725C516.904 284.567 517.087 285.469 517.085 286.379V286.379Z" fill="black"/>
<path d="M530.003 251.455C530.017 253.719 529.537 255.961 528.594 258.032C528.186 258.923 527.697 259.777 527.132 260.584C525.963 262.227 524.559 263.7 522.963 264.96C522.689 265.183 522.389 265.415 521.987 265.715C521.484 266.08 520.923 266.461 520.278 266.873C519.139 267.589 518.044 268.366 516.996 269.203C516.375 269.673 515.837 270.238 515.402 270.876C514.859 271.798 514.585 273.583 514.585 276.182V276.611H502.677V274.604C502.677 273.034 502.717 271.712 502.792 270.563C502.846 269.521 502.958 268.482 503.128 267.452C503.244 266.546 503.526 265.668 503.958 264.857C504.74 263.591 506.626 261.871 509.718 259.598C509.85 259.503 509.983 259.405 510.12 259.306C510.248 259.22 510.371 259.13 510.499 259.036C511.57 258.297 512.556 257.448 513.441 256.505C513.699 256.211 513.938 255.901 514.156 255.578L514.214 255.492C514.906 254.301 515.245 252.947 515.194 251.58C515.198 251.234 515.174 250.888 515.124 250.546C514.986 249.21 514.348 247.971 513.33 247.062C512.226 246.079 510.803 245.503 509.307 245.432C509.117 245.415 508.94 245.411 508.759 245.411C508.055 245.407 507.354 245.488 506.67 245.651C505.389 245.958 504.239 246.648 503.384 247.624C502.931 248.144 502.545 248.716 502.236 249.328C501.192 251.666 500.525 254.145 500.257 256.68L500.213 257.131L489.004 254.231V249.43C489.057 249.237 489.114 249.044 489.176 248.856C489.891 246.448 491.032 244.179 492.546 242.15C493.193 241.29 493.922 240.49 494.723 239.761C494.913 239.577 495.121 239.396 495.328 239.22C496.677 238.083 498.176 237.125 499.784 236.372L499.926 236.308C502.974 234.939 506.299 234.253 509.656 234.3C510.005 234.3 510.415 234.304 510.822 234.326C514.158 234.408 517.432 235.219 520.401 236.698C521.735 237.368 522.984 238.186 524.125 239.135C527.325 241.668 529.385 245.311 529.871 249.293C529.959 250.011 530.003 250.733 530.003 251.455Z" fill="#6C63FF"/>
<path opacity="0.3" d="M530.003 251.455C530.017 253.719 529.537 255.961 528.594 258.032C528.186 258.923 527.697 259.777 527.132 260.584C525.963 262.227 524.559 263.7 522.963 264.96C522.689 265.183 522.389 265.415 521.987 265.715C521.484 266.08 520.923 266.461 520.278 266.873C519.139 267.589 518.044 268.366 516.996 269.203C516.375 269.673 515.837 270.238 515.402 270.876C514.859 271.798 514.585 273.583 514.585 276.182V276.611H502.677V274.604C502.677 273.034 502.717 271.712 502.792 270.563C502.846 269.521 502.958 268.482 503.128 267.452C503.244 266.546 503.526 265.668 503.958 264.857C504.74 263.591 506.626 261.871 509.718 259.598C509.85 259.503 509.983 259.405 510.12 259.306C510.248 259.22 510.371 259.13 510.499 259.036C511.57 258.297 512.556 257.448 513.441 256.505C513.699 256.211 513.938 255.901 514.156 255.578L514.214 255.492C514.906 254.301 515.245 252.947 515.194 251.58C515.198 251.234 515.174 250.888 515.124 250.546C514.986 249.21 514.348 247.971 513.33 247.062C512.226 246.079 510.803 245.503 509.307 245.432C509.117 245.415 508.94 245.411 508.759 245.411C508.055 245.407 507.354 245.488 506.67 245.651C505.389 245.958 504.239 246.648 503.384 247.624C502.931 248.144 502.545 248.716 502.236 249.328C501.192 251.666 500.525 254.145 500.257 256.68L500.213 257.131L489.004 254.231V249.43C489.057 249.237 489.114 249.044 489.176 248.856C489.891 246.448 491.032 244.179 492.546 242.15C493.193 241.29 493.922 240.49 494.723 239.761C494.913 239.577 495.121 239.396 495.328 239.22C496.677 238.083 498.176 237.125 499.784 236.372L499.926 236.308C502.974 234.939 506.299 234.253 509.656 234.3C510.005 234.3 510.415 234.304 510.822 234.326C514.158 234.408 517.432 235.219 520.401 236.698C521.735 237.368 522.984 238.186 524.125 239.135C527.325 241.668 529.385 245.311 529.871 249.293C529.959 250.011 530.003 250.733 530.003 251.455Z" fill="black"/>
<path d="M558.775 305.847C558.089 307.032 557.058 307.981 555.81 308.575C554.563 309.168 553.155 309.379 551.766 309.182C550.376 308.984 549.067 308.386 548.004 307.463C546.941 306.541 546.171 305.335 545.792 303.998C545.413 302.662 545.441 301.254 545.874 299.954C546.307 298.654 547.125 297.519 548.224 296.693C549.323 295.867 550.654 295.387 552.049 295.314C553.444 295.24 554.84 295.577 556.061 296.28C556.874 296.747 557.59 297.365 558.167 298.099C558.744 298.833 559.171 299.669 559.423 300.558C559.675 301.447 559.747 302.372 559.636 303.279C559.525 304.187 559.232 305.06 558.775 305.847V305.847Z" fill="#6C63FF"/>
<path opacity="0.3" d="M558.775 305.847C558.089 307.032 557.058 307.981 555.81 308.575C554.563 309.168 553.155 309.379 551.766 309.182C550.376 308.984 549.067 308.386 548.004 307.463C546.941 306.541 546.171 305.335 545.792 303.998C545.413 302.662 545.441 301.254 545.874 299.954C546.307 298.654 547.125 297.519 548.224 296.693C549.323 295.867 550.654 295.387 552.049 295.314C553.444 295.24 554.84 295.577 556.061 296.28C556.874 296.747 557.59 297.365 558.167 298.099C558.744 298.833 559.171 299.669 559.423 300.558C559.675 301.447 559.747 302.372 559.636 303.279C559.525 304.187 559.232 305.06 558.775 305.847V305.847Z" fill="black"/>
<path d="M587.424 282.061C586.304 284.029 584.768 285.73 582.916 287.052C582.117 287.62 581.266 288.115 580.374 288.532C578.539 289.369 576.587 289.943 574.575 290.236C574.227 290.293 573.851 290.343 573.352 290.402C572.734 290.466 572.057 290.516 571.293 290.551C569.949 290.601 568.612 290.726 567.286 290.927C566.513 291.024 565.764 291.244 565.069 291.579C564.137 292.106 563.008 293.515 561.708 295.766L561.494 296.137L551.182 290.184L552.185 288.445C552.971 287.085 553.666 285.961 554.305 285.003C554.873 284.128 555.489 283.285 556.151 282.477C556.705 281.751 557.388 281.13 558.168 280.645C559.478 279.94 561.971 279.393 565.785 278.97C565.947 278.954 566.111 278.935 566.279 278.918C566.433 278.908 566.585 278.891 566.743 278.874C568.04 278.769 569.319 278.528 570.556 278.153C570.927 278.027 571.289 277.879 571.639 277.708L571.732 277.662C572.927 276.977 573.898 275.974 574.537 274.764C574.713 274.466 574.865 274.155 574.993 273.834C575.542 272.608 575.609 271.215 575.182 269.92C574.717 268.517 573.773 267.306 572.512 266.497C572.357 266.387 572.206 266.295 572.049 266.204C571.441 265.849 570.793 265.568 570.12 265.368C568.856 264.993 567.516 265.016 566.287 265.434C565.635 265.657 565.015 265.96 564.441 266.335C562.368 267.838 560.55 269.652 559.051 271.713L558.788 272.081L550.53 263.965L552.93 259.808C553.073 259.667 553.219 259.528 553.367 259.396C555.19 257.669 557.312 256.274 559.638 255.274C560.629 254.852 561.66 254.524 562.718 254.293C562.975 254.229 563.245 254.176 563.512 254.128C565.249 253.817 567.026 253.737 568.796 253.889L568.951 253.904C572.274 254.243 575.497 255.311 578.381 257.03C578.683 257.205 579.036 257.414 579.378 257.636C582.226 259.375 584.656 261.714 586.488 264.48C587.307 265.727 587.98 267.06 588.494 268.452C589.998 272.246 589.961 276.431 588.391 280.122C588.109 280.788 587.786 281.435 587.424 282.061Z" fill="#6C63FF"/>
<path opacity="0.3" d="M587.424 282.061C586.304 284.029 584.768 285.73 582.916 287.052C582.117 287.62 581.266 288.115 580.374 288.532C578.539 289.369 576.587 289.943 574.575 290.236C574.227 290.293 573.851 290.343 573.352 290.402C572.734 290.466 572.057 290.516 571.293 290.551C569.949 290.601 568.612 290.726 567.286 290.927C566.513 291.024 565.764 291.244 565.069 291.579C564.137 292.106 563.008 293.515 561.708 295.766L561.494 296.137L551.182 290.184L552.185 288.445C552.971 287.085 553.666 285.961 554.305 285.003C554.873 284.128 555.489 283.285 556.151 282.477C556.705 281.751 557.388 281.13 558.168 280.645C559.478 279.94 561.971 279.393 565.785 278.97C565.947 278.954 566.111 278.935 566.279 278.918C566.433 278.908 566.585 278.891 566.743 278.874C568.04 278.769 569.319 278.528 570.556 278.153C570.927 278.027 571.289 277.879 571.639 277.708L571.732 277.662C572.927 276.977 573.898 275.974 574.537 274.764C574.713 274.466 574.865 274.155 574.993 273.834C575.542 272.608 575.609 271.215 575.182 269.92C574.717 268.517 573.773 267.306 572.512 266.497C572.357 266.387 572.206 266.295 572.049 266.204C571.441 265.849 570.793 265.568 570.12 265.368C568.856 264.993 567.516 265.016 566.287 265.434C565.635 265.657 565.015 265.96 564.441 266.335C562.368 267.838 560.55 269.652 559.051 271.713L558.788 272.081L550.53 263.965L552.93 259.808C553.073 259.667 553.219 259.528 553.367 259.396C555.19 257.669 557.312 256.274 559.638 255.274C560.629 254.852 561.66 254.524 562.718 254.293C562.975 254.229 563.245 254.176 563.512 254.128C565.249 253.817 567.026 253.737 568.796 253.889L568.951 253.904C572.274 254.243 575.497 255.311 578.381 257.03C578.683 257.205 579.036 257.414 579.378 257.636C582.226 259.375 584.656 261.714 586.488 264.48C587.307 265.727 587.98 267.06 588.494 268.452C589.998 272.246 589.961 276.431 588.391 280.122C588.109 280.788 587.786 281.435 587.424 282.061Z" fill="black"/>
<path d="M255.773 218L230.657 204L205.542 218" stroke="white" stroke-width="4"/>
<path d="M240.611 235.14C238.444 235.577 236.763 236.526 234.993 238.319C233.666 239.66 232.885 240.775 232 242.552C231.278 244.028 230.776 245.384 230.452 246.786L230.187 247.871L222.136 247.916L214.071 247.962L212.891 248.369C210.4 249.242 210.989 248.7 195.404 264.61L180.999 279.298L180.395 280.579C178.95 283.577 179.127 287.073 180.837 289.784C181.765 291.246 200.167 309.913 201.465 310.711C204.119 312.323 207.303 312.428 210.164 310.997L211.418 310.38L225.793 295.66C236.587 284.632 240.302 280.745 240.671 280.097C240.936 279.614 241.363 278.635 241.629 277.912L242.086 276.586L242.13 265.587C242.174 254.981 242.159 254.559 241.879 253.61C241.466 252.254 240.685 250.974 239.697 250.025C238.783 249.166 236.778 248.037 236.571 248.277C236.247 248.638 236.07 250.838 235.981 255.493L235.893 260.465L235.466 261.264C234.964 262.168 234.212 262.936 233.284 263.433C232.753 263.719 232.429 263.78 231.249 263.78C230.07 263.78 229.745 263.719 229.215 263.433C228.286 262.936 227.534 262.168 227.033 261.264C226.649 260.54 226.605 260.329 226.605 259.034C226.605 257.482 226.797 256.925 227.667 255.87C228.109 255.328 229.259 254.515 229.584 254.515C229.731 254.515 229.775 255.072 229.775 257.09V259.666L230.203 260.103C230.807 260.706 231.692 260.721 232.282 260.118L232.695 259.696L232.768 254.875C232.857 249.783 232.99 248.532 233.756 246.242C235.186 241.903 237.9 238.905 240.981 238.227C244.284 237.503 247.793 239.763 249.814 243.922C253.117 250.686 252.026 260.117 247.396 264.682C246.894 265.18 246.246 265.722 245.951 265.888L245.405 266.189V267.878C245.405 269.023 245.464 269.581 245.567 269.581C245.921 269.581 247.779 268.466 248.678 267.712C254.856 262.5 256.655 251.004 252.585 242.688C251.318 240.067 249.194 237.611 247.16 236.391C245.212 235.231 242.676 234.733 240.611 235.14Z" fill="#550052"/>
<path d="M198.457 293.306C198.044 292.909 197.609 292.69 197.151 292.647C196.698 292.6 196.245 292.81 195.791 293.277L195.73 293.34L195.669 293.417C195.198 293.903 195.04 294.528 195.197 295.293C195.353 296.048 195.837 296.816 196.649 297.596L196.973 297.908C197.7 298.607 198.4 299.004 199.07 299.098C199.746 299.187 200.287 299.021 200.695 298.601L200.756 298.538C201.232 298.047 201.431 297.501 201.351 296.901C201.271 296.301 200.912 295.694 200.274 295.08C200.18 294.971 200.109 294.895 200.062 294.849L199.639 294.402L198.836 293.631L198.605 293.435C198.553 293.394 198.504 293.352 198.457 293.306ZM195.035 292.36C195.533 291.846 195.769 291.477 195.742 291.252C195.699 290.904 195.356 290.421 194.713 289.803C194.521 289.618 194.303 289.449 194.061 289.297C193.813 289.141 193.657 289.031 193.591 288.968C193.38 288.765 193.278 288.514 193.287 288.215C193.296 287.916 193.447 287.615 193.742 287.311L193.871 287.178C194.229 286.809 194.602 286.757 194.99 287.021C195.27 287.209 196.607 288.453 199.001 290.754L199.832 291.581L201.008 292.711L201.669 293.319C201.777 293.423 201.885 293.527 201.993 293.631L202.155 293.772C202.262 293.867 202.452 294.045 202.725 294.307C202.992 294.564 203.291 294.779 203.622 294.953C203.953 295.117 204.169 295.249 204.273 295.348C204.376 295.447 204.42 295.603 204.405 295.814C204.391 296.026 204.272 296.246 204.05 296.475C203.833 296.699 203.578 296.901 203.285 297.081C202.993 297.251 202.804 297.381 202.718 297.47C202.632 297.559 202.464 297.867 202.215 298.395C201.97 298.918 201.705 299.327 201.419 299.622L201.27 299.776C200.499 300.57 199.628 300.93 198.658 300.855C197.687 300.771 196.763 300.307 195.885 299.463L195.526 299.118C195.066 298.676 194.677 298.161 194.357 297.574C194.038 296.978 193.843 296.375 193.772 295.765C193.635 294.505 194.055 293.37 195.035 292.36ZM205.787 286.901C206.095 286.584 206.263 286.312 206.292 286.086C206.32 285.861 206.271 285.687 206.144 285.565L205.848 285.281C205.51 284.956 205.111 284.812 204.65 284.847C204.189 284.883 203.816 285.048 203.53 285.342L203.354 285.524C202.941 285.95 202.761 286.495 202.815 287.16C202.863 287.821 203.101 288.356 203.528 288.767L203.648 288.882C203.812 289.04 204.039 288.969 204.329 288.67L204.486 288.509L204.519 288.46L204.994 287.901L205.306 287.523L205.509 287.258C205.545 287.211 205.593 287.148 205.651 287.069C205.714 286.985 205.759 286.929 205.787 286.901ZM209.746 291.263L209.447 291.571C208.54 292.506 207.496 292.951 206.314 292.908C205.787 292.889 205.24 292.742 204.672 292.468C204.1 292.188 203.6 291.843 203.173 291.433L202.856 291.128C202.429 290.718 202.067 290.198 201.77 289.569C201.185 288.348 201.126 287.171 201.59 286.037C201.825 285.45 202.171 284.92 202.629 284.448L202.778 284.294C203.413 283.64 204.136 283.292 204.948 283.25C205.413 283.228 205.867 283.312 206.309 283.502C206.75 283.683 207.1 283.897 207.358 284.145C207.926 284.691 208.125 285.225 207.954 285.747C207.836 286.103 207.406 286.765 206.666 287.734C205.931 288.697 205.534 289.232 205.476 289.339C205.185 289.845 205.171 290.224 205.434 290.477C205.889 290.914 206.471 291.072 207.179 290.949C207.699 290.862 208.234 290.536 208.782 289.97C208.991 289.755 209.26 289.342 209.591 288.73C209.922 288.118 210.11 287.788 210.155 287.742C210.391 287.499 210.619 287.483 210.84 287.695C211.117 287.961 211.138 288.487 210.902 289.272C210.666 290.048 210.281 290.711 209.746 291.263ZM214.928 283.972L215.139 283.755C215.561 283.32 215.745 282.756 215.691 282.064C215.661 281.683 215.365 281.222 214.802 280.68L214.717 280.585L214.541 280.416C214.189 280.078 213.872 280.054 213.591 280.343L213.374 280.568L213.048 280.959L212.886 281.169C212.469 281.599 212.248 282.069 212.225 282.579C212.197 283.085 212.35 283.498 212.683 283.818L212.929 284.055C213.183 284.299 213.499 284.431 213.878 284.452C214.256 284.464 214.606 284.304 214.928 283.972ZM218.707 280.75C219.022 281.052 218.873 281.519 218.261 282.15C218.152 282.262 217.896 282.413 217.493 282.604C217.09 282.786 216.85 282.916 216.773 282.996C216.701 283.07 216.538 283.402 216.285 283.989C216.028 284.573 215.741 285.028 215.423 285.355L215.267 285.516C214.773 286.026 214.18 286.305 213.489 286.353C212.792 286.398 212.153 286.14 211.571 285.581C210.389 284.444 210.375 282.99 211.53 281.22C212.276 280.068 212.658 279.468 212.675 279.422C212.78 279.08 212.68 278.763 212.375 278.47C212.065 278.172 211.712 278.022 211.315 278.02C210.918 278.008 210.556 278.171 210.23 278.507C209.908 278.839 209.642 279.342 209.432 280.016C209.218 280.686 209.029 281.105 208.866 281.273C208.571 281.577 208.215 281.528 207.797 281.127C207.534 280.874 207.517 280.396 207.744 279.694C207.977 278.987 208.39 278.328 208.984 277.716L209.324 277.365C209.768 276.907 210.249 276.584 210.767 276.396C211.286 276.208 211.783 276.162 212.26 276.26C212.936 276.395 214.021 277.18 215.513 278.615C216.358 279.427 216.9 279.916 217.138 280.082C217.381 280.243 217.669 280.362 218.002 280.439C218.331 280.511 218.566 280.615 218.707 280.75ZM211.24 270.159C210.869 269.802 210.978 269.321 211.568 268.713L211.69 268.587C212.112 268.152 212.53 268.081 212.946 268.372L214.474 269.841L214.988 270.362L215.249 270.613L216.031 271.405L216.292 271.656L216.426 271.798C216.515 271.884 216.604 271.969 216.693 272.055L216.82 272.191C216.909 272.276 216.999 272.362 217.088 272.448L217.215 272.583L217.876 273.22L218.798 274.065C218.887 274.141 219.103 274.344 219.446 274.674C219.788 275.003 220.197 275.31 220.673 275.596C221.149 275.873 221.569 276.051 221.935 276.132C222.297 276.209 222.557 276.324 222.717 276.477C222.876 276.63 222.922 276.864 222.853 277.177C222.79 277.486 222.581 277.823 222.227 278.187L221.989 278.433C221.35 279.092 220.768 279.168 220.242 278.663C220.204 278.627 220.101 278.491 219.93 278.255C219.76 278.019 219.403 277.635 218.858 277.102L217.216 275.443L217.089 275.307C217 275.222 216.911 275.136 216.822 275.05L216.561 274.786C216.472 274.7 216.383 274.615 216.293 274.529L216.166 274.393C216.077 274.307 215.988 274.222 215.899 274.136L215.638 273.872C215.549 273.786 215.46 273.7 215.371 273.615L215.11 273.351L214.835 273.087L214.575 272.822L213.251 271.55C212.716 271.036 212.267 270.694 211.904 270.526C211.541 270.358 211.32 270.236 211.24 270.159ZM221.601 271.232C220.854 271.291 220.199 271.05 219.636 270.508C219.068 269.963 218.839 269.277 218.949 268.453C219.055 267.625 219.468 266.839 220.189 266.096C220.91 265.353 221.527 264.899 222.041 264.734C222.55 264.564 222.95 264.619 223.241 264.899C223.64 265.282 223.715 265.602 223.466 265.859C223.38 265.948 223.055 266.092 222.49 266.29C221.926 266.488 221.47 266.767 221.121 267.127C220.771 267.487 220.591 267.837 220.578 268.177C220.57 268.512 220.695 268.804 220.953 269.052C221.212 269.3 221.609 269.349 222.147 269.197C222.33 269.148 222.862 268.927 223.741 268.535C224.62 268.134 225.301 267.913 225.785 267.872C226.541 267.813 227.208 268.061 227.785 268.616C228.362 269.171 228.615 269.879 228.542 270.739C228.469 271.59 228.066 272.394 227.331 273.151C226.084 274.436 225.06 274.991 224.259 274.817C224.004 274.762 223.816 274.675 223.694 274.558C223.285 274.166 223.204 273.843 223.448 273.591C223.521 273.516 223.913 273.365 224.624 273.136C225.335 272.899 225.87 272.595 226.228 272.226C226.591 271.852 226.797 271.481 226.846 271.113C226.895 270.745 226.783 270.43 226.511 270.168C226.234 269.902 225.815 269.829 225.254 269.949C225.024 269.999 224.476 270.217 223.611 270.604C222.741 270.987 222.071 271.196 221.601 271.232Z" fill="white"/>
<path d="M93.5312 242.32C93.5156 242.32 93.4922 242.32 93.4609 242.32C91.6641 242.32 90.7656 241.703 90.7656 240.469C90.7656 239.875 90.9219 239.141 91.2344 238.266C91.5469 237.391 91.7266 236.508 91.7734 235.617C91.8203 234.711 91.8438 233.328 91.8438 231.469V227.086L91.8906 225.867C91.9219 225.055 91.9375 224.477 91.9375 224.133L91.7031 221.719C91.7031 221.172 92.1875 220.898 93.1562 220.898C94.1406 220.898 95.1484 221.164 96.1797 221.695C97.2109 222.227 97.8438 222.492 98.0781 222.492C98.3281 222.492 98.7891 222.336 99.4609 222.023C100.148 221.711 100.953 221.375 101.875 221.016C102.812 220.641 103.773 220.453 104.758 220.453H105.367C106.539 220.453 107.578 220.773 108.484 221.414C109.406 222.039 110.07 222.914 110.477 224.039C110.898 225.148 111.195 227.195 111.367 230.18L111.438 231.469L111.484 232.758C111.531 233.508 111.586 234.32 111.648 235.195C111.711 236.07 111.922 236.992 112.281 237.961C112.641 238.914 112.82 239.555 112.82 239.883C112.82 241.273 111.758 241.969 109.633 241.969C108.727 241.969 108.062 241.789 107.641 241.43C107.219 241.055 107.008 240.43 107.008 239.555L107.055 238.688C107.055 232.609 106.617 228.469 105.742 226.266C105.055 224.562 103.844 223.711 102.109 223.711C101.281 223.711 100.469 223.922 99.6719 224.344C98.8906 224.75 98.2812 225.414 97.8438 226.336C97.0625 227.977 96.6719 231.133 96.6719 235.805L96.8594 240.047C96.8594 240.719 96.5391 241.266 95.8984 241.688C95.2578 242.109 94.4688 242.32 93.5312 242.32ZM119.875 243.094H119.289C117.977 243.094 117.32 242.656 117.32 241.781C117.32 241.719 118.445 240.086 120.695 236.883C122.961 233.664 124.094 231.805 124.094 231.305C124.094 230.805 123.086 229.109 121.07 226.219C120.508 225.406 119.758 224.484 118.82 223.453C117.898 222.406 117.438 221.688 117.438 221.297C117.438 220.406 118.555 219.961 120.789 219.961C122.414 219.961 123.555 220.367 124.211 221.18C124.336 221.336 124.492 221.672 124.68 222.188C124.867 222.688 125.211 223.398 125.711 224.32C126.805 226.32 127.586 227.32 128.055 227.32C128.43 227.32 129.25 226.289 130.516 224.227C131.016 223.414 131.391 222.656 131.641 221.953C131.906 221.25 132.086 220.836 132.18 220.711C132.648 220.102 133.383 219.797 134.383 219.797C136.273 219.797 137.219 220.133 137.219 220.805C137.219 221.195 136.133 222.773 133.961 225.539C131.789 228.305 130.703 230.094 130.703 230.906C130.703 231.703 131.859 233.633 134.172 236.695C134.938 237.711 135.742 238.633 136.586 239.461C137.445 240.289 137.875 240.938 137.875 241.406C137.875 242.281 136.578 242.727 133.984 242.742C132.688 242.742 131.75 242.375 131.172 241.641C131.062 241.5 130.875 241.133 130.609 240.539C130.359 239.945 130.055 239.336 129.695 238.711C128.289 236.289 127.398 235.078 127.023 235.078C126.555 235.078 125.648 236.195 124.305 238.43C123.914 239.086 123.562 239.836 123.25 240.68C122.953 241.508 122.773 241.969 122.711 242.062C122.211 242.75 121.266 243.094 119.875 243.094ZM151.586 242.906H150.695C148.445 242.906 146.828 241.938 145.844 240C145.031 238.422 144.625 235.828 144.625 232.219C144.625 228.609 144.43 226.133 144.039 224.789C143.898 224.289 143.508 223.719 142.867 223.078C142.227 222.438 141.906 221.883 141.906 221.414V221.109C141.906 220.703 142.273 220.258 143.008 219.773C143.742 219.289 144.164 218.945 144.273 218.742C144.398 218.523 144.633 217.766 144.977 216.469C145.336 215.156 145.703 214.242 146.078 213.727C146.469 213.195 146.984 212.93 147.625 212.93C148.281 212.93 148.742 213.117 149.008 213.492C149.289 213.867 149.562 214.641 149.828 215.812C150.109 216.984 150.414 217.781 150.742 218.203C151.07 218.609 151.867 219.039 153.133 219.492C154.398 219.945 155.031 220.508 155.031 221.18C155.031 221.773 154.367 222.305 153.039 222.773C151.727 223.242 150.898 223.82 150.555 224.508C149.898 225.836 149.57 228.188 149.57 231.562C149.57 234.938 149.859 237.008 150.438 237.773C151.016 238.523 151.953 238.984 153.25 239.156C154.562 239.328 155.219 239.82 155.219 240.633C155.219 241.258 154.844 241.797 154.094 242.25C153.359 242.688 152.523 242.906 151.586 242.906ZM160.914 231.586C160.227 231.586 159.883 231.188 159.883 230.391V229.852C159.883 228.805 160.125 228.203 160.609 228.047C161.094 227.875 163.328 227.789 167.312 227.789L171.906 227.719H172.773C173.68 227.719 174.133 228.125 174.133 228.938V229.453C174.102 229.672 174.086 229.844 174.086 229.969C174.086 230.75 173.789 231.211 173.195 231.352C172.617 231.477 170.445 231.539 166.68 231.539H165.625L165.109 231.562H164.055L163.352 231.586H160.914ZM194.055 227.273C194.055 225.898 193.711 224.781 193.023 223.922C192.352 223.062 191.234 222.633 189.672 222.633H189.461L189.227 222.656C187.602 222.656 186.258 223.43 185.195 224.977C184.148 226.508 183.625 228.625 183.625 231.328V232.406C183.625 234.828 184.102 236.695 185.055 238.008C186.023 239.32 187.211 239.977 188.617 239.977H188.828C190.469 239.977 191.742 239.406 192.648 238.266C193.555 237.125 194.008 235.492 194.008 233.367C194.039 233.023 194.055 232.773 194.055 232.617L194.125 231.141V228.469L194.078 227.742C194.062 227.586 194.055 227.43 194.055 227.273ZM190 219.797C191.719 219.797 192.75 219.586 193.094 219.164C193.625 218.508 193.891 217.109 193.891 214.969C193.891 214.328 193.82 213.672 193.68 213C193.539 212.312 193.469 211.859 193.469 211.641C193.469 210.938 193.734 210.344 194.266 209.859C194.797 209.375 195.57 209.133 196.586 209.133H197.031C198.266 209.133 198.977 209.688 199.164 210.797C199.305 211.594 199.375 215.977 199.375 223.945L199.328 226.758V230.672L199.375 232.828C199.375 233.188 199.375 233.547 199.375 233.906L199.398 234.422C199.414 234.766 199.422 235.391 199.422 236.297C199.422 237.188 199.547 238.062 199.797 238.922C200.062 239.766 200.195 240.359 200.195 240.703C200.195 241.047 200 241.383 199.609 241.711C199.219 242.039 198.641 242.203 197.875 242.203C197.125 242.203 196.352 242.102 195.555 241.898C194.773 241.68 194.234 241.57 193.938 241.57C193.641 241.57 192.828 241.797 191.5 242.25C190.188 242.703 189.039 242.93 188.055 242.93H187.539C184.883 242.93 182.812 242.031 181.328 240.234C179.859 238.422 179.125 236.055 179.125 233.133V231.938C179.125 230.406 179.367 228.875 179.852 227.344C180.352 225.797 181.07 224.453 182.008 223.312C183.961 220.969 186.625 219.797 190 219.797ZM215.5 240.281H215.969C217.547 240.281 218.844 239.586 219.859 238.195C220.875 236.805 221.383 235.047 221.383 232.922L221.43 232.406L221.453 231.609V230.555C221.453 228.227 220.977 226.312 220.023 224.812C219.086 223.297 217.828 222.539 216.25 222.539H215.781C214.234 222.539 212.93 223.305 211.867 224.836C210.82 226.367 210.297 228.398 210.297 230.93V232.523C210.328 232.898 210.344 233.156 210.344 233.297C210.344 235.078 210.836 236.688 211.82 238.125C212.805 239.562 214.031 240.281 215.5 240.281ZM226.75 230.883V231.656C226.75 233.047 226.523 234.477 226.07 235.945C225.148 238.93 223.336 241.07 220.633 242.367C219.07 243.117 217.523 243.492 215.992 243.492H215.195C213.742 243.492 212.391 243.195 211.141 242.602C208.656 241.414 207.008 239.445 206.195 236.695C205.758 235.242 205.539 233.766 205.539 232.266V231.07C205.539 229.602 205.766 228.133 206.219 226.664C207.109 223.758 208.875 221.68 211.516 220.43C212.875 219.773 214.266 219.445 215.688 219.445H216.859C218.203 219.445 219.531 219.734 220.844 220.312C223.469 221.469 225.234 223.531 226.141 226.5C226.547 227.812 226.75 229.273 226.75 230.883ZM241.188 240.281H241.656C243.234 240.281 244.531 239.586 245.547 238.195C246.562 236.805 247.07 235.047 247.07 232.922L247.117 232.406L247.141 231.609V230.555C247.141 228.227 246.664 226.312 245.711 224.812C244.773 223.297 243.516 222.539 241.938 222.539H241.469C239.922 222.539 238.617 223.305 237.555 224.836C236.508 226.367 235.984 228.398 235.984 230.93V232.523C236.016 232.898 236.031 233.156 236.031 233.297C236.031 235.078 236.523 236.688 237.508 238.125C238.492 239.562 239.719 240.281 241.188 240.281ZM252.438 230.883V231.656C252.438 233.047 252.211 234.477 251.758 235.945C250.836 238.93 249.023 241.07 246.32 242.367C244.758 243.117 243.211 243.492 241.68 243.492H240.883C239.43 243.492 238.078 243.195 236.828 242.602C234.344 241.414 232.695 239.445 231.883 236.695C231.445 235.242 231.227 233.766 231.227 232.266V231.07C231.227 229.602 231.453 228.133 231.906 226.664C232.797 223.758 234.562 221.68 237.203 220.43C238.562 219.773 239.953 219.445 241.375 219.445H242.547C243.891 219.445 245.219 219.734 246.531 220.312C249.156 221.469 250.922 223.531 251.828 226.5C252.234 227.812 252.438 229.273 252.438 230.883ZM268.703 224.484C267.234 224.484 266.094 225.219 265.281 226.688C264.469 228.141 264.062 230.367 264.062 233.367C264.062 234.695 264.117 235.641 264.227 236.203C264.336 236.75 264.5 237.438 264.719 238.266C264.953 239.078 265.07 239.789 265.07 240.398C265.07 240.992 264.711 241.539 263.992 242.039C263.273 242.539 262.336 242.789 261.18 242.789L260.781 242.766H260.359C259.609 242.766 258.984 242.555 258.484 242.133C258 241.711 257.758 241.234 257.758 240.703V240.328C257.758 240.219 257.906 239.703 258.203 238.781C258.5 237.859 258.672 236.969 258.719 236.109C258.766 235.25 258.789 234.094 258.789 232.641V230.039L258.766 229.617C258.766 229.336 258.766 229.055 258.766 228.773L258.719 227.508C258.703 227.227 258.695 226.68 258.695 225.867C258.695 225.039 258.547 224.258 258.25 223.523C257.969 222.773 257.828 222.289 257.828 222.07C257.828 221.133 258.648 220.664 260.289 220.664C261.93 220.664 263.117 221.109 263.852 222C264.07 222.266 264.297 222.398 264.531 222.398C264.781 222.398 265.188 222.203 265.75 221.812C267.312 220.75 268.625 220.219 269.688 220.219H270.062C271 220.219 271.711 220.43 272.195 220.852C272.695 221.273 272.945 221.836 272.945 222.539C272.945 223.93 272.172 224.625 270.625 224.625C270.016 224.531 269.375 224.484 268.703 224.484Z" fill="white"/>
<line y1="-1.5" x2="6.01391" y2="-1.5" transform="matrix(0.708738 0.705472 -0.708738 0.705472 244.722 238)" stroke="#550052" stroke-width="3"/>
</g>
<defs>
<clipPath id="clip0">
<rect width="649.378" height="727.778" fill="white"/>
</clipPath>
</defs>
</svg>
