<svg width="500" height="500" viewBox="0 0 500 500" fill="none" xmlns="http://www.w3.org/2000/svg">
<g clip-path="url(#clip0)">
<path d="M279.413 118.819H276.334V43.5585C276.334 32.0061 271.191 20.9268 262.036 12.758C252.881 4.5892 240.464 -6.81878e-07 227.517 -1.52587e-05H48.8174C42.4067 -2.9694e-05 36.0586 1.12663 30.1358 3.31564C24.213 5.50465 18.8314 8.71313 14.2983 12.7579C9.76517 16.8027 6.1693 21.6045 3.71598 26.8893C1.26267 32.174 -4.68792e-05 37.8382 -6.10351e-05 43.5584V456.441C-6.7102e-05 462.162 1.26261 467.826 3.71591 473.111C6.16921 478.395 9.76509 483.197 14.2982 487.242C18.8313 491.287 24.2129 494.495 30.1357 496.684C36.0585 498.873 42.4065 500 48.8173 500H227.517C240.464 500 252.881 495.411 262.036 487.242C271.191 479.073 276.334 467.994 276.334 456.442V172.39H279.413V118.819Z" fill="#908FD3"/>
<path d="M229.486 11.3324H206.16C207.233 13.6791 207.642 16.2251 207.353 18.7462C207.063 21.2673 206.083 23.6861 204.498 25.7895C202.914 27.8929 200.774 29.6165 198.268 30.8082C195.761 32 192.964 32.6234 190.124 32.6236H87.7495C84.9092 32.6234 82.1125 32 79.6059 30.8082C77.0992 29.6165 74.9595 27.8929 73.3752 25.7895C71.7909 23.686 70.8107 21.2672 70.5209 18.7461C70.2311 16.225 70.6405 13.679 71.7133 11.3324H49.9266C40.2578 11.3324 30.985 14.7595 24.1481 20.8599C17.3112 26.9603 13.4703 35.2341 13.4703 43.8614V456.139C13.4703 464.766 17.3112 473.04 24.1481 479.14C30.9849 485.241 40.2577 488.668 49.9265 488.668H229.486C234.274 488.668 239.015 487.826 243.438 486.192C247.861 484.557 251.88 482.161 255.265 479.14C258.65 476.12 261.336 472.534 263.168 468.587C265 464.64 265.943 460.41 265.943 456.139V456.139V43.8614C265.943 39.5896 265 35.3597 263.168 31.4131C261.336 27.4665 258.65 23.8805 255.265 20.8599C251.88 17.8393 247.861 15.4433 243.438 13.8085C239.015 12.1738 234.274 11.3324 229.486 11.3324V11.3324Z" fill="#3F3D56"/>
<path d="M251.126 335.143H35.8285C34.7714 335.142 33.7581 334.766 33.0106 334.099C32.2632 333.433 31.8428 332.528 31.8416 331.585V283.933C31.8428 282.989 32.2632 282.085 33.0106 281.418C33.7581 280.751 34.7714 280.376 35.8285 280.375H251.126C252.183 280.376 253.196 280.751 253.944 281.418C254.691 282.085 255.112 282.989 255.113 283.933V331.586C255.112 332.529 254.691 333.433 253.944 334.1C253.196 334.766 252.183 335.142 251.126 335.143V335.143ZM35.8285 281.798C35.1942 281.799 34.586 282.024 34.1375 282.424C33.689 282.824 33.4368 283.367 33.4362 283.933V331.586C33.4368 332.152 33.689 332.694 34.1375 333.095C34.586 333.495 35.1942 333.72 35.8285 333.72H251.126C251.76 333.72 252.368 333.495 252.817 333.095C253.265 332.694 253.518 332.152 253.518 331.586V283.933C253.518 283.367 253.265 282.824 252.817 282.424C252.368 282.024 251.76 281.799 251.126 281.798H35.8285Z" fill="#908FD3"/>
<path d="M63.7367 322.7C72.9849 322.7 80.482 316.01 80.482 307.759C80.482 299.507 72.9849 292.817 63.7367 292.817C54.4886 292.817 46.9915 299.507 46.9915 307.759C46.9915 316.01 54.4886 322.7 63.7367 322.7Z" fill="#908FD3"/>
<path d="M102.411 297.798C101.679 297.809 100.98 298.076 100.467 298.542C99.9536 299.008 99.6658 299.635 99.6658 300.288C99.6658 300.942 99.9536 301.569 100.467 302.035C100.98 302.5 101.679 302.768 102.411 302.778H233.981C234.721 302.791 235.437 302.541 235.97 302.083C236.504 301.625 236.811 300.997 236.826 300.336C236.84 299.676 236.56 299.038 236.046 298.562C235.533 298.086 234.829 297.811 234.089 297.798L234.073 297.798C234.042 297.798 234.012 297.798 233.981 297.798H102.411Z" fill="#908FD3"/>
<path d="M102.411 312.739C101.679 312.75 100.98 313.017 100.467 313.483C99.9536 313.949 99.6658 314.576 99.6658 315.23C99.6658 315.883 99.9536 316.51 100.467 316.976C100.98 317.442 101.679 317.709 102.411 317.72H233.981C234.72 317.729 235.433 317.476 235.963 317.017C236.494 316.558 236.799 315.93 236.811 315.27C236.823 314.611 236.541 313.974 236.028 313.5C235.515 313.025 234.812 312.752 234.073 312.739C234.042 312.739 234.012 312.739 233.981 312.739H102.411Z" fill="#908FD3"/>
<path d="M251.126 414.83H35.8285C34.7714 414.829 33.7581 414.454 33.0106 413.787C32.2632 413.12 31.8428 412.216 31.8416 411.273V363.62C31.8428 362.677 32.2632 361.773 33.0106 361.106C33.7581 360.439 34.7714 360.064 35.8285 360.063H251.126C252.183 360.064 253.196 360.439 253.944 361.106C254.691 361.773 255.112 362.677 255.113 363.62V411.274C255.112 412.217 254.691 413.121 253.944 413.787C253.196 414.454 252.183 414.829 251.126 414.83V414.83ZM35.8285 361.486C35.1942 361.486 34.586 361.711 34.1375 362.112C33.689 362.512 33.4368 363.054 33.4362 363.62V411.274C33.4368 411.84 33.689 412.382 34.1375 412.782C34.586 413.183 35.1942 413.408 35.8285 413.408H251.126C251.76 413.408 252.368 413.183 252.817 412.782C253.265 412.382 253.518 411.84 253.518 411.274V363.62C253.518 363.054 253.265 362.512 252.817 362.112C252.368 361.711 251.76 361.486 251.126 361.486H35.8285Z" fill="#908FD3"/>
<path d="M63.7367 402.388C72.9849 402.388 80.482 395.698 80.482 387.446C80.482 379.195 72.9849 372.505 63.7367 372.505C54.4886 372.505 46.9915 379.195 46.9915 387.446C46.9915 395.698 54.4886 402.388 63.7367 402.388Z" fill="#908FD3"/>
<path d="M102.411 377.486C101.679 377.497 100.98 377.764 100.467 378.23C99.9536 378.696 99.6658 379.323 99.6658 379.976C99.6658 380.629 99.9536 381.257 100.467 381.722C100.98 382.188 101.679 382.455 102.411 382.466H233.981C234.72 382.475 235.433 382.223 235.963 381.763C236.494 381.304 236.799 380.676 236.811 380.017C236.823 379.357 236.541 378.721 236.028 378.246C235.515 377.772 234.812 377.498 234.073 377.486C234.042 377.485 234.012 377.485 233.981 377.486H102.411Z" fill="#908FD3"/>
<path d="M102.411 392.427C101.679 392.438 100.98 392.705 100.467 393.171C99.9536 393.637 99.6658 394.264 99.6658 394.917C99.6658 395.571 99.9536 396.198 100.467 396.664C100.98 397.13 101.679 397.397 102.411 397.408H233.981C234.72 397.417 235.433 397.164 235.963 396.705C236.494 396.246 236.799 395.617 236.811 394.958C236.823 394.299 236.541 393.662 236.028 393.188C235.515 392.713 234.812 392.44 234.073 392.427C234.042 392.427 234.012 392.427 233.981 392.427H102.411Z" fill="#908FD3"/>
<path d="M139.745 237.023C118.823 237.031 98.7552 229.514 83.9554 216.125C69.1556 202.737 60.8362 184.574 60.8275 165.632V165.573C60.8275 165.423 60.8274 165.266 60.8371 165.116C61.0777 125.987 96.4775 94.1221 139.745 94.1221C160.675 94.1199 180.749 101.646 195.55 115.044C210.352 128.442 218.668 146.614 218.671 165.564C218.673 184.514 210.361 202.688 195.563 216.089C180.765 229.49 160.693 237.02 139.763 237.022H139.745V237.023ZM139.745 95.6247C119.348 95.666 99.7939 102.993 85.3301 116.013C70.8663 129.033 62.6618 146.695 62.4991 165.161C62.4903 165.321 62.4903 165.452 62.4903 165.571C62.4884 179.406 67.0181 192.932 75.5065 204.437C83.995 215.942 96.061 224.909 110.179 230.206C124.296 235.502 139.832 236.889 154.82 234.192C169.809 231.494 183.577 224.833 194.384 215.051C205.191 205.269 212.552 192.805 215.535 179.235C218.518 165.666 216.99 151.6 211.144 138.817C205.297 126.034 195.396 115.107 182.69 107.419C169.985 99.7309 155.047 95.6264 139.766 95.6247H139.745V95.6247Z" fill="#908FD3"/>
<path d="M242.628 317.983C259.637 317.983 273.426 305.679 273.426 290.502C273.426 275.325 259.637 263.021 242.628 263.021C225.618 263.021 211.829 275.325 211.829 290.502C211.829 305.679 225.618 317.983 242.628 317.983Z" fill="white"/>
<path d="M231.931 302.866C231.878 302.866 231.825 302.865 231.772 302.864H215.218C213.117 302.835 211.114 302.069 209.64 300.734C208.166 299.398 207.34 297.599 207.339 295.725C207.338 293.85 208.163 292.051 209.636 290.714C211.108 289.377 213.111 288.611 215.212 288.579H231.78C231.861 288.578 231.949 288.578 232.037 288.579C234.15 288.605 236.166 289.376 237.645 290.723C239.124 292.07 239.946 293.884 239.932 295.769C239.918 297.655 239.069 299.459 237.57 300.789C236.071 302.118 234.044 302.865 231.931 302.866V302.866Z" fill="#EA71CF"/>
<path d="M500 498.328H250.505V499.867H500V498.328Z" fill="#3F3D56"/>
<path d="M265.877 368.059C265.681 367.787 265.519 367.497 265.392 367.194L261.417 357.695C260.954 356.586 261.003 355.358 261.554 354.28C262.105 353.203 263.112 352.365 264.354 351.949L353.087 322.386C354.331 321.973 355.707 322.016 356.914 322.508C358.122 322.999 359.061 323.898 359.526 325.007L363.502 334.506C363.732 335.056 363.838 335.64 363.815 336.226C363.792 336.812 363.639 337.389 363.366 337.922C363.094 338.456 362.706 338.936 362.225 339.336C361.744 339.735 361.18 340.047 360.564 340.252L271.832 369.816C270.763 370.171 269.591 370.191 268.508 369.872C267.426 369.552 266.498 368.913 265.877 368.059Z" fill="#876792"/>
<path d="M352.805 319.931L316.722 332.769C315.585 333.075 314.623 333.759 314.036 334.68C313.449 335.601 313.282 336.688 313.57 337.716L317.758 352.676C317.923 353.267 318.233 353.818 318.666 354.289C319.098 354.76 319.643 355.14 320.259 355.401C320.876 355.662 321.55 355.798 322.233 355.799C322.915 355.8 323.59 355.666 324.207 355.406L360.39 340.21C361.536 339.827 362.465 339.053 362.974 338.06C363.482 337.066 363.529 335.933 363.104 334.909L358.754 322.353C358.324 321.328 357.456 320.498 356.341 320.044C355.226 319.59 353.954 319.549 352.805 319.931V319.931Z" fill="#2F2E41"/>
<path d="M418.839 413.134C417.706 413.25 416.563 413.017 415.598 412.475C414.633 411.933 413.904 411.113 413.532 410.152L382.646 330.258C382.431 329.704 382.341 329.117 382.381 328.532C382.421 327.947 382.589 327.374 382.877 326.847C383.165 326.32 383.566 325.848 384.058 325.459C384.55 325.07 385.123 324.772 385.745 324.581L396.488 321.274C397.743 320.888 399.117 320.963 400.311 321.482C401.504 322 402.417 322.92 402.851 324.039L433.738 403.933C434.169 405.053 434.085 406.279 433.504 407.344C432.923 408.408 431.892 409.223 430.638 409.611L419.895 412.917C419.553 413.023 419.199 413.095 418.839 413.134Z" fill="#876792"/>
<path d="M405.153 322.672L417.007 355.68C417.467 356.657 417.487 357.754 417.064 358.744C416.641 359.734 415.807 360.541 414.735 360.996L399.135 367.631C398.519 367.893 397.846 368.03 397.163 368.032C396.48 368.034 395.806 367.901 395.187 367.643C394.569 367.384 394.023 367.007 393.588 366.537C393.153 366.068 392.84 365.519 392.671 364.928L382.792 330.352C382.395 329.319 382.472 328.187 383.008 327.205C383.544 326.222 384.494 325.469 385.65 325.111L399.274 320.117C400.433 319.761 401.703 319.831 402.806 320.309C403.908 320.788 404.752 321.638 405.153 322.672V322.672Z" fill="#2F2E41"/>
<path d="M369.261 498.781H357.897C356.57 498.779 355.298 498.308 354.359 497.471C353.421 496.634 352.893 495.499 352.892 494.315V409.801C352.893 408.617 353.421 407.482 354.359 406.645C355.298 405.808 356.57 405.337 357.897 405.335H369.261C370.588 405.337 371.86 405.808 372.798 406.645C373.736 407.482 374.264 408.617 374.266 409.801V494.315C374.264 495.499 373.736 496.634 372.798 497.471C371.86 498.308 370.588 498.779 369.261 498.781Z" fill="#2F2E41"/>
<path d="M391.738 498.781H380.373C379.047 498.779 377.774 498.308 376.836 497.471C375.898 496.634 375.37 495.499 375.369 494.315V409.801C375.37 408.617 375.898 407.482 376.836 406.645C377.774 405.808 379.047 405.337 380.373 405.335H391.738C393.065 405.337 394.337 405.808 395.275 406.645C396.213 407.482 396.741 408.617 396.743 409.801V494.315C396.741 495.499 396.213 496.634 395.275 497.471C394.337 498.308 393.065 498.779 391.738 498.781Z" fill="#2F2E41"/>
<path d="M401.104 419.737H349.468C348.039 419.735 346.669 419.228 345.658 418.327C344.648 417.425 344.079 416.203 344.078 414.928V340.081C344.078 332.695 347.366 325.613 353.218 320.391C359.071 315.168 367.009 312.235 375.286 312.235C383.562 312.235 391.5 315.168 397.353 320.391C403.205 325.613 406.493 332.695 406.493 340.081V414.928C406.492 416.203 405.923 417.425 404.913 418.327C403.903 419.228 402.533 419.735 401.104 419.737Z" fill="#CCCCCC"/>
<path d="M408.876 438.046H382.697V306.031L383.183 306.149C390.556 307.955 397.062 311.869 401.703 317.29C406.343 322.712 408.863 329.342 408.876 336.164V438.046Z" fill="#2F2E41"/>
<path d="M365.746 438.046H339.567V336.164C339.58 329.342 342.1 322.712 346.741 317.29C351.382 311.869 357.887 307.955 365.26 306.149L365.746 306.031V438.046Z" fill="#2F2E41"/>
<path d="M374.895 312.554C397.654 312.554 416.103 296.092 416.103 275.785C416.103 255.478 397.654 239.016 374.895 239.016C352.136 239.016 333.687 255.478 333.687 275.785C333.687 296.092 352.136 312.554 374.895 312.554Z" fill="#876792"/>
<path d="M421.484 267.32C421.484 267.32 423.794 210.297 393.765 228.847C393.765 228.847 376.441 176.976 334.092 254.61L321.773 265.602C321.773 265.602 377.211 258.732 428.798 280.03L421.484 267.32Z" fill="#2F2E41"/>
<path d="M361.857 271.959H353.563V273.333H361.857V271.959Z" fill="#2F2E41"/>
<path d="M388.036 271.959H379.742V273.333H388.036V271.959Z" fill="#2F2E41"/>
<path d="M283.018 371.564C281.906 372.025 280.636 372.072 279.485 371.696C278.335 371.32 277.398 370.552 276.883 369.56L250.31 318.457C249.795 317.465 249.742 316.331 250.163 315.305C250.585 314.278 251.446 313.443 252.557 312.983C253.668 312.523 254.939 312.476 256.09 312.851C257.24 313.227 258.176 313.995 258.692 314.987L285.264 366.09C285.78 367.082 285.833 368.216 285.412 369.243C284.99 370.269 284.129 371.104 283.018 371.564Z" fill="#3F3D56"/>
<path d="M255.717 316.576C254.9 316.576 254.117 316.287 253.539 315.771C252.962 315.256 252.637 314.557 252.637 313.828V278.822H214.139C213.322 278.822 212.539 278.533 211.961 278.018C211.383 277.502 211.059 276.803 211.059 276.074C211.059 275.346 211.383 274.647 211.961 274.131C212.539 273.616 213.322 273.326 214.139 273.326H255.717C256.534 273.326 257.317 273.616 257.895 274.131C258.472 274.647 258.797 275.346 258.797 276.074V313.828C258.797 314.557 258.472 315.256 257.895 315.771C257.317 316.287 256.534 316.576 255.717 316.576V316.576Z" fill="#EA71CF"/>
<path d="M256.445 320.461C249.815 323.206 242.42 324.135 235.198 323.13C227.976 322.126 221.249 319.232 215.869 314.817C210.49 310.401 206.698 304.661 204.975 298.323C203.251 291.985 203.672 285.333 206.186 279.208C208.699 273.083 213.191 267.761 219.095 263.915C224.998 260.068 232.047 257.87 239.35 257.598C246.653 257.326 253.883 258.993 260.125 262.387C266.367 265.782 271.34 270.751 274.417 276.668C278.531 284.603 278.949 293.67 275.58 301.88C272.211 310.09 265.329 316.772 256.445 320.461V320.461ZM229.225 268.111C224.252 270.17 220.075 273.498 217.221 277.675C214.368 281.852 212.968 286.69 213.196 291.578C213.425 296.465 215.272 301.182 218.505 305.133C221.739 309.083 226.212 312.09 231.36 313.772C236.508 315.453 242.099 315.736 247.427 314.582C252.755 313.429 257.58 310.891 261.291 307.291C265.003 303.691 267.434 299.19 268.279 294.356C269.123 289.523 268.343 284.575 266.035 280.137C262.935 274.192 257.318 269.587 250.417 267.333C243.516 265.078 235.895 265.358 229.225 268.111V268.111Z" fill="#3F3D56"/>
<path d="M355.88 199.485C356.43 200.312 356.696 201.261 356.644 202.211C356.592 203.16 356.225 204.068 355.59 204.82C354.954 205.572 354.077 206.134 353.072 206.434C352.066 206.735 350.975 206.761 349.938 206.509C348.901 206.257 347.964 205.738 347.245 205.019C346.526 204.3 346.057 203.411 345.899 202.467C345.74 201.522 345.898 200.563 346.354 199.712C346.809 198.86 347.54 198.154 348.456 197.682C349.064 197.367 349.739 197.164 350.442 197.084C351.145 197.004 351.862 197.049 352.552 197.217C353.242 197.384 353.891 197.671 354.462 198.06C355.033 198.449 355.515 198.933 355.88 199.485V199.485Z" fill="#6C63FF"/>
<path opacity="0.3" d="M355.88 199.485C356.43 200.312 356.696 201.261 356.644 202.211C356.592 203.16 356.225 204.068 355.59 204.82C354.954 205.572 354.077 206.134 353.072 206.434C352.066 206.735 350.975 206.761 349.938 206.509C348.901 206.257 347.964 205.738 347.245 205.019C346.526 204.3 346.057 203.411 345.899 202.467C345.74 201.522 345.898 200.563 346.354 199.712C346.809 198.86 347.54 198.154 348.456 197.682C349.064 197.367 349.739 197.164 350.442 197.084C351.145 197.004 351.862 197.049 352.552 197.217C353.242 197.384 353.891 197.671 354.462 198.06C355.033 198.449 355.515 198.933 355.88 199.485V199.485Z" fill="black"/>
<path d="M350.743 174.358C351.661 175.721 352.25 177.236 352.471 178.801C352.564 179.476 352.59 180.156 352.547 180.832C352.448 182.215 352.129 183.574 351.599 184.868C351.511 185.094 351.409 185.335 351.268 185.65C351.088 186.039 350.877 186.457 350.624 186.921C350.172 187.734 349.773 188.57 349.429 189.425C349.215 189.916 349.093 190.438 349.067 190.968C349.085 191.707 349.624 192.876 350.669 194.447L350.841 194.706L343.109 198.685L342.302 197.472C341.671 196.523 341.166 195.712 340.753 194.992C340.369 194.345 340.025 193.68 339.721 193.001C339.432 192.415 339.262 191.79 339.217 191.156C339.216 190.131 339.749 188.461 340.843 186.055C340.891 185.954 340.937 185.85 340.987 185.744C341.035 185.65 341.079 185.554 341.124 185.454C341.523 184.65 341.822 183.808 342.017 182.942C342.067 182.679 342.098 182.412 342.109 182.144L342.112 182.073C342.083 181.122 341.759 180.19 341.177 179.382C341.04 179.172 340.885 178.971 340.715 178.781C340.089 178.02 339.176 177.484 338.151 177.276C337.039 177.051 335.883 177.178 334.883 177.635C334.753 177.688 334.636 177.745 334.519 177.805C334.06 178.038 333.637 178.322 333.259 178.649C332.55 179.262 332.081 180.063 331.918 180.939C331.833 181.404 331.812 181.878 331.857 182.351C332.119 184.112 332.682 185.833 333.527 187.454L333.68 187.741L325.235 189.734L323.306 186.835C323.263 186.7 323.223 186.565 323.187 186.43C322.684 184.737 322.512 182.985 322.68 181.254C322.754 180.517 322.906 179.79 323.134 179.083C323.183 178.908 323.245 178.73 323.309 178.554C323.728 177.416 324.316 176.337 325.058 175.344L325.124 175.258C326.553 173.413 328.437 171.888 330.635 170.794C330.862 170.678 331.13 170.543 331.403 170.42C333.602 169.355 336.054 168.751 338.577 168.652C339.712 168.612 340.852 168.688 341.974 168.88C345.07 169.341 347.872 170.853 349.788 173.096C350.133 173.5 350.452 173.922 350.743 174.358Z" fill="#6C63FF"/>
<path opacity="0.3" d="M350.743 174.358C351.661 175.721 352.25 177.236 352.471 178.801C352.564 179.476 352.59 180.156 352.547 180.832C352.448 182.215 352.129 183.574 351.599 184.868C351.511 185.094 351.409 185.335 351.268 185.65C351.088 186.039 350.877 186.457 350.624 186.921C350.172 187.734 349.773 188.57 349.429 189.425C349.215 189.916 349.093 190.438 349.067 190.968C349.085 191.707 349.624 192.876 350.669 194.447L350.841 194.706L343.109 198.685L342.302 197.472C341.671 196.523 341.166 195.712 340.753 194.992C340.369 194.345 340.025 193.68 339.721 193.001C339.432 192.415 339.262 191.79 339.217 191.156C339.216 190.131 339.749 188.461 340.843 186.055C340.891 185.954 340.937 185.85 340.987 185.744C341.035 185.65 341.079 185.554 341.124 185.454C341.523 184.65 341.822 183.808 342.017 182.942C342.067 182.679 342.098 182.412 342.109 182.144L342.112 182.073C342.083 181.122 341.759 180.19 341.177 179.382C341.04 179.172 340.885 178.971 340.715 178.781C340.089 178.02 339.176 177.484 338.151 177.276C337.039 177.051 335.883 177.178 334.883 177.635C334.753 177.688 334.636 177.745 334.519 177.805C334.06 178.038 333.637 178.322 333.259 178.649C332.55 179.262 332.081 180.063 331.918 180.939C331.833 181.404 331.812 181.878 331.857 182.351C332.119 184.112 332.682 185.833 333.527 187.454L333.68 187.741L325.235 189.734L323.306 186.835C323.263 186.7 323.223 186.565 323.187 186.43C322.684 184.737 322.512 182.985 322.68 181.254C322.754 180.517 322.906 179.79 323.134 179.083C323.183 178.908 323.245 178.73 323.309 178.554C323.728 177.416 324.316 176.337 325.058 175.344L325.124 175.258C326.553 173.413 328.437 171.888 330.635 170.794C330.862 170.678 331.13 170.543 331.403 170.42C333.602 169.355 336.054 168.751 338.577 168.652C339.712 168.612 340.852 168.688 341.974 168.88C345.07 169.341 347.872 170.853 349.788 173.096C350.133 173.5 350.452 173.922 350.743 174.358Z" fill="black"/>
<path d="M398.138 196.749C398.138 197.69 397.815 198.609 397.212 199.39C396.608 200.172 395.751 200.781 394.749 201.141C393.746 201.5 392.643 201.594 391.579 201.411C390.514 201.227 389.537 200.774 388.77 200.109C388.002 199.444 387.48 198.597 387.268 197.675C387.056 196.752 387.164 195.796 387.579 194.927C387.994 194.058 388.697 193.315 389.599 192.792C390.501 192.27 391.561 191.99 392.646 191.989C393.368 191.988 394.083 192.11 394.75 192.348C395.418 192.587 396.024 192.937 396.534 193.38C397.045 193.822 397.449 194.347 397.724 194.926C398 195.504 398.14 196.124 398.138 196.749V196.749Z" fill="#6C63FF"/>
<path opacity="0.3" d="M398.138 196.749C398.138 197.69 397.815 198.609 397.212 199.39C396.608 200.172 395.751 200.781 394.749 201.141C393.746 201.5 392.643 201.594 391.579 201.411C390.514 201.227 389.537 200.774 388.77 200.109C388.002 199.444 387.48 198.597 387.268 197.675C387.056 196.752 387.164 195.796 387.579 194.927C387.994 194.058 388.697 193.315 389.599 192.792C390.501 192.27 391.561 191.99 392.646 191.989C393.368 191.988 394.083 192.11 394.75 192.348C395.418 192.587 396.024 192.937 396.534 193.38C397.045 193.822 397.449 194.347 397.724 194.926C398 195.504 398.14 196.124 398.138 196.749V196.749Z" fill="black"/>
<path d="M408.085 172.756C408.096 174.311 407.726 175.851 407.001 177.274C406.686 177.886 406.31 178.473 405.875 179.027C404.974 180.156 403.893 181.168 402.665 182.034C402.454 182.187 402.223 182.346 401.913 182.552C401.525 182.803 401.094 183.065 400.597 183.348C399.72 183.839 398.877 184.374 398.07 184.948C397.592 185.271 397.177 185.66 396.843 186.098C396.424 186.731 396.214 187.958 396.214 189.744V190.038H387.045V188.659C387.045 187.58 387.076 186.673 387.134 185.883C387.175 185.167 387.262 184.454 387.392 183.746C387.482 183.123 387.698 182.52 388.032 181.963C388.633 181.093 390.086 179.912 392.466 178.349C392.568 178.285 392.67 178.217 392.776 178.149C392.874 178.09 392.969 178.028 393.068 177.963C393.893 177.456 394.652 176.873 395.333 176.224C395.532 176.023 395.716 175.81 395.884 175.588L395.928 175.529C396.461 174.711 396.722 173.78 396.683 172.841C396.685 172.603 396.667 172.366 396.629 172.131C396.523 171.213 396.031 170.361 395.248 169.738C394.398 169.062 393.302 168.666 392.15 168.618C392.004 168.606 391.868 168.603 391.728 168.603C391.186 168.6 390.646 168.656 390.12 168.768C389.133 168.979 388.248 169.453 387.59 170.124C387.24 170.481 386.944 170.874 386.705 171.294C385.902 172.9 385.388 174.604 385.182 176.345L385.148 176.655L376.517 174.662V171.364C376.558 171.232 376.602 171.099 376.65 170.969C377.201 169.315 378.078 167.757 379.244 166.363C379.743 165.771 380.304 165.222 380.921 164.721C381.067 164.595 381.227 164.471 381.387 164.35C382.425 163.569 383.579 162.91 384.818 162.393L384.927 162.349C387.273 161.409 389.834 160.937 392.418 160.969C392.687 160.969 393.003 160.972 393.316 160.987C395.885 161.044 398.406 161.601 400.692 162.617C401.719 163.078 402.681 163.639 403.559 164.291C406.023 166.032 407.609 168.534 407.983 171.27C408.051 171.763 408.086 172.259 408.085 172.756Z" fill="#6C63FF"/>
<path opacity="0.3" d="M408.085 172.756C408.096 174.311 407.726 175.851 407.001 177.274C406.686 177.886 406.31 178.473 405.875 179.027C404.974 180.156 403.893 181.168 402.665 182.034C402.454 182.187 402.223 182.346 401.913 182.552C401.525 182.803 401.094 183.065 400.597 183.348C399.72 183.839 398.877 184.374 398.07 184.948C397.592 185.271 397.177 185.66 396.843 186.098C396.424 186.731 396.214 187.958 396.214 189.744V190.038H387.045V188.659C387.045 187.58 387.076 186.673 387.134 185.883C387.175 185.167 387.262 184.454 387.392 183.746C387.482 183.123 387.698 182.52 388.032 181.963C388.633 181.093 390.086 179.912 392.466 178.349C392.568 178.285 392.67 178.217 392.776 178.149C392.874 178.09 392.969 178.028 393.068 177.963C393.893 177.456 394.652 176.873 395.333 176.224C395.532 176.023 395.716 175.81 395.884 175.588L395.928 175.529C396.461 174.711 396.722 173.78 396.683 172.841C396.685 172.603 396.667 172.366 396.629 172.131C396.523 171.213 396.031 170.361 395.248 169.738C394.398 169.062 393.302 168.666 392.15 168.618C392.004 168.606 391.868 168.603 391.728 168.603C391.186 168.6 390.646 168.656 390.12 168.768C389.133 168.979 388.248 169.453 387.59 170.124C387.24 170.481 386.944 170.874 386.705 171.294C385.902 172.9 385.388 174.604 385.182 176.345L385.148 176.655L376.517 174.662V171.364C376.558 171.232 376.602 171.099 376.65 170.969C377.201 169.315 378.078 167.757 379.244 166.363C379.743 165.771 380.304 165.222 380.921 164.721C381.067 164.595 381.227 164.471 381.387 164.35C382.425 163.569 383.579 162.91 384.818 162.393L384.927 162.349C387.273 161.409 389.834 160.937 392.418 160.969C392.687 160.969 393.003 160.972 393.316 160.987C395.885 161.044 398.406 161.601 400.692 162.617C401.719 163.078 402.681 163.639 403.559 164.291C406.023 166.032 407.609 168.534 407.983 171.27C408.051 171.763 408.086 172.259 408.085 172.756Z" fill="black"/>
<path d="M430.118 210.058C429.567 210.885 428.757 211.554 427.789 211.98C426.822 212.405 425.742 212.569 424.685 212.45C423.628 212.331 422.642 211.935 421.851 211.311C421.06 210.687 420.5 209.864 420.242 208.946C419.983 208.028 420.038 207.056 420.4 206.152C420.761 205.249 421.412 204.455 422.271 203.87C423.13 203.286 424.159 202.938 425.226 202.869C426.294 202.801 427.353 203.015 428.269 203.486C428.879 203.798 429.412 204.216 429.835 204.715C430.259 205.215 430.565 205.787 430.737 206.397C430.909 207.008 430.943 207.646 430.837 208.274C430.73 208.903 430.486 209.509 430.118 210.058V210.058Z" fill="#6C63FF"/>
<path opacity="0.3" d="M430.118 210.058C429.567 210.885 428.757 211.554 427.789 211.98C426.822 212.405 425.742 212.569 424.685 212.45C423.628 212.331 422.642 211.935 421.851 211.311C421.06 210.687 420.5 209.864 420.242 208.946C419.983 208.028 420.038 207.056 420.4 206.152C420.761 205.249 421.412 204.455 422.271 203.87C423.13 203.286 424.159 202.938 425.226 202.869C426.294 202.801 427.353 203.015 428.269 203.486C428.879 203.798 429.412 204.216 429.835 204.715C430.259 205.215 430.565 205.787 430.737 206.397C430.909 207.008 430.943 207.646 430.837 208.274C430.73 208.903 430.486 209.509 430.118 210.058V210.058Z" fill="black"/>
<path d="M452.007 193.554C451.106 194.926 449.894 196.12 448.449 197.056C447.826 197.458 447.165 197.81 446.474 198.109C445.054 198.71 443.551 199.131 442.008 199.359C441.741 199.402 441.453 199.442 441.071 199.489C440.597 199.541 440.08 199.584 439.496 199.618C438.469 199.669 437.445 199.773 436.428 199.928C435.836 200.005 435.259 200.166 434.721 200.406C433.997 200.782 433.102 201.768 432.057 203.339L431.885 203.598L424.153 199.619L424.96 198.406C425.591 197.458 426.148 196.673 426.659 196.004C427.113 195.392 427.603 194.803 428.127 194.237C428.567 193.729 429.102 193.292 429.709 192.947C430.725 192.443 432.641 192.034 435.563 191.694C435.687 191.681 435.812 191.666 435.941 191.652C436.058 191.643 436.175 191.63 436.296 191.616C437.289 191.527 438.27 191.344 439.223 191.07C439.509 190.979 439.789 190.871 440.06 190.749L440.132 190.716C441.061 190.228 441.825 189.524 442.341 188.681C442.482 188.473 442.606 188.256 442.711 188.033C443.159 187.18 443.242 186.218 442.947 185.329C442.625 184.367 441.932 183.543 440.989 183C440.873 182.926 440.76 182.865 440.642 182.804C440.187 182.567 439.699 182.381 439.189 182.251C438.234 182.009 437.21 182.042 436.262 182.345C435.759 182.508 435.279 182.724 434.832 182.99C433.215 184.054 431.785 185.329 430.592 186.771L430.382 187.028L424.269 181.531L426.198 178.631C426.31 178.532 426.425 178.435 426.541 178.341C427.974 177.126 429.626 176.137 431.424 175.417C432.191 175.113 432.986 174.874 433.799 174.701C433.996 174.653 434.203 174.614 434.409 174.577C435.742 174.341 437.1 174.263 438.447 174.345L438.565 174.354C441.094 174.546 443.529 175.242 445.69 176.392C445.916 176.509 446.181 176.649 446.437 176.797C448.57 177.962 450.37 179.545 451.704 181.431C452.3 182.282 452.783 183.193 453.142 184.147C454.202 186.747 454.076 189.636 452.79 192.204C452.559 192.667 452.298 193.118 452.007 193.554Z" fill="#6C63FF"/>
<path opacity="0.3" d="M452.007 193.554C451.106 194.926 449.894 196.12 448.449 197.056C447.826 197.458 447.165 197.81 446.474 198.109C445.054 198.71 443.551 199.131 442.008 199.359C441.741 199.402 441.453 199.442 441.071 199.489C440.597 199.541 440.08 199.584 439.496 199.618C438.469 199.669 437.445 199.773 436.428 199.928C435.836 200.005 435.259 200.166 434.721 200.406C433.997 200.782 433.102 201.768 432.057 203.339L431.885 203.598L424.153 199.619L424.96 198.406C425.591 197.458 426.148 196.673 426.659 196.004C427.113 195.392 427.603 194.803 428.127 194.237C428.567 193.729 429.102 193.292 429.709 192.947C430.725 192.443 432.641 192.034 435.563 191.694C435.687 191.681 435.812 191.666 435.941 191.652C436.058 191.643 436.175 191.63 436.296 191.616C437.289 191.527 438.27 191.344 439.223 191.07C439.509 190.979 439.789 190.871 440.06 190.749L440.132 190.716C441.061 190.228 441.825 189.524 442.341 188.681C442.482 188.473 442.606 188.256 442.711 188.033C443.159 187.18 443.242 186.218 442.947 185.329C442.625 184.367 441.932 183.543 440.989 183C440.873 182.926 440.76 182.865 440.642 182.804C440.187 182.567 439.699 182.381 439.189 182.251C438.234 182.009 437.21 182.042 436.262 182.345C435.759 182.508 435.279 182.724 434.832 182.99C433.215 184.054 431.785 185.329 430.592 186.771L430.382 187.028L424.269 181.531L426.198 178.631C426.31 178.532 426.425 178.435 426.541 178.341C427.974 177.126 429.626 176.137 431.424 175.417C432.191 175.113 432.986 174.874 433.799 174.701C433.996 174.653 434.203 174.614 434.409 174.577C435.742 174.341 437.1 174.263 438.447 174.345L438.565 174.354C441.094 174.546 443.529 175.242 445.69 176.392C445.916 176.509 446.181 176.649 446.437 176.797C448.57 177.962 450.37 179.545 451.704 181.431C452.3 182.282 452.783 183.193 453.142 184.147C454.202 186.747 454.076 189.636 452.79 192.204C452.559 192.667 452.298 193.118 452.007 193.554Z" fill="black"/>
<path d="M189.094 145.653L174.094 140.653L159.094 145.653" stroke="white" stroke-width="4"/>
<path d="M171.93 158.213C170.261 158.513 168.967 159.165 167.604 160.397C166.582 161.318 165.98 162.084 165.299 163.306C164.743 164.32 164.357 165.251 164.107 166.214L163.903 166.96L157.704 166.991L151.494 167.022L150.586 167.302C148.668 167.902 149.122 167.529 137.121 178.46L126.03 188.551L125.565 189.431C124.452 191.49 124.588 193.892 125.905 195.755C126.62 196.759 140.789 209.584 141.788 210.132C143.832 211.24 146.284 211.312 148.486 210.329L149.451 209.904L160.52 199.792C168.831 192.215 171.691 189.545 171.975 189.099C172.179 188.768 172.509 188.095 172.713 187.598L173.065 186.687L173.099 179.131C173.133 171.845 173.121 171.555 172.906 170.903C172.588 169.971 171.986 169.091 171.226 168.439C170.522 167.85 168.978 167.073 168.819 167.239C168.569 167.487 168.433 168.998 168.365 172.196L168.297 175.612L167.967 176.161C167.581 176.782 167.003 177.31 166.287 177.651C165.879 177.848 165.629 177.889 164.721 177.889C163.813 177.889 163.563 177.848 163.155 177.651C162.439 177.31 161.861 176.782 161.475 176.161C161.179 175.664 161.145 175.519 161.145 174.629C161.145 173.563 161.293 173.18 161.963 172.455C162.303 172.083 163.189 171.524 163.439 171.524C163.552 171.524 163.586 171.907 163.586 173.294V175.063L163.915 175.363C164.381 175.777 165.062 175.788 165.516 175.374L165.834 175.084L165.891 171.772C165.959 168.273 166.061 167.414 166.651 165.841C167.753 162.86 169.842 160.8 172.214 160.334C174.758 159.837 177.459 161.39 179.015 164.246C181.558 168.894 180.718 175.373 177.153 178.51C176.767 178.851 176.268 179.224 176.041 179.337L175.621 179.545V180.705C175.621 181.491 175.666 181.875 175.746 181.875C176.018 181.875 177.449 181.109 178.141 180.591C182.897 177.01 184.283 169.112 181.149 163.399C180.173 161.598 178.538 159.911 176.972 159.073C175.472 158.275 173.519 157.934 171.93 158.213Z" fill="#550052"/>
<path d="M138.797 197.865C138.493 197.604 138.172 197.46 137.834 197.432C137.499 197.402 137.164 197.541 136.829 197.849L136.784 197.891L136.739 197.942C136.39 198.262 136.272 198.675 136.387 199.178C136.501 199.676 136.857 200.181 137.456 200.694L137.695 200.899C138.231 201.359 138.746 201.619 139.242 201.68C139.74 201.738 140.14 201.628 140.442 201.351L140.488 201.309C140.84 200.985 140.987 200.625 140.929 200.23C140.871 199.834 140.607 199.435 140.136 199.031C140.067 198.96 140.015 198.909 139.98 198.88L139.668 198.586L139.077 198.078L138.906 197.949C138.868 197.923 138.832 197.895 138.797 197.865ZM136.272 197.246C136.64 196.907 136.815 196.663 136.796 196.515C136.764 196.285 136.512 195.967 136.038 195.561C135.896 195.439 135.736 195.329 135.557 195.229C135.374 195.126 135.259 195.054 135.21 195.012C135.055 194.879 134.98 194.714 134.987 194.517C134.994 194.32 135.106 194.121 135.324 193.921L135.42 193.833C135.685 193.589 135.96 193.554 136.246 193.728C136.453 193.851 137.438 194.67 139.203 196.183L139.815 196.726L140.682 197.469L141.169 197.869C141.249 197.938 141.328 198.006 141.408 198.074L141.527 198.167C141.606 198.23 141.746 198.347 141.947 198.519C142.144 198.688 142.365 198.829 142.609 198.943C142.853 199.051 143.013 199.137 143.089 199.203C143.165 199.268 143.197 199.37 143.186 199.51C143.175 199.649 143.087 199.795 142.923 199.946C142.762 200.094 142.573 200.227 142.357 200.346C142.141 200.459 142.001 200.544 141.937 200.603C141.873 200.662 141.749 200.865 141.564 201.213C141.383 201.558 141.187 201.828 140.975 202.023L140.865 202.124C140.294 202.649 139.651 202.887 138.935 202.839C138.218 202.785 137.536 202.48 136.889 201.925L136.625 201.698C136.286 201.408 135.999 201.069 135.764 200.683C135.529 200.29 135.385 199.893 135.334 199.492C135.234 198.661 135.547 197.912 136.272 197.246ZM144.219 193.635C144.447 193.425 144.572 193.246 144.593 193.097C144.614 192.948 144.578 192.834 144.485 192.754L144.267 192.567C144.018 192.353 143.723 192.259 143.383 192.283C143.042 192.307 142.767 192.416 142.555 192.61L142.424 192.731C142.119 193.011 141.986 193.371 142.024 193.809C142.059 194.244 142.234 194.597 142.548 194.867L142.637 194.943C142.758 195.047 142.925 195 143.14 194.802L143.256 194.696L143.281 194.664L143.632 194.294L143.863 194.045L144.013 193.87C144.04 193.839 144.075 193.798 144.119 193.746C144.165 193.69 144.199 193.653 144.219 193.635ZM147.136 196.504L146.915 196.707C146.244 197.324 145.472 197.619 144.599 197.592C144.211 197.581 143.807 197.485 143.388 197.304C142.966 197.121 142.597 196.894 142.282 196.624L142.049 196.424C141.734 196.154 141.467 195.812 141.249 195.398C140.819 194.594 140.777 193.819 141.122 193.071C141.296 192.684 141.552 192.334 141.891 192.023L142.001 191.921C142.471 191.489 143.005 191.259 143.605 191.23C143.949 191.215 144.284 191.27 144.609 191.394C144.935 191.513 145.193 191.654 145.384 191.817C145.802 192.176 145.948 192.527 145.821 192.872C145.733 193.106 145.415 193.543 144.867 194.182C144.323 194.818 144.029 195.171 143.986 195.242C143.77 195.575 143.759 195.825 143.953 195.991C144.289 196.279 144.718 196.382 145.241 196.3C145.626 196.242 146.021 196.027 146.426 195.653C146.581 195.511 146.78 195.239 147.026 194.835C147.271 194.431 147.41 194.214 147.444 194.183C147.618 194.022 147.787 194.012 147.949 194.151C148.153 194.326 148.168 194.673 147.993 195.19C147.818 195.702 147.532 196.14 147.136 196.504ZM150.974 191.693L151.13 191.549C151.442 191.262 151.578 190.891 151.54 190.434C151.518 190.183 151.3 189.88 150.885 189.524L150.822 189.461L150.693 189.35C150.433 189.128 150.2 189.112 149.992 189.303L149.831 189.451L149.59 189.71L149.469 189.848C149.161 190.132 148.998 190.442 148.98 190.778C148.958 191.112 149.07 191.384 149.316 191.594L149.497 191.75C149.684 191.91 149.917 191.997 150.197 192.01C150.477 192.017 150.735 191.912 150.974 191.693ZM153.769 189.565C154 189.763 153.89 190.071 153.437 190.488C153.356 190.562 153.167 190.662 152.87 190.788C152.572 190.908 152.394 190.994 152.337 191.047C152.284 191.096 152.163 191.315 151.976 191.702C151.785 192.087 151.572 192.387 151.337 192.603L151.221 192.71C150.856 193.046 150.418 193.231 149.907 193.264C149.393 193.294 148.921 193.125 148.492 192.757C147.621 192.009 147.613 191.052 148.468 189.884C149.021 189.123 149.304 188.728 149.317 188.697C149.394 188.472 149.321 188.263 149.096 188.07C148.868 187.874 148.607 187.776 148.314 187.775C148.021 187.768 147.754 187.875 147.512 188.098C147.274 188.317 147.077 188.648 146.921 189.093C146.762 189.535 146.622 189.811 146.501 189.922C146.283 190.123 146.02 190.091 145.712 189.827C145.518 189.661 145.506 189.346 145.675 188.883C145.848 188.417 146.154 187.982 146.593 187.578L146.845 187.346C147.173 187.044 147.529 186.831 147.912 186.706C148.295 186.581 148.663 186.551 149.015 186.614C149.514 186.702 150.313 187.218 151.413 188.162C152.036 188.696 152.435 189.017 152.611 189.126C152.79 189.232 153.003 189.31 153.249 189.36C153.492 189.408 153.665 189.476 153.769 189.565ZM148.27 182.595C147.997 182.361 148.078 182.043 148.514 181.642L148.605 181.559C148.917 181.272 149.226 181.224 149.533 181.415L150.659 182.381L151.038 182.724L151.23 182.889L151.806 183.41L151.998 183.575L152.097 183.668C152.163 183.725 152.229 183.781 152.294 183.838L152.388 183.927C152.454 183.983 152.519 184.04 152.585 184.096L152.679 184.185L153.166 184.603L153.846 185.159C153.911 185.209 154.07 185.343 154.323 185.56C154.575 185.776 154.877 185.978 155.228 186.166C155.579 186.347 155.889 186.465 156.159 186.517C156.426 186.567 156.618 186.643 156.736 186.744C156.853 186.844 156.887 186.998 156.836 187.205C156.788 187.409 156.633 187.631 156.372 187.871L156.196 188.033C155.723 188.468 155.292 188.52 154.905 188.187C154.877 188.164 154.801 188.074 154.675 187.919C154.55 187.764 154.287 187.511 153.885 187.161L152.675 186.069L152.582 185.98C152.516 185.924 152.45 185.867 152.385 185.811L152.193 185.637C152.127 185.581 152.061 185.525 151.995 185.468L151.902 185.379C151.836 185.323 151.77 185.266 151.705 185.21L151.513 185.036C151.447 184.98 151.381 184.923 151.315 184.867L151.123 184.693L150.921 184.52L150.729 184.346L149.753 183.509C149.359 183.171 149.028 182.947 148.76 182.836C148.492 182.726 148.329 182.646 148.27 182.595ZM155.919 183.289C155.368 183.329 154.885 183.171 154.469 182.815C154.051 182.456 153.883 182.005 153.965 181.461C154.045 180.915 154.351 180.397 154.884 179.906C155.418 179.416 155.874 179.116 156.254 179.006C156.63 178.894 156.926 178.929 157.14 179.113C157.434 179.366 157.489 179.576 157.304 179.746C157.241 179.805 157 179.9 156.583 180.031C156.167 180.162 155.829 180.347 155.571 180.584C155.312 180.822 155.178 181.053 155.169 181.277C155.162 181.498 155.254 181.69 155.444 181.853C155.635 182.017 155.928 182.048 156.325 181.947C156.461 181.914 156.854 181.768 157.504 181.509C158.153 181.243 158.657 181.097 159.014 181.07C159.572 181.03 160.064 181.192 160.49 181.557C160.915 181.922 161.1 182.388 161.046 182.955C160.99 183.516 160.691 184.046 160.148 184.546C159.225 185.394 158.468 185.762 157.877 185.648C157.689 185.612 157.55 185.555 157.46 185.478C157.159 185.22 157.099 185.007 157.28 184.841C157.334 184.791 157.624 184.691 158.149 184.54C158.675 184.382 159.07 184.182 159.335 183.938C159.603 183.691 159.756 183.446 159.792 183.204C159.829 182.961 159.747 182.753 159.546 182.581C159.342 182.406 159.033 182.359 158.619 182.439C158.449 182.472 158.044 182.616 157.405 182.873C156.761 183.126 156.266 183.265 155.919 183.289Z" fill="white"/>
<path d="M83.9447 164.89C83.9343 164.89 83.9186 164.89 83.8978 164.89C82.6999 164.89 82.1009 164.479 82.1009 163.656C82.1009 163.26 82.2051 162.771 82.4134 162.187C82.6218 161.604 82.7415 161.015 82.7728 160.422C82.804 159.817 82.8197 158.896 82.8197 157.656V154.734L82.8509 153.922C82.8718 153.38 82.8822 152.995 82.8822 152.765L82.7259 151.156C82.7259 150.791 83.0488 150.609 83.6947 150.609C84.3509 150.609 85.0228 150.786 85.7103 151.14C86.3978 151.495 86.8197 151.672 86.9759 151.672C87.1426 151.672 87.4499 151.567 87.8978 151.359C88.3561 151.151 88.8926 150.927 89.5072 150.687C90.1322 150.437 90.7728 150.312 91.429 150.312H91.8353C92.6165 150.312 93.3093 150.526 93.9134 150.953C94.528 151.37 94.9707 151.953 95.2415 152.703C95.5228 153.442 95.7207 154.807 95.8353 156.797L95.8822 157.656L95.9134 158.515C95.9447 159.015 95.9811 159.557 96.0228 160.14C96.0645 160.724 96.2051 161.338 96.4447 161.984C96.6843 162.62 96.804 163.047 96.804 163.265C96.804 164.192 96.0957 164.656 94.679 164.656C94.0749 164.656 93.6322 164.536 93.3509 164.297C93.0697 164.047 92.929 163.63 92.929 163.047L92.9603 162.468C92.9603 158.416 92.6686 155.656 92.0853 154.187C91.627 153.052 90.8197 152.484 89.6634 152.484C89.1113 152.484 88.5697 152.625 88.0384 152.906C87.5176 153.177 87.1113 153.62 86.8197 154.234C86.2988 155.328 86.0384 157.432 86.0384 160.547L86.1634 163.375C86.1634 163.823 85.9499 164.187 85.5228 164.468C85.0957 164.75 84.5697 164.89 83.9447 164.89ZM101.507 165.406H101.117C100.242 165.406 99.804 165.114 99.804 164.531C99.804 164.489 100.554 163.401 102.054 161.265C103.564 159.12 104.32 157.88 104.32 157.547C104.32 157.213 103.648 156.083 102.304 154.156C101.929 153.614 101.429 153 100.804 152.312C100.189 151.614 99.8822 151.135 99.8822 150.875C99.8822 150.281 100.627 149.984 102.117 149.984C103.2 149.984 103.96 150.255 104.398 150.797C104.481 150.901 104.585 151.125 104.71 151.468C104.835 151.802 105.064 152.276 105.398 152.89C106.127 154.224 106.648 154.89 106.96 154.89C107.21 154.89 107.757 154.203 108.601 152.828C108.934 152.286 109.184 151.781 109.351 151.312C109.528 150.843 109.648 150.567 109.71 150.484C110.023 150.078 110.512 149.875 111.179 149.875C112.439 149.875 113.07 150.099 113.07 150.547C113.07 150.807 112.346 151.859 110.898 153.703C109.45 155.547 108.726 156.739 108.726 157.281C108.726 157.812 109.497 159.099 111.038 161.14C111.549 161.817 112.085 162.432 112.648 162.984C113.221 163.536 113.507 163.968 113.507 164.281C113.507 164.864 112.643 165.161 110.913 165.172C110.049 165.172 109.424 164.927 109.038 164.437C108.966 164.343 108.841 164.099 108.663 163.703C108.497 163.307 108.294 162.901 108.054 162.484C107.117 160.87 106.523 160.062 106.273 160.062C105.96 160.062 105.356 160.807 104.46 162.297C104.2 162.734 103.966 163.234 103.757 163.797C103.559 164.349 103.439 164.656 103.398 164.718C103.064 165.177 102.434 165.406 101.507 165.406ZM122.648 165.281H122.054C120.554 165.281 119.476 164.635 118.82 163.343C118.278 162.291 118.007 160.562 118.007 158.156C118.007 155.75 117.877 154.099 117.617 153.203C117.523 152.87 117.262 152.489 116.835 152.062C116.408 151.635 116.195 151.265 116.195 150.953V150.75C116.195 150.479 116.439 150.182 116.929 149.859C117.419 149.536 117.7 149.307 117.773 149.172C117.856 149.026 118.012 148.521 118.242 147.656C118.481 146.781 118.726 146.172 118.976 145.828C119.236 145.474 119.58 145.297 120.007 145.297C120.445 145.297 120.752 145.422 120.929 145.672C121.117 145.922 121.299 146.437 121.476 147.218C121.663 148 121.867 148.531 122.085 148.812C122.304 149.083 122.835 149.37 123.679 149.672C124.523 149.974 124.945 150.349 124.945 150.797C124.945 151.192 124.502 151.547 123.617 151.859C122.742 152.172 122.189 152.557 121.96 153.015C121.523 153.901 121.304 155.468 121.304 157.718C121.304 159.968 121.497 161.349 121.882 161.859C122.268 162.359 122.893 162.666 123.757 162.781C124.632 162.896 125.07 163.224 125.07 163.765C125.07 164.182 124.82 164.541 124.32 164.843C123.83 165.135 123.273 165.281 122.648 165.281ZM128.867 157.734C128.408 157.734 128.179 157.468 128.179 156.937V156.578C128.179 155.88 128.341 155.479 128.663 155.375C128.986 155.26 130.476 155.203 133.132 155.203L136.195 155.156H136.773C137.377 155.156 137.679 155.427 137.679 155.968V156.312C137.658 156.458 137.648 156.573 137.648 156.656C137.648 157.177 137.45 157.484 137.054 157.578C136.669 157.661 135.221 157.703 132.71 157.703H132.007L131.663 157.718H130.96L130.492 157.734H128.867ZM150.96 154.859C150.96 153.942 150.731 153.198 150.273 152.625C149.825 152.052 149.08 151.765 148.038 151.765H147.898L147.742 151.781C146.658 151.781 145.762 152.297 145.054 153.328C144.356 154.349 144.007 155.76 144.007 157.562V158.281C144.007 159.896 144.325 161.14 144.96 162.015C145.606 162.89 146.398 163.328 147.335 163.328H147.476C148.57 163.328 149.419 162.948 150.023 162.187C150.627 161.427 150.929 160.338 150.929 158.922C150.95 158.692 150.96 158.526 150.96 158.422L151.007 157.437V155.656L150.976 155.172C150.966 155.067 150.96 154.963 150.96 154.859ZM148.257 149.875C149.403 149.875 150.091 149.734 150.32 149.453C150.674 149.015 150.851 148.083 150.851 146.656C150.851 146.229 150.804 145.791 150.71 145.343C150.617 144.885 150.57 144.583 150.57 144.437C150.57 143.968 150.747 143.573 151.101 143.25C151.455 142.927 151.971 142.765 152.648 142.765H152.945C153.768 142.765 154.242 143.135 154.367 143.875C154.46 144.406 154.507 147.328 154.507 152.64L154.476 154.515V157.125L154.507 158.562C154.507 158.802 154.507 159.041 154.507 159.281L154.523 159.625C154.533 159.854 154.538 160.271 154.538 160.875C154.538 161.468 154.622 162.052 154.788 162.625C154.966 163.187 155.054 163.583 155.054 163.812C155.054 164.041 154.924 164.265 154.663 164.484C154.403 164.703 154.018 164.812 153.507 164.812C153.007 164.812 152.492 164.745 151.96 164.609C151.439 164.463 151.08 164.39 150.882 164.39C150.684 164.39 150.143 164.541 149.257 164.843C148.382 165.146 147.617 165.297 146.96 165.297H146.617C144.846 165.297 143.466 164.698 142.476 163.5C141.497 162.291 141.007 160.713 141.007 158.765V157.968C141.007 156.948 141.169 155.927 141.492 154.906C141.825 153.875 142.304 152.979 142.929 152.218C144.231 150.656 146.007 149.875 148.257 149.875ZM165.257 163.531H165.57C166.622 163.531 167.486 163.067 168.163 162.14C168.841 161.213 169.179 160.041 169.179 158.625L169.21 158.281L169.226 157.75V157.047C169.226 155.495 168.908 154.218 168.273 153.218C167.648 152.208 166.809 151.703 165.757 151.703H165.445C164.413 151.703 163.544 152.213 162.835 153.234C162.137 154.255 161.788 155.609 161.788 157.297V158.359C161.809 158.609 161.82 158.781 161.82 158.875C161.82 160.062 162.148 161.135 162.804 162.093C163.46 163.052 164.278 163.531 165.257 163.531ZM172.757 157.265V157.781C172.757 158.708 172.606 159.661 172.304 160.64C171.689 162.63 170.481 164.057 168.679 164.922C167.637 165.422 166.606 165.672 165.585 165.672H165.054C164.085 165.672 163.184 165.474 162.351 165.078C160.695 164.286 159.596 162.974 159.054 161.14C158.762 160.172 158.617 159.187 158.617 158.187V157.39C158.617 156.411 158.768 155.432 159.07 154.453C159.663 152.515 160.841 151.13 162.601 150.297C163.507 149.859 164.434 149.64 165.382 149.64H166.163C167.059 149.64 167.945 149.833 168.82 150.218C170.57 150.989 171.747 152.364 172.351 154.343C172.622 155.218 172.757 156.192 172.757 157.265ZM182.382 163.531H182.695C183.747 163.531 184.611 163.067 185.288 162.14C185.966 161.213 186.304 160.041 186.304 158.625L186.335 158.281L186.351 157.75V157.047C186.351 155.495 186.033 154.218 185.398 153.218C184.773 152.208 183.934 151.703 182.882 151.703H182.57C181.538 151.703 180.669 152.213 179.96 153.234C179.262 154.255 178.913 155.609 178.913 157.297V158.359C178.934 158.609 178.945 158.781 178.945 158.875C178.945 160.062 179.273 161.135 179.929 162.093C180.585 163.052 181.403 163.531 182.382 163.531ZM189.882 157.265V157.781C189.882 158.708 189.731 159.661 189.429 160.64C188.814 162.63 187.606 164.057 185.804 164.922C184.762 165.422 183.731 165.672 182.71 165.672H182.179C181.21 165.672 180.309 165.474 179.476 165.078C177.82 164.286 176.721 162.974 176.179 161.14C175.887 160.172 175.742 159.187 175.742 158.187V157.39C175.742 156.411 175.893 155.432 176.195 154.453C176.788 152.515 177.966 151.13 179.726 150.297C180.632 149.859 181.559 149.64 182.507 149.64H183.288C184.184 149.64 185.07 149.833 185.945 150.218C187.695 150.989 188.872 152.364 189.476 154.343C189.747 155.218 189.882 156.192 189.882 157.265ZM200.726 153C199.747 153 198.986 153.489 198.445 154.468C197.903 155.437 197.632 156.922 197.632 158.922C197.632 159.807 197.669 160.437 197.742 160.812C197.814 161.177 197.924 161.635 198.07 162.187C198.226 162.729 198.304 163.203 198.304 163.609C198.304 164.005 198.064 164.37 197.585 164.703C197.106 165.036 196.481 165.203 195.71 165.203L195.445 165.187H195.163C194.663 165.187 194.247 165.047 193.913 164.765C193.591 164.484 193.429 164.166 193.429 163.812V163.562C193.429 163.489 193.528 163.146 193.726 162.531C193.924 161.916 194.038 161.323 194.07 160.75C194.101 160.177 194.117 159.406 194.117 158.437V156.703L194.101 156.422C194.101 156.234 194.101 156.047 194.101 155.859L194.07 155.015C194.059 154.828 194.054 154.463 194.054 153.922C194.054 153.37 193.955 152.849 193.757 152.359C193.57 151.859 193.476 151.536 193.476 151.39C193.476 150.765 194.023 150.453 195.117 150.453C196.21 150.453 197.002 150.75 197.492 151.343C197.637 151.521 197.788 151.609 197.945 151.609C198.111 151.609 198.382 151.479 198.757 151.218C199.799 150.51 200.674 150.156 201.382 150.156H201.632C202.257 150.156 202.731 150.297 203.054 150.578C203.387 150.859 203.554 151.234 203.554 151.703C203.554 152.63 203.038 153.093 202.007 153.093C201.601 153.031 201.174 153 200.726 153Z" fill="white"/>
<line y1="-1.5" x2="4.38936" y2="-1.5" transform="matrix(0.74768 0.664059 -0.74768 0.664059 181.761 163.511)" stroke="#550052" stroke-width="3"/>
</g>
<defs>
<clipPath id="clip0">
<rect width="500" height="500" fill="white"/>
</clipPath>
</defs>
</svg>
