<svg width="600" height="600" viewBox="0 0 600 600" fill="none" xmlns="http://www.w3.org/2000/svg">
<g clip-path="url(#clip0)">
<path d="M335.296 142.582H331.601V52.2702C331.601 38.4073 325.429 25.1122 314.443 15.3096C303.457 5.50704 288.557 2.2335e-06 273.02 -1.52586e-05H58.5809C50.888 -3.25811e-05 43.2703 1.35196 36.163 3.97877C29.0556 6.60558 22.5977 10.4558 17.158 15.3095C11.7182 20.1632 7.40317 25.9254 4.45919 32.2671C1.51521 38.6088 -4.40481e-05 45.4059 -6.10351e-05 52.2701V547.73C-6.83153e-05 554.594 1.51515 561.391 4.45911 567.733C7.40307 574.074 11.7181 579.837 17.1579 584.69C22.5976 589.544 29.0555 593.394 36.1628 596.021C43.2702 598.648 50.8878 600 58.5808 600H273.02C288.556 600 303.457 594.493 314.443 584.691C325.429 574.888 331.601 561.593 331.601 547.73V206.868H335.296V142.582Z" fill="#908FD3"/>
<path d="M275.384 13.5989H247.392C248.679 16.4149 249.171 19.4701 248.823 22.4954C248.475 25.5207 247.299 28.4233 245.398 30.9474C243.497 33.4715 240.929 35.5398 237.921 36.9699C234.913 38.4 231.557 39.1481 228.149 39.1484H105.299C101.891 39.1481 98.535 38.4 95.527 36.9699C92.519 35.5398 89.9514 33.4715 88.0502 30.9474C86.1491 28.4232 84.9728 25.5207 84.625 22.4953C84.2773 19.47 84.7686 16.4148 86.0559 13.5989H59.9119C48.3093 13.5989 37.182 17.7114 28.9777 25.0319C20.7734 32.3523 16.1643 42.281 16.1643 52.6336V547.366C16.1643 557.719 20.7734 567.648 28.9776 574.968C37.1819 582.289 48.3092 586.401 59.9118 586.401H275.384C281.129 586.401 286.817 585.392 292.125 583.43C297.433 581.468 302.255 578.593 306.318 574.968C310.38 571.344 313.603 567.04 315.801 562.304C318 557.569 319.131 552.493 319.131 547.366V547.366V52.6337C319.131 47.5075 318 42.4316 315.801 37.6957C313.603 32.9598 310.38 28.6566 306.318 25.0319C302.255 21.4072 297.433 18.5319 292.125 16.5703C286.817 14.6086 281.129 13.5989 275.384 13.5989V13.5989Z" fill="#3F3D56"/>
<path d="M301.351 402.171H42.9941C41.7257 402.17 40.5097 401.72 39.6128 400.919C38.7159 400.119 38.2113 399.034 38.2099 397.902V340.719C38.2113 339.587 38.7159 338.502 39.6128 337.702C40.5097 336.902 41.7257 336.452 42.9941 336.45H301.351C302.62 336.452 303.836 336.902 304.733 337.702C305.63 338.502 306.134 339.587 306.136 340.719V397.903C306.134 399.035 305.629 400.12 304.732 400.92C303.835 401.72 302.62 402.17 301.351 402.171V402.171ZM42.9941 338.158C42.233 338.158 41.5032 338.428 40.965 338.909C40.4268 339.389 40.1241 340.04 40.1234 340.719V397.903C40.1241 398.582 40.4268 399.233 40.965 399.714C41.5032 400.194 42.233 400.464 42.9941 400.465H301.351C302.112 400.464 302.842 400.194 303.38 399.714C303.919 399.233 304.221 398.582 304.222 397.903V340.719C304.221 340.04 303.919 339.389 303.38 338.909C302.842 338.428 302.112 338.158 301.351 338.158H42.9941Z" fill="#908FD3"/>
<path d="M76.484 387.24C87.5818 387.24 96.5783 379.213 96.5783 369.31C96.5783 359.408 87.5818 351.381 76.484 351.381C65.3863 351.381 56.3897 359.408 56.3897 369.31C56.3897 379.213 65.3863 387.24 76.484 387.24Z" fill="#908FD3"/>
<path d="M122.893 357.358C122.014 357.371 121.177 357.691 120.56 358.25C119.944 358.809 119.599 359.562 119.599 360.346C119.599 361.13 119.944 361.883 120.56 362.442C121.177 363 122.014 363.321 122.893 363.334H280.777C281.665 363.349 282.524 363.049 283.164 362.5C283.804 361.95 284.174 361.196 284.191 360.404C284.208 359.611 283.871 358.845 283.256 358.274C282.64 357.703 281.795 357.373 280.907 357.358L280.887 357.358C280.851 357.357 280.814 357.357 280.777 357.358H122.893Z" fill="#908FD3"/>
<path d="M122.893 375.287C122.014 375.3 121.177 375.621 120.56 376.18C119.944 376.739 119.599 377.492 119.599 378.276C119.599 379.06 119.944 379.812 120.56 380.371C121.177 380.93 122.014 381.251 122.893 381.264H280.777C281.664 381.275 282.52 380.971 283.156 380.42C283.793 379.869 284.158 379.116 284.173 378.324C284.187 377.533 283.85 376.769 283.234 376.2C282.618 375.631 281.774 375.302 280.887 375.287C280.851 375.287 280.814 375.287 280.777 375.287H122.893Z" fill="#908FD3"/>
<path d="M301.351 497.796H42.9941C41.7257 497.795 40.5097 497.345 39.6128 496.545C38.7159 495.744 38.2113 494.659 38.2099 493.528V436.344C38.2113 435.213 38.7159 434.128 39.6128 433.327C40.5097 432.527 41.7257 432.077 42.9941 432.076H301.351C302.62 432.077 303.836 432.527 304.733 433.327C305.63 434.128 306.134 435.213 306.136 436.344V493.528C306.134 494.66 305.629 495.745 304.732 496.545C303.835 497.345 302.62 497.795 301.351 497.796V497.796ZM42.9941 433.783C42.233 433.784 41.5032 434.054 40.965 434.534C40.4268 435.014 40.1241 435.665 40.1234 436.344V493.528C40.1241 494.207 40.4268 494.859 40.965 495.339C41.5032 495.819 42.233 496.089 42.9941 496.09H301.351C302.112 496.089 302.842 495.819 303.38 495.339C303.919 494.859 304.221 494.207 304.222 493.528V436.344C304.221 435.665 303.919 435.014 303.38 434.534C302.842 434.054 302.112 433.784 301.351 433.783H42.9941Z" fill="#908FD3"/>
<path d="M76.484 482.865C87.5818 482.865 96.5783 474.838 96.5783 464.936C96.5783 455.033 87.5818 447.006 76.484 447.006C65.3863 447.006 56.3897 455.033 56.3897 464.936C56.3897 474.838 65.3863 482.865 76.484 482.865Z" fill="#908FD3"/>
<path d="M122.893 452.983C122.014 452.996 121.177 453.317 120.56 453.876C119.944 454.435 119.599 455.187 119.599 455.971C119.599 456.755 119.944 457.508 120.56 458.067C121.177 458.626 122.014 458.946 122.893 458.959H280.777C281.664 458.97 282.52 458.667 283.156 458.116C283.793 457.565 284.158 456.811 284.173 456.02C284.187 455.229 283.85 454.465 283.234 453.896C282.618 453.326 281.774 452.998 280.887 452.983C280.851 452.983 280.814 452.983 280.777 452.983H122.893Z" fill="#908FD3"/>
<path d="M122.893 470.913C122.014 470.926 121.177 471.246 120.56 471.805C119.944 472.364 119.599 473.117 119.599 473.901C119.599 474.685 119.944 475.438 120.56 475.996C121.177 476.555 122.014 476.876 122.893 476.889H280.777C281.664 476.9 282.52 476.597 283.156 476.046C283.793 475.495 284.158 474.741 284.173 473.95C284.187 473.159 283.85 472.395 283.234 471.825C282.618 471.256 281.774 470.928 280.887 470.913C280.851 470.912 280.814 470.912 280.777 470.913H122.893Z" fill="#908FD3"/>
<path d="M167.694 284.427C142.588 284.437 118.506 275.416 100.746 259.351C82.9866 243.285 73.0034 221.489 72.9929 198.759V198.687C72.9929 198.508 72.9929 198.319 73.0045 198.139C73.2932 151.185 115.773 112.947 167.694 112.947C192.81 112.944 216.898 121.975 234.66 138.052C252.422 154.13 262.402 175.937 262.405 198.677C262.408 221.416 252.433 243.226 234.675 259.307C216.918 275.388 192.831 284.424 167.715 284.427H167.694V284.427ZM167.694 114.75C143.218 114.799 119.753 123.591 102.396 139.216C85.0395 154.84 75.1941 176.034 74.9989 198.193C74.9883 198.385 74.9883 198.542 74.9883 198.685C74.986 215.288 80.4216 231.518 90.6078 245.324C100.794 259.13 115.273 269.891 132.214 276.247C149.156 282.602 167.798 284.267 185.784 281.03C203.77 277.793 220.292 269.8 233.261 258.061C246.229 246.323 255.062 231.366 258.642 215.083C262.222 198.799 260.388 181.92 253.372 166.58C246.357 151.24 234.475 138.129 219.228 128.903C203.982 119.677 186.057 114.752 167.719 114.75H167.694V114.75Z" fill="#908FD3"/>
<path d="M291.153 381.579C311.565 381.579 328.111 366.815 328.111 348.602C328.111 330.39 311.565 315.625 291.153 315.625C270.741 315.625 254.195 330.39 254.195 348.602C254.195 366.815 270.741 381.579 291.153 381.579Z" fill="white"/>
<path d="M278.317 363.439C278.254 363.439 278.19 363.438 278.127 363.437H258.262C255.741 363.402 253.337 362.483 251.568 360.881C249.799 359.278 248.808 357.119 248.807 354.87C248.806 352.62 249.796 350.461 251.563 348.857C253.33 347.253 255.733 346.333 258.254 346.295H278.136C278.233 346.294 278.339 346.294 278.444 346.295C280.98 346.326 283.399 347.251 285.174 348.867C286.949 350.484 287.936 352.661 287.919 354.923C287.902 357.186 286.883 359.351 285.084 360.946C283.286 362.542 280.853 363.437 278.317 363.439V363.439Z" fill="#EA71CF"/>
<path d="M600 597.993H300.606V599.841H600V597.993Z" fill="#3F3D56"/>
<path d="M319.053 441.671C318.818 441.345 318.623 440.997 318.471 440.633L313.7 429.234C313.145 427.903 313.204 426.429 313.865 425.137C314.526 423.844 315.734 422.838 317.225 422.339L423.705 386.863C425.197 386.367 426.849 386.42 428.297 387.009C429.746 387.599 430.873 388.677 431.432 390.008L436.202 401.408C436.478 402.067 436.606 402.768 436.578 403.471C436.55 404.175 436.367 404.866 436.04 405.506C435.712 406.147 435.247 406.723 434.67 407.203C434.093 407.682 433.415 408.056 432.677 408.302L326.198 443.779C324.916 444.205 323.509 444.229 322.21 443.846C320.911 443.463 319.797 442.696 319.053 441.671Z" fill="#876792"/>
<path d="M423.366 383.917L380.066 399.323C378.702 399.689 377.548 400.51 376.843 401.615C376.139 402.721 375.939 404.025 376.284 405.259L381.309 423.211C381.508 423.92 381.88 424.581 382.399 425.147C382.918 425.712 383.571 426.168 384.311 426.481C385.051 426.794 385.86 426.958 386.679 426.959C387.498 426.96 388.308 426.799 389.049 426.488L432.468 408.252C433.843 407.792 434.958 406.864 435.569 405.671C436.179 404.479 436.235 403.119 435.724 401.89L430.505 386.823C429.989 385.594 428.948 384.597 427.609 384.053C426.271 383.508 424.744 383.459 423.366 383.917V383.917Z" fill="#2F2E41"/>
<path d="M502.607 495.76C501.247 495.9 499.875 495.621 498.717 494.97C497.56 494.32 496.685 493.336 496.238 492.182L459.175 396.31C458.917 395.645 458.81 394.941 458.857 394.239C458.905 393.536 459.107 392.849 459.452 392.216C459.798 391.584 460.279 391.018 460.87 390.551C461.46 390.085 462.148 389.726 462.893 389.497L475.785 385.528C477.291 385.066 478.941 385.156 480.373 385.778C481.804 386.4 482.901 387.504 483.421 388.847L520.485 484.72C521.002 486.063 520.901 487.535 520.204 488.812C519.507 490.09 518.271 491.068 516.766 491.533L503.874 495.5C503.463 495.627 503.038 495.715 502.607 495.76Z" fill="#876792"/>
<path d="M486.184 387.206L500.409 426.816C500.96 427.988 500.984 429.305 500.477 430.493C499.969 431.681 498.968 432.649 497.682 433.196L478.962 441.157C478.223 441.472 477.415 441.636 476.595 441.638C475.776 441.641 474.967 441.481 474.225 441.171C473.483 440.861 472.828 440.408 472.305 439.845C471.783 439.282 471.408 438.622 471.205 437.914L459.35 396.422C458.874 395.182 458.967 393.824 459.61 392.645C460.252 391.467 461.392 390.563 462.78 390.133L479.129 384.141C480.52 383.714 482.044 383.797 483.367 384.371C484.69 384.946 485.703 385.966 486.184 387.206V387.206Z" fill="#2F2E41"/>
<path d="M443.113 598.537H429.476C427.884 598.535 426.357 597.97 425.231 596.965C424.105 595.961 423.472 594.599 423.47 593.178V491.761C423.472 490.341 424.105 488.979 425.231 487.974C426.357 486.969 427.884 486.404 429.476 486.403H443.113C444.705 486.404 446.232 486.969 447.358 487.974C448.484 488.979 449.117 490.341 449.119 491.761V593.178C449.117 594.599 448.484 595.961 447.358 596.965C446.232 597.97 444.705 598.535 443.113 598.537Z" fill="#2F2E41"/>
<path d="M470.086 598.537H456.448C454.856 598.535 453.329 597.97 452.203 596.965C451.078 595.961 450.444 594.599 450.442 593.178V491.761C450.444 490.341 451.078 488.979 452.203 487.974C453.329 486.969 454.856 486.404 456.448 486.403H470.086C471.678 486.404 473.204 486.969 474.33 487.974C475.456 488.979 476.089 490.341 476.091 491.761V593.178C476.089 594.599 475.456 595.961 474.33 596.965C473.204 597.97 471.678 598.535 470.086 598.537Z" fill="#2F2E41"/>
<path d="M481.324 503.684H419.361C417.646 503.683 416.002 503.074 414.79 501.992C413.577 500.91 412.895 499.443 412.893 497.913V408.097C412.893 399.234 416.839 390.735 423.862 384.469C430.885 378.202 440.411 374.682 450.343 374.682C460.275 374.682 469.8 378.202 476.823 384.469C483.847 390.735 487.792 399.234 487.792 408.097V497.913C487.79 499.443 487.108 500.91 485.896 501.992C484.683 503.074 483.039 503.683 481.324 503.684Z" fill="#CCCCCC"/>
<path d="M490.651 525.655H459.237V367.237L459.82 367.379C468.668 369.546 476.474 374.243 482.043 380.749C487.612 387.254 490.636 395.21 490.651 403.396V525.655Z" fill="#2F2E41"/>
<path d="M438.896 525.655H407.481V403.396C407.496 395.21 410.52 387.254 416.089 380.749C421.658 374.243 429.465 369.546 438.312 367.379L438.896 367.237V525.655Z" fill="#2F2E41"/>
<path d="M449.874 375.065C477.184 375.065 499.324 355.31 499.324 330.942C499.324 306.574 477.184 286.819 449.874 286.819C422.564 286.819 400.424 306.574 400.424 330.942C400.424 355.31 422.564 375.065 449.874 375.065Z" fill="#876792"/>
<path d="M505.78 320.784C505.78 320.784 508.552 252.356 472.518 274.616C472.518 274.616 451.729 212.372 400.911 305.532L386.127 318.723C386.127 318.723 452.653 310.478 514.558 336.036L505.78 320.784Z" fill="#2F2E41"/>
<path d="M434.228 326.351H424.275V328H434.228V326.351Z" fill="#2F2E41"/>
<path d="M465.643 326.351H455.69V328H465.643V326.351Z" fill="#2F2E41"/>
<path d="M339.621 445.877C338.288 446.43 336.763 446.486 335.382 446.035C334.001 445.584 332.878 444.662 332.259 443.472L300.372 382.148C299.754 380.958 299.691 379.597 300.196 378.366C300.702 377.134 301.735 376.132 303.069 375.58C304.402 375.027 305.927 374.971 307.308 375.422C308.688 375.873 309.811 376.794 310.43 377.984L342.317 439.308C342.936 440.499 342.999 441.859 342.494 443.091C341.988 444.323 340.955 445.325 339.621 445.877Z" fill="#3F3D56"/>
<path d="M306.86 379.891C305.88 379.891 304.94 379.544 304.247 378.926C303.554 378.307 303.165 377.468 303.165 376.594V334.587H256.966C255.986 334.587 255.046 334.24 254.353 333.621C253.66 333.003 253.271 332.164 253.271 331.289C253.271 330.415 253.66 329.576 254.353 328.957C255.046 328.339 255.986 327.992 256.966 327.992H306.86C307.841 327.992 308.781 328.339 309.474 328.957C310.167 329.576 310.556 330.415 310.556 331.289V376.594C310.556 377.468 310.167 378.307 309.474 378.926C308.781 379.544 307.841 379.891 306.86 379.891V379.891Z" fill="#EA71CF"/>
<path d="M307.734 384.553C299.777 387.847 290.905 388.962 282.238 387.756C273.571 386.551 265.499 383.079 259.043 377.78C252.588 372.481 248.038 365.594 245.97 357.988C243.901 350.382 244.407 342.399 247.423 335.05C250.439 327.7 255.83 321.314 262.913 316.698C269.997 312.082 278.456 309.444 287.22 309.118C295.984 308.792 304.66 310.792 312.15 314.865C319.64 318.938 325.608 324.901 329.3 332.001C334.237 341.523 334.738 352.404 330.696 362.256C326.653 372.108 318.395 380.127 307.734 384.553V384.553ZM275.07 321.733C269.102 324.204 264.089 328.198 260.666 333.21C257.242 338.223 255.561 344.028 255.835 349.893C256.11 355.758 258.327 361.419 262.207 366.159C266.086 370.9 271.455 374.508 277.632 376.526C283.81 378.544 290.519 378.883 296.913 377.498C303.306 376.114 309.095 373.069 313.549 368.749C318.003 364.429 320.921 359.028 321.935 353.228C322.948 347.428 322.011 341.49 319.242 336.165C315.522 329.031 308.782 323.505 300.5 320.799C292.219 318.094 283.074 318.43 275.07 321.733V321.733Z" fill="#3F3D56"/>
<path d="M427.06 239.386C427.719 240.38 428.037 241.519 427.974 242.659C427.911 243.799 427.469 244.888 426.705 245.79C425.941 246.691 424.888 247.365 423.68 247.724C422.473 248.084 421.164 248.114 419.919 247.811C418.675 247.507 417.55 246.884 416.688 246.02C415.826 245.155 415.265 244.089 415.076 242.955C414.887 241.821 415.078 240.67 415.626 239.648C416.173 238.626 417.052 237.779 418.152 237.214C418.882 236.837 419.693 236.593 420.537 236.498C421.381 236.403 422.241 236.458 423.069 236.66C423.897 236.862 424.676 237.207 425.361 237.674C426.046 238.142 426.623 238.724 427.06 239.386V239.386Z" fill="#6C63FF"/>
<path opacity="0.3" d="M427.06 239.386C427.719 240.38 428.037 241.519 427.974 242.659C427.911 243.799 427.469 244.888 426.705 245.79C425.941 246.691 424.888 247.365 423.68 247.724C422.473 248.084 421.164 248.114 419.919 247.811C418.675 247.507 417.55 246.884 416.688 246.02C415.826 245.155 415.265 244.089 415.076 242.955C414.887 241.821 415.078 240.67 415.626 239.648C416.173 238.626 417.052 237.779 418.152 237.214C418.882 236.837 419.693 236.593 420.537 236.498C421.381 236.403 422.241 236.458 423.069 236.66C423.897 236.862 424.676 237.207 425.361 237.674C426.046 238.142 426.623 238.724 427.06 239.386V239.386Z" fill="black"/>
<path d="M420.907 209.24C422.008 210.877 422.713 212.695 422.976 214.575C423.087 215.385 423.117 216.2 423.065 217.012C422.944 218.672 422.559 220.303 421.921 221.855C421.815 222.127 421.693 222.415 421.524 222.794C421.307 223.26 421.053 223.762 420.749 224.319C420.205 225.293 419.725 226.296 419.311 227.322C419.054 227.912 418.906 228.538 418.874 229.174C418.894 230.061 419.54 231.465 420.793 233.351L420.999 233.662L411.713 238.43L410.746 236.973C409.99 235.834 409.384 234.86 408.889 233.996C408.43 233.218 408.017 232.42 407.653 231.605C407.308 230.901 407.104 230.151 407.05 229.39C407.051 228.159 407.693 226.156 409.009 223.268C409.067 223.147 409.122 223.022 409.182 222.896C409.24 222.782 409.293 222.667 409.348 222.548C409.827 221.583 410.188 220.572 410.423 219.534C410.483 219.217 410.52 218.897 410.534 218.575L410.538 218.49C410.504 217.349 410.116 216.23 409.418 215.259C409.254 215.007 409.069 214.766 408.865 214.537C408.115 213.623 407.02 212.98 405.789 212.728C404.454 212.457 403.066 212.609 401.866 213.157C401.709 213.22 401.57 213.288 401.428 213.36C400.878 213.639 400.369 213.979 399.915 214.371C399.063 215.107 398.5 216.068 398.303 217.118C398.199 217.677 398.174 218.246 398.227 218.813C398.54 220.927 399.214 222.994 400.226 224.94L400.408 225.284L390.27 227.668L387.957 224.186C387.906 224.025 387.858 223.862 387.815 223.7C387.213 221.667 387.01 219.564 387.213 217.486C387.303 216.603 387.487 215.73 387.761 214.881C387.82 214.671 387.895 214.458 387.972 214.247C388.476 212.882 389.184 211.587 390.076 210.396L390.155 210.293C391.873 208.08 394.135 206.251 396.776 204.941C397.048 204.801 397.37 204.64 397.698 204.493C400.339 203.217 403.283 202.494 406.311 202.378C407.674 202.331 409.042 202.424 410.388 202.655C414.104 203.212 417.466 205.03 419.763 207.724C420.177 208.209 420.559 208.715 420.907 209.24Z" fill="#6C63FF"/>
<path opacity="0.3" d="M420.907 209.24C422.008 210.877 422.713 212.695 422.976 214.575C423.087 215.385 423.117 216.2 423.065 217.012C422.944 218.672 422.559 220.303 421.921 221.855C421.815 222.127 421.693 222.415 421.524 222.794C421.307 223.26 421.053 223.762 420.749 224.319C420.205 225.293 419.725 226.296 419.311 227.322C419.054 227.912 418.906 228.538 418.874 229.174C418.894 230.061 419.54 231.465 420.793 233.351L420.999 233.662L411.713 238.43L410.746 236.973C409.99 235.834 409.384 234.86 408.889 233.996C408.43 233.218 408.017 232.42 407.653 231.605C407.308 230.901 407.104 230.151 407.05 229.39C407.051 228.159 407.693 226.156 409.009 223.268C409.067 223.147 409.122 223.022 409.182 222.896C409.24 222.782 409.293 222.667 409.348 222.548C409.827 221.583 410.188 220.572 410.423 219.534C410.483 219.217 410.52 218.897 410.534 218.575L410.538 218.49C410.504 217.349 410.116 216.23 409.418 215.259C409.254 215.007 409.069 214.766 408.865 214.537C408.115 213.623 407.02 212.98 405.789 212.728C404.454 212.457 403.066 212.609 401.866 213.157C401.709 213.22 401.57 213.288 401.428 213.36C400.878 213.639 400.369 213.979 399.915 214.371C399.063 215.107 398.5 216.068 398.303 217.118C398.199 217.677 398.174 218.246 398.227 218.813C398.54 220.927 399.214 222.994 400.226 224.94L400.408 225.284L390.27 227.668L387.957 224.186C387.906 224.025 387.858 223.862 387.815 223.7C387.213 221.667 387.01 219.564 387.213 217.486C387.303 216.603 387.487 215.73 387.761 214.881C387.82 214.671 387.895 214.458 387.972 214.247C388.476 212.882 389.184 211.587 390.076 210.396L390.155 210.293C391.873 208.08 394.135 206.251 396.776 204.941C397.048 204.801 397.37 204.64 397.698 204.493C400.339 203.217 403.283 202.494 406.311 202.378C407.674 202.331 409.042 202.424 410.388 202.655C414.104 203.212 417.466 205.03 419.763 207.724C420.177 208.209 420.559 208.715 420.907 209.24Z" fill="black"/>
<path d="M477.766 236.099C477.765 237.228 477.378 238.33 476.654 239.268C475.93 240.206 474.902 240.937 473.698 241.369C472.495 241.8 471.171 241.913 469.894 241.693C468.617 241.472 467.444 240.929 466.523 240.131C465.603 239.333 464.976 238.316 464.721 237.209C464.467 236.103 464.597 234.955 465.095 233.913C465.593 232.87 466.436 231.978 467.518 231.351C468.601 230.723 469.873 230.388 471.176 230.387C472.042 230.385 472.9 230.531 473.7 230.818C474.501 231.104 475.229 231.525 475.841 232.055C476.454 232.586 476.939 233.217 477.269 233.911C477.6 234.605 477.768 235.348 477.766 236.099V236.099Z" fill="#6C63FF"/>
<path opacity="0.3" d="M477.766 236.099C477.765 237.228 477.378 238.33 476.654 239.268C475.93 240.206 474.902 240.937 473.698 241.369C472.495 241.8 471.171 241.913 469.894 241.693C468.617 241.472 467.444 240.929 466.523 240.131C465.603 239.333 464.976 238.316 464.721 237.209C464.467 236.103 464.597 234.955 465.095 233.913C465.593 232.87 466.436 231.978 467.518 231.351C468.601 230.723 469.873 230.388 471.176 230.387C472.042 230.385 472.9 230.531 473.7 230.818C474.501 231.104 475.229 231.525 475.841 232.055C476.454 232.586 476.939 233.217 477.269 233.911C477.6 234.605 477.768 235.348 477.766 236.099V236.099Z" fill="black"/>
<path d="M489.702 207.307C489.715 209.173 489.271 211.021 488.401 212.728C488.024 213.463 487.572 214.168 487.05 214.833C485.969 216.187 484.672 217.402 483.198 218.44C482.945 218.624 482.667 218.815 482.296 219.063C481.831 219.363 481.312 219.678 480.716 220.018C479.665 220.607 478.652 221.248 477.684 221.938C477.111 222.326 476.613 222.792 476.211 223.317C475.709 224.078 475.456 225.549 475.456 227.692V228.046H464.454V226.391C464.454 225.096 464.491 224.007 464.561 223.059C464.61 222.2 464.714 221.344 464.871 220.495C464.978 219.748 465.238 219.024 465.638 218.355C466.36 217.312 468.103 215.894 470.959 214.019C471.082 213.942 471.204 213.86 471.331 213.779C471.449 213.708 471.563 213.634 471.682 213.556C472.671 212.947 473.582 212.247 474.399 211.469C474.638 211.227 474.859 210.972 475.06 210.705L475.114 210.635C475.753 209.653 476.067 208.536 476.019 207.409C476.023 207.124 476.001 206.839 475.954 206.557C475.827 205.456 475.238 204.434 474.297 203.685C473.277 202.875 471.962 202.399 470.58 202.341C470.404 202.327 470.241 202.323 470.074 202.323C469.423 202.32 468.775 202.387 468.144 202.521C466.96 202.775 465.898 203.344 465.107 204.148C464.689 204.577 464.332 205.048 464.046 205.552C463.082 207.48 462.466 209.524 462.218 211.614L462.177 211.986L451.82 209.595V205.637C451.869 205.478 451.922 205.319 451.979 205.163C452.641 203.179 453.694 201.308 455.093 199.635C455.691 198.926 456.365 198.266 457.105 197.666C457.28 197.513 457.472 197.365 457.664 197.22C458.91 196.282 460.295 195.493 461.781 194.872L461.912 194.818C464.728 193.691 467.8 193.125 470.902 193.163C471.224 193.163 471.604 193.167 471.979 193.185C475.062 193.252 478.087 193.921 480.831 195.14C482.063 195.693 483.217 196.367 484.271 197.149C487.228 199.238 489.131 202.241 489.58 205.524C489.662 206.116 489.703 206.711 489.702 207.307Z" fill="#6C63FF"/>
<path opacity="0.3" d="M489.702 207.307C489.715 209.173 489.271 211.021 488.401 212.728C488.024 213.463 487.572 214.168 487.05 214.833C485.969 216.187 484.672 217.402 483.198 218.44C482.945 218.624 482.667 218.815 482.296 219.063C481.831 219.363 481.312 219.678 480.716 220.018C479.665 220.607 478.652 221.248 477.684 221.938C477.111 222.326 476.613 222.792 476.211 223.317C475.709 224.078 475.456 225.549 475.456 227.692V228.046H464.454V226.391C464.454 225.096 464.491 224.007 464.561 223.059C464.61 222.2 464.714 221.344 464.871 220.495C464.978 219.748 465.238 219.024 465.638 218.355C466.36 217.312 468.103 215.894 470.959 214.019C471.082 213.942 471.204 213.86 471.331 213.779C471.449 213.708 471.563 213.634 471.682 213.556C472.671 212.947 473.582 212.247 474.399 211.469C474.638 211.227 474.859 210.972 475.06 210.705L475.114 210.635C475.753 209.653 476.067 208.536 476.019 207.409C476.023 207.124 476.001 206.839 475.954 206.557C475.827 205.456 475.238 204.434 474.297 203.685C473.277 202.875 471.962 202.399 470.58 202.341C470.404 202.327 470.241 202.323 470.074 202.323C469.423 202.32 468.775 202.387 468.144 202.521C466.96 202.775 465.898 203.344 465.107 204.148C464.689 204.577 464.332 205.048 464.046 205.552C463.082 207.48 462.466 209.524 462.218 211.614L462.177 211.986L451.82 209.595V205.637C451.869 205.478 451.922 205.319 451.979 205.163C452.641 203.179 453.694 201.308 455.093 199.635C455.691 198.926 456.365 198.266 457.105 197.666C457.28 197.513 457.472 197.365 457.664 197.22C458.91 196.282 460.295 195.493 461.781 194.872L461.912 194.818C464.728 193.691 467.8 193.125 470.902 193.163C471.224 193.163 471.604 193.167 471.979 193.185C475.062 193.252 478.087 193.921 480.831 195.14C482.063 195.693 483.217 196.367 484.271 197.149C487.228 199.238 489.131 202.241 489.58 205.524C489.662 206.116 489.703 206.711 489.702 207.307Z" fill="black"/>
<path d="M516.146 252.066C515.486 253.059 514.514 253.863 513.354 254.375C512.194 254.887 510.897 255.084 509.628 254.942C508.359 254.801 507.175 254.326 506.225 253.578C505.275 252.831 504.602 251.843 504.29 250.741C503.979 249.64 504.044 248.473 504.476 247.388C504.908 246.303 505.689 245.349 506.72 244.647C507.75 243.944 508.984 243.525 510.265 243.442C511.546 243.359 512.818 243.615 513.918 244.179C514.651 244.553 515.291 245.054 515.8 245.653C516.309 246.252 516.678 246.938 516.885 247.671C517.092 248.404 517.133 249.169 517.006 249.924C516.88 250.678 516.588 251.406 516.146 252.066V252.066Z" fill="#6C63FF"/>
<path opacity="0.3" d="M516.146 252.066C515.486 253.059 514.514 253.863 513.354 254.375C512.194 254.887 510.897 255.084 509.628 254.942C508.359 254.801 507.175 254.326 506.225 253.578C505.275 252.831 504.602 251.843 504.29 250.741C503.979 249.64 504.044 248.473 504.476 247.388C504.908 246.303 505.689 245.349 506.72 244.647C507.75 243.944 508.984 243.525 510.265 243.442C511.546 243.359 512.818 243.615 513.918 244.179C514.651 244.553 515.291 245.054 515.8 245.653C516.309 246.252 516.678 246.938 516.885 247.671C517.092 248.404 517.133 249.169 517.006 249.924C516.88 250.678 516.588 251.406 516.146 252.066V252.066Z" fill="black"/>
<path d="M542.42 232.25C541.34 233.898 539.886 235.332 538.154 236.457C537.406 236.94 536.613 237.364 535.784 237.723C534.081 238.447 532.276 238.953 530.425 239.228C530.104 239.281 529.758 239.328 529.3 239.385C528.732 239.448 528.11 239.501 527.409 239.541C526.177 239.604 524.948 239.73 523.728 239.917C523.017 240.01 522.325 240.204 521.679 240.493C520.811 240.944 519.738 242.129 518.486 244.015L518.279 244.326L508.993 239.559L509.96 238.103C510.716 236.964 511.383 236.021 511.996 235.217C512.54 234.483 513.127 233.775 513.756 233.095C514.283 232.485 514.925 231.96 515.653 231.545C516.872 230.94 519.172 230.447 522.678 230.035C522.827 230.02 522.978 230.001 523.132 229.984C523.273 229.974 523.413 229.958 523.558 229.94C524.749 229.833 525.927 229.612 527.071 229.282C527.414 229.172 527.75 229.043 528.076 228.896L528.162 228.857C529.275 228.27 530.192 227.424 530.811 226.411C530.98 226.162 531.128 225.902 531.254 225.633C531.79 224.609 531.889 223.454 531.533 222.388C531.145 221.233 530.313 220.245 529.18 219.594C529.041 219.506 528.905 219.432 528.764 219.36C528.216 219.075 527.63 218.853 527.019 218.698C525.872 218.407 524.643 218.448 523.506 218.814C522.902 219.009 522.325 219.27 521.79 219.589C519.85 220.868 518.135 222.4 516.705 224.131L516.454 224.44L509.108 217.849L511.421 214.366C511.555 214.247 511.693 214.13 511.832 214.018C513.55 212.558 515.531 211.369 517.689 210.503C518.609 210.138 519.563 209.849 520.538 209.641C520.775 209.584 521.024 209.536 521.271 209.492C522.87 209.206 524.5 209.111 526.118 209.209L526.259 209.219C529.295 209.447 532.219 210.28 534.814 211.658C535.086 211.798 535.405 211.965 535.711 212.144C538.273 213.539 540.436 215.438 542.04 217.7C542.757 218.72 543.337 219.814 543.77 220.958C545.045 224.078 544.897 227.545 543.358 230.628C543.081 231.184 542.768 231.726 542.42 232.25Z" fill="#6C63FF"/>
<path opacity="0.3" d="M542.42 232.25C541.34 233.898 539.886 235.332 538.154 236.457C537.406 236.94 536.613 237.364 535.784 237.723C534.081 238.447 532.276 238.953 530.425 239.228C530.104 239.281 529.758 239.328 529.3 239.385C528.732 239.448 528.11 239.501 527.409 239.541C526.177 239.604 524.948 239.73 523.728 239.917C523.017 240.01 522.325 240.204 521.679 240.493C520.811 240.944 519.738 242.129 518.486 244.015L518.279 244.326L508.993 239.559L509.96 238.103C510.716 236.964 511.383 236.021 511.996 235.217C512.54 234.483 513.127 233.775 513.756 233.095C514.283 232.485 514.925 231.96 515.653 231.545C516.872 230.94 519.172 230.447 522.678 230.035C522.827 230.02 522.978 230.001 523.132 229.984C523.273 229.974 523.413 229.958 523.558 229.94C524.749 229.833 525.927 229.612 527.071 229.282C527.414 229.172 527.75 229.043 528.076 228.896L528.162 228.857C529.275 228.27 530.192 227.424 530.811 226.411C530.98 226.162 531.128 225.902 531.254 225.633C531.79 224.609 531.889 223.454 531.533 222.388C531.145 221.233 530.313 220.245 529.18 219.594C529.041 219.506 528.905 219.432 528.764 219.36C528.216 219.075 527.63 218.853 527.019 218.698C525.872 218.407 524.643 218.448 523.506 218.814C522.902 219.009 522.325 219.27 521.79 219.589C519.85 220.868 518.135 222.4 516.705 224.131L516.454 224.44L509.108 217.849L511.421 214.366C511.555 214.247 511.693 214.13 511.832 214.018C513.55 212.558 515.531 211.369 517.689 210.503C518.609 210.138 519.563 209.849 520.538 209.641C520.775 209.584 521.024 209.536 521.271 209.492C522.87 209.206 524.5 209.111 526.118 209.209L526.259 209.219C529.295 209.447 532.219 210.28 534.814 211.658C535.086 211.798 535.405 211.965 535.711 212.144C538.273 213.539 540.436 215.438 542.04 217.7C542.757 218.72 543.337 219.814 543.77 220.958C545.045 224.078 544.897 227.545 543.358 230.628C543.081 231.184 542.768 231.726 542.42 232.25Z" fill="black"/>
<path d="M224.912 176.725L204.912 165.183L184.912 176.725" stroke="white" stroke-width="4"/>
<path d="M206.316 189.856C204.313 190.216 202.76 190.999 201.125 192.476C199.899 193.582 199.176 194.501 198.359 195.967C197.691 197.184 197.228 198.302 196.929 199.457L196.683 200.351L189.245 200.389L181.793 200.427L180.703 200.762C178.401 201.482 178.946 201.035 164.546 214.152L151.236 226.261L150.678 227.317C149.343 229.788 149.506 232.67 151.086 234.906C151.944 236.111 168.947 251.501 170.146 252.159C172.598 253.488 175.54 253.574 178.184 252.394L179.342 251.885L192.624 239.75C202.597 230.658 206.029 227.454 206.37 226.919C206.615 226.522 207.01 225.715 207.256 225.118L207.678 224.025L207.719 214.958C207.76 206.213 207.746 205.866 207.487 205.083C207.106 203.965 206.384 202.91 205.471 202.127C204.626 201.419 202.774 200.488 202.582 200.686C202.283 200.984 202.119 202.798 202.038 206.636L201.956 210.735L201.561 211.393C201.098 212.138 200.403 212.772 199.545 213.182C199.055 213.417 198.755 213.467 197.665 213.467C196.575 213.467 196.276 213.417 195.786 213.182C194.927 212.772 194.233 212.138 193.769 211.393C193.415 210.796 193.374 210.623 193.374 209.555C193.374 208.276 193.551 207.816 194.356 206.947C194.764 206.5 195.827 205.829 196.127 205.829C196.263 205.829 196.303 206.289 196.303 207.952V210.076L196.698 210.436C197.257 210.933 198.074 210.945 198.619 210.448L199.001 210.101L199.069 206.126C199.151 201.928 199.274 200.897 199.982 199.009C201.303 195.432 203.81 192.96 206.657 192.401C209.709 191.804 212.951 193.668 214.818 197.096C217.87 202.673 216.862 210.448 212.584 214.211C212.121 214.621 211.521 215.068 211.249 215.205L210.745 215.454V216.846C210.745 217.79 210.8 218.25 210.895 218.25C211.221 218.25 212.938 217.331 213.769 216.709C219.477 212.412 221.139 202.935 217.379 196.079C216.208 193.918 214.246 191.893 212.366 190.887C210.567 189.931 208.223 189.521 206.316 189.856Z" fill="#550052"/>
<path d="M167.64 237.8C167.249 237.464 166.836 237.279 166.402 237.243C165.972 237.204 165.541 237.383 165.11 237.779L165.052 237.833L164.994 237.898C164.545 238.311 164.394 238.841 164.541 239.488C164.688 240.127 165.146 240.777 165.916 241.437L166.223 241.7C166.912 242.292 167.575 242.627 168.212 242.705C168.853 242.78 169.367 242.638 169.755 242.281L169.814 242.228C170.267 241.811 170.456 241.349 170.381 240.84C170.307 240.332 169.967 239.818 169.362 239.299C169.273 239.207 169.206 239.142 169.161 239.104L168.761 238.726L168 238.074L167.78 237.908C167.732 237.874 167.685 237.838 167.64 237.8ZM164.393 237.004C164.868 236.567 165.092 236.254 165.067 236.064C165.027 235.769 164.702 235.36 164.093 234.837C163.91 234.681 163.704 234.539 163.474 234.41C163.24 234.278 163.091 234.185 163.029 234.132C162.829 233.96 162.733 233.748 162.742 233.495C162.751 233.242 162.895 232.986 163.175 232.728L163.298 232.615C163.639 232.302 163.993 232.257 164.361 232.48C164.626 232.639 165.893 233.691 168.162 235.637L168.949 236.335L170.063 237.291L170.69 237.805C170.792 237.893 170.895 237.981 170.997 238.068L171.15 238.188C171.252 238.268 171.432 238.419 171.69 238.64C171.944 238.858 172.227 239.039 172.541 239.186C172.854 239.324 173.06 239.436 173.158 239.52C173.256 239.603 173.298 239.735 173.283 239.914C173.269 240.094 173.156 240.28 172.945 240.475C172.738 240.665 172.495 240.837 172.217 240.989C171.939 241.134 171.76 241.244 171.678 241.32C171.596 241.395 171.436 241.657 171.198 242.105C170.965 242.548 170.713 242.895 170.441 243.145L170.298 243.276C169.565 243.95 168.738 244.256 167.817 244.195C166.896 244.125 166.019 243.733 165.187 243.02L164.847 242.728C164.411 242.354 164.042 241.919 163.74 241.422C163.438 240.918 163.254 240.407 163.188 239.891C163.06 238.823 163.462 237.86 164.393 237.004ZM174.611 232.361C174.905 232.091 175.065 231.861 175.092 231.669C175.12 231.478 175.073 231.331 174.953 231.228L174.673 230.988C174.353 230.713 173.974 230.591 173.536 230.622C173.099 230.653 172.744 230.794 172.472 231.044L172.304 231.198C171.912 231.559 171.74 232.021 171.789 232.585C171.834 233.144 172.059 233.598 172.463 233.945L172.577 234.042C172.732 234.176 172.948 234.116 173.224 233.862L173.373 233.725L173.405 233.683L173.857 233.209L174.154 232.888L174.347 232.663C174.381 232.624 174.426 232.57 174.482 232.503C174.542 232.432 174.585 232.385 174.611 232.361ZM178.362 236.049L178.078 236.311C177.215 237.104 176.223 237.484 175.1 237.449C174.601 237.434 174.081 237.311 173.543 237.079C173 236.843 172.526 236.551 172.121 236.204L171.821 235.947C171.416 235.6 171.074 235.16 170.793 234.628C170.24 233.594 170.186 232.597 170.629 231.636C170.853 231.138 171.182 230.688 171.618 230.288L171.76 230.157C172.364 229.602 173.051 229.306 173.822 229.269C174.264 229.25 174.694 229.32 175.113 229.48C175.532 229.632 175.864 229.813 176.109 230.023C176.647 230.485 176.834 230.937 176.671 231.379C176.558 231.681 176.149 232.243 175.445 233.064C174.745 233.882 174.367 234.336 174.312 234.427C174.035 234.856 174.02 235.177 174.269 235.391C174.701 235.761 175.253 235.893 175.926 235.788C176.42 235.713 176.928 235.436 177.449 234.956C177.648 234.774 177.905 234.423 178.22 233.904C178.535 233.384 178.714 233.105 178.757 233.065C178.982 232.859 179.198 232.846 179.407 233.025C179.67 233.25 179.688 233.695 179.463 234.361C179.238 235.018 178.871 235.581 178.362 236.049ZM183.296 229.864L183.496 229.679C183.897 229.31 184.073 228.832 184.024 228.246C183.996 227.923 183.715 227.533 183.182 227.075L183.101 226.995L182.935 226.852C182.601 226.566 182.301 226.546 182.033 226.792L181.826 226.982L181.517 227.314L181.362 227.492C180.965 227.857 180.755 228.256 180.732 228.688C180.704 229.117 180.848 229.466 181.164 229.737L181.398 229.937C181.638 230.143 181.938 230.255 182.297 230.272C182.657 230.281 182.99 230.145 183.296 229.864ZM186.889 227.128C187.187 227.383 187.045 227.779 186.463 228.314C186.36 228.409 186.116 228.538 185.734 228.701C185.351 228.855 185.123 228.966 185.049 229.033C184.98 229.097 184.825 229.378 184.584 229.876C184.339 230.371 184.065 230.757 183.763 231.035L183.614 231.172C183.144 231.604 182.581 231.841 181.924 231.884C181.263 231.922 180.657 231.705 180.106 231.232C178.985 230.271 178.975 229.039 180.075 227.538C180.785 226.56 181.149 226.052 181.165 226.013C181.266 225.723 181.171 225.454 180.882 225.206C180.588 224.954 180.253 224.828 179.876 224.827C179.499 224.818 179.156 224.956 178.845 225.241C178.539 225.523 178.286 225.95 178.085 226.521C177.88 227.089 177.7 227.445 177.545 227.587C177.265 227.845 176.927 227.804 176.531 227.465C176.282 227.251 176.266 226.847 176.484 226.251C176.705 225.652 177.099 225.093 177.664 224.573L177.987 224.276C178.41 223.887 178.867 223.612 179.36 223.452C179.852 223.292 180.325 223.252 180.777 223.334C181.419 223.448 182.447 224.111 183.861 225.324C184.662 226.01 185.175 226.424 185.401 226.564C185.631 226.7 185.904 226.8 186.221 226.865C186.533 226.926 186.756 227.013 186.889 227.128ZM179.82 218.167C179.469 217.866 179.573 217.457 180.134 216.941L180.251 216.834C180.652 216.465 181.049 216.404 181.443 216.65L182.891 217.892L183.379 218.333L183.625 218.545L184.367 219.215L184.613 219.426L184.74 219.547C184.825 219.619 184.909 219.692 184.994 219.764L185.114 219.879C185.199 219.951 185.283 220.024 185.368 220.096L185.488 220.211L186.115 220.749L186.988 221.464C187.073 221.528 187.277 221.7 187.602 221.978C187.927 222.257 188.314 222.517 188.766 222.758C189.217 222.991 189.616 223.142 189.963 223.21C190.306 223.274 190.553 223.371 190.704 223.501C190.855 223.63 190.898 223.828 190.833 224.094C190.771 224.356 190.573 224.641 190.236 224.951L190.01 225.159C189.402 225.718 188.849 225.784 188.351 225.357C188.315 225.326 188.217 225.211 188.055 225.012C187.894 224.812 187.556 224.487 187.04 224.037L185.484 222.634L185.364 222.519C185.279 222.447 185.195 222.374 185.11 222.302L184.863 222.078C184.779 222.006 184.694 221.933 184.61 221.861L184.489 221.746C184.405 221.674 184.32 221.601 184.236 221.529L183.989 221.305C183.904 221.233 183.82 221.16 183.735 221.088L183.488 220.865L183.228 220.641L182.981 220.418L181.727 219.342C181.22 218.907 180.794 218.619 180.45 218.477C180.106 218.335 179.896 218.232 179.82 218.167ZM189.654 219.059C188.946 219.11 188.324 218.907 187.79 218.449C187.252 217.988 187.036 217.407 187.143 216.709C187.244 216.007 187.638 215.34 188.324 214.71C189.009 214.079 189.596 213.693 190.085 213.552C190.569 213.408 190.948 213.454 191.224 213.69C191.602 214.015 191.673 214.286 191.435 214.504C191.353 214.579 191.044 214.701 190.508 214.87C189.972 215.039 189.538 215.276 189.206 215.582C188.874 215.887 188.702 216.184 188.689 216.472C188.681 216.756 188.799 217.003 189.044 217.213C189.289 217.423 189.666 217.463 190.177 217.334C190.351 217.292 190.856 217.104 191.692 216.77C192.527 216.429 193.174 216.241 193.634 216.205C194.351 216.154 194.984 216.363 195.531 216.832C196.078 217.301 196.316 217.9 196.245 218.629C196.175 219.351 195.79 220.033 195.091 220.675C193.905 221.766 192.932 222.238 192.172 222.092C191.93 222.045 191.751 221.972 191.635 221.873C191.248 221.541 191.171 221.268 191.404 221.054C191.473 220.991 191.846 220.862 192.521 220.667C193.197 220.465 193.705 220.207 194.046 219.893C194.391 219.576 194.587 219.261 194.634 218.949C194.681 218.637 194.576 218.37 194.318 218.149C194.056 217.924 193.658 217.863 193.125 217.965C192.907 218.008 192.387 218.194 191.564 218.524C190.737 218.849 190.101 219.028 189.654 219.059Z" fill="white"/>
<path d="M100.457 195.902C100.445 195.902 100.428 195.902 100.404 195.902C99.0566 195.902 98.3828 195.44 98.3828 194.514C98.3828 194.068 98.5 193.518 98.7344 192.861C98.9688 192.205 99.1035 191.543 99.1387 190.875C99.1738 190.195 99.1914 189.158 99.1914 187.764V184.477L99.2266 183.563C99.25 182.953 99.2617 182.52 99.2617 182.262L99.0859 180.451C99.0859 180.041 99.4492 179.836 100.176 179.836C100.914 179.836 101.67 180.035 102.443 180.434C103.217 180.832 103.691 181.031 103.867 181.031C104.055 181.031 104.4 180.914 104.904 180.68C105.42 180.445 106.023 180.193 106.715 179.924C107.418 179.643 108.139 179.502 108.877 179.502H109.334C110.213 179.502 110.992 179.742 111.672 180.223C112.363 180.691 112.861 181.348 113.166 182.191C113.482 183.023 113.705 184.559 113.834 186.797L113.887 187.764L113.922 188.731C113.957 189.293 113.998 189.902 114.045 190.559C114.092 191.215 114.25 191.906 114.52 192.633C114.789 193.348 114.924 193.828 114.924 194.074C114.924 195.117 114.127 195.639 112.533 195.639C111.854 195.639 111.355 195.504 111.039 195.234C110.723 194.953 110.564 194.484 110.564 193.828L110.6 193.178C110.6 188.619 110.271 185.514 109.615 183.861C109.1 182.584 108.191 181.945 106.891 181.945C106.27 181.945 105.66 182.104 105.062 182.42C104.477 182.725 104.02 183.223 103.691 183.914C103.105 185.145 102.812 187.512 102.812 191.016L102.953 194.197C102.953 194.701 102.713 195.111 102.232 195.428C101.752 195.744 101.16 195.902 100.457 195.902ZM120.215 196.482H119.775C118.791 196.482 118.299 196.154 118.299 195.498C118.299 195.451 119.143 194.227 120.83 191.824C122.529 189.41 123.379 188.016 123.379 187.641C123.379 187.266 122.623 185.994 121.111 183.826C120.689 183.217 120.127 182.525 119.424 181.752C118.732 180.967 118.387 180.428 118.387 180.135C118.387 179.467 119.225 179.133 120.9 179.133C122.119 179.133 122.975 179.438 123.467 180.047C123.561 180.164 123.678 180.416 123.818 180.803C123.959 181.178 124.217 181.711 124.592 182.402C125.412 183.902 125.998 184.652 126.35 184.652C126.631 184.652 127.246 183.879 128.195 182.332C128.57 181.723 128.852 181.154 129.039 180.627C129.238 180.1 129.373 179.789 129.443 179.695C129.795 179.238 130.346 179.01 131.096 179.01C132.514 179.01 133.223 179.262 133.223 179.766C133.223 180.059 132.408 181.242 130.779 183.316C129.15 185.391 128.336 186.732 128.336 187.342C128.336 187.94 129.203 189.387 130.938 191.684C131.512 192.445 132.115 193.137 132.748 193.758C133.393 194.379 133.715 194.865 133.715 195.217C133.715 195.873 132.742 196.207 130.797 196.219C129.824 196.219 129.121 195.943 128.688 195.393C128.605 195.287 128.465 195.012 128.266 194.566C128.078 194.121 127.85 193.664 127.58 193.195C126.525 191.379 125.857 190.471 125.576 190.471C125.225 190.471 124.545 191.309 123.537 192.984C123.244 193.477 122.98 194.039 122.746 194.672C122.523 195.293 122.389 195.639 122.342 195.709C121.967 196.225 121.258 196.482 120.215 196.482ZM143.998 196.342H143.33C141.643 196.342 140.43 195.615 139.691 194.162C139.082 192.979 138.777 191.033 138.777 188.326C138.777 185.619 138.631 183.762 138.338 182.754C138.232 182.379 137.939 181.951 137.459 181.471C136.979 180.99 136.738 180.574 136.738 180.223V179.994C136.738 179.69 137.014 179.356 137.564 178.992C138.115 178.629 138.432 178.371 138.514 178.219C138.607 178.055 138.783 177.486 139.041 176.514C139.311 175.529 139.586 174.844 139.867 174.457C140.16 174.059 140.547 173.859 141.027 173.859C141.52 173.859 141.865 174 142.064 174.281C142.275 174.563 142.48 175.143 142.68 176.022C142.891 176.9 143.119 177.498 143.365 177.815C143.611 178.119 144.209 178.441 145.158 178.781C146.107 179.121 146.582 179.543 146.582 180.047C146.582 180.492 146.084 180.891 145.088 181.242C144.104 181.594 143.482 182.027 143.225 182.543C142.732 183.539 142.486 185.303 142.486 187.834C142.486 190.365 142.703 191.918 143.137 192.492C143.57 193.055 144.273 193.4 145.246 193.529C146.23 193.658 146.723 194.027 146.723 194.637C146.723 195.106 146.441 195.51 145.879 195.85C145.328 196.178 144.701 196.342 143.998 196.342ZM150.994 187.852C150.479 187.852 150.221 187.553 150.221 186.955V186.551C150.221 185.766 150.402 185.315 150.766 185.197C151.129 185.068 152.805 185.004 155.793 185.004L159.238 184.951H159.889C160.568 184.951 160.908 185.256 160.908 185.865V186.252C160.885 186.416 160.873 186.545 160.873 186.639C160.873 187.225 160.65 187.57 160.205 187.676C159.771 187.77 158.143 187.816 155.318 187.816H154.527L154.141 187.834H153.35L152.822 187.852H150.994ZM175.85 184.617C175.85 183.586 175.592 182.748 175.076 182.104C174.572 181.459 173.734 181.137 172.562 181.137H172.404L172.229 181.154C171.01 181.154 170.002 181.734 169.205 182.895C168.42 184.043 168.027 185.631 168.027 187.658V188.467C168.027 190.283 168.385 191.684 169.1 192.668C169.826 193.652 170.717 194.145 171.771 194.145H171.93C173.16 194.145 174.115 193.717 174.795 192.861C175.475 192.006 175.814 190.781 175.814 189.188C175.838 188.93 175.85 188.742 175.85 188.625L175.902 187.518V185.514L175.867 184.969C175.855 184.852 175.85 184.734 175.85 184.617ZM172.809 179.01C174.098 179.01 174.871 178.852 175.129 178.535C175.527 178.043 175.727 176.994 175.727 175.389C175.727 174.908 175.674 174.416 175.568 173.912C175.463 173.397 175.41 173.057 175.41 172.893C175.41 172.365 175.609 171.92 176.008 171.557C176.406 171.193 176.986 171.012 177.748 171.012H178.082C179.008 171.012 179.541 171.428 179.682 172.26C179.787 172.857 179.84 176.145 179.84 182.121L179.805 184.231V187.166L179.84 188.783C179.84 189.053 179.84 189.322 179.84 189.592L179.857 189.979C179.869 190.236 179.875 190.705 179.875 191.385C179.875 192.053 179.969 192.709 180.156 193.354C180.355 193.986 180.455 194.432 180.455 194.69C180.455 194.947 180.309 195.199 180.016 195.445C179.723 195.691 179.289 195.815 178.715 195.815C178.152 195.815 177.572 195.738 176.975 195.586C176.389 195.422 175.984 195.34 175.762 195.34C175.539 195.34 174.93 195.51 173.934 195.85C172.949 196.19 172.088 196.359 171.35 196.359H170.963C168.971 196.359 167.418 195.686 166.305 194.338C165.203 192.979 164.652 191.203 164.652 189.012V188.115C164.652 186.967 164.834 185.818 165.197 184.67C165.572 183.51 166.111 182.502 166.814 181.647C168.279 179.889 170.277 179.01 172.809 179.01ZM191.934 194.373H192.285C193.469 194.373 194.441 193.852 195.203 192.809C195.965 191.766 196.346 190.447 196.346 188.854L196.381 188.467L196.398 187.869V187.078C196.398 185.332 196.041 183.897 195.326 182.772C194.623 181.635 193.68 181.066 192.496 181.066H192.145C190.984 181.066 190.006 181.641 189.209 182.789C188.424 183.938 188.031 185.461 188.031 187.359V188.555C188.055 188.836 188.066 189.029 188.066 189.135C188.066 190.471 188.436 191.678 189.174 192.756C189.912 193.834 190.832 194.373 191.934 194.373ZM200.371 187.324V187.904C200.371 188.947 200.201 190.02 199.861 191.121C199.17 193.359 197.811 194.965 195.783 195.938C194.611 196.5 193.451 196.781 192.303 196.781H191.705C190.615 196.781 189.602 196.559 188.664 196.113C186.801 195.223 185.564 193.746 184.955 191.684C184.627 190.594 184.463 189.486 184.463 188.361V187.465C184.463 186.363 184.633 185.262 184.973 184.16C185.641 181.981 186.965 180.422 188.945 179.484C189.965 178.992 191.008 178.746 192.074 178.746H192.953C193.961 178.746 194.957 178.963 195.941 179.397C197.91 180.264 199.234 181.811 199.914 184.037C200.219 185.022 200.371 186.117 200.371 187.324ZM211.199 194.373H211.551C212.734 194.373 213.707 193.852 214.469 192.809C215.23 191.766 215.611 190.447 215.611 188.854L215.646 188.467L215.664 187.869V187.078C215.664 185.332 215.307 183.897 214.592 182.772C213.889 181.635 212.945 181.066 211.762 181.066H211.41C210.25 181.066 209.271 181.641 208.475 182.789C207.689 183.938 207.297 185.461 207.297 187.359V188.555C207.32 188.836 207.332 189.029 207.332 189.135C207.332 190.471 207.701 191.678 208.439 192.756C209.178 193.834 210.098 194.373 211.199 194.373ZM219.637 187.324V187.904C219.637 188.947 219.467 190.02 219.127 191.121C218.436 193.359 217.076 194.965 215.049 195.938C213.877 196.5 212.717 196.781 211.568 196.781H210.971C209.881 196.781 208.867 196.559 207.93 196.113C206.066 195.223 204.83 193.746 204.221 191.684C203.893 190.594 203.729 189.486 203.729 188.361V187.465C203.729 186.363 203.898 185.262 204.238 184.16C204.906 181.981 206.23 180.422 208.211 179.484C209.23 178.992 210.273 178.746 211.34 178.746H212.219C213.227 178.746 214.223 178.963 215.207 179.397C217.176 180.264 218.5 181.811 219.18 184.037C219.484 185.022 219.637 186.117 219.637 187.324ZM231.836 182.525C230.734 182.525 229.879 183.076 229.27 184.178C228.66 185.268 228.355 186.938 228.355 189.188C228.355 190.184 228.396 190.893 228.479 191.315C228.561 191.725 228.684 192.24 228.848 192.861C229.023 193.471 229.111 194.004 229.111 194.461C229.111 194.906 228.842 195.316 228.303 195.691C227.764 196.066 227.061 196.254 226.193 196.254L225.895 196.236H225.578C225.016 196.236 224.547 196.078 224.172 195.762C223.809 195.445 223.627 195.088 223.627 194.69V194.408C223.627 194.326 223.738 193.94 223.961 193.248C224.184 192.557 224.312 191.889 224.348 191.244C224.383 190.6 224.4 189.732 224.4 188.643V186.691L224.383 186.375C224.383 186.164 224.383 185.953 224.383 185.742L224.348 184.793C224.336 184.582 224.33 184.172 224.33 183.563C224.33 182.941 224.219 182.356 223.996 181.805C223.785 181.242 223.68 180.879 223.68 180.715C223.68 180.012 224.295 179.66 225.525 179.66C226.756 179.66 227.646 179.994 228.197 180.662C228.361 180.861 228.531 180.961 228.707 180.961C228.895 180.961 229.199 180.815 229.621 180.522C230.793 179.725 231.777 179.326 232.574 179.326H232.855C233.559 179.326 234.092 179.484 234.455 179.801C234.83 180.117 235.018 180.539 235.018 181.066C235.018 182.109 234.438 182.631 233.277 182.631C232.82 182.561 232.34 182.525 231.836 182.525Z" fill="white"/>
<line y1="-1.5" x2="5.26723" y2="-1.5" transform="matrix(0.74768 0.664059 -0.74768 0.664059 218.114 196.214)" stroke="#550052" stroke-width="3"/>
</g>
<defs>
<clipPath id="clip0">
<rect width="600" height="600" fill="white"/>
</clipPath>
</defs>
</svg>
