<svg width="1038" height="819" viewBox="0 0 1038 819" fill="none" xmlns="http://www.w3.org/2000/svg">
<path d="M128.282 814.381C95.2133 829.11 57.9383 804.907 57.9383 768.707L57.9383 49.9998C57.9383 22.3856 80.3241 -0.000161052 107.938 -0.000161052H987.622C1015.24 -0.000161052 1037.62 22.3856 1037.62 49.9998V558.007C1037.62 585.622 1015.24 608.007 987.622 608.007H602.256C595.246 608.007 588.315 609.481 581.912 612.333L128.282 814.381Z" fill="url(#paint0_linear)"/>
<mask id="path-2-inside-1" fill="white">
<path d="M561.943 341.382V296.368H537.282V267.127H520.588V296.368H495.927V341.382H482.268V240.196H454.572V230.577H417.769V220.959H381.347V230.577H346.821V240.196H316.848V340.997H300.913V295.983H276.252V266.743H259.558V295.983H234.897V340.997H218.962V500.663H255.384V444.107H280.425V500.663H378.311V434.873H420.805V500.663H479.992V501.048H516.415V444.491H541.455V501.048H577.878V341.382H561.943ZM232.051 360.619H246.468V372.161H232.051V360.619ZM232.241 392.937H246.658V404.479H232.241V392.937ZM246.848 436.797H232.43V425.255H246.848V436.797ZM284.599 332.533H251.211V325.608H284.599V332.533ZM284.599 322.53H251.211V315.604H284.599V322.53ZM284.599 312.526H251.211V305.601H284.599V312.526ZM289.341 360.619H303.759V372.161H289.341V360.619ZM289.531 392.937H303.948V404.479H289.531V392.937ZM304.138 436.797H289.721V425.255H304.138V436.797ZM363.135 417.56H336.577V405.633H363.135V417.56ZM363.135 383.318H336.577V371.391H363.135V383.318ZM363.135 349.077H336.577V337.15H363.135V349.077ZM363.135 314.835H336.577V302.908H363.135V314.835ZM363.135 280.593H336.577V268.666H363.135V280.593ZM412.837 417.56H386.279V405.633H412.837V417.56ZM412.837 383.318H386.279V371.391H412.837V383.318ZM412.837 349.077H386.279V337.15H412.837V349.077ZM412.837 314.835H386.279V302.908H412.837V314.835ZM412.837 280.593H386.279V268.666H412.837V280.593ZM462.539 417.56H435.981V405.633H462.539V417.56ZM462.539 383.318H435.981V371.391H462.539V383.318ZM462.539 349.077H435.981V337.15H462.539V349.077ZM462.539 314.835H435.981V302.908H462.539V314.835ZM462.539 280.593H435.981V268.666H462.539V280.593ZM493.081 361.003H507.499V372.546H493.081V361.003ZM493.271 393.321H507.688V404.863H493.271V393.321ZM507.878 437.181H493.461V425.639H507.878V437.181ZM545.629 332.918H512.241V325.992H545.629V332.918ZM545.629 322.914H512.241V315.989H545.629V322.914ZM545.629 312.911H512.241V305.986H545.629V312.911ZM550.371 361.003H564.789V372.546H550.371V361.003ZM550.561 393.321H564.978V404.863H550.561V393.321ZM565.168 437.181H550.751V425.639H565.168V437.181Z"/>
</mask>
<path d="M561.943 341.382V296.368H537.282V267.127H520.588V296.368H495.927V341.382H482.268V240.196H454.572V230.577H417.769V220.959H381.347V230.577H346.821V240.196H316.848V340.997H300.913V295.983H276.252V266.743H259.558V295.983H234.897V340.997H218.962V500.663H255.384V444.107H280.425V500.663H378.311V434.873H420.805V500.663H479.992V501.048H516.415V444.491H541.455V501.048H577.878V341.382H561.943ZM232.051 360.619H246.468V372.161H232.051V360.619ZM232.241 392.937H246.658V404.479H232.241V392.937ZM246.848 436.797H232.43V425.255H246.848V436.797ZM284.599 332.533H251.211V325.608H284.599V332.533ZM284.599 322.53H251.211V315.604H284.599V322.53ZM284.599 312.526H251.211V305.601H284.599V312.526ZM289.341 360.619H303.759V372.161H289.341V360.619ZM289.531 392.937H303.948V404.479H289.531V392.937ZM304.138 436.797H289.721V425.255H304.138V436.797ZM363.135 417.56H336.577V405.633H363.135V417.56ZM363.135 383.318H336.577V371.391H363.135V383.318ZM363.135 349.077H336.577V337.15H363.135V349.077ZM363.135 314.835H336.577V302.908H363.135V314.835ZM363.135 280.593H336.577V268.666H363.135V280.593ZM412.837 417.56H386.279V405.633H412.837V417.56ZM412.837 383.318H386.279V371.391H412.837V383.318ZM412.837 349.077H386.279V337.15H412.837V349.077ZM412.837 314.835H386.279V302.908H412.837V314.835ZM412.837 280.593H386.279V268.666H412.837V280.593ZM462.539 417.56H435.981V405.633H462.539V417.56ZM462.539 383.318H435.981V371.391H462.539V383.318ZM462.539 349.077H435.981V337.15H462.539V349.077ZM462.539 314.835H435.981V302.908H462.539V314.835ZM462.539 280.593H435.981V268.666H462.539V280.593ZM493.081 361.003H507.499V372.546H493.081V361.003ZM493.271 393.321H507.688V404.863H493.271V393.321ZM507.878 437.181H493.461V425.639H507.878V437.181ZM545.629 332.918H512.241V325.992H545.629V332.918ZM545.629 322.914H512.241V315.989H545.629V322.914ZM545.629 312.911H512.241V305.986H545.629V312.911ZM550.371 361.003H564.789V372.546H550.371V361.003ZM550.561 393.321H564.978V404.863H550.561V393.321ZM565.168 437.181H550.751V425.639H565.168V437.181Z" stroke="#FAFBFC" stroke-width="4" mask="url(#path-2-inside-1)"/>
<path d="M625.924 527.897H543.013L545.824 496.767H623.113L625.924 527.897Z" fill="#E6E6E6"/>
<path d="M631.544 524.305H538.798V531.489H631.544V524.305Z" fill="#E6E6E6"/>
<path d="M743.262 296.213H426.378C424.142 296.213 421.997 296.97 420.416 298.317C418.835 299.664 417.946 301.492 417.946 303.397V303.397V468.03H751.693V303.397C751.693 302.453 751.475 301.519 751.051 300.648C750.628 299.776 750.006 298.984 749.223 298.317C748.441 297.65 747.511 297.121 746.488 296.76C745.465 296.399 744.369 296.213 743.262 296.213H743.262Z" fill="#3F3D56"/>
<path d="M417.947 468.03V494.97C417.947 495.914 418.165 496.848 418.588 497.72C419.012 498.591 419.633 499.383 420.416 500.05C421.199 500.717 422.128 501.246 423.151 501.607C424.174 501.969 425.271 502.154 426.378 502.154H743.262C745.498 502.154 747.642 501.397 749.224 500.05C750.805 498.703 751.693 496.876 751.693 494.97V468.03H417.947Z" fill="#E6E6E6"/>
<path d="M735.533 311.18H434.809V454.86H735.533V311.18Z" fill="#E6E6E6"/>
<path d="M585.171 491.977C589.828 491.977 593.602 488.761 593.602 484.793C593.602 480.826 589.828 477.609 585.171 477.609C580.514 477.609 576.74 480.826 576.74 484.793C576.74 488.761 580.514 491.977 585.171 491.977Z" fill="#3F3D56"/>
<path d="M444.186 317.248C445.07 317.248 445.786 316.638 445.786 315.885C445.786 315.132 445.07 314.521 444.186 314.521C443.302 314.521 442.586 315.132 442.586 315.885C442.586 316.638 443.302 317.248 444.186 317.248Z" fill="#FAFBFC"/>
<path d="M450.26 317.248C451.143 317.248 451.86 316.638 451.86 315.885C451.86 315.132 451.143 314.521 450.26 314.521C449.376 314.521 448.66 315.132 448.66 315.885C448.66 316.638 449.376 317.248 450.26 317.248Z" fill="#FAFBFC"/>
<path d="M456.333 317.248C457.217 317.248 457.933 316.638 457.933 315.885C457.933 315.132 457.217 314.521 456.333 314.521C455.449 314.521 454.733 315.132 454.733 315.885C454.733 316.638 455.449 317.248 456.333 317.248Z" fill="#FAFBFC"/>
<path d="M726.865 320.518H442.586V441.185H726.865V320.518Z" fill="#FAFBFC"/>
<path d="M461.483 338.871C461.217 338.871 460.961 338.962 460.773 339.122C460.584 339.283 460.478 339.5 460.478 339.727V383.01C460.478 383.237 460.584 383.455 460.773 383.616C460.961 383.776 461.217 383.866 461.483 383.867H520.148C520.414 383.866 520.67 383.776 520.858 383.616C521.047 383.455 521.153 383.237 521.153 383.01V339.727C521.153 339.5 521.047 339.283 520.858 339.122C520.67 338.962 520.414 338.871 520.148 338.871H461.483Z" fill="#E6E6E6"/>
<path d="M555.677 339.011C555.41 339.011 555.155 339.102 554.966 339.262C554.778 339.423 554.672 339.64 554.671 339.868V383.011C554.672 383.238 554.778 383.456 554.966 383.617C555.155 383.777 555.41 383.867 555.677 383.868H614.155C614.421 383.867 614.677 383.777 614.865 383.616C615.053 383.456 615.159 383.238 615.159 383.011V339.868C615.159 339.641 615.053 339.423 614.865 339.262C614.677 339.102 614.421 339.012 614.155 339.011H555.677Z" fill="#E6E6E6"/>
<path d="M648.883 338.559C648.616 338.559 648.361 338.649 648.173 338.81C647.984 338.97 647.878 339.188 647.878 339.415V383.011C647.878 383.238 647.984 383.456 648.173 383.616C648.361 383.777 648.616 383.867 648.883 383.867H707.969C708.235 383.867 708.491 383.777 708.679 383.616C708.867 383.456 708.973 383.238 708.974 383.011V339.415C708.973 339.188 708.867 338.97 708.679 338.81C708.491 338.649 708.235 338.559 707.969 338.559H648.883Z" fill="#E6E6E6"/>
<path d="M462.555 405.292C462.005 405.293 461.478 405.48 461.089 405.812C460.7 406.144 460.482 406.594 460.482 407.063C460.482 407.532 460.7 407.982 461.089 408.313C461.478 408.645 462.005 408.832 462.555 408.833H517.712C518.263 408.832 518.79 408.645 519.179 408.313C519.568 407.982 519.786 407.532 519.786 407.063C519.786 406.594 519.568 406.144 519.179 405.812C518.79 405.48 518.263 405.293 517.712 405.292H462.555Z" fill="#E6E6E6"/>
<path d="M462.556 413.713C462.005 413.714 461.478 413.901 461.089 414.233C460.7 414.565 460.482 415.015 460.482 415.484C460.482 415.953 460.7 416.403 461.089 416.735C461.478 417.067 462.005 417.254 462.556 417.254H487.389C487.94 417.254 488.467 417.067 488.856 416.735C489.245 416.403 489.463 415.953 489.463 415.484C489.463 415.015 489.245 414.565 488.856 414.233C488.467 413.901 487.94 413.714 487.389 413.713H462.556Z" fill="#6C63FF"/>
<path d="M557.762 405.292C557.211 405.293 556.684 405.48 556.295 405.812C555.906 406.144 555.688 406.594 555.688 407.063C555.688 407.532 555.906 407.982 556.295 408.313C556.684 408.645 557.211 408.832 557.762 408.833H612.918C613.468 408.832 613.996 408.645 614.385 408.313C614.773 407.982 614.992 407.532 614.992 407.063C614.992 406.594 614.773 406.144 614.385 405.812C613.996 405.48 613.468 405.293 612.918 405.292H557.762Z" fill="#E6E6E6"/>
<path d="M557.762 413.713C557.211 413.714 556.684 413.901 556.295 414.233C555.906 414.565 555.688 415.015 555.688 415.484C555.688 415.953 555.906 416.403 556.295 416.735C556.684 417.067 557.211 417.254 557.762 417.254H582.596C583.146 417.254 583.674 417.067 584.063 416.735C584.451 416.403 584.67 415.953 584.67 415.484C584.67 415.015 584.451 414.565 584.063 414.233C583.674 413.901 583.146 413.714 582.596 413.713H557.762Z" fill="#6C63FF"/>
<path d="M650.588 405.292C650.038 405.293 649.51 405.48 649.121 405.812C648.732 406.144 648.514 406.594 648.514 407.063C648.514 407.532 648.732 407.982 649.121 408.313C649.51 408.645 650.038 408.832 650.588 408.833H705.745C706.295 408.832 706.823 408.645 707.211 408.313C707.6 407.982 707.819 407.532 707.819 407.063C707.819 406.594 707.6 406.144 707.211 405.812C706.823 405.48 706.295 405.293 705.745 405.292H650.588Z" fill="#E6E6E6"/>
<path d="M462.555 396.595C462.005 396.596 461.478 396.783 461.089 397.115C460.7 397.447 460.482 397.897 460.482 398.366C460.482 398.835 460.7 399.284 461.089 399.616C461.478 399.948 462.005 400.135 462.555 400.136H517.712C518.263 400.135 518.79 399.948 519.179 399.616C519.568 399.284 519.786 398.835 519.786 398.366C519.786 397.897 519.568 397.447 519.179 397.115C518.79 396.783 518.263 396.596 517.712 396.595H462.555Z" fill="#E6E6E6"/>
<path d="M557.762 396.595C557.211 396.596 556.684 396.783 556.295 397.115C555.906 397.447 555.688 397.897 555.688 398.366C555.688 398.835 555.906 399.284 556.295 399.616C556.684 399.948 557.211 400.135 557.762 400.136H612.918C613.468 400.135 613.996 399.948 614.385 399.616C614.773 399.284 614.992 398.835 614.992 398.366C614.992 397.897 614.773 397.447 614.385 397.115C613.996 396.783 613.468 396.596 612.918 396.595H557.762Z" fill="#E6E6E6"/>
<path d="M650.588 396.595C650.038 396.596 649.51 396.783 649.121 397.115C648.732 397.447 648.514 397.897 648.514 398.366C648.514 398.835 648.732 399.284 649.121 399.616C649.51 399.948 650.038 400.135 650.588 400.136H705.745C706.295 400.135 706.823 399.948 707.211 399.616C707.6 399.284 707.819 398.835 707.819 398.366C707.819 397.897 707.6 397.447 707.211 397.115C706.823 396.783 706.295 396.596 705.745 396.595H650.588Z" fill="#E6E6E6"/>
<path d="M650.588 413.713C650.038 413.714 649.51 413.901 649.121 414.233C648.732 414.565 648.514 415.015 648.514 415.484C648.514 415.953 648.732 416.403 649.121 416.735C649.51 417.067 650.038 417.254 650.588 417.254H675.422C675.972 417.254 676.5 417.067 676.889 416.735C677.277 416.403 677.496 415.953 677.496 415.484C677.496 415.015 677.277 414.565 676.889 414.233C676.5 413.901 675.972 413.714 675.422 413.713H650.588Z" fill="#6C63FF"/>
<path d="M470.634 368.419H507.793V364.596C507.793 354.272 499.458 345.873 489.213 345.873C478.969 345.873 470.634 354.272 470.634 364.596V368.419Z" fill="#3F3D56"/>
<path opacity="0.2" d="M470.634 368.419H507.793V364.596C507.793 354.272 499.458 345.873 489.213 345.873C478.969 345.873 470.634 354.272 470.634 364.596V368.419Z" fill="black"/>
<path d="M475.45 369.742H504.047C504.02 368.226 503.404 366.781 502.331 365.718C501.258 364.655 499.814 364.058 498.309 364.057H481.188C479.683 364.058 478.239 364.655 477.166 365.718C476.093 366.781 475.477 368.226 475.45 369.742V369.742Z" fill="#6C63FF"/>
<path d="M472.044 369.154C475.214 369.154 477.784 366.564 477.784 363.37C477.784 360.176 475.214 357.586 472.044 357.586C468.874 357.586 466.305 360.176 466.305 363.37C466.305 366.564 468.874 369.154 472.044 369.154Z" fill="#3F3D56"/>
<path d="M506.869 369.154C510.039 369.154 512.608 366.564 512.608 363.37C512.608 360.176 510.039 357.586 506.869 357.586C503.699 357.586 501.13 360.176 501.13 363.37C501.13 366.564 503.699 369.154 506.869 369.154Z" fill="#3F3D56"/>
<path d="M502.54 366.312V368.468H476.033V366.312H470.099V376.823C470.099 377.467 470.353 378.084 470.805 378.54C471.257 378.995 471.869 379.251 472.509 379.251H506.065C506.381 379.251 506.694 379.188 506.987 379.066C507.279 378.944 507.545 378.765 507.768 378.54C507.992 378.314 508.17 378.047 508.291 377.752C508.412 377.457 508.474 377.142 508.474 376.823V366.312H502.54Z" fill="#3F3D56"/>
<path opacity="0.2" d="M472.044 364.547C472.689 364.547 473.211 364.02 473.211 363.37C473.211 362.721 472.689 362.194 472.044 362.194C471.4 362.194 470.877 362.721 470.877 363.37C470.877 364.02 471.4 364.547 472.044 364.547Z" fill="black"/>
<path opacity="0.2" d="M506.869 364.547C507.514 364.547 508.037 364.02 508.037 363.37C508.037 362.721 507.514 362.194 506.869 362.194C506.225 362.194 505.702 362.721 505.702 363.37C505.702 364.02 506.225 364.547 506.869 364.547Z" fill="black"/>
<path d="M578.293 368.844L578.06 368.84L578.084 368.291L578.906 368.363L578.875 368.516L578.31 368.466L578.293 368.844Z" fill="#3F3D56"/>
<path d="M578.115 372.988L577.882 372.983L577.927 371.948L578.16 371.952L578.115 372.988ZM578.175 371.607L577.941 371.602L577.986 370.567L578.219 370.571L578.175 371.607ZM578.234 370.226L578.001 370.222L578.045 369.186L578.279 369.19L578.234 370.226Z" fill="#3F3D56"/>
<path d="M577.843 373.878L577.867 373.329L578.1 373.333L578.084 373.711L578.652 373.681L578.671 373.835L577.843 373.878Z" fill="#3F3D56"/>
<path d="M579.116 373.813L579.098 373.658L580.436 373.589L580.454 373.744L579.116 373.813ZM580.9 373.721L580.882 373.566L582.22 373.497L582.238 373.652L580.9 373.721ZM582.684 373.629L582.666 373.474L584.005 373.405L584.023 373.56L582.684 373.629ZM584.469 373.537L584.451 373.382L585.789 373.313L585.807 373.468L584.469 373.537ZM586.253 373.445L586.235 373.29L587.573 373.221L587.591 373.376L586.253 373.445ZM588.038 373.353L588.02 373.198L589.358 373.129L589.376 373.284L588.038 373.353ZM589.822 373.261L589.804 373.106L591.142 373.037L591.16 373.192L589.822 373.261ZM591.606 373.169L591.588 373.014L592.926 372.945L592.944 373.1L591.606 373.169ZM593.391 373.077L593.373 372.922L594.711 372.853L594.729 373.007L593.391 373.077ZM595.175 372.985L595.157 372.83L596.495 372.761L596.513 372.915L595.175 372.985ZM596.959 372.892L596.941 372.738L598.28 372.669L598.298 372.823L596.959 372.892ZM598.744 372.8L598.726 372.646L600.064 372.577L600.082 372.731L598.744 372.8Z" fill="#3F3D56"/>
<path d="M600.528 372.708L600.51 372.554L601.013 372.528L600.74 372.247L600.936 372.164L601.421 372.662L600.528 372.708Z" fill="#3F3D56"/>
<path d="M600.448 371.947L599.574 371.047L599.77 370.963L600.644 371.863L600.448 371.947ZM599.283 370.747L598.408 369.847L598.604 369.763L599.479 370.663L599.283 370.747Z" fill="#3F3D56"/>
<path d="M596.146 376.039C600.523 376.039 604.072 373.683 604.072 370.778C604.072 367.872 600.523 365.517 596.146 365.517C591.769 365.517 588.22 367.872 588.22 370.778C588.22 373.683 591.769 376.039 596.146 376.039Z" fill="#6C63FF"/>
<path d="M602.673 376.889L591.076 363.234L588.512 364.936L599.934 376.851L602.673 376.889Z" fill="#3F3D56"/>
<path d="M567.532 376.541L593.582 359.017L595.738 361.841L571.028 377.314L567.532 376.541Z" fill="#3F3D56"/>
<path d="M578.138 374.685C581.035 374.685 583.383 373.126 583.383 371.203C583.383 369.28 581.035 367.722 578.138 367.722C575.242 367.722 572.893 369.28 572.893 371.203C572.893 373.126 575.242 374.685 578.138 374.685Z" fill="#3F3D56"/>
<path d="M571.145 372.208C571.114 372.209 571.084 372.217 571.062 372.231C571.041 372.246 571.028 372.265 571.028 372.286V372.906C571.028 372.926 571.041 372.946 571.062 372.961C571.084 372.975 571.114 372.983 571.145 372.983H574.059C574.09 372.983 574.119 372.975 574.141 372.961C574.163 372.946 574.175 372.926 574.175 372.906V372.286C574.175 372.265 574.163 372.246 574.141 372.231C574.119 372.217 574.09 372.209 574.059 372.208H571.145Z" fill="#6C63FF"/>
<path d="M577.847 363.583C577.816 363.583 577.786 363.591 577.764 363.605C577.743 363.62 577.73 363.639 577.73 363.66V364.28C577.73 364.3 577.743 364.32 577.764 364.335C577.786 364.349 577.816 364.357 577.847 364.357H580.761C580.792 364.357 580.821 364.349 580.843 364.335C580.865 364.32 580.877 364.3 580.877 364.28V363.66C580.877 363.639 580.865 363.62 580.843 363.605C580.821 363.591 580.792 363.583 580.761 363.583H577.847Z" fill="#6C63FF"/>
<path d="M592.008 362.306H588.978V360.758L590.144 360.449L592.008 361.377V362.306Z" fill="#3F3D56"/>
<path d="M589.362 360.056L589.045 360.156L589.643 360.995L589.96 360.895L589.362 360.056Z" fill="#3F3D56"/>
<path d="M589.696 359.053C589.674 359.053 589.652 359.057 589.634 359.065L587.575 359.944C587.549 359.955 587.531 359.973 587.524 359.993C587.518 360.013 587.523 360.034 587.54 360.051L588.044 360.571C588.061 360.589 588.088 360.601 588.118 360.605C588.148 360.61 588.179 360.606 588.205 360.595L590.264 359.716V359.716C590.29 359.705 590.308 359.687 590.315 359.667C590.321 359.647 590.316 359.626 590.299 359.609L589.795 359.088C589.786 359.08 589.776 359.072 589.763 359.067C589.751 359.061 589.736 359.057 589.721 359.055C589.713 359.053 589.705 359.053 589.696 359.053V359.053Z" fill="#6C63FF"/>
<path d="M594.34 362.151L591.95 354.453L594.747 354.144L596.655 360.345C596.737 360.57 596.738 360.804 596.657 361.029C596.576 361.254 596.416 361.463 596.19 361.64C595.965 361.816 595.679 361.954 595.358 362.043C595.036 362.132 594.687 362.169 594.34 362.151Z" fill="#3F3D56"/>
<path d="M603.143 352.936L600.376 352.805C600.339 352.803 600.303 352.795 600.271 352.783C600.24 352.77 600.213 352.752 600.194 352.731C600.174 352.71 600.163 352.687 600.16 352.662C600.157 352.637 600.163 352.613 600.178 352.59L604.197 346.29C604.213 346.267 604.236 346.246 604.267 346.23C604.297 346.214 604.333 346.203 604.371 346.198L607.101 345.875C607.141 345.87 607.183 345.873 607.222 345.882C607.261 345.892 607.295 345.908 607.322 345.929C607.348 345.95 607.365 345.976 607.372 346.003C607.378 346.03 607.374 346.058 607.359 346.084L603.377 352.838C603.359 352.869 603.326 352.895 603.284 352.913C603.242 352.93 603.193 352.938 603.143 352.936Z" fill="#3F3D56"/>
<path d="M600.75 352.324L602.965 352.479L606.578 346.444L604.247 346.676L600.75 352.324Z" fill="#6C63FF"/>
<path d="M576.623 368.882L573.709 370.816L569.513 358.669L571.844 358.902L576.623 368.882Z" fill="#3F3D56"/>
<path d="M573.227 358.883L572.724 358.783C571.735 359.072 570.659 359.207 569.579 359.176C569.346 359.169 569.126 359.103 568.965 358.991C568.804 358.879 568.714 358.73 568.716 358.575V358.575C568.716 358.415 568.811 358.262 568.981 358.149C569.151 358.037 569.381 357.973 569.622 357.973H574.018C574.137 357.973 574.251 358.005 574.335 358.06C574.42 358.116 574.467 358.192 574.467 358.271C574.467 358.371 574.432 358.469 574.364 358.558C574.297 358.647 574.199 358.724 574.079 358.784C573.958 358.843 573.819 358.883 573.671 358.9C573.523 358.918 573.371 358.912 573.227 358.883V358.883Z" fill="#3F3D56"/>
<path d="M601.073 351.287C600.96 351.287 600.851 351.311 600.761 351.356L597.183 353.173L593.177 353.519C592.488 353.579 592.01 354.077 591.95 354.53L596.665 354.095C597.32 354.053 597.939 353.877 598.436 353.591L601.409 351.884C601.488 351.839 601.544 351.779 601.57 351.711C601.596 351.644 601.591 351.573 601.554 351.508C601.517 351.443 601.452 351.387 601.366 351.347C601.28 351.308 601.177 351.286 601.073 351.287V351.287Z" fill="#3F3D56"/>
<path d="M599.324 350.126C599.212 350.126 599.102 350.151 599.013 350.196L595.434 352.013L591.429 352.359C590.739 352.419 590.262 352.917 590.202 353.37L594.917 352.935C595.572 352.893 596.191 352.717 596.688 352.431L599.66 350.724C599.739 350.679 599.796 350.619 599.822 350.551C599.848 350.484 599.842 350.413 599.806 350.348C599.769 350.283 599.703 350.227 599.617 350.187C599.531 350.147 599.429 350.126 599.324 350.126V350.126Z" fill="#3F3D56"/>
<path d="M601.508 354.801C600.674 354.8 599.853 354.669 599.11 354.419C598.367 354.168 597.722 353.806 597.229 353.36L597.698 353.132C598.075 353.473 598.553 353.761 599.102 353.977C599.651 354.192 600.26 354.332 600.893 354.387C601.525 354.443 602.168 354.412 602.782 354.298C603.397 354.183 603.97 353.987 604.467 353.722C604.964 353.456 605.375 353.127 605.675 352.753C605.974 352.379 606.157 351.969 606.211 351.547C606.265 351.125 606.19 350.7 605.99 350.298C605.79 349.895 605.469 349.524 605.047 349.207L605.483 348.951C606.159 349.459 606.599 350.085 606.752 350.755C606.904 351.425 606.762 352.11 606.342 352.728C605.922 353.346 605.243 353.87 604.385 354.237C603.528 354.605 602.529 354.801 601.508 354.801V354.801Z" fill="#3F3D56"/>
<path d="M605.587 376.502H564.327V378.437H605.587V376.502Z" fill="#3F3D56"/>
<path d="M580.061 364.279H578.779V368.921H580.061V364.279Z" fill="#3F3D56"/>
<path d="M590.901 353.067L590.551 353.222L592.883 354.77L594.281 353.919L591.95 352.681L590.901 353.067Z" fill="#3F3D56"/>
<path d="M694.85 369.407L694.03 369.204C694.605 367.865 694.861 366.457 694.789 365.041C694.447 358.079 686.387 352.44 676.82 352.47C667.254 352.5 659.75 358.189 660.092 365.151C660.155 366.477 660.506 367.794 661.13 369.054L660.324 369.25C659.334 367.253 659.005 365.128 659.364 363.051C659.722 360.974 660.758 359.005 662.386 357.306C664.013 355.606 666.186 354.226 668.724 353.278C671.262 352.331 674.093 351.844 676.983 351.857C679.872 351.87 682.738 352.383 685.342 353.354C687.947 354.325 690.216 355.725 691.962 357.44C693.707 359.155 694.88 361.134 695.382 363.215C695.884 365.296 695.702 367.418 694.85 369.407V369.407Z" fill="black"/>
<path d="M665.137 363.969C663.513 363.974 661.98 364.448 660.872 365.287C659.765 366.126 659.176 367.261 659.234 368.442C659.291 369.624 659.991 370.755 661.18 371.587C662.369 372.419 663.948 372.884 665.572 372.879L667.092 372.874L666.657 363.965L665.137 363.969Z" fill="black"/>
<path d="M666.666 363.341C666.304 363.342 665.962 363.448 665.716 363.635C665.469 363.822 665.337 364.075 665.35 364.338L665.749 372.509C665.761 372.773 665.918 373.025 666.183 373.21C666.448 373.396 666.8 373.499 667.162 373.498C667.523 373.497 667.865 373.392 668.112 373.205C668.359 373.018 668.49 372.765 668.478 372.501L668.079 364.33C668.065 364.066 667.909 363.814 667.644 363.629C667.379 363.444 667.028 363.34 666.666 363.341Z" fill="#407BFF"/>
<path d="M688.534 372.811L690.054 372.806C691.678 372.801 693.212 372.327 694.319 371.489C695.426 370.65 696.015 369.515 695.958 368.333C695.929 367.748 695.742 367.169 695.408 366.63C695.074 366.09 694.6 365.601 694.011 365.189C692.822 364.357 691.243 363.892 689.619 363.897L688.099 363.901L688.534 372.811Z" fill="black"/>
<path d="M688.03 363.277C687.668 363.279 687.326 363.384 687.08 363.571C686.833 363.758 686.701 364.011 686.714 364.274L687.113 372.446C687.126 372.709 687.282 372.961 687.547 373.146C687.812 373.332 688.164 373.435 688.526 373.434C688.887 373.433 689.229 373.328 689.476 373.141C689.723 372.954 689.854 372.701 689.842 372.438L689.443 364.266C689.429 364.003 689.273 363.751 689.008 363.566C688.743 363.38 688.392 363.276 688.03 363.277V363.277Z" fill="#407BFF"/>
<path d="M960.872 671.518C951.267 699.323 607.966 692.155 608.73 666.683C618.334 638.88 961.635 646.048 960.872 671.518Z" fill="#585591"/>
<g clip-path="url(#clip0)">
<path d="M939.677 581.023C941.554 584.434 942.103 588.49 941.21 592.346C940.317 596.202 938.051 599.56 934.884 601.718C931.718 603.877 927.896 604.669 924.216 603.93C920.536 603.191 917.282 600.978 915.133 597.753C914.997 597.55 914.865 597.343 914.739 597.129L914.733 597.118C914.639 596.963 914.549 596.806 914.461 596.647C912.536 593.138 912.017 588.953 913.018 585.011C914.019 581.068 916.458 577.691 919.799 575.621C923.14 573.551 927.11 572.957 930.837 573.97C934.564 574.983 937.743 577.52 939.677 581.023Z" fill="#65617D"/>
<path d="M931.203 596.347C935.211 593.864 936.613 588.491 934.332 584.346C932.052 580.202 926.954 578.856 922.945 581.34C918.936 583.823 917.535 589.196 919.815 593.341C922.095 597.485 927.194 598.831 931.203 596.347Z" fill="#DCE0ED"/>
<path d="M929.63 593.491C931.952 592.053 932.689 588.805 931.277 586.238C929.865 583.671 926.839 582.757 924.517 584.196C922.196 585.634 921.458 588.882 922.87 591.449C924.282 594.016 927.309 594.93 929.63 593.491Z" fill="#65617D"/>
<path d="M879.223 583.581L849.081 602.914L846.597 598.412C844.874 594.628 847.882 591.081 851.047 588.605C853.521 586.684 856.303 585.244 859.249 584.359C866.661 582.1 870.968 579.899 873.011 578.687C873.461 578.42 873.979 578.317 874.478 578.394C874.977 578.472 875.427 578.725 875.752 579.112C876.133 579.567 876.537 580.069 876.931 580.566C877.237 580.958 877.537 581.345 877.814 581.706C878.618 582.756 879.223 583.581 879.223 583.581Z" fill="#65617D"/>
<path d="M918.676 594.68L854.286 634.386C853.792 634.698 853.224 634.854 852.654 634.834C852.084 634.814 851.536 634.62 851.078 634.275C849.936 633.384 850.196 632.206 850.674 631.314C851.659 629.499 852.003 627.396 851.648 625.376C851.19 622.878 850.059 619.198 847.514 613.944C844.88 608.51 845.301 604.761 846.612 602.263L846.613 602.262C848.307 599.036 851.485 597.895 851.485 597.895L877.711 582.01C878.295 581.94 878.883 581.963 879.456 582.078C883.009 582.867 881.219 587.862 881.219 587.862C878.297 600.256 888.228 604.867 888.228 604.867L901.587 596.63C904.09 595.104 906.108 592.831 907.371 590.115C908.47 587.721 908.485 586.05 908.341 585.134C908.231 584.433 908.125 583.733 908.068 583.024C907.268 573.059 896.038 562.97 891.595 559.348C890.492 558.446 889.807 557.945 889.807 557.945L893.817 555.036L896.352 553.196L896.378 553.178C907.92 559.918 915.952 569.205 921.025 576.628C921.503 577.327 921.956 578.012 922.382 578.675C923.19 579.936 923.736 581.364 923.986 582.87C924.237 584.375 924.187 585.926 923.84 587.427C923.492 588.927 922.855 590.345 921.966 591.593C921.078 592.841 919.958 593.891 918.676 594.68V594.68Z" fill="#1C1952"/>
<path opacity="0.1" d="M877.973 581.502L847.567 600.015L847.18 599.309L877.395 580.913C877.596 581.114 877.792 581.314 877.973 581.502Z" fill="black"/>
<path opacity="0.1" d="M879.13 581.764L846.689 601.515C846.605 601.567 846.516 601.607 846.427 601.634C848.475 599.089 851.505 597.731 851.505 597.731L877.581 582.027C878.114 581.874 878.637 581.786 879.13 581.764Z" fill="black"/>
<path d="M878.486 580.255L834.89 606.805C834.543 607.016 834.434 607.504 834.648 607.894C834.862 608.284 835.317 608.428 835.665 608.216L879.261 581.667C879.608 581.455 879.717 580.967 879.503 580.577C879.289 580.187 878.833 580.043 878.486 580.255Z" fill="#DCE0ED"/>
<path opacity="0.1" d="M921.205 577.003C920.631 579.616 919.892 580.962 918.971 579.152C916.183 573.677 893.741 555.022 893.741 555.022L896.324 553.137C907.974 560.003 916.083 569.452 921.205 577.003Z" fill="black"/>
<path opacity="0.1" d="M938.796 579.472C937.495 580.777 935.841 582.308 933.734 584.076C932.952 584.733 932.104 585.423 931.191 586.146C929.004 587.883 926.429 589.81 923.401 591.937C922.544 592.541 921.649 593.16 920.718 593.795C918.973 594.984 917.092 596.231 915.073 597.536L914.681 596.918L914.675 596.907C916.871 593.951 919.603 587.991 915.745 579.236C917.151 577.402 918.936 575.924 920.96 574.914C922.985 573.905 925.196 573.392 927.423 573.415C929.649 573.438 931.833 573.995 933.805 575.046C935.777 576.096 937.484 577.61 938.796 579.472Z" fill="black"/>
<path d="M911.94 599.409C911.94 599.409 925.882 588.572 907.937 568.451C907.937 568.451 919.091 570.834 925.776 571.859C932.461 572.884 943.52 573.158 943.52 573.158C943.52 573.158 941.235 580.832 911.94 599.409Z" fill="#1C1952"/>
<path opacity="0.1" d="M911.94 599.409C911.94 599.409 925.882 588.572 907.937 568.451C907.937 568.451 919.091 570.834 925.776 571.859C932.461 572.884 943.52 573.158 943.52 573.158C943.52 573.158 941.235 580.832 911.94 599.409Z" fill="#FAFBFC"/>
<path d="M880.014 635.121C887.187 630.677 889.746 621.156 885.728 613.856C881.711 606.555 872.638 604.239 865.465 608.683C858.292 613.127 855.733 622.648 859.751 629.949C863.769 637.249 872.841 639.565 880.014 635.121Z" fill="#65617D"/>
<path d="M876.869 629.409C880.668 627.055 881.898 621.786 879.617 617.64C877.337 613.493 872.408 612.041 868.61 614.395C864.811 616.749 863.581 622.018 865.862 626.164C868.142 630.311 873.071 631.763 876.869 629.409Z" fill="#DCE0ED"/>
<path d="M874.916 626.781C877.238 625.343 877.975 622.095 876.563 619.528C875.151 616.962 872.124 616.047 869.803 617.486C867.481 618.924 866.744 622.172 868.156 624.739C869.568 627.306 872.595 628.22 874.916 626.781Z" fill="#65617D"/>
<path opacity="0.1" d="M884.807 608.482C880.149 600.036 869.713 597.297 861.498 602.364C853.283 607.43 850.4 618.383 855.059 626.829C855.255 627.185 855.463 627.53 855.68 627.866L885.355 609.564C885.186 609.199 885.004 608.838 884.807 608.482Z" fill="black"/>
<path d="M884.073 609.005C879.616 600.926 869.686 598.274 861.892 603.081C854.099 607.888 851.393 618.334 855.849 626.412C856.037 626.753 856.236 627.083 856.443 627.405L884.597 610.04C884.435 609.691 884.261 609.345 884.073 609.005Z" fill="#1C1952"/>
<path opacity="0.1" d="M884.072 609.004C884.202 609.239 884.324 609.476 884.441 609.714C884.494 609.822 884.546 609.93 884.598 610.039L856.443 627.405C856.378 627.303 856.315 627.203 856.252 627.1C856.113 626.876 855.979 626.646 855.849 626.412C851.393 618.334 854.098 607.888 861.892 603.081C869.686 598.274 879.617 600.926 884.072 609.004Z" fill="#FAFBFC"/>
<path opacity="0.1" d="M910.4 564.417C911.088 563.374 909.688 561.078 907.274 559.289C904.86 557.5 902.345 556.896 901.657 557.939C900.97 558.982 902.369 561.277 904.784 563.066C907.198 564.855 909.713 565.46 910.4 564.417Z" fill="black"/>
<path d="M910.466 564.161C911.154 563.118 909.754 560.822 907.34 559.033C904.925 557.244 902.411 556.639 901.723 557.682C901.035 558.725 902.435 561.021 904.849 562.81C907.264 564.599 909.778 565.204 910.466 564.161Z" fill="#DCE0ED"/>
<path opacity="0.1" d="M895.923 553.22L897.096 555.345L892.324 558.274C891.88 558.548 891.419 558.789 890.946 558.997C889.941 558.276 889.314 557.88 889.314 557.88L893.363 555.026L895.923 553.22Z" fill="black"/>
<path d="M897.096 555.207L892.373 558.135C888.225 560.707 883.095 559.576 880.915 555.61L880.548 554.943C878.368 550.977 879.963 545.677 884.11 543.105L889.077 540.621L897.096 555.207Z" fill="#1C1952"/>
<path d="M883.454 549.449C883.454 549.449 887.146 549.17 886.891 552.728C886.891 552.728 886.654 557.228 883.302 558.892L878.307 552.638C878.307 552.638 881.928 549.931 883.454 549.449Z" fill="#1C1952"/>
<path opacity="0.1" d="M882.273 549.986C882.738 549.722 883.248 549.563 883.766 549.521C884.283 549.48 884.795 549.557 885.264 549.746C886.156 550.122 887.016 550.943 886.889 552.724C886.889 552.724 886.654 557.228 883.302 558.892L878.302 552.629C879.58 551.675 880.906 550.792 882.273 549.986V549.986Z" fill="black"/>
<path opacity="0.1" d="M889.156 540.97C889.661 540.658 890.216 540.449 890.79 540.355C891.364 540.262 891.944 540.285 892.499 540.425C893.054 540.565 893.572 540.818 894.023 541.17C894.474 541.522 894.85 541.966 895.13 542.477L898.768 549.126C899.332 550.157 899.468 551.396 899.146 552.572C898.823 553.747 898.069 554.762 897.049 555.394V555.394L889.156 540.97V540.97Z" fill="black"/>
<path d="M889.156 540.97C890.176 540.339 891.379 540.143 892.499 540.425C893.619 540.708 894.566 541.446 895.13 542.477L898.768 549.126C899.332 550.157 899.468 551.396 899.146 552.572C898.823 553.747 898.069 554.762 897.049 555.394L889.156 540.97Z" fill="#DCE0ED"/>
<path d="M882.57 560.308C884.259 559.26 884.66 556.648 883.464 554.473C882.269 552.298 879.931 551.385 878.241 552.432C876.552 553.48 876.152 556.092 877.347 558.267C878.542 560.442 880.881 561.356 882.57 560.308Z" fill="#1C1952"/>
<path d="M857.093 595.239L860.092 597.207L860.909 592.88" stroke="black" stroke-miterlimit="10"/>
<path d="M865.581 593.928L854.121 601.027L860.412 612.457L871.872 605.359L865.581 593.928Z" fill="#FAFBFC"/>
<path d="M873.784 538.598L878.266 530.008L877.149 529.285L872.667 537.875C872.266 537.823 871.852 537.934 871.498 538.191C871.144 538.447 870.87 538.833 870.725 539.281C870.579 539.73 870.57 540.213 870.7 540.649C870.829 541.084 871.089 541.444 871.435 541.668C871.78 541.892 872.19 541.965 872.594 541.874C872.998 541.784 873.371 541.536 873.648 541.173C873.926 540.81 874.091 540.355 874.116 539.885C874.141 539.415 874.023 538.96 873.784 538.598Z" fill="#E6E6E6"/>
<path d="M831.074 627.369L823.449 622.431L881.273 511.636L878.297 509.709L820.474 620.503L812.849 615.565C811.945 614.979 810.939 614.613 809.888 614.486C808.838 614.359 807.763 614.474 806.725 614.824C805.687 615.175 804.706 615.754 803.839 616.529C802.972 617.303 802.236 618.259 801.672 619.34L801.672 619.34L833.659 640.058L833.659 640.058C834.224 638.977 834.604 637.791 834.78 636.569C834.955 635.346 834.922 634.11 834.682 632.932C834.442 631.754 834 630.656 833.381 629.702C832.762 628.747 831.978 627.955 831.074 627.369V627.369Z" fill="#E6E6E6"/>
<path d="M855.922 516.254L887.459 536.725L900.617 506.641C901.067 505.602 901.173 504.429 900.914 503.354C900.655 502.28 900.05 501.381 899.219 500.834L878.163 487.166C877.326 486.63 876.326 486.487 875.359 486.766C874.392 487.045 873.528 487.725 872.937 488.674L855.922 516.254Z" fill="#FCFCFD"/>
<path d="M807.685 550.007C810.93 547.945 812.019 543.337 810.117 539.713C808.216 536.089 804.043 534.822 800.798 536.883C797.552 538.945 796.463 543.553 798.365 547.177C800.267 550.801 804.439 552.068 807.685 550.007Z" fill="#FAFBFC"/>
<path d="M825.075 538.961C828.32 536.9 829.409 532.291 827.508 528.667C825.606 525.044 821.433 523.777 818.188 525.838C814.942 527.899 813.853 532.508 815.755 536.132C817.657 539.756 821.83 541.022 825.075 538.961Z" fill="#FAFBFC"/>
<path opacity="0.1" d="M823.645 539.869C826.102 538.309 826.758 534.499 825.11 531.359C823.462 528.219 820.135 526.939 817.678 528.499C815.222 530.059 814.566 533.869 816.214 537.009C817.862 540.149 821.189 541.429 823.645 539.869Z" fill="black"/>
<path opacity="0.1" d="M809.114 549.099C811.571 547.538 812.227 543.728 810.579 540.588C808.931 537.449 805.604 536.168 803.147 537.729C800.69 539.289 800.035 543.099 801.683 546.239C803.33 549.378 806.658 550.659 809.114 549.099Z" fill="black"/>
<path d="M847.897 551.371C848.8 553.521 848.38 556.445 846.549 557.624C845.732 558.144 844.771 558.277 843.827 558.323C843.008 558.362 842.168 558.34 841.394 558.026C841.281 557.98 841.173 557.929 841.065 557.873C839.732 557.182 838.776 555.748 837.491 554.909C835.182 553.399 832.276 554.04 829.726 554.866C827.037 555.736 824.393 556.764 821.805 557.945C820.045 558.747 818.294 559.631 816.774 560.897C813.54 563.59 811.564 567.823 808.362 570.539C808.253 570.63 808.144 570.72 808.033 570.809C807.006 571.623 805.869 572.264 804.835 573.071C803.114 574.414 801.675 576.221 799.779 577.24C797.883 578.26 795.217 578.184 794.02 576.231C793.177 574.856 793.345 572.961 794.062 571.522C794.778 570.083 795.951 569.004 797.114 567.991C800.203 565.301 803.487 562.753 805.776 559.221C806.596 557.958 807.279 556.58 808.19 555.397C808.593 554.867 809.053 554.394 809.559 553.986C810.189 553.47 810.925 553.133 811.703 553.003L810.432 554.736L825.739 543.336L826.343 542.887C827.068 542.347 827.807 541.799 828.645 541.516C830.087 541.03 831.666 541.387 833.075 542.026C834.485 542.665 835.772 543.59 837.153 544.305C839.093 545.305 841.186 545.875 843.141 546.833C845.095 547.791 846.994 549.224 847.897 551.371Z" fill="#FAFBFC"/>
<path opacity="0.1" d="M839.077 553.472C839.83 554.887 840.496 556.357 841.071 557.87C839.738 557.179 838.782 555.745 837.496 554.906C835.187 553.396 832.281 554.036 829.732 554.862C827.042 555.733 824.398 556.761 821.81 557.942C820.05 558.743 818.3 559.628 816.78 560.893C813.545 563.587 811.57 567.82 808.367 570.536C805.963 564.037 806.666 558.449 809.57 553.977C811.149 551.553 813.373 549.451 816.111 547.712C819.471 545.578 822.652 543.761 825.753 543.325C830.273 542.686 834.618 544.974 839.077 553.472Z" fill="black"/>
<path d="M838.63 554.565C840.317 557.781 841.292 560.514 841.692 562.876C842.673 568.671 840.214 572.243 836.407 575.266C835.125 576.283 833.696 577.235 832.192 578.191C830.304 579.411 828.262 580.317 826.13 580.88C822.162 581.889 818.204 581.378 814.938 578.733C813.179 577.31 811.623 575.269 810.373 572.512C805.606 561.995 809.007 553.838 816.81 548.882C824.613 543.925 831.411 540.811 838.63 554.565Z" fill="#2F2E41"/>
<path opacity="0.1" d="M823.033 557.159C829.124 553.291 831.168 544.641 827.599 537.839C824.029 531.038 816.198 528.661 810.107 532.529C804.016 536.398 801.972 545.048 805.541 551.849C809.11 558.651 816.942 561.028 823.033 557.159Z" fill="black"/>
<path d="M822.655 556.439C828.746 552.57 830.79 543.921 827.221 537.119C823.651 530.318 815.82 527.94 809.729 531.809C803.638 535.678 801.594 544.328 805.163 551.129C808.733 557.93 816.564 560.308 822.655 556.439Z" fill="#2F2E41"/>
<path d="M813.015 541.65C813.326 541.452 813.431 541.01 813.248 540.662C813.066 540.314 812.665 540.192 812.354 540.39C812.042 540.588 811.937 541.031 812.12 541.379C812.303 541.726 812.703 541.848 813.015 541.65Z" fill="#FAFBFC"/>
<path d="M815.751 539.912C816.063 539.714 816.167 539.272 815.985 538.924C815.802 538.576 815.402 538.454 815.09 538.652C814.778 538.85 814.674 539.293 814.856 539.641C815.039 539.989 815.44 540.11 815.751 539.912Z" fill="#FAFBFC"/>
<path opacity="0.1" d="M819.144 549.75C822.324 547.731 823.928 544.24 822.727 541.952C821.526 539.664 817.976 539.447 814.797 541.466C811.618 543.485 810.014 546.977 811.214 549.264C812.415 551.552 815.965 551.769 819.144 549.75Z" fill="black"/>
<path d="M819.023 549.519C822.025 547.612 823.539 544.316 822.405 542.156C821.272 539.996 817.92 539.791 814.918 541.697C811.917 543.603 810.402 546.9 811.536 549.06C812.669 551.22 816.022 551.425 819.023 549.519Z" fill="#FAFBFC"/>
<path opacity="0.1" d="M826.13 580.88C822.162 581.889 818.204 581.378 814.938 578.733C815.318 578.246 815.769 577.834 816.272 577.514C819.149 575.687 823.176 577.193 826.13 580.88Z" fill="black"/>
<path d="M827.861 584.359C830.765 589.893 830.291 596.177 826.801 598.394C824.437 599.896 821.297 599.147 818.613 596.786C817.244 595.567 816.091 594.075 815.216 592.39C812.31 586.854 812.786 580.569 816.276 578.352C819.425 576.352 823.954 578.345 826.945 582.828C827.276 583.319 827.582 583.83 827.861 584.359V584.359Z" fill="#2F2E41"/>
<path opacity="0.1" d="M827.861 584.358C830.765 589.893 830.291 596.177 826.801 598.394C824.437 599.896 821.297 599.147 818.613 596.786C816.682 592.67 818.627 587.166 823.075 584.341C824.269 583.572 825.584 583.054 826.954 582.814C827.282 583.31 827.585 583.825 827.861 584.358Z" fill="black"/>
<path d="M831.626 599.405C836.183 596.511 838.114 590.804 835.938 586.658C833.762 582.512 828.304 581.498 823.747 584.392C819.19 587.287 817.259 592.994 819.435 597.14C821.611 601.286 827.069 602.3 831.626 599.405Z" fill="#FAFBFC"/>
<path d="M832.249 599.01C836.461 596.334 838.223 591.016 836.184 587.131C834.145 583.245 829.077 582.265 824.865 584.94C820.652 587.616 818.89 592.934 820.929 596.819C822.968 600.705 828.036 601.685 832.249 599.01Z" fill="#2F2E41"/>
<path opacity="0.1" d="M830.82 589.383C831.554 588.917 831.713 587.71 831.176 586.686C830.638 585.662 829.608 585.211 828.874 585.677C828.14 586.143 827.981 587.35 828.518 588.374C829.056 589.398 830.086 589.85 830.82 589.383Z" fill="black"/>
<path d="M830.673 589.103C831.295 588.708 831.43 587.683 830.974 586.814C830.518 585.945 829.644 585.561 829.021 585.957C828.399 586.352 828.264 587.377 828.72 588.246C829.176 589.115 830.05 589.499 830.673 589.103Z" fill="#FAFBFC"/>
<path opacity="0.1" d="M827.602 593.272C828.373 592.782 828.608 591.64 828.126 590.721C827.644 589.803 826.627 589.455 825.856 589.945C825.085 590.435 824.85 591.577 825.332 592.496C825.814 593.414 826.83 593.762 827.602 593.272Z" fill="black"/>
<path d="M827.484 593.046C828.15 592.623 828.353 591.635 827.936 590.841C827.519 590.047 826.641 589.747 825.974 590.17C825.307 590.594 825.105 591.581 825.521 592.375C825.938 593.169 826.817 593.47 827.484 593.046Z" fill="#FAFBFC"/>
<path opacity="0.1" d="M827.246 598.115C828.068 597.593 828.418 596.564 828.026 595.818C827.634 595.072 826.65 594.89 825.827 595.413C825.005 595.935 824.655 596.964 825.047 597.71C825.439 598.456 826.423 598.638 827.246 598.115Z" fill="black"/>
<path d="M827.15 597.933C827.861 597.481 828.163 596.592 827.824 595.946C827.486 595.301 826.634 595.144 825.923 595.596C825.212 596.047 824.91 596.937 825.249 597.582C825.588 598.228 826.439 598.385 827.15 597.933Z" fill="#FAFBFC"/>
<path opacity="0.1" d="M834.847 595.144C835.543 592.865 835.232 590.679 834.152 590.26C833.073 589.842 831.633 591.349 830.938 593.628C830.242 595.907 830.553 598.093 831.633 598.512C832.712 598.93 834.152 597.422 834.847 595.144Z" fill="black"/>
<path d="M834.719 595.094C835.369 592.964 835.078 590.92 834.07 590.529C833.061 590.138 831.717 591.548 831.066 593.678C830.416 595.808 830.706 597.852 831.715 598.243C832.723 598.634 834.068 597.224 834.719 595.094Z" fill="#FAFBFC"/>
<path opacity="0.1" d="M841.692 562.876C842.673 568.671 840.214 572.243 836.407 575.266C834.738 570.422 835.513 565.533 838.504 563.633C839.47 563.031 840.581 562.768 841.692 562.876V562.876Z" fill="black"/>
<path d="M850.804 569.786C851.777 571.609 852.4 573.632 852.633 575.725C852.996 579.256 852 582.389 849.745 583.821C846.255 586.038 841.071 583.347 838.166 577.813C837.892 577.292 837.644 576.756 837.422 576.206C835.379 571.11 836.069 565.781 839.225 563.776C842.715 561.559 847.899 564.25 850.804 569.786Z" fill="#2F2E41"/>
<path opacity="0.1" d="M852.621 575.703L852.633 575.726C852.996 579.257 852 582.389 849.745 583.821C846.255 586.038 841.07 583.348 838.166 577.813C837.892 577.293 837.643 576.756 837.422 576.206C838.271 575.096 839.29 574.161 840.432 573.442C844.989 570.547 850.445 571.556 852.621 575.703Z" fill="black"/>
<path d="M848.129 588.924C852.686 586.029 854.617 580.322 852.441 576.177C850.265 572.031 844.807 571.017 840.25 573.911C835.693 576.805 833.762 582.513 835.938 586.658C838.114 590.804 843.572 591.818 848.129 588.924Z" fill="#FAFBFC"/>
<path d="M847.424 589.371C851.592 586.724 853.318 581.428 851.279 577.543C849.24 573.658 844.208 572.654 840.04 575.302C835.872 577.949 834.146 583.245 836.185 587.13C838.224 591.015 843.256 592.019 847.424 589.371Z" fill="#2F2E41"/>
<path opacity="0.1" d="M840.659 583.18C841.406 582.706 841.568 581.476 841.02 580.433C840.473 579.39 839.424 578.929 838.677 579.404C837.931 579.878 837.769 581.108 838.316 582.151C838.864 583.194 839.913 583.655 840.659 583.18Z" fill="black"/>
<path d="M840.494 582.865C841.116 582.47 841.251 581.445 840.795 580.576C840.339 579.707 839.465 579.323 838.843 579.718C838.22 580.114 838.085 581.139 838.541 582.008C838.997 582.876 839.872 583.26 840.494 582.865Z" fill="#FAFBFC"/>
<path opacity="0.1" d="M845.312 582.023C846.084 581.533 846.318 580.391 845.836 579.472C845.354 578.554 844.338 578.206 843.566 578.696C842.795 579.186 842.56 580.328 843.042 581.247C843.524 582.165 844.541 582.513 845.312 582.023Z" fill="black"/>
<path d="M845.194 581.798C845.861 581.374 846.064 580.387 845.647 579.593C845.23 578.799 844.351 578.498 843.685 578.922C843.018 579.345 842.815 580.332 843.232 581.126C843.649 581.921 844.527 582.221 845.194 581.798Z" fill="#FAFBFC"/>
<path opacity="0.1" d="M849.303 584.106C850.126 583.583 850.475 582.555 850.084 581.808C849.692 581.062 848.708 580.881 847.885 581.403C847.062 581.926 846.713 582.954 847.105 583.7C847.496 584.447 848.481 584.628 849.303 584.106Z" fill="black"/>
<path d="M849.208 583.923C849.919 583.471 850.221 582.582 849.882 581.937C849.543 581.291 848.692 581.134 847.981 581.586C847.27 582.038 846.968 582.927 847.306 583.572C847.645 584.218 848.496 584.375 849.208 583.923Z" fill="#FAFBFC"/>
<path opacity="0.1" d="M847.434 588.504C847.644 587.266 846.078 585.876 843.937 585.4C841.795 584.923 839.888 585.54 839.678 586.778C839.468 588.016 841.033 589.406 843.175 589.882C845.317 590.359 847.223 589.742 847.434 588.504Z" fill="black"/>
<path d="M847.181 588.447C847.377 587.291 845.914 585.992 843.912 585.547C841.91 585.102 840.128 585.678 839.931 586.834C839.735 587.991 841.198 589.289 843.2 589.735C845.202 590.18 846.984 589.604 847.181 588.447Z" fill="#FAFBFC"/>
<path opacity="0.2" d="M752.061 535.884C752.061 536.158 751.955 536.421 751.767 536.615C751.579 536.809 751.323 536.918 751.057 536.918C750.791 536.918 750.536 536.809 750.348 536.615C750.16 536.421 750.054 536.158 750.054 535.884" fill="black"/>
<path d="M684.961 473.389L693.748 472.566L699.341 458.574L689.355 452.812L684.961 473.389Z" fill="#FFB8B8"/>
<path d="M765.607 511.801C765.899 511.05 766.014 510.238 765.942 509.433C765.87 508.627 765.613 507.851 765.193 507.168C764.773 506.485 764.201 505.914 763.524 505.503C762.848 505.093 762.087 504.853 761.303 504.805L747.659 503.967L745.65 510.849L759.696 514.824C760.869 515.156 762.121 515.031 763.211 514.474C764.301 513.916 765.154 512.965 765.607 511.801V511.801Z" fill="#FFB8B8"/>
<path d="M750.957 514.939L750.806 502.024L720.501 497.042L697.153 469.454C695.939 468.019 694.26 467.086 692.429 466.828C690.597 466.57 688.737 467.005 687.193 468.051C686.258 468.685 685.47 469.523 684.884 470.505C684.297 471.487 683.928 472.59 683.801 473.735C683.674 474.881 683.793 476.041 684.149 477.134C684.505 478.227 685.09 479.227 685.862 480.061L705.123 504.483L750.957 514.939Z" fill="#575A89"/>
<path d="M678.171 660.223H686.159L705.974 567.923L726.502 596.436L738.485 658.165H746.074L744.476 591.909L717.714 521.126H691.352C684.148 534.559 678.496 548.406 684.961 562.691L678.171 660.223Z" fill="#2F2E41"/>
<path d="M733.588 665.829C733.499 666.12 733.472 666.428 733.508 666.73C733.544 667.033 733.642 667.325 733.796 667.586C733.95 667.846 734.156 668.07 734.4 668.243C734.644 668.415 734.922 668.532 735.213 668.585L754.762 672.159C755.534 672.305 756.331 672.154 757.004 671.736C757.676 671.317 758.176 670.66 758.41 669.888V669.888C758.638 669.15 758.606 668.353 758.32 667.637C758.034 666.921 757.513 666.331 756.847 665.972C752.549 663.698 748.85 660.385 746.066 656.315C743.918 658.377 741.517 658.183 738.967 656.664L736.262 657.012L733.588 665.829Z" fill="#E6E6E6"/>
<path d="M674.472 665.829C674.384 666.12 674.356 666.428 674.392 666.73C674.428 667.033 674.526 667.325 674.68 667.586C674.834 667.846 675.04 668.07 675.284 668.243C675.529 668.415 675.806 668.532 676.098 668.585L695.646 672.159C696.418 672.305 697.216 672.154 697.888 671.736C698.56 671.317 699.06 670.66 699.295 669.888V669.888C699.522 669.15 699.491 668.353 699.205 667.637C698.919 666.921 698.397 666.331 697.731 665.972C693.433 663.698 689.734 660.385 686.951 656.315C684.802 658.377 682.401 658.183 679.851 656.664L677.146 657.012L674.472 665.829Z" fill="#E6E6E6"/>
<path d="M699.54 463.718C705.717 463.718 710.724 458.56 710.724 452.196C710.724 445.832 705.717 440.673 699.54 440.673C693.363 440.673 688.356 445.832 688.356 452.196C688.356 458.56 693.363 463.718 699.54 463.718Z" fill="#FFB8B8"/>
<path d="M689.554 524.213L718.713 523.39L710.15 495.623C715.471 486.833 710.116 478.053 702.536 469.274L696.544 465.159L686.958 464.335C682.808 468.911 680.537 474.964 680.621 481.226C680.811 494.636 683.115 509.234 689.554 524.213Z" fill="#575A89"/>
<path d="M756.547 542.903C757.103 542.331 757.518 541.632 757.76 540.862C758.001 540.092 758.061 539.275 757.936 538.476C757.81 537.678 757.502 536.921 757.037 536.27C756.572 535.618 755.964 535.089 755.261 534.727L743.038 528.427L738.563 533.94L749.959 543.287C750.911 544.068 752.109 544.46 753.324 544.39C754.539 544.319 755.687 543.79 756.547 542.903V542.903Z" fill="#FFB8B8"/>
<path d="M741.88 539.851L746.673 527.917L720.713 511.053L709.782 476.227C709.213 474.415 708.026 472.877 706.441 471.898C704.856 470.918 702.98 470.564 701.161 470.9V470.9C700.059 471.104 699.014 471.554 698.1 472.22C697.186 472.885 696.425 473.749 695.871 474.751C695.317 475.753 694.983 476.868 694.893 478.017C694.803 479.166 694.96 480.322 695.351 481.402L703.734 511.662L741.88 539.851Z" fill="#575A89"/>
<path d="M681.166 447.669C681.166 452.152 683.993 459.096 687.557 462.072C689.956 464.075 693.126 463.99 694.348 461.249C695.601 458.437 699.923 451.827 707.529 447.669C717.668 442.125 703.933 432.642 694.348 434.088C687.145 435.175 681.166 440.168 681.166 447.669Z" fill="#2F2E41"/>
<path d="M687.957 441.496C692.369 441.496 695.945 437.811 695.945 433.265C695.945 428.72 692.369 425.035 687.957 425.035C683.545 425.035 679.968 428.72 679.968 433.265C679.968 437.811 683.545 441.496 687.957 441.496Z" fill="#2F2E41"/>
<path d="M697.144 430.384C697.143 428.309 696.381 426.311 695.011 424.791C693.64 423.27 691.763 422.339 689.754 422.185C689.953 422.17 690.151 422.154 690.353 422.154C692.472 422.154 694.504 423.021 696.002 424.564C697.5 426.108 698.342 428.201 698.342 430.384C698.342 432.567 697.5 434.661 696.002 436.204C694.504 437.748 692.472 438.615 690.353 438.615C690.151 438.615 689.953 438.599 689.754 438.584C691.763 438.429 693.64 437.499 695.011 435.978C696.381 434.457 697.143 432.459 697.144 430.384Z" fill="#2F2E41"/>
<path d="M699.74 456.311C700.733 456.311 701.537 455.205 701.537 453.842C701.537 452.478 700.733 451.373 699.74 451.373C698.747 451.373 697.943 452.478 697.943 453.842C697.943 455.205 698.747 456.311 699.74 456.311Z" fill="#FFB8B8"/>
<path d="M926.083 645.129H801.725L775.391 516.87H752.917V511.115H779.919L806.253 639.374H926.083V645.129Z" fill="#3F3D56"/>
<path d="M819.949 668.56C826.56 668.56 831.919 663.039 831.919 656.228C831.919 649.417 826.56 643.896 819.949 643.896C813.338 643.896 807.979 649.417 807.979 656.228C807.979 663.039 813.338 668.56 819.949 668.56Z" fill="#3F3D56"/>
<path d="M909.325 668.56C915.936 668.56 921.295 663.039 921.295 656.228C921.295 649.417 915.936 643.896 909.325 643.896C902.714 643.896 897.355 649.417 897.355 656.228C897.355 663.039 902.714 668.56 909.325 668.56Z" fill="#3F3D56"/>
<path d="M923.816 642.419H802.822L781.474 533.725H943.849C944.678 533.725 945.497 533.91 946.249 534.267C947.002 534.624 947.67 535.145 948.209 535.794C948.747 536.442 949.143 537.204 949.369 538.025C949.595 538.846 949.645 539.708 949.516 540.552L929.482 637.426C929.275 638.82 928.589 640.091 927.549 641.007C926.509 641.924 925.184 642.424 923.816 642.419V642.419ZM804.136 640.774H923.816C924.803 640.779 925.759 640.417 926.51 639.756C927.261 639.094 927.755 638.177 927.904 637.171L947.939 540.296C948.032 539.688 947.996 539.065 947.833 538.473C947.67 537.88 947.385 537.33 946.996 536.862C946.607 536.394 946.125 536.018 945.582 535.76C945.038 535.502 944.447 535.369 943.849 535.369H783.411L804.136 640.774Z" fill="#3F3D56"/>
<path d="M826.344 642.071L812.363 534.681L813.937 534.413L827.918 641.803L826.344 642.071Z" fill="#3F3D56"/>
<path d="M904.081 641.246L902.505 640.983L916.078 534.415L917.653 534.678L904.081 641.246Z" fill="#3F3D56"/>
<path d="M867.043 534.547H865.447V641.937H867.043V534.547Z" fill="#3F3D56"/>
<path d="M789.627 563.323L789.623 564.967L944.114 565.353L944.118 563.708L789.627 563.323Z" fill="#3F3D56"/>
<path d="M933.216 614.118L797.492 615.074L797.503 616.719L933.227 615.763L933.216 614.118Z" fill="#3F3D56"/>
<path d="M755.311 518.103C760.159 518.103 764.089 515.895 764.089 513.17C764.089 510.446 760.159 508.237 755.311 508.237C750.463 508.237 746.533 510.446 746.533 513.17C746.533 515.895 750.463 518.103 755.311 518.103Z" fill="#3F3D56"/>
</g>
<path d="M901.091 256.801L910.431 249.076C903.175 248.248 900.193 252.34 898.973 255.579C893.304 253.145 887.133 256.335 887.133 256.335L905.822 263.35C904.879 260.746 903.238 258.474 901.091 256.801V256.801Z" fill="white"/>
<path d="M454.683 413.411H453.465V383.666C453.465 381.405 452.966 379.166 451.995 377.077C451.025 374.989 449.603 373.091 447.81 371.492C446.017 369.893 443.888 368.625 441.546 367.76C439.203 366.895 436.692 366.45 434.157 366.45H363.478C360.943 366.45 358.432 366.895 356.089 367.76C353.747 368.625 351.618 369.893 349.825 371.492C348.032 373.091 346.61 374.989 345.64 377.077C344.669 379.166 344.17 381.405 344.17 383.666V546.852C344.17 549.113 344.669 551.352 345.64 553.44C346.61 555.529 348.032 557.427 349.825 559.026C351.618 560.624 353.747 561.892 356.089 562.757C358.432 563.623 360.943 564.068 363.478 564.068H434.157C436.692 564.068 439.203 563.623 441.546 562.757C443.888 561.892 446.017 560.624 447.81 559.026C449.603 557.427 451.025 555.529 451.995 553.44C452.966 551.352 453.465 549.113 453.465 546.852V434.585H454.683V413.411Z" fill="#3F3D56"/>
<path d="M434.936 370.929H425.71C426.134 371.856 426.296 372.862 426.182 373.859C426.067 374.855 425.679 375.811 425.053 376.643C424.426 377.474 423.58 378.155 422.588 378.626C421.597 379.097 420.491 379.344 419.367 379.344H378.876C377.753 379.344 376.647 379.097 375.656 378.626C374.664 378.155 373.818 377.474 373.191 376.643C372.565 375.811 372.177 374.855 372.062 373.859C371.948 372.862 372.11 371.856 372.534 370.929H363.917C362.023 370.929 360.148 371.261 358.399 371.907C356.649 372.553 355.06 373.5 353.721 374.694C352.382 375.888 351.32 377.305 350.595 378.865C349.871 380.425 349.498 382.097 349.498 383.785V546.732C349.498 548.421 349.871 550.092 350.595 551.652C351.32 553.212 352.382 554.629 353.721 555.823C355.06 557.017 356.649 557.964 358.399 558.61C360.148 559.256 362.023 559.589 363.917 559.589H434.936C436.829 559.589 438.704 559.256 440.454 558.61C442.203 557.964 443.793 557.017 445.132 555.823C446.471 554.629 447.533 553.212 448.257 551.652C448.982 550.092 449.355 548.421 449.355 546.732V383.785C449.355 380.376 447.836 377.105 445.132 374.694C442.428 372.283 438.76 370.929 434.936 370.929V370.929Z" fill="white"/>
<path d="M436.884 396.382H361.968V453.676H436.884V396.382Z" fill="#E6E6E6"/>
<path d="M384.2 465.624C387.227 465.624 389.681 463.436 389.681 460.736C389.681 458.037 387.227 455.849 384.2 455.849C381.172 455.849 378.718 458.037 378.718 460.736C378.718 463.436 381.172 465.624 384.2 465.624Z" fill="#6C63FF"/>
<path d="M386.94 460.329H384.656V458.292H383.743V460.329H381.459V461.144H383.743V463.18H384.656V461.144H386.94V460.329Z" fill="white"/>
<path d="M413.13 465.624C416.158 465.624 418.612 463.436 418.612 460.736C418.612 458.037 416.158 455.849 413.13 455.849C410.103 455.849 407.649 458.037 407.649 460.736C407.649 463.436 410.103 465.624 413.13 465.624Z" fill="#6C63FF"/>
<path d="M415.871 461.144V460.329H410.39V461.144H415.871Z" fill="white"/>
<path d="M436.884 477.029H361.968V534.323H436.884V477.029Z" fill="#E6E6E6"/>
<path d="M384.2 546.27C387.227 546.27 389.681 544.082 389.681 541.383C389.681 538.683 387.227 536.495 384.2 536.495C381.172 536.495 378.718 538.683 378.718 541.383C378.718 544.082 381.172 546.27 384.2 546.27Z" fill="#6C63FF"/>
<path d="M386.94 540.975H384.656V538.938H383.743V540.975H381.459V541.79H383.743V543.826H384.656V541.79H386.94V540.975Z" fill="white"/>
<path d="M413.13 546.27C416.158 546.27 418.612 544.082 418.612 541.383C418.612 538.683 416.158 536.495 413.13 536.495C410.103 536.495 407.649 538.683 407.649 541.383C407.649 544.082 410.103 546.27 413.13 546.27Z" fill="#6C63FF"/>
<path d="M415.871 541.79V540.975H410.39V541.79H415.871Z" fill="white"/>
<path d="M389.264 404.101C389.264 404.101 387.771 403.937 388.546 405.632C389.322 407.327 390.754 412.902 390.04 414.05C389.326 415.198 389.683 418.314 386.58 418.918L387.472 422.141C387.472 422.141 387.65 429.248 387.293 430.289C386.937 431.33 386.875 437.065 386.995 437.665C387.115 438.266 387.057 442.203 386.58 442.37C386.103 442.537 385.804 444.445 387.356 444.772C388.907 445.099 395.529 445.266 396.724 445.593C397.919 445.92 406.391 445.593 406.391 445.593C406.391 445.593 409.971 445.156 410.867 444.882C411.764 444.609 411.942 443.955 411.643 442.697C411.345 441.439 409.971 432.311 410.27 431.163C410.569 430.015 410.631 418.808 410.631 418.808C410.631 418.808 408.303 418.097 408.303 416.019C408.303 413.94 407.407 408.365 409.258 404.868C409.258 404.868 407.764 403.93 407.527 404.097C407.291 404.264 405.037 403.664 405.037 403.664C405.037 403.664 403.873 413.176 399.005 413.229C394.136 413.283 391.968 403.664 391.968 403.664C391.968 403.664 392.011 402.79 389.264 404.101Z" fill="#6C63FF"/>
<path d="M407.643 484.296C407.643 484.296 410.572 487.693 406.293 492.82C402.014 497.947 398.498 502.287 399.914 505.476C399.914 505.476 406.367 495.951 411.622 495.82C416.877 495.689 413.423 490.024 407.643 484.296Z" fill="#9F9EFF"/>
<path opacity="0.1" d="M407.707 484.296C407.96 484.624 408.16 484.982 408.3 485.36C413.378 490.705 416.079 495.693 411.201 495.82C406.659 495.937 401.204 503.219 399.9 505.058C399.943 505.2 399.994 505.339 400.054 505.476C400.054 505.476 406.444 495.951 411.647 495.82C416.851 495.689 413.431 490.024 407.707 484.296Z" fill="#9F9EFF"/>
<path d="M412.995 488.608C412.995 489.826 412.858 490.814 412.692 490.814C412.526 490.814 412.386 489.826 412.386 488.608C412.386 487.39 412.556 487.962 412.726 487.962C412.895 487.962 412.995 487.387 412.995 488.608Z" fill="#407BFF"/>
<path d="M415.004 490.006C413.819 490.579 412.783 490.926 412.696 490.78C412.61 490.634 413.494 490.05 414.679 489.476C415.863 488.903 415.399 489.323 415.501 489.476C415.604 489.63 416.188 489.444 415.004 490.006Z" fill="#407BFF"/>
<path d="M392.158 484.296C392.158 484.296 389.23 487.693 393.508 492.82C397.786 497.947 401.301 502.287 399.886 505.476C399.886 505.476 393.434 495.951 388.18 495.82C382.925 495.689 386.371 490.024 392.158 484.296Z" fill="#9F9EFF"/>
<path opacity="0.1" d="M392.232 484.296C391.974 484.624 391.77 484.982 391.627 485.36C386.442 490.705 383.683 495.693 388.665 495.82C393.307 495.937 398.873 503.219 400.205 505.058C400.163 505.2 400.11 505.34 400.047 505.476C400.047 505.476 393.522 495.951 388.209 495.82C382.895 495.689 386.38 490.024 392.232 484.296Z" fill="black"/>
<path d="M386.805 488.608C386.805 489.826 386.942 490.814 387.111 490.814C387.281 490.814 387.414 489.826 387.414 488.608C387.414 487.39 387.244 487.962 387.078 487.962C386.912 487.962 386.805 487.387 386.805 488.608Z" fill="#407BFF"/>
<path d="M384.795 490.006C385.982 490.579 387.013 490.926 387.103 490.78C387.194 490.634 386.302 490.05 385.12 489.476C383.937 488.903 384.401 489.323 384.298 489.476C384.196 489.63 383.612 489.444 384.795 490.006Z" fill="#407BFF"/>
<path d="M415.729 500.799L415.581 501.852L415.375 503.344L415.288 503.963L415.082 505.455L414.991 506.077L414.785 507.565L412.432 524.509C412.221 526.023 409.41 527.199 406.013 527.199H393.786C390.39 527.199 387.603 526.023 387.372 524.509L385.014 507.558L384.808 506.07L384.722 505.447L384.511 503.956L384.425 503.337L384.219 501.845L384.07 500.791C383.955 499.955 385.492 499.231 387.397 499.231H412.407C414.324 499.231 415.849 499.955 415.729 500.799Z" fill="#65617D"/>
<path d="M415.431 501.946L415.227 503.304H384.573L384.369 501.946H415.431Z" fill="#9D9CB5"/>
<path d="M415.431 503.847L415.225 505.476H384.883L384.673 503.847H415.431Z" fill="#9D9CB5"/>
<path d="M415.127 506.02L414.921 507.649H385.184L384.978 506.02H415.127Z" fill="#9D9CB5"/>
<path d="M599.038 180.822L610.814 187.87L603.665 175.601C605.689 174.076 608.195 173.232 610.786 173.202C610.849 173.202 610.912 173.203 610.975 173.204C611.793 173.216 612.611 173.159 613.418 173.033L617.409 175.422L615.698 172.486C618.526 171.555 620.969 169.805 622.68 167.485L629.823 171.76L625.31 164.017C629.487 159.285 635.118 156.383 641.313 156.383C648.741 156.383 655.358 160.552 659.629 167.048C660.892 168.992 662.677 170.585 664.803 171.668C666.93 172.75 669.321 173.281 671.736 173.209C671.869 173.204 672.002 173.202 672.135 173.202C680.335 173.202 686.983 181.977 686.983 192.801C686.983 203.626 680.335 212.401 672.135 212.401C670.332 212.394 668.557 211.975 666.964 211.179C664.172 209.898 661.12 209.205 658.017 209.148C654.914 209.091 651.835 209.671 648.993 210.847C646.592 211.865 643.99 212.395 641.357 212.401C638.725 212.406 636.121 211.888 633.714 210.88C630.894 209.726 627.844 209.158 624.771 209.214C621.698 209.27 618.673 209.949 615.903 211.205C614.323 211.985 612.568 212.395 610.786 212.401C602.586 212.401 595.938 203.626 595.938 192.801C595.891 188.626 596.957 184.506 599.038 180.822Z" fill="white"/>
<path d="M552.892 191.787L560.873 196.388L556.027 188.379C557.399 187.383 559.098 186.832 560.853 186.813C560.896 186.813 560.939 186.813 560.982 186.814C561.536 186.822 562.09 186.785 562.637 186.702L565.342 188.262L564.182 186.345C566.099 185.738 567.755 184.595 568.914 183.081L573.754 185.872L570.696 180.817C571.984 179.307 573.625 178.076 575.501 177.214C577.377 176.352 579.44 175.881 581.541 175.833C586.575 175.833 591.059 178.555 593.954 182.796C594.809 184.064 596.019 185.105 597.46 185.811C598.901 186.517 600.522 186.865 602.158 186.817C602.248 186.814 602.338 186.813 602.429 186.813C607.986 186.813 612.491 192.541 612.491 199.607C612.491 206.673 607.986 212.401 602.429 212.401C601.207 212.397 600.004 212.123 598.924 211.603C597.032 210.767 594.964 210.315 592.861 210.278C590.758 210.24 588.672 210.619 586.745 211.386C585.118 212.051 583.355 212.397 581.571 212.401C579.787 212.404 578.022 212.066 576.392 211.408C574.48 210.655 572.413 210.284 570.331 210.321C568.248 210.357 566.198 210.801 564.321 211.62C563.25 212.129 562.061 212.397 560.853 212.401C555.296 212.401 550.791 206.673 550.791 199.607C550.759 196.881 551.481 194.192 552.892 191.787Z" fill="white"/>
<path d="M673.852 196.114L683.193 188.39C675.936 187.562 672.955 191.654 671.735 194.893C666.066 192.459 659.895 195.649 659.895 195.649L678.583 202.664C677.64 200.06 675.999 197.788 673.852 196.114V196.114Z" fill="#3F3D56"/>
<path d="M290.857 249.799L300.198 242.074C292.942 241.246 289.96 245.338 288.74 248.577C283.071 246.143 276.9 249.333 276.9 249.333L295.589 256.348C294.646 253.744 293.005 251.472 290.857 249.799V249.799Z" fill="#3F3D56"/>
<path d="M706.966 449.314L712.227 450.616C711.819 455.461 707.866 461.289 703.241 465.326L698.731 463.172C703.824 459.726 705.768 454.855 706.966 449.314Z" fill="#B3D7EE" fill-opacity="0.8"/>
<path d="M694.979 454.56L699.666 462.964C699.708 463.038 699.708 463.134 699.666 463.228C699.625 463.323 699.545 463.411 699.445 463.471C699.345 463.531 699.233 463.559 699.133 463.548C699.033 463.538 698.953 463.491 698.912 463.417L694.224 455.012C694.183 454.938 694.183 454.843 694.224 454.748C694.266 454.653 694.345 454.566 694.445 454.506C694.545 454.446 694.658 454.418 694.758 454.428C694.858 454.438 694.938 454.485 694.979 454.56V454.56Z" fill="#B3D7EE" fill-opacity="0.8"/>
<path d="M707.084 449.54C707.109 449.585 707.119 449.638 707.113 449.695C707.107 449.753 707.084 449.812 707.048 449.867C707.012 449.923 706.962 449.974 706.904 450.015C706.847 450.056 706.782 450.086 706.716 450.104L698.012 452.368C697.959 452.382 697.907 452.387 697.857 452.383C697.808 452.379 697.763 452.366 697.725 452.344C697.686 452.322 697.656 452.292 697.635 452.256C697.614 452.22 697.603 452.179 697.602 452.134C697.602 452.089 697.611 452.042 697.631 451.996C697.651 451.949 697.68 451.904 697.717 451.862C697.755 451.821 697.799 451.784 697.848 451.754C697.897 451.725 697.949 451.702 698.002 451.689L706.705 449.424C706.786 449.403 706.865 449.402 706.933 449.423C707 449.444 707.053 449.484 707.084 449.54V449.54Z" fill="#B3D7EE" fill-opacity="0.8"/>
<defs>
<linearGradient id="paint0_linear" x1="419.804" y1="-15.3621" x2="420.945" y2="845.713" gradientUnits="userSpaceOnUse">
<stop stop-color="#7B0869" stop-opacity="0.7597"/>
<stop offset="0.244792" stop-color="#C910CD" stop-opacity="0.62"/>
<stop offset="0.557292" stop-color="#7328AD" stop-opacity="0.67823"/>
<stop offset="0.833333" stop-color="#622CA7" stop-opacity="0.69"/>
<stop offset="0.9999" stop-color="#260354" stop-opacity="0.69"/>
<stop offset="1" stop-color="#4E57AA" stop-opacity="0.36"/>
</linearGradient>
<clipPath id="clip0">
<rect width="415.35" height="357.113" fill="white" transform="translate(534.236 315.1)"/>
</clipPath>
</defs>
</svg>
