<svg width="200" height="200" viewBox="0 0 200 200" fill="none" xmlns="http://www.w3.org/2000/svg">
<path fill-rule="evenodd" clip-rule="evenodd" d="M83.9922 3.29949C105.497 6.53335 118.555 27.2408 131.684 43.9553C141.537 56.4981 141.292 73.0641 149.481 86.6708C161.228 106.189 196.928 118.771 189.611 140.201C182.282 161.664 144.727 149.471 124.263 160.527C107.732 169.457 102.916 196.227 83.9922 197.26C65.2224 198.283 54.9475 176.413 40.2641 165.109C26.5045 154.516 5.46373 149.544 0.773442 133.193C-3.9064 116.879 14.0288 102.97 17.6903 86.4165C22.049 66.7107 11.3448 43.7541 24.0909 27.7754C37.6346 10.7968 62.0237 -0.00411243 83.9922 3.29949Z" fill="url(#paint0_linear)"/>
<path d="M167.163 199.88C167.163 199.88 158.242 144.773 141.231 135.831C126.817 128.248 111.229 123.136 106.797 121.75C106.135 120.549 105.37 119.424 104.512 118.392C98.4543 111.269 94.8147 111.402 94.2261 111.49C93.9467 110.078 93.7461 108.647 93.6255 107.206C93.6075 106.981 93.5895 106.771 93.5734 106.548L93.6255 106.519C93.5895 106.092 93.5574 105.653 93.5294 105.2C96.0024 103.713 98.2792 101.845 100.294 99.6505C100.32 99.7474 100.342 99.8444 100.37 99.9436C104.736 95.7873 109.012 91.5182 113.197 87.1364C114.398 85.8714 115.66 84.4983 116.068 82.7147C116.199 82.1009 116.249 81.469 116.218 80.8387C116.272 79.4859 115.988 78.1037 115.94 76.7328C115.94 76.5073 115.962 76.2976 115.988 76.0834C116.268 73.8399 117.654 71.9977 118.791 70.115C121.632 65.357 123.115 59.7353 123.041 54.0022C123.072 51.2551 122.735 48.5185 122.04 45.885C121.153 42.5434 119.307 39.0327 116.234 38.3021C115.045 38.0203 113.81 38.1961 112.596 38.1082C107.573 37.7474 103.814 33.1476 99.8077 29.7767C94.9184 25.6825 89.1364 23.155 83.0749 22.4622C81.183 22.2367 79.2291 22.2209 77.4293 22.8974C73.3872 24.4126 70.9328 29.0913 67.0389 31.0146C64.16 32.4442 60.8327 32.2119 57.8297 33.2852C53.3592 34.8861 49.5654 40.0496 49.4653 45.3551C49.4653 45.5513 49.4653 45.7474 49.4653 45.9436C49.4653 45.9774 49.4653 46.0112 49.4653 46.0428C49.4153 48.7237 50.2661 51.4543 50.3342 54.1984C50.3342 54.4464 50.3375 54.6952 50.3442 54.9447C50.3222 57.9075 50.0079 60.8793 49.0489 63.664C48.5324 65.1634 47.8677 66.8996 47.9758 68.3991C47.9158 69.3168 48.0739 70.1781 48.6405 70.8793L49.6075 69.9188C49.2832 71.8956 49.1203 73.9017 49.121 75.912C49.121 86.0451 53.2131 95.1183 59.6675 101.224C59.7049 101.899 59.7409 102.622 59.7756 103.393C59.9278 106.735 60.0479 110.927 60.0139 115.495L50.5724 125.269L26.3002 137.671C26.3002 137.671 4.10197 142.951 8.88275 178.074L11.165 199.883H31.4313L31.3853 199.998H61.4653L61.4834 199.883H133.051L133.037 199.998H135.84V199.883L167.163 199.88ZM94.4043 112.05C95.0178 113.479 95.5008 114.975 95.8457 116.514C95.1374 115.033 94.6139 113.448 94.2902 111.806L94.3202 111.867L94.4043 112.05ZM60.0059 116.559C60.0059 116.989 59.9992 117.423 59.9859 117.86L59.9378 117.937C59.9346 117.473 59.9573 117.009 60.0059 116.548V116.559Z" fill="#424193"/>
<path d="M102.302 122.066L98.1109 165.063L75.6867 172.717C75.6867 172.717 46.5561 166.864 54.1007 149.98C59.4679 137.97 59.3191 116.507 58.7868 105.116C58.5772 100.493 58.2922 97.5278 58.2922 97.5278C58.2922 97.5278 96.4343 61.7341 93.2907 93.9259C92.6829 100.159 92.6473 105.033 92.9847 108.842C94.3993 124.699 102.302 122.066 102.302 122.066Z" fill="#CF8C66"/>
<path opacity="0.1" d="M93.7136 93.2288C93.133 99.4723 93.099 104.354 93.4213 108.169C88.2774 111.332 82.4044 112.668 76.5738 112.002C70.7432 111.336 65.2279 108.699 60.7526 104.437C60.5524 99.806 60.2802 96.8365 60.2802 96.8365C60.2802 96.8365 96.7166 60.9853 93.7136 93.2288Z" fill="black"/>
<path d="M78.979 110.71C95.2877 110.71 108.509 96.0725 108.509 78.0158C108.509 59.9591 95.2877 45.3213 78.979 45.3213C62.6703 45.3213 49.4495 59.9591 49.4495 78.0158C49.4495 96.0725 62.6703 110.71 78.979 110.71Z" fill="#CF8C66"/>
<path opacity="0.1" d="M31.6516 165.608C31.6516 165.608 41.061 187.254 41.5615 199.993Z" fill="black"/>
<path opacity="0.1" d="M134.154 178.011L131.451 199.995H134.154V178.011Z" fill="black"/>
<path opacity="0.1" d="M33.7536 199.993L48.6685 161.774C48.6685 161.774 52.8727 152.755 53.8737 143.736C54.8747 134.717 60.2801 120.512 60.2801 120.512C60.2801 120.512 73.6935 101.346 79.8997 104.052C86.106 106.758 74.4943 116.904 74.4943 116.904C74.4943 116.904 91.5114 124.345 79.8997 146.442C68.2881 168.539 68.0879 164.48 68.0879 164.48L62.3822 199.993H33.7536Z" fill="black"/>
<path opacity="0.15" d="M88.4083 60.4238C88.74 60.4238 89.0089 60.121 89.0089 59.7474C89.0089 59.3738 88.74 59.071 88.4083 59.071C88.0766 59.071 87.8077 59.3738 87.8077 59.7474C87.8077 60.121 88.0766 60.4238 88.4083 60.4238Z" fill="#424193"/>
<path opacity="0.15" d="M85.6055 62.0022C85.9372 62.0022 86.2061 61.6994 86.2061 61.3258C86.2061 60.9522 85.9372 60.6493 85.6055 60.6493C85.2738 60.6493 85.0049 60.9522 85.0049 61.3258C85.0049 61.6994 85.2738 62.0022 85.6055 62.0022Z" fill="#424193"/>
<path opacity="0.1" d="M58.8768 37.8241C61.7737 36.7688 64.9889 36.9966 67.7677 35.5941C71.5254 33.6955 73.8938 29.1003 77.7937 27.6121C79.5314 26.9492 81.4173 26.974 83.2411 27.186C89.106 27.8734 94.6911 30.3589 99.3893 34.372C103.255 37.6843 106.883 42.2006 111.73 42.5546C112.901 42.6403 114.092 42.4667 115.239 42.744C118.21 43.461 119.99 46.9086 120.845 50.1848C121.834 54.0675 122.066 58.1452 121.524 62.1382C120.983 66.1313 119.682 69.9454 117.71 73.319C116.612 75.1679 115.275 76.9785 115.005 79.1815C114.741 81.3415 115.557 83.5806 115.081 85.6955C114.681 87.4475 113.479 88.7959 112.31 90.0383C108.273 94.3389 104.147 98.5291 99.9318 102.609C97.7416 94.7711 100.955 86.3314 100.454 78.1352C100.254 74.9424 99.2531 71.4565 96.7526 69.9503C94.4123 68.5433 91.4213 69.2739 89.0529 67.921C86.4103 66.4216 85.3252 62.8703 83.3272 60.4126C79.9238 56.2187 74.0159 55.6775 69.2571 57.5715C64.4984 59.4656 60.6085 63.3618 56.8447 67.1612L50.0039 74.0721C48.6686 72.3765 49.6816 69.7745 50.4043 67.655C51.4814 64.478 51.7176 61.0529 51.6455 57.6798C51.5875 54.974 50.7586 52.3021 50.8067 49.6685C50.9028 44.4735 54.5624 39.3957 58.8768 37.8241Z" fill="black"/>
<path d="M56.6738 32.5741C59.7234 31.4593 63.108 31.6999 66.0333 30.2183C69.989 28.2126 72.4822 23.358 76.5877 21.7859C78.417 21.0855 80.4023 21.1117 82.3222 21.3357C88.4961 22.0619 94.3757 24.6876 99.3214 28.9272C103.391 32.4264 107.21 37.1976 112.312 37.5716C113.545 37.6621 114.799 37.4787 116.007 37.7717C119.134 38.5292 121.008 42.1713 121.908 45.6324C122.949 49.7342 123.193 54.0419 122.623 58.2603C122.053 62.4787 120.683 66.508 118.607 70.0721C117.452 72.0253 116.044 73.9381 115.76 76.2653C115.482 78.5473 116.342 80.9127 115.84 83.147C115.419 84.9979 114.154 86.4223 112.923 87.7348C108.673 92.2782 104.33 96.7048 99.8925 101.015C97.5869 92.7347 100.969 83.8188 100.443 75.1601C100.232 71.7871 99.1781 68.1045 96.5458 66.5133C94.0821 65.0269 90.9335 65.7987 88.4403 64.3695C85.6584 62.7854 84.5161 59.0337 82.4128 56.4373C78.8301 52.0067 72.6108 51.435 67.6012 53.4359C62.5917 55.4368 52.1405 71.1463 48.1784 75.1601L47.3333 70.8676C45.9276 69.0764 46.994 66.3275 47.7548 64.0884C48.8887 60.7321 49.1373 57.1138 49.0615 53.5503C49.0004 50.6918 48.1278 47.8691 48.1784 45.0869C48.2796 39.5987 52.1321 34.2344 56.6738 32.5741Z" fill="#0F0C0C"/>
<path d="M92.2205 90.1054C90.8723 93.4673 90.2168 97.0703 91.3893 100.804C80.7461 105.668 69.5964 105.49 57.9608 100.81C59.5206 97.4493 59.0361 94.4205 57.8511 91.4594C57.2614 89.9858 56.4923 88.514 55.7151 87.0266C55.6798 86.959 55.6445 86.8914 55.6092 86.8237C54.8995 85.4648 54.1865 84.0869 53.577 82.6477L97.0247 81.1904C96.7905 81.5853 96.5502 81.9862 96.3066 82.3927C94.8652 84.7971 93.3071 87.3962 92.2205 90.1054Z" fill="#424193" stroke="#424193"/>
<mask id="path-14-inside-1" fill="white">
<path d="M97.4791 82.9896L96.9467 82.3824L97.6987 81.5235L102.191 75.5355L102.763 76.0938L98.2506 82.1058L97.4791 82.9896Z"/>
</mask>
<path d="M97.4791 82.9896L96.9467 82.3824L97.6987 81.5235L102.191 75.5355L102.763 76.0938L98.2506 82.1058L97.4791 82.9896Z" fill="#424193"/>
<path d="M97.4791 82.9896L96.7272 83.6489L97.4807 84.5083L98.2324 83.6473L97.4791 82.9896ZM96.9467 82.3824L96.1943 81.7236L95.6171 82.3829L96.1948 83.0417L96.9467 82.3824ZM97.6987 81.5235L98.451 82.1823L98.4759 82.1539L98.4986 82.1236L97.6987 81.5235ZM102.191 75.5355L102.89 74.8201L102.075 74.0241L101.391 74.9354L102.191 75.5355ZM102.763 76.0938L103.562 76.694L104.089 75.9919L103.461 75.3784L102.763 76.0938ZM98.2506 82.1058L99.0039 82.7635L99.0283 82.7357L99.0504 82.7061L98.2506 82.1058ZM98.231 82.3303L97.6986 81.7231L96.1948 83.0417L96.7272 83.6489L98.231 82.3303ZM97.699 83.0411L98.451 82.1823L96.9463 80.8648L96.1943 81.7236L97.699 83.0411ZM98.4986 82.1236L102.991 76.1356L101.391 74.9354L96.8987 80.9234L98.4986 82.1236ZM101.492 76.2509L102.064 76.8091L103.461 75.3784L102.89 74.8201L101.492 76.2509ZM101.963 75.4935L97.4508 81.5056L99.0504 82.7061L103.562 76.694L101.963 75.4935ZM97.4973 81.4482L96.7258 82.332L98.2324 83.6473L99.0039 82.7635L97.4973 81.4482Z" fill="#424193" mask="url(#path-14-inside-1)"/>
<mask id="path-16-inside-2" fill="white">
<path d="M49.9221 79.2327L49.4495 79.8726L53.8771 84.0354L54.3498 83.3955L49.9221 79.2327Z"/>
</mask>
<path d="M49.9221 79.2327L49.4495 79.8726L53.8771 84.0354L54.3498 83.3955L49.9221 79.2327Z" fill="#424193"/>
<path d="M49.4495 79.8726L48.7209 79.1876L48.1268 79.992L48.8553 80.677L49.4495 79.8726ZM49.9221 79.2327L50.5162 78.4284L49.7877 77.7434L49.1935 78.5477L49.9221 79.2327ZM54.3498 83.3955L55.0783 84.0804L55.6725 83.2761L54.9439 82.5911L54.3498 83.3955ZM53.8771 84.0354L53.283 84.8397L54.0115 85.5247L54.6057 84.7203L53.8771 84.0354ZM50.178 80.5576L50.6507 79.9177L49.1935 78.5477L48.7209 79.1876L50.178 80.5576ZM49.328 80.0371L53.7556 84.1998L54.9439 82.5911L50.5162 78.4284L49.328 80.0371ZM53.6212 82.7105L53.1485 83.3504L54.6057 84.7203L55.0783 84.0804L53.6212 82.7105ZM54.4712 83.231L50.0436 79.0682L48.8553 80.677L53.283 84.8397L54.4712 83.231Z" fill="#424193" mask="url(#path-16-inside-2)"/>
<mask id="path-18-inside-3" fill="white">
<path d="M98.8161 87.6558L91.0659 101.392L91.6886 101.839L99.4388 88.103L98.8161 87.6558Z"/>
</mask>
<path d="M98.8161 87.6558L91.0659 101.392L91.6886 101.839L99.4388 88.103L98.8161 87.6558Z" fill="#424193"/>
<path d="M91.0659 101.392L90.2537 100.808L89.7623 101.679L90.5745 102.262L91.0659 101.392ZM98.8161 87.6558L99.3075 86.7849L98.4953 86.2015L98.0039 87.0725L98.8161 87.6558ZM99.4388 88.103L100.251 88.6863L100.742 87.8154L99.9302 87.232L99.4388 88.103ZM91.6886 101.839L91.1971 102.71L92.0094 103.293L92.5008 102.422L91.6886 101.839ZM91.8781 101.975L99.6283 88.2391L98.0039 87.0725L90.2537 100.808L91.8781 101.975ZM98.3247 88.5267L98.9473 88.9739L99.9302 87.232L99.3075 86.7849L98.3247 88.5267ZM98.6265 87.5196L90.8763 101.255L92.5008 102.422L100.251 88.6863L98.6265 87.5196ZM92.18 100.968L91.5573 100.521L90.5745 102.262L91.1971 102.71L92.18 100.968Z" fill="#424193" mask="url(#path-18-inside-3)"/>
<mask id="path-20-inside-4" fill="white">
<path d="M50.7351 87.6549L50.1124 88.1019L57.8607 101.839L58.4834 101.392L50.7351 87.6549Z"/>
</mask>
<path d="M50.7351 87.6549L50.1124 88.1019L57.8607 101.839L58.4834 101.392L50.7351 87.6549Z" fill="#424193"/>
<path d="M50.1124 88.1019L49.6211 87.2309L48.8088 87.8141L49.3 88.6851L50.1124 88.1019ZM50.7351 87.6549L51.5474 87.0716L51.0561 86.2006L50.2438 86.7839L50.7351 87.6549ZM58.4834 101.392L58.9747 102.263L59.7871 101.68L59.2958 100.809L58.4834 101.392ZM57.8607 101.839L57.0484 102.422L57.5397 103.293L58.352 102.71L57.8607 101.839ZM50.6037 88.9729L51.2264 88.5259L50.2438 86.7839L49.6211 87.2309L50.6037 88.9729ZM49.9228 88.2381L57.6711 101.975L59.2958 100.809L51.5474 87.0716L49.9228 88.2381ZM57.9922 100.521L57.3694 100.968L58.352 102.71L58.9747 102.263L57.9922 100.521ZM58.673 101.256L50.9247 87.5187L49.3 88.6851L57.0484 102.422L58.673 101.256Z" fill="#424193" mask="url(#path-20-inside-4)"/>
<path d="M33.4335 200L47.2328 160.678C47.2328 160.678 51.1226 151.398 52.0487 142.119C52.6378 136.219 54.8734 128.162 56.4238 123.075C57.4358 119.749 58.9248 116.683 60.8174 114.027C64.8294 108.404 72.1162 99.3354 76.1282 101.284C81.8702 104.068 71.1271 114.508 71.1271 114.508C71.1271 114.508 86.8713 122.163 76.1282 144.898C65.385 167.633 65.1998 163.457 65.1998 163.457L59.9209 199.995L33.4335 200Z" fill="#CF8C66"/>
<path d="M153.294 60.4026L152.8 60.2241L152.646 60.7271C152.177 62.2656 151.298 63.6777 150.085 64.8351C148.871 65.9928 147.36 66.859 145.685 67.3527C144.011 67.8464 142.228 67.9511 140.497 67.657C138.767 67.3628 137.146 66.6796 135.78 65.6716C134.413 64.6638 133.344 63.3637 132.665 61.8907C131.986 60.4179 131.716 58.8159 131.877 57.2269C132.038 55.6379 132.625 54.107 133.591 52.7715C134.557 51.4358 135.871 50.3367 137.42 49.5762L137.2 49.1274L137.603 48.832C133.095 42.6764 131.142 35.2474 132.088 27.8907C133.035 20.5334 136.822 13.7223 142.775 8.69676C148.729 3.67044 156.453 0.765501 164.548 0.517322C172.643 0.269143 180.562 2.69455 186.869 7.34628C193.175 11.9974 197.449 18.5631 198.928 25.847C200.407 33.13 198.997 40.6611 194.947 47.0772C190.896 53.4946 184.469 58.3755 176.824 60.8238C169.178 63.2723 160.829 63.1227 153.294 60.4026Z" fill="#C9D1EE" stroke="#36344D"/>
<path d="M132.233 72.9425C132.233 75.4843 130.245 77.5158 127.828 77.5158C125.411 77.5158 123.423 75.4843 123.423 72.9425C123.423 70.4007 125.411 68.3692 127.828 68.3692C130.245 68.3692 132.233 70.4007 132.233 72.9425Z" fill="#C9D1EE" stroke="#36344D"/>
<path d="M156.156 49.6054C164.891 49.6054 171.972 41.9332 171.972 32.469C171.972 23.0048 164.891 15.3326 156.156 15.3326C147.421 15.3326 140.34 23.0048 140.34 32.469C140.34 41.9332 147.421 49.6054 156.156 49.6054Z" fill="#B6B3E3"/>
<path d="M162.708 39.9356H149.604C149.364 39.9353 149.135 39.8321 148.965 39.6485C148.796 39.4649 148.7 39.216 148.7 38.9564V30.3881C148.7 30.1285 148.796 29.8796 148.965 29.696C149.135 29.5125 149.364 29.4092 149.604 29.4089H162.708C162.948 29.4092 163.178 29.5125 163.347 29.696C163.517 29.8796 163.612 30.1285 163.612 30.3881V38.9564C163.612 39.216 163.517 39.4649 163.347 39.6485C163.178 39.8321 162.948 39.9353 162.708 39.9356ZM149.604 30.3882V38.9564H162.709L162.708 30.3881L149.604 30.3882Z" fill="#424193"/>
<path d="M160.223 30.3882H152.089V26.4713C152.089 23.6342 153.8 21.5751 156.156 21.5751C158.513 21.5751 160.223 23.6342 160.223 26.4713L160.223 30.3882ZM152.993 29.4089H159.319V26.4713C159.319 24.1651 158.019 22.5544 156.156 22.5544C154.294 22.5544 152.993 24.1651 152.993 26.4713L152.993 29.4089Z" fill="#424193"/>
<path d="M156.156 35.4067C156.655 35.4067 157.06 34.9683 157.06 34.4274C157.06 33.8866 156.655 33.4482 156.156 33.4482C155.657 33.4482 155.252 33.8866 155.252 34.4274C155.252 34.9683 155.657 35.4067 156.156 35.4067Z" fill="#424193"/>
<path d="M176.56 35.8695C176.286 35.8692 176.018 35.7748 175.791 35.5981C175.563 35.4215 175.385 35.1704 175.28 34.8768C175.176 34.5832 175.148 34.2601 175.202 33.9485C175.255 33.6368 175.387 33.3506 175.581 33.1259C175.775 32.9012 176.022 32.7481 176.291 32.6861C176.559 32.624 176.838 32.6558 177.091 32.7773C177.344 32.8988 177.561 33.1046 177.713 33.3687C177.866 33.6328 177.947 33.9434 177.947 34.2611C177.948 34.4725 177.912 34.6819 177.843 34.8773C177.773 35.0727 177.671 35.2503 177.542 35.3997C177.413 35.5492 177.26 35.6676 177.092 35.7483C176.923 35.8289 176.742 35.8701 176.56 35.8695V35.8695Z" fill="#6C63FF"/>
<path opacity="0.3" d="M176.56 35.8695C176.286 35.8692 176.018 35.7748 175.791 35.5981C175.563 35.4215 175.385 35.1704 175.28 34.8768C175.176 34.5832 175.148 34.2601 175.202 33.9485C175.255 33.6368 175.387 33.3506 175.581 33.1259C175.775 32.9012 176.022 32.7481 176.291 32.6861C176.559 32.624 176.838 32.6558 177.091 32.7773C177.344 32.8988 177.561 33.1046 177.713 33.3687C177.866 33.6328 177.947 33.9434 177.947 34.2611C177.948 34.4725 177.912 34.6819 177.843 34.8773C177.773 35.0727 177.671 35.2503 177.542 35.3997C177.413 35.5492 177.26 35.6676 177.092 35.7483C176.923 35.8289 176.742 35.8701 176.56 35.8695V35.8695Z" fill="black"/>
<path d="M183.552 38.7824C183.099 38.7854 182.65 38.6771 182.235 38.4647C182.057 38.3727 181.886 38.2624 181.724 38.135C181.396 37.8713 181.101 37.5548 180.848 37.195C180.804 37.1332 180.757 37.0655 180.697 36.9749C180.624 36.8613 180.548 36.7349 180.465 36.5895C180.322 36.3327 180.166 36.0857 179.999 35.8495C179.905 35.7095 179.792 35.5881 179.664 35.49C179.479 35.3675 179.122 35.3058 178.602 35.3058H178.516V32.621H178.918C179.232 32.621 179.497 32.6299 179.727 32.6468C179.935 32.659 180.143 32.6843 180.349 32.7225C180.531 32.7488 180.707 32.8122 180.869 32.9097C181.122 33.086 181.467 33.5112 181.922 34.2083C181.941 34.2382 181.961 34.2681 181.98 34.299C181.998 34.3279 182.016 34.3557 182.034 34.3846C182.182 34.6261 182.352 34.8485 182.541 35.0479C182.6 35.1061 182.662 35.16 182.727 35.2092L182.744 35.2222C182.982 35.3783 183.253 35.4548 183.527 35.4432C183.596 35.444 183.666 35.4387 183.734 35.4273C184.001 35.3963 184.25 35.2524 184.432 35.023C184.628 34.774 184.744 34.4531 184.758 34.1157C184.761 34.0729 184.762 34.0331 184.762 33.9923C184.763 33.8335 184.747 33.6753 184.714 33.5212C184.653 33.2323 184.514 32.9732 184.319 32.7803C184.215 32.6781 184.1 32.5911 183.978 32.5214C183.51 32.2861 183.013 32.1356 182.506 32.0752L182.416 32.0653L182.996 29.5378H183.957C183.996 29.5497 184.035 29.5627 184.073 29.5766C184.554 29.738 185.009 29.9951 185.415 30.3365C185.587 30.4824 185.747 30.6467 185.893 30.8274C185.93 30.8702 185.966 30.917 186.001 30.9638C186.229 31.268 186.421 31.6059 186.572 31.9687L186.585 32.0005C186.859 32.6877 186.996 33.4375 186.987 34.1944C186.987 34.2731 186.986 34.3657 186.981 34.4573C186.965 35.2095 186.803 35.9478 186.506 36.6173C186.372 36.918 186.209 37.1997 186.019 37.4569C185.511 38.1784 184.782 38.643 183.985 38.7525C183.841 38.7724 183.697 38.7824 183.552 38.7824Z" fill="#6C63FF"/>
<path opacity="0.3" d="M183.552 38.7824C183.099 38.7854 182.65 38.6771 182.235 38.4647C182.057 38.3727 181.886 38.2624 181.724 38.135C181.396 37.8713 181.101 37.5548 180.848 37.195C180.804 37.1332 180.757 37.0655 180.697 36.9749C180.624 36.8613 180.548 36.7349 180.465 36.5895C180.322 36.3327 180.166 36.0857 179.999 35.8495C179.905 35.7095 179.792 35.5881 179.664 35.49C179.479 35.3675 179.122 35.3058 178.602 35.3058H178.516V32.621H178.918C179.232 32.621 179.497 32.6299 179.727 32.6468C179.935 32.659 180.143 32.6843 180.349 32.7225C180.531 32.7488 180.707 32.8122 180.869 32.9097C181.122 33.086 181.467 33.5112 181.922 34.2083C181.941 34.2382 181.961 34.2681 181.98 34.299C181.998 34.3279 182.016 34.3557 182.034 34.3846C182.182 34.6261 182.352 34.8485 182.541 35.0479C182.6 35.1061 182.662 35.16 182.727 35.2092L182.744 35.2222C182.982 35.3783 183.253 35.4548 183.527 35.4432C183.596 35.444 183.666 35.4387 183.734 35.4273C184.001 35.3963 184.25 35.2524 184.432 35.023C184.628 34.774 184.744 34.4531 184.758 34.1157C184.761 34.0729 184.762 34.0331 184.762 33.9923C184.763 33.8335 184.747 33.6753 184.714 33.5212C184.653 33.2323 184.514 32.9732 184.319 32.7803C184.215 32.6781 184.1 32.5911 183.978 32.5214C183.51 32.2861 183.013 32.1356 182.506 32.0752L182.416 32.0653L182.996 29.5378H183.957C183.996 29.5497 184.035 29.5627 184.073 29.5766C184.554 29.738 185.009 29.9951 185.415 30.3365C185.587 30.4824 185.747 30.6467 185.893 30.8274C185.93 30.8702 185.966 30.917 186.001 30.9638C186.229 31.268 186.421 31.6059 186.572 31.9687L186.585 32.0005C186.859 32.6877 186.996 33.4375 186.987 34.1944C186.987 34.2731 186.986 34.3657 186.981 34.4573C186.965 35.2095 186.803 35.9478 186.506 36.6173C186.372 36.918 186.209 37.1997 186.019 37.4569C185.511 38.1784 184.782 38.643 183.985 38.7525C183.841 38.7724 183.697 38.7824 183.552 38.7824Z" fill="black"/>
<path d="M172.663 46.8496C172.426 46.6951 172.236 46.4625 172.117 46.1812C171.998 45.8999 171.956 45.5826 171.995 45.2693C172.035 44.956 172.155 44.6608 172.339 44.4211C172.524 44.1813 172.765 44.0077 173.033 43.9223C173.3 43.8368 173.582 43.8433 173.843 43.9409C174.103 44.0385 174.33 44.2229 174.495 44.4707C174.661 44.7185 174.757 45.0187 174.772 45.3332C174.786 45.6477 174.719 45.9626 174.578 46.2379C174.485 46.4212 174.361 46.5826 174.214 46.7126C174.067 46.8427 173.9 46.9389 173.722 46.9958C173.544 47.0526 173.359 47.069 173.177 47.0439C172.995 47.0188 172.82 46.9528 172.663 46.8496V46.8496Z" fill="#6C63FF"/>
<path opacity="0.3" d="M172.663 46.8496C172.426 46.6951 172.236 46.4625 172.117 46.1812C171.998 45.8999 171.956 45.5826 171.995 45.2693C172.035 44.956 172.155 44.6608 172.339 44.4211C172.524 44.1813 172.765 44.0077 173.033 43.9223C173.3 43.8368 173.582 43.8433 173.843 43.9409C174.103 44.0385 174.33 44.2229 174.495 44.4707C174.661 44.7185 174.757 45.0187 174.772 45.3332C174.786 45.6477 174.719 45.9626 174.578 46.2379C174.485 46.4212 174.361 46.5826 174.214 46.7126C174.067 46.8427 173.9 46.9389 173.722 46.9958C173.544 47.0526 173.359 47.069 173.177 47.0439C172.995 47.0188 172.82 46.9528 172.663 46.8496V46.8496Z" fill="black"/>
<path d="M177.425 53.3096C177.031 53.057 176.69 52.7105 176.426 52.2931C176.312 52.1129 176.213 51.921 176.129 51.7198C175.962 51.3062 175.847 50.866 175.788 50.4124C175.777 50.3337 175.767 50.249 175.755 50.1366C175.742 49.9972 175.732 49.8446 175.725 49.6723C175.715 49.3693 175.69 49.0677 175.65 48.7689C175.63 48.5946 175.586 48.4257 175.519 48.2689C175.414 48.0589 175.132 47.8042 174.681 47.5111L174.607 47.4627L175.799 45.1376L176.147 45.3639C176.419 45.541 176.644 45.6977 176.836 45.842C177.011 45.97 177.18 46.1089 177.341 46.2581C177.487 46.383 177.611 46.537 177.708 46.7129C177.849 47.0082 177.959 47.5704 178.044 48.4304C178.047 48.467 178.051 48.504 178.054 48.5418C178.056 48.5765 178.059 48.6108 178.063 48.6465C178.084 48.9389 178.132 49.2271 178.207 49.5062C178.232 49.5898 178.262 49.6713 178.296 49.7504L178.305 49.7713C178.443 50.0408 178.643 50.2597 178.886 50.4038C178.945 50.4435 179.007 50.4778 179.072 50.5066C179.317 50.6303 179.596 50.6455 179.855 50.5491C180.136 50.4444 180.379 50.2314 180.541 49.9472C180.563 49.9121 180.581 49.8781 180.599 49.8427C180.67 49.7057 180.727 49.5596 180.767 49.4077C180.842 49.1229 180.837 48.8206 180.754 48.5436C180.709 48.3964 180.648 48.2566 180.573 48.1273C180.272 47.66 179.909 47.2501 179.496 46.912L179.423 46.8526L181.048 44.9906L181.88 45.5318C181.908 45.564 181.936 45.5969 181.962 45.6303C182.308 46.0414 182.587 46.5199 182.788 47.0443C182.872 47.2677 182.938 47.5002 182.984 47.7388C182.997 47.7967 183.007 47.8576 183.017 47.9179C183.079 48.3095 183.095 48.7101 183.065 49.1092L183.062 49.1441C182.994 49.8935 182.78 50.6201 182.436 51.2704C182.401 51.3385 182.359 51.4183 182.315 51.4952C181.967 52.1374 181.498 52.6853 180.945 53.0984C180.695 53.2832 180.428 53.4349 180.149 53.5507C179.39 53.8899 178.552 53.8816 177.813 53.5275C177.68 53.4639 177.55 53.3911 177.425 53.3096Z" fill="#6C63FF"/>
<path opacity="0.3" d="M177.425 53.3096C177.031 53.057 176.69 52.7105 176.426 52.2931C176.312 52.1129 176.213 51.921 176.129 51.7198C175.962 51.3062 175.847 50.866 175.788 50.4124C175.777 50.3337 175.767 50.249 175.755 50.1366C175.742 49.9972 175.732 49.8446 175.725 49.6723C175.715 49.3693 175.69 49.0677 175.65 48.7689C175.63 48.5946 175.586 48.4257 175.519 48.2689C175.414 48.0589 175.132 47.8042 174.681 47.5111L174.607 47.4627L175.799 45.1376L176.147 45.3639C176.419 45.541 176.644 45.6977 176.836 45.842C177.011 45.97 177.18 46.1089 177.341 46.2581C177.487 46.383 177.611 46.537 177.708 46.7129C177.849 47.0082 177.959 47.5704 178.044 48.4304C178.047 48.467 178.051 48.504 178.054 48.5418C178.056 48.5765 178.059 48.6108 178.063 48.6465C178.084 48.9389 178.132 49.2271 178.207 49.5062C178.232 49.5898 178.262 49.6713 178.296 49.7504L178.305 49.7713C178.443 50.0408 178.643 50.2597 178.886 50.4038C178.945 50.4435 179.007 50.4778 179.072 50.5066C179.317 50.6303 179.596 50.6455 179.855 50.5491C180.136 50.4444 180.379 50.2314 180.541 49.9472C180.563 49.9121 180.581 49.8781 180.599 49.8427C180.67 49.7057 180.727 49.5596 180.767 49.4077C180.842 49.1229 180.837 48.8206 180.754 48.5436C180.709 48.3964 180.648 48.2566 180.573 48.1273C180.272 47.66 179.909 47.2501 179.496 46.912L179.423 46.8526L181.048 44.9906L181.88 45.5318C181.908 45.564 181.936 45.5969 181.962 45.6303C182.308 46.0414 182.587 46.5199 182.788 47.0443C182.872 47.2677 182.938 47.5002 182.984 47.7388C182.997 47.7967 183.007 47.8576 183.017 47.9179C183.079 48.3095 183.095 48.7101 183.065 49.1092L183.062 49.1441C182.994 49.8935 182.78 50.6201 182.436 51.2704C182.401 51.3385 182.359 51.4183 182.315 51.4952C181.967 52.1374 181.498 52.6853 180.945 53.0984C180.695 53.2832 180.428 53.4349 180.149 53.5507C179.39 53.8899 178.552 53.8816 177.813 53.5275C177.68 53.4639 177.55 53.3911 177.425 53.3096Z" fill="black"/>
<path d="M176.368 24.5653C176.192 24.8016 175.955 24.972 175.689 25.0549C175.422 25.1379 175.137 25.1297 174.87 25.0313C174.603 24.933 174.366 24.749 174.188 24.5025C174.011 24.256 173.901 23.9581 173.873 23.6465C173.844 23.3349 173.899 23.0235 174.029 22.7517C174.16 22.4799 174.361 22.26 174.606 22.1196C174.852 21.9792 175.131 21.9247 175.408 21.963C175.686 22.0013 175.949 22.1307 176.166 22.3348C176.31 22.4702 176.429 22.6355 176.518 22.8211C176.606 23.0066 176.661 23.2089 176.68 23.4162C176.698 23.6235 176.681 23.8317 176.627 24.0289C176.574 24.2261 176.486 24.4084 176.368 24.5653V24.5653Z" fill="#6C63FF"/>
<path opacity="0.3" d="M176.368 24.5653C176.192 24.8016 175.955 24.972 175.689 25.0549C175.422 25.1379 175.137 25.1297 174.87 25.0313C174.603 24.933 174.366 24.749 174.188 24.5025C174.011 24.256 173.901 23.9581 173.873 23.6465C173.844 23.3349 173.899 23.0235 174.029 22.7517C174.16 22.4799 174.361 22.26 174.606 22.1196C174.852 21.9792 175.131 21.9247 175.408 21.963C175.686 22.0013 175.949 22.1307 176.166 22.3348C176.31 22.4702 176.429 22.6355 176.518 22.8211C176.606 23.0066 176.661 23.2089 176.68 23.4162C176.698 23.6235 176.681 23.8317 176.627 24.0289C176.574 24.2261 176.486 24.4084 176.368 24.5653V24.5653Z" fill="black"/>
<path d="M182.844 20.4053C182.554 20.7984 182.192 21.1159 181.781 21.337C181.604 21.4319 181.419 21.5085 181.228 21.566C180.838 21.6802 180.433 21.7312 180.026 21.7176C179.955 21.7164 179.879 21.7129 179.779 21.7065C179.655 21.6965 179.52 21.6812 179.368 21.6588C179.101 21.6174 178.833 21.5929 178.565 21.5856C178.409 21.5768 178.254 21.5963 178.105 21.6435C177.903 21.7241 177.631 21.9926 177.297 22.4416L177.242 22.5157L175.416 20.79L175.674 20.4432C175.876 20.172 176.052 19.9495 176.212 19.7618C176.354 19.5897 176.505 19.4266 176.663 19.2733C176.798 19.1337 176.954 19.0226 177.125 18.9453C177.407 18.84 177.918 18.8162 178.685 18.8716C178.717 18.8745 178.75 18.8767 178.784 18.8795C178.815 18.8832 178.845 18.8856 178.877 18.8878C179.136 18.9154 179.397 18.9118 179.654 18.877C179.731 18.8637 179.808 18.8448 179.883 18.8206L179.903 18.8141C180.162 18.7087 180.388 18.524 180.556 18.2805C180.601 18.2212 180.642 18.1581 180.679 18.0916C180.829 17.8411 180.891 17.5344 180.852 17.2301C180.809 16.9003 180.665 16.5943 180.445 16.3653C180.418 16.3348 180.391 16.3085 180.363 16.2823C180.256 16.1796 180.138 16.0918 180.012 16.021C179.776 15.8883 179.511 15.8409 179.254 15.8856C179.118 15.9097 178.985 15.9526 178.859 16.0133C178.398 16.2659 177.976 16.5975 177.609 16.9966L177.544 17.068L176.199 14.9424L176.816 14.1133C176.849 14.0876 176.883 14.0626 176.917 14.039C177.336 13.7268 177.803 13.5002 178.296 13.3692C178.506 13.3143 178.721 13.2818 178.938 13.2721C178.991 13.2677 179.046 13.2667 179.1 13.2664C179.453 13.2654 179.806 13.3172 180.15 13.4203L180.18 13.4296C180.824 13.635 181.422 13.9984 181.931 14.4931C181.984 14.5436 182.047 14.6039 182.106 14.6665C182.607 15.1642 183.005 15.7788 183.27 16.4647C183.388 16.7738 183.475 17.0961 183.527 17.4252C183.692 18.3266 183.539 19.2544 183.101 20.0126C183.023 20.1494 182.937 20.2805 182.844 20.4053Z" fill="#6C63FF"/>
<path opacity="0.3" d="M182.844 20.4053C182.554 20.7984 182.192 21.1159 181.781 21.337C181.604 21.4319 181.419 21.5085 181.228 21.566C180.838 21.6802 180.433 21.7312 180.026 21.7176C179.955 21.7164 179.879 21.7129 179.779 21.7065C179.655 21.6965 179.52 21.6812 179.368 21.6588C179.101 21.6174 178.833 21.5929 178.565 21.5856C178.409 21.5768 178.254 21.5963 178.105 21.6435C177.903 21.7241 177.631 21.9926 177.297 22.4416L177.242 22.5157L175.416 20.79L175.674 20.4432C175.876 20.172 176.052 19.9495 176.212 19.7618C176.354 19.5897 176.505 19.4266 176.663 19.2733C176.798 19.1337 176.954 19.0226 177.125 18.9453C177.407 18.84 177.918 18.8162 178.685 18.8716C178.717 18.8745 178.75 18.8767 178.784 18.8795C178.815 18.8832 178.845 18.8856 178.877 18.8878C179.136 18.9154 179.397 18.9118 179.654 18.877C179.731 18.8637 179.808 18.8448 179.883 18.8206L179.903 18.8141C180.162 18.7087 180.388 18.524 180.556 18.2805C180.601 18.2212 180.642 18.1581 180.679 18.0916C180.829 17.8411 180.891 17.5344 180.852 17.2301C180.809 16.9003 180.665 16.5943 180.445 16.3653C180.418 16.3348 180.391 16.3085 180.363 16.2823C180.256 16.1796 180.138 16.0918 180.012 16.021C179.776 15.8883 179.511 15.8409 179.254 15.8856C179.118 15.9097 178.985 15.9526 178.859 16.0133C178.398 16.2659 177.976 16.5975 177.609 16.9966L177.544 17.068L176.199 14.9424L176.816 14.1133C176.849 14.0876 176.883 14.0626 176.917 14.039C177.336 13.7268 177.803 13.5002 178.296 13.3692C178.506 13.3143 178.721 13.2818 178.938 13.2721C178.991 13.2677 179.046 13.2667 179.1 13.2664C179.453 13.2654 179.806 13.3172 180.15 13.4203L180.18 13.4296C180.824 13.635 181.422 13.9984 181.931 14.4931C181.984 14.5436 182.047 14.6039 182.106 14.6665C182.607 15.1642 183.005 15.7788 183.27 16.4647C183.388 16.7738 183.475 17.0961 183.527 17.4252C183.692 18.3266 183.539 19.2544 183.101 20.0126C183.023 20.1494 182.937 20.2805 182.844 20.4053Z" fill="black"/>
<path d="M166.358 15.7716C166.182 16.0079 165.945 16.1783 165.679 16.2612C165.412 16.3442 165.127 16.336 164.86 16.2377C164.593 16.1393 164.356 15.9553 164.178 15.7088C164.001 15.4623 163.891 15.1644 163.863 14.8528C163.834 14.5412 163.889 14.2298 164.019 13.958C164.15 13.6863 164.351 13.4663 164.596 13.3259C164.842 13.1855 165.121 13.131 165.398 13.1693C165.676 13.2076 165.939 13.337 166.156 13.5411C166.3 13.6765 166.419 13.8418 166.508 14.0274C166.596 14.213 166.651 14.4152 166.67 14.6225C166.688 14.8298 166.671 15.038 166.617 15.2352C166.564 15.4324 166.476 15.6147 166.358 15.7716V15.7716Z" fill="#6C63FF"/>
<path opacity="0.3" d="M166.358 15.7716C166.182 16.0079 165.945 16.1783 165.679 16.2612C165.412 16.3442 165.127 16.336 164.86 16.2377C164.593 16.1393 164.356 15.9553 164.178 15.7088C164.001 15.4623 163.891 15.1644 163.863 14.8528C163.834 14.5412 163.889 14.2298 164.019 13.958C164.15 13.6863 164.351 13.4663 164.596 13.3259C164.842 13.1855 165.121 13.131 165.398 13.1693C165.676 13.2076 165.939 13.337 166.156 13.5411C166.3 13.6765 166.419 13.8418 166.508 14.0274C166.596 14.213 166.651 14.4152 166.67 14.6225C166.688 14.8298 166.671 15.038 166.617 15.2352C166.564 15.4324 166.476 15.6147 166.358 15.7716V15.7716Z" fill="black"/>
<path d="M172.833 11.6116C172.544 12.0047 172.182 12.3222 171.771 12.5434C171.594 12.6382 171.409 12.7148 171.218 12.7724C170.828 12.8865 170.423 12.9376 170.016 12.9239C169.945 12.9227 169.869 12.9192 169.769 12.9128C169.645 12.9028 169.51 12.8875 169.358 12.8652C169.091 12.8237 168.823 12.7992 168.555 12.7919C168.399 12.7831 168.244 12.8027 168.095 12.8498C167.893 12.9304 167.621 13.1989 167.287 13.648L167.232 13.7221L165.406 11.9963L165.664 11.6495C165.866 11.3783 166.042 11.1558 166.202 10.9681C166.344 10.796 166.495 10.6329 166.653 10.4796C166.788 10.34 166.944 10.2289 167.115 10.1516C167.397 10.0463 167.908 10.0225 168.675 10.0779C168.707 10.0808 168.74 10.083 168.774 10.0858C168.805 10.0895 168.835 10.0919 168.867 10.0941C169.126 10.1217 169.387 10.1181 169.644 10.0833C169.721 10.07 169.798 10.0512 169.873 10.0269L169.893 10.0204C170.152 9.91503 170.378 9.73032 170.546 9.48678C170.591 9.42752 170.632 9.3644 170.669 9.29796C170.819 9.04737 170.881 8.74071 170.842 8.43639C170.799 8.10657 170.655 7.80064 170.435 7.57165C170.408 7.54116 170.381 7.51483 170.353 7.48857C170.246 7.38589 170.128 7.29814 170.002 7.22729C169.766 7.09462 169.501 7.04726 169.244 7.09189C169.108 7.11596 168.975 7.15886 168.849 7.21962C168.388 7.47223 167.966 7.80386 167.599 8.20288L167.534 8.27428L166.189 6.14874L166.806 5.31958C166.839 5.29393 166.873 5.2689 166.907 5.24526C167.326 4.93313 167.793 4.70652 168.286 4.57552C168.496 4.5206 168.711 4.48807 168.928 4.47837C168.981 4.47403 169.036 4.47301 169.09 4.47271C169.443 4.47174 169.796 4.52348 170.14 4.62657L170.17 4.63595C170.814 4.84135 171.412 5.20476 171.921 5.69936C171.974 5.74993 172.037 5.81021 172.096 5.8728C172.597 6.37051 172.995 6.98512 173.26 7.67101C173.378 7.98007 173.465 8.30237 173.517 8.63151C173.682 9.53292 173.529 10.4608 173.091 11.219C173.013 11.3557 172.927 11.4868 172.833 11.6116Z" fill="#6C63FF"/>
<path opacity="0.3" d="M172.833 11.6116C172.544 12.0047 172.182 12.3222 171.771 12.5434C171.594 12.6382 171.409 12.7148 171.218 12.7724C170.828 12.8865 170.423 12.9376 170.016 12.9239C169.945 12.9227 169.869 12.9192 169.769 12.9128C169.645 12.9028 169.51 12.8875 169.358 12.8652C169.091 12.8237 168.823 12.7992 168.555 12.7919C168.399 12.7831 168.244 12.8027 168.095 12.8498C167.893 12.9304 167.621 13.1989 167.287 13.648L167.232 13.7221L165.406 11.9963L165.664 11.6495C165.866 11.3783 166.042 11.1558 166.202 10.9681C166.344 10.796 166.495 10.6329 166.653 10.4796C166.788 10.34 166.944 10.2289 167.115 10.1516C167.397 10.0463 167.908 10.0225 168.675 10.0779C168.707 10.0808 168.74 10.083 168.774 10.0858C168.805 10.0895 168.835 10.0919 168.867 10.0941C169.126 10.1217 169.387 10.1181 169.644 10.0833C169.721 10.07 169.798 10.0512 169.873 10.0269L169.893 10.0204C170.152 9.91503 170.378 9.73032 170.546 9.48678C170.591 9.42752 170.632 9.3644 170.669 9.29796C170.819 9.04737 170.881 8.74071 170.842 8.43639C170.799 8.10657 170.655 7.80064 170.435 7.57165C170.408 7.54116 170.381 7.51483 170.353 7.48857C170.246 7.38589 170.128 7.29814 170.002 7.22729C169.766 7.09462 169.501 7.04726 169.244 7.09189C169.108 7.11596 168.975 7.15886 168.849 7.21962C168.388 7.47223 167.966 7.80386 167.599 8.20288L167.534 8.27428L166.189 6.14874L166.806 5.31958C166.839 5.29393 166.873 5.2689 166.907 5.24526C167.326 4.93313 167.793 4.70652 168.286 4.57552C168.496 4.5206 168.711 4.48807 168.928 4.47837C168.981 4.47403 169.036 4.47301 169.09 4.47271C169.443 4.47174 169.796 4.52348 170.14 4.62657L170.17 4.63595C170.814 4.84135 171.412 5.20476 171.921 5.69936C171.974 5.74993 172.037 5.81021 172.096 5.8728C172.597 6.37051 172.995 6.98512 173.26 7.67101C173.378 7.98007 173.465 8.30237 173.517 8.63151C173.682 9.53292 173.529 10.4608 173.091 11.219C173.013 11.3557 172.927 11.4868 172.833 11.6116Z" fill="black"/>
<path opacity="0.03" d="M102.302 122.066L97.8224 165.063L73.8548 172.717C73.8548 172.717 42.7194 166.864 50.7832 149.98C56.5198 137.97 56.3607 116.507 55.7918 105.116C55.5678 100.493 55.2632 97.5278 55.2632 97.5278C55.2632 97.5278 96.0304 61.7341 92.6705 93.9259C92.0209 100.159 91.9828 105.033 92.3435 108.842C93.8554 124.699 102.302 122.066 102.302 122.066Z" fill="black"/>
<defs>
<linearGradient id="paint0_linear" x1="95.2953" y1="2.70575" x2="95.2953" y2="197.294" gradientUnits="userSpaceOnUse">
<stop stop-color="#C0C2E8"/>
<stop offset="0.296875" stop-color="#C3BBE3" stop-opacity="0.24"/>
<stop offset="1" stop-color="#899FEA" stop-opacity="0"/>
</linearGradient>
</defs>
</svg>
