<svg width="999" height="887" viewBox="0 0 999 887" fill="none" xmlns="http://www.w3.org/2000/svg">
<path fill-rule="evenodd" clip-rule="evenodd" d="M419.541 14.6332C526.957 28.9754 592.182 120.813 657.764 194.942C706.977 250.569 705.753 324.039 746.659 384.385C805.335 470.946 983.658 526.751 947.108 621.792C910.5 716.982 722.911 662.905 620.692 711.936C538.122 751.541 514.068 870.268 419.541 874.846C325.786 879.387 274.463 782.391 201.119 732.257C132.39 685.278 27.2914 663.226 3.86334 590.713C-19.5125 518.361 70.074 456.672 88.3631 383.257C110.135 295.862 56.6675 194.049 120.334 123.184C187.985 47.8839 309.808 -0.0182378 419.541 14.6332Z" fill="url(#paint0_linear)"/>
<path d="M834.979 886.47C834.979 886.47 790.419 642.07 705.449 602.41C633.449 568.78 555.589 546.11 533.449 539.96C530.143 534.634 526.322 529.647 522.039 525.07C491.779 493.48 473.599 494.07 470.659 494.46C469.264 488.195 468.262 481.85 467.659 475.46C467.569 474.46 467.479 473.53 467.399 472.54L467.659 472.41C467.479 470.52 467.319 468.57 467.179 466.56C479.532 459.967 490.905 451.684 500.969 441.95C501.099 442.38 501.209 442.81 501.349 443.25C523.156 424.816 544.513 405.883 565.419 386.45C571.419 380.84 577.719 374.75 579.759 366.84C580.413 364.118 580.665 361.315 580.509 358.52C580.779 352.52 579.359 346.39 579.119 340.31C579.119 339.31 579.229 338.38 579.359 337.43C580.759 327.48 587.679 319.31 593.359 310.96C607.55 289.858 614.957 264.926 614.589 239.5C614.745 227.317 613.059 215.18 609.589 203.5C605.159 188.68 595.939 173.11 580.589 169.87C574.649 168.62 568.479 169.4 562.419 169.01C537.329 167.41 518.549 147.01 498.539 132.06C474.117 113.902 445.236 102.692 414.959 99.6198C405.509 98.6198 395.749 98.5498 386.759 101.55C366.569 108.27 354.309 129.02 334.859 137.55C320.479 143.89 303.859 142.86 288.859 147.62C266.529 154.72 247.579 177.62 247.079 201.15C247.079 202.02 247.079 202.89 247.079 203.76C247.079 203.91 247.079 204.06 247.079 204.2C246.829 216.09 251.079 228.2 251.419 240.37C251.419 241.47 251.436 242.573 251.469 243.68C251.359 256.82 249.789 270 244.999 282.35C242.419 289 239.099 296.7 239.639 303.35C239.339 307.42 240.129 311.24 242.959 314.35L247.789 310.09C246.17 318.857 245.356 327.754 245.359 336.67C245.359 381.61 265.799 421.85 298.039 448.93C298.226 451.923 298.406 455.13 298.579 458.55C299.339 473.37 299.939 491.96 299.769 512.22L252.609 555.57L131.369 610.57C131.369 610.57 20.4894 633.99 44.3694 789.76L55.7694 886.48H156.999L156.769 886.99H307.019L307.109 886.48H664.589L664.519 886.99H678.519V886.48L834.979 886.47ZM471.549 496.94C474.614 503.279 477.026 509.913 478.749 516.74C475.211 510.17 472.597 503.144 470.979 495.86L471.129 496.13L471.549 496.94ZM299.729 516.94C299.729 518.846 299.696 520.77 299.629 522.71L299.389 523.05C299.373 520.991 299.487 518.934 299.729 516.89V516.94Z" fill="#424193"/>
<path d="M511 541.361L490.064 732.055L378.055 766C378.055 766 232.548 740.042 270.233 665.162C297.042 611.898 296.299 516.71 293.64 466.192C292.593 445.685 291.169 432.536 291.169 432.536C291.169 432.536 481.689 273.791 465.987 416.561C462.951 444.207 462.773 465.822 464.459 482.715C471.525 553.042 511 541.361 511 541.361Z" fill="#CF8C66"/>
<path opacity="0.1" d="M468.099 413.47C465.199 441.16 465.029 462.81 466.639 479.73C440.946 493.757 411.61 499.683 382.486 496.729C353.362 493.776 325.813 482.08 303.459 463.18C302.459 442.64 301.099 429.47 301.099 429.47C301.099 429.47 483.099 270.47 468.099 413.47Z" fill="black"/>
<path d="M394.5 491C475.962 491 542 426.081 542 346C542 265.919 475.962 201 394.5 201C313.038 201 247 265.919 247 346C247 426.081 313.038 491 394.5 491Z" fill="#CF8C66"/>
<path opacity="0.1" d="M158.099 734.47C158.099 734.47 205.099 830.47 207.599 886.97Z" fill="black"/>
<path opacity="0.1" d="M670.099 789.48L656.599 886.98H670.099V789.48Z" fill="black"/>
<path opacity="0.1" d="M168.599 886.97L243.099 717.47C243.099 717.47 264.099 677.47 269.099 637.47C274.099 597.47 301.099 534.47 301.099 534.47C301.099 534.47 368.099 449.47 399.099 461.47C430.099 473.47 372.099 518.47 372.099 518.47C372.099 518.47 457.099 551.47 399.099 649.47C341.099 747.47 340.099 729.47 340.099 729.47L311.599 886.97H168.599Z" fill="black"/>
<path opacity="0.15" d="M441.599 267.98C443.256 267.98 444.599 266.637 444.599 264.98C444.599 263.323 443.256 261.98 441.599 261.98C439.943 261.98 438.599 263.323 438.599 264.98C438.599 266.637 439.943 267.98 441.599 267.98Z" fill="#424193"/>
<path opacity="0.15" d="M427.599 274.98C429.256 274.98 430.599 273.637 430.599 271.98C430.599 270.323 429.256 268.98 427.599 268.98C425.943 268.98 424.599 270.323 424.599 271.98C424.599 273.637 425.943 274.98 427.599 274.98Z" fill="#424193"/>
<path opacity="0.1" d="M294.089 167.75C308.559 163.07 324.619 164.08 338.499 157.86C357.269 149.44 369.099 129.06 388.579 122.46C397.259 119.52 406.679 119.63 415.789 120.57C445.084 123.619 472.982 134.642 496.449 152.44C515.759 167.13 533.879 187.16 558.089 188.73C563.939 189.11 569.889 188.34 575.619 189.57C590.459 192.75 599.349 208.04 603.619 222.57C608.559 239.79 609.717 257.874 607.014 275.583C604.311 293.292 597.811 310.208 587.959 325.17C582.479 333.37 575.799 341.4 574.449 351.17C573.129 360.75 577.209 370.68 574.829 380.06C572.829 387.83 566.829 393.81 560.989 399.32C540.823 418.393 520.213 436.976 499.159 455.07C488.219 420.31 504.269 382.88 501.769 346.53C500.769 332.37 495.769 316.91 483.279 310.23C471.589 303.99 456.649 307.23 444.819 301.23C431.619 294.58 426.199 278.83 416.219 267.93C399.219 249.33 369.709 246.93 345.939 255.33C322.169 263.73 302.739 281.01 283.939 297.86L249.769 328.51C243.099 320.99 248.159 309.45 251.769 300.05C257.149 285.96 258.329 270.77 257.969 255.81C257.679 243.81 253.539 231.96 253.779 220.28C254.259 197.24 272.539 174.72 294.089 167.75Z" fill="black"/>
<path d="M283.086 144.466C298.318 139.522 315.225 140.589 329.836 134.018C349.596 125.123 362.049 103.593 382.556 96.6203C391.693 93.5143 401.609 93.6306 411.2 94.6236C442.038 97.8445 471.407 109.489 496.11 128.292C516.438 143.811 535.513 164.971 560.999 166.63C567.157 167.031 573.421 166.218 579.453 167.517C595.075 170.877 604.434 187.03 608.929 202.38C614.129 220.571 615.348 239.676 612.502 258.385C609.657 277.093 602.814 294.963 592.443 310.77C586.674 319.432 579.642 327.915 578.221 338.237C576.832 348.357 581.127 358.848 578.621 368.757C576.516 376.966 570.2 383.283 564.052 389.104C542.822 409.254 521.126 428.886 498.963 448C487.447 411.278 504.343 371.736 501.711 333.335C500.658 318.376 495.395 302.043 482.246 294.986C469.94 288.394 454.213 291.817 441.759 285.479C427.864 278.453 422.158 261.814 411.652 250.299C393.756 230.65 362.691 228.114 337.668 236.988C312.646 245.862 260.442 315.534 240.651 333.335L236.43 314.298C229.409 306.354 234.735 294.162 238.536 284.232C244.199 269.347 245.441 253.3 245.062 237.495C244.757 224.818 240.399 212.3 240.651 199.96C241.157 175.62 260.4 151.829 283.086 144.466Z" fill="#0F0C0C"/>
<path d="M462.504 400.237C455.67 415.367 452.54 431.41 458.92 447.973C404.112 470.683 346.654 469.78 286.822 447.981C295.355 432.996 293.12 419.589 287.103 406.241C284.194 399.787 280.394 393.329 276.498 386.708C276.327 386.418 276.156 386.127 275.985 385.836C272.029 379.11 268.006 372.204 264.708 364.911L488.146 358.256C486.406 360.901 484.585 363.598 482.732 366.343C475.544 376.991 467.869 388.36 462.504 400.237Z" fill="#424193" stroke="#424193"/>
<path d="M486.907 367.347L484.951 365.366L488.361 361.908L488.374 361.894L488.387 361.88L510.5 335.71L512.599 337.53L490.392 363.802L486.907 367.347Z" fill="#424193" stroke="#424193"/>
<path d="M247.704 354.171L249.425 352.102L270.773 369.923L269.052 371.992L247.704 354.171Z" fill="#424193" stroke="#424193"/>
<path d="M455.564 449.518L493.74 389.444L496.007 390.89L457.831 450.964L455.564 449.518Z" fill="#424193" stroke="#424193"/>
<path d="M251.001 390.885L253.268 389.44L291.435 449.52L289.168 450.965L251.001 390.885Z" fill="#424193" stroke="#424193"/>
<path d="M167 887L235.928 712.607C235.928 712.607 255.357 671.452 259.983 630.297C262.925 604.133 274.093 568.4 281.837 545.837C286.891 531.086 294.329 517.487 303.782 505.711C323.822 480.771 360.22 440.553 380.26 449.195C408.941 461.542 355.279 507.841 355.279 507.841C355.279 507.841 433.922 541.794 380.26 642.623C326.598 743.452 325.673 724.932 325.673 724.932L299.304 886.979L167 887Z" fill="#CF8C66"/>
<path d="M765.009 269.495L764.543 269.346L764.383 269.809C761.942 276.918 757.373 283.433 751.073 288.767C744.773 294.101 736.942 298.084 728.277 300.353C719.612 302.621 710.391 303.101 701.44 301.751C692.49 300.4 684.096 297.26 677.01 292.62C669.924 287.98 664.371 281.986 660.838 275.183C657.304 268.382 655.897 260.979 656.735 253.635C657.573 246.29 660.632 239.22 665.65 233.058C670.669 226.896 677.49 221.836 685.511 218.338L685.312 217.88L685.697 217.562C662.895 189.917 653.007 156.541 657.799 123.484C662.591 90.4238 681.754 59.8346 711.849 37.2758C741.946 14.7159 780.972 1.6905 821.854 0.57768C862.736 -0.535137 902.743 10.339 934.62 31.2145C966.497 52.0893 988.121 81.5727 995.606 114.302C1003.09 147.027 995.951 180.863 975.463 209.681C954.972 238.504 922.479 260.403 883.859 271.385C845.24 282.366 803.073 281.695 765.009 269.495Z" fill="#C9D1EE" stroke="#36344D"/>
<path d="M662.5 323.5C662.5 335.611 651.796 345.5 638.5 345.5C625.204 345.5 614.5 335.611 614.5 323.5C614.5 311.389 625.204 301.5 638.5 301.5C651.796 301.5 662.5 311.389 662.5 323.5Z" fill="#C9D1EE" stroke="#36344D"/>
<path d="M780 220C823.631 220 859 185.974 859 144C859 102.026 823.631 68 780 68C736.37 68 701 102.026 701 144C701 185.974 736.37 220 780 220Z" fill="#B6B3E3"/>
<path d="M812.729 177.114H747.271C746.075 177.113 744.927 176.655 744.081 175.841C743.234 175.027 742.758 173.923 742.757 172.771V134.771C742.758 133.62 743.234 132.516 744.081 131.702C744.927 130.888 746.075 130.43 747.271 130.429H812.729C813.925 130.43 815.073 130.888 815.919 131.702C816.766 132.516 817.242 133.62 817.243 134.771V172.771C817.242 173.923 816.766 175.027 815.919 175.841C815.073 176.655 813.925 177.113 812.729 177.114ZM747.271 134.771V172.771H812.732L812.729 134.771L747.271 134.771Z" fill="#424193"/>
<path d="M800.314 134.771H759.686V117.4C759.686 104.818 768.229 95.6857 780 95.6857C791.771 95.6857 800.314 104.818 800.314 117.4L800.314 134.771ZM764.2 130.429H795.8V117.4C795.8 107.172 789.303 100.029 780 100.029C770.697 100.029 764.2 107.172 764.2 117.4L764.2 130.429Z" fill="#424193"/>
<path d="M780 157.029C782.493 157.029 784.514 155.084 784.514 152.686C784.514 150.287 782.493 148.343 780 148.343C777.507 148.343 775.486 150.287 775.486 152.686C775.486 155.084 777.507 157.029 780 157.029Z" fill="#424193"/>
<path d="M881.918 159.081C880.549 159.08 879.212 158.661 878.074 157.878C876.936 157.094 876.049 155.981 875.526 154.679C875.003 153.376 874.866 151.944 875.133 150.562C875.401 149.179 876.06 147.91 877.028 146.913C877.996 145.917 879.229 145.238 880.571 144.963C881.914 144.688 883.305 144.828 884.57 145.367C885.835 145.906 886.916 146.819 887.678 147.99C888.439 149.161 888.845 150.539 888.846 151.948C888.849 152.886 888.672 153.814 888.324 154.681C887.977 155.547 887.467 156.335 886.823 156.998C886.179 157.661 885.414 158.186 884.573 158.543C883.731 158.901 882.829 159.084 881.918 159.081V159.081Z" fill="#6C63FF"/>
<path opacity="0.3" d="M881.918 159.081C880.549 159.08 879.212 158.661 878.074 157.878C876.936 157.094 876.049 155.981 875.526 154.679C875.003 153.376 874.866 151.944 875.133 150.562C875.401 149.179 876.06 147.91 877.028 146.913C877.996 145.917 879.229 145.238 880.571 144.963C881.914 144.688 883.305 144.828 884.57 145.367C885.835 145.906 886.916 146.819 887.678 147.99C888.439 149.161 888.845 150.539 888.846 151.948C888.849 152.886 888.672 153.814 888.324 154.681C887.977 155.547 887.467 156.335 886.823 156.998C886.179 157.661 885.414 158.186 884.573 158.543C883.731 158.901 882.829 159.084 881.918 159.081V159.081Z" fill="black"/>
<path d="M916.842 172C914.578 172.013 912.337 171.533 910.266 170.591C909.375 170.183 908.52 169.694 907.713 169.129C906.071 167.959 904.598 166.555 903.338 164.96C903.115 164.686 902.883 164.385 902.583 163.983C902.218 163.48 901.836 162.919 901.424 162.274C900.709 161.136 899.931 160.04 899.095 158.993C898.625 158.372 898.06 157.833 897.422 157.398C896.5 156.855 894.715 156.581 892.115 156.581H891.686V144.674H893.694C895.264 144.674 896.585 144.714 897.735 144.789C898.777 144.843 899.815 144.955 900.845 145.124C901.751 145.241 902.63 145.522 903.441 145.955C904.706 146.736 906.427 148.622 908.7 151.714C908.795 151.847 908.893 151.979 908.992 152.116C909.078 152.244 909.168 152.368 909.262 152.496C910.001 153.567 910.85 154.553 911.793 155.437C912.087 155.696 912.397 155.935 912.72 156.153L912.806 156.21C913.997 156.903 915.351 157.242 916.718 157.191C917.064 157.194 917.409 157.17 917.752 157.12C919.087 156.983 920.327 156.344 921.235 155.327C922.218 154.223 922.795 152.799 922.865 151.303C922.883 151.113 922.887 150.937 922.887 150.756C922.891 150.052 922.81 149.35 922.647 148.667C922.34 147.385 921.649 146.236 920.673 145.381C920.154 144.927 919.582 144.542 918.97 144.232C916.632 143.189 914.152 142.521 911.617 142.254L911.167 142.209L914.067 131H918.867C919.06 131.053 919.253 131.11 919.442 131.172C921.85 131.888 924.118 133.028 926.147 134.542C927.008 135.189 927.808 135.918 928.537 136.72C928.721 136.909 928.901 137.117 929.077 137.325C930.215 138.673 931.172 140.172 931.926 141.781L931.99 141.922C933.358 144.97 934.044 148.295 933.998 151.652C933.998 152.001 933.993 152.412 933.972 152.818C933.89 156.154 933.079 159.429 931.6 162.398C930.929 163.731 930.112 164.981 929.163 166.121C926.629 169.321 922.987 171.382 919.005 171.867C918.287 171.956 917.565 172 916.842 172Z" fill="#6C63FF"/>
<path opacity="0.3" d="M916.842 172C914.578 172.013 912.337 171.533 910.266 170.591C909.375 170.183 908.52 169.694 907.713 169.129C906.071 167.959 904.598 166.555 903.338 164.96C903.115 164.686 902.883 164.385 902.583 163.983C902.218 163.48 901.836 162.919 901.424 162.274C900.709 161.136 899.931 160.04 899.095 158.993C898.625 158.372 898.06 157.833 897.422 157.398C896.5 156.855 894.715 156.581 892.115 156.581H891.686V144.674H893.694C895.264 144.674 896.585 144.714 897.735 144.789C898.777 144.843 899.815 144.955 900.845 145.124C901.751 145.241 902.63 145.522 903.441 145.955C904.706 146.736 906.427 148.622 908.7 151.714C908.795 151.847 908.893 151.979 908.992 152.116C909.078 152.244 909.168 152.368 909.262 152.496C910.001 153.567 910.85 154.553 911.793 155.437C912.087 155.696 912.397 155.935 912.72 156.153L912.806 156.21C913.997 156.903 915.351 157.242 916.718 157.191C917.064 157.194 917.409 157.17 917.752 157.12C919.087 156.983 920.327 156.344 921.235 155.327C922.218 154.223 922.795 152.799 922.865 151.303C922.883 151.113 922.887 150.937 922.887 150.756C922.891 150.052 922.81 149.35 922.647 148.667C922.34 147.385 921.649 146.236 920.673 145.381C920.154 144.927 919.582 144.542 918.97 144.232C916.632 143.189 914.152 142.521 911.617 142.254L911.167 142.209L914.067 131H918.867C919.06 131.053 919.253 131.11 919.442 131.172C921.85 131.888 924.118 133.028 926.147 134.542C927.008 135.189 927.808 135.918 928.537 136.72C928.721 136.909 928.901 137.117 929.077 137.325C930.215 138.673 931.172 140.172 931.926 141.781L931.99 141.922C933.358 144.97 934.044 148.295 933.998 151.652C933.998 152.001 933.993 152.412 933.972 152.818C933.89 156.154 933.079 159.429 931.6 162.398C930.929 163.731 930.112 164.981 929.163 166.121C926.629 169.321 922.987 171.382 919.005 171.867C918.287 171.956 917.565 172 916.842 172Z" fill="black"/>
<path d="M862.451 207.778C861.266 207.093 860.317 206.061 859.723 204.814C859.13 203.566 858.918 202.159 859.116 200.769C859.314 199.38 859.912 198.071 860.835 197.007C861.757 195.944 862.963 195.174 864.299 194.795C865.636 194.416 867.043 194.445 868.344 194.878C869.644 195.311 870.779 196.128 871.605 197.227C872.431 198.327 872.911 199.658 872.984 201.053C873.058 202.448 872.721 203.844 872.017 205.065C871.551 205.878 870.933 206.594 870.199 207.17C869.465 207.747 868.629 208.174 867.74 208.426C866.851 208.678 865.926 208.751 865.018 208.64C864.111 208.528 863.238 208.236 862.451 207.778V207.778Z" fill="#6C63FF"/>
<path opacity="0.3" d="M862.451 207.778C861.266 207.093 860.317 206.061 859.723 204.814C859.13 203.566 858.918 202.159 859.116 200.769C859.314 199.38 859.912 198.071 860.835 197.007C861.757 195.944 862.963 195.174 864.299 194.795C865.636 194.416 867.043 194.445 868.344 194.878C869.644 195.311 870.779 196.128 871.605 197.227C872.431 198.327 872.911 199.658 872.984 201.053C873.058 202.448 872.721 203.844 872.017 205.065C871.551 205.878 870.933 206.594 870.199 207.17C869.465 207.747 868.629 208.174 867.74 208.426C866.851 208.678 865.926 208.751 865.018 208.64C864.111 208.528 863.238 208.236 862.451 207.778V207.778Z" fill="black"/>
<path d="M886.237 236.428C884.269 235.308 882.568 233.771 881.246 231.92C880.678 231.121 880.183 230.27 879.766 229.377C878.929 227.543 878.355 225.591 878.061 223.579C878.005 223.23 877.955 222.854 877.896 222.356C877.832 221.738 877.781 221.061 877.747 220.297C877.697 218.953 877.571 217.615 877.371 216.29C877.274 215.517 877.054 214.768 876.719 214.073C876.192 213.141 874.783 212.011 872.532 210.712L872.16 210.497L878.114 200.185L879.853 201.189C881.212 201.974 882.337 202.669 883.295 203.309C884.17 203.877 885.013 204.493 885.82 205.155C886.547 205.709 887.167 206.392 887.653 207.172C888.358 208.481 888.905 210.975 889.328 214.789C889.344 214.951 889.363 215.115 889.38 215.283C889.39 215.437 889.406 215.589 889.424 215.747C889.528 217.044 889.77 218.322 890.145 219.56C890.27 219.931 890.419 220.292 890.59 220.643L890.635 220.736C891.321 221.931 892.324 222.902 893.533 223.541C893.831 223.717 894.142 223.869 894.464 223.997C895.689 224.545 897.082 224.613 898.377 224.185C899.781 223.721 900.992 222.776 901.801 221.516C901.911 221.36 902.003 221.209 902.093 221.052C902.449 220.445 902.73 219.797 902.93 219.123C903.305 217.86 903.282 216.519 902.864 215.291C902.64 214.638 902.338 214.018 901.963 213.445C900.46 211.372 898.646 209.554 896.585 208.055L896.217 207.791L904.333 199.533L908.49 201.934C908.631 202.076 908.769 202.222 908.902 202.37C910.629 204.194 912.024 206.316 913.024 208.641C913.446 209.632 913.774 210.663 914.004 211.722C914.069 211.978 914.121 212.248 914.17 212.516C914.48 214.253 914.561 216.029 914.409 217.799L914.394 217.954C914.055 221.278 912.986 224.5 911.267 227.384C911.093 227.686 910.884 228.04 910.662 228.381C908.923 231.229 906.584 233.659 903.818 235.491C902.57 236.311 901.238 236.984 899.846 237.497C896.052 239.002 891.867 238.965 888.175 237.394C887.51 237.112 886.862 236.79 886.237 236.428Z" fill="#6C63FF"/>
<path opacity="0.3" d="M886.237 236.428C884.269 235.308 882.568 233.771 881.246 231.92C880.678 231.121 880.183 230.27 879.766 229.377C878.929 227.543 878.355 225.591 878.061 223.579C878.005 223.23 877.955 222.854 877.896 222.356C877.832 221.738 877.781 221.061 877.747 220.297C877.697 218.953 877.571 217.615 877.371 216.29C877.274 215.517 877.054 214.768 876.719 214.073C876.192 213.141 874.783 212.011 872.532 210.712L872.16 210.497L878.114 200.185L879.853 201.189C881.212 201.974 882.337 202.669 883.295 203.309C884.17 203.877 885.013 204.493 885.82 205.155C886.547 205.709 887.167 206.392 887.653 207.172C888.358 208.481 888.905 210.975 889.328 214.789C889.344 214.951 889.363 215.115 889.38 215.283C889.39 215.437 889.406 215.589 889.424 215.747C889.528 217.044 889.77 218.322 890.145 219.56C890.27 219.931 890.419 220.292 890.59 220.643L890.635 220.736C891.321 221.931 892.324 222.902 893.533 223.541C893.831 223.717 894.142 223.869 894.464 223.997C895.689 224.545 897.082 224.613 898.377 224.185C899.781 223.721 900.992 222.776 901.801 221.516C901.911 221.36 902.003 221.209 902.093 221.052C902.449 220.445 902.73 219.797 902.93 219.123C903.305 217.86 903.282 216.519 902.864 215.291C902.64 214.638 902.338 214.018 901.963 213.445C900.46 211.372 898.646 209.554 896.585 208.055L896.217 207.791L904.333 199.533L908.49 201.934C908.631 202.076 908.769 202.222 908.902 202.37C910.629 204.194 912.024 206.316 913.024 208.641C913.446 209.632 913.774 210.663 914.004 211.722C914.069 211.978 914.121 212.248 914.17 212.516C914.48 214.253 914.561 216.029 914.409 217.799L914.394 217.954C914.055 221.278 912.986 224.5 911.267 227.384C911.093 227.686 910.884 228.04 910.662 228.381C908.923 231.229 906.584 233.659 903.818 235.491C902.57 236.311 901.238 236.984 899.846 237.497C896.052 239.002 891.867 238.965 888.175 237.394C887.51 237.112 886.862 236.79 886.237 236.428Z" fill="black"/>
<path d="M880.958 108.947C880.078 109.995 878.897 110.751 877.565 111.119C876.234 111.486 874.811 111.45 873.477 111.014C872.143 110.578 870.958 109.762 870.071 108.668C869.184 107.575 868.635 106.254 868.494 104.872C868.352 103.49 868.625 102.109 869.277 100.904C869.929 99.6985 870.932 98.7229 872.157 98.1003C873.383 97.4778 874.778 97.2361 876.164 97.406C877.551 97.5759 878.867 98.1497 879.948 99.0548C880.667 99.6554 881.265 100.388 881.705 101.211C882.146 102.034 882.421 102.931 882.515 103.851C882.609 104.77 882.52 105.694 882.253 106.568C881.985 107.443 881.546 108.251 880.958 108.947V108.947Z" fill="#6C63FF"/>
<path opacity="0.3" d="M880.958 108.947C880.078 109.995 878.897 110.751 877.565 111.119C876.234 111.486 874.811 111.45 873.477 111.014C872.143 110.578 870.958 109.762 870.071 108.668C869.184 107.575 868.635 106.254 868.494 104.872C868.352 103.49 868.625 102.109 869.277 100.904C869.929 99.6985 870.932 98.7229 872.157 98.1003C873.383 97.4778 874.778 97.2361 876.164 97.406C877.551 97.5759 878.867 98.1497 879.948 99.0548C880.667 99.6554 881.265 100.388 881.705 101.211C882.146 102.034 882.421 102.931 882.515 103.851C882.609 104.77 882.52 105.694 882.253 106.568C881.985 107.443 881.546 108.251 880.958 108.947V108.947Z" fill="black"/>
<path d="M913.303 90.4976C911.858 92.2407 910.05 93.649 907.997 94.6298C907.111 95.0504 906.187 95.3903 905.236 95.6454C903.284 96.1518 901.262 96.378 899.23 96.3174C898.877 96.3123 898.498 96.2967 897.997 96.2683C897.377 96.2241 896.701 96.156 895.943 96.057C894.611 95.8731 893.272 95.7646 891.932 95.732C891.154 95.693 890.378 95.7798 889.635 95.9889C888.626 96.3462 887.269 97.5372 885.598 99.5287L885.322 99.8573L876.201 92.2035L877.491 90.6656C878.5 89.4628 879.38 88.4762 880.177 87.6437C880.888 86.8804 881.641 86.157 882.433 85.4769C883.105 84.8578 883.885 84.3653 884.737 84.0224C886.15 83.5555 888.7 83.45 892.53 83.6955C892.692 83.7084 892.857 83.718 893.025 83.7304C893.179 83.747 893.331 83.7575 893.49 83.7675C894.785 83.8899 896.086 83.8738 897.37 83.7194C897.757 83.6604 898.139 83.5769 898.514 83.4695L898.613 83.4407C899.909 82.9731 901.04 82.154 901.879 81.0739C902.104 80.8111 902.308 80.5311 902.489 80.2365C903.243 79.1251 903.551 77.7651 903.355 76.4154C903.141 74.9526 902.421 73.5959 901.321 72.5803C901.186 72.4451 901.054 72.3283 900.915 72.2118C900.378 71.7564 899.789 71.3672 899.16 71.053C897.981 70.4646 896.657 70.2546 895.374 70.4525C894.693 70.5593 894.03 70.7496 893.4 71.019C891.098 72.1394 888.993 73.6101 887.158 75.3798L886.834 75.6964L880.112 66.2697L883.197 62.5923C883.362 62.4786 883.53 62.3676 883.699 62.2627C885.794 60.8784 888.126 59.8734 890.59 59.2924C891.639 59.0489 892.712 58.9046 893.794 58.8616C894.058 58.8423 894.333 58.8378 894.605 58.8365C896.369 58.8322 898.133 59.0616 899.85 59.5189L899.999 59.5604C903.214 60.4714 906.202 62.0831 908.744 64.2767C909.011 64.501 909.323 64.7683 909.62 65.0459C912.123 67.2532 914.11 69.979 915.434 73.0209C916.024 74.3916 916.456 75.821 916.72 77.2807C917.542 81.2785 916.779 85.3935 914.592 88.7561C914.198 89.3626 913.768 89.9442 913.303 90.4976Z" fill="#6C63FF"/>
<path opacity="0.3" d="M913.303 90.4976C911.858 92.2407 910.05 93.649 907.997 94.6298C907.111 95.0504 906.187 95.3903 905.236 95.6454C903.284 96.1518 901.262 96.378 899.23 96.3174C898.877 96.3123 898.498 96.2967 897.997 96.2683C897.377 96.2241 896.701 96.156 895.943 96.057C894.611 95.8731 893.272 95.7646 891.932 95.732C891.154 95.693 890.378 95.7798 889.635 95.9889C888.626 96.3462 887.269 97.5372 885.598 99.5287L885.322 99.8573L876.201 92.2035L877.491 90.6656C878.5 89.4628 879.38 88.4762 880.177 87.6437C880.888 86.8804 881.641 86.157 882.433 85.4769C883.105 84.8578 883.885 84.3653 884.737 84.0224C886.15 83.5555 888.7 83.45 892.53 83.6955C892.692 83.7084 892.857 83.718 893.025 83.7304C893.179 83.747 893.331 83.7575 893.49 83.7675C894.785 83.8899 896.086 83.8738 897.37 83.7194C897.757 83.6604 898.139 83.5769 898.514 83.4695L898.613 83.4407C899.909 82.9731 901.04 82.154 901.879 81.0739C902.104 80.8111 902.308 80.5311 902.489 80.2365C903.243 79.1251 903.551 77.7651 903.355 76.4154C903.141 74.9526 902.421 73.5959 901.321 72.5803C901.186 72.4451 901.054 72.3283 900.915 72.2118C900.378 71.7564 899.789 71.3672 899.16 71.053C897.981 70.4646 896.657 70.2546 895.374 70.4525C894.693 70.5593 894.03 70.7496 893.4 71.019C891.098 72.1394 888.993 73.6101 887.158 75.3798L886.834 75.6964L880.112 66.2697L883.197 62.5923C883.362 62.4786 883.53 62.3676 883.699 62.2627C885.794 60.8784 888.126 59.8734 890.59 59.2924C891.639 59.0489 892.712 58.9046 893.794 58.8616C894.058 58.8423 894.333 58.8378 894.605 58.8365C896.369 58.8322 898.133 59.0616 899.85 59.5189L899.999 59.5604C903.214 60.4714 906.202 62.0831 908.744 64.2767C909.011 64.501 909.323 64.7683 909.62 65.0459C912.123 67.2532 914.11 69.979 915.434 73.0209C916.024 74.3916 916.456 75.821 916.72 77.2807C917.542 81.2785 916.779 85.3935 914.592 88.7561C914.198 89.3626 913.768 89.9442 913.303 90.4976Z" fill="black"/>
<path d="M830.958 69.9471C830.078 70.995 828.897 71.7507 827.565 72.1186C826.234 72.4865 824.811 72.4501 823.477 72.014C822.143 71.5779 820.958 70.7616 820.071 69.6684C819.184 68.5752 818.635 67.2541 818.494 65.8721C818.352 64.4901 818.625 63.1091 819.277 61.9038C819.929 60.6985 820.932 59.7229 822.157 59.1003C823.383 58.4778 824.778 58.2361 826.164 58.406C827.551 58.5759 828.867 59.1497 829.948 60.0548C830.667 60.6554 831.265 61.3883 831.705 62.2114C832.146 63.0344 832.421 63.9314 832.515 64.8507C832.609 65.77 832.52 66.6935 832.253 67.5682C831.985 68.4428 831.546 69.2512 830.958 69.9471V69.9471Z" fill="#6C63FF"/>
<path opacity="0.3" d="M830.958 69.9471C830.078 70.995 828.897 71.7507 827.565 72.1186C826.234 72.4865 824.811 72.4501 823.477 72.014C822.143 71.5779 820.958 70.7616 820.071 69.6684C819.184 68.5752 818.635 67.2541 818.494 65.8721C818.352 64.4901 818.625 63.1091 819.277 61.9038C819.929 60.6985 820.932 59.7229 822.157 59.1003C823.383 58.4778 824.778 58.2361 826.164 58.406C827.551 58.5759 828.867 59.1497 829.948 60.0548C830.667 60.6554 831.265 61.3883 831.705 62.2114C832.146 63.0344 832.421 63.9314 832.515 64.8507C832.609 65.77 832.52 66.6935 832.253 67.5682C831.985 68.4428 831.546 69.2512 830.958 69.9471V69.9471Z" fill="black"/>
<path d="M863.303 51.4976C861.858 53.2407 860.05 54.649 857.997 55.6298C857.111 56.0504 856.187 56.3903 855.236 56.6454C853.284 57.1518 851.262 57.378 849.23 57.3174C848.877 57.3123 848.498 57.2967 847.997 57.2683C847.377 57.2241 846.701 57.156 845.943 57.057C844.611 56.8731 843.272 56.7646 841.932 56.732C841.154 56.693 840.378 56.7798 839.635 56.9889C838.626 57.3462 837.269 58.5372 835.598 60.5287L835.322 60.8573L826.201 53.2035L827.491 51.6656C828.5 50.4628 829.38 49.4762 830.177 48.6437C830.888 47.8804 831.641 47.157 832.433 46.4769C833.105 45.8578 833.885 45.3653 834.737 45.0224C836.15 44.5555 838.7 44.45 842.53 44.6955C842.692 44.7084 842.857 44.718 843.025 44.7304C843.179 44.747 843.331 44.7575 843.49 44.7675C844.785 44.8899 846.086 44.8738 847.37 44.7194C847.757 44.6604 848.139 44.5769 848.514 44.4695L848.613 44.4407C849.909 43.9731 851.04 43.154 851.879 42.0739C852.104 41.8111 852.308 41.5311 852.489 41.2365C853.243 40.1251 853.551 38.7651 853.355 37.4154C853.141 35.9526 852.421 34.5959 851.321 33.5803C851.186 33.4451 851.054 33.3283 850.915 33.2118C850.378 32.7564 849.789 32.3672 849.16 32.053C847.981 31.4646 846.657 31.2546 845.374 31.4525C844.693 31.5593 844.03 31.7496 843.4 32.019C841.098 33.1394 838.993 34.6101 837.158 36.3798L836.834 36.6964L830.112 27.2697L833.197 23.5923C833.362 23.4786 833.53 23.3676 833.699 23.2627C835.794 21.8784 838.126 20.8734 840.59 20.2924C841.639 20.0489 842.712 19.9046 843.794 19.8616C844.058 19.8423 844.333 19.8378 844.605 19.8365C846.369 19.8322 848.133 20.0616 849.85 20.5189L849.999 20.5604C853.214 21.4714 856.202 23.0831 858.744 25.2767C859.011 25.501 859.323 25.7683 859.62 26.0459C862.123 28.2532 864.11 30.979 865.434 34.0209C866.024 35.3916 866.456 36.821 866.72 38.2807C867.542 42.2785 866.779 46.3935 864.592 49.7561C864.198 50.3626 863.768 50.9442 863.303 51.4976Z" fill="#6C63FF"/>
<path opacity="0.3" d="M863.303 51.4976C861.858 53.2407 860.05 54.649 857.997 55.6298C857.111 56.0504 856.187 56.3903 855.236 56.6454C853.284 57.1518 851.262 57.378 849.23 57.3174C848.877 57.3123 848.498 57.2967 847.997 57.2683C847.377 57.2241 846.701 57.156 845.943 57.057C844.611 56.8731 843.272 56.7646 841.932 56.732C841.154 56.693 840.378 56.7798 839.635 56.9889C838.626 57.3462 837.269 58.5372 835.598 60.5287L835.322 60.8573L826.201 53.2035L827.491 51.6656C828.5 50.4628 829.38 49.4762 830.177 48.6437C830.888 47.8804 831.641 47.157 832.433 46.4769C833.105 45.8578 833.885 45.3653 834.737 45.0224C836.15 44.5555 838.7 44.45 842.53 44.6955C842.692 44.7084 842.857 44.718 843.025 44.7304C843.179 44.747 843.331 44.7575 843.49 44.7675C844.785 44.8899 846.086 44.8738 847.37 44.7194C847.757 44.6604 848.139 44.5769 848.514 44.4695L848.613 44.4407C849.909 43.9731 851.04 43.154 851.879 42.0739C852.104 41.8111 852.308 41.5311 852.489 41.2365C853.243 40.1251 853.551 38.7651 853.355 37.4154C853.141 35.9526 852.421 34.5959 851.321 33.5803C851.186 33.4451 851.054 33.3283 850.915 33.2118C850.378 32.7564 849.789 32.3672 849.16 32.053C847.981 31.4646 846.657 31.2546 845.374 31.4525C844.693 31.5593 844.03 31.7496 843.4 32.019C841.098 33.1394 838.993 34.6101 837.158 36.3798L836.834 36.6964L830.112 27.2697L833.197 23.5923C833.362 23.4786 833.53 23.3676 833.699 23.2627C835.794 21.8784 838.126 20.8734 840.59 20.2924C841.639 20.0489 842.712 19.9046 843.794 19.8616C844.058 19.8423 844.333 19.8378 844.605 19.8365C846.369 19.8322 848.133 20.0616 849.85 20.5189L849.999 20.5604C853.214 21.4714 856.202 23.0831 858.744 25.2767C859.011 25.501 859.323 25.7683 859.62 26.0459C862.123 28.2532 864.11 30.979 865.434 34.0209C866.024 35.3916 866.456 36.821 866.72 38.2807C867.542 42.2785 866.779 46.3935 864.592 49.7561C864.198 50.3626 863.768 50.9442 863.303 51.4976Z" fill="black"/>
<path d="M449.41 418.659L442.026 415.898L434.641 418.659" stroke="black"/>
<path d="M385.921 428.742C385.915 428.742 385.908 428.742 385.897 428.742C385.298 428.742 384.999 428.536 384.999 428.125C384.999 427.927 385.051 427.682 385.155 427.39C385.259 427.098 385.319 426.804 385.335 426.507C385.35 426.205 385.358 425.744 385.358 425.125V423.664L385.374 423.257C385.384 422.986 385.389 422.794 385.389 422.679L385.311 421.875C385.311 421.692 385.473 421.601 385.796 421.601C386.124 421.601 386.46 421.69 386.803 421.867C387.147 422.044 387.358 422.132 387.436 422.132C387.52 422.132 387.673 422.08 387.897 421.976C388.126 421.872 388.395 421.76 388.702 421.64C389.014 421.515 389.335 421.453 389.663 421.453H389.866C390.257 421.453 390.603 421.559 390.905 421.773C391.212 421.981 391.434 422.273 391.569 422.648C391.71 423.018 391.809 423.7 391.866 424.695L391.889 425.125L391.905 425.554C391.921 425.804 391.939 426.075 391.96 426.367C391.981 426.658 392.051 426.966 392.171 427.289C392.29 427.606 392.35 427.82 392.35 427.929C392.35 428.393 391.996 428.625 391.288 428.625C390.986 428.625 390.764 428.565 390.624 428.445C390.483 428.32 390.413 428.111 390.413 427.82L390.428 427.531C390.428 425.505 390.283 424.125 389.991 423.39C389.762 422.822 389.358 422.539 388.78 422.539C388.504 422.539 388.233 422.609 387.968 422.75C387.707 422.885 387.504 423.106 387.358 423.414C387.098 423.96 386.968 425.013 386.968 426.57L387.03 427.984C387.03 428.208 386.923 428.39 386.71 428.531C386.496 428.671 386.233 428.742 385.921 428.742ZM394.702 429H394.507C394.069 429 393.85 428.854 393.85 428.562C393.85 428.541 394.225 427.997 394.975 426.929C395.731 425.856 396.108 425.236 396.108 425.07C396.108 424.903 395.772 424.338 395.1 423.375C394.913 423.104 394.663 422.796 394.35 422.453C394.043 422.104 393.889 421.864 393.889 421.734C393.889 421.437 394.262 421.289 395.007 421.289C395.548 421.289 395.928 421.424 396.147 421.695C396.189 421.747 396.241 421.859 396.303 422.031C396.366 422.197 396.481 422.434 396.647 422.742C397.012 423.408 397.272 423.742 397.428 423.742C397.553 423.742 397.827 423.398 398.249 422.71C398.415 422.44 398.54 422.187 398.624 421.953C398.712 421.718 398.772 421.58 398.803 421.539C398.96 421.335 399.205 421.234 399.538 421.234C400.168 421.234 400.483 421.346 400.483 421.57C400.483 421.7 400.121 422.226 399.397 423.148C398.673 424.07 398.311 424.666 398.311 424.937C398.311 425.203 398.697 425.846 399.468 426.867C399.723 427.205 399.991 427.513 400.272 427.789C400.559 428.065 400.702 428.281 400.702 428.437C400.702 428.729 400.27 428.877 399.405 428.882C398.973 428.882 398.66 428.76 398.468 428.515C398.431 428.468 398.369 428.346 398.28 428.148C398.197 427.95 398.095 427.747 397.975 427.539C397.507 426.731 397.21 426.328 397.085 426.328C396.928 426.328 396.626 426.7 396.178 427.445C396.048 427.664 395.931 427.914 395.827 428.195C395.728 428.471 395.668 428.625 395.647 428.656C395.481 428.885 395.165 429 394.702 429ZM405.272 428.937H404.975C404.225 428.937 403.686 428.614 403.358 427.968C403.087 427.442 402.952 426.578 402.952 425.375C402.952 424.171 402.887 423.346 402.757 422.898C402.71 422.731 402.58 422.541 402.366 422.328C402.152 422.114 402.046 421.929 402.046 421.773V421.671C402.046 421.536 402.168 421.388 402.413 421.226C402.658 421.065 402.798 420.95 402.835 420.882C402.876 420.809 402.955 420.557 403.069 420.125C403.189 419.687 403.311 419.382 403.436 419.21C403.567 419.033 403.738 418.945 403.952 418.945C404.171 418.945 404.324 419.007 404.413 419.132C404.507 419.257 404.598 419.515 404.686 419.906C404.78 420.296 404.882 420.562 404.991 420.703C405.1 420.838 405.366 420.981 405.788 421.132C406.21 421.283 406.421 421.471 406.421 421.695C406.421 421.893 406.199 422.07 405.757 422.226C405.319 422.382 405.043 422.575 404.928 422.804C404.71 423.247 404.6 424.031 404.6 425.156C404.6 426.281 404.697 426.971 404.889 427.226C405.082 427.476 405.395 427.63 405.827 427.687C406.264 427.744 406.483 427.908 406.483 428.179C406.483 428.388 406.358 428.567 406.108 428.718C405.863 428.864 405.585 428.937 405.272 428.937ZM408.382 425.164C408.152 425.164 408.038 425.031 408.038 424.765V424.585C408.038 424.236 408.119 424.036 408.28 423.984C408.442 423.927 409.186 423.898 410.514 423.898L412.046 423.875H412.335C412.637 423.875 412.788 424.01 412.788 424.281V424.453C412.777 424.526 412.772 424.583 412.772 424.625C412.772 424.885 412.673 425.039 412.475 425.085C412.283 425.127 411.559 425.148 410.303 425.148H409.952L409.78 425.156H409.428L409.194 425.164H408.382ZM419.428 423.726C419.428 423.268 419.314 422.895 419.085 422.609C418.861 422.322 418.488 422.179 417.968 422.179H417.897L417.819 422.187C417.277 422.187 416.83 422.445 416.475 422.96C416.126 423.471 415.952 424.177 415.952 425.078V425.437C415.952 426.244 416.111 426.867 416.428 427.304C416.751 427.742 417.147 427.96 417.616 427.96H417.686C418.233 427.96 418.658 427.77 418.96 427.39C419.262 427.01 419.413 426.466 419.413 425.757C419.423 425.643 419.428 425.559 419.428 425.507L419.452 425.015V424.125L419.436 423.882C419.431 423.83 419.428 423.778 419.428 423.726ZM418.077 421.234C418.65 421.234 418.994 421.164 419.108 421.023C419.285 420.804 419.374 420.338 419.374 419.625C419.374 419.411 419.35 419.192 419.303 418.968C419.257 418.739 419.233 418.588 419.233 418.515C419.233 418.281 419.322 418.083 419.499 417.921C419.676 417.76 419.934 417.679 420.272 417.679H420.421C420.832 417.679 421.069 417.864 421.132 418.234C421.178 418.5 421.202 419.96 421.202 422.617L421.186 423.554V424.859L421.202 425.578C421.202 425.697 421.202 425.817 421.202 425.937L421.21 426.109C421.215 426.223 421.218 426.432 421.218 426.734C421.218 427.031 421.259 427.322 421.343 427.609C421.431 427.89 421.475 428.088 421.475 428.203C421.475 428.317 421.41 428.429 421.28 428.539C421.15 428.648 420.957 428.703 420.702 428.703C420.452 428.703 420.194 428.669 419.928 428.601C419.668 428.528 419.488 428.492 419.389 428.492C419.29 428.492 419.02 428.567 418.577 428.718C418.139 428.869 417.757 428.945 417.428 428.945H417.257C416.371 428.945 415.681 428.645 415.186 428.046C414.697 427.442 414.452 426.653 414.452 425.679V425.281C414.452 424.77 414.533 424.26 414.694 423.75C414.861 423.234 415.1 422.786 415.413 422.406C416.064 421.625 416.952 421.234 418.077 421.234ZM426.577 428.062H426.733C427.259 428.062 427.692 427.83 428.03 427.367C428.369 426.903 428.538 426.317 428.538 425.609L428.553 425.437L428.561 425.171V424.82C428.561 424.044 428.402 423.406 428.085 422.906C427.772 422.401 427.353 422.148 426.827 422.148H426.671C426.155 422.148 425.72 422.403 425.366 422.914C425.017 423.424 424.843 424.101 424.843 424.945V425.476C424.853 425.601 424.858 425.687 424.858 425.734C424.858 426.328 425.022 426.864 425.35 427.343C425.678 427.822 426.087 428.062 426.577 428.062ZM430.327 424.929V425.187C430.327 425.651 430.251 426.127 430.1 426.617C429.793 427.611 429.189 428.325 428.288 428.757C427.767 429.007 427.251 429.132 426.741 429.132H426.475C425.991 429.132 425.54 429.033 425.124 428.835C424.296 428.44 423.746 427.783 423.475 426.867C423.33 426.382 423.257 425.89 423.257 425.39V424.992C423.257 424.502 423.332 424.013 423.483 423.523C423.78 422.554 424.369 421.861 425.249 421.445C425.702 421.226 426.165 421.117 426.639 421.117H427.03C427.478 421.117 427.921 421.213 428.358 421.406C429.233 421.791 429.822 422.479 430.124 423.468C430.259 423.906 430.327 424.393 430.327 424.929ZM435.139 428.062H435.296C435.822 428.062 436.254 427.83 436.593 427.367C436.931 426.903 437.1 426.317 437.1 425.609L437.116 425.437L437.124 425.171V424.82C437.124 424.044 436.965 423.406 436.647 422.906C436.335 422.401 435.915 422.148 435.389 422.148H435.233C434.718 422.148 434.283 422.403 433.928 422.914C433.58 423.424 433.405 424.101 433.405 424.945V425.476C433.415 425.601 433.421 425.687 433.421 425.734C433.421 426.328 433.585 426.864 433.913 427.343C434.241 427.822 434.65 428.062 435.139 428.062ZM438.889 424.929V425.187C438.889 425.651 438.814 426.127 438.663 426.617C438.356 427.611 437.751 428.325 436.85 428.757C436.33 429.007 435.814 429.132 435.303 429.132H435.038C434.553 429.132 434.103 429.033 433.686 428.835C432.858 428.44 432.309 427.783 432.038 426.867C431.892 426.382 431.819 425.89 431.819 425.39V424.992C431.819 424.502 431.895 424.013 432.046 423.523C432.343 422.554 432.931 421.861 433.811 421.445C434.264 421.226 434.728 421.117 435.202 421.117H435.593C436.04 421.117 436.483 421.213 436.921 421.406C437.796 421.791 438.384 422.479 438.686 423.468C438.822 423.906 438.889 424.393 438.889 424.929ZM444.311 422.796C443.822 422.796 443.442 423.041 443.171 423.531C442.9 424.015 442.764 424.757 442.764 425.757C442.764 426.2 442.783 426.515 442.819 426.703C442.856 426.885 442.91 427.114 442.983 427.39C443.061 427.661 443.1 427.898 443.1 428.101C443.1 428.299 442.981 428.481 442.741 428.648C442.501 428.815 442.189 428.898 441.803 428.898L441.671 428.89H441.53C441.28 428.89 441.072 428.82 440.905 428.679C440.744 428.539 440.663 428.38 440.663 428.203V428.078C440.663 428.041 440.712 427.869 440.811 427.562C440.91 427.255 440.968 426.958 440.983 426.671C440.999 426.385 441.007 426 441.007 425.515V424.648L440.999 424.507C440.999 424.414 440.999 424.32 440.999 424.226L440.983 423.804C440.978 423.71 440.975 423.528 440.975 423.257C440.975 422.981 440.926 422.721 440.827 422.476C440.733 422.226 440.686 422.065 440.686 421.992C440.686 421.679 440.96 421.523 441.507 421.523C442.053 421.523 442.449 421.671 442.694 421.968C442.767 422.057 442.843 422.101 442.921 422.101C443.004 422.101 443.139 422.036 443.327 421.906C443.848 421.552 444.285 421.375 444.639 421.375H444.764C445.077 421.375 445.314 421.445 445.475 421.585C445.642 421.726 445.725 421.914 445.725 422.148C445.725 422.611 445.468 422.843 444.952 422.843C444.749 422.812 444.535 422.796 444.311 422.796Z" fill="black"/>
<path d="M446.599 424.606C445.431 424.763 444.525 425.103 443.571 425.746C442.856 426.227 442.434 426.627 441.958 427.265C441.568 427.794 441.298 428.281 441.123 428.783L440.98 429.173L436.64 429.189L432.293 429.205L431.657 429.351C430.314 429.665 430.632 429.47 422.231 435.177L414.466 440.445L414.14 440.905C413.361 441.98 413.457 443.234 414.378 444.207C414.879 444.731 424.798 451.426 425.498 451.713C426.928 452.291 428.645 452.329 430.187 451.815L430.863 451.594L438.612 446.314C444.43 442.358 446.432 440.964 446.631 440.732C446.774 440.559 447.005 440.207 447.148 439.948L447.394 439.472L447.418 435.527C447.442 431.723 447.434 431.572 447.283 431.231C447.06 430.745 446.639 430.286 446.107 429.945C445.614 429.637 444.533 429.232 444.422 429.318C444.247 429.448 444.151 430.237 444.104 431.907L444.056 433.69L443.826 433.976C443.555 434.301 443.15 434.576 442.649 434.755C442.363 434.857 442.189 434.879 441.553 434.879C440.917 434.879 440.742 434.857 440.456 434.755C439.956 434.576 439.55 434.301 439.28 433.976C439.073 433.717 439.05 433.641 439.05 433.177C439.05 432.62 439.153 432.42 439.622 432.042C439.86 431.847 440.48 431.556 440.655 431.556C440.735 431.556 440.758 431.756 440.758 432.48V433.404L440.989 433.56C441.315 433.776 441.792 433.782 442.109 433.566L442.332 433.414L442.372 431.685C442.419 429.858 442.491 429.41 442.904 428.588C443.675 427.032 445.138 425.957 446.799 425.713C448.579 425.454 450.471 426.265 451.56 427.756C453.34 430.182 452.752 433.565 450.257 435.203C449.986 435.381 449.637 435.575 449.478 435.635L449.184 435.743V436.349C449.184 436.76 449.215 436.96 449.271 436.96C449.462 436.96 450.463 436.56 450.948 436.29C454.278 434.42 455.248 430.297 453.054 427.314C452.371 426.373 451.226 425.492 450.129 425.055C449.08 424.639 447.712 424.46 446.599 424.606Z" fill="#9063CA"/>
<path d="M422.726 445.152C422.54 445.018 422.344 444.944 422.137 444.93C421.932 444.915 421.727 444.987 421.521 445.146L421.493 445.168L421.466 445.194C421.251 445.36 421.179 445.572 421.248 445.832C421.317 446.088 421.534 446.348 421.899 446.612L422.045 446.717C422.372 446.953 422.687 447.087 422.99 447.118C423.295 447.147 423.54 447.09 423.725 446.946L423.753 446.925C423.969 446.757 424.06 446.572 424.025 446.368C423.991 446.164 423.83 445.959 423.543 445.751C423.5 445.714 423.469 445.688 423.448 445.673L423.257 445.522L422.896 445.261L422.792 445.195C422.769 445.181 422.747 445.167 422.726 445.152ZM421.181 444.836C421.408 444.66 421.515 444.535 421.503 444.458C421.485 444.34 421.331 444.177 421.042 443.968C420.955 443.905 420.857 443.848 420.748 443.797C420.636 443.744 420.566 443.707 420.536 443.686C420.441 443.617 420.396 443.532 420.401 443.431C420.405 443.329 420.474 443.227 420.608 443.123L420.667 443.078C420.83 442.952 420.998 442.933 421.173 443.022C421.299 443.086 421.9 443.506 422.977 444.284L423.351 444.563L423.88 444.945L424.177 445.151C424.226 445.186 424.274 445.221 424.323 445.256L424.395 445.304C424.444 445.336 424.529 445.396 424.652 445.485C424.772 445.571 424.907 445.644 425.056 445.702C425.205 445.758 425.303 445.802 425.349 445.836C425.396 445.869 425.415 445.922 425.408 445.994C425.401 446.066 425.347 446.141 425.246 446.219C425.147 446.295 425.032 446.364 424.899 446.426C424.767 446.484 424.681 446.529 424.642 446.559C424.603 446.589 424.526 446.694 424.412 446.874C424.301 447.052 424.18 447.192 424.05 447.292L423.982 447.345C423.632 447.616 423.238 447.739 422.8 447.716C422.361 447.689 421.945 447.532 421.55 447.247L421.389 447.131C421.182 446.981 421.007 446.807 420.864 446.608C420.721 446.406 420.634 446.202 420.603 445.995C420.544 445.567 420.736 445.18 421.181 444.836ZM426.052 442.964C426.192 442.856 426.268 442.763 426.282 442.686C426.295 442.61 426.273 442.551 426.216 442.51L426.083 442.413C425.931 442.304 425.751 442.255 425.543 442.268C425.334 442.281 425.165 442.338 425.036 442.438L424.955 442.5C424.768 442.645 424.686 442.831 424.708 443.057C424.729 443.281 424.835 443.463 425.027 443.601L425.081 443.64C425.155 443.694 425.258 443.669 425.389 443.567L425.46 443.512L425.476 443.496L425.691 443.305L425.833 443.176L425.926 443.085C425.942 443.07 425.963 443.048 425.99 443.021C426.019 442.993 426.039 442.974 426.052 442.964ZM427.831 444.439L427.696 444.544C427.284 444.863 426.811 445.016 426.277 445.003C426.039 444.998 425.792 444.949 425.536 444.857C425.278 444.763 425.053 444.646 424.861 444.507L424.718 444.405C424.526 444.266 424.364 444.09 424.231 443.877C423.969 443.463 423.945 443.063 424.158 442.677C424.265 442.477 424.422 442.297 424.63 442.136L424.698 442.083C424.986 441.86 425.314 441.741 425.681 441.725C425.891 441.717 426.096 441.745 426.295 441.808C426.494 441.869 426.652 441.941 426.768 442.025C427.023 442.21 427.112 442.391 427.034 442.568C426.979 442.689 426.784 442.915 426.447 443.245C426.113 443.574 425.933 443.756 425.906 443.793C425.773 443.965 425.766 444.094 425.884 444.179C426.089 444.327 426.352 444.38 426.672 444.337C426.907 444.306 427.15 444.195 427.399 444.002C427.493 443.928 427.616 443.787 427.767 443.579C427.918 443.37 428.003 443.258 428.024 443.242C428.131 443.159 428.234 443.154 428.333 443.225C428.458 443.315 428.466 443.494 428.358 443.761C428.25 444.025 428.074 444.251 427.831 444.439ZM430.189 441.954L430.285 441.88C430.476 441.731 430.561 441.54 430.538 441.304C430.525 441.175 430.392 441.019 430.139 440.836L430.101 440.804L430.022 440.747C429.864 440.632 429.721 440.625 429.593 440.723L429.494 440.8L429.346 440.934L429.272 441.005C429.083 441.152 428.982 441.312 428.971 441.485C428.957 441.657 429.025 441.797 429.175 441.905L429.286 441.985C429.4 442.068 429.542 442.112 429.713 442.119C429.884 442.122 430.043 442.067 430.189 441.954ZM431.904 440.853C432.045 440.955 431.977 441.114 431.699 441.329C431.65 441.368 431.534 441.42 431.351 441.485C431.169 441.547 431.06 441.592 431.025 441.619C430.992 441.645 430.918 441.758 430.802 441.958C430.685 442.156 430.554 442.311 430.41 442.423L430.339 442.478C430.114 442.652 429.846 442.748 429.533 442.765C429.219 442.781 428.93 442.695 428.669 442.506C428.137 442.122 428.134 441.628 428.66 441.025C428.999 440.632 429.173 440.428 429.181 440.412C429.229 440.296 429.185 440.188 429.047 440.089C428.908 439.988 428.749 439.938 428.569 439.938C428.39 439.935 428.226 439.99 428.078 440.105C427.932 440.218 427.811 440.39 427.714 440.619C427.616 440.847 427.53 440.99 427.456 441.047C427.322 441.151 427.161 441.135 426.973 440.999C426.855 440.914 426.848 440.751 426.952 440.513C427.059 440.272 427.247 440.047 427.517 439.838L427.671 439.719C427.873 439.563 428.091 439.452 428.326 439.387C428.56 439.322 428.785 439.306 429 439.339C429.306 439.383 429.794 439.648 430.465 440.133C430.845 440.408 431.089 440.573 431.196 440.629C431.305 440.683 431.435 440.723 431.586 440.749C431.734 440.773 431.84 440.808 431.904 440.853ZM428.553 437.268C428.386 437.147 428.436 436.983 428.704 436.776L428.76 436.733C428.951 436.585 429.141 436.56 429.328 436.658L430.015 437.154L430.246 437.331L430.363 437.415L430.715 437.683L430.832 437.768L430.893 437.816C430.933 437.845 430.973 437.874 431.013 437.903L431.07 437.949C431.11 437.978 431.15 438.007 431.19 438.036L431.247 438.082L431.545 438.297L431.96 438.582C432 438.608 432.097 438.677 432.251 438.788C432.405 438.899 432.589 439.003 432.803 439.099C433.018 439.192 433.207 439.252 433.373 439.279C433.536 439.305 433.653 439.343 433.725 439.395C433.797 439.447 433.817 439.526 433.785 439.633C433.756 439.738 433.661 439.853 433.5 439.977L433.392 440.061C433.102 440.286 432.838 440.313 432.602 440.142C432.585 440.13 432.538 440.084 432.462 440.004C432.386 439.924 432.225 439.794 431.98 439.614L431.242 439.053L431.185 439.007C431.144 438.978 431.104 438.949 431.064 438.92L430.947 438.831C430.907 438.802 430.867 438.773 430.827 438.744L430.77 438.698C430.73 438.669 430.689 438.64 430.649 438.611L430.532 438.522C430.492 438.493 430.452 438.464 430.412 438.435L430.294 438.346L430.171 438.256L430.054 438.167L429.458 437.737C429.218 437.563 429.016 437.448 428.852 437.391C428.688 437.335 428.589 437.294 428.553 437.268ZM433.232 437.615C432.895 437.637 432.599 437.556 432.346 437.373C432.091 437.188 431.989 436.956 432.04 436.676C432.09 436.394 432.278 436.126 432.606 435.873C432.933 435.619 433.213 435.464 433.445 435.407C433.676 435.349 433.857 435.367 433.988 435.461C434.167 435.591 434.2 435.7 434.087 435.787C434.048 435.818 433.9 435.867 433.645 435.935C433.39 436.003 433.183 436.099 433.024 436.222C432.866 436.344 432.783 436.464 432.777 436.579C432.773 436.693 432.828 436.792 432.945 436.876C433.061 436.96 433.24 436.976 433.483 436.923C433.566 436.906 433.807 436.83 434.205 436.696C434.603 436.558 434.912 436.482 435.131 436.467C435.472 436.446 435.773 436.529 436.033 436.717C436.292 436.904 436.405 437.144 436.37 437.436C436.335 437.726 436.151 437.999 435.817 438.258C435.251 438.696 434.787 438.887 434.426 438.829C434.311 438.81 434.226 438.781 434.171 438.742C433.987 438.609 433.951 438.5 434.062 438.414C434.095 438.388 434.272 438.336 434.594 438.257C434.916 438.175 435.158 438.071 435.321 437.945C435.486 437.818 435.58 437.692 435.603 437.566C435.625 437.441 435.576 437.334 435.453 437.246C435.329 437.156 435.14 437.132 434.886 437.173C434.782 437.191 434.534 437.266 434.142 437.399C433.748 437.53 433.445 437.602 433.232 437.615Z" fill="#424193"/>
<path opacity="0.03" d="M511 541.361L488.623 732.055L368.905 766C368.905 766 213.383 740.042 253.662 665.162C282.316 611.898 281.522 516.71 278.68 466.192C277.561 445.685 276.039 432.536 276.039 432.536C276.039 432.536 479.672 273.791 462.889 416.561C459.644 444.207 459.454 465.822 461.255 482.715C468.808 553.042 511 541.361 511 541.361Z" fill="black"/>
<defs>
<linearGradient id="paint0_linear" x1="476" y1="12" x2="476" y2="875" gradientUnits="userSpaceOnUse">
<stop stop-color="#C0C2E8"/>
<stop offset="0.296875" stop-color="#C3BBE3" stop-opacity="0.24"/>
<stop offset="1" stop-color="#899FEA" stop-opacity="0"/>
</linearGradient>
</defs>
</svg>
