<svg width="1334" height="672" viewBox="0 0 1334 672" fill="none" xmlns="http://www.w3.org/2000/svg">
<rect width="1334" height="672" fill="white"/>
<path fill-rule="evenodd" clip-rule="evenodd" d="M0 554L55.5833 569.733C111.167 585.467 222.333 616.933 333.5 624.8C444.667 632.667 555.833 616.933 667 616.933C778.167 616.933 889.333 632.667 1000.5 626.767C1111.67 620.867 1222.83 593.333 1278.42 579.567L1334 565.8V672H1278.42C1222.83 672 1111.67 672 1000.5 672C889.333 672 778.167 672 667 672C555.833 672 444.667 672 333.5 672C222.333 672 111.167 672 55.5833 672H0V554Z" fill="url(#paint0_linear)"/>
<path fill-rule="evenodd" clip-rule="evenodd" d="M0 130L55.5833 112.667C111.167 95.3333 222.333 60.6667 333.5 52C444.667 43.3333 555.833 60.6667 667 60.6667C778.167 60.6667 889.333 43.3333 1000.5 49.8333C1111.67 56.3333 1222.83 86.6667 1278.42 101.833L1334 117V0H1278.42C1222.83 0 1111.67 0 1000.5 0C889.333 0 778.167 0 667 0C555.833 0 444.667 0 333.5 0C222.333 0 111.167 0 55.5833 0H0V130Z" fill="url(#paint1_linear)"/>
<defs>
<linearGradient id="paint0_linear" x1="667" y1="672" x2="667" y2="554" gradientUnits="userSpaceOnUse">
<stop stop-color="#EE74F0" stop-opacity="0.49"/>
<stop offset="1" stop-color="#BFE0F5" stop-opacity="0.48"/>
<stop offset="1" stop-color="#BB6DD7" stop-opacity="0.56"/>
</linearGradient>
<linearGradient id="paint1_linear" x1="667" y1="0" x2="667" y2="130" gradientUnits="userSpaceOnUse">
<stop stop-color="#EE74F0" stop-opacity="0.49"/>
<stop offset="1" stop-color="#BFE0F5" stop-opacity="0.48"/>
<stop offset="1" stop-color="#BB6DD7" stop-opacity="0.56"/>
</linearGradient>
</defs>
</svg>
