<svg width="598" height="417" viewBox="0 0 598 417" fill="none" xmlns="http://www.w3.org/2000/svg">
<path d="M579.209 416.721H18.7911C13.8074 416.721 9.0278 414.741 5.50378 411.217C1.97977 407.693 0 402.913 0 397.93C203.151 374.32 402.485 374.32 598 397.93C598 402.913 596.02 407.693 592.496 411.217C588.972 414.741 584.193 416.721 579.209 416.721Z" fill="#2F2E41"/>
<path d="M598 399.035L0 397.93L69.3061 281.314L69.6377 280.762V23.7542C69.6374 20.6347 70.2517 17.5457 71.4454 14.6635C72.639 11.7814 74.3887 9.16269 76.5946 6.95686C78.8004 4.75103 81.4191 3.00131 84.3012 1.80765C87.1833 0.613981 90.2724 -0.000259973 93.3919 8.25418e-08H501.292C504.412 -0.000259973 507.501 0.613981 510.383 1.80765C513.265 3.00131 515.883 4.75103 518.089 6.95686C520.295 9.16269 522.045 11.7814 523.239 14.6635C524.432 17.5457 525.046 20.6347 525.046 23.7542V282.53L598 399.035Z" fill="#3F3D56"/>
<path d="M92.8503 16.5804C90.7989 16.5827 88.8322 17.3986 87.3816 18.8492C85.931 20.2998 85.1151 22.2665 85.1128 24.3179V258.654C85.1152 260.706 85.9311 262.672 87.3817 264.123C88.8322 265.573 90.7989 266.389 92.8503 266.392H505.15C507.201 266.389 509.168 265.573 510.618 264.123C512.069 262.672 512.885 260.706 512.887 258.654V24.3179C512.885 22.2665 512.069 20.2999 510.618 18.8493C509.168 17.3988 507.201 16.5828 505.15 16.5804H92.8503Z" fill="white"/>
<path d="M94.578 297.342C93.944 297.343 93.3236 297.525 92.7899 297.867C92.2561 298.209 91.8312 298.697 91.5652 299.272L70.2098 345.697C69.9773 346.202 69.8757 346.758 69.9141 347.313C69.9526 347.867 70.13 348.404 70.43 348.872C70.73 349.34 71.1429 349.726 71.6308 349.992C72.1187 350.259 72.6659 350.399 73.222 350.399H522.314C522.879 350.399 523.435 350.255 523.929 349.979C524.423 349.704 524.838 349.307 525.135 348.826C525.432 348.346 525.601 347.797 525.626 347.232C525.652 346.667 525.532 346.106 525.279 345.6L502.067 299.175C501.793 298.623 501.37 298.159 500.846 297.835C500.322 297.511 499.718 297.34 499.102 297.342H94.578Z" fill="#2F2E41"/>
<path d="M297.342 12.7116C300.089 12.7116 302.316 10.4846 302.316 7.73751C302.316 4.99038 300.089 2.7634 297.342 2.7634C294.595 2.7634 292.368 4.99038 292.368 7.73751C292.368 10.4846 294.595 12.7116 297.342 12.7116Z" fill="white"/>
<path d="M253.2 359.242C252.471 359.243 251.763 359.484 251.184 359.927C250.605 360.371 250.189 360.992 249.998 361.696L244.641 381.592C244.509 382.084 244.491 382.599 244.59 383.098C244.689 383.598 244.901 384.068 245.211 384.472C245.521 384.876 245.919 385.203 246.375 385.428C246.832 385.654 247.334 385.771 247.843 385.771H349.717C350.246 385.771 350.767 385.644 351.237 385.402C351.706 385.16 352.112 384.809 352.418 384.378C352.725 383.947 352.924 383.45 352.999 382.926C353.074 382.403 353.023 381.869 352.85 381.37L345.963 361.473C345.737 360.822 345.314 360.257 344.752 359.857C344.191 359.457 343.519 359.242 342.829 359.242H253.2Z" fill="#2F2E41"/>
<path d="M525.046 276.893V281.314H69.306L69.649 280.762V276.893H525.046Z" fill="#2F2E41"/>
<path d="M298.549 50.2101L404.839 119.553C404.802 119.568 404.766 119.588 404.732 119.611C404.627 119.684 404.537 119.794 404.49 119.934C404.463 120.015 404.452 120.101 404.457 120.185L298.147 50.8291L298.549 50.2101ZM298.549 50.2101C298.536 50.2019 298.523 50.1938 298.511 50.1858C298.51 50.1855 298.51 50.1852 298.509 50.185C298.063 49.9059 297.538 49.757 297 49.7578C296.463 49.7587 295.938 49.9091 295.493 50.1896C295.492 50.1899 295.492 50.1902 295.491 50.1904C295.479 50.1985 295.466 50.2066 295.453 50.2149M298.549 50.2101L298.146 50.8282L298.108 50.8035C297.783 50.5926 297.397 50.4798 297.001 50.4805C297.001 50.4805 297.001 50.4805 297.001 50.4805C296.606 50.4811 296.221 50.5951 295.897 50.807L295.859 50.8319L295.453 50.2149M295.453 50.2149L189.931 119.552C190.026 119.592 190.116 119.658 190.186 119.752C190.276 119.872 190.324 120.025 190.315 120.183L295.857 50.8328L295.453 50.2149ZM404.889 120.463C404.879 120.458 404.87 120.453 404.86 120.448L404.868 120.412L404.912 120.218L404.941 120.086L404.97 119.957L405.032 119.678L404.889 120.463ZM189.518 119.823L189.701 120.101L189.518 119.823L189.518 119.823Z" fill="#3F3D56" stroke="#978383" stroke-width="2"/>
<path d="M250.291 169.529L197.597 123.068L297.089 53.9954L397.156 127.851L302.159 180.605L250.291 169.529Z" fill="#E6E6E6" stroke="#978383" stroke-width="2"/>
<path d="M204.297 213.824L204.296 213.824C204.112 213.824 203.931 213.79 203.764 213.726C203.597 213.661 203.449 213.568 203.328 213.454C203.207 213.341 203.114 213.21 203.052 213.07C202.991 212.931 202.96 212.784 202.96 212.637C202.96 212.491 202.991 212.344 203.052 212.205C203.114 212.065 203.207 211.934 203.328 211.821C203.449 211.707 203.597 211.614 203.764 211.549C203.931 211.484 204.112 211.451 204.296 211.451H204.297L254.257 211.451L254.258 211.451C254.442 211.451 254.623 211.484 254.79 211.549C254.957 211.614 255.104 211.707 255.226 211.821C255.347 211.934 255.439 212.065 255.501 212.205C255.563 212.344 255.594 212.491 255.594 212.637C255.594 212.784 255.563 212.931 255.501 213.07C255.439 213.21 255.347 213.341 255.226 213.454C255.104 213.568 254.957 213.661 254.79 213.726C254.623 213.79 254.442 213.824 254.258 213.824L254.257 214.824V213.824L204.297 213.824Z" fill="#6C63FF" stroke="#978383" stroke-width="2"/>
<path d="M222.223 204.423H222.221L204.297 204.423L204.296 204.423C204.112 204.424 203.931 204.39 203.764 204.325C203.597 204.26 203.449 204.167 203.328 204.054C203.207 203.94 203.114 203.809 203.052 203.669C202.991 203.53 202.96 203.383 202.96 203.237C202.96 203.09 202.991 202.944 203.052 202.804C203.114 202.665 203.207 202.533 203.328 202.42C203.449 202.306 203.597 202.213 203.764 202.149C203.931 202.084 204.112 202.05 204.296 202.05H204.297L222.221 202.05L222.223 202.05C222.407 202.05 222.588 202.084 222.755 202.149C222.922 202.213 223.069 202.306 223.191 202.42C223.312 202.534 223.404 202.665 223.466 202.804C223.528 202.943 223.558 203.09 223.558 203.237C223.558 203.383 223.528 203.53 223.466 203.669C223.404 203.809 223.312 203.94 223.191 204.054C223.069 204.167 222.922 204.26 222.755 204.325C222.588 204.39 222.407 204.424 222.223 204.423ZM222.221 205.423H204.297C203.99 205.424 203.686 205.367 203.403 205.258C203.119 205.148 202.862 204.987 202.645 204.784C202.428 204.581 202.255 204.34 202.138 204.074C202.021 203.809 201.96 203.524 201.96 203.237C201.96 202.949 202.021 202.665 202.138 202.399C202.255 202.134 202.428 201.893 202.645 201.69C202.862 201.487 203.119 201.326 203.403 201.216C203.686 201.106 203.99 201.05 204.297 201.05H222.221C222.528 201.05 222.832 201.106 223.116 201.216C223.399 201.326 223.657 201.487 223.874 201.69C224.091 201.893 224.263 202.134 224.381 202.399C224.498 202.665 224.558 202.949 224.558 203.237C224.558 203.524 224.498 203.809 224.381 204.074C224.263 204.34 224.091 204.581 223.874 204.784C223.657 204.987 223.399 205.148 223.116 205.258C222.832 205.367 222.528 205.424 222.221 205.423Z" fill="#6C63FF" stroke="#978383" stroke-width="2"/>
<path d="M298.527 161.079L298.529 161.079C298.796 161.079 299.059 161.03 299.301 160.934C299.302 160.934 299.303 160.934 299.303 160.934L359.105 137.01L359.105 61.7536L359.105 61.7524M298.527 161.079L357.404 59.2215C358.12 59.2223 358.807 59.4892 359.313 59.9636C359.82 60.4381 360.105 61.0814 360.105 61.7524H359.105M298.527 161.079C298.27 161.079 298.016 161.033 297.78 160.943C297.78 160.942 297.779 160.942 297.779 160.942L236.053 136.95V61.7531C236.053 61.3689 236.216 60.9863 236.529 60.6935C236.844 60.3985 237.284 60.2221 237.755 60.2215H357.403M298.527 161.079L357.403 60.2215M359.105 61.7524C359.105 61.3684 358.942 60.9861 358.629 60.6935C358.315 60.3985 357.875 60.2221 357.403 60.2215M359.105 61.7524L357.403 60.2215" fill="white" stroke="#978383" stroke-width="2"/>
<mask id="path-13-inside-1" fill="white">
<path d="M298.528 162.26C298.124 162.26 297.722 162.187 297.348 162.043L234.86 137.755V61.7524C234.861 61.0335 235.166 60.3442 235.709 59.8358C236.251 59.3275 236.987 59.0415 237.754 59.0407H357.404C358.171 59.0415 358.907 59.3275 359.45 59.8358C359.992 60.3442 360.297 61.0335 360.298 61.7524V137.806L299.745 162.03C299.36 162.182 298.946 162.26 298.528 162.26V162.26ZM235.632 137.272L297.642 161.375C298.22 161.595 298.868 161.591 299.444 161.365L359.526 137.329V61.7524C359.526 61.2252 359.302 60.7197 358.904 60.347C358.506 59.9742 357.966 59.7645 357.404 59.7638H237.754C237.192 59.7645 236.652 59.9742 236.254 60.347C235.856 60.7197 235.632 61.2252 235.632 61.7524L235.632 137.272Z"/>
</mask>
<path d="M298.528 162.26C298.124 162.26 297.722 162.187 297.348 162.043L234.86 137.755V61.7524C234.861 61.0335 235.166 60.3442 235.709 59.8358C236.251 59.3275 236.987 59.0415 237.754 59.0407H357.404C358.171 59.0415 358.907 59.3275 359.45 59.8358C359.992 60.3442 360.297 61.0335 360.298 61.7524V137.806L299.745 162.03C299.36 162.182 298.946 162.26 298.528 162.26V162.26ZM235.632 137.272L297.642 161.375C298.22 161.595 298.868 161.591 299.444 161.365L359.526 137.329V61.7524C359.526 61.2252 359.302 60.7197 358.904 60.347C358.506 59.9742 357.966 59.7645 357.404 59.7638H237.754C237.192 59.7645 236.652 59.9742 236.254 60.347C235.856 60.7197 235.632 61.2252 235.632 61.7524L235.632 137.272Z" fill="#3F3D56"/>
<path d="M297.348 162.043L296.623 163.908L296.633 163.911L297.348 162.043ZM234.86 137.755H232.86V139.123L234.135 139.619L234.86 137.755ZM234.86 61.7524L232.86 61.75V61.7524H234.86ZM237.754 59.0407L237.754 57.0407L237.752 57.0407L237.754 59.0407ZM357.404 59.0407L357.406 57.0407H357.404V59.0407ZM360.298 61.7524L362.298 61.7524L362.298 61.75L360.298 61.7524ZM360.298 137.806L361.041 139.663L362.298 139.16V137.806H360.298ZM299.745 162.03L300.479 163.891L300.488 163.887L299.745 162.03ZM235.632 137.272L233.632 137.272L233.632 138.64L234.907 139.136L235.632 137.272ZM297.642 161.375L296.917 163.239L296.924 163.242L296.931 163.244L297.642 161.375ZM299.444 161.365L300.175 163.226L300.186 163.222L299.444 161.365ZM359.526 137.329L360.269 139.186L361.526 138.683V137.329H359.526ZM359.526 61.7524L361.526 61.7524L361.526 61.7499L359.526 61.7524ZM357.404 59.7638L357.406 57.7638H357.404V59.7638ZM237.754 59.7638L237.754 57.7638L237.752 57.7638L237.754 59.7638ZM235.632 61.7524L233.632 61.7499L233.632 61.7524L235.632 61.7524ZM298.526 160.26C298.364 160.26 298.206 160.23 298.062 160.175L296.633 163.911C297.239 164.143 297.883 164.26 298.531 164.26L298.526 160.26ZM298.072 160.179L235.584 135.891L234.135 139.619L296.623 163.908L298.072 160.179ZM236.86 137.755V61.7524H232.86V137.755H236.86ZM236.86 61.7548C236.86 61.6092 236.921 61.4409 237.076 61.2955L234.341 58.3762C233.411 59.2475 232.861 60.4578 232.86 61.75L236.86 61.7548ZM237.076 61.2955C237.236 61.1459 237.478 61.041 237.757 61.0407L237.752 57.0407C236.496 57.042 235.267 57.5091 234.341 58.3762L237.076 61.2955ZM237.754 61.0407H357.404V57.0407H237.754V61.0407ZM357.401 61.0407C357.68 61.041 357.923 61.1459 358.082 61.2955L360.817 58.3762C359.891 57.5091 358.662 57.042 357.406 57.0407L357.401 61.0407ZM358.082 61.2955C358.237 61.4409 358.298 61.6091 358.298 61.7548L362.298 61.75C362.297 60.4578 361.747 59.2475 360.817 58.3762L358.082 61.2955ZM358.298 61.7524V137.806H362.298V61.7524H358.298ZM359.555 135.949L299.002 160.173L300.488 163.887L361.041 139.663L359.555 135.949ZM299.012 160.17C298.863 160.228 298.699 160.26 298.53 160.26L298.527 164.26C299.194 164.26 299.857 164.136 300.479 163.891L299.012 160.17ZM234.907 139.136L296.917 163.239L298.367 159.511L236.356 135.408L234.907 139.136ZM296.931 163.244C297.975 163.641 299.137 163.634 300.175 163.226L298.712 159.503C298.6 159.548 298.466 159.548 298.353 159.505L296.931 163.244ZM300.186 163.222L360.269 139.186L358.784 135.472L298.701 159.508L300.186 163.222ZM361.526 137.329V61.7524H357.526V137.329H361.526ZM361.526 61.7499C361.525 60.6494 361.057 59.6231 360.271 58.8873L357.537 61.8066C357.543 61.8122 357.54 61.8117 357.535 61.8017C357.531 61.7914 357.526 61.775 357.526 61.7549L361.526 61.7499ZM360.271 58.8873C359.49 58.1558 358.458 57.765 357.406 57.7638L357.401 61.7638C357.475 61.7639 357.522 61.7926 357.537 61.8066L360.271 58.8873ZM357.404 57.7638H237.754V61.7638H357.404V57.7638ZM237.752 57.7638C236.7 57.765 235.668 58.1558 234.887 58.8873L237.621 61.8066C237.636 61.7926 237.683 61.7639 237.757 61.7638L237.752 57.7638ZM234.887 58.8873C234.102 59.623 233.633 60.6494 233.632 61.7499L237.632 61.7549C237.632 61.775 237.627 61.7914 237.623 61.8017C237.618 61.8117 237.615 61.8122 237.621 61.8066L234.887 58.8873ZM233.632 61.7524L233.632 137.272L237.632 137.272L237.632 61.7524L233.632 61.7524Z" fill="#978383" mask="url(#path-13-inside-1)"/>
<mask id="path-15-inside-2" fill="white">
<path d="M404.298 119.782H404.221L359.912 137.506L299.289 161.756C299.052 161.849 298.798 161.898 298.541 161.899C298.284 161.9 298.029 161.854 297.791 161.763L235.246 137.455L189.848 119.811L189.779 119.782H189.702C188.985 119.783 188.299 120.05 187.792 120.525C187.286 120.999 187.001 121.642 187 122.313V232.227C187.001 232.898 187.286 233.541 187.792 234.016C188.299 234.49 188.985 234.757 189.702 234.758H404.298C405.015 234.757 405.701 234.49 406.208 234.016C406.714 233.541 406.999 232.898 407 232.227V122.313C406.999 121.642 406.714 120.999 406.208 120.525C405.701 120.05 405.015 119.783 404.298 119.782V119.782ZM406.228 232.227C406.228 232.706 406.024 233.166 405.663 233.505C405.301 233.844 404.81 234.035 404.298 234.035H189.702C189.19 234.035 188.699 233.844 188.337 233.505C187.976 233.166 187.772 232.706 187.772 232.227V122.313C187.773 121.846 187.966 121.397 188.312 121.06C188.658 120.723 189.13 120.524 189.628 120.506L235.246 138.236L297.494 162.432C298.168 162.689 298.923 162.685 299.594 162.421L359.912 138.291L404.376 120.506C404.873 120.526 405.344 120.725 405.689 121.062C406.034 121.398 406.227 121.847 406.228 122.313V232.227Z"/>
</mask>
<path d="M404.298 119.782H404.221L359.912 137.506L299.289 161.756C299.052 161.849 298.798 161.898 298.541 161.899C298.284 161.9 298.029 161.854 297.791 161.763L235.246 137.455L189.848 119.811L189.779 119.782H189.702C188.985 119.783 188.299 120.05 187.792 120.525C187.286 120.999 187.001 121.642 187 122.313V232.227C187.001 232.898 187.286 233.541 187.792 234.016C188.299 234.49 188.985 234.757 189.702 234.758H404.298C405.015 234.757 405.701 234.49 406.208 234.016C406.714 233.541 406.999 232.898 407 232.227V122.313C406.999 121.642 406.714 120.999 406.208 120.525C405.701 120.05 405.015 119.783 404.298 119.782V119.782ZM406.228 232.227C406.228 232.706 406.024 233.166 405.663 233.505C405.301 233.844 404.81 234.035 404.298 234.035H189.702C189.19 234.035 188.699 233.844 188.337 233.505C187.976 233.166 187.772 232.706 187.772 232.227V122.313C187.773 121.846 187.966 121.397 188.312 121.06C188.658 120.723 189.13 120.524 189.628 120.506L235.246 138.236L297.494 162.432C298.168 162.689 298.923 162.685 299.594 162.421L359.912 138.291L404.376 120.506C404.873 120.526 405.344 120.725 405.689 121.062C406.034 121.398 406.227 121.847 406.228 122.313V232.227Z" fill="#3F3D56"/>
<path d="M404.221 119.782V117.782H403.836L403.478 117.926L404.221 119.782ZM359.912 137.506L359.169 135.649L359.169 135.649L359.912 137.506ZM299.289 161.756L300.022 163.616L300.032 163.613L299.289 161.756ZM297.791 161.763L297.067 163.627L297.076 163.631L297.791 161.763ZM235.246 137.455L234.521 139.32L234.521 139.32L235.246 137.455ZM189.848 119.811L189.078 121.657L189.101 121.667L189.124 121.676L189.848 119.811ZM189.779 119.782L190.549 117.937L190.179 117.782H189.779V119.782ZM189.702 119.782L189.702 117.782L189.7 117.782L189.702 119.782ZM187 122.313L185 122.311V122.313H187ZM187 232.227H185L185 232.229L187 232.227ZM189.702 234.758L189.7 236.758H189.702V234.758ZM404.298 234.758L404.298 236.758L404.3 236.758L404.298 234.758ZM407 232.227L409 232.229V232.227H407ZM407 122.313L409 122.313L409 122.311L407 122.313ZM406.228 232.227L408.228 232.228V232.227H406.228ZM404.298 234.035L404.298 236.035L404.299 236.035L404.298 234.035ZM189.702 234.035L189.701 236.035H189.702V234.035ZM187.772 232.227L185.772 232.227L185.772 232.228L187.772 232.227ZM187.772 122.313L185.772 122.31V122.313H187.772ZM189.628 120.506L190.353 118.641L189.967 118.491L189.553 118.507L189.628 120.506ZM235.246 138.236L235.97 136.372L235.97 136.372L235.246 138.236ZM297.494 162.432L296.77 164.296L296.782 164.301L297.494 162.432ZM299.594 162.421L300.326 164.282L300.337 164.278L299.594 162.421ZM359.912 138.291L359.17 136.434L359.169 136.434L359.912 138.291ZM404.376 120.506L404.456 118.507L404.029 118.49L403.633 118.649L404.376 120.506ZM406.228 122.313L408.228 122.313L408.228 122.308L406.228 122.313ZM404.298 117.782H404.221V121.782H404.298V117.782ZM403.478 117.926L359.169 135.649L360.655 139.363L404.964 121.639L403.478 117.926ZM359.169 135.649L298.546 159.899L300.032 163.613L360.655 139.363L359.169 135.649ZM298.556 159.895C298.551 159.897 298.543 159.899 298.531 159.899L298.55 163.899C299.053 163.897 299.552 163.801 300.022 163.616L298.556 159.895ZM298.531 159.899C298.519 159.899 298.511 159.897 298.506 159.895L297.076 163.631C297.548 163.811 298.048 163.901 298.55 163.899L298.531 159.899ZM298.516 159.899L235.97 135.591L234.521 139.32L297.067 163.627L298.516 159.899ZM235.97 135.591L190.573 117.947L189.124 121.676L234.521 139.32L235.97 135.591ZM190.618 117.966L190.549 117.937L189.009 121.628L189.078 121.657L190.618 117.966ZM189.779 117.782H189.702V121.782H189.779V117.782ZM189.7 117.782C188.494 117.784 187.314 118.232 186.425 119.065L189.16 121.984C189.283 121.869 189.477 121.783 189.704 121.782L189.7 117.782ZM186.425 119.065C185.531 119.902 185.001 121.067 185 122.311L189 122.316C189 122.218 189.04 122.096 189.16 121.984L186.425 119.065ZM185 122.313V232.227H189V122.313H185ZM185 232.229C185.001 233.474 185.531 234.638 186.425 235.475L189.16 232.556C189.04 232.445 189 232.322 189 232.225L185 232.229ZM186.425 235.475C187.314 236.309 188.494 236.757 189.7 236.758L189.704 232.758C189.477 232.758 189.283 232.672 189.16 232.556L186.425 235.475ZM189.702 236.758H404.298V232.758H189.702V236.758ZM404.3 236.758C405.506 236.757 406.686 236.309 407.575 235.475L404.84 232.556C404.717 232.672 404.523 232.758 404.296 232.758L404.3 236.758ZM407.575 235.475C408.469 234.638 408.999 233.474 409 232.229L405 232.225C405 232.322 404.96 232.445 404.84 232.556L407.575 235.475ZM409 232.227V122.313H405V232.227H409ZM409 122.311C408.999 121.067 408.469 119.902 407.575 119.065L404.84 121.984C404.96 122.096 405 122.218 405 122.316L409 122.311ZM407.575 119.065C406.686 118.232 405.506 117.784 404.3 117.782L404.296 121.782C404.523 121.783 404.717 121.869 404.84 121.984L407.575 119.065ZM404.228 232.226C404.228 232.132 404.269 232.07 404.295 232.045L407.03 234.965C407.78 234.262 408.228 233.281 408.228 232.228L404.228 232.226ZM404.295 232.045C404.307 232.034 404.314 232.032 404.313 232.032C404.311 232.033 404.306 232.035 404.297 232.035L404.299 236.035C405.3 236.034 406.285 235.663 407.03 234.965L404.295 232.045ZM404.298 232.035H189.702V236.035H404.298V232.035ZM189.703 232.035C189.694 232.035 189.689 232.033 189.687 232.032C189.686 232.032 189.693 232.034 189.705 232.045L186.97 234.965C187.715 235.663 188.7 236.034 189.701 236.035L189.703 232.035ZM189.705 232.045C189.731 232.07 189.772 232.132 189.772 232.226L185.772 232.228C185.772 233.281 186.22 234.262 186.97 234.965L189.705 232.045ZM189.772 232.227V122.313H185.772V232.227H189.772ZM189.772 122.316C189.772 122.407 189.733 122.468 189.707 122.493L186.917 119.627C186.199 120.326 185.773 121.285 185.772 122.31L189.772 122.316ZM189.707 122.493C189.696 122.504 189.688 122.507 189.689 122.507C189.69 122.506 189.695 122.504 189.704 122.504L189.553 118.507C188.578 118.544 187.631 118.932 186.917 119.627L189.707 122.493ZM188.904 122.37L234.521 140.101L235.97 136.372L190.353 118.641L188.904 122.37ZM234.521 140.101L296.77 164.296L298.219 160.568L235.97 136.372L234.521 140.101ZM296.782 164.301C297.921 164.735 299.191 164.728 300.326 164.282L298.862 160.56C298.655 160.641 298.415 160.642 298.206 160.563L296.782 164.301ZM300.337 164.278L360.655 140.148L359.169 136.434L298.851 160.564L300.337 164.278ZM360.655 140.148L405.118 122.363L403.633 118.649L359.17 136.434L360.655 140.148ZM404.295 122.504C404.303 122.504 404.309 122.506 404.31 122.507C404.311 122.507 404.303 122.504 404.292 122.493L407.085 119.63C406.374 118.936 405.43 118.547 404.456 118.507L404.295 122.504ZM404.292 122.493C404.267 122.468 404.228 122.408 404.228 122.318L408.228 122.308C408.226 121.285 407.801 120.328 407.085 119.63L404.292 122.493ZM404.228 122.313V232.227H408.228V122.313H404.228Z" fill="#978383" mask="url(#path-15-inside-2)"/>
<path d="M300.355 141.758C321.538 141.758 338.71 125.416 338.71 105.258C338.71 85.0994 321.538 68.7578 300.355 68.7578C279.172 68.7578 262 85.0994 262 105.258C262 125.416 279.172 141.758 300.355 141.758Z" fill="#6C63FF"/>
<path d="M316.245 121.161H284.465C283.884 121.161 283.327 120.941 282.916 120.55C282.505 120.159 282.274 119.629 282.273 119.076V100.826C282.274 100.273 282.505 99.7426 282.916 99.3515C283.327 98.9605 283.884 98.7406 284.465 98.74H316.245C316.826 98.7406 317.383 98.9605 317.794 99.3515C318.205 99.7426 318.436 100.273 318.437 100.826V119.076C318.436 119.629 318.205 120.159 317.794 120.55C317.383 120.941 316.826 121.161 316.245 121.161ZM284.465 100.826V119.076H316.246L316.245 100.826L284.465 100.826Z" fill="white"/>
<path d="M310.218 100.826H290.492V92.4828C290.492 86.4401 294.64 82.0543 300.355 82.0543C306.07 82.0543 310.218 86.4401 310.218 92.4828L310.218 100.826ZM292.684 98.74H308.026V92.4828C308.026 87.5707 304.872 84.14 300.355 84.14C295.838 84.14 292.684 87.5708 292.684 92.4828L292.684 98.74Z" fill="white"/>
<path d="M300.355 111.515C301.565 111.515 302.547 110.581 302.547 109.429C302.547 108.277 301.565 107.344 300.355 107.344C299.144 107.344 298.163 108.277 298.163 109.429C298.163 110.581 299.144 111.515 300.355 111.515Z" fill="white"/>
<path d="M388.41 187.659L381.026 184.898L373.641 187.659" stroke="black"/>
<path d="M324.921 197.742C324.915 197.742 324.908 197.742 324.897 197.742C324.298 197.742 323.999 197.536 323.999 197.125C323.999 196.927 324.051 196.682 324.155 196.39C324.259 196.098 324.319 195.804 324.335 195.507C324.35 195.205 324.358 194.744 324.358 194.125V192.664L324.374 192.257C324.384 191.986 324.389 191.794 324.389 191.679L324.311 190.875C324.311 190.692 324.473 190.601 324.796 190.601C325.124 190.601 325.46 190.69 325.803 190.867C326.147 191.044 326.358 191.132 326.436 191.132C326.52 191.132 326.673 191.08 326.897 190.976C327.126 190.872 327.395 190.76 327.702 190.64C328.014 190.515 328.335 190.453 328.663 190.453H328.866C329.257 190.453 329.603 190.559 329.905 190.773C330.212 190.981 330.434 191.273 330.569 191.648C330.71 192.018 330.809 192.7 330.866 193.695L330.889 194.125L330.905 194.554C330.921 194.804 330.939 195.075 330.96 195.367C330.981 195.658 331.051 195.966 331.171 196.289C331.29 196.606 331.35 196.82 331.35 196.929C331.35 197.393 330.996 197.625 330.288 197.625C329.986 197.625 329.764 197.565 329.624 197.445C329.483 197.32 329.413 197.111 329.413 196.82L329.428 196.531C329.428 194.505 329.283 193.125 328.991 192.39C328.762 191.822 328.358 191.539 327.78 191.539C327.504 191.539 327.233 191.609 326.968 191.75C326.707 191.885 326.504 192.106 326.358 192.414C326.098 192.96 325.968 194.013 325.968 195.57L326.03 196.984C326.03 197.208 325.923 197.39 325.71 197.531C325.496 197.671 325.233 197.742 324.921 197.742ZM333.702 198H333.507C333.069 198 332.85 197.854 332.85 197.562C332.85 197.541 333.225 196.997 333.975 195.929C334.731 194.856 335.108 194.236 335.108 194.07C335.108 193.903 334.772 193.338 334.1 192.375C333.913 192.104 333.663 191.796 333.35 191.453C333.043 191.104 332.889 190.864 332.889 190.734C332.889 190.437 333.262 190.289 334.007 190.289C334.548 190.289 334.928 190.424 335.147 190.695C335.189 190.747 335.241 190.859 335.303 191.031C335.366 191.197 335.481 191.434 335.647 191.742C336.012 192.408 336.272 192.742 336.428 192.742C336.553 192.742 336.827 192.398 337.249 191.71C337.415 191.44 337.54 191.187 337.624 190.953C337.712 190.718 337.772 190.58 337.803 190.539C337.96 190.335 338.205 190.234 338.538 190.234C339.168 190.234 339.483 190.346 339.483 190.57C339.483 190.7 339.121 191.226 338.397 192.148C337.673 193.07 337.311 193.666 337.311 193.937C337.311 194.203 337.697 194.846 338.468 195.867C338.723 196.205 338.991 196.513 339.272 196.789C339.559 197.065 339.702 197.281 339.702 197.437C339.702 197.729 339.27 197.877 338.405 197.882C337.973 197.882 337.66 197.76 337.468 197.515C337.431 197.468 337.369 197.346 337.28 197.148C337.197 196.95 337.095 196.747 336.975 196.539C336.507 195.731 336.21 195.328 336.085 195.328C335.928 195.328 335.626 195.7 335.178 196.445C335.048 196.664 334.931 196.914 334.827 197.195C334.728 197.471 334.668 197.625 334.647 197.656C334.481 197.885 334.165 198 333.702 198ZM344.272 197.937H343.975C343.225 197.937 342.686 197.614 342.358 196.968C342.087 196.442 341.952 195.578 341.952 194.375C341.952 193.171 341.887 192.346 341.757 191.898C341.71 191.731 341.58 191.541 341.366 191.328C341.152 191.114 341.046 190.929 341.046 190.773V190.671C341.046 190.536 341.168 190.388 341.413 190.226C341.658 190.065 341.798 189.95 341.835 189.882C341.876 189.809 341.955 189.557 342.069 189.125C342.189 188.687 342.311 188.382 342.436 188.21C342.567 188.033 342.738 187.945 342.952 187.945C343.171 187.945 343.324 188.007 343.413 188.132C343.507 188.257 343.598 188.515 343.686 188.906C343.78 189.296 343.882 189.562 343.991 189.703C344.1 189.838 344.366 189.981 344.788 190.132C345.21 190.283 345.421 190.471 345.421 190.695C345.421 190.893 345.199 191.07 344.757 191.226C344.319 191.382 344.043 191.575 343.928 191.804C343.71 192.247 343.6 193.031 343.6 194.156C343.6 195.281 343.697 195.971 343.889 196.226C344.082 196.476 344.395 196.63 344.827 196.687C345.264 196.744 345.483 196.908 345.483 197.179C345.483 197.388 345.358 197.567 345.108 197.718C344.863 197.864 344.585 197.937 344.272 197.937ZM347.382 194.164C347.152 194.164 347.038 194.031 347.038 193.765V193.585C347.038 193.236 347.119 193.036 347.28 192.984C347.442 192.927 348.186 192.898 349.514 192.898L351.046 192.875H351.335C351.637 192.875 351.788 193.01 351.788 193.281V193.453C351.777 193.526 351.772 193.583 351.772 193.625C351.772 193.885 351.673 194.039 351.475 194.085C351.283 194.127 350.559 194.148 349.303 194.148H348.952L348.78 194.156H348.428L348.194 194.164H347.382ZM358.428 192.726C358.428 192.268 358.314 191.895 358.085 191.609C357.861 191.322 357.488 191.179 356.968 191.179H356.897L356.819 191.187C356.277 191.187 355.83 191.445 355.475 191.96C355.126 192.471 354.952 193.177 354.952 194.078V194.437C354.952 195.244 355.111 195.867 355.428 196.304C355.751 196.742 356.147 196.96 356.616 196.96H356.686C357.233 196.96 357.658 196.77 357.96 196.39C358.262 196.01 358.413 195.466 358.413 194.757C358.423 194.643 358.428 194.559 358.428 194.507L358.452 194.015V193.125L358.436 192.882C358.431 192.83 358.428 192.778 358.428 192.726ZM357.077 190.234C357.65 190.234 357.994 190.164 358.108 190.023C358.285 189.804 358.374 189.338 358.374 188.625C358.374 188.411 358.35 188.192 358.303 187.968C358.257 187.739 358.233 187.588 358.233 187.515C358.233 187.281 358.322 187.083 358.499 186.921C358.676 186.76 358.934 186.679 359.272 186.679H359.421C359.832 186.679 360.069 186.864 360.132 187.234C360.178 187.5 360.202 188.96 360.202 191.617L360.186 192.554V193.859L360.202 194.578C360.202 194.697 360.202 194.817 360.202 194.937L360.21 195.109C360.215 195.223 360.218 195.432 360.218 195.734C360.218 196.031 360.259 196.322 360.343 196.609C360.431 196.89 360.475 197.088 360.475 197.203C360.475 197.317 360.41 197.429 360.28 197.539C360.15 197.648 359.957 197.703 359.702 197.703C359.452 197.703 359.194 197.669 358.928 197.601C358.668 197.528 358.488 197.492 358.389 197.492C358.29 197.492 358.02 197.567 357.577 197.718C357.139 197.869 356.757 197.945 356.428 197.945H356.257C355.371 197.945 354.681 197.645 354.186 197.046C353.697 196.442 353.452 195.653 353.452 194.679V194.281C353.452 193.77 353.533 193.26 353.694 192.75C353.861 192.234 354.1 191.786 354.413 191.406C355.064 190.625 355.952 190.234 357.077 190.234ZM365.577 197.062H365.733C366.259 197.062 366.692 196.83 367.03 196.367C367.369 195.903 367.538 195.317 367.538 194.609L367.553 194.437L367.561 194.171V193.82C367.561 193.044 367.402 192.406 367.085 191.906C366.772 191.401 366.353 191.148 365.827 191.148H365.671C365.155 191.148 364.72 191.403 364.366 191.914C364.017 192.424 363.843 193.101 363.843 193.945V194.476C363.853 194.601 363.858 194.687 363.858 194.734C363.858 195.328 364.022 195.864 364.35 196.343C364.678 196.822 365.087 197.062 365.577 197.062ZM369.327 193.929V194.187C369.327 194.651 369.251 195.127 369.1 195.617C368.793 196.611 368.189 197.325 367.288 197.757C366.767 198.007 366.251 198.132 365.741 198.132H365.475C364.991 198.132 364.54 198.033 364.124 197.835C363.296 197.44 362.746 196.783 362.475 195.867C362.33 195.382 362.257 194.89 362.257 194.39V193.992C362.257 193.502 362.332 193.013 362.483 192.523C362.78 191.554 363.369 190.861 364.249 190.445C364.702 190.226 365.165 190.117 365.639 190.117H366.03C366.478 190.117 366.921 190.213 367.358 190.406C368.233 190.791 368.822 191.479 369.124 192.468C369.259 192.906 369.327 193.393 369.327 193.929ZM374.139 197.062H374.296C374.822 197.062 375.254 196.83 375.593 196.367C375.931 195.903 376.1 195.317 376.1 194.609L376.116 194.437L376.124 194.171V193.82C376.124 193.044 375.965 192.406 375.647 191.906C375.335 191.401 374.915 191.148 374.389 191.148H374.233C373.718 191.148 373.283 191.403 372.928 191.914C372.58 192.424 372.405 193.101 372.405 193.945V194.476C372.415 194.601 372.421 194.687 372.421 194.734C372.421 195.328 372.585 195.864 372.913 196.343C373.241 196.822 373.65 197.062 374.139 197.062ZM377.889 193.929V194.187C377.889 194.651 377.814 195.127 377.663 195.617C377.356 196.611 376.751 197.325 375.85 197.757C375.33 198.007 374.814 198.132 374.303 198.132H374.038C373.553 198.132 373.103 198.033 372.686 197.835C371.858 197.44 371.309 196.783 371.038 195.867C370.892 195.382 370.819 194.89 370.819 194.39V193.992C370.819 193.502 370.895 193.013 371.046 192.523C371.343 191.554 371.931 190.861 372.811 190.445C373.264 190.226 373.728 190.117 374.202 190.117H374.593C375.04 190.117 375.483 190.213 375.921 190.406C376.796 190.791 377.384 191.479 377.686 192.468C377.822 192.906 377.889 193.393 377.889 193.929ZM383.311 191.796C382.822 191.796 382.442 192.041 382.171 192.531C381.9 193.015 381.764 193.757 381.764 194.757C381.764 195.2 381.783 195.515 381.819 195.703C381.856 195.885 381.91 196.114 381.983 196.39C382.061 196.661 382.1 196.898 382.1 197.101C382.1 197.299 381.981 197.481 381.741 197.648C381.501 197.815 381.189 197.898 380.803 197.898L380.671 197.89H380.53C380.28 197.89 380.072 197.82 379.905 197.679C379.744 197.539 379.663 197.38 379.663 197.203V197.078C379.663 197.041 379.712 196.869 379.811 196.562C379.91 196.255 379.968 195.958 379.983 195.671C379.999 195.385 380.007 195 380.007 194.515V193.648L379.999 193.507C379.999 193.414 379.999 193.32 379.999 193.226L379.983 192.804C379.978 192.71 379.975 192.528 379.975 192.257C379.975 191.981 379.926 191.721 379.827 191.476C379.733 191.226 379.686 191.065 379.686 190.992C379.686 190.679 379.96 190.523 380.507 190.523C381.053 190.523 381.449 190.671 381.694 190.968C381.767 191.057 381.843 191.101 381.921 191.101C382.004 191.101 382.139 191.036 382.327 190.906C382.848 190.552 383.285 190.375 383.639 190.375H383.764C384.077 190.375 384.314 190.445 384.475 190.585C384.642 190.726 384.725 190.914 384.725 191.148C384.725 191.611 384.468 191.843 383.952 191.843C383.749 191.812 383.535 191.796 383.311 191.796Z" fill="black"/>
<path d="M385.599 193.606C384.431 193.763 383.525 194.103 382.571 194.746C381.856 195.227 381.434 195.627 380.958 196.265C380.568 196.794 380.298 197.281 380.123 197.783L379.98 198.173L375.64 198.189L371.293 198.205L370.657 198.351C369.314 198.665 369.632 198.47 361.231 204.177L353.466 209.445L353.14 209.905C352.361 210.98 352.457 212.234 353.378 213.207C353.879 213.731 363.798 220.426 364.498 220.713C365.928 221.291 367.645 221.329 369.187 220.815L369.863 220.594L377.612 215.314C383.43 211.358 385.432 209.964 385.631 209.732C385.774 209.559 386.005 209.207 386.148 208.948L386.394 208.472L386.418 204.527C386.442 200.723 386.434 200.572 386.283 200.231C386.06 199.745 385.639 199.286 385.107 198.945C384.614 198.637 383.533 198.232 383.422 198.318C383.247 198.448 383.151 199.237 383.104 200.907L383.056 202.69L382.826 202.976C382.555 203.301 382.15 203.576 381.649 203.755C381.363 203.857 381.189 203.879 380.553 203.879C379.917 203.879 379.742 203.857 379.456 203.755C378.956 203.576 378.55 203.301 378.28 202.976C378.073 202.717 378.05 202.641 378.05 202.177C378.05 201.62 378.153 201.42 378.622 201.042C378.86 200.848 379.48 200.556 379.655 200.556C379.735 200.556 379.758 200.756 379.758 201.48V202.404L379.989 202.56C380.315 202.776 380.792 202.782 381.109 202.566L381.332 202.414L381.372 200.685C381.419 198.858 381.491 198.41 381.904 197.588C382.675 196.032 384.138 194.957 385.799 194.713C387.579 194.454 389.471 195.265 390.56 196.756C392.34 199.182 391.752 202.565 389.257 204.203C388.986 204.381 388.637 204.576 388.478 204.635L388.184 204.743V205.349C388.184 205.76 388.215 205.96 388.271 205.96C388.462 205.96 389.463 205.56 389.948 205.29C393.278 203.42 394.248 199.297 392.054 196.314C391.371 195.373 390.226 194.492 389.129 194.055C388.08 193.639 386.712 193.46 385.599 193.606Z" fill="#9063CA"/>
<path d="M361.726 214.152C361.54 214.018 361.344 213.944 361.137 213.93C360.932 213.915 360.727 213.987 360.521 214.146L360.493 214.168L360.466 214.194C360.251 214.36 360.179 214.572 360.248 214.832C360.317 215.088 360.534 215.348 360.899 215.612L361.045 215.717C361.372 215.954 361.687 216.087 361.99 216.118C362.295 216.147 362.54 216.09 362.725 215.946L362.753 215.925C362.969 215.757 363.06 215.572 363.025 215.368C362.991 215.164 362.83 214.959 362.543 214.751C362.5 214.715 362.469 214.689 362.448 214.673L362.257 214.522L361.896 214.261L361.792 214.195C361.769 214.181 361.747 214.167 361.726 214.152ZM360.181 213.836C360.408 213.661 360.515 213.535 360.503 213.458C360.485 213.34 360.331 213.177 360.042 212.968C359.955 212.905 359.857 212.848 359.748 212.797C359.636 212.744 359.566 212.707 359.536 212.686C359.441 212.617 359.396 212.532 359.401 212.431C359.405 212.329 359.474 212.227 359.608 212.123L359.667 212.078C359.83 211.952 359.998 211.933 360.173 212.022C360.299 212.086 360.9 212.506 361.977 213.284L362.351 213.563L362.88 213.945L363.177 214.151C363.226 214.186 363.274 214.221 363.323 214.256L363.395 214.304C363.444 214.336 363.529 214.396 363.652 214.485C363.772 214.572 363.907 214.644 364.056 214.703C364.205 214.758 364.303 214.802 364.349 214.836C364.396 214.869 364.415 214.922 364.408 214.994C364.401 215.066 364.347 215.141 364.246 215.219C364.147 215.295 364.032 215.364 363.899 215.426C363.767 215.484 363.681 215.529 363.642 215.559C363.603 215.589 363.526 215.694 363.412 215.874C363.301 216.052 363.18 216.192 363.05 216.292L362.982 216.345C362.632 216.616 362.238 216.739 361.8 216.716C361.361 216.689 360.945 216.533 360.55 216.247L360.389 216.131C360.182 215.981 360.007 215.807 359.864 215.608C359.721 215.406 359.634 215.202 359.603 214.995C359.544 214.567 359.736 214.18 360.181 213.836ZM365.052 211.964C365.192 211.856 365.268 211.763 365.282 211.686C365.295 211.61 365.273 211.551 365.216 211.51L365.083 211.413C364.931 211.304 364.751 211.255 364.543 211.268C364.334 211.281 364.165 211.338 364.036 211.438L363.955 211.5C363.768 211.645 363.686 211.831 363.708 212.057C363.729 212.281 363.835 212.463 364.027 212.601L364.081 212.64C364.155 212.694 364.258 212.669 364.389 212.567L364.46 212.512L364.476 212.496L364.691 212.305L364.833 212.176L364.926 212.085C364.942 212.07 364.964 212.048 364.99 212.021C365.019 211.993 365.039 211.974 365.052 211.964ZM366.831 213.439L366.696 213.544C366.284 213.863 365.811 214.016 365.277 214.003C365.039 213.998 364.792 213.949 364.536 213.857C364.278 213.763 364.053 213.646 363.861 213.508L363.718 213.405C363.526 213.266 363.364 213.09 363.231 212.877C362.969 212.463 362.945 212.063 363.158 211.677C363.265 211.477 363.422 211.297 363.63 211.136L363.698 211.083C363.986 210.86 364.314 210.741 364.681 210.725C364.891 210.717 365.096 210.745 365.295 210.808C365.494 210.869 365.652 210.941 365.768 211.025C366.023 211.21 366.112 211.391 366.034 211.568C365.979 211.689 365.784 211.915 365.448 212.245C365.113 212.574 364.933 212.756 364.906 212.793C364.773 212.965 364.766 213.094 364.884 213.179C365.089 213.327 365.352 213.38 365.672 213.337C365.907 213.306 366.15 213.195 366.399 213.002C366.493 212.928 366.616 212.787 366.767 212.579C366.918 212.37 367.003 212.258 367.024 212.242C367.131 212.159 367.234 212.154 367.333 212.225C367.458 212.315 367.466 212.494 367.358 212.761C367.25 213.025 367.074 213.251 366.831 213.439ZM369.189 210.954L369.285 210.88C369.476 210.731 369.561 210.54 369.538 210.304C369.525 210.175 369.392 210.019 369.139 209.836L369.101 209.804L369.022 209.747C368.864 209.632 368.721 209.625 368.593 209.723L368.494 209.8L368.346 209.934L368.272 210.005C368.083 210.152 367.982 210.312 367.971 210.485C367.957 210.657 368.025 210.797 368.175 210.905L368.286 210.985C368.4 211.068 368.542 211.112 368.713 211.119C368.884 211.122 369.043 211.067 369.189 210.954ZM370.904 209.853C371.045 209.955 370.977 210.114 370.699 210.329C370.65 210.368 370.534 210.42 370.351 210.485C370.169 210.547 370.06 210.592 370.025 210.619C369.992 210.645 369.918 210.758 369.802 210.958C369.685 211.156 369.554 211.311 369.41 211.423L369.339 211.478C369.114 211.652 368.846 211.748 368.533 211.765C368.219 211.781 367.93 211.695 367.669 211.506C367.137 211.122 367.134 210.628 367.66 210.025C367.999 209.632 368.173 209.428 368.181 209.412C368.229 209.296 368.185 209.188 368.047 209.089C367.908 208.988 367.749 208.938 367.569 208.938C367.39 208.935 367.226 208.99 367.078 209.105C366.932 209.218 366.811 209.39 366.714 209.619C366.616 209.847 366.53 209.99 366.456 210.047C366.322 210.151 366.161 210.135 365.973 209.999C365.855 209.914 365.848 209.752 365.952 209.513C366.059 209.272 366.247 209.047 366.517 208.838L366.671 208.719C366.873 208.563 367.091 208.452 367.326 208.387C367.56 208.323 367.785 208.306 368 208.339C368.306 208.383 368.794 208.648 369.465 209.133C369.845 209.408 370.089 209.573 370.196 209.629C370.305 209.683 370.435 209.723 370.586 209.749C370.735 209.773 370.84 209.808 370.904 209.853ZM367.553 206.268C367.386 206.147 367.436 205.983 367.704 205.776L367.76 205.733C367.951 205.585 368.141 205.56 368.328 205.658L369.015 206.154L369.246 206.331L369.363 206.415L369.715 206.683L369.832 206.768L369.893 206.816C369.933 206.845 369.973 206.874 370.013 206.903L370.07 206.949C370.11 206.978 370.15 207.007 370.19 207.036L370.247 207.082L370.545 207.297L370.96 207.582C371 207.608 371.097 207.677 371.251 207.788C371.405 207.899 371.589 208.003 371.803 208.099C372.018 208.192 372.207 208.253 372.373 208.279C372.536 208.305 372.653 208.343 372.725 208.395C372.797 208.447 372.817 208.526 372.785 208.633C372.756 208.738 372.661 208.853 372.5 208.977L372.392 209.061C372.102 209.286 371.838 209.313 371.602 209.142C371.585 209.13 371.538 209.084 371.462 209.004C371.386 208.924 371.225 208.794 370.98 208.614L370.242 208.053L370.185 208.007C370.145 207.978 370.104 207.949 370.064 207.92L369.947 207.831C369.907 207.802 369.867 207.773 369.827 207.744L369.77 207.698C369.73 207.669 369.689 207.64 369.649 207.611L369.532 207.522C369.492 207.493 369.452 207.464 369.412 207.435L369.295 207.346L369.171 207.256L369.054 207.167L368.458 206.737C368.218 206.563 368.016 206.448 367.852 206.392C367.688 206.335 367.589 206.294 367.553 206.268ZM372.232 206.615C371.895 206.637 371.599 206.556 371.346 206.373C371.091 206.188 370.989 205.956 371.04 205.676C371.09 205.394 371.278 205.127 371.606 204.873C371.933 204.619 372.213 204.464 372.445 204.407C372.676 204.349 372.857 204.367 372.988 204.461C373.167 204.591 373.2 204.7 373.087 204.787C373.048 204.818 372.901 204.867 372.645 204.935C372.39 205.003 372.183 205.099 372.024 205.222C371.866 205.344 371.783 205.464 371.777 205.579C371.773 205.693 371.828 205.792 371.945 205.876C372.061 205.96 372.24 205.976 372.483 205.923C372.567 205.906 372.807 205.83 373.205 205.696C373.603 205.558 373.912 205.482 374.131 205.467C374.472 205.446 374.773 205.529 375.033 205.717C375.292 205.904 375.405 206.144 375.37 206.436C375.335 206.726 375.151 206.999 374.817 207.258C374.251 207.696 373.787 207.887 373.426 207.829C373.311 207.81 373.226 207.781 373.171 207.742C372.987 207.609 372.951 207.5 373.062 207.414C373.095 207.388 373.272 207.336 373.594 207.257C373.916 207.175 374.158 207.071 374.321 206.946C374.486 206.818 374.58 206.692 374.603 206.566C374.625 206.441 374.576 206.334 374.453 206.246C374.329 206.156 374.14 206.132 373.886 206.173C373.782 206.191 373.534 206.266 373.142 206.399C372.748 206.53 372.445 206.602 372.232 206.615Z" fill="#424193"/>
</svg>
