<svg width="200" height="150" viewBox="0 0 200 150" fill="none" xmlns="http://www.w3.org/2000/svg">
<path d="M193.715 150H6.28465C4.61786 150 3.01933 149.287 1.84073 148.019C0.66213 146.75 0 145.03 0 143.236C67.9436 134.738 134.61 134.738 200 143.236C200 145.03 199.338 146.75 198.159 148.019C196.981 149.287 195.382 150 193.715 150Z" fill="#2F2E41"/>
<path d="M200 143.634L0 143.236L23.1793 101.26L23.2902 101.061V8.5504C23.2901 7.42752 23.4956 6.31561 23.8948 5.27819C24.294 4.24077 24.8792 3.29814 25.6169 2.50415C26.3547 1.71015 27.2305 1.08033 28.1944 0.650669C29.1583 0.221004 30.1914 -9.35782e-05 31.2347 2.97112e-08H167.656C168.7 -9.35782e-05 169.733 0.221004 170.697 0.650669C171.66 1.08033 172.536 1.71015 173.274 2.50415C174.012 3.29814 174.597 4.24077 174.996 5.27819C175.395 6.31561 175.601 7.42752 175.601 8.5504V101.698L200 143.634Z" fill="#3F3D56"/>
<path d="M31.0536 5.96817C30.3675 5.969 29.7098 6.2627 29.2246 6.78484C28.7395 7.30697 28.4666 8.0149 28.4658 8.75331V93.1035C28.4666 93.8419 28.7395 94.5498 29.2246 95.0719C29.7098 95.594 30.3675 95.8877 31.0536 95.8886H168.946C169.632 95.8877 170.29 95.594 170.775 95.0719C171.26 94.5497 171.533 93.8418 171.534 93.1035V8.75331C171.533 8.01491 171.261 7.30701 170.775 6.78488C170.29 6.26275 169.632 5.96903 168.946 5.96817H31.0536Z" fill="white"/>
<path d="M31.6314 107.029C31.4194 107.03 31.2119 107.095 31.0334 107.218C30.8549 107.341 30.7128 107.517 30.6238 107.724L23.4816 124.435C23.4038 124.617 23.3698 124.817 23.3827 125.016C23.3955 125.216 23.4549 125.409 23.5552 125.578C23.6555 125.746 23.7936 125.885 23.9568 125.981C24.12 126.077 24.303 126.127 24.489 126.127H174.687C174.876 126.127 175.062 126.075 175.227 125.976C175.392 125.877 175.531 125.734 175.63 125.561C175.73 125.388 175.786 125.191 175.795 124.987C175.803 124.784 175.763 124.582 175.679 124.4L167.915 107.689C167.824 107.49 167.682 107.323 167.507 107.207C167.332 107.09 167.13 107.029 166.924 107.029H31.6314Z" fill="#2F2E41"/>
<path d="M99.4454 4.57559C100.364 4.57559 101.109 3.77398 101.109 2.78514C101.109 1.7963 100.364 0.99469 99.4454 0.99469C98.5267 0.99469 97.7819 1.7963 97.7819 2.78514C97.7819 3.77398 98.5267 4.57559 99.4454 4.57559Z" fill="white"/>
<path d="M84.6822 129.31C84.4384 129.311 84.2015 129.397 84.008 129.557C83.8145 129.717 83.6751 129.94 83.6115 130.194L81.8199 137.355C81.7756 137.532 81.7697 137.718 81.8028 137.897C81.8358 138.077 81.9068 138.246 82.0104 138.392C82.1139 138.537 82.2472 138.655 82.3998 138.736C82.5525 138.817 82.7204 138.859 82.8907 138.859H116.962C117.139 138.859 117.313 138.814 117.47 138.727C117.628 138.64 117.763 138.513 117.866 138.358C117.968 138.203 118.035 138.024 118.06 137.836C118.085 137.647 118.068 137.455 118.01 137.275L115.707 130.113C115.631 129.879 115.49 129.676 115.302 129.532C115.114 129.388 114.889 129.31 114.659 129.31H84.6822Z" fill="#2F2E41"/>
<path d="M175.601 99.6685V101.26H23.1793L23.294 101.061V99.6685H175.601Z" fill="#2F2E41"/>
<mask id="path-8-inside-1" fill="white">
<path d="M135.475 43.3764C135.449 43.3764 135.423 43.3682 135.401 43.353L99.7015 18.2869C99.5929 18.211 99.4638 18.1704 99.3316 18.1706C99.1994 18.1708 99.0704 18.2119 98.9621 18.2881L63.5195 43.3528C63.4915 43.3726 63.4568 43.3804 63.4231 43.3744C63.3894 43.3685 63.3594 43.3492 63.3397 43.321C63.32 43.2927 63.3123 43.2577 63.3182 43.2237C63.3241 43.1897 63.3432 43.1595 63.3713 43.1397L98.8138 18.075C98.9656 17.9682 99.1461 17.9108 99.3312 17.9105C99.5162 17.9102 99.697 17.967 99.8491 18.0733L135.549 43.1394C135.571 43.1552 135.588 43.1779 135.597 43.2042C135.606 43.2304 135.606 43.2588 135.598 43.2852C135.59 43.3117 135.573 43.3348 135.551 43.3512C135.529 43.3675 135.502 43.3764 135.475 43.3764L135.475 43.3764Z"/>
</mask>
<path d="M135.475 43.3764C135.449 43.3764 135.423 43.3682 135.401 43.353L99.7015 18.2869C99.5929 18.211 99.4638 18.1704 99.3316 18.1706C99.1994 18.1708 99.0704 18.2119 98.9621 18.2881L63.5195 43.3528C63.4915 43.3726 63.4568 43.3804 63.4231 43.3744C63.3894 43.3685 63.3594 43.3492 63.3397 43.321C63.32 43.2927 63.3123 43.2577 63.3182 43.2237C63.3241 43.1897 63.3432 43.1595 63.3713 43.1397L98.8138 18.075C98.9656 17.9682 99.1461 17.9108 99.3312 17.9105C99.5162 17.9102 99.697 17.967 99.8491 18.0733L135.549 43.1394C135.571 43.1552 135.588 43.1779 135.597 43.2042C135.606 43.2304 135.606 43.2588 135.598 43.2852C135.59 43.3117 135.573 43.3348 135.551 43.3512C135.529 43.3675 135.502 43.3764 135.475 43.3764L135.475 43.3764Z" fill="#3F3D56"/>
<path d="M135.475 43.3764L135.476 45.3764L136.375 41.5905L135.475 43.3764ZM135.401 43.353L136.552 41.717L136.55 41.7162L135.401 43.353ZM99.7015 18.2869L100.851 16.6501L100.847 16.6475L99.7015 18.2869ZM98.9621 18.2881L97.8108 16.6527L97.8073 16.6552L98.9621 18.2881ZM63.5195 43.3528L64.6743 44.9858L64.6743 44.9857L63.5195 43.3528ZM63.3713 43.1397L64.526 44.7726L64.526 44.7726L63.3713 43.1397ZM98.8138 18.075L97.6627 16.4395L97.659 16.4421L98.8138 18.075ZM99.8491 18.0733L100.998 16.4365L100.995 16.434L99.8491 18.0733ZM135.549 43.1394L136.698 41.5029L136.698 41.5026L135.549 43.1394ZM135.475 43.3764L135.476 41.3764L134.575 45.1623L135.475 43.3764ZM135.474 41.3764C135.861 41.3761 136.237 41.4958 136.552 41.717L134.251 44.9891C134.609 45.2407 135.036 45.3766 135.476 45.3764L135.474 41.3764ZM136.55 41.7162L100.851 16.6501L98.5522 19.9237L134.252 44.9899L136.55 41.7162ZM100.847 16.6475C100.403 16.3369 99.8725 16.1697 99.3282 16.1706L99.335 20.1706C99.0551 20.1711 98.7831 20.0851 98.5559 19.9262L100.847 16.6475ZM99.3282 16.1706C98.7838 16.1715 98.2543 16.3405 97.8108 16.6527L100.113 19.9236C99.8866 20.0832 99.615 20.1701 99.335 20.1706L99.3282 16.1706ZM97.8073 16.6552L62.3647 41.7199L64.6743 44.9857L100.117 19.9211L97.8073 16.6552ZM62.3648 41.7198C62.7716 41.4322 63.2779 41.3177 63.7716 41.405L63.0746 45.3438C63.6357 45.4431 64.2114 45.313 64.6743 44.9858L62.3648 41.7198ZM63.7716 41.405C64.2649 41.4923 64.699 41.7728 64.9815 42.1788L61.6979 44.4631C62.0197 44.9256 62.5138 45.2446 63.0746 45.3438L63.7716 41.405ZM64.9815 42.1788C65.2635 42.5841 65.3728 43.0831 65.2886 43.5667L61.3479 42.8807C61.2518 43.4324 61.3766 44.0013 61.6979 44.4631L64.9815 42.1788ZM65.2886 43.5667C65.2044 44.0505 64.9322 44.4854 64.526 44.7726L62.2165 41.5067C61.7542 41.8336 61.4439 42.3289 61.3479 42.8807L65.2886 43.5667ZM64.526 44.7726L99.9686 19.7079L97.659 16.4421L62.2165 41.5067L64.526 44.7726ZM99.9649 19.7106C99.7816 19.8396 99.5615 19.9101 99.3345 19.9105L99.3279 15.9105C98.7307 15.9115 98.1496 16.0968 97.6627 16.4395L99.9649 19.7106ZM99.3345 19.9105C99.1074 19.9109 98.8872 19.8411 98.7034 19.7126L100.995 16.434C100.507 16.0929 99.9251 15.9095 99.3279 15.9105L99.3345 19.9105ZM98.6998 19.7101L134.399 44.7762L136.698 41.5026L100.998 16.4365L98.6998 19.7101ZM134.399 44.7759C134.072 44.5464 133.829 44.2197 133.703 43.8453L137.492 42.563C137.347 42.1362 137.07 41.7641 136.698 41.5029L134.399 44.7759ZM133.703 43.8453C133.576 43.4713 133.571 43.0668 133.689 42.69L137.507 43.8804C137.641 43.4507 137.636 42.9895 137.492 42.563L133.703 43.8453ZM133.689 42.69C133.806 42.313 134.041 41.9806 134.362 41.7432L136.741 44.9591C137.106 44.6889 137.373 44.3103 137.507 43.8804L133.689 42.69ZM134.362 41.7432C134.683 41.5055 135.074 41.3762 135.476 41.3764L135.474 45.3764C135.931 45.3766 136.375 45.2296 136.741 44.9591L134.362 41.7432ZM134.575 45.1623L134.575 45.1623L136.375 41.5905L136.375 41.5904L134.575 45.1623Z" fill="#978383" mask="url(#path-8-inside-1)"/>
<path d="M84.044 60.4416L67.0936 44.356L99.3481 20.2554L131.691 45.9466L100.942 64.3248L84.044 60.4416Z" fill="#E6E6E6" stroke="#978383" stroke-width="2"/>
<path d="M85.0364 76.7525L85.0356 76.7525C85.0359 76.7525 85.0361 76.7525 85.0364 76.7525ZM85.0364 76.7525C85.0366 76.7525 85.0367 76.7525 85.0369 76.7525L85.0364 76.7525ZM85.0364 76.7525L85.0356 77.3265L85.0364 76.7525ZM85.0364 76.7525L85.0366 76.5513L85.0366 76.5485L85.0366 76.5444L85.0367 76.5395L85.0367 76.5346L85.0367 76.5305L85.0367 76.5276L85.0369 76.3265C85.0367 76.3265 85.0366 76.3265 85.0364 76.3265C85.0361 76.3265 85.0359 76.3265 85.0356 76.3265L85.0364 76.7525Z" fill="#6C63FF" stroke="#978383" stroke-width="2"/>
<mask id="path-12-inside-2" fill="white">
<path d="M74.3216 73.9428H68.3268C68.2242 73.9429 68.1226 73.9227 68.0278 73.8832C67.9329 73.8437 67.8468 73.7857 67.7742 73.7126C67.7016 73.6395 67.644 73.5527 67.6047 73.4572C67.5654 73.3616 67.5452 73.2592 67.5452 73.1558C67.5452 73.0523 67.5654 72.9499 67.6047 72.8543C67.644 72.7588 67.7016 72.672 67.7742 72.5989C67.8468 72.5258 67.9329 72.4678 68.0278 72.4283C68.1226 72.3889 68.2242 72.3686 68.3268 72.3687H74.3216C74.4242 72.3686 74.5258 72.3889 74.6206 72.4283C74.7154 72.4678 74.8016 72.5258 74.8742 72.5989C74.9468 72.672 75.0044 72.7588 75.0437 72.8543C75.083 72.9499 75.1032 73.0523 75.1032 73.1558C75.1032 73.2592 75.083 73.3616 75.0437 73.4572C75.0044 73.5527 74.9468 73.6395 74.8742 73.7126C74.8016 73.7857 74.7154 73.8437 74.6206 73.8832C74.5258 73.9227 74.4242 73.9429 74.3216 73.9428Z"/>
</mask>
<path d="M74.3216 73.9428H68.3268C68.2242 73.9429 68.1226 73.9227 68.0278 73.8832C67.9329 73.8437 67.8468 73.7857 67.7742 73.7126C67.7016 73.6395 67.644 73.5527 67.6047 73.4572C67.5654 73.3616 67.5452 73.2592 67.5452 73.1558C67.5452 73.0523 67.5654 72.9499 67.6047 72.8543C67.644 72.7588 67.7016 72.672 67.7742 72.5989C67.8468 72.5258 67.9329 72.4678 68.0278 72.4283C68.1226 72.3889 68.2242 72.3686 68.3268 72.3687H74.3216C74.4242 72.3686 74.5258 72.3889 74.6206 72.4283C74.7154 72.4678 74.8016 72.5258 74.8742 72.5989C74.9468 72.672 75.0044 72.7588 75.0437 72.8543C75.083 72.9499 75.1032 73.0523 75.1032 73.1558C75.1032 73.2592 75.083 73.3616 75.0437 73.4572C75.0044 73.5527 74.9468 73.6395 74.8742 73.7126C74.8016 73.7857 74.7154 73.8437 74.6206 73.8832C74.5258 73.9227 74.4242 73.9429 74.3216 73.9428Z" fill="#6C63FF"/>
<path d="M74.3216 73.9428L74.3241 71.9428H74.3216V73.9428ZM68.3268 73.9428L68.3268 71.9428L68.3242 71.9428L68.3268 73.9428ZM68.3268 72.3687L68.3242 74.3687H68.3268V72.3687ZM74.3216 72.3687L74.3216 74.3687L74.3241 74.3687L74.3216 72.3687ZM74.3216 71.9428H68.3268V75.9428H74.3216V71.9428ZM68.3242 71.9428C68.4867 71.9426 68.6473 71.9747 68.7967 72.0369L67.2588 75.7294C67.5979 75.8706 67.9617 75.9433 68.3294 75.9428L68.3242 71.9428ZM68.7967 72.0369C68.946 72.0991 69.0806 72.1899 69.1932 72.3033L66.3551 75.122C66.6129 75.3815 66.9198 75.5883 67.2588 75.7294L68.7967 72.0369ZM69.1932 72.3033C69.3058 72.4167 69.3943 72.5504 69.4544 72.6965L65.755 74.2178C65.8936 74.555 66.0973 74.8624 66.3551 75.122L69.1932 72.3033ZM69.4544 72.6965C69.5144 72.8426 69.5452 72.9986 69.5452 73.1558H65.5452C65.5452 73.5198 65.6163 73.8807 65.755 74.2178L69.4544 72.6965ZM69.5452 73.1558C69.5452 73.3129 69.5144 73.4689 69.4544 73.615L65.755 72.0937C65.6163 72.4308 65.5452 72.7917 65.5452 73.1558H69.5452ZM69.4544 73.615C69.3943 73.7611 69.3058 73.8948 69.1932 74.0082L66.3551 71.1895C66.0973 71.4491 65.8936 71.7565 65.755 72.0937L69.4544 73.615ZM69.1932 74.0082C69.0806 74.1216 68.946 74.2124 68.7967 74.2746L67.2588 70.5821C66.9198 70.7232 66.6129 70.93 66.3551 71.1895L69.1932 74.0082ZM68.7967 74.2746C68.6473 74.3368 68.4867 74.3689 68.3242 74.3687L68.3294 70.3687C67.9617 70.3683 67.5979 70.4409 67.2588 70.5821L68.7967 74.2746ZM68.3268 74.3687H74.3216V70.3687H68.3268V74.3687ZM74.3241 74.3687C74.1617 74.3689 74.001 74.3368 73.8517 74.2746L75.3895 70.5821C75.0505 70.4409 74.6867 70.3683 74.319 70.3687L74.3241 74.3687ZM73.8517 74.2746C73.7023 74.2124 73.5677 74.1216 73.4551 74.0082L76.2933 71.1895C76.0355 70.93 75.7285 70.7232 75.3895 70.5821L73.8517 74.2746ZM73.4551 74.0082C73.3425 73.8949 73.2541 73.7611 73.194 73.615L76.8934 72.0937C76.7547 71.7565 76.551 71.4491 76.2933 71.1895L73.4551 74.0082ZM73.194 73.615C73.1339 73.4689 73.1032 73.3129 73.1032 73.1558H77.1032C77.1032 72.7917 77.032 72.4309 76.8934 72.0937L73.194 73.615ZM73.1032 73.1558C73.1032 72.9986 73.1339 72.8426 73.194 72.6965L76.8934 74.2178C77.032 73.8806 77.1032 73.5198 77.1032 73.1558H73.1032ZM73.194 72.6965C73.2541 72.5504 73.3425 72.4166 73.4551 72.3033L76.2933 75.122C76.551 74.8624 76.7547 74.555 76.8934 74.2178L73.194 72.6965ZM73.4551 72.3033C73.5677 72.1899 73.7023 72.0991 73.8517 72.0369L75.3895 75.7294C75.7285 75.5883 76.0355 75.3815 76.2933 75.122L73.4551 72.3033ZM73.8517 72.0369C74.001 71.9747 74.1617 71.9426 74.3241 71.9428L74.319 75.9428C74.6867 75.9433 75.0505 75.8706 75.3895 75.7294L73.8517 72.0369Z" fill="#978383" mask="url(#path-12-inside-2)"/>
<path d="M99.8427 57.3389L79.613 48.8761V22.317H119.437V48.9027L99.8427 57.3389Z" fill="white" stroke="#978383" stroke-width="2"/>
<mask id="path-15-inside-3" fill="white">
<path d="M99.8423 58.4059C99.7069 58.4061 99.5727 58.3796 99.4473 58.328L78.5484 49.5853V22.228C78.5487 21.9692 78.6508 21.7211 78.8323 21.5381C79.0138 21.3551 79.2599 21.2522 79.5165 21.2519H119.533C119.79 21.2522 120.036 21.3551 120.217 21.5381C120.399 21.7211 120.501 21.9692 120.501 22.228V49.6038L100.249 58.3233C100.12 58.378 99.982 58.4061 99.8423 58.4059V58.4059ZM78.8066 49.4114L99.5458 58.0874C99.7392 58.1665 99.9559 58.1652 100.148 58.0838L120.243 49.432V22.228C120.243 22.0382 120.168 21.8563 120.035 21.7221C119.902 21.5879 119.721 21.5124 119.533 21.5122H79.5165C79.3283 21.5124 79.1479 21.5879 79.0148 21.7221C78.8817 21.8563 78.8068 22.0382 78.8066 22.228L78.8066 49.4114Z"/>
</mask>
<path d="M99.8423 58.4059C99.7069 58.4061 99.5727 58.3796 99.4473 58.328L78.5484 49.5853V22.228C78.5487 21.9692 78.6508 21.7211 78.8323 21.5381C79.0138 21.3551 79.2599 21.2522 79.5165 21.2519H119.533C119.79 21.2522 120.036 21.3551 120.217 21.5381C120.399 21.7211 120.501 21.9692 120.501 22.228V49.6038L100.249 58.3233C100.12 58.378 99.982 58.4061 99.8423 58.4059V58.4059ZM78.8066 49.4114L99.5458 58.0874C99.7392 58.1665 99.9559 58.1652 100.148 58.0838L120.243 49.432V22.228C120.243 22.0382 120.168 21.8563 120.035 21.7221C119.902 21.5879 119.721 21.5124 119.533 21.5122H79.5165C79.3283 21.5124 79.1479 21.5879 79.0148 21.7221C78.8817 21.8563 78.8068 22.0382 78.8066 22.228L78.8066 49.4114Z" fill="#3F3D56"/>
<path d="M99.4473 58.328L98.6755 60.1731L98.6862 60.1775L99.4473 58.328ZM78.5484 49.5853H76.5484V50.9165L77.7765 51.4303L78.5484 49.5853ZM78.5484 22.228L76.5484 22.2257V22.228H78.5484ZM79.5165 21.2519L79.5165 19.2519L79.5143 19.2519L79.5165 21.2519ZM119.533 21.2519L119.535 19.2519H119.533V21.2519ZM120.501 22.228L122.501 22.228L122.501 22.2257L120.501 22.228ZM120.501 49.6038L121.292 51.4408L122.501 50.9202V49.6038H120.501ZM100.249 58.3233L101.03 60.1645L101.04 60.1603L100.249 58.3233ZM78.8066 49.4114L76.8066 49.4114L76.8066 50.7427L78.0347 51.2565L78.8066 49.4114ZM99.5458 58.0874L98.7739 59.9324L98.7812 59.9355L98.7886 59.9385L99.5458 58.0874ZM100.148 58.0838L100.928 59.9257L100.939 59.9207L100.148 58.0838ZM120.243 49.432L121.034 51.269L122.243 50.7484V49.432H120.243ZM120.243 22.228L122.243 22.228L122.243 22.2256L120.243 22.228ZM119.533 21.5122L119.535 19.5122H119.533V21.5122ZM79.5165 21.5122L79.5165 19.5122L79.5142 19.5122L79.5165 21.5122ZM78.8066 22.228L76.8066 22.2256L76.8066 22.228L78.8066 22.228ZM99.84 56.4059C99.9668 56.4058 100.092 56.4306 100.209 56.4785L98.6862 60.1775C99.0534 60.3287 99.4469 60.4064 99.8446 60.4059L99.84 56.4059ZM100.219 56.483L79.3203 47.7402L77.7765 51.4303L98.6755 60.1731L100.219 56.483ZM80.5484 49.5853V22.228H76.5484V49.5853H80.5484ZM80.5484 22.2302C80.5481 22.4958 80.4435 22.7538 80.2523 22.9465L77.4123 20.1297C76.8581 20.6884 76.5493 21.4425 76.5484 22.2257L80.5484 22.2302ZM80.2523 22.9465C80.0605 23.1398 79.7971 23.2516 79.5188 23.2519L79.5143 19.2519C78.7226 19.2528 77.967 19.5704 77.4123 20.1297L80.2523 22.9465ZM79.5165 23.2519H119.533V19.2519H79.5165V23.2519ZM119.531 23.2519C119.252 23.2516 118.989 23.1398 118.797 22.9465L121.637 20.1297C121.082 19.5704 120.327 19.2528 119.535 19.2519L119.531 23.2519ZM118.797 22.9465C118.606 22.7538 118.501 22.4958 118.501 22.2302L122.501 22.2257C122.5 21.4425 122.191 20.6884 121.637 20.1297L118.797 22.9465ZM118.501 22.228V49.6038H122.501V22.228H118.501ZM119.71 47.7668L99.4583 56.4864L101.04 60.1603L121.292 51.4408L119.71 47.7668ZM99.4681 56.4822C99.5866 56.4319 99.7145 56.4058 99.844 56.4059L99.8405 60.4059C100.25 60.4063 100.654 60.3241 101.03 60.1645L99.4681 56.4822ZM78.0347 51.2565L98.7739 59.9324L100.318 56.2423L79.5784 47.5663L78.0347 51.2565ZM98.7886 59.9385C99.475 60.2193 100.245 60.2147 100.928 59.9256L99.369 56.2419C99.667 56.1158 100.003 56.1137 100.303 56.2363L98.7886 59.9385ZM100.939 59.9207L121.034 51.269L119.452 47.595L99.3575 56.2468L100.939 59.9207ZM122.243 49.432V22.228H118.243V49.432H122.243ZM122.243 22.2256C122.242 21.5115 121.961 20.8236 121.455 20.3137L118.615 23.1305C118.375 22.889 118.243 22.5649 118.243 22.2303L122.243 22.2256ZM121.455 20.3137C120.948 19.8032 120.258 19.513 119.535 19.5122L119.531 23.5122C119.184 23.5118 118.855 23.3726 118.615 23.1305L121.455 20.3137ZM119.533 19.5122H79.5165V23.5122H119.533V19.5122ZM79.5142 19.5122C78.791 19.513 78.1011 19.8032 77.5948 20.3137L80.4347 23.1305C80.1946 23.3726 79.8656 23.5118 79.5189 23.5122L79.5142 19.5122ZM77.5948 20.3137C77.089 20.8236 76.8074 21.5115 76.8066 22.2256L80.8066 22.2303C80.8062 22.5649 80.6743 22.889 80.4347 23.1305L77.5948 20.3137ZM76.8066 22.228L76.8066 49.4114L80.8066 49.4114L80.8066 22.228L76.8066 22.228Z" fill="#978383" mask="url(#path-15-inside-3)"/>
<mask id="path-17-inside-4" fill="white">
<path d="M135.217 43.1161H135.191L120.372 49.4957L100.097 58.2245C100.017 58.2581 99.9324 58.2756 99.8464 58.2761C99.7605 58.2765 99.6753 58.2599 99.5957 58.2271L78.6775 49.4775L63.4944 43.1265L63.4712 43.1161H63.4454C63.2058 43.1164 62.9762 43.2124 62.8068 43.3832C62.6374 43.554 62.5421 43.7856 62.5418 44.0271V83.5908C62.5421 83.8324 62.6374 84.0639 62.8068 84.2347C62.9762 84.4055 63.2058 84.5016 63.4454 84.5018H135.217C135.456 84.5016 135.686 84.4055 135.855 84.2347C136.025 84.0639 136.12 83.8324 136.12 83.5908V44.0271C136.12 43.7856 136.025 43.554 135.855 43.3832C135.686 43.2124 135.456 43.1164 135.217 43.1161V43.1161ZM135.862 83.5908C135.862 83.7634 135.794 83.9289 135.673 84.0509C135.552 84.1729 135.388 84.2415 135.217 84.2416H63.4454C63.2742 84.2415 63.1101 84.1729 62.9891 84.0509C62.8681 83.9289 62.8 83.7634 62.8 83.5908V44.0271C62.8002 43.8588 62.865 43.6971 62.9807 43.5759C63.0964 43.4546 63.2541 43.3831 63.4209 43.3764L78.6775 49.7586L99.4964 58.4679C99.7217 58.5603 99.9743 58.5589 100.199 58.464L120.372 49.7782L135.243 43.3764C135.409 43.3836 135.566 43.4553 135.682 43.5765C135.797 43.6977 135.862 43.8591 135.862 44.0271V83.5908Z"/>
</mask>
<path d="M135.217 43.1161H135.191L120.372 49.4957L100.097 58.2245C100.017 58.2581 99.9324 58.2756 99.8464 58.2761C99.7605 58.2765 99.6753 58.2599 99.5957 58.2271L78.6775 49.4775L63.4944 43.1265L63.4712 43.1161H63.4454C63.2058 43.1164 62.9762 43.2124 62.8068 43.3832C62.6374 43.554 62.5421 43.7856 62.5418 44.0271V83.5908C62.5421 83.8324 62.6374 84.0639 62.8068 84.2347C62.9762 84.4055 63.2058 84.5016 63.4454 84.5018H135.217C135.456 84.5016 135.686 84.4055 135.855 84.2347C136.025 84.0639 136.12 83.8324 136.12 83.5908V44.0271C136.12 43.7856 136.025 43.554 135.855 43.3832C135.686 43.2124 135.456 43.1164 135.217 43.1161V43.1161ZM135.862 83.5908C135.862 83.7634 135.794 83.9289 135.673 84.0509C135.552 84.1729 135.388 84.2415 135.217 84.2416H63.4454C63.2742 84.2415 63.1101 84.1729 62.9891 84.0509C62.8681 83.9289 62.8 83.7634 62.8 83.5908V44.0271C62.8002 43.8588 62.865 43.6971 62.9807 43.5759C63.0964 43.4546 63.2541 43.3831 63.4209 43.3764L78.6775 49.7586L99.4964 58.4679C99.7217 58.5603 99.9743 58.5589 100.199 58.464L120.372 49.7782L135.243 43.3764C135.409 43.3836 135.566 43.4553 135.682 43.5765C135.797 43.6977 135.862 43.8591 135.862 44.0271V83.5908Z" fill="#3F3D56"/>
<path d="M135.191 43.1161V41.1161H134.779L134.4 41.2791L135.191 43.1161ZM120.372 49.4957L119.581 47.6587L119.581 47.6587L120.372 49.4957ZM100.097 58.2245L100.877 60.0658L100.887 60.0615L100.097 58.2245ZM99.5957 58.2271L98.8239 60.0722L98.834 60.0764L99.5957 58.2271ZM78.6775 49.4775L77.9057 51.3226L77.9057 51.3226L78.6775 49.4775ZM63.4944 43.1265L62.6753 44.9511L62.6988 44.9616L62.7226 44.9716L63.4944 43.1265ZM63.4712 43.1161L64.2904 41.2915L63.8996 41.1161H63.4712V43.1161ZM63.4454 43.1161L63.4454 41.1161L63.4432 41.1161L63.4454 43.1161ZM62.5418 44.0271L60.5418 44.0249V44.0271H62.5418ZM62.5418 83.5908L60.5418 83.5908L60.5418 83.593L62.5418 83.5908ZM63.4454 84.5018L63.4432 86.5018H63.4454V84.5018ZM135.217 84.5018L135.217 86.5018L135.219 86.5018L135.217 84.5018ZM136.12 83.5908L138.12 83.593V83.5908H136.12ZM136.12 44.0271L138.12 44.0271L138.12 44.0249L136.12 44.0271ZM135.862 83.5908L137.862 83.5916V83.5908H135.862ZM135.217 84.2416L135.217 86.2416L135.218 86.2416L135.217 84.2416ZM63.4454 84.2416L63.4446 86.2416H63.4454V84.2416ZM62.8 83.5908L60.8 83.5908L60.8 83.5916L62.8 83.5908ZM62.8 44.0271L60.8 44.0243V44.0271H62.8ZM63.4209 43.3764L64.1927 41.5313L63.7834 41.3601L63.34 41.378L63.4209 43.3764ZM78.6775 49.7586L79.4493 47.9136L79.4493 47.9136L78.6775 49.7586ZM99.4964 58.4679L98.7245 60.313L98.7373 60.3182L99.4964 58.4679ZM100.199 58.464L100.978 60.3058L100.99 60.3009L100.199 58.464ZM120.372 49.7782L119.581 47.9411L119.581 47.9412L120.372 49.7782ZM135.243 43.3764L135.33 41.3783L134.872 41.3584L134.452 41.5394L135.243 43.3764ZM135.862 44.0271L137.862 44.0271L137.862 44.0225L135.862 44.0271ZM135.217 41.1161H135.191V45.1161H135.217V41.1161ZM134.4 41.2791L119.581 47.6587L121.163 51.3327L135.982 44.9531L134.4 41.2791ZM119.581 47.6587L99.3058 56.3875L100.887 60.0615L121.163 51.3327L119.581 47.6587ZM99.3157 56.3832C99.48 56.3136 99.6568 56.277 99.836 56.2761L99.8568 60.276C100.208 60.2742 100.555 60.2026 100.877 60.0658L99.3157 56.3832ZM99.836 56.2761C100.015 56.2752 100.192 56.3099 100.357 56.3778L98.834 60.0764C99.1581 60.2099 99.5057 60.2779 99.8568 60.276L99.836 56.2761ZM100.367 56.382L79.4492 47.6324L77.9057 51.3226L98.8239 60.0722L100.367 56.382ZM79.4493 47.6324L64.2662 41.2814L62.7226 44.9716L77.9057 51.3226L79.4493 47.6324ZM64.3136 41.302L64.2904 41.2915L62.6521 44.9406L62.6753 44.9511L64.3136 41.302ZM63.4712 41.1161H63.4454V45.1161H63.4712V41.1161ZM63.4432 41.1161C62.6687 41.117 61.9294 41.4277 61.3868 41.9748L64.2267 44.7916C64.0229 44.9972 63.743 45.1158 63.4476 45.1161L63.4432 41.1161ZM61.3868 41.9748C60.8447 42.5213 60.5427 43.2589 60.5418 44.0249L64.5418 44.0293C64.5415 44.3122 64.43 44.5867 64.2267 44.7916L61.3868 41.9748ZM60.5418 44.0271V83.5908H64.5418V44.0271H60.5418ZM60.5418 83.593C60.5427 84.359 60.8447 85.0966 61.3868 85.6431L64.2267 82.8263C64.43 83.0313 64.5415 83.3057 64.5418 83.5886L60.5418 83.593ZM61.3868 85.6431C61.9294 86.1902 62.6686 86.501 63.4432 86.5018L63.4476 82.5018C63.743 82.5022 64.0229 82.6208 64.2267 82.8263L61.3868 85.6431ZM63.4454 86.5018H135.217V82.5018H63.4454V86.5018ZM135.219 86.5018C135.994 86.501 136.733 86.1902 137.275 85.6431L134.435 82.8263C134.639 82.6208 134.919 82.5022 135.215 82.5018L135.219 86.5018ZM137.275 85.6431C137.818 85.0966 138.12 84.359 138.12 83.593L134.12 83.5886C134.121 83.3057 134.232 83.0312 134.435 82.8263L137.275 85.6431ZM138.12 83.5908V44.0271H134.12V83.5908H138.12ZM138.12 44.0249C138.12 43.2589 137.818 42.5213 137.275 41.9748L134.435 44.7916C134.232 44.5867 134.121 44.3122 134.12 44.0293L138.12 44.0249ZM137.275 41.9748C136.733 41.4277 135.994 41.117 135.219 41.1161L135.215 45.1161C134.919 45.1158 134.639 44.9972 134.435 44.7916L137.275 41.9748ZM133.862 83.59C133.862 83.2377 134.001 82.8966 134.253 82.6425L137.093 85.4593C137.587 84.9612 137.862 84.2891 137.862 83.5916L133.862 83.59ZM134.253 82.6425C134.506 82.3878 134.852 82.2417 135.216 82.2416L135.218 86.2416C135.924 86.2413 136.598 85.958 137.093 85.4593L134.253 82.6425ZM135.217 82.2416H63.4454V86.2416H135.217V82.2416ZM63.4462 82.2416C63.8105 82.2417 64.1565 82.3878 64.4091 82.6425L61.5691 85.4593C62.0638 85.958 62.738 86.2413 63.4446 86.2416L63.4462 82.2416ZM64.4091 82.6425C64.6611 82.8966 64.7998 83.2377 64.8 83.59L60.8 83.5916C60.8003 84.2891 61.075 84.9612 61.5691 85.4593L64.4091 82.6425ZM64.8 83.5908V44.0271H60.8V83.5908H64.8ZM64.8 44.0299C64.7995 44.3726 64.6678 44.7049 64.4276 44.9566L61.5337 42.1952C61.0621 42.6894 60.8009 43.345 60.8 44.0243L64.8 44.0299ZM64.4276 44.9566C64.187 45.2087 63.8557 45.3604 63.5018 45.3747L63.34 41.378C62.6525 41.4058 62.0058 41.7005 61.5337 42.1952L64.4276 44.9566ZM62.649 45.2214L77.9056 51.6037L79.4493 47.9136L64.1927 41.5313L62.649 45.2214ZM77.9056 51.6037L98.7245 60.3129L100.268 56.6228L79.4493 47.9136L77.9056 51.6037ZM98.7373 60.3182C99.4562 60.6131 100.263 60.6086 100.978 60.3058L99.4191 56.6221C99.6859 56.5092 99.9873 56.5075 100.255 56.6175L98.7373 60.3182ZM100.99 60.3009L121.163 51.6151L119.581 47.9412L99.4077 56.627L100.99 60.3009ZM121.163 51.6152L136.033 45.2134L134.452 41.5394L119.581 47.9411L121.163 51.6152ZM135.156 45.3745C134.803 45.3591 134.473 45.2073 134.233 44.9556L137.13 42.1974C136.66 41.7034 136.015 41.4081 135.33 41.3783L135.156 45.3745ZM134.233 44.9556C133.994 44.7045 133.863 44.3733 133.862 44.0317L137.862 44.0225C137.861 43.3448 137.6 42.6909 137.13 42.1974L134.233 44.9556ZM133.862 44.0271V83.5908H137.862V44.0271H133.862Z" fill="#978383" mask="url(#path-17-inside-4)"/>
<path d="M100.453 51.0262C107.538 51.0262 113.281 45.144 113.281 37.8879C113.281 30.6318 107.538 24.7496 100.453 24.7496C93.3686 24.7496 87.6254 30.6318 87.6254 37.8879C87.6254 45.144 93.3686 51.0262 100.453 51.0262Z" fill="#6C63FF"/>
<path d="M105.767 43.6124H95.1388C94.9444 43.6123 94.7581 43.5331 94.6207 43.3923C94.4832 43.2516 94.406 43.0607 94.4058 42.8617V36.2925C94.406 36.0935 94.4833 35.9027 94.6207 35.7619C94.7581 35.6212 94.9444 35.542 95.1388 35.5418H105.767C105.962 35.542 106.148 35.6212 106.286 35.7619C106.423 35.9027 106.5 36.0935 106.5 36.2925V42.8617C106.5 43.0607 106.423 43.2516 106.286 43.3923C106.148 43.5331 105.962 43.6123 105.767 43.6124ZM95.1388 36.2925V42.8617H105.768L105.767 36.2925L95.1388 36.2925Z" fill="white"/>
<path d="M103.752 36.2925H97.1546V33.2895C97.1546 31.1144 98.5419 29.5357 100.453 29.5357C102.364 29.5357 103.752 31.1144 103.752 33.2895L103.752 36.2925ZM97.8876 35.5418H103.019V33.2895C103.019 31.5214 101.964 30.2865 100.453 30.2865C98.9426 30.2865 97.8876 31.5214 97.8876 33.2895L97.8876 35.5418Z" fill="white"/>
<path d="M100.453 40.1402C100.858 40.1402 101.186 39.8041 101.186 39.3894C101.186 38.9748 100.858 38.6387 100.453 38.6387C100.048 38.6387 99.7202 38.9748 99.7202 39.3894C99.7202 39.8041 100.048 40.1402 100.453 40.1402Z" fill="white"/>
</svg>
