<svg width="631" height="470" viewBox="0 0 631 470" fill="none" xmlns="http://www.w3.org/2000/svg">
<path d="M629.304 451.769H144.691C144.242 451.768 143.812 451.592 143.495 451.28C143.178 450.969 143 450.547 143 450.107C143 449.666 143.178 449.244 143.495 448.933C143.812 448.621 144.242 448.445 144.691 448.444H629.304C629.754 448.444 630.185 448.619 630.503 448.931C630.821 449.243 631 449.666 631 450.107C631 450.547 630.821 450.97 630.503 451.282C630.185 451.594 629.754 451.769 629.304 451.769V451.769Z" fill="#3F3D56"/>
<path d="M400.576 250.18C426.531 250.18 447.572 229.551 447.572 204.105C447.572 178.659 426.531 158.03 400.576 158.03C374.621 158.03 353.581 178.659 353.581 204.105C353.581 229.551 374.621 250.18 400.576 250.18Z" fill="#2F2E41"/>
<path d="M401.529 266.816C420.847 266.816 436.507 251.463 436.507 232.524C436.507 213.585 420.847 198.231 401.529 198.231C382.212 198.231 366.552 213.585 366.552 232.524C366.552 251.463 382.212 266.816 401.529 266.816Z" fill="#A0616A"/>
<path d="M454.692 269.727C454.692 269.727 390.608 258.557 349.309 272.519L361.414 366.763L358.565 382.121L444.011 379.329L438.315 363.97L454.692 269.727Z" fill="#A0616A"/>
<path d="M410.158 371.425C395.405 371.252 380.67 370.337 366.013 368.682C363.002 368.358 360.226 366.938 358.232 364.702C356.238 362.467 355.172 359.58 355.245 356.612L356.284 312.537L356.405 312.365C368.787 294.782 362.756 281.94 358.116 275.026C357.137 273.566 356.616 271.856 356.618 270.108V270.108C355.907 269.137 355.746 270.674 356.188 269.579C356.407 269.036 356.761 268.555 357.217 268.18C357.674 267.805 358.219 267.548 358.803 267.432L365.872 266.047C366.721 265.88 367.602 266.022 368.351 266.447C369.1 266.871 369.666 267.548 369.943 268.352C372.318 275.301 381.577 297.66 402.791 297.655C420.514 297.651 427.127 273.066 427.524 267.384C427.588 266.504 427.99 265.681 428.649 265.079C429.307 264.478 430.173 264.143 431.073 264.142H439.904C440.462 264.129 441.017 264.239 441.527 264.465C442.036 264.691 442.487 265.026 442.846 265.446C443.286 265.981 443.554 266.631 443.616 267.315C443.678 267.999 443.531 268.686 443.194 269.288C433.116 287.452 447.843 316.194 447.993 316.482L448.088 316.663L443.933 358.958C443.681 361.44 442.643 363.781 440.963 365.654C439.284 367.526 437.048 368.835 434.57 369.397C428.144 370.879 419.461 371.425 410.158 371.425Z" fill="#CCCCCC"/>
<path d="M328.837 469.565C319.268 469.567 310.506 468.532 303.546 466.09C295.272 463.187 290.077 458.492 288.103 452.135C287.171 449.43 286.892 446.55 287.289 443.722C287.686 440.893 288.748 438.194 290.391 435.837C302.631 417.867 345.106 412.804 350.805 412.201L353.825 387.534C354.182 384.687 355.576 382.063 357.749 380.143C359.922 378.222 362.729 377.136 365.654 377.082L437.19 375.987C440.062 375.92 442.864 376.867 445.084 378.655C447.305 380.443 448.796 382.953 449.288 385.729L453.353 407.65L406.446 429.947L413.539 449.417L413.076 449.72C399.346 458.694 359.866 469.564 328.837 469.565Z" fill="#2F2E41"/>
<path d="M446.86 404.46C446.86 404.46 512.368 396.083 508.096 429.592C503.824 463.101 453.98 486.836 378.503 429.592L387.047 412.838C387.047 412.838 429.77 424.007 446.86 415.63V404.46Z" fill="#2F2E41"/>
<path d="M388.472 417.026C388.472 417.026 388.472 400.272 374.23 401.668C359.989 403.064 334.356 404.461 334.356 404.461C334.356 404.461 325.811 410.045 337.204 412.838C348.597 415.63 382.775 429.592 382.775 429.592L388.472 417.026Z" fill="#A0616A"/>
<path d="M412.681 414.234C412.681 414.234 412.681 397.479 426.922 398.876C441.163 400.272 466.797 401.668 466.797 401.668C466.797 401.668 475.342 407.253 463.949 410.045C452.556 412.838 418.378 426.8 418.378 426.8L412.681 414.234Z" fill="#A0616A"/>
<path d="M498.015 411.06L476.766 338.839C476.766 338.839 472.494 313.707 468.221 289.972C463.949 266.236 448.284 269.028 448.284 269.028L445.436 270.425V308.122L448.284 343.027L476.717 419.685C475.879 422.343 475.831 425.181 476.577 427.865C477.323 430.55 478.832 432.97 480.929 434.845C483.026 436.72 485.624 437.971 488.419 438.452C491.214 438.933 494.091 438.625 496.714 437.562C499.337 436.5 501.598 434.728 503.232 432.454C504.866 430.179 505.806 427.495 505.943 424.716C506.079 421.937 505.406 419.177 504.003 416.759C502.599 414.341 500.522 412.364 498.015 411.06Z" fill="#A0616A"/>
<path d="M354.293 271.821C354.293 271.821 338.628 269.028 334.356 292.764C330.083 316.499 325.811 341.631 325.811 341.631L304.561 413.853C302.057 415.157 299.984 417.133 298.582 419.55C297.181 421.967 296.51 424.725 296.647 427.502C296.784 430.278 297.724 432.96 299.358 435.232C300.991 437.505 303.25 439.275 305.87 440.337C308.491 441.398 311.366 441.706 314.159 441.226C316.952 440.746 319.548 439.496 321.644 437.624C323.74 435.751 325.249 433.333 325.996 430.651C326.742 427.969 326.695 425.134 325.86 422.477L354.293 345.82L357.141 310.915V276.339C357.141 275.401 356.875 274.481 356.372 273.683C355.869 272.885 355.149 272.24 354.293 271.821V271.821Z" fill="#A0616A"/>
<path d="M366.906 198.891C380.566 207.066 395.965 212.041 411.906 213.428L407.163 207.856C410.617 209.108 414.251 209.816 417.931 209.952C419.773 210.005 421.602 209.633 423.271 208.867C424.941 208.101 426.403 206.962 427.543 205.542C428.473 204.067 429.026 202.393 429.154 200.663C429.281 198.933 428.981 197.199 428.277 195.608C426.831 192.434 424.581 189.676 421.741 187.595C416.707 183.691 410.765 181.068 404.446 179.961C398.128 178.854 391.627 179.297 385.525 181.25C381.34 182.476 377.591 184.834 374.709 188.052C373.292 189.674 372.308 191.615 371.845 193.701C371.382 195.787 371.454 197.953 372.056 200.005" fill="#2F2E41"/>
<path d="M180.758 190.193L181.203 190.063L181.366 190.497C183.24 195.485 186.751 200.066 191.604 203.822C196.456 207.578 202.493 210.386 209.178 211.986C215.862 213.585 222.977 213.924 229.882 212.971C236.788 212.019 243.261 209.805 248.722 206.535C254.184 203.266 258.456 199.048 261.171 194.27C263.884 189.494 264.962 184.303 264.32 179.157C263.677 174.009 261.331 169.045 257.471 164.712C253.609 160.377 248.355 156.812 242.169 154.347L242.354 153.882L241.983 153.547C259.575 134.05 267.191 110.527 263.499 87.2407C259.805 63.9484 245.032 42.3761 221.8 26.4567C198.568 10.5367 168.433 1.34049 136.86 0.554839C105.287 -0.230809 74.3944 7.44676 49.7845 22.1794C25.1746 36.9122 8.50049 57.7082 2.73105 80.7705C-3.03635 103.825 2.46118 127.669 18.2646 147.989C34.0735 168.317 59.1527 183.774 88.9772 191.527C118.8 199.279 151.364 198.805 180.758 190.193Z" fill="#C9D1EE" stroke="#36344D"/>
<circle r="18.5" transform="matrix(-1 0 0 1 278 231)" fill="#C9D1EE" stroke="#36344D"/>
<path d="M405 163.145C393.968 152.177 380.618 143.713 365.89 138.349C356.435 134.915 346.145 132.794 336.261 134.744C326.377 136.694 317.03 143.398 314.272 152.905C312.018 160.68 314.346 169.051 317.845 176.369C321.344 183.688 326.016 190.475 328.846 198.066C331.733 205.812 332.601 214.143 331.372 222.302C330.142 230.46 326.854 238.189 321.805 244.785C316.756 251.382 310.107 256.638 302.461 260.076C294.815 263.514 286.414 265.025 278.021 264.473C287.732 265.75 296.684 270.224 306.176 272.606C315.669 274.987 326.873 274.826 333.927 268.158C341.39 261.104 341.54 249.635 341.179 239.477C340.643 224.377 340.106 209.277 339.57 194.177C339.296 186.476 339.063 178.529 341.895 171.341C344.728 164.154 351.46 157.86 359.319 157.926C365.275 157.975 370.547 161.513 375.324 165.001C380.1 168.49 385.156 172.212 391.089 172.731C397.022 173.25 403.797 168.946 403.353 163.122" fill="#2F2E41"/>
<path d="M94.4125 72.2891L94.2522 72.2685L94.6431 73.7199C95.0126 75.7448 95.5492 77.7372 96.2476 79.6776L107.712 122.247C108.078 123.606 108.842 124.831 109.911 125.771C110.979 126.712 112.305 127.327 113.727 127.542L137.107 131.075C138.619 131.304 140.166 131.068 141.535 130.401C142.904 129.734 144.027 128.668 144.749 127.35L166.968 86.8134C167.662 85.6903 168.296 84.5329 168.868 83.3459L169.623 81.9695L169.505 81.9544C171.861 76.5121 172.897 70.612 172.535 64.714C172.172 58.816 170.42 53.0795 167.414 47.9516C164.409 42.8238 160.232 38.4431 155.209 35.1512C150.186 31.8592 144.452 29.7448 138.454 28.9729C132.457 28.201 126.358 28.7924 120.633 30.7009C114.909 32.6095 109.712 35.7837 105.45 39.9761C101.187 44.1685 97.9732 49.2658 96.0587 54.8707C94.1443 60.4756 93.5809 66.4366 94.4125 72.2891H94.4125Z" fill="#3F3D56"/>
<path d="M138.542 133.856C138.13 133.856 137.719 133.826 137.312 133.764L112.873 130.071C111.321 129.837 109.872 129.165 108.706 128.137C107.539 127.11 106.705 125.773 106.305 124.289L94.3217 79.7919C93.5894 77.7549 93.0265 75.6634 92.6386 73.5379L92.3355 71.5913C91.5201 65.3723 92.1958 59.0534 94.3093 53.1333C96.4227 47.2131 99.9161 41.8539 104.514 37.4786C109.111 33.1032 114.687 29.8316 120.801 27.922C126.915 26.0124 133.399 25.517 139.743 26.475L139.637 27.1412C133.362 26.1967 126.949 26.6977 120.908 28.604C114.867 30.5103 109.366 33.7692 104.843 38.1207C100.32 42.4723 96.9012 47.7961 94.8587 53.6673C92.8162 59.5386 92.2068 65.7949 93.079 71.937L93.312 73.3931C93.697 75.5006 94.2551 77.5745 94.981 79.5945L106.973 124.117C107.338 125.474 108.101 126.697 109.168 127.637C110.235 128.576 111.559 129.19 112.979 129.405L137.418 133.098C138.927 133.324 140.471 133.088 141.838 132.422C143.204 131.756 144.326 130.693 145.048 129.378L145.657 129.696C144.966 130.953 143.94 132.003 142.687 132.736C141.435 133.468 140.002 133.855 138.542 133.856V133.856Z" fill="#D0CDE1"/>
<path d="M144.741 81.9652L129.871 121.624L130.709 121.924L145.58 82.265L144.741 81.9652Z" fill="#D0CDE1"/>
<path d="M120.462 78.2956L119.57 78.3339L121.468 120.528L122.36 120.49L120.462 78.2956Z" fill="#D0CDE1"/>
<path d="M136.476 154.03L105.16 149.297C104.927 149.261 104.719 149.136 104.58 148.95C104.441 148.763 104.384 148.531 104.42 148.303C104.456 148.076 104.583 147.871 104.773 147.735C104.962 147.598 105.2 147.54 105.433 147.574L136.749 152.306C136.865 152.323 136.977 152.362 137.078 152.422C137.179 152.481 137.267 152.559 137.336 152.652C137.406 152.744 137.457 152.849 137.485 152.961C137.513 153.072 137.518 153.188 137.5 153.302C137.482 153.416 137.441 153.525 137.38 153.623C137.319 153.721 137.238 153.806 137.143 153.874C137.048 153.941 136.94 153.99 136.825 154.017C136.711 154.043 136.592 154.048 136.476 154.03V154.03Z" fill="#3F3D56"/>
<path d="M137.279 147.534L105.963 142.802C105.847 142.785 105.735 142.746 105.634 142.687C105.534 142.627 105.446 142.549 105.376 142.457C105.306 142.364 105.256 142.259 105.228 142.147C105.2 142.036 105.195 141.92 105.213 141.806C105.231 141.693 105.271 141.584 105.333 141.486C105.394 141.387 105.474 141.302 105.569 141.234C105.665 141.167 105.773 141.118 105.887 141.092C106.001 141.065 106.12 141.06 106.236 141.079L137.552 145.811C137.668 145.828 137.78 145.867 137.881 145.926C137.982 145.985 138.07 146.064 138.139 146.156C138.209 146.249 138.26 146.354 138.288 146.465C138.316 146.577 138.321 146.693 138.303 146.806C138.285 146.92 138.244 147.029 138.183 147.127C138.121 147.225 138.041 147.311 137.946 147.378C137.851 147.446 137.743 147.494 137.628 147.521C137.514 147.548 137.395 147.552 137.279 147.534V147.534Z" fill="#3F3D56"/>
<path d="M138.082 141.038L106.766 136.306C106.533 136.27 106.325 136.145 106.186 135.958C106.047 135.772 105.99 135.54 106.026 135.312C106.062 135.084 106.189 134.88 106.379 134.743C106.568 134.607 106.806 134.549 107.039 134.583L138.355 139.315C138.588 139.352 138.796 139.477 138.935 139.663C139.074 139.849 139.132 140.082 139.096 140.309C139.059 140.537 138.933 140.741 138.743 140.878C138.553 141.015 138.315 141.072 138.082 141.038H138.082Z" fill="#3F3D56"/>
<path d="M119.845 157.809C126.056 158.748 131.628 156.128 132.288 151.956L109.794 148.557C109.133 152.728 113.633 156.871 119.845 157.809Z" fill="#3F3D56"/>
<path d="M131.102 73.6098C129.765 73.4081 128.66 72.3765 128.054 71.685C127.855 71.4584 127.662 71.2232 127.468 70.9875C126.762 70.1294 126.095 69.319 125.167 68.8963C123.119 67.9628 120.705 69.2667 118.615 70.6657L118.111 69.9467C120.408 68.4081 123.087 66.9868 125.545 68.106C126.661 68.6146 127.425 69.5433 128.164 70.4413C128.352 70.6701 128.539 70.8981 128.732 71.118C129.362 71.8368 130.619 73.0016 131.965 72.733C132.533 72.5714 133.061 72.2985 133.517 71.9309C133.864 71.6777 134.231 71.4516 134.614 71.2543C135.392 70.8902 136.262 70.7587 137.116 70.8766C137.97 70.9945 138.769 71.3564 139.413 71.9168C139.642 72.1292 139.86 72.3537 140.064 72.5894C140.466 73.0365 140.845 73.4584 141.338 73.6118C142.068 73.8397 142.839 73.4324 143.656 73.0021C144.498 72.5579 145.369 72.0985 146.357 72.2118C146.39 72.2156 146.422 72.2199 146.454 72.2247C148.212 72.4904 149.023 74.3896 149.481 75.8071L148.63 76.0696C148.007 74.1429 147.248 73.1847 146.253 73.0779C145.545 72.9966 144.833 73.3719 144.08 73.7692C143.135 74.2674 142.157 74.7825 141.067 74.4426C140.337 74.2158 139.857 73.6814 139.393 73.1646C139.21 72.953 139.016 72.7513 138.81 72.5602C138.298 72.1216 137.665 71.8385 136.99 71.7453C136.316 71.6521 135.628 71.753 135.011 72.0356C134.669 72.2131 134.342 72.4161 134.032 72.6427C133.478 73.0839 132.835 73.4058 132.145 73.5872C131.801 73.6555 131.448 73.6632 131.102 73.6098Z" fill="#D0CDE1"/>
</svg>
