<svg width="250" height="200" viewBox="0 0 250 200" fill="none" xmlns="http://www.w3.org/2000/svg">
<path d="M249.328 192.42H57.326C57.1482 192.42 56.9778 192.345 56.8522 192.212C56.7266 192.079 56.6561 191.899 56.6561 191.712C56.6561 191.525 56.7266 191.345 56.8522 191.212C56.9778 191.079 57.1482 191.004 57.326 191.004H249.328C249.506 191.004 249.677 191.079 249.803 191.211C249.929 191.344 250 191.524 250 191.712C250 191.9 249.929 192.08 249.803 192.213C249.677 192.345 249.506 192.42 249.328 192.42V192.42Z" fill="#3F3D56"/>
<path d="M158.707 106.558C168.99 106.558 177.326 97.7718 177.326 86.9336C177.326 76.0953 168.99 67.3091 158.707 67.3091C148.424 67.3091 140.088 76.0953 140.088 86.9336C140.088 97.7718 148.424 106.558 158.707 106.558Z" fill="#2F2E41"/>
<path d="M159.085 113.644C166.738 113.644 172.942 107.104 172.942 99.0378C172.942 90.9712 166.738 84.4319 159.085 84.4319C151.431 84.4319 145.227 90.9712 145.227 99.0378C145.227 107.104 151.431 113.644 159.085 113.644Z" fill="#A0616A"/>
<path d="M180.147 114.883C180.147 114.883 154.757 110.126 138.395 116.073L143.191 156.214L142.062 162.755L175.916 161.566L173.659 155.024L180.147 114.883Z" fill="#A0616A"/>
<path d="M162.503 158.199C156.658 158.126 150.82 157.736 145.013 157.031C143.82 156.893 142.72 156.288 141.93 155.336C141.14 154.384 140.718 153.155 140.747 151.89L141.159 133.118L141.207 133.044C146.112 125.555 143.723 120.086 141.885 117.141C141.496 116.519 141.29 115.791 141.291 115.046V115.046C141.009 114.633 140.945 115.287 141.121 114.821C141.207 114.589 141.347 114.384 141.528 114.225C141.709 114.065 141.925 113.956 142.156 113.906L144.957 113.316C145.293 113.245 145.643 113.306 145.939 113.487C146.236 113.667 146.46 113.956 146.57 114.298C147.511 117.258 151.179 126.781 159.584 126.779C166.606 126.777 169.226 116.306 169.383 113.886C169.409 113.511 169.568 113.16 169.829 112.904C170.09 112.648 170.433 112.505 170.79 112.505H174.288C174.51 112.499 174.729 112.546 174.931 112.643C175.133 112.739 175.312 112.882 175.454 113.06C175.628 113.288 175.735 113.565 175.759 113.856C175.784 114.148 175.725 114.44 175.592 114.697C171.599 122.433 177.434 134.675 177.493 134.798L177.531 134.875L175.885 152.89C175.785 153.946 175.374 154.944 174.708 155.741C174.043 156.539 173.157 157.096 172.175 157.336C169.629 157.967 166.189 158.199 162.503 158.199Z" fill="#CCCCCC"/>
<path d="M130.284 200C126.493 200.001 123.021 199.56 120.264 198.52C116.986 197.283 114.927 195.284 114.145 192.576C113.776 191.424 113.666 190.197 113.823 188.992C113.98 187.788 114.401 186.638 115.052 185.634C119.901 177.981 136.73 175.824 138.988 175.567L140.184 165.061C140.326 163.848 140.878 162.73 141.739 161.913C142.6 161.095 143.712 160.632 144.871 160.609L173.213 160.142C174.351 160.114 175.461 160.518 176.341 161.279C177.221 162.041 177.812 163.11 178.006 164.292L179.617 173.628L161.033 183.125L163.843 191.418L163.659 191.547C158.22 195.37 142.578 199.999 130.284 200Z" fill="#2F2E41"/>
<path d="M177.044 172.27C177.044 172.27 202.999 168.702 201.306 182.974C199.613 197.247 179.865 207.356 149.961 182.974L153.347 175.838C153.347 175.838 170.274 180.596 177.044 177.028V172.27Z" fill="#2F2E41"/>
<path d="M153.911 177.622C153.911 177.622 153.911 170.486 148.269 171.081C142.627 171.676 132.471 172.27 132.471 172.27C132.471 172.27 129.085 174.649 133.599 175.838C138.113 177.028 151.654 182.974 151.654 182.974L153.911 177.622Z" fill="#A0616A"/>
<path d="M163.503 176.433C163.503 176.433 163.503 169.297 169.145 169.891C174.787 170.486 184.943 171.081 184.943 171.081C184.943 171.081 188.329 173.46 183.815 174.649C179.301 175.838 165.76 181.785 165.76 181.785L163.503 176.433Z" fill="#A0616A"/>
<path d="M197.312 175.081L188.893 144.32C188.893 144.32 187.2 133.616 185.508 123.506C183.815 113.397 177.608 114.586 177.608 114.586L176.48 115.181V131.237L177.608 146.104L188.873 178.755C188.542 179.887 188.522 181.095 188.818 182.239C189.114 183.382 189.712 184.413 190.542 185.212C191.373 186.01 192.403 186.543 193.51 186.748C194.617 186.953 195.757 186.822 196.796 186.369C197.836 185.917 198.731 185.162 199.379 184.193C200.026 183.224 200.399 182.081 200.453 180.898C200.507 179.714 200.24 178.538 199.684 177.508C199.128 176.479 198.305 175.637 197.312 175.081Z" fill="#A0616A"/>
<path d="M140.37 115.775C140.37 115.775 134.163 114.586 132.471 124.696C130.778 134.805 129.085 145.509 129.085 145.509L120.666 176.27C119.674 176.826 118.853 177.668 118.297 178.697C117.742 179.727 117.476 180.901 117.531 182.084C117.585 183.267 117.957 184.409 118.604 185.377C119.251 186.345 120.146 187.099 121.185 187.551C122.223 188.003 123.362 188.134 124.469 187.93C125.575 187.725 126.604 187.193 127.434 186.395C128.264 185.598 128.862 184.568 129.158 183.425C129.454 182.283 129.436 181.076 129.105 179.944L140.37 147.294L141.498 132.427V117.7C141.498 117.3 141.393 116.909 141.193 116.569C140.994 116.229 140.709 115.954 140.37 115.775V115.775Z" fill="#A0616A"/>
<path d="M145.367 84.7129C150.779 88.1949 156.88 90.3138 163.196 90.9047L161.317 88.5313C162.685 89.0645 164.125 89.3659 165.583 89.4241C166.313 89.4464 167.037 89.2881 167.699 88.9619C168.36 88.6356 168.94 88.1505 169.391 87.5455C169.76 86.9172 169.979 86.2043 170.029 85.4675C170.08 84.7308 169.961 83.992 169.682 83.3143C169.109 81.9625 168.218 80.7878 167.092 79.9018C165.098 78.2388 162.744 77.1217 160.24 76.6501C157.737 76.1786 155.161 76.3671 152.744 77.199C151.085 77.7213 149.6 78.7255 148.458 80.0964C147.897 80.7869 147.507 81.6136 147.324 82.5022C147.14 83.3907 147.169 84.3134 147.407 85.1873" fill="#2F2E41"/>
<path d="M71.521 80.7356L71.9833 80.59L72.1432 81.0475C72.8675 83.1197 74.2261 85.0285 76.1112 86.597C77.9967 88.1659 80.3466 89.3422 82.9541 90.013C85.5613 90.6837 88.3376 90.8261 91.0323 90.4264C93.7272 90.0267 96.2494 89.0984 98.3741 87.731C100.499 86.3637 102.155 84.6035 103.205 82.616C104.255 80.6301 104.67 78.4744 104.422 76.3387C104.174 74.2023 103.268 72.1381 101.772 70.3324C100.275 68.5257 98.2332 67.0349 95.8229 66.0021L96.0198 65.5425L95.6368 65.221C102.558 56.9745 105.549 47.0337 104.098 37.1977C102.647 27.3584 96.8406 18.2349 87.6919 11.4955C78.5418 4.75499 66.6656 0.856307 54.215 0.523245C41.7646 0.190185 29.5878 3.44544 19.8933 9.68452C10.1996 15.9231 3.64414 24.7206 1.37682 34.4639C-0.889412 44.2025 1.2692 54.2777 7.48511 62.8702C13.7045 71.4675 23.5793 78.0151 35.3372 81.3007C47.0944 84.5862 59.9338 84.3854 71.521 80.7356Z" fill="#C9D1EE" stroke="#36344D"/>
<path d="M103.115 98.3889C103.115 102.617 106.295 105.981 110.143 105.981C113.99 105.981 117.17 102.617 117.17 98.3889C117.17 94.1609 113.99 90.7963 110.143 90.7963C106.295 90.7963 103.115 94.1609 103.115 98.3889Z" fill="#C9D1EE" stroke="#36344D"/>
<path d="M160.46 69.4876C156.089 64.816 150.8 61.2111 144.964 58.9265C141.218 57.464 137.142 56.5603 133.226 57.3909C129.31 58.2215 125.606 61.0768 124.514 65.1264C123.62 68.4378 124.543 72.0031 125.929 75.1203C127.315 78.2375 129.166 81.128 130.288 84.3615C131.431 87.6608 131.776 91.209 131.288 94.684C130.801 98.159 129.498 101.451 127.498 104.26C125.498 107.07 122.863 109.309 119.834 110.773C116.805 112.237 113.476 112.881 110.151 112.646C113.999 113.19 117.545 115.095 121.306 116.11C125.067 117.124 129.506 117.055 132.301 114.216C135.258 111.211 135.317 106.326 135.174 101.999C134.961 95.5679 134.749 89.1365 134.536 82.705C134.428 79.4251 134.335 76.0401 135.458 72.9787C136.58 69.9174 139.247 67.2367 142.361 67.2646C144.721 67.2857 146.809 68.7924 148.702 70.2784C150.595 71.7643 152.598 73.3497 154.948 73.5708C157.299 73.7918 159.983 71.9583 159.807 69.4779" fill="#2F2E41"/>
<path d="M37.4059 30.7898L37.3424 30.781L37.4973 31.3992C37.6437 32.2616 37.8563 33.1103 38.133 33.9367L42.6753 52.0683C42.8203 52.647 43.123 53.1687 43.5463 53.5693C43.9696 53.9699 44.495 54.232 45.0582 54.3235L54.3214 55.8283C54.9204 55.9256 55.5334 55.8252 56.0757 55.541C56.618 55.2568 57.0629 54.8029 57.349 54.2418L66.1521 36.976C66.4272 36.4977 66.6785 36.0047 66.9051 35.4991L67.204 34.9129L67.1574 34.9065C68.0906 32.5884 68.5013 30.0754 68.3576 27.5633C68.214 25.0512 67.5197 22.6079 66.3291 20.4238C65.1384 18.2397 63.4834 16.3739 61.4932 14.9718C59.503 13.5696 57.2313 12.6691 54.8552 12.3403C52.4791 12.0115 50.0628 12.2634 47.7946 13.0763C45.5264 13.8892 43.4676 15.2412 41.7788 17.0268C40.09 18.8125 38.8167 20.9836 38.0582 23.3708C37.2997 25.7581 37.0764 28.2971 37.4059 30.7898H37.4059Z" fill="#3F3D56"/>
<path d="M54.8899 57.0129C54.7267 57.0129 54.5638 56.9998 54.4026 56.9735L44.7199 55.4005C44.1049 55.3007 43.5311 55.0145 43.0688 54.577C42.6065 54.1396 42.276 53.5698 42.1178 52.9379L37.3699 33.9854C37.0797 33.1178 36.8567 32.227 36.7031 31.3217L36.583 30.4926C36.2599 27.8438 36.5276 25.1524 37.365 22.6308C38.2023 20.1093 39.5864 17.8266 41.4079 15.9631C43.2294 14.0995 45.4385 12.7061 47.8608 11.8927C50.2831 11.0794 52.8523 10.8684 55.3655 11.2764L55.3236 11.5601C52.8377 11.1579 50.2967 11.3712 47.9033 12.1832C45.5098 12.9951 43.3302 14.3832 41.5383 16.2366C39.7465 18.0901 38.3919 20.3576 37.5826 22.8583C36.7734 25.359 36.532 28.0237 36.8775 30.6398L36.9699 31.26C37.1224 32.1577 37.3435 33.041 37.6311 33.9013L42.3823 52.8648C42.5269 53.4427 42.8291 53.9637 43.2519 54.3638C43.6746 54.7638 44.1993 55.0255 44.7617 55.1168L54.4444 56.6898C55.0424 56.7863 55.6543 56.6858 56.1957 56.4021C56.7371 56.1184 57.1814 55.6654 57.4675 55.1056L57.7086 55.241C57.4351 55.7762 57.0285 56.2235 56.5322 56.5355C56.0359 56.8475 55.4683 57.0125 54.8899 57.0129V57.0129Z" fill="#D0CDE1"/>
<path d="M57.346 34.9111L51.4545 51.8027L51.7865 51.9304L57.6781 35.0388L57.346 34.9111Z" fill="#D0CDE1"/>
<path d="M47.7265 33.3481L47.3732 33.3644L48.1252 51.336L48.4785 51.3197L47.7265 33.3481Z" fill="#D0CDE1"/>
<path d="M54.0713 65.6051L41.6641 63.5896C41.5719 63.5741 41.4892 63.5208 41.4343 63.4415C41.3793 63.3621 41.3565 63.2632 41.3707 63.1662C41.385 63.0692 41.4353 62.9821 41.5105 62.9239C41.5857 62.8658 41.6798 62.8412 41.7723 62.8556L54.1795 64.8712C54.2256 64.8784 54.2699 64.8951 54.3098 64.9203C54.3497 64.9455 54.3845 64.9788 54.4122 65.0182C54.4398 65.0577 54.4598 65.1024 54.4709 65.15C54.482 65.1975 54.4841 65.2469 54.4769 65.2953C54.4698 65.3436 54.4536 65.39 54.4294 65.4318C54.4051 65.4736 54.3732 65.51 54.3355 65.5388C54.2978 65.5676 54.2551 65.5883 54.2097 65.5997C54.1644 65.611 54.1174 65.6129 54.0713 65.6051V65.6051Z" fill="#3F3D56"/>
<path d="M54.3895 62.8385L41.9823 60.823C41.9362 60.8158 41.8919 60.7991 41.8519 60.7739C41.812 60.7486 41.7772 60.7153 41.7496 60.6759C41.7219 60.6365 41.702 60.5917 41.6909 60.5442C41.6797 60.4967 41.6777 60.4473 41.6848 60.3989C41.6919 60.3505 41.7081 60.3041 41.7324 60.2623C41.7567 60.2205 41.7886 60.1842 41.8263 60.1554C41.8639 60.1266 41.9067 60.1059 41.952 60.0945C41.9974 60.0831 42.0444 60.0813 42.0904 60.089L54.4976 62.1045C54.5437 62.1117 54.588 62.1284 54.628 62.1537C54.6679 62.1789 54.7027 62.2122 54.7303 62.2516C54.758 62.291 54.7779 62.3358 54.789 62.3833C54.8002 62.4309 54.8022 62.4803 54.7951 62.5286C54.788 62.577 54.7718 62.6234 54.7475 62.6652C54.7232 62.707 54.6913 62.7434 54.6537 62.7722C54.616 62.8009 54.5732 62.8216 54.5279 62.833C54.4825 62.8444 54.4355 62.8463 54.3895 62.8385V62.8385Z" fill="#3F3D56"/>
<path d="M54.7076 60.0718L42.3004 58.0563C42.2082 58.0408 42.1255 57.9875 42.0706 57.9082C42.0156 57.8288 41.9927 57.7299 42.007 57.6329C42.0213 57.5359 42.0716 57.4488 42.1468 57.3907C42.222 57.3325 42.3161 57.3079 42.4086 57.3223L54.8158 59.3379C54.908 59.3534 54.9907 59.4067 55.0456 59.486C55.1006 59.5654 55.1234 59.6643 55.1092 59.7613C55.0949 59.8583 55.0446 59.9454 54.9694 60.0035C54.8941 60.0617 54.8 60.0863 54.7076 60.0718H54.7076Z" fill="#3F3D56"/>
<path d="M47.4821 67.2151C49.9431 67.6149 52.1504 66.4987 52.4121 64.7221L43.4999 63.2743C43.2382 65.051 45.0211 66.8153 47.4821 67.2151Z" fill="#3F3D56"/>
<path d="M51.942 31.3523C51.4126 31.2664 50.9746 30.827 50.7345 30.5325C50.6557 30.4359 50.5791 30.3358 50.5023 30.2354C50.2226 29.8699 49.9586 29.5247 49.5909 29.3447C48.7793 28.9471 47.823 29.5025 46.995 30.0983L46.795 29.7921C47.7053 29.1367 48.7668 28.5314 49.7405 29.0081C50.1827 29.2247 50.4853 29.6203 50.7779 30.0028C50.8524 30.1002 50.9268 30.1973 51.0031 30.291C51.2528 30.5971 51.7507 31.0933 52.2843 30.9788C52.5091 30.91 52.7182 30.7938 52.8988 30.6372C53.0364 30.5294 53.1818 30.433 53.3337 30.349C53.6418 30.1939 53.9867 30.138 54.325 30.1882C54.6633 30.2384 54.9798 30.3925 55.2349 30.6312C55.3258 30.7217 55.412 30.8173 55.4929 30.9177C55.652 31.1081 55.8022 31.2878 55.9977 31.3532C56.2867 31.4502 56.5922 31.2767 56.9159 31.0934C57.2498 30.9043 57.5949 30.7086 57.9863 30.7569C57.999 30.7585 58.0119 30.7603 58.0245 30.7623C58.7211 30.8755 59.0423 31.6844 59.224 32.2882L58.8867 32.4C58.6398 31.5793 58.3391 31.1712 57.9449 31.1257C57.6645 31.0911 57.3825 31.251 57.0839 31.4202C56.7097 31.6324 56.3223 31.8518 55.8903 31.707C55.6012 31.6104 55.4109 31.3828 55.227 31.1627C55.1546 31.0725 55.0775 30.9866 54.9962 30.9053C54.7931 30.7184 54.5425 30.5978 54.2751 30.5582C54.0078 30.5185 53.7352 30.5614 53.4907 30.6818C53.3553 30.7574 53.2257 30.8438 53.103 30.9404C52.8835 31.1283 52.6287 31.2654 52.3552 31.3427C52.2191 31.3718 52.0792 31.375 51.942 31.3523Z" fill="#D0CDE1"/>
</svg>
