<svg width="200" height="200" viewBox="0 0 200 200" fill="none" xmlns="http://www.w3.org/2000/svg">
<path opacity="0.4" d="M98.2363 178.214C133.609 178.214 162.285 145.559 162.285 105.277C162.285 64.9957 133.609 32.341 98.2363 32.341C62.8632 32.341 34.1876 64.9957 34.1876 105.277C34.1876 145.559 62.8632 178.214 98.2363 178.214Z" stroke="#3AD29F" stroke-width="5" stroke-miterlimit="10" stroke-dasharray="12 12"/>
<path opacity="0.4" d="M98.2363 160.893C125.209 160.893 147.075 135.993 147.075 105.277C147.075 74.5617 125.209 49.6617 98.2363 49.6617C71.2635 49.6617 49.3977 74.5617 49.3977 105.277C49.3977 135.993 71.2635 160.893 98.2363 160.893Z" stroke="#3AD29F" stroke-width="5" stroke-miterlimit="10" stroke-dasharray="12 12"/>
<path d="M182.605 114.885C182.697 114.881 182.785 114.837 182.849 114.761C182.913 114.685 182.949 114.584 182.949 114.479C182.949 114.374 182.913 114.273 182.849 114.197C182.785 114.121 182.697 114.077 182.605 114.073C182.512 114.077 182.425 114.121 182.361 114.197C182.296 114.273 182.26 114.374 182.26 114.479C182.26 114.584 182.296 114.685 182.361 114.761C182.425 114.837 182.512 114.881 182.605 114.885Z" fill="#F5F5F5"/>
<g opacity="0.5">
<path opacity="0.5" d="M185.015 177.585C184.508 177.172 183.888 176.981 183.268 177.047C182.648 177.112 182.07 177.43 181.639 177.943C181.173 178.52 180.923 179.282 180.943 180.066C180.962 180.849 181.25 181.594 181.744 182.14L184.971 185.795C185.072 185.909 185.21 185.974 185.353 185.973C185.495 185.973 185.632 185.908 185.733 185.792L188.942 182.117C189.434 181.567 189.717 180.821 189.733 180.037C189.749 179.254 189.495 178.493 189.027 177.919C188.593 177.41 188.013 177.095 187.393 177.033C186.773 176.972 186.153 177.167 185.649 177.583C185.557 177.659 185.446 177.7 185.332 177.7C185.218 177.7 185.107 177.66 185.015 177.585V177.585Z" fill="#B932C5"/>
</g>
<g opacity="0.5">
<path opacity="0.5" d="M14.3768 166.489C13.8704 166.076 13.2503 165.885 12.6302 165.95C12.0101 166.016 11.4316 166.334 11.0008 166.846C10.5349 167.424 10.2853 168.186 10.3049 168.969C10.3245 169.753 10.6118 170.497 11.1058 171.044L14.3331 174.698C14.4345 174.813 14.5717 174.877 14.7146 174.877C14.8574 174.876 14.9943 174.811 15.0951 174.696L18.3044 171.021C18.7957 170.471 19.0793 169.725 19.0951 168.941C19.1108 168.157 18.8574 167.397 18.3887 166.823C17.9554 166.314 17.3754 165.999 16.7549 165.937C16.1345 165.876 15.5154 166.071 15.011 166.487C14.9188 166.562 14.808 166.604 14.6942 166.604C14.5804 166.604 14.4694 166.564 14.3768 166.489V166.489Z" fill="#B932C5"/>
</g>
<g opacity="0.5">
<path opacity="0.5" d="M22.9325 18.992C22.4261 18.5792 21.8059 18.3881 21.1858 18.4539C20.5657 18.5196 19.9872 18.8377 19.5564 19.3498C19.0906 19.9273 18.8409 20.689 18.8605 21.4728C18.8801 22.2566 19.1675 23.0008 19.6614 23.5472L22.8888 27.2019C22.9901 27.3166 23.1273 27.3808 23.2702 27.3803C23.4131 27.3799 23.55 27.3148 23.6507 27.1994L26.8601 23.5242C27.3513 22.9747 27.635 22.2287 27.6507 21.4447C27.6665 20.6608 27.4131 19.9008 26.9444 19.3263C26.5111 18.8169 25.931 18.5025 25.3106 18.4407C24.6902 18.3789 24.071 18.5739 23.5666 18.9899C23.4744 19.0659 23.3636 19.1069 23.2498 19.1073C23.1361 19.1076 23.0251 19.0673 22.9325 18.992V18.992Z" fill="#B932C5"/>
</g>
<g opacity="0.5">
<path opacity="0.5" d="M155.07 7.08398C154.564 6.67121 153.943 6.48017 153.323 6.54591C152.703 6.61165 152.125 6.92975 151.694 7.44188C151.228 8.01936 150.978 8.78098 150.998 9.56481C151.018 10.3486 151.305 11.0929 151.799 11.6392L155.026 15.2939C155.128 15.4086 155.265 15.4728 155.408 15.4724C155.551 15.4719 155.688 15.4068 155.788 15.2914L158.998 11.6162C159.489 11.0667 159.773 10.3207 159.788 9.53675C159.804 8.7528 159.551 7.99279 159.082 7.41829C158.649 6.90892 158.069 6.59452 157.448 6.53274C156.828 6.47096 156.209 6.66596 155.704 7.08196C155.612 7.15788 155.501 7.19892 155.387 7.19928C155.274 7.19964 155.163 7.15931 155.07 7.08398V7.08398Z" fill="#B932C5"/>
</g>
<g opacity="0.5">
<path opacity="0.5" d="M112.258 0H111.545V4.60081H112.258V0Z" fill="#3AD29F"/>
<path opacity="0.5" d="M113.922 2.70635V1.89444L109.882 1.89444V2.70635L113.922 2.70635Z" fill="#3AD29F"/>
</g>
<g opacity="0.5">
<path opacity="0.5" d="M8.63947 58.9987H7.9265V63.5994H8.63947V58.9987Z" fill="#3AD29F"/>
<path opacity="0.5" d="M10.3031 61.705V60.8931H6.26289V61.705H10.3031Z" fill="#3AD29F"/>
</g>
<g opacity="0.5">
<path opacity="0.5" d="M141.965 195.399H141.252V200H141.965V195.399Z" fill="#3AD29F"/>
<path opacity="0.5" d="M143.629 198.106V197.294H139.589V198.106H143.629Z" fill="#3AD29F"/>
</g>
<g opacity="0.5">
<path opacity="0.5" d="M11.016 134.506H10.3031V139.107H11.016V134.506Z" fill="#3AD29F"/>
<path opacity="0.5" d="M12.6796 137.212V136.401H8.63947V137.212H12.6796Z" fill="#3AD29F"/>
</g>
<g opacity="0.5">
<path opacity="0.5" d="M55.2203 141.272H54.5074V145.873H55.2203V141.272Z" fill="#3AD29F"/>
<path opacity="0.5" d="M56.8839 143.978V143.166H52.8438V143.978H56.8839Z" fill="#3AD29F"/>
</g>
<path opacity="0.5" d="M41.2212 181.566C41.0247 181.469 40.8665 181.293 40.7768 181.071C40.6871 180.849 40.672 180.598 40.7346 180.364C40.7447 180.329 40.751 180.292 40.7535 180.254V180.254C40.7593 180.147 40.7346 180.041 40.6832 179.951C40.6317 179.862 40.5563 179.793 40.468 179.756C40.3797 179.719 40.2833 179.715 40.193 179.745C40.1028 179.776 40.0234 179.838 39.9668 179.924C39.9473 179.954 39.931 179.987 39.9183 180.022C39.8328 180.245 39.6779 180.425 39.4833 180.528C39.2887 180.63 39.0679 180.647 38.8629 180.576C38.8315 180.564 38.799 180.557 38.766 180.554V180.554C38.6721 180.548 38.5789 180.576 38.5001 180.634C38.4213 180.693 38.3612 180.779 38.3286 180.879C38.296 180.98 38.2928 181.09 38.3193 181.192C38.3458 181.295 38.4007 181.386 38.4758 181.45V181.45C38.5025 181.472 38.5313 181.491 38.5618 181.505C38.7583 181.603 38.9164 181.779 39.0062 182.001C39.0959 182.222 39.1109 182.474 39.0484 182.707C39.0383 182.743 39.0319 182.78 39.0294 182.817V182.817C39.0237 182.924 39.0484 183.031 39.0998 183.12C39.1512 183.21 39.2267 183.278 39.3149 183.316C39.4032 183.353 39.4996 183.356 39.5899 183.326C39.6802 183.296 39.7595 183.233 39.8162 183.148C39.8356 183.118 39.8519 183.085 39.8646 183.05C39.9502 182.826 40.105 182.646 40.2996 182.544C40.4943 182.442 40.7151 182.425 40.9201 182.496C40.9515 182.507 40.984 182.515 41.0169 182.517V182.517C41.1108 182.524 41.2041 182.496 41.2829 182.437C41.3617 182.379 41.4218 182.293 41.4544 182.192C41.4869 182.092 41.4902 181.982 41.4637 181.879C41.4372 181.776 41.3823 181.686 41.3071 181.622V181.622C41.2805 181.599 41.2516 181.581 41.2212 181.566V181.566Z" fill="#F55F44"/>
<path opacity="0.5" d="M100.16 172.365C99.9637 172.267 99.8055 172.091 99.7158 171.869C99.6261 171.648 99.6111 171.396 99.6736 171.163C99.6837 171.127 99.6901 171.09 99.6926 171.053C99.6983 170.946 99.6736 170.839 99.6222 170.75C99.5707 170.66 99.4953 170.591 99.407 170.554C99.3187 170.517 99.2223 170.514 99.1321 170.544C99.0418 170.574 98.9625 170.636 98.9058 170.722V170.722C98.8863 170.752 98.8701 170.785 98.8574 170.82C98.7718 171.044 98.617 171.224 98.4223 171.326C98.2277 171.428 98.0069 171.445 97.8019 171.374C97.7705 171.363 97.738 171.355 97.7051 171.352V171.352C97.6111 171.346 97.5179 171.374 97.4391 171.433C97.3603 171.491 97.3002 171.577 97.2676 171.678C97.2351 171.778 97.2318 171.888 97.2583 171.991C97.2848 172.094 97.3397 172.184 97.4148 172.248V172.248C97.4415 172.271 97.4704 172.289 97.5008 172.304C97.6973 172.401 97.8555 172.577 97.9452 172.799C98.0349 173.021 98.0499 173.272 97.9874 173.505C97.9773 173.541 97.9709 173.578 97.9684 173.616V173.616C97.9627 173.723 97.9874 173.829 98.0388 173.919C98.0903 174.008 98.1657 174.077 98.254 174.114C98.3422 174.151 98.4387 174.155 98.5289 174.125C98.6192 174.094 98.6985 174.032 98.7552 173.946C98.7747 173.916 98.7909 173.883 98.8036 173.848C98.8892 173.625 99.044 173.445 99.2387 173.342C99.4333 173.24 99.6541 173.223 99.8591 173.294C99.8905 173.306 99.923 173.313 99.9559 173.316C100.05 173.322 100.143 173.294 100.222 173.236C100.301 173.177 100.361 173.091 100.393 172.991C100.426 172.89 100.429 172.78 100.403 172.678C100.376 172.575 100.321 172.484 100.246 172.42V172.42C100.22 172.398 100.191 172.379 100.16 172.365V172.365Z" fill="#3AD29F"/>
<path opacity="0.5" d="M122.975 45.7071C122.779 45.6096 122.621 45.4333 122.531 45.2117C122.441 44.9901 122.426 44.7386 122.489 44.5052C122.499 44.4694 122.505 44.4324 122.508 44.3949V44.3949C122.513 44.2879 122.489 44.1817 122.437 44.092C122.386 44.0023 122.31 43.9338 122.222 43.8967C122.134 43.8597 122.037 43.8559 121.947 43.8861C121.857 43.9163 121.778 43.9788 121.721 44.0644V44.0644C121.701 44.0947 121.685 44.1276 121.672 44.1623C121.587 44.386 121.432 44.5662 121.237 44.6683C121.043 44.7705 120.822 44.7876 120.617 44.7164C120.586 44.7049 120.553 44.6976 120.52 44.6948V44.6948C120.426 44.6883 120.333 44.7164 120.254 44.775C120.175 44.8335 120.115 44.9194 120.083 45.02C120.05 45.1205 120.047 45.2303 120.073 45.3331C120.1 45.4359 120.155 45.5262 120.23 45.5907C120.257 45.6129 120.285 45.6314 120.316 45.6459C120.512 45.7434 120.671 45.9197 120.76 46.1413C120.85 46.3629 120.865 46.6144 120.803 46.8478C120.792 46.8836 120.786 46.9206 120.784 46.9581C120.778 47.065 120.803 47.1713 120.854 47.261C120.905 47.3507 120.981 47.4192 121.069 47.4563C121.157 47.4933 121.254 47.497 121.344 47.4669C121.434 47.4367 121.514 47.3742 121.57 47.2886C121.59 47.2582 121.606 47.2254 121.619 47.1907C121.704 46.9669 121.859 46.7868 122.054 46.6847C122.248 46.5825 122.469 46.5654 122.674 46.6366C122.706 46.6481 122.738 46.6553 122.771 46.6582V46.6582C122.865 46.6647 122.958 46.6366 123.037 46.578C123.116 46.5195 123.176 46.4335 123.209 46.333C123.241 46.2325 123.244 46.1227 123.218 46.0199C123.191 45.9171 123.136 45.8268 123.061 45.7623V45.7623C123.035 45.7401 123.006 45.7216 122.975 45.7071V45.7071Z" fill="#F55F44"/>
<path opacity="0.5" d="M184.053 47.3309C183.857 47.2335 183.699 47.0571 183.609 46.8355C183.519 46.6139 183.504 46.3624 183.567 46.129C183.577 46.0932 183.583 46.0562 183.586 46.0187C183.591 45.9118 183.567 45.8056 183.515 45.7158C183.464 45.6261 183.388 45.5576 183.3 45.5206C183.212 45.4835 183.115 45.4798 183.025 45.51C182.935 45.5402 182.856 45.6027 182.799 45.6882V45.6882C182.779 45.7186 182.763 45.7514 182.75 45.7861C182.665 46.0099 182.51 46.19 182.315 46.2922C182.121 46.3943 181.9 46.4115 181.695 46.3403C181.664 46.3287 181.631 46.3215 181.598 46.3186C181.504 46.3121 181.411 46.3402 181.332 46.3988C181.253 46.4574 181.193 46.5433 181.161 46.6438C181.128 46.7443 181.125 46.8541 181.151 46.9569C181.178 47.0597 181.233 47.1501 181.308 47.2146V47.2146C181.335 47.2367 181.363 47.2553 181.394 47.2697C181.59 47.3672 181.749 47.5435 181.838 47.7651C181.928 47.9867 181.943 48.2382 181.88 48.4716C181.87 48.5074 181.864 48.5444 181.862 48.5819V48.5819C181.856 48.6889 181.88 48.7951 181.932 48.8848C181.983 48.9745 182.059 49.043 182.147 49.0801C182.235 49.1172 182.332 49.1209 182.422 49.0907C182.512 49.0605 182.592 48.998 182.648 48.9124V48.9124C182.668 48.8821 182.684 48.8492 182.697 48.8145C182.782 48.5908 182.937 48.4107 183.132 48.3085C183.326 48.2063 183.547 48.1892 183.752 48.2604C183.784 48.2719 183.816 48.2792 183.849 48.282V48.282C183.943 48.2885 184.036 48.2604 184.115 48.2019C184.194 48.1433 184.254 48.0574 184.286 47.9569C184.319 47.8563 184.322 47.7465 184.296 47.6437C184.269 47.5409 184.214 47.4506 184.139 47.3861V47.3861C184.113 47.3639 184.084 47.3454 184.053 47.3309V47.3309Z" fill="#F55F44"/>
<path opacity="0.5" d="M96.12 121.756C95.9235 121.658 95.7654 121.482 95.6756 121.26C95.5859 121.039 95.5709 120.787 95.6334 120.554C95.6435 120.518 95.6499 120.481 95.6524 120.444C95.6581 120.337 95.6334 120.23 95.582 120.141C95.5306 120.051 95.4551 119.983 95.3668 119.945C95.2786 119.908 95.1822 119.905 95.0919 119.935C95.0016 119.965 94.9223 120.028 94.8656 120.113V120.113C94.8462 120.143 94.8299 120.176 94.8172 120.211C94.7316 120.435 94.5768 120.615 94.3822 120.717C94.1875 120.819 93.9667 120.836 93.7617 120.765C93.7303 120.754 93.6978 120.746 93.6649 120.744V120.744C93.571 120.737 93.4777 120.765 93.3989 120.824C93.3201 120.882 93.26 120.968 93.2274 121.069C93.1949 121.169 93.1916 121.279 93.2181 121.382C93.2446 121.485 93.2995 121.575 93.3747 121.639V121.639C93.4013 121.662 93.4302 121.68 93.4606 121.695C93.6571 121.792 93.8153 121.968 93.905 122.19C93.9947 122.412 94.0098 122.663 93.9472 122.897C93.9371 122.932 93.9308 122.969 93.9283 123.007V123.007C93.9225 123.114 93.9472 123.22 93.9987 123.31C94.0501 123.399 94.1255 123.468 94.2138 123.505C94.3021 123.542 94.3985 123.546 94.4888 123.516C94.579 123.485 94.6584 123.423 94.715 123.337V123.337C94.7345 123.307 94.7507 123.274 94.7635 123.239C94.849 123.016 95.0039 122.836 95.1985 122.733C95.3931 122.631 95.6139 122.614 95.8189 122.685C95.8503 122.697 95.8828 122.704 95.9158 122.707V122.707C96.0097 122.713 96.1029 122.685 96.1817 122.627C96.2605 122.568 96.3206 122.482 96.3532 122.382C96.3858 122.281 96.389 122.171 96.3625 122.069C96.336 121.966 96.2811 121.875 96.206 121.811C96.1793 121.789 96.1505 121.77 96.12 121.756Z" fill="#F55F44"/>
<path opacity="0.5" d="M199.739 6.46486C199.542 6.36741 199.384 6.1911 199.294 5.96947C199.205 5.74785 199.19 5.49639 199.252 5.26296C199.262 5.22718 199.269 5.19016 199.271 5.15267V5.15267C199.277 5.04572 199.252 4.93952 199.201 4.8498C199.149 4.76008 199.074 4.6916 198.985 4.65452C198.897 4.61744 198.801 4.61372 198.711 4.64392C198.62 4.67411 198.541 4.73662 198.484 4.82217V4.82217C198.465 4.85253 198.449 4.88539 198.436 4.92009C198.35 5.14383 198.195 5.32394 198.001 5.42611C197.806 5.52829 197.585 5.54541 197.38 5.47421C197.349 5.46269 197.316 5.45543 197.284 5.45259V5.45259C197.19 5.44608 197.096 5.47418 197.018 5.53275C196.939 5.59132 196.879 5.67722 196.846 5.77775C196.813 5.87827 196.81 5.98806 196.837 6.09087C196.863 6.19367 196.918 6.28401 196.993 6.34851V6.34851C197.02 6.37069 197.049 6.38922 197.079 6.4037C197.276 6.50114 197.434 6.67746 197.524 6.89908C197.613 7.12071 197.628 7.37217 197.566 7.60559C197.556 7.64138 197.549 7.6784 197.547 7.71589V7.71589C197.541 7.82283 197.566 7.92903 197.617 8.01876C197.669 8.10848 197.744 8.17695 197.832 8.21404C197.921 8.25112 198.017 8.25484 198.107 8.22464C198.198 8.19444 198.277 8.13194 198.334 8.04639V8.04639C198.353 8.01603 198.369 7.98316 198.382 7.94847C198.468 7.72472 198.623 7.54462 198.817 7.44244C199.012 7.34027 199.233 7.32315 199.438 7.39435C199.469 7.40587 199.501 7.41313 199.534 7.41597V7.41597C199.628 7.42248 199.722 7.39437 199.8 7.33581C199.879 7.27724 199.939 7.19133 199.972 7.09081C200.004 6.99029 200.008 6.88049 199.981 6.77769C199.955 6.67489 199.9 6.58455 199.825 6.52004V6.52004C199.798 6.49786 199.769 6.47934 199.739 6.46486V6.46486Z" fill="#F55F44"/>
<path d="M168.269 80.5207L165.008 59.4655L97.8372 72.9586L110.642 155.622C111.254 159.569 113.217 163.078 116.1 165.377C118.984 167.676 122.551 168.576 126.017 167.88L167.049 159.638C168.765 159.293 170.405 158.566 171.875 157.5C173.344 156.434 174.615 155.048 175.615 153.422C176.615 151.796 177.323 149.962 177.7 148.024C178.077 146.087 178.116 144.084 177.813 142.129L176.279 132.226C182.3 131.016 187.652 127.133 191.159 121.429C194.665 115.726 196.038 108.669 194.976 101.813C193.914 94.9563 190.504 88.8611 185.495 84.8681C180.487 80.875 174.29 79.3112 168.269 80.5207V80.5207ZM175.329 126.096L169.219 86.6507C171.493 86.1936 173.825 86.2512 176.08 86.8201C178.335 87.3891 180.469 88.4582 182.361 89.9666C184.253 91.4749 185.866 93.3929 187.107 95.611C188.348 97.8291 189.193 100.304 189.595 102.894C189.996 105.484 189.945 108.139 189.445 110.707C188.945 113.274 188.006 115.705 186.682 117.859C185.357 120.014 183.673 121.85 181.725 123.263C179.777 124.677 177.604 125.639 175.329 126.096V126.096Z" fill="#DBE8FC"/>
<path d="M156.72 63.6037L104.996 73.9938L110.693 110.774L162.417 100.384L156.72 63.6037Z" fill="white"/>
<path opacity="0.03" d="M168.321 57.6529C166.797 51.7028 149.678 52.1532 130.084 58.6589C110.49 65.1647 95.8414 75.2621 97.3648 81.2122C98.294 84.8412 105.026 86.0879 114.581 85.0334C114.245 86.6381 114.417 88.3263 115.066 89.8012C115.715 91.276 116.8 92.4431 118.13 93.0971C119.46 93.7511 120.95 93.8503 122.337 93.3771C123.725 92.9039 124.922 91.8886 125.717 90.5099C128.011 95.8217 131.781 99.0088 135.009 97.9372C138.541 96.7644 140.215 90.893 139.116 84.2997C140.895 85.884 142.903 86.5488 144.766 85.9305C147.036 85.1766 148.589 82.6819 149.162 79.4161C150.594 80.2876 152.108 80.5702 153.537 80.0958C155.368 79.4879 156.733 77.7488 157.494 75.3858C159.005 80.0697 162.486 82.969 165.56 81.9487C168.825 80.8644 170.392 75.7649 169.059 70.5585C168.351 67.7941 166.968 65.5555 165.337 64.2259C167.688 61.7867 168.798 59.5163 168.321 57.6529Z" fill="black"/>
<path d="M167.631 54.9595C166.108 49.0094 148.989 49.4598 129.395 55.9655C109.801 62.4712 95.1519 72.5687 96.6753 78.5188C97.6045 82.1478 104.337 83.3944 113.892 82.34C113.556 83.9447 113.727 85.6329 114.376 87.1078C115.025 88.5826 116.11 89.7497 117.44 90.4037C118.77 91.0577 120.26 91.1569 121.648 90.6837C123.036 90.2105 124.233 89.1952 125.028 87.8165C127.322 93.1283 131.092 96.3154 134.319 95.2438C137.851 94.071 139.525 88.1996 138.427 81.6063C140.206 83.1906 142.214 83.8554 144.076 83.237C146.347 82.4831 147.9 79.9885 148.473 76.7227C149.904 77.5942 151.419 77.8768 152.847 77.4024C154.678 76.7945 156.044 75.0553 156.804 72.6924C158.315 77.3762 161.797 80.2756 164.87 79.2553C168.136 78.171 169.702 73.0715 168.369 67.8651C167.661 65.1007 166.278 62.862 164.648 61.5325C166.998 59.0933 168.108 56.8229 167.631 54.9595Z" fill="#F2D7F1"/>
<path d="M107.927 92.9168C107.927 92.9168 119.327 87.0544 131.331 92.8873C143.336 98.7203 159.651 82.5267 159.651 82.5267L162.415 100.371L126.305 113.409L115.746 112.232L107.927 92.9168Z" fill="#B932C5"/>
<path opacity="0.05" d="M107.927 92.9168C107.927 92.9168 119.327 87.0544 131.331 92.8873C143.336 98.7203 159.651 82.5267 159.651 82.5267L162.415 100.371L126.305 113.409L115.746 112.232L107.927 92.9168Z" fill="black"/>
<path d="M169.766 147.824L118.042 158.215L107.927 92.9168C125.259 103.506 142.5 100.043 159.651 82.5267L169.766 147.824Z" fill="#B932C5"/>
<path d="M117.317 107.332C116.29 107.673 116.753 109.492 117.783 109.15C118.81 108.809 118.347 106.99 117.317 107.332Z" fill="#FAFAFA"/>
<path d="M140.636 144.144C139.609 144.486 140.073 146.305 141.102 145.963C142.13 145.622 141.666 143.803 140.636 144.144Z" fill="#FAFAFA"/>
<path d="M129.032 129.987C128.004 130.328 128.468 132.147 129.497 131.805C130.525 131.464 130.061 129.645 129.032 129.987Z" fill="#FAFAFA"/>
<path d="M137.692 114.231C136.665 114.573 137.129 116.392 138.158 116.05C139.186 115.709 138.722 113.89 137.692 114.231Z" fill="#FAFAFA"/>
<path d="M158.399 104.576C157.371 104.917 157.835 106.736 158.864 106.394C159.892 106.053 159.428 104.234 158.399 104.576Z" fill="#FAFAFA"/>
<path d="M0.354321 75.0199C-0.707776 81.8764 0.665466 88.9326 4.17195 94.6361C7.67843 100.34 13.0309 104.223 19.0519 105.433L17.5179 115.336C16.9064 119.283 17.697 123.346 19.7157 126.629C21.7343 129.913 24.8157 132.148 28.282 132.845L69.3134 141.087C71.0297 141.432 72.7889 141.388 74.4904 140.959C76.192 140.529 77.8026 139.722 79.2303 138.584C80.658 137.446 81.8748 135.999 82.8114 134.325C83.7479 132.651 84.3857 130.784 84.6885 128.829L97.4934 46.1656L30.3228 32.6725L27.0612 53.7277C21.0402 52.5182 14.8439 54.082 9.83538 58.0751C4.82686 62.0681 1.41642 68.1634 0.354321 75.0199V75.0199ZM5.73733 76.1012C6.13853 73.5112 6.98378 71.0366 8.22481 68.8185C9.46585 66.6005 11.0784 64.6826 12.9703 63.1742C14.8622 61.6659 16.9965 60.5967 19.2513 60.0276C21.5061 59.4586 23.8373 59.4008 26.1117 59.8577L20.0015 99.3028C15.4081 98.3801 11.3248 95.4173 8.64974 91.0662C5.9747 86.715 4.92707 81.332 5.73733 76.1012V76.1012Z" fill="#DBE8FC"/>
<path d="M32.9131 73.5899L84.637 83.9802L90.3345 47.2001L38.6105 36.8099L32.9131 73.5899Z" fill="white"/>
<path opacity="0.03" d="M27.0099 30.8599C28.5334 24.9098 45.6524 25.3602 65.2463 31.866C84.8403 38.3717 99.4893 48.4691 97.9658 54.4192C97.0367 58.0482 90.3045 59.2949 80.7495 58.2404C81.0854 59.8451 80.9138 61.5334 80.2647 63.0082C79.6157 64.4831 78.5308 65.6501 77.2009 66.3041C75.8709 66.9582 74.3811 67.0573 72.9933 66.5841C71.6055 66.1109 70.4086 65.0957 69.6132 63.7169C67.3192 69.0287 63.5495 72.2158 60.3221 71.1442C56.7899 69.9715 55.1161 64.1001 56.2144 57.5067C54.4353 59.0911 52.4273 59.7558 50.565 59.1375C48.2943 58.3836 46.7414 55.8889 46.1684 52.6232C44.7371 53.4946 43.2226 53.7772 41.7938 53.3028C39.9628 52.6949 38.5975 50.9558 37.8368 48.5929C36.3259 53.2767 32.8442 56.1761 29.7712 55.1558C26.5055 54.0715 24.9388 48.9719 26.2718 43.7656C26.9796 41.0011 28.3627 38.7625 29.9932 37.4329C27.6429 34.9937 26.5328 32.7234 27.0099 30.8599Z" fill="black"/>
<path d="M27.6995 28.1665C29.2229 22.2164 46.3419 22.6669 65.9359 29.1726C85.5298 35.6783 100.179 45.7757 98.6554 51.7258C97.7262 55.3548 90.9941 56.6015 81.4391 55.547C81.775 57.1517 81.6034 58.84 80.9543 60.3148C80.3053 61.7897 79.2204 62.9567 77.8904 63.6108C76.5605 64.2648 75.0706 64.3639 73.6828 63.8907C72.295 63.4175 71.0982 62.4023 70.3027 61.0235C68.0087 66.3353 64.239 69.5224 61.0117 68.4508C57.4795 67.2781 55.8056 61.4067 56.9039 54.8133C55.1248 56.3977 53.1168 57.0624 51.2545 56.4441C48.9839 55.6902 47.431 53.1955 46.858 49.9298C45.4266 50.8012 43.9122 51.0838 42.4833 50.6094C40.6524 50.0015 39.2871 48.2624 38.5264 45.8995C37.0155 50.5833 33.5337 53.4827 30.4607 52.4624C27.1951 51.3781 25.6284 46.2785 26.9614 41.0722C27.6692 38.3077 29.0523 36.0691 30.6828 34.7395C28.3324 32.3003 27.2224 30.03 27.6995 28.1665Z" fill="#F2D7F1"/>
<path d="M87.4034 66.1239C87.4034 66.1239 76.0038 60.2614 63.9992 66.0944C51.9947 71.9274 35.6796 55.7337 35.6796 55.7337L32.9155 73.5781L69.0255 86.6158L79.5848 85.4392L87.4034 66.1239Z" fill="#B932C5"/>
<path opacity="0.05" d="M87.4034 66.1239C87.4034 66.1239 76.0038 60.2614 63.9992 66.0944C51.9947 71.9274 35.6796 55.7337 35.6796 55.7337L32.9155 73.5781L69.0255 86.6158L79.5848 85.4392L87.4034 66.1239Z" fill="black"/>
<path d="M25.5648 121.031L77.2885 131.422L87.4034 66.1239C70.0717 76.7132 52.8305 73.2498 35.6796 55.7338L25.5648 121.031Z" fill="#B932C5"/>
<path d="M78.0135 80.5387C79.0411 80.8799 78.5772 82.6992 77.5478 82.3574C76.5201 82.0162 76.9841 80.1969 78.0135 80.5387Z" fill="#FAFAFA"/>
<path d="M54.6942 117.351C55.7218 117.693 55.2579 119.512 54.2285 119.17C53.2008 118.829 53.6648 117.01 54.6942 117.351Z" fill="#FAFAFA"/>
<path d="M66.299 103.194C67.3266 103.535 66.8627 105.354 65.8333 105.012C64.8057 104.671 65.2696 102.852 66.299 103.194Z" fill="#FAFAFA"/>
<path d="M57.6385 87.4385C58.6661 87.7797 58.2022 89.5989 57.1728 89.2572C56.1451 88.916 56.6091 87.0967 57.6385 87.4385Z" fill="#FAFAFA"/>
<path d="M36.9321 77.7827C37.9598 78.1239 37.4958 79.9432 36.4665 79.6015C35.4388 79.2603 35.9028 77.441 36.9321 77.7827Z" fill="#FAFAFA"/>
</svg>
