<svg width="308" height="297" viewBox="0 0 308 297" fill="none" xmlns="http://www.w3.org/2000/svg">
<path opacity="0.5" fill-rule="evenodd" clip-rule="evenodd" d="M171.924 13.491C200.121 14.7119 232.056 -3.31239 254.857 11.0478C277.888 25.5526 269.478 57.0669 278.267 80.4662C285.784 100.48 300.143 117.664 302.759 138.58C305.978 164.311 316.042 195.891 295.016 214.353C273.717 233.055 236.183 218.575 206.284 223.289C180.534 227.349 157.337 245.219 131.847 240.079C106.091 234.886 91.4936 212.588 72.8677 196.388C52.7756 178.914 24.6498 165.406 18.383 141.396C12.0225 117.028 29.0515 93.5133 39.9782 70.3813C51.374 46.2562 56.4451 15.2745 83.4603 3.62649C110.605 -8.07758 141.614 12.1786 171.924 13.491Z" fill="#E2DBFF"/>
<ellipse cx="142.289" cy="217.118" rx="134.5" ry="56.6225" transform="rotate(10 142.289 217.118)" fill="#DCDCDC"/>
<path d="M61.4778 188C61.4774 188.826 61.4067 189.65 61.2663 190.465V190.468C60.881 192.66 59.9883 194.738 58.6558 196.545C57.3232 198.352 55.5856 199.841 53.5741 200.901C51.5625 201.96 49.3296 202.561 47.0439 202.659C44.7582 202.758 42.4794 202.35 40.3796 201.467H40.3762C39.7549 201.207 39.1527 200.905 38.5741 200.564C36.7807 199.512 35.2318 198.109 34.0256 196.445C32.8194 194.78 31.9822 192.891 31.5671 190.896C31.3725 189.942 31.2747 188.972 31.2751 188C31.2751 187.556 31.2953 187.116 31.3356 186.683V186.679C31.6838 182.935 33.4979 179.463 36.4036 176.98C39.3093 174.498 43.0849 173.194 46.9514 173.337C50.8178 173.481 54.48 175.061 57.1824 177.752C59.8848 180.442 61.4211 184.038 61.4744 187.798V187.801C61.4778 187.869 61.4778 187.931 61.4778 188Z" fill="#2C2958"/>
<path d="M50.0937 183.099H43.3303L39.9484 177.409L42.2422 173.545L42.3763 173.51C45.2802 172.756 48.3471 172.839 51.2031 173.75L51.3246 173.789L53.4756 177.409L50.0937 183.099ZM43.7176 182.447H49.7064L52.7006 177.409L50.8719 174.331C48.2181 173.513 45.3814 173.435 42.6842 174.106L40.7234 177.409L43.7176 182.447Z" fill="white"/>
<path d="M49.7582 194.838H42.9947L39.6128 189.147L42.9947 183.455H49.7582L53.1401 189.147L49.7582 194.838ZM43.382 194.186H49.3708L52.365 189.147L49.3708 184.107H43.3821L40.3878 189.147L43.382 194.186Z" fill="white"/>
<path d="M46.3764 203C44.2672 203.004 42.18 202.584 40.2458 201.766L39.9009 201.621L43.3301 195.845H50.0938L53.3785 201.374L53.0523 201.526C50.9702 202.502 48.6877 203.005 46.3764 203V203ZM40.8604 201.31C42.7056 202.031 44.6816 202.383 46.6701 202.345C48.6587 202.307 50.6188 201.879 52.4332 201.087L49.7064 196.498H43.7178L40.8604 201.31Z" fill="white"/>
<path d="M61.1681 188.968H54.4046L51.0227 183.278L54.4044 177.585H57.4842L57.5835 177.686C60.2543 180.417 61.764 184.027 61.8101 187.794V187.888L61.1681 188.968ZM54.792 188.316H60.7807L61.1376 187.716C61.0728 184.192 59.6684 180.815 57.1948 178.237H54.7921L51.7978 183.278L54.792 188.316Z" fill="white"/>
<path d="M54.3114 200.874L51.0227 195.343L54.4044 189.65H61.1677L61.602 190.377L61.5972 190.523C61.2306 192.6 60.4188 194.578 59.2145 196.33C58.0101 198.082 56.4402 199.569 54.6065 200.693L54.3114 200.874ZM51.7978 195.343L54.5411 199.957C56.2031 198.884 57.6245 197.495 58.72 195.875C59.8154 194.254 60.5622 192.435 60.9154 190.527L60.781 190.302H54.7921L51.7978 195.343Z" fill="white"/>
<path d="M38.6935 201.015L38.4005 200.843C36.5679 199.767 34.9851 198.333 33.7522 196.632C32.5193 194.93 31.6632 192.999 31.238 190.96L31.2131 190.839L31.9204 189.65H38.684L42.0657 195.343L38.6935 201.015ZM31.9215 190.951C32.3291 192.824 33.117 194.598 34.2392 196.171C35.3614 197.743 36.7952 199.082 38.4567 200.11L41.2907 195.343L38.2963 190.302H32.3077L31.9215 190.951Z" fill="white"/>
<path d="M38.6839 188.316H31.9206L31 186.77V186.683C31.3313 182.987 33.0643 179.543 35.8622 177.02L35.9589 176.933H38.684L42.0658 182.626L38.6839 188.316ZM32.3076 187.664H38.2965L41.2907 182.626L38.2964 177.585H36.2237C33.6347 179.959 32.02 183.165 31.6794 186.609L32.3076 187.664Z" fill="white"/>
<path d="M215.008 129.225L216.623 198.968L220.059 199.296L218.764 128.948L215.008 129.225Z" fill="#F5C5CC"/>
<path d="M206.702 127.913L208.317 197.655L211.753 197.984L210.458 127.636L206.702 127.913Z" fill="#F5C5CC"/>
<path d="M208.732 124.267L208.899 200.334L212.412 200.062L211.074 122.773L208.732 124.267Z" fill="#CC929B"/>
<path d="M111.844 111.567L113.326 174.787L116.761 175.08L115.604 111.312L111.844 111.567Z" fill="#F5C5CC"/>
<path d="M113.827 110.385L115.527 176.183L116.761 175.08L115.604 111.312L113.827 110.385Z" fill="#CC929B"/>
<path d="M119.153 113.167L120.635 176.384L124.071 176.677L122.913 112.912L119.153 113.167Z" fill="#F5C5CC"/>
<path d="M121.137 111.983L122.839 177.78L124.07 176.677L122.913 112.912L121.137 111.983Z" fill="#CC929B"/>
<path d="M126.298 114.9L127.78 178.12L131.216 178.413L130.059 114.648L126.298 114.9Z" fill="#F5C5CC"/>
<path d="M128.282 113.721L129.985 179.516L131.216 178.413L130.059 114.648L128.282 113.721Z" fill="#CC929B"/>
<path d="M133.25 115.253L134.775 180.693L138.211 180.997L137.007 114.993L133.25 115.253Z" fill="#F5C5CC"/>
<path d="M135.23 114.031L136.98 182.138L138.211 180.997L137.007 114.992L135.23 114.031Z" fill="#CC929B"/>
<path d="M140.787 115.764L142.316 181.2L145.751 181.505L144.547 115.5L140.787 115.764Z" fill="#F5C5CC"/>
<path d="M142.771 114.542L144.52 182.646L145.751 181.505L144.547 115.501L142.771 114.542Z" fill="#CC929B"/>
<path d="M148.193 117.902L149.719 183.341L153.154 183.646L151.953 117.641L148.193 117.902Z" fill="#F5C5CC"/>
<path d="M150.174 116.68L151.923 184.787L153.154 183.646L151.953 117.641L150.174 116.68Z" fill="#CC929B"/>
<path d="M156.67 119.315L158.236 186.58L161.671 186.892L160.43 119.046L156.67 119.315Z" fill="#F5C5CC"/>
<path d="M158.65 118.06L160.44 188.066L161.671 186.892L160.43 119.046L158.65 118.06Z" fill="#CC929B"/>
<path d="M164.046 120.029L165.609 187.294L169.047 187.606L167.803 119.76L164.046 120.029Z" fill="#F5C5CC"/>
<path d="M166.027 118.771L167.816 188.78L169.047 187.606L167.803 119.76L166.027 118.771Z" fill="#CC929B"/>
<path d="M171.861 121.822L173.426 189.087L176.862 189.402L175.621 121.556L171.861 121.822Z" fill="#F5C5CC"/>
<path d="M173.844 120.567L175.631 190.576L176.862 189.402L175.621 121.556L173.844 120.567Z" fill="#CC929B"/>
<path d="M105.15 111.455L104.983 107.451L106.722 106.679L231.48 127.459L231.711 132.542L105.15 111.455Z" fill="#F5C5CC"/>
<path d="M106.722 106.679L231.938 127.443L231.811 129.347L105.24 107.334" fill="#CC929B"/>
<path d="M111.887 211.114L108.375 212.152H105.029L104.862 104.968L106.702 102.893L108.478 102.469L110.716 102.194L111.887 211.114Z" fill="#F5C5CC"/>
<path d="M111.887 211.114L108.375 212.152L108.157 105.18L108.478 102.469L110.716 102.194L111.887 211.114Z" fill="#CC929B"/>
<path d="M180.351 123.814L181.917 191.076L185.352 191.391L184.111 123.545L180.351 123.814Z" fill="#F5C5CC"/>
<path d="M182.331 122.556L184.121 192.564L185.352 191.391L184.111 123.545L182.331 122.556Z" fill="#CC929B"/>
<path d="M188.905 124.876L190.5 193.578L193.936 193.898L192.662 124.604L188.905 124.876Z" fill="#F5C5CC"/>
<path d="M197.713 126.134L199.329 195.876L202.764 196.205L201.473 125.856L197.713 126.134Z" fill="#F5C5CC"/>
<path d="M199.693 124.833L201.536 197.422L202.764 196.205L201.473 125.857L199.693 124.833Z" fill="#CC929B"/>
<path d="M63.2137 190.554L59.7012 190.826L59.5373 115.794L59.5339 114.759L61.8756 113.265L61.9124 115.346L63.2137 190.554Z" fill="#F5C5CC"/>
<path d="M75.5912 186.343L72.0786 186.615L71.9147 112.808L71.9114 110.548L74.2531 109.054L74.3066 112.086L75.5912 186.343Z" fill="#F5C5CC"/>
<path d="M95.9972 179.551L92.4846 179.823L92.3241 106.948L92.3174 103.756L94.6591 102.262L94.7327 106.495L95.9972 179.551Z" fill="#F5C5CC"/>
<path d="M104.862 176.835L101.35 177.107L101.192 106.011L101.182 101.04L103.524 99.5457L103.644 106.451L104.862 176.835Z" fill="#F5C5CC"/>
<path d="M69.4024 189.739L65.8899 190.011L65.7227 114.487V113.944L68.0643 112.45L68.0877 113.882L69.4024 189.739Z" fill="#F5C5CC"/>
<path d="M87.4668 182.947L83.9542 183.219L83.7903 109.119L83.787 107.152L86.1287 105.658L86.1755 108.446L87.4668 182.947Z" fill="#F5C5CC"/>
<path d="M81.6126 184.306L78.1001 184.577L77.9395 110.926L77.9329 108.511L80.2745 107.016L80.3281 110.162L81.6126 184.306Z" fill="#F5C5CC"/>
<path d="M59.4671 178.019L58.6308 179.446C58.6308 179.446 56.4564 182.094 56.7073 186.169C56.9582 190.244 53.2048 201.043 53.2048 201.043C53.2048 201.043 56.6337 202.333 59.2263 202.198C61.8189 202.062 67.4221 204.303 67.4221 204.303L79.0368 207.229L102.537 211.711C102.537 211.711 116.336 217.96 120.1 217.96C123.863 217.96 138.833 222.103 138.833 222.103C138.833 222.103 159.072 225.702 160.661 227.061C162.25 228.419 168.95 230.247 169.619 230.321C170.289 230.394 180.492 231.204 180.492 231.204C180.492 231.204 192.367 233.445 194.04 231.068C195.015 229.731 195.667 228.256 195.963 226.721C195.963 226.721 201.232 227.672 202.654 226.246C204.076 224.819 204.159 221.763 205.832 221.899C207.504 222.035 214.362 223.733 215.115 223.121C215.868 222.51 219.882 215.311 222.725 216.398C225.569 217.484 230.503 219.182 230.503 219.182L227.66 195.683L226.405 189.231C226.405 189.231 180.826 204.309 179.237 204.309C177.648 204.309 59.4671 178.019 59.4671 178.019Z" fill="#6C63FF"/>
<path d="M226.154 157.441L225.903 190.584L178.558 205.327L58.6308 179.451C58.6308 179.451 50.5185 170.146 58.0453 161.453C58.0453 161.453 48.3441 150.586 60.387 143.523L60.6847 143.466L106.217 134.558L126.466 137.563L215.934 150.853C215.934 150.853 224.722 153.501 226.154 157.441Z" fill="#6C63FF"/>
<path opacity="0.1" d="M124.867 140.733C122.609 141.684 106.217 145.148 102.955 147.253C99.6936 149.359 77.1132 150.994 77.1132 150.994L74.6043 151.401C74.6043 151.401 74.7715 150.043 64.8194 146.104C63.2295 145.469 61.821 144.57 60.6847 143.466L106.217 134.558L126.466 137.563C126.492 138.864 126.218 140.163 124.867 140.733Z" fill="black"/>
<path d="M56.0382 127.631C56.0382 127.631 55.2019 140.806 65.154 144.746C75.1061 148.685 74.9489 150.038 74.9489 150.038L77.4578 149.63C77.4578 149.63 68.7602 141.752 69.3456 140.394C69.931 139.035 61.5679 132.176 60.387 131.904C59.2061 131.632 56.0382 127.631 56.0382 127.631Z" fill="#6C63FF"/>
<path opacity="0.1" d="M56.2154 127.829C56.2154 127.829 55.3791 141.005 65.3312 144.944C75.2834 148.883 75.1161 150.241 75.1161 150.241L77.625 149.834C77.625 149.834 68.9274 141.956 69.5128 140.597C70.0982 139.239 61.7251 132.379 60.5643 132.108C59.4035 131.836 56.2154 127.829 56.2154 127.829Z" fill="black"/>
<path opacity="0.1" d="M58.5571 133.398C58.5571 133.398 66.5857 143.246 68.0075 143.585C69.4292 143.925 60.4706 133.534 58.5571 133.398Z" fill="black"/>
<path d="M54.8773 125.791C54.8773 125.791 60.0625 122.395 60.7315 121.716C61.4006 121.037 68.7601 120.765 69.011 120.765C69.2619 120.765 74.8652 117.981 81.1375 117.098C87.4099 116.215 89.9188 115.808 89.9188 115.808C89.9188 115.808 99.1182 112.683 99.62 112.004C100.122 111.325 104.387 110.578 109.656 113.906C114.925 117.234 126.549 132.175 126.633 133.805C126.717 135.435 127.469 138.424 125.211 139.375C122.953 140.325 106.561 143.789 103.3 145.895C100.038 148 77.4477 149.636 77.4477 149.636L68.9274 142.091L64.4113 136.183L56.8845 129.73L54.8773 125.791Z" fill="#6C63FF"/>
<path opacity="0.1" d="M68.8606 184.45C68.8606 184.45 65.7395 184.993 67.5225 186.441C69.3055 187.889 68.8606 184.45 68.8606 184.45Z" fill="black"/>
<path opacity="0.1" d="M79.7894 187.348C79.7894 187.348 76.4442 190.608 77.1132 191.513C77.7823 192.418 79.7894 187.348 79.7894 187.348Z" fill="black"/>
<path opacity="0.1" d="M99.416 191.513C99.416 191.513 96.0708 194.773 96.7398 195.678C97.4089 196.582 99.416 191.513 99.416 191.513Z" fill="black"/>
<path opacity="0.1" d="M123.278 196.946C123.278 196.946 119.932 200.206 120.602 201.111C121.271 202.016 123.278 196.946 123.278 196.946Z" fill="black"/>
<path opacity="0.1" d="M155.392 203.466C155.392 203.466 152.047 206.726 152.716 207.631C153.385 208.536 155.392 203.466 155.392 203.466Z" fill="black"/>
<path opacity="0.1" d="M89.3803 188.253C89.3803 188.253 86.035 191.513 86.7041 192.418C87.3731 193.322 89.3803 188.253 89.3803 188.253Z" fill="black"/>
<path opacity="0.1" d="M135.99 199.663C135.99 199.663 132.644 202.923 133.313 203.828C133.982 204.732 135.99 199.663 135.99 199.663Z" fill="black"/>
<path opacity="0.1" d="M145.801 202.198C145.801 202.198 142.456 205.458 143.125 206.365C143.794 207.273 145.801 202.198 145.801 202.198Z" fill="black"/>
<path opacity="0.1" d="M108.114 193.686C108.114 193.686 104.768 196.946 105.437 197.851C106.107 198.756 108.114 193.686 108.114 193.686Z" fill="black"/>
<path opacity="0.1" d="M192.414 213.428L195.953 226.716C195.953 226.716 195.98 217.411 192.414 213.428Z" fill="black"/>
<path opacity="0.1" d="M203.34 215.42L205.822 221.899C205.822 221.899 205.571 219.405 203.34 215.42Z" fill="black"/>
<path opacity="0.1" d="M215.115 223.116C215.115 223.116 209.819 207.452 208.702 206.365C207.585 205.278 211.927 222.122 215.115 223.116Z" fill="black"/>
<path opacity="0.1" d="M221.404 215.781C221.404 215.781 215.162 206.908 217.614 205.278C220.066 203.648 221.404 215.781 221.404 215.781Z" fill="black"/>
<path opacity="0.1" d="M58.0454 161.448L179.254 183.545L225.867 172.496L178.809 182.458C178.809 182.458 61.7252 160.543 58.0454 161.448Z" fill="black"/>
<path d="M61.7084 137.443L61.8756 200.674L65.3045 201.013L65.4718 137.24L61.7084 137.443Z" fill="#F5C5CC"/>
<path d="M63.7155 136.289L64.05 202.1L65.3044 201.013L65.4717 137.239L63.7155 136.289Z" fill="#CC929B"/>
<path d="M68.9843 139.141L69.1515 202.372L72.5804 202.711L72.7477 138.937L68.9843 139.141Z" fill="#F5C5CC"/>
<path d="M70.9915 137.987L71.326 203.798L72.5804 202.711L72.7477 138.937L70.9915 137.987Z" fill="#CC929B"/>
<path d="M76.0929 140.975L76.2602 204.205L79.689 204.545L79.8563 140.771L76.0929 140.975Z" fill="#F5C5CC"/>
<path d="M78.1001 139.82L78.4346 205.632L79.6891 204.545L79.8564 140.771L78.1001 139.82Z" fill="#CC929B"/>
<path d="M83.0343 141.423L83.2016 206.873L86.6304 207.224L86.7977 141.211L83.0343 141.423Z" fill="#F5C5CC"/>
<path d="M85.0415 140.228L85.376 208.348L86.6305 207.224L86.7978 141.211L85.0415 140.228Z" fill="#CC929B"/>
<path d="M90.5612 142.034L90.7284 207.484L94.1573 207.835L94.3246 141.823L90.5612 142.034Z" fill="#F5C5CC"/>
<path d="M92.5682 140.839L92.9028 208.96L94.1572 207.835L94.3245 141.823L92.5682 140.839Z" fill="#CC929B"/>
<path d="M97.9208 144.275L98.088 209.725L101.517 210.076L101.684 144.063L97.9208 144.275Z" fill="#F5C5CC"/>
<path d="M99.9279 143.08L100.262 211.201L101.517 210.076L101.684 144.064L99.9279 143.08Z" fill="#CC929B"/>
<path d="M108.375 144.574L108.709 214.597L109.964 213.439L110.131 145.585L108.375 144.574Z" fill="#CC929B"/>
<path d="M113.727 146.617L113.894 213.893L117.323 214.254L117.49 146.4L113.727 146.617Z" fill="#F5C5CC"/>
<path d="M115.734 145.389L116.069 215.412L117.323 214.254L117.49 146.4L115.734 145.389Z" fill="#CC929B"/>
<path d="M121.505 148.519L121.672 215.795L125.101 216.156L125.268 148.302L121.505 148.519Z" fill="#F5C5CC"/>
<path d="M123.512 147.291L123.846 217.313L125.101 216.156L125.268 148.302L123.512 147.291Z" fill="#CC929B"/>
<path d="M129.951 150.625L130.119 217.9L133.548 218.262L133.715 150.407L129.951 150.625Z" fill="#F5C5CC"/>
<path d="M131.959 149.396L132.293 219.419L133.548 218.261L133.715 150.407L131.959 149.396Z" fill="#CC929B"/>
<path d="M138.482 151.806L138.649 220.516L142.078 220.886L142.245 151.583L138.482 151.806Z" fill="#F5C5CC"/>
<path d="M140.489 150.551L140.824 222.067L142.078 220.886L142.245 151.583L140.489 150.551Z" fill="#CC929B"/>
<path d="M147.263 153.183L147.43 222.939L150.859 223.314L151.027 152.958L147.263 153.183Z" fill="#CC929B"/>
<path d="M156.212 155.085L156.379 224.841L159.808 225.216L159.975 154.86L156.212 155.085Z" fill="#F5C5CC"/>
<path d="M158.219 153.811L158.553 226.414L159.808 225.216L159.975 154.86L158.219 153.811Z" fill="#CC929B"/>
<path d="M164.491 156.511L164.658 226.267L168.087 226.642L168.255 156.286L164.491 156.511Z" fill="#CC929B"/>
<path d="M57.1938 212.966L53.6813 214.053H50.3361L50.1688 114.351L52.0087 112.178L53.785 111.735L56.3575 111.091L57.1938 212.966Z" fill="#F5C5CC"/>
<path d="M57.1922 212.966L53.6797 214.053L53.4623 114.571L53.7834 111.735L56.3559 111.091L57.1922 212.966Z" fill="#CC929B"/>
<path d="M54.0143 217.177C56.2313 217.177 58.0286 215.718 58.0286 213.917C58.0286 212.117 56.2313 210.657 54.0143 210.657C51.7973 210.657 50 212.117 50 213.917C50 215.718 51.7973 217.177 54.0143 217.177Z" fill="#40414D"/>
<path d="M236.832 228.229L233.32 229.267H229.974L229.807 119.638L231.647 120.007L233.423 119.584L235.996 118.97L236.832 228.229Z" fill="#F5C5CC"/>
<path d="M236.832 228.229L233.32 229.267L233.102 122.295L233.423 119.584L235.996 118.97L236.832 228.229Z" fill="#CC929B"/>
<path d="M188.159 207.669L184.646 207.941L184.486 134.702L184.479 131.874L186.821 130.38L186.888 134.284L188.159 207.669Z" fill="#F5C5CC"/>
<path d="M200.536 203.458L197.024 203.73L196.866 131.844L196.856 127.663L199.198 126.169L199.285 131.13L200.536 203.458Z" fill="#F5C5CC"/>
<path d="M220.942 196.666L217.43 196.938L217.272 125.221L217.262 120.871L219.604 119.377L219.691 124.406L220.942 196.666Z" fill="#F5C5CC"/>
<path d="M226.127 118.155L226.295 194.222L229.807 193.95L228.469 116.661L226.127 118.155Z" fill="#F5C5CC"/>
<path d="M194.347 206.854L190.835 207.126L190.674 133.472L190.668 131.059L193.009 129.565L193.066 132.882L194.347 206.854Z" fill="#F5C5CC"/>
<path d="M206.558 201.421L203.045 201.692L202.888 129.997L202.878 125.626L205.22 124.131L205.307 129.206L206.558 201.421Z" fill="#F5C5CC"/>
<path d="M213.359 199.609L209.846 199.881L209.689 128.185V127.758L209.679 123.814L212.021 122.32L212.101 126.954L212.107 127.394L213.359 199.609Z" fill="#F5C5CC"/>
<path d="M181.134 207.172L229.64 190.418L232.985 191.051L233.096 197.3L182.027 213.328L181.134 207.172Z" fill="#F5C5CC"/>
<path d="M229.64 190.418L181.134 207.172L232.805 191.016" fill="#CC929B"/>
<path d="M55.4629 198.297L177.789 228.452L177.564 233.342L55.0179 202.643L55.4629 198.297Z" fill="#F5C5CC"/>
<path d="M183.141 245.567L179.628 246.653H176.283L176.116 134.998V134.455L176.377 134.145L177.956 132.281L179.732 131.839L182.305 131.195L182.331 134.998L183.141 245.567Z" fill="#F5C5CC"/>
<path d="M183.141 245.567L179.628 246.653L179.411 134.675L179.732 131.839L182.305 131.195L183.141 245.567Z" fill="#CC929B"/>
<path opacity="0.1" d="M182.305 131.195L182.331 134.998C181.363 135.113 180.389 135.187 179.411 135.221C177.002 135.297 176.116 135.001 176.116 135.001C176.116 134.963 176.21 134.659 176.377 134.151L177.956 132.287L179.732 131.844L182.305 131.195Z" fill="black"/>
<path opacity="0.1" d="M186.821 130.38L186.888 134.284C186.025 134.447 185.224 134.586 184.486 134.702V131.874L186.821 130.38Z" fill="black"/>
<path opacity="0.1" d="M193.009 129.565L193.066 132.882C192.233 133.097 191.434 133.292 190.674 133.472V131.059L193.009 129.565Z" fill="black"/>
<path opacity="0.1" d="M199.198 126.169L199.285 131.13C198.449 131.381 197.643 131.619 196.867 131.844V127.663L199.198 126.169Z" fill="black"/>
<path opacity="0.1" d="M205.22 124.131L205.307 129.206L203.38 129.836L202.888 129.997V125.626L205.22 124.131Z" fill="black"/>
<path opacity="0.1" d="M219.691 124.406L217.272 125.221V120.874L219.614 119.38L219.691 124.406Z" fill="black"/>
<path opacity="0.1" d="M212.104 126.954L209.692 127.769V123.824L212.034 122.33L212.104 126.954Z" fill="black"/>
<path d="M238.003 121.415C238.003 121.415 231.814 121.415 230.142 121.007C228.469 120.6 224.957 122.23 203.38 129.293C190.333 133.567 183.091 134.558 179.411 134.675C177.002 134.751 176.116 134.455 176.116 134.455C176.116 134.455 180.522 118.041 194.552 114.974C196.116 114.628 197.654 114.208 199.158 113.716L199.429 113.632C200.607 113.261 201.815 112.957 203.045 112.722C207.548 111.882 210.763 110.277 218.902 110.228C223.952 110.159 228.88 111.487 232.878 113.993C235.668 115.775 238.073 118.239 238.003 121.415Z" fill="#CC929B"/>
<path d="M200.034 113.536C182.673 119.616 180.023 130.98 179.411 134.675C177.002 134.751 176.116 134.455 176.116 134.455C176.116 134.455 180.522 118.041 194.552 114.973C196.116 114.627 197.654 114.207 199.158 113.716L199.429 113.631C199.63 113.607 199.83 113.574 200.034 113.536Z" fill="#F5C5CC"/>
<path opacity="0.1" d="M61.8757 113.265L61.9125 115.346C61.0661 115.517 60.2767 115.666 59.5374 115.794V114.759L61.8757 113.265Z" fill="black"/>
<path opacity="0.1" d="M68.0643 112.45L68.0877 113.882C67.2648 114.103 66.4765 114.305 65.7227 114.487V113.944L68.0643 112.45Z" fill="black"/>
<path opacity="0.1" d="M74.2531 109.054L74.3066 112.086C73.4837 112.341 72.6864 112.582 71.9148 112.808V110.548L74.2531 109.054Z" fill="black"/>
<path opacity="0.1" d="M80.2744 107.016L80.328 110.162C79.5585 110.403 78.7624 110.658 77.9395 110.926V108.511L80.2744 107.016Z" fill="black"/>
<path opacity="0.1" d="M86.1287 105.658L86.1756 108.446C85.4173 108.652 84.6223 108.877 83.7904 109.119V107.152L86.1287 105.658Z" fill="black"/>
<path opacity="0.1" d="M94.6591 102.262L94.7327 106.495C93.9934 106.62 93.1939 106.766 92.3241 106.948V103.756L94.6591 102.262Z" fill="black"/>
<path opacity="0.1" d="M103.644 106.441C102.857 106.2 102.031 106.052 101.192 106.001V101.029L103.534 99.5349L103.644 106.441Z" fill="black"/>
<path d="M112.055 106.473C112.055 106.473 105.867 106.473 104.194 106.066C102.521 105.658 99.0089 103.485 77.432 110.548C64.3855 114.821 57.143 115.813 53.4633 115.93C51.0547 116.006 50.1682 115.71 50.1682 115.71C50.1682 115.71 53.49 101.447 68.1389 99.0403C68.9564 98.9109 69.7639 98.7431 70.5575 98.5377C71.4574 98.2986 72.8758 97.9563 74.7826 97.6004C79.7001 96.6822 87.8524 95.6743 98.6877 96.1008C102.443 96.2151 106.005 97.4832 108.653 99.6488C109.761 100.539 110.634 101.603 111.219 102.777C111.804 103.95 112.089 105.208 112.055 106.473V106.473Z" fill="#CC929B"/>
<path d="M74.7832 97.6006C57.4213 103.68 54.0761 112.235 53.4639 115.93C51.0553 116.006 50.1688 115.71 50.1688 115.71C50.1688 115.71 53.4907 101.447 68.1395 99.0404C68.957 98.911 69.7646 98.7432 70.5581 98.5378C71.458 98.2906 72.8764 97.9565 74.7832 97.6006Z" fill="#F5C5CC"/>
<path d="M55.0178 137.239L54.9342 133.232L56.6905 132.485L176.785 154.354L176.45 159.448L55.0178 137.239Z" fill="#F5C5CC"/>
<path d="M56.6905 132.485L176.785 154.354L176.618 156.256L55.1952 133.121" fill="#CC929B"/>
<path d="M233.32 232.527C235.537 232.527 237.334 231.067 237.334 229.267C237.334 227.466 235.537 226.007 233.32 226.007C231.103 226.007 229.305 227.466 229.305 229.267C229.305 231.067 231.103 232.527 233.32 232.527Z" fill="#40414D"/>
<path d="M180.13 251C182.347 251 184.145 249.54 184.145 247.74C184.145 245.94 182.347 244.48 180.13 244.48C177.913 244.48 176.116 245.94 176.116 247.74C176.116 249.54 177.913 251 180.13 251Z" fill="#40414D"/>
<path d="M59.5909 180.728C59.5909 180.728 56.0215 183.988 54.9075 186.887C53.7936 189.785 56.2456 200.652 56.2456 200.652C57.5027 198.844 58.4056 196.888 58.9218 194.855C59.8117 191.415 59.5909 180.728 59.5909 180.728Z" fill="#6C63FF"/>
<path d="M228.971 207.805C228.971 207.805 231.145 216.77 231.313 218.128C231.48 219.487 225.793 217.449 225.793 217.449L228.971 207.805Z" fill="#6C63FF"/>
<path opacity="0.1" d="M113.894 201.421C113.894 201.421 121.337 199.587 123.094 200.81C124.85 202.032 113.894 201.421 113.894 201.421Z" fill="black"/>
<path opacity="0.1" d="M116.57 209.163C116.57 209.163 118.828 207.194 122.174 207.805C124.136 208.176 126.195 208.009 128.028 207.33L116.57 209.163Z" fill="black"/>
<path opacity="0.1" d="M124.432 211.404C124.432 211.404 130.537 210.725 130.788 211.336C131.039 211.948 124.432 211.404 124.432 211.404Z" fill="black"/>
<path opacity="0.1" d="M122.675 215.412C122.675 215.412 129.45 213.782 129.784 214.461C130.119 215.14 122.341 215.344 122.341 215.344L122.675 215.412Z" fill="black"/>
<path opacity="0.1" d="M130.286 178.804C130.286 178.804 123.93 183.355 124.85 183.83C125.77 184.306 130.286 178.804 130.286 178.804Z" fill="black"/>
<path opacity="0.1" d="M125.101 190.079C125.101 190.079 129.533 190.079 128.697 190.894C127.861 191.709 125.101 190.079 125.101 190.079Z" fill="black"/>
<path opacity="0.1" d="M127.777 193.271C127.777 193.271 126.021 194.493 126.439 194.765C126.857 195.037 127.777 193.271 127.777 193.271Z" fill="black"/>
<path opacity="0.1" d="M97.5862 130.719C97.5862 130.719 101.935 130.719 103.608 131.059C105.28 131.399 108.793 131.467 108.793 131.467C108.793 131.467 99.0915 131.195 97.5862 130.719Z" fill="black"/>
<path opacity="0.1" d="M97.7534 132.893C97.7534 132.893 103.357 133.232 103.44 133.912C103.524 134.591 97.7534 132.893 97.7534 132.893Z" fill="black"/>
<path opacity="0.1" d="M114.731 108.714C115.065 108.714 116.403 109.258 116.57 109.869C116.738 110.48 114.731 108.714 114.731 108.714Z" fill="black"/>
<path opacity="0.1" d="M113.894 109.597C114.229 109.597 115.567 110.141 115.734 110.752C115.901 111.363 113.894 109.597 113.894 109.597Z" fill="black"/>
<path opacity="0.1" d="M116.989 112.042C117.323 112.042 118.661 112.586 118.829 113.197C118.996 113.808 116.989 112.042 116.989 112.042Z" fill="black"/>
<path d="M187.733 231.539C185.357 230.552 184.224 227.534 185.204 224.8C186.183 222.066 188.904 220.65 191.28 221.638C193.657 222.626 194.789 225.643 193.81 228.377C192.83 231.111 190.11 232.527 187.733 231.539Z" fill="#38263A"/>
<path d="M174.999 226.247C172.623 225.259 171.49 222.242 172.47 219.508C173.449 216.774 176.17 215.358 178.546 216.346C180.923 217.333 182.055 220.351 181.075 223.085C180.096 225.819 177.375 227.235 174.999 226.247Z" fill="#38263A"/>
<path opacity="0.1" d="M176.046 226.682C174.247 225.934 173.477 223.407 174.325 221.038C175.174 218.669 177.32 217.355 179.119 218.103C180.918 218.85 181.688 221.377 180.84 223.746C179.991 226.115 177.845 227.429 176.046 226.682Z" fill="black"/>
<path opacity="0.1" d="M186.686 231.105C184.887 230.357 184.117 227.83 184.966 225.461C185.815 223.092 187.961 221.778 189.76 222.526C191.558 223.273 192.329 225.8 191.48 228.169C190.631 230.538 188.485 231.852 186.686 231.105Z" fill="black"/>
<path d="M160.588 237.75C160.16 239.342 160.695 241.292 162.036 241.861C162.635 242.109 163.298 242.075 163.942 241.982C164.5 241.902 165.068 241.776 165.566 241.46C165.638 241.413 165.708 241.364 165.776 241.312C166.62 240.663 167.146 239.555 167.945 238.811C169.382 237.473 171.407 237.531 173.206 237.763C175.104 238.007 176.984 238.365 178.839 238.835C180.101 239.154 181.364 239.531 182.502 240.199C184.925 241.622 186.627 244.265 189.03 245.708C189.111 245.756 189.193 245.803 189.276 245.849C190.041 246.273 190.867 246.564 191.637 246.981C192.919 247.676 194.049 248.726 195.422 249.177C196.794 249.627 198.595 249.225 199.239 247.73C199.694 246.676 199.417 245.399 198.809 244.506C198.2 243.613 197.313 243.027 196.437 242.485C194.113 241.045 191.669 239.729 189.815 237.608C189.152 236.849 188.57 235.994 187.852 235.302C187.533 234.992 187.181 234.727 186.803 234.514C186.332 234.243 185.804 234.109 185.265 234.122L186.275 235.143L174.923 229.334L174.475 229.105C173.937 228.83 173.39 228.551 172.797 228.467C171.778 228.323 170.738 228.775 169.837 229.398C168.937 230.021 168.143 230.824 167.267 231.496C166.038 232.435 164.668 233.101 163.425 234.014C162.181 234.927 161.017 236.159 160.588 237.75Z" fill="#38263A"/>
<path opacity="0.1" d="M166.747 238.033C166.358 239.102 166.032 240.197 165.771 241.31C166.616 240.661 167.142 239.553 167.941 238.809C169.378 237.471 171.402 237.529 173.202 237.761C175.099 238.005 176.98 238.363 178.835 238.833C180.097 239.152 181.36 239.529 182.498 240.197C184.921 241.62 186.622 244.264 189.026 245.706C190.1 240.934 189.146 237.195 186.794 234.509C185.517 233.055 183.829 231.905 181.825 231.072C179.364 230.049 177.052 229.22 174.912 229.328C171.794 229.483 169.044 231.622 166.747 238.033Z" fill="black"/>
<path d="M167.144 238.724C166.275 241.15 165.848 243.152 165.778 244.824C165.609 248.926 167.581 251.053 170.42 252.626C171.377 253.156 172.427 253.621 173.529 254.079C174.913 254.668 176.375 255.022 177.868 255.128C180.644 255.3 183.284 254.43 185.272 252.188C186.343 250.981 187.223 249.378 187.835 247.324C190.168 239.487 187.165 234.34 181.451 231.965C175.737 229.59 170.862 228.346 167.144 238.724Z" fill="#6B6B6B"/>
<path opacity="0.1" d="M177.94 238.457C173.479 236.603 171.354 230.94 173.192 225.808C175.031 220.677 180.137 218.019 184.597 219.873C189.057 221.727 191.183 227.39 189.344 232.522C187.506 237.653 182.4 240.311 177.94 238.457Z" fill="black"/>
<path d="M178.134 237.914C173.674 236.06 171.548 230.397 173.387 225.265C175.225 220.134 180.331 217.476 184.791 219.33C189.252 221.184 191.377 226.847 189.539 231.979C187.7 237.11 182.594 239.768 178.134 237.914Z" fill="#6B6B6B"/>
<path d="M183.405 226.509C183.177 226.414 183.068 226.124 183.162 225.862C183.256 225.599 183.518 225.463 183.746 225.558C183.974 225.653 184.083 225.943 183.989 226.205C183.894 226.468 183.633 226.604 183.405 226.509Z" fill="#38263A"/>
<path d="M181.401 225.676C181.173 225.582 181.064 225.292 181.158 225.029C181.253 224.767 181.514 224.631 181.742 224.726C181.97 224.821 182.079 225.11 181.985 225.373C181.891 225.635 181.63 225.771 181.401 225.676Z" fill="#38263A"/>
<path opacity="0.1" d="M179.942 232.867C177.614 231.899 176.228 229.716 176.847 227.99C177.465 226.264 179.853 225.649 182.181 226.616C184.509 227.584 185.895 229.767 185.277 231.493C184.658 233.219 182.27 233.834 179.942 232.867Z" fill="black"/>
<path d="M180.005 232.692C177.807 231.779 176.498 229.717 177.082 228.087C177.666 226.458 179.921 225.877 182.119 226.791C184.317 227.704 185.625 229.766 185.041 231.396C184.458 233.025 182.203 233.606 180.005 232.692Z" fill="#38263A"/>
<path opacity="0.1" d="M177.868 255.128C180.644 255.3 183.284 254.43 185.272 252.188C184.973 251.904 184.632 251.681 184.263 251.527C182.157 250.652 179.556 252.213 177.868 255.128Z" fill="black"/>
<path d="M176.992 257.74C175.496 261.916 176.355 266.163 178.91 267.225C180.642 267.945 182.707 267.019 184.324 265.048C185.148 264.033 185.802 262.859 186.251 261.589C187.748 257.412 186.888 253.164 184.333 252.102C182.026 251.144 179.126 253.104 177.482 256.571C177.3 256.951 177.136 257.341 176.992 257.74V257.74Z" fill="#6B6B6B"/>
<path opacity="0.1" d="M176.992 257.74C175.496 261.916 176.355 266.163 178.91 267.225C180.642 267.945 182.707 267.019 184.324 265.048C185.281 261.973 183.492 258.454 180.235 257.1C179.359 256.73 178.424 256.547 177.475 256.562C177.294 256.945 177.133 257.338 176.992 257.74Z" fill="black"/>
<path d="M175.726 268.552C172.389 267.165 170.592 263.504 171.713 260.376C172.833 257.248 176.447 255.837 179.784 257.224C183.121 258.611 184.918 262.271 183.797 265.399C182.677 268.527 179.063 269.939 175.726 268.552Z" fill="#38263A"/>
<path d="M175.27 268.362C172.185 267.08 170.536 263.664 171.586 260.733C172.637 257.801 175.988 256.464 179.073 257.746C182.158 259.028 183.807 262.444 182.757 265.375C181.707 268.307 178.355 269.644 175.27 268.362Z" fill="#6B6B6B"/>
<path opacity="0.1" d="M175.416 261.574C174.879 261.351 174.667 260.543 174.944 259.771C175.221 258.999 175.88 258.554 176.418 258.777C176.955 259 177.166 259.808 176.89 260.58C176.613 261.352 175.953 261.797 175.416 261.574Z" fill="black"/>
<path d="M175.491 261.363C175.036 261.173 174.857 260.488 175.091 259.832C175.326 259.177 175.886 258.799 176.342 258.988C176.798 259.178 176.977 259.863 176.742 260.518C176.507 261.174 175.947 261.552 175.491 261.363Z" fill="#38263A"/>
<path opacity="0.1" d="M177.93 263.818C177.365 263.583 177.108 262.831 177.357 262.138C177.605 261.445 178.264 261.073 178.829 261.308C179.394 261.543 179.651 262.295 179.402 262.988C179.154 263.681 178.495 264.053 177.93 263.818Z" fill="black"/>
<path d="M177.991 263.648C177.502 263.445 177.281 262.794 177.495 262.195C177.71 261.596 178.28 261.275 178.768 261.478C179.256 261.681 179.478 262.331 179.264 262.93C179.049 263.529 178.479 263.851 177.991 263.648Z" fill="#38263A"/>
<path opacity="0.1" d="M178.585 267.093C177.983 266.842 177.658 266.183 177.86 265.62C178.062 265.057 178.713 264.803 179.316 265.054C179.918 265.304 180.243 265.963 180.041 266.526C179.84 267.089 179.188 267.343 178.585 267.093Z" fill="black"/>
<path d="M178.635 266.955C178.114 266.738 177.833 266.168 178.007 265.681C178.182 265.194 178.746 264.975 179.266 265.191C179.787 265.408 180.068 265.978 179.893 266.465C179.719 266.952 179.155 267.171 178.635 266.955Z" fill="#38263A"/>
<path opacity="0.1" d="M173.178 266.052C172.511 264.581 172.535 263.041 173.231 262.612C173.928 262.184 175.032 263.029 175.699 264.5C176.365 265.971 176.341 267.511 175.645 267.94C174.949 268.368 173.844 267.523 173.178 266.052Z" fill="black"/>
<path d="M173.261 266.001C172.638 264.626 172.66 263.186 173.31 262.786C173.961 262.386 174.993 263.176 175.616 264.551C176.239 265.926 176.217 267.366 175.566 267.766C174.916 268.166 173.884 267.376 173.261 266.001Z" fill="#38263A"/>
<path opacity="0.1" d="M165.778 244.824C165.609 248.926 167.581 251.053 170.42 252.626C171.138 249.086 170.195 245.836 168.004 244.925C167.298 244.639 166.522 244.604 165.778 244.824V244.824Z" fill="black"/>
<path d="M160.192 250.757C159.688 252.135 159.439 253.603 159.46 255.07C159.515 257.538 160.458 259.556 162.11 260.242C164.666 261.304 167.95 258.779 169.446 254.604C169.587 254.211 169.71 253.81 169.813 253.404C170.762 249.642 169.839 246.078 167.528 245.118C164.972 244.055 161.688 246.58 160.192 250.757Z" fill="#6B6B6B"/>
<path opacity="0.1" d="M159.466 255.053L159.459 255.07C159.515 257.539 160.458 259.556 162.11 260.242C164.665 261.304 167.95 258.779 169.446 254.604C169.587 254.211 169.71 253.81 169.813 253.404C169.142 252.754 168.372 252.247 167.536 251.904C164.199 250.517 160.586 251.924 159.466 255.053Z" fill="black"/>
<path d="M163.642 263.529C160.305 262.142 158.508 258.482 159.628 255.354C160.749 252.226 164.362 250.814 167.699 252.201C171.037 253.588 172.833 257.248 171.713 260.376C170.592 263.504 166.979 264.916 163.642 263.529Z" fill="#38263A"/>
<path d="M164.158 263.743C161.105 262.475 159.483 259.07 160.533 256.138C161.583 253.207 164.908 251.859 167.961 253.127C171.013 254.396 172.636 257.801 171.585 260.732C170.535 263.664 167.21 265.012 164.158 263.743Z" fill="#6B6B6B"/>
<path opacity="0.1" d="M168.215 258.611C167.668 258.384 167.453 257.562 167.735 256.775C168.017 255.988 168.689 255.534 169.235 255.762C169.782 255.989 169.997 256.811 169.715 257.598C169.433 258.385 168.761 258.839 168.215 258.611Z" fill="black"/>
<path d="M168.3 258.373C167.844 258.184 167.665 257.499 167.9 256.843C168.135 256.188 168.694 255.81 169.15 255.999C169.606 256.188 169.785 256.874 169.55 257.529C169.315 258.185 168.755 258.563 168.3 258.373Z" fill="#38263A"/>
<path opacity="0.1" d="M164.961 258.427C164.396 258.193 164.14 257.441 164.388 256.747C164.636 256.054 165.295 255.683 165.86 255.918C166.425 256.152 166.682 256.905 166.434 257.598C166.185 258.291 165.526 258.662 164.961 258.427Z" fill="black"/>
<path d="M165.022 258.258C164.534 258.055 164.312 257.405 164.527 256.805C164.741 256.206 165.311 255.885 165.799 256.088C166.288 256.291 166.51 256.941 166.295 257.54C166.08 258.14 165.51 258.461 165.022 258.258Z" fill="#38263A"/>
<path opacity="0.1" d="M162.433 260.379C161.831 260.129 161.506 259.469 161.708 258.906C161.91 258.343 162.562 258.09 163.164 258.34C163.766 258.59 164.091 259.25 163.889 259.813C163.688 260.376 163.036 260.63 162.433 260.379Z" fill="black"/>
<path d="M162.483 260.241C161.962 260.025 161.681 259.455 161.856 258.968C162.03 258.481 162.594 258.261 163.115 258.478C163.635 258.694 163.916 259.265 163.742 259.752C163.567 260.239 163.004 260.458 162.483 260.241Z" fill="#38263A"/>
<path opacity="0.1" d="M164.077 263.149C163.829 262.328 164.771 261.17 166.182 260.562C167.594 259.955 168.939 260.128 169.187 260.949C169.436 261.77 168.493 262.929 167.082 263.536C165.671 264.144 164.326 263.971 164.077 263.149Z" fill="black"/>
<path d="M164.244 263.078C164.012 262.311 164.893 261.228 166.212 260.66C167.531 260.092 168.789 260.254 169.021 261.021C169.253 261.788 168.372 262.87 167.052 263.438C165.733 264.006 164.476 263.845 164.244 263.078Z" fill="#38263A"/>
<path d="M77.7507 228.033C77.5728 227.254 77.2199 226.533 76.7226 225.934C76.2254 225.335 75.599 224.875 74.8979 224.594C74.1968 224.313 73.4422 224.22 72.6999 224.323C71.9576 224.426 71.25 224.722 70.6387 225.184L70.4501 225.332C66.4057 228.579 68.8063 234.534 70.4501 234.669C72.094 234.804 75.256 234.949 75.256 234.949C75.256 234.949 78.9812 233.302 77.7507 228.033Z" fill="#192534"/>
<path d="M41.2621 223.986V225.068C41.2621 225.068 57.7006 226.285 59.4557 226.285H62.7409C62.7409 226.285 62.7893 226.339 62.8691 226.438C63.0045 226.601 63.2341 226.888 63.4879 227.246C64.0053 227.965 64.6217 228.97 64.7643 229.804C65.0061 231.293 65.9005 231.834 65.9005 231.834L69.1858 230.889L72.3551 226.829L72.8168 226.352L74.1319 225.008L75.256 223.856L75.2004 223.209V223.11C74.9316 221.72 74.5878 220.347 74.1706 218.999C74.1706 218.962 74.1488 218.923 74.1367 218.887C73.2253 215.956 71.7048 212.396 69.5146 211.337C69.3478 211.256 69.1737 211.179 68.9876 211.109L68.7652 211.026C64.5637 209.519 56.6249 210.117 56.6249 210.117C56.6249 210.117 50.5619 212.013 50.0543 212.826C49.5466 213.639 43.8004 220.335 43.8004 220.335C43.296 220.742 42.8312 221.203 42.4128 221.71C41.8737 222.349 41.3733 223.154 41.2621 223.986Z" fill="#565ABB"/>
<path opacity="0.1" d="M75.7563 232.919C74.779 232.919 73.9868 231.585 73.9868 229.941C73.9868 228.296 74.779 226.963 75.7563 226.963C76.7336 226.963 77.5259 228.296 77.5259 229.941C77.5259 231.585 76.7336 232.919 75.7563 232.919Z" fill="white"/>
<path opacity="0.1" d="M68.4267 212.347C68.4267 212.347 69.8772 214.729 71.4098 217.784C71.4106 217.792 71.4106 217.8 71.4098 217.807C71.8184 218.62 72.2342 219.478 72.6306 220.355L72.6476 220.397C72.6476 220.397 73.4864 219.685 74.1464 218.991C74.1464 218.955 74.1246 218.916 74.1125 218.879C73.2012 215.948 71.6806 212.388 69.4904 211.329C69.3236 211.249 69.1495 211.171 68.9634 211.101L68.4267 212.347Z" fill="black"/>
<path opacity="0.1" d="M72.7224 220.332C72.7224 220.332 63.7513 223.18 61.9842 221.955C61.9842 221.955 61.3508 213.294 65.5209 212.753C65.5209 212.753 67.9214 212.075 68.4218 212.494C68.9222 212.914 72.7224 220.332 72.7224 220.332Z" fill="white"/>
<path opacity="0.1" d="M61.0995 213.97C61.0995 213.97 59.3299 221.143 58.0656 221.28C56.8013 221.417 44.0445 221.143 44.5473 220.195C45.0502 219.247 50.6127 213.16 50.6127 213.16L61.0995 213.97Z" fill="white"/>
<path d="M63.2704 226.948C63.2704 226.948 60.9738 223.714 56.9295 226.963C52.8851 230.213 55.288 236.166 56.9295 236.3C58.5709 236.435 61.7184 236.572 61.7184 236.572C61.7184 236.572 66.7055 234.376 63.2704 226.948Z" fill="#192534"/>
<path d="M39.4176 227.771C39.5859 227.26 39.8513 226.792 40.1971 226.396C40.5429 226 40.9615 225.686 41.4265 225.472C41.8915 225.259 42.3928 225.151 42.8988 225.155C43.4047 225.159 43.9044 225.276 44.3661 225.498C44.8177 225.726 45.2456 226.004 45.6425 226.329C49.242 229.219 47.093 234.519 45.6425 234.641C45.1179 234.682 44.4193 234.726 43.74 234.765C43.0445 234.804 42.35 234.671 41.711 234.374C41.072 234.077 40.506 233.626 40.0575 233.055C39.609 232.484 39.2903 231.81 39.1264 231.085C38.9625 230.36 38.9579 229.604 39.113 228.877C39.1949 228.502 39.2966 228.133 39.4176 227.771V227.771Z" fill="#192534"/>
<path opacity="0.1" d="M62.2356 234.542C61.2583 234.542 60.466 233.209 60.466 231.565C60.466 229.92 61.2583 228.587 62.2356 228.587C63.2129 228.587 64.0051 229.92 64.0051 231.565C64.0051 233.209 63.2129 234.542 62.2356 234.542Z" fill="white"/>
<path opacity="0.1" d="M57.309 225.881C57.309 225.881 57.5507 221.956 53.6441 223.579C49.7376 225.203 52.2541 226.963 52.2541 226.963L57.309 225.881Z" fill="white"/>
<path opacity="0.1" d="M41.262 223.986V224.527L41.893 224.786L43.1815 224.527C43.1815 224.527 43.4571 222.31 42.4006 221.678C41.8736 222.349 41.3732 223.154 41.262 223.986Z" fill="white"/>
<path opacity="0.1" d="M41.2621 224.011V225.068C41.2621 225.068 57.7006 226.285 59.4557 226.285H59.4702C60.3791 225.767 61.2881 225.537 62.052 225.881C62.2846 225.984 62.5033 226.12 62.7023 226.285C62.7603 226.334 62.8159 226.386 62.8691 226.438C63.1101 226.674 63.3185 226.946 63.4879 227.246C64.6193 229.206 64.3775 232.24 64.3775 232.24C67.6628 233.323 71.0738 230.482 71.0738 230.482C71.6927 228.494 72.2705 227.196 72.7999 226.339C73.2834 225.562 73.7233 225.182 74.115 224.995L75.256 223.856L75.2004 223.209L66.0311 230.35C66.0311 230.35 65.1463 224.26 63.1302 224.667C61.114 225.073 57.0648 225.073 57.0648 225.073L41.2621 224.011Z" fill="black"/>
<path d="M75.7564 223.173C75.7564 223.173 76.5155 225.203 75.7564 225.34C74.9973 225.477 73.293 223.786 71.0811 230.889C71.0811 230.889 67.6701 233.737 64.3848 232.647C64.3848 232.647 64.7764 227.505 62.052 226.285C59.3275 225.065 54.7828 231.158 54.7828 231.158V232.512L44.0421 231.293C44.0421 231.293 40.7568 228.587 40.8825 224.392L57.0552 225.475C57.0552 225.475 61.0995 225.475 63.1205 225.068C65.1414 224.661 66.0214 230.765 66.0214 230.765L75.7564 223.173Z" fill="#565ABB"/>
</svg>
