<svg width="194" height="274" viewBox="0 0 194 274" fill="none" xmlns="http://www.w3.org/2000/svg">
<g opacity="0.9">
<rect width="194" height="274" fill="#D8A4E0"/>
</g>
<path d="M180.686 91.6314L178.985 92.1407L178.443 91.7903L179.021 91.6171C179.08 91.5996 179.115 91.5318 179.099 91.4663C179.083 91.4007 179.023 91.3613 178.964 91.379L178.173 91.6161L177.632 91.2667L178.174 90.9167L178.964 91.154C178.974 91.157 178.984 91.1582 178.993 91.1582C179.042 91.1582 179.086 91.122 179.099 91.0668C179.115 91.001 179.08 90.9335 179.021 90.916L178.443 90.7425L178.986 90.3921L180.686 90.902C180.695 90.9049 180.705 90.9061 180.714 90.9061C180.763 90.9061 180.807 90.8699 180.82 90.8147C180.836 90.7489 180.801 90.6814 180.742 90.6639L179.255 90.2179L179.92 89.7886L180.568 89.9835C180.578 89.9865 180.588 89.9877 180.597 89.9877C180.646 89.9877 180.69 89.9515 180.703 89.8963C180.719 89.8305 180.684 89.763 180.625 89.7455L180.189 89.6144L180.673 89.3016C180.725 89.2676 180.743 89.1922 180.713 89.1333C180.683 89.0742 180.616 89.0542 180.563 89.0882L180.08 89.4007L180.196 88.913C180.212 88.8472 180.177 88.7797 180.118 88.7622C180.059 88.7452 179.999 88.7837 179.983 88.8494L179.809 89.5757L179.145 90.0052L179.544 88.3406C179.559 88.2748 179.525 88.2073 179.466 88.1898C179.406 88.1725 179.347 88.211 179.331 88.277L178.876 90.1797L178.333 90.5303L178.488 89.8832C178.504 89.8174 178.469 89.7499 178.41 89.7324C178.351 89.7152 178.292 89.7538 178.275 89.8196L178.063 90.7048L177.522 91.0538V90.3539L178.101 89.7055C178.144 89.6575 178.144 89.5794 178.101 89.5313C178.059 89.4833 177.989 89.4833 177.946 89.5313L177.522 90.0054V89.3039L178.766 87.9108C178.809 87.8627 178.809 87.7846 178.766 87.7366C178.724 87.6885 178.654 87.6885 178.611 87.7366L177.522 88.9554V88.0969L177.997 87.5651C178.04 87.517 178.04 87.4389 177.997 87.3908C177.955 87.3428 177.885 87.3428 177.842 87.3908L177.522 87.7484V87.1232C177.522 87.0552 177.473 87 177.412 87C177.352 87 177.302 87.0552 177.302 87.1232V87.7482L176.983 87.3906C176.94 87.3425 176.87 87.3425 176.827 87.3906C176.784 87.4386 176.784 87.5168 176.827 87.5648L177.302 88.0966V88.9552L176.214 87.7363C176.171 87.6883 176.101 87.6883 176.058 87.7363C176.015 87.7844 176.015 87.8625 176.058 87.9106L177.302 89.3036V90.0052L176.879 89.5311C176.836 89.483 176.766 89.483 176.723 89.5311C176.681 89.5791 176.681 89.6572 176.723 89.7053L177.302 90.3536V91.0533L176.761 90.7033L176.549 89.8182C176.533 89.7524 176.473 89.7137 176.414 89.7309C176.355 89.7484 176.321 89.8162 176.336 89.8817L176.491 90.5289L175.948 90.1782L175.493 88.2755C175.478 88.2097 175.418 88.171 175.358 88.1883C175.3 88.2058 175.265 88.2735 175.28 88.3391L175.679 90.0037L175.014 89.5742L174.841 88.848C174.826 88.7819 174.766 88.7435 174.707 88.7607C174.648 88.7782 174.613 88.846 174.628 88.9115L174.745 89.3997L174.262 89.0873C174.21 89.0537 174.142 89.0735 174.112 89.1323C174.081 89.1912 174.099 89.2667 174.152 89.3007L174.636 89.6134L174.199 89.7445C174.14 89.762 174.106 89.8297 174.121 89.8953C174.134 89.9505 174.179 89.9867 174.227 89.9867C174.237 89.9867 174.246 89.9855 174.256 89.9825L174.905 89.7876L175.569 90.2169L174.082 90.6629C174.023 90.6804 173.988 90.7482 174.004 90.8137C174.018 90.8689 174.062 90.9052 174.11 90.9052C174.12 90.9052 174.129 90.9039 174.139 90.901L175.839 90.3911L176.381 90.7415L175.803 90.915C175.744 90.9325 175.709 91.0003 175.725 91.0658C175.738 91.121 175.783 91.1573 175.831 91.1573C175.84 91.1573 175.85 91.156 175.86 91.1531L176.65 90.9158L177.192 91.2657L176.651 91.6156L175.859 91.3785C175.801 91.3608 175.741 91.4 175.725 91.4658C175.709 91.5316 175.744 91.5991 175.803 91.6161L176.381 91.7898L175.838 92.1403L174.138 91.6309C174.081 91.6139 174.02 91.6521 174.004 91.7181C173.988 91.7842 174.023 91.8514 174.082 91.8684L175.569 92.315L174.904 92.7443L174.256 92.5498C174.197 92.5321 174.137 92.571 174.121 92.6371C174.106 92.7031 174.14 92.7704 174.199 92.7876L174.635 92.9185L174.151 93.2314C174.099 93.2657 174.081 93.3406 174.111 93.4C174.132 93.4394 174.169 93.4616 174.206 93.4616C174.225 93.4616 174.244 93.4564 174.261 93.4453L174.745 93.1324L174.628 93.6203C174.613 93.6864 174.648 93.7536 174.706 93.7709C174.716 93.7738 174.725 93.7753 174.734 93.7753C174.783 93.7753 174.828 93.7393 174.841 93.6839L175.014 92.9577L175.679 92.5289L175.28 94.1933C175.265 94.2595 175.299 94.3266 175.358 94.3438C175.367 94.3473 175.377 94.3483 175.386 94.3483C175.435 94.3483 175.48 94.3123 175.492 94.2568L175.947 92.3542L176.49 92.0032L176.335 92.6506C176.32 92.7167 176.355 92.7839 176.413 92.8012C176.423 92.8041 176.432 92.8056 176.441 92.8056C176.49 92.8056 176.535 92.7696 176.548 92.7142L176.76 91.829L177.301 91.4791V92.1785L176.722 92.8268C176.679 92.8746 176.679 92.953 176.722 93.001C176.765 93.0488 176.835 93.0488 176.878 93.001L177.301 92.5284V93.2297L176.057 94.623C176.014 94.6708 176.014 94.7492 176.057 94.7973C176.1 94.8451 176.17 94.8451 176.213 94.7973L177.301 93.5782V94.4367L176.826 94.9683C176.784 95.0161 176.784 95.0947 176.826 95.1425C176.869 95.1903 176.939 95.1903 176.982 95.1425L177.301 94.7849V95.4101C177.301 95.4776 177.351 95.5333 177.412 95.5333C177.472 95.5333 177.522 95.4776 177.522 95.4101V94.7849L177.841 95.1425C177.863 95.1669 177.891 95.1785 177.919 95.1785C177.947 95.1785 177.975 95.1664 177.997 95.1425C178.039 95.0947 178.039 95.0161 177.997 94.9683L177.522 94.4367V93.5782L178.61 94.7973C178.632 94.8214 178.66 94.8332 178.688 94.8332C178.716 94.8332 178.744 94.8209 178.766 94.7973C178.809 94.7492 178.809 94.6708 178.766 94.623L177.522 93.2297V92.5284L177.945 93.0025C177.967 93.0267 177.995 93.0385 178.023 93.0385C178.051 93.0385 178.08 93.0264 178.101 93.0025C178.144 92.9545 178.144 92.8763 178.101 92.8283L177.522 92.1799V91.4801L178.063 91.83L178.275 92.7152C178.288 92.7706 178.333 92.8066 178.381 92.8066C178.39 92.8066 178.4 92.8056 178.41 92.8024C178.469 92.7849 178.503 92.7169 178.487 92.6516L178.333 92.0047L178.875 92.3551L179.33 94.2583C179.343 94.3133 179.388 94.3492 179.436 94.3492C179.446 94.3492 179.455 94.3483 179.465 94.3453C179.524 94.3276 179.559 94.2598 179.543 94.1942L179.144 92.5294L179.809 92.9591L179.983 93.6851C179.996 93.7403 180.04 93.7765 180.089 93.7765C180.098 93.7765 180.108 93.7751 180.117 93.7719C180.176 93.7549 180.211 93.6866 180.195 93.6215L180.079 93.1334L180.562 93.4463C180.579 93.4574 180.598 93.4626 180.617 93.4626C180.655 93.4626 180.692 93.4409 180.713 93.401C180.743 93.3423 180.725 93.2667 180.672 93.2327L180.189 92.9195L180.625 92.7886C180.684 92.7716 180.718 92.7033 180.702 92.6383C180.687 92.572 180.627 92.5333 180.568 92.5511L179.919 92.746L179.254 92.3162L180.742 91.8704C180.801 91.8527 180.836 91.7849 180.82 91.7194C180.805 91.6531 180.744 91.6144 180.686 91.6314Z" fill="white"/>
<path d="M156.686 49.6314L154.985 50.1407L154.443 49.7903L155.021 49.6171C155.08 49.5996 155.115 49.5318 155.099 49.4663C155.083 49.4007 155.023 49.3613 154.964 49.379L154.173 49.6161L153.632 49.2667L154.174 48.9167L154.964 49.154C154.974 49.157 154.984 49.1582 154.993 49.1582C155.042 49.1582 155.086 49.122 155.099 49.0668C155.115 49.001 155.08 48.9335 155.021 48.916L154.443 48.7425L154.986 48.3921L156.686 48.902C156.695 48.9049 156.705 48.9061 156.714 48.9061C156.763 48.9061 156.807 48.8699 156.82 48.8147C156.836 48.7489 156.801 48.6814 156.742 48.6639L155.255 48.2179L155.92 47.7886L156.568 47.9835C156.578 47.9865 156.588 47.9877 156.597 47.9877C156.646 47.9877 156.69 47.9515 156.703 47.8963C156.719 47.8305 156.684 47.763 156.625 47.7455L156.189 47.6144L156.673 47.3016C156.725 47.2676 156.743 47.1922 156.713 47.1333C156.683 47.0742 156.616 47.0542 156.563 47.0882L156.08 47.4007L156.196 46.913C156.212 46.8472 156.177 46.7797 156.118 46.7622C156.059 46.7452 155.999 46.7837 155.983 46.8494L155.809 47.5757L155.145 48.0052L155.544 46.3406C155.559 46.2748 155.525 46.2073 155.466 46.1898C155.406 46.1725 155.347 46.211 155.331 46.277L154.876 48.1797L154.333 48.5303L154.488 47.8832C154.504 47.8174 154.469 47.7499 154.41 47.7324C154.351 47.7152 154.292 47.7538 154.275 47.8196L154.063 48.7048L153.522 49.0538V48.3539L154.101 47.7055C154.144 47.6575 154.144 47.5794 154.101 47.5313C154.059 47.4833 153.989 47.4833 153.946 47.5313L153.522 48.0054V47.3039L154.766 45.9108C154.809 45.8627 154.809 45.7846 154.766 45.7366C154.724 45.6885 154.654 45.6885 154.611 45.7366L153.522 46.9554V46.0969L153.997 45.5651C154.04 45.517 154.04 45.4389 153.997 45.3908C153.955 45.3428 153.885 45.3428 153.842 45.3908L153.522 45.7484V45.1232C153.522 45.0552 153.473 45 153.412 45C153.352 45 153.302 45.0552 153.302 45.1232V45.7482L152.983 45.3906C152.94 45.3425 152.87 45.3425 152.827 45.3906C152.784 45.4386 152.784 45.5168 152.827 45.5648L153.302 46.0966V46.9552L152.214 45.7363C152.171 45.6883 152.101 45.6883 152.058 45.7363C152.015 45.7844 152.015 45.8625 152.058 45.9106L153.302 47.3036V48.0052L152.879 47.5311C152.836 47.483 152.766 47.483 152.723 47.5311C152.681 47.5791 152.681 47.6572 152.723 47.7053L153.302 48.3536V49.0533L152.761 48.7033L152.549 47.8182C152.533 47.7524 152.473 47.7137 152.414 47.7309C152.355 47.7484 152.321 47.8162 152.336 47.8817L152.491 48.5289L151.948 48.1782L151.493 46.2755C151.478 46.2097 151.418 46.171 151.358 46.1883C151.3 46.2058 151.265 46.2735 151.28 46.3391L151.679 48.0037L151.014 47.5742L150.841 46.848C150.826 46.7819 150.766 46.7435 150.707 46.7607C150.648 46.7782 150.613 46.846 150.628 46.9115L150.745 47.3997L150.262 47.0873C150.21 47.0537 150.142 47.0735 150.112 47.1323C150.081 47.1912 150.099 47.2667 150.152 47.3007L150.636 47.6134L150.199 47.7445C150.14 47.762 150.106 47.8297 150.121 47.8953C150.134 47.9505 150.179 47.9867 150.227 47.9867C150.237 47.9867 150.246 47.9855 150.256 47.9825L150.905 47.7876L151.569 48.2169L150.082 48.6629C150.023 48.6804 149.988 48.7482 150.004 48.8137C150.018 48.8689 150.062 48.9052 150.11 48.9052C150.12 48.9052 150.129 48.9039 150.139 48.901L151.839 48.3911L152.381 48.7415L151.803 48.915C151.744 48.9325 151.709 49.0003 151.725 49.0658C151.738 49.121 151.783 49.1573 151.831 49.1573C151.84 49.1573 151.85 49.156 151.86 49.1531L152.65 48.9158L153.192 49.2657L152.651 49.6156L151.859 49.3785C151.801 49.3608 151.741 49.4 151.725 49.4658C151.709 49.5316 151.744 49.5991 151.803 49.6161L152.381 49.7898L151.838 50.1403L150.138 49.6309C150.081 49.6139 150.02 49.6521 150.004 49.7181C149.988 49.7842 150.023 49.8514 150.082 49.8684L151.569 50.315L150.904 50.7443L150.256 50.5498C150.197 50.5321 150.137 50.571 150.121 50.6371C150.106 50.7031 150.14 50.7704 150.199 50.7876L150.635 50.9185L150.151 51.2314C150.099 51.2657 150.081 51.3406 150.111 51.4C150.132 51.4394 150.169 51.4616 150.206 51.4616C150.225 51.4616 150.244 51.4564 150.261 51.4453L150.745 51.1324L150.628 51.6203C150.613 51.6864 150.648 51.7536 150.706 51.7709C150.716 51.7738 150.725 51.7753 150.734 51.7753C150.783 51.7753 150.828 51.7393 150.841 51.6839L151.014 50.9577L151.679 50.5289L151.28 52.1933C151.265 52.2595 151.299 52.3266 151.358 52.3438C151.367 52.3473 151.377 52.3483 151.386 52.3483C151.435 52.3483 151.48 52.3123 151.492 52.2568L151.947 50.3542L152.49 50.0032L152.335 50.6506C152.32 50.7167 152.355 50.7839 152.413 50.8012C152.423 50.8041 152.432 50.8056 152.441 50.8056C152.49 50.8056 152.535 50.7696 152.548 50.7142L152.76 49.829L153.301 49.4791V50.1785L152.722 50.8268C152.679 50.8746 152.679 50.953 152.722 51.001C152.765 51.0488 152.835 51.0488 152.878 51.001L153.301 50.5284V51.2297L152.057 52.623C152.014 52.6708 152.014 52.7492 152.057 52.7973C152.1 52.8451 152.17 52.8451 152.213 52.7973L153.301 51.5782V52.4367L152.826 52.9683C152.784 53.0161 152.784 53.0947 152.826 53.1425C152.869 53.1903 152.939 53.1903 152.982 53.1425L153.301 52.7849V53.4101C153.301 53.4776 153.351 53.5333 153.412 53.5333C153.472 53.5333 153.522 53.4776 153.522 53.4101V52.7849L153.841 53.1425C153.863 53.1669 153.891 53.1785 153.919 53.1785C153.947 53.1785 153.975 53.1664 153.997 53.1425C154.039 53.0947 154.039 53.0161 153.997 52.9683L153.522 52.4367V51.5782L154.61 52.7973C154.632 52.8214 154.66 52.8332 154.688 52.8332C154.716 52.8332 154.744 52.8209 154.766 52.7973C154.809 52.7492 154.809 52.6708 154.766 52.623L153.522 51.2297V50.5284L153.945 51.0025C153.967 51.0267 153.995 51.0385 154.023 51.0385C154.051 51.0385 154.08 51.0264 154.101 51.0025C154.144 50.9545 154.144 50.8763 154.101 50.8283L153.522 50.1799V49.4801L154.063 49.83L154.275 50.7152C154.288 50.7706 154.333 50.8066 154.381 50.8066C154.39 50.8066 154.4 50.8056 154.41 50.8024C154.469 50.7849 154.503 50.7169 154.487 50.6516L154.333 50.0047L154.875 50.3551L155.33 52.2583C155.343 52.3133 155.388 52.3492 155.436 52.3492C155.446 52.3492 155.455 52.3483 155.465 52.3453C155.524 52.3276 155.559 52.2598 155.543 52.1942L155.144 50.5294L155.809 50.9591L155.983 51.6851C155.996 51.7403 156.04 51.7765 156.089 51.7765C156.098 51.7765 156.108 51.7751 156.117 51.7719C156.176 51.7549 156.211 51.6866 156.195 51.6215L156.079 51.1334L156.562 51.4463C156.579 51.4574 156.598 51.4626 156.617 51.4626C156.655 51.4626 156.692 51.4409 156.713 51.401C156.743 51.3423 156.725 51.2667 156.672 51.2327L156.189 50.9195L156.625 50.7886C156.684 50.7716 156.718 50.7033 156.702 50.6383C156.687 50.572 156.627 50.5333 156.568 50.5511L155.919 50.746L155.254 50.3162L156.742 49.8704C156.801 49.8527 156.836 49.7849 156.82 49.7194C156.805 49.6531 156.744 49.6144 156.686 49.6314Z" fill="white"/>
<path d="M24.9226 82.0644C24.8972 81.412 24.8794 80.758 24.8794 80.0988C24.8794 56.2578 41.8497 36.8607 62.7114 36.8607C83.573 36.8607 100.543 56.2561 100.543 80.0988C100.543 80.758 100.525 81.412 100.5 82.0644H107.38C107.397 81.4103 107.42 80.758 107.42 80.0988C107.42 51.8769 87.4031 29 62.7099 29C38.0166 29 18 51.8769 18 80.0988C18 80.758 18.0224 81.4103 18.0432 82.0644H24.9226Z" fill="#7E79B6"/>
<path d="M31.8437 82.0642C31.8124 81.4102 31.7572 80.7629 31.7572 80.0986C31.7572 60.5925 45.6426 44.7229 62.7099 44.7229C79.7771 44.7229 93.6625 60.5942 93.6625 80.0986C93.6625 80.7612 93.6074 81.4102 93.5761 82.0642H100.499C100.524 81.4119 100.542 80.7578 100.542 80.0986C100.542 56.2576 83.5715 36.8605 62.7099 36.8605C41.8483 36.8605 24.8779 56.2576 24.8779 80.0986C24.8779 80.7578 24.8958 81.4119 24.9211 82.0642H31.8437Z" fill="#DFE247"/>
<path d="M38.723 82.0643C38.6828 81.4119 38.6366 80.763 38.6366 80.0987C38.6366 64.9274 49.4355 52.5837 62.7114 52.5837C75.9872 52.5837 86.7861 64.9257 86.7861 80.0987C86.7861 80.7613 86.7399 81.4119 86.6997 82.0643H93.5776C93.6089 81.4102 93.664 80.763 93.664 80.0987C93.664 60.5926 79.7786 44.723 62.7114 44.723C45.6441 44.723 31.7572 60.5926 31.7572 80.0987C31.7572 80.7613 31.8124 81.4102 31.8437 82.0643H38.723Z" fill="#71C285"/>
<path d="M45.6009 82.0643C45.5443 81.417 45.5145 80.763 45.5145 80.0987C45.5145 69.2623 53.2284 60.4461 62.7099 60.4461C72.1914 60.4461 79.9053 69.264 79.9053 80.0987C79.9053 80.7613 79.874 81.417 79.8189 82.0643H86.6968C86.737 81.4119 86.7832 80.763 86.7832 80.0987C86.7832 64.9274 75.9843 52.5837 62.7084 52.5837C49.4326 52.5837 38.6336 64.9257 38.6336 80.0987C38.6336 80.7613 38.6798 81.4119 38.7201 82.0643H45.6009Z" fill="#C57979"/>
<path d="M56.1963 71.9087H56.1353C56.1616 72.0789 56.1797 72.2508 56.1797 72.4266C56.1797 72.7362 55.8429 72.9864 55.4262 72.9864C55.0095 72.9864 54.6726 72.7362 54.6726 72.4266C54.6726 70.5741 52.6449 69.0676 50.1514 69.0676C47.6579 69.0676 45.6301 70.5741 45.6301 72.4266C45.6301 72.7362 45.2933 72.9864 44.8766 72.9864C44.4598 72.9864 44.123 72.7362 44.123 72.4266C44.123 70.1514 46.4206 68.271 49.3813 67.9888C49.2109 65.1679 46.0777 62.9095 42.2392 62.9095C38.3878 62.9095 35.2455 65.1824 35.0948 68.0168C35.7195 68.1266 36.3246 68.3079 36.8867 68.566C38.2552 69.1958 39.2122 70.1839 39.5814 71.3483C39.6763 71.6495 39.4254 71.9507 39.0208 72.0218C38.6154 72.0896 38.2099 71.9059 38.1142 71.6053C37.5431 69.8016 35.1008 68.6797 32.6782 69.1046C30.251 69.5289 28.7409 71.3405 29.3121 73.1437C29.407 73.4443 29.1561 73.7455 28.7507 73.8166C28.6934 73.8267 28.6354 73.8312 28.5781 73.8312C28.2368 73.8312 27.9271 73.6571 27.8449 73.3995C27.6234 72.6992 27.643 71.9989 27.854 71.3427C26.3032 71.1742 24.7366 71.6092 23.7148 72.5307C22.7668 73.3867 22.4902 74.489 22.8293 75.4894C22.8301 75.4961 22.8346 75.5017 22.8354 75.5084C23.066 76.1724 23.5663 76.7904 24.3312 77.259C24.6522 77.456 24.6981 77.8082 24.4344 78.0472C24.2852 78.1816 24.0697 78.251 23.8519 78.251C23.6831 78.251 23.5143 78.2096 23.3734 78.1234C22.4563 77.5624 21.8 76.8296 21.4549 76.0067C18.4083 75.4166 15.205 76.3689 13.5502 78.3926C12.5578 79.6063 12.2601 81.035 12.7138 82.415C13.1674 83.7955 14.3165 84.9616 15.951 85.6995C16.3067 85.8601 16.4197 86.2039 16.2034 86.4687C16.0618 86.6422 15.8131 86.7374 15.5591 86.7374C15.4589 86.7374 15.3595 86.7172 15.2638 86.6864C16.4544 87.2104 17.8251 87.5312 19.2907 87.5782L25.4765 87.5799C29.4756 87.5323 32.9012 85.6989 34.3616 83.1058C35.8408 85.7331 39.3372 87.5844 43.4041 87.5844C50.4679 87.5844 56.2144 83.3152 56.2144 78.0674V72.4691L56.1963 71.9087Z" fill="#D0E8F9"/>
<path d="M50.8884 68.0269C50.7143 64.5902 46.9066 61.8319 42.2392 61.8319C37.6109 61.8319 33.8296 64.5437 33.596 67.9396C33.1755 67.9463 32.7528 67.9833 32.3331 68.0566C30.5728 68.3645 29.1795 69.2222 28.3928 70.325C26.2211 69.9975 23.986 70.5674 22.5528 71.8601C21.6101 72.711 21.1369 73.7679 21.1889 74.8602C17.7 74.3933 14.1508 75.5454 12.2639 77.8519C11.0612 79.3214 10.7018 81.0507 11.2504 82.7212C11.799 84.3917 13.1908 85.8036 15.1688 86.6971C15.2909 86.7525 15.4265 86.7788 15.5599 86.7788C15.8146 86.7788 16.0625 86.6831 16.2042 86.5101C16.4205 86.2453 16.3074 85.9016 15.9518 85.7409C14.3173 85.0031 13.1682 83.837 12.7145 82.4564C12.2609 81.0765 12.5585 79.6478 13.551 78.4341C15.2057 76.4109 18.4091 75.4586 21.4556 76.0481C21.8008 76.8716 22.4579 77.6039 23.3742 78.1648C23.5151 78.2505 23.6839 78.2924 23.8527 78.2924C24.0704 78.2924 24.286 78.223 24.4352 78.0887C24.6997 77.8496 24.6529 77.4969 24.3319 77.3004C23.5663 76.8324 23.0667 76.2138 22.8361 75.5499C22.8354 75.5431 22.8309 75.5375 22.8301 75.5308C22.491 74.5304 22.7676 73.4281 23.7155 72.5722C24.7373 71.6507 26.304 71.2157 27.8547 71.3842C27.6438 72.0409 27.6234 72.7407 27.8457 73.441C27.9271 73.6991 28.2376 73.8726 28.5789 73.8726C28.6362 73.8726 28.6942 73.8676 28.7515 73.8581C29.1569 73.787 29.4078 73.4858 29.3129 73.1852C28.7417 71.382 30.2518 69.5704 32.6789 69.146C35.1016 68.7211 37.5438 69.843 38.115 71.6468C38.2107 71.9474 38.6161 72.131 39.0215 72.0633C39.4262 71.9922 39.6771 71.691 39.5822 71.3898C39.2129 70.2254 38.2559 69.2373 36.8875 68.6075C36.3253 68.3488 35.7203 68.168 35.0956 68.0583C35.2463 65.2239 38.3886 62.951 42.2399 62.951C46.0785 62.951 49.2125 65.2088 49.382 68.0303C46.4213 68.3124 44.1238 70.1929 44.1238 72.468C44.1238 72.7776 44.4606 73.0279 44.8773 73.0279C45.294 73.0279 45.6309 72.7776 45.6309 72.468C45.6309 70.6156 47.6587 69.1091 50.1521 69.1091C52.6456 69.1091 54.7081 70.6156 54.7081 72.468C54.7081 72.4837 54.7081 73.2109 54.7081 74.1475C54.7081 74.4565 55.0457 74.7073 55.4616 74.7073C55.8776 74.7073 56.2152 74.4565 56.2152 74.1475V72.468C56.2144 70.1851 53.8656 68.2984 50.8884 68.0269Z" fill="#ABCADD"/>
<path d="M43.4041 87.5839C39.6568 87.5839 36.2522 86.1238 34.3616 83.7832C32.4709 86.1238 29.0664 87.5839 25.3191 87.5839C24.9031 87.5839 24.5655 87.3336 24.5655 87.024C24.5655 86.7144 24.9031 86.4642 25.3191 86.4642C28.976 86.4642 32.2524 84.8413 33.6668 82.3293L34.3616 81.0944L35.0564 82.3293C36.47 84.8407 39.7472 86.4642 43.4041 86.4642C43.8201 86.4642 44.1577 86.7144 44.1577 87.024C44.1577 87.3336 43.8208 87.5839 43.4041 87.5839Z" fill="#ABCADD"/>
<path d="M52.3691 79.6763C52.024 77.4487 49.4732 75.7116 46.3837 75.7116C43.0598 75.7116 40.3553 77.7208 40.3553 80.1902C40.3553 80.4992 40.6929 80.75 41.1089 80.75C41.5248 80.75 41.8624 80.4992 41.8624 80.1902C41.8624 78.3377 43.8902 76.8313 46.3837 76.8313C48.6466 76.8313 50.5206 78.0735 50.8484 79.6875C48.7408 79.9724 47.1372 81.3429 47.1372 82.9893C47.1372 83.2984 47.4748 83.5492 47.8908 83.5492C48.3067 83.5492 48.6443 83.2984 48.6443 82.9893C48.6443 81.7544 49.9962 80.75 51.6585 80.75C53.3208 80.75 54.6727 81.7544 54.6727 82.9893C54.6727 83.2984 55.0103 83.5492 55.4262 83.5492C55.8422 83.5492 56.1798 83.2984 56.1798 82.9893C56.1798 81.3171 54.525 79.931 52.3691 79.6763Z" fill="#ABCADD"/>
<path d="M38.3874 112.098L36.6868 112.607L36.1447 112.257L36.7229 112.084C36.7821 112.066 36.8167 111.998 36.8008 111.933C36.785 111.867 36.7249 111.828 36.6661 111.846L35.875 112.083L35.334 111.733L35.8755 111.383L36.6661 111.621C36.6758 111.624 36.6853 111.625 36.6947 111.625C36.7434 111.625 36.7881 111.589 36.801 111.533C36.8165 111.468 36.7819 111.4 36.7231 111.383L36.1449 111.209L36.6875 110.859L38.3876 111.369C38.3971 111.372 38.4066 111.373 38.416 111.373C38.4647 111.373 38.5091 111.337 38.5219 111.281C38.5378 111.216 38.503 111.148 38.444 111.131L36.9567 110.684L37.6212 110.255L38.2701 110.45C38.2798 110.453 38.2892 110.454 38.2987 110.454C38.3474 110.454 38.392 110.418 38.405 110.363C38.4204 110.297 38.3859 110.23 38.3271 110.212L37.8908 110.081L38.3744 109.768C38.4268 109.734 38.4449 109.659 38.4149 109.6C38.3843 109.541 38.3172 109.521 38.2644 109.555L37.7812 109.867L37.8977 109.38C37.9135 109.314 37.8787 109.246 37.8197 109.229C37.7605 109.212 37.7007 109.25 37.6848 109.316L37.5111 110.042L36.8468 110.472L37.2455 108.807C37.2611 108.741 37.2265 108.674 37.1675 108.656C37.1079 108.639 37.0485 108.678 37.0326 108.744L36.5774 110.646L36.0348 110.997L36.19 110.35C36.2054 110.284 36.1706 110.217 36.1121 110.199C36.0524 110.182 35.9932 110.22 35.9772 110.286L35.7652 111.171L35.2241 111.52V110.821L35.803 110.172C35.846 110.124 35.846 110.046 35.803 109.998C35.7603 109.95 35.6903 109.95 35.6474 109.998L35.2241 110.472V109.77L36.468 108.377C36.5109 108.329 36.5109 108.251 36.468 108.203C36.4253 108.155 36.3553 108.155 36.3124 108.203L35.2241 109.422V108.563L35.6991 108.032C35.7418 107.984 35.7418 107.906 35.6991 107.857C35.6562 107.809 35.5862 107.809 35.5435 107.857L35.2241 108.215V107.59C35.2241 107.522 35.1744 107.467 35.1141 107.467C35.0535 107.467 35.004 107.522 35.004 107.59V108.215L34.6844 107.857C34.6415 107.809 34.5717 107.809 34.5288 107.857C34.4859 107.905 34.4859 107.983 34.5288 108.031L35.0038 108.563V109.422L33.9156 108.203C33.8726 108.155 33.8029 108.155 33.7599 108.203C33.717 108.251 33.717 108.329 33.7599 108.377L35.004 109.77V110.472L34.5807 109.998C34.5378 109.95 34.4676 109.95 34.4251 109.998C34.3822 110.046 34.3822 110.124 34.4251 110.172L35.004 110.82V111.52L34.4628 111.17L34.2508 110.285C34.2349 110.219 34.1748 110.18 34.1159 110.198C34.0571 110.215 34.0223 110.283 34.0379 110.348L34.1927 110.995L33.6501 110.645L33.1951 108.742C33.1793 108.676 33.1194 108.638 33.0602 108.655C33.0012 108.672 32.9666 108.74 32.982 108.806L33.3809 110.47L32.7161 110.041L32.5427 109.315C32.5273 109.249 32.4674 109.21 32.4082 109.227C32.3492 109.245 32.3147 109.313 32.3301 109.378L32.4469 109.866L31.9638 109.554C31.9116 109.52 31.8438 109.54 31.8135 109.599C31.7829 109.658 31.8009 109.733 31.8537 109.767L32.3373 110.08L31.9006 110.211C31.8418 110.229 31.8073 110.296 31.8227 110.362C31.8361 110.417 31.8808 110.453 31.9286 110.453C31.9385 110.453 31.9479 110.452 31.9576 110.449L32.6065 110.254L33.2711 110.683L31.7837 111.13C31.7243 111.147 31.6895 111.215 31.7058 111.28C31.7192 111.336 31.7635 111.372 31.8119 111.372C31.8214 111.372 31.8308 111.371 31.8403 111.368L33.5405 110.858L34.0826 111.208L33.5044 111.382C33.4456 111.399 33.411 111.467 33.4265 111.532C33.4399 111.588 33.4846 111.624 33.5323 111.624C33.5418 111.624 33.5513 111.623 33.5614 111.62L34.352 111.382L34.8935 111.732L34.3523 112.082L33.5607 111.845C33.5031 111.827 33.4423 111.867 33.4265 111.932C33.411 111.998 33.4456 112.066 33.5044 112.083L34.0826 112.256L33.54 112.607L31.8401 112.098C31.7826 112.08 31.7212 112.119 31.7056 112.185C31.6895 112.251 31.7245 112.318 31.7835 112.335L33.2708 112.782L32.6061 113.211L31.9576 113.016C31.8984 112.999 31.8388 113.038 31.8227 113.104C31.8073 113.17 31.8418 113.237 31.9006 113.254L32.3369 113.385L31.8531 113.698C31.8009 113.732 31.7829 113.807 31.8128 113.867C31.8333 113.906 31.8702 113.928 31.9081 113.928C31.927 113.928 31.946 113.923 31.9631 113.912L32.4467 113.599L32.3298 114.087C32.3147 114.153 32.3492 114.22 32.4078 114.237C32.4172 114.24 32.4267 114.242 32.4362 114.242C32.485 114.242 32.5293 114.206 32.5423 114.15L32.7159 113.424L33.3802 112.995L32.9814 114.66C32.9662 114.726 33.0008 114.793 33.0593 114.81C33.069 114.814 33.0785 114.815 33.0879 114.815C33.1366 114.815 33.1812 114.779 33.1938 114.723L33.649 112.821L34.1916 112.47L34.0368 113.117C34.0216 113.183 34.0562 113.251 34.1148 113.268C34.1242 113.271 34.1337 113.272 34.1432 113.272C34.192 113.272 34.2363 113.236 34.2495 113.181L34.4612 112.296L35.0025 111.946V112.645L34.4236 113.293C34.3807 113.341 34.3807 113.42 34.4236 113.468C34.4663 113.515 34.5363 113.515 34.5792 113.468L35.0031 112.995V113.696L33.7591 115.09C33.7161 115.137 33.7161 115.216 33.7591 115.264C33.802 115.312 33.8717 115.312 33.9147 115.264L35.0031 114.045V114.903L34.5281 115.435C34.4852 115.483 34.4852 115.561 34.5281 115.609C34.5711 115.657 34.6408 115.657 34.6838 115.609L35.0031 115.252V115.877C35.0031 115.944 35.0527 116 35.1132 116C35.1735 116 35.2233 115.944 35.2233 115.877V115.252L35.5426 115.609C35.5642 115.634 35.5924 115.645 35.6206 115.645C35.649 115.645 35.6769 115.633 35.6985 115.609C35.741 115.561 35.741 115.483 35.6985 115.435L35.2233 114.903V114.045L36.3115 115.264C36.3333 115.288 36.3615 115.3 36.3894 115.3C36.4178 115.3 36.4458 115.288 36.4673 115.264C36.5103 115.216 36.5103 115.137 36.4673 115.09L35.2235 113.696V112.995L35.6468 113.469C35.6685 113.493 35.6965 113.505 35.7247 113.505C35.7526 113.505 35.7812 113.493 35.8026 113.469C35.8455 113.421 35.8455 113.343 35.8026 113.295L35.2235 112.647V111.947L35.7647 112.297L35.9765 113.182C35.9901 113.237 36.0344 113.273 36.0826 113.273C36.0916 113.273 36.1017 113.272 36.1112 113.269C36.1702 113.252 36.205 113.184 36.1891 113.118L36.0344 112.471L36.5765 112.822L37.0317 114.725C37.0451 114.78 37.0898 114.816 37.138 114.816C37.1475 114.816 37.157 114.815 37.1667 114.812C37.2256 114.794 37.2602 114.726 37.2446 114.661L36.8457 112.996L37.5107 113.426L37.6844 114.152C37.698 114.207 37.742 114.243 37.7905 114.243C37.7997 114.243 37.8094 114.242 37.8189 114.238C37.8778 114.221 37.9126 114.153 37.8968 114.088L37.7803 113.6L38.2635 113.913C38.2811 113.924 38.3 113.929 38.3185 113.929C38.3564 113.929 38.3938 113.908 38.4143 113.868C38.4449 113.809 38.4268 113.733 38.3735 113.699L37.8904 113.386L38.3262 113.255C38.3852 113.238 38.42 113.17 38.4041 113.105C38.3883 113.039 38.3284 113 38.2692 113.018L37.6208 113.213L36.956 112.783L38.4433 112.337C38.5025 112.319 38.5373 112.252 38.5212 112.186C38.5063 112.12 38.446 112.081 38.3874 112.098Z" fill="white"/>
<path d="M160.403 27.4125H160.373C160.386 27.5208 160.395 27.6302 160.395 27.742C160.395 27.9391 160.231 28.0983 160.028 28.0983C159.825 28.0983 159.66 27.9391 159.66 27.742C159.66 26.5632 158.672 25.6045 157.456 25.6045C156.241 25.6045 155.252 26.5632 155.252 27.742C155.252 27.9391 155.088 28.0983 154.885 28.0983C154.682 28.0983 154.518 27.9391 154.518 27.742C154.518 26.2942 155.638 25.0976 157.081 24.9181C156.998 23.1229 155.471 21.6858 153.599 21.6858C151.722 21.6858 150.19 23.1322 150.117 24.9359C150.421 25.0057 150.716 25.1211 150.99 25.2853C151.657 25.6861 152.124 26.3149 152.304 27.0559C152.35 27.2476 152.228 27.4392 152.031 27.4845C151.833 27.5276 151.635 27.4107 151.589 27.2194C151.31 26.0716 150.12 25.3577 148.939 25.6281C147.756 25.8981 147.019 27.0509 147.298 28.1984C147.344 28.3897 147.222 28.5814 147.024 28.6266C146.996 28.633 146.968 28.6359 146.94 28.6359C146.774 28.6359 146.623 28.5251 146.583 28.3612C146.475 27.9155 146.484 27.4699 146.587 27.0523C145.831 26.9451 145.067 27.2219 144.569 27.8083C144.107 28.353 143.972 29.0545 144.138 29.6911C144.138 29.6954 144.14 29.6989 144.141 29.7032C144.253 30.1257 144.497 30.519 144.87 30.8172C145.026 30.9426 145.049 31.1667 144.92 31.3188C144.847 31.4043 144.742 31.4485 144.636 31.4485C144.554 31.4485 144.472 31.4221 144.403 31.3673C143.956 31.0103 143.636 30.544 143.468 30.0203C141.983 29.6448 140.421 30.2508 139.614 31.5386C139.131 32.311 138.986 33.2201 139.207 34.0983C139.428 34.9768 139.988 35.7189 140.785 36.1884C140.958 36.2906 141.013 36.5094 140.908 36.6779C140.839 36.7883 140.718 36.8489 140.594 36.8489C140.545 36.8489 140.496 36.8361 140.45 36.8165C141.03 37.1499 141.698 37.354 142.413 37.384L145.428 37.385C147.378 37.3548 149.048 36.188 149.759 34.5379C150.48 36.2098 152.185 37.3879 154.167 37.3879C157.611 37.3879 160.412 34.6711 160.412 31.3316V27.7691L160.403 27.4125Z" fill="#D0E8F9"/>
<path d="M157.816 24.9423C157.731 22.7552 155.875 21 153.599 21C151.343 21 149.5 22.7257 149.386 24.8867C149.181 24.891 148.975 24.9145 148.771 24.9612C147.912 25.1571 147.233 25.7029 146.85 26.4047C145.791 26.1963 144.702 26.5589 144.003 27.3815C143.543 27.923 143.313 28.5956 143.338 29.2907C141.637 28.9936 139.907 29.7267 138.987 31.1945C138.401 32.1296 138.226 33.2301 138.493 34.2931C138.761 35.3562 139.439 36.2547 140.403 36.8232C140.463 36.8585 140.529 36.8752 140.594 36.8752C140.718 36.8752 140.839 36.8143 140.908 36.7042C141.014 36.5357 140.959 36.317 140.785 36.2148C139.988 35.7452 139.428 35.0031 139.207 34.1246C138.986 33.2465 139.131 32.3373 139.615 31.565C140.421 30.2775 141.983 29.6715 143.468 30.0466C143.636 30.5707 143.957 31.0366 144.403 31.3936C144.472 31.4481 144.554 31.4748 144.637 31.4748C144.743 31.4748 144.848 31.4307 144.921 31.3452C145.049 31.193 145.027 30.9686 144.87 30.8436C144.497 30.5457 144.253 30.1521 144.141 29.7296C144.141 29.7253 144.138 29.7217 144.138 29.7175C143.973 29.0808 144.108 28.3794 144.57 27.8347C145.068 27.2483 145.832 26.9715 146.587 27.0787C146.485 27.4966 146.475 27.9419 146.583 28.3876C146.623 28.5518 146.774 28.6622 146.941 28.6622C146.968 28.6622 146.997 28.659 147.025 28.653C147.222 28.6077 147.345 28.4161 147.298 28.2248C147.02 27.0773 147.756 25.9245 148.939 25.6544C150.12 25.384 151.311 26.0979 151.589 27.2458C151.636 27.4371 151.833 27.5539 152.031 27.5108C152.228 27.4656 152.351 27.2739 152.304 27.0823C152.124 26.3413 151.658 25.7125 150.991 25.3117C150.717 25.1471 150.422 25.032 150.117 24.9622C150.191 23.1585 151.722 21.7121 153.6 21.7121C155.471 21.7121 156.999 23.1489 157.081 24.9444C155.638 25.124 154.518 26.3206 154.518 27.7684C154.518 27.9654 154.682 28.1247 154.886 28.1247C155.089 28.1247 155.253 27.9654 155.253 27.7684C155.253 26.5896 156.241 25.6309 157.457 25.6309C158.672 25.6309 159.678 26.5896 159.678 27.7684C159.678 27.7784 159.678 28.2412 159.678 28.8372C159.678 29.0338 159.842 29.1934 160.045 29.1934C160.248 29.1934 160.412 29.0338 160.412 28.8372V27.7684C160.412 26.3156 159.267 25.1151 157.816 24.9423Z" fill="#ABCADD"/>
<path d="M154.167 37.3875C152.341 37.3875 150.681 36.4584 149.759 34.9689C148.838 36.4584 147.178 37.3875 145.351 37.3875C145.149 37.3875 144.984 37.2283 144.984 37.0313C144.984 36.8343 145.149 36.675 145.351 36.675C147.134 36.675 148.731 35.6423 149.421 34.0438L149.759 33.2579L150.098 34.0438C150.787 35.6419 152.385 36.675 154.167 36.675C154.37 36.675 154.535 36.8343 154.535 37.0313C154.535 37.2283 154.37 37.3875 154.167 37.3875Z" fill="#ABCADD"/>
<path d="M158.538 32.3555C158.369 30.938 157.126 29.8325 155.62 29.8325C154 29.8325 152.681 31.1111 152.681 32.6825C152.681 32.8792 152.846 33.0388 153.048 33.0388C153.251 33.0388 153.416 32.8792 153.416 32.6825C153.416 31.5037 154.404 30.545 155.62 30.545C156.723 30.545 157.636 31.3355 157.796 32.3626C156.769 32.5439 155.987 33.416 155.987 34.4638C155.987 34.6604 156.152 34.82 156.354 34.82C156.557 34.82 156.722 34.6604 156.722 34.4638C156.722 33.6779 157.381 33.0388 158.191 33.0388C159.001 33.0388 159.66 33.6779 159.66 34.4638C159.66 34.6604 159.825 34.82 160.028 34.82C160.231 34.82 160.395 34.6604 160.395 34.4638C160.395 33.3997 159.588 32.5176 158.538 32.3555Z" fill="#ABCADD"/>
<path d="M104.953 40.116H104.928C104.939 40.2167 104.946 40.3184 104.946 40.4225C104.946 40.6057 104.805 40.7538 104.629 40.7538C104.453 40.7538 104.311 40.6057 104.311 40.4225C104.311 39.326 103.457 38.4343 102.406 38.4343C101.355 38.4343 100.5 39.326 100.5 40.4225C100.5 40.6057 100.359 40.7538 100.183 40.7538C100.007 40.7538 99.8653 40.6057 99.8653 40.4225C99.8653 39.0758 100.834 37.9628 102.081 37.7958C102.01 36.1261 100.689 34.7894 99.0714 34.7894C97.4483 34.7894 96.124 36.1347 96.0605 37.8123C96.3238 37.8773 96.5788 37.9847 96.8157 38.1374C97.3924 38.5102 97.7957 39.095 97.9513 39.7843C97.9914 39.9625 97.8856 40.1408 97.7151 40.1829C97.5442 40.223 97.3734 40.1143 97.333 39.9364C97.0923 38.8687 96.0631 38.2047 95.0421 38.4562C94.0192 38.7073 93.3828 39.7796 93.6235 40.8469C93.6635 41.0249 93.5578 41.2031 93.3869 41.2452C93.3628 41.2512 93.3383 41.2538 93.3142 41.2538C93.1703 41.2538 93.0398 41.1508 93.0052 40.9984C92.9118 40.5838 92.9201 40.1693 93.009 39.7809C92.3554 39.6812 91.6952 39.9387 91.2646 40.4841C90.8651 40.9907 90.7485 41.6432 90.8914 42.2353C90.8917 42.2393 90.8937 42.2426 90.894 42.2466C90.9911 42.6396 91.202 43.0054 91.5243 43.2827C91.6596 43.3994 91.679 43.6078 91.5679 43.7493C91.505 43.8288 91.4142 43.8699 91.3224 43.8699C91.2512 43.8699 91.1801 43.8454 91.1207 43.7944C90.7342 43.4623 90.4576 43.0286 90.3122 42.5415C89.0282 42.1922 87.6783 42.7559 86.9809 43.9537C86.5626 44.6721 86.4372 45.5178 86.6284 46.3346C86.8195 47.1517 87.3038 47.8419 87.9926 48.2786C88.1425 48.3737 88.1902 48.5772 88.099 48.7339C88.0393 48.8366 87.9345 48.893 87.8275 48.893C87.7853 48.893 87.7434 48.881 87.703 48.8628C88.2048 49.173 88.7824 49.3628 89.4001 49.3907L92.0071 49.3917C93.6924 49.3635 95.1361 48.2783 95.7515 46.7435C96.3749 48.2985 97.8484 49.3943 99.5624 49.3943C102.539 49.3943 104.961 46.8674 104.961 43.7612V40.4476L104.953 40.116Z" fill="#D0E8F9"/>
<path d="M102.717 37.8183C102.643 35.7841 101.038 34.1515 99.0714 34.1515C97.1209 34.1515 95.5273 35.7566 95.4289 37.7666C95.2517 37.7706 95.0735 37.7925 94.8967 37.8359C94.1548 38.0181 93.5676 38.5257 93.2361 39.1785C92.3208 38.9847 91.3789 39.322 90.7749 40.0871C90.3776 40.5908 90.1782 41.2164 90.2001 41.8629C88.7298 41.5865 87.234 42.2684 86.4388 43.6336C85.932 44.5035 85.7805 45.527 86.0117 46.5158C86.2429 47.5046 86.8294 48.3402 87.663 48.8691C87.7145 48.9019 87.7716 48.9175 87.8279 48.9175C87.9352 48.9175 88.0397 48.8608 88.0994 48.7584C88.1905 48.6017 88.1429 48.3982 87.993 48.3031C87.3042 47.8664 86.8199 47.1762 86.6287 46.3591C86.4375 45.5423 86.563 44.6966 86.9812 43.9782C87.6786 42.7807 89.0286 42.2171 90.3125 42.566C90.458 43.0534 90.7349 43.4868 91.1211 43.8189C91.1804 43.8696 91.2516 43.8944 91.3227 43.8944C91.4145 43.8944 91.5053 43.8533 91.5682 43.7738C91.6797 43.6323 91.66 43.4236 91.5247 43.3072C91.202 43.0302 90.9915 42.6641 90.8943 42.2711C90.894 42.2671 90.8921 42.2638 90.8918 42.2598C90.7489 41.6677 90.8654 41.0152 91.2649 40.5086C91.6955 39.9632 92.3558 39.7057 93.0093 39.8055C92.9204 40.1941 92.9118 40.6083 93.0055 41.0229C93.0398 41.1756 93.1707 41.2783 93.3145 41.2783C93.3387 41.2783 93.3631 41.2754 93.3872 41.2697C93.5581 41.2276 93.6638 41.0494 93.6238 40.8714C93.3831 39.8041 94.0195 38.7319 95.0424 38.4807C96.0634 38.2292 97.0927 38.8932 97.3334 39.9609C97.3737 40.1388 97.5446 40.2475 97.7154 40.2074C97.8859 40.1653 97.9917 39.987 97.9517 39.8088C97.7961 39.1195 97.3928 38.5347 96.816 38.1619C96.5791 38.0088 96.3241 37.9018 96.0609 37.8369C96.1244 36.1592 97.4487 34.8139 99.0718 34.8139C100.689 34.8139 102.01 36.1502 102.082 37.8203C100.834 37.9873 99.8657 39.1003 99.8657 40.447C99.8657 40.6302 100.008 40.7783 100.183 40.7783C100.359 40.7783 100.501 40.6302 100.501 40.447C100.501 39.3505 101.355 38.4588 102.406 38.4588C103.457 38.4588 104.326 39.3505 104.326 40.447C104.326 40.4562 104.326 40.8867 104.326 41.441C104.326 41.6239 104.469 41.7724 104.644 41.7724C104.819 41.7724 104.961 41.6239 104.961 41.441V40.447C104.961 39.0957 103.971 37.979 102.717 37.8183Z" fill="#ABCADD"/>
<path d="M99.5624 49.394C97.9831 49.394 96.5483 48.5298 95.7515 47.1444C94.9547 48.5298 93.52 49.394 91.9407 49.394C91.7654 49.394 91.6231 49.2458 91.6231 49.0626C91.6231 48.8794 91.7654 48.7312 91.9407 48.7312C93.4818 48.7312 94.8626 47.7706 95.4587 46.2838L95.7515 45.5529L96.0443 46.2838C96.6401 47.7703 98.0212 48.7312 99.5624 48.7312C99.7377 48.7312 99.8799 48.8794 99.8799 49.0626C99.8799 49.2458 99.738 49.394 99.5624 49.394Z" fill="#ABCADD"/>
<path d="M103.341 44.7136C103.195 43.3951 102.12 42.3669 100.818 42.3669C99.4173 42.3669 98.2775 43.5562 98.2775 45.0178C98.2775 45.2007 98.4198 45.3492 98.5951 45.3492C98.7704 45.3492 98.9126 45.2007 98.9126 45.0178C98.9126 43.9213 99.7672 43.0297 100.818 43.0297C101.772 43.0297 102.562 43.7649 102.7 44.7202C101.811 44.8889 101.136 45.7001 101.136 46.6746C101.136 46.8575 101.278 47.006 101.453 47.006C101.629 47.006 101.771 46.8575 101.771 46.6746C101.771 45.9436 102.34 45.3492 103.041 45.3492C103.742 45.3492 104.311 45.9436 104.311 46.6746C104.311 46.8575 104.454 47.006 104.629 47.006C104.804 47.006 104.946 46.8575 104.946 46.6746C104.946 45.6848 104.249 44.8644 103.341 44.7136Z" fill="#ABCADD"/>
<path d="M143.159 31.3553C142.292 31.6223 141.632 32.2436 141.245 33.0454C140.436 32.6119 139.52 32.4755 138.653 32.7425C136.787 33.3168 135.865 35.5254 136.596 37.6749C136.598 37.6832 136.601 37.6914 136.604 37.6997C136.629 37.771 136.693 37.819 136.759 37.8149C136.825 37.8109 136.874 37.756 136.877 37.6829C136.94 36.2277 137.956 35.2824 139.368 34.8476C140.235 34.5807 141.152 34.7171 141.96 35.1505C142.348 34.349 143.007 33.7272 143.874 33.4601C145.286 33.0251 146.69 33.2257 147.637 34.3694C147.685 34.4269 147.758 34.444 147.814 34.4107C147.87 34.3775 147.892 34.3028 147.869 34.2312C147.866 34.2229 147.863 34.215 147.861 34.2069C147.13 32.0571 145.024 30.7807 143.159 31.3553Z" fill="#3E0735"/>
<path d="M149.166 77.9115C148.263 78.6851 144.54 78.855 144.54 78.855C144.54 78.855 146.055 74.5366 146.957 73.7618C147.391 73.4043 147.918 73.2771 148.425 73.4077C148.932 73.5383 149.378 73.9163 149.667 74.4602C149.957 75.0041 150.067 75.6706 149.973 76.3161C149.879 76.9616 149.589 77.5345 149.166 77.9115Z" fill="#6C63FF"/>
<path d="M140.095 81.0807C140.942 81.9493 144.639 82.5228 144.639 82.5228C144.639 82.5228 143.422 78.0512 142.574 77.1859C142.166 76.7842 141.65 76.6015 141.137 76.6772C140.624 76.7529 140.155 77.0809 139.83 77.5908C139.506 78.1007 139.351 78.7518 139.401 79.4043C139.45 80.0568 139.699 80.6587 140.095 81.0807V81.0807Z" fill="#6C63FF"/>
<path d="M149.166 77.9115C148.263 78.6851 144.54 78.855 144.54 78.855C144.54 78.855 146.055 74.5366 146.957 73.7618C147.391 73.4043 147.918 73.2771 148.425 73.4077C148.932 73.5383 149.378 73.9163 149.667 74.4602C149.957 75.0041 150.067 75.6706 149.973 76.3161C149.879 76.9616 149.589 77.5345 149.166 77.9115Z" fill="#FC6681"/>
<path d="M140.095 81.0807C140.942 81.9493 144.639 82.5228 144.639 82.5228C144.639 82.5228 143.422 78.0512 142.574 77.1859C142.166 76.7842 141.65 76.6015 141.137 76.6772C140.624 76.7529 140.155 77.0809 139.83 77.5908C139.506 78.1007 139.351 78.7518 139.401 79.4043C139.45 80.0568 139.699 80.6587 140.095 81.0807V81.0807Z" fill="#FC6681"/>
<path d="M161 116.835L153.283 73.7417H150.416C150.301 72.0951 150.225 70.4998 150.195 68.9973C150.195 68.9973 139.801 71.8838 131.513 63.533C123.224 55.1823 113.479 64.2552 113.479 64.2552L113.441 64.2205V64.2038V64.225C112.764 63.6169 103.429 55.4976 95.4478 63.5397C87.1625 71.8905 76.7649 69.0041 76.7649 69.0041C76.7358 70.5255 76.6583 72.1342 76.5412 73.7965H73.881L66 116.99C66 116.99 98.0366 118.513 109.263 117.109C109.666 118.188 111.401 119 113.48 119C115.816 119 117.716 117.975 117.782 116.697C126.521 117.541 145.325 118.89 161 116.835Z" fill="url(#paint0_linear)"/>
<path d="M74.7064 74.1207L66.991 116.415C66.991 116.415 109.463 118.434 112.883 115.608C112.883 115.608 139.25 118.99 160.009 116.265L152.453 74.0715L74.7064 74.1207Z" fill="#E2E2EC"/>
<path opacity="0.1" d="M77.3313 75.5818L70.1382 115.014C70.1382 115.014 109.736 116.896 112.925 114.261C112.925 114.261 137.507 117.414 156.861 114.873L149.814 75.5349L77.3313 75.5818Z" fill="black"/>
<path d="M149.431 69.4277C149.431 69.4277 139.25 72.2538 131.137 64.0774C123.025 55.9011 113.48 64.7839 113.48 64.7839C113.48 64.7839 103.936 55.9011 95.8231 64.0774C87.7104 72.2538 77.5295 69.4277 77.5295 69.4277C77.2089 85.881 71.1671 112.53 71.1671 112.53C71.1671 112.53 82.302 116.365 97.0166 108.593C111.731 100.822 113.481 111.319 113.481 111.319C113.481 111.319 115.23 100.821 129.945 108.593C144.659 116.366 155.794 112.53 155.794 112.53C155.794 112.53 149.749 85.881 149.431 69.4277Z" fill="#F1F2FB"/>
<path d="M83.1258 90.2063C93.6204 86.2024 99.7149 86.1436 110.909 89.3981" stroke="#CFCFCF"/>
<path d="M83.1258 86.1652C93.6204 82.1614 99.7149 82.1025 110.909 85.357" stroke="#CFCFCF"/>
<path d="M83.1258 82.9324C93.6204 78.9285 99.7149 78.8696 110.909 82.1242" stroke="#CFCFCF"/>
<path opacity="0.1" d="M93.835 111.624C93.835 111.624 107.277 107.789 113.478 113.441C113.478 113.441 119.443 106.577 133.282 111.927" fill="black"/>
<path d="M113.48 118.384C115.808 118.384 117.696 117.344 117.696 116.062C117.696 114.78 115.808 113.74 113.48 113.74C111.151 113.74 109.264 114.78 109.264 116.062C109.264 117.344 111.151 118.384 113.48 118.384Z" fill="#E8EAF8"/>
<path opacity="0.1" d="M113.44 64.7336C113.44 64.7336 116.462 84.2153 113.519 111.671Z" fill="black"/>
<path d="M118.972 89.3171C126.391 82.1264 133.986 91.1773 146.755 88.5089" stroke="#CFCFCF"/>
<path d="M118.076 84.4678C125.495 77.2771 133.089 86.328 145.859 83.6596" stroke="#CFCFCF"/>
<path d="M117.18 79.6184C124.598 72.4277 132.193 81.4786 144.963 78.8102" stroke="#CFCFCF"/>
<path d="M116.853 75.3559C124.255 67.678 131.873 77.3765 144.636 74.5477" stroke="#CFCFCF"/>
<path d="M83.1258 78.8912C93.6204 74.8874 99.7149 74.8285 110.909 78.083" stroke="#CFCFCF"/>
<path d="M83.0137 75.7605C93.5083 71.7566 99.6028 71.6978 110.797 74.9523" stroke="#CFCFCF"/>
<defs>
<linearGradient id="paint0_linear" x1="113.5" y1="118.999" x2="113.5" y2="60.0027" gradientUnits="userSpaceOnUse">
<stop stop-color="#808080" stop-opacity="0.25"/>
<stop offset="0.54" stop-color="#808080" stop-opacity="0.12"/>
<stop offset="1" stop-color="#808080" stop-opacity="0.1"/>
</linearGradient>
</defs>
</svg>
