<svg width="365" height="233" viewBox="0 0 365 233" fill="none" xmlns="http://www.w3.org/2000/svg">
<g opacity="0.9">
<rect width="365" height="233" fill="#D8A4E0"/>
<path fill-rule="evenodd" clip-rule="evenodd" d="M0 184L15.2083 186.333C30.4167 188.667 60.8333 193.333 91.25 192.167C121.667 191 152.083 184 182.5 185.167C212.917 186.333 243.333 195.667 273.75 195.667C304.167 195.667 334.583 186.333 349.792 181.667L365 177V233H349.792C334.583 233 304.167 233 273.75 233C243.333 233 212.917 233 182.5 233C152.083 233 121.667 233 91.25 233C60.8333 233 30.4167 233 15.2083 233H0V184Z" fill="white"/>
</g>
<path d="M308.667 56.7324L305.859 57.5406L304.964 56.9846L305.918 56.7098C306.016 56.682 306.073 56.5745 306.047 56.4705C306.021 56.3665 305.922 56.3039 305.825 56.3321L304.518 56.7082L303.625 56.1538L304.519 55.5986L305.825 55.9751C305.841 55.9798 305.856 55.9818 305.872 55.9818C305.952 55.9818 306.026 55.9243 306.048 55.8367C306.073 55.7323 306.016 55.6252 305.919 55.5975L304.964 55.3222L305.86 54.7663L308.668 55.5752C308.683 55.5799 308.699 55.5818 308.714 55.5818C308.795 55.5818 308.868 55.5244 308.889 55.4368C308.915 55.3324 308.858 55.2253 308.761 55.1975L306.305 54.4899L307.402 53.8088L308.473 54.118C308.489 54.1227 308.505 54.1247 308.521 54.1247C308.601 54.1247 308.675 54.0672 308.696 53.9796C308.722 53.8752 308.665 53.7681 308.568 53.7404L307.847 53.5324L308.646 53.0362C308.732 52.9823 308.762 52.8626 308.713 52.7692C308.662 52.6754 308.551 52.6437 308.464 52.6977L307.666 53.1934L307.858 52.4197C307.885 52.3153 307.827 52.2082 307.73 52.1804C307.632 52.1534 307.533 52.2144 307.507 52.3188L307.22 53.471L306.123 54.1524L306.781 51.5115C306.807 51.4071 306.75 51.2999 306.653 51.2722C306.554 51.2448 306.456 51.3058 306.43 51.4106L305.678 54.4293L304.782 54.9856L305.038 53.9589C305.064 53.8545 305.006 53.7474 304.91 53.7196C304.811 53.6923 304.713 53.7537 304.687 53.858L304.337 55.2624L303.443 55.816V54.7057L304.399 53.677C304.47 53.6008 304.47 53.4769 304.399 53.4006C304.329 53.3244 304.213 53.3244 304.142 53.4006L303.443 54.1528V53.0397L305.498 50.8296C305.568 50.7534 305.568 50.6294 305.498 50.5532C305.427 50.4769 305.311 50.4769 305.241 50.5532L303.443 52.4869V51.1248L304.228 50.2811C304.298 50.2048 304.298 50.0809 304.228 50.0047C304.157 49.9284 304.041 49.9284 303.971 50.0047L303.443 50.572V49.5801C303.443 49.4722 303.361 49.3846 303.262 49.3846C303.162 49.3846 303.08 49.4722 303.08 49.5801V50.5716L302.552 50.0043C302.481 49.928 302.366 49.928 302.295 50.0043C302.224 50.0805 302.224 50.2044 302.295 50.2807L303.08 51.1244V52.4865L301.282 50.5528C301.212 50.4766 301.096 50.4766 301.026 50.5528C300.955 50.629 300.955 50.753 301.026 50.8292L303.08 53.0394V54.1524L302.381 53.4002C302.31 53.324 302.194 53.324 302.124 53.4002C302.053 53.4765 302.053 53.6004 302.124 53.6766L303.08 54.7053V55.8152L302.186 55.2601L301.836 53.8557C301.81 53.7513 301.711 53.6899 301.613 53.7173C301.516 53.7451 301.459 53.8526 301.485 53.9566L301.74 54.9833L300.844 54.4269L300.093 51.4082C300.067 51.3038 299.968 51.2425 299.87 51.2698C299.773 51.2976 299.715 51.4051 299.741 51.5091L300.4 54.1501L299.302 53.4686L299.015 52.3165C298.99 52.2117 298.891 52.1507 298.793 52.1781C298.696 52.2058 298.639 52.3133 298.664 52.4173L298.857 53.1918L298.059 52.6961C297.973 52.6429 297.861 52.6742 297.811 52.7676C297.761 52.8611 297.79 52.9807 297.878 53.0347L298.676 53.5308L297.955 53.7388C297.858 53.7666 297.801 53.8741 297.826 53.9781C297.849 54.0656 297.922 54.1231 298.001 54.1231C298.018 54.1231 298.033 54.1212 298.049 54.1165L299.121 53.8072L300.218 54.4883L297.762 55.1959C297.664 55.2237 297.606 55.3312 297.633 55.4352C297.656 55.5228 297.729 55.5803 297.809 55.5803C297.824 55.5803 297.84 55.5783 297.855 55.5736L300.663 54.7647L301.558 55.3207L300.603 55.5959C300.506 55.6237 300.449 55.7312 300.475 55.8352C300.497 55.9228 300.571 55.9802 300.65 55.9802C300.665 55.9802 300.681 55.9783 300.698 55.9736L302.003 55.5971L302.897 56.1522L302.004 56.7074L300.697 56.3313C300.601 56.3032 300.501 56.3653 300.475 56.4697C300.449 56.5741 300.506 56.6812 300.603 56.7082L301.558 56.9838L300.662 57.5398L297.855 56.7317C297.76 56.7047 297.659 56.7653 297.633 56.8701C297.607 56.9748 297.664 57.0816 297.762 57.1086L300.218 57.817L299.12 58.4981L298.049 58.1896C297.951 58.1614 297.853 58.2232 297.826 58.328C297.801 58.4328 297.858 58.5395 297.955 58.5669L298.676 58.7745L297.877 59.271C297.79 59.3253 297.761 59.4442 297.81 59.5384C297.844 59.601 297.905 59.6362 297.967 59.6362C297.999 59.6362 298.03 59.628 298.058 59.6104L298.857 59.1138L298.664 59.888C298.639 59.9927 298.696 60.0995 298.793 60.1268C298.808 60.1315 298.824 60.1339 298.839 60.1339C298.92 60.1339 298.993 60.0768 299.015 59.9888L299.301 58.8366L300.398 58.1564L299.74 60.797C299.715 60.9021 299.772 61.0085 299.869 61.0358C299.885 61.0413 299.9 61.0429 299.916 61.0429C299.996 61.0429 300.07 60.9858 300.091 60.8978L300.842 57.8792L301.738 57.3224L301.483 58.3495C301.458 58.4543 301.515 58.561 301.611 58.5884C301.627 58.5931 301.643 58.5954 301.658 58.5954C301.739 58.5954 301.812 58.5383 301.834 58.4504L302.184 57.046L303.077 56.4908V57.6004L302.121 58.629C302.051 58.7049 302.051 58.8292 302.121 58.9054C302.192 58.9813 302.308 58.9813 302.378 58.9054L303.079 58.1556V59.2683L301.024 61.4788C300.953 61.5547 300.953 61.679 301.024 61.7552C301.095 61.8311 301.21 61.8311 301.281 61.7552L303.079 59.8211V61.1832L302.294 62.0266C302.223 62.1024 302.223 62.2271 302.294 62.303C302.365 62.3788 302.48 62.3788 302.551 62.303L303.079 61.7357V62.7276C303.079 62.8347 303.16 62.923 303.26 62.923C303.36 62.923 303.442 62.8347 303.442 62.7276V61.7357L303.969 62.303C304.005 62.3417 304.052 62.36 304.098 62.36C304.145 62.36 304.191 62.3409 304.227 62.303C304.297 62.2271 304.297 62.1024 304.227 62.0266L303.442 61.1832V59.8211L305.239 61.7552C305.275 61.7935 305.322 61.8123 305.368 61.8123C305.415 61.8123 305.461 61.7928 305.496 61.7552C305.567 61.679 305.567 61.5547 305.496 61.4788L303.442 59.2683V58.1556L304.141 58.9078C304.177 58.9461 304.224 58.9649 304.27 58.9649C304.316 58.9649 304.363 58.9457 304.399 58.9078C304.47 58.8316 304.47 58.7076 304.399 58.6314L303.442 57.6027V56.4924L304.336 57.0476L304.686 58.4519C304.708 58.5399 304.781 58.597 304.861 58.597C304.876 58.597 304.893 58.5954 304.908 58.5903C305.006 58.5626 305.063 58.4547 305.037 58.3511L304.781 57.3248L305.677 57.8807L306.428 60.9002C306.451 60.9874 306.524 61.0444 306.604 61.0444C306.62 61.0444 306.635 61.0429 306.651 61.0382C306.749 61.01 306.806 60.9025 306.78 60.7985L306.121 58.1571L307.219 58.839L307.506 59.9908C307.529 60.0784 307.601 60.1358 307.681 60.1358C307.697 60.1358 307.713 60.1335 307.728 60.1284C307.826 60.1014 307.883 59.9931 307.857 59.8899L307.665 59.1154L308.463 59.6119C308.492 59.6295 308.523 59.6377 308.553 59.6377C308.616 59.6377 308.678 59.6033 308.712 59.54C308.762 59.4469 308.732 59.3269 308.644 59.273L307.846 58.776L308.566 58.5684C308.664 58.5415 308.721 58.4332 308.695 58.3299C308.669 58.2248 308.57 58.1634 308.472 58.1915L307.401 58.5008L306.303 57.8189L308.76 57.1117C308.857 57.0835 308.915 56.976 308.888 56.872C308.863 56.7669 308.764 56.7055 308.667 56.7324Z" fill="white"/>
<path d="M337.667 137.732L334.859 138.541L333.964 137.985L334.918 137.71C335.016 137.682 335.073 137.574 335.047 137.47C335.021 137.366 334.922 137.304 334.825 137.332L333.518 137.708L332.625 137.154L333.519 136.599L334.825 136.975C334.841 136.98 334.856 136.982 334.872 136.982C334.952 136.982 335.026 136.924 335.048 136.837C335.073 136.732 335.016 136.625 334.919 136.597L333.964 136.322L334.86 135.766L337.668 136.575C337.683 136.58 337.699 136.582 337.714 136.582C337.795 136.582 337.868 136.524 337.889 136.437C337.915 136.332 337.858 136.225 337.761 136.198L335.305 135.49L336.402 134.809L337.473 135.118C337.489 135.123 337.505 135.125 337.521 135.125C337.601 135.125 337.675 135.067 337.696 134.98C337.722 134.875 337.665 134.768 337.568 134.74L336.847 134.532L337.646 134.036C337.732 133.982 337.762 133.863 337.713 133.769C337.662 133.675 337.551 133.644 337.464 133.698L336.666 134.193L336.858 133.42C336.885 133.315 336.827 133.208 336.73 133.18C336.632 133.153 336.533 133.214 336.507 133.319L336.22 134.471L335.123 135.152L335.781 132.511C335.807 132.407 335.75 132.3 335.653 132.272C335.554 132.245 335.456 132.306 335.43 132.411L334.678 135.429L333.782 135.986L334.038 134.959C334.064 134.855 334.006 134.747 333.91 134.72C333.811 134.692 333.713 134.754 333.687 134.858L333.337 136.262L332.443 136.816V135.706L333.399 134.677C333.47 134.601 333.47 134.477 333.399 134.401C333.329 134.324 333.213 134.324 333.142 134.401L332.443 135.153V134.04L334.498 131.83C334.568 131.753 334.568 131.629 334.498 131.553C334.427 131.477 334.311 131.477 334.241 131.553L332.443 133.487V132.125L333.228 131.281C333.298 131.205 333.298 131.081 333.228 131.005C333.157 130.928 333.041 130.928 332.971 131.005L332.443 131.572V130.58C332.443 130.472 332.361 130.385 332.262 130.385C332.162 130.385 332.08 130.472 332.08 130.58V131.572L331.552 131.004C331.481 130.928 331.366 130.928 331.295 131.004C331.224 131.081 331.224 131.204 331.295 131.281L332.08 132.124V133.487L330.282 131.553C330.212 131.477 330.096 131.477 330.026 131.553C329.955 131.629 329.955 131.753 330.026 131.829L332.08 134.039V135.152L331.381 134.4C331.31 134.324 331.194 134.324 331.124 134.4C331.053 134.476 331.053 134.6 331.124 134.677L332.08 135.705V136.815L331.186 136.26L330.836 134.856C330.81 134.751 330.711 134.69 330.613 134.717C330.516 134.745 330.459 134.853 330.485 134.957L330.74 135.983L329.844 135.427L329.093 132.408C329.067 132.304 328.968 132.242 328.87 132.27C328.773 132.298 328.715 132.405 328.741 132.509L329.4 135.15L328.302 134.469L328.015 133.316C327.99 133.212 327.891 133.151 327.793 133.178C327.696 133.206 327.639 133.313 327.664 133.417L327.857 134.192L327.059 133.696C326.973 133.643 326.861 133.674 326.811 133.768C326.761 133.861 326.79 133.981 326.878 134.035L327.676 134.531L326.955 134.739C326.858 134.767 326.801 134.874 326.826 134.978C326.849 135.066 326.922 135.123 327.001 135.123C327.018 135.123 327.033 135.121 327.049 135.116L328.121 134.807L329.218 135.488L326.762 136.196C326.664 136.224 326.606 136.331 326.633 136.435C326.656 136.523 326.729 136.58 326.809 136.58C326.824 136.58 326.84 136.578 326.855 136.574L329.663 135.765L330.558 136.321L329.603 136.596C329.506 136.624 329.449 136.731 329.475 136.835C329.497 136.923 329.571 136.98 329.65 136.98C329.665 136.98 329.681 136.978 329.698 136.974L331.003 136.597L331.897 137.152L331.004 137.707L329.697 137.331C329.601 137.303 329.501 137.365 329.475 137.47C329.449 137.574 329.506 137.681 329.603 137.708L330.558 137.984L329.662 138.54L326.855 137.732C326.76 137.705 326.659 137.765 326.633 137.87C326.607 137.975 326.664 138.082 326.762 138.109L329.218 138.817L328.12 139.498L327.049 139.19C326.951 139.161 326.853 139.223 326.826 139.328C326.801 139.433 326.858 139.54 326.955 139.567L327.676 139.774L326.877 140.271C326.79 140.325 326.761 140.444 326.81 140.538C326.844 140.601 326.905 140.636 326.967 140.636C326.999 140.636 327.03 140.628 327.058 140.61L327.857 140.114L327.664 140.888C327.639 140.993 327.696 141.099 327.793 141.127C327.808 141.132 327.824 141.134 327.839 141.134C327.92 141.134 327.993 141.077 328.015 140.989L328.301 139.837L329.398 139.156L328.74 141.797C328.715 141.902 328.772 142.008 328.869 142.036C328.885 142.041 328.9 142.043 328.916 142.043C328.996 142.043 329.07 141.986 329.091 141.898L329.842 138.879L330.738 138.322L330.483 139.349C330.458 139.454 330.515 139.561 330.611 139.588C330.627 139.593 330.643 139.595 330.658 139.595C330.739 139.595 330.812 139.538 330.834 139.45L331.184 138.046L332.077 137.491V138.6L331.121 139.629C331.051 139.705 331.051 139.829 331.121 139.905C331.192 139.981 331.308 139.981 331.378 139.905L332.079 139.156V140.268L330.024 142.479C329.953 142.555 329.953 142.679 330.024 142.755C330.095 142.831 330.21 142.831 330.281 142.755L332.079 140.821V142.183L331.294 143.027C331.223 143.102 331.223 143.227 331.294 143.303C331.365 143.379 331.48 143.379 331.551 143.303L332.079 142.736V143.728C332.079 143.835 332.16 143.923 332.26 143.923C332.36 143.923 332.442 143.835 332.442 143.728V142.736L332.969 143.303C333.005 143.342 333.052 143.36 333.098 143.36C333.145 143.36 333.191 143.341 333.227 143.303C333.297 143.227 333.297 143.102 333.227 143.027L332.442 142.183V140.821L334.239 142.755C334.275 142.794 334.322 142.812 334.368 142.812C334.415 142.812 334.461 142.793 334.496 142.755C334.567 142.679 334.567 142.555 334.496 142.479L332.442 140.268V139.156L333.141 139.908C333.177 139.946 333.224 139.965 333.27 139.965C333.316 139.965 333.363 139.946 333.399 139.908C333.47 139.832 333.47 139.708 333.399 139.631L332.442 138.603V137.492L333.336 138.048L333.686 139.452C333.708 139.54 333.781 139.597 333.861 139.597C333.876 139.597 333.893 139.595 333.908 139.59C334.006 139.563 334.063 139.455 334.037 139.351L333.781 138.325L334.677 138.881L335.428 141.9C335.451 141.987 335.524 142.044 335.604 142.044C335.62 142.044 335.635 142.043 335.651 142.038C335.749 142.01 335.806 141.903 335.78 141.799L335.121 139.157L336.219 139.839L336.506 140.991C336.529 141.078 336.601 141.136 336.681 141.136C336.697 141.136 336.713 141.133 336.728 141.128C336.826 141.101 336.883 140.993 336.857 140.89L336.665 140.115L337.463 140.612C337.492 140.63 337.523 140.638 337.553 140.638C337.616 140.638 337.678 140.603 337.712 140.54C337.762 140.447 337.732 140.327 337.644 140.273L336.846 139.776L337.566 139.568C337.664 139.541 337.721 139.433 337.695 139.33C337.669 139.225 337.57 139.163 337.472 139.192L336.401 139.501L335.303 138.819L337.76 138.112C337.857 138.084 337.915 137.976 337.888 137.872C337.863 137.767 337.764 137.705 337.667 137.732Z" fill="white"/>
<path d="M72.2269 91.0828C72.1899 90.3196 72.1638 89.5544 72.1638 88.7832C72.1638 60.8903 96.939 38.1966 127.395 38.1966C157.851 38.1966 182.626 60.8883 182.626 88.7832C182.626 89.5544 182.6 90.3196 182.563 91.0828H192.607C192.633 90.3176 192.665 89.5544 192.665 88.7832C192.665 55.7649 163.443 29 127.393 29C91.343 29 62.1205 55.7649 62.1205 88.7832C62.1205 89.5544 62.1532 90.3176 62.1836 91.0828H72.2269Z" fill="#7E79B6"/>
<path d="M82.3311 91.0828C82.2854 90.3175 82.2049 89.5603 82.2049 88.7831C82.2049 65.9619 102.476 47.3952 127.393 47.3952C152.31 47.3952 172.581 65.9639 172.581 88.7831C172.581 89.5583 172.5 90.3175 172.455 91.0828H182.561C182.598 90.3195 182.624 89.5543 182.624 88.7831C182.624 60.8903 157.849 38.1966 127.393 38.1966C96.9368 38.1966 72.1616 60.8903 72.1616 88.7831C72.1616 89.5543 72.1877 90.3195 72.2247 91.0828H82.3311Z" fill="#DFE247"/>
<path d="M92.3743 91.0827C92.3155 90.3195 92.2481 89.5603 92.2481 88.7831C92.2481 71.0335 108.014 56.5918 127.395 56.5918C146.777 56.5918 162.542 71.0315 162.542 88.7831C162.542 89.5583 162.475 90.3195 162.416 91.0827H172.457C172.503 90.3175 172.583 89.5603 172.583 88.7831C172.583 65.9619 152.312 47.3952 127.395 47.3952C102.478 47.3952 82.2048 65.9619 82.2048 88.7831C82.2048 89.5583 82.2853 90.3175 82.331 91.0827H92.3743Z" fill="#71C285"/>
<path d="M102.415 91.0828C102.333 90.3256 102.289 89.5603 102.289 88.7832C102.289 76.1051 113.551 65.7906 127.393 65.7906C141.235 65.7906 152.497 76.1071 152.497 88.7832C152.497 89.5583 152.451 90.3256 152.371 91.0828H162.412C162.47 90.3196 162.538 89.5603 162.538 88.7832C162.538 71.0335 146.772 56.5919 127.391 56.5919C108.009 56.5919 92.2438 71.0315 92.2438 88.7832C92.2438 89.5583 92.3112 90.3196 92.37 91.0828H102.415Z" fill="#C57979"/>
<path d="M296.007 84.8808C294.176 86.3139 286.629 86.6287 286.629 86.6287C286.629 86.6287 289.699 78.6285 291.53 77.1933C292.409 76.5308 293.477 76.2952 294.505 76.5372C295.533 76.7791 296.437 77.4793 297.024 78.487C297.611 79.4947 297.833 80.7294 297.643 81.9252C297.453 83.121 296.865 84.1823 296.007 84.8808Z" fill="#6C63FF"/>
<path d="M277.616 90.7521C279.334 92.3612 286.829 93.4237 286.829 93.4237C286.829 93.4237 284.361 85.1397 282.643 83.5368C281.816 82.7925 280.769 82.4541 279.729 82.5943C278.689 82.7346 277.738 83.3422 277.08 84.2868C276.421 85.2314 276.109 86.4376 276.209 87.6464C276.309 88.8552 276.814 89.9703 277.616 90.7521Z" fill="#6C63FF"/>
<path d="M296.007 84.8808C294.176 86.3139 286.629 86.6287 286.629 86.6287C286.629 86.6287 289.699 78.6285 291.53 77.1933C292.409 76.5308 293.477 76.2952 294.505 76.5372C295.533 76.7791 296.437 77.4793 297.024 78.487C297.611 79.4947 297.833 80.7294 297.643 81.9252C297.453 83.121 296.865 84.1823 296.007 84.8808Z" fill="#FC6681"/>
<path d="M277.616 90.7521C279.334 92.3612 286.829 93.4237 286.829 93.4237C286.829 93.4237 284.361 85.1397 282.643 83.5368C281.816 82.7925 280.769 82.4541 279.729 82.5943C278.689 82.7346 277.738 83.3422 277.08 84.2868C276.421 85.2314 276.109 86.4376 276.209 87.6464C276.309 88.8552 276.814 89.9703 277.616 90.7521Z" fill="#FC6681"/>
<path d="M320 156.989L304.354 77.156H298.541C298.309 74.1054 298.153 71.1501 298.094 68.3667C298.094 68.3667 277.021 73.714 260.216 58.2437C243.411 42.7734 223.654 59.5816 223.654 59.5816L223.577 59.5174V59.4863V59.5257C222.205 58.3991 203.279 43.3575 187.097 58.2562C170.299 73.7264 149.218 68.3792 149.218 68.3792C149.159 71.1978 149.002 74.1779 148.765 77.2575H143.371L127.393 157.276C127.393 157.276 192.345 160.097 215.106 157.496C215.923 159.496 219.441 161 223.655 161C228.392 161 232.244 159.101 232.378 156.734C250.095 158.297 288.22 160.797 320 156.989Z" fill="url(#paint0_linear)"/>
<path d="M145.045 77.8581L129.402 156.212C129.402 156.212 215.512 159.952 222.446 154.717C222.446 154.717 275.903 160.981 317.991 155.932L302.672 77.767L145.045 77.8581Z" fill="#E2E2EC"/>
<path opacity="0.1" d="M150.367 80.5649L135.783 153.615C135.783 153.615 216.065 157.102 222.53 152.221C222.53 152.221 272.369 158.061 311.608 153.354L297.321 80.4779L150.367 80.5649Z" fill="black"/>
<path d="M296.544 69.1641C296.544 69.1641 275.903 74.3995 259.455 59.2523C243.007 44.1051 223.655 60.5612 223.655 60.5612C223.655 60.5612 204.305 44.1051 187.857 59.2523C171.41 74.3995 150.768 69.1641 150.768 69.1641C150.118 99.6449 137.869 149.013 137.869 149.013C137.869 149.013 160.444 156.119 190.277 141.721C220.11 127.324 223.657 146.77 223.657 146.77C223.657 146.77 227.204 127.322 257.037 141.721C286.87 156.121 309.445 149.013 309.445 149.013C309.445 149.013 297.189 99.6449 296.544 69.1641Z" fill="#F1F2FB"/>
<path opacity="0.1" d="M183.827 147.336C183.827 147.336 211.079 140.23 223.652 150.701C223.652 150.701 235.746 137.985 263.804 147.897" fill="black"/>
<path d="M223.655 159.859C228.376 159.859 232.203 157.933 232.203 155.557C232.203 153.182 228.376 151.256 223.655 151.256C218.935 151.256 215.108 153.182 215.108 155.557C215.108 157.933 218.935 159.859 223.655 159.859Z" fill="#E8EAF8"/>
<path opacity="0.1" d="M223.575 60.468C223.575 60.468 229.702 96.5591 223.736 147.423L223.575 60.468Z" fill="black"/>
<path opacity="0.1" d="M156.672 80.4779C156.672 80.4779 169.508 83.9364 180.618 80.4779C191.727 77.0193 212.126 65.7055 218.835 80.4779" stroke="black" stroke-width="4" stroke-miterlimit="10"/>
<path opacity="0.1" d="M156.672 86.8358C156.672 86.8358 169.508 90.2943 180.618 86.8358C191.727 83.3772 215.783 83.5636 218.835 86.8358" stroke="black" stroke-width="4" stroke-miterlimit="10"/>
<path opacity="0.1" d="M156.672 98.0461C156.672 98.0461 169.508 101.505 180.618 98.0461C191.727 94.5875 212.126 83.2737 218.835 98.0461" stroke="black" stroke-width="4" stroke-miterlimit="10"/>
<path opacity="0.1" d="M156.672 104.412C156.672 104.412 169.508 107.871 180.618 104.412C191.727 100.954 215.783 101.14 218.835 104.412" stroke="black" stroke-width="4" stroke-miterlimit="10"/>
<path opacity="0.1" d="M290.64 80.4779C290.64 80.4779 277.805 83.9364 266.695 80.4779C255.585 77.0193 235.187 65.7055 228.477 80.4779" stroke="black" stroke-width="4" stroke-miterlimit="10"/>
<path opacity="0.1" d="M290.64 86.8358C290.64 86.8358 277.805 90.2943 266.695 86.8358C255.585 83.3772 231.529 83.5636 228.477 86.8358" stroke="black" stroke-width="4" stroke-miterlimit="10"/>
<path opacity="0.1" d="M290.64 98.0461C290.64 98.0461 277.805 101.505 266.695 98.0461C255.585 94.5875 235.187 83.2737 228.477 98.0461" stroke="black" stroke-width="4" stroke-miterlimit="10"/>
<path opacity="0.1" d="M290.64 104.412C290.64 104.412 277.805 107.871 266.695 104.412C255.585 100.954 231.529 101.14 228.477 104.412" stroke="black" stroke-width="4" stroke-miterlimit="10"/>
<path d="M119.636 89.2495H119.535C119.579 89.5195 119.609 89.7922 119.609 90.071C119.609 90.5622 119.052 90.9592 118.364 90.9592C117.676 90.9592 117.12 90.5622 117.12 90.071C117.12 87.132 113.771 84.7419 109.654 84.7419C105.536 84.7419 102.187 87.132 102.187 90.071C102.187 90.5622 101.631 90.9592 100.943 90.9592C100.255 90.9592 99.6984 90.5622 99.6984 90.071C99.6984 86.4615 103.493 83.4781 108.382 83.0304C108.101 78.5549 102.926 74.9719 96.5875 74.9719C90.2274 74.9719 85.0384 78.5779 84.7895 83.0748C85.8211 83.2489 86.8203 83.5367 87.7486 83.9461C90.0084 84.9453 91.5888 86.513 92.1986 88.3604C92.3553 88.8382 91.941 89.3161 91.2727 89.4289C90.6033 89.5364 89.9338 89.245 89.7757 88.7681C88.8325 85.9064 84.7994 84.1264 80.7988 84.8006C76.7906 85.4738 74.2969 88.348 75.2401 91.2088C75.3969 91.6858 74.9825 92.1636 74.313 92.2764C74.2185 92.2924 74.1226 92.2995 74.0281 92.2995C73.4644 92.2995 72.9529 92.0233 72.8173 91.6147C72.4514 90.5036 72.4838 89.3925 72.8322 88.3515C70.2713 88.0842 67.6842 88.7743 65.9968 90.2362C64.4314 91.5943 63.9747 93.3431 64.5347 94.9303C64.5359 94.941 64.5434 94.9498 64.5446 94.9605C64.9254 96.0139 65.7517 96.9944 67.0147 97.7378C67.5448 98.0505 67.6207 98.6092 67.1852 98.9884C66.9388 99.2016 66.5829 99.3117 66.2233 99.3117C65.9446 99.3117 65.6658 99.246 65.4331 99.1092C63.9187 98.2192 62.8348 97.0566 62.2649 95.751C57.2339 94.8148 51.944 96.3256 49.2113 99.5364C47.5725 101.462 47.081 103.729 47.8301 105.918C48.5792 108.108 50.4769 109.958 53.1759 111.129C53.7633 111.384 53.95 111.929 53.5928 112.349C53.3589 112.625 52.9482 112.776 52.5289 112.776C52.3634 112.776 52.1991 112.744 52.0411 112.695C54.0072 113.526 56.2707 114.035 58.6911 114.11L68.9062 114.112C75.5101 114.037 81.1671 111.128 83.5787 107.014C86.0214 111.182 91.7954 114.12 98.5113 114.12C110.176 114.12 119.666 107.346 119.666 99.0204V90.1385L119.636 89.2495Z" fill="#D0E8F9"/>
<path d="M110.871 83.0908C110.583 77.6382 104.295 73.2621 96.5875 73.2621C88.9445 73.2621 82.7002 77.5645 82.3144 82.9522C81.62 82.9629 80.9219 83.0215 80.2288 83.1379C77.3219 83.6264 75.0211 84.9871 73.7219 86.7368C70.1356 86.2172 66.4448 87.1214 64.078 89.1722C62.5213 90.5222 61.7398 92.1991 61.8256 93.932C56.0642 93.1912 50.2031 95.0191 47.0872 98.6784C45.1011 101.01 44.5076 103.753 45.4135 106.404C46.3194 109.054 48.6178 111.294 51.8843 112.712C52.0859 112.8 52.3098 112.841 52.5301 112.841C52.9507 112.841 53.3601 112.69 53.5941 112.415C53.9512 111.995 53.7645 111.45 53.1772 111.195C50.4781 110.024 48.5804 108.174 47.8313 105.984C47.0822 103.794 47.5737 101.528 49.2126 99.6021C51.9452 96.3922 57.2351 94.8814 62.2662 95.8167C62.8361 97.1232 63.9212 98.2849 65.4344 99.1749C65.6671 99.3108 65.9458 99.3774 66.2245 99.3774C66.5842 99.3774 66.9401 99.2673 67.1864 99.0541C67.6232 98.6749 67.5461 98.1153 67.016 97.8036C65.7517 97.061 64.9266 96.0796 64.5459 95.0262C64.5446 95.0155 64.5372 95.0067 64.5359 94.996C63.9759 93.4088 64.4326 91.66 65.9981 90.302C67.6854 88.84 70.2725 88.1499 72.8335 88.4172C72.485 89.4591 72.4514 90.5693 72.8185 91.6804C72.9529 92.0899 73.4656 92.3652 74.0293 92.3652C74.1239 92.3652 74.2197 92.3572 74.3143 92.3421C74.9838 92.2293 75.3981 91.7515 75.2413 91.2745C74.2981 88.4137 76.7918 85.5395 80.8 84.8663C84.8007 84.1921 88.8337 85.9721 89.777 88.8338C89.935 89.3107 90.6045 89.6021 91.274 89.4946C91.9422 89.3818 92.3566 88.9039 92.1998 88.4261C91.59 86.5787 90.0097 85.011 87.7499 84.0118C86.8216 83.6015 85.8223 83.3146 84.7907 83.1405C85.0396 78.6437 90.2287 75.0376 96.5887 75.0376C102.928 75.0376 108.103 78.6197 108.383 83.0961C103.494 83.5438 99.6997 86.5272 99.6997 90.1367C99.6997 90.6279 100.256 91.0249 100.944 91.0249C101.632 91.0249 102.188 90.6279 102.188 90.1367C102.188 87.1978 105.537 84.8076 109.655 84.8076C113.772 84.8076 117.178 87.1978 117.178 90.1367C117.178 90.1616 117.178 91.3154 117.178 92.8013C117.178 93.2916 117.736 93.6895 118.423 93.6895C119.11 93.6895 119.667 93.2916 119.667 92.8013V90.1367C119.666 86.5147 115.787 83.5216 110.871 83.0908Z" fill="#ABCADD"/>
<path d="M98.5113 114.119C92.3229 114.119 86.7008 111.802 83.5787 108.089C80.4565 111.802 74.8344 114.119 68.6461 114.119C67.9592 114.119 67.4017 113.722 67.4017 113.23C67.4017 112.739 67.9592 112.342 68.6461 112.342C74.685 112.342 80.0956 109.767 82.4313 105.782L83.5787 103.823L84.726 105.782C87.0604 109.767 92.4723 112.342 98.5113 112.342C99.1982 112.342 99.7556 112.739 99.7556 113.23C99.7556 113.722 99.1994 114.119 98.5113 114.119Z" fill="#ABCADD"/>
<path d="M113.316 101.573C112.746 98.0389 108.534 95.2828 103.432 95.2828C97.9427 95.2828 93.4766 98.4705 93.4766 102.388C93.4766 102.879 94.034 103.276 94.7209 103.276C95.4078 103.276 95.9653 102.879 95.9653 102.388C95.9653 99.4493 99.314 97.0592 103.432 97.0592C107.169 97.0592 110.263 99.0301 110.805 101.591C107.324 102.043 104.676 104.217 104.676 106.829C104.676 107.319 105.233 107.717 105.92 107.717C106.607 107.717 107.165 107.319 107.165 106.829C107.165 104.87 109.397 103.276 112.142 103.276C114.887 103.276 117.12 104.87 117.12 106.829C117.12 107.319 117.677 107.717 118.364 107.717C119.051 107.717 119.609 107.319 119.609 106.829C119.609 104.176 116.876 101.977 113.316 101.573Z" fill="#ABCADD"/>
<path d="M78.6672 138.732L75.8589 139.541L74.9636 138.985L75.9185 138.71C76.0163 138.682 76.0733 138.574 76.0471 138.47C76.021 138.366 75.9217 138.304 75.8247 138.332L74.5183 138.708L73.6248 138.154L74.519 137.599L75.8247 137.975C75.8407 137.98 75.8563 137.982 75.8719 137.982C75.9523 137.982 76.0261 137.924 76.0475 137.837C76.073 137.732 76.0159 137.625 75.9188 137.597L74.9639 137.322L75.86 136.766L78.6676 137.575C78.6832 137.58 78.6988 137.582 78.7145 137.582C78.7948 137.582 78.8682 137.524 78.8893 137.437C78.9155 137.332 78.858 137.225 78.7606 137.198L76.3045 136.49L77.4019 135.809L78.4735 136.118C78.4895 136.123 78.5051 136.125 78.5207 136.125C78.601 136.125 78.6748 136.067 78.6963 135.98C78.7217 135.875 78.6647 135.768 78.5676 135.74L77.8472 135.532L78.6458 135.036C78.7323 134.982 78.7621 134.863 78.7126 134.769C78.6621 134.675 78.5512 134.644 78.464 134.698L77.6661 135.193L77.8584 134.42C77.8846 134.315 77.8272 134.208 77.7298 134.18C77.632 134.153 77.5331 134.214 77.5069 134.319L77.2201 135.471L76.1231 136.152L76.7814 133.511C76.8072 133.407 76.7501 133.3 76.6527 133.272C76.5542 133.245 76.4561 133.306 76.4299 133.411L75.6782 136.429L74.7822 136.986L75.0385 135.959C75.0639 135.855 75.0065 135.747 74.9098 135.72C74.8113 135.692 74.7135 135.754 74.687 135.858L74.3369 137.262L73.4435 137.816V136.706L74.3994 135.677C74.4703 135.601 74.4703 135.477 74.3994 135.401C74.3289 135.324 74.2133 135.324 74.1425 135.401L73.4435 136.153V135.04L75.4975 132.83C75.5684 132.753 75.5684 132.629 75.4975 132.553C75.427 132.477 75.3114 132.477 75.2406 132.553L73.4435 134.487V133.125L74.2279 132.281C74.2984 132.205 74.2984 132.081 74.2279 132.005C74.157 131.928 74.0414 131.928 73.9709 132.005L73.4435 132.572V131.58C73.4435 131.472 73.3613 131.385 73.2617 131.385C73.1618 131.385 73.08 131.472 73.08 131.58V132.572L72.5522 132.004C72.4813 131.928 72.3661 131.928 72.2952 132.004C72.2243 132.081 72.2243 132.204 72.2952 132.281L73.0796 133.124V134.487L71.2825 132.553C71.2116 132.477 71.0964 132.477 71.0255 132.553C70.9546 132.629 70.9546 132.753 71.0255 132.829L73.08 135.039V136.152L72.381 135.4C72.3101 135.324 72.1941 135.324 72.124 135.4C72.0531 135.476 72.0531 135.6 72.124 135.677L73.08 136.705V137.815L72.1861 137.26L71.8361 135.856C71.8099 135.751 71.7107 135.69 71.6133 135.717C71.5162 135.745 71.4588 135.853 71.4846 135.957L71.7401 136.983L70.8441 136.427L70.0928 133.408C70.0666 133.304 69.9677 133.242 69.87 133.27C69.7725 133.298 69.7155 133.405 69.7409 133.509L70.3996 136.15L69.3018 135.469L69.0154 134.316C68.99 134.212 68.8911 134.151 68.7933 134.178C68.6959 134.206 68.6388 134.313 68.6643 134.417L68.8573 135.192L68.0594 134.696C67.9733 134.643 67.8613 134.674 67.8111 134.768C67.7606 134.861 67.7904 134.981 67.8777 135.035L68.6763 135.531L67.9551 135.739C67.858 135.767 67.801 135.874 67.8264 135.978C67.8486 136.066 67.9224 136.123 68.0013 136.123C68.0176 136.123 68.0332 136.121 68.0492 136.116L69.1208 135.807L70.2182 136.488L67.7621 137.196C67.6639 137.224 67.6065 137.331 67.6334 137.435C67.6556 137.523 67.7286 137.58 67.8086 137.58C67.8242 137.58 67.8399 137.578 67.8555 137.574L70.6631 136.765L71.5584 137.321L70.6035 137.596C70.5064 137.624 70.4494 137.731 70.4748 137.835C70.497 137.923 70.5708 137.98 70.6497 137.98C70.6653 137.98 70.6809 137.978 70.6976 137.974L72.0033 137.597L72.8975 138.152L72.0037 138.707L70.6965 138.331C70.6013 138.303 70.501 138.365 70.4748 138.47C70.4494 138.574 70.5064 138.681 70.6035 138.708L71.5584 138.984L70.6624 139.54L67.8551 138.732C67.7603 138.705 67.6588 138.765 67.633 138.87C67.6065 138.975 67.6643 139.082 67.7617 139.109L70.2178 139.817L69.1201 140.498L68.0492 140.19C67.9515 140.161 67.8529 140.223 67.8264 140.328C67.801 140.433 67.858 140.54 67.9551 140.567L68.6755 140.774L67.8766 141.271C67.7904 141.325 67.7606 141.444 67.8101 141.538C67.8439 141.601 67.9049 141.636 67.9674 141.636C67.9987 141.636 68.03 141.628 68.0583 141.61L68.8569 141.114L68.6639 141.888C68.6388 141.993 68.6959 142.099 68.7926 142.127C68.8082 142.132 68.8238 142.134 68.8395 142.134C68.9202 142.134 68.9932 142.077 69.0147 141.989L69.3015 140.837L70.3985 140.156L69.7398 142.797C69.7148 142.902 69.7718 143.008 69.8685 143.036C69.8845 143.041 69.9001 143.043 69.9158 143.043C69.9961 143.043 70.0699 142.986 70.0906 142.898L70.8423 139.879L71.7383 139.322L71.4828 140.349C71.4577 140.454 71.5148 140.561 71.6115 140.588C71.6271 140.593 71.6427 140.595 71.6583 140.595C71.739 140.595 71.8121 140.538 71.8339 140.45L72.1836 139.046L73.0774 138.491V139.6L72.1214 140.629C72.0506 140.705 72.0506 140.829 72.1214 140.905C72.192 140.981 72.3075 140.981 72.3784 140.905L73.0785 140.156V141.268L71.0241 143.479C70.9532 143.555 70.9532 143.679 71.0241 143.755C71.0949 143.831 71.2102 143.831 71.281 143.755L73.0785 141.821V143.183L72.2941 144.027C72.2232 144.102 72.2232 144.227 72.2941 144.303C72.365 144.379 72.4802 144.379 72.5511 144.303L73.0785 143.736V144.728C73.0785 144.835 73.1603 144.923 73.2603 144.923C73.3599 144.923 73.442 144.835 73.442 144.728V143.736L73.9694 144.303C74.0051 144.342 74.0516 144.36 74.0981 144.36C74.145 144.36 74.1912 144.341 74.2268 144.303C74.2969 144.227 74.2969 144.102 74.2268 144.027L73.442 143.183V141.821L75.2391 143.755C75.2751 143.794 75.3216 143.812 75.3678 143.812C75.4147 143.812 75.4608 143.793 75.4965 143.755C75.5673 143.679 75.5673 143.555 75.4965 143.479L73.4424 141.268V140.156L74.1414 140.908C74.1773 140.946 74.2235 140.965 74.27 140.965C74.3162 140.965 74.3635 140.946 74.3987 140.908C74.4696 140.832 74.4696 140.708 74.3987 140.631L73.4424 139.603V138.492L74.3362 139.048L74.6859 140.452C74.7084 140.54 74.7815 140.597 74.8611 140.597C74.876 140.597 74.8927 140.595 74.9083 140.59C75.0057 140.563 75.0632 140.455 75.037 140.351L74.7815 139.325L75.6768 139.881L76.4285 142.9C76.4506 142.987 76.5244 143.044 76.604 143.044C76.6196 143.044 76.6353 143.043 76.6513 143.038C76.7487 143.01 76.8058 142.903 76.78 142.799L76.1213 140.157L77.2194 140.839L77.5062 141.991C77.5287 142.078 77.6014 142.136 77.6814 142.136C77.6967 142.136 77.7127 142.133 77.7283 142.128C77.8257 142.101 77.8831 141.993 77.857 141.89L77.6647 141.115L78.4626 141.612C78.4916 141.63 78.5229 141.638 78.5534 141.638C78.6159 141.638 78.6777 141.603 78.7115 141.54C78.7621 141.447 78.7323 141.327 78.6443 141.273L77.8464 140.776L78.5662 140.568C78.6636 140.541 78.721 140.433 78.6948 140.33C78.6687 140.225 78.5698 140.163 78.472 140.192L77.4012 140.501L76.3034 139.819L78.7595 139.112C78.8573 139.084 78.9147 138.976 78.8882 138.872C78.8635 138.767 78.7639 138.705 78.6672 138.732Z" fill="white"/>
<path d="M320.985 28.1737H320.936C320.957 28.3455 320.972 28.519 320.972 28.6965C320.972 29.0091 320.7 29.2617 320.365 29.2617C320.029 29.2617 319.758 29.0091 319.758 28.6965C319.758 26.8262 318.126 25.3053 316.119 25.3053C314.111 25.3053 312.479 26.8262 312.479 28.6965C312.479 29.0091 312.208 29.2617 311.872 29.2617C311.537 29.2617 311.266 29.0091 311.266 28.6965C311.266 26.3995 313.115 24.501 315.499 24.2161C315.362 21.368 312.839 19.088 309.749 19.088C306.649 19.088 304.12 21.3827 303.998 24.2444C304.501 24.3552 304.988 24.5383 305.441 24.7988C306.542 25.4347 307.313 26.4323 307.61 27.6079C307.686 27.912 307.484 28.2161 307.159 28.2879C306.832 28.3562 306.506 28.1709 306.429 27.8673C305.969 26.0463 304.003 24.9136 302.053 25.3426C300.099 25.771 298.883 27.6 299.343 29.4205C299.42 29.724 299.218 30.0281 298.891 30.0999C298.845 30.1101 298.798 30.1146 298.752 30.1146C298.477 30.1146 298.228 29.9388 298.162 29.6788C297.984 28.9718 297.999 28.2647 298.169 27.6023C296.921 27.4321 295.66 27.8713 294.837 28.8016C294.074 29.6658 293.852 30.7787 294.125 31.7887C294.125 31.7955 294.129 31.8012 294.129 31.808C294.315 32.4783 294.718 33.1023 295.333 33.5753C295.592 33.7743 295.629 34.1298 295.417 34.3712C295.296 34.5068 295.123 34.5769 294.948 34.5769C294.812 34.5769 294.676 34.5351 294.562 34.448C293.824 33.8817 293.296 33.1418 293.018 32.311C290.566 31.7153 287.987 32.6767 286.655 34.7199C285.856 35.9452 285.616 37.3877 285.981 38.7809C286.347 40.1747 287.272 41.352 288.587 42.0969C288.874 42.2592 288.965 42.6062 288.791 42.8735C288.677 43.0487 288.476 43.1448 288.272 43.1448C288.191 43.1448 288.111 43.1245 288.034 43.0934C288.993 43.6224 290.096 43.9463 291.276 43.9938L296.256 43.9955C299.475 43.9474 302.232 42.0964 303.408 39.4783C304.599 42.1309 307.413 44 310.687 44C316.373 44 320.999 39.6897 320.999 34.3915V28.7395L320.985 28.1737Z" fill="#D0E8F9"/>
<path d="M316.712 24.2546C316.572 20.7848 313.507 18 309.749 18C306.024 18 302.98 20.7379 302.792 24.1664C302.453 24.1732 302.113 24.2105 301.775 24.2845C300.358 24.5954 299.236 25.4613 298.603 26.5747C296.855 26.2441 295.056 26.8195 293.902 28.1245C293.143 28.9836 292.762 30.0507 292.804 31.1535C289.995 30.6821 287.138 31.8453 285.619 34.1739C284.651 35.6576 284.362 37.4035 284.804 39.0901C285.245 40.7766 286.366 42.2021 287.958 43.1041C288.056 43.1601 288.165 43.1867 288.273 43.1867C288.478 43.1867 288.677 43.09 288.791 42.9154C288.965 42.648 288.874 42.301 288.588 42.1388C287.272 41.3938 286.347 40.2165 285.982 38.8227C285.617 37.4295 285.857 35.9871 286.655 34.7617C287.988 32.7191 290.566 31.7577 293.019 32.3528C293.297 33.1842 293.825 33.9235 294.563 34.4899C294.677 34.5763 294.812 34.6187 294.948 34.6187C295.124 34.6187 295.297 34.5486 295.417 34.413C295.63 34.1716 295.593 33.8156 295.334 33.6172C294.718 33.1447 294.316 32.5201 294.13 31.8498C294.129 31.843 294.126 31.8374 294.125 31.8306C293.852 30.8205 294.075 29.7077 294.838 28.8435C295.66 27.9131 296.922 27.474 298.17 27.6441C298 28.3071 297.984 29.0136 298.163 29.7207C298.228 29.9812 298.478 30.1564 298.753 30.1564C298.799 30.1564 298.846 30.1513 298.892 30.1417C299.218 30.07 299.42 29.7659 299.344 29.4624C298.884 27.6418 300.1 25.8128 302.053 25.3844C304.004 24.9554 305.97 26.0881 306.429 27.9092C306.506 28.2127 306.833 28.3981 307.159 28.3297C307.485 28.2579 307.687 27.9538 307.611 27.6497C307.313 26.4741 306.543 25.4765 305.441 24.8407C304.989 24.5796 304.502 24.397 303.999 24.2862C304.12 21.4246 306.65 19.1298 309.75 19.1298C312.84 19.1298 315.363 21.4093 315.499 24.258C313.116 24.5428 311.266 26.4413 311.266 28.7383C311.266 29.0509 311.538 29.3035 311.873 29.3035C312.209 29.3035 312.48 29.0509 312.48 28.7383C312.48 26.8681 314.112 25.3471 316.119 25.3471C318.127 25.3471 319.787 26.8681 319.787 28.7383C319.787 28.7542 319.787 29.4884 319.787 30.4339C319.787 30.7459 320.059 30.9992 320.393 30.9992C320.728 30.9992 321 30.7459 321 30.4339V28.7383C320.999 26.4334 319.109 24.5287 316.712 24.2546Z" fill="#ABCADD"/>
<path d="M310.687 43.9994C307.67 43.9994 304.93 42.5254 303.408 40.1623C301.886 42.5254 299.145 43.9994 296.129 43.9994C295.794 43.9994 295.522 43.7468 295.522 43.4342C295.522 43.1217 295.794 42.869 296.129 42.869C299.073 42.869 301.71 41.2305 302.849 38.6944L303.408 37.4476L303.967 38.6944C305.105 41.2299 307.743 42.869 310.687 42.869C311.022 42.869 311.294 43.1217 311.294 43.4342C311.294 43.7468 311.023 43.9994 310.687 43.9994Z" fill="#ABCADD"/>
<path d="M317.904 36.0159C317.626 33.767 315.573 32.0131 313.086 32.0131C310.41 32.0131 308.233 34.0416 308.233 36.5348C308.233 36.8468 308.505 37.1 308.839 37.1C309.174 37.1 309.446 36.8468 309.446 36.5348C309.446 34.6645 311.078 33.1435 313.086 33.1435C314.907 33.1435 316.416 34.3977 316.68 36.0272C314.983 36.3149 313.692 37.6985 313.692 39.3608C313.692 39.6728 313.964 39.926 314.299 39.926C314.634 39.926 314.905 39.6728 314.905 39.3608C314.905 38.1139 315.994 37.1 317.332 37.1C318.67 37.1 319.758 38.1139 319.758 39.3608C319.758 39.6728 320.03 39.926 320.365 39.926C320.7 39.926 320.972 39.6728 320.972 39.3608C320.972 37.6725 319.639 36.2731 317.904 36.0159Z" fill="#ABCADD"/>
<path d="M322.232 24.9099C320.801 25.3335 319.712 26.3192 319.071 27.5914C317.736 26.9036 316.223 26.6872 314.791 27.1108C311.71 28.0219 310.188 31.5259 311.394 34.9361C311.399 34.9493 311.404 34.9624 311.408 34.9755C311.449 35.0887 311.556 35.1649 311.665 35.1583C311.773 35.152 311.854 35.0648 311.859 34.9489C311.963 32.6401 313.64 31.1404 315.972 30.4506C317.404 30.0271 318.918 30.2435 320.252 30.9311C320.893 29.6594 321.982 28.673 323.414 28.2493C325.746 27.5591 328.064 27.8773 329.628 29.6919C329.707 29.7831 329.828 29.8102 329.92 29.7574C330.013 29.7047 330.05 29.5862 330.011 29.4726C330.006 29.4594 330.002 29.4468 329.997 29.4341C328.791 26.0233 325.313 23.9983 322.232 24.9099Z" fill="#3E0735"/>
<path d="M178.454 32.4629H178.412C178.43 32.6227 178.443 32.7841 178.443 32.9491C178.443 33.2399 178.208 33.4749 177.918 33.4749C177.628 33.4749 177.394 33.2399 177.394 32.9491C177.394 31.2096 175.983 29.7949 174.247 29.7949C172.512 29.7949 171.101 31.2096 171.101 32.9491C171.101 33.2399 170.866 33.4749 170.576 33.4749C170.286 33.4749 170.052 33.2399 170.052 32.9491C170.052 30.8126 171.651 29.0468 173.711 28.7818C173.593 26.1327 171.412 24.012 168.741 24.012C166.06 24.012 163.874 26.1464 163.769 28.8081C164.203 28.9111 164.625 29.0815 165.016 29.3238C165.968 29.9153 166.634 30.8431 166.891 31.9366C166.957 32.2194 166.783 32.5023 166.501 32.569C166.219 32.6327 165.937 32.4602 165.87 32.1779C165.473 30.4841 163.773 29.4305 162.087 29.8296C160.398 30.2281 159.347 31.9293 159.744 33.6226C159.81 33.9049 159.636 34.1877 159.354 34.2545C159.314 34.2639 159.273 34.2682 159.233 34.2682C158.996 34.2682 158.78 34.1047 158.723 33.8628C158.569 33.2052 158.583 32.5475 158.729 31.9314C157.65 31.7731 156.56 32.1816 155.849 33.0469C155.189 33.8507 154.997 34.8859 155.233 35.8253C155.233 35.8316 155.236 35.8369 155.237 35.8432C155.397 36.4667 155.745 37.0471 156.278 37.4871C156.501 37.6721 156.533 38.0028 156.35 38.2273C156.246 38.3535 156.096 38.4187 155.944 38.4187C155.827 38.4187 155.709 38.3798 155.611 38.2988C154.973 37.772 154.516 37.0839 154.276 36.3111C152.156 35.757 149.926 36.6512 148.775 38.5517C148.084 39.6914 147.877 41.033 148.193 42.3289C148.508 43.6253 149.308 44.7204 150.446 45.4133C150.693 45.5641 150.772 45.8869 150.621 46.1356C150.523 46.2986 150.35 46.3879 150.173 46.3879C150.103 46.3879 150.034 46.369 149.967 46.3401C150.796 46.8322 151.75 47.1334 152.77 47.1776L157.075 47.1791C159.858 47.1344 162.242 45.4127 163.258 42.9776C164.288 45.4448 166.721 47.1833 169.552 47.1833C174.467 47.1833 178.467 43.1743 178.467 38.2462V32.9891L178.454 32.4629Z" fill="#D0E8F9"/>
<path d="M174.76 28.8175C174.639 25.5902 171.989 23 168.741 23C165.52 23 162.888 25.5466 162.726 28.7355C162.433 28.7418 162.139 28.7765 161.847 28.8454C160.622 29.1345 159.652 29.9399 159.104 30.9756C157.593 30.668 156.038 31.2032 155.04 32.4171C154.384 33.2162 154.055 34.2087 154.091 35.2344C151.663 34.7959 149.193 35.8779 147.88 38.0438C147.043 39.4238 146.792 41.0477 147.174 42.6164C147.556 44.1852 148.525 45.511 149.901 46.35C149.986 46.4021 150.081 46.4268 150.173 46.4268C150.351 46.4268 150.523 46.3369 150.622 46.1745C150.772 45.9258 150.694 45.603 150.446 45.4521C149.309 44.7592 148.509 43.6642 148.193 42.3678C147.878 41.0719 148.085 39.7303 148.775 38.5905C149.927 36.6906 152.156 35.7964 154.277 36.3499C154.517 37.1233 154.974 37.8109 155.612 38.3377C155.71 38.4181 155.827 38.4575 155.945 38.4575C156.096 38.4575 156.246 38.3923 156.35 38.2662C156.534 38.0417 156.502 37.7105 156.278 37.526C155.745 37.0865 155.398 36.5056 155.237 35.8821C155.237 35.8758 155.234 35.8705 155.233 35.8642C154.997 34.9247 155.19 33.8896 155.849 33.0858C156.56 32.2205 157.651 31.812 158.73 31.9702C158.583 32.5869 158.569 33.244 158.724 33.9017C158.78 34.1441 158.996 34.307 159.234 34.307C159.274 34.307 159.314 34.3023 159.354 34.2934C159.636 34.2266 159.811 33.9438 159.745 33.6614C159.347 31.9681 160.398 30.2669 162.087 29.8684C163.773 29.4694 165.473 30.5229 165.871 32.2168C165.937 32.4991 166.219 32.6715 166.501 32.6079C166.783 32.5412 166.958 32.2583 166.892 31.9755C166.635 30.882 165.969 29.9541 165.016 29.3627C164.625 29.1198 164.204 28.95 163.769 28.847C163.874 26.1853 166.061 24.0509 168.741 24.0509C171.413 24.0509 173.594 26.1711 173.712 28.8207C171.651 29.0856 170.052 30.8515 170.052 32.988C170.052 33.2787 170.287 33.5137 170.577 33.5137C170.867 33.5137 171.101 33.2787 171.101 32.988C171.101 31.2484 172.512 29.8337 174.248 29.8337C175.983 29.8337 177.418 31.2484 177.418 32.988C177.418 33.0027 177.418 33.6856 177.418 34.5651C177.418 34.8553 177.653 35.0909 177.943 35.0909C178.232 35.0909 178.467 34.8553 178.467 34.5651V32.988C178.467 30.8442 176.832 29.0725 174.76 28.8175Z" fill="#ABCADD"/>
<path d="M169.552 47.1828C166.944 47.1828 164.574 45.8117 163.258 43.6137C161.943 45.8117 159.573 47.1828 156.965 47.1828C156.676 47.1828 156.441 46.9478 156.441 46.6571C156.441 46.3664 156.676 46.1314 156.965 46.1314C159.51 46.1314 161.791 44.6073 162.775 42.2485L163.258 41.0887L163.742 42.2485C164.726 44.6068 167.006 46.1314 169.552 46.1314C169.841 46.1314 170.076 46.3664 170.076 46.6571C170.076 46.9478 169.842 47.1828 169.552 47.1828Z" fill="#ABCADD"/>
<path d="M175.791 39.7571C175.55 37.6653 173.775 36.034 171.625 36.034C169.312 36.034 167.43 37.9208 167.43 40.2397C167.43 40.5299 167.665 40.7654 167.954 40.7654C168.244 40.7654 168.479 40.5299 168.479 40.2397C168.479 38.5001 169.89 37.0854 171.625 37.0854C173.2 37.0854 174.504 38.252 174.732 39.7676C173.266 40.0352 172.15 41.3221 172.15 42.8683C172.15 43.1584 172.384 43.394 172.674 43.394C172.963 43.394 173.198 43.1584 173.198 42.8683C173.198 41.7085 174.139 40.7654 175.296 40.7654C176.453 40.7654 177.394 41.7085 177.394 42.8683C177.394 43.1584 177.629 43.394 177.918 43.394C178.208 43.394 178.443 43.1584 178.443 42.8683C178.443 41.298 177.291 39.9963 175.791 39.7571Z" fill="#ABCADD"/>
<defs>
<linearGradient id="paint0_linear" x1="223.697" y1="160.998" x2="223.697" y2="51.7036" gradientUnits="userSpaceOnUse">
<stop stop-color="#808080" stop-opacity="0.25"/>
<stop offset="0.54" stop-color="#808080" stop-opacity="0.12"/>
<stop offset="1" stop-color="#808080" stop-opacity="0.1"/>
</linearGradient>
</defs>
</svg>
