<svg width="194" height="193" viewBox="0 0 194 193" fill="none" xmlns="http://www.w3.org/2000/svg">
<g opacity="0.9">
<rect width="194" height="193" fill="#D8A4E0"/>
</g>
<path fill-rule="evenodd" clip-rule="evenodd" d="M0 130L8.08333 133C16.1667 136 32.3333 142 48.5 140.5C64.6667 139 80.8333 130 97 131.5C113.167 133 129.333 145 145.5 145C161.667 145 177.833 133 185.917 127L194 121V193H185.917C177.833 193 161.667 193 145.5 193C129.333 193 113.167 193 97 193C80.8333 193 64.6667 193 48.5 193C32.3333 193 16.1667 193 8.08333 193H0V130Z" fill="white"/>
<path d="M180.686 90.2937L178.985 90.7956L178.443 90.4503L179.021 90.2796C179.08 90.2624 179.115 90.1956 179.099 90.131C179.083 90.0664 179.023 90.0275 178.964 90.045L178.173 90.2786L177.632 89.9343L178.174 89.5895L178.964 89.8233C178.974 89.8262 178.984 89.8275 178.993 89.8275C179.042 89.8275 179.086 89.7918 179.099 89.7374C179.115 89.6725 179.08 89.606 179.021 89.5888L178.443 89.4178L178.986 89.0725L180.686 89.5749C180.695 89.5778 180.705 89.579 180.714 89.579C180.763 89.579 180.807 89.5433 180.82 89.4889C180.836 89.4241 180.801 89.3576 180.742 89.3403L179.255 88.9008L179.92 88.4778L180.568 88.6699C180.578 88.6728 180.588 88.674 180.597 88.674C180.646 88.674 180.69 88.6383 180.703 88.5839C180.719 88.5191 180.684 88.4525 180.625 88.4353L180.189 88.3061L180.673 87.998C180.725 87.9645 180.743 87.8901 180.713 87.8321C180.683 87.7738 180.616 87.7542 180.563 87.7877L180.08 88.0956L180.196 87.615C180.212 87.5502 180.177 87.4836 180.118 87.4664C180.059 87.4497 179.999 87.4875 179.983 87.5524L179.809 88.268L179.145 88.6912L179.544 87.0509C179.559 86.9861 179.525 86.9195 179.466 86.9023C179.406 86.8853 179.347 86.9232 179.331 86.9883L178.876 88.8632L178.333 89.2087L178.488 88.571C178.504 88.5062 178.469 88.4397 178.41 88.4224C178.351 88.4054 178.292 88.4436 178.275 88.5084L178.063 89.3806L177.522 89.7245V89.0349L178.101 88.396C178.144 88.3486 178.144 88.2716 178.101 88.2243C178.059 88.1769 177.989 88.1769 177.946 88.2243L177.522 88.6915V88.0001L178.766 86.6274C178.809 86.5801 178.809 86.5031 178.766 86.4557C178.724 86.4084 178.654 86.4084 178.611 86.4557L177.522 87.6568V86.8108L177.997 86.2867C178.04 86.2394 178.04 86.1624 177.997 86.115C177.955 86.0677 177.885 86.0677 177.842 86.115L177.522 86.4674V85.8513C177.522 85.7843 177.473 85.7299 177.412 85.7299C177.352 85.7299 177.302 85.7843 177.302 85.8513V86.4672L176.983 86.1148C176.94 86.0675 176.87 86.0675 176.827 86.1148C176.784 86.1622 176.784 86.2391 176.827 86.2865L177.302 86.8105V87.6565L176.214 86.4555C176.171 86.4081 176.101 86.4081 176.058 86.4555C176.015 86.5029 176.015 86.5798 176.058 86.6272L177.302 87.9999V88.6912L176.879 88.224C176.836 88.1767 176.766 88.1767 176.723 88.224C176.681 88.2714 176.681 88.3484 176.723 88.3957L177.302 89.0346V89.724L176.761 89.3792L176.549 88.5069C176.533 88.4421 176.473 88.404 176.414 88.421C176.355 88.4382 176.321 88.505 176.336 88.5696L176.491 89.2073L175.948 88.8617L175.493 86.9868C175.478 86.922 175.418 86.8839 175.358 86.9009C175.3 86.9181 175.265 86.9849 175.28 87.0495L175.679 88.6898L175.014 88.2665L174.841 87.5509C174.826 87.4858 174.766 87.448 174.707 87.4649C174.648 87.4822 174.613 87.549 174.628 87.6136L174.745 88.0946L174.262 87.7867C174.21 87.7537 174.142 87.7731 174.112 87.8311C174.081 87.8892 174.099 87.9635 174.152 87.997L174.636 88.3051L174.199 88.4343C174.14 88.4516 174.106 88.5184 174.121 88.5829C174.134 88.6373 174.179 88.673 174.227 88.673C174.237 88.673 174.246 88.6718 174.256 88.6689L174.905 88.4768L175.569 88.8998L174.082 89.3394C174.023 89.3566 173.988 89.4234 174.004 89.488C174.018 89.5424 174.062 89.5781 174.11 89.5781C174.12 89.5781 174.129 89.5769 174.139 89.5739L175.839 89.0715L176.381 89.4168L175.803 89.5878C175.744 89.605 175.709 89.6718 175.725 89.7364C175.738 89.7908 175.783 89.8265 175.831 89.8265C175.84 89.8265 175.85 89.8253 175.86 89.8224L176.65 89.5885L177.192 89.9333L176.651 90.2781L175.859 90.0445C175.801 90.0271 175.741 90.0657 175.725 90.1305C175.709 90.1953 175.744 90.2619 175.803 90.2786L176.381 90.4498L175.838 90.7951L174.138 90.2932C174.081 90.2764 174.02 90.3141 174.004 90.3792C173.988 90.4442 174.023 90.5105 174.082 90.5273L175.569 90.9673L174.904 91.3903L174.256 91.1987C174.197 91.1812 174.137 91.2196 174.121 91.2847C174.106 91.3498 174.14 91.4161 174.199 91.4331L174.635 91.562L174.151 91.8704C174.099 91.9041 174.081 91.978 174.111 92.0365C174.132 92.0753 174.169 92.0972 174.206 92.0972C174.225 92.0972 174.244 92.0921 174.261 92.0812L174.745 91.7728L174.628 92.2536C174.613 92.3187 174.648 92.385 174.706 92.4019C174.716 92.4049 174.725 92.4063 174.734 92.4063C174.783 92.4063 174.828 92.3709 174.841 92.3162L175.014 91.6006L175.679 91.1781L175.28 92.8182C175.265 92.8835 175.299 92.9495 175.358 92.9665C175.367 92.9699 175.377 92.9709 175.386 92.9709C175.435 92.9709 175.48 92.9355 175.492 92.8808L175.947 91.0059L176.49 90.6601L176.335 91.298C176.32 91.3631 176.355 91.4294 176.413 91.4464C176.423 91.4493 176.432 91.4508 176.441 91.4508C176.49 91.4508 176.535 91.4153 176.548 91.3607L176.76 90.4884L177.301 90.1436V90.8328L176.722 91.4717C176.679 91.5188 176.679 91.596 176.722 91.6433C176.765 91.6905 176.835 91.6905 176.878 91.6433L177.301 91.1776V91.8687L176.057 93.2417C176.014 93.2888 176.014 93.366 176.057 93.4133C176.1 93.4605 176.17 93.4605 176.213 93.4133L177.301 92.2121V93.0581L176.826 93.5819C176.784 93.629 176.784 93.7064 176.826 93.7535C176.869 93.8007 176.939 93.8007 176.982 93.7535L177.301 93.4012V94.0173C177.301 94.0838 177.351 94.1387 177.412 94.1387C177.472 94.1387 177.522 94.0838 177.522 94.0173V93.4012L177.841 93.7535C177.863 93.7776 177.891 93.789 177.919 93.789C177.947 93.789 177.975 93.7771 177.997 93.7535C178.039 93.7064 178.039 93.629 177.997 93.5819L177.522 93.0581V92.2121L178.61 93.4133C178.632 93.4371 178.66 93.4488 178.688 93.4488C178.716 93.4488 178.744 93.4367 178.766 93.4133C178.809 93.366 178.809 93.2888 178.766 93.2417L177.522 91.8687V91.1776L177.945 91.6448C177.967 91.6686 177.995 91.6803 178.023 91.6803C178.051 91.6803 178.08 91.6684 178.101 91.6448C178.144 91.5975 178.144 91.5205 178.101 91.4731L177.522 90.8342V90.1446L178.063 90.4894L178.275 91.3617C178.288 91.4163 178.333 91.4518 178.381 91.4518C178.39 91.4518 178.4 91.4508 178.41 91.4476C178.469 91.4304 178.503 91.3634 178.487 91.299L178.333 90.6616L178.875 91.0069L179.33 92.8823C179.343 92.9364 179.388 92.9719 179.436 92.9719C179.446 92.9719 179.455 92.9709 179.465 92.968C179.524 92.9505 179.559 92.8837 179.543 92.8191L179.144 91.1786L179.809 91.6021L179.983 92.3174C179.996 92.3718 180.04 92.4075 180.089 92.4075C180.098 92.4075 180.108 92.4061 180.117 92.4029C180.176 92.3862 180.211 92.3189 180.195 92.2548L180.079 91.7737L180.562 92.0821C180.579 92.0931 180.598 92.0982 180.617 92.0982C180.655 92.0982 180.692 92.0768 180.713 92.0375C180.743 91.9797 180.725 91.9051 180.672 91.8716L180.189 91.563L180.625 91.434C180.684 91.4173 180.718 91.35 180.702 91.2859C180.687 91.2206 180.627 91.1825 180.568 91.1999L179.919 91.392L179.254 90.9685L180.742 90.5292C180.801 90.5118 180.836 90.445 180.82 90.3804C180.805 90.3151 180.744 90.2769 180.686 90.2937Z" fill="white"/>
<path d="M156.686 48.9068L154.985 49.4088L154.443 49.0635L155.021 48.8928C155.08 48.8755 155.115 48.8087 155.099 48.7442C155.083 48.6796 155.023 48.6407 154.964 48.6582L154.173 48.8918L153.632 48.5475L154.174 48.2026L154.964 48.4365C154.974 48.4394 154.984 48.4406 154.993 48.4406C155.042 48.4406 155.086 48.4049 155.099 48.3505C155.115 48.2857 155.08 48.2192 155.021 48.2019L154.443 48.031L154.986 47.6857L156.686 48.1881C156.695 48.191 156.705 48.1922 156.714 48.1922C156.763 48.1922 156.807 48.1565 156.82 48.1021C156.836 48.0373 156.801 47.9707 156.742 47.9535L155.255 47.514L155.92 47.091L156.568 47.283C156.578 47.286 156.588 47.2872 156.597 47.2872C156.646 47.2872 156.69 47.2515 156.703 47.1971C156.719 47.1322 156.684 47.0657 156.625 47.0485L156.189 46.9193L156.673 46.6111C156.725 46.5776 156.743 46.5033 156.713 46.4453C156.683 46.387 156.616 46.3673 156.563 46.4008L156.08 46.7087L156.196 46.2282C156.212 46.1633 156.177 46.0968 156.118 46.0796C156.059 46.0628 155.999 46.1007 155.983 46.1655L155.809 46.8812L155.145 47.3044L155.544 45.6641C155.559 45.5992 155.525 45.5327 155.466 45.5155C155.406 45.4985 155.347 45.5364 155.331 45.6014L154.876 47.4763L154.333 47.8219L154.488 47.1842C154.504 47.1194 154.469 47.0528 154.41 47.0356C154.351 47.0186 154.292 47.0567 154.275 47.1216L154.063 47.9938L153.522 48.3377V47.648L154.101 47.0091C154.144 46.9618 154.144 46.8848 154.101 46.8374C154.059 46.7901 153.989 46.7901 153.946 46.8374L153.522 47.3046V46.6133L154.766 45.2406C154.809 45.1932 154.809 45.1163 154.766 45.0689C154.724 45.0215 154.654 45.0215 154.611 45.0689L153.522 46.2699V45.4239L153.997 44.8999C154.04 44.8525 154.04 44.7756 153.997 44.7282C153.955 44.6809 153.885 44.6809 153.842 44.7282L153.522 45.0806V44.4645C153.522 44.3975 153.473 44.3431 153.412 44.3431C153.352 44.3431 153.302 44.3975 153.302 44.4645V45.0803L152.983 44.728C152.94 44.6806 152.87 44.6806 152.827 44.728C152.784 44.7753 152.784 44.8523 152.827 44.8996L153.302 45.4237V46.2697L152.214 45.0687C152.171 45.0213 152.101 45.0213 152.058 45.0687C152.015 45.116 152.015 45.193 152.058 45.2403L153.302 46.6131V47.3044L152.879 46.8372C152.836 46.7898 152.766 46.7898 152.723 46.8372C152.681 46.8846 152.681 46.9615 152.723 47.0089L153.302 47.6478V48.3372L152.761 47.9923L152.549 47.1201C152.533 47.0553 152.473 47.0171 152.414 47.0341C152.355 47.0514 152.321 47.1182 152.336 47.1827L152.491 47.8204L151.948 47.4749L151.493 45.6C151.478 45.5351 151.418 45.497 151.358 45.514C151.3 45.5313 151.265 45.598 151.28 45.6626L151.679 47.3029L151.014 46.8797L150.841 46.1641C150.826 46.099 150.766 46.0611 150.707 46.0781C150.648 46.0953 150.613 46.1621 150.628 46.2267L150.745 46.7078L150.262 46.3999C150.21 46.3668 150.142 46.3863 150.112 46.4443C150.081 46.5023 150.099 46.5766 150.152 46.6102L150.636 46.9183L150.199 47.0475C150.14 47.0647 150.106 47.1315 150.121 47.1961C150.134 47.2505 150.179 47.2862 150.227 47.2862C150.237 47.2862 150.246 47.285 150.256 47.2821L150.905 47.09L151.569 47.513L150.082 47.9525C150.023 47.9698 149.988 48.0365 150.004 48.1011C150.018 48.1555 150.062 48.1912 150.11 48.1912C150.12 48.1912 150.129 48.19 150.139 48.1871L151.839 47.6847L152.381 48.03L151.803 48.2009C151.744 48.2182 151.709 48.285 151.725 48.3496C151.738 48.4039 151.783 48.4396 151.831 48.4396C151.84 48.4396 151.85 48.4384 151.86 48.4355L152.65 48.2017L153.192 48.5465L152.651 48.8913L151.859 48.6577C151.801 48.6402 151.741 48.6788 151.725 48.7437C151.709 48.8085 151.744 48.875 151.803 48.8918L152.381 49.063L151.838 49.4083L150.138 48.9064C150.081 48.8896 150.02 48.9272 150.004 48.9923C149.988 49.0574 150.023 49.1237 150.082 49.1405L151.569 49.5805L150.904 50.0035L150.256 49.8119C150.197 49.7944 150.137 49.8328 150.121 49.8978C150.106 49.9629 150.14 50.0292 150.199 50.0462L150.635 50.1752L150.151 50.4836C150.099 50.5173 150.081 50.5911 150.111 50.6496C150.132 50.6885 150.169 50.7104 150.206 50.7104C150.225 50.7104 150.244 50.7053 150.261 50.6943L150.745 50.3859L150.628 50.8667C150.613 50.9318 150.648 50.9981 150.706 51.0151C150.716 51.018 150.725 51.0195 150.734 51.0195C150.783 51.0195 150.828 50.984 150.841 50.9294L151.014 50.2138L151.679 49.7912L151.28 51.4313C151.265 51.4966 151.299 51.5627 151.358 51.5797C151.367 51.5831 151.377 51.5841 151.386 51.5841C151.435 51.5841 151.48 51.5486 151.492 51.494L151.947 49.6191L152.49 49.2733L152.335 49.9112C152.32 49.9763 152.355 50.0426 152.413 50.0596C152.423 50.0625 152.432 50.0639 152.441 50.0639C152.49 50.0639 152.535 50.0285 152.548 49.9738L152.76 49.1016L153.301 48.7568V49.4459L152.722 50.0848C152.679 50.1319 152.679 50.2092 152.722 50.2565C152.765 50.3036 152.835 50.3036 152.878 50.2565L153.301 49.7908V50.4819L152.057 51.8548C152.014 51.9019 152.014 51.9791 152.057 52.0265C152.1 52.0736 152.17 52.0736 152.213 52.0265L153.301 50.8252V51.6712L152.826 52.195C152.784 52.2421 152.784 52.3196 152.826 52.3667C152.869 52.4138 152.939 52.4138 152.982 52.3667L153.301 52.0144V52.6304C153.301 52.697 153.351 52.7518 153.412 52.7518C153.472 52.7518 153.522 52.697 153.522 52.6304V52.0144L153.841 52.3667C153.863 52.3907 153.891 52.4022 153.919 52.4022C153.947 52.4022 153.975 52.3903 153.997 52.3667C154.039 52.3196 154.039 52.2421 153.997 52.195L153.522 51.6712V50.8252L154.61 52.0265C154.632 52.0503 154.66 52.062 154.688 52.062C154.716 52.062 154.744 52.0498 154.766 52.0265C154.809 51.9791 154.809 51.9019 154.766 51.8548L153.522 50.4819V49.7908L153.945 50.258C153.967 50.2818 153.995 50.2934 154.023 50.2934C154.051 50.2934 154.08 50.2815 154.101 50.258C154.144 50.2106 154.144 50.1336 154.101 50.0863L153.522 49.4474V48.7578L154.063 49.1026L154.275 49.9748C154.288 50.0295 154.333 50.0649 154.381 50.0649C154.39 50.0649 154.4 50.0639 154.41 50.0608C154.469 50.0435 154.503 49.9765 154.487 49.9122L154.333 49.2747L154.875 49.62L155.33 51.4954C155.343 51.5496 155.388 51.585 155.436 51.585C155.446 51.585 155.455 51.5841 155.465 51.5811C155.524 51.5637 155.559 51.4969 155.543 51.4323L155.144 49.7917L155.809 50.2152L155.983 50.9306C155.996 50.985 156.04 51.0207 156.089 51.0207C156.098 51.0207 156.108 51.0192 156.117 51.0161C156.176 50.9993 156.211 50.9321 156.195 50.868L156.079 50.3869L156.562 50.6953C156.579 50.7062 156.598 50.7113 156.617 50.7113C156.655 50.7113 156.692 50.69 156.713 50.6506C156.743 50.5928 156.725 50.5183 156.672 50.4848L156.189 50.1761L156.625 50.0472C156.684 50.0304 156.718 49.9632 156.702 49.8991C156.687 49.8337 156.627 49.7956 156.568 49.8131L155.919 50.0052L155.254 49.5817L156.742 49.1424C156.801 49.1249 156.836 49.0581 156.82 48.9935C156.805 48.9282 156.744 48.8901 156.686 48.9068Z" fill="white"/>
<path d="M24.9226 80.8664C24.8972 80.2236 24.8794 79.579 24.8794 78.9295C24.8794 55.4365 41.8497 36.3226 62.7114 36.3226C83.573 36.3226 100.543 55.4349 100.543 78.9295C100.543 79.579 100.525 80.2236 100.5 80.8664H107.38C107.397 80.2219 107.42 79.579 107.42 78.9295C107.42 51.1196 87.4031 28.5767 62.7099 28.5767C38.0166 28.5767 18 51.1196 18 78.9295C18 79.579 18.0224 80.2219 18.0432 80.8664H24.9226Z" fill="#7E79B6"/>
<path d="M31.8437 80.8662C31.8124 80.2217 31.7572 79.5839 31.7572 78.9293C31.7572 59.708 45.6426 44.0701 62.7099 44.0701C79.7771 44.0701 93.6625 59.7097 93.6625 78.9293C93.6625 79.5822 93.6074 80.2217 93.5761 80.8662H100.499C100.524 80.2234 100.542 79.5789 100.542 78.9293C100.542 55.4364 83.5715 36.3224 62.7099 36.3224C41.8482 36.3224 24.8779 55.4364 24.8779 78.9293C24.8779 79.5789 24.8958 80.2234 24.9211 80.8662H31.8437Z" fill="#DFE247"/>
<path d="M38.723 80.8662C38.6828 80.2234 38.6366 79.5839 38.6366 78.9293C38.6366 63.9796 49.4355 51.816 62.7114 51.816C75.9872 51.816 86.7861 63.9779 86.7861 78.9293C86.7861 79.5823 86.7399 80.2234 86.6997 80.8662H93.5776C93.6089 80.2217 93.664 79.5839 93.664 78.9293C93.664 59.708 79.7786 44.0701 62.7114 44.0701C45.6441 44.0701 31.7572 59.708 31.7572 78.9293C31.7572 79.5823 31.8124 80.2217 31.8437 80.8662H38.723Z" fill="#71C285"/>
<path d="M45.6009 80.8663C45.5443 80.2285 45.5145 79.5839 45.5145 78.9294C45.5145 68.2512 53.2284 59.5637 62.7099 59.5637C72.1914 59.5637 79.9053 68.2529 79.9053 78.9294C79.9053 79.5823 79.874 80.2285 79.8189 80.8663H86.6968C86.737 80.2234 86.7832 79.5839 86.7832 78.9294C86.7832 63.9796 75.9843 51.816 62.7084 51.816C49.4326 51.816 38.6336 63.9779 38.6336 78.9294C38.6336 79.5823 38.6798 80.2234 38.7201 80.8663H45.6009Z" fill="#C57979"/>
<path d="M56.1963 70.859H56.1353C56.1616 71.0267 56.1797 71.196 56.1797 71.3692C56.1797 71.6743 55.8429 71.9209 55.4262 71.9209C55.0095 71.9209 54.6726 71.6743 54.6726 71.3692C54.6726 69.5438 52.6449 68.0593 50.1514 68.0593C47.6579 68.0593 45.6301 69.5438 45.6301 71.3692C45.6301 71.6743 45.2933 71.9209 44.8766 71.9209C44.4598 71.9209 44.123 71.6743 44.123 71.3692C44.123 69.1273 46.4206 67.2743 49.3813 66.9963C49.2109 64.2165 46.0777 61.9911 42.2392 61.9911C38.3878 61.9911 35.2455 64.2309 35.0948 67.0239C35.7195 67.132 36.3246 67.3107 36.8867 67.565C38.2552 68.1857 39.2122 69.1593 39.5814 70.3068C39.6763 70.6035 39.4254 70.9003 39.0208 70.9704C38.6154 71.0371 38.2099 70.8562 38.1142 70.56C37.5431 68.7825 35.1008 67.677 32.6782 68.0957C30.251 68.5139 28.7409 70.299 29.3121 72.0759C29.407 72.3721 29.1561 72.6689 28.7507 72.739C28.6934 72.7489 28.6354 72.7533 28.5781 72.7533C28.2368 72.7533 27.9271 72.5818 27.8449 72.328C27.6234 71.6379 27.643 70.9478 27.854 70.3012C26.3032 70.1352 24.7366 70.5638 23.7148 71.4718C22.7668 72.3153 22.4902 73.4015 22.8293 74.3873C22.8301 74.394 22.8346 74.3995 22.8354 74.4061C23.066 75.0603 23.5663 75.6694 24.3312 76.1311C24.6522 76.3253 24.6981 76.6723 24.4344 76.9078C24.2852 77.0402 24.0697 77.1086 23.8519 77.1086C23.6831 77.1086 23.5143 77.0678 23.3734 76.9829C22.4563 76.4301 21.8 75.708 21.4549 74.8971C18.4083 74.3156 15.205 75.254 13.5502 77.2482C12.5578 78.4442 12.2601 79.852 12.7138 81.2118C13.1674 82.5722 14.3165 83.7213 15.951 84.4484C16.3067 84.6067 16.4197 84.9454 16.2034 85.2063C16.0618 85.3773 15.8131 85.4711 15.5591 85.4711C15.4589 85.4711 15.3595 85.4513 15.2638 85.4209C16.4544 85.9373 17.8251 86.2534 19.2907 86.2997L25.4765 86.3014C29.4756 86.2545 32.9012 84.4478 34.3616 81.8926C35.8408 84.4815 39.3372 86.3058 43.4041 86.3058C50.4679 86.3058 56.2144 82.0989 56.2144 76.9277V71.4112L56.1963 70.859Z" fill="#D0E8F9"/>
<path d="M50.8884 67.0338C50.7143 63.6473 46.9066 60.9293 42.2392 60.9293C37.6109 60.9293 33.8296 63.6015 33.596 66.9478C33.1755 66.9544 32.7528 66.9908 32.3331 67.0631C30.5728 67.3665 29.1795 68.2116 28.3928 69.2984C26.2211 68.9757 23.986 69.5372 22.5528 70.811C21.6101 71.6495 21.1369 72.691 21.1889 73.7673C17.7 73.3072 14.1508 74.4425 12.2639 76.7153C11.0612 78.1634 10.7018 79.8675 11.2504 81.5136C11.799 83.1597 13.1908 84.551 15.1688 85.4315C15.2909 85.4861 15.4265 85.512 15.5599 85.512C15.8146 85.512 16.0625 85.4177 16.2042 85.2472C16.4205 84.9863 16.3074 84.6476 15.9518 84.4892C14.3173 83.7622 13.1682 82.6131 12.7145 81.2527C12.2609 79.8929 12.5585 78.485 13.551 77.2891C15.2057 75.2954 18.4091 74.357 21.4556 74.9379C21.8008 75.7494 22.4579 76.471 23.3742 77.0237C23.5151 77.1081 23.6839 77.1495 23.8527 77.1495C24.0704 77.1495 24.286 77.0811 24.4352 76.9487C24.6997 76.7131 24.6529 76.3656 24.3319 76.172C23.5663 75.7108 23.0667 75.1012 22.8361 74.447C22.8354 74.4403 22.8309 74.4348 22.8301 74.4282C22.491 73.4424 22.7676 72.3562 23.7155 71.5127C24.7373 70.6047 26.304 70.1761 27.8547 70.3421C27.6438 70.9892 27.6234 71.6788 27.8457 72.3689C27.9271 72.6232 28.2376 72.7942 28.5789 72.7942C28.6362 72.7942 28.6942 72.7892 28.7515 72.7799C29.1569 72.7098 29.4078 72.413 29.3129 72.1168C28.7417 70.3399 30.2518 68.5548 32.6789 68.1366C35.1016 67.7179 37.5438 68.8234 38.115 70.6008C38.2107 70.8971 38.6161 71.078 39.0215 71.0113C39.4262 70.9412 39.6771 70.6444 39.5822 70.3476C39.2129 69.2002 38.2559 68.2265 36.8875 67.6059C36.3253 67.351 35.7203 67.1729 35.0956 67.0647C35.2463 64.2717 38.3886 62.032 42.2399 62.032C46.0785 62.032 49.2125 64.2568 49.382 67.0372C46.4213 67.3152 44.1238 69.1682 44.1238 71.4101C44.1238 71.7152 44.4606 71.9618 44.8773 71.9618C45.294 71.9618 45.6309 71.7152 45.6309 71.4101C45.6309 69.5847 47.6587 68.1002 50.1521 68.1002C52.6456 68.1002 54.7081 69.5847 54.7081 71.4101C54.7081 71.4256 54.7081 72.1421 54.7081 73.0651C54.7081 73.3696 55.0457 73.6167 55.4616 73.6167C55.8776 73.6167 56.2152 73.3696 56.2152 73.0651V71.4101C56.2144 69.1605 53.8656 67.3014 50.8884 67.0338Z" fill="#ABCADD"/>
<path d="M43.4041 86.3053C39.6568 86.3053 36.2522 84.8666 34.3616 82.5601C32.4709 84.8666 29.0664 86.3053 25.3191 86.3053C24.9031 86.3053 24.5655 86.0587 24.5655 85.7536C24.5655 85.4486 24.9031 85.202 25.3191 85.202C28.976 85.202 32.2524 83.6027 33.6668 81.1275L34.3616 79.9105L35.0564 81.1275C36.47 83.6022 39.7472 85.202 43.4041 85.202C43.8201 85.202 44.1577 85.4486 44.1577 85.7536C44.1577 86.0587 43.8208 86.3053 43.4041 86.3053Z" fill="#ABCADD"/>
<path d="M52.3691 78.5131C52.024 76.3181 49.4732 74.6063 46.3837 74.6063C43.0598 74.6063 40.3553 76.5862 40.3553 79.0195C40.3553 79.3241 40.6929 79.5712 41.1089 79.5712C41.5248 79.5712 41.8624 79.3241 41.8624 79.0195C41.8624 77.1941 43.8902 75.7096 46.3837 75.7096C48.6466 75.7096 50.5206 76.9337 50.8484 78.5242C48.7408 78.8049 47.1372 80.1554 47.1372 81.7778C47.1372 82.0823 47.4748 82.3295 47.8908 82.3295C48.3067 82.3295 48.6443 82.0823 48.6443 81.7778C48.6443 80.5609 49.9962 79.5712 51.6585 79.5712C53.3208 79.5712 54.6727 80.5609 54.6727 81.7778C54.6727 82.0823 55.0103 82.3295 55.4262 82.3295C55.8422 82.3295 56.1798 82.0823 56.1798 81.7778C56.1798 80.13 54.525 78.7641 52.3691 78.5131Z" fill="#ABCADD"/>
<path d="M38.3874 110.462L36.6868 110.963L36.1447 110.618L36.7229 110.447C36.7821 110.43 36.8167 110.363 36.8008 110.299C36.785 110.234 36.7249 110.195 36.6661 110.213L35.875 110.446L35.334 110.102L35.8755 109.757L36.6661 109.991C36.6758 109.994 36.6853 109.995 36.6947 109.995C36.7434 109.995 36.7881 109.96 36.801 109.905C36.8165 109.84 36.7819 109.774 36.7231 109.757L36.1449 109.586L36.6875 109.24L38.3876 109.743C38.3971 109.746 38.4066 109.747 38.416 109.747C38.4647 109.747 38.5091 109.711 38.5219 109.657C38.5378 109.592 38.503 109.525 38.444 109.508L36.9567 109.069L37.6212 108.646L38.2701 108.838C38.2798 108.841 38.2892 108.842 38.2987 108.842C38.3474 108.842 38.392 108.806 38.405 108.752C38.4204 108.687 38.3859 108.62 38.3271 108.603L37.8908 108.474L38.3744 108.166C38.4268 108.132 38.4449 108.058 38.4149 108C38.3843 107.942 38.3172 107.922 38.2644 107.956L37.7812 108.263L37.8977 107.783C37.9135 107.718 37.8787 107.651 37.8197 107.634C37.7605 107.617 37.7007 107.655 37.6848 107.72L37.5111 108.436L36.8468 108.859L37.2455 107.219C37.2611 107.154 37.2265 107.087 37.1675 107.07C37.1079 107.053 37.0485 107.091 37.0326 107.156L36.5774 109.031L36.0348 109.377L36.19 108.739C36.2054 108.674 36.1706 108.608 36.1121 108.59C36.0524 108.573 35.9932 108.611 35.9772 108.676L35.7652 109.548L35.2241 109.892V109.203L35.803 108.564C35.846 108.516 35.846 108.439 35.803 108.392C35.7603 108.345 35.6903 108.345 35.6474 108.392L35.2241 108.859V108.168L36.468 106.795C36.5109 106.748 36.5109 106.671 36.468 106.624C36.4253 106.576 36.3553 106.576 36.3124 106.624L35.2241 107.825V106.979L35.6991 106.455C35.7418 106.407 35.7418 106.33 35.6991 106.283C35.6562 106.236 35.5862 106.236 35.5435 106.283L35.2241 106.635V106.019C35.2241 105.952 35.1744 105.898 35.1141 105.898C35.0535 105.898 35.004 105.952 35.004 106.019V106.635L34.6844 106.283C34.6415 106.235 34.5717 106.235 34.5288 106.283C34.4859 106.33 34.4859 106.407 34.5288 106.454L35.0038 106.978V107.824L33.9156 106.623C33.8726 106.576 33.8029 106.576 33.7599 106.623C33.717 106.671 33.717 106.748 33.7599 106.795L35.004 108.168V108.859L34.5807 108.392C34.5378 108.345 34.4676 108.345 34.4251 108.392C34.3822 108.439 34.3822 108.516 34.4251 108.564L35.004 109.202V109.892L34.4628 109.547L34.2508 108.675C34.2349 108.61 34.1748 108.572 34.1159 108.589C34.0571 108.606 34.0223 108.673 34.0379 108.737L34.1927 109.375L33.6501 109.03L33.1951 107.155C33.1793 107.09 33.1194 107.052 33.0602 107.069C33.0012 107.086 32.9666 107.153 32.982 107.217L33.3809 108.858L32.7161 108.434L32.5427 107.719C32.5273 107.654 32.4674 107.616 32.4082 107.633C32.3492 107.65 32.3147 107.717 32.3301 107.781L32.4469 108.262L31.9638 107.955C31.9116 107.922 31.8438 107.941 31.8135 107.999C31.7829 108.057 31.8009 108.131 31.8537 108.165L32.3373 108.473L31.9006 108.602C31.8418 108.619 31.8073 108.686 31.8227 108.751C31.8361 108.805 31.8808 108.841 31.9286 108.841C31.9385 108.841 31.9479 108.84 31.9576 108.837L32.6065 108.645L33.2711 109.068L31.7837 109.507C31.7243 109.524 31.6895 109.591 31.7058 109.656C31.7192 109.71 31.7635 109.746 31.8119 109.746C31.8214 109.746 31.8308 109.745 31.8403 109.742L33.5405 109.239L34.0826 109.585L33.5044 109.756C33.4456 109.773 33.411 109.84 33.4265 109.904C33.4399 109.959 33.4846 109.994 33.5323 109.994C33.5418 109.994 33.5513 109.993 33.5614 109.99L34.352 109.756L34.8935 110.101L34.3523 110.446L33.5607 110.212C33.5031 110.195 33.4423 110.234 33.4265 110.298C33.411 110.363 33.4456 110.43 33.5044 110.446L34.0826 110.618L33.54 110.963L31.8401 110.461C31.7826 110.444 31.7212 110.482 31.7056 110.547C31.6895 110.612 31.7245 110.678 31.7835 110.695L33.2708 111.135L32.6061 111.558L31.9576 111.367C31.8984 111.349 31.8388 111.387 31.8227 111.453C31.8073 111.518 31.8418 111.584 31.9006 111.601L32.3369 111.73L31.8531 112.038C31.8009 112.072 31.7829 112.146 31.8128 112.204C31.8333 112.243 31.8702 112.265 31.9081 112.265C31.927 112.265 31.946 112.26 31.9631 112.249L32.4467 111.941L32.3298 112.421C32.3147 112.487 32.3492 112.553 32.4078 112.57C32.4172 112.573 32.4267 112.574 32.4362 112.574C32.485 112.574 32.5293 112.539 32.5423 112.484L32.7159 111.768L33.3802 111.346L32.9814 112.986C32.9662 113.051 33.0008 113.117 33.0593 113.134C33.069 113.138 33.0785 113.139 33.0879 113.139C33.1366 113.139 33.1812 113.103 33.1938 113.049L33.649 111.174L34.1916 110.828L34.0368 111.466C34.0216 111.531 34.0562 111.597 34.1148 111.614C34.1242 111.617 34.1337 111.619 34.1432 111.619C34.192 111.619 34.2363 111.583 34.2495 111.529L34.4612 110.656L35.0025 110.311V111.001L34.4236 111.64C34.3807 111.687 34.3807 111.764 34.4236 111.811C34.4663 111.858 34.5363 111.858 34.5792 111.811L35.0031 111.345V112.037L33.7591 113.41C33.7161 113.457 33.7161 113.534 33.7591 113.581C33.802 113.628 33.8717 113.628 33.9147 113.581L35.0031 112.38V113.226L34.5281 113.75C34.4852 113.797 34.4852 113.874 34.5281 113.921C34.5711 113.969 34.6408 113.969 34.6838 113.921L35.0031 113.569V114.185C35.0031 114.252 35.0527 114.307 35.1132 114.307C35.1735 114.307 35.2233 114.252 35.2233 114.185V113.569L35.5426 113.921C35.5642 113.945 35.5924 113.957 35.6206 113.957C35.649 113.957 35.6769 113.945 35.6985 113.921C35.741 113.874 35.741 113.797 35.6985 113.75L35.2233 113.226V112.38L36.3115 113.581C36.3333 113.605 36.3615 113.617 36.3894 113.617C36.4178 113.617 36.4458 113.605 36.4673 113.581C36.5103 113.534 36.5103 113.457 36.4673 113.41L35.2235 112.037V111.345L35.6468 111.813C35.6685 111.836 35.6965 111.848 35.7247 111.848C35.7526 111.848 35.7812 111.836 35.8026 111.813C35.8455 111.765 35.8455 111.688 35.8026 111.641L35.2235 111.002V110.312L35.7647 110.657L35.9765 111.53C35.9901 111.584 36.0344 111.62 36.0826 111.62C36.0916 111.62 36.1017 111.619 36.1112 111.615C36.1702 111.598 36.205 111.531 36.1891 111.467L36.0344 110.829L36.5765 111.175L37.0317 113.05C37.0451 113.104 37.0898 113.14 37.138 113.14C37.1475 113.14 37.157 113.139 37.1667 113.136C37.2256 113.118 37.2602 113.052 37.2446 112.987L36.8457 111.346L37.5107 111.77L37.6844 112.485C37.698 112.54 37.742 112.575 37.7905 112.575C37.7997 112.575 37.8094 112.574 37.8189 112.571C37.8778 112.554 37.9126 112.487 37.8968 112.423L37.7803 111.942L38.2635 112.25C38.2811 112.261 38.3 112.266 38.3185 112.266C38.3564 112.266 38.3938 112.245 38.4143 112.205C38.4449 112.148 38.4268 112.073 38.3735 112.039L37.8904 111.731L38.3262 111.602C38.3852 111.585 38.42 111.518 38.4041 111.454C38.3883 111.388 38.3284 111.35 38.2692 111.368L37.6208 111.56L36.956 111.136L38.4433 110.697C38.5025 110.68 38.5373 110.613 38.5212 110.548C38.5063 110.483 38.446 110.445 38.3874 110.462Z" fill="white"/>
<path d="M160.403 27.0123H160.373C160.386 27.119 160.395 27.2268 160.395 27.337C160.395 27.5312 160.231 27.6881 160.028 27.6881C159.825 27.6881 159.66 27.5312 159.66 27.337C159.66 26.1754 158.672 25.2307 157.456 25.2307C156.241 25.2307 155.252 26.1754 155.252 27.337C155.252 27.5312 155.088 27.6881 154.885 27.6881C154.682 27.6881 154.518 27.5312 154.518 27.337C154.518 25.9104 155.638 24.7312 157.081 24.5543C156.998 22.7853 155.471 21.3692 153.599 21.3692C151.722 21.3692 150.19 22.7945 150.117 24.5718C150.421 24.6406 150.716 24.7544 150.99 24.9162C151.657 25.3111 152.124 25.9307 152.304 26.6609C152.35 26.8498 152.228 27.0387 152.031 27.0832C151.833 27.1257 151.635 27.0106 151.589 26.8221C151.31 25.691 150.12 24.9875 148.939 25.2539C147.756 25.52 147.019 26.656 147.298 27.7867C147.344 27.9753 147.222 28.1641 147.024 28.2087C146.996 28.215 146.968 28.2178 146.94 28.2178C146.774 28.2178 146.623 28.1087 146.583 27.9472C146.475 27.508 146.484 27.0688 146.587 26.6574C145.831 26.5517 145.067 26.8245 144.569 27.4023C144.107 27.9391 143.972 28.6303 144.138 29.2576C144.138 29.2619 144.14 29.2654 144.141 29.2696C144.253 29.6859 144.497 30.0735 144.87 30.3673C145.026 30.4909 145.049 30.7117 144.92 30.8616C144.847 30.9458 144.742 30.9894 144.636 30.9894C144.554 30.9894 144.472 30.9634 144.403 30.9093C143.956 30.5576 143.636 30.0981 143.468 29.582C141.983 29.212 140.421 29.8091 139.614 31.0782C139.131 31.8393 138.986 32.7351 139.207 33.6005C139.428 34.4662 139.988 35.1974 140.785 35.6601C140.958 35.7608 141.013 35.9764 140.908 36.1424C140.839 36.2513 140.717 36.3109 140.594 36.3109C140.545 36.3109 140.496 36.2983 140.45 36.279C141.03 36.6076 141.698 36.8087 142.413 36.8382L145.428 36.8393C147.378 36.8094 149.047 35.6597 149.759 34.0337C150.48 35.6811 152.185 36.8421 154.167 36.8421C157.611 36.8421 160.412 34.165 160.412 30.8742V27.3637L160.403 27.0123Z" fill="#D0E8F9"/>
<path d="M157.816 24.5781C157.731 22.423 155.875 20.6934 153.599 20.6934C151.343 20.6934 149.5 22.3939 149.386 24.5234C149.181 24.5276 148.975 24.5508 148.771 24.5967C147.912 24.7898 147.233 25.3276 146.85 26.0192C145.791 25.8138 144.702 26.1712 144.003 26.9818C143.543 27.5154 143.313 28.1782 143.338 28.8631C141.637 28.5703 139.907 29.2927 138.987 30.7391C138.401 31.6606 138.226 32.745 138.493 33.7925C138.761 34.84 139.439 35.7254 140.403 36.2857C140.463 36.3204 140.529 36.3369 140.594 36.3369C140.718 36.3369 140.839 36.2769 140.908 36.1684C141.014 36.0024 140.958 35.7868 140.785 35.6861C139.988 35.2234 139.428 34.4921 139.207 33.6264C138.986 32.7611 139.131 31.8652 139.615 31.1042C140.421 29.8355 141.983 29.2383 143.468 29.608C143.636 30.1244 143.957 30.5835 144.403 30.9353C144.472 30.989 144.554 31.0153 144.637 31.0153C144.743 31.0153 144.848 30.9718 144.921 30.8876C145.049 30.7377 145.027 30.5165 144.87 30.3933C144.497 30.0998 144.253 29.7119 144.141 29.2955C144.141 29.2913 144.138 29.2878 144.138 29.2836C143.973 28.6563 144.108 27.9651 144.57 27.4283C145.068 26.8505 145.832 26.5777 146.587 26.6834C146.485 27.0952 146.475 27.534 146.583 27.9731C146.623 28.135 146.774 28.2438 146.94 28.2438C146.968 28.2438 146.997 28.2406 147.025 28.2347C147.222 28.1901 147.345 28.0012 147.298 27.8127C147.02 26.682 147.756 25.546 148.939 25.2799C150.12 25.0134 151.311 25.7169 151.589 26.848C151.636 27.0365 151.833 27.1517 152.031 27.1092C152.228 27.0646 152.351 26.8758 152.304 26.6869C152.124 25.9567 151.658 25.3371 150.991 24.9422C150.717 24.78 150.422 24.6666 150.117 24.5978C150.191 22.8204 151.722 21.3952 153.6 21.3952C155.471 21.3952 156.999 22.811 157.081 24.5802C155.638 24.7572 154.518 25.9364 154.518 27.363C154.518 27.5571 154.682 27.7141 154.885 27.7141C155.089 27.7141 155.253 27.5571 155.253 27.363C155.253 26.2014 156.241 25.2567 157.457 25.2567C158.672 25.2567 159.678 26.2014 159.678 27.363C159.678 27.3728 159.678 27.8289 159.678 28.4162C159.678 28.6099 159.842 28.7672 160.045 28.7672C160.248 28.7672 160.412 28.6099 160.412 28.4162V27.363C160.412 25.9314 159.267 24.7484 157.816 24.5781Z" fill="#ABCADD"/>
<path d="M154.167 36.8417C152.341 36.8417 150.681 35.9262 149.759 34.4584C148.838 35.9262 147.178 36.8417 145.351 36.8417C145.149 36.8417 144.984 36.6848 144.984 36.4907C144.984 36.2965 145.149 36.1396 145.351 36.1396C147.134 36.1396 148.731 35.1219 149.421 33.5468L149.759 32.7723L150.098 33.5468C150.787 35.1216 152.385 36.1396 154.167 36.1396C154.37 36.1396 154.535 36.2965 154.535 36.4907C154.535 36.6848 154.37 36.8417 154.167 36.8417Z" fill="#ABCADD"/>
<path d="M158.538 31.8832C158.369 30.4863 157.126 29.397 155.62 29.397C153.999 29.397 152.681 30.657 152.681 32.2054C152.681 32.3992 152.846 32.5565 153.048 32.5565C153.251 32.5565 153.416 32.3992 153.416 32.2054C153.416 31.0438 154.404 30.0991 155.62 30.0991C156.723 30.0991 157.636 30.8781 157.796 31.8902C156.769 32.0689 155.987 32.9282 155.987 33.9607C155.987 34.1545 156.152 34.3117 156.354 34.3117C156.557 34.3117 156.722 34.1545 156.722 33.9607C156.722 33.1863 157.381 32.5565 158.191 32.5565C159.001 32.5565 159.66 33.1863 159.66 33.9607C159.66 34.1545 159.825 34.3117 160.028 34.3117C160.231 34.3117 160.395 34.1545 160.395 33.9607C160.395 32.9121 159.588 32.0429 158.538 31.8832Z" fill="#ABCADD"/>
<path d="M104.953 39.5303H104.928C104.939 39.6296 104.946 39.7298 104.946 39.8324C104.946 40.0129 104.804 40.1589 104.629 40.1589C104.453 40.1589 104.311 40.0129 104.311 39.8324C104.311 38.7519 103.457 37.8732 102.406 37.8732C101.355 37.8732 100.5 38.7519 100.5 39.8324C100.5 40.0129 100.359 40.1589 100.183 40.1589C100.007 40.1589 99.8653 40.0129 99.8653 39.8324C99.8653 38.5054 100.834 37.4086 102.081 37.244C102.01 35.5987 100.689 34.2815 99.0714 34.2815C97.4483 34.2815 96.124 35.6072 96.0605 37.2603C96.3238 37.3243 96.5788 37.4301 96.8157 37.5807C97.3924 37.948 97.7957 38.5243 97.9513 39.2035C97.9913 39.3791 97.8856 39.5548 97.7151 39.5963C97.5442 39.6358 97.3733 39.5287 97.333 39.3533C97.0923 38.3013 96.063 37.6469 95.0421 37.8948C94.0192 38.1423 93.3828 39.1989 93.6235 40.2506C93.6635 40.426 93.5577 40.6016 93.3869 40.6431C93.3627 40.649 93.3383 40.6516 93.3142 40.6516C93.1703 40.6516 93.0398 40.55 93.0052 40.3998C92.9118 39.9914 92.9201 39.5829 93.009 39.2002C92.3554 39.1019 91.6952 39.3556 91.2646 39.8931C90.8651 40.3923 90.7485 41.0353 90.8914 41.6187C90.8917 41.6227 90.8936 41.6259 90.894 41.6298C90.9911 42.0171 91.202 42.3776 91.5243 42.6509C91.6596 42.7658 91.679 42.9712 91.5678 43.1106C91.505 43.189 91.4141 43.2295 91.3224 43.2295C91.2512 43.2295 91.1801 43.2053 91.1207 43.155C90.7342 42.8279 90.4576 42.4004 90.3122 41.9205C89.0282 41.5763 87.6782 42.1317 86.9809 43.3121C86.5626 44.02 86.4372 44.8533 86.6284 45.6581C86.8195 46.4633 87.3038 47.1435 87.9926 47.5738C88.1425 47.6675 88.1902 47.868 88.099 48.0225C88.0393 48.1237 87.9345 48.1792 87.8275 48.1792C87.7853 48.1792 87.7433 48.1675 87.703 48.1495C88.2048 48.4551 88.7824 48.6422 89.4001 48.6696L92.007 48.6706C93.6924 48.6429 95.1361 47.5735 95.7515 46.0611C96.3749 47.5934 97.8484 48.6732 99.5624 48.6732C102.539 48.6732 104.961 46.1832 104.961 43.1224V39.8572L104.953 39.5303Z" fill="#D0E8F9"/>
<path d="M102.716 37.2662C102.643 35.2617 101.038 33.653 99.0714 33.653C97.1209 33.653 95.5273 35.2346 95.4289 37.2153C95.2517 37.2192 95.0735 37.2408 94.8966 37.2835C94.1548 37.4631 93.5676 37.9634 93.2361 38.6066C92.3208 38.4156 91.3789 38.748 90.7749 39.5019C90.3776 39.9982 90.1782 40.6147 90.2001 41.2517C88.7297 40.9794 87.234 41.6514 86.4388 42.9967C85.9319 43.8538 85.7805 44.8624 86.0116 45.8368C86.2428 46.8111 86.8294 47.6346 87.663 48.1557C87.7145 48.188 87.7716 48.2034 87.8278 48.2034C87.9352 48.2034 88.0397 48.1475 88.0994 48.0466C88.1905 47.8922 88.1429 47.6917 87.993 47.598C87.3042 47.1677 86.8199 46.4875 86.6287 45.6823C86.4375 44.8774 86.563 44.0442 86.9812 43.3363C87.6786 42.1562 89.0286 41.6008 90.3125 41.9446C90.458 42.4249 90.7349 42.852 91.121 43.1792C91.1804 43.2292 91.2516 43.2536 91.3227 43.2536C91.4145 43.2536 91.5053 43.2132 91.5682 43.1348C91.6796 42.9954 91.66 42.7897 91.5247 42.6751C91.202 42.4021 90.9915 42.0413 90.8943 41.654C90.894 41.6501 90.8921 41.6468 90.8918 41.6429C90.7488 41.0594 90.8654 40.4165 91.2649 39.9173C91.6955 39.3798 92.3558 39.1261 93.0093 39.2244C92.9204 39.6074 92.9118 40.0155 93.0055 40.424C93.0398 40.5745 93.1706 40.6758 93.3145 40.6758C93.3386 40.6758 93.3631 40.6728 93.3872 40.6673C93.5581 40.6258 93.6638 40.4501 93.6238 40.2748C93.3831 39.2231 94.0195 38.1665 95.0424 37.9189C96.0634 37.6711 97.0926 38.3255 97.3334 39.3775C97.3737 39.5529 97.5445 39.66 97.7154 39.6205C97.8859 39.579 97.9917 39.4033 97.9517 39.2276C97.7961 38.5485 97.3927 37.9722 96.816 37.6048C96.5791 37.454 96.3241 37.3485 96.0609 37.2845C96.1244 35.6313 97.4486 34.3057 99.0717 34.3057C100.689 34.3057 102.01 35.6225 102.082 37.2682C100.834 37.4328 99.8657 38.5295 99.8657 39.8565C99.8657 40.0371 100.008 40.183 100.183 40.183C100.359 40.183 100.501 40.0371 100.501 39.8565C100.501 38.7761 101.355 37.8974 102.406 37.8974C103.457 37.8974 104.326 38.7761 104.326 39.8565C104.326 39.8657 104.326 40.2898 104.326 40.8361C104.326 41.0163 104.469 41.1626 104.644 41.1626C104.819 41.1626 104.961 41.0163 104.961 40.8361V39.8565C104.961 38.525 103.971 37.4246 102.716 37.2662Z" fill="#ABCADD"/>
<path d="M99.5623 48.6729C97.9831 48.6729 96.5483 47.8213 95.7515 46.4562C94.9547 47.8213 93.5199 48.6729 91.9406 48.6729C91.7653 48.6729 91.6231 48.5269 91.6231 48.3464C91.6231 48.1658 91.7653 48.0199 91.9406 48.0199C93.4818 48.0199 94.8626 47.0733 95.4587 45.6082L95.7515 44.8879L96.0443 45.6082C96.6401 47.073 98.0212 48.0199 99.5623 48.0199C99.7376 48.0199 99.8799 48.1658 99.8799 48.3464C99.8799 48.5269 99.738 48.6729 99.5623 48.6729Z" fill="#ABCADD"/>
<path d="M103.341 44.0609C103.195 42.7617 102.12 41.7485 100.818 41.7485C99.4173 41.7485 98.2775 42.9204 98.2775 44.3606C98.2775 44.5409 98.4198 44.6872 98.5951 44.6872C98.7704 44.6872 98.9126 44.5409 98.9126 44.3606C98.9126 43.2802 99.7672 42.4015 100.818 42.4015C101.772 42.4015 102.562 43.1261 102.7 44.0674C101.811 44.2336 101.136 45.0329 101.136 45.9932C101.136 46.1735 101.278 46.3198 101.453 46.3198C101.628 46.3198 101.771 46.1735 101.771 45.9932C101.771 45.2729 102.34 44.6872 103.041 44.6872C103.742 44.6872 104.311 45.2729 104.311 45.9932C104.311 46.1735 104.454 46.3198 104.629 46.3198C104.804 46.3198 104.946 46.1735 104.946 45.9932C104.946 45.0179 104.249 44.2095 103.341 44.0609Z" fill="#ABCADD"/>
<path d="M143.159 30.8976C142.292 31.1607 141.632 31.7729 141.245 32.563C140.436 32.1359 139.52 32.0015 138.653 32.2646C136.787 32.8305 135.865 35.0068 136.596 37.1249C136.598 37.1331 136.601 37.1412 136.604 37.1493C136.629 37.2196 136.693 37.267 136.759 37.2629C136.825 37.259 136.874 37.2048 136.877 37.1328C136.94 35.6988 137.956 34.7673 139.368 34.3389C140.235 34.0759 141.152 34.2103 141.96 34.6374C142.348 33.8475 143.007 33.2349 143.874 32.9717C145.286 32.543 146.69 32.7407 147.637 33.8677C147.685 33.9243 147.758 33.9412 147.814 33.9084C147.87 33.8757 147.892 33.802 147.869 33.7315C147.866 33.7233 147.863 33.7155 147.861 33.7076C147.13 31.5891 145.024 30.3314 143.159 30.8976Z" fill="#3E0735"/>
<path d="M149.166 76.7741C148.263 77.5364 144.54 77.7038 144.54 77.7038C144.54 77.7038 146.055 73.4484 146.957 72.685C147.391 72.3327 147.918 72.2073 148.425 72.336C148.932 72.4647 149.378 72.8372 149.668 73.3732C149.957 73.9092 150.067 74.5659 149.973 75.202C149.879 75.838 149.589 76.4026 149.166 76.7741Z" fill="#6C63FF"/>
<path d="M140.095 79.897C140.942 80.753 144.639 81.3181 144.639 81.3181C144.639 81.3181 143.422 76.9117 142.574 76.0591C142.166 75.6632 141.65 75.4832 141.137 75.5578C140.624 75.6324 140.155 75.9557 139.83 76.4581C139.506 76.9605 139.351 77.6021 139.401 78.2451C139.45 78.8881 139.699 79.4812 140.095 79.897V79.897Z" fill="#6C63FF"/>
<path d="M149.166 76.7741C148.263 77.5364 144.54 77.7038 144.54 77.7038C144.54 77.7038 146.055 73.4484 146.957 72.685C147.391 72.3327 147.918 72.2073 148.425 72.336C148.932 72.4647 149.378 72.8372 149.668 73.3732C149.957 73.9092 150.067 74.5659 149.973 75.202C149.879 75.838 149.589 76.4026 149.166 76.7741Z" fill="#FC6681"/>
<path d="M140.095 79.897C140.942 80.753 144.639 81.3181 144.639 81.3181C144.639 81.3181 143.422 76.9117 142.574 76.0591C142.166 75.6632 141.65 75.4832 141.137 75.5578C140.624 75.6324 140.155 75.9557 139.83 76.4581C139.506 76.9605 139.351 77.6021 139.401 78.2451C139.45 78.8881 139.699 79.4812 140.095 79.897V79.897Z" fill="#FC6681"/>
<path d="M161 115.129L153.283 72.6652H150.416C150.301 71.0426 150.225 69.4706 150.195 67.9901C150.195 67.9901 139.801 70.8344 131.513 62.6055C123.224 54.3767 113.479 63.3172 113.479 63.3172L113.441 63.283V63.2665V63.2874C112.764 62.6882 103.429 54.6874 95.4478 62.6122C87.1625 70.841 76.7649 67.9967 76.7649 67.9967C76.7358 69.4959 76.6583 71.0811 76.5412 72.7192H73.881L66 115.282C66 115.282 98.0366 116.782 109.263 115.399C109.666 116.463 111.401 117.263 113.48 117.263C115.816 117.263 117.716 116.253 117.782 114.994C126.521 115.825 145.325 117.155 161 115.129Z" fill="url(#paint0_linear)"/>
<path d="M74.7064 73.0386L66.991 114.716C66.991 114.716 109.463 116.705 112.883 113.921C112.883 113.921 139.25 117.253 160.009 114.567L152.453 72.9902L74.7064 73.0386Z" fill="#E2E2EC"/>
<path opacity="0.1" d="M77.3313 74.4784L70.1382 113.335C70.1382 113.335 109.736 115.19 112.925 112.593C112.925 112.593 137.507 115.7 156.861 113.196L149.814 74.4321L77.3313 74.4784Z" fill="black"/>
<path d="M149.431 68.4142C149.431 68.4142 139.25 71.199 131.137 63.142C123.025 55.085 113.48 63.8382 113.48 63.8382C113.48 63.8382 103.936 55.085 95.823 63.142C87.7104 71.199 77.5295 68.4142 77.5295 68.4142C77.2089 84.6272 71.1671 110.887 71.1671 110.887C71.1671 110.887 82.3019 114.666 97.0166 107.008C111.731 99.3499 113.481 109.694 113.481 109.694C113.481 109.694 115.23 99.3488 129.945 107.008C144.659 114.667 155.794 110.887 155.794 110.887C155.794 110.887 149.749 84.6272 149.431 68.4142Z" fill="#F1F2FB"/>
<path d="M83.1258 88.8894C93.6204 84.944 99.7149 84.886 110.909 88.093" stroke="#CFCFCF"/>
<path d="M83.1258 84.9073C93.6204 80.9619 99.7149 80.9039 110.909 84.1109" stroke="#CFCFCF"/>
<path d="M83.1258 81.7217C93.6204 77.7762 99.7149 77.7182 110.909 80.9252" stroke="#CFCFCF"/>
<path opacity="0.1" d="M93.835 109.994C93.835 109.994 107.277 106.215 113.478 111.785C113.478 111.785 119.443 105.021 133.282 110.293" fill="black"/>
<path d="M113.48 116.656C115.808 116.656 117.696 115.631 117.696 114.368C117.696 113.104 115.808 112.08 113.48 112.08C111.151 112.08 109.264 113.104 109.264 114.368C109.264 115.631 111.151 116.656 113.48 116.656Z" fill="#E8EAF8"/>
<path opacity="0.1" d="M113.44 63.7886C113.44 63.7886 116.462 82.9859 113.519 110.041Z" fill="black"/>
<path d="M118.972 88.0132C126.391 80.9275 133.986 89.8463 146.755 87.2168" stroke="#CFCFCF"/>
<path d="M118.076 83.2347C125.495 76.1489 133.089 85.0678 145.859 82.4383" stroke="#CFCFCF"/>
<path d="M117.18 78.4561C124.598 71.3703 132.193 80.2891 144.963 77.6597" stroke="#CFCFCF"/>
<path d="M116.853 74.2558C124.255 66.69 131.873 76.2469 144.636 73.4594" stroke="#CFCFCF"/>
<path d="M83.1258 77.7396C93.6204 73.7941 99.7149 73.7361 110.909 76.9431" stroke="#CFCFCF"/>
<path d="M83.0137 74.6545C93.5083 70.7091 99.6028 70.6511 110.797 73.8581" stroke="#CFCFCF"/>
<defs>
<linearGradient id="paint0_linear" x1="113.5" y1="117.262" x2="113.5" y2="59.1267" gradientUnits="userSpaceOnUse">
<stop stop-color="#808080" stop-opacity="0.25"/>
<stop offset="0.54" stop-color="#808080" stop-opacity="0.12"/>
<stop offset="1" stop-color="#808080" stop-opacity="0.1"/>
</linearGradient>
</defs>
</svg>
