<svg width="1083" height="415" viewBox="0 0 1083 415" fill="none" xmlns="http://www.w3.org/2000/svg">
<rect width="1083" height="415" fill="#D8A4E0"/>
<g opacity="0.9">
<rect width="1083" height="274" fill="#D8A4E0"/>
<path d="M341.482 137.404C341.422 136.059 341.379 134.711 341.379 133.352C341.379 84.1981 381.856 44.2066 431.614 44.2066C481.372 44.2066 521.848 84.1945 521.848 133.352C521.848 134.711 521.806 136.059 521.745 137.404H538.153C538.196 136.056 538.249 134.711 538.249 133.352C538.249 75.1659 490.507 28 431.61 28C372.713 28 324.971 75.1659 324.971 133.352C324.971 134.711 325.024 136.056 325.074 137.404H341.482Z" fill="#7E79B6"/>
<path d="M357.99 137.404C357.915 136.056 357.784 134.721 357.784 133.352C357.784 93.1353 390.902 60.4166 431.61 60.4166C472.318 60.4166 505.436 93.1388 505.436 133.352C505.436 134.718 505.305 136.056 505.23 137.404H521.742C521.802 136.059 521.845 134.711 521.845 133.352C521.845 84.198 481.368 44.2065 431.61 44.2065C381.852 44.2065 341.376 84.198 341.376 133.352C341.376 134.711 341.418 136.059 341.479 137.404H357.99Z" fill="#DFE247"/>
<path d="M374.398 137.404C374.302 136.059 374.192 134.721 374.192 133.352C374.192 102.073 399.949 76.6232 431.614 76.6232C463.278 76.6232 489.035 102.069 489.035 133.352C489.035 134.718 488.925 136.059 488.829 137.404H505.234C505.309 136.056 505.44 134.721 505.44 133.352C505.44 93.1353 472.321 60.4166 431.614 60.4166C390.906 60.4166 357.784 93.1353 357.784 133.352C357.784 134.718 357.915 136.056 357.99 137.404H374.398Z" fill="#71C285"/>
<path d="M390.803 137.404C390.668 136.07 390.597 134.721 390.597 133.352C390.597 111.01 408.996 92.8334 431.61 92.8334C454.225 92.8334 472.624 111.014 472.624 133.352C472.624 134.718 472.549 136.07 472.417 137.404H488.822C488.918 136.059 489.028 134.721 489.028 133.352C489.028 102.073 463.271 76.6233 431.607 76.6233C399.942 76.6233 374.185 102.069 374.185 133.352C374.185 134.718 374.295 136.059 374.391 137.404H390.803Z" fill="#C57979"/>
<path d="M672.694 117.484C670.077 119.622 659.286 120.091 659.286 120.091C659.286 120.091 663.676 108.16 666.293 106.02C667.55 105.032 669.078 104.681 670.547 105.042C672.016 105.402 673.31 106.447 674.149 107.949C674.988 109.452 675.306 111.293 675.034 113.077C674.762 114.86 673.922 116.443 672.694 117.484Z" fill="#6C63FF"/>
<path d="M646.399 126.24C648.855 128.64 659.572 130.224 659.572 130.224C659.572 130.224 656.043 117.87 653.587 115.48C652.404 114.37 650.908 113.865 649.421 114.075C647.933 114.284 646.573 115.19 645.632 116.598C644.691 118.007 644.244 119.806 644.388 121.609C644.531 123.411 645.253 125.074 646.399 126.24Z" fill="#6C63FF"/>
<path d="M672.694 117.484C670.077 119.622 659.286 120.091 659.286 120.091C659.286 120.091 663.676 108.16 666.293 106.02C667.55 105.032 669.078 104.681 670.547 105.042C672.016 105.402 673.31 106.447 674.149 107.949C674.988 109.452 675.306 111.293 675.034 113.077C674.762 114.86 673.922 116.443 672.694 117.484Z" fill="#FC6681"/>
<path d="M646.399 126.24C648.855 128.64 659.572 130.224 659.572 130.224C659.572 130.224 656.043 117.87 653.587 115.48C652.404 114.37 650.908 113.865 649.421 114.075C647.933 114.284 646.573 115.19 645.632 116.598C644.691 118.007 644.244 119.806 644.388 121.609C644.531 123.411 645.253 125.074 646.399 126.24Z" fill="#FC6681"/>
<path d="M707 225.018L684.629 105.964H676.318C675.986 101.415 675.764 97.0079 675.679 92.8571C675.679 92.8571 645.549 100.831 621.521 77.7608C597.493 54.6901 569.244 79.7559 569.244 79.7559L569.134 79.6602V79.6138V79.6725C567.173 77.9924 540.111 55.561 516.975 77.7793C492.957 100.85 462.816 92.8756 462.816 92.8756C462.732 97.079 462.507 101.523 462.167 106.116H454.456L431.61 225.447C431.61 225.447 524.479 229.653 557.023 225.774C558.19 228.758 563.22 231 569.246 231C576.018 231 581.526 228.168 581.717 224.638C607.05 226.97 661.561 230.697 707 225.018Z" fill="url(#paint0_linear)"/>
<path d="M456.848 107.011L434.483 223.86C434.483 223.86 557.603 229.437 567.518 221.63C567.518 221.63 643.95 230.972 704.127 223.443L682.224 106.875L456.848 107.011Z" fill="#E2E2EC"/>
<path opacity="0.1" d="M464.458 111.048L443.606 219.987C443.606 219.987 558.394 225.188 567.638 217.908C567.638 217.908 638.897 226.618 695.001 219.597L674.574 110.918L464.458 111.048Z" fill="black"/>
<path d="M673.463 94.0461C673.463 94.0461 643.95 101.854 620.433 79.2648C596.916 56.676 569.246 81.2167 569.246 81.2167C569.246 81.2167 541.58 56.676 518.062 79.2648C494.545 101.854 465.032 94.0461 465.032 94.0461C464.103 139.502 446.589 213.124 446.589 213.124C446.589 213.124 478.867 223.721 521.522 202.25C564.178 180.779 569.249 209.779 569.249 209.779C569.249 209.779 574.32 180.776 616.976 202.25C659.631 223.724 691.909 213.124 691.909 213.124C691.909 213.124 674.385 139.502 673.463 94.0461Z" fill="#F1F2FB"/>
<path opacity="0.1" d="M512.299 210.622C512.299 210.622 551.265 200.026 569.241 215.641C569.241 215.641 586.533 196.678 626.651 211.459" fill="black"/>
<path d="M569.246 229.298C575.996 229.298 581.467 226.426 581.467 222.884C581.467 219.341 575.996 216.469 569.246 216.469C562.497 216.469 557.026 219.341 557.026 222.884C557.026 226.426 562.497 229.298 569.246 229.298Z" fill="#E8EAF8"/>
<path opacity="0.1" d="M569.131 81.0777C569.131 81.0777 577.892 134.9 569.361 210.752L569.131 81.0777Z" fill="black"/>
<path opacity="0.1" d="M473.474 110.918C473.474 110.918 491.826 116.076 507.711 110.918C523.596 105.761 552.761 88.8884 562.355 110.918" stroke="black" stroke-width="4" stroke-miterlimit="10"/>
<path opacity="0.1" d="M473.474 120.4C473.474 120.4 491.826 125.557 507.711 120.4C523.596 115.242 557.991 115.52 562.355 120.4" stroke="black" stroke-width="4" stroke-miterlimit="10"/>
<path opacity="0.1" d="M473.474 137.118C473.474 137.118 491.826 142.275 507.711 137.118C523.596 131.96 552.761 115.088 562.355 137.118" stroke="black" stroke-width="4" stroke-miterlimit="10"/>
<path opacity="0.1" d="M473.474 146.611C473.474 146.611 491.826 151.769 507.711 146.611C523.596 141.454 557.991 141.732 562.355 146.611" stroke="black" stroke-width="4" stroke-miterlimit="10"/>
<path opacity="0.1" d="M665.021 110.918C665.021 110.918 646.67 116.076 630.785 110.918C614.9 105.761 585.734 88.8884 576.141 110.918" stroke="black" stroke-width="4" stroke-miterlimit="10"/>
<path opacity="0.1" d="M665.021 120.4C665.021 120.4 646.67 125.557 630.785 120.4C614.9 115.242 580.505 115.52 576.141 120.4" stroke="black" stroke-width="4" stroke-miterlimit="10"/>
<path opacity="0.1" d="M665.021 137.118C665.021 137.118 646.67 142.275 630.785 137.118C614.9 131.96 585.734 115.088 576.141 137.118" stroke="black" stroke-width="4" stroke-miterlimit="10"/>
<path opacity="0.1" d="M665.021 146.611C665.021 146.611 646.67 151.769 630.785 146.611C614.9 141.454 580.505 141.732 576.141 146.611" stroke="black" stroke-width="4" stroke-miterlimit="10"/>
<path d="M418.937 134.173H418.772C418.844 134.649 418.892 135.13 418.892 135.621C418.892 136.487 417.984 137.186 416.859 137.186C415.735 137.186 414.826 136.487 414.826 135.621C414.826 130.442 409.355 126.23 402.628 126.23C395.901 126.23 390.43 130.442 390.43 135.621C390.43 136.487 389.521 137.186 388.397 137.186C387.273 137.186 386.364 136.487 386.364 135.621C386.364 129.26 392.563 124.003 400.55 123.214C400.091 115.327 391.638 109.013 381.281 109.013C370.891 109.013 362.413 115.368 362.006 123.292C363.692 123.599 365.324 124.106 366.841 124.828C370.533 126.588 373.115 129.351 374.111 132.607C374.367 133.449 373.69 134.291 372.598 134.489C371.505 134.679 370.411 134.165 370.153 133.325C368.612 128.282 362.023 125.145 355.487 126.333C348.938 127.52 344.864 132.585 346.405 137.626C346.661 138.467 345.984 139.309 344.89 139.507C344.736 139.536 344.579 139.548 344.425 139.548C343.504 139.548 342.668 139.061 342.447 138.341C341.849 136.383 341.902 134.425 342.471 132.591C338.287 132.12 334.061 133.336 331.304 135.912C328.746 138.305 328 141.387 328.915 144.184C328.917 144.203 328.929 144.219 328.931 144.237C329.553 146.094 330.903 147.822 332.967 149.132C333.833 149.683 333.957 150.667 333.245 151.336C332.843 151.711 332.261 151.905 331.674 151.905C331.218 151.905 330.763 151.789 330.383 151.548C327.909 149.98 326.138 147.931 325.207 145.63C316.987 143.981 308.345 146.643 303.88 152.301C301.203 155.695 300.4 159.689 301.624 163.547C302.848 167.407 305.948 170.667 310.358 172.73C311.317 173.179 311.622 174.14 311.039 174.881C310.656 175.366 309.985 175.632 309.3 175.632C309.03 175.632 308.762 175.576 308.503 175.489C311.716 176.954 315.414 177.851 319.368 177.983L336.057 177.987C346.846 177.854 356.088 172.728 360.028 165.479C364.019 172.824 373.452 178 384.425 178C403.482 178 418.986 166.064 418.986 151.392V135.74L418.937 134.173Z" fill="#D0E8F9"/>
<path d="M404.616 123.32C404.147 113.712 393.874 106 381.281 106C368.795 106 358.593 113.582 357.963 123.076C356.828 123.095 355.688 123.198 354.555 123.403C349.806 124.264 346.047 126.662 343.925 129.745C338.066 128.83 332.036 130.423 328.169 134.037C325.625 136.416 324.349 139.371 324.489 142.425C315.076 141.12 305.501 144.341 300.41 150.789C297.165 154.898 296.195 159.733 297.676 164.403C299.156 169.074 302.911 173.021 308.247 175.519C308.577 175.674 308.943 175.748 309.302 175.748C309.99 175.748 310.658 175.48 311.041 174.996C311.624 174.256 311.319 173.295 310.36 172.846C305.95 170.783 302.85 167.523 301.626 163.663C300.402 159.805 301.205 155.81 303.882 152.417C308.347 146.76 316.989 144.098 325.209 145.746C326.14 148.049 327.913 150.096 330.385 151.664C330.765 151.904 331.22 152.021 331.676 152.021C332.263 152.021 332.845 151.827 333.247 151.451C333.961 150.783 333.835 149.797 332.969 149.248C330.903 147.939 329.555 146.21 328.933 144.353C328.931 144.334 328.919 144.319 328.917 144.3C328.002 141.503 328.748 138.421 331.306 136.028C334.063 133.452 338.289 132.236 342.473 132.707C341.904 134.543 341.849 136.499 342.449 138.457C342.668 139.179 343.506 139.664 344.427 139.664C344.581 139.664 344.738 139.65 344.892 139.623C345.986 139.424 346.663 138.582 346.407 137.742C344.866 132.7 348.94 127.636 355.489 126.449C362.025 125.261 368.614 128.398 370.155 133.441C370.413 134.281 371.507 134.795 372.6 134.605C373.692 134.407 374.369 133.564 374.113 132.722C373.117 129.467 370.535 126.704 366.843 124.943C365.326 124.22 363.694 123.715 362.008 123.408C362.415 115.483 370.893 109.129 381.283 109.129C391.64 109.129 400.095 115.441 400.552 123.33C392.565 124.119 386.366 129.376 386.366 135.737C386.366 136.602 387.275 137.302 388.399 137.302C389.523 137.302 390.432 136.602 390.432 135.737C390.432 130.558 395.903 126.346 402.63 126.346C409.357 126.346 414.922 130.558 414.922 135.737C414.922 135.781 414.922 137.814 414.922 140.432C414.922 141.296 415.833 141.998 416.955 141.998C418.077 141.998 418.988 141.296 418.988 140.432V135.737C418.986 129.354 412.649 124.079 404.616 123.32Z" fill="#ABCADD"/>
<path d="M384.424 177.998C374.314 177.998 365.129 173.916 360.028 167.372C354.927 173.916 345.742 177.998 335.632 177.998C334.51 177.998 333.599 177.299 333.599 176.433C333.599 175.568 334.51 174.868 335.632 174.868C345.498 174.868 354.338 170.331 358.154 163.308L360.028 159.855L361.903 163.308C365.717 170.329 374.558 174.868 384.424 174.868C385.547 174.868 386.457 175.568 386.457 176.433C386.457 177.299 385.549 177.998 384.424 177.998Z" fill="#ABCADD"/>
<path d="M408.611 155.89C407.68 149.662 400.798 144.806 392.463 144.806C383.495 144.806 376.199 150.423 376.199 157.327C376.199 158.191 377.11 158.892 378.232 158.892C379.354 158.892 380.265 158.191 380.265 157.327C380.265 152.148 385.736 147.936 392.463 147.936C398.568 147.936 403.624 151.409 404.509 155.921C398.822 156.718 394.496 160.55 394.496 165.153C394.496 166.017 395.407 166.718 396.529 166.718C397.651 166.718 398.562 166.017 398.562 165.153C398.562 161.7 402.209 158.892 406.694 158.892C411.179 158.892 414.826 161.7 414.826 165.153C414.826 166.017 415.737 166.718 416.859 166.718C417.982 166.718 418.892 166.017 418.892 165.153C418.892 160.478 414.428 156.602 408.611 155.89Z" fill="#ABCADD"/>
<path d="M204.807 52.5215H204.747C204.773 52.7329 204.791 52.9465 204.791 53.1649C204.791 53.5496 204.459 53.8606 204.048 53.8606C203.637 53.8606 203.305 53.5496 203.305 53.1649C203.305 50.8631 201.306 48.9911 198.847 48.9911C196.389 48.9911 194.39 50.8631 194.39 53.1649C194.39 53.5496 194.058 53.8606 193.647 53.8606C193.236 53.8606 192.904 53.5496 192.904 53.1649C192.904 50.3379 195.169 48.0012 198.088 47.6506C197.92 44.1453 194.831 41.3391 191.046 41.3391C187.249 41.3391 184.151 44.1634 184.003 47.6854C184.618 47.8218 185.215 48.0471 185.769 48.3678C187.118 49.1504 188.062 50.3782 188.426 51.8251C188.52 52.1994 188.272 52.5736 187.873 52.662C187.474 52.7462 187.074 52.518 186.98 52.1444C186.416 49.9031 184.009 48.509 181.62 49.037C179.227 49.5643 177.738 51.8154 178.301 54.056C178.395 54.4296 178.148 54.8039 177.748 54.8922C177.691 54.9047 177.634 54.9103 177.578 54.9103C177.241 54.9103 176.936 54.6939 176.855 54.374C176.636 53.5037 176.656 52.6335 176.864 51.8182C175.335 51.6088 173.79 52.1493 172.783 53.2943C171.848 54.358 171.575 55.7277 171.91 56.9708C171.911 56.9791 171.915 56.9861 171.916 56.9944C172.143 57.8194 172.636 58.5874 173.39 59.1697C173.707 59.4145 173.752 59.8521 173.492 60.1491C173.345 60.3161 173.133 60.4023 172.918 60.4023C172.752 60.4023 172.585 60.3509 172.446 60.2437C171.542 59.5467 170.895 58.6361 170.555 57.6135C167.551 56.8803 164.393 58.0636 162.761 60.5783C161.783 62.0865 161.489 63.8617 161.937 65.5765C162.384 67.2919 163.517 68.7409 165.128 69.6578C165.479 69.8574 165.59 70.2846 165.377 70.6136C165.237 70.8292 164.992 70.9475 164.742 70.9475C164.643 70.9475 164.545 70.9225 164.451 70.8842C165.625 71.5353 166.976 71.9339 168.421 71.9923L174.52 71.9944C178.463 71.9353 181.84 69.6571 183.28 66.4349C184.738 69.6995 188.185 72 192.195 72C199.159 72 204.825 66.6951 204.825 60.1742V53.2178L204.807 52.5215Z" fill="#D0E8F9"/>
<path d="M199.574 47.6979C199.402 43.4274 195.648 40 191.046 40C186.483 40 182.755 43.3697 182.525 47.5894C182.11 47.5977 181.694 47.6437 181.28 47.7348C179.544 48.1174 178.171 49.1831 177.395 50.5535C175.254 50.1466 173.05 50.8547 171.637 52.4609C170.708 53.5183 170.241 54.8317 170.292 56.1889C166.853 55.6087 163.353 57.0403 161.493 59.9063C160.307 61.7324 159.953 63.8812 160.494 65.957C161.035 68.0328 162.407 69.7872 164.357 70.8974C164.477 70.9663 164.611 70.999 164.743 70.999C164.994 70.999 165.238 70.88 165.378 70.6651C165.591 70.336 165.48 69.9089 165.129 69.7093C163.518 68.7924 162.385 67.3434 161.937 65.628C161.49 63.9132 161.784 62.1379 162.762 60.6298C164.393 58.1158 167.552 56.9325 170.555 57.665C170.896 58.6883 171.544 59.5982 172.447 60.2952C172.586 60.4016 172.752 60.4538 172.919 60.4538C173.133 60.4538 173.346 60.3675 173.493 60.2006C173.754 59.9036 173.708 59.4653 173.391 59.2211C172.636 58.6396 172.144 57.8709 171.916 57.0459C171.916 57.0375 171.911 57.0306 171.911 57.0222C171.576 55.7791 171.849 54.4094 172.783 53.3458C173.791 52.2008 175.335 51.6603 176.864 51.8696C176.656 52.6856 176.636 53.5552 176.856 54.4254C176.936 54.7461 177.242 54.9618 177.578 54.9618C177.635 54.9618 177.692 54.9555 177.749 54.9437C178.148 54.8553 178.396 54.4811 178.302 54.1075C177.739 51.8669 179.228 49.6158 181.621 49.0885C184.009 48.5605 186.417 49.9546 186.98 52.1959C187.075 52.5695 187.474 52.7976 187.874 52.7135C188.273 52.6251 188.52 52.2509 188.427 51.8766C188.063 50.4297 187.119 49.2019 185.77 48.4193C185.216 48.0979 184.619 47.8732 184.003 47.7369C184.152 44.2149 187.25 41.3906 191.047 41.3906C194.832 41.3906 197.922 44.1961 198.089 47.7021C195.17 48.0527 192.904 50.3893 192.904 53.2164C192.904 53.6011 193.237 53.912 193.647 53.912C194.058 53.912 194.39 53.6011 194.39 53.2164C194.39 50.9145 196.39 49.0426 198.848 49.0426C201.306 49.0426 203.34 50.9145 203.34 53.2164C203.34 53.2359 203.34 54.1395 203.34 55.3033C203.34 55.6873 203.673 55.999 204.083 55.999C204.493 55.999 204.826 55.6873 204.826 55.3033V53.2164C204.825 50.3796 202.509 48.0353 199.574 47.6979Z" fill="#ABCADD"/>
<path d="M192.195 71.9993C188.5 71.9993 185.144 70.1851 183.28 67.2766C181.416 70.1851 178.059 71.9993 174.364 71.9993C173.954 71.9993 173.621 71.6884 173.621 71.3037C173.621 70.919 173.954 70.608 174.364 70.608C177.97 70.608 181.2 68.5914 182.595 65.4701L183.28 63.9355L183.965 65.4701C185.358 68.5907 188.589 70.608 192.195 70.608C192.605 70.608 192.938 70.919 192.938 71.3037C192.938 71.6884 192.606 71.9993 192.195 71.9993Z" fill="#ABCADD"/>
<path d="M201.034 62.1734C200.693 59.4055 198.179 57.2469 195.133 57.2469C191.855 57.2469 189.189 59.7436 189.189 62.812C189.189 63.196 189.522 63.5077 189.932 63.5077C190.342 63.5077 190.675 63.196 190.675 62.812C190.675 60.5102 192.674 58.6382 195.133 58.6382C197.364 58.6382 199.211 60.1818 199.534 62.1873C197.456 62.5414 195.875 64.2443 195.875 66.2902C195.875 66.6742 196.208 66.9858 196.618 66.9858C197.029 66.9858 197.361 66.6742 197.361 66.2902C197.361 64.7556 198.694 63.5077 200.333 63.5077C201.972 63.5077 203.305 64.7556 203.305 66.2902C203.305 66.6742 203.638 66.9858 204.048 66.9858C204.458 66.9858 204.791 66.6742 204.791 66.2902C204.791 64.2123 203.159 62.4899 201.034 62.1734Z" fill="#ABCADD"/>
<path d="M208.019 60.0915C210.521 59.4947 213.202 59.9914 215.59 61.2697C216.652 59.1701 218.526 57.5884 221.031 56.9888C225.253 55.9821 229.506 56.8095 232.365 60.3146C232.47 60.4467 232.639 60.496 232.766 60.4415C232.895 60.3836 232.949 60.2324 232.896 60.0773C232.837 59.9044 232.773 59.7283 232.704 59.5534C230.4 53.6758 224.164 49.9489 218.772 51.2337C216.269 51.8302 214.399 53.4093 213.337 55.5097C210.951 54.2319 208.265 53.7409 205.763 54.3336C200.371 55.6181 197.868 61.4266 200.17 67.3078C200.253 67.5136 200.45 67.6567 200.649 67.6548C200.845 67.6553 200.988 67.5098 200.994 67.308C201.088 63.4423 203.962 61.0596 208.019 60.0915Z" fill="#3E0735"/>
<path d="M180.512 87.6838L177.285 88.6389L176.257 87.9819L177.354 87.657C177.466 87.6242 177.532 87.4972 177.502 87.3743C177.472 87.2514 177.358 87.1774 177.246 87.2107L175.745 87.6552L174.718 87L175.746 86.3439L177.246 86.7888C177.264 86.7944 177.282 86.7967 177.3 86.7967C177.393 86.7967 177.477 86.7288 177.502 86.6253C177.531 86.5019 177.466 86.3753 177.354 86.3425L176.257 86.0172L177.287 85.3602L180.513 86.3162C180.531 86.3217 180.549 86.324 180.567 86.324C180.659 86.324 180.743 86.2561 180.768 86.1526C180.798 86.0292 180.732 85.9026 180.62 85.8698L177.797 85.0335L179.058 84.2286L180.29 84.5941C180.308 84.5996 180.326 84.6019 180.344 84.6019C180.436 84.6019 180.521 84.534 180.546 84.4305C180.575 84.3072 180.509 84.1805 180.398 84.1477L179.57 83.9019L180.488 83.3156C180.587 83.2518 180.621 83.1104 180.565 83C180.506 82.8891 180.379 82.8517 180.279 82.9154L179.362 83.5013L179.583 82.5869C179.613 82.4636 179.547 82.337 179.435 82.3041C179.323 82.2723 179.209 82.3443 179.179 82.4677L178.85 83.8294L177.589 84.6347L178.345 81.5136C178.375 81.3902 178.309 81.2636 178.198 81.2308C178.084 81.1985 177.972 81.2705 177.941 81.3944L177.078 84.9619L176.048 85.6194L176.343 84.406C176.372 84.2827 176.306 84.1561 176.195 84.1233C176.082 84.0909 175.969 84.1635 175.939 84.2868L175.536 85.9465L174.51 86.6008V85.2886L175.608 84.0729C175.69 83.9828 175.69 83.8363 175.608 83.7462C175.527 83.6561 175.394 83.6561 175.313 83.7462L174.51 84.6352V83.3197L176.87 80.7078C176.952 80.6177 176.952 80.4712 176.87 80.3811C176.789 80.291 176.656 80.291 176.575 80.3811L174.51 82.6664V81.0566L175.411 80.0595C175.492 79.9694 175.492 79.8229 175.411 79.7328C175.33 79.6427 175.197 79.6427 175.116 79.7328L174.51 80.4033V79.231C174.51 79.1035 174.415 79 174.301 79C174.186 79 174.092 79.1035 174.092 79.231V80.4028L173.486 79.7324C173.404 79.6423 173.272 79.6423 173.19 79.7324C173.109 79.8225 173.109 79.9689 173.19 80.059L174.092 81.0561V82.6659L172.027 80.3806C171.945 80.2905 171.813 80.2905 171.731 80.3806C171.65 80.4707 171.65 80.6172 171.731 80.7073L174.092 83.3193V84.6347L173.289 83.7458C173.207 83.6557 173.074 83.6557 172.994 83.7458C172.912 83.8359 172.912 83.9823 172.994 84.0724L174.092 85.2881V86.5999L173.065 85.9437L172.663 84.284C172.633 84.1607 172.519 84.0881 172.407 84.1205C172.295 84.1533 172.229 84.2804 172.259 84.4033L172.552 85.6166L171.523 84.9591L170.66 81.3916C170.629 81.2682 170.516 81.1957 170.403 81.228C170.292 81.2608 170.226 81.3879 170.255 81.5108L171.012 84.632L169.751 83.8266L169.422 82.4649C169.392 82.3411 169.279 82.269 169.166 82.3014C169.054 82.3342 168.989 82.4612 169.018 82.5842L169.24 83.4995L168.323 82.9136C168.224 82.8508 168.095 82.8877 168.038 82.9982C167.98 83.1086 168.014 83.25 168.114 83.3137L169.032 83.9001L168.203 84.1459C168.092 84.1787 168.026 84.3058 168.055 84.4287C168.081 84.5322 168.166 84.6001 168.256 84.6001C168.275 84.6001 168.293 84.5978 168.311 84.5922L169.543 84.2268L170.804 85.0317L167.981 85.868C167.869 85.9008 167.803 86.0278 167.833 86.1507C167.859 86.2542 167.943 86.3222 168.035 86.3222C168.053 86.3222 168.071 86.3199 168.089 86.3143L171.315 85.3583L172.344 86.0154L171.246 86.3406C171.135 86.3735 171.069 86.5005 171.099 86.6234C171.124 86.7269 171.209 86.7948 171.299 86.7948C171.317 86.7948 171.335 86.7925 171.355 86.787L172.855 86.342L173.882 86.9982L172.855 87.6543L171.353 87.2098C171.244 87.1765 171.129 87.25 171.099 87.3733C171.069 87.4967 171.135 87.6233 171.246 87.6552L172.344 87.9809L171.314 88.638L168.088 87.6829C167.979 87.651 167.863 87.7227 167.833 87.8465C167.803 87.9703 167.869 88.0965 167.981 88.1283L170.803 88.9656L169.542 89.7705L168.311 89.4059C168.199 89.3726 168.086 89.4457 168.055 89.5695C168.026 89.6933 168.092 89.8195 168.203 89.8518L169.031 90.0971L168.113 90.684C168.014 90.7482 167.98 90.8886 168.036 91C168.075 91.0739 168.145 91.1155 168.217 91.1155C168.253 91.1155 168.289 91.1058 168.322 91.085L169.239 90.4982L169.018 91.4131C168.989 91.5369 169.054 91.663 169.165 91.6954C169.183 91.7009 169.201 91.7037 169.219 91.7037C169.312 91.7037 169.396 91.6362 169.421 91.5323L169.75 90.1706L171.011 89.3666L170.254 92.4874C170.225 92.6116 170.291 92.7373 170.402 92.7697C170.42 92.7761 170.438 92.778 170.456 92.778C170.548 92.778 170.633 92.7105 170.657 92.6066L171.521 89.039L172.55 88.3811L172.257 89.5949C172.228 89.7187 172.294 89.8449 172.405 89.8772C172.423 89.8828 172.441 89.8855 172.459 89.8855C172.551 89.8855 172.635 89.8181 172.66 89.7141L173.062 88.0544L174.089 87.3983V88.7096L172.991 89.9253C172.909 90.0149 172.909 90.1618 172.991 90.2519C173.072 90.3416 173.204 90.3416 173.286 90.2519L174.09 89.3657V90.6807L171.73 93.2932C171.648 93.3828 171.648 93.5297 171.73 93.6198C171.811 93.7095 171.944 93.7095 172.025 93.6198L174.09 91.3341V92.9439L173.189 93.9405C173.108 94.0301 173.108 94.1775 173.189 94.2672C173.27 94.3568 173.403 94.3568 173.484 94.2672L174.09 93.5967V94.769C174.09 94.8956 174.184 95 174.299 95C174.414 95 174.508 94.8956 174.508 94.769V93.5967L175.114 94.2672C175.155 94.3129 175.209 94.3346 175.262 94.3346C175.316 94.3346 175.369 94.312 175.41 94.2672C175.49 94.1775 175.49 94.0301 175.41 93.9405L174.508 92.9439V91.3341L176.573 93.6198C176.614 93.6651 176.668 93.6873 176.721 93.6873C176.775 93.6873 176.828 93.6642 176.869 93.6198C176.95 93.5297 176.95 93.3828 176.869 93.2932L174.509 90.6807V89.3657L175.312 90.2547C175.353 90.3 175.406 90.3222 175.46 90.3222C175.513 90.3222 175.567 90.2995 175.607 90.2547C175.689 90.1646 175.689 90.0181 175.607 89.928L174.509 88.7124V87.4001L175.536 88.0563L175.937 89.716C175.963 89.8199 176.047 89.8874 176.139 89.8874C176.156 89.8874 176.175 89.8855 176.193 89.8795C176.305 89.8467 176.371 89.7192 176.341 89.5967L176.047 88.3839L177.076 89.0409L177.94 92.6093C177.965 92.7124 178.05 92.7798 178.142 92.7798C178.16 92.7798 178.177 92.778 178.196 92.7724C178.308 92.7392 178.373 92.6121 178.344 92.4892L177.587 89.3676L178.849 90.1734L179.178 91.5346C179.204 91.6381 179.288 91.706 179.38 91.706C179.397 91.706 179.415 91.7032 179.433 91.6972C179.545 91.6654 179.611 91.5374 179.581 91.4154L179.36 90.5001L180.277 91.0869C180.311 91.1077 180.347 91.1174 180.382 91.1174C180.453 91.1174 180.524 91.0767 180.563 91.0018C180.621 90.8919 180.587 90.75 180.486 90.6863L179.569 90.099L180.396 89.8536C180.508 89.8218 180.574 89.6938 180.544 89.5718C180.514 89.4475 180.4 89.375 180.288 89.4082L179.058 89.7737L177.796 88.9679L180.618 88.132C180.731 88.0988 180.797 87.9717 180.766 87.8488C180.738 87.7245 180.623 87.652 180.512 87.6838Z" fill="white"/>
<path d="M956.97 96.3763H956.873C956.915 96.7035 956.944 97.034 956.944 97.372C956.944 97.9673 956.407 98.4485 955.744 98.4485C955.08 98.4485 954.544 97.9673 954.544 97.372C954.544 93.81 951.314 90.9132 947.344 90.9132C943.373 90.9132 940.143 93.81 940.143 97.372C940.143 97.9673 939.607 98.4485 938.943 98.4485C938.28 98.4485 937.743 97.9673 937.743 97.372C937.743 92.9973 941.402 89.3814 946.117 88.8389C945.846 83.4146 940.856 79.0722 934.743 79.0722C928.61 79.0722 923.606 83.4426 923.366 88.8927C924.361 89.1037 925.324 89.4525 926.22 89.9487C928.399 91.1598 929.923 93.0597 930.511 95.2987C930.662 95.8779 930.262 96.457 929.618 96.5937C928.972 96.724 928.327 96.3709 928.174 95.7928C927.265 92.3245 923.376 90.1673 919.518 90.9843C915.652 91.8002 913.247 95.2837 914.157 98.7509C914.308 99.329 913.909 99.9081 913.263 100.045C913.172 100.064 913.079 100.073 912.988 100.073C912.445 100.073 911.951 99.7381 911.821 99.2429C911.468 97.8962 911.499 96.5496 911.835 95.288C909.365 94.964 906.871 95.8004 905.243 97.5722C903.734 99.2181 903.293 101.338 903.833 103.261C903.834 103.274 903.842 103.285 903.843 103.298C904.21 104.575 905.007 105.763 906.225 106.664C906.736 107.043 906.809 107.72 906.389 108.18C906.152 108.438 905.809 108.571 905.462 108.571C905.193 108.571 904.924 108.492 904.7 108.326C903.239 107.247 902.194 105.838 901.644 104.256C896.793 103.121 891.692 104.952 889.056 108.844C887.476 111.178 887.002 113.925 887.724 116.578C888.447 119.233 890.277 121.475 892.88 122.894C893.446 123.203 893.626 123.864 893.282 124.373C893.056 124.707 892.66 124.89 892.256 124.89C892.096 124.89 891.938 124.851 891.785 124.792C893.681 125.799 895.864 126.416 898.198 126.506L908.049 126.51C914.417 126.418 919.873 122.893 922.198 117.907C924.554 122.958 930.122 126.518 936.599 126.518C947.848 126.518 956.999 118.309 956.999 108.218V97.4538L956.97 96.3763Z" fill="#D0E8F9"/>
<path d="M948.517 88.9121C948.24 82.3037 942.176 77 934.743 77C927.373 77 921.351 82.2144 920.979 88.7442C920.31 88.7571 919.636 88.8281 918.968 88.9691C916.165 89.5612 913.946 91.2103 912.693 93.331C909.235 92.7012 905.675 93.7971 903.393 96.2826C901.892 97.9188 901.138 99.9512 901.221 102.051C895.665 101.154 890.013 103.369 887.008 107.804C885.093 110.63 884.52 113.955 885.394 117.167C886.268 120.379 888.484 123.094 891.634 124.812C891.828 124.919 892.044 124.969 892.257 124.969C892.662 124.969 893.057 124.785 893.283 124.452C893.627 123.943 893.447 123.282 892.881 122.973C890.278 121.555 888.448 119.312 887.726 116.658C887.003 114.004 887.477 111.257 889.058 108.923C891.693 105.033 896.794 103.202 901.646 104.336C902.195 105.919 903.242 107.327 904.701 108.406C904.925 108.57 905.194 108.651 905.463 108.651C905.81 108.651 906.153 108.518 906.391 108.259C906.812 107.8 906.737 107.121 906.226 106.744C905.007 105.844 904.211 104.654 903.844 103.378C903.843 103.365 903.836 103.354 903.835 103.341C903.295 101.417 903.735 99.2978 905.245 97.6519C906.872 95.88 909.367 95.0436 911.836 95.3676C911.5 96.6303 911.468 97.9759 911.822 99.3225C911.951 99.8188 912.446 100.152 912.989 100.152C913.081 100.152 913.173 100.143 913.264 100.124C913.91 99.9878 914.309 99.4086 914.158 98.8306C913.249 95.3633 915.653 91.8799 919.519 91.0639C923.377 90.2469 927.266 92.4041 928.176 95.8725C928.328 96.4505 928.974 96.8036 929.619 96.6734C930.264 96.5367 930.663 95.9575 930.512 95.3784C929.924 93.1393 928.4 91.2394 926.221 90.0284C925.326 89.5311 924.362 89.1834 923.367 88.9724C923.607 83.5223 928.611 79.1518 934.745 79.1518C940.857 79.1518 945.848 83.4932 946.118 88.9186C941.403 89.4611 937.745 93.0769 937.745 97.4516C937.745 98.0469 938.281 98.5281 938.945 98.5281C939.608 98.5281 940.145 98.0469 940.145 97.4516C940.145 93.8896 943.374 90.9929 947.345 90.9929C951.316 90.9929 954.6 93.8896 954.6 97.4516C954.6 97.4818 954.6 98.8801 954.6 100.681C954.6 101.275 955.138 101.757 955.8 101.757C956.462 101.757 957 101.275 957 100.681V97.4516C956.999 93.0618 953.258 89.4342 948.517 88.9121Z" fill="#ABCADD"/>
<path d="M936.598 126.517C930.631 126.517 925.209 123.71 922.198 119.209C919.187 123.71 913.766 126.517 907.798 126.517C907.136 126.517 906.598 126.036 906.598 125.441C906.598 124.845 907.136 124.364 907.798 124.364C913.622 124.364 918.839 121.244 921.092 116.414L922.198 114.039L923.305 116.414C925.556 121.243 930.775 124.364 936.598 124.364C937.261 124.364 937.798 124.845 937.798 125.441C937.798 126.036 937.262 126.517 936.598 126.517Z" fill="#ABCADD"/>
<path d="M950.875 111.312C950.326 107.029 946.263 103.689 941.343 103.689C936.05 103.689 931.743 107.552 931.743 112.3C931.743 112.895 932.281 113.377 932.943 113.377C933.606 113.377 934.143 112.895 934.143 112.3C934.143 108.738 937.373 105.842 941.343 105.842C944.947 105.842 947.931 108.23 948.453 111.334C945.097 111.882 942.543 114.517 942.543 117.683C942.543 118.277 943.081 118.759 943.743 118.759C944.406 118.759 944.943 118.277 944.943 117.683C944.943 115.308 947.096 113.377 949.743 113.377C952.391 113.377 954.544 115.308 954.544 117.683C954.544 118.277 955.081 118.759 955.744 118.759C956.406 118.759 956.944 118.277 956.944 117.683C956.944 114.467 954.308 111.802 950.875 111.312Z" fill="#ABCADD"/>
<path d="M497.454 37.4628H497.412C497.43 37.6226 497.443 37.784 497.443 37.9491C497.443 38.2398 497.208 38.4748 496.918 38.4748C496.628 38.4748 496.394 38.2398 496.394 37.9491C496.394 36.2095 494.983 34.7948 493.247 34.7948C491.512 34.7948 490.101 36.2095 490.101 37.9491C490.101 38.2398 489.866 38.4748 489.576 38.4748C489.286 38.4748 489.052 38.2398 489.052 37.9491C489.052 35.8126 490.651 34.0468 492.711 33.7818C492.593 31.1327 490.412 29.012 487.741 29.012C485.06 29.012 482.874 31.1464 482.769 33.8081C483.203 33.9111 483.625 34.0814 484.016 34.3238C484.968 34.9152 485.634 35.8431 485.891 36.9366C485.957 37.2194 485.783 37.5023 485.501 37.569C485.219 37.6326 484.937 37.4602 484.87 37.1779C484.473 35.484 482.773 34.4305 481.087 34.8295C479.398 35.228 478.347 36.9292 478.744 38.6226C478.81 38.9049 478.636 39.1877 478.354 39.2545C478.314 39.2639 478.273 39.2681 478.233 39.2681C477.996 39.2681 477.78 39.1046 477.723 38.8628C477.569 38.2051 477.583 37.5475 477.729 36.9313C476.65 36.7731 475.56 37.1816 474.849 38.0469C474.189 38.8507 473.997 39.8858 474.233 40.8253C474.233 40.8316 474.236 40.8369 474.237 40.8432C474.397 41.4667 474.745 42.047 475.278 42.4871C475.501 42.6721 475.533 43.0028 475.35 43.2273C475.246 43.3534 475.096 43.4186 474.944 43.4186C474.827 43.4186 474.709 43.3797 474.611 43.2988C473.973 42.772 473.516 42.0838 473.276 41.311C471.156 40.7569 468.926 41.6512 467.775 43.5516C467.084 44.6914 466.877 46.033 467.193 47.3289C467.508 48.6253 468.308 49.7203 469.446 50.4132C469.693 50.5641 469.772 50.8869 469.621 51.1356C469.523 51.2985 469.35 51.3879 469.173 51.3879C469.103 51.3879 469.034 51.369 468.967 51.3401C469.796 51.8321 470.75 52.1334 471.77 52.1775L476.075 52.1791C478.858 52.1344 481.242 50.4127 482.258 47.9776C483.288 50.4448 485.721 52.1833 488.552 52.1833C493.467 52.1833 497.467 48.1742 497.467 43.2462V37.9891L497.454 37.4628Z" fill="#D0E8F9"/>
<path d="M493.76 33.8175C493.639 30.5902 490.989 28 487.741 28C484.52 28 481.888 30.5466 481.726 33.7355C481.433 33.7418 481.139 33.7765 480.847 33.8454C479.622 34.1345 478.652 34.9399 478.104 35.9756C476.593 35.668 475.038 36.2032 474.04 37.4171C473.384 38.2162 473.055 39.2087 473.091 40.2344C470.663 39.7959 468.193 40.8779 466.88 43.0438C466.043 44.4238 465.792 46.0477 466.174 47.6164C466.556 49.1852 467.525 50.511 468.901 51.35C468.986 51.4021 469.081 51.4268 469.173 51.4268C469.351 51.4268 469.523 51.3369 469.622 51.1745C469.772 50.9258 469.694 50.603 469.446 50.4521C468.309 49.7592 467.509 48.6642 467.193 47.3678C466.878 46.0719 467.085 44.7303 467.775 43.5905C468.927 41.6906 471.156 40.7964 473.277 41.3499C473.517 42.1233 473.974 42.8109 474.612 43.3377C474.71 43.4181 474.827 43.4575 474.945 43.4575C475.096 43.4575 475.246 43.3923 475.35 43.2662C475.534 43.0417 475.502 42.7105 475.278 42.526C474.745 42.0865 474.398 41.5056 474.237 40.8821C474.237 40.8758 474.234 40.8705 474.233 40.8642C473.997 39.9247 474.19 38.8896 474.849 38.0858C475.56 37.2205 476.651 36.812 477.73 36.9702C477.583 37.5869 477.569 38.244 477.724 38.9017C477.78 39.1441 477.996 39.307 478.234 39.307C478.274 39.307 478.314 39.3023 478.354 39.2934C478.636 39.2266 478.811 38.9438 478.745 38.6614C478.347 36.9681 479.398 35.2669 481.087 34.8684C482.773 34.4694 484.473 35.5229 484.871 37.2168C484.937 37.4991 485.219 37.6715 485.501 37.6079C485.783 37.5412 485.958 37.2583 485.892 36.9755C485.635 35.882 484.969 34.9541 484.016 34.3627C483.625 34.1198 483.204 33.95 482.769 33.847C482.874 31.1853 485.061 29.0509 487.741 29.0509C490.413 29.0509 492.594 31.1711 492.712 33.8207C490.651 34.0856 489.052 35.8515 489.052 37.988C489.052 38.2787 489.287 38.5137 489.577 38.5137C489.867 38.5137 490.101 38.2787 490.101 37.988C490.101 36.2484 491.512 34.8337 493.248 34.8337C494.983 34.8337 496.418 36.2484 496.418 37.988C496.418 38.0027 496.418 38.6856 496.418 39.5651C496.418 39.8553 496.653 40.0909 496.943 40.0909C497.232 40.0909 497.467 39.8553 497.467 39.5651V37.988C497.467 35.8442 495.832 34.0725 493.76 33.8175Z" fill="#ABCADD"/>
<path d="M488.552 52.1828C485.944 52.1828 483.574 50.8117 482.258 48.6137C480.943 50.8117 478.573 52.1828 475.965 52.1828C475.676 52.1828 475.441 51.9478 475.441 51.6571C475.441 51.3664 475.676 51.1314 475.965 51.1314C478.51 51.1314 480.791 49.6073 481.775 47.2485L482.258 46.0887L482.742 47.2485C483.726 49.6068 486.006 51.1314 488.552 51.1314C488.841 51.1314 489.076 51.3664 489.076 51.6571C489.076 51.9478 488.842 52.1828 488.552 52.1828Z" fill="#ABCADD"/>
<path d="M494.791 44.7571C494.55 42.6653 492.775 41.034 490.625 41.034C488.312 41.034 486.43 42.9208 486.43 45.2397C486.43 45.5299 486.665 45.7654 486.954 45.7654C487.244 45.7654 487.479 45.5299 487.479 45.2397C487.479 43.5001 488.89 42.0854 490.625 42.0854C492.2 42.0854 493.504 43.252 493.732 44.7676C492.266 45.0352 491.15 46.3221 491.15 47.8683C491.15 48.1584 491.384 48.394 491.674 48.394C491.963 48.394 492.198 48.1584 492.198 47.8683C492.198 46.7085 493.139 45.7654 494.296 45.7654C495.453 45.7654 496.394 46.7085 496.394 47.8683C496.394 48.1584 496.629 48.394 496.918 48.394C497.208 48.394 497.443 48.1584 497.443 47.8683C497.443 46.298 496.291 44.9963 494.791 44.7571Z" fill="#ABCADD"/>
<path d="M894.064 96.0199C891.237 95.3917 888.441 95.9483 886.123 97.3551C884.54 95.0813 882.199 93.382 879.372 92.7539C873.289 91.401 867.31 95.4933 866.024 101.895C866.019 101.92 866.014 101.944 866.009 101.969C865.967 102.182 866.074 102.397 866.263 102.485C866.453 102.572 866.674 102.51 866.795 102.333C869.219 98.828 873.507 97.9992 878.112 99.023C880.939 99.6512 883.282 101.351 884.862 103.624C887.181 102.218 889.979 101.661 892.805 102.289C897.41 103.312 901.01 105.894 901.881 110.13C901.924 110.343 902.102 110.495 902.309 110.495C902.517 110.496 902.694 110.345 902.74 110.133C902.745 110.108 902.749 110.085 902.754 110.061C904.041 103.658 900.148 97.3718 894.064 96.0199Z" fill="#3E0735"/>
<path d="M728.101 47.2875H728.045C728.069 47.4702 728.086 47.6546 728.086 47.8433C728.086 48.1755 727.773 48.4441 727.387 48.4441C727 48.4441 726.687 48.1755 726.687 47.8433C726.687 45.8552 724.806 44.2384 722.492 44.2384C720.178 44.2384 718.297 45.8552 718.297 47.8433C718.297 48.1755 717.984 48.4441 717.597 48.4441C717.211 48.4441 716.898 48.1755 716.898 47.8433C716.898 45.4016 719.03 43.3834 721.777 43.0806C721.619 40.0531 718.712 37.6294 715.15 37.6294C711.576 37.6294 708.66 40.0687 708.521 43.1106C709.1 43.2284 709.662 43.4231 710.183 43.7C711.453 44.376 712.341 45.4364 712.684 46.6861C712.772 47.0093 712.539 47.3326 712.164 47.4089C711.787 47.4816 711.411 47.2845 711.322 46.9619C710.792 45.026 708.526 43.822 706.278 44.278C704.026 44.7334 702.625 46.6777 703.155 48.6129C703.243 48.9355 703.01 49.2588 702.634 49.3351C702.581 49.3459 702.527 49.3507 702.474 49.3507C702.157 49.3507 701.869 49.1639 701.793 48.8875C701.588 48.1359 701.606 47.3842 701.802 46.6801C700.363 46.4992 698.909 46.9661 697.961 47.955C697.081 48.8737 696.824 50.0567 697.139 51.1303C697.14 51.1375 697.144 51.1435 697.145 51.1507C697.359 51.8633 697.823 52.5266 698.533 53.0295C698.831 53.241 698.873 53.6189 698.628 53.8754C698.49 54.0196 698.29 54.0941 698.088 54.0941C697.931 54.0941 697.775 54.0497 697.644 53.9571C696.793 53.3551 696.184 52.5687 695.864 51.6855C693.037 51.0522 690.064 52.0742 688.529 54.2461C687.608 55.5487 687.332 57.082 687.753 58.563C688.174 60.0446 689.24 61.2961 690.756 62.088C691.087 62.2604 691.191 62.6293 690.991 62.9135C690.859 63.0997 690.629 63.2019 690.393 63.2019C690.3 63.2019 690.208 63.1802 690.119 63.1472C691.224 63.7096 692.495 64.0538 693.855 64.1043L699.596 64.1061C703.306 64.055 706.485 62.0874 707.84 59.3044C709.213 62.124 712.457 64.1109 716.231 64.1109C722.786 64.1109 728.118 59.5291 728.118 53.8971V47.8889L728.101 47.2875Z" fill="#D0E8F9"/>
<path d="M723.176 43.1214C723.014 39.4331 719.481 36.4728 715.15 36.4728C710.855 36.4728 707.346 39.3832 707.13 43.0277C706.74 43.0349 706.347 43.0746 705.958 43.1533C704.324 43.4837 703.031 44.4042 702.301 45.5878C700.286 45.2363 698.212 45.8479 696.882 47.2352C696.008 48.1485 695.569 49.2828 695.617 50.455C692.379 49.9539 689.086 51.1904 687.335 53.6657C686.219 55.2429 685.886 57.0988 686.395 58.8916C686.904 60.6845 688.195 62.1997 690.031 63.1586C690.144 63.2181 690.27 63.2463 690.393 63.2463C690.63 63.2463 690.86 63.1436 690.991 62.9579C691.192 62.6737 691.087 62.3048 690.757 62.1324C689.24 61.3405 688.174 60.089 687.753 58.6074C687.332 57.1264 687.608 55.5932 688.529 54.2906C690.065 52.1192 693.037 51.0973 695.864 51.7299C696.185 52.6137 696.794 53.3996 697.645 54.0016C697.775 54.0935 697.932 54.1386 698.089 54.1386C698.291 54.1386 698.491 54.0641 698.629 53.9199C698.875 53.6633 698.831 53.2848 698.533 53.0739C697.823 52.5717 697.359 51.9078 697.145 51.1952C697.145 51.188 697.14 51.182 697.14 51.1748C696.825 50.1011 697.082 48.9181 697.961 47.9995C698.909 47.0105 700.363 46.5437 701.802 46.7245C701.606 47.4293 701.588 48.1803 701.794 48.9319C701.869 49.2089 702.157 49.3952 702.474 49.3952C702.527 49.3952 702.581 49.3897 702.634 49.3795C703.011 49.3032 703.243 48.98 703.155 48.6574C702.625 46.7221 704.026 44.7779 706.279 44.3225C708.527 43.8665 710.793 45.0705 711.323 47.0063C711.412 47.329 711.788 47.526 712.164 47.4533C712.54 47.377 712.773 47.0538 712.684 46.7305C712.342 45.4808 711.454 44.4204 710.184 43.7445C709.662 43.4669 709.101 43.2729 708.521 43.1551C708.661 40.1132 711.577 37.6739 715.151 37.6739C718.713 37.6739 721.621 40.097 721.778 43.1251C719.031 43.4279 716.899 45.446 716.899 47.8877C716.899 48.22 717.211 48.4885 717.598 48.4885C717.985 48.4885 718.297 48.22 718.297 47.8877C718.297 45.8996 720.179 44.2828 722.493 44.2828C724.806 44.2828 726.72 45.8996 726.72 47.8877C726.72 47.9045 726.72 48.685 726.72 49.6902C726.72 50.0218 727.033 50.291 727.419 50.291C727.805 50.291 728.119 50.0218 728.119 49.6902V47.8877C728.118 45.4376 725.938 43.4128 723.176 43.1214Z" fill="#ABCADD"/>
<path d="M716.231 64.1103C712.754 64.1103 709.594 62.5434 707.84 60.0314C706.086 62.5434 702.927 64.1103 699.449 64.1103C699.063 64.1103 698.75 63.8418 698.75 63.5095C698.75 63.1773 699.063 62.9087 699.449 62.9087C702.843 62.9087 705.883 61.1669 707.195 58.4711L707.84 57.1457L708.485 58.4711C709.797 61.1663 712.838 62.9087 716.231 62.9087C716.617 62.9087 716.93 63.1773 716.93 63.5095C716.93 63.8418 716.618 64.1103 716.231 64.1103Z" fill="#ABCADD"/>
<path d="M724.55 55.6238C724.229 53.2332 721.863 51.3688 718.996 51.3688C715.911 51.3688 713.402 53.5252 713.402 56.1753C713.402 56.507 713.715 56.7762 714.101 56.7762C714.487 56.7762 714.8 56.507 714.8 56.1753C714.8 54.1872 716.682 52.5705 718.996 52.5705C721.096 52.5705 722.835 53.9037 723.139 55.6358C721.183 55.9416 719.695 57.4124 719.695 59.1794C719.695 59.5111 720.008 59.7802 720.394 59.7802C720.78 59.7802 721.093 59.5111 721.093 59.1794C721.093 57.854 722.348 56.7762 723.89 56.7762C725.433 56.7762 726.687 57.854 726.687 59.1794C726.687 59.5111 727.001 59.7802 727.387 59.7802C727.772 59.7802 728.086 59.5111 728.086 59.1794C728.086 57.3848 726.55 55.8972 724.55 55.6238Z" fill="#ABCADD"/>
<path d="M84.7709 143.54H84.719C84.7414 143.739 84.7568 143.94 84.7568 144.145C84.7568 144.506 84.4703 144.798 84.1158 144.798C83.7614 144.798 83.4749 144.506 83.4749 144.145C83.4749 141.983 81.75 140.225 79.6291 140.225C77.5081 140.225 75.7833 141.983 75.7833 144.145C75.7833 144.506 75.4968 144.798 75.1423 144.798C74.7879 144.798 74.5014 144.506 74.5014 144.145C74.5014 141.49 76.4557 139.295 78.974 138.966C78.8292 135.674 76.164 133.039 72.8989 133.039C69.623 133.039 66.9501 135.691 66.8219 138.999C67.3533 139.127 67.868 139.339 68.3462 139.64C69.5102 140.375 70.3242 141.528 70.6383 142.886C70.719 143.238 70.5056 143.589 70.1614 143.672C69.8165 143.751 69.4717 143.537 69.3903 143.186C68.9044 141.081 66.8271 139.772 64.7664 140.268C62.7018 140.763 61.4173 142.877 61.9032 144.981C61.9839 145.332 61.7705 145.684 61.4256 145.767C61.3769 145.778 61.3276 145.784 61.2789 145.784C60.9885 145.784 60.7251 145.581 60.6552 145.28C60.4668 144.463 60.4834 143.646 60.6629 142.88C59.3438 142.683 58.0112 143.191 57.1421 144.266C56.3357 145.265 56.1005 146.551 56.3889 147.719C56.3896 147.726 56.3934 147.733 56.3941 147.741C56.5902 148.516 57.0158 149.237 57.6664 149.784C57.9394 150.014 57.9785 150.424 57.7542 150.703C57.6273 150.86 57.444 150.941 57.2587 150.941C57.1151 150.941 56.9716 150.893 56.8517 150.792C56.0717 150.138 55.5134 149.283 55.2198 148.322C52.6284 147.634 49.9036 148.745 48.4961 151.106C47.6519 152.523 47.3987 154.19 47.7846 155.8C48.1705 157.411 49.1479 158.772 50.5382 159.633C50.8407 159.82 50.9369 160.222 50.7529 160.531C50.6324 160.733 50.4209 160.844 50.2049 160.844C50.1196 160.844 50.035 160.821 49.9536 160.785C50.9664 161.396 52.1323 161.77 53.379 161.825L58.6406 161.827C62.0423 161.772 64.9561 159.632 66.1983 156.606C67.4565 159.672 70.4306 161.832 73.8899 161.832C79.8983 161.832 84.7863 156.851 84.7863 150.727V144.194L84.7709 143.54Z" fill="#D0E8F9"/>
<path d="M80.256 139.011C80.1079 135 76.8691 131.782 72.899 131.782C68.9622 131.782 65.7458 134.946 65.5471 138.909C65.1894 138.917 64.8298 138.96 64.4728 139.045C62.9755 139.405 61.7904 140.405 61.1212 141.692C59.274 141.31 57.3728 141.975 56.1537 143.484C55.3519 144.476 54.9494 145.71 54.9936 146.984C52.0259 146.44 49.007 147.784 47.402 150.475C46.379 152.19 46.0733 154.208 46.5399 156.158C47.0065 158.107 48.1904 159.754 49.8729 160.797C49.9767 160.862 50.0921 160.892 50.2056 160.892C50.4222 160.892 50.6331 160.781 50.7536 160.579C50.9375 160.27 50.8414 159.869 50.5389 159.681C49.1486 158.82 48.1711 157.46 47.7853 155.849C47.3994 154.238 47.6526 152.571 48.4968 151.155C49.9043 148.794 52.6291 147.683 55.2205 148.371C55.514 149.332 56.073 150.186 56.8524 150.841C56.9722 150.941 57.1158 150.99 57.2594 150.99C57.4446 150.99 57.628 150.909 57.7549 150.752C57.9798 150.473 57.9401 150.061 57.667 149.832C57.0158 149.286 56.5909 148.564 56.3947 147.789C56.3941 147.781 56.3902 147.775 56.3896 147.767C56.1012 146.6 56.3364 145.313 57.1427 144.314C58.0119 143.239 59.3445 142.732 60.6636 142.928C60.4841 143.695 60.4668 144.511 60.6559 145.328C60.7251 145.63 60.9892 145.832 61.2795 145.832C61.3282 145.832 61.3776 145.826 61.4263 145.815C61.7712 145.732 61.9846 145.381 61.9038 145.03C61.418 142.926 62.7025 140.812 64.767 140.316C66.8277 139.821 68.9051 141.13 69.391 143.235C69.4724 143.585 69.8172 143.8 70.162 143.721C70.5062 143.638 70.7197 143.286 70.6389 142.935C70.3248 141.576 69.5108 140.423 68.3468 139.688C67.8687 139.386 67.354 139.175 66.8226 139.047C66.9508 135.74 69.6236 133.087 72.8996 133.087C76.1647 133.087 78.8305 135.722 78.9747 139.015C76.4563 139.344 74.502 141.538 74.502 144.193C74.502 144.554 74.7885 144.846 75.143 144.846C75.4974 144.846 75.784 144.554 75.784 144.193C75.784 142.031 77.5088 140.273 79.6297 140.273C81.7507 140.273 83.505 142.031 83.505 144.193C83.505 144.211 83.505 145.06 83.505 146.153C83.505 146.513 83.7922 146.806 84.146 146.806C84.4998 146.806 84.787 146.513 84.787 146.153V144.193C84.7863 141.529 82.7884 139.327 80.256 139.011Z" fill="#ABCADD"/>
<path d="M73.8898 161.832C70.7023 161.832 67.8064 160.128 66.1983 157.397C64.5901 160.128 61.6942 161.832 58.5067 161.832C58.1529 161.832 57.8657 161.54 57.8657 161.179C57.8657 160.817 58.1529 160.525 58.5067 160.525C61.6173 160.525 64.4042 158.631 65.6073 155.7L66.1983 154.259L66.7892 155.7C67.9917 158.631 70.7792 160.525 73.8898 160.525C74.2437 160.525 74.5308 160.817 74.5308 161.179C74.5308 161.54 74.2443 161.832 73.8898 161.832Z" fill="#ABCADD"/>
<path d="M81.5155 152.604C81.2219 150.005 79.0523 147.978 76.4243 147.978C73.597 147.978 71.2966 150.323 71.2966 153.204C71.2966 153.565 71.5837 153.857 71.9375 153.857C72.2913 153.857 72.5785 153.565 72.5785 153.204C72.5785 151.042 74.3033 149.285 76.4243 149.285C78.3491 149.285 79.9432 150.734 80.222 152.617C78.4292 152.95 77.0653 154.549 77.0653 156.47C77.0653 156.831 77.3524 157.124 77.7062 157.124C78.06 157.124 78.3472 156.831 78.3472 156.47C78.3472 155.029 79.4971 153.857 80.9111 153.857C82.325 153.857 83.4749 155.029 83.4749 156.47C83.4749 156.831 83.7621 157.124 84.1159 157.124C84.4697 157.124 84.7568 156.831 84.7568 156.47C84.7568 154.519 83.3493 152.902 81.5155 152.604Z" fill="#ABCADD"/>
<path d="M44.9723 184.781L41.9818 185.525L41.0284 185.013L42.0453 184.76C42.1494 184.734 42.2101 184.635 42.1823 184.539C42.1544 184.444 42.0487 184.386 41.9454 184.412L40.5543 184.758L39.6028 184.248L40.555 183.736L41.9454 184.083C41.9624 184.087 41.9791 184.089 41.9957 184.089C42.0813 184.089 42.1598 184.036 42.1827 183.956C42.2098 183.86 42.149 183.761 42.0456 183.735L41.0288 183.482L41.9829 182.97L44.9727 183.715C44.9893 183.719 45.006 183.721 45.0226 183.721C45.1081 183.721 45.1863 183.668 45.2088 183.587C45.2367 183.491 45.1755 183.393 45.0718 183.367L42.4563 182.715L43.6249 182.088L44.766 182.373C44.783 182.377 44.7996 182.379 44.8163 182.379C44.9018 182.379 44.9804 182.326 45.0032 182.245C45.0303 182.149 44.9696 182.051 44.8662 182.025L44.0991 181.834L44.9494 181.377C45.0416 181.327 45.0733 181.217 45.0207 181.131C44.9669 181.044 44.8488 181.015 44.7559 181.065L43.9063 181.521L44.1111 180.809C44.1389 180.713 44.0778 180.614 43.974 180.588C43.8699 180.564 43.7646 180.62 43.7368 180.716L43.4314 181.777L42.2632 182.405L42.9642 179.972C42.9916 179.876 42.9309 179.778 42.8271 179.752C42.7222 179.727 42.6177 179.783 42.5899 179.88L41.7894 182.66L40.8353 183.172L41.1082 182.226C41.1353 182.13 41.0741 182.032 40.9711 182.006C40.8662 181.981 40.7621 182.037 40.7339 182.133L40.3611 183.427L39.4097 183.937V182.914L40.4277 181.967C40.5032 181.897 40.5032 181.782 40.4277 181.712C40.3526 181.642 40.2295 181.642 40.154 181.712L39.4097 182.405V181.38L41.597 179.345C41.6725 179.274 41.6725 179.16 41.597 179.09C41.5219 179.02 41.3989 179.02 41.3234 179.09L39.4097 180.871V179.616L40.245 178.839C40.3201 178.769 40.3201 178.655 40.245 178.585C40.1695 178.515 40.0464 178.515 39.9713 178.585L39.4097 179.107V178.194C39.4097 178.094 39.3222 178.014 39.2162 178.014C39.1097 178.014 39.0226 178.094 39.0226 178.194V179.107L38.4606 178.584C38.3851 178.514 38.2624 178.514 38.1869 178.584C38.1115 178.655 38.1115 178.769 38.1869 178.839L39.0222 179.616V180.87L37.1086 179.09C37.0331 179.019 36.9104 179.019 36.8349 179.09C36.7594 179.16 36.7594 179.274 36.8349 179.344L39.0226 181.38V182.405L38.2783 181.712C38.2028 181.642 38.0793 181.642 38.0046 181.712C37.9292 181.782 37.9292 181.896 38.0046 181.966L39.0226 182.914V183.936L38.0708 183.425L37.6981 182.131C37.6702 182.035 37.5645 181.979 37.4608 182.004C37.3575 182.029 37.2963 182.128 37.3238 182.224L37.5959 183.17L36.6418 182.657L35.8417 179.877C35.8138 179.781 35.7085 179.725 35.6044 179.75C35.5007 179.775 35.4399 179.875 35.467 179.97L36.1684 182.402L34.9994 181.775L34.6944 180.714C34.6673 180.617 34.562 180.561 34.4579 180.586C34.3542 180.612 34.2934 180.711 34.3205 180.807L34.526 181.52L33.6764 181.063C33.5847 181.014 33.4655 181.043 33.412 181.129C33.3582 181.215 33.39 181.326 33.4829 181.375L34.3333 181.832L33.5653 182.024C33.462 182.049 33.4012 182.148 33.4283 182.244C33.4519 182.325 33.5305 182.378 33.6145 182.378C33.6319 182.378 33.6485 182.376 33.6656 182.371L34.8067 182.087L35.9752 182.714L33.3598 183.366C33.2553 183.391 33.1941 183.49 33.2228 183.586C33.2464 183.667 33.3242 183.72 33.4093 183.72C33.426 183.72 33.4426 183.718 33.4593 183.713L36.449 182.968L37.4024 183.48L36.3855 183.734C36.2822 183.759 36.2214 183.858 36.2485 183.954C36.2721 184.035 36.3507 184.088 36.4347 184.088C36.4513 184.088 36.468 184.086 36.4858 184.082L37.8761 183.735L38.8283 184.246L37.8765 184.758L36.4846 184.411C36.3832 184.385 36.2764 184.443 36.2485 184.539C36.2214 184.635 36.2822 184.733 36.3855 184.758L37.4024 185.012L36.4482 185.524L33.4589 184.78C33.3579 184.755 33.2499 184.811 33.2224 184.907C33.1941 185.004 33.2557 185.102 33.3594 185.127L35.9748 185.779L34.8059 186.407L33.6656 186.123C33.5615 186.097 33.4566 186.153 33.4283 186.25C33.4012 186.346 33.462 186.445 33.5653 186.47L34.3325 186.661L33.4817 187.118C33.39 187.168 33.3582 187.278 33.4109 187.365C33.4469 187.422 33.5119 187.455 33.5785 187.455C33.6118 187.455 33.6451 187.447 33.6753 187.431L34.5256 186.974L34.3201 187.687C34.2934 187.783 34.3542 187.881 34.4571 187.907C34.4738 187.911 34.4904 187.913 34.5071 187.913C34.593 187.913 34.6708 187.86 34.6936 187.779L34.999 186.718L36.1672 186.092L35.4658 188.524C35.4391 188.621 35.4999 188.719 35.6029 188.744C35.6199 188.749 35.6365 188.75 35.6532 188.75C35.7387 188.75 35.8173 188.698 35.8394 188.617L36.6398 185.837L37.594 185.324L37.3218 186.27C37.2951 186.366 37.3559 186.465 37.4589 186.49C37.4755 186.494 37.4922 186.496 37.5088 186.496C37.5947 186.496 37.6725 186.444 37.6958 186.363L38.0681 185.069L39.0199 184.558V185.58L38.0019 186.527C37.9264 186.597 37.9264 186.712 38.0019 186.782C38.077 186.852 38.2001 186.852 38.2756 186.782L39.0211 186.091V187.116L36.8334 189.152C36.7579 189.221 36.7579 189.336 36.8334 189.406C36.9088 189.476 37.0315 189.476 37.107 189.406L39.0211 187.625V188.879L38.1858 189.656C38.1103 189.726 38.1103 189.841 38.1858 189.911C38.2613 189.98 38.384 189.98 38.4594 189.911L39.0211 189.388V190.302C39.0211 190.4 39.1082 190.482 39.2146 190.482C39.3207 190.482 39.4081 190.4 39.4081 190.302V189.388L39.9698 189.911C40.0077 189.946 40.0573 189.963 40.1068 189.963C40.1567 189.963 40.2059 189.946 40.2438 189.911C40.3185 189.841 40.3185 189.726 40.2438 189.656L39.4081 188.879V187.625L41.3218 189.406C41.3601 189.441 41.4097 189.459 41.4588 189.459C41.5088 189.459 41.5579 189.441 41.5959 189.406C41.6713 189.336 41.6713 189.221 41.5959 189.152L39.4085 187.116V186.091L40.1529 186.784C40.1912 186.819 40.2403 186.837 40.2899 186.837C40.3391 186.837 40.3894 186.819 40.4269 186.784C40.5024 186.714 40.5024 186.6 40.4269 186.529L39.4085 185.582V184.56L40.3603 185.071L40.7327 186.364C40.7567 186.445 40.8345 186.498 40.9193 186.498C40.9351 186.498 40.9529 186.496 40.9696 186.492C41.0733 186.466 41.1345 186.367 41.1066 186.271L40.8345 185.326L41.7879 185.838L42.5883 188.619C42.6119 188.699 42.6905 188.752 42.7753 188.752C42.7919 188.752 42.8086 188.75 42.8256 188.746C42.9293 188.72 42.9901 188.621 42.9626 188.525L42.2612 186.093L43.4306 186.721L43.736 187.781C43.76 187.862 43.8374 187.915 43.9225 187.915C43.9388 187.915 43.9558 187.913 43.9725 187.908C44.0762 187.883 44.1374 187.783 44.1095 187.688L43.9047 186.975L44.7544 187.432C44.7853 187.449 44.8186 187.456 44.8511 187.456C44.9177 187.456 44.9835 187.424 45.0195 187.366C45.0733 187.28 45.0416 187.17 44.9479 187.12L44.0983 186.663L44.8647 186.471C44.9684 186.447 45.0296 186.347 45.0017 186.252C44.9738 186.155 44.8685 186.098 44.7644 186.124L43.6241 186.409L42.4552 185.781L45.0706 185.13C45.1747 185.104 45.2359 185.005 45.2076 184.909C45.1813 184.812 45.0752 184.756 44.9723 184.781Z" fill="white"/>
<path d="M743.372 105.03L740.381 105.774L739.428 105.262L740.445 105.009C740.549 104.984 740.61 104.885 740.582 104.789C740.554 104.693 740.448 104.635 740.345 104.661L738.954 105.008L738.002 104.497L738.955 103.986L740.345 104.333C740.362 104.337 740.379 104.339 740.395 104.339C740.481 104.339 740.559 104.286 740.582 104.205C740.609 104.109 740.548 104.01 740.445 103.985L739.428 103.731L740.382 103.219L743.372 103.964C743.389 103.969 743.405 103.97 743.422 103.97C743.508 103.97 743.586 103.917 743.608 103.837C743.636 103.741 743.575 103.642 743.471 103.616L740.856 102.965L742.024 102.338L743.165 102.622C743.182 102.627 743.199 102.629 743.216 102.629C743.301 102.629 743.38 102.576 743.403 102.495C743.43 102.399 743.369 102.3 743.266 102.275L742.499 102.083L743.349 101.626C743.441 101.576 743.473 101.466 743.42 101.38C743.366 101.294 743.248 101.265 743.155 101.314L742.306 101.771L742.511 101.058C742.538 100.962 742.477 100.864 742.374 100.838C742.269 100.813 742.164 100.869 742.136 100.965L741.831 102.026L740.663 102.654L741.364 100.222C741.391 100.126 741.33 100.027 741.227 100.002C741.122 99.9763 741.017 100.033 740.989 100.129L740.189 102.909L739.235 103.421L739.508 102.476C739.535 102.38 739.474 102.281 739.371 102.255C739.266 102.23 739.162 102.287 739.133 102.383L738.761 103.676L737.809 104.186V103.164L738.827 102.216C738.903 102.146 738.903 102.032 738.827 101.962C738.752 101.891 738.629 101.891 738.554 101.962L737.809 102.654V101.629L739.997 99.594C740.072 99.5238 740.072 99.4096 739.997 99.3394C739.921 99.2692 739.798 99.2692 739.723 99.3394L737.809 101.12V99.8658L738.644 99.0888C738.72 99.0186 738.72 98.9045 738.644 98.8343C738.569 98.764 738.446 98.764 738.371 98.8343L737.809 99.3567V98.4432C737.809 98.3439 737.722 98.2632 737.616 98.2632C737.509 98.2632 737.422 98.3439 737.422 98.4432V99.3563L736.86 98.8339C736.785 98.7637 736.662 98.7637 736.586 98.8339C736.511 98.9041 736.511 99.0182 736.586 99.0885L737.422 99.8655V101.12L735.508 99.3391C735.433 99.2688 735.31 99.2688 735.234 99.3391C735.159 99.4093 735.159 99.5234 735.234 99.5936L737.422 101.629V102.654L736.678 101.961C736.602 101.891 736.479 101.891 736.404 101.961C736.329 102.032 736.329 102.146 736.404 102.216L737.422 103.163V104.185L736.47 103.674L736.098 102.381C736.07 102.285 735.964 102.228 735.86 102.253C735.757 102.279 735.696 102.378 735.723 102.474L735.995 103.419L735.041 102.907L734.241 100.127C734.213 100.031 734.108 99.9742 734.004 99.9994C733.9 100.025 733.839 100.124 733.866 100.22L734.568 102.652L733.399 102.024L733.094 100.963C733.067 100.867 732.962 100.811 732.857 100.836C732.754 100.861 732.693 100.96 732.72 101.056L732.926 101.769L732.076 101.313C731.984 101.264 731.865 101.293 731.812 101.379C731.758 101.465 731.789 101.575 731.882 101.625L732.733 102.082L731.965 102.273C731.861 102.299 731.801 102.398 731.828 102.493C731.851 102.574 731.93 102.627 732.014 102.627C732.031 102.627 732.048 102.625 732.065 102.621L733.206 102.336L734.375 102.963L731.759 103.615C731.655 103.641 731.594 103.74 731.622 103.835C731.646 103.916 731.724 103.969 731.809 103.969C731.825 103.969 731.842 103.967 731.859 103.963L734.848 103.218L735.802 103.73L734.785 103.983C734.682 104.009 734.621 104.108 734.648 104.204C734.672 104.284 734.75 104.337 734.834 104.337C734.851 104.337 734.867 104.336 734.885 104.331L736.276 103.984L737.228 104.496L736.276 105.007L734.884 104.661C734.783 104.635 734.676 104.692 734.648 104.788C734.621 104.884 734.682 104.983 734.785 105.008L735.802 105.262L734.848 105.774L731.858 105.029C731.757 105.004 731.649 105.06 731.622 105.157C731.594 105.253 731.655 105.352 731.759 105.376L734.374 106.029L733.205 106.656L732.065 106.372C731.961 106.346 731.856 106.403 731.828 106.499C731.801 106.596 731.861 106.694 731.965 106.719L732.732 106.911L731.881 107.368C731.789 107.418 731.758 107.527 731.81 107.614C731.846 107.672 731.911 107.704 731.978 107.704C732.011 107.704 732.045 107.697 732.075 107.68L732.925 107.223L732.72 107.936C732.693 108.033 732.754 108.131 732.857 108.156C732.873 108.16 732.89 108.163 732.907 108.163C732.992 108.163 733.07 108.11 733.093 108.029L733.399 106.968L734.567 106.341L733.865 108.773C733.839 108.87 733.899 108.968 734.002 108.993C734.019 108.998 734.036 109 734.053 109C734.138 109 734.217 108.947 734.239 108.866L735.039 106.086L735.993 105.573L735.721 106.519C735.695 106.616 735.755 106.714 735.858 106.739C735.875 106.744 735.892 106.746 735.908 106.746C735.994 106.746 736.072 106.693 736.095 106.612L736.468 105.319L737.419 104.808V105.829L736.401 106.777C736.326 106.847 736.326 106.961 736.401 107.031C736.476 107.101 736.6 107.101 736.675 107.031L737.421 106.341V107.365L735.233 109.401C735.157 109.471 735.157 109.585 735.233 109.656C735.308 109.726 735.431 109.726 735.506 109.656L737.421 107.874V109.129L736.585 109.906C736.51 109.975 736.51 110.09 736.585 110.16C736.661 110.23 736.783 110.23 736.859 110.16L737.421 109.638V110.551C737.421 110.65 737.508 110.731 737.614 110.731C737.72 110.731 737.808 110.65 737.808 110.551V109.638L738.369 110.16C738.407 110.196 738.457 110.213 738.506 110.213C738.556 110.213 738.605 110.195 738.643 110.16C738.718 110.09 738.718 109.975 738.643 109.906L737.808 109.129V107.874L739.721 109.656C739.76 109.691 739.809 109.708 739.858 109.708C739.908 109.708 739.957 109.69 739.995 109.656C740.071 109.585 740.071 109.471 739.995 109.401L737.808 107.365V106.341L738.552 107.033C738.591 107.069 738.64 107.086 738.689 107.086C738.739 107.086 738.789 107.068 738.826 107.033C738.902 106.963 738.902 106.849 738.826 106.779L737.808 105.832V104.809L738.76 105.32L739.132 106.614C739.156 106.695 739.234 106.747 739.319 106.747C739.335 106.747 739.352 106.746 739.369 106.741C739.473 106.715 739.534 106.616 739.506 106.521L739.234 105.576L740.187 106.088L740.988 108.868C741.011 108.949 741.09 109.001 741.175 109.001C741.191 109.001 741.208 109 741.225 108.995C741.329 108.969 741.39 108.87 741.362 108.775L740.661 106.342L741.83 106.97L742.135 108.031C742.159 108.111 742.237 108.164 742.322 108.164C742.338 108.164 742.355 108.162 742.372 108.157C742.476 108.133 742.537 108.033 742.509 107.938L742.304 107.225L743.154 107.682C743.185 107.698 743.218 107.706 743.251 107.706C743.317 107.706 743.383 107.674 743.419 107.616C743.473 107.53 743.441 107.419 743.347 107.37L742.498 106.912L743.264 106.721C743.368 106.696 743.429 106.596 743.401 106.501C743.373 106.404 743.268 106.348 743.164 106.374L742.024 106.659L740.855 106.031L743.47 105.379C743.574 105.353 743.635 105.254 743.607 105.159C743.581 105.062 743.475 105.005 743.372 105.03Z" fill="white"/>
<path d="M968.757 150.767L965.766 151.511L964.813 150.999L965.83 150.746C965.934 150.72 965.995 150.621 965.967 150.526C965.939 150.43 965.833 150.372 965.73 150.398L964.339 150.745L963.387 150.234L964.34 149.723L965.73 150.069C965.747 150.074 965.764 150.076 965.78 150.076C965.866 150.076 965.944 150.023 965.967 149.942C965.994 149.846 965.933 149.747 965.83 149.722L964.813 149.468L965.767 148.956L968.757 149.701C968.774 149.705 968.79 149.707 968.807 149.707C968.893 149.707 968.971 149.654 968.993 149.574C969.021 149.477 968.96 149.379 968.856 149.353L966.241 148.702L967.409 148.074L968.55 148.359C968.567 148.363 968.584 148.365 968.601 148.365C968.686 148.365 968.765 148.312 968.788 148.232C968.815 148.136 968.754 148.037 968.651 148.011L967.884 147.82L968.734 147.363C968.826 147.313 968.858 147.203 968.805 147.117C968.751 147.031 968.633 147.001 968.54 147.051L967.691 147.508L967.896 146.795C967.923 146.699 967.862 146.6 967.759 146.575C967.654 146.55 967.549 146.606 967.521 146.702L967.216 147.763L966.048 148.391L966.749 145.959C966.776 145.863 966.715 145.764 966.612 145.738C966.507 145.713 966.402 145.769 966.374 145.866L965.574 148.646L964.62 149.158L964.893 148.213C964.92 148.116 964.859 148.018 964.756 147.992C964.651 147.967 964.547 148.024 964.518 148.12L964.146 149.413L963.194 149.923V148.9L964.212 147.953C964.288 147.883 964.288 147.769 964.212 147.698C964.137 147.628 964.014 147.628 963.939 147.698L963.194 148.391V147.366L965.382 145.331C965.457 145.261 965.457 145.146 965.382 145.076C965.306 145.006 965.183 145.006 965.108 145.076L963.194 146.857V145.603L964.029 144.826C964.105 144.755 964.105 144.641 964.029 144.571C963.954 144.501 963.831 144.501 963.756 144.571L963.194 145.093V144.18C963.194 144.081 963.107 144 963.001 144C962.894 144 962.807 144.081 962.807 144.18V145.093L962.245 144.571C962.17 144.5 962.047 144.5 961.971 144.571C961.896 144.641 961.896 144.755 961.971 144.825L962.807 145.602V146.857L960.893 145.076C960.818 145.006 960.695 145.006 960.619 145.076C960.544 145.146 960.544 145.26 960.619 145.33L962.807 147.366V148.391L962.063 147.698C961.987 147.628 961.864 147.628 961.789 147.698C961.714 147.768 961.714 147.882 961.789 147.953L962.807 148.9V149.922L961.855 149.411L961.483 148.118C961.455 148.021 961.349 147.965 961.245 147.99C961.142 148.016 961.081 148.115 961.108 148.21L961.38 149.156L960.426 148.644L959.626 145.864C959.598 145.768 959.493 145.711 959.389 145.736C959.285 145.762 959.224 145.861 959.251 145.957L959.953 148.389L958.784 147.761L958.479 146.7C958.452 146.604 958.347 146.547 958.242 146.573C958.139 146.598 958.078 146.697 958.105 146.793L958.311 147.506L957.461 147.05C957.369 147.001 957.25 147.029 957.197 147.116C957.143 147.202 957.174 147.312 957.267 147.361L958.118 147.818L957.35 148.01C957.246 148.035 957.186 148.134 957.213 148.23C957.236 148.311 957.315 148.364 957.399 148.364C957.416 148.364 957.433 148.362 957.45 148.358L958.591 148.073L959.76 148.7L957.144 149.352C957.04 149.377 956.979 149.476 957.007 149.572C957.031 149.653 957.109 149.706 957.194 149.706C957.21 149.706 957.227 149.704 957.244 149.7L960.233 148.955L961.187 149.467L960.17 149.72C960.067 149.746 960.006 149.845 960.033 149.941C960.057 150.021 960.135 150.074 960.219 150.074C960.236 150.074 960.252 150.072 960.27 150.068L961.661 149.721L962.613 150.233L961.661 150.744L960.269 150.397C960.168 150.372 960.061 150.429 960.033 150.525C960.006 150.621 960.067 150.72 960.17 150.745L961.187 150.998L960.233 151.51L957.243 150.766C957.142 150.741 957.034 150.797 957.007 150.894C956.979 150.99 957.04 151.088 957.144 151.113L959.759 151.766L958.59 152.393L957.45 152.109C957.346 152.083 957.241 152.14 957.213 152.236C957.186 152.333 957.246 152.431 957.35 152.456L958.117 152.647L957.266 153.105C957.174 153.155 957.143 153.264 957.195 153.351C957.231 153.409 957.296 153.441 957.363 153.441C957.396 153.441 957.43 153.433 957.46 153.417L958.31 152.96L958.105 153.673C958.078 153.769 958.139 153.868 958.242 153.893C958.258 153.897 958.275 153.899 958.292 153.899C958.377 153.899 958.455 153.847 958.478 153.766L958.784 152.705L959.952 152.078L959.25 154.51C959.224 154.607 959.284 154.705 959.387 154.73C959.404 154.735 959.421 154.736 959.438 154.736C959.523 154.736 959.602 154.684 959.624 154.603L960.424 151.823L961.378 151.31L961.106 152.256C961.08 152.353 961.14 152.451 961.243 152.476C961.26 152.48 961.277 152.483 961.293 152.483C961.379 152.483 961.457 152.43 961.48 152.349L961.853 151.056L962.804 150.544V151.566L961.786 152.513C961.711 152.583 961.711 152.698 961.786 152.768C961.861 152.838 961.985 152.838 962.06 152.768L962.806 152.077V153.102L960.618 155.138C960.542 155.208 960.542 155.322 960.618 155.392C960.693 155.462 960.816 155.462 960.892 155.392L962.806 153.611V154.866L961.97 155.642C961.895 155.712 961.895 155.827 961.97 155.897C962.046 155.967 962.168 155.967 962.244 155.897L962.806 155.374V156.288C962.806 156.387 962.893 156.468 962.999 156.468C963.105 156.468 963.193 156.387 963.193 156.288V155.374L963.754 155.897C963.792 155.933 963.842 155.949 963.891 155.949C963.941 155.949 963.99 155.932 964.028 155.897C964.103 155.827 964.103 155.712 964.028 155.642L963.193 154.866V153.611L965.106 155.392C965.145 155.428 965.194 155.445 965.243 155.445C965.293 155.445 965.342 155.427 965.38 155.392C965.456 155.322 965.456 155.208 965.38 155.138L963.193 153.102V152.077L963.937 152.77C963.976 152.805 964.025 152.823 964.074 152.823C964.124 152.823 964.174 152.805 964.211 152.77C964.287 152.7 964.287 152.586 964.211 152.516L963.193 151.568V150.546L964.145 151.057L964.517 152.35C964.541 152.431 964.619 152.484 964.704 152.484C964.72 152.484 964.737 152.483 964.754 152.478C964.858 152.452 964.919 152.353 964.891 152.257L964.619 151.312L965.572 151.824L966.373 154.605C966.396 154.685 966.475 154.738 966.56 154.738C966.576 154.738 966.593 154.736 966.61 154.732C966.714 154.706 966.775 154.607 966.747 154.511L966.046 152.079L967.215 152.707L967.52 153.768C967.544 153.848 967.622 153.901 967.707 153.901C967.723 153.901 967.74 153.899 967.757 153.894C967.861 153.869 967.922 153.77 967.894 153.675L967.689 152.961L968.539 153.419C968.57 153.435 968.603 153.442 968.636 153.442C968.702 153.442 968.768 153.411 968.804 153.352C968.858 153.267 968.826 153.156 968.732 153.106L967.883 152.649L968.649 152.458C968.753 152.433 968.814 152.333 968.786 152.238C968.758 152.141 968.653 152.085 968.549 152.111L967.409 152.395L966.24 151.767L968.855 151.116C968.959 151.09 969.02 150.991 968.992 150.895C968.966 150.799 968.86 150.742 968.757 150.767Z" fill="white"/>
<path d="M793.195 172.067L790.204 172.811L789.251 172.299L790.268 172.046C790.372 172.02 790.433 171.921 790.405 171.825C790.377 171.73 790.271 171.672 790.168 171.698L788.777 172.044L787.826 171.534L788.778 171.023L790.168 171.369C790.185 171.374 790.202 171.375 790.218 171.375C790.304 171.375 790.383 171.322 790.405 171.242C790.432 171.146 790.372 171.047 790.268 171.021L789.252 170.768L790.206 170.256L793.195 171.001C793.212 171.005 793.229 171.007 793.245 171.007C793.331 171.007 793.409 170.954 793.431 170.873C793.459 170.777 793.398 170.679 793.294 170.653L790.679 170.001L791.848 169.374L792.989 169.659C793.006 169.663 793.022 169.665 793.039 169.665C793.125 169.665 793.203 169.612 793.226 169.532C793.253 169.435 793.192 169.337 793.089 169.311L792.322 169.12L793.172 168.663C793.264 168.613 793.296 168.503 793.243 168.417C793.19 168.33 793.072 168.301 792.979 168.351L792.129 168.807L792.334 168.095C792.362 167.999 792.3 167.9 792.197 167.875C792.093 167.85 791.987 167.906 791.959 168.002L791.654 169.063L790.486 169.691L791.187 167.259C791.214 167.162 791.154 167.064 791.05 167.038C790.945 167.013 790.84 167.069 790.813 167.166L790.012 169.946L789.058 170.458L789.331 169.512C789.358 169.416 789.297 169.318 789.194 169.292C789.089 169.267 788.985 169.323 788.957 169.42L788.584 170.713L787.632 171.223V170.2L788.65 169.253C788.726 169.183 788.726 169.069 788.65 168.998C788.575 168.928 788.452 168.928 788.377 168.998L787.632 169.691V168.666L789.82 166.631C789.895 166.56 789.895 166.446 789.82 166.376C789.745 166.306 789.622 166.306 789.546 166.376L787.632 168.157V166.902L788.468 166.125C788.543 166.055 788.543 165.941 788.468 165.871C788.392 165.801 788.269 165.801 788.194 165.871L787.632 166.393V165.48C787.632 165.381 787.545 165.3 787.439 165.3C787.332 165.3 787.245 165.381 787.245 165.48V166.393L786.683 165.871C786.608 165.8 786.485 165.8 786.41 165.871C786.334 165.941 786.334 166.055 786.41 166.125L787.245 166.902V168.157L785.331 166.376C785.256 166.305 785.133 166.305 785.058 166.376C784.982 166.446 784.982 166.56 785.058 166.63L787.245 168.666V169.691L786.501 168.998C786.426 168.928 786.302 168.928 786.227 168.998C786.152 169.068 786.152 169.182 786.227 169.253L787.245 170.2V171.222L786.294 170.711L785.921 169.417C785.893 169.321 785.787 169.265 785.684 169.29C785.58 169.316 785.519 169.415 785.546 169.51L785.819 170.456L784.864 169.943L784.064 167.163C784.037 167.067 783.931 167.011 783.827 167.036C783.723 167.062 783.663 167.161 783.69 167.256L784.391 169.689L783.222 169.061L782.917 168C782.89 167.903 782.785 167.847 782.681 167.872C782.577 167.898 782.516 167.997 782.543 168.093L782.749 168.806L781.899 168.35C781.807 168.301 781.688 168.329 781.635 168.415C781.581 168.501 781.613 168.612 781.706 168.661L782.556 169.118L781.788 169.31C781.685 169.335 781.624 169.434 781.651 169.53C781.675 169.611 781.753 169.664 781.837 169.664C781.855 169.664 781.871 169.662 781.888 169.658L783.029 169.373L784.198 170L781.583 170.652C781.478 170.677 781.417 170.776 781.445 170.872C781.469 170.953 781.547 171.006 781.632 171.006C781.649 171.006 781.665 171.004 781.682 171L784.672 170.255L785.625 170.767L784.608 171.02C784.505 171.046 784.444 171.145 784.471 171.24C784.495 171.321 784.573 171.374 784.657 171.374C784.674 171.374 784.691 171.372 784.708 171.368L786.099 171.021L787.051 171.532L786.099 172.044L784.707 171.697C784.606 171.671 784.499 171.729 784.471 171.825C784.444 171.921 784.505 172.02 784.608 172.044L785.625 172.298L784.671 172.81L781.682 172.066C781.581 172.041 781.473 172.097 781.445 172.193C781.417 172.29 781.478 172.388 781.582 172.413L784.198 173.065L783.029 173.693L781.888 173.409C781.784 173.383 781.679 173.44 781.651 173.536C781.624 173.633 781.685 173.731 781.788 173.756L782.555 173.947L781.704 174.405C781.613 174.455 781.581 174.564 781.634 174.651C781.67 174.708 781.735 174.741 781.801 174.741C781.834 174.741 781.868 174.733 781.898 174.717L782.748 174.26L782.543 174.973C782.516 175.069 782.577 175.167 782.68 175.193C782.696 175.197 782.713 175.199 782.73 175.199C782.816 175.199 782.894 175.147 782.916 175.066L783.222 174.005L784.39 173.378L783.689 175.81C783.662 175.907 783.723 176.005 783.826 176.03C783.843 176.035 783.859 176.036 783.876 176.036C783.961 176.036 784.04 175.984 784.062 175.903L784.863 173.123L785.817 172.61L785.545 173.556C785.518 173.652 785.579 173.751 785.682 173.776C785.698 173.78 785.715 173.782 785.732 173.782C785.817 173.782 785.895 173.73 785.918 173.649L786.291 172.355L787.243 171.844V172.866L786.225 173.813C786.149 173.883 786.149 173.998 786.225 174.068C786.3 174.138 786.423 174.138 786.498 174.068L787.244 173.377V174.402L785.056 176.438C784.981 176.508 784.981 176.622 785.056 176.692C785.132 176.762 785.254 176.762 785.33 176.692L787.244 174.911V176.166L786.408 176.942C786.333 177.012 786.333 177.127 786.408 177.197C786.484 177.267 786.607 177.267 786.682 177.197L787.244 176.674V177.588C787.244 177.686 787.331 177.768 787.437 177.768C787.543 177.768 787.631 177.686 787.631 177.588V176.674L788.193 177.197C788.23 177.232 788.28 177.249 788.33 177.249C788.379 177.249 788.429 177.232 788.467 177.197C788.541 177.127 788.541 177.012 788.467 176.942L787.631 176.166V174.911L789.545 176.692C789.583 176.728 789.632 176.745 789.682 176.745C789.731 176.745 789.781 176.727 789.819 176.692C789.894 176.622 789.894 176.508 789.819 176.438L787.631 174.402V173.377L788.376 174.07C788.414 174.105 788.463 174.123 788.513 174.123C788.562 174.123 788.612 174.105 788.65 174.07C788.725 174 788.725 173.886 788.65 173.815L787.631 172.868V171.846L788.583 172.357L788.955 173.65C788.979 173.731 789.057 173.784 789.142 173.784C789.158 173.784 789.176 173.782 789.192 173.778C789.296 173.752 789.357 173.653 789.329 173.557L789.057 172.612L790.011 173.124L790.811 175.905C790.835 175.985 790.913 176.038 790.998 176.038C791.015 176.038 791.031 176.036 791.048 176.032C791.152 176.006 791.213 175.907 791.185 175.811L790.484 173.379L791.653 174.007L791.959 175.067C791.983 175.148 792.06 175.201 792.145 175.201C792.162 175.201 792.179 175.199 792.195 175.194C792.299 175.169 792.36 175.07 792.332 174.975L792.127 174.261L792.977 174.719C793.008 174.735 793.041 174.742 793.074 174.742C793.14 174.742 793.206 174.711 793.242 174.652C793.296 174.567 793.264 174.456 793.171 174.406L792.321 173.949L793.087 173.758C793.191 173.733 793.252 173.633 793.224 173.538C793.197 173.441 793.091 173.385 792.987 173.41L791.847 173.695L790.678 173.067L793.293 172.416C793.397 172.39 793.459 172.291 793.43 172.195C793.404 172.098 793.298 172.042 793.195 172.067Z" fill="white"/>
<path d="M276.607 218.299L273.616 219.043L272.663 218.531L273.68 218.278C273.784 218.252 273.845 218.153 273.817 218.058C273.789 217.962 273.683 217.904 273.58 217.93L272.189 218.277L271.237 217.766L272.189 217.255L273.58 217.601C273.597 217.606 273.613 217.608 273.63 217.608C273.716 217.608 273.794 217.555 273.817 217.474C273.844 217.378 273.783 217.279 273.68 217.254L272.663 217L273.617 216.488L276.607 217.233C276.624 217.237 276.64 217.239 276.657 217.239C276.743 217.239 276.821 217.186 276.843 217.106C276.871 217.01 276.81 216.911 276.706 216.885L274.091 216.234L275.259 215.606L276.4 215.891C276.417 215.896 276.434 215.897 276.451 215.897C276.536 215.897 276.615 215.844 276.638 215.764C276.665 215.668 276.604 215.569 276.501 215.543L275.733 215.352L276.584 214.895C276.676 214.845 276.708 214.735 276.655 214.649C276.601 214.563 276.483 214.533 276.39 214.583L275.541 215.04L275.745 214.327C275.773 214.231 275.712 214.132 275.608 214.107C275.504 214.082 275.399 214.138 275.371 214.234L275.066 215.295L273.898 215.923L274.599 213.491C274.626 213.395 274.565 213.296 274.462 213.27C274.357 213.245 274.252 213.301 274.224 213.398L273.424 216.178L272.47 216.69L272.743 215.745C272.77 215.649 272.708 215.55 272.606 215.524C272.501 215.499 272.396 215.556 272.368 215.652L271.995 216.945L271.044 217.455V216.432L272.062 215.485C272.138 215.415 272.138 215.301 272.062 215.231C271.987 215.16 271.864 215.16 271.788 215.231L271.044 215.923V214.898L273.231 212.863C273.307 212.793 273.307 212.678 273.231 212.608C273.156 212.538 273.033 212.538 272.958 212.608L271.044 214.389V213.135L271.879 212.358C271.954 212.287 271.954 212.173 271.879 212.103C271.804 212.033 271.681 212.033 271.606 212.103L271.044 212.626V211.712C271.044 211.613 270.957 211.532 270.851 211.532C270.744 211.532 270.657 211.613 270.657 211.712V212.625L270.095 212.103C270.019 212.033 269.897 212.033 269.821 212.103C269.746 212.173 269.746 212.287 269.821 212.357L270.657 213.134V214.389L268.743 212.608C268.667 212.538 268.545 212.538 268.469 212.608C268.394 212.678 268.394 212.792 268.469 212.862L270.657 214.898V215.923L269.913 215.23C269.837 215.16 269.714 215.16 269.639 215.23C269.564 215.3 269.564 215.415 269.639 215.485L270.657 216.432V217.454L269.705 216.943L269.332 215.65C269.305 215.554 269.199 215.497 269.095 215.522C268.992 215.548 268.931 215.647 268.958 215.743L269.23 216.688L268.276 216.176L267.476 213.396C267.448 213.3 267.343 213.243 267.239 213.268C267.135 213.294 267.074 213.393 267.101 213.489L267.803 215.921L266.634 215.293L266.329 214.232C266.302 214.136 266.196 214.079 266.092 214.105C265.989 214.13 265.928 214.229 265.955 214.325L266.16 215.038L265.311 214.582C265.219 214.533 265.1 214.562 265.046 214.648C264.993 214.734 265.024 214.844 265.117 214.894L265.968 215.35L265.2 215.542C265.096 215.568 265.036 215.667 265.063 215.762C265.086 215.843 265.165 215.896 265.249 215.896C265.266 215.896 265.283 215.894 265.3 215.89L266.441 215.605L267.61 216.232L264.994 216.884C264.89 216.909 264.828 217.008 264.857 217.104C264.881 217.185 264.959 217.238 265.044 217.238C265.06 217.238 265.077 217.236 265.094 217.232L268.083 216.487L269.037 216.999L268.02 217.252C267.917 217.278 267.856 217.377 267.883 217.473C267.906 217.553 267.985 217.606 268.069 217.606C268.086 217.606 268.102 217.604 268.12 217.6L269.51 217.253L270.463 217.765L269.511 218.276L268.119 217.929C268.018 217.904 267.911 217.961 267.883 218.057C267.856 218.153 267.917 218.252 268.02 218.277L269.037 218.53L268.083 219.042L265.093 218.298C264.992 218.273 264.884 218.329 264.857 218.426C264.828 218.522 264.89 218.62 264.994 218.645L267.609 219.298L266.44 219.925L265.3 219.641C265.196 219.615 265.091 219.672 265.063 219.768C265.036 219.865 265.096 219.963 265.2 219.988L265.967 220.179L265.116 220.637C265.024 220.687 264.993 220.796 265.045 220.883C265.081 220.941 265.146 220.973 265.213 220.973C265.246 220.973 265.279 220.965 265.31 220.949L266.16 220.492L265.954 221.205C265.928 221.301 265.989 221.4 266.092 221.425C266.108 221.429 266.125 221.431 266.141 221.431C266.227 221.431 266.305 221.379 266.328 221.298L266.633 220.237L267.802 219.61L267.1 222.042C267.074 222.139 267.134 222.237 267.237 222.262C267.254 222.267 267.271 222.269 267.288 222.269C267.373 222.269 267.452 222.216 267.474 222.135L268.274 219.355L269.228 218.842L268.956 219.788C268.93 219.885 268.99 219.983 269.093 220.008C269.11 220.012 269.127 220.015 269.143 220.015C269.229 220.015 269.307 219.962 269.33 219.881L269.702 218.588L270.654 218.076V219.098L269.636 220.046C269.561 220.115 269.561 220.23 269.636 220.3C269.711 220.37 269.834 220.37 269.91 220.3L270.655 219.61V220.634L268.468 222.67C268.392 222.74 268.392 222.854 268.468 222.925C268.543 222.994 268.666 222.994 268.741 222.925L270.655 221.143V222.398L269.82 223.174C269.745 223.244 269.745 223.359 269.82 223.429C269.896 223.499 270.018 223.499 270.094 223.429L270.655 222.907V223.82C270.655 223.919 270.743 224 270.849 224C270.955 224 271.043 223.919 271.043 223.82V222.907L271.604 223.429C271.642 223.465 271.692 223.482 271.741 223.482C271.791 223.482 271.84 223.464 271.878 223.429C271.953 223.359 271.953 223.244 271.878 223.174L271.043 222.398V221.143L272.956 222.925C272.995 222.96 273.044 222.977 273.093 222.977C273.143 222.977 273.192 222.959 273.23 222.925C273.306 222.854 273.306 222.74 273.23 222.67L271.043 220.634V219.61L271.787 220.302C271.826 220.338 271.875 220.355 271.924 220.355C271.973 220.355 272.024 220.337 272.061 220.302C272.137 220.232 272.137 220.118 272.061 220.048L271.043 219.1V218.078L271.995 218.589L272.367 219.882C272.391 219.963 272.469 220.016 272.554 220.016C272.57 220.016 272.587 220.015 272.604 220.01C272.708 219.984 272.769 219.885 272.741 219.79L272.469 218.844L273.422 219.356L274.223 222.137C274.246 222.217 274.325 222.27 274.41 222.27C274.426 222.27 274.443 222.268 274.46 222.264C274.564 222.238 274.624 222.139 274.597 222.043L273.896 219.611L275.065 220.239L275.37 221.3C275.394 221.38 275.472 221.433 275.557 221.433C275.573 221.433 275.59 221.431 275.607 221.426C275.711 221.401 275.772 221.302 275.744 221.207L275.539 220.493L276.389 220.951C276.42 220.967 276.453 220.974 276.485 220.974C276.552 220.974 276.618 220.943 276.654 220.884C276.708 220.799 276.676 220.688 276.582 220.639L275.733 220.181L276.499 219.99C276.603 219.965 276.664 219.865 276.636 219.77C276.608 219.673 276.503 219.617 276.399 219.643L275.258 219.927L274.09 219.3L276.705 218.648C276.809 218.622 276.87 218.523 276.842 218.427C276.816 218.331 276.71 218.274 276.607 218.299Z" fill="white"/>
<path d="M701.479 55.3287C699.416 54.7354 697.376 55.261 695.684 56.5897C694.53 54.4422 692.821 52.8373 690.758 52.2441C686.319 50.9664 681.956 54.8313 681.017 60.8774C681.014 60.9006 681.01 60.9241 681.007 60.9473C680.976 61.1482 681.054 61.3515 681.192 61.4342C681.33 61.5172 681.492 61.4578 681.58 61.2913C683.349 57.9808 686.478 57.198 689.838 58.1649C691.901 58.7582 693.611 60.3638 694.764 62.5104C696.456 61.1828 698.498 60.6565 700.561 61.2493C703.921 62.2154 706.548 64.6546 707.183 68.6552C707.215 68.8563 707.345 68.9992 707.496 69C707.647 69.001 707.777 68.8579 707.81 68.6578C707.814 68.6344 707.817 68.6121 707.821 68.5895C708.76 62.5426 705.919 56.6055 701.479 55.3287Z" fill="#3E0735"/>
<path d="M993.687 245.767L990.46 246.511L989.431 245.999L990.528 245.746C990.641 245.72 990.706 245.621 990.676 245.526C990.646 245.43 990.532 245.372 990.42 245.398L988.919 245.745L987.893 245.234L988.92 244.723L990.42 245.069C990.439 245.074 990.457 245.076 990.475 245.076C990.567 245.076 990.652 245.023 990.676 244.942C990.706 244.846 990.64 244.747 990.529 244.722L989.431 244.468L990.461 243.956L993.687 244.701C993.705 244.705 993.723 244.707 993.741 244.707C993.833 244.707 993.918 244.654 993.942 244.574C993.972 244.477 993.906 244.379 993.794 244.353L990.972 243.702L992.233 243.074L993.464 243.359C993.482 243.363 993.5 243.365 993.518 243.365C993.611 243.365 993.695 243.312 993.72 243.232C993.749 243.136 993.684 243.037 993.572 243.011L992.744 242.82L993.662 242.363C993.761 242.313 993.796 242.203 993.739 242.117C993.681 242.031 993.553 242.001 993.453 242.051L992.536 242.508L992.757 241.795C992.787 241.699 992.721 241.6 992.609 241.575C992.497 241.55 992.384 241.606 992.353 241.702L992.024 242.763L990.763 243.391L991.52 240.959C991.549 240.863 991.484 240.764 991.372 240.738C991.259 240.713 991.146 240.769 991.116 240.866L990.252 243.646L989.222 244.158L989.517 243.213C989.546 243.116 989.48 243.018 989.369 242.992C989.256 242.967 989.144 243.024 989.113 243.12L988.711 244.413L987.684 244.923V243.9L988.783 242.953C988.864 242.883 988.864 242.769 988.783 242.698C988.702 242.628 988.569 242.628 988.487 242.698L987.684 243.391V242.366L990.044 240.331C990.126 240.261 990.126 240.146 990.044 240.076C989.963 240.006 989.831 240.006 989.749 240.076L987.684 241.857V240.603L988.585 239.826C988.667 239.755 988.667 239.641 988.585 239.571C988.504 239.501 988.371 239.501 988.29 239.571L987.684 240.093V239.18C987.684 239.081 987.59 239 987.475 239C987.36 239 987.266 239.081 987.266 239.18V240.093L986.66 239.571C986.579 239.5 986.446 239.5 986.365 239.571C986.283 239.641 986.283 239.755 986.365 239.825L987.266 240.602V241.857L985.201 240.076C985.12 240.006 984.987 240.006 984.906 240.076C984.824 240.146 984.824 240.26 984.906 240.33L987.266 242.366V243.391L986.463 242.698C986.382 242.628 986.249 242.628 986.168 242.698C986.086 242.768 986.086 242.882 986.168 242.953L987.266 243.9V244.922L986.239 244.411L985.837 243.118C985.807 243.021 985.693 242.965 985.581 242.99C985.47 243.016 985.404 243.115 985.433 243.21L985.727 244.156L984.697 243.644L983.834 240.864C983.804 240.768 983.69 240.711 983.578 240.736C983.466 240.762 983.4 240.861 983.43 240.957L984.186 243.389L982.925 242.761L982.596 241.7C982.567 241.604 982.453 241.547 982.341 241.573C982.229 241.598 982.163 241.697 982.192 241.793L982.414 242.506L981.497 242.05C981.398 242.001 981.27 242.029 981.212 242.116C981.154 242.202 981.188 242.312 981.289 242.361L982.206 242.818L981.377 243.01C981.266 243.035 981.2 243.134 981.23 243.23C981.255 243.311 981.34 243.364 981.431 243.364C981.449 243.364 981.467 243.362 981.486 243.358L982.717 243.073L983.978 243.7L981.156 244.352C981.043 244.377 980.977 244.476 981.008 244.572C981.033 244.653 981.117 244.706 981.209 244.706C981.227 244.706 981.245 244.704 981.263 244.7L984.489 243.955L985.518 244.467L984.421 244.72C984.309 244.746 984.244 244.845 984.273 244.941C984.298 245.021 984.383 245.074 984.474 245.074C984.492 245.074 984.51 245.072 984.529 245.068L986.029 244.721L987.057 245.233L986.03 245.744L984.528 245.397C984.418 245.372 984.303 245.429 984.273 245.525C984.244 245.621 984.309 245.72 984.421 245.745L985.518 245.998L984.488 246.51L981.263 245.766C981.154 245.741 981.037 245.797 981.007 245.894C980.977 245.99 981.043 246.088 981.155 246.113L983.978 246.766L982.716 247.393L981.486 247.109C981.373 247.083 981.26 247.14 981.23 247.236C981.2 247.333 981.266 247.431 981.377 247.456L982.205 247.647L981.287 248.105C981.188 248.155 981.154 248.264 981.211 248.351C981.25 248.409 981.32 248.441 981.392 248.441C981.428 248.441 981.464 248.433 981.496 248.417L982.414 247.96L982.192 248.673C982.163 248.769 982.229 248.868 982.34 248.893C982.358 248.897 982.376 248.899 982.394 248.899C982.486 248.899 982.57 248.847 982.595 248.766L982.925 247.705L984.185 247.078L983.428 249.51C983.399 249.607 983.465 249.705 983.576 249.73C983.595 249.735 983.613 249.736 983.63 249.736C983.723 249.736 983.808 249.684 983.831 249.603L984.695 246.823L985.725 246.31L985.431 247.256C985.402 247.353 985.468 247.451 985.579 247.476C985.597 247.48 985.615 247.483 985.633 247.483C985.726 247.483 985.81 247.43 985.835 247.349L986.236 246.056L987.264 245.544V246.566L986.165 247.513C986.084 247.583 986.084 247.698 986.165 247.768C986.246 247.838 986.379 247.838 986.46 247.768L987.265 247.077V248.102L984.904 250.138C984.823 250.208 984.823 250.322 984.904 250.392C984.985 250.462 985.118 250.462 985.199 250.392L987.265 248.611V249.866L986.363 250.642C986.282 250.712 986.282 250.827 986.363 250.897C986.445 250.967 986.577 250.967 986.659 250.897L987.265 250.374V251.288C987.265 251.387 987.359 251.468 987.474 251.468C987.588 251.468 987.682 251.387 987.682 251.288V250.374L988.289 250.897C988.329 250.933 988.383 250.949 988.436 250.949C988.49 250.949 988.543 250.932 988.584 250.897C988.665 250.827 988.665 250.712 988.584 250.642L987.682 249.866V248.611L989.747 250.392C989.789 250.428 989.842 250.445 989.895 250.445C989.949 250.445 990.002 250.427 990.043 250.392C990.125 250.322 990.125 250.208 990.043 250.138L987.683 248.102V247.077L988.486 247.77C988.527 247.805 988.58 247.823 988.634 247.823C988.687 247.823 988.741 247.805 988.782 247.77C988.863 247.7 988.863 247.586 988.782 247.516L987.683 246.568V245.546L988.71 246.057L989.112 247.35C989.138 247.431 989.222 247.484 989.313 247.484C989.33 247.484 989.349 247.483 989.367 247.478C989.479 247.452 989.545 247.353 989.515 247.257L989.222 246.312L990.25 246.824L991.114 249.605C991.14 249.685 991.224 249.738 991.316 249.738C991.334 249.738 991.352 249.736 991.37 249.732C991.482 249.706 991.548 249.607 991.518 249.511L990.761 247.079L992.023 247.707L992.353 248.768C992.378 248.848 992.462 248.901 992.554 248.901C992.571 248.901 992.59 248.899 992.608 248.894C992.72 248.869 992.786 248.77 992.756 248.675L992.535 247.961L993.452 248.419C993.485 248.435 993.521 248.442 993.556 248.442C993.628 248.442 993.699 248.411 993.738 248.352C993.796 248.267 993.761 248.156 993.66 248.106L992.744 247.649L993.571 247.458C993.683 247.433 993.749 247.333 993.718 247.238C993.688 247.141 993.575 247.085 993.462 247.111L992.232 247.395L990.97 246.767L993.793 246.116C993.905 246.09 993.971 245.991 993.941 245.895C993.912 245.799 993.798 245.742 993.687 245.767Z" fill="white"/>
</g>
<path fill-rule="evenodd" clip-rule="evenodd" d="M0 317.875L45.125 322.5C90.25 327.125 180.5 336.375 270.75 334.063C361 331.75 451.25 317.875 541.5 320.187C631.75 322.5 722 341 812.25 341C902.5 341 992.75 322.5 1037.88 313.25L1083 304V415H1037.88C992.75 415 902.5 415 812.25 415C722 415 631.75 415 541.5 415C451.25 415 361 415 270.75 415C180.5 415 90.25 415 45.125 415H0V317.875Z" fill="white"/>
<defs>
<linearGradient id="paint0_linear" x1="569.305" y1="230.997" x2="569.305" y2="68.0075" gradientUnits="userSpaceOnUse">
<stop stop-color="#808080" stop-opacity="0.25"/>
<stop offset="0.54" stop-color="#808080" stop-opacity="0.12"/>
<stop offset="1" stop-color="#808080" stop-opacity="0.1"/>
</linearGradient>
</defs>
</svg>
