<svg width="255" height="249" viewBox="0 0 255 249" fill="none" xmlns="http://www.w3.org/2000/svg">
<path d="M244 124.495V125.24C243.983 127.112 243.931 128.975 243.842 130.83C242.26 162.571 228.841 192.493 206.336 214.464C183.831 236.434 153.943 248.789 122.798 248.997C91.6531 249.205 61.6096 237.25 38.8245 215.582C16.0393 193.914 2.23812 164.173 0.249139 132.456C0.0831423 129.822 0.00016887 127.168 0.000182396 124.495C-0.0436077 98.71 7.79854 73.5537 22.4332 52.5337C23.6034 50.8398 24.8206 49.1771 26.0849 47.5454C26.9563 46.4106 27.8527 45.3011 28.7573 44.2002C49.352 19.3033 78.6889 3.63513 110.474 0.55722C142.26 -2.52069 173.961 7.23683 198.777 27.7364C200.246 28.9475 201.69 30.2009 203.101 31.4797C204.23 32.5045 205.339 33.5518 206.429 34.6217C227.896 55.5751 241.109 83.8187 243.577 114.027C243.859 117.483 244 120.972 244 124.495Z" fill="#3035C0"/>
<path d="M26.0849 47.5454C26.1447 47.571 26.2006 47.6052 26.2509 47.647C26.9065 48.1975 26.0849 49.2561 26.1845 50.1284C26.3007 51.2463 27.7614 51.492 28.8652 51.602C29.969 51.7206 31.3633 52.6268 30.8404 53.6261C28.0685 54.6001 25.2633 53.6431 22.4332 52.5336C7.79853 73.5537 -0.0435979 98.71 0.000182315 124.495C0.000182315 127.171 0.0831512 129.825 0.249139 132.456C0.481186 132.629 0.735295 132.768 1.00439 132.871C1.83432 133.193 2.79704 133.133 3.56058 133.591C4.16643 133.955 4.5731 134.598 5.17894 134.937C6.91351 135.903 9.32031 134.048 10.9387 135.2C11.357 135.589 11.7532 136.001 12.1255 136.436C13.6193 137.757 16.0759 136.868 17.8022 137.859C18.9143 138.494 19.487 139.765 20.0845 140.916C21.5701 143.796 23.9769 146.624 27.1555 146.853C28.1581 146.806 29.1626 146.84 30.1599 146.955C31.1392 147.183 32.1019 148.056 31.9443 149.064C31.6704 150.8 32.5086 152.697 32.2845 154.433C31.8779 157.609 27.4709 158.998 27.0974 162.174C27.0962 162.873 27.0574 163.571 26.9813 164.265C26.7821 165.095 26.1679 165.773 25.9521 166.603C25.5372 168.17 26.641 169.736 27.8444 170.787C29.0561 171.845 30.5002 172.76 31.1641 174.233C31.8613 175.8 31.521 177.621 31.745 179.323C32.243 183.041 35.3884 185.794 38.6252 187.572C39.6624 188.015 40.5834 188.699 41.3142 189.571C42.1441 190.799 42.0611 192.416 42.3433 193.882C43.0238 197.464 45.9784 200.42 46.0613 204.07C46.1194 206.67 44.7086 209.024 43.8621 211.472C42.9912 214.038 42.7323 216.778 43.1068 219.466C47.8389 223.562 52.8689 227.285 58.1535 230.603C58.4409 230.17 58.6516 229.688 58.7759 229.18C58.8763 228.619 58.807 228.04 58.5773 227.519C58.3475 226.999 57.9682 226.562 57.4895 226.267C58.3815 225.923 59.1929 225.392 59.8714 224.709C60.2048 224.359 60.425 223.913 60.5022 223.431C60.5793 222.95 60.5098 222.456 60.303 222.016C61.7637 222.202 63.4983 222.295 64.461 221.152C65.2328 220.237 65.183 218.865 64.8759 217.705C64.5689 216.536 64.0543 215.41 64.046 214.199C67.4302 214.367 70.8222 214.251 74.1878 213.852C73.7007 212.176 72.5933 210.761 71.1004 209.905C72.6275 209.642 74.0135 207.779 74.4948 206.28C74.9111 204.751 74.934 203.138 74.5613 201.597C74.4458 201.201 74.4287 200.782 74.5114 200.377C74.757 199.84 75.1886 199.415 75.7232 199.183C78.2461 197.701 80.7691 196.222 83.2921 194.745C83.7423 194.514 84.1517 194.208 84.5038 193.839C85.2922 192.882 85.1761 191.451 84.7694 190.274C84.3627 189.097 83.7154 187.987 83.5577 186.751C83.093 183.05 86.977 180.39 88.2883 176.901C88.7341 175.508 88.9747 174.055 89.002 172.59C89.1099 171.015 89.1182 169.194 87.9398 168.187C86.8027 167.213 85.035 167.433 83.8482 166.527C82.7609 165.697 82.3875 164.096 81.2007 163.427C80.1218 162.817 78.7773 163.207 77.5739 162.919C75.4659 162.419 74.138 159.938 71.9801 159.709C70.7684 159.574 69.3908 160.183 68.3948 159.463C67.5151 158.82 67.4819 157.541 67.3159 156.457C67.0212 154.768 66.227 153.213 65.0401 151.998C63.8532 150.784 62.3304 149.97 60.6765 149.665C59.4233 149.462 58.0622 149.538 56.9916 148.835C55.9127 148.123 55.423 146.794 54.5682 145.803C53.2071 144.219 51.0493 143.652 49.0325 143.169C46.2938 142.517 43.5578 141.862 40.8245 141.204C39.3721 140.849 37.4965 140.662 36.708 141.966C36.4747 142.462 36.3126 142.99 36.2267 143.533C35.9302 144.511 35.339 145.368 34.5373 145.982C33.7355 146.596 32.7642 146.937 31.7617 146.955C31.0754 145.759 29.9636 144.879 28.6577 144.499C27.8044 144.353 26.9616 144.149 26.1347 143.889C25.7029 143.673 25.3187 143.37 25.0058 142.997C24.6929 142.624 24.4578 142.19 24.3148 141.722C24.1719 141.253 24.1242 140.76 24.1745 140.272C24.2248 139.784 24.3722 139.312 24.6076 138.884C25.0783 138.024 25.2593 137.031 25.1228 136.056C24.9864 135.082 24.54 134.18 23.8524 133.489C22.4581 132.21 20.4414 131.897 18.5657 132.024C18.0761 130.931 18.8977 129.703 19.7774 128.907C20.6655 128.12 21.7361 127.34 21.927 126.155C22.234 124.292 19.9019 122.877 18.1342 123.428C16.3664 123.987 15.2377 125.74 14.4908 127.468C14.1285 128.487 13.6345 129.452 13.0218 130.339C12.7079 130.777 12.2812 131.118 11.7891 131.324C11.2969 131.531 10.7585 131.594 10.2332 131.507C8.77257 131.126 8.2165 129.356 7.89283 127.866C7.37416 125.873 7.11191 123.821 7.11268 121.759C7.12537 119.678 7.93558 117.684 9.3701 116.204C11.7852 113.934 15.5033 114.154 18.7649 114.518C18.4155 114.043 18.2481 113.454 18.2939 112.861C18.3398 112.269 18.5957 111.714 19.0139 111.3C19.4504 110.905 19.9749 110.624 20.5418 110.482C21.1088 110.341 21.7011 110.342 22.2672 110.487C23.2506 110.695 24.1365 111.235 24.7819 112.02C25.7114 113.172 25.977 114.739 26.6742 116.043C27.3796 117.355 28.9565 118.473 30.2429 117.77C31.3633 117.161 31.5376 115.585 31.2637 114.324C30.9815 113.07 30.3922 111.842 30.4918 110.555C30.6827 108.107 33.1808 106.625 35.3801 105.617C37.5795 104.61 40.0941 103.246 40.4427 100.807C40.4588 100.333 40.5485 99.8639 40.7083 99.4182C40.9517 99.0202 41.2919 98.6935 41.6959 98.4696C48.1113 94.142 54.6428 89.755 61.9794 87.3922C62.3612 87.2651 62.4027 87.4006 62.7928 87.3075C63.3405 86.9856 62.9754 86.0964 62.4525 85.7407C61.9296 85.385 61.2325 85.1055 61.0997 84.4788C61.0084 84.0215 61.274 83.5642 61.3404 83.0984C61.3577 82.817 61.3072 82.5356 61.1932 82.2788C61.0792 82.0221 60.9052 81.7977 60.6865 81.6255C60.4678 81.4533 60.211 81.3385 59.9387 81.2911C59.6663 81.2437 59.3868 81.2652 59.1245 81.3537C58.5352 80.5577 59.6971 79.6345 60.6433 79.3635C63.4761 78.5716 66.3833 78.089 69.316 77.9238C69.6545 77.8667 70.002 77.9263 70.3036 78.0932C70.5193 78.3055 70.6472 78.594 70.6611 78.8995C70.675 79.205 70.5738 79.5044 70.3784 79.7362C69.9791 80.1887 69.537 80.6 69.0587 80.9642C68.5826 81.4361 68.2426 82.0324 68.0758 82.688C67.9089 83.3436 67.9217 84.0334 68.1127 84.6821C69.648 85.4782 71.3079 86.2997 73.0092 86.0202C74.7023 85.7407 76.2045 83.7928 75.4077 82.243C74.6691 80.7948 72.4366 80.4645 72.0548 78.8808C71.6067 77.0261 74.1794 75.3746 73.5985 73.5622C73.3495 72.7661 72.5693 72.2919 71.9718 71.7245C71.2686 71.0179 70.7903 70.1116 70.5993 69.1236C70.4084 68.1356 70.5135 67.1118 70.9012 66.1857C69.9296 66.3589 68.9315 66.2925 67.9901 65.992C67.0488 65.6914 66.1916 65.1655 65.49 64.458C64.1954 63.1284 63.1662 61.0196 61.3238 61.0874C59.639 61.1382 58.1866 63.1453 56.6097 62.5356C56.2197 62.3831 55.813 62.0782 55.4396 62.2561C55.3164 62.3369 55.2128 62.4452 55.1366 62.5729C55.0604 62.7005 55.0136 62.8441 54.9997 62.9929C54.6014 64.9492 55.2902 67.1766 54.2445 68.8704C53.1075 70.7082 50.4766 70.9622 49.0989 72.6222C48.352 73.5199 48.0615 74.731 47.3726 75.6795C46.6838 76.628 45.2314 77.2378 44.4015 76.4078C44.8079 75.5576 44.9192 74.5917 44.7172 73.6684C44.5151 72.7452 44.0117 71.9194 43.2894 71.3264C42.525 70.8144 41.6994 70.4046 40.8328 70.1069C39.8647 69.69 38.9437 69.1675 38.0857 68.5486C37.6581 68.2828 37.3106 67.9019 37.0815 67.4476C36.9002 66.8765 36.9237 66.2581 37.1479 65.703C37.5681 64.4799 38.307 63.3967 39.2853 62.5701C40.2636 61.7434 41.4442 61.2044 42.7001 61.0112C43.7956 60.8587 45.0737 60.9095 45.8041 60.0542C46.1858 59.6053 46.385 58.9193 46.9494 58.7415C47.3049 58.6658 47.6749 58.7104 48.0034 58.8685C49.3728 59.3598 50.7339 59.851 52.1033 60.3422C52.5599 60.5559 53.0643 60.6407 53.5639 60.5877C53.8116 60.5552 54.0377 60.4276 54.1965 60.231C54.3553 60.0343 54.4348 59.7834 54.4188 59.5291C54.286 58.8347 53.2402 58.5044 53.3398 57.8014C53.3882 57.5718 53.5075 57.364 53.6801 57.2086C55.1604 55.602 56.9702 54.349 58.9803 53.5394C60.9904 52.7298 63.1509 52.3834 65.3075 52.5252C65.822 53.3975 65.0087 54.4223 64.3199 55.1591C63.6393 55.9044 63.0916 57.2255 63.9215 57.793C64.2563 57.9721 64.6309 58.0597 65.0087 58.047C66.0179 58.1852 66.9987 58.4883 67.9135 58.9448C69.3327 59.5715 70.727 60.2659 72.088 61.0112C71.8877 60.1032 71.922 59.1576 72.1876 58.2672C72.3376 57.8302 72.6416 57.4657 73.0406 57.245C73.4395 57.0242 73.9047 56.9629 74.3455 57.0731C75.1588 57.3949 75.5737 58.4959 76.4452 58.5975C77.5988 58.733 78.0552 56.9884 77.5739 55.9044C77.0925 54.8203 76.1298 53.9226 76.0551 52.7285C75.997 51.9324 76.2958 50.9415 75.6733 50.4588C75.452 50.3092 75.1987 50.2162 74.9347 50.1878C69.7227 49.2138 64.508 48.2371 59.2905 47.2575C58.361 47.0797 57.0248 47.2152 56.9833 48.1722C56.9584 48.7142 57.4314 49.2477 57.2239 49.7389C56.9999 50.264 56.2695 50.2217 55.7384 50.408C55.3393 50.5927 55.01 50.9051 54.8004 51.2978C54.5907 51.6905 54.5121 52.1422 54.5764 52.5845C54.7183 53.4651 55.0531 54.3018 55.5558 55.0321C54.5349 54.6001 52.9996 54.5239 51.9788 54.0835C51.8303 52.8773 51.529 51.6959 51.0824 50.5689C51.0569 50.3895 50.9932 50.218 50.8957 50.0665C50.7983 49.915 50.6694 49.7871 50.5183 49.6918C50.3672 49.5966 50.1975 49.5362 50.0211 49.5151C49.8447 49.494 49.6659 49.5126 49.4972 49.5695C48.1528 49.7813 46.8083 49.9845 45.4638 50.1962C45.1262 50.2126 44.8029 50.3404 44.5426 50.5604C44.0197 51.1278 44.5343 52.034 44.5177 52.8132C44.469 53.2488 44.2887 53.6583 44.0017 53.9845C43.7146 54.3108 43.3351 54.5378 42.9159 54.634C42.0712 54.809 41.1996 54.7975 40.3597 54.6001C38.4758 54.3037 36.6001 54.0073 34.7162 53.7109C36.3791 53.1701 37.8581 52.1601 38.982 50.7976C39.729 49.8998 40.1273 48.223 39.0484 47.7995C38.7298 47.7102 38.3973 47.6844 38.0691 47.7233C35.5129 47.7402 33.4962 45.5637 31.106 44.6406C30.3544 44.3545 29.5594 44.2054 28.7573 44.2002L26.0849 47.5454Z" fill="#39EE56"/>
<path d="M243.842 130.83C243.55 131.231 243.165 131.552 242.722 131.766C242.28 131.98 241.792 132.08 241.303 132.058C238.705 131.829 237.61 128.01 235.037 127.578C234.809 127.518 234.568 127.542 234.356 127.645C233.974 127.857 233.908 128.382 233.883 128.823C233.775 131.008 233.684 133.277 234.522 135.293C235.742 138.24 238.904 140.713 238.24 143.838C234.672 142.153 232.813 138.062 231.974 134.141C231.128 130.22 230.995 126.104 229.484 122.395C228.331 123.894 225.924 122.657 224.878 121.082C223.882 119.591 223.268 117.864 222.306 116.348C221.343 114.84 219.866 113.485 218.106 113.401C216.255 113.316 214.645 114.612 213.234 115.84C212.007 116.765 210.977 117.934 210.205 119.278C209.218 121.311 209.475 123.699 209.425 125.96C209.375 128.399 208.869 130.982 207.234 132.778C205.599 134.565 202.586 135.191 200.785 133.574C199.915 132.647 199.294 131.506 198.985 130.262C197.027 124.44 195.397 118.507 194.105 112.494C193.806 113.866 192.619 115.636 191.49 114.832C191.238 114.613 191.034 114.341 190.893 114.036C188.785 110.403 184.892 108.218 180.95 106.905C177.016 105.601 172.875 104.991 168.983 103.551C166.8 102.742 164.714 101.682 162.766 100.392C162.272 101.136 161.983 102.002 161.93 102.899C161.877 103.797 162.063 104.692 162.468 105.49C162.905 106.272 163.583 106.884 164.397 107.232C165.21 107.579 166.113 107.643 166.966 107.413C167.829 107.125 168.559 106.515 169.414 106.21C170.269 105.914 171.422 106.058 171.796 106.905C172.161 107.709 171.613 108.683 171.887 109.53C172.294 110.809 174.194 110.911 174.858 112.079C175.054 112.542 175.098 113.057 174.986 113.547C174.874 114.038 174.611 114.479 174.236 114.806C173.472 115.442 172.629 115.972 171.73 116.382C168.941 117.965 166.957 120.667 164.517 122.767C162.077 124.876 158.633 126.409 155.729 125.062C156.417 121.48 152.243 118.855 151.471 115.289C151.214 114.112 151.346 112.867 150.99 111.724C150.467 110.064 149.023 108.929 147.844 107.675C146.412 106.137 145.297 104.321 144.563 102.336C143.829 100.351 143.491 98.2356 143.57 96.1153C143.636 94.6417 143.902 93.1426 143.57 91.7029C143.246 90.2717 142.076 88.8827 140.632 88.942C137.337 89.0945 133.179 89.3485 131.453 86.4775C130.831 85.4528 130.565 83.9538 131.461 83.1662C132.092 82.6157 133.022 82.6665 133.843 82.7512C136.325 82.9968 138.798 83.2509 141.279 83.4965C143.014 83.6658 144.89 83.8098 146.383 82.8867C147.877 81.9636 148.525 79.4991 147.139 78.4066C146.134 77.6105 144.325 77.6528 144.026 76.3909C143.786 75.3323 144.931 74.1382 144.309 73.2489C143.869 72.6222 142.873 72.7916 142.267 73.2659C141.738 73.826 141.164 74.3388 140.549 74.7988C139.362 75.4255 137.951 74.8242 136.673 74.4177C135.395 74.0112 133.686 73.9773 133.071 75.1884C132.374 76.5349 133.677 78.3134 132.997 79.6685C132.084 81.4554 129.013 80.4391 127.735 81.9805C126.274 83.7421 128.731 86.3844 128.241 88.6372C127.611 88.9562 126.91 89.1029 126.207 89.0628C125.505 89.0227 124.824 88.7973 124.233 88.4085C123.652 88.0054 123.189 87.4491 122.894 86.7988C122.599 86.1485 122.482 85.4287 122.556 84.716C122.672 83.6997 123.195 82.658 122.847 81.701C122.471 80.962 121.85 80.3828 121.095 80.0665C118.689 78.703 116.282 77.3451 113.875 75.9929C113.203 77.2633 114.049 78.83 115.112 79.787C116.166 80.7356 117.493 81.4554 118.191 82.7088C118.632 83.5775 118.732 84.5854 118.47 85.5267C118.207 86.4679 117.603 87.2715 116.78 87.7733C116.676 87.8465 116.557 87.8957 116.432 87.9176C116.308 87.9395 116.18 87.9337 116.058 87.9003C115.943 87.8314 115.842 87.7398 115.762 87.6307C115.683 87.5216 115.625 87.3973 115.593 87.2652C114.323 83.9369 112.406 80.6593 109.352 78.9232C106.289 77.1786 101.899 77.5427 99.8906 80.4646C99.4175 81.159 99.0939 81.9551 98.6789 82.6919C96.4796 86.5961 91.749 88.4424 87.3337 88.3238C86.9019 88.3521 86.4715 88.2489 86.0971 88.0274C85.3834 87.5277 85.4166 86.4606 85.5245 85.5798C85.6822 84.3349 85.8316 83.0984 85.9893 81.8535C85.9931 81.0933 86.281 80.3633 86.7943 79.8124C87.6159 79.1519 88.7944 79.5668 89.8402 79.5499C90.6294 79.514 91.3885 79.2304 92.0139 78.7378C92.6392 78.2451 93.1003 77.5675 93.3342 76.7975C93.5445 76.0204 93.5428 75.1995 93.3293 74.4233C93.1157 73.6472 92.6984 72.9454 92.1225 72.3936C91.6494 71.9363 91.0104 71.3604 91.2593 70.7421C91.3605 70.5718 91.4968 70.4261 91.6588 70.3149C91.8207 70.2038 92.0044 70.1299 92.1972 70.0985C94.0645 69.548 96.048 69.404 97.8822 68.7435C99.7246 68.0913 101.509 66.7532 101.949 64.8138C102.082 64.221 102.14 63.5012 102.663 63.2047C102.927 63.0966 103.208 63.0392 103.493 63.0353C104.49 62.8894 105.399 62.368 106.039 61.5735C106.679 60.779 107.006 59.7688 106.953 58.7415C107.833 58.1148 109.07 58.5806 109.924 59.2497C110.771 59.9187 111.526 60.7995 112.564 61.0875C114.497 61.6295 116.365 59.8764 118.373 59.8679C119.22 59.8679 120.091 60.1728 120.88 59.8764C121.685 59.58 122.166 58.7669 122.78 58.1657C123.403 57.5559 124.481 57.1917 125.054 57.8438C124.888 56.6158 124.73 55.3963 124.564 54.1767C125.542 54.428 126.561 54.4628 127.553 54.2787C128.545 54.0947 129.487 53.696 130.316 53.1096C128.225 52.3898 126.141 51.6699 124.05 50.95C123.83 50.8948 123.628 50.7841 123.461 50.6282C123.004 50.1285 123.461 49.3494 123.826 48.782C124.714 47.4185 124.863 45.1742 123.403 44.4966C122.407 44.0309 121.27 44.5898 120.315 45.1318C118.788 45.9957 117.261 46.868 115.734 47.7318C115.593 48.6211 116.655 49.1292 117.311 49.722C117.71 50.0837 117.993 50.5603 118.122 51.0892C118.251 51.618 118.22 52.1743 118.033 52.6849C117.847 53.1954 117.513 53.6363 117.076 53.9494C116.638 54.2626 116.119 54.4334 115.585 54.4393C115.885 54.8399 116.094 55.3043 116.196 55.7981C116.298 56.292 116.291 56.8029 116.174 57.2933C115.153 57.3696 114.124 57.4458 113.095 57.522C112.924 57.5568 112.748 57.5567 112.577 57.5218C112.406 57.487 112.244 57.4179 112.099 57.3187C111.767 57.0223 111.817 56.4973 111.734 56.0569C111.597 55.5305 111.309 55.058 110.907 54.7002C110.504 54.3425 110.006 54.1159 109.476 54.0497C108.419 53.9284 107.349 54.0292 106.331 54.3461C105.888 54.5052 105.404 54.4931 104.97 54.3122C104.723 54.1459 104.537 53.9021 104.439 53.6178C104.258 53.037 104.227 52.4186 104.349 51.8222C104.472 51.2258 104.742 50.6716 105.136 50.2133C105.933 49.3101 106.811 48.485 107.758 47.7488C109.906 45.8302 111.484 43.3366 112.315 40.5501C114.008 39.8218 115.759 38.8394 117.46 38.111C118.828 37.4642 120.261 36.9729 121.734 36.6459C123.121 36.4298 124.525 36.3617 125.926 36.4426C127.834 36.4765 129.752 36.5104 131.66 36.5527C133.364 36.4797 135.067 36.7295 136.682 37.2895C138.25 37.9501 139.636 39.3814 139.744 41.1091C139.777 41.306 139.759 41.5081 139.694 41.6963C139.629 41.8846 139.517 42.0526 139.37 42.1846C139.15 42.309 138.9 42.3676 138.648 42.354C137.063 42.4048 136.391 42.8113 134.806 42.8706C135.81 43.9631 136.939 45.1149 138.399 45.3097C140.972 45.6484 142.823 42.9299 144.01 40.567C144.052 41.1685 144.323 41.7292 144.765 42.1295C145.207 42.5298 145.785 42.738 146.375 42.7097C147.011 42.5981 147.618 42.3561 148.159 41.9983C153.264 39.1515 158.982 37.644 164.8 37.6114C164.743 37.162 164.851 36.7069 165.104 36.3345C165.357 35.9621 165.737 35.6988 166.169 35.5957C167.356 35.3586 168.418 36.4003 168.991 37.4843C169.555 38.5684 169.912 39.8218 170.825 40.6348C171.73 41.4478 173.481 41.4055 173.838 40.2368C174.186 39.1104 173.033 38.1449 172.078 37.4759C171.115 36.8153 170.111 35.5873 170.759 34.6048C175.639 33.4954 180.56 32.3944 185.564 32.1742C186.415 32.2005 187.262 32.0507 188.054 31.7338C188.447 31.5643 188.773 31.2674 188.983 30.8891C189.193 30.5109 189.275 30.0725 189.216 29.642C188.124 29.902 186.981 29.8251 185.932 29.421C184.883 29.0169 183.975 28.3038 183.324 27.3723C188.461 26.9403 193.839 26.5593 198.777 27.7364L203.101 31.4797C202.279 32.3521 201.184 33.1736 201.781 34.0459C201.979 34.2462 202.218 34.3983 202.481 34.4907C202.744 34.5831 203.024 34.6134 203.3 34.5794C204.346 34.5963 205.392 34.6217 206.429 34.6217C227.896 55.5752 241.109 83.8187 243.577 114.027C241.834 113.96 240.232 116.212 240.456 118.177C240.722 120.455 242.332 122.285 243.485 124.249C243.676 124.569 243.848 124.9 244 125.24L243.842 130.83Z" fill="#39EE56"/>
<path d="M224.532 175.631C223.976 173.333 222.971 171.166 221.577 169.256C220.183 167.346 218.426 165.729 216.407 164.498C214.388 163.266 212.146 162.445 209.809 162.081C207.472 161.716 205.087 161.815 202.788 162.373C200.49 162.931 198.324 163.936 196.414 165.331C194.504 166.726 192.888 168.483 191.658 170.503C190.427 172.523 189.607 174.765 189.243 177.102C188.879 179.439 188.98 181.824 189.538 184.122C189.606 184.399 189.679 184.675 189.76 184.948L199.301 220.558L234.074 211.24C238.693 209.884 242.599 206.775 244.956 202.578C247.313 198.38 247.936 193.427 246.69 188.777C245.444 184.127 242.428 180.148 238.288 177.692C234.148 175.236 229.211 174.496 224.532 175.631L224.532 175.631Z" fill="#DE2F2F"/>
</svg>
