<svg width="305" height="341" viewBox="0 0 305 341" fill="none" xmlns="http://www.w3.org/2000/svg">
<path d="M202.144 290.325L236.567 270.451C238.531 273.854 238.984 277.943 237.824 281.82C236.665 285.698 233.99 289.045 230.386 291.125L223.139 295.309C219.535 297.39 215.299 298.033 211.362 297.099C207.424 296.164 204.109 293.727 202.144 290.325L202.144 290.325Z" fill="#3F3D56"/>
<path d="M228.026 237.084L221.143 225.162C212.826 210.756 221.553 187.55 226.705 171.614C233.971 149.158 231.325 126.153 218.88 104.599C207.947 85.6625 189.506 72.09 167.602 66.8578C145.698 61.6256 122.117 65.1606 102.029 76.6877C81.9422 88.2149 66.9878 106.793 60.4449 128.35C53.9021 149.907 56.3047 172.683 67.1261 191.684C67.2023 191.817 67.2789 191.95 67.3559 192.082C79.3555 212.866 99.0165 227.71 121.48 232.366C137.696 235.727 162.232 239.768 170.635 254.323L177.518 266.245" fill="#FFEC42"/>
<path d="M228.993 238.758C228.76 238.892 228.504 238.982 228.241 239.022C227.977 239.062 227.711 239.051 227.456 238.991C227.202 238.931 226.965 238.822 226.759 238.67C226.552 238.518 226.381 238.327 226.254 238.107L219.371 226.185C211.28 212.171 218.365 190.636 223.539 174.912C223.968 173.607 224.386 172.338 224.782 171.112C231.863 149.229 229.209 126.583 217.108 105.623C194.492 66.4498 144.275 54.5281 102.785 78.4822C102.716 78.5221 102.646 78.5624 102.576 78.6025C83.063 89.8962 68.5663 108.025 62.2558 129.024C55.9454 150.024 58.3347 172.186 68.9012 190.666L69.1262 191.056C80.9778 211.583 100.246 225.939 121.994 230.447C123.096 230.675 124.237 230.907 125.408 231.144C141.761 234.465 164.158 239.011 172.407 253.3L179.291 265.222C179.547 265.666 179.606 266.199 179.455 266.705C179.303 267.211 178.954 267.647 178.484 267.918C178.014 268.19 177.462 268.274 176.948 268.152C176.435 268.03 176.002 267.712 175.746 267.268L168.863 255.346C161.451 242.509 140.034 238.161 124.396 234.986C123.219 234.748 122.073 234.515 120.966 234.285C98.1487 229.556 77.9626 214.547 65.5836 193.106L65.3518 192.704C42.2695 152.45 58.1058 99.8153 100.639 75.2588C100.715 75.2151 100.783 75.1758 100.858 75.1326C111.026 69.1956 122.205 65.2204 133.75 63.4369C145.294 61.6534 156.974 62.0971 168.115 64.7422C179.255 67.3874 189.634 72.1815 198.653 78.8473C207.671 85.5131 215.148 93.9182 220.653 103.576C233.294 125.472 236.052 149.173 228.629 172.117C228.23 173.348 227.81 174.624 227.379 175.936C222.431 190.972 215.656 211.565 222.916 224.139L229.799 236.061C229.926 236.281 230.005 236.525 230.034 236.779C230.062 237.034 230.038 237.293 229.963 237.544C229.888 237.794 229.764 238.03 229.597 238.239C229.431 238.447 229.225 238.623 228.993 238.758Z" fill="#3F3D56"/>
<path d="M232.971 265.09L199.299 284.53C198.516 284.983 197.595 285.123 196.739 284.919C195.883 284.716 195.162 284.187 194.735 283.447C194.308 282.707 194.21 281.818 194.462 280.975C194.714 280.132 195.295 279.405 196.079 278.953L229.751 259.512C230.534 259.06 231.455 258.92 232.311 259.123C233.167 259.326 233.888 259.856 234.315 260.595C234.742 261.335 234.84 262.224 234.588 263.067C234.336 263.91 233.755 264.638 232.971 265.09V265.09Z" fill="#FFEC42"/>
<path d="M53.0731 133.953C52.5324 134.266 51.8896 134.36 51.2647 134.217L21.7877 127.549C21.4479 127.472 21.1228 127.328 20.8309 127.125C20.5391 126.922 20.2862 126.663 20.0868 126.364C19.8874 126.065 19.7454 125.731 19.6688 125.382C19.5923 125.033 19.5827 124.675 19.6406 124.328C19.6986 123.982 19.823 123.654 20.0066 123.364C20.1902 123.074 20.4295 122.826 20.7109 122.636C20.9922 122.445 21.31 122.316 21.6462 122.255C21.9823 122.193 22.3302 122.202 22.6699 122.279L52.1468 128.947C52.6733 129.066 53.1597 129.346 53.5412 129.75C53.9227 130.153 54.1811 130.661 54.2818 131.205C54.3825 131.749 54.3207 132.304 54.1048 132.795C53.8888 133.286 53.5289 133.69 53.0731 133.953L53.0731 133.953Z" fill="#FFEC42"/>
<path d="M169.496 60.148C169.082 60.387 168.599 60.4825 168.11 60.4215C167.621 60.3606 167.151 60.1463 166.761 59.8071C166.371 59.4679 166.081 59.0201 165.929 58.5235C165.777 58.0269 165.771 57.5051 165.911 57.0279L173.758 30.3099C173.941 29.6889 174.359 29.1883 174.919 28.918C175.48 28.6478 176.138 28.6301 176.748 28.8689C177.358 29.1076 177.871 29.5831 178.173 30.1911C178.476 30.799 178.544 31.4896 178.362 32.1111L170.515 58.8292C170.35 59.3961 169.987 59.8649 169.496 60.148V60.148Z" fill="#FFEC42"/>
<path d="M235.674 250.331L185.166 279.492C184.383 279.944 183.462 280.084 182.606 279.881C181.75 279.677 181.029 279.148 180.602 278.408C180.175 277.668 180.076 276.779 180.328 275.937C180.58 275.094 181.162 274.366 181.946 273.914L232.454 244.753C233.237 244.3 234.158 244.161 235.014 244.364C235.87 244.567 236.591 245.097 237.018 245.836C237.445 246.576 237.543 247.465 237.291 248.308C237.039 249.151 236.458 249.878 235.674 250.331Z" fill="#FFEC42"/>
<path d="M204.382 254.454C203.995 254.678 203.569 254.827 203.13 254.894C202.69 254.961 202.246 254.943 201.822 254.843C201.398 254.742 201.003 254.56 200.659 254.308C200.316 254.055 200.03 253.736 199.818 253.37L163.108 189.786C162.681 189.047 162.583 188.158 162.835 187.315C163.087 186.472 163.669 185.744 164.452 185.292C165.235 184.84 166.156 184.7 167.012 184.903C167.868 185.106 168.589 185.636 169.016 186.375L205.726 249.959C205.938 250.326 206.071 250.732 206.118 251.156C206.164 251.58 206.124 252.014 206 252.431C205.875 252.848 205.668 253.242 205.39 253.589C205.113 253.936 204.77 254.23 204.382 254.454V254.454Z" fill="white"/>
<path d="M167.672 190.87C158.128 196.38 141.704 194.993 141.009 194.931C140.572 194.892 140.151 194.77 139.771 194.57C139.39 194.37 139.058 194.098 138.792 193.768C138.526 193.438 138.333 193.058 138.223 192.648C138.112 192.238 138.088 191.807 138.149 191.379C138.211 190.952 138.359 190.536 138.583 190.156C138.808 189.776 139.105 189.439 139.458 189.164C139.811 188.889 140.213 188.682 140.641 188.554C141.069 188.427 141.514 188.381 141.952 188.42C146.075 188.782 158.159 188.925 164.452 185.292C170.745 181.658 176.663 171.122 178.412 167.368C178.597 166.97 178.86 166.607 179.184 166.301C179.509 165.994 179.889 165.75 180.304 165.581C180.718 165.413 181.159 165.324 181.6 165.32C182.042 165.316 182.475 165.396 182.877 165.556C183.278 165.717 183.638 165.954 183.938 166.254C184.238 166.555 184.471 166.913 184.624 167.308C184.776 167.703 184.846 168.127 184.828 168.556C184.811 168.985 184.706 169.411 184.521 169.81C184.227 170.442 177.216 185.359 167.672 190.87Z" fill="white"/>
<path d="M92.3983 72.3699C91.6149 72.8221 90.7861 73.1217 90.0943 73.2027C89.4025 73.2837 88.9042 73.1395 88.7092 72.8018L76.1375 51.0269C75.9425 50.6891 76.0666 50.1856 76.4827 49.6269C76.8988 49.0683 77.5727 48.5003 78.3561 48.048C79.1395 47.5957 79.9683 47.2961 80.6601 47.2151C81.352 47.1341 81.8502 47.2783 82.0452 47.616L94.617 69.391C94.8119 69.7287 94.6877 70.2323 94.2716 70.791C93.8555 71.3496 93.1817 71.9175 92.3983 72.3699V72.3699Z" fill="#FFEC42"/>
</svg>
