<svg width="401" height="300" viewBox="0 0 401 300" fill="none" xmlns="http://www.w3.org/2000/svg">
<path d="M58.0899 185.805C55.958 189.534 55.3342 193.97 56.3485 198.187C57.3629 202.403 59.937 206.074 63.5338 208.434C67.1305 210.794 71.472 211.661 75.6521 210.853C79.8323 210.045 83.5283 207.625 85.9687 204.098C86.1238 203.876 86.2737 203.65 86.417 203.416L86.424 203.404C86.5302 203.234 86.6329 203.063 86.7321 202.889C88.9184 199.052 89.508 194.476 88.3712 190.165C87.2345 185.854 84.4644 182.162 80.6694 179.898C76.8744 177.635 72.3649 176.985 68.1312 178.093C63.8976 179.2 60.286 181.974 58.0899 185.805Z" fill="#65617D"/>
<path d="M67.7156 202.561C63.162 199.846 61.5703 193.97 64.1606 189.439C66.7508 184.907 72.542 183.435 77.0956 186.151C81.6492 188.867 83.2409 194.742 80.6506 199.274C78.0604 203.805 72.2692 205.277 67.7156 202.561Z" fill="#DCE0ED"/>
<path d="M69.5016 199.439C66.8647 197.865 66.0272 194.315 67.6311 191.508C69.2349 188.701 72.6727 187.701 75.3096 189.274C77.9466 190.847 78.784 194.398 77.1802 197.205C75.5763 200.012 72.1385 201.012 69.5016 199.439Z" fill="#65617D"/>
<path d="M126.76 188.602L160.998 209.741L163.819 204.82C165.776 200.681 162.359 196.803 158.764 194.095C155.954 191.995 152.793 190.42 149.448 189.453C141.028 186.983 136.136 184.575 133.815 183.251C133.304 182.959 132.716 182.846 132.149 182.93C131.582 183.015 131.071 183.292 130.702 183.715C130.27 184.213 129.81 184.761 129.363 185.306C129.015 185.733 128.674 186.157 128.359 186.552C127.447 187.7 126.76 188.602 126.76 188.602Z" fill="#65617D"/>
<path d="M81.9448 200.738L155.085 244.155C155.646 244.496 156.291 244.667 156.939 244.645C157.587 244.623 158.209 244.411 158.729 244.034C160.026 243.06 159.731 241.771 159.187 240.796C158.07 238.811 157.678 236.511 158.082 234.303C158.602 231.572 159.887 227.547 162.778 221.802C165.769 215.86 165.292 211.762 163.802 209.03L163.801 209.029C161.877 205.501 158.267 204.253 158.267 204.253L128.477 186.884C127.814 186.807 127.145 186.832 126.494 186.958C122.458 187.821 124.492 193.283 124.492 193.283C127.811 206.835 116.53 211.877 116.53 211.877L101.356 202.87C98.5126 201.201 96.221 198.716 94.7858 195.746C93.5373 193.129 93.5204 191.302 93.6836 190.3C93.8091 189.534 93.93 188.767 93.9937 187.993C94.9032 177.096 107.659 166.064 112.705 162.103C113.959 161.117 114.737 160.569 114.737 160.569L110.182 157.389L107.302 155.376L107.273 155.357C94.1618 162.727 85.0388 172.882 79.2763 180.998C78.7335 181.763 78.2189 182.512 77.7349 183.236C76.8176 184.616 76.1974 186.178 75.9126 187.824C75.6278 189.47 75.6845 191.166 76.0792 192.807C76.4738 194.448 77.1981 195.998 78.207 197.362C79.2159 198.727 80.4881 199.876 81.9448 200.738V200.738Z" fill="#1C1952"/>
<path opacity="0.1" d="M128.179 186.328L162.717 206.572L163.157 205.8L128.836 185.684C128.607 185.905 128.384 186.123 128.179 186.328Z" fill="black"/>
<path opacity="0.1" d="M126.865 186.615L163.714 208.212C163.81 208.269 163.911 208.313 164.012 208.342C161.686 205.559 158.244 204.074 158.244 204.074L128.625 186.903C128.018 186.736 127.425 186.639 126.865 186.615Z" fill="black"/>
<path d="M127.596 184.965L177.117 213.996C177.511 214.228 177.634 214.761 177.391 215.187C177.148 215.614 176.631 215.771 176.236 215.54L126.716 186.509C126.321 186.277 126.198 185.744 126.441 185.318C126.685 184.891 127.202 184.733 127.596 184.965Z" fill="#DCE0ED"/>
<path opacity="0.1" d="M79.0721 181.409C79.724 184.266 80.5628 185.738 81.6099 183.759C84.7766 177.772 110.268 157.374 110.268 157.374L107.334 155.312C94.1008 162.82 84.8905 173.152 79.0721 181.409Z" fill="black"/>
<path opacity="0.1" d="M59.0899 184.108C60.5679 185.535 62.4471 187.21 64.8401 189.142C65.7288 189.861 66.6916 190.616 67.7284 191.407C70.213 193.306 73.1379 195.412 76.5778 197.739C77.5515 198.399 78.5674 199.076 79.6254 199.77C81.6072 201.07 83.7444 202.434 86.037 203.861L86.4823 203.186L86.4893 203.173C83.9953 199.94 80.8917 193.423 85.2742 183.851C83.6764 181.845 81.6496 180.228 79.3499 179.125C77.0502 178.021 74.5389 177.46 72.0095 177.485C69.48 177.51 66.9999 178.12 64.76 179.268C62.5201 180.417 60.5803 182.073 59.0899 184.108Z" fill="black"/>
<path d="M89.596 205.909C89.596 205.909 73.7598 194.06 94.1433 172.058C94.1433 172.058 81.4737 174.664 73.88 175.785C66.2863 176.906 53.7241 177.204 53.7241 177.204C53.7241 177.204 56.3195 185.597 89.596 205.909Z" fill="#1C1952"/>
<path opacity="0.1" d="M89.596 205.909C89.596 205.909 73.7598 194.06 94.1433 172.058C94.1433 172.058 81.4737 174.664 73.88 175.785C66.2863 176.906 53.7241 177.204 53.7241 177.204C53.7241 177.204 56.3195 185.597 89.596 205.909Z" fill="#C4B1C7"/>
<path d="M125.861 244.96C117.713 240.1 114.807 229.689 119.37 221.706C123.934 213.723 134.239 211.191 142.387 216.05C150.535 220.91 153.441 231.32 148.877 239.303C144.314 247.286 134.009 249.819 125.861 244.96Z" fill="#65617D"/>
<path d="M129.433 238.714C125.118 236.14 123.72 230.378 126.311 225.844C128.902 221.31 134.5 219.722 138.815 222.296C143.129 224.87 144.527 230.632 141.936 235.166C139.346 239.699 133.748 241.288 129.433 238.714Z" fill="#DCE0ED"/>
<path d="M131.651 235.84C129.014 234.267 128.177 230.716 129.781 227.909C131.385 225.102 134.823 224.102 137.459 225.675C140.096 227.249 140.934 230.799 139.33 233.606C137.726 236.413 134.288 237.413 131.651 235.84Z" fill="#65617D"/>
<path opacity="0.1" d="M120.416 215.83C125.708 206.595 137.562 203.6 146.893 209.14C156.224 214.68 159.499 226.657 154.207 235.892C153.984 236.281 153.748 236.659 153.502 237.026L119.793 217.013C119.986 216.614 120.193 216.22 120.416 215.83Z" fill="black"/>
<path d="M121.251 216.402C126.312 207.568 137.592 204.668 146.445 209.925C155.298 215.181 158.371 226.603 153.309 235.436C153.096 235.809 152.87 236.17 152.635 236.522L120.654 217.534C120.839 217.152 121.037 216.775 121.251 216.402Z" fill="#1C1952"/>
<path opacity="0.1" d="M121.251 216.402C121.104 216.658 120.965 216.917 120.832 217.178C120.771 217.296 120.713 217.414 120.654 217.533L152.635 236.522C152.709 236.411 152.781 236.301 152.852 236.189C153.009 235.943 153.163 235.693 153.31 235.436C158.371 226.603 155.298 215.181 146.445 209.925C137.592 204.668 126.312 207.568 121.251 216.402Z" fill="#C4B1C7"/>
<path opacity="0.1" d="M91.3449 167.647C90.5638 166.507 92.1537 163.996 94.8961 162.04C97.6386 160.084 100.495 159.422 101.276 160.563C102.057 161.703 100.467 164.214 97.7249 166.17C94.9825 168.126 92.1261 168.788 91.3449 167.647Z" fill="black"/>
<path d="M91.2704 167.367C90.4892 166.226 92.0792 163.716 94.8216 161.759C97.564 159.803 100.42 159.142 101.202 160.282C101.983 161.423 100.393 163.933 97.6504 165.89C94.9079 167.846 92.0515 168.507 91.2704 167.367Z" fill="#DCE0ED"/>
<path opacity="0.1" d="M107.789 155.403L106.457 157.727L111.878 160.93C112.382 161.229 112.906 161.493 113.443 161.72C114.585 160.932 115.297 160.499 115.297 160.499L110.697 157.378L107.789 155.403Z" fill="black"/>
<path d="M106.458 157.576L111.822 160.778C116.533 163.59 122.361 162.354 124.837 158.017L125.254 157.288C127.73 152.951 125.919 147.155 121.208 144.343L115.566 141.627L106.458 157.576Z" fill="#1C1952"/>
<path d="M121.953 151.279C121.953 151.279 117.759 150.974 118.049 154.865C118.049 154.865 118.318 159.785 122.125 161.605L127.8 154.766C127.8 154.766 123.687 151.806 121.953 151.279Z" fill="#1C1952"/>
<path opacity="0.1" d="M123.294 151.867C122.766 151.578 122.187 151.404 121.599 151.358C121.011 151.313 120.43 151.397 119.897 151.605C118.884 152.016 117.907 152.914 118.051 154.861C118.051 154.861 118.318 159.786 122.125 161.605L127.805 154.756C126.353 153.713 124.847 152.749 123.294 151.867V151.867Z" fill="black"/>
<path opacity="0.1" d="M115.476 142.009C114.902 141.667 114.272 141.438 113.62 141.336C112.969 141.234 112.309 141.26 111.679 141.413C111.049 141.566 110.461 141.843 109.948 142.227C109.435 142.612 109.008 143.098 108.691 143.656L104.558 150.927C103.917 152.054 103.763 153.409 104.129 154.695C104.495 155.98 105.352 157.09 106.511 157.78V157.78L115.476 142.009V142.009Z" fill="black"/>
<path d="M115.476 142.009C114.317 141.318 112.951 141.104 111.679 141.413C110.406 141.722 109.331 142.529 108.691 143.656L104.558 150.927C103.917 152.054 103.763 153.409 104.129 154.695C104.495 155.98 105.352 157.09 106.511 157.78L115.476 142.009Z" fill="#DCE0ED"/>
<path d="M122.957 163.153C121.038 162.008 120.584 159.151 121.941 156.773C123.299 154.395 125.955 153.396 127.874 154.541C129.793 155.687 130.248 158.543 128.89 160.922C127.532 163.3 124.876 164.299 122.957 163.153Z" fill="#1C1952"/>
<path d="M151.897 201.35L148.49 203.501L147.562 198.77" stroke="black" stroke-miterlimit="10"/>
<path d="M142.256 199.917L155.273 207.679L148.127 220.178L135.11 212.416L142.256 199.917Z" fill="#C4B1C7"/>
<path d="M132.937 139.415L127.846 130.022L129.115 129.231L134.206 138.624C134.662 138.567 135.131 138.689 135.534 138.97C135.936 139.25 136.247 139.672 136.412 140.162C136.578 140.653 136.588 141.181 136.441 141.657C136.294 142.133 135.998 142.527 135.606 142.772C135.213 143.017 134.748 143.096 134.289 142.998C133.83 142.899 133.407 142.628 133.091 142.231C132.776 141.834 132.588 141.336 132.56 140.822C132.532 140.308 132.665 139.811 132.937 139.415Z" fill="#433939"/>
<path d="M181.451 236.483L190.112 231.083L124.431 109.933L127.811 107.826L193.492 228.976L202.153 223.575C203.18 222.935 204.322 222.534 205.516 222.395C206.71 222.257 207.931 222.382 209.11 222.766C210.289 223.149 211.402 223.782 212.387 224.629C213.372 225.476 214.209 226.521 214.85 227.703L214.85 227.703L178.515 250.358L178.515 250.358C177.874 249.176 177.441 247.879 177.242 246.542C177.043 245.205 177.081 243.854 177.353 242.566C177.626 241.277 178.128 240.077 178.831 239.033C179.534 237.99 180.425 237.123 181.451 236.483V236.483Z" fill="#433939"/>
<path d="M153.226 114.982L117.404 137.367L102.458 104.471C101.947 103.334 101.827 102.052 102.121 100.877C102.415 99.7018 103.101 98.7189 104.046 98.1216L127.963 83.1761C128.914 82.5892 130.05 82.4329 131.148 82.7379C132.247 83.0429 133.228 83.7872 133.899 84.8242L153.226 114.982Z" fill="#5D40AE"/>
<path d="M208.019 151.889C204.333 149.636 203.096 144.596 205.256 140.634C207.416 136.671 212.156 135.286 215.842 137.54C219.529 139.794 220.766 144.833 218.606 148.796C216.445 152.758 211.706 154.143 208.019 151.889Z" fill="#C4B1C7"/>
<path d="M188.266 139.812C184.579 137.558 183.342 132.519 185.503 128.556C187.663 124.594 192.403 123.209 196.089 125.463C199.775 127.716 201.012 132.756 198.852 136.718C196.692 140.681 191.952 142.066 188.266 139.812Z" fill="#C4B1C7"/>
<path opacity="0.1" d="M189.89 140.805C187.099 139.099 186.354 134.932 188.226 131.499C190.098 128.066 193.877 126.666 196.668 128.372C199.458 130.078 200.203 134.244 198.331 137.677C196.46 141.111 192.68 142.511 189.89 140.805Z" fill="black"/>
<path opacity="0.1" d="M206.396 150.897C203.605 149.191 202.86 145.024 204.732 141.591C206.604 138.158 210.383 136.758 213.174 138.464C215.964 140.17 216.709 144.336 214.837 147.77C212.965 151.203 209.186 152.603 206.396 150.897Z" fill="black"/>
<path d="M162.342 153.382C161.317 155.732 161.794 158.93 163.873 160.22C164.802 160.787 165.893 160.933 166.966 160.983C167.896 161.026 168.85 161.002 169.729 160.658C169.857 160.608 169.98 160.553 170.102 160.492C171.617 159.736 172.702 158.168 174.163 157.25C176.786 155.6 180.086 156.3 182.983 157.203C186.037 158.155 189.041 159.279 191.98 160.57C193.98 161.447 195.968 162.414 197.694 163.798C201.368 166.743 203.612 171.372 207.25 174.342C207.373 174.441 207.498 174.539 207.624 174.637C208.79 175.527 210.081 176.228 211.256 177.11C213.211 178.578 214.846 180.554 216.999 181.669C219.153 182.784 222.181 182.701 223.541 180.566C224.499 179.062 224.307 176.99 223.494 175.417C222.68 173.843 221.348 172.663 220.026 171.555C216.518 168.613 212.788 165.827 210.188 161.965C209.256 160.584 208.48 159.078 207.446 157.784C206.987 157.205 206.465 156.687 205.891 156.241C205.174 155.677 204.339 155.308 203.455 155.167L204.899 157.061L187.511 144.596L186.825 144.105C186.002 143.515 185.162 142.915 184.21 142.606C182.572 142.075 180.779 142.465 179.178 143.163C177.577 143.862 176.116 144.874 174.546 145.655C172.342 146.748 169.965 147.372 167.745 148.419C165.525 149.467 163.368 151.034 162.342 153.382Z" fill="#C4B1C7"/>
<path opacity="0.1" d="M172.361 155.679C171.506 157.227 170.749 158.833 170.096 160.488C171.61 159.732 172.696 158.164 174.156 157.247C176.78 155.596 180.08 156.296 182.976 157.199C186.031 158.151 189.035 159.275 191.974 160.567C193.973 161.443 195.962 162.41 197.688 163.794C201.362 166.739 203.606 171.368 207.244 174.338C209.975 167.231 209.176 161.121 205.878 156.231C204.084 153.581 201.558 151.282 198.448 149.381C194.631 147.047 191.019 145.06 187.495 144.583C182.361 143.885 177.426 146.387 172.361 155.679Z" fill="black"/>
<path d="M172.869 156.874C170.952 160.39 169.845 163.378 169.39 165.962C168.276 172.298 171.069 176.204 175.393 179.509C176.85 180.622 178.473 181.663 180.182 182.708C182.327 184.042 184.646 185.033 187.067 185.649C191.574 186.752 196.071 186.193 199.78 183.3C201.778 181.744 203.546 179.513 204.966 176.499C210.381 164.999 206.518 156.079 197.654 150.659C188.791 145.24 181.069 141.834 172.869 156.874Z" fill="#2F2E41"/>
<path opacity="0.1" d="M190.585 159.711C183.667 155.481 181.345 146.022 185.399 138.585C189.454 131.148 198.349 128.549 205.268 132.779C212.187 137.009 214.509 146.467 210.454 153.904C206.4 161.342 197.504 163.941 190.585 159.711Z" fill="black"/>
<path d="M191.014 158.924C184.096 154.694 181.774 145.235 185.828 137.798C189.883 130.361 198.778 127.761 205.697 131.992C212.616 136.222 214.938 145.68 210.883 153.117C206.829 160.554 197.933 163.154 191.014 158.924Z" fill="#2F2E41"/>
<path d="M201.965 142.752C201.611 142.536 201.492 142.052 201.7 141.672C201.907 141.291 202.362 141.158 202.716 141.375C203.07 141.591 203.189 142.075 202.981 142.455C202.774 142.836 202.319 142.969 201.965 142.752Z" fill="#C4B1C7"/>
<path d="M198.857 140.852C198.503 140.636 198.384 140.152 198.591 139.771C198.799 139.391 199.254 139.258 199.608 139.474C199.962 139.691 200.08 140.175 199.873 140.555C199.666 140.935 199.211 141.068 198.857 140.852Z" fill="#C4B1C7"/>
<path opacity="0.1" d="M195.002 151.609C191.391 149.401 189.569 145.583 190.933 143.082C192.297 140.581 196.33 140.343 199.941 142.551C203.552 144.759 205.374 148.576 204.01 151.078C202.646 153.579 198.613 153.817 195.002 151.609Z" fill="black"/>
<path d="M195.14 151.356C191.731 149.272 190.011 145.667 191.298 143.306C192.586 140.944 196.393 140.719 199.803 142.804C203.212 144.888 204.932 148.493 203.645 150.855C202.357 153.216 198.55 153.441 195.14 151.356Z" fill="#C4B1C7"/>
<path opacity="0.1" d="M187.067 185.649C191.574 186.752 196.071 186.193 199.78 183.3C199.349 182.768 198.837 182.318 198.265 181.968C194.997 179.97 190.423 181.617 187.067 185.649Z" fill="black"/>
<path d="M185.101 189.452C181.802 195.504 182.341 202.375 186.305 204.799C188.991 206.441 192.557 205.623 195.606 203.041C197.161 201.708 198.47 200.077 199.465 198.234C202.765 192.181 202.225 185.308 198.261 182.884C194.683 180.697 189.539 182.876 186.142 187.779C185.765 188.315 185.418 188.874 185.101 189.452V189.452Z" fill="#2F2E41"/>
<path opacity="0.1" d="M185.101 189.452C181.802 195.504 182.341 202.375 186.305 204.799C188.991 206.441 192.558 205.623 195.606 203.041C197.8 198.54 195.591 192.522 190.538 189.433C189.181 188.592 187.687 188.026 186.131 187.763C185.758 188.305 185.414 188.869 185.101 189.452Z" fill="black"/>
<path d="M180.825 205.906C175.648 202.741 173.455 196.5 175.927 191.967C178.398 187.434 184.598 186.324 189.774 189.489C194.951 192.654 197.144 198.895 194.672 203.428C192.201 207.961 186.001 209.071 180.825 205.906Z" fill="#C4B1C7"/>
<path d="M180.117 205.473C175.332 202.547 173.331 196.732 175.647 192.483C177.963 188.235 183.72 187.163 188.505 190.088C193.29 193.014 195.291 198.83 192.975 203.078C190.659 207.326 184.902 208.399 180.117 205.473Z" fill="#2F2E41"/>
<path opacity="0.1" d="M181.74 194.947C180.907 194.437 180.726 193.117 181.336 191.997C181.946 190.878 183.117 190.384 183.95 190.894C184.784 191.403 184.965 192.724 184.355 193.843C183.744 194.962 182.574 195.457 181.74 194.947Z" fill="black"/>
<path d="M181.907 194.641C181.2 194.208 181.047 193.088 181.565 192.137C182.083 191.187 183.076 190.767 183.783 191.2C184.49 191.632 184.644 192.753 184.126 193.703C183.607 194.653 182.614 195.073 181.907 194.641Z" fill="#C4B1C7"/>
<path opacity="0.1" d="M185.396 199.198C184.519 198.663 184.253 197.414 184.8 196.41C185.348 195.405 186.502 195.025 187.379 195.561C188.255 196.097 188.521 197.345 187.974 198.35C187.426 199.354 186.272 199.734 185.396 199.198Z" fill="black"/>
<path d="M185.53 198.952C184.772 198.489 184.542 197.409 185.016 196.541C185.489 195.672 186.487 195.344 187.244 195.807C188.002 196.27 188.232 197.349 187.759 198.218C187.285 199.086 186.287 199.415 185.53 198.952Z" fill="#C4B1C7"/>
<path opacity="0.1" d="M185.8 204.495C184.865 203.924 184.469 202.799 184.914 201.983C185.358 201.167 186.477 200.969 187.411 201.54C188.345 202.111 188.742 203.236 188.297 204.052C187.852 204.868 186.734 205.066 185.8 204.495Z" fill="black"/>
<path d="M185.909 204.295C185.101 203.801 184.758 202.829 185.143 202.123C185.527 201.417 186.494 201.246 187.302 201.74C188.11 202.233 188.453 203.206 188.068 203.912C187.684 204.618 186.717 204.789 185.909 204.295Z" fill="#C4B1C7"/>
<path opacity="0.1" d="M177.165 201.246C176.375 198.754 176.729 196.363 177.955 195.906C179.181 195.448 180.816 197.097 181.607 199.588C182.397 202.08 182.043 204.471 180.817 204.929C179.591 205.386 177.956 203.737 177.165 201.246Z" fill="black"/>
<path d="M177.312 201.191C176.573 198.862 176.903 196.628 178.049 196.2C179.194 195.772 180.722 197.314 181.46 199.643C182.199 201.972 181.869 204.207 180.724 204.634C179.578 205.062 178.05 203.52 177.312 201.191Z" fill="#C4B1C7"/>
<path opacity="0.1" d="M169.39 165.962C168.276 172.298 171.069 176.205 175.393 179.51C177.29 174.213 176.409 168.867 173.011 166.79C171.914 166.132 170.652 165.843 169.39 165.962V165.962Z" fill="black"/>
<path d="M159.04 173.517C157.935 175.511 157.228 177.723 156.963 180.012C156.55 183.873 157.682 187.298 160.244 188.865C164.208 191.289 170.097 188.346 173.396 182.295C173.707 181.726 173.989 181.139 174.24 180.537C176.562 174.966 175.778 169.138 172.193 166.946C168.229 164.522 162.34 167.464 159.04 173.517Z" fill="#2F2E41"/>
<path opacity="0.1" d="M156.976 179.987L156.963 180.012C156.55 183.873 157.682 187.298 160.244 188.865C164.208 191.289 170.097 188.347 173.396 182.295C173.707 181.726 173.989 181.139 174.241 180.537C173.276 179.324 172.119 178.301 170.821 177.515C165.645 174.35 159.448 175.453 156.976 179.987Z" fill="black"/>
<path d="M162.079 194.444C156.902 191.279 154.71 185.038 157.181 180.505C159.652 175.972 165.852 174.863 171.029 178.028C176.205 181.193 178.398 187.433 175.927 191.967C173.455 196.5 167.255 197.609 162.079 194.444Z" fill="#C4B1C7"/>
<path d="M162.879 194.933C158.145 192.039 156.184 186.248 158.5 182C160.816 177.751 166.532 176.654 171.267 179.549C176.001 182.444 177.962 188.234 175.645 192.483C173.329 196.731 167.614 197.828 162.879 194.933Z" fill="#2F2E41"/>
<path opacity="0.1" d="M170.563 188.164C169.715 187.646 169.532 186.301 170.154 185.16C170.775 184.02 171.967 183.516 172.815 184.034C173.663 184.553 173.847 185.898 173.225 187.038C172.603 188.179 171.412 188.683 170.563 188.164Z" fill="black"/>
<path d="M170.751 187.82C170.044 187.387 169.891 186.267 170.409 185.316C170.927 184.366 171.92 183.946 172.627 184.379C173.334 184.811 173.487 185.932 172.969 186.882C172.451 187.832 171.458 188.252 170.751 187.82Z" fill="#C4B1C7"/>
<path opacity="0.1" d="M165.279 186.898C164.402 186.362 164.136 185.114 164.683 184.109C165.231 183.105 166.385 182.725 167.262 183.261C168.138 183.797 168.404 185.045 167.857 186.049C167.309 187.054 166.155 187.434 165.279 186.898Z" fill="black"/>
<path d="M165.413 186.652C164.655 186.189 164.425 185.11 164.898 184.241C165.372 183.373 166.37 183.044 167.127 183.507C167.885 183.97 168.115 185.05 167.641 185.918C167.168 186.787 166.17 187.115 165.413 186.652Z" fill="#C4B1C7"/>
<path opacity="0.1" d="M160.745 189.176C159.81 188.604 159.414 187.48 159.858 186.664C160.303 185.848 161.421 185.649 162.356 186.221C163.29 186.792 163.687 187.917 163.242 188.733C162.797 189.549 161.679 189.747 160.745 189.176Z" fill="black"/>
<path d="M160.854 188.976C160.046 188.482 159.703 187.51 160.088 186.804C160.472 186.098 161.439 185.926 162.247 186.42C163.055 186.914 163.398 187.887 163.013 188.593C162.628 189.299 161.662 189.47 160.854 188.976Z" fill="#C4B1C7"/>
<path opacity="0.1" d="M162.869 193.985C162.63 192.631 164.408 191.111 166.841 190.59C169.274 190.069 171.439 190.744 171.678 192.098C171.917 193.451 170.139 194.971 167.706 195.492C165.273 196.013 163.108 195.338 162.869 193.985Z" fill="black"/>
<path d="M163.156 193.923C162.933 192.659 164.595 191.239 166.869 190.752C169.143 190.265 171.168 190.895 171.391 192.159C171.614 193.424 169.952 194.844 167.678 195.331C165.404 195.818 163.379 195.187 163.156 193.923Z" fill="#C4B1C7"/>
<path d="M0.765153 280.524C11.6751 310.927 401.63 303.089 400.762 275.236C389.853 244.835 -0.102609 252.673 0.765153 280.524Z" fill="#585591"/>
<path opacity="0.2" d="M257.732 124.36C257.732 124.66 257.852 124.948 258.065 125.16C258.279 125.372 258.569 125.491 258.871 125.491C259.174 125.491 259.464 125.372 259.677 125.16C259.891 124.948 260.011 124.66 260.011 124.36" fill="black"/>
<path d="M333.95 56.0239L323.968 55.1239L317.616 39.8246L328.959 33.5244L333.95 56.0239Z" fill="#FFB8B8"/>
<path d="M242.344 98.0255C242.013 97.2045 241.882 96.3171 241.964 95.4363C242.046 94.5556 242.337 93.7067 242.815 92.9597C243.292 92.2126 243.942 91.5888 244.71 91.1396C245.478 90.6904 246.343 90.4287 247.233 90.376L262.731 89.4595L265.013 96.9853L249.059 101.331C247.726 101.694 246.304 101.558 245.066 100.948C243.828 100.339 242.859 99.2982 242.344 98.0255V98.0255Z" fill="#FFB8B8"/>
<path d="M258.986 101.457L259.156 87.3356L293.581 81.8878L320.101 51.7215C321.48 50.152 323.387 49.1317 325.467 48.8495C327.547 48.5674 329.66 49.0426 331.414 50.1871C332.476 50.8801 333.372 51.7959 334.038 52.8699C334.704 53.9439 335.124 55.1499 335.268 56.4025C335.412 57.6552 335.277 58.924 334.873 60.1192C334.468 61.3145 333.804 62.407 332.927 63.3196L311.048 90.0239L258.986 101.457Z" fill="#575A89"/>
<path d="M341.663 260.32H332.589L310.081 159.393L286.764 190.572L273.152 258.07H264.532L266.347 185.622L296.745 108.223H326.69C334.874 122.911 341.293 138.052 333.95 153.672L341.663 260.32Z" fill="#2F2E41"/>
<path d="M278.715 266.45C278.815 266.769 278.846 267.105 278.805 267.436C278.765 267.767 278.653 268.086 278.478 268.371C278.304 268.656 278.07 268.901 277.792 269.089C277.515 269.278 277.2 269.405 276.868 269.464L254.664 273.372C253.786 273.531 252.88 273.366 252.117 272.909C251.353 272.451 250.785 271.733 250.519 270.888V270.888C250.26 270.081 250.296 269.21 250.621 268.427C250.946 267.644 251.538 266.999 252.295 266.606C257.177 264.12 261.379 260.497 264.54 256.047C266.981 258.301 269.708 258.089 272.605 256.428L275.677 256.809L278.715 266.45Z" fill="#E6E6E6"/>
<path d="M345.864 266.45C345.965 266.769 345.996 267.105 345.955 267.436C345.914 267.767 345.802 268.086 345.628 268.371C345.453 268.656 345.219 268.901 344.942 269.089C344.664 269.278 344.349 269.405 344.018 269.464L321.813 273.372C320.936 273.531 320.03 273.366 319.266 272.909C318.503 272.451 317.935 271.733 317.668 270.888V270.888C317.41 270.081 317.446 269.21 317.771 268.427C318.095 267.644 318.688 266.999 319.444 266.606C324.327 264.12 328.528 260.497 331.69 256.047C334.13 258.301 336.858 258.089 339.754 256.428L342.827 256.809L345.864 266.45Z" fill="#E6E6E6"/>
<path d="M317.389 45.4492C310.373 45.4492 304.685 39.8081 304.685 32.8494C304.685 25.8907 310.373 20.2496 317.389 20.2496C324.405 20.2496 330.093 25.8907 330.093 32.8494C330.093 39.8081 324.405 45.4492 317.389 45.4492Z" fill="#FFB8B8"/>
<path d="M328.732 111.598L295.611 110.698L305.338 80.3358C299.293 70.7248 305.377 61.1234 313.987 51.5242L320.792 47.0243L331.681 46.1243C336.396 51.1277 338.976 57.7463 338.88 64.5939C338.664 79.2569 336.047 95.2191 328.732 111.598Z" fill="#575A89"/>
<path d="M252.635 132.035C252.004 131.41 251.532 130.645 251.258 129.803C250.984 128.962 250.916 128.068 251.058 127.194C251.201 126.321 251.551 125.494 252.079 124.782C252.607 124.069 253.298 123.491 254.096 123.095L267.981 116.206L273.064 122.234L260.119 132.455C259.038 133.309 257.677 133.738 256.297 133.661C254.916 133.583 253.613 133.005 252.635 132.035V132.035Z" fill="#FFB8B8"/>
<path d="M269.296 128.698L263.851 115.648L293.339 97.2083L305.756 59.1271C306.402 57.1458 307.75 55.4639 309.551 54.3929C311.351 53.3219 313.482 52.9344 315.549 53.3023V53.3023C316.8 53.525 317.987 54.0176 319.025 54.7452C320.063 55.4728 320.927 56.4177 321.557 57.5131C322.186 58.6085 322.566 59.8276 322.668 61.0843C322.77 62.341 322.592 63.6047 322.148 64.7859L312.625 97.8734L269.296 128.698Z" fill="#575A89"/>
<path d="M338.26 27.8995C338.26 32.8022 335.05 40.3947 331.001 43.6493C328.276 45.8391 324.676 45.7469 323.288 42.7493C321.864 39.6743 316.955 32.4463 308.315 27.8995C296.798 21.8383 312.399 11.4686 323.288 13.0498C331.469 14.238 338.26 19.6982 338.26 27.8995Z" fill="#2F2E41"/>
<path d="M330.547 21.1495C325.535 21.1495 321.473 17.1201 321.473 12.1496C321.473 7.17916 325.535 3.14978 330.547 3.14978C335.559 3.14978 339.621 7.17916 339.621 12.1496C339.621 17.1201 335.559 21.1495 330.547 21.1495Z" fill="#2F2E41"/>
<path d="M320.112 8.99984C320.112 6.7309 320.978 4.54614 322.535 2.88343C324.091 1.22072 326.224 0.202935 328.505 0.0340757C328.28 0.0174349 328.054 0 327.825 0C325.418 0 323.11 0.948193 321.408 2.63599C319.706 4.32379 318.75 6.61293 318.75 8.99984C318.75 11.3867 319.706 13.6759 321.408 15.3637C323.11 17.0515 325.418 17.9997 327.825 17.9997C328.054 17.9997 328.28 17.9822 328.505 17.9656C326.224 17.7967 324.091 16.7789 322.535 15.1162C320.978 13.4535 320.112 11.2688 320.112 8.99984Z" fill="#2F2E41"/>
<path d="M317.162 37.3495C316.035 37.3495 315.121 36.1407 315.121 34.6495C315.121 33.1584 316.035 31.9496 317.162 31.9496C318.29 31.9496 319.204 33.1584 319.204 34.6495C319.204 36.1407 318.29 37.3495 317.162 37.3495Z" fill="#FFB8B8"/>
<path d="M60.0601 243.816H201.318L231.231 103.569H256.759V97.2762H226.088L196.175 237.522H60.0601V243.816Z" fill="#3F3D56"/>
<path d="M180.617 269.437C173.108 269.437 167.021 263.4 167.021 255.952C167.021 248.504 173.108 242.467 180.617 242.467C188.127 242.467 194.214 248.504 194.214 255.952C194.214 263.4 188.127 269.437 180.617 269.437Z" fill="#3F3D56"/>
<path d="M79.0954 269.437C71.5861 269.437 65.4987 263.4 65.4987 255.952C65.4987 248.504 71.5861 242.467 79.0954 242.467C86.6047 242.467 92.6922 248.504 92.6922 255.952C92.6922 263.4 86.6047 269.437 79.0954 269.437Z" fill="#3F3D56"/>
<path d="M62.6356 240.852H200.072L224.321 121.999H39.8792C38.938 121.999 38.0081 122.201 37.1533 122.592C36.2985 122.982 35.5391 123.552 34.9274 124.261C34.3157 124.971 33.8662 125.803 33.6098 126.701C33.3533 127.599 33.2961 128.542 33.442 129.464L56.1994 235.393C56.4342 236.917 57.2133 238.307 58.3947 239.309C59.5761 240.311 61.0812 240.858 62.6356 240.852V240.852ZM198.579 239.054H62.6356C61.5137 239.059 60.4275 238.663 59.5749 237.94C58.7223 237.217 58.1602 236.214 57.991 235.114L35.2336 129.185C35.1281 128.519 35.1692 127.839 35.3542 127.191C35.5391 126.542 35.8636 125.941 36.305 125.429C36.7465 124.917 37.2947 124.506 37.9117 124.224C38.5287 123.943 39.1999 123.797 39.8792 123.797H222.12L198.579 239.054Z" fill="#3F3D56"/>
<path d="M173.354 240.472L189.234 123.044L187.446 122.751L171.565 240.179L173.354 240.472Z" fill="#3F3D56"/>
<path d="M85.0519 239.57L86.8418 239.282L71.4251 122.754L69.6351 123.042L85.0519 239.57Z" fill="#3F3D56"/>
<path d="M127.123 122.898H128.936V240.325H127.123V122.898Z" fill="#3F3D56"/>
<path d="M215.06 154.364L215.065 156.161L39.5788 156.583L39.5744 154.785L215.06 154.364Z" fill="#3F3D56"/>
<path d="M51.958 209.907L206.126 210.952L206.114 212.75L51.9456 211.705L51.958 209.907Z" fill="#3F3D56"/>
<path d="M254.04 104.918C248.533 104.918 244.069 102.503 244.069 99.5236C244.069 96.5445 248.533 94.1295 254.04 94.1295C259.546 94.1295 264.011 96.5445 264.011 99.5236C264.011 102.503 259.546 104.918 254.04 104.918Z" fill="#3F3D56"/>
<path d="M320.51 40.998L317.652 45.3284C312.313 45.3115 306.81 42.4966 303.498 39.0232L307.115 35.2439C309.639 39.1325 314.599 40.3878 320.51 40.998Z" fill="#B3D7EE" fill-opacity="0.8"/>
<path d="M317.791 31.6599L307.101 35.9858C307.007 36.024 306.9 36.0301 306.804 36.0028C306.708 35.9754 306.632 35.9168 306.591 35.8399C306.55 35.7629 306.548 35.674 306.586 35.5925C306.624 35.5111 306.698 35.4438 306.793 35.4056L317.483 31.0797C317.577 31.0415 317.684 31.0354 317.78 31.0627C317.876 31.0901 317.953 31.1487 317.993 31.2256C318.034 31.3026 318.036 31.3915 317.998 31.473C317.96 31.5544 317.886 31.6216 317.791 31.6599V31.6599Z" fill="#B3D7EE" fill-opacity="0.8"/>
<path d="M320.225 41.1077C320.167 41.1311 320.105 41.1426 320.042 41.1412C319.98 41.1399 319.919 41.1257 319.866 41.1C319.813 41.0742 319.769 41.0377 319.738 40.9936C319.708 40.9495 319.69 40.8991 319.689 40.8469L319.45 33.9674C319.448 33.9254 319.457 33.8831 319.475 33.843C319.492 33.8028 319.519 33.7656 319.554 33.7334C319.589 33.7013 319.63 33.6748 319.676 33.6555C319.722 33.6362 319.772 33.6246 319.822 33.6211C319.873 33.6177 319.923 33.6226 319.97 33.6355C320.017 33.6485 320.06 33.6692 320.097 33.6965C320.134 33.7239 320.163 33.7572 320.184 33.7948C320.204 33.8323 320.216 33.8733 320.217 33.9153L320.456 40.7948C320.458 40.8586 320.437 40.9226 320.396 40.9784C320.355 41.0341 320.295 41.0792 320.225 41.1077V41.1077Z" fill="#B3D7EE" fill-opacity="0.8"/>
<path d="M219.564 237.143C219.677 243.992 226.367 249.409 234.298 249.409H235.401C236.376 249.406 237.314 249.733 238.013 250.32C238.545 250.749 238.914 251.306 239.075 251.919C239.15 252.167 239.187 252.422 239.185 252.677V264.769C239.179 267.093 239.946 269.37 241.397 271.328C243.475 274.129 244.692 277.334 244.692 280.66C244.692 281.434 244.871 282.201 245.218 282.915C245.566 283.629 246.074 284.276 246.714 284.818C247.354 285.361 248.112 285.788 248.945 286.074C249.778 286.361 250.669 286.501 251.565 286.487C255.274 286.428 258.182 283.674 258.182 280.469V277.444L260.02 277.631V280.66C260.021 281.434 260.2 282.201 260.548 282.915C260.895 283.629 261.404 284.276 262.044 284.818C262.684 285.361 263.443 285.788 264.276 286.074C265.109 286.361 266 286.501 266.896 286.487C270.605 286.428 273.511 283.674 273.511 280.469V278.938C275.351 279.601 285.776 279.601 288.67 278.96L289.456 278.908V280.66C289.456 281.434 289.635 282.201 289.983 282.915C290.33 283.629 290.838 284.276 291.478 284.818C292.118 285.361 292.876 285.788 293.709 286.074C294.542 286.361 295.433 286.501 296.33 286.487C300.04 286.428 302.947 283.674 302.947 280.469V277.954L303.561 277.906V280.66C303.561 281.148 303.63 281.634 303.768 282.107C304.147 283.378 305.012 284.501 306.221 285.296C307.431 286.091 308.915 286.51 310.434 286.487C313.825 286.434 316.541 284.129 316.99 281.286C317.029 281.016 317.049 280.744 317.052 280.473V267.816C317.059 263.468 315.374 259.245 312.268 255.824C311.729 255.219 311.428 254.481 311.407 253.718C311.386 252.955 311.647 252.206 312.152 251.58C315.586 247.236 320.664 239.907 320.497 234.71C320.454 233.205 319.977 231.886 318.889 230.864C318.823 230.801 318.755 230.738 318.687 230.679C313.745 226.207 305.039 229.726 305.799 235.87C306.053 237.929 305.876 240.01 305.276 242.015C304.936 243.147 304.474 244.25 303.897 245.309C303.321 246.372 302.371 247.251 301.183 247.822C299.995 248.392 298.63 248.624 297.28 248.486C296.363 248.39 295.439 248.343 294.515 248.344H266.167C264.504 248.341 262.883 247.889 261.533 247.051C260.182 246.212 259.17 245.03 258.636 243.669C258.349 242.955 258.205 242.205 258.208 241.45V222.402C258.208 221.905 258.093 221.414 257.869 220.956C257.645 220.498 257.316 220.084 256.903 219.738C256.49 219.392 256.001 219.122 255.464 218.943C254.927 218.763 254.355 218.679 253.78 218.695C253.218 218.709 252.665 218.822 252.155 219.025C251.644 219.229 251.187 219.52 250.81 219.88C250.043 220.612 249.617 221.563 249.614 222.551C249.614 222.809 249.556 223.064 249.441 223.303C249.327 223.541 249.159 223.758 248.948 223.94C248.736 224.122 248.486 224.267 248.21 224.365C247.933 224.464 247.638 224.514 247.339 224.514H233.978C232.067 224.513 230.176 224.841 228.414 225.478C226.651 226.114 225.053 227.047 223.712 228.223C222.371 229.398 221.315 230.792 220.603 232.323C219.892 233.854 219.54 235.493 219.569 237.143H219.564Z" fill="#F3AD55"/>
<path d="M303.781 282.107C304.161 283.378 305.025 284.501 306.235 285.296C307.444 286.091 308.929 286.51 310.448 286.487C313.839 286.434 316.554 284.129 317.004 281.285C312.919 280.33 307.259 279.676 303.781 282.107Z" fill="#FBDCA3"/>
<path d="M289.679 282.107C290.058 283.378 290.921 284.501 292.131 285.296C293.34 286.091 294.824 286.51 296.343 286.487C299.734 286.434 302.461 284.129 302.899 281.285C298.814 280.33 293.155 279.676 289.679 282.107Z" fill="#FBDCA3"/>
<path d="M260.243 282.107C260.622 283.378 261.486 284.502 262.696 285.296C263.906 286.091 265.39 286.51 266.91 286.487C270.301 286.434 273.028 284.129 273.463 281.285C269.38 280.33 263.721 279.676 260.243 282.107Z" fill="#FBDCA3"/>
<path d="M244.912 282.107C245.292 283.378 246.156 284.501 247.366 285.296C248.575 286.091 250.059 286.51 251.579 286.487C254.97 286.434 257.697 284.129 258.135 281.285C254.05 280.33 248.39 279.676 244.912 282.107Z" fill="#FBDCA3"/>
<path d="M305.29 242.02C310.055 240.368 315.879 237.346 320.51 234.715C320.468 233.211 319.99 231.892 318.903 230.87C318.837 230.807 318.769 230.744 318.701 230.685C313.759 226.213 305.052 229.732 305.812 235.876C306.066 237.935 305.89 240.016 305.29 242.02V242.02Z" fill="#FBDCA3"/>
<path d="M299.52 248.387C299.52 248.387 286.401 262.651 264.928 248.35Z" fill="#FBDCA3"/>
<path d="M258.196 221.866C258.196 221.866 250.223 230.87 258.196 241.988Z" fill="#FBDCA3"/>
<path d="M239.185 252.588C239.185 252.588 246.206 260.122 239.279 266.102Z" fill="#FBDCA3"/>
<path opacity="0.1" d="M238.573 250.998C239.093 251.421 238.916 251.83 239.074 252.45L261.869 247.291C260.643 246.478 259.123 245.506 258.619 244.214C255.89 246.045 250.487 249.118 238.573 250.998Z" fill="black"/>
<path d="M238.013 250.319C238.544 250.749 238.914 251.306 239.074 251.919L261.297 246.915C260.056 246.089 259.126 244.965 258.624 243.683C255.89 245.516 249.929 248.439 238.013 250.319Z" fill="#383F4D"/>
<path opacity="0.1" d="M257.789 244.742C257.789 244.742 250.835 249.258 239.185 250.655Z" fill="black"/>
<path d="M257.789 244.214C257.789 244.214 250.835 248.73 239.185 250.128Z" fill="#F3AD55"/>
<path opacity="0.1" d="M240.411 244.643C240.411 244.643 228.76 247.819 225.694 237.756L240.411 244.643Z" fill="black"/>
<path d="M240.411 244.112C240.411 244.112 228.76 247.291 225.694 237.228L240.411 244.112Z" fill="#FBDCA3"/>
<path d="M219.562 237.756C218.884 237.756 218.336 236.926 218.336 235.903C218.336 234.879 218.884 234.049 219.562 234.049C220.239 234.049 220.788 234.879 220.788 235.903C220.788 236.926 220.239 237.756 219.562 237.756Z" fill="#383F4D"/>
<path opacity="0.1" d="M312.462 274.039L310.01 257.09C310.01 257.09 317.371 267.153 312.462 274.039Z" fill="black"/>
<path d="M309.403 257.09C309.403 257.09 316.761 267.153 311.857 274.039L309.403 257.09Z" fill="#FBDCA3"/>
</svg>
