<svg width="488" height="345" viewBox="0 0 488 345" fill="none" xmlns="http://www.w3.org/2000/svg">
<path d="M448.367 295.574C449.836 295.763 451.309 295.333 452.726 294.803C455.537 293.753 458.453 292.084 459.909 288.826C460.441 287.636 460.743 286.304 461.041 284.986C461.641 282.326 462.245 279.635 462.342 276.868C462.445 273.824 461.931 270.798 460.85 268.085C460.691 267.675 460.422 267.353 460.093 267.179C459.519 266.889 459.203 267.285 458.953 267.697C457.433 270.196 457.591 273.676 457.464 276.842C457.336 280.016 456.852 283.149 456.026 286.145C455.675 287.416 455.212 288.738 454.322 289.454C453.776 289.892 453.127 290.052 452.495 290.205C451.549 290.433 450.516 290.645 449.668 290.061C448.8 289.463 448.226 287.914 447.224 287.656C446.232 287.401 444.879 288.734 444.437 289.857C443.238 292.899 446.4 295.321 448.367 295.574Z" fill="#FFE39D"/>
<g opacity="0.1">
<path opacity="0.1" d="M454.322 289.454C453.776 289.892 453.127 290.052 452.495 290.205C451.845 290.361 451.156 290.504 450.512 290.393C451.32 290.826 452.267 290.636 453.141 290.426C453.773 290.273 454.423 290.113 454.968 289.675C455.859 288.959 456.321 287.636 456.672 286.365C457.498 283.37 457.982 280.236 458.11 277.063C458.237 273.897 458.08 270.417 459.599 267.917C459.775 267.628 459.985 267.352 460.293 267.311C460.229 267.259 460.162 267.215 460.093 267.179C459.519 266.889 459.204 267.285 458.953 267.697C457.434 270.196 457.591 273.676 457.464 276.842C457.336 280.016 456.852 283.149 456.026 286.145C455.675 287.416 455.213 288.738 454.322 289.454Z" fill="black"/>
<path opacity="0.1" d="M445.083 290.078C445.492 289.04 446.678 287.825 447.638 287.848C447.508 287.76 447.368 287.695 447.224 287.656C446.232 287.401 444.879 288.734 444.437 289.857C443.319 292.694 445.995 294.991 447.955 295.493C446.113 294.715 444.084 292.612 445.083 290.078Z" fill="black"/>
</g>
<path opacity="0.1" d="M453.048 278.683L435.992 267.78L433.533 274.116L450.589 285.019L453.048 278.683Z" fill="black"/>
<path d="M453.048 278.683L435.992 267.78L433.756 273.54L450.812 284.443L453.048 278.683Z" fill="#6C63FF"/>
<path d="M446.91 275.265C448.571 275.265 449.918 273.536 449.918 271.404C449.918 269.271 448.571 267.543 446.91 267.543C445.248 267.543 443.901 269.271 443.901 271.404C443.901 273.536 445.248 275.265 446.91 275.265Z" fill="#6C63FF"/>
<path d="M444.624 251.27C444.624 251.27 449.833 253.082 451.73 255.812C451.73 255.812 454.803 252.465 456.224 253.374C457.645 254.282 455.523 261.272 455.523 261.272L453.643 272.211C453.643 272.211 454.621 298.635 441.373 303.825C428.125 309.015 418.632 287.771 421.7 279.867C424.767 271.964 433.981 257.366 433.981 257.366C433.981 257.366 442.014 245.808 443.433 245.197C444.853 244.587 444.624 251.27 444.624 251.27Z" fill="#FFE39D"/>
<g opacity="0.1">
<path opacity="0.1" d="M452.547 285.692C453.354 281.275 453.723 276.746 453.643 272.211L453.346 273.938C453.417 277.882 453.149 281.823 452.547 285.692V285.692Z" fill="white"/>
<path opacity="0.1" d="M423.184 278.772C426.252 270.869 433.684 259.093 433.684 259.093C433.684 259.093 441.717 247.535 443.136 246.925C444.556 246.314 444.327 252.997 444.327 252.997C444.327 252.997 449.536 254.81 451.433 257.54C451.433 257.54 454.506 254.193 455.927 255.101C456.479 255.454 456.495 256.723 456.311 258.144C456.722 256.156 456.996 253.867 456.224 253.374C454.803 252.465 451.73 255.812 451.73 255.812C449.833 253.082 444.624 251.27 444.624 251.27C444.624 251.27 444.853 244.587 443.433 245.197C442.014 245.808 433.981 257.366 433.981 257.366C433.981 257.366 426.549 269.141 423.481 277.045C423.204 277.759 423.096 278.999 423.184 278.772Z" fill="white"/>
</g>
<path d="M449.732 269.173C450.317 269.173 450.791 268.565 450.791 267.814C450.791 267.064 450.317 266.456 449.732 266.456C449.148 266.456 448.674 267.064 448.674 267.814C448.674 268.565 449.148 269.173 449.732 269.173Z" fill="#58555D"/>
<path d="M438.837 262.208C439.421 262.208 439.895 261.599 439.895 260.849C439.895 260.099 439.421 259.491 438.837 259.491C438.252 259.491 437.778 260.099 437.778 260.849C437.778 261.599 438.252 262.208 438.837 262.208Z" fill="#58555D"/>
<path d="M445.471 266.608C445.731 265.936 445.306 264.985 444.521 264.483C443.736 263.981 442.889 264.119 442.628 264.791C442.368 265.462 442.793 266.413 443.578 266.915C444.362 267.417 445.21 267.279 445.471 266.608Z" fill="#58555D"/>
<path d="M452.639 269.301L452.511 269.96L457.246 271.471L457.374 270.812L452.639 269.301Z" fill="#FFE39D"/>
<path d="M451.701 271.733L451.562 272.388L456.77 274.206L456.909 273.55L451.701 271.733Z" fill="#FFE39D"/>
<path d="M432.161 252.436L431.766 252.887L435.559 258.347L435.954 257.896L432.161 252.436Z" fill="#FFE39D"/>
<path d="M429.515 254.515L429.21 255.07L434.896 260.223L435.201 259.668L429.515 254.515Z" fill="#FFE39D"/>
<path opacity="0.1" d="M435.017 282.564C435.017 282.564 434.743 293.863 430.114 291.881C425.485 289.9 430.751 282.679 430.751 282.679C430.751 282.679 431.296 279.884 430.297 279.068" fill="black"/>
<path opacity="0.1" d="M439.083 284.885C439.083 284.885 431.759 291.164 435.518 295.155C439.278 299.146 441.265 289.591 441.265 289.591C441.265 289.591 442.825 287.518 443.892 288.174" fill="black"/>
<path d="M434.729 282.059C434.729 282.059 434.455 293.358 429.826 291.377C425.197 289.395 430.463 282.175 430.463 282.175C430.463 282.175 431.008 279.379 430.01 278.564" fill="#FFE39D"/>
<path d="M439.533 284.691C439.533 284.691 432.208 290.969 435.967 294.961C439.727 298.952 441.714 289.397 441.714 289.397C441.714 289.397 443.274 287.324 444.341 287.98" fill="#FFE39D"/>
<path opacity="0.5" d="M429.177 288.586L428.481 290.38L428.556 290.428L429.252 288.634L429.177 288.586Z" fill="#58555D"/>
<path opacity="0.5" d="M430.374 289.351L429.678 291.145L429.752 291.193L430.449 289.399L430.374 289.351Z" fill="#58555D"/>
<path opacity="0.5" d="M429.946 288.364L428.972 290.875L429.047 290.922L430.021 288.412L429.946 288.364Z" fill="#58555D"/>
<path opacity="0.5" d="M437.106 293.176L436.41 294.969L436.484 295.017L437.181 293.223L437.106 293.176Z" fill="#58555D"/>
<path opacity="0.5" d="M438.303 293.941L437.607 295.735L437.681 295.782L438.378 293.989L438.303 293.941Z" fill="#58555D"/>
<path opacity="0.5" d="M437.875 292.953L436.901 295.464L436.976 295.512L437.95 293.001L437.875 292.953Z" fill="#58555D"/>
<path opacity="0.1" d="M439.85 272.723C438.61 271.931 437.424 271.004 436.307 269.951C432.787 266.63 430.891 262.742 430.824 262.599L431.37 261.723C431.385 261.756 433.499 265.847 436.886 269.031C440.005 271.962 445.958 275.486 453.559 275.077L453.598 276.258C448.081 276.555 443.081 274.788 439.85 272.723Z" fill="black"/>
<path d="M439.768 273.478L439.752 273.416C439.836 273.395 439.915 273.351 439.983 273.284C440.052 273.218 440.107 273.133 440.146 273.035C440.184 272.937 440.204 272.829 440.204 272.719C440.205 272.609 440.185 272.501 440.147 272.403L440.194 272.375C440.235 272.482 440.256 272.599 440.255 272.718C440.255 272.837 440.234 272.954 440.193 273.061C440.151 273.167 440.092 273.26 440.018 273.333C439.945 273.405 439.859 273.455 439.768 273.478Z" fill="#4D8AF0"/>
<path opacity="0.1" d="M439.768 273.478L439.752 273.416C439.836 273.395 439.915 273.351 439.983 273.284C440.052 273.218 440.107 273.133 440.146 273.035C440.184 272.937 440.204 272.829 440.204 272.719C440.205 272.609 440.185 272.501 440.147 272.403L440.194 272.375C440.235 272.482 440.256 272.599 440.255 272.718C440.255 272.837 440.234 272.954 440.193 273.061C440.151 273.167 440.092 273.26 440.018 273.333C439.945 273.405 439.859 273.455 439.768 273.478Z" fill="black"/>
<path d="M453.65 274.841C446.049 275.251 440.096 271.726 436.978 268.796C433.59 265.612 431.477 261.521 431.461 261.487L430.675 262.103C430.743 262.246 432.878 266.395 436.398 269.716C437.515 270.768 438.701 271.695 439.942 272.487C443.172 274.553 448.172 276.319 453.689 276.022L453.65 274.841ZM440.125 272.506C440.107 272.495 440.092 272.476 440.082 272.454C440.072 272.431 440.067 272.405 440.068 272.379C440.07 272.354 440.077 272.329 440.09 272.308C440.102 272.288 440.119 272.272 440.138 272.264C440.157 272.256 440.178 272.255 440.197 272.262C440.217 272.269 440.234 272.283 440.248 272.302C440.261 272.322 440.27 272.346 440.272 272.372C440.275 272.398 440.271 272.424 440.262 272.447C440.256 272.463 440.248 272.476 440.238 272.488C440.228 272.499 440.216 272.508 440.203 272.513C440.19 272.519 440.177 272.521 440.163 272.52C440.15 272.518 440.137 272.514 440.125 272.506Z" fill="#F55F44"/>
<path opacity="0.1" d="M438.57 273.566C438.449 273.878 438.43 274.239 438.516 274.569C438.602 274.899 438.787 275.172 439.03 275.327V275.327C439.273 275.483 439.554 275.508 439.811 275.397C440.069 275.286 440.281 275.049 440.402 274.737V274.737C440.523 274.426 440.543 274.065 440.456 273.735C440.37 273.404 440.185 273.132 439.942 272.976V272.976C439.7 272.821 439.419 272.796 439.161 272.907C438.904 273.017 438.691 273.255 438.57 273.566V273.566ZM439.714 273.564C439.684 273.545 439.659 273.514 439.642 273.477C439.626 273.439 439.618 273.396 439.62 273.353C439.623 273.31 439.635 273.268 439.656 273.234C439.676 273.2 439.704 273.174 439.736 273.161C439.768 273.147 439.803 273.146 439.835 273.157C439.868 273.168 439.897 273.192 439.919 273.225C439.941 273.257 439.955 273.298 439.96 273.34C439.964 273.383 439.958 273.427 439.943 273.466C439.923 273.518 439.887 273.557 439.845 273.576C439.802 273.594 439.755 273.59 439.714 273.564L439.714 273.564Z" fill="url(#paint0_linear)"/>
<path d="M438.662 273.625C438.553 273.905 438.536 274.23 438.613 274.527C438.691 274.825 438.857 275.07 439.076 275.21C439.294 275.35 439.547 275.372 439.779 275.273C440.01 275.173 440.202 274.959 440.311 274.679V274.679C440.42 274.398 440.437 274.074 440.36 273.776C440.282 273.479 440.116 273.234 439.897 273.094V273.094C439.678 272.954 439.425 272.932 439.194 273.031C438.962 273.131 438.771 273.344 438.662 273.625V273.625ZM439.692 273.623C439.664 273.606 439.642 273.578 439.627 273.544C439.612 273.511 439.605 273.472 439.607 273.433C439.609 273.394 439.62 273.357 439.639 273.326C439.657 273.295 439.683 273.272 439.711 273.26C439.74 273.247 439.771 273.246 439.8 273.257C439.83 273.267 439.856 273.288 439.876 273.317C439.896 273.347 439.908 273.383 439.912 273.422C439.916 273.46 439.911 273.5 439.897 273.534C439.888 273.558 439.876 273.578 439.861 273.595C439.846 273.612 439.828 273.625 439.809 273.633C439.79 273.642 439.77 273.645 439.749 273.643C439.729 273.641 439.71 273.634 439.692 273.623V273.623Z" fill="#4D8AF0"/>
<path d="M439.736 273.457C439.695 273.35 439.675 273.232 439.675 273.113C439.676 272.994 439.698 272.877 439.739 272.771C439.781 272.665 439.841 272.572 439.915 272.5C439.988 272.428 440.074 272.379 440.165 272.356L440.176 272.421C440.092 272.441 440.013 272.487 439.945 272.553C439.877 272.62 439.822 272.705 439.784 272.804C439.746 272.902 439.726 273.01 439.726 273.12C439.726 273.23 439.746 273.338 439.784 273.436L439.736 273.457Z" fill="#4D8AF0"/>
<path d="M452.3 274.421C435.995 275.881 432.151 262.421 432.151 262.421L452.3 274.421Z" fill="#FFE39D"/>
<path opacity="0.1" d="M127.911 188.104C120.618 197.386 125.537 208.97 126.733 219.659C127.459 226.192 126.698 232.77 124.482 239.113C121.337 248.117 115.311 256.564 113.77 265.779C112.228 274.993 116.99 285.851 128.819 289.056C131.755 289.852 134.931 290.121 137.788 291.063C145.537 293.622 148.973 300.472 149.237 306.723C149.501 312.973 147.418 319.19 147.795 325.438C148.007 328.955 149.127 332.628 152.364 335.216C155.341 337.594 159.672 338.733 163.841 339.747C177.023 342.954 190.788 345.79 204.607 344.799C218.427 343.809 232.435 338.224 237.745 328.776C239.667 325.357 240.379 321.609 242.311 318.2C244.244 314.79 247.902 311.517 252.876 310.982C255.782 310.669 258.7 311.33 261.503 311.98L301.673 321.323C307.839 322.759 314.76 324.161 320.549 322.034C323.526 320.939 325.784 319.037 327.956 317.171C367.667 325.438 374.358 293.065 377.5 273.85C378.606 267.079 385.523 260.443 386.753 253.686C387.983 246.928 372.662 233.236 380.476 229.588C386.502 226.773 393.96 226.35 401.058 225.782C412.548 224.861 424.11 223.299 434.531 219.621C444.952 215.943 454.226 209.941 458.662 202.083C459.974 199.758 460.855 197.186 460.115 194.731C458.792 190.352 452.897 187.669 447.371 185.773C430.845 180.141 412.921 177.126 395.07 174.472C386.882 173.254 378.626 172.099 370.26 172.168C363.029 172.225 355.872 173.192 348.75 174.111C287.758 181.946 221.853 186.894 160.638 177.341C147.801 175.337 134.903 179.205 127.911 188.104Z" fill="#6C63FF"/>
<path d="M49.9349 185.491C49.9395 176.062 52.6072 166.909 57.5075 159.51C62.4079 152.111 69.255 146.897 76.9442 144.71C110.575 135.085 166.977 123.422 194.565 142.984C235.368 171.942 350.538 146.678 350.538 146.678C350.538 146.678 421.809 172.569 420.26 181.775C418.712 190.98 49.9494 185.468 49.9494 185.468L49.9349 185.491Z" fill="#6C63FF"/>
<path opacity="0.4" d="M232.184 150.607C232.184 150.607 295.933 111.213 320.987 140.145C338.218 160.04 377.047 154.321 399.618 148.802C412.103 145.747 424.784 148.42 436.64 156.609C448.063 164.507 460.073 174.043 459.57 178.924C458.619 188.156 232.184 182.614 232.184 182.614V150.607Z" fill="#6C63FF"/>
<path d="M322.088 133.462C324.006 134.166 325.809 134.999 326.361 136.012C326.914 137.026 325.819 138.241 323.37 138.612C320.629 139.024 317.691 138.274 315.471 137.516C313.251 136.758 310.698 135.889 307.79 136.049C309.287 136.586 310.408 137.267 311.041 138.026C311.675 138.785 311.801 139.595 311.406 140.379C311.267 140.704 310.907 141.007 310.364 141.257C308.843 141.899 306.081 141.623 304.257 141.117C298.452 139.502 296.837 136.387 296.806 133.581C296.222 134.595 296.712 135.641 296.701 136.684C296.691 137.726 295.972 138.871 293.752 139.427C292.373 139.719 290.823 139.861 289.26 139.839C286.655 139.877 283.747 139.774 281.965 139.015C279.756 138.08 280.329 136.507 282.247 135.472C284.164 134.438 287.103 133.796 289.802 133.083C291.966 132.574 293.811 131.878 295.201 131.048C295.362 130.932 295.495 130.811 295.597 130.685H311.948C315.631 131.425 319.042 132.359 322.088 133.462V133.462Z" fill="white"/>
<path d="M167.999 138.631C170.215 139.483 172.298 140.49 172.931 141.717C173.565 142.943 172.289 144.414 169.451 144.862C166.274 145.361 162.875 144.454 160.309 143.536C157.743 142.619 154.791 141.567 151.423 141.762C153.162 142.413 154.459 143.24 155.189 144.162C155.918 145.084 156.054 146.07 155.583 147.021C155.42 147.414 155.001 147.781 154.371 148.083C152.604 148.86 149.408 148.526 147.299 147.913C140.586 145.959 138.735 142.19 138.717 138.795C138.035 140.022 138.595 141.288 138.577 142.549C138.558 143.81 137.718 145.196 135.143 145.869C133.544 146.222 131.749 146.394 129.939 146.368C126.921 146.413 123.554 146.288 121.495 145.371C118.942 144.239 119.616 142.335 121.844 141.084C124.071 139.832 127.479 139.055 130.61 138.192C133.119 137.576 135.26 136.734 136.875 135.729C137.063 135.59 137.217 135.443 137.336 135.291H156.273C160.531 136.18 164.475 137.303 167.999 138.631Z" fill="white"/>
<path d="M427.525 191.212C428.26 190.227 428.952 189.063 429.164 187.646C429.375 186.229 428.956 184.529 428.017 184.011C426.966 183.435 425.839 184.483 424.987 185.543C424.136 186.603 423.157 187.819 422.042 187.594C422.616 186.844 423.046 185.891 423.289 184.83C423.532 183.769 423.58 182.635 423.429 181.539C423.375 181.086 423.237 180.661 423.029 180.312C422.446 179.413 421.386 179.799 420.687 180.508C418.461 182.766 417.842 187.122 417.83 191.045C417.606 189.628 417.794 188.165 417.79 186.707C417.786 185.25 417.51 183.648 416.659 182.87C416.13 182.463 415.535 182.264 414.936 182.294C413.937 182.242 412.822 182.386 412.139 183.446C411.291 184.754 411.511 186.955 412.246 188.401C412.982 189.847 414.109 190.746 415.144 191.742C415.974 192.455 416.681 193.427 417.214 194.588C417.276 194.75 417.327 194.92 417.366 195.095H423.637C425.049 194.061 426.357 192.755 427.525 191.212V191.212Z" fill="#6C63FF"/>
<path d="M436.475 243.221C455.387 243.221 470.719 227.009 470.719 207.011C470.719 187.012 455.387 170.801 436.475 170.801C417.562 170.801 402.231 187.012 402.231 207.011C402.231 227.009 417.562 243.221 436.475 243.221Z" fill="#5CA463"/>
<path d="M400.057 233.329C418.969 233.329 434.301 217.117 434.301 197.118C434.301 177.12 418.969 160.908 400.057 160.908C381.144 160.908 365.813 177.12 365.813 197.118C365.813 217.117 381.144 233.329 400.057 233.329Z" fill="#5CA463"/>
<path d="M359.967 233.683C378.88 233.683 394.212 217.471 394.212 197.472C394.212 177.474 378.88 161.262 359.967 161.262C341.055 161.262 325.723 177.474 325.723 197.472C325.723 217.471 341.055 233.683 359.967 233.683Z" fill="#5CA463"/>
<path d="M346.937 243.221C365.85 243.221 381.181 227.009 381.181 207.011C381.181 187.012 365.85 170.801 346.937 170.801C328.025 170.801 312.693 187.012 312.693 207.011C312.693 227.009 328.025 243.221 346.937 243.221Z" fill="#5CA463"/>
<path d="M324.886 246.402C343.798 246.402 359.13 230.191 359.13 210.192C359.13 190.194 343.798 173.982 324.886 173.982C305.973 173.982 290.642 190.194 290.642 210.192C290.642 230.191 305.973 246.402 324.886 246.402Z" fill="#5CA463"/>
<path d="M315.865 217.786C334.778 217.786 350.109 201.574 350.109 181.575C350.109 161.577 334.778 145.365 315.865 145.365C296.953 145.365 281.621 161.577 281.621 181.575C281.621 201.574 296.953 217.786 315.865 217.786Z" fill="#5CA463"/>
<path d="M325.888 184.576C344.8 184.576 360.132 168.364 360.132 148.365C360.132 128.367 344.8 112.155 325.888 112.155C306.975 112.155 291.644 128.367 291.644 148.365C291.644 168.364 306.975 184.576 325.888 184.576Z" fill="#5CA463"/>
<path d="M344.931 184.576C363.843 184.576 379.175 168.364 379.175 148.365C379.175 128.367 363.843 112.155 344.931 112.155C326.018 112.155 310.687 128.367 310.687 148.365C310.687 168.364 326.018 184.576 344.931 184.576Z" fill="#5CA463"/>
<path d="M355.958 169.738C374.87 169.738 390.202 153.526 390.202 133.528C390.202 113.529 374.87 97.3174 355.958 97.3174C337.045 97.3174 321.714 113.529 321.714 133.528C321.714 153.526 337.045 169.738 355.958 169.738Z" fill="#5CA463"/>
<path d="M384.022 185.989C402.934 185.989 418.266 169.777 418.266 149.779C418.266 129.78 402.934 113.568 384.022 113.568C365.109 113.568 349.778 129.78 349.778 149.779C349.778 169.777 365.109 185.989 384.022 185.989Z" fill="#5CA463"/>
<path d="M449.505 217.786C468.418 217.786 483.749 201.574 483.749 181.575C483.749 161.577 468.418 145.365 449.505 145.365C430.593 145.365 415.261 161.577 415.261 181.575C415.261 201.574 430.593 217.786 449.505 217.786Z" fill="#5CA463"/>
<path d="M429.792 199.768C448.705 199.768 464.036 183.556 464.036 163.557C464.036 143.559 448.705 127.347 429.792 127.347C410.88 127.347 395.548 143.559 395.548 163.557C395.548 183.556 410.88 199.768 429.792 199.768Z" fill="#5CA463"/>
<path d="M417.097 181.749C436.009 181.749 451.341 165.537 451.341 145.539C451.341 125.54 436.009 109.328 417.097 109.328C398.184 109.328 382.853 125.54 382.853 145.539C382.853 165.537 398.184 181.749 417.097 181.749Z" fill="#5CA463"/>
<path d="M393.042 154.546C411.955 154.546 427.286 138.334 427.286 118.336C427.286 98.3374 411.955 82.1255 393.042 82.1255C374.13 82.1255 358.798 98.3374 358.798 118.336C358.798 138.334 374.13 154.546 393.042 154.546Z" fill="#5CA463"/>
<path d="M437.811 184.576C456.724 184.576 472.055 168.364 472.055 148.365C472.055 128.367 456.724 112.155 437.811 112.155C418.899 112.155 403.567 128.367 403.567 148.365C403.567 168.364 418.899 184.576 437.811 184.576Z" fill="#5CA463"/>
<g opacity="0.1">
<path opacity="0.1" d="M436.475 243.221C455.387 243.221 470.719 227.009 470.719 207.011C470.719 187.012 455.387 170.801 436.475 170.801C417.562 170.801 402.231 187.012 402.231 207.011C402.231 227.009 417.562 243.221 436.475 243.221Z" fill="black"/>
<path opacity="0.1" d="M400.057 233.328C418.969 233.328 434.301 217.117 434.301 197.118C434.301 177.12 418.969 160.908 400.057 160.908C381.144 160.908 365.813 177.12 365.813 197.118C365.813 217.117 381.144 233.328 400.057 233.328Z" fill="black"/>
<path opacity="0.1" d="M359.967 233.683C378.88 233.683 394.212 217.471 394.212 197.472C394.212 177.474 378.88 161.262 359.967 161.262C341.055 161.262 325.723 177.474 325.723 197.472C325.723 217.471 341.055 233.683 359.967 233.683Z" fill="black"/>
<path opacity="0.1" d="M346.937 243.221C365.85 243.221 381.181 227.009 381.181 207.011C381.181 187.012 365.85 170.801 346.937 170.801C328.025 170.801 312.693 187.012 312.693 207.011C312.693 227.009 328.025 243.221 346.937 243.221Z" fill="black"/>
<path opacity="0.1" d="M324.886 246.402C343.798 246.402 359.13 230.191 359.13 210.192C359.13 190.194 343.798 173.982 324.886 173.982C305.973 173.982 290.642 190.194 290.642 210.192C290.642 230.191 305.973 246.402 324.886 246.402Z" fill="black"/>
<path opacity="0.1" d="M315.865 217.786C334.778 217.786 350.109 201.574 350.109 181.575C350.109 161.577 334.778 145.365 315.865 145.365C296.953 145.365 281.621 161.577 281.621 181.575C281.621 201.574 296.953 217.786 315.865 217.786Z" fill="black"/>
<path opacity="0.1" d="M325.888 184.576C344.8 184.576 360.132 168.364 360.132 148.365C360.132 128.367 344.8 112.155 325.888 112.155C306.975 112.155 291.644 128.367 291.644 148.365C291.644 168.364 306.975 184.576 325.888 184.576Z" fill="black"/>
<path opacity="0.1" d="M344.931 184.576C363.843 184.576 379.175 168.364 379.175 148.365C379.175 128.367 363.843 112.155 344.931 112.155C326.018 112.155 310.687 128.367 310.687 148.365C310.687 168.364 326.018 184.576 344.931 184.576Z" fill="black"/>
<path opacity="0.1" d="M355.958 169.738C374.87 169.738 390.202 153.526 390.202 133.528C390.202 113.529 374.87 97.3171 355.958 97.3171C337.045 97.3171 321.714 113.529 321.714 133.528C321.714 153.526 337.045 169.738 355.958 169.738Z" fill="black"/>
<path opacity="0.1" d="M384.022 185.989C402.934 185.989 418.266 169.777 418.266 149.779C418.266 129.78 402.934 113.568 384.022 113.568C365.109 113.568 349.778 129.78 349.778 149.779C349.778 169.777 365.109 185.989 384.022 185.989Z" fill="black"/>
<path opacity="0.1" d="M449.505 217.786C468.418 217.786 483.749 201.574 483.749 181.575C483.749 161.577 468.418 145.365 449.505 145.365C430.593 145.365 415.261 161.577 415.261 181.575C415.261 201.574 430.593 217.786 449.505 217.786Z" fill="black"/>
<path opacity="0.1" d="M429.792 199.767C448.705 199.767 464.036 183.556 464.036 163.557C464.036 143.559 448.705 127.347 429.792 127.347C410.88 127.347 395.548 143.559 395.548 163.557C395.548 183.556 410.88 199.767 429.792 199.767Z" fill="black"/>
<path opacity="0.1" d="M417.097 181.749C436.009 181.749 451.341 165.537 451.341 145.539C451.341 125.54 436.009 109.328 417.097 109.328C398.184 109.328 382.853 125.54 382.853 145.539C382.853 165.537 398.184 181.749 417.097 181.749Z" fill="black"/>
<path opacity="0.1" d="M393.042 154.546C411.955 154.546 427.286 138.334 427.286 118.336C427.286 98.3374 411.955 82.1255 393.042 82.1255C374.13 82.1255 358.798 98.3374 358.798 118.336C358.798 138.334 374.13 154.546 393.042 154.546Z" fill="black"/>
<path opacity="0.1" d="M437.811 184.576C456.724 184.576 472.055 168.364 472.055 148.365C472.055 128.367 456.724 112.155 437.811 112.155C418.899 112.155 403.567 128.367 403.567 148.365C403.567 168.364 418.899 184.576 437.811 184.576Z" fill="black"/>
</g>
<path d="M419.562 270.467C419.562 270.467 440.498 251.861 430.141 225.366L419.783 221.264L408.545 257.85L419.562 270.467Z" fill="#67647E"/>
<path opacity="0.1" d="M420.678 220.003L423.156 220.985L412.122 256.905L421.749 267.927C420.952 268.767 420.456 269.206 420.456 269.206L409.436 256.589L420.678 220.003Z" fill="black"/>
<path d="M459.216 266.563C459.216 266.563 452.406 273.764 456.251 284.451C460.097 295.137 449.663 312.904 449.663 312.904L449.998 312.847C463.983 310.237 470.933 293.324 463.155 280.756C460.248 276.092 457.873 270.608 459.216 266.563Z" fill="#5CA463"/>
<path d="M459.216 266.563C459.216 266.563 455.371 275.39 459.216 282.591C463.061 289.792 459.886 310 449.659 312.904" stroke="#535461" stroke-miterlimit="10"/>
<path d="M471.345 295.69C471.345 295.69 463.574 294.383 462.867 301.747C462.16 309.111 447.921 310.131 447.921 310.131L448.189 310.319C459.943 318.465 471.178 315.515 469.483 304.683C468.856 300.656 468.907 296.611 471.345 295.69Z" fill="#5CA463"/>
<path opacity="0.2" d="M471.345 295.69C471.345 295.69 463.574 294.383 462.867 301.747C462.16 309.111 447.921 310.131 447.921 310.131L448.189 310.319C459.943 318.465 471.178 315.515 469.483 304.683C468.856 300.656 468.907 296.611 471.345 295.69Z" fill="#F5F5F5"/>
<path d="M471.345 295.69C471.345 295.69 465.316 297.107 465.808 302.891C466.301 308.675 456.851 315.642 447.924 310.131" stroke="#535461" stroke-miterlimit="10"/>
<path d="M325.013 231.713L327.733 243.225C327.733 243.225 346.951 245.874 359.763 244.21C362.028 243.87 364.203 243.04 366.151 241.773C367.233 241.096 368.941 240.802 371.276 242.651C375.276 245.839 394.905 271.342 391.726 297.801C391.479 299.795 390.618 301.647 389.276 303.071C387.933 304.495 386.184 305.411 384.3 305.678C380.385 306.242 376.643 307.739 373.356 310.056L363.642 316.896L463.246 314.594L452.905 301.357C452.905 301.357 445.831 295.027 440.387 294.45C438.8 294.284 437.49 292.743 436.431 290.649C430.231 278.376 422.815 266.836 414.775 255.817C408.92 247.791 404.006 239.332 404.465 234.019C405.554 221.356 404.465 200.639 404.465 200.639L383.784 197.763C383.784 197.763 386.504 225.391 361.468 232.294C336.432 239.198 325.013 231.713 325.013 231.713Z" fill="#67647E"/>
<path d="M400.188 312.029C400.188 312.029 411.721 309.589 414.799 306.337C417.877 303.086 431.715 297.393 433.252 301.46C434.79 305.526 454.021 319.347 440.957 321.788C427.893 324.228 410.2 325.039 406.354 323.413C402.509 321.788 400.188 312.029 400.188 312.029Z" fill="#A8A8A8"/>
<path opacity="0.2" d="M440.943 320.275C427.88 322.716 410.186 323.527 406.341 321.901C403.413 320.661 401.377 314.711 400.573 311.944L400.188 312.029C400.188 312.029 402.495 321.788 406.338 323.414C410.18 325.039 427.869 324.228 440.94 321.788C444.715 321.079 445.794 319.429 445.385 317.339C445.067 318.703 443.75 319.755 440.943 320.275Z" fill="black"/>
<path d="M478.249 242.726C478.206 244.181 477.775 245.594 477.006 246.802C476.231 245.599 475.793 244.188 475.743 242.733C475.743 240.483 476.293 238.659 476.986 238.656C477.68 238.652 478.242 240.476 478.249 242.726Z" fill="#5CA463"/>
<path d="M383.69 240.749C383.644 242.205 383.21 243.617 382.437 244.822C381.665 243.617 381.231 242.205 381.185 240.749C381.185 238.5 381.744 236.676 382.437 236.676C383.131 236.676 383.69 238.5 383.69 240.749Z" fill="#5CA463"/>
<path d="M486.747 280.888C487.519 282.093 487.954 283.505 488 284.961C486.705 284.466 485.568 283.594 484.721 282.446C483.468 280.625 482.909 278.801 483.468 278.373C484.027 277.944 485.498 279.071 486.747 280.888Z" fill="#5CA463"/>
<path d="M446.732 259.561C446.685 261.017 446.251 262.429 445.479 263.635C444.707 262.429 444.272 261.017 444.226 259.561C444.226 257.312 444.785 255.488 445.479 255.488C446.172 255.488 446.732 257.319 446.732 259.561Z" fill="#5CA463"/>
<path d="M423.324 246.03C423.278 247.486 422.843 248.898 422.071 250.104C421.299 248.898 420.865 247.486 420.818 246.03C420.818 243.781 421.378 241.957 422.071 241.957C422.765 241.957 423.324 243.781 423.324 246.03Z" fill="#5CA463"/>
<path d="M408.803 254.28C409.447 255.567 409.734 257.021 409.63 258.473C408.389 257.835 407.343 256.838 406.616 255.597C405.557 253.646 405.189 251.768 405.788 251.404C406.388 251.039 407.748 252.328 408.803 254.28Z" fill="#5CA463"/>
<path d="M397.953 291.698C396.917 292.658 395.646 293.29 394.285 293.519C394.589 292.099 395.266 290.799 396.238 289.768C397.789 288.23 399.434 287.416 399.906 287.947C400.378 288.478 399.504 290.161 397.953 291.698Z" fill="#5CA463"/>
<path opacity="0.1" d="M397.953 291.698C396.917 292.658 395.646 293.29 394.285 293.519C394.589 292.099 395.266 290.799 396.238 289.768C397.789 288.23 399.434 287.416 399.906 287.947C400.378 288.478 399.504 290.161 397.953 291.698Z" fill="black"/>
<path d="M420.735 289.389C419.699 290.349 418.427 290.98 417.067 291.209C417.371 289.789 418.047 288.489 419.02 287.458C420.57 285.921 422.215 285.106 422.687 285.638C423.16 286.169 422.286 287.848 420.735 289.389Z" fill="#5CA463"/>
<path opacity="0.1" d="M420.735 289.389C419.699 290.349 418.427 290.98 417.067 291.209C417.371 289.789 418.047 288.489 419.02 287.458C420.57 285.921 422.215 285.106 422.687 285.638C423.16 286.169 422.286 287.848 420.735 289.389Z" fill="black"/>
<path d="M425.103 313.808C424.067 314.768 422.795 315.399 421.435 315.628C421.738 314.204 422.416 312.9 423.391 311.867C424.942 310.329 426.586 309.515 427.059 310.046C427.531 310.577 426.657 312.267 425.103 313.808Z" fill="#5CA463"/>
<path opacity="0.1" d="M425.103 313.808C424.067 314.768 422.795 315.399 421.435 315.628C421.738 314.204 422.416 312.9 423.391 311.867C424.942 310.329 426.586 309.515 427.059 310.046C427.531 310.577 426.657 312.267 425.103 313.808Z" fill="black"/>
<path d="M459.48 312.075C459.48 312.075 465.212 310.871 466.739 309.266C468.267 307.662 475.147 304.853 475.911 306.858C476.675 308.863 486.228 315.685 479.733 316.885C473.238 318.086 464.448 318.49 462.539 317.689C460.629 316.889 459.48 312.075 459.48 312.075Z" fill="#A8A8A8"/>
<path opacity="0.2" d="M479.743 316.145C473.248 317.35 464.458 317.75 462.549 316.949C461.095 316.337 460.083 313.407 459.682 312.037L459.491 312.079C459.491 312.079 460.636 316.893 462.549 317.697C464.462 318.501 473.248 318.097 479.743 316.893C481.619 316.539 482.155 315.731 481.954 314.697C481.783 315.366 481.13 315.887 479.743 316.145Z" fill="black"/>
<path d="M436.475 235.096C455.387 235.096 470.719 218.884 470.719 198.886C470.719 178.887 455.387 162.675 436.475 162.675C417.562 162.675 402.231 178.887 402.231 198.886C402.231 218.884 417.562 235.096 436.475 235.096Z" fill="#5CA463"/>
<path d="M400.057 225.203C418.969 225.203 434.301 208.991 434.301 188.993C434.301 168.994 418.969 152.782 400.057 152.782C381.144 152.782 365.813 168.994 365.813 188.993C365.813 208.991 381.144 225.203 400.057 225.203Z" fill="#5CA463"/>
<path d="M359.967 225.557C378.88 225.557 394.212 209.345 394.212 189.347C394.212 169.348 378.88 153.136 359.967 153.136C341.055 153.136 325.723 169.348 325.723 189.347C325.723 209.345 341.055 225.557 359.967 225.557Z" fill="#5CA463"/>
<path d="M346.937 235.096C365.85 235.096 381.181 218.884 381.181 198.886C381.181 178.887 365.85 162.675 346.937 162.675C328.025 162.675 312.693 178.887 312.693 198.886C312.693 218.884 328.025 235.096 346.937 235.096Z" fill="#5CA463"/>
<path d="M324.886 238.277C343.798 238.277 359.13 222.065 359.13 202.067C359.13 182.068 343.798 165.856 324.886 165.856C305.973 165.856 290.642 182.068 290.642 202.067C290.642 222.065 305.973 238.277 324.886 238.277Z" fill="#5CA463"/>
<path d="M315.865 209.661C334.778 209.661 350.109 193.449 350.109 173.45C350.109 153.452 334.778 137.24 315.865 137.24C296.953 137.24 281.621 153.452 281.621 173.45C281.621 193.449 296.953 209.661 315.865 209.661Z" fill="#5CA463"/>
<path d="M325.888 176.45C344.8 176.45 360.132 160.238 360.132 140.24C360.132 120.241 344.8 104.03 325.888 104.03C306.975 104.03 291.644 120.241 291.644 140.24C291.644 160.238 306.975 176.45 325.888 176.45Z" fill="#5CA463"/>
<path d="M344.931 176.45C363.843 176.45 379.175 160.238 379.175 140.24C379.175 120.241 363.843 104.03 344.931 104.03C326.018 104.03 310.687 120.241 310.687 140.24C310.687 160.238 326.018 176.45 344.931 176.45Z" fill="#5CA463"/>
<path d="M355.958 161.612C374.87 161.612 390.202 145.4 390.202 125.402C390.202 105.404 374.87 89.1917 355.958 89.1917C337.045 89.1917 321.714 105.404 321.714 125.402C321.714 145.4 337.045 161.612 355.958 161.612Z" fill="#5CA463"/>
<path d="M384.022 177.864C402.934 177.864 418.266 161.652 418.266 141.653C418.266 121.655 402.934 105.443 384.022 105.443C365.109 105.443 349.778 121.655 349.778 141.653C349.778 161.652 365.109 177.864 384.022 177.864Z" fill="#5CA463"/>
<path d="M449.505 209.661C468.418 209.661 483.749 193.449 483.749 173.45C483.749 153.452 468.418 137.24 449.505 137.24C430.593 137.24 415.261 153.452 415.261 173.45C415.261 193.449 430.593 209.661 449.505 209.661Z" fill="#5CA463"/>
<path d="M429.792 191.642C448.705 191.642 464.036 175.43 464.036 155.432C464.036 135.433 448.705 119.221 429.792 119.221C410.88 119.221 395.548 135.433 395.548 155.432C395.548 175.43 410.88 191.642 429.792 191.642Z" fill="#5CA463"/>
<path d="M417.097 173.624C436.009 173.624 451.341 157.412 451.341 137.414C451.341 117.415 436.009 101.203 417.097 101.203C398.184 101.203 382.853 117.415 382.853 137.414C382.853 157.412 398.184 173.624 417.097 173.624Z" fill="#5CA463"/>
<path d="M393.042 146.421C411.955 146.421 427.286 130.209 427.286 110.21C427.286 90.2119 411.955 74 393.042 74C374.13 74 358.798 90.2119 358.798 110.21C358.798 130.209 374.13 146.421 393.042 146.421Z" fill="#5CA463"/>
<path d="M437.811 176.45C456.724 176.45 472.055 160.238 472.055 140.24C472.055 120.241 456.724 104.03 437.811 104.03C418.899 104.03 403.567 120.241 403.567 140.24C403.567 160.238 418.899 176.45 437.811 176.45Z" fill="#5CA463"/>
<path opacity="0.1" d="M470.568 145.911C470.568 145.911 438.676 129.918 419.378 158.262Z" fill="black"/>
<path opacity="0.1" d="M386.798 113.511C386.798 113.511 351.519 112.385 344.592 146.53Z" fill="black"/>
<path opacity="0.1" d="M342.944 187.597C342.944 187.597 311.052 171.601 291.754 199.938Z" fill="black"/>
<path opacity="0.1" d="M378.733 305.647C379.614 305.919 383.258 307.064 386.99 308.633C388.834 309.384 390.631 310.261 392.369 311.257C392.731 311.473 393.076 311.689 393.401 311.906C394.252 312.435 395.014 313.11 395.655 313.903C397.812 316.854 400.981 318.444 402.559 319.092C402.66 318.398 402.57 317.687 402.298 317.045L395.263 311.821L396.268 311.774L394.955 311.087L395.742 311.034L386.216 306.504C386.216 306.504 383.074 306.277 378.733 305.647Z" fill="black"/>
<g opacity="0.05">
<path opacity="0.05" d="M399.38 280.647L398.807 280.445L396.168 277.225C396.22 277.073 396.225 276.907 396.185 276.75L399.38 280.647Z" fill="black"/>
<path opacity="0.05" d="M403.058 286.612C402.311 286.275 401.68 285.704 401.251 284.975C400.821 284.246 400.614 283.396 400.657 282.538C400.657 282.428 400.657 282.326 400.657 282.227L400.71 282.294L402.807 283.034C402.641 283.464 402.557 283.923 402.559 284.387C402.538 285.162 402.71 285.929 403.058 286.612V286.612Z" fill="black"/>
<path opacity="0.05" d="M382.669 305.618C387.05 307.23 392.982 309.769 394.788 312.238L394.922 312.415C390.122 308.934 379.58 305.767 379.58 305.767C380.611 305.779 381.643 305.73 382.669 305.618V305.618Z" fill="black"/>
<path opacity="0.05" d="M402.653 317.785C403.346 316.117 404.663 314.374 406.046 312.826C409.455 309.07 411.618 304.245 412.21 299.076L412.267 298.555C415.064 295.598 421.445 298.095 421.445 298.095C421.78 292.35 419.824 288.578 418.353 286.587L418.738 286.729C418.738 286.729 423.893 290.887 423.371 299.944C423.371 299.944 417.006 297.465 414.193 300.404L414.136 300.925C413.544 306.094 411.381 310.919 407.972 314.675C406.582 316.22 405.272 317.959 404.579 319.634C404.579 319.634 400.318 318.345 397.337 314.874C398.944 316.15 400.74 317.134 402.653 317.785V317.785Z" fill="black"/>
</g>
<path opacity="0.1" d="M415.157 299.313C416.206 299.959 417.318 300.482 418.474 300.872C420.125 301.41 422.018 300.844 422.932 300.497V299.115L415.228 298.191L415.157 299.313Z" fill="black"/>
<circle cx="200.5" cy="42.5" r="17.5" fill="#FFB803"/>
<path d="M211.524 47.7945C212.917 47.3121 214.414 47.7514 215.752 48.8462C216.336 47.0876 217.375 45.7714 218.77 45.2867C221.121 44.473 223.498 45.2032 225.106 48.1757C225.166 48.2876 225.26 48.3305 225.331 48.2856C225.402 48.2379 225.432 48.1111 225.402 47.9801C225.368 47.8342 225.331 47.6855 225.292 47.5377C223.984 42.573 220.49 39.3869 217.487 40.4254C216.093 40.9075 215.056 42.2216 214.472 43.9808C213.136 42.8865 211.635 42.4519 210.242 42.9308C207.239 43.969 205.866 48.8374 207.174 53.8051C207.22 53.979 207.331 54.101 207.442 54.101C207.551 54.103 207.631 53.9816 207.633 53.8118C207.67 50.5594 209.264 48.577 211.524 47.7945Z" fill="#3E0735"/>
<path d="M266.648 15.8168C268.081 15.687 269.499 16.49 270.674 17.8983C271.474 16.3124 272.665 15.2745 274.1 15.1428C276.518 14.9241 278.763 16.2308 279.965 19.5541C280.01 19.679 280.097 19.7445 280.172 19.7178C280.249 19.6886 280.294 19.5712 280.281 19.4349C280.266 19.2828 280.25 19.1275 280.23 18.9724C279.577 13.7629 276.547 9.76298 273.459 10.0415C272.026 10.1709 270.837 11.2073 270.037 12.7937C268.862 11.3862 267.441 10.5872 266.009 10.7135C262.921 10.9918 260.948 15.4427 261.599 20.6547C261.623 20.8374 261.716 20.9848 261.825 21.0123C261.933 21.0413 262.026 20.9416 262.05 20.7751C262.503 17.5837 264.325 16.0276 266.648 15.8168Z" fill="#3E0735"/>
<path d="M208.598 239.827C208.598 229.004 200.295 220.23 190.062 220.23C179.829 220.23 171.525 229.004 171.525 239.827C161.289 239.827 152.989 248.605 152.989 259.427C152.989 270.25 161.292 279.028 171.525 279.028C174.746 279.042 177.923 278.141 180.797 276.4C183.674 278.127 186.847 279.027 190.065 279.027C193.283 279.027 196.457 278.127 199.334 276.4C202.208 278.141 205.385 279.042 208.606 279.028C218.846 279.028 227.142 270.25 227.142 259.427C227.142 248.605 218.854 239.827 208.598 239.827Z" fill="#5CA463"/>
<path opacity="0.1" d="M208.598 239.827C208.598 229.004 200.295 220.23 190.062 220.23C179.829 220.23 171.525 229.004 171.525 239.827C161.289 239.827 152.989 248.605 152.989 259.427C152.989 270.25 161.292 279.028 171.525 279.028C174.746 279.042 177.923 278.141 180.797 276.4C183.674 278.127 186.847 279.027 190.065 279.027C193.283 279.027 196.457 278.127 199.334 276.4C202.208 278.141 205.385 279.042 208.606 279.028C218.846 279.028 227.142 270.25 227.142 259.427C227.142 248.605 218.854 239.827 208.598 239.827Z" fill="black"/>
<path d="M164.784 140.636C164.786 137.917 164.371 135.221 163.558 132.682C167.688 130.929 171.168 127.484 173.383 122.955C175.597 118.427 176.405 113.106 175.663 107.933C174.921 102.76 172.676 98.0678 169.326 94.6852C165.976 91.3027 161.735 89.4474 157.354 89.4472C157.353 83.9969 155.682 78.7366 152.659 74.6639C149.635 70.5912 145.469 67.989 140.951 67.3509C136.433 66.7128 131.876 68.083 128.145 71.2018C124.414 74.3207 121.768 78.9712 120.709 84.2717C120.539 84.2717 120.368 84.2717 120.198 84.2717C120.202 78.7268 118.478 73.3799 115.363 69.2782C112.249 65.1766 107.968 62.6158 103.36 62.0975C98.7518 61.5792 94.1481 63.1407 90.4507 66.4761C86.7533 69.8115 84.2285 74.6806 83.3711 80.1295C80.6308 77.5494 77.3398 75.9451 73.8744 75.4998C70.409 75.0545 66.9089 75.7863 63.7742 77.6115C60.6395 79.4367 57.9968 82.2816 56.148 85.8212C54.2992 89.3607 53.3189 93.452 53.3193 97.6274C49.3236 97.6341 45.4361 99.1843 42.2341 102.048C39.0322 104.911 36.6864 108.936 35.545 113.523C34.4036 118.111 34.5276 123.017 35.8984 127.513C37.2693 132.01 39.8139 135.857 43.1546 138.483C42.9154 139.923 42.795 141.388 42.7952 142.856C39.9448 142.855 37.1324 143.639 34.5756 145.148C32.0187 146.657 29.786 148.851 28.0503 151.56C26.3145 154.268 25.1223 157.419 24.5658 160.768C24.0094 164.117 24.1036 167.574 24.8413 170.873C25.579 174.171 26.9403 177.222 28.8198 179.789C30.6994 182.356 33.0468 184.371 35.6804 185.677C38.314 186.983 41.1631 187.545 44.0073 187.321C46.8515 187.097 49.6145 186.091 52.0823 184.383C54.9065 186.336 58.1102 187.364 61.3713 187.364C64.6325 187.364 67.8361 186.336 70.6604 184.383C74.1024 186.764 78.0915 187.76 82.0411 187.223C85.9906 186.686 89.6922 184.645 92.6015 181.401C92.923 181.401 93.2446 181.432 93.5699 181.432C96.8325 181.436 100.038 180.405 102.861 178.446C107.01 181.327 111.931 182.164 116.585 180.78C119.496 183.353 122.971 184.853 126.583 185.095C130.195 185.336 133.787 184.309 136.919 182.139C139.743 184.093 142.947 185.121 146.208 185.121C149.469 185.121 152.672 184.093 155.497 182.139C157.965 183.848 160.728 184.853 163.572 185.078C166.416 185.302 169.265 184.74 171.899 183.433C174.532 182.127 176.88 180.113 178.759 177.546C180.639 174.979 182 171.928 182.738 168.629C183.475 165.331 183.57 161.873 183.013 158.524C182.457 155.175 181.264 152.025 179.529 149.316C177.793 146.608 175.56 144.414 173.003 142.905C170.447 141.396 167.634 140.611 164.784 140.613V140.636ZM79.9475 142.861C79.9463 141.903 79.8932 140.946 79.7886 139.997C80.2653 139.729 80.7344 139.448 81.1883 139.131C81.9301 139.651 82.7026 140.105 83.4997 140.491C82.5836 141.203 81.7204 142.008 80.9197 142.897C80.5982 142.87 80.2728 142.861 79.9475 142.861V142.861Z" fill="#5CA463"/>
<path d="M156.321 201.962C156.255 196.696 154.463 191.673 151.331 187.977C148.199 184.281 143.98 182.21 139.584 182.21C135.188 182.21 130.968 184.281 127.836 187.977C124.705 191.673 122.912 196.696 122.846 201.962C120.278 201.96 117.743 202.667 115.439 204.026C113.135 205.386 111.123 207.363 109.559 209.803C107.995 212.244 106.921 215.083 106.419 218.101C105.918 221.118 106.003 224.234 106.667 227.206C107.332 230.178 108.559 232.927 110.252 235.24C111.946 237.553 114.061 239.369 116.435 240.545C118.808 241.722 121.375 242.229 123.938 242.027C126.501 241.824 128.99 240.918 131.214 239.378C133.758 241.141 136.645 242.07 139.584 242.07C142.523 242.07 145.41 241.141 147.953 239.378C150.177 240.915 152.665 241.818 155.226 242.018C157.787 242.219 160.353 241.711 162.724 240.533C165.095 239.356 167.208 237.542 168.9 235.23C170.593 232.918 171.818 230.17 172.482 227.2C173.147 224.23 173.232 221.117 172.731 218.101C172.231 215.085 171.158 212.248 169.595 209.808C168.033 207.369 166.024 205.392 163.722 204.032C161.42 202.671 158.888 201.963 156.321 201.962V201.962Z" fill="#5CA463"/>
<path opacity="0.1" d="M156.321 201.962C156.255 196.696 154.463 191.673 151.331 187.977C148.199 184.281 143.98 182.21 139.584 182.21C135.188 182.21 130.968 184.281 127.836 187.977C124.705 191.673 122.912 196.696 122.846 201.962C120.278 201.96 117.743 202.667 115.439 204.026C113.135 205.386 111.123 207.363 109.559 209.803C107.995 212.244 106.921 215.083 106.419 218.101C105.918 221.118 106.003 224.234 106.667 227.206C107.332 230.178 108.559 232.927 110.252 235.24C111.946 237.553 114.061 239.369 116.435 240.545C118.808 241.722 121.375 242.229 123.938 242.027C126.501 241.824 128.99 240.918 131.214 239.378C133.758 241.141 136.645 242.07 139.584 242.07C142.523 242.07 145.41 241.141 147.953 239.378C150.177 240.915 152.665 241.818 155.226 242.018C157.787 242.219 160.353 241.711 162.724 240.533C165.095 239.356 167.208 237.542 168.9 235.23C170.593 232.918 171.818 230.17 172.482 227.2C173.147 224.23 173.232 221.117 172.731 218.101C172.231 215.085 171.158 212.248 169.595 209.808C168.033 207.369 166.024 205.392 163.722 204.032C161.42 202.671 158.888 201.963 156.321 201.962V201.962Z" fill="black"/>
<path opacity="0.1" d="M164.784 140.636C164.786 137.917 164.371 135.221 163.558 132.682C167.688 130.929 171.168 127.484 173.383 122.955C175.597 118.427 176.405 113.106 175.663 107.933C174.921 102.76 172.676 98.0678 169.326 94.6852C165.976 91.3027 161.735 89.4474 157.354 89.4472C157.353 83.9969 155.682 78.7366 152.659 74.6639C149.635 70.5912 145.469 67.989 140.951 67.3509C136.433 66.7128 131.876 68.083 128.145 71.2018C124.414 74.3207 121.768 78.9712 120.709 84.2717C120.539 84.2717 120.368 84.2717 120.198 84.2717C120.202 78.7268 118.478 73.3799 115.363 69.2782C112.249 65.1766 107.968 62.6158 103.36 62.0975C98.7518 61.5792 94.1481 63.1407 90.4507 66.4761C86.7533 69.8115 84.2285 74.6806 83.3711 80.1295C80.6308 77.5494 77.3398 75.9451 73.8744 75.4998C70.409 75.0545 66.9089 75.7863 63.7742 77.6115C60.6395 79.4367 57.9968 82.2816 56.148 85.8212C54.2992 89.3607 53.3189 93.452 53.3193 97.6274C49.3236 97.6341 45.4361 99.1843 42.2341 102.048C39.0322 104.911 36.6864 108.936 35.545 113.523C34.4036 118.111 34.5276 123.017 35.8984 127.513C37.2693 132.01 39.8139 135.857 43.1546 138.483C42.9154 139.923 42.795 141.388 42.7952 142.856C39.9448 142.855 37.1324 143.639 34.5756 145.148C32.0187 146.657 29.786 148.851 28.0503 151.56C26.3145 154.268 25.1223 157.419 24.5658 160.768C24.0094 164.117 24.1036 167.574 24.8413 170.873C25.579 174.171 26.9403 177.222 28.8198 179.789C30.6994 182.356 33.0468 184.371 35.6804 185.677C38.314 186.983 41.1631 187.545 44.0073 187.321C46.8515 187.097 49.6145 186.091 52.0823 184.383C54.9065 186.336 58.1102 187.364 61.3713 187.364C64.6325 187.364 67.8361 186.336 70.6604 184.383C74.1024 186.764 78.0915 187.76 82.0411 187.223C85.9906 186.686 89.6922 184.645 92.6015 181.401C92.923 181.401 93.2446 181.432 93.5699 181.432C96.8325 181.436 100.038 180.405 102.861 178.446C107.01 181.327 111.931 182.164 116.585 180.78C119.496 183.353 122.971 184.853 126.583 185.095C130.195 185.336 133.787 184.309 136.919 182.139C139.743 184.093 142.947 185.121 146.208 185.121C149.469 185.121 152.672 184.093 155.497 182.139C157.965 183.848 160.728 184.853 163.572 185.078C166.416 185.302 169.265 184.74 171.899 183.433C174.532 182.127 176.88 180.113 178.759 177.546C180.639 174.979 182 171.928 182.738 168.629C183.475 165.331 183.57 161.873 183.013 158.524C182.457 155.175 181.264 152.025 179.529 149.316C177.793 146.608 175.56 144.414 173.003 142.905C170.447 141.396 167.634 140.611 164.784 140.613V140.636ZM79.9475 142.861C79.9463 141.903 79.8932 140.946 79.7886 139.997C80.2653 139.729 80.7344 139.448 81.1883 139.131C81.9301 139.651 82.7026 140.105 83.4997 140.491C82.5836 141.203 81.7204 142.008 80.9197 142.897C80.5982 142.87 80.2728 142.861 79.9475 142.861V142.861Z" fill="black"/>
<path d="M150.681 250.06C149.236 249.371 147.772 248.673 146.229 248.437C146.074 248.437 145.919 248.401 145.76 248.387C145.76 248.197 145.76 248.011 145.779 247.825C145.862 245.559 146.448 243.221 147.772 241.585C149.096 239.949 150.938 239.142 151.801 237.211C148.648 236.105 145.383 235.518 142.098 235.467C141.262 235.467 140.373 235.467 139.673 236.038C138.814 236.704 138.443 237.964 138.16 239.151C137.29 243.085 136.703 246.937 135.708 250.776L135.447 250.848C131.929 251.754 127.503 251.052 125.888 247.259C126.291 245.346 126.797 243.466 127.401 241.63C129.292 235.988 132.19 230.917 135.054 225.891C136.908 222.631 138.764 219.374 140.622 216.12C137.84 215.115 135.014 214.293 132.156 213.659C131.551 213.523 130.866 213.414 130.363 213.84C130.021 214.189 129.771 214.649 129.64 215.163C126.909 223.194 123.561 231.982 122.612 240.81C122.08 240.464 121.533 240.152 120.974 239.876L112.175 235.381C111.709 235.193 111.288 234.873 110.949 234.447C110.147 233.255 110.949 231.361 112.122 230.726C113.294 230.092 114.622 230.273 115.905 230.137C117.187 230.001 118.602 229.444 119.079 228.021C119.631 226.385 118.575 224.536 117.285 223.679C115.995 222.822 114.478 222.582 113.124 221.866C112.083 221.283 111.169 220.417 110.456 219.337C109.743 218.257 109.25 216.992 109.016 215.644L106.916 215.526C109.685 212.354 112.557 209.313 115.855 206.979C117.448 205.85 119.135 204.894 120.618 203.566C122.571 201.772 124.1 199.4 125.055 196.683C126.011 193.967 126.359 190.998 126.066 188.071C125.876 186.367 125.472 184.604 125.922 182.973C126.3 181.645 127.155 180.625 127.999 179.66L135.599 170.95C130.761 169.63 125.804 169.045 120.845 169.209C119.589 169.255 118.292 169.354 117.168 170.034C115.118 171.276 114.142 174.086 113.34 176.664C112.729 178.481 112.234 180.35 111.861 182.257C111.301 185.475 111.384 189 109.867 191.733C108.664 193.9 106.663 195.178 104.866 196.637C99.7452 200.815 95.9235 206.908 93.9976 213.962C93.8765 214.416 93.6722 214.996 93.4377 215.644C88.9852 216.097 84.6234 217.112 80.5038 219.188C75.325 221.798 70.8043 225.945 66.3669 230.065C61.4794 234.597 56.3383 239.668 54.6209 246.792C52.7105 254.7 55.6574 263.374 60.3748 269.361C64.2334 274.251 69.1285 277.695 74.0652 280.791C77.2921 282.812 77.8293 282.4 80.6627 279.68L88.2816 272.366C90.4567 270.281 92.6698 268.142 94.1489 265.314C96.1879 261.421 96.691 256.477 99.1613 252.955C102.543 248.129 109.44 247.726 113.204 252.126C114.285 253.395 115.227 255.054 116.703 255.475C117.422 255.684 118.216 255.566 118.874 255.928C120.13 256.644 120.319 258.648 120.766 260.207C121.995 264.408 126.172 266.606 129.845 265.976C133.518 265.346 136.684 262.486 139.17 259.178C139.847 258.271 140.516 257.311 141.439 256.771C142.178 256.378 142.977 256.174 143.785 256.173C146.467 256.042 149.132 256.749 151.517 258.226C153.738 259.586 155.678 261.602 158.013 262.663C162.632 264.757 167.795 262.767 172.32 260.397L150.681 250.06Z" fill="#3F3D56"/>
<path opacity="0.1" d="M150.681 250.06C149.236 249.371 147.772 248.673 146.229 248.437C146.074 248.437 145.919 248.401 145.76 248.387C145.76 248.197 145.76 248.011 145.779 247.825C145.862 245.559 146.448 243.221 147.772 241.585C149.096 239.949 150.938 239.142 151.801 237.211C148.648 236.105 145.383 235.518 142.098 235.467C141.262 235.467 140.373 235.467 139.673 236.038C138.814 236.704 138.443 237.964 138.16 239.151C137.29 243.085 136.703 246.937 135.708 250.776L135.447 250.848C131.929 251.754 127.503 251.052 125.888 247.259C126.291 245.346 126.797 243.466 127.401 241.63C129.292 235.988 132.19 230.917 135.054 225.891C136.908 222.631 138.764 219.374 140.622 216.12C137.84 215.115 135.014 214.293 132.156 213.659C131.551 213.523 130.866 213.414 130.363 213.84C130.021 214.189 129.771 214.649 129.64 215.163C126.909 223.194 123.561 231.982 122.612 240.81C122.08 240.464 121.533 240.152 120.974 239.876L112.175 235.381C111.709 235.193 111.288 234.873 110.949 234.447C110.147 233.255 110.949 231.361 112.122 230.726C113.294 230.092 114.622 230.273 115.905 230.137C117.187 230.001 118.602 229.444 119.079 228.021C119.631 226.385 118.575 224.536 117.285 223.679C115.995 222.822 114.478 222.582 113.124 221.866C112.083 221.283 111.169 220.417 110.456 219.337C109.743 218.257 109.25 216.992 109.016 215.644L106.916 215.526C109.685 212.354 112.557 209.313 115.855 206.979C117.448 205.85 119.135 204.894 120.618 203.566C122.571 201.772 124.1 199.4 125.055 196.683C126.011 193.967 126.359 190.998 126.066 188.071C125.876 186.367 125.472 184.604 125.922 182.973C126.3 181.645 127.155 180.625 127.999 179.66L135.599 170.95C130.761 169.63 125.804 169.045 120.845 169.209C119.589 169.255 118.292 169.354 117.168 170.034C115.118 171.276 114.142 174.086 113.34 176.664C112.729 178.481 112.234 180.35 111.861 182.257C111.301 185.475 111.384 189 109.867 191.733C108.664 193.9 106.663 195.178 104.866 196.637C99.7452 200.815 95.9235 206.908 93.9976 213.962C93.8765 214.416 93.6722 214.996 93.4377 215.644C88.9852 216.097 84.6234 217.112 80.5038 219.188C75.325 221.798 70.8043 225.945 66.3669 230.065C61.4794 234.597 56.3383 239.668 54.6209 246.792C52.7105 254.7 55.6574 263.374 60.3748 269.361C64.2334 274.251 69.1285 277.695 74.0652 280.791C77.2921 282.812 77.8293 282.4 80.6627 279.68L88.2816 272.366C90.4567 270.281 92.6698 268.142 94.1489 265.314C96.1879 261.421 96.691 256.477 99.1613 252.955C102.543 248.129 109.44 247.726 113.204 252.126C114.285 253.395 115.227 255.054 116.703 255.475C117.422 255.684 118.216 255.566 118.874 255.928C120.13 256.644 120.319 258.648 120.766 260.207C121.995 264.408 126.172 266.606 129.845 265.976C133.518 265.346 136.684 262.486 139.17 259.178C139.847 258.271 140.516 257.311 141.439 256.771C142.178 256.378 142.977 256.174 143.785 256.173C146.467 256.042 149.132 256.749 151.517 258.226C153.738 259.586 155.678 261.602 158.013 262.663C162.632 264.757 167.795 262.767 172.32 260.397L150.681 250.06Z" fill="black"/>
<path d="M88.8527 194.503C88.8527 183.358 79.0549 174.331 66.9646 174.331C54.8743 174.331 45.0765 183.349 45.0765 194.503C32.9711 194.503 23.1884 203.53 23.1884 214.674C23.1884 225.818 32.9862 234.842 45.0765 234.842C48.843 234.861 52.5711 233.935 56.0205 232.122C59.4768 233.907 63.2009 234.828 66.9646 234.828C70.7283 234.828 74.4524 233.907 77.9087 232.122C81.3581 233.935 85.0862 234.861 88.8527 234.842C100.958 234.842 110.741 225.814 110.741 214.674C110.741 203.535 100.943 194.503 88.8527 194.503Z" fill="#5CA463"/>
<path opacity="0.1" d="M88.8527 194.503C88.8527 183.358 79.0549 174.331 66.9646 174.331C54.8743 174.331 45.0765 183.349 45.0765 194.503C32.9711 194.503 23.1884 203.53 23.1884 214.674C23.1884 225.818 32.9862 234.842 45.0765 234.842C48.843 234.861 52.5711 233.935 56.0205 232.122C59.4768 233.907 63.2009 234.828 66.9646 234.828C70.7283 234.828 74.4524 233.907 77.9087 232.122C81.3581 233.935 85.0862 234.861 88.8527 234.842C100.958 234.842 110.741 225.814 110.741 214.674C110.741 203.535 100.943 194.503 88.8527 194.503Z" fill="black"/>
<path d="M135.795 308.431L123.247 301.511C122.241 300.954 121.125 300.26 120.811 298.982C120.699 298.291 120.699 297.58 120.811 296.889C121.113 293.292 120.46 289.673 118.946 286.547C118.004 284.611 116.729 282.871 116.166 280.732C114.963 276.2 117.3 271.401 117.414 266.624C117.539 261.974 115.522 257.501 112.651 254.352C111.8 253.413 110.866 252.539 110.196 251.428C108.252 248.156 109.061 243.724 109.984 239.813L110.223 239.55C110.4 239.342 110.268 238.449 109.943 237.126C113.57 235.967 116.989 234.022 120.032 231.388C120.996 230.55 121.923 229.63 123.058 229.095C124.617 228.347 126.383 228.433 127.957 227.735C130.893 226.426 132.523 222.75 133.889 219.378C137.123 211.407 140.414 203.168 140.823 194.317C138.167 191.856 134.939 190.443 131.585 190.274C131.025 190.247 130.389 190.274 130.022 190.8C129.816 191.133 129.686 191.525 129.644 191.937C128.498 198.254 126.52 204.312 123.784 209.884C122.691 212.225 121.349 214.386 119.793 216.315C117.902 218.581 115.579 220.271 113.294 221.953C111.373 223.362 108.8 224.735 106.617 226.353C105.104 221.694 103.723 217.443 103.901 216.791C105.801 209.683 105.875 202.055 104.113 194.897C103.674 193.12 103.114 191.366 102.978 189.517C102.842 187.668 103.148 185.846 103.269 184.006C103.508 180.358 103.042 176.701 103.061 173.039C103.084 168.081 103.992 163.196 104.896 158.356C102.382 157.817 99.8215 157.653 97.2735 157.866C96.7712 157.868 96.2776 158.024 95.8398 158.319C95.2042 158.813 94.9659 159.765 94.7503 160.635C93.0669 167.392 90.014 173.56 88.202 180.272C86.39 186.984 86.0003 194.847 89.3709 200.63C90.5701 202.683 92.246 204.541 92.5108 207.024C92.6508 208.339 92.3633 209.657 92.0757 210.94C91.565 213.238 99.7816 237.928 100.239 240.207C100.239 240.271 100.27 240.325 100.281 240.384C100.024 240.452 99.7627 240.511 99.5017 240.583C99.1548 247.004 97.0817 253.117 93.5927 258.009C93.1294 256.43 92.8011 254.8 92.6129 253.142C92.3292 250.649 92.3557 248.079 91.7088 245.686C90.7404 242.115 88.4025 239.378 86.3597 236.536C82.6817 231.408 79.7771 225.551 77.7762 219.229C76.2343 219.915 74.6542 220.47 73.0475 220.892C72.1964 221.119 69.2646 221.123 68.8031 222.034C68.0919 223.394 71.2696 229.716 71.8975 231.171C74.1106 236.287 77.8405 240.284 80.0309 245.415C80.9443 247.691 81.6996 250.054 82.2893 252.48C83.4847 257.012 84.6801 261.544 85.5956 266.148C84.4985 267.508 83.6322 269.167 82.6903 270.712C79.3498 276.156 74.9292 280.518 69.8282 283.401C69.2192 283.746 68.5458 284.131 68.2848 284.874C68.2406 285.001 68.2077 285.133 68.1864 285.269C66.1058 283.51 64.1614 281.548 62.8071 278.992C62.2094 277.859 61.7365 276.631 61.0859 275.543C58.8955 271.886 55.0634 270.34 51.9273 267.839C50.6033 266.787 49.3701 265.541 47.9061 264.802C46.2983 263.986 44.5203 263.832 42.7802 263.692C41.354 263.574 35.8839 262.21 35.1802 263.737C34.1816 265.899 37.3479 269.058 38.6152 269.819C40.7223 271.084 43.132 271.405 45.3337 272.407C47.3238 273.387 49.1715 274.739 50.8076 276.413C51.5227 277.045 52.1486 277.81 52.6612 278.679C53.206 279.699 53.4594 280.9 53.9172 281.978C55.385 285.436 58.5589 287.018 61.3999 289.053C60.646 289.092 59.9041 289.293 59.2095 289.646C57.0948 290.798 56.1113 293.648 54.7343 295.891C53.5048 297.881 51.8857 299.472 50.5314 301.33C49.1771 303.188 48.0498 305.513 48.152 307.983C48.2163 309.546 48.7421 311.255 48.0498 312.583C49.6424 313.407 51.602 314.395 53.327 314.645C55.0521 314.894 56.9208 314.5 58.2108 313.108C58.6104 312.598 59.0388 312.121 59.4932 311.681C60.5865 310.806 62.0846 311.051 63.2535 311.767C64.4224 312.483 65.3871 313.602 66.4576 314.522C67.9863 315.819 69.7283 316.71 71.5672 317.136C73.4062 317.562 75.2999 317.513 77.1218 316.992C77.8784 316.775 78.9641 316.589 78.7295 315.719C77.1284 314.823 75.7653 313.415 74.7912 311.649C73.817 309.882 73.2698 307.828 73.2102 305.712C74.4014 305.44 75.632 305.561 76.7702 306.062C77.9084 306.564 78.9113 307.426 79.6715 308.558C78.6198 308.613 77.9238 310.308 78.5366 311.341C80.5401 311.293 82.5049 310.671 84.2663 309.526C86.0276 308.381 87.5342 306.747 88.6598 304.761C89.4856 304.355 90.3836 304.206 91.2703 304.328C92.157 304.449 93.0037 304.837 93.7317 305.456C94.4597 306.074 95.0455 306.903 95.4345 307.866C95.8236 308.828 96.0033 309.892 95.9571 310.96L101.427 314.196C102.286 314.704 103.198 315.225 104.155 315.148C105.112 315.071 106.088 314.146 106.016 313.004C105.933 311.694 104.62 310.357 105.339 309.379C106.625 310.067 107.609 311.427 108.929 312.021C110.249 312.614 112.193 311.821 112.122 310.135C112.063 309.574 111.882 309.041 111.596 308.59C110.117 305.89 108.15 303.623 105.842 301.955C105.672 300.473 108.49 298.846 109.345 299.952L116.275 309.102C116.814 309.889 117.453 310.571 118.167 311.123C120.645 312.841 123.739 311.123 126.599 311.123C129.693 311.123 132.86 313.235 135.738 311.889C136.495 311.54 137.252 310.684 137.036 309.75C136.866 309.079 136.302 308.73 135.795 308.431Z" fill="#3F3D56"/>
<path d="M154.521 137.948C154.522 135.688 154.176 133.446 153.499 131.336C156.933 129.877 159.826 127.011 161.668 123.245C163.509 119.478 164.181 115.054 163.564 110.752C162.946 106.45 161.08 102.548 158.294 99.7341C155.509 96.9206 151.983 95.3767 148.339 95.375C148.336 90.8437 146.945 86.4714 144.43 83.0864C141.916 79.7014 138.452 77.5388 134.696 77.0082C130.939 76.4776 127.151 77.6158 124.048 80.2073C120.945 82.7989 118.744 86.6637 117.86 91.0696C117.72 91.0696 117.58 91.0696 117.437 91.0696C117.454 86.4461 116.026 81.9824 113.433 78.5569C110.841 75.1313 107.273 72.9921 103.43 72.5602C99.5878 72.1283 95.7495 73.435 92.6708 76.223C89.592 79.0111 87.4958 83.0787 86.7946 87.6253C84.5158 85.4797 81.7791 84.1456 78.8972 83.7753C76.0154 83.4051 73.1047 84.0137 70.4979 85.5317C67.8912 87.0496 65.6935 89.4156 64.1562 92.3592C62.6189 95.3028 61.8039 98.7052 61.8045 102.177C58.4789 102.18 55.2427 103.467 52.5768 105.849C49.911 108.231 47.9578 111.58 47.0077 115.398C46.0575 119.216 46.1611 123.299 47.303 127.041C48.4449 130.783 50.5642 133.984 53.3458 136.167C53.1489 137.361 53.0488 138.575 53.047 139.793C50.6756 139.79 48.3354 140.442 46.2079 141.697C44.0803 142.952 42.2224 144.776 40.778 147.029C39.3335 149.283 38.3413 151.904 37.8782 154.69C37.415 157.476 37.4933 160.353 38.1071 163.097C38.7209 165.841 39.8536 168.38 41.4176 170.515C42.9815 172.651 44.9348 174.326 47.1261 175.413C49.3174 176.499 51.688 176.966 54.0543 176.778C56.4205 176.591 58.719 175.753 60.7718 174.331C63.1203 175.958 65.7854 176.815 68.4984 176.815C71.2114 176.815 73.8765 175.958 76.2251 174.331C79.0868 176.313 82.4043 177.143 85.689 176.696C88.9737 176.25 92.0519 174.552 94.4703 171.852C94.7388 171.852 95.0074 171.874 95.2798 171.874C97.992 171.877 100.657 171.022 103.005 169.395C106.463 171.796 110.564 172.495 114.444 171.344C116.863 173.488 119.753 174.737 122.757 174.94C125.761 175.143 128.749 174.29 131.354 172.486C133.702 174.113 136.366 174.969 139.079 174.969C141.791 174.969 144.456 174.113 146.804 172.486C148.856 173.905 151.153 174.74 153.517 174.926C155.882 175.111 158.25 174.643 160.439 173.557C162.628 172.47 164.58 170.795 166.142 168.661C167.705 166.527 168.836 163.991 169.45 161.249C170.063 158.507 170.142 155.633 169.68 152.849C169.219 150.065 168.228 147.445 166.786 145.193C165.344 142.94 163.489 141.115 161.364 139.859C159.239 138.603 156.902 137.949 154.532 137.948H154.521ZM83.9612 139.802C83.9593 139.006 83.9151 138.211 83.8288 137.423C84.2071 137.196 84.6157 136.969 84.9902 136.702C85.6102 137.128 86.2535 137.504 86.9157 137.826C86.1521 138.416 85.4331 139.084 84.767 139.824C84.5022 139.811 84.2298 139.802 83.9612 139.802V139.802Z" fill="#5CA463"/>
<path d="M207.051 240.37C207.051 230.151 199.212 221.862 189.539 221.862C179.866 221.862 172.032 230.151 172.032 240.37C162.359 240.37 154.521 248.659 154.521 258.883C154.521 269.107 162.359 277.392 172.032 277.392C175.074 277.401 178.074 276.545 180.786 274.895C183.503 276.528 186.501 277.378 189.541 277.378C192.581 277.378 195.58 276.528 198.297 274.895C201.01 276.541 204.01 277.392 207.051 277.378C216.724 277.378 224.562 269.094 224.562 258.87C224.562 248.646 216.724 240.37 207.051 240.37Z" fill="#5CA463"/>
<path d="M154.521 202.737C154.553 200.282 154.177 197.843 153.415 195.564C152.653 193.284 151.52 191.209 150.082 189.459C148.644 187.71 146.93 186.32 145.039 185.371C143.148 184.423 141.119 183.934 139.069 183.934C137.02 183.934 134.991 184.423 133.1 185.371C131.209 186.32 129.495 187.71 128.057 189.459C126.619 191.209 125.486 193.284 124.724 195.564C123.962 197.843 123.586 200.282 123.618 202.737C121.249 202.738 118.912 203.392 116.787 204.649C114.663 205.905 112.808 207.73 111.366 209.982C109.925 212.234 108.935 214.853 108.473 217.636C108.011 220.42 108.089 223.294 108.702 226.035C109.315 228.777 110.447 231.313 112.008 233.447C113.57 235.581 115.521 237.256 117.709 238.343C119.897 239.43 122.265 239.899 124.629 239.715C126.993 239.531 129.29 238.697 131.343 237.28C133.692 238.904 136.356 239.759 139.068 239.759C141.779 239.759 144.444 238.904 146.792 237.28C148.844 238.699 151.142 239.533 153.506 239.719C155.871 239.905 158.239 239.436 160.428 238.35C162.617 237.264 164.569 235.589 166.131 233.455C167.693 231.32 168.825 228.784 169.439 226.043C170.052 223.301 170.131 220.426 169.669 217.642C169.207 214.858 168.217 212.238 166.775 209.986C165.333 207.733 163.478 205.909 161.353 204.652C159.228 203.396 156.89 202.742 154.521 202.742V202.737Z" fill="#5CA463"/>
<path d="M87.0521 195.332C87.0521 185.108 78.0563 176.823 66.9647 176.823C55.8731 176.823 46.8772 185.108 46.8772 195.332C35.7857 195.332 26.7936 203.621 26.7936 213.841C26.7936 224.06 35.7857 232.354 46.8772 232.354C50.3333 232.376 53.7548 231.53 56.921 229.87C60.0928 231.508 63.5106 232.353 66.9647 232.353C70.4188 232.353 73.8365 231.508 77.0084 229.87C80.1746 231.53 83.5961 232.376 87.0521 232.354C98.1437 232.354 107.136 224.065 107.136 213.841C107.136 203.616 98.1437 195.332 87.0521 195.332Z" fill="#5CA463"/>
<path d="M49.4533 249.629C49.4864 247.011 49.0846 244.412 48.2713 241.981C47.4579 239.551 46.2492 237.339 44.7156 235.474C43.182 233.608 41.354 232.127 39.338 231.116C37.3221 230.105 35.1584 229.584 32.9729 229.584C30.7874 229.584 28.6237 230.105 26.6078 231.116C24.5918 232.127 22.7639 233.608 21.2302 235.474C19.6966 237.339 18.4879 239.551 17.6746 241.981C16.8612 244.412 16.4594 247.011 16.4925 249.629C13.9635 249.627 11.468 250.323 9.19931 251.661C6.93058 253 4.94942 254.946 3.40921 257.349C1.869 259.752 0.811052 262.548 0.317246 265.519C-0.176559 268.491 -0.0929712 271.559 0.561542 274.485C1.21606 277.412 2.42393 280.118 4.09168 282.396C5.75943 284.674 7.84232 286.461 10.1791 287.62C12.5159 288.778 15.0439 289.277 17.5674 289.078C20.0909 288.878 22.5423 287.986 24.7318 286.469C27.2371 288.203 30.0795 289.116 32.9729 289.116C35.8663 289.116 38.7087 288.203 41.2141 286.469C43.4031 287.982 45.8533 288.872 48.3751 289.07C50.897 289.267 53.423 288.767 55.7577 287.608C58.0924 286.449 60.1733 284.662 61.8395 282.385C63.5057 280.109 64.7125 277.404 65.3665 274.479C66.0206 271.555 66.1044 268.489 65.6114 265.52C65.1185 262.55 64.0621 259.757 62.5238 257.354C60.9855 254.952 59.0067 253.006 56.7402 251.666C54.4738 250.327 51.9806 249.63 49.4533 249.629V249.629Z" fill="#5CA463"/>
<path opacity="0.1" d="M49.4533 249.629C49.4864 247.011 49.0846 244.412 48.2713 241.981C47.4579 239.551 46.2492 237.339 44.7156 235.474C43.182 233.608 41.354 232.127 39.338 231.116C37.3221 230.105 35.1584 229.584 32.9729 229.584C30.7874 229.584 28.6237 230.105 26.6078 231.116C24.5918 232.127 22.7639 233.608 21.2302 235.474C19.6966 237.339 18.4879 239.551 17.6746 241.981C16.8612 244.412 16.4594 247.011 16.4925 249.629C13.9635 249.627 11.468 250.323 9.19931 251.661C6.93058 253 4.94942 254.946 3.40921 257.349C1.869 259.752 0.811052 262.548 0.317246 265.519C-0.176559 268.491 -0.0929712 271.559 0.561542 274.485C1.21606 277.412 2.42393 280.118 4.09168 282.396C5.75943 284.674 7.84232 286.461 10.1791 287.62C12.5159 288.778 15.0439 289.277 17.5674 289.078C20.0909 288.878 22.5423 287.986 24.7318 286.469C27.2371 288.203 30.0795 289.116 32.9729 289.116C35.8663 289.116 38.7087 288.203 41.2141 286.469C43.4031 287.982 45.8533 288.872 48.3751 289.07C50.897 289.267 53.423 288.767 55.7577 287.608C58.0924 286.449 60.1733 284.662 61.8395 282.385C63.5057 280.109 64.7125 277.404 65.3665 274.479C66.0206 271.555 66.1044 268.489 65.6114 265.52C65.1185 262.55 64.0621 259.757 62.5238 257.354C60.9855 254.952 59.0067 253.006 56.7402 251.666C54.4738 250.327 51.9806 249.63 49.4533 249.629V249.629Z" fill="black"/>
<path d="M48.4243 250.246C48.4564 247.79 48.0804 245.352 47.3183 243.072C46.5562 240.793 45.4232 238.718 43.9852 236.968C42.5472 235.218 40.833 233.828 38.9424 232.88C37.0518 231.931 35.0226 231.443 32.9729 231.443C30.9232 231.443 28.8939 231.931 27.0033 232.88C25.1127 233.828 23.3985 235.218 21.9606 236.968C20.5226 238.718 19.3896 240.793 18.6274 243.072C17.8653 245.352 17.4894 247.79 17.5214 250.246C15.1518 250.246 12.8139 250.899 10.6886 252.155C8.56336 253.41 6.70771 255.235 5.2652 257.487C3.82268 259.74 2.83197 262.359 2.3697 265.143C1.90743 267.928 1.98598 270.802 2.59929 273.544C3.21259 276.286 4.34421 278.823 5.9066 280.957C7.469 283.092 9.42031 284.767 11.6096 285.853C13.7988 286.94 16.1674 287.409 18.532 287.223C20.8966 287.038 23.1939 286.203 25.2462 284.784C27.5957 286.408 30.2604 287.263 32.9729 287.263C35.6853 287.263 38.3501 286.408 40.6995 284.784C42.7518 286.203 45.0491 287.038 47.4137 287.223C49.7784 287.409 52.1469 286.94 54.3362 285.853C56.5254 284.767 58.4767 283.092 60.0391 280.957C61.6015 278.823 62.7332 276.286 63.3465 273.544C63.9598 270.802 64.0383 267.928 63.576 265.143C63.1138 262.359 62.1231 259.74 60.6806 257.487C59.238 255.235 57.3824 253.41 55.2571 252.155C53.1319 250.899 50.794 250.246 48.4243 250.246V250.246Z" fill="#5CA463"/>
<path opacity="0.1" d="M96.8347 99.6941C100.437 99.6939 103.917 101.253 106.636 104.085C109.354 106.916 111.126 110.829 111.626 115.103C111.921 112.665 111.793 110.181 111.25 107.805C110.707 105.43 109.76 103.214 108.468 101.297C107.177 99.3806 105.57 97.8037 103.746 96.6657C101.923 95.5276 99.9231 94.8529 97.8719 94.6836C95.8208 94.5144 93.7625 94.8543 91.8261 95.6822C89.8897 96.51 88.1168 97.8079 86.6185 99.4946C85.1202 101.181 83.9287 103.22 83.1187 105.484C82.3086 107.748 81.8975 110.188 81.911 112.651C81.9127 113.477 81.9608 114.302 82.0547 115.121C82.5518 110.847 84.3213 106.932 87.0372 104.097C89.7531 101.262 93.2326 99.6987 96.8347 99.6941V99.6941Z" fill="black"/>
<path opacity="0.1" d="M127.503 131.64C130.779 133.442 133.4 136.602 134.884 140.537C136.367 144.473 136.613 148.918 135.576 153.053C136.678 150.986 137.413 148.669 137.736 146.246C138.059 143.824 137.963 141.348 137.453 138.972C136.943 136.596 136.031 134.371 134.773 132.435C133.515 130.499 131.939 128.894 130.141 127.719C128.344 126.544 126.364 125.824 124.324 125.605C122.285 125.385 120.229 125.671 118.286 126.443C116.342 127.215 114.552 128.458 113.026 130.094C111.501 131.731 110.272 133.725 109.417 135.954C109.131 136.706 108.889 137.479 108.691 138.27C110.631 134.632 113.604 131.957 117.061 130.738C120.519 129.519 124.227 129.84 127.503 131.64V131.64Z" fill="black"/>
<path opacity="0.1" d="M83.7268 145.213C87.0023 147.015 89.6236 150.175 91.1072 154.11C92.5908 158.046 92.8367 162.491 91.7996 166.626C92.17 165.93 92.5011 165.205 92.7907 164.456C94.421 160.147 94.5606 155.24 93.1791 150.809C91.7975 146.377 89.0072 142.781 85.4185 140.808C81.8298 138.834 77.7347 138.644 74.029 140.278C70.3233 141.912 67.3086 145.238 65.6443 149.527C65.3585 150.279 65.1159 151.052 64.918 151.843C66.8581 148.206 69.8305 145.531 73.2871 144.313C76.7437 143.095 80.4514 143.414 83.7268 145.213Z" fill="black"/>
<path opacity="0.1" d="M68.1789 202.533C69.8014 204.239 70.8543 206.59 71.1435 209.153C71.4327 211.715 70.9387 214.317 69.7526 216.478C70.0658 216.155 70.3603 215.806 70.634 215.435C72.1987 213.298 72.9906 210.504 72.8356 207.668C72.6806 204.831 71.5913 202.184 69.8075 200.31C68.9242 199.382 67.897 198.671 66.7844 198.219C65.6719 197.766 64.4959 197.581 63.3235 197.673C60.9557 197.858 58.7465 199.163 57.1819 201.3C56.9067 201.673 56.6539 202.068 56.4253 202.483C58.0593 200.79 60.1495 199.862 62.3099 199.871C64.4703 199.881 66.555 200.826 68.1789 202.533Z" fill="black"/>
<path opacity="0.1" d="M208.78 251.895C210.402 253.599 211.456 255.948 211.746 258.509C212.035 261.071 211.542 263.671 210.357 265.831C210.669 265.508 210.962 265.16 211.235 264.789C212.009 263.731 212.602 262.5 212.98 261.168C213.358 259.836 213.512 258.427 213.436 257.023C213.359 255.619 213.052 254.247 212.533 252.985C212.013 251.723 211.291 250.596 210.408 249.668C209.525 248.74 208.498 248.029 207.386 247.577C206.274 247.125 205.098 246.939 203.926 247.031C202.754 247.123 201.609 247.491 200.555 248.113C199.502 248.735 198.561 249.6 197.786 250.658C197.511 251.029 197.259 251.423 197.03 251.836C198.664 250.145 200.754 249.219 202.914 249.23C205.074 249.24 207.157 250.187 208.78 251.895Z" fill="black"/>
<path opacity="0.1" d="M33.4628 251.741C35.192 250.187 37.3327 249.436 39.4888 249.626C41.6448 249.817 43.6701 250.937 45.1899 252.779C44.9917 252.345 44.768 251.929 44.5203 251.533C43.0812 249.316 40.9732 247.864 38.6498 247.49C36.3264 247.115 33.9731 247.849 32.0964 249.532C30.2196 251.215 28.9692 253.713 28.6142 256.489C28.2592 259.265 28.8279 262.097 30.1981 264.376C30.4454 264.771 30.7146 265.145 31.0039 265.496C29.9604 263.233 29.6345 260.595 30.0864 258.068C30.5382 255.54 31.7373 253.293 33.4628 251.741V251.741Z" fill="black"/>
<path opacity="0.1" d="M137.498 211.633C139.227 210.08 141.368 209.329 143.523 209.52C145.679 209.71 147.704 210.83 149.225 212.671C149.026 212.237 148.802 211.821 148.555 211.425C147.86 210.269 146.98 209.291 145.967 208.547C144.953 207.804 143.825 207.31 142.65 207.094C141.475 206.879 140.276 206.946 139.123 207.291C137.97 207.637 136.886 208.255 135.934 209.108C134.983 209.962 134.182 211.034 133.581 212.262C132.979 213.49 132.587 214.849 132.429 216.261C132.27 217.672 132.348 219.107 132.658 220.482C132.968 221.857 133.503 223.144 134.233 224.268C134.48 224.665 134.751 225.041 135.042 225.392C133.998 223.129 133.672 220.491 134.123 217.963C134.574 215.434 135.772 213.187 137.498 211.633Z" fill="black"/>
<path d="M121.272 291.84C120.281 290.934 120.406 288.745 120.406 288.745C120.406 288.745 122.135 288.056 123.126 288.976C124.117 289.896 124.503 291.287 123.992 292.076C123.482 292.864 122.264 292.765 121.272 291.84Z" fill="#5CA463"/>
<path d="M124.677 315.859C123.686 314.953 123.811 312.764 123.811 312.764C123.811 312.764 125.54 312.075 126.531 312.995C127.522 313.915 127.908 315.306 127.397 316.095C126.886 316.884 125.668 316.784 124.677 315.859Z" fill="#5CA463"/>
<path d="M144.727 300.451C143.736 299.544 143.86 297.355 143.86 297.355C143.86 297.355 145.589 296.666 146.58 297.586C147.571 298.506 147.957 299.898 147.447 300.686C146.936 301.475 145.718 301.375 144.727 300.451Z" fill="#5CA463"/>
<path d="M47.2479 230.368C48.0234 229.19 49.843 229.362 49.843 229.362C49.843 229.362 50.3953 231.442 49.6161 232.621C48.8368 233.799 47.6754 234.248 47.021 233.627C46.3665 233.006 46.4686 231.547 47.2479 230.368Z" fill="#5CA463"/>
<path opacity="0.1" d="M58.646 143.124C63.8691 143.124 68.1033 138.051 68.1033 131.794C68.1033 125.536 63.8691 120.464 58.646 120.464C53.4228 120.464 49.1886 125.536 49.1886 131.794C49.1886 138.051 53.4228 143.124 58.646 143.124Z" fill="#5CA463"/>
<path d="M109.705 300.236C109.705 300.236 119.768 297.025 122.454 292.747C125.14 288.469 137.214 280.98 138.555 286.33C139.897 291.68 156.676 309.864 145.277 313.075C133.879 316.286 118.441 317.353 115.086 315.214C111.731 313.075 109.705 300.236 109.705 300.236Z" fill="#A8A8A8"/>
<defs>
<linearGradient id="paint0_linear" x1="439.03" y1="275.327" x2="440.362" y2="273.244" gradientUnits="userSpaceOnUse">
<stop stop-color="white"/>
<stop offset="1"/>
</linearGradient>
</defs>
</svg>
