<svg width="488" height="436" viewBox="0 0 488 436" fill="none" xmlns="http://www.w3.org/2000/svg">
<path opacity="0.9" fill-rule="evenodd" clip-rule="evenodd" d="M198.449 0.189738C238.34 -2.04811 318.487 15.9245 350.708 32.2014C382.855 48.4406 427.053 59.2495 440.862 84.9352C455.344 111.874 469.029 174.917 463.901 203.411C458.088 235.71 405.055 268.72 363.344 284.261C321.668 299.79 273.087 272.184 225.653 272.15C178.301 272.117 129.619 299.759 88.1678 284.067C46.7396 268.383 31.8818 230.391 29.7404 197.981C27.861 169.536 6.43392 125.183 23.6518 99.2703C38.3311 77.1782 28.0809 35.5911 54.7047 19.5844C82.7191 2.74158 161.311 2.27312 198.449 0.189738Z" fill="#B6E6E6"/>
<path d="M448.367 386.298C449.836 386.488 451.309 386.057 452.726 385.528C455.537 384.477 458.453 382.808 459.909 379.55C460.441 378.36 460.743 377.028 461.041 375.71C461.641 373.05 462.245 370.359 462.342 367.592C462.445 364.548 461.931 361.522 460.85 358.81C460.691 358.4 460.422 358.078 460.093 357.903C459.519 357.614 459.203 358.009 458.953 358.421C457.433 360.921 457.591 364.4 457.464 367.566C457.336 370.74 456.852 373.873 456.026 376.869C455.675 378.14 455.212 379.463 454.322 380.178C453.776 380.616 453.127 380.777 452.495 380.929C451.549 381.157 450.516 381.37 449.668 380.786C448.8 380.188 448.226 378.638 447.224 378.381C446.232 378.126 444.879 379.459 444.437 380.582C443.238 383.623 446.4 386.045 448.367 386.298Z" fill="#FFE39D"/>
<g opacity="0.1">
<path opacity="0.1" d="M454.322 380.178C453.776 380.616 453.127 380.777 452.495 380.929C451.845 381.086 451.156 381.229 450.512 381.118C451.32 381.55 452.267 381.361 453.141 381.15C453.773 380.998 454.423 380.837 454.968 380.399C455.859 379.684 456.321 378.361 456.672 377.09C457.498 374.094 457.982 370.961 458.11 367.787C458.237 364.621 458.08 361.141 459.599 358.642C459.775 358.352 459.985 358.076 460.293 358.035C460.229 357.984 460.162 357.94 460.093 357.903C459.519 357.614 459.204 358.009 458.953 358.421C457.434 360.921 457.591 364.4 457.464 367.566C457.336 370.74 456.852 373.873 456.026 376.869C455.675 378.14 455.213 379.463 454.322 380.178Z" fill="black"/>
<path opacity="0.1" d="M445.083 380.802C445.492 379.764 446.678 378.55 447.638 378.573C447.508 378.484 447.368 378.419 447.224 378.38C446.232 378.126 444.879 379.458 444.437 380.581C443.319 383.418 445.995 385.716 447.955 386.217C446.113 385.44 444.084 383.337 445.083 380.802Z" fill="black"/>
</g>
<path opacity="0.1" d="M453.048 369.407L435.992 358.504L433.533 364.84L450.589 375.743L453.048 369.407Z" fill="black"/>
<path d="M453.048 369.407L435.992 358.504L433.756 364.264L450.812 375.167L453.048 369.407Z" fill="#6C63FF"/>
<path d="M446.91 365.989C448.571 365.989 449.918 364.261 449.918 362.128C449.918 359.996 448.571 358.267 446.91 358.267C445.248 358.267 443.901 359.996 443.901 362.128C443.901 364.261 445.248 365.989 446.91 365.989Z" fill="#6C63FF"/>
<path d="M444.624 341.994C444.624 341.994 449.833 343.807 451.73 346.537C451.73 346.537 454.803 343.19 456.224 344.098C457.645 345.006 455.523 351.997 455.523 351.997L453.643 362.936C453.643 362.936 454.621 389.36 441.373 394.549C428.125 399.739 418.632 378.495 421.7 370.591C424.767 362.688 433.981 348.09 433.981 348.09C433.981 348.09 442.014 336.532 443.433 335.922C444.853 335.311 444.624 341.994 444.624 341.994Z" fill="#FFE39D"/>
<g opacity="0.1">
<path opacity="0.1" d="M452.547 376.416C453.354 372 453.723 367.47 453.643 362.935L453.346 364.663C453.417 368.606 453.149 372.548 452.547 376.416Z" fill="white"/>
<path opacity="0.1" d="M423.184 369.496C426.252 361.593 433.684 349.817 433.684 349.817C433.684 349.817 441.717 338.259 443.136 337.649C444.556 337.039 444.327 343.722 444.327 343.722C444.327 343.722 449.536 345.534 451.433 348.264C451.433 348.264 454.506 344.917 455.927 345.825C456.479 346.178 456.495 347.448 456.311 348.868C456.722 346.88 456.996 344.592 456.224 344.098C454.803 343.19 451.73 346.537 451.73 346.537C449.833 343.807 444.624 341.994 444.624 341.994C444.624 341.994 444.853 335.311 443.433 335.922C442.014 336.532 433.981 348.09 433.981 348.09C433.981 348.09 426.549 359.866 423.481 367.769C423.204 368.483 423.096 369.723 423.184 369.496Z" fill="white"/>
</g>
<path d="M449.732 359.897C450.317 359.897 450.791 359.289 450.791 358.539C450.791 357.789 450.317 357.18 449.732 357.18C449.148 357.18 448.674 357.789 448.674 358.539C448.674 359.289 449.148 359.897 449.732 359.897Z" fill="#58555D"/>
<path d="M438.837 352.932C439.421 352.932 439.895 352.324 439.895 351.573C439.895 350.823 439.421 350.215 438.837 350.215C438.252 350.215 437.778 350.823 437.778 351.573C437.778 352.324 438.252 352.932 438.837 352.932Z" fill="#58555D"/>
<path d="M445.471 357.332C445.731 356.66 445.306 355.709 444.521 355.208C443.736 354.706 442.889 354.844 442.628 355.515C442.368 356.187 442.793 357.138 443.578 357.639C444.362 358.141 445.21 358.004 445.471 357.332Z" fill="#58555D"/>
<path d="M452.639 360.025L452.511 360.685L457.246 362.195L457.374 361.536L452.639 360.025Z" fill="#FFE39D"/>
<path d="M451.701 362.457L451.562 363.113L456.77 364.93L456.909 364.275L451.701 362.457Z" fill="#FFE39D"/>
<path d="M432.161 343.16L431.766 343.612L435.559 349.072L435.954 348.62L432.161 343.16Z" fill="#FFE39D"/>
<path d="M429.515 345.24L429.21 345.795L434.896 350.947L435.201 350.393L429.515 345.24Z" fill="#FFE39D"/>
<path opacity="0.1" d="M435.017 373.288C435.017 373.288 434.743 384.587 430.114 382.606C425.485 380.624 430.751 373.404 430.751 373.404C430.751 373.404 431.296 370.608 430.297 369.793" fill="black"/>
<path opacity="0.1" d="M439.083 375.61C439.083 375.61 431.759 381.888 435.518 385.879C439.278 389.871 441.265 380.316 441.265 380.316C441.265 380.316 442.825 378.243 443.892 378.898" fill="black"/>
<path d="M434.729 372.784C434.729 372.784 434.455 384.082 429.826 382.101C425.197 380.12 430.463 372.899 430.463 372.899C430.463 372.899 431.008 370.104 430.01 369.288" fill="#FFE39D"/>
<path d="M439.533 375.416C439.533 375.416 432.208 381.694 435.967 385.685C439.727 389.677 441.714 380.122 441.714 380.122C441.714 380.122 443.274 378.049 444.341 378.704" fill="#FFE39D"/>
<path opacity="0.5" d="M429.177 379.311L428.481 381.104L428.556 381.152L429.252 379.358L429.177 379.311Z" fill="#58555D"/>
<path opacity="0.5" d="M430.374 380.076L429.678 381.869L429.752 381.917L430.449 380.123L430.374 380.076Z" fill="#58555D"/>
<path opacity="0.5" d="M429.946 379.088L428.972 381.599L429.047 381.647L430.021 379.136L429.946 379.088Z" fill="#58555D"/>
<path opacity="0.5" d="M437.106 383.9L436.41 385.694L436.484 385.741L437.181 383.948L437.106 383.9Z" fill="#58555D"/>
<path opacity="0.5" d="M438.303 384.665L437.607 386.459L437.681 386.507L438.378 384.713L438.303 384.665Z" fill="#58555D"/>
<path opacity="0.5" d="M437.875 383.677L436.901 386.188L436.976 386.236L437.95 383.725L437.875 383.677Z" fill="#58555D"/>
<path opacity="0.1" d="M439.85 363.447C438.61 362.655 437.424 361.728 436.307 360.676C432.787 357.354 430.891 353.466 430.824 353.324L431.37 352.447C431.385 352.48 433.499 356.571 436.886 359.755C440.005 362.686 445.958 366.21 453.559 365.801L453.598 366.982C448.081 367.279 443.081 365.512 439.85 363.447Z" fill="black"/>
<path d="M439.768 364.202L439.752 364.14C439.836 364.12 439.915 364.075 439.983 364.009C440.052 363.943 440.107 363.857 440.146 363.759C440.184 363.661 440.204 363.553 440.204 363.443C440.205 363.334 440.185 363.225 440.147 363.127L440.194 363.099C440.235 363.206 440.256 363.324 440.255 363.443C440.255 363.561 440.234 363.679 440.193 363.785C440.151 363.892 440.092 363.985 440.018 364.057C439.945 364.129 439.859 364.179 439.768 364.202Z" fill="#4D8AF0"/>
<path opacity="0.1" d="M439.768 364.202L439.752 364.14C439.836 364.12 439.915 364.075 439.983 364.009C440.052 363.943 440.107 363.857 440.146 363.759C440.184 363.661 440.204 363.553 440.204 363.443C440.205 363.334 440.185 363.225 440.147 363.127L440.194 363.099C440.235 363.206 440.256 363.324 440.255 363.443C440.255 363.561 440.234 363.679 440.193 363.785C440.151 363.892 440.092 363.985 440.018 364.057C439.945 364.129 439.859 364.179 439.768 364.202Z" fill="black"/>
<path d="M453.65 365.566C446.049 365.975 440.096 362.451 436.978 359.52C433.59 356.336 431.477 352.245 431.461 352.212L430.675 352.827C430.743 352.97 432.878 357.119 436.398 360.44C437.515 361.493 438.701 362.42 439.942 363.212C443.172 365.277 448.172 367.044 453.689 366.747L453.65 365.566ZM440.125 363.23C440.107 363.219 440.092 363.201 440.082 363.178C440.072 363.156 440.067 363.13 440.068 363.104C440.07 363.078 440.077 363.053 440.09 363.033C440.102 363.012 440.119 362.997 440.138 362.988C440.157 362.98 440.178 362.979 440.197 362.986C440.217 362.993 440.234 363.007 440.248 363.027C440.261 363.046 440.27 363.071 440.272 363.096C440.275 363.122 440.271 363.148 440.262 363.171C440.256 363.187 440.248 363.201 440.238 363.212C440.228 363.223 440.216 363.232 440.203 363.237C440.19 363.243 440.177 363.245 440.163 363.244C440.15 363.243 440.137 363.238 440.125 363.23Z" fill="#F55F44"/>
<path opacity="0.1" d="M438.57 364.291C438.449 364.602 438.43 364.963 438.516 365.293C438.602 365.624 438.787 365.896 439.03 366.052C439.273 366.207 439.554 366.232 439.811 366.121C440.069 366.011 440.281 365.773 440.402 365.462C440.523 365.15 440.543 364.789 440.456 364.459C440.37 364.129 440.185 363.856 439.942 363.701C439.7 363.545 439.419 363.52 439.161 363.631C438.904 363.742 438.691 363.979 438.57 364.291ZM439.714 364.288C439.684 364.269 439.659 364.239 439.642 364.201C439.626 364.164 439.618 364.121 439.62 364.077C439.623 364.034 439.635 363.993 439.656 363.959C439.676 363.924 439.704 363.899 439.736 363.885C439.768 363.871 439.803 363.87 439.835 363.881C439.868 363.893 439.897 363.916 439.919 363.949C439.941 363.982 439.955 364.022 439.96 364.065C439.964 364.108 439.958 364.151 439.943 364.19C439.923 364.242 439.887 364.282 439.845 364.3C439.802 364.319 439.755 364.314 439.714 364.288L439.714 364.288Z" fill="url(#paint0_linear)"/>
<path d="M438.662 364.349C438.553 364.63 438.536 364.954 438.613 365.252C438.691 365.549 438.857 365.794 439.076 365.934C439.294 366.074 439.547 366.096 439.779 365.997C440.01 365.897 440.202 365.684 440.311 365.403C440.42 365.123 440.437 364.798 440.36 364.501C440.282 364.204 440.116 363.958 439.897 363.818C439.678 363.679 439.425 363.656 439.194 363.756C438.962 363.855 438.771 364.069 438.662 364.349ZM439.692 364.347C439.664 364.33 439.642 364.303 439.627 364.269C439.612 364.235 439.605 364.196 439.607 364.157C439.609 364.118 439.62 364.081 439.639 364.05C439.657 364.02 439.683 363.997 439.711 363.984C439.74 363.972 439.771 363.971 439.8 363.981C439.83 363.991 439.856 364.012 439.876 364.042C439.896 364.071 439.908 364.107 439.912 364.146C439.916 364.185 439.911 364.224 439.897 364.259C439.888 364.282 439.876 364.303 439.861 364.32C439.846 364.337 439.828 364.35 439.809 364.358C439.79 364.366 439.77 364.369 439.749 364.367C439.729 364.366 439.71 364.359 439.692 364.347Z" fill="#4D8AF0"/>
<path d="M439.736 364.181C439.695 364.074 439.675 363.957 439.675 363.838C439.676 363.719 439.698 363.602 439.739 363.495C439.781 363.389 439.841 363.296 439.915 363.224C439.988 363.153 440.074 363.103 440.165 363.081L440.176 363.145C440.092 363.166 440.013 363.211 439.945 363.277C439.877 363.344 439.822 363.43 439.784 363.528C439.746 363.626 439.726 363.735 439.726 363.844C439.726 363.954 439.746 364.062 439.784 364.16L439.736 364.181Z" fill="#4D8AF0"/>
<path d="M452.3 365.145C435.995 366.606 432.151 353.145 432.151 353.145L452.3 365.145Z" fill="#FFE39D"/>
<path opacity="0.1" d="M127.911 278.829C120.618 288.11 125.537 299.695 126.733 310.384C127.459 316.917 126.698 323.494 124.482 329.837C121.337 338.842 115.311 347.289 113.77 356.503C112.228 365.718 116.99 376.576 128.819 379.78C131.755 380.577 134.931 380.845 137.788 381.787C145.537 384.347 148.973 391.196 149.237 397.447C149.501 403.698 147.418 409.915 147.795 416.163C148.007 419.68 149.127 423.353 152.364 425.941C155.341 428.319 159.672 429.458 163.841 430.471C177.023 433.678 190.788 436.514 204.607 435.524C218.427 434.533 232.435 428.948 237.745 419.501C239.667 416.081 240.379 412.334 242.311 408.924C244.244 405.515 247.902 402.241 252.876 401.706C255.782 401.394 258.7 402.054 261.503 402.704L301.673 412.047C307.839 413.483 314.76 414.886 320.549 412.759C323.526 411.663 325.784 409.761 327.956 407.895C367.667 416.163 374.358 383.789 377.5 364.574C378.606 357.804 385.523 351.168 386.753 344.41C387.983 337.653 372.662 323.96 380.476 320.313C386.502 317.497 393.96 317.075 401.058 316.507C412.548 315.585 424.11 314.024 434.531 310.346C444.952 306.667 454.226 300.665 458.662 292.807C459.974 290.483 460.855 287.91 460.115 285.456C458.792 281.076 452.897 278.394 447.371 276.497C430.845 270.866 412.921 267.851 395.07 265.196C386.882 263.978 378.626 262.824 370.26 262.893C363.029 262.949 355.872 263.917 348.75 264.835C287.758 272.67 221.853 277.618 160.638 268.066C147.801 266.062 134.903 269.929 127.911 278.829Z" fill="#6C63FF"/>
<path d="M49.9349 276.216C49.9395 266.786 52.6072 257.634 57.5075 250.234C62.4079 242.835 69.255 237.622 76.9442 235.435C110.575 225.809 166.977 214.147 194.565 233.709C235.368 262.666 350.538 237.402 350.538 237.402C350.538 237.402 421.809 263.293 420.26 272.499C418.712 281.705 49.9494 276.193 49.9494 276.193L49.9349 276.216Z" fill="#6C63FF"/>
<path opacity="0.4" d="M232.184 241.332C232.184 241.332 295.933 201.938 320.987 230.87C338.218 250.765 377.047 245.045 399.618 239.527C412.103 236.471 424.784 239.145 436.64 247.333C448.063 255.231 460.073 264.768 459.57 269.648C458.619 278.88 232.184 273.339 232.184 273.339V241.332Z" fill="#6C63FF"/>
<path d="M322.088 224.186C324.006 224.891 325.809 225.723 326.361 226.737C326.914 227.75 325.819 228.965 323.37 229.336C320.629 229.748 317.691 228.998 315.471 228.24C313.251 227.482 310.698 226.613 307.79 226.774C309.287 227.311 310.408 227.992 311.041 228.75C311.675 229.509 311.801 230.32 311.406 231.104C311.267 231.428 310.907 231.732 310.364 231.981C308.843 232.624 306.081 232.348 304.257 231.841C298.452 230.226 296.837 227.112 296.806 224.306C296.222 225.319 296.712 226.366 296.701 227.408C296.691 228.45 295.972 229.596 293.752 230.152C292.373 230.443 290.823 230.585 289.26 230.564C286.655 230.601 283.747 230.498 281.965 229.74C279.756 228.805 280.329 227.231 282.247 226.197C284.164 225.163 287.103 224.52 289.802 223.807C291.966 223.298 293.811 222.602 295.201 221.772C295.362 221.657 295.495 221.535 295.597 221.41H311.948C315.631 222.149 319.042 223.083 322.088 224.186Z" fill="white"/>
<path d="M167.999 229.355C170.215 230.208 172.298 231.215 172.931 232.441C173.565 233.668 172.289 235.138 169.451 235.587C166.274 236.085 162.875 235.178 160.309 234.261C157.743 233.344 154.791 232.292 151.423 232.486C153.162 233.138 154.459 233.965 155.189 234.887C155.918 235.809 156.054 236.794 155.583 237.745C155.42 238.138 155.001 238.505 154.371 238.807C152.604 239.585 149.408 239.251 147.299 238.638C140.586 236.684 138.735 232.915 138.717 229.52C138.035 230.746 138.595 232.012 138.577 233.274C138.558 234.535 137.718 235.921 135.143 236.594C133.544 236.946 131.749 237.118 129.939 237.092C126.921 237.137 123.554 237.013 121.495 236.095C118.942 234.964 119.616 233.059 121.844 231.808C124.071 230.557 127.479 229.779 130.61 228.917C133.119 228.3 135.26 227.459 136.875 226.454C137.063 226.314 137.217 226.167 137.336 226.015H156.273C160.531 226.904 164.475 228.028 167.999 229.355Z" fill="white"/>
<path d="M427.525 281.937C428.26 280.952 428.952 279.788 429.164 278.371C429.375 276.953 428.956 275.254 428.017 274.735C426.966 274.159 425.839 275.208 424.987 276.268C424.136 277.328 423.157 278.544 422.042 278.319C422.616 277.568 423.046 276.616 423.289 275.555C423.532 274.494 423.58 273.36 423.429 272.264C423.375 271.81 423.237 271.386 423.029 271.037C422.446 270.138 421.386 270.524 420.687 271.233C418.461 273.491 417.842 277.846 417.83 281.77C417.606 280.353 417.794 278.889 417.79 277.432C417.786 275.974 417.51 274.372 416.659 273.595C416.13 273.187 415.535 272.989 414.936 273.019C413.937 272.967 412.822 273.111 412.139 274.171C411.291 275.479 411.511 277.679 412.246 279.125C412.982 280.571 414.109 281.47 415.144 282.467C415.974 283.179 416.681 284.152 417.214 285.313C417.276 285.474 417.327 285.644 417.366 285.82H423.637C425.049 284.786 426.357 283.479 427.525 281.937Z" fill="#6C63FF"/>
<path d="M436.475 333.946C455.387 333.946 470.719 317.734 470.719 297.735C470.719 277.737 455.387 261.525 436.475 261.525C417.562 261.525 402.231 277.737 402.231 297.735C402.231 317.734 417.562 333.946 436.475 333.946Z" fill="#5CA463"/>
<path d="M400.057 324.053C418.969 324.053 434.301 307.841 434.301 287.843C434.301 267.844 418.969 251.632 400.057 251.632C381.144 251.632 365.813 267.844 365.813 287.843C365.813 307.841 381.144 324.053 400.057 324.053Z" fill="#5CA463"/>
<path d="M359.967 324.407C378.88 324.407 394.212 308.195 394.212 288.197C394.212 268.198 378.88 251.986 359.967 251.986C341.055 251.986 325.723 268.198 325.723 288.197C325.723 308.195 341.055 324.407 359.967 324.407Z" fill="#5CA463"/>
<path d="M346.937 333.946C365.85 333.946 381.181 317.734 381.181 297.735C381.181 277.737 365.85 261.525 346.937 261.525C328.025 261.525 312.693 277.737 312.693 297.735C312.693 317.734 328.025 333.946 346.937 333.946Z" fill="#5CA463"/>
<path d="M324.886 337.127C343.798 337.127 359.13 320.915 359.13 300.916C359.13 280.918 343.798 264.706 324.886 264.706C305.973 264.706 290.642 280.918 290.642 300.916C290.642 320.915 305.973 337.127 324.886 337.127Z" fill="#5CA463"/>
<path d="M315.865 308.51C334.778 308.51 350.109 292.298 350.109 272.3C350.109 252.301 334.778 236.089 315.865 236.089C296.953 236.089 281.621 252.301 281.621 272.3C281.621 292.298 296.953 308.51 315.865 308.51Z" fill="#5CA463"/>
<path d="M325.888 275.3C344.8 275.3 360.132 259.088 360.132 239.09C360.132 219.091 344.8 202.879 325.888 202.879C306.975 202.879 291.644 219.091 291.644 239.09C291.644 259.088 306.975 275.3 325.888 275.3Z" fill="#5CA463"/>
<path d="M344.931 275.3C363.843 275.3 379.175 259.088 379.175 239.09C379.175 219.091 363.843 202.879 344.931 202.879C326.018 202.879 310.687 219.091 310.687 239.09C310.687 259.088 326.018 275.3 344.931 275.3Z" fill="#5CA463"/>
<path d="M355.958 260.463C374.87 260.463 390.202 244.251 390.202 224.252C390.202 204.254 374.87 188.042 355.958 188.042C337.045 188.042 321.714 204.254 321.714 224.252C321.714 244.251 337.045 260.463 355.958 260.463Z" fill="#5CA463"/>
<path d="M384.022 276.713C402.934 276.713 418.266 260.501 418.266 240.503C418.266 220.504 402.934 204.292 384.022 204.292C365.109 204.292 349.778 220.504 349.778 240.503C349.778 260.501 365.109 276.713 384.022 276.713Z" fill="#5CA463"/>
<path d="M449.505 308.51C468.418 308.51 483.749 292.298 483.749 272.3C483.749 252.301 468.418 236.089 449.505 236.089C430.593 236.089 415.261 252.301 415.261 272.3C415.261 292.298 430.593 308.51 449.505 308.51Z" fill="#5CA463"/>
<path d="M429.792 290.492C448.705 290.492 464.036 274.28 464.036 254.282C464.036 234.283 448.705 218.071 429.792 218.071C410.88 218.071 395.548 234.283 395.548 254.282C395.548 274.28 410.88 290.492 429.792 290.492Z" fill="#5CA463"/>
<path d="M417.097 272.474C436.009 272.474 451.341 256.262 451.341 236.263C451.341 216.265 436.009 200.053 417.097 200.053C398.184 200.053 382.853 216.265 382.853 236.263C382.853 256.262 398.184 272.474 417.097 272.474Z" fill="#5CA463"/>
<path d="M393.042 245.271C411.955 245.271 427.286 229.059 427.286 209.06C427.286 189.062 411.955 172.85 393.042 172.85C374.13 172.85 358.798 189.062 358.798 209.06C358.798 229.059 374.13 245.271 393.042 245.271Z" fill="#5CA463"/>
<path d="M437.811 275.3C456.724 275.3 472.055 259.088 472.055 239.09C472.055 219.091 456.724 202.879 437.811 202.879C418.899 202.879 403.567 219.091 403.567 239.09C403.567 259.088 418.899 275.3 437.811 275.3Z" fill="#5CA463"/>
<g opacity="0.1">
<path opacity="0.1" d="M436.475 333.946C455.387 333.946 470.719 317.734 470.719 297.735C470.719 277.737 455.387 261.525 436.475 261.525C417.562 261.525 402.231 277.737 402.231 297.735C402.231 317.734 417.562 333.946 436.475 333.946Z" fill="black"/>
<path opacity="0.1" d="M400.057 324.053C418.969 324.053 434.301 307.841 434.301 287.842C434.301 267.844 418.969 251.632 400.057 251.632C381.144 251.632 365.813 267.844 365.813 287.842C365.813 307.841 381.144 324.053 400.057 324.053Z" fill="black"/>
<path opacity="0.1" d="M359.967 324.407C378.88 324.407 394.212 308.195 394.212 288.197C394.212 268.198 378.88 251.986 359.967 251.986C341.055 251.986 325.723 268.198 325.723 288.197C325.723 308.195 341.055 324.407 359.967 324.407Z" fill="black"/>
<path opacity="0.1" d="M346.937 333.946C365.85 333.946 381.181 317.734 381.181 297.735C381.181 277.737 365.85 261.525 346.937 261.525C328.025 261.525 312.693 277.737 312.693 297.735C312.693 317.734 328.025 333.946 346.937 333.946Z" fill="black"/>
<path opacity="0.1" d="M324.886 337.127C343.798 337.127 359.13 320.915 359.13 300.916C359.13 280.918 343.798 264.706 324.886 264.706C305.973 264.706 290.642 280.918 290.642 300.916C290.642 320.915 305.973 337.127 324.886 337.127Z" fill="black"/>
<path opacity="0.1" d="M315.865 308.51C334.778 308.51 350.109 292.298 350.109 272.3C350.109 252.301 334.778 236.089 315.865 236.089C296.953 236.089 281.621 252.301 281.621 272.3C281.621 292.298 296.953 308.51 315.865 308.51Z" fill="black"/>
<path opacity="0.1" d="M325.888 275.3C344.8 275.3 360.132 259.088 360.132 239.09C360.132 219.091 344.8 202.879 325.888 202.879C306.975 202.879 291.644 219.091 291.644 239.09C291.644 259.088 306.975 275.3 325.888 275.3Z" fill="black"/>
<path opacity="0.1" d="M344.931 275.3C363.843 275.3 379.175 259.088 379.175 239.09C379.175 219.091 363.843 202.879 344.931 202.879C326.018 202.879 310.687 219.091 310.687 239.09C310.687 259.088 326.018 275.3 344.931 275.3Z" fill="black"/>
<path opacity="0.1" d="M355.958 260.462C374.87 260.462 390.202 244.25 390.202 224.252C390.202 204.253 374.87 188.042 355.958 188.042C337.045 188.042 321.714 204.253 321.714 224.252C321.714 244.25 337.045 260.462 355.958 260.462Z" fill="black"/>
<path opacity="0.1" d="M384.022 276.713C402.934 276.713 418.266 260.501 418.266 240.503C418.266 220.504 402.934 204.292 384.022 204.292C365.109 204.292 349.778 220.504 349.778 240.503C349.778 260.501 365.109 276.713 384.022 276.713Z" fill="black"/>
<path opacity="0.1" d="M449.505 308.51C468.418 308.51 483.749 292.298 483.749 272.3C483.749 252.301 468.418 236.089 449.505 236.089C430.593 236.089 415.261 252.301 415.261 272.3C415.261 292.298 430.593 308.51 449.505 308.51Z" fill="black"/>
<path opacity="0.1" d="M429.792 290.492C448.705 290.492 464.036 274.28 464.036 254.281C464.036 234.283 448.705 218.071 429.792 218.071C410.88 218.071 395.548 234.283 395.548 254.281C395.548 274.28 410.88 290.492 429.792 290.492Z" fill="black"/>
<path opacity="0.1" d="M417.097 272.474C436.009 272.474 451.341 256.262 451.341 236.263C451.341 216.265 436.009 200.053 417.097 200.053C398.184 200.053 382.853 216.265 382.853 236.263C382.853 256.262 398.184 272.474 417.097 272.474Z" fill="black"/>
<path opacity="0.1" d="M393.042 245.271C411.955 245.271 427.286 229.059 427.286 209.06C427.286 189.062 411.955 172.85 393.042 172.85C374.13 172.85 358.798 189.062 358.798 209.06C358.798 229.059 374.13 245.271 393.042 245.271Z" fill="black"/>
<path opacity="0.1" d="M437.811 275.3C456.724 275.3 472.055 259.088 472.055 239.09C472.055 219.091 456.724 202.879 437.811 202.879C418.899 202.879 403.567 219.091 403.567 239.09C403.567 259.088 418.899 275.3 437.811 275.3Z" fill="black"/>
</g>
<path d="M419.562 361.191C419.562 361.191 440.498 342.585 430.141 316.09L419.783 311.989L408.545 348.575L419.562 361.191Z" fill="#67647E"/>
<path opacity="0.1" d="M420.678 310.728L423.156 311.709L412.122 347.629L421.749 358.652C420.952 359.491 420.456 359.93 420.456 359.93L409.436 347.314L420.678 310.728Z" fill="black"/>
<path d="M459.216 357.288C459.216 357.288 452.406 364.489 456.251 375.175C460.097 385.862 449.663 403.629 449.663 403.629L449.998 403.572C463.983 400.961 470.933 384.048 463.155 371.481C460.248 366.816 457.873 361.333 459.216 357.288Z" fill="#5CA463"/>
<path d="M459.216 357.288C459.216 357.288 455.371 366.115 459.216 373.316C463.061 380.517 459.886 400.724 449.659 403.629" stroke="#535461" stroke-miterlimit="10"/>
<path d="M471.345 386.414C471.345 386.414 463.574 385.107 462.867 392.471C462.16 399.835 447.921 400.855 447.921 400.855L448.189 401.043C459.943 409.19 471.178 406.239 469.483 395.408C468.856 391.38 468.907 387.335 471.345 386.414Z" fill="#5CA463"/>
<path opacity="0.2" d="M471.345 386.414C471.345 386.414 463.574 385.107 462.867 392.471C462.16 399.835 447.921 400.855 447.921 400.855L448.189 401.043C459.943 409.19 471.178 406.239 469.483 395.408C468.856 391.38 468.907 387.335 471.345 386.414Z" fill="#F5F5F5"/>
<path d="M471.345 386.414C471.345 386.414 465.316 387.831 465.808 393.615C466.301 399.399 456.851 406.367 447.924 400.855" stroke="#535461" stroke-miterlimit="10"/>
<path d="M325.013 322.438L327.733 333.949C327.733 333.949 346.951 336.599 359.763 334.934C362.028 334.594 364.203 333.765 366.151 332.497C367.233 331.821 368.941 331.527 371.276 333.375C375.276 336.563 394.905 362.066 391.726 388.525C391.479 390.519 390.618 392.371 389.276 393.795C387.933 395.219 386.184 396.136 384.3 396.403C380.385 396.967 376.643 398.464 373.356 400.781L363.642 407.62L463.246 405.318L452.905 392.081C452.905 392.081 445.831 385.752 440.387 385.174C438.8 385.008 437.49 383.467 436.431 381.374C430.231 369.101 422.815 357.561 414.775 346.541C408.92 338.515 404.006 330.057 404.465 324.744C405.554 312.081 404.465 291.363 404.465 291.363L383.784 288.487C383.784 288.487 386.504 316.115 361.468 323.019C336.432 329.922 325.013 322.438 325.013 322.438Z" fill="#67647E"/>
<path d="M400.188 402.754C400.188 402.754 411.721 400.313 414.799 397.062C417.877 393.81 431.715 388.118 433.252 392.184C434.79 396.25 454.021 410.071 440.957 412.512C427.893 414.952 410.2 415.764 406.354 414.138C402.509 412.512 400.188 402.754 400.188 402.754Z" fill="#A8A8A8"/>
<path opacity="0.2" d="M440.943 411C427.88 413.44 410.186 414.251 406.341 412.625C403.413 411.386 401.377 405.435 400.573 402.669L400.188 402.754C400.188 402.754 402.495 412.512 406.338 414.138C410.18 415.764 427.869 414.953 440.94 412.512C444.715 411.804 445.794 410.153 445.385 408.063C445.067 409.427 443.75 410.479 440.943 411Z" fill="black"/>
<path d="M478.249 333.45C478.206 334.906 477.775 336.319 477.006 337.527C476.231 336.323 475.793 334.912 475.743 333.457C475.743 331.208 476.293 329.384 476.986 329.38C477.68 329.377 478.242 331.201 478.249 333.45Z" fill="#5CA463"/>
<path d="M383.69 331.474C383.644 332.929 383.21 334.341 382.437 335.547C381.665 334.341 381.231 332.929 381.185 331.474C381.185 329.224 381.744 327.4 382.437 327.4C383.131 327.4 383.69 329.224 383.69 331.474Z" fill="#5CA463"/>
<path d="M486.747 371.612C487.519 372.818 487.954 374.23 488 375.685C486.705 375.19 485.568 374.319 484.721 373.17C483.468 371.35 482.909 369.526 483.468 369.097C484.027 368.669 485.498 369.795 486.747 371.612Z" fill="#5CA463"/>
<path d="M446.732 350.286C446.685 351.741 446.251 353.153 445.479 354.359C444.707 353.153 444.272 351.741 444.226 350.286C444.226 348.036 444.785 346.212 445.479 346.212C446.172 346.212 446.732 348.043 446.732 350.286Z" fill="#5CA463"/>
<path d="M423.324 336.755C423.278 338.21 422.843 339.622 422.071 340.828C421.299 339.622 420.865 338.21 420.818 336.755C420.818 334.506 421.378 332.681 422.071 332.681C422.765 332.681 423.324 334.506 423.324 336.755Z" fill="#5CA463"/>
<path d="M408.803 345.004C409.447 346.292 409.734 347.745 409.63 349.198C408.389 348.559 407.343 347.562 406.616 346.322C405.557 344.37 405.189 342.493 405.788 342.128C406.388 341.763 407.748 343.052 408.803 345.004Z" fill="#5CA463"/>
<path d="M397.953 382.423C396.917 383.383 395.646 384.014 394.285 384.243C394.589 382.823 395.266 381.523 396.238 380.492C397.789 378.955 399.434 378.14 399.906 378.671C400.378 379.203 399.504 380.885 397.953 382.423Z" fill="#5CA463"/>
<path opacity="0.1" d="M397.953 382.423C396.917 383.383 395.646 384.014 394.285 384.243C394.589 382.823 395.266 381.523 396.238 380.492C397.789 378.955 399.434 378.14 399.906 378.671C400.378 379.203 399.504 380.885 397.953 382.423Z" fill="black"/>
<path d="M420.735 380.113C419.699 381.073 418.427 381.704 417.067 381.934C417.371 380.514 418.047 379.213 419.02 378.183C420.57 376.645 422.215 375.831 422.687 376.362C423.16 376.893 422.286 378.572 420.735 380.113Z" fill="#5CA463"/>
<path opacity="0.1" d="M420.735 380.113C419.699 381.073 418.427 381.704 417.067 381.934C417.371 380.514 418.047 379.213 419.02 378.183C420.57 376.645 422.215 375.831 422.687 376.362C423.16 376.893 422.286 378.572 420.735 380.113Z" fill="black"/>
<path d="M425.103 404.532C424.067 405.492 422.795 406.123 421.435 406.353C421.738 404.929 422.416 403.624 423.391 402.591C424.942 401.054 426.586 400.239 427.059 400.77C427.531 401.302 426.657 402.991 425.103 404.532Z" fill="#5CA463"/>
<path opacity="0.1" d="M425.103 404.532C424.067 405.492 422.795 406.123 421.435 406.353C421.738 404.929 422.416 403.624 423.391 402.591C424.942 401.054 426.586 400.239 427.059 400.77C427.531 401.302 426.657 402.991 425.103 404.532Z" fill="black"/>
<path d="M459.48 402.8C459.48 402.8 465.212 401.595 466.739 399.991C468.267 398.386 475.147 395.577 475.911 397.582C476.675 399.587 486.228 406.409 479.733 407.61C473.238 408.81 464.448 409.214 462.539 408.414C460.629 407.613 459.48 402.8 459.48 402.8Z" fill="#A8A8A8"/>
<path opacity="0.2" d="M479.743 406.87C473.248 408.074 464.458 408.474 462.549 407.674C461.095 407.061 460.083 404.132 459.682 402.761L459.491 402.803C459.491 402.803 460.636 407.617 462.549 408.421C464.462 409.225 473.248 408.821 479.743 407.617C481.619 407.263 482.155 406.455 481.954 405.421C481.783 406.091 481.13 406.611 479.743 406.87Z" fill="black"/>
<path d="M436.475 325.82C455.387 325.82 470.719 309.608 470.719 289.61C470.719 269.612 455.387 253.4 436.475 253.4C417.562 253.4 402.231 269.612 402.231 289.61C402.231 309.608 417.562 325.82 436.475 325.82Z" fill="#5CA463"/>
<path d="M400.057 315.927C418.969 315.927 434.301 299.715 434.301 279.717C434.301 259.719 418.969 243.507 400.057 243.507C381.144 243.507 365.813 259.719 365.813 279.717C365.813 299.715 381.144 315.927 400.057 315.927Z" fill="#5CA463"/>
<path d="M359.967 316.282C378.88 316.282 394.212 300.07 394.212 280.071C394.212 260.073 378.88 243.861 359.967 243.861C341.055 243.861 325.723 260.073 325.723 280.071C325.723 300.07 341.055 316.282 359.967 316.282Z" fill="#5CA463"/>
<path d="M346.937 325.82C365.85 325.82 381.181 309.608 381.181 289.61C381.181 269.612 365.85 253.4 346.937 253.4C328.025 253.4 312.693 269.612 312.693 289.61C312.693 309.608 328.025 325.82 346.937 325.82Z" fill="#5CA463"/>
<path d="M324.886 329.001C343.798 329.001 359.13 312.789 359.13 292.791C359.13 272.793 343.798 256.581 324.886 256.581C305.973 256.581 290.642 272.793 290.642 292.791C290.642 312.789 305.973 329.001 324.886 329.001Z" fill="#5CA463"/>
<path d="M315.865 300.385C334.778 300.385 350.109 284.173 350.109 264.175C350.109 244.176 334.778 227.964 315.865 227.964C296.953 227.964 281.621 244.176 281.621 264.175C281.621 284.173 296.953 300.385 315.865 300.385Z" fill="#5CA463"/>
<path d="M325.888 267.175C344.8 267.175 360.132 250.963 360.132 230.964C360.132 210.966 344.8 194.754 325.888 194.754C306.975 194.754 291.644 210.966 291.644 230.964C291.644 250.963 306.975 267.175 325.888 267.175Z" fill="#5CA463"/>
<path d="M344.931 267.175C363.843 267.175 379.175 250.963 379.175 230.964C379.175 210.966 363.843 194.754 344.931 194.754C326.018 194.754 310.687 210.966 310.687 230.964C310.687 250.963 326.018 267.175 344.931 267.175Z" fill="#5CA463"/>
<path d="M355.958 252.337C374.87 252.337 390.202 236.125 390.202 216.126C390.202 196.128 374.87 179.916 355.958 179.916C337.045 179.916 321.714 196.128 321.714 216.126C321.714 236.125 337.045 252.337 355.958 252.337Z" fill="#5CA463"/>
<path d="M384.022 268.588C402.934 268.588 418.266 252.376 418.266 232.378C418.266 212.379 402.934 196.167 384.022 196.167C365.109 196.167 349.778 212.379 349.778 232.378C349.778 252.376 365.109 268.588 384.022 268.588Z" fill="#5CA463"/>
<path d="M449.505 300.385C468.418 300.385 483.749 284.173 483.749 264.174C483.749 244.176 468.418 227.964 449.505 227.964C430.593 227.964 415.261 244.176 415.261 264.174C415.261 284.173 430.593 300.385 449.505 300.385Z" fill="#5CA463"/>
<path d="M429.792 282.366C448.705 282.366 464.036 266.154 464.036 246.156C464.036 226.157 448.705 209.946 429.792 209.946C410.88 209.946 395.548 226.157 395.548 246.156C395.548 266.154 410.88 282.366 429.792 282.366Z" fill="#5CA463"/>
<path d="M417.097 264.348C436.009 264.348 451.341 248.136 451.341 228.138C451.341 208.139 436.009 191.927 417.097 191.927C398.184 191.927 382.853 208.139 382.853 228.138C382.853 248.136 398.184 264.348 417.097 264.348Z" fill="#5CA463"/>
<path d="M393.042 237.145C411.955 237.145 427.286 220.933 427.286 200.935C427.286 180.936 411.955 164.724 393.042 164.724C374.13 164.724 358.798 180.936 358.798 200.935C358.798 220.933 374.13 237.145 393.042 237.145Z" fill="#5CA463"/>
<path d="M437.811 267.175C456.724 267.175 472.055 250.963 472.055 230.964C472.055 210.966 456.724 194.754 437.811 194.754C418.899 194.754 403.567 210.966 403.567 230.964C403.567 250.963 418.899 267.175 437.811 267.175Z" fill="#5CA463"/>
<path opacity="0.1" d="M470.568 236.635C470.568 236.635 438.676 220.643 419.378 248.986L470.568 236.635Z" fill="black"/>
<path opacity="0.1" d="M386.798 204.236C386.798 204.236 351.519 203.109 344.592 237.255L386.798 204.236Z" fill="black"/>
<path opacity="0.1" d="M342.944 278.322C342.944 278.322 311.052 262.326 291.754 290.662L342.944 278.322Z" fill="black"/>
<path opacity="0.1" d="M378.733 396.371C379.614 396.644 383.258 397.788 386.99 399.357C388.834 400.109 390.631 400.985 392.369 401.982C392.731 402.198 393.076 402.414 393.401 402.63C394.252 403.159 395.014 403.834 395.655 404.628C397.812 407.578 400.981 409.169 402.559 409.817C402.66 409.122 402.57 408.411 402.298 407.769L395.263 402.545L396.268 402.499L394.955 401.812L395.742 401.759L386.216 397.228C386.216 397.228 383.074 397.002 378.733 396.371Z" fill="black"/>
<g opacity="0.05">
<path opacity="0.05" d="M399.38 371.371L398.807 371.169L396.168 367.949C396.22 367.797 396.225 367.631 396.185 367.475L399.38 371.371Z" fill="black"/>
<path opacity="0.05" d="M403.058 377.336C402.311 376.999 401.68 376.428 401.251 375.699C400.821 374.971 400.614 374.12 400.657 373.263C400.657 373.153 400.657 373.05 400.657 372.951L400.71 373.018L402.807 373.759C402.641 374.188 402.557 374.648 402.559 375.112C402.538 375.887 402.71 376.654 403.058 377.336Z" fill="black"/>
<path opacity="0.05" d="M382.669 396.343C387.05 397.954 392.982 400.494 394.788 402.963L394.922 403.14C390.122 399.658 379.58 396.491 379.58 396.491C380.611 396.504 381.643 396.454 382.669 396.343Z" fill="black"/>
<path opacity="0.05" d="M402.653 408.51C403.346 406.841 404.663 405.099 406.046 403.551C409.455 399.794 411.618 394.969 412.21 389.801L412.267 389.28C415.064 386.322 421.445 388.819 421.445 388.819C421.78 383.074 419.824 379.302 418.353 377.311L418.738 377.453C418.738 377.453 423.893 381.611 423.371 390.668C423.371 390.668 417.006 388.189 414.193 391.129L414.136 391.649C413.544 396.818 411.381 401.643 407.972 405.4C406.582 406.944 405.272 408.683 404.579 410.359C404.579 410.359 400.318 409.069 397.337 405.598C398.944 406.874 400.74 407.858 402.653 408.51Z" fill="black"/>
</g>
<path opacity="0.1" d="M415.157 390.038C416.206 390.684 417.318 391.206 418.474 391.596C420.125 392.135 422.018 391.568 422.932 391.221V389.84L415.228 388.915L415.157 390.038Z" fill="black"/>
<circle cx="161.5" cy="67.2244" r="17.5" fill="#FFB803"/>
<path d="M172.524 72.5188C173.917 72.0364 175.414 72.4758 176.752 73.5705C177.336 71.8119 178.375 70.4958 179.77 70.011C182.121 69.1974 184.498 69.9275 186.106 72.9C186.166 73.012 186.26 73.0548 186.331 73.01C186.402 72.9623 186.432 72.8355 186.402 72.7045C186.368 72.5586 186.331 72.4098 186.292 72.2621C184.984 67.2973 181.49 64.1113 178.487 65.1497C177.093 65.6319 176.056 66.946 175.472 68.7051C174.136 67.6108 172.635 67.1763 171.242 67.6552C168.239 68.6934 166.866 73.5618 168.174 78.5295C168.22 78.7033 168.331 78.8253 168.442 78.8253C168.551 78.8273 168.631 78.706 168.633 78.5362C168.67 75.2837 170.264 73.3013 172.524 72.5188Z" fill="#3E0735"/>
<path d="M266.648 106.541C268.081 106.411 269.499 107.214 270.674 108.623C271.474 107.037 272.665 105.999 274.1 105.867C276.518 105.648 278.763 106.955 279.965 110.278C280.01 110.403 280.097 110.469 280.172 110.442C280.249 110.413 280.294 110.296 280.281 110.159C280.266 110.007 280.25 109.852 280.23 109.697C279.577 104.487 276.547 100.487 273.459 100.766C272.026 100.895 270.837 101.932 270.037 103.518C268.862 102.111 267.441 101.312 266.009 101.438C262.921 101.716 260.948 106.167 261.599 111.379C261.623 111.562 261.716 111.709 261.825 111.737C261.933 111.766 262.026 111.666 262.05 111.499C262.503 108.308 264.325 106.752 266.648 106.541Z" fill="#3E0735"/>
<path d="M208.598 330.551C208.598 319.729 200.295 310.955 190.062 310.955C179.829 310.955 171.525 319.729 171.525 330.551C161.289 330.551 152.989 339.329 152.989 350.152C152.989 360.974 161.292 369.752 171.525 369.752C174.746 369.766 177.923 368.865 180.797 367.124C183.674 368.852 186.847 369.751 190.065 369.751C193.283 369.751 196.457 368.852 199.334 367.124C202.208 368.865 205.385 369.766 208.606 369.752C218.846 369.752 227.142 360.974 227.142 350.152C227.142 339.329 218.854 330.551 208.598 330.551Z" fill="#5CA463"/>
<path opacity="0.1" d="M208.598 330.551C208.598 319.729 200.295 310.955 190.062 310.955C179.829 310.955 171.525 319.729 171.525 330.551C161.289 330.551 152.989 339.329 152.989 350.152C152.989 360.974 161.292 369.752 171.525 369.752C174.746 369.766 177.923 368.865 180.797 367.124C183.674 368.852 186.847 369.751 190.065 369.751C193.283 369.751 196.457 368.852 199.334 367.124C202.208 368.865 205.385 369.766 208.606 369.752C218.846 369.752 227.142 360.974 227.142 350.152C227.142 339.329 218.854 330.551 208.598 330.551Z" fill="black"/>
<path d="M164.784 231.36C164.786 228.641 164.371 225.945 163.558 223.406C167.688 221.653 171.168 218.208 173.383 213.68C175.597 209.151 176.405 203.83 175.663 198.657C174.921 193.484 172.676 188.792 169.326 185.41C165.976 182.027 161.735 180.172 157.354 180.172C157.353 174.721 155.682 169.461 152.659 165.388C149.635 161.316 145.469 158.713 140.951 158.075C136.433 157.437 131.876 158.807 128.145 161.926C124.414 165.045 121.768 169.696 120.709 174.996C120.539 174.996 120.368 174.996 120.198 174.996C120.202 169.451 118.478 164.104 115.363 160.003C112.249 155.901 107.968 153.34 103.36 152.822C98.7518 152.304 94.1481 153.865 90.4507 157.2C86.7533 160.536 84.2285 165.405 83.3711 170.854C80.6308 168.274 77.3398 166.669 73.8744 166.224C70.409 165.779 66.9089 166.511 63.7742 168.336C60.6395 170.161 57.9968 173.006 56.148 176.546C54.2992 180.085 53.3189 184.176 53.3193 188.352C49.3236 188.358 45.4361 189.909 42.2341 192.772C39.0322 195.636 36.6864 199.66 35.545 204.248C34.4036 208.835 34.5276 213.741 35.8984 218.238C37.2693 222.734 39.8139 226.581 43.1546 229.207C42.9154 230.647 42.795 232.112 42.7952 233.581C39.9448 233.579 37.1324 234.363 34.5756 235.872C32.0187 237.382 29.786 239.575 28.0503 242.284C26.3145 244.992 25.1223 248.143 24.5658 251.492C24.0094 254.841 24.1036 258.299 24.8413 261.597C25.579 264.895 26.9403 267.946 28.8198 270.513C30.6994 273.08 33.0468 275.095 35.6804 276.401C38.314 277.707 41.1631 278.27 44.0073 278.045C46.8515 277.821 49.6145 276.816 52.0823 275.107C54.9065 277.06 58.1102 278.089 61.3713 278.089C64.6325 278.089 67.8362 277.06 70.6604 275.107C74.1024 277.488 78.0915 278.484 82.0411 277.947C85.9906 277.41 89.6922 275.37 92.6015 272.125C92.923 272.125 93.2446 272.157 93.5699 272.157C96.8325 272.16 100.038 271.13 102.861 269.17C107.01 272.052 111.931 272.889 116.585 271.504C119.496 274.078 122.971 275.577 126.583 275.819C130.195 276.061 133.787 275.033 136.919 272.864C139.743 274.817 142.947 275.845 146.208 275.845C149.469 275.845 152.672 274.817 155.497 272.864C157.965 274.572 160.728 275.578 163.572 275.802C166.416 276.027 169.265 275.464 171.899 274.158C174.532 272.852 176.88 270.837 178.759 268.27C180.639 265.703 182 262.652 182.738 259.354C183.475 256.055 183.57 252.598 183.013 249.249C182.457 245.9 181.264 242.749 179.529 240.041C177.793 237.332 175.56 235.138 173.003 233.629C170.447 232.12 167.634 231.336 164.784 231.337V231.36ZM79.9475 233.585C79.9463 232.627 79.8932 231.671 79.7886 230.721C80.2653 230.454 80.7344 230.173 81.1883 229.855C81.9301 230.375 82.7026 230.83 83.4997 231.215C82.5836 231.927 81.7204 232.732 80.9197 233.621C80.5982 233.594 80.2728 233.585 79.9475 233.585Z" fill="#5CA463"/>
<path d="M156.321 292.687C156.255 287.421 154.463 282.397 151.331 278.702C148.199 275.006 143.98 272.934 139.584 272.934C135.188 272.934 130.968 275.006 127.836 278.702C124.705 282.397 122.912 287.421 122.846 292.687C120.278 292.685 117.743 293.391 115.439 294.751C113.135 296.111 111.123 298.087 109.559 300.528C107.995 302.968 106.921 305.807 106.419 308.825C105.918 311.843 106.003 314.958 106.667 317.93C107.332 320.902 108.559 323.652 110.252 325.965C111.946 328.278 114.061 330.093 116.435 331.27C118.808 332.447 121.375 332.953 123.938 332.751C126.501 332.548 128.99 331.642 131.214 330.102C133.758 331.866 136.645 332.794 139.584 332.794C142.523 332.794 145.41 331.866 147.953 330.102C150.177 331.639 152.665 332.542 155.226 332.743C157.787 332.943 160.353 332.435 162.724 331.258C165.095 330.081 167.208 328.266 168.9 325.954C170.593 323.642 171.818 320.895 172.482 317.925C173.147 314.955 173.232 311.841 172.731 308.826C172.23 305.81 171.158 302.972 169.595 300.533C168.033 298.093 166.024 296.116 163.722 294.756C161.42 293.395 158.888 292.687 156.321 292.687Z" fill="#5CA463"/>
<path opacity="0.1" d="M156.321 292.687C156.255 287.421 154.463 282.397 151.331 278.702C148.199 275.006 143.98 272.934 139.584 272.934C135.188 272.934 130.968 275.006 127.836 278.702C124.705 282.397 122.912 287.421 122.846 292.687C120.278 292.685 117.743 293.391 115.439 294.751C113.135 296.111 111.123 298.087 109.559 300.528C107.995 302.968 106.921 305.807 106.419 308.825C105.918 311.843 106.003 314.958 106.667 317.93C107.332 320.902 108.559 323.652 110.252 325.965C111.946 328.278 114.061 330.093 116.435 331.27C118.808 332.447 121.375 332.953 123.938 332.751C126.501 332.548 128.99 331.642 131.214 330.102C133.758 331.866 136.645 332.794 139.584 332.794C142.523 332.794 145.41 331.866 147.953 330.102C150.177 331.639 152.665 332.542 155.226 332.743C157.787 332.943 160.353 332.435 162.724 331.258C165.095 330.081 167.208 328.266 168.9 325.954C170.593 323.642 171.818 320.895 172.482 317.925C173.147 314.955 173.232 311.841 172.731 308.826C172.23 305.81 171.158 302.972 169.595 300.533C168.033 298.093 166.024 296.116 163.722 294.756C161.42 293.395 158.888 292.687 156.321 292.687Z" fill="black"/>
<path opacity="0.1" d="M164.784 231.36C164.786 228.641 164.371 225.945 163.558 223.406C167.688 221.653 171.168 218.208 173.383 213.68C175.597 209.151 176.405 203.83 175.663 198.657C174.921 193.484 172.676 188.792 169.326 185.41C165.976 182.027 161.735 180.172 157.354 180.172C157.353 174.721 155.682 169.461 152.659 165.388C149.635 161.316 145.469 158.713 140.951 158.075C136.433 157.437 131.876 158.807 128.145 161.926C124.414 165.045 121.768 169.696 120.709 174.996C120.539 174.996 120.368 174.996 120.198 174.996C120.202 169.451 118.478 164.104 115.363 160.003C112.249 155.901 107.968 153.34 103.36 152.822C98.7518 152.304 94.1481 153.865 90.4507 157.2C86.7533 160.536 84.2285 165.405 83.3711 170.854C80.6308 168.274 77.3398 166.669 73.8744 166.224C70.409 165.779 66.9089 166.511 63.7742 168.336C60.6395 170.161 57.9968 173.006 56.148 176.546C54.2992 180.085 53.3189 184.176 53.3193 188.352C49.3236 188.358 45.4361 189.909 42.2341 192.772C39.0322 195.636 36.6864 199.66 35.545 204.248C34.4036 208.835 34.5276 213.741 35.8984 218.238C37.2693 222.734 39.8139 226.581 43.1546 229.207C42.9154 230.647 42.795 232.112 42.7952 233.581C39.9448 233.579 37.1324 234.363 34.5756 235.872C32.0187 237.382 29.786 239.575 28.0503 242.284C26.3145 244.992 25.1223 248.143 24.5658 251.492C24.0094 254.841 24.1036 258.299 24.8413 261.597C25.579 264.895 26.9403 267.946 28.8198 270.513C30.6994 273.08 33.0468 275.095 35.6804 276.401C38.314 277.707 41.1631 278.27 44.0073 278.045C46.8515 277.821 49.6145 276.816 52.0823 275.107C54.9065 277.06 58.1102 278.089 61.3713 278.089C64.6325 278.089 67.8362 277.06 70.6604 275.107C74.1024 277.488 78.0915 278.484 82.0411 277.947C85.9906 277.41 89.6922 275.37 92.6015 272.125C92.923 272.125 93.2446 272.157 93.5699 272.157C96.8325 272.16 100.038 271.13 102.861 269.17C107.01 272.052 111.931 272.889 116.585 271.504C119.496 274.078 122.971 275.577 126.583 275.819C130.195 276.061 133.787 275.033 136.919 272.864C139.743 274.817 142.947 275.845 146.208 275.845C149.469 275.845 152.672 274.817 155.497 272.864C157.965 274.572 160.728 275.578 163.572 275.802C166.416 276.027 169.265 275.464 171.899 274.158C174.532 272.852 176.88 270.837 178.759 268.27C180.639 265.703 182 262.652 182.738 259.354C183.475 256.055 183.57 252.598 183.013 249.249C182.457 245.9 181.264 242.749 179.529 240.041C177.793 237.332 175.56 235.138 173.003 233.629C170.447 232.12 167.634 231.336 164.784 231.337V231.36ZM79.9475 233.585C79.9463 232.627 79.8932 231.671 79.7886 230.721C80.2653 230.454 80.7344 230.173 81.1883 229.855C81.9301 230.375 82.7026 230.83 83.4997 231.215C82.5836 231.927 81.7204 232.732 80.9197 233.621C80.5982 233.594 80.2728 233.585 79.9475 233.585Z" fill="black"/>
<path d="M150.681 340.784C149.236 340.095 147.772 339.397 146.229 339.161C146.074 339.161 145.919 339.125 145.76 339.112C145.76 338.921 145.76 338.735 145.779 338.55C145.862 336.284 146.448 333.945 147.772 332.309C149.096 330.673 150.938 329.866 151.801 327.936C148.648 326.829 145.383 326.242 142.098 326.191C141.262 326.191 140.373 326.191 139.673 326.762C138.814 327.428 138.443 328.688 138.16 329.875C137.29 333.809 136.703 337.661 135.708 341.5L135.447 341.572C131.929 342.479 127.503 341.776 125.888 337.983C126.291 336.07 126.797 334.19 127.401 332.354C129.292 326.712 132.19 321.641 135.054 316.615C136.908 313.355 138.764 310.098 140.622 306.844C137.84 305.839 135.014 305.018 132.156 304.383C131.551 304.247 130.866 304.139 130.363 304.565C130.021 304.914 129.771 305.373 129.64 305.888C126.909 313.918 123.561 322.706 122.612 331.534C122.08 331.188 121.533 330.877 120.974 330.601L112.175 326.105C111.709 325.918 111.288 325.597 110.949 325.171C110.147 323.979 110.949 322.085 112.122 321.451C113.294 320.816 114.622 320.997 115.905 320.861C117.187 320.725 118.602 320.168 119.078 318.745C119.631 317.109 118.575 315.26 117.285 314.403C115.995 313.547 114.478 313.307 113.124 312.591C112.083 312.007 111.169 311.141 110.456 310.061C109.743 308.981 109.25 307.717 109.016 306.368L106.916 306.25C109.685 303.078 112.557 300.037 115.855 297.703C117.448 296.575 119.135 295.618 120.618 294.291C122.571 292.497 124.1 290.125 125.055 287.408C126.011 284.691 126.359 281.723 126.066 278.796C125.876 277.092 125.472 275.329 125.922 273.697C126.3 272.369 127.155 271.35 127.999 270.384L135.599 261.674C130.761 260.354 125.804 259.77 120.845 259.934C119.589 259.979 118.292 260.079 117.168 260.759C115.118 262 114.142 264.81 113.34 267.389C112.729 269.205 112.234 271.075 111.861 272.981C111.301 276.199 111.384 279.725 109.867 282.458C108.664 284.624 106.663 285.902 104.866 287.361C99.7452 291.54 95.9235 297.632 93.9976 304.687C93.8765 305.14 93.6722 305.72 93.4377 306.368C88.9852 306.821 84.6234 307.837 80.5038 309.912C75.325 312.523 70.8043 316.669 66.3669 320.789C61.4794 325.321 56.3383 330.392 54.6209 337.516C52.7105 345.425 55.6574 354.099 60.3748 360.086C64.2334 364.975 69.1285 368.42 74.0652 371.515C77.2921 373.536 77.8293 373.124 80.6627 370.405L88.2816 363.09C90.4567 361.005 92.6698 358.866 94.1489 356.038C96.1879 352.146 96.691 347.201 99.1613 343.68C102.543 338.853 109.44 338.45 113.204 342.85C114.285 344.119 115.227 345.778 116.703 346.2C117.422 346.408 118.216 346.29 118.874 346.653C120.13 347.369 120.319 349.372 120.766 350.931C121.995 355.132 126.172 357.33 129.845 356.7C133.518 356.07 136.684 353.211 139.17 349.902C139.847 348.996 140.516 348.035 141.439 347.496C142.178 347.102 142.977 346.899 143.785 346.898C146.467 346.766 149.132 347.473 151.517 348.95C153.738 350.31 155.678 352.327 158.013 353.387C162.632 355.481 167.795 353.492 172.32 351.121L150.681 340.784Z" fill="#3F3D56"/>
<path opacity="0.1" d="M150.681 340.784C149.236 340.095 147.772 339.397 146.229 339.161C146.074 339.161 145.919 339.125 145.76 339.112C145.76 338.921 145.76 338.735 145.779 338.55C145.862 336.284 146.448 333.945 147.772 332.309C149.096 330.673 150.938 329.866 151.801 327.936C148.648 326.829 145.383 326.242 142.098 326.191C141.262 326.191 140.373 326.191 139.673 326.762C138.814 327.428 138.443 328.688 138.16 329.875C137.29 333.809 136.703 337.661 135.708 341.5L135.447 341.572C131.929 342.479 127.503 341.776 125.888 337.983C126.291 336.07 126.797 334.19 127.401 332.354C129.292 326.712 132.19 321.641 135.054 316.615C136.908 313.355 138.764 310.098 140.622 306.844C137.84 305.839 135.014 305.018 132.156 304.383C131.551 304.247 130.866 304.139 130.363 304.565C130.021 304.914 129.771 305.373 129.64 305.888C126.909 313.918 123.561 322.706 122.612 331.534C122.08 331.188 121.533 330.877 120.974 330.601L112.175 326.105C111.709 325.918 111.288 325.597 110.949 325.171C110.147 323.979 110.949 322.085 112.122 321.451C113.294 320.816 114.622 320.997 115.905 320.861C117.187 320.725 118.602 320.168 119.078 318.745C119.631 317.109 118.575 315.26 117.285 314.403C115.995 313.547 114.478 313.307 113.124 312.591C112.083 312.007 111.169 311.141 110.456 310.061C109.743 308.981 109.25 307.717 109.016 306.368L106.916 306.25C109.685 303.078 112.557 300.037 115.855 297.703C117.448 296.575 119.135 295.618 120.618 294.291C122.571 292.497 124.1 290.125 125.055 287.408C126.011 284.691 126.359 281.723 126.066 278.796C125.876 277.092 125.472 275.329 125.922 273.697C126.3 272.369 127.155 271.35 127.999 270.384L135.599 261.674C130.761 260.354 125.804 259.77 120.845 259.934C119.589 259.979 118.292 260.079 117.168 260.759C115.118 262 114.142 264.81 113.34 267.389C112.729 269.205 112.234 271.075 111.861 272.981C111.301 276.199 111.384 279.725 109.867 282.458C108.664 284.624 106.663 285.902 104.866 287.361C99.7452 291.54 95.9235 297.632 93.9976 304.687C93.8765 305.14 93.6722 305.72 93.4377 306.368C88.9852 306.821 84.6234 307.837 80.5038 309.912C75.325 312.523 70.8043 316.669 66.3669 320.789C61.4794 325.321 56.3383 330.392 54.6209 337.516C52.7105 345.425 55.6574 354.099 60.3748 360.086C64.2334 364.975 69.1285 368.42 74.0652 371.515C77.2921 373.536 77.8293 373.124 80.6627 370.405L88.2816 363.09C90.4567 361.005 92.6698 358.866 94.1489 356.038C96.1879 352.146 96.691 347.201 99.1613 343.68C102.543 338.853 109.44 338.45 113.204 342.85C114.285 344.119 115.227 345.778 116.703 346.2C117.422 346.408 118.216 346.29 118.874 346.653C120.13 347.369 120.319 349.372 120.766 350.931C121.995 355.132 126.172 357.33 129.845 356.7C133.518 356.07 136.684 353.211 139.17 349.902C139.847 348.996 140.516 348.035 141.439 347.496C142.178 347.102 142.977 346.899 143.785 346.898C146.467 346.766 149.132 347.473 151.517 348.95C153.738 350.31 155.678 352.327 158.013 353.387C162.632 355.481 167.795 353.492 172.32 351.121L150.681 340.784Z" fill="black"/>
<path d="M88.8527 285.227C88.8527 274.083 79.0549 265.055 66.9646 265.055C54.8743 265.055 45.0765 274.074 45.0765 285.227C32.9711 285.227 23.1884 294.255 23.1884 305.399C23.1884 316.543 32.9862 325.566 45.0765 325.566C48.843 325.585 52.5711 324.659 56.0205 322.847C59.4768 324.632 63.2009 325.552 66.9646 325.552C70.7283 325.552 74.4524 324.632 77.9087 322.847C81.3581 324.659 85.0862 325.585 88.8527 325.566C100.958 325.566 110.741 316.538 110.741 305.399C110.741 294.259 100.943 285.227 88.8527 285.227Z" fill="#5CA463"/>
<path opacity="0.1" d="M88.8527 285.227C88.8527 274.083 79.0549 265.055 66.9646 265.055C54.8743 265.055 45.0765 274.074 45.0765 285.227C32.9711 285.227 23.1884 294.255 23.1884 305.399C23.1884 316.543 32.9862 325.566 45.0765 325.566C48.843 325.585 52.5711 324.659 56.0205 322.847C59.4768 324.632 63.2009 325.552 66.9646 325.552C70.7283 325.552 74.4524 324.632 77.9087 322.847C81.3581 324.659 85.0862 325.585 88.8527 325.566C100.958 325.566 110.741 316.538 110.741 305.399C110.741 294.259 100.943 285.227 88.8527 285.227Z" fill="black"/>
<path d="M135.795 399.156L123.247 392.235C122.241 391.678 121.125 390.985 120.811 389.707C120.699 389.015 120.699 388.304 120.811 387.613C121.113 384.016 120.46 380.397 118.946 377.271C118.004 375.336 116.729 373.596 116.166 371.456C114.963 366.924 117.3 362.125 117.414 357.348C117.539 352.699 115.522 348.226 112.651 345.076C111.8 344.138 110.866 343.263 110.196 342.153C108.252 338.881 109.061 334.448 109.984 330.537L110.223 330.275C110.4 330.066 110.268 329.173 109.943 327.85C113.57 326.691 116.989 324.747 120.032 322.112C120.996 321.274 121.923 320.354 123.058 319.819C124.617 319.072 126.383 319.158 127.957 318.46C130.893 317.15 132.523 313.475 133.889 310.103C137.123 302.131 140.414 293.892 140.823 285.041C138.167 282.58 134.939 281.167 131.585 280.999C131.025 280.971 130.389 280.999 130.022 281.524C129.816 281.858 129.686 282.25 129.644 282.662C128.498 288.979 126.52 295.037 123.784 300.608C122.691 302.949 121.349 305.111 119.793 307.039C117.902 309.305 115.579 310.996 113.294 312.677C111.373 314.086 108.8 315.46 106.617 317.077C105.104 312.419 103.723 308.168 103.901 307.515C105.801 300.407 105.875 292.78 104.113 285.621C103.674 283.845 103.114 282.091 102.978 280.242C102.842 278.393 103.148 276.571 103.269 274.731C103.508 271.083 103.042 267.425 103.061 263.764C103.084 258.806 103.992 253.92 104.896 249.08C102.382 248.541 99.8215 248.377 97.2735 248.591C96.7712 248.593 96.2776 248.749 95.8398 249.044C95.2042 249.538 94.9659 250.489 94.7503 251.36C93.0669 258.117 90.014 264.285 88.202 270.997C86.39 277.708 86.0003 285.571 89.3709 291.354C90.5701 293.407 92.246 295.265 92.5108 297.749C92.6508 299.063 92.3633 300.382 92.0757 301.664C91.565 303.962 99.7816 328.652 100.239 330.932C100.239 330.995 100.27 331.049 100.281 331.108C100.024 331.176 99.7627 331.235 99.5017 331.308C99.1548 337.728 97.0817 343.842 93.5927 348.733C93.1294 347.155 92.8011 345.524 92.6129 343.866C92.3292 341.373 92.3557 338.804 91.7088 336.411C90.7404 332.84 88.4025 330.102 86.3597 327.261C82.6817 322.132 79.7771 316.276 77.7762 309.953C76.2343 310.639 74.6542 311.195 73.0475 311.616C72.1964 311.843 69.2646 311.848 68.8031 312.759C68.0919 314.118 71.2696 320.44 71.8975 321.895C74.1105 327.012 77.8405 331.009 80.0309 336.139C80.9443 338.416 81.6996 340.779 82.2893 343.204C83.4847 347.736 84.6801 352.268 85.5956 356.873C84.4985 358.232 83.6322 359.891 82.6903 361.436C79.3498 366.881 74.9292 371.242 69.8282 374.126C69.2192 374.47 68.5458 374.855 68.2848 375.599C68.2406 375.726 68.2077 375.858 68.1864 375.993C66.1058 374.235 64.1614 372.272 62.8071 369.716C62.2094 368.583 61.7365 367.355 61.0859 366.267C58.8955 362.61 55.0634 361.065 51.9273 358.563C50.6033 357.512 49.3701 356.265 47.9061 355.527C46.2983 354.711 44.5203 354.557 42.7802 354.416C41.354 354.298 35.8839 352.934 35.1802 354.462C34.1816 356.623 37.3479 359.782 38.6152 360.543C40.7223 361.808 43.132 362.13 45.3337 363.131C47.3238 364.111 49.1715 365.463 50.8076 367.137C51.5227 367.769 52.1486 368.534 52.6612 369.403C53.206 370.423 53.4594 371.624 53.9172 372.703C55.385 376.161 58.5589 377.742 61.3999 379.777C60.646 379.816 59.9041 380.017 59.2095 380.371C57.0948 381.522 56.1113 384.373 54.7343 386.616C53.5048 388.605 51.8857 390.196 50.5314 392.054C49.1771 393.912 48.0498 396.237 48.152 398.707C48.2163 400.271 48.7421 401.979 48.0498 403.307C49.6424 404.132 51.602 405.12 53.327 405.369C55.0521 405.618 56.9208 405.224 58.2108 403.833C58.6104 403.322 59.0388 402.845 59.4932 402.405C60.5865 401.53 62.0846 401.775 63.2535 402.491C64.4224 403.207 65.3871 404.327 66.4576 405.247C67.9863 406.543 69.7283 407.434 71.5672 407.86C73.4062 408.286 75.2999 408.237 77.1218 407.717C77.8784 407.499 78.9641 407.313 78.7295 406.443C77.1284 405.548 75.7653 404.139 74.7912 402.373C73.817 400.607 73.2698 398.552 73.2102 396.437C74.4014 396.164 75.632 396.285 76.7702 396.787C77.9084 397.288 78.9113 398.151 79.6715 399.283C78.6198 399.337 77.9238 401.032 78.5366 402.065C80.5401 402.018 82.5049 401.395 84.2663 400.25C86.0276 399.105 87.5342 397.471 88.6598 395.485C89.4856 395.079 90.3836 394.931 91.2703 395.052C92.157 395.174 93.0037 395.562 93.7317 396.18C94.4597 396.799 95.0455 397.628 95.4345 398.59C95.8236 399.552 96.0033 400.617 95.9571 401.685L101.427 404.92C102.286 405.428 103.198 405.949 104.155 405.872C105.112 405.795 106.088 404.871 106.016 403.729C105.933 402.419 104.62 401.082 105.339 400.103C106.625 400.792 107.609 402.151 108.929 402.745C110.249 403.339 112.193 402.546 112.122 400.86C112.063 400.298 111.882 399.765 111.596 399.314C110.117 396.615 108.15 394.347 105.842 392.68C105.672 391.198 108.49 389.571 109.345 390.676L116.275 399.826C116.814 400.614 117.453 401.296 118.167 401.848C120.645 403.565 123.739 401.848 126.599 401.848C129.693 401.848 132.86 403.96 135.738 402.614C136.495 402.265 137.252 401.408 137.036 400.475C136.866 399.804 136.302 399.455 135.795 399.156Z" fill="#3F3D56"/>
<path d="M154.521 228.673C154.522 226.412 154.176 224.171 153.499 222.06C156.933 220.601 159.826 217.736 161.668 213.969C163.509 210.203 164.181 205.778 163.564 201.476C162.946 197.174 161.08 193.272 158.294 190.458C155.509 187.645 151.983 186.101 148.339 186.099C148.336 181.568 146.945 177.196 144.43 173.811C141.916 170.426 138.452 168.263 134.696 167.733C130.939 167.202 127.151 168.34 124.048 170.932C120.945 173.523 118.744 177.388 117.86 181.794C117.72 181.794 117.58 181.794 117.437 181.794C117.454 177.17 116.026 172.707 113.433 169.281C110.841 165.856 107.273 163.717 103.43 163.285C99.5878 162.853 95.7495 164.159 92.6707 166.947C89.592 169.736 87.4958 173.803 86.7946 178.35C84.5158 176.204 81.7791 174.87 78.8972 174.5C76.0154 174.129 73.1047 174.738 70.4979 176.256C67.8912 177.774 65.6935 180.14 64.1562 183.084C62.6189 186.027 61.8039 189.43 61.8045 192.902C58.4789 192.904 55.2427 194.192 52.5768 196.574C49.911 198.956 47.9578 202.304 47.0077 206.122C46.0575 209.94 46.1611 214.024 47.303 217.766C48.4449 221.507 50.5642 224.708 53.3458 226.892C53.1489 228.086 53.0488 229.3 53.047 230.517C50.6756 230.515 48.3354 231.166 46.2079 232.421C44.0803 233.676 42.2224 235.501 40.778 237.754C39.3335 240.007 38.3413 242.628 37.8782 245.414C37.415 248.201 37.4933 251.077 38.1071 253.822C38.7209 256.566 39.8536 259.104 41.4176 261.239C42.9815 263.375 44.9348 265.051 47.1261 266.137C49.3174 267.223 51.688 267.69 54.0543 267.503C56.4205 267.315 58.719 266.478 60.7718 265.055C63.1203 266.682 65.7854 267.539 68.4984 267.539C71.2114 267.539 73.8765 266.682 76.2251 265.055C79.0868 267.038 82.4043 267.867 85.689 267.421C88.9737 266.974 92.0519 265.276 94.4703 262.576C94.7388 262.576 95.0074 262.599 95.2798 262.599C97.992 262.602 100.657 261.747 103.005 260.12C106.463 262.52 110.564 263.219 114.444 262.069C116.863 264.212 119.753 265.462 122.757 265.665C125.761 265.868 128.749 265.015 131.354 263.211C133.702 264.837 136.366 265.694 139.079 265.694C141.791 265.694 144.456 264.837 146.804 263.211C148.856 264.63 151.153 265.464 153.517 265.65C155.882 265.836 158.25 265.367 160.439 264.281C162.628 263.195 164.58 261.52 166.142 259.386C167.705 257.251 168.836 254.715 169.45 251.974C170.063 249.232 170.142 246.357 169.68 243.573C169.219 240.789 168.228 238.169 166.786 235.917C165.344 233.665 163.489 231.84 161.364 230.583C159.239 229.327 156.902 228.673 154.532 228.673H154.521ZM83.9612 230.526C83.9593 229.73 83.9151 228.936 83.8288 228.147C84.2071 227.92 84.6157 227.694 84.9902 227.426C85.6102 227.852 86.2535 228.228 86.9157 228.55C86.1521 229.14 85.4331 229.809 84.767 230.549C84.5022 230.535 84.2298 230.526 83.9612 230.526Z" fill="#5CA463"/>
<path d="M207.051 331.095C207.051 320.875 199.212 312.586 189.539 312.586C179.866 312.586 172.032 320.875 172.032 331.095C162.359 331.095 154.521 339.384 154.521 349.608C154.521 359.832 162.359 368.116 172.032 368.116C175.074 368.125 178.074 367.27 180.786 365.619C183.503 367.252 186.501 368.102 189.541 368.102C192.581 368.102 195.58 367.252 198.297 365.619C201.01 367.265 204.01 368.116 207.051 368.103C216.724 368.103 224.562 359.818 224.562 349.594C224.562 339.37 216.724 331.095 207.051 331.095Z" fill="#5CA463"/>
<path d="M154.521 293.461C154.553 291.006 154.177 288.568 153.415 286.288C152.653 284.009 151.52 281.934 150.082 280.184C148.644 278.434 146.93 277.044 145.039 276.096C143.148 275.147 141.119 274.659 139.069 274.659C137.02 274.659 134.991 275.147 133.1 276.096C131.209 277.044 129.495 278.434 128.057 280.184C126.619 281.934 125.486 284.009 124.724 286.288C123.962 288.568 123.586 291.006 123.618 293.461C121.249 293.463 118.912 294.117 116.787 295.373C114.663 296.629 112.808 298.454 111.366 300.706C109.925 302.958 108.935 305.577 108.473 308.361C108.011 311.144 108.089 314.018 108.702 316.76C109.315 319.501 110.447 322.037 112.008 324.171C113.57 326.305 115.521 327.98 117.709 329.067C119.897 330.154 122.265 330.624 124.629 330.439C126.993 330.255 129.29 329.422 131.343 328.004C133.692 329.628 136.356 330.483 139.068 330.483C141.779 330.483 144.444 329.628 146.792 328.004C148.844 329.423 151.142 330.258 153.506 330.443C155.871 330.629 158.239 330.16 160.428 329.074C162.617 327.988 164.569 326.313 166.131 324.179C167.693 322.045 168.825 319.509 169.439 316.767C170.052 314.025 170.131 311.151 169.669 308.367C169.207 305.582 168.217 302.963 166.775 300.71C165.333 298.458 163.478 296.633 161.353 295.377C159.228 294.121 156.89 293.467 154.521 293.466V293.461Z" fill="#5CA463"/>
<path d="M87.0521 286.056C87.0521 275.832 78.0563 267.548 66.9647 267.548C55.8731 267.548 46.8772 275.832 46.8772 286.056C35.7857 286.056 26.7936 294.345 26.7936 304.565C26.7936 314.784 35.7857 323.078 46.8772 323.078C50.3333 323.1 53.7548 322.254 56.921 320.594C60.0928 322.233 63.5106 323.078 66.9647 323.078C70.4188 323.078 73.8365 322.233 77.0084 320.594C80.1746 322.254 83.5961 323.1 87.0521 323.078C98.1437 323.078 107.136 314.789 107.136 304.565C107.136 294.341 98.1437 286.056 87.0521 286.056Z" fill="#5CA463"/>
<path d="M49.4533 340.353C49.4864 337.736 49.0846 335.136 48.2713 332.706C47.4579 330.276 46.2492 328.063 44.7156 326.198C43.182 324.333 41.354 322.852 39.338 321.84C37.3221 320.829 35.1584 320.309 32.9729 320.309C30.7874 320.309 28.6237 320.829 26.6078 321.84C24.5918 322.852 22.7639 324.333 21.2302 326.198C19.6966 328.063 18.4879 330.276 17.6746 332.706C16.8612 335.136 16.4594 337.736 16.4925 340.353C13.9635 340.352 11.468 341.047 9.19931 342.386C6.93058 343.724 4.94942 345.671 3.40921 348.074C1.869 350.477 0.811052 353.272 0.317246 356.244C-0.176559 359.215 -0.0929712 362.283 0.561542 365.209C1.21606 368.136 2.42393 370.843 4.09168 373.12C5.75943 375.398 7.84232 377.185 10.1791 378.344C12.5159 379.503 15.0439 380.002 17.5674 379.802C20.0909 379.603 22.5423 378.71 24.7318 377.194C27.2371 378.928 30.0795 379.841 32.9729 379.841C35.8663 379.841 38.7087 378.928 41.2141 377.194C43.4031 378.707 45.8533 379.596 48.3751 379.794C50.897 379.991 53.423 379.491 55.7577 378.332C58.0924 377.173 60.1733 375.386 61.8395 373.11C63.5057 370.833 64.7125 368.128 65.3665 365.204C66.0206 362.279 66.1044 359.214 65.6115 356.244C65.1185 353.275 64.0621 350.481 62.5238 348.079C60.9855 345.677 59.0067 343.73 56.7402 342.391C54.4738 341.051 51.9806 340.354 49.4533 340.353Z" fill="#5CA463"/>
<path opacity="0.1" d="M49.4533 340.353C49.4864 337.736 49.0846 335.136 48.2713 332.706C47.4579 330.276 46.2492 328.063 44.7156 326.198C43.182 324.333 41.354 322.852 39.338 321.84C37.3221 320.829 35.1584 320.309 32.9729 320.309C30.7874 320.309 28.6237 320.829 26.6078 321.84C24.5918 322.852 22.7639 324.333 21.2302 326.198C19.6966 328.063 18.4879 330.276 17.6746 332.706C16.8612 335.136 16.4594 337.736 16.4925 340.353C13.9635 340.352 11.468 341.047 9.19931 342.386C6.93058 343.724 4.94942 345.671 3.40921 348.074C1.869 350.477 0.811052 353.272 0.317246 356.244C-0.176559 359.215 -0.0929712 362.283 0.561542 365.209C1.21606 368.136 2.42393 370.843 4.09168 373.12C5.75943 375.398 7.84232 377.185 10.1791 378.344C12.5159 379.503 15.0439 380.002 17.5674 379.802C20.0909 379.603 22.5423 378.71 24.7318 377.194C27.2371 378.928 30.0795 379.841 32.9729 379.841C35.8663 379.841 38.7087 378.928 41.2141 377.194C43.4031 378.707 45.8533 379.596 48.3751 379.794C50.897 379.991 53.423 379.491 55.7577 378.332C58.0924 377.173 60.1733 375.386 61.8395 373.11C63.5057 370.833 64.7125 368.128 65.3665 365.204C66.0206 362.279 66.1044 359.214 65.6115 356.244C65.1185 353.275 64.0621 350.481 62.5238 348.079C60.9855 345.677 59.0067 343.73 56.7402 342.391C54.4738 341.051 51.9806 340.354 49.4533 340.353Z" fill="black"/>
<path d="M48.4243 340.97C48.4564 338.515 48.0804 336.076 47.3183 333.797C46.5562 331.517 45.4232 329.442 43.9852 327.692C42.5472 325.943 40.833 324.553 38.9424 323.604C37.0518 322.656 35.0226 322.167 32.9729 322.167C30.9232 322.167 28.8939 322.656 27.0033 323.604C25.1127 324.553 23.3985 325.943 21.9606 327.692C20.5226 329.442 19.3896 331.517 18.6274 333.797C17.8653 336.076 17.4894 338.515 17.5214 340.97C15.1518 340.97 12.8139 341.623 10.6886 342.879C8.56336 344.135 6.70771 345.959 5.2652 348.212C3.82268 350.464 2.83197 353.084 2.3697 355.868C1.90743 358.652 1.98598 361.527 2.59929 364.269C3.21259 367.011 4.34421 369.547 5.90661 371.682C7.469 373.816 9.42031 375.491 11.6096 376.578C13.7988 377.664 16.1674 378.133 18.532 377.947C20.8966 377.762 23.1939 376.927 25.2462 375.508C27.5957 377.132 30.2604 377.987 32.9729 377.987C35.6853 377.987 38.3501 377.132 40.6995 375.508C42.7518 376.927 45.0491 377.762 47.4137 377.947C49.7784 378.133 52.1469 377.664 54.3362 376.578C56.5254 375.491 58.4767 373.816 60.0391 371.682C61.6015 369.547 62.7332 367.011 63.3465 364.269C63.9598 361.527 64.0383 358.652 63.576 355.868C63.1138 353.084 62.1231 350.464 60.6806 348.212C59.238 345.959 57.3824 344.135 55.2571 342.879C53.1319 341.623 50.794 340.97 48.4243 340.97Z" fill="#5CA463"/>
<path opacity="0.1" d="M96.8347 190.418C100.437 190.418 103.917 191.978 106.636 194.809C109.354 197.641 111.126 201.554 111.626 205.827C111.921 203.39 111.793 200.905 111.25 198.53C110.707 196.154 109.76 193.939 108.468 192.022C107.177 190.105 105.57 188.528 103.746 187.39C101.923 186.252 99.9231 185.577 97.8719 185.408C95.8208 185.239 93.7625 185.579 91.8261 186.407C89.8897 187.234 88.1168 188.532 86.6185 190.219C85.1202 191.906 83.9287 193.945 83.1187 196.209C82.3086 198.472 81.8975 200.912 81.911 203.375C81.9127 204.202 81.9608 205.027 82.0547 205.845C82.5518 201.571 84.3213 197.656 87.0372 194.822C89.7531 191.987 93.2326 190.423 96.8347 190.418Z" fill="black"/>
<path opacity="0.1" d="M127.503 222.364C130.779 224.166 133.4 227.326 134.884 231.262C136.367 235.197 136.613 239.642 135.576 243.778C136.678 241.71 137.413 239.393 137.736 236.971C138.059 234.548 137.963 232.072 137.453 229.696C136.943 227.32 136.031 225.095 134.773 223.159C133.515 221.223 131.939 219.618 130.141 218.443C128.344 217.268 126.364 216.549 124.324 216.329C122.285 216.11 120.229 216.395 118.286 217.167C116.342 217.94 114.552 219.182 113.026 220.819C111.501 222.455 110.272 224.45 109.417 226.679C109.131 227.43 108.889 228.204 108.691 228.994C110.631 225.356 113.604 222.681 117.061 221.462C120.519 220.244 124.227 220.564 127.503 222.364Z" fill="black"/>
<path opacity="0.1" d="M83.7268 235.937C87.0023 237.739 89.6236 240.899 91.1072 244.835C92.5908 248.77 92.8367 253.215 91.7996 257.351C92.17 256.655 92.5011 255.929 92.7907 255.18C94.421 250.871 94.5606 245.965 93.1791 241.533C91.7975 237.102 89.0072 233.506 85.4185 231.532C81.8298 229.559 77.7347 229.368 74.029 231.002C70.3233 232.636 67.3086 235.962 65.6443 240.252C65.3585 241.003 65.1159 241.777 64.918 242.568C66.8581 238.93 69.8305 236.256 73.2871 235.037C76.7437 233.819 80.4514 234.139 83.7268 235.937Z" fill="black"/>
<path opacity="0.1" d="M68.1789 293.257C69.8014 294.963 70.8543 297.314 71.1435 299.877C71.4327 302.44 70.9387 305.041 69.7526 307.202C70.0658 306.879 70.3603 306.531 70.634 306.16C72.1987 304.023 72.9906 301.229 72.8356 298.392C72.6806 295.555 71.5913 292.909 69.8075 291.034C68.9242 290.106 67.897 289.396 66.7844 288.943C65.6719 288.491 64.4959 288.305 63.3235 288.397C60.9557 288.583 58.7465 289.888 57.1819 292.025C56.9067 292.397 56.6539 292.792 56.4253 293.207C58.0593 291.514 60.1495 290.587 62.3099 290.596C64.4703 290.605 66.555 291.55 68.1789 293.257Z" fill="black"/>
<path opacity="0.1" d="M208.78 342.62C210.402 344.323 211.456 346.672 211.746 349.234C212.035 351.795 211.542 354.395 210.357 356.555C210.669 356.232 210.962 355.884 211.235 355.513C212.009 354.455 212.602 353.225 212.98 351.892C213.358 350.56 213.512 349.152 213.436 347.747C213.359 346.343 213.052 344.971 212.533 343.709C212.013 342.447 211.291 341.32 210.408 340.392C209.525 339.464 208.498 338.754 207.386 338.301C206.274 337.849 205.098 337.664 203.926 337.756C202.754 337.848 201.609 338.215 200.555 338.837C199.502 339.46 198.561 340.324 197.786 341.382C197.511 341.753 197.259 342.147 197.03 342.561C198.664 340.869 200.754 339.943 202.914 339.954C205.074 339.965 207.157 340.912 208.78 342.62Z" fill="black"/>
<path opacity="0.1" d="M33.4628 342.466C35.192 340.911 37.3327 340.16 39.4888 340.351C41.6448 340.542 43.6701 341.662 45.1899 343.503C44.9917 343.069 44.768 342.653 44.5203 342.257C43.0812 340.04 40.9732 338.588 38.6498 338.214C36.3264 337.84 33.9731 338.573 32.0964 340.256C30.2196 341.939 28.9692 344.437 28.6142 347.214C28.2592 349.99 28.8279 352.822 30.1981 355.101C30.4454 355.495 30.7146 355.869 31.0039 356.22C29.9604 353.958 29.6345 351.32 30.0864 348.792C30.5382 346.264 31.7373 344.018 33.4628 342.466Z" fill="black"/>
<path opacity="0.1" d="M137.498 302.357C139.227 300.804 141.368 300.053 143.523 300.244C145.679 300.435 147.704 301.554 149.225 303.395C149.026 302.962 148.802 302.545 148.555 302.149C147.86 300.993 146.98 300.015 145.967 299.272C144.953 298.528 143.825 298.034 142.65 297.819C141.475 297.603 140.276 297.67 139.123 298.016C137.97 298.362 136.886 298.979 135.934 299.833C134.983 300.686 134.182 301.758 133.581 302.986C132.979 304.214 132.587 305.574 132.429 306.985C132.27 308.396 132.348 309.831 132.658 311.206C132.968 312.581 133.503 313.868 134.233 314.993C134.48 315.39 134.751 315.765 135.042 316.116C133.998 313.854 133.672 311.215 134.123 308.687C134.574 306.159 135.772 303.911 137.498 302.357Z" fill="black"/>
<path d="M121.272 382.564C120.281 381.658 120.406 379.469 120.406 379.469C120.406 379.469 122.135 378.78 123.126 379.7C124.117 380.62 124.503 382.012 123.992 382.8C123.482 383.589 122.264 383.489 121.272 382.564Z" fill="#5CA463"/>
<path d="M124.677 406.584C123.686 405.677 123.811 403.488 123.811 403.488C123.811 403.488 125.54 402.8 126.531 403.72C127.522 404.64 127.908 406.031 127.397 406.819C126.886 407.608 125.668 407.508 124.677 406.584Z" fill="#5CA463"/>
<path d="M144.727 391.175C143.736 390.269 143.86 388.08 143.86 388.08C143.86 388.08 145.589 387.391 146.58 388.311C147.571 389.231 147.957 390.622 147.447 391.411C146.936 392.199 145.718 392.1 144.727 391.175Z" fill="#5CA463"/>
<path d="M47.2479 321.093C48.0234 319.914 49.843 320.087 49.843 320.087C49.843 320.087 50.3953 322.167 49.6161 323.345C48.8368 324.523 47.6754 324.972 47.021 324.351C46.3665 323.73 46.4686 322.271 47.2479 321.093Z" fill="#5CA463"/>
<path opacity="0.1" d="M58.646 233.848C63.8691 233.848 68.1033 228.775 68.1033 222.518C68.1033 216.261 63.8691 211.188 58.646 211.188C53.4228 211.188 49.1886 216.261 49.1886 222.518C49.1886 228.775 53.4228 233.848 58.646 233.848Z" fill="#5CA463"/>
<path d="M109.705 390.96C109.705 390.96 119.768 387.75 122.454 383.471C125.14 379.193 137.214 371.705 138.555 377.054C139.897 382.404 156.676 400.588 145.277 403.799C133.879 407.01 118.441 408.077 115.086 405.938C111.731 403.799 109.705 390.96 109.705 390.96Z" fill="#A8A8A8"/>
<defs>
<linearGradient id="paint0_linear" x1="439.03" y1="366.052" x2="440.362" y2="363.969" gradientUnits="userSpaceOnUse">
<stop stop-color="white"/>
<stop offset="1"/>
</linearGradient>
</defs>
</svg>
