<svg width="488" height="490" viewBox="0 0 488 490" fill="none" xmlns="http://www.w3.org/2000/svg">
<path opacity="0.9" fill-rule="evenodd" clip-rule="evenodd" d="M198.5 0.499912C238.323 -2.15395 318.333 19.1598 350.5 38.4625C382.592 57.7205 426.715 70.5388 440.5 100.999C454.958 132.946 468.62 207.708 463.5 241.499C457.697 279.803 404.754 318.95 363.115 337.38C321.509 355.795 273.011 323.057 225.657 323.017C178.386 322.977 129.787 355.759 88.4062 337.149C47.0485 318.549 32.216 273.495 30.0783 235.06C28.2021 201.327 6.81139 148.729 24 117.999C38.6543 91.8003 28.4215 42.4823 55 23.5C82.9668 3.52613 161.425 2.9706 198.5 0.499912Z" fill="#B6E6E6"/>
<path d="M448.367 440.573C449.836 440.763 451.309 440.332 452.726 439.802C455.537 438.752 458.453 437.083 459.909 433.825C460.441 432.635 460.743 431.303 461.041 429.985C461.641 427.325 462.245 424.634 462.342 421.867C462.445 418.823 461.931 415.797 460.85 413.084C460.691 412.675 460.422 412.353 460.093 412.178C459.519 411.888 459.203 412.284 458.953 412.696C457.433 415.196 457.591 418.675 457.464 421.841C457.336 425.015 456.852 428.148 456.026 431.144C455.675 432.415 455.212 433.738 454.322 434.453C453.776 434.891 453.127 435.052 452.495 435.204C451.549 435.432 450.516 435.645 449.668 435.061C448.8 434.463 448.226 432.913 447.224 432.655C446.232 432.401 444.879 433.733 444.437 434.857C443.238 437.898 446.4 440.32 448.367 440.573Z" fill="#FFE39D"/>
<g opacity="0.1">
<path opacity="0.1" d="M454.322 434.453C453.776 434.891 453.127 435.052 452.495 435.204C451.845 435.361 451.156 435.504 450.512 435.393C451.32 435.825 452.267 435.636 453.141 435.425C453.773 435.273 454.423 435.112 454.968 434.674C455.859 433.959 456.321 432.636 456.672 431.365C457.498 428.369 457.982 425.236 458.11 422.062C458.237 418.896 458.08 415.416 459.599 412.917C459.775 412.627 459.985 412.351 460.293 412.31C460.229 412.259 460.162 412.215 460.093 412.178C459.519 411.888 459.204 412.284 458.953 412.696C457.434 415.196 457.591 418.675 457.464 421.841C457.336 425.015 456.852 428.148 456.026 431.144C455.675 432.415 455.213 433.738 454.322 434.453Z" fill="black"/>
<path opacity="0.1" d="M445.083 435.077C445.492 434.039 446.678 432.825 447.638 432.847C447.508 432.759 447.368 432.694 447.224 432.655C446.232 432.4 444.879 433.733 444.437 434.856C443.319 437.693 445.995 439.99 447.955 440.492C446.113 439.714 444.084 437.612 445.083 435.077Z" fill="black"/>
</g>
<path opacity="0.1" d="M453.048 423.682L435.992 412.779L433.533 419.115L450.589 430.018L453.048 423.682Z" fill="black"/>
<path d="M453.048 423.682L435.992 412.779L433.756 418.539L450.812 429.442L453.048 423.682Z" fill="#6C63FF"/>
<path d="M446.91 420.264C448.571 420.264 449.918 418.536 449.918 416.403C449.918 414.271 448.571 412.542 446.91 412.542C445.248 412.542 443.901 414.271 443.901 416.403C443.901 418.536 445.248 420.264 446.91 420.264Z" fill="#6C63FF"/>
<path d="M444.624 396.269C444.624 396.269 449.833 398.082 451.73 400.812C451.73 400.812 454.803 397.464 456.224 398.373C457.645 399.281 455.523 406.272 455.523 406.272L453.643 417.21C453.643 417.21 454.621 443.635 441.373 448.824C428.125 454.014 418.632 432.77 421.7 424.866C424.767 416.963 433.981 402.365 433.981 402.365C433.981 402.365 442.014 390.807 443.433 390.197C444.853 389.586 444.624 396.269 444.624 396.269Z" fill="#FFE39D"/>
<g opacity="0.1">
<path opacity="0.1" d="M452.547 430.691C453.354 426.275 453.723 421.745 453.643 417.21L453.346 418.938C453.417 422.881 453.149 426.823 452.547 430.691Z" fill="white"/>
<path opacity="0.1" d="M423.184 423.771C426.252 415.868 433.684 404.092 433.684 404.092C433.684 404.092 441.717 392.534 443.136 391.924C444.556 391.314 444.327 397.997 444.327 397.997C444.327 397.997 449.536 399.809 451.433 402.539C451.433 402.539 454.506 399.192 455.927 400.1C456.479 400.453 456.495 401.722 456.311 403.143C456.722 401.155 456.996 398.867 456.224 398.373C454.803 397.464 451.73 400.812 451.73 400.812C449.833 398.082 444.624 396.269 444.624 396.269C444.624 396.269 444.853 389.586 443.433 390.197C442.014 390.807 433.981 402.365 433.981 402.365C433.981 402.365 426.549 414.141 423.481 422.044C423.204 422.758 423.096 423.998 423.184 423.771Z" fill="white"/>
</g>
<path d="M449.732 414.172C450.317 414.172 450.791 413.564 450.791 412.814C450.791 412.064 450.317 411.455 449.732 411.455C449.148 411.455 448.674 412.064 448.674 412.814C448.674 413.564 449.148 414.172 449.732 414.172Z" fill="#58555D"/>
<path d="M438.837 407.207C439.421 407.207 439.895 406.599 439.895 405.848C439.895 405.098 439.421 404.49 438.837 404.49C438.252 404.49 437.778 405.098 437.778 405.848C437.778 406.599 438.252 407.207 438.837 407.207Z" fill="#58555D"/>
<path d="M445.471 411.607C445.731 410.935 445.306 409.984 444.521 409.482C443.736 408.981 442.889 409.118 442.628 409.79C442.368 410.461 442.793 411.413 443.578 411.914C444.362 412.416 445.21 412.278 445.471 411.607Z" fill="#58555D"/>
<path d="M452.639 414.3L452.511 414.959L457.246 416.47L457.374 415.811L452.639 414.3Z" fill="#FFE39D"/>
<path d="M451.701 416.732L451.562 417.387L456.77 419.205L456.909 418.55L451.701 416.732Z" fill="#FFE39D"/>
<path d="M432.161 397.435L431.766 397.886L435.559 403.347L435.954 402.895L432.161 397.435Z" fill="#FFE39D"/>
<path d="M429.515 399.515L429.21 400.07L434.896 405.222L435.201 404.667L429.515 399.515Z" fill="#FFE39D"/>
<path opacity="0.1" d="M435.017 427.563C435.017 427.563 434.743 438.862 430.114 436.881C425.485 434.899 430.751 427.679 430.751 427.679C430.751 427.679 431.296 424.883 430.297 424.068" fill="black"/>
<path opacity="0.1" d="M439.083 429.885C439.083 429.885 431.759 436.163 435.518 440.154C439.278 444.146 441.265 434.591 441.265 434.591C441.265 434.591 442.825 432.518 443.892 433.173" fill="black"/>
<path d="M434.729 427.059C434.729 427.059 434.455 438.357 429.826 436.376C425.197 434.395 430.463 427.174 430.463 427.174C430.463 427.174 431.008 424.379 430.01 423.563" fill="#FFE39D"/>
<path d="M439.533 429.69C439.533 429.69 432.208 435.969 435.967 439.96C439.727 443.952 441.714 434.397 441.714 434.397C441.714 434.397 443.274 432.324 444.341 432.979" fill="#FFE39D"/>
<path opacity="0.5" d="M429.177 433.585L428.481 435.379L428.556 435.427L429.252 433.633L429.177 433.585Z" fill="#58555D"/>
<path opacity="0.5" d="M430.374 434.351L429.678 436.144L429.752 436.192L430.449 434.398L430.374 434.351Z" fill="#58555D"/>
<path opacity="0.5" d="M429.946 433.363L428.972 435.874L429.047 435.922L430.021 433.411L429.946 433.363Z" fill="#58555D"/>
<path opacity="0.5" d="M437.106 438.175L436.41 439.969L436.484 440.016L437.181 438.223L437.106 438.175Z" fill="#58555D"/>
<path opacity="0.5" d="M438.303 438.94L437.607 440.734L437.681 440.782L438.378 438.988L438.303 438.94Z" fill="#58555D"/>
<path opacity="0.5" d="M437.875 437.952L436.901 440.463L436.976 440.511L437.95 438L437.875 437.952Z" fill="#58555D"/>
<path opacity="0.1" d="M439.85 417.722C438.61 416.93 437.424 416.003 436.307 414.951C432.787 411.629 430.891 407.741 430.824 407.599L431.37 406.722C431.385 406.755 433.499 410.846 436.886 414.03C440.005 416.961 445.958 420.485 453.559 420.076L453.598 421.257C448.081 421.554 443.081 419.787 439.85 417.722Z" fill="black"/>
<path d="M439.768 418.477L439.752 418.415C439.836 418.395 439.915 418.35 439.983 418.284C440.052 418.218 440.107 418.132 440.146 418.034C440.184 417.936 440.204 417.828 440.204 417.718C440.205 417.609 440.185 417.5 440.147 417.402L440.194 417.374C440.235 417.481 440.256 417.598 440.255 417.717C440.255 417.836 440.234 417.954 440.193 418.06C440.151 418.167 440.092 418.26 440.018 418.332C439.945 418.404 439.859 418.454 439.768 418.477Z" fill="#4D8AF0"/>
<path opacity="0.1" d="M439.768 418.477L439.752 418.415C439.836 418.395 439.915 418.35 439.983 418.284C440.052 418.218 440.107 418.132 440.146 418.034C440.184 417.936 440.204 417.828 440.204 417.718C440.205 417.609 440.185 417.5 440.147 417.402L440.194 417.374C440.235 417.481 440.256 417.598 440.255 417.717C440.255 417.836 440.234 417.954 440.193 418.06C440.151 418.167 440.092 418.26 440.018 418.332C439.945 418.404 439.859 418.454 439.768 418.477Z" fill="black"/>
<path d="M453.65 419.841C446.049 420.25 440.096 416.726 436.978 413.795C433.59 410.611 431.477 406.52 431.461 406.487L430.675 407.102C430.743 407.245 432.878 411.394 436.398 414.715C437.515 415.767 438.701 416.695 439.942 417.487C443.172 419.552 448.172 421.318 453.689 421.021L453.65 419.841ZM440.125 417.505C440.107 417.494 440.092 417.476 440.082 417.453C440.072 417.43 440.067 417.405 440.068 417.379C440.07 417.353 440.077 417.328 440.09 417.307C440.102 417.287 440.119 417.272 440.138 417.263C440.157 417.255 440.178 417.254 440.197 417.261C440.217 417.268 440.234 417.282 440.248 417.302C440.261 417.321 440.27 417.345 440.272 417.371C440.275 417.397 440.271 417.423 440.262 417.446C440.256 417.462 440.248 417.476 440.238 417.487C440.228 417.498 440.216 417.507 440.203 417.512C440.19 417.518 440.177 417.52 440.163 417.519C440.15 417.518 440.137 417.513 440.125 417.505Z" fill="#F55F44"/>
<path opacity="0.1" d="M438.57 418.566C438.449 418.877 438.43 419.238 438.516 419.568C438.602 419.898 438.787 420.171 439.03 420.327C439.273 420.482 439.554 420.507 439.811 420.396C440.069 420.286 440.281 420.048 440.402 419.737C440.523 419.425 440.543 419.064 440.456 418.734C440.37 418.404 440.185 418.131 439.942 417.976C439.7 417.82 439.419 417.795 439.161 417.906C438.904 418.017 438.691 418.254 438.57 418.566ZM439.714 418.563C439.684 418.544 439.659 418.514 439.642 418.476C439.626 418.439 439.618 418.395 439.62 418.352C439.623 418.309 439.635 418.268 439.656 418.234C439.676 418.199 439.704 418.174 439.736 418.16C439.768 418.146 439.803 418.145 439.835 418.156C439.868 418.168 439.897 418.191 439.919 418.224C439.941 418.256 439.955 418.297 439.96 418.34C439.964 418.383 439.958 418.426 439.943 418.465C439.923 418.517 439.887 418.557 439.845 418.575C439.802 418.593 439.755 418.589 439.714 418.563L439.714 418.563Z" fill="url(#paint0_linear)"/>
<path d="M438.662 418.624C438.553 418.905 438.536 419.229 438.613 419.527C438.691 419.824 438.857 420.069 439.076 420.209C439.294 420.349 439.547 420.371 439.779 420.272C440.01 420.172 440.202 419.959 440.311 419.678C440.42 419.397 440.437 419.073 440.36 418.776C440.282 418.478 440.116 418.233 439.897 418.093C439.678 417.953 439.425 417.931 439.194 418.03C438.962 418.13 438.771 418.344 438.662 418.624ZM439.692 418.622C439.664 418.605 439.642 418.577 439.627 418.544C439.612 418.51 439.605 418.471 439.607 418.432C439.609 418.393 439.62 418.356 439.639 418.325C439.657 418.294 439.683 418.271 439.711 418.259C439.74 418.247 439.771 418.246 439.8 418.256C439.83 418.266 439.856 418.287 439.876 418.317C439.896 418.346 439.908 418.382 439.912 418.421C439.916 418.46 439.911 418.499 439.897 418.534C439.888 418.557 439.876 418.577 439.861 418.594C439.846 418.611 439.828 418.624 439.809 418.633C439.79 418.641 439.77 418.644 439.749 418.642C439.729 418.641 439.71 418.634 439.692 418.622Z" fill="#4D8AF0"/>
<path d="M439.736 418.456C439.695 418.349 439.675 418.232 439.675 418.113C439.676 417.994 439.698 417.877 439.739 417.77C439.781 417.664 439.841 417.571 439.915 417.499C439.988 417.427 440.074 417.378 440.165 417.356L440.176 417.42C440.092 417.441 440.013 417.486 439.945 417.552C439.877 417.619 439.822 417.705 439.784 417.803C439.746 417.901 439.726 418.009 439.726 418.119C439.726 418.229 439.746 418.337 439.784 418.435L439.736 418.456Z" fill="#4D8AF0"/>
<path d="M452.3 419.42C435.995 420.881 432.151 407.42 432.151 407.42L452.3 419.42Z" fill="#FFE39D"/>
<path opacity="0.1" d="M127.911 333.104C120.618 342.385 125.537 353.97 126.733 364.659C127.459 371.192 126.698 377.769 124.482 384.112C121.337 393.117 115.311 401.563 113.77 410.778C112.228 419.993 116.99 430.851 128.819 434.055C131.755 434.851 134.931 435.12 137.788 436.062C145.537 438.622 148.973 445.471 149.237 451.722C149.501 457.972 147.418 464.19 147.795 470.438C148.007 473.955 149.127 477.628 152.364 480.215C155.341 482.593 159.672 483.732 163.841 484.746C177.023 487.953 190.788 490.789 204.607 489.799C218.427 488.808 232.435 483.223 237.745 473.775C239.667 470.356 240.379 466.609 242.311 463.199C244.244 459.79 247.902 456.516 252.876 455.981C255.782 455.669 258.7 456.329 261.503 456.979L301.673 466.322C307.839 467.758 314.76 469.16 320.549 467.033C323.526 465.938 325.784 464.036 327.956 462.17C367.667 470.438 374.358 438.064 377.5 418.849C378.606 412.079 385.523 405.442 386.753 398.685C387.983 391.928 372.662 378.235 380.476 374.588C386.502 371.772 393.96 371.35 401.058 370.781C412.548 369.86 424.11 368.299 434.531 364.62C444.952 360.942 454.226 354.94 458.662 347.082C459.974 344.758 460.855 342.185 460.115 339.731C458.792 335.351 452.897 332.669 447.371 330.772C430.845 325.141 412.921 322.125 395.07 319.471C386.882 318.253 378.626 317.098 370.26 317.168C363.029 317.224 355.872 318.191 348.75 319.11C287.758 326.945 221.853 331.893 160.638 322.341C147.801 320.336 134.903 324.204 127.911 333.104Z" fill="#6C63FF"/>
<path d="M49.9349 330.491C49.9395 321.061 52.6072 311.908 57.5075 304.509C62.4079 297.11 69.255 291.897 76.9442 289.71C110.575 280.084 166.977 268.421 194.565 287.983C235.368 316.941 350.538 291.677 350.538 291.677C350.538 291.677 421.809 317.568 420.26 326.774C418.712 335.98 49.9494 330.468 49.9494 330.468L49.9349 330.491Z" fill="#6C63FF"/>
<path opacity="0.4" d="M232.184 295.606C232.184 295.606 295.933 256.213 320.987 285.144C338.218 305.04 377.047 299.32 399.618 293.801C412.103 290.746 424.784 293.42 436.64 301.608C448.063 309.506 460.073 319.043 459.57 323.923C458.619 333.155 232.184 327.614 232.184 327.614V295.606Z" fill="#6C63FF"/>
<path d="M322.088 278.461C324.006 279.166 325.809 279.998 326.361 281.011C326.914 282.025 325.819 283.24 323.37 283.611C320.629 284.023 317.691 283.273 315.471 282.515C313.251 281.757 310.698 280.888 307.79 281.048C309.287 281.585 310.408 282.266 311.041 283.025C311.675 283.784 311.801 284.595 311.406 285.378C311.267 285.703 310.907 286.006 310.364 286.256C308.843 286.899 306.081 286.623 304.257 286.116C298.452 284.501 296.837 281.386 296.806 278.581C296.222 279.594 296.712 280.641 296.701 281.683C296.691 282.725 295.972 283.871 293.752 284.427C292.373 284.718 290.823 284.86 289.26 284.839C286.655 284.876 283.747 284.773 281.965 284.015C279.756 283.08 280.329 281.506 282.247 280.472C284.164 279.438 287.103 278.795 289.802 278.082C291.966 277.573 293.811 276.877 295.201 276.047C295.362 275.932 295.495 275.81 295.597 275.684H311.948C315.631 276.424 319.042 277.358 322.088 278.461Z" fill="white"/>
<path d="M167.999 283.63C170.215 284.483 172.298 285.49 172.931 286.716C173.565 287.942 172.289 289.413 169.451 289.862C166.274 290.36 162.875 289.453 160.309 288.536C157.743 287.618 154.791 286.566 151.423 286.761C153.162 287.412 154.459 288.24 155.189 289.162C155.918 290.084 156.054 291.069 155.583 292.02C155.42 292.413 155.001 292.78 154.371 293.082C152.604 293.86 149.408 293.526 147.299 292.913C140.586 290.958 138.735 287.19 138.717 283.795C138.035 285.021 138.595 286.287 138.577 287.548C138.558 288.81 137.718 290.196 135.143 290.869C133.544 291.221 131.749 291.393 129.939 291.367C126.921 291.412 123.554 291.287 121.495 290.37C118.942 289.238 119.616 287.334 121.844 286.083C124.071 284.832 127.479 284.054 130.61 283.191C133.119 282.575 135.26 281.733 136.875 280.729C137.063 280.589 137.217 280.442 137.336 280.29H156.273C160.531 281.179 164.475 282.302 167.999 283.63Z" fill="white"/>
<path d="M427.525 336.212C428.26 335.226 428.952 334.063 429.164 332.645C429.375 331.228 428.956 329.529 428.017 329.01C426.966 328.434 425.839 329.483 424.987 330.543C424.136 331.603 423.157 332.818 422.042 332.594C422.616 331.843 423.046 330.891 423.289 329.83C423.532 328.768 423.58 327.635 423.429 326.539C423.375 326.085 423.237 325.661 423.029 325.312C422.446 324.413 421.386 324.799 420.687 325.507C418.461 327.766 417.842 332.121 417.83 336.045C417.606 334.627 417.794 333.164 417.79 331.706C417.786 330.249 417.51 328.647 416.659 327.869C416.13 327.462 415.535 327.263 414.936 327.293C413.937 327.241 412.822 327.386 412.139 328.446C411.291 329.753 411.511 331.954 412.246 333.4C412.982 334.846 414.109 335.745 415.144 336.742C415.974 337.454 416.681 338.427 417.214 339.588C417.276 339.749 417.327 339.919 417.366 340.095H423.637C425.049 339.06 426.357 337.754 427.525 336.212Z" fill="#6C63FF"/>
<path d="M436.475 388.221C455.387 388.221 470.719 372.009 470.719 352.01C470.719 332.012 455.387 315.8 436.475 315.8C417.562 315.8 402.231 332.012 402.231 352.01C402.231 372.009 417.562 388.221 436.475 388.221Z" fill="#5CA463"/>
<path d="M400.057 378.328C418.969 378.328 434.301 362.116 434.301 342.118C434.301 322.119 418.969 305.907 400.057 305.907C381.144 305.907 365.813 322.119 365.813 342.118C365.813 362.116 381.144 378.328 400.057 378.328Z" fill="#5CA463"/>
<path d="M359.967 378.682C378.88 378.682 394.212 362.47 394.212 342.472C394.212 322.473 378.88 306.261 359.967 306.261C341.055 306.261 325.723 322.473 325.723 342.472C325.723 362.47 341.055 378.682 359.967 378.682Z" fill="#5CA463"/>
<path d="M346.937 388.221C365.85 388.221 381.181 372.009 381.181 352.01C381.181 332.012 365.85 315.8 346.937 315.8C328.025 315.8 312.693 332.012 312.693 352.01C312.693 372.009 328.025 388.221 346.937 388.221Z" fill="#5CA463"/>
<path d="M324.886 391.402C343.798 391.402 359.13 375.19 359.13 355.191C359.13 335.193 343.798 318.981 324.886 318.981C305.973 318.981 290.642 335.193 290.642 355.191C290.642 375.19 305.973 391.402 324.886 391.402Z" fill="#5CA463"/>
<path d="M315.865 362.785C334.778 362.785 350.109 346.573 350.109 326.575C350.109 306.576 334.778 290.364 315.865 290.364C296.953 290.364 281.621 306.576 281.621 326.575C281.621 346.573 296.953 362.785 315.865 362.785Z" fill="#5CA463"/>
<path d="M325.888 329.575C344.8 329.575 360.132 313.363 360.132 293.365C360.132 273.366 344.8 257.154 325.888 257.154C306.975 257.154 291.644 273.366 291.644 293.365C291.644 313.363 306.975 329.575 325.888 329.575Z" fill="#5CA463"/>
<path d="M344.931 329.575C363.843 329.575 379.175 313.363 379.175 293.365C379.175 273.366 363.843 257.154 344.931 257.154C326.018 257.154 310.687 273.366 310.687 293.365C310.687 313.363 326.018 329.575 344.931 329.575Z" fill="#5CA463"/>
<path d="M355.958 314.737C374.87 314.737 390.202 298.525 390.202 278.527C390.202 258.529 374.87 242.317 355.958 242.317C337.045 242.317 321.714 258.529 321.714 278.527C321.714 298.525 337.045 314.737 355.958 314.737Z" fill="#5CA463"/>
<path d="M384.022 330.988C402.934 330.988 418.266 314.776 418.266 294.778C418.266 274.779 402.934 258.567 384.022 258.567C365.109 258.567 349.778 274.779 349.778 294.778C349.778 314.776 365.109 330.988 384.022 330.988Z" fill="#5CA463"/>
<path d="M449.505 362.785C468.418 362.785 483.749 346.573 483.749 326.575C483.749 306.576 468.418 290.364 449.505 290.364C430.593 290.364 415.261 306.576 415.261 326.575C415.261 346.573 430.593 362.785 449.505 362.785Z" fill="#5CA463"/>
<path d="M429.792 344.767C448.705 344.767 464.036 328.555 464.036 308.557C464.036 288.558 448.705 272.346 429.792 272.346C410.88 272.346 395.548 288.558 395.548 308.557C395.548 328.555 410.88 344.767 429.792 344.767Z" fill="#5CA463"/>
<path d="M417.097 326.748C436.009 326.748 451.341 310.536 451.341 290.538C451.341 270.54 436.009 254.328 417.097 254.328C398.184 254.328 382.853 270.54 382.853 290.538C382.853 310.536 398.184 326.748 417.097 326.748Z" fill="#5CA463"/>
<path d="M393.042 299.546C411.955 299.546 427.286 283.334 427.286 263.335C427.286 243.337 411.955 227.125 393.042 227.125C374.13 227.125 358.798 243.337 358.798 263.335C358.798 283.334 374.13 299.546 393.042 299.546Z" fill="#5CA463"/>
<path d="M437.811 329.575C456.724 329.575 472.055 313.363 472.055 293.365C472.055 273.366 456.724 257.154 437.811 257.154C418.899 257.154 403.567 273.366 403.567 293.365C403.567 313.363 418.899 329.575 437.811 329.575Z" fill="#5CA463"/>
<g opacity="0.1">
<path opacity="0.1" d="M436.475 388.221C455.387 388.221 470.719 372.009 470.719 352.01C470.719 332.012 455.387 315.8 436.475 315.8C417.562 315.8 402.231 332.012 402.231 352.01C402.231 372.009 417.562 388.221 436.475 388.221Z" fill="black"/>
<path opacity="0.1" d="M400.057 378.328C418.969 378.328 434.301 362.116 434.301 342.117C434.301 322.119 418.969 305.907 400.057 305.907C381.144 305.907 365.813 322.119 365.813 342.117C365.813 362.116 381.144 378.328 400.057 378.328Z" fill="black"/>
<path opacity="0.1" d="M359.967 378.682C378.88 378.682 394.212 362.47 394.212 342.472C394.212 322.473 378.88 306.261 359.967 306.261C341.055 306.261 325.723 322.473 325.723 342.472C325.723 362.47 341.055 378.682 359.967 378.682Z" fill="black"/>
<path opacity="0.1" d="M346.937 388.221C365.85 388.221 381.181 372.009 381.181 352.01C381.181 332.012 365.85 315.8 346.937 315.8C328.025 315.8 312.693 332.012 312.693 352.01C312.693 372.009 328.025 388.221 346.937 388.221Z" fill="black"/>
<path opacity="0.1" d="M324.886 391.402C343.798 391.402 359.13 375.19 359.13 355.191C359.13 335.193 343.798 318.981 324.886 318.981C305.973 318.981 290.642 335.193 290.642 355.191C290.642 375.19 305.973 391.402 324.886 391.402Z" fill="black"/>
<path opacity="0.1" d="M315.865 362.785C334.778 362.785 350.109 346.573 350.109 326.575C350.109 306.576 334.778 290.364 315.865 290.364C296.953 290.364 281.621 306.576 281.621 326.575C281.621 346.573 296.953 362.785 315.865 362.785Z" fill="black"/>
<path opacity="0.1" d="M325.888 329.575C344.8 329.575 360.132 313.363 360.132 293.364C360.132 273.366 344.8 257.154 325.888 257.154C306.975 257.154 291.644 273.366 291.644 293.364C291.644 313.363 306.975 329.575 325.888 329.575Z" fill="black"/>
<path opacity="0.1" d="M344.931 329.575C363.843 329.575 379.175 313.363 379.175 293.364C379.175 273.366 363.843 257.154 344.931 257.154C326.018 257.154 310.687 273.366 310.687 293.364C310.687 313.363 326.018 329.575 344.931 329.575Z" fill="black"/>
<path opacity="0.1" d="M355.958 314.737C374.87 314.737 390.202 298.525 390.202 278.527C390.202 258.528 374.87 242.316 355.958 242.316C337.045 242.316 321.714 258.528 321.714 278.527C321.714 298.525 337.045 314.737 355.958 314.737Z" fill="black"/>
<path opacity="0.1" d="M384.022 330.988C402.934 330.988 418.266 314.776 418.266 294.778C418.266 274.779 402.934 258.567 384.022 258.567C365.109 258.567 349.778 274.779 349.778 294.778C349.778 314.776 365.109 330.988 384.022 330.988Z" fill="black"/>
<path opacity="0.1" d="M449.505 362.785C468.418 362.785 483.749 346.573 483.749 326.575C483.749 306.576 468.418 290.364 449.505 290.364C430.593 290.364 415.261 306.576 415.261 326.575C415.261 346.573 430.593 362.785 449.505 362.785Z" fill="black"/>
<path opacity="0.1" d="M429.792 344.767C448.705 344.767 464.036 328.555 464.036 308.556C464.036 288.558 448.705 272.346 429.792 272.346C410.88 272.346 395.548 288.558 395.548 308.556C395.548 328.555 410.88 344.767 429.792 344.767Z" fill="black"/>
<path opacity="0.1" d="M417.097 326.748C436.009 326.748 451.341 310.536 451.341 290.538C451.341 270.54 436.009 254.328 417.097 254.328C398.184 254.328 382.853 270.54 382.853 290.538C382.853 310.536 398.184 326.748 417.097 326.748Z" fill="black"/>
<path opacity="0.1" d="M393.042 299.546C411.955 299.546 427.286 283.334 427.286 263.335C427.286 243.337 411.955 227.125 393.042 227.125C374.13 227.125 358.798 243.337 358.798 263.335C358.798 283.334 374.13 299.546 393.042 299.546Z" fill="black"/>
<path opacity="0.1" d="M437.811 329.575C456.724 329.575 472.055 313.363 472.055 293.364C472.055 273.366 456.724 257.154 437.811 257.154C418.899 257.154 403.567 273.366 403.567 293.364C403.567 313.363 418.899 329.575 437.811 329.575Z" fill="black"/>
</g>
<path d="M419.562 415.466C419.562 415.466 440.498 396.86 430.141 370.365L419.783 366.264L408.545 402.85L419.562 415.466Z" fill="#67647E"/>
<path opacity="0.1" d="M420.678 365.003L423.156 365.984L412.122 401.904L421.749 412.927C420.952 413.766 420.456 414.205 420.456 414.205L409.436 401.589L420.678 365.003Z" fill="black"/>
<path d="M459.216 411.563C459.216 411.563 452.406 418.764 456.251 429.45C460.097 440.136 449.663 457.903 449.663 457.903L449.998 457.847C463.983 455.236 470.933 438.323 463.155 425.756C460.248 421.091 457.873 415.608 459.216 411.563Z" fill="#5CA463"/>
<path d="M459.216 411.563C459.216 411.563 455.371 420.39 459.216 427.591C463.061 434.792 459.886 454.999 449.659 457.903" stroke="#535461" stroke-miterlimit="10"/>
<path d="M471.345 440.689C471.345 440.689 463.574 439.382 462.867 446.746C462.16 454.11 447.921 455.13 447.921 455.13L448.189 455.318C459.943 463.465 471.178 460.514 469.483 449.683C468.856 445.655 468.907 441.61 471.345 440.689Z" fill="#5CA463"/>
<path opacity="0.2" d="M471.345 440.689C471.345 440.689 463.574 439.382 462.867 446.746C462.16 454.11 447.921 455.13 447.921 455.13L448.189 455.318C459.943 463.465 471.178 460.514 469.483 449.683C468.856 445.655 468.907 441.61 471.345 440.689Z" fill="#F5F5F5"/>
<path d="M471.345 440.689C471.345 440.689 465.316 442.106 465.808 447.89C466.301 453.674 456.851 460.642 447.924 455.13" stroke="#535461" stroke-miterlimit="10"/>
<path d="M325.013 376.713L327.733 388.224C327.733 388.224 346.951 390.874 359.763 389.209C362.028 388.869 364.203 388.04 366.151 386.772C367.233 386.095 368.941 385.801 371.276 387.65C375.276 390.838 394.905 416.341 391.726 442.8C391.479 444.794 390.618 446.646 389.276 448.07C387.933 449.494 386.184 450.41 384.3 450.678C380.385 451.242 376.643 452.739 373.356 455.056L363.642 461.895L463.246 459.593L452.905 446.356C452.905 446.356 445.831 440.027 440.387 439.449C438.8 439.283 437.49 437.742 436.431 435.649C430.231 423.376 422.815 411.836 414.775 400.816C408.92 392.79 404.006 384.331 404.465 379.018C405.554 366.356 404.465 345.638 404.465 345.638L383.784 342.762C383.784 342.762 386.504 370.39 361.468 377.293C336.432 384.197 325.013 376.713 325.013 376.713Z" fill="#67647E"/>
<path d="M400.188 457.028C400.188 457.028 411.721 454.588 414.799 451.336C417.877 448.085 431.715 442.393 433.252 446.459C434.79 450.525 454.021 464.346 440.957 466.787C427.893 469.227 410.2 470.038 406.354 468.413C402.509 466.787 400.188 457.028 400.188 457.028Z" fill="#A8A8A8"/>
<path opacity="0.2" d="M440.943 465.275C427.88 467.715 410.186 468.526 406.341 466.9C403.413 465.661 401.377 459.71 400.573 456.944L400.188 457.029C400.188 457.029 402.495 466.787 406.338 468.413C410.18 470.039 427.869 469.227 440.94 466.787C444.715 466.079 445.794 464.428 445.385 462.338C445.067 463.702 443.75 464.754 440.943 465.275Z" fill="black"/>
<path d="M478.249 387.725C478.206 389.18 477.775 390.594 477.006 391.802C476.231 390.598 475.793 389.187 475.743 387.732C475.743 385.483 476.293 383.659 476.986 383.655C477.68 383.651 478.242 385.476 478.249 387.725Z" fill="#5CA463"/>
<path d="M383.69 385.748C383.644 387.204 383.21 388.616 382.437 389.822C381.665 388.616 381.231 387.204 381.185 385.748C381.185 383.499 381.744 381.675 382.437 381.675C383.131 381.675 383.69 383.499 383.69 385.748Z" fill="#5CA463"/>
<path d="M486.747 425.887C487.519 427.093 487.954 428.505 488 429.96C486.705 429.465 485.568 428.594 484.721 427.445C483.468 425.625 482.909 423.801 483.468 423.372C484.027 422.943 485.498 424.07 486.747 425.887Z" fill="#5CA463"/>
<path d="M446.732 404.56C446.685 406.016 446.251 407.428 445.479 408.634C444.707 407.428 444.272 406.016 444.226 404.56C444.226 402.311 444.785 400.487 445.479 400.487C446.172 400.487 446.732 402.318 446.732 404.56Z" fill="#5CA463"/>
<path d="M423.324 391.03C423.278 392.485 422.843 393.897 422.071 395.103C421.299 393.897 420.865 392.485 420.818 391.03C420.818 388.78 421.378 386.956 422.071 386.956C422.765 386.956 423.324 388.78 423.324 391.03Z" fill="#5CA463"/>
<path d="M408.803 399.279C409.447 400.567 409.734 402.02 409.63 403.473C408.389 402.834 407.343 401.837 406.616 400.597C405.557 398.645 405.189 396.768 405.788 396.403C406.388 396.038 407.748 397.327 408.803 399.279Z" fill="#5CA463"/>
<path d="M397.953 436.697C396.917 437.658 395.646 438.289 394.285 438.518C394.589 437.098 395.266 435.798 396.238 434.767C397.789 433.23 399.434 432.415 399.906 432.946C400.378 433.478 399.504 435.16 397.953 436.697Z" fill="#5CA463"/>
<path opacity="0.1" d="M397.953 436.697C396.917 437.658 395.646 438.289 394.285 438.518C394.589 437.098 395.266 435.798 396.238 434.767C397.789 433.23 399.434 432.415 399.906 432.946C400.378 433.478 399.504 435.16 397.953 436.697Z" fill="black"/>
<path d="M420.735 434.388C419.699 435.348 418.427 435.979 417.067 436.208C417.371 434.789 418.047 433.488 419.02 432.457C420.57 430.92 422.215 430.106 422.687 430.637C423.16 431.168 422.286 432.847 420.735 434.388Z" fill="#5CA463"/>
<path opacity="0.1" d="M420.735 434.388C419.699 435.348 418.427 435.979 417.067 436.208C417.371 434.789 418.047 433.488 419.02 432.457C420.57 430.92 422.215 430.106 422.687 430.637C423.16 431.168 422.286 432.847 420.735 434.388Z" fill="black"/>
<path d="M425.103 458.807C424.067 459.767 422.795 460.398 421.435 460.628C421.738 459.203 422.416 457.899 423.391 456.866C424.942 455.329 426.586 454.514 427.059 455.045C427.531 455.577 426.657 457.266 425.103 458.807Z" fill="#5CA463"/>
<path opacity="0.1" d="M425.103 458.807C424.067 459.767 422.795 460.398 421.435 460.628C421.738 459.203 422.416 457.899 423.391 456.866C424.942 455.329 426.586 454.514 427.059 455.045C427.531 455.577 426.657 457.266 425.103 458.807Z" fill="black"/>
<path d="M459.48 457.075C459.48 457.075 465.212 455.87 466.739 454.266C468.267 452.661 475.147 449.852 475.911 451.857C476.675 453.862 486.228 460.684 479.733 461.885C473.238 463.085 464.448 463.489 462.539 462.689C460.629 461.888 459.48 457.075 459.48 457.075Z" fill="#A8A8A8"/>
<path opacity="0.2" d="M479.743 461.145C473.248 462.349 464.458 462.749 462.549 461.949C461.095 461.336 460.083 458.407 459.682 457.036L459.491 457.078C459.491 457.078 460.636 461.892 462.549 462.696C464.462 463.5 473.248 463.096 479.743 461.892C481.619 461.538 482.155 460.73 481.954 459.696C481.783 460.365 481.13 460.886 479.743 461.145Z" fill="black"/>
<path d="M436.475 380.095C455.387 380.095 470.719 363.883 470.719 343.885C470.719 323.886 455.387 307.675 436.475 307.675C417.562 307.675 402.231 323.886 402.231 343.885C402.231 363.883 417.562 380.095 436.475 380.095Z" fill="#5CA463"/>
<path d="M400.057 370.202C418.969 370.202 434.301 353.99 434.301 333.992C434.301 313.993 418.969 297.781 400.057 297.781C381.144 297.781 365.813 313.993 365.813 333.992C365.813 353.99 381.144 370.202 400.057 370.202Z" fill="#5CA463"/>
<path d="M359.967 370.557C378.88 370.557 394.212 354.345 394.212 334.346C394.212 314.348 378.88 298.136 359.967 298.136C341.055 298.136 325.723 314.348 325.723 334.346C325.723 354.345 341.055 370.557 359.967 370.557Z" fill="#5CA463"/>
<path d="M346.937 380.095C365.85 380.095 381.181 363.883 381.181 343.885C381.181 323.886 365.85 307.675 346.937 307.675C328.025 307.675 312.693 323.886 312.693 343.885C312.693 363.883 328.025 380.095 346.937 380.095Z" fill="#5CA463"/>
<path d="M324.886 383.276C343.798 383.276 359.13 367.064 359.13 347.066C359.13 327.067 343.798 310.855 324.886 310.855C305.973 310.855 290.642 327.067 290.642 347.066C290.642 367.064 305.973 383.276 324.886 383.276Z" fill="#5CA463"/>
<path d="M315.865 354.66C334.778 354.66 350.109 338.448 350.109 318.449C350.109 298.451 334.778 282.239 315.865 282.239C296.953 282.239 281.621 298.451 281.621 318.449C281.621 338.448 296.953 354.66 315.865 354.66Z" fill="#5CA463"/>
<path d="M325.888 321.45C344.8 321.45 360.132 305.238 360.132 285.239C360.132 265.241 344.8 249.029 325.888 249.029C306.975 249.029 291.644 265.241 291.644 285.239C291.644 305.238 306.975 321.45 325.888 321.45Z" fill="#5CA463"/>
<path d="M344.931 321.45C363.843 321.45 379.175 305.238 379.175 285.239C379.175 265.241 363.843 249.029 344.931 249.029C326.018 249.029 310.687 265.241 310.687 285.239C310.687 305.238 326.018 321.45 344.931 321.45Z" fill="#5CA463"/>
<path d="M355.958 306.612C374.87 306.612 390.202 290.4 390.202 270.401C390.202 250.403 374.87 234.191 355.958 234.191C337.045 234.191 321.714 250.403 321.714 270.401C321.714 290.4 337.045 306.612 355.958 306.612Z" fill="#5CA463"/>
<path d="M384.022 322.863C402.934 322.863 418.266 306.651 418.266 286.653C418.266 266.654 402.934 250.442 384.022 250.442C365.109 250.442 349.778 266.654 349.778 286.653C349.778 306.651 365.109 322.863 384.022 322.863Z" fill="#5CA463"/>
<path d="M449.505 354.66C468.418 354.66 483.749 338.448 483.749 318.449C483.749 298.451 468.418 282.239 449.505 282.239C430.593 282.239 415.261 298.451 415.261 318.449C415.261 338.448 430.593 354.66 449.505 354.66Z" fill="#5CA463"/>
<path d="M429.792 336.641C448.705 336.641 464.036 320.429 464.036 300.431C464.036 280.432 448.705 264.22 429.792 264.22C410.88 264.22 395.548 280.432 395.548 300.431C395.548 320.429 410.88 336.641 429.792 336.641Z" fill="#5CA463"/>
<path d="M417.097 318.623C436.009 318.623 451.341 302.411 451.341 282.413C451.341 262.414 436.009 246.202 417.097 246.202C398.184 246.202 382.853 262.414 382.853 282.413C382.853 302.411 398.184 318.623 417.097 318.623Z" fill="#5CA463"/>
<path d="M393.042 291.42C411.955 291.42 427.286 275.208 427.286 255.21C427.286 235.211 411.955 218.999 393.042 218.999C374.13 218.999 358.798 235.211 358.798 255.21C358.798 275.208 374.13 291.42 393.042 291.42Z" fill="#5CA463"/>
<path d="M437.811 321.45C456.724 321.45 472.055 305.238 472.055 285.239C472.055 265.241 456.724 249.029 437.811 249.029C418.899 249.029 403.567 265.241 403.567 285.239C403.567 305.238 418.899 321.45 437.811 321.45Z" fill="#5CA463"/>
<path opacity="0.1" d="M470.568 290.91C470.568 290.91 438.676 274.917 419.378 303.261L470.568 290.91Z" fill="black"/>
<path opacity="0.1" d="M386.798 258.511C386.798 258.511 351.519 257.384 344.592 291.53L386.798 258.511Z" fill="black"/>
<path opacity="0.1" d="M342.944 332.596C342.944 332.596 311.052 316.601 291.754 344.937L342.944 332.596Z" fill="black"/>
<path opacity="0.1" d="M378.733 450.646C379.614 450.919 383.258 452.063 386.99 453.632C388.834 454.384 390.631 455.26 392.369 456.257C392.731 456.473 393.076 456.689 393.401 456.905C394.252 457.434 395.014 458.109 395.655 458.903C397.812 461.853 400.981 463.443 402.559 464.092C402.66 463.397 402.57 462.686 402.298 462.044L395.263 456.82L396.268 456.774L394.955 456.087L395.742 456.033L386.216 451.503C386.216 451.503 383.074 451.276 378.733 450.646Z" fill="black"/>
<g opacity="0.05">
<path opacity="0.05" d="M399.38 425.646L398.807 425.444L396.168 422.224C396.22 422.072 396.225 421.906 396.185 421.75L399.38 425.646Z" fill="black"/>
<path opacity="0.05" d="M403.058 431.611C402.311 431.274 401.68 430.703 401.251 429.974C400.821 429.246 400.614 428.395 400.657 427.538C400.657 427.428 400.657 427.325 400.657 427.226L400.71 427.293L402.807 428.033C402.641 428.463 402.557 428.923 402.559 429.386C402.538 430.161 402.71 430.929 403.058 431.611Z" fill="black"/>
<path opacity="0.05" d="M382.669 450.617C387.05 452.229 392.982 454.769 394.788 457.238L394.922 457.415C390.122 453.933 379.58 450.766 379.58 450.766C380.611 450.778 381.643 450.729 382.669 450.617Z" fill="black"/>
<path opacity="0.05" d="M402.653 462.785C403.346 461.116 404.663 459.374 406.046 457.826C409.455 454.069 411.618 449.244 412.21 444.075L412.267 443.555C415.064 440.597 421.445 443.094 421.445 443.094C421.78 437.349 419.824 433.577 418.353 431.586L418.738 431.728C418.738 431.728 423.893 435.886 423.371 444.943C423.371 444.943 417.006 442.464 414.193 445.404L414.136 445.924C413.544 451.093 411.381 455.918 407.972 459.675C406.582 461.219 405.272 462.958 404.579 464.634C404.579 464.634 400.318 463.344 397.337 459.873C398.944 461.149 400.74 462.133 402.653 462.785Z" fill="black"/>
</g>
<path opacity="0.1" d="M415.157 444.313C416.206 444.958 417.318 445.481 418.474 445.871C420.125 446.41 422.018 445.843 422.932 445.496V444.114L415.228 443.19L415.157 444.313Z" fill="black"/>
<circle cx="161.5" cy="121.499" r="17.5" fill="#FFB803"/>
<path d="M172.524 126.794C173.917 126.311 175.414 126.751 176.752 127.845C177.336 126.087 178.375 124.771 179.77 124.286C182.121 123.472 184.498 124.202 186.106 127.175C186.166 127.287 186.26 127.33 186.331 127.285C186.402 127.237 186.432 127.11 186.402 126.979C186.368 126.833 186.331 126.685 186.292 126.537C184.984 121.572 181.49 118.386 178.487 119.425C177.093 119.907 176.056 121.221 175.472 122.98C174.136 121.886 172.635 121.451 171.242 121.93C168.239 122.968 166.866 127.837 168.174 132.804C168.22 132.978 168.331 133.1 168.442 133.1C168.551 133.102 168.631 132.981 168.633 132.811C168.67 129.559 170.264 127.576 172.524 126.794Z" fill="#3E0735"/>
<path d="M266.648 160.816C268.081 160.686 269.499 161.489 270.674 162.898C271.474 161.312 272.665 160.274 274.1 160.142C276.518 159.923 278.763 161.23 279.965 164.553C280.01 164.678 280.097 164.744 280.172 164.717C280.249 164.688 280.294 164.57 280.281 164.434C280.266 164.282 280.25 164.127 280.23 163.972C279.577 158.762 276.547 154.762 273.459 155.041C272.026 155.17 270.837 156.207 270.037 157.793C268.862 156.385 267.441 155.586 266.009 155.713C262.921 155.991 260.948 160.442 261.599 165.654C261.623 165.837 261.716 165.984 261.825 166.012C261.933 166.041 262.026 165.941 262.05 165.774C262.503 162.583 264.325 161.027 266.648 160.816Z" fill="#3E0735"/>
<path d="M208.598 384.826C208.598 374.004 200.295 365.23 190.062 365.23C179.829 365.23 171.525 374.004 171.525 384.826C161.289 384.826 152.989 393.604 152.989 404.427C152.989 415.249 161.292 424.027 171.525 424.027C174.746 424.041 177.923 423.14 180.797 421.399C183.674 423.126 186.847 424.026 190.065 424.026C193.283 424.026 196.457 423.126 199.334 421.399C202.208 423.14 205.385 424.041 208.606 424.027C218.846 424.027 227.142 415.249 227.142 404.427C227.142 393.604 218.854 384.826 208.598 384.826Z" fill="#5CA463"/>
<path opacity="0.1" d="M208.598 384.826C208.598 374.004 200.295 365.23 190.062 365.23C179.829 365.23 171.525 374.004 171.525 384.826C161.289 384.826 152.989 393.604 152.989 404.427C152.989 415.249 161.292 424.027 171.525 424.027C174.746 424.041 177.923 423.14 180.797 421.399C183.674 423.126 186.847 424.026 190.065 424.026C193.283 424.026 196.457 423.126 199.334 421.399C202.208 423.14 205.385 424.041 208.606 424.027C218.846 424.027 227.142 415.249 227.142 404.427C227.142 393.604 218.854 384.826 208.598 384.826Z" fill="black"/>
<path d="M164.784 285.635C164.786 282.916 164.371 280.22 163.558 277.681C167.688 275.928 171.168 272.483 173.383 267.954C175.597 263.426 176.405 258.105 175.663 252.932C174.921 247.759 172.676 243.067 169.326 239.684C165.976 236.302 161.735 234.447 157.354 234.446C157.353 228.996 155.682 223.736 152.659 219.663C149.635 215.59 145.469 212.988 140.951 212.35C136.433 211.712 131.876 213.082 128.145 216.201C124.414 219.32 121.768 223.97 120.709 229.271C120.539 229.271 120.368 229.271 120.198 229.271C120.202 223.726 118.478 218.379 115.363 214.277C112.249 210.176 107.968 207.615 103.36 207.097C98.7518 206.578 94.1481 208.14 90.4507 211.475C86.7533 214.811 84.2285 219.68 83.3711 225.129C80.6308 222.549 77.3398 220.944 73.8744 220.499C70.409 220.054 66.9089 220.786 63.7742 222.611C60.6395 224.436 57.9968 227.281 56.148 230.82C54.2992 234.36 53.3189 238.451 53.3193 242.627C49.3236 242.633 45.4361 244.184 42.2341 247.047C39.0322 249.911 36.6864 253.935 35.545 258.522C34.4036 263.11 34.5276 268.016 35.8984 272.513C37.2693 277.009 39.8139 280.856 43.1546 283.482C42.9154 284.922 42.795 286.387 42.7952 287.856C39.9448 287.854 37.1324 288.638 34.5756 290.147C32.0187 291.656 29.786 293.85 28.0503 296.559C26.3145 299.267 25.1223 302.418 24.5658 305.767C24.0094 309.116 24.1036 312.574 24.8413 315.872C25.579 319.17 26.9403 322.221 28.8198 324.788C30.6994 327.355 33.0468 329.37 35.6804 330.676C38.314 331.982 41.1631 332.545 44.0073 332.32C46.8515 332.096 49.6145 331.091 52.0823 329.382C54.9065 331.335 58.1102 332.364 61.3713 332.364C64.6325 332.364 67.8362 331.335 70.6604 329.382C74.1024 331.763 78.0915 332.759 82.0411 332.222C85.9906 331.685 89.6922 329.645 92.6015 326.4C92.923 326.4 93.2446 326.432 93.5699 326.432C96.8325 326.435 100.038 325.404 102.861 323.445C107.01 326.327 111.931 327.163 116.585 325.779C119.496 328.353 122.971 329.852 126.583 330.094C130.195 330.335 133.787 329.308 136.919 327.139C139.743 329.092 142.947 330.12 146.208 330.12C149.469 330.12 152.672 329.092 155.497 327.139C157.965 328.847 160.728 329.853 163.572 330.077C166.416 330.301 169.265 329.739 171.899 328.433C174.532 327.127 176.88 325.112 178.759 322.545C180.639 319.978 182 316.927 182.738 313.629C183.475 310.33 183.57 306.873 183.013 303.524C182.457 300.175 181.264 297.024 179.529 294.315C177.793 291.607 175.56 289.413 173.003 287.904C170.447 286.395 167.634 285.611 164.784 285.612V285.635ZM79.9475 287.86C79.9463 286.902 79.8932 285.946 79.7886 284.996C80.2653 284.729 80.7344 284.448 81.1883 284.13C81.9301 284.65 82.7026 285.105 83.4997 285.49C82.5836 286.202 81.7204 287.007 80.9197 287.896C80.5982 287.869 80.2728 287.86 79.9475 287.86Z" fill="#5CA463"/>
<path d="M156.321 346.961C156.255 341.696 154.463 336.672 151.331 332.976C148.199 329.281 143.98 327.209 139.584 327.209C135.188 327.209 130.968 329.281 127.836 332.976C124.705 336.672 122.912 341.696 122.846 346.961C120.278 346.96 117.743 347.666 115.439 349.026C113.135 350.385 111.123 352.362 109.559 354.803C107.995 357.243 106.921 360.082 106.419 363.1C105.918 366.118 106.003 369.233 106.667 372.205C107.332 375.177 108.559 377.926 110.252 380.24C111.946 382.553 114.061 384.368 116.435 385.545C118.808 386.721 121.375 387.228 123.938 387.026C126.501 386.823 128.99 385.917 131.214 384.377C133.758 386.14 136.645 387.069 139.584 387.069C142.523 387.069 145.41 386.14 147.953 384.377C150.177 385.914 152.665 386.817 155.226 387.018C157.787 387.218 160.353 386.71 162.724 385.533C165.095 384.356 167.208 382.541 168.9 380.229C170.593 377.917 171.818 375.17 172.482 372.2C173.147 369.229 173.232 366.116 172.731 363.1C172.23 360.085 171.158 357.247 169.595 354.808C168.033 352.368 166.024 350.391 163.722 349.031C161.42 347.67 158.888 346.962 156.321 346.961Z" fill="#5CA463"/>
<path opacity="0.1" d="M156.321 346.961C156.255 341.696 154.463 336.672 151.331 332.976C148.199 329.281 143.98 327.209 139.584 327.209C135.188 327.209 130.968 329.281 127.836 332.976C124.705 336.672 122.912 341.696 122.846 346.961C120.278 346.96 117.743 347.666 115.439 349.026C113.135 350.385 111.123 352.362 109.559 354.803C107.995 357.243 106.921 360.082 106.419 363.1C105.918 366.118 106.003 369.233 106.667 372.205C107.332 375.177 108.559 377.926 110.252 380.24C111.946 382.553 114.061 384.368 116.435 385.545C118.808 386.721 121.375 387.228 123.938 387.026C126.501 386.823 128.99 385.917 131.214 384.377C133.758 386.14 136.645 387.069 139.584 387.069C142.523 387.069 145.41 386.14 147.953 384.377C150.177 385.914 152.665 386.817 155.226 387.018C157.787 387.218 160.353 386.71 162.724 385.533C165.095 384.356 167.208 382.541 168.9 380.229C170.593 377.917 171.818 375.17 172.482 372.2C173.147 369.229 173.232 366.116 172.731 363.1C172.23 360.085 171.158 357.247 169.595 354.808C168.033 352.368 166.024 350.391 163.722 349.031C161.42 347.67 158.888 346.962 156.321 346.961Z" fill="black"/>
<path opacity="0.1" d="M164.784 285.635C164.786 282.916 164.371 280.22 163.558 277.681C167.688 275.928 171.168 272.483 173.383 267.954C175.597 263.426 176.405 258.105 175.663 252.932C174.921 247.759 172.676 243.067 169.326 239.684C165.976 236.302 161.735 234.447 157.354 234.446C157.353 228.996 155.682 223.736 152.659 219.663C149.635 215.59 145.469 212.988 140.951 212.35C136.433 211.712 131.876 213.082 128.145 216.201C124.414 219.32 121.768 223.97 120.709 229.271C120.539 229.271 120.368 229.271 120.198 229.271C120.202 223.726 118.478 218.379 115.363 214.277C112.249 210.176 107.968 207.615 103.36 207.097C98.7518 206.578 94.1481 208.14 90.4507 211.475C86.7533 214.811 84.2285 219.68 83.3711 225.129C80.6308 222.549 77.3398 220.944 73.8744 220.499C70.409 220.054 66.9089 220.786 63.7742 222.611C60.6395 224.436 57.9968 227.281 56.148 230.82C54.2992 234.36 53.3189 238.451 53.3193 242.627C49.3236 242.633 45.4361 244.184 42.2341 247.047C39.0322 249.911 36.6864 253.935 35.545 258.522C34.4036 263.11 34.5276 268.016 35.8984 272.513C37.2693 277.009 39.8139 280.856 43.1546 283.482C42.9154 284.922 42.795 286.387 42.7952 287.856C39.9448 287.854 37.1324 288.638 34.5756 290.147C32.0187 291.656 29.786 293.85 28.0503 296.559C26.3145 299.267 25.1223 302.418 24.5658 305.767C24.0094 309.116 24.1036 312.574 24.8413 315.872C25.579 319.17 26.9403 322.221 28.8198 324.788C30.6994 327.355 33.0468 329.37 35.6804 330.676C38.314 331.982 41.1631 332.545 44.0073 332.32C46.8515 332.096 49.6145 331.091 52.0823 329.382C54.9065 331.335 58.1102 332.364 61.3713 332.364C64.6325 332.364 67.8362 331.335 70.6604 329.382C74.1024 331.763 78.0915 332.759 82.0411 332.222C85.9906 331.685 89.6922 329.645 92.6015 326.4C92.923 326.4 93.2446 326.432 93.5699 326.432C96.8325 326.435 100.038 325.404 102.861 323.445C107.01 326.327 111.931 327.163 116.585 325.779C119.496 328.353 122.971 329.852 126.583 330.094C130.195 330.335 133.787 329.308 136.919 327.139C139.743 329.092 142.947 330.12 146.208 330.12C149.469 330.12 152.672 329.092 155.497 327.139C157.965 328.847 160.728 329.853 163.572 330.077C166.416 330.301 169.265 329.739 171.899 328.433C174.532 327.127 176.88 325.112 178.759 322.545C180.639 319.978 182 316.927 182.738 313.629C183.475 310.33 183.57 306.873 183.013 303.524C182.457 300.175 181.264 297.024 179.529 294.315C177.793 291.607 175.56 289.413 173.003 287.904C170.447 286.395 167.634 285.611 164.784 285.612V285.635ZM79.9475 287.86C79.9463 286.902 79.8932 285.946 79.7886 284.996C80.2653 284.729 80.7344 284.448 81.1883 284.13C81.9301 284.65 82.7026 285.105 83.4997 285.49C82.5836 286.202 81.7204 287.007 80.9197 287.896C80.5982 287.869 80.2728 287.86 79.9475 287.86Z" fill="black"/>
<path d="M150.681 395.059C149.236 394.37 147.772 393.672 146.229 393.436C146.074 393.436 145.919 393.4 145.76 393.387C145.76 393.196 145.76 393.01 145.779 392.825C145.862 390.559 146.448 388.22 147.772 386.584C149.096 384.948 150.938 384.141 151.801 382.211C148.648 381.104 145.383 380.517 142.098 380.466C141.262 380.466 140.373 380.466 139.673 381.037C138.814 381.703 138.443 382.963 138.16 384.15C137.29 388.084 136.703 391.936 135.708 395.775L135.447 395.847C131.929 396.754 127.503 396.051 125.888 392.258C126.291 390.345 126.797 388.465 127.401 386.629C129.292 380.987 132.19 375.916 135.054 370.89C136.908 367.63 138.764 364.373 140.622 361.119C137.84 360.114 135.014 359.292 132.156 358.658C131.551 358.522 130.866 358.413 130.363 358.839C130.021 359.189 129.771 359.648 129.64 360.163C126.909 368.193 123.561 376.981 122.612 385.809C122.08 385.463 121.533 385.152 120.974 384.875L112.175 380.38C111.709 380.192 111.288 379.872 110.949 379.446C110.147 378.254 110.949 376.36 112.122 375.725C113.294 375.091 114.622 375.272 115.905 375.136C117.187 375 118.602 374.443 119.078 373.02C119.631 371.384 118.575 369.535 117.285 368.678C115.995 367.822 114.478 367.582 113.124 366.865C112.083 366.282 111.169 365.416 110.456 364.336C109.743 363.256 109.25 361.991 109.016 360.643L106.916 360.525C109.685 357.353 112.557 354.312 115.855 351.978C117.448 350.85 119.135 349.893 120.618 348.565C122.571 346.772 124.1 344.4 125.055 341.683C126.011 338.966 126.359 335.998 126.066 333.071C125.876 331.367 125.472 329.604 125.922 327.972C126.3 326.644 127.155 325.625 127.999 324.659L135.599 315.949C130.761 314.629 125.804 314.044 120.845 314.209C119.589 314.254 118.292 314.354 117.168 315.033C115.118 316.275 114.142 319.085 113.34 321.664C112.729 323.48 112.234 325.35 111.861 327.256C111.301 330.474 111.384 334 109.867 336.733C108.664 338.899 106.663 340.177 104.866 341.636C99.7452 345.815 95.9235 351.907 93.9976 358.962C93.8765 359.415 93.6722 359.995 93.4377 360.643C88.9852 361.096 84.6234 362.111 80.5038 364.187C75.325 366.798 70.8043 370.944 66.3669 375.064C61.4794 379.596 56.3383 384.667 54.6209 391.791C52.7105 399.7 55.6574 408.374 60.3748 414.36C64.2334 419.25 69.1285 422.695 74.0652 425.79C77.2921 427.811 77.8293 427.399 80.6627 424.68L88.2816 417.365C90.4567 415.28 92.6698 413.141 94.1489 410.313C96.1879 406.42 96.691 401.476 99.1613 397.955C102.543 393.128 109.44 392.725 113.204 397.125C114.285 398.394 115.227 400.053 116.703 400.475C117.422 400.683 118.216 400.565 118.874 400.928C120.13 401.644 120.319 403.647 120.766 405.206C121.995 409.407 126.172 411.605 129.845 410.975C133.518 410.345 136.684 407.485 139.17 404.177C139.847 403.271 140.516 402.31 141.439 401.771C142.178 401.377 142.977 401.173 143.785 401.172C146.467 401.041 149.132 401.748 151.517 403.225C153.738 404.585 155.678 406.602 158.013 407.662C162.632 409.756 167.795 407.766 172.32 405.396L150.681 395.059Z" fill="#3F3D56"/>
<path opacity="0.1" d="M150.681 395.059C149.236 394.37 147.772 393.672 146.229 393.436C146.074 393.436 145.919 393.4 145.76 393.387C145.76 393.196 145.76 393.01 145.779 392.825C145.862 390.559 146.448 388.22 147.772 386.584C149.096 384.948 150.938 384.141 151.801 382.211C148.648 381.104 145.383 380.517 142.098 380.466C141.262 380.466 140.373 380.466 139.673 381.037C138.814 381.703 138.443 382.963 138.16 384.15C137.29 388.084 136.703 391.936 135.708 395.775L135.447 395.847C131.929 396.754 127.503 396.051 125.888 392.258C126.291 390.345 126.797 388.465 127.401 386.629C129.292 380.987 132.19 375.916 135.054 370.89C136.908 367.63 138.764 364.373 140.622 361.119C137.84 360.114 135.014 359.292 132.156 358.658C131.551 358.522 130.866 358.413 130.363 358.839C130.021 359.189 129.771 359.648 129.64 360.163C126.909 368.193 123.561 376.981 122.612 385.809C122.08 385.463 121.533 385.152 120.974 384.875L112.175 380.38C111.709 380.192 111.288 379.872 110.949 379.446C110.147 378.254 110.949 376.36 112.122 375.725C113.294 375.091 114.622 375.272 115.905 375.136C117.187 375 118.602 374.443 119.078 373.02C119.631 371.384 118.575 369.535 117.285 368.678C115.995 367.822 114.478 367.582 113.124 366.865C112.083 366.282 111.169 365.416 110.456 364.336C109.743 363.256 109.25 361.991 109.016 360.643L106.916 360.525C109.685 357.353 112.557 354.312 115.855 351.978C117.448 350.85 119.135 349.893 120.618 348.565C122.571 346.772 124.1 344.4 125.055 341.683C126.011 338.966 126.359 335.998 126.066 333.071C125.876 331.367 125.472 329.604 125.922 327.972C126.3 326.644 127.155 325.625 127.999 324.659L135.599 315.949C130.761 314.629 125.804 314.044 120.845 314.209C119.589 314.254 118.292 314.354 117.168 315.033C115.118 316.275 114.142 319.085 113.34 321.664C112.729 323.48 112.234 325.35 111.861 327.256C111.301 330.474 111.384 334 109.867 336.733C108.664 338.899 106.663 340.177 104.866 341.636C99.7452 345.815 95.9235 351.907 93.9976 358.962C93.8765 359.415 93.6722 359.995 93.4377 360.643C88.9852 361.096 84.6234 362.111 80.5038 364.187C75.325 366.798 70.8043 370.944 66.3669 375.064C61.4794 379.596 56.3383 384.667 54.6209 391.791C52.7105 399.7 55.6574 408.374 60.3748 414.36C64.2334 419.25 69.1285 422.695 74.0652 425.79C77.2921 427.811 77.8293 427.399 80.6627 424.68L88.2816 417.365C90.4567 415.28 92.6698 413.141 94.1489 410.313C96.1879 406.42 96.691 401.476 99.1613 397.955C102.543 393.128 109.44 392.725 113.204 397.125C114.285 398.394 115.227 400.053 116.703 400.475C117.422 400.683 118.216 400.565 118.874 400.928C120.13 401.644 120.319 403.647 120.766 405.206C121.995 409.407 126.172 411.605 129.845 410.975C133.518 410.345 136.684 407.485 139.17 404.177C139.847 403.271 140.516 402.31 141.439 401.771C142.178 401.377 142.977 401.173 143.785 401.172C146.467 401.041 149.132 401.748 151.517 403.225C153.738 404.585 155.678 406.602 158.013 407.662C162.632 409.756 167.795 407.766 172.32 405.396L150.681 395.059Z" fill="black"/>
<path d="M88.8527 339.502C88.8527 328.358 79.0549 319.33 66.9646 319.33C54.8743 319.33 45.0765 328.349 45.0765 339.502C32.9711 339.502 23.1884 348.529 23.1884 359.674C23.1884 370.818 32.9862 379.841 45.0765 379.841C48.843 379.86 52.5711 378.934 56.0205 377.122C59.4768 378.907 63.2009 379.827 66.9646 379.827C70.7283 379.827 74.4524 378.907 77.9087 377.122C81.3581 378.934 85.0862 379.86 88.8527 379.841C100.958 379.841 110.741 370.813 110.741 359.674C110.741 348.534 100.943 339.502 88.8527 339.502Z" fill="#5CA463"/>
<path opacity="0.1" d="M88.8527 339.502C88.8527 328.358 79.0549 319.33 66.9646 319.33C54.8743 319.33 45.0765 328.349 45.0765 339.502C32.9711 339.502 23.1884 348.529 23.1884 359.674C23.1884 370.818 32.9862 379.841 45.0765 379.841C48.843 379.86 52.5711 378.934 56.0205 377.122C59.4768 378.907 63.2009 379.827 66.9646 379.827C70.7283 379.827 74.4524 378.907 77.9087 377.122C81.3581 378.934 85.0862 379.86 88.8527 379.841C100.958 379.841 110.741 370.813 110.741 359.674C110.741 348.534 100.943 339.502 88.8527 339.502Z" fill="black"/>
<path d="M135.795 453.431L123.247 446.51C122.241 445.953 121.125 445.26 120.811 443.982C120.699 443.29 120.699 442.579 120.811 441.888C121.113 438.291 120.46 434.672 118.946 431.546C118.004 429.611 116.729 427.87 116.166 425.731C114.963 421.199 117.3 416.4 117.414 411.623C117.539 406.974 115.522 402.501 112.651 399.351C111.8 398.413 110.866 397.538 110.196 396.428C108.252 393.156 109.061 388.723 109.984 384.812L110.223 384.549C110.4 384.341 110.268 383.448 109.943 382.125C113.57 380.966 116.989 379.022 120.032 376.387C120.996 375.549 121.923 374.629 123.058 374.094C124.617 373.346 126.383 373.433 127.957 372.735C130.893 371.425 132.523 367.749 133.889 364.378C137.123 356.406 140.414 348.167 140.823 339.316C138.167 336.855 134.939 335.442 131.585 335.273C131.025 335.246 130.389 335.273 130.022 335.799C129.816 336.133 129.686 336.525 129.644 336.937C128.498 343.253 126.52 349.311 123.784 354.883C122.691 357.224 121.349 359.385 119.793 361.314C117.902 363.58 115.579 365.27 113.294 366.952C111.373 368.361 108.8 369.734 106.617 371.352C105.104 366.694 103.723 362.443 103.901 361.79C105.801 354.682 105.875 347.055 104.113 339.896C103.674 338.12 103.114 336.366 102.978 334.517C102.842 332.668 103.148 330.846 103.269 329.006C103.508 325.358 103.042 321.7 103.061 318.038C103.084 313.08 103.992 308.195 104.896 303.355C102.382 302.816 99.8215 302.652 97.2735 302.865C96.7712 302.868 96.2776 303.024 95.8398 303.319C95.2042 303.813 94.9659 304.764 94.7503 305.634C93.0669 312.392 90.014 318.56 88.202 325.271C86.39 331.983 86.0003 339.846 89.3709 345.629C90.5701 347.682 92.246 349.54 92.5108 352.024C92.6508 353.338 92.3633 354.657 92.0757 355.939C91.565 358.237 99.7816 382.927 100.239 385.207C100.239 385.27 100.27 385.324 100.281 385.383C100.024 385.451 99.7627 385.51 99.5017 385.583C99.1548 392.003 97.0817 398.117 93.5927 403.008C93.1294 401.43 92.8011 399.799 92.6129 398.141C92.3292 395.648 92.3557 393.079 91.7088 390.686C90.7404 387.115 88.4025 384.377 86.3597 381.536C82.6817 376.407 79.7771 370.55 77.7762 364.228C76.2343 364.914 74.6542 365.47 73.0475 365.891C72.1964 366.118 69.2646 366.122 68.8031 367.033C68.0919 368.393 71.2696 374.715 71.8975 376.17C74.1105 381.286 77.8405 385.284 80.0309 390.414C80.9443 392.691 81.6996 395.054 82.2893 397.479C83.4847 402.011 84.6801 406.543 85.5956 411.147C84.4985 412.507 83.6322 414.166 82.6903 415.711C79.3498 421.156 74.9292 425.517 69.8282 428.401C69.2192 428.745 68.5458 429.13 68.2848 429.874C68.2406 430.001 68.2077 430.133 68.1864 430.268C66.1058 428.509 64.1614 426.547 62.8071 423.991C62.2094 422.858 61.7365 421.63 61.0859 420.542C58.8955 416.885 55.0634 415.34 51.9273 412.838C50.6033 411.786 49.3701 410.54 47.9061 409.801C46.2983 408.986 44.5203 408.832 42.7802 408.691C41.354 408.573 35.8839 407.209 35.1802 408.736C34.1816 410.898 37.3479 414.057 38.6152 414.818C40.7223 416.083 43.132 416.405 45.3337 417.406C47.3238 418.386 49.1715 419.738 50.8076 421.412C51.5227 422.044 52.1486 422.809 52.6612 423.678C53.206 424.698 53.4594 425.899 53.9172 426.978C55.385 430.436 58.5589 432.017 61.3999 434.052C60.646 434.091 59.9041 434.292 59.2095 434.646C57.0948 435.797 56.1113 438.647 54.7343 440.891C53.5048 442.88 51.8857 444.471 50.5314 446.329C49.1771 448.187 48.0498 450.512 48.152 452.982C48.2163 454.546 48.7421 456.254 48.0498 457.582C49.6424 458.407 51.602 459.395 53.327 459.644C55.0521 459.893 56.9208 459.499 58.2108 458.108C58.6104 457.597 59.0388 457.12 59.4932 456.68C60.5865 455.805 62.0846 456.05 63.2535 456.766C64.4224 457.482 65.3871 458.602 66.4576 459.522C67.9863 460.818 69.7283 461.709 71.5672 462.135C73.4062 462.561 75.2999 462.512 77.1218 461.992C77.8784 461.774 78.9641 461.588 78.7295 460.718C77.1284 459.823 75.7653 458.414 74.7912 456.648C73.817 454.882 73.2698 452.827 73.2102 450.711C74.4014 450.439 75.632 450.56 76.7702 451.061C77.9084 451.563 78.9113 452.426 79.6715 453.558C78.6198 453.612 77.9238 455.307 78.5366 456.34C80.5401 456.292 82.5049 455.67 84.2663 454.525C86.0276 453.38 87.5342 451.746 88.6598 449.76C89.4856 449.354 90.3836 449.205 91.2703 449.327C92.157 449.449 93.0037 449.837 93.7317 450.455C94.4597 451.074 95.0455 451.903 95.4345 452.865C95.8236 453.827 96.0033 454.892 95.9571 455.96L101.427 459.195C102.286 459.703 103.198 460.224 104.155 460.147C105.112 460.07 106.088 459.145 106.016 458.003C105.933 456.694 104.62 455.357 105.339 454.378C106.625 455.067 107.609 456.426 108.929 457.02C110.249 457.614 112.193 456.821 112.122 455.135C112.063 454.573 111.882 454.04 111.596 453.589C110.117 450.889 108.15 448.622 105.842 446.954C105.672 445.473 108.49 443.846 109.345 444.951L116.275 454.101C116.814 454.889 117.453 455.571 118.167 456.123C120.645 457.84 123.739 456.123 126.599 456.123C129.693 456.123 132.86 458.235 135.738 456.889C136.495 456.54 137.252 455.683 137.036 454.749C136.866 454.079 136.302 453.73 135.795 453.431Z" fill="#3F3D56"/>
<path d="M154.521 282.947C154.522 280.687 154.176 278.446 153.499 276.335C156.933 274.876 159.826 272.01 161.668 268.244C163.509 264.478 164.181 260.053 163.564 255.751C162.946 251.449 161.08 247.547 158.294 244.733C155.509 241.92 151.983 240.376 148.339 240.374C148.336 235.843 146.945 231.471 144.43 228.086C141.916 224.701 138.452 222.538 134.696 222.007C130.939 221.477 127.151 222.615 124.048 225.207C120.945 227.798 118.744 231.663 117.86 236.069C117.72 236.069 117.58 236.069 117.437 236.069C117.454 231.445 116.026 226.982 113.433 223.556C110.841 220.131 107.273 217.991 103.43 217.559C99.5878 217.128 95.7495 218.434 92.6707 221.222C89.592 224.01 87.4958 228.078 86.7946 232.625C84.5158 230.479 81.7791 229.145 78.8972 228.775C76.0154 228.404 73.1047 229.013 70.4979 230.531C67.8912 232.049 65.6935 234.415 64.1562 237.358C62.6189 240.302 61.8039 243.704 61.8045 247.177C58.4789 247.179 55.2427 248.467 52.5768 250.849C49.911 253.23 47.9578 256.579 47.0077 260.397C46.0575 264.215 46.1611 268.299 47.303 272.04C48.4449 275.782 50.5642 278.983 53.3458 281.166C53.1489 282.361 53.0488 283.575 53.047 284.792C50.6756 284.79 48.3354 285.441 46.2079 286.696C44.0803 287.951 42.2224 289.776 40.778 292.029C39.3335 294.282 38.3413 296.903 37.8782 299.689C37.415 302.476 37.4933 305.352 38.1071 308.096C38.7209 310.841 39.8536 313.379 41.4176 315.514C42.9815 317.65 44.9348 319.326 47.1261 320.412C49.3174 321.498 51.688 321.965 54.0543 321.778C56.4205 321.59 58.719 320.753 60.7718 319.33C63.1203 320.957 65.7854 321.814 68.4984 321.814C71.2114 321.814 73.8765 320.957 76.2251 319.33C79.0868 321.313 82.4043 322.142 85.689 321.696C88.9737 321.249 92.0519 319.551 94.4703 316.851C94.7388 316.851 95.0074 316.874 95.2798 316.874C97.992 316.877 100.657 316.022 103.005 314.395C106.463 316.795 110.564 317.494 114.444 316.343C116.863 318.487 119.753 319.737 122.757 319.94C125.761 320.142 128.749 319.289 131.354 317.486C133.702 319.112 136.366 319.969 139.079 319.969C141.791 319.969 144.456 319.112 146.804 317.486C148.856 318.905 151.153 319.739 153.517 319.925C155.882 320.11 158.25 319.642 160.439 318.556C162.628 317.47 164.58 315.795 166.142 313.66C167.705 311.526 168.836 308.99 169.45 306.248C170.063 303.507 170.142 300.632 169.68 297.848C169.219 295.064 168.228 292.444 166.786 290.192C165.344 287.939 163.489 286.115 161.364 284.858C159.239 283.602 156.902 282.948 154.532 282.947H154.521ZM83.9612 284.801C83.9593 284.005 83.9151 283.211 83.8288 282.422C84.2071 282.195 84.6157 281.969 84.9902 281.701C85.6102 282.127 86.2535 282.503 86.9157 282.825C86.1521 283.415 85.4331 284.084 84.767 284.824C84.5022 284.81 84.2298 284.801 83.9612 284.801Z" fill="#5CA463"/>
<path d="M207.051 385.37C207.051 375.15 199.212 366.861 189.539 366.861C179.866 366.861 172.032 375.15 172.032 385.37C162.359 385.37 154.521 393.659 154.521 403.883C154.521 414.107 162.359 422.391 172.032 422.391C175.074 422.4 178.074 421.544 180.786 419.894C183.503 421.527 186.501 422.377 189.541 422.377C192.581 422.377 195.58 421.527 198.297 419.894C201.01 421.54 204.01 422.391 207.051 422.378C216.724 422.378 224.562 414.093 224.562 403.869C224.562 393.645 216.724 385.37 207.051 385.37Z" fill="#5CA463"/>
<path d="M154.521 347.736C154.553 345.281 154.177 342.843 153.415 340.563C152.653 338.284 151.52 336.209 150.082 334.459C148.644 332.709 146.93 331.319 145.039 330.371C143.148 329.422 141.119 328.934 139.069 328.934C137.02 328.934 134.991 329.422 133.1 330.371C131.209 331.319 129.495 332.709 128.057 334.459C126.619 336.209 125.486 338.284 124.724 340.563C123.962 342.843 123.586 345.281 123.618 347.736C121.249 347.738 118.912 348.392 116.787 349.648C114.663 350.904 112.808 352.729 111.366 354.981C109.925 357.233 108.935 359.852 108.473 362.636C108.011 365.419 108.089 368.293 108.702 371.034C109.315 373.776 110.447 376.312 112.008 378.446C113.57 380.58 115.521 382.255 117.709 383.342C119.897 384.429 122.265 384.899 124.629 384.714C126.993 384.53 129.29 383.697 131.343 382.279C133.692 383.903 136.356 384.758 139.068 384.758C141.779 384.758 144.444 383.903 146.792 382.279C148.844 383.698 151.142 384.533 153.506 384.718C155.871 384.904 158.239 384.435 160.428 383.349C162.617 382.263 164.569 380.588 166.131 378.454C167.693 376.32 168.825 373.784 169.439 371.042C170.052 368.3 170.131 365.426 169.669 362.641C169.207 359.857 168.217 357.238 166.775 354.985C165.333 352.733 163.478 350.908 161.353 349.652C159.228 348.396 156.89 347.742 154.521 347.741V347.736Z" fill="#5CA463"/>
<path d="M87.0521 340.331C87.0521 330.107 78.0563 321.823 66.9647 321.823C55.8731 321.823 46.8772 330.107 46.8772 340.331C35.7857 340.331 26.7936 348.62 26.7936 358.84C26.7936 369.059 35.7857 377.353 46.8772 377.353C50.3333 377.375 53.7548 376.529 56.921 374.869C60.0928 376.508 63.5106 377.353 66.9647 377.353C70.4188 377.353 73.8365 376.508 77.0084 374.869C80.1746 376.529 83.5961 377.375 87.0521 377.353C98.1437 377.353 107.136 369.064 107.136 358.84C107.136 348.616 98.1437 340.331 87.0521 340.331Z" fill="#5CA463"/>
<path d="M49.4533 394.628C49.4864 392.01 49.0846 389.411 48.2713 386.981C47.4579 384.55 46.2492 382.338 44.7156 380.473C43.182 378.608 41.354 377.126 39.338 376.115C37.3221 375.104 35.1584 374.583 32.9729 374.583C30.7874 374.583 28.6237 375.104 26.6078 376.115C24.5918 377.126 22.7639 378.608 21.2302 380.473C19.6966 382.338 18.4879 384.55 17.6746 386.981C16.8612 389.411 16.4594 392.01 16.4925 394.628C13.9635 394.626 11.468 395.322 9.19931 396.661C6.93058 397.999 4.94942 399.946 3.40921 402.349C1.869 404.752 0.811052 407.547 0.317246 410.519C-0.176559 413.49 -0.0929712 416.558 0.561542 419.484C1.21606 422.411 2.42393 425.118 4.09168 427.395C5.75943 429.673 7.84232 431.46 10.1791 432.619C12.5159 433.778 15.0439 434.276 17.5674 434.077C20.0909 433.878 22.5423 432.985 24.7318 431.469C27.2371 433.203 30.0795 434.115 32.9729 434.115C35.8663 434.115 38.7087 433.203 41.2141 431.469C43.4031 432.982 45.8533 433.871 48.3751 434.069C50.897 434.266 53.423 433.766 55.7577 432.607C58.0924 431.448 60.1733 429.661 61.8395 427.385C63.5057 425.108 64.7125 422.403 65.3665 419.479C66.0206 416.554 66.1044 413.489 65.6115 410.519C65.1185 407.55 64.0621 404.756 62.5238 402.354C60.9855 399.951 59.0067 398.005 56.7402 396.666C54.4738 395.326 51.9806 394.629 49.4533 394.628Z" fill="#5CA463"/>
<path opacity="0.1" d="M49.4533 394.628C49.4864 392.01 49.0846 389.411 48.2713 386.981C47.4579 384.55 46.2492 382.338 44.7156 380.473C43.182 378.608 41.354 377.126 39.338 376.115C37.3221 375.104 35.1584 374.583 32.9729 374.583C30.7874 374.583 28.6237 375.104 26.6078 376.115C24.5918 377.126 22.7639 378.608 21.2302 380.473C19.6966 382.338 18.4879 384.55 17.6746 386.981C16.8612 389.411 16.4594 392.01 16.4925 394.628C13.9635 394.626 11.468 395.322 9.19931 396.661C6.93058 397.999 4.94942 399.946 3.40921 402.349C1.869 404.752 0.811052 407.547 0.317246 410.519C-0.176559 413.49 -0.0929712 416.558 0.561542 419.484C1.21606 422.411 2.42393 425.118 4.09168 427.395C5.75943 429.673 7.84232 431.46 10.1791 432.619C12.5159 433.778 15.0439 434.276 17.5674 434.077C20.0909 433.878 22.5423 432.985 24.7318 431.469C27.2371 433.203 30.0795 434.115 32.9729 434.115C35.8663 434.115 38.7087 433.203 41.2141 431.469C43.4031 432.982 45.8533 433.871 48.3751 434.069C50.897 434.266 53.423 433.766 55.7577 432.607C58.0924 431.448 60.1733 429.661 61.8395 427.385C63.5057 425.108 64.7125 422.403 65.3665 419.479C66.0206 416.554 66.1044 413.489 65.6115 410.519C65.1185 407.55 64.0621 404.756 62.5238 402.354C60.9855 399.951 59.0067 398.005 56.7402 396.666C54.4738 395.326 51.9806 394.629 49.4533 394.628Z" fill="black"/>
<path d="M48.4243 395.245C48.4564 392.79 48.0804 390.351 47.3183 388.072C46.5562 385.792 45.4232 383.717 43.9852 381.967C42.5472 380.217 40.833 378.828 38.9424 377.879C37.0518 376.931 35.0226 376.442 32.9729 376.442C30.9232 376.442 28.8939 376.931 27.0033 377.879C25.1127 378.828 23.3985 380.217 21.9606 381.967C20.5226 383.717 19.3896 385.792 18.6274 388.072C17.8653 390.351 17.4894 392.79 17.5214 395.245C15.1518 395.245 12.8139 395.898 10.6886 397.154C8.56336 398.41 6.70771 400.234 5.2652 402.487C3.82268 404.739 2.83197 407.358 2.3697 410.143C1.90743 412.927 1.98598 415.801 2.59929 418.544C3.21259 421.286 4.34421 423.822 5.90661 425.957C7.469 428.091 9.42031 429.766 11.6096 430.853C13.7988 431.939 16.1674 432.408 18.532 432.222C20.8966 432.037 23.1939 431.202 25.2462 429.783C27.5957 431.407 30.2604 432.262 32.9729 432.262C35.6853 432.262 38.3501 431.407 40.6995 429.783C42.7518 431.202 45.0491 432.037 47.4137 432.222C49.7784 432.408 52.1469 431.939 54.3362 430.853C56.5254 429.766 58.4767 428.091 60.0391 425.957C61.6015 423.822 62.7332 421.286 63.3465 418.544C63.9598 415.801 64.0383 412.927 63.576 410.143C63.1138 407.358 62.1231 404.739 60.6806 402.487C59.238 400.234 57.3824 398.41 55.2571 397.154C53.1319 395.898 50.794 395.245 48.4243 395.245Z" fill="#5CA463"/>
<path opacity="0.1" d="M96.8347 244.693C100.437 244.693 103.917 246.252 106.636 249.084C109.354 251.916 111.126 255.829 111.626 260.102C111.921 257.664 111.793 255.18 111.25 252.805C110.707 250.429 109.76 248.213 108.468 246.297C107.177 244.38 105.57 242.803 103.746 241.665C101.923 240.527 99.9231 239.852 97.8719 239.683C95.8208 239.514 93.7625 239.854 91.8261 240.681C89.8897 241.509 88.1168 242.807 86.6185 244.494C85.1202 246.18 83.9287 248.22 83.1187 250.483C82.3086 252.747 81.8975 255.187 81.911 257.65C81.9127 258.476 81.9608 259.302 82.0547 260.12C82.5518 255.846 84.3213 251.931 87.0372 249.096C89.7531 246.262 93.2326 244.698 96.8347 244.693Z" fill="black"/>
<path opacity="0.1" d="M127.503 276.639C130.779 278.441 133.4 281.601 134.884 285.537C136.367 289.472 136.613 293.917 135.576 298.053C136.678 295.985 137.413 293.668 137.736 291.245C138.059 288.823 137.963 286.347 137.453 283.971C136.943 281.595 136.031 279.37 134.773 277.434C133.515 275.498 131.939 273.893 130.141 272.718C128.344 271.543 126.364 270.823 124.324 270.604C122.285 270.384 120.229 270.67 118.286 271.442C116.342 272.214 114.552 273.457 113.026 275.094C111.501 276.73 110.272 278.724 109.417 280.954C109.131 281.705 108.889 282.479 108.691 283.269C110.631 279.631 113.604 276.956 117.061 275.737C120.519 274.519 124.227 274.839 127.503 276.639Z" fill="black"/>
<path opacity="0.1" d="M83.7268 290.212C87.0023 292.014 89.6236 295.174 91.1072 299.11C92.5908 303.045 92.8367 307.49 91.7996 311.626C92.17 310.929 92.5011 310.204 92.7907 309.455C94.421 305.146 94.5606 300.24 93.1791 295.808C91.7975 291.376 89.0072 287.781 85.4185 285.807C81.8298 283.834 77.7347 283.643 74.029 285.277C70.3233 286.911 67.3086 290.237 65.6443 294.527C65.3585 295.278 65.1159 296.052 64.918 296.842C66.8581 293.205 69.8305 290.531 73.2871 289.312C76.7437 288.094 80.4514 288.413 83.7268 290.212Z" fill="black"/>
<path opacity="0.1" d="M68.1789 347.532C69.8014 349.238 70.8543 351.589 71.1435 354.152C71.4327 356.715 70.9387 359.316 69.7526 361.477C70.0658 361.154 70.3603 360.806 70.634 360.435C72.1987 358.298 72.9906 355.503 72.8356 352.667C72.6806 349.83 71.5913 347.184 69.8075 345.309C68.9242 344.381 67.897 343.671 66.7844 343.218C65.6719 342.765 64.4959 342.58 63.3235 342.672C60.9557 342.858 58.7465 344.162 57.1819 346.3C56.9067 346.672 56.6539 347.067 56.4253 347.482C58.0593 345.789 60.1495 344.861 62.3099 344.871C64.4703 344.88 66.555 345.825 68.1789 347.532Z" fill="black"/>
<path opacity="0.1" d="M208.78 396.894C210.402 398.598 211.456 400.947 211.746 403.509C212.035 406.07 211.542 408.67 210.357 410.83C210.669 410.507 210.962 410.159 211.235 409.788C212.009 408.73 212.602 407.5 212.98 406.167C213.358 404.835 213.512 403.426 213.436 402.022C213.359 400.618 213.052 399.246 212.533 397.984C212.013 396.722 211.291 395.595 210.408 394.667C209.525 393.739 208.498 393.029 207.386 392.576C206.274 392.124 205.098 391.939 203.926 392.03C202.754 392.122 201.609 392.49 200.555 393.112C199.502 393.735 198.561 394.599 197.786 395.657C197.511 396.028 197.259 396.422 197.03 396.836C198.664 395.144 200.754 394.218 202.914 394.229C205.074 394.24 207.157 395.187 208.78 396.894Z" fill="black"/>
<path opacity="0.1" d="M33.4628 396.741C35.192 395.186 37.3327 394.435 39.4888 394.626C41.6448 394.816 43.6701 395.936 45.1899 397.778C44.9917 397.344 44.768 396.928 44.5203 396.532C43.0812 394.315 40.9732 392.863 38.6498 392.489C36.3264 392.115 33.9731 392.848 32.0964 394.531C30.2196 396.214 28.9692 398.712 28.6142 401.488C28.2592 404.265 28.8279 407.097 30.1981 409.376C30.4454 409.77 30.7146 410.144 31.0039 410.495C29.9604 408.233 29.6345 405.594 30.0864 403.067C30.5382 400.539 31.7373 398.293 33.4628 396.741Z" fill="black"/>
<path opacity="0.1" d="M137.498 356.632C139.227 355.079 141.368 354.328 143.523 354.519C145.679 354.71 147.704 355.829 149.225 357.67C149.026 357.236 148.802 356.82 148.555 356.424C147.86 355.268 146.98 354.29 145.967 353.547C144.953 352.803 143.825 352.309 142.65 352.094C141.475 351.878 140.276 351.945 139.123 352.291C137.97 352.637 136.886 353.254 135.934 354.108C134.983 354.961 134.182 356.033 133.581 357.261C132.979 358.489 132.587 359.849 132.429 361.26C132.27 362.671 132.348 364.106 132.658 365.481C132.968 366.856 133.503 368.143 134.233 369.267C134.48 369.664 134.751 370.04 135.042 370.391C133.998 368.129 133.672 365.49 134.123 362.962C134.574 360.434 135.772 358.186 137.498 356.632Z" fill="black"/>
<path d="M121.272 436.839C120.281 435.933 120.406 433.744 120.406 433.744C120.406 433.744 122.135 433.055 123.126 433.975C124.117 434.895 124.503 436.286 123.992 437.075C123.482 437.864 122.264 437.764 121.272 436.839Z" fill="#5CA463"/>
<path d="M124.677 460.859C123.686 459.952 123.811 457.763 123.811 457.763C123.811 457.763 125.54 457.074 126.531 457.994C127.522 458.914 127.908 460.306 127.397 461.094C126.886 461.883 125.668 461.783 124.677 460.859Z" fill="#5CA463"/>
<path d="M144.727 445.45C143.736 444.544 143.86 442.355 143.86 442.355C143.86 442.355 145.589 441.666 146.58 442.586C147.571 443.506 147.957 444.897 147.447 445.686C146.936 446.474 145.718 446.374 144.727 445.45Z" fill="#5CA463"/>
<path d="M47.2479 375.368C48.0234 374.189 49.843 374.362 49.843 374.362C49.843 374.362 50.3953 376.442 49.6161 377.62C48.8368 378.798 47.6754 379.247 47.021 378.626C46.3665 378.005 46.4686 376.546 47.2479 375.368Z" fill="#5CA463"/>
<path opacity="0.1" d="M58.646 288.123C63.8691 288.123 68.1033 283.05 68.1033 276.793C68.1033 270.536 63.8691 265.463 58.646 265.463C53.4228 265.463 49.1886 270.536 49.1886 276.793C49.1886 283.05 53.4228 288.123 58.646 288.123Z" fill="#5CA463"/>
<path d="M109.705 445.235C109.705 445.235 119.768 442.024 122.454 437.746C125.14 433.468 137.214 425.979 138.555 431.329C139.897 436.679 156.676 454.863 145.277 458.074C133.879 461.285 118.441 462.352 115.086 460.213C111.731 458.074 109.705 445.235 109.705 445.235Z" fill="#A8A8A8"/>
<defs>
<linearGradient id="paint0_linear" x1="439.03" y1="420.327" x2="440.362" y2="418.244" gradientUnits="userSpaceOnUse">
<stop stop-color="white"/>
<stop offset="1"/>
</linearGradient>
</defs>
</svg>
