<svg width="2024" height="121" viewBox="0 0 2024 121" fill="none" xmlns="http://www.w3.org/2000/svg">
<path fill-rule="evenodd" clip-rule="evenodd" d="M0 17.2601L84.3333 22.2001C168.667 27.1401 337.333 37.0201 506 34.5501C674.667 32.0801 843.333 -2.34326 1012 0.126736C1180.67 2.59673 1349.33 41.9601 1518 41.9601C1686.67 41.9601 1855.33 22.2001 1939.67 12.3201L2024 2.4401V121H1939.67C1855.33 121 1686.67 121 1518 121C1349.33 121 1180.67 121 1012 121C843.333 121 674.667 121 506 121C337.333 121 168.667 121 84.3333 121H0V17.2601Z" fill="white"/>
</svg>
