<svg width="707" height="619" viewBox="0 0 707 619" fill="none" xmlns="http://www.w3.org/2000/svg">
<mask id="path-1-inside-1" fill="white">
<path d="M675.611 265.276V166.115H627.033V101.703H594.149V166.115H545.571V265.276H518.666V42.3764H464.109V21.1882H391.615V0H319.869V21.1882H251.859V42.3764H192.818V264.429H161.429V165.268H112.851V100.856H79.9672V165.268H31.389V264.429H0V616.152H71.7463V491.566H121.072V616.152H313.89V471.225H397.594V616.152H514.182V617H585.928V492.413H635.254V617H707V265.276H675.611ZM25.7838 307.652H54.1834V333.078H25.7838V307.652ZM26.1575 378.845H54.5571V404.271H26.1575V378.845ZM54.9308 475.463H26.5312V450.037H54.9308V475.463ZM129.293 245.783H63.5254V230.527H129.293V245.783ZM129.293 223.747H63.5254V208.492H129.293V223.747ZM129.293 201.712H63.5254V186.456H129.293V201.712ZM138.635 307.652H167.034V333.078H138.635V307.652ZM139.008 378.845H167.408V404.271H139.008V378.845ZM167.782 475.463H139.382V450.037H167.782V475.463ZM283.996 433.087H231.681V406.813H283.996V433.087ZM283.996 357.657H231.681V331.383H283.996V357.657ZM283.996 282.227H231.681V255.953H283.996V282.227ZM283.996 206.797H231.681V180.523H283.996V206.797ZM283.996 131.367H231.681V105.093H283.996V131.367ZM381.9 433.087H329.585V406.813H381.9V433.087ZM381.9 357.657H329.585V331.383H381.9V357.657ZM381.9 282.227H329.585V255.953H381.9V282.227ZM381.9 206.797H329.585V180.523H381.9V206.797ZM381.9 131.367H329.585V105.093H381.9V131.367ZM479.803 433.087H427.488V406.813H479.803V433.087ZM479.803 357.657H427.488V331.383H479.803V357.657ZM479.803 282.227H427.488V255.953H479.803V282.227ZM479.803 206.797H427.488V180.523H479.803V206.797ZM479.803 131.367H427.488V105.093H479.803V131.367ZM539.966 308.5H568.365V333.926H539.966V308.5ZM540.339 379.692H568.739V405.118H540.339V379.692ZM569.113 476.31H540.713V450.885H569.113V476.31ZM643.475 246.63H577.707V231.375H643.475V246.63ZM643.475 224.595H577.707V209.339H643.475V224.595ZM643.475 202.559H577.707V187.304H643.475V202.559ZM652.817 308.5H681.216V333.926H652.817V308.5ZM653.19 379.692H681.59V405.118H653.19V379.692ZM681.964 476.31H653.564V450.885H681.964V476.31Z"/>
</mask>
<path d="M675.611 265.276V166.115H627.033V101.703H594.149V166.115H545.571V265.276H518.666V42.3764H464.109V21.1882H391.615V0H319.869V21.1882H251.859V42.3764H192.818V264.429H161.429V165.268H112.851V100.856H79.9672V165.268H31.389V264.429H0V616.152H71.7463V491.566H121.072V616.152H313.89V471.225H397.594V616.152H514.182V617H585.928V492.413H635.254V617H707V265.276H675.611ZM25.7838 307.652H54.1834V333.078H25.7838V307.652ZM26.1575 378.845H54.5571V404.271H26.1575V378.845ZM54.9308 475.463H26.5312V450.037H54.9308V475.463ZM129.293 245.783H63.5254V230.527H129.293V245.783ZM129.293 223.747H63.5254V208.492H129.293V223.747ZM129.293 201.712H63.5254V186.456H129.293V201.712ZM138.635 307.652H167.034V333.078H138.635V307.652ZM139.008 378.845H167.408V404.271H139.008V378.845ZM167.782 475.463H139.382V450.037H167.782V475.463ZM283.996 433.087H231.681V406.813H283.996V433.087ZM283.996 357.657H231.681V331.383H283.996V357.657ZM283.996 282.227H231.681V255.953H283.996V282.227ZM283.996 206.797H231.681V180.523H283.996V206.797ZM283.996 131.367H231.681V105.093H283.996V131.367ZM381.9 433.087H329.585V406.813H381.9V433.087ZM381.9 357.657H329.585V331.383H381.9V357.657ZM381.9 282.227H329.585V255.953H381.9V282.227ZM381.9 206.797H329.585V180.523H381.9V206.797ZM381.9 131.367H329.585V105.093H381.9V131.367ZM479.803 433.087H427.488V406.813H479.803V433.087ZM479.803 357.657H427.488V331.383H479.803V357.657ZM479.803 282.227H427.488V255.953H479.803V282.227ZM479.803 206.797H427.488V180.523H479.803V206.797ZM479.803 131.367H427.488V105.093H479.803V131.367ZM539.966 308.5H568.365V333.926H539.966V308.5ZM540.339 379.692H568.739V405.118H540.339V379.692ZM569.113 476.31H540.713V450.885H569.113V476.31ZM643.475 246.63H577.707V231.375H643.475V246.63ZM643.475 224.595H577.707V209.339H643.475V224.595ZM643.475 202.559H577.707V187.304H643.475V202.559ZM652.817 308.5H681.216V333.926H652.817V308.5ZM653.19 379.692H681.59V405.118H653.19V379.692ZM681.964 476.31H653.564V450.885H681.964V476.31Z" fill="white" stroke="#5C3D53" stroke-width="2" mask="url(#path-1-inside-1)"/>
<path d="M160.389 397.034C160.509 404.981 197.384 493.427 192.264 504.943C184.193 512.687 166.833 553.902 159.416 564.897C158.445 564.897 153.585 578.581 153.585 578.581C153.585 578.581 165.248 595.915 177.884 588.617C193.771 553.543 233.561 533.981 234.264 488.267C236.184 502.708 241.853 595.401 241.853 595.401C241.853 595.401 240.766 595.835 265.245 598.036C269.045 544.238 284.575 452.71 249.806 395.208C239.116 390.648 160.389 397.034 160.389 397.034Z" fill="#2F2E41"/>
<path d="M241.852 593.597C240.715 595.648 232.566 614.581 239.982 616.479C248.534 618.668 256.824 615.601 256.824 615.601C256.824 615.601 271.794 619.992 280.956 614.411C285.232 610.398 284.26 606.749 282.219 604.104C281.182 602.8 279.855 601.725 278.33 600.954C276.804 600.182 275.118 599.732 273.388 599.636C268.739 599.324 267.262 598.516 266.73 596.516C265.952 593.597 241.852 593.597 241.852 593.597Z" fill="#2F2E41"/>
<path d="M161.879 577.064C161.879 577.064 140.989 583.256 145.386 590.48C148.243 594.958 152.413 598.567 157.399 600.877C157.399 600.877 161.755 617.736 173.85 617.736C179.897 617.736 181.958 614.511 182.508 611.286C182.756 609.677 182.628 608.035 182.13 606.477C181.633 604.919 180.78 603.482 179.629 602.265C176.576 598.96 176.141 597.408 177.271 595.64C178.92 593.06 161.879 577.064 161.879 577.064Z" fill="#2F2E41"/>
<path d="M254.672 399.704C254.672 399.704 250.779 407.003 235.229 404.262C219.678 401.531 158.449 404.262 158.449 404.262C158.449 404.262 161.846 339.036 154.07 299.805C146.295 260.575 176.91 238.224 176.91 238.224L186.631 229.099C196.352 228.194 216.881 256.508 216.881 256.508C223.636 257.571 229.942 284.524 235.322 310.028C235.641 311.486 235.94 312.926 236.239 314.366C238.719 326.258 242.171 339.493 244.239 351.375C244.389 352.218 244.529 353.053 244.66 353.887C247.118 369.317 250.46 384.612 254.672 399.704Z" fill="#C75CED"/>
<path opacity="0.2" d="M244.239 351.375C221.054 339.545 183.497 313.602 171.38 299.568C155.408 281.081 172.83 267.03 172.83 267.03C192.582 255.332 216.198 295.467 216.198 295.467L235.322 310.028C235.641 311.486 235.94 312.926 236.239 314.366C238.719 326.258 242.171 339.493 244.239 351.375Z" fill="black"/>
<path d="M313.453 337.743C313.453 337.743 347.922 350.877 353.596 336.112C359.269 321.347 326.381 321.601 326.381 321.601L313.47 323.318L313.453 337.743Z" fill="#9F616A"/>
<path d="M168.412 261.021C168.412 261.021 150.998 275.081 166.959 293.562C182.919 312.043 256.268 351.529 256.268 351.529L304.046 339.406L317.567 341.728L320.116 317.901L300.197 319.727L249.633 309.621L217.39 285.064C217.39 285.064 188.158 249.33 168.412 261.021Z" fill="#C75CED"/>
<path opacity="0.2" d="M231.849 430.397L234.895 497.214L227.17 430.397H231.849Z" fill="black"/>
<path d="M560.764 382.601L533.108 388.615C530.969 389.081 528.72 388.745 526.841 387.679C524.961 386.613 523.598 384.901 523.042 382.907C522.719 381.751 522.68 380.541 522.926 379.368C523.173 378.195 523.699 377.09 524.465 376.135C525.231 375.18 526.218 374.401 527.351 373.855C528.484 373.309 529.734 373.011 531.007 372.983L557.721 372.4L560.764 382.601Z" fill="#FFB9B9"/>
<path d="M557.828 386.41L551.686 369.114L588.509 357.308L578.736 276.523C596.332 279.526 604.706 292.514 603.922 309.285L608.686 364.41L557.828 386.41Z" fill="#484285"/>
<path d="M583.05 279.901H647.61V241.23C647.633 230.786 644.235 220.752 638.155 213.307C635.185 209.639 631.635 206.725 627.714 204.738C623.793 202.751 619.582 201.731 615.328 201.738C606.833 201.757 598.686 205.802 592.648 212.999C586.609 220.196 583.165 229.966 583.06 240.197C583.055 240.551 583.05 240.888 583.05 241.23L583.05 279.901Z" fill="#2F2E41"/>
<path d="M668.586 588.715L649.355 586.643L626.34 440.757L578.736 587.235L557.928 587.827L581.573 407.614L578.105 366.482L637.059 349.023C678.815 376.382 677.951 473.019 668.586 588.715Z" fill="#080809"/>
<path d="M608.055 253.146C620.591 253.146 630.754 243.607 630.754 231.84C630.754 220.073 620.591 210.534 608.055 210.534C595.519 210.534 585.356 220.073 585.356 231.84C585.356 243.607 595.519 253.146 608.055 253.146Z" fill="#FFB9B9"/>
<path d="M630.754 270.309L592.292 279.778C598.772 268.081 600.846 257.162 597.336 247.228L624.449 243.085C622.706 252.584 624.967 262.347 630.754 270.309Z" fill="#FFB9B9"/>
<path d="M643.68 357.013C622.107 369.89 596.978 384.683 578.42 370.329L569.593 330.084C562.577 324.219 565.688 306.119 575.173 280.32C575.775 278.682 576.767 277.195 578.073 275.97C579.379 274.746 580.965 273.817 582.71 273.253L597.336 268.534C603.818 273.65 614.444 270.599 626.971 263.799L641.473 267.35L647.778 311.737C638.676 324.537 640.266 341.581 643.68 357.013Z" fill="#484285"/>
<path d="M665.243 616.606C662.013 617.99 659.308 609.414 656.583 611.927C648.963 618.957 630.681 617.381 630.681 617.381C630.067 617.196 629.5 616.896 629.013 616.499C628.527 616.101 628.131 615.616 627.85 615.071C627.57 614.526 627.41 613.934 627.38 613.329C627.351 612.725 627.452 612.121 627.678 611.554C627.949 610.876 628.392 610.27 628.967 609.788C629.543 609.306 630.235 608.962 630.984 608.786L639.088 606.884L651.813 585.879L665.682 584.231L666.032 584.769C668.713 588.825 670.442 593.371 671.103 598.103C671.763 602.836 671.341 607.646 669.864 612.214C668.711 615.682 667.141 615.793 665.243 616.606Z" fill="#2F2E41"/>
<path d="M573.817 616.606C570.587 617.99 567.881 609.414 565.157 611.927C557.536 618.957 539.255 617.381 539.255 617.381C538.641 617.196 538.074 616.896 537.587 616.499C537.1 616.101 536.705 615.616 536.424 615.071C536.143 614.526 535.983 613.934 535.954 613.329C535.924 612.725 536.026 612.121 536.252 611.554C536.523 610.876 536.965 610.27 537.541 609.788C538.117 609.306 538.809 608.962 539.557 608.786L547.662 606.884L560.387 585.879L574.256 584.231L574.606 584.769C577.287 588.825 579.015 593.371 579.676 598.103C580.337 602.836 579.915 607.646 578.438 612.214C577.284 615.682 575.715 615.793 573.817 616.606Z" fill="#2F2E41"/>
<path d="M634.665 214.069L628.948 231.142L579.521 230.317C579.69 224.344 581.843 218.569 585.678 213.8C589.513 209.031 594.84 205.505 600.914 203.716C606.988 201.926 613.505 201.962 619.556 203.818C625.608 205.674 630.89 209.258 634.665 214.069H634.665Z" fill="#2F2E41"/>
<path d="M622.772 378.124L616.63 360.828L653.453 349.023L639.524 266.487C648.033 267.939 655.693 272.235 661.088 278.58C666.482 284.925 669.245 292.889 668.866 300.999L673.63 356.125L622.772 378.124Z" fill="#484285"/>
<path d="M689.096 616.416H122V618.173H689.096V616.416Z" fill="#484285"/>
<path d="M623.699 248.053C613.418 250.759 602.638 250.649 591.418 248.053C594.682 244.526 589.802 241.764 587.297 238.204L629.193 237.417C625.989 240.509 621.262 244.163 623.699 248.053Z" fill="white"/>
<path d="M628.75 238.005L628.263 237.698L628.95 237.263L633.053 234.233L633.575 234.515L629.454 237.558L628.75 238.005Z" fill="white"/>
<path d="M584.426 236.163L583.986 236.497L588.107 238.67L588.547 238.336L584.426 236.163Z" fill="white"/>
<path d="M629.933 240.56L622.72 247.73L623.3 247.964L630.513 240.793L629.933 240.56Z" fill="white"/>
<path d="M585.182 240.56L584.603 240.793L591.815 247.964L592.394 247.731L585.182 240.56Z" fill="white"/>
<g clip-path="url(#clip0)">
<path d="M530.86 364.211V366.167C530.86 371.72 534.195 376.857 539.598 379.359L540.02 379.555H542.807L543.229 379.359C548.632 376.857 551.967 371.72 551.967 366.167V364.211H530.86Z" fill="#5F63C7"/>
<path d="M542.807 379.555H541.414V364.211H551.967V366.167C551.967 371.72 548.632 376.857 543.229 379.359L542.807 379.555Z" fill="#5F63C7"/>
<path d="M546.479 376.387C544.791 376.153 543.102 376.074 541.414 376.074C539.683 376.074 537.994 376.153 536.348 376.387C533.224 376.818 530.86 379.32 530.86 382.254C530.86 385.813 534.237 388.55 538.036 388.042C539.134 387.885 540.274 387.807 541.414 387.807C542.553 387.807 543.693 387.885 544.791 388.042C548.59 388.55 551.967 385.773 551.967 382.254C551.967 379.32 549.603 376.818 546.479 376.387Z" fill="#FEA832"/>
<path d="M551.967 382.254C551.967 385.773 548.59 388.55 544.791 388.042C543.693 387.885 542.553 387.807 541.414 387.807V376.074C543.102 376.074 544.791 376.153 546.479 376.387C549.603 376.818 551.967 379.32 551.967 382.254Z" fill="#FE8821"/>
<path d="M569.993 414.258C569.655 413.945 569.233 413.671 568.853 413.436V409.447C568.853 395.446 556.526 383.896 541.414 383.896C526.301 383.896 513.974 395.446 513.974 409.447V413.436C513.594 413.671 513.172 413.945 512.834 414.258C510.851 416.096 509.753 418.56 509.753 421.18C509.753 423.8 510.851 426.264 512.834 428.102C514.819 429.94 517.478 430.957 520.307 430.957H562.521C565.349 430.957 568.008 429.94 569.993 428.102C571.977 426.264 573.074 423.8 573.074 421.18C573.074 418.56 571.977 416.096 569.993 414.258Z" fill="#5F63C7"/>
<path d="M573.074 421.18C573.074 423.8 571.976 426.264 569.993 428.102C568.008 429.94 565.349 430.957 562.521 430.957H541.414V383.896C556.526 383.896 568.853 395.446 568.853 409.447V413.436C569.233 413.671 569.655 413.945 569.993 414.258C571.976 416.096 573.074 418.56 573.074 421.18Z" fill="#5F63C7"/>
<g clip-path="url(#clip1)">
<path d="M551.716 400.573C551.588 400.447 551.425 400.384 551.226 400.384H547.581C547.339 399.218 546.884 398.207 546.216 397.35H551.183C551.383 397.35 551.546 397.287 551.674 397.161C551.801 397.034 551.865 396.873 551.865 396.676V394.527C551.865 394.33 551.801 394.168 551.674 394.042C551.546 393.916 551.382 393.852 551.183 393.852H533.445C533.246 393.852 533.083 393.916 532.955 394.042C532.827 394.168 532.763 394.33 532.763 394.527V397.329C532.763 397.511 532.83 397.669 532.965 397.803C533.1 397.936 533.26 398.003 533.445 398.003H536.536C539.535 398.003 541.44 398.796 542.25 400.383H533.445C533.246 400.383 533.082 400.446 532.955 400.573C532.827 400.699 532.763 400.861 532.763 401.057V403.207C532.763 403.403 532.827 403.565 532.955 403.691C533.083 403.817 533.246 403.88 533.445 403.88H542.549C542.236 405.032 541.508 405.91 540.363 406.514C539.219 407.118 537.709 407.42 535.833 407.42H533.445C533.26 407.42 533.1 407.487 532.965 407.62C532.83 407.754 532.763 407.912 532.763 408.094V410.77C532.763 410.953 532.827 411.108 532.955 411.234C535.683 414.099 539.223 418.109 543.572 423.264C543.7 423.433 543.878 423.517 544.105 423.517H548.262C548.561 423.517 548.767 423.391 548.881 423.138C549.023 422.885 548.995 422.646 548.795 422.421C544.646 417.393 541.383 413.628 539.01 411.128C541.426 410.848 543.387 410.075 544.894 408.811C546.401 407.547 547.317 405.903 547.644 403.881H551.226C551.425 403.881 551.589 403.818 551.716 403.691C551.844 403.565 551.908 403.404 551.908 403.207V401.058C551.908 400.861 551.844 400.7 551.716 400.573Z" fill="white"/>
</g>
</g>
<path d="M406.212 256.189L386.789 274.37L322.938 273.311L340.495 256.189H406.212Z" fill="#DDA2A6"/>
<path d="M406.212 318.385V256.189L386.789 274.37V335.23L406.212 318.385Z" fill="#B77B7F"/>
<path d="M322.938 273.311V335.23H386.789V274.37L322.938 273.311Z" fill="#DDA2A6"/>
<path opacity="0.3" d="M322.938 273.311V335.23H386.789V274.37L322.938 273.311Z" fill="white"/>
<path d="M381.601 291.413L334.114 283.676L327.924 313.268L376.812 321.792L381.601 291.413Z" fill="#DCE0ED"/>
<path d="M372.22 298.324L340.298 293.564L339.499 297.515L371.421 302.654L372.22 298.324Z" fill="#5F63C7"/>
<path d="M363.442 306.775L345.283 304.273L344.484 308.66L363.442 311.185V306.775Z" fill="#5F63C7"/>
<path d="M398.358 288.832L397.493 264.345L392.502 269.021L393.372 293.564L398.358 288.832Z" fill="#3C3A46"/>
<path d="M334.072 262.455L395.43 263.242L397.493 264.345L392.502 269.021L390.778 268.058L330.005 266.423L334.072 262.455Z" fill="#3C3A46"/>
<path d="M195.379 209.944L189.547 237.313L216.761 256.471L229.397 220.892L195.379 209.944Z" fill="#9F616A"/>
<path d="M217.248 235.032C231.741 235.032 243.49 224.004 243.49 210.4C243.49 196.796 231.741 185.768 217.248 185.768C202.754 185.768 191.005 196.796 191.005 210.4C191.005 224.004 202.754 235.032 217.248 235.032Z" fill="#9F616A"/>
<path d="M186.547 195.063C186.547 195.063 181.641 184.931 194.398 180.326C194.398 180.326 205.192 163.747 226.78 174.799C226.78 174.799 241.5 180.326 241.5 195.063C241.5 209.8 246.406 212.563 246.406 212.563C246.406 212.563 239.099 205.527 237.137 200.001C235.174 194.475 219.911 193.221 214.023 198.747C208.136 204.274 193.416 203.353 193.416 203.353L194.398 223.616C194.398 223.616 189.491 211.642 187.529 211.642C185.566 211.642 183.603 195.063 186.547 195.063Z" fill="black"/>
<path d="M625.709 374.315L598.052 380.33C595.913 380.795 593.665 380.459 591.785 379.393C589.905 378.327 588.542 376.615 587.986 374.621C587.663 373.465 587.624 372.255 587.87 371.082C588.117 369.909 588.643 368.804 589.409 367.849C590.176 366.894 591.162 366.115 592.295 365.569C593.428 365.023 594.678 364.725 595.952 364.697L622.666 364.114L625.709 374.315Z" fill="#FFB9B9"/>
<path d="M236.286 224.882C226.019 229.241 215.253 229.064 204.047 224.882C207.308 219.2 202.434 214.75 199.932 209.015L241.774 207.746C238.574 212.728 233.852 218.615 236.286 224.882Z" fill="white"/>
<path d="M241.33 208.694L240.845 208.199L241.531 207.498L245.629 202.616L246.15 203.072L242.034 207.973L241.33 208.694Z" fill="white"/>
<path d="M197.064 205.726L196.625 206.264L200.741 209.765L201.18 209.227L197.064 205.726Z" fill="white"/>
<path d="M242.513 212.81L235.309 224.363L235.887 224.739L243.091 213.186L242.513 212.81Z" fill="white"/>
<path d="M192.362 204.054L191.011 204.932L203.671 225.24L205.022 224.363L192.362 204.054Z" fill="white"/>
<defs>
<clipPath id="clip0">
<rect width="72.0453" height="66.7458" fill="white" transform="translate(505.391 364.211)"/>
</clipPath>
<clipPath id="clip1">
<rect width="30.0189" height="29.6648" fill="white" transform="translate(527.326 393.852)"/>
</clipPath>
</defs>
</svg>
