<svg width="733" height="601" viewBox="0 0 733 601" fill="none" xmlns="http://www.w3.org/2000/svg">
<path d="M733 247.383C733.027 274.306 724.621 300.636 708.835 323.074C693.05 345.512 670.588 363.06 644.265 373.516C617.942 383.973 588.93 386.874 560.865 381.855C532.8 376.836 506.931 364.121 486.502 345.303C466.073 326.486 451.993 302.404 446.026 276.075C440.059 249.747 442.471 222.345 452.96 197.303C463.449 172.262 481.548 150.696 504.988 135.308C528.428 119.921 556.166 111.397 584.725 110.806C585.175 110.796 585.626 110.787 586.086 110.778C586.733 110.769 587.389 110.769 588.045 110.769C589.69 110.769 591.336 110.796 592.972 110.852C596.576 110.963 600.141 111.196 603.667 111.553C605.704 111.756 607.712 112.006 609.72 112.283C609.945 112.32 610.18 112.347 610.405 112.384C618.691 113.588 626.848 115.475 634.783 118.024C663.429 127.232 688.301 144.655 705.914 167.852C723.527 191.049 732.998 218.859 733 247.383Z" fill="#CCB3EB"/>
<path d="M477.129 254.758C477.416 254.331 476.67 253.401 475.462 252.68C474.255 251.96 473.043 251.721 472.756 252.148C472.47 252.575 473.216 253.505 474.424 254.226C475.631 254.947 476.843 255.185 477.129 254.758Z" fill="#3F3D56"/>
<path d="M472.893 246.816C473.535 245.86 474.555 245.183 475.727 244.935C476.899 244.687 478.127 244.888 479.142 245.494L536.538 279.748C537.552 280.354 538.27 281.315 538.534 282.419C538.797 283.524 538.584 284.682 537.941 285.638L472.893 246.816Z" fill="#D0CDE1"/>
<path d="M467.463 248.628L469.269 245.941C469.708 245.287 470.405 244.825 471.206 244.655C472.007 244.486 472.846 244.623 473.54 245.037L538.889 284.039C539.296 284.281 539.648 284.597 539.925 284.968C540.202 285.339 540.399 285.758 540.505 286.2C540.61 286.643 540.622 287.101 540.54 287.548C540.457 287.995 540.282 288.422 540.025 288.805L538.525 291.038L467.463 248.628Z" fill="#2F2E41"/>
<path d="M477.193 250.104L476.501 251.135L480.874 253.745L481.566 252.714L477.193 250.104Z" fill="#D0CDE1"/>
<path d="M483.206 253.693L482.514 254.723L486.886 257.333L487.579 256.303L483.206 253.693Z" fill="#D0CDE1"/>
<path d="M569.823 128.524C592.354 128.524 610.618 111.311 610.618 90.0768C610.618 68.8427 592.354 51.6291 569.823 51.6291C547.293 51.6291 529.028 68.8427 529.028 90.0768C529.028 111.311 547.293 128.524 569.823 128.524Z" fill="#FFB8B8"/>
<path d="M572.311 117.271C572.311 117.271 592.211 146.81 587.236 155.25C582.261 163.69 566.838 186.665 566.838 186.665C566.838 186.665 635.493 138.84 626.538 128.524C626.538 128.524 606.141 112.114 605.146 101.799L572.311 117.271Z" fill="#FFB8B8"/>
<path d="M627.281 378.939C594.184 387.651 558.884 385.051 527.624 371.601L530.758 292.678L530.993 286.54L531.082 284.546L531.189 281.611L531.268 279.737C531.268 279.737 531.395 279.728 531.64 279.718C532.306 279.672 533.844 279.571 536.047 279.451C538.604 279.312 542.041 279.137 546.047 278.98C546.997 278.943 547.977 278.906 548.985 278.86C570.082 278.121 603.03 277.965 607.389 283.955L607.937 287.481L608.819 293.177L610.621 304.817C610.621 304.817 631.11 343.217 627.281 378.939Z" fill="#2F2E41"/>
<path d="M664.845 176.349L629.603 249.836L614.299 281.738L608.628 293.568L526.541 292.63L534.998 238.71C523.058 209.64 551.416 197.918 551.416 197.918L575.296 173.935V177.756C575.296 177.756 598.678 151.499 609.126 136.495C619.573 121.491 634 127.118 634 127.118C658.875 124.773 664.845 176.349 664.845 176.349Z" fill="#E6E6E6"/>
<path opacity="0.2" d="M629.603 249.836L614.299 281.739C609.384 273.074 605.643 263.26 605.643 257.465C605.643 241.523 622.558 249.963 622.558 249.963C622.558 249.963 608.877 179.397 608.877 158.298C608.877 144.284 621.274 206.48 629.603 249.836Z" fill="black"/>
<path d="M616.09 255.12L541.963 253.714C541.963 253.714 487.736 257.934 495.696 278.564C503.656 299.195 546.938 278.564 546.938 278.564L633.503 291.224L616.09 255.12Z" fill="#FFB8B8"/>
<path d="M630.021 130.869C630.021 130.869 604.151 132.744 604.151 153.843C604.151 174.943 627.533 249.963 627.533 249.963C627.533 249.963 610.618 241.523 610.618 257.465C610.618 273.406 638.975 319.825 641.96 288.879C641.96 288.879 684.745 308.572 682.258 271.531C679.77 234.49 652.905 156.188 652.905 156.188C652.905 156.188 649.92 129.462 630.021 130.869Z" fill="#E6E6E6"/>
<path d="M574.284 98.214C571.255 95.0388 571.311 89.6836 568.869 85.9614C565.036 80.1163 557.053 80.5081 550.499 81.5172C546.142 82.1879 541.722 82.8781 537.679 84.7433C535.87 85.5496 534.258 86.8002 532.971 88.3963C531.684 89.9925 530.757 91.8906 530.263 93.941C529.75 96.2436 528.618 89.7104 527.466 81.2489C526.286 72.6154 527.667 63.799 531.41 56.07C535.153 48.341 541.065 42.0984 548.294 38.2418C548.38 38.1961 548.465 38.151 548.549 38.1066C555.963 34.2049 563.729 30.759 571.923 29.7908C580.116 28.8226 588.86 30.5757 595.286 36.1655C598.223 38.7203 600.612 42.0001 603.761 44.2396C609.294 48.1744 616.3 48.3649 622.874 49.1944C630.309 50.1326 637.762 52.1025 644.18 56.2735C650.599 60.4445 655.917 67.0247 657.702 74.8981C659.783 84.0822 656.386 94.939 648.049 98.9243C646.593 99.5878 645.302 100.614 644.28 101.919C637.434 110.983 648.486 115.943 650.089 123.833C651.427 130.416 645.581 136.377 639.586 138.19C628.421 141.566 615.425 134.841 610.835 123.312C608.778 118.148 608.31 112.434 607.751 106.843C607.11 100.442 591.61 88.8497 602.074 97.5699C604.105 99.2169 605.704 101.408 606.716 103.928C609.899 112.181 603.292 116.866 599.749 122.758C597.82 126.072 596.787 129.906 596.768 133.823C596.749 137.741 597.743 141.586 599.64 144.922C590.454 139.725 585.808 126.697 589.383 116.162C590.334 113.361 591.774 110.772 592.637 107.939C593.985 103.518 592.794 94.9274 586.769 96.6691C582.469 97.9123 578.794 102.941 574.284 98.214Z" fill="#2F2E41"/>
<path d="M290.035 429.228C290.04 456.669 281.277 483.475 264.887 506.155C248.497 528.835 225.24 546.337 198.145 556.382C196.02 557.185 193.855 557.932 191.681 558.625C189.252 559.409 186.797 560.129 184.316 560.785C182.592 561.237 180.852 561.662 179.095 562.059C152.655 568.03 124.97 566.917 99.1644 558.846C97.137 558.209 95.1292 557.526 93.1409 556.815C90.4671 555.846 87.8226 554.803 85.2272 553.686C85.0313 553.612 84.8452 553.529 84.6591 553.446C83.6405 553.003 82.6513 552.56 81.6425 552.089H81.6327C80.2517 551.462 78.8838 550.809 77.5289 550.133C74.4143 548.582 71.3683 546.929 68.3909 545.176C66.8434 544.271 65.3188 543.333 63.817 542.36C40.1801 527.32 21.7784 506.04 10.9177 481.186C0.0568931 456.332 -2.77996 429.01 2.76256 402.644C8.30508 376.278 21.9805 352.039 42.0752 332.965C62.17 313.891 87.7905 300.831 115.727 295.42C118.283 294.922 120.865 294.491 123.474 294.128C125.109 293.888 126.765 293.685 128.42 293.509C129.605 293.38 130.79 293.26 131.995 293.168H132.005C135.227 292.891 138.479 292.719 141.76 292.651C142.21 292.642 142.661 292.632 143.121 292.623C143.376 292.623 143.63 292.614 143.885 292.623H143.895C144.287 292.614 144.678 292.614 145.08 292.614C146.725 292.614 148.371 292.642 150.006 292.697C153.611 292.808 157.176 293.042 160.702 293.399C162.739 293.602 164.747 293.851 166.755 294.128C166.98 294.165 167.215 294.192 167.44 294.229C168.106 294.331 168.782 294.432 169.448 294.543C170.858 294.755 172.259 295.005 173.66 295.272C174.972 295.522 176.275 295.78 177.577 296.057C182.392 297.092 187.145 298.365 191.818 299.869C223.488 310.073 250.451 330.265 268.154 357.035C268.654 357.783 269.144 358.54 269.624 359.306C269.996 359.878 270.348 360.45 270.701 361.032C270.828 361.226 270.946 361.42 271.053 361.614C271.132 361.724 271.191 361.835 271.259 361.946C271.906 363.007 272.532 364.087 273.14 365.167C284.268 384.89 290.07 406.891 290.035 429.228Z" fill="#6C63FF"/>
<path d="M223.667 380.434C223.667 380.434 257.314 352.558 269.813 372.043C282.312 391.528 234.793 399.415 232.048 398.408C229.303 397.401 223.667 380.434 223.667 380.434Z" fill="#A0616A"/>
<path d="M158.219 401.11C158.219 401.11 198.037 388.906 204.827 383.949C211.617 378.992 217.873 375.329 219.245 375.832C220.618 376.336 229.619 373.68 229.619 373.68L240.284 401.43C240.284 401.43 197.721 412.627 196.652 415.214C195.583 417.801 158.219 401.11 158.219 401.11Z" fill="#D0CDE1"/>
<path d="M179.095 562.059C152.655 568.03 124.97 566.917 99.1644 558.846L100.927 543.136L102.563 528.459L127.098 492.708L134.962 481.253L167.372 492.357L170.672 511.973L175.932 543.256L179.095 562.059Z" fill="#2F2E41"/>
<path d="M198.145 556.382C196.02 557.185 193.855 557.933 191.681 558.625C189.252 559.409 186.797 560.129 184.316 560.785C182.592 561.237 180.852 561.662 179.095 562.059C152.655 568.03 124.97 566.918 99.1645 558.846C97.1371 558.209 95.1293 557.526 93.141 556.816C93.4124 562.282 93.2355 567.76 92.6121 573.2C89.7829 566.824 87.3177 560.311 85.2273 553.686C85.0804 553.243 84.9432 552.8 84.8061 552.357C84.1205 550.123 83.5133 547.991 82.9648 545.988C82.338 543.671 81.7993 541.52 81.3487 539.554C79.5564 531.837 78.9883 527.065 78.9883 527.065L98.1361 489.588L101.966 490.004L103.552 490.17L113.151 491.204L127.098 492.708L149.693 495.136L170.672 511.973L189.467 527.065C189.467 527.065 191.035 532.087 193.493 540.403C194.825 544.871 196.402 550.289 198.145 556.382Z" fill="#2F2E41"/>
<path d="M163.885 298.781C182.596 298.781 197.764 284.485 197.764 266.851C197.764 249.217 182.596 234.922 163.885 234.922C145.175 234.922 130.006 249.217 130.006 266.851C130.006 284.485 145.175 298.781 163.885 298.781Z" fill="#A0616A"/>
<path d="M174.736 339.653C174.736 339.653 151.168 293.841 132.019 293.841C112.87 293.841 62.7878 325.771 64.2608 332.712C65.7338 339.653 65.7338 341.042 65.7338 345.206C65.7338 349.371 55.4229 349.371 64.2608 352.148C73.0988 354.924 74.5718 357.701 74.5718 357.701L67.2068 535.396C67.2068 535.396 99.6128 546.502 111.397 542.337C123.181 538.172 134.965 510.408 134.965 510.408C134.965 510.408 132.019 547.89 143.803 546.502C155.587 545.114 199.777 542.337 201.25 536.784C202.723 531.231 192.412 409.066 192.412 409.066L174.736 339.653Z" fill="#D0CDE1"/>
<path d="M282.309 355.148C283.139 354.051 283.459 352.924 283.022 352.631C282.586 352.337 281.559 352.989 280.729 354.085C279.899 355.182 279.58 356.309 280.016 356.602C280.452 356.895 281.479 356.244 282.309 355.148Z" fill="#3F3D56"/>
<path d="M236.045 406.811C235.067 406.153 234.406 405.157 234.208 404.04C234.01 402.924 234.291 401.778 234.988 400.857L274.446 348.736C275.143 347.815 276.201 347.192 277.386 347.006C278.57 346.819 279.785 347.083 280.763 347.741L236.045 406.811L236.045 406.811Z" fill="#D0CDE1"/>
<path d="M237.664 412.02L235.381 410.485C234.59 409.953 234.055 409.146 233.895 408.242C233.735 407.339 233.962 406.412 234.527 405.666L279.452 346.323C279.929 345.693 280.651 345.268 281.461 345.14C282.271 345.012 283.101 345.193 283.769 345.642L286.516 347.49L237.664 412.02L237.664 412.02Z" fill="#2F2E41"/>
<path d="M275.089 356.285L276.142 356.994L279.149 353.023L278.095 352.314L275.089 356.285Z" fill="#D0CDE1"/>
<path d="M270.956 361.746L272.009 362.454L275.015 358.483L273.962 357.775L270.956 361.746Z" fill="#D0CDE1"/>
<g filter="url(#filter0_d)">
<ellipse cx="332.64" cy="98.3073" rx="121.938" ry="65.0766" fill="white"/>
<path d="M454.078 98.3073C454.078 116.003 440.63 132.14 418.628 143.882C396.647 155.613 366.246 162.884 332.64 162.884C299.033 162.884 268.632 155.613 246.652 143.882C224.649 132.14 211.201 116.003 211.201 98.3073C211.201 80.6113 224.649 64.4745 246.652 52.7323C268.632 41.0016 299.033 33.7307 332.64 33.7307C366.246 33.7307 396.647 41.0016 418.628 52.7323C440.63 64.4745 454.078 80.6113 454.078 98.3073Z" stroke="#550052"/>
</g>
<path d="M436.432 133.657L483.5 248" stroke="#550052"/>
<line x1="272.506" y1="351.926" x2="301.293" y2="160.54" stroke="#550052"/>
<g clip-path="url(#clip0)">
<path d="M431.975 88.624C431.061 88.3197 429.89 88.7474 429.329 89.5934L420.108 103.134L402.816 112.543L399.532 107.183L417.353 97.4866C417.723 97.2854 418.028 96.9796 418.214 96.6694L427.321 82.0234C427.857 81.1739 427.529 80.2546 426.595 79.9956C425.671 79.714 424.482 80.1869 423.971 81.0399L415.188 95.1788L397.931 104.569L394.567 99.0787L412.388 89.382C412.783 89.1842 413.115 88.8819 413.328 88.5395L422.026 73.2268C422.503 72.3573 422.122 71.4667 421.179 71.2304C420.236 70.994 419.088 71.4966 418.577 72.3496L410.17 87.1029L392.966 96.4643L389.763 91.2355L407.583 81.5387C408.016 81.2861 408.376 80.9159 408.557 80.5212L416.398 63.8098C416.694 63.1432 416.518 62.4722 415.941 62.1062C415.365 61.7401 414.505 61.7547 413.775 62.1345L396.976 71.2755C396.958 71.2851 396.779 71.069 396.662 70.9932C396.094 70.6401 395.234 70.6548 394.512 71.0477L367.57 85.7078C367.129 85.9473 366.769 86.3176 366.588 86.7123L365.913 88.1778L348.726 97.5297C348.294 97.7823 347.934 98.1525 347.761 98.5603L339.912 115.259C339.616 115.925 339.792 116.596 340.368 116.962C340.945 117.328 341.804 117.314 342.534 116.934L359.299 107.812L362.502 113.041L345.738 122.163C344.769 122.69 344.337 123.709 344.777 124.428C345.218 125.147 346.371 125.304 347.339 124.777L364.103 115.655L367.467 121.145L350.702 130.267C349.734 130.794 349.302 131.814 349.742 132.533C350.183 133.252 351.336 133.409 352.304 132.882L369.068 123.76L372.351 129.119L355.587 138.241C354.619 138.768 354.187 139.788 354.627 140.507C355.068 141.226 356.22 141.383 357.189 140.856L422.238 105.461C422.582 105.256 422.868 104.995 423.054 104.685L432.577 90.7189C433.147 89.886 432.871 88.9377 431.975 88.624ZM395.88 75.4274C395.898 75.4178 395.883 75.356 395.919 75.3368L410.886 67.1923L405.295 79.298L390.309 87.4521L395.88 75.4274ZM358.19 104.929L345.423 111.876L351.015 99.7704L363.729 92.8523L358.214 104.777C358.187 104.809 358.145 104.779 358.19 104.929ZM382.698 101.894L385.075 100.601C386.044 100.074 387.196 100.231 387.637 100.95C388.077 101.669 387.645 102.688 386.677 103.215L384.299 104.509C384.564 105.707 384.428 107.018 383.906 108.313C383.169 110.022 381.75 111.578 379.924 112.659L389.465 113.707L389.49 113.711C390.499 113.824 391.021 114.638 390.672 115.525C390.323 116.412 389.222 117.029 388.213 116.915L374.082 115.349C373.596 115.283 373.176 115.058 372.96 114.705C372.494 113.983 372.926 112.963 373.904 112.414L377.866 110.258C378.983 109.667 379.856 108.792 380.296 107.785C380.461 107.364 380.566 106.924 380.611 106.498L372.881 110.705C371.912 111.232 370.759 111.075 370.319 110.356C369.878 109.637 370.31 108.617 371.279 108.09L379.009 103.884C377.62 103.072 375.793 103.194 374.12 104.104L370.158 106.26C369.189 106.787 368.037 106.63 367.596 105.911C367.156 105.192 367.588 104.173 368.556 103.646L382.362 96.1337C383.331 95.6067 384.483 95.7638 384.924 96.4828C385.364 97.2017 384.932 98.2211 383.954 98.7708L380.555 100.62C381.375 100.924 382.104 101.346 382.698 101.894Z" fill="#484285"/>
</g>
<path d="M582.028 117.717L575.458 130.146C561.706 131.542 547.019 125.452 537.858 116.996L546.483 105.846C553.693 115.632 566.695 117.671 582.028 117.717Z" fill="#F2F2F2"/>
<path d="M573.002 93.3668L546.496 107.79C546.262 107.917 545.99 107.962 545.74 107.915C545.49 107.868 545.283 107.733 545.164 107.539C545.045 107.345 545.024 107.108 545.106 106.881C545.188 106.653 545.365 106.454 545.6 106.326L572.106 91.9037C572.34 91.7762 572.612 91.731 572.862 91.778C573.111 91.8251 573.318 91.9605 573.437 92.1545C573.556 92.3485 573.577 92.5852 573.495 92.8126C573.414 93.0399 573.236 93.2393 573.002 93.3668Z" fill="#F2F2F2"/>
<path d="M581.145 118.198C581.001 118.276 580.84 118.324 580.679 118.338C580.517 118.351 580.358 118.329 580.217 118.274C580.075 118.219 579.955 118.133 579.867 118.022C579.778 117.912 579.725 117.781 579.711 117.641L577.816 99.1638C577.804 99.0511 577.818 98.9348 577.857 98.8218C577.895 98.7087 577.958 98.601 578.042 98.5049C578.125 98.4088 578.227 98.3262 578.343 98.2617C578.458 98.1972 578.584 98.1522 578.714 98.1292C578.844 98.1063 578.975 98.1058 579.099 98.1278C579.223 98.1498 579.338 98.194 579.438 98.2577C579.538 98.3214 579.62 98.4033 579.68 98.4989C579.741 98.5945 579.777 98.7018 579.788 98.8147L581.683 117.291C581.701 117.463 581.659 117.641 581.563 117.802C581.467 117.964 581.321 118.101 581.145 118.198Z" fill="#F2F2F2"/>
<path d="M136.204 268.457L118.473 304.206L168.252 336.702C168.252 336.702 162.393 298.001 173.432 288.2C184.47 278.4 136.204 268.457 136.204 268.457Z" fill="#A0616A"/>
<path d="M92.612 573.2V573.219C91.1037 585.523 86.5298 597.994 74.571 600.643C54.2577 605.148 62.0539 565.806 65.717 550.788C66.5789 547.29 67.2057 545.111 67.2057 545.111L68.3908 545.176L82.9647 545.988L92.2496 546.505C92.2496 546.505 92.6316 549.043 92.9254 553.022C93.0136 554.176 93.0919 555.449 93.1409 556.816C93.4122 562.282 93.2354 567.76 92.612 573.2Z" fill="#A0616A"/>
<path d="M98.1399 328.547L55.423 431.278C55.423 431.278 49.5311 442.384 55.423 450.713C61.315 459.043 52.4771 509.019 58.369 520.125C64.261 531.231 64.261 550.667 64.261 550.667L98.1399 553.443L105.505 431.278L143.803 353.536C143.803 353.536 140.857 321.606 98.1399 328.547Z" fill="#D0CDE1"/>
<path opacity="0.1" d="M109.188 325.077C109.188 325.077 82.6736 332.018 73.8356 357.006L109.188 325.077Z" fill="black"/>
<path opacity="0.1" d="M144.09 383.537L109.398 431.492L98.3033 542.879L144.09 383.537Z" fill="black"/>
<path d="M300.076 0.515577L230.017 12.8689C228.402 13.1536 227.374 14.9809 227.722 16.9502L246.119 121.288C246.466 123.257 248.057 124.623 249.672 124.338L319.731 111.985C321.346 111.7 322.374 109.873 322.026 107.903L303.629 3.56573C303.282 1.59643 301.691 0.230826 300.076 0.515577Z" fill="#464353"/>
<path opacity="0.1" d="M298.388 11.7682L235.452 22.8657L251.138 111.825L314.074 100.728L298.388 11.7682Z" fill="white" stroke="white" stroke-miterlimit="10"/>
<path d="M284.394 115.988C285.859 115.729 286.791 114.068 286.476 112.278C286.16 110.488 284.716 109.246 283.251 109.505C281.786 109.763 280.854 111.424 281.17 113.214C281.485 115.004 282.929 116.246 284.394 115.988Z" fill="white"/>
<path d="M266.468 14.7971C266.22 14.839 265.962 14.7902 265.727 14.657C265.492 14.5237 265.291 14.3119 265.148 14.0484C265.005 13.7849 264.927 13.4813 264.924 13.1762C264.921 12.8711 264.993 12.578 265.132 12.334C265.27 12.0899 265.468 11.9059 265.701 11.8051C265.933 11.7043 266.191 11.6913 266.44 11.7677C266.689 11.8441 266.918 12.0064 267.1 12.2343C267.281 12.4621 267.406 12.7452 267.459 13.0478C267.494 13.2493 267.496 13.4544 267.465 13.6514C267.434 13.8484 267.371 14.0334 267.279 14.1959C267.187 14.3584 267.068 14.4951 266.929 14.5982C266.79 14.7014 266.633 14.769 266.468 14.7971Z" fill="white"/>
<path d="M266.009 11.7205C266.243 11.6774 266.487 11.7203 266.71 11.8436C266.932 11.9669 267.125 12.1651 267.261 12.413C267.398 12.6609 267.473 12.9472 267.477 13.2357C267.482 13.5242 267.414 13.8017 267.285 14.033C267.155 14.2644 266.968 14.439 266.748 14.5349C266.529 14.6307 266.285 14.6433 266.05 14.5712C265.815 14.499 265.598 14.3453 265.427 14.1296C265.256 13.914 265.138 13.646 265.089 13.3599C265.024 12.9804 265.085 12.5957 265.257 12.2889C265.429 11.9822 265.699 11.778 266.009 11.7205ZM265.977 11.5414C265.715 11.5877 265.475 11.7282 265.288 11.9452C265.101 12.1622 264.976 12.4458 264.928 12.7602C264.88 13.0745 264.912 13.4054 265.019 13.7109C265.126 14.0164 265.304 14.2827 265.53 14.4762C265.757 14.6697 266.021 14.7815 266.289 14.7976C266.558 14.8136 266.819 14.7332 267.04 14.5664C267.26 14.3997 267.43 14.1541 267.527 13.8609C267.625 13.5676 267.646 13.2399 267.588 12.9192C267.511 12.4913 267.298 12.1061 266.996 11.848C266.694 11.5898 266.328 11.4795 265.977 11.5414Z" fill="white"/>
<path d="M268.934 34.4154L268.384 31.2935L270.323 30.9516L270.873 34.0735L272.845 33.7259L272.019 29.0447L273.28 28.8225L268.253 24.8803L264.879 30.3039L266.137 30.0819L266.963 34.7631L268.934 34.4154Z" fill="white"/>
<path d="M250.728 52.9155L250.117 49.4479C250.083 49.2526 249.985 49.0766 249.846 48.9588C249.706 48.8409 249.537 48.7908 249.374 48.8195C249.212 48.8482 249.07 48.9532 248.979 49.1116C248.889 49.27 248.857 49.4687 248.891 49.664L249.503 53.1316C249.29 53.3372 249.145 53.6253 249.09 53.9509C249.036 54.2765 249.075 54.6213 249.202 54.9312C249.329 55.2411 249.536 55.4987 249.792 55.6636C250.047 55.8285 250.336 55.8915 250.613 55.8426C250.89 55.7937 251.14 55.6358 251.323 55.3935C251.507 55.1513 251.613 54.8383 251.626 54.5037C251.64 54.1691 251.559 53.8317 251.396 53.5443C251.234 53.257 250.999 53.0358 250.728 52.9155ZM249.292 49.5933C249.286 49.5296 249.299 49.4668 249.33 49.4174C249.362 49.3679 249.408 49.3353 249.461 49.326C249.513 49.3168 249.568 49.3315 249.614 49.3674C249.66 49.4032 249.694 49.4576 249.71 49.5196L249.847 50.2971L249.429 50.3708L249.292 49.5933Z" fill="white" stroke="white" stroke-miterlimit="10"/>
<path opacity="0.3" d="M293.648 44.3551L258.126 50.6185L258.221 51.1587L293.743 44.8953L293.648 44.3551Z" fill="#6C63FF"/>
<path d="M269.361 50.1229C269.89 50.0296 270.227 49.4299 270.113 48.7835C269.999 48.137 269.477 47.6886 268.948 47.7819C268.419 47.8752 268.083 48.4749 268.197 49.1213C268.31 49.7678 268.832 50.2162 269.361 50.1229Z" fill="#6C63FF"/>
<path d="M269.181 48.6693L258.126 50.6185L258.221 51.1587L269.276 49.2095L269.181 48.6693Z" fill="#6C63FF"/>
<path d="M253.179 69.6595C253.161 69.5976 253.125 69.5444 253.077 69.5104C253.029 69.4764 252.973 69.464 252.92 69.4757C252.871 69.4827 252.827 69.509 252.794 69.5505C252.761 69.592 252.741 69.6462 252.738 69.7044L252.769 71.1447C252.769 71.1812 252.773 71.2179 252.779 71.254C252.804 71.3945 252.874 71.521 252.976 71.6056C253.077 71.6903 253.2 71.7261 253.318 71.7053C253.436 71.6845 253.539 71.6087 253.605 71.4946C253.671 71.3805 253.694 71.2375 253.67 71.097C253.661 71.0536 253.649 71.0111 253.632 70.9707L253.179 69.6595ZM254.971 69.9644C254.944 69.9462 254.916 69.9304 254.888 69.9171L253.882 69.3516C253.844 69.3279 253.8 69.3204 253.759 69.3303C253.718 69.3402 253.682 69.3669 253.658 69.4057C253.635 69.4392 253.625 69.4818 253.628 69.5256C253.631 69.5693 253.648 69.6111 253.675 69.643L254.528 70.5214C254.545 70.5425 254.564 70.5618 254.584 70.5789C254.662 70.6357 254.754 70.6583 254.842 70.6428C254.93 70.6273 255.009 70.5746 255.063 70.4944C255.089 70.4557 255.107 70.4105 255.116 70.3617C255.125 70.313 255.126 70.2619 255.117 70.2118C255.108 70.1617 255.09 70.1137 255.065 70.0711C255.04 70.0285 255.007 69.9922 254.97 69.9646L254.971 69.9644ZM255.383 68.8301L254.553 68.9401C254.528 68.9398 254.504 68.9512 254.486 68.972C254.469 68.9927 254.459 69.0211 254.46 69.0512C254.462 69.0796 254.471 69.107 254.487 69.1292C254.503 69.1514 254.525 69.1671 254.549 69.1739L255.393 69.3018C255.514 69.3114 255.632 69.2251 255.607 69.0821C255.576 68.9055 255.517 68.823 255.383 68.8284L255.383 68.8301ZM251.323 69.7426C251.343 69.7281 251.358 69.706 251.366 69.6796C251.373 69.6533 251.373 69.6242 251.365 69.5969C251.355 69.5684 251.336 69.545 251.312 69.5315C251.288 69.5181 251.262 69.5156 251.238 69.5247L250.422 69.705C250.293 69.746 250.269 69.8393 250.301 70.0177C250.326 70.1589 250.463 70.202 250.572 70.1519L251.322 69.7411L251.323 69.7426ZM252.006 69.6806L251.254 70.5543C251.232 70.5761 251.211 70.6004 251.193 70.6269C251.167 70.6656 251.149 70.7108 251.14 70.7595C251.131 70.8083 251.131 70.8594 251.139 70.9095C251.148 70.9596 251.166 71.0076 251.191 71.0502C251.217 71.0928 251.249 71.1291 251.287 71.1567C251.364 71.216 251.457 71.2402 251.545 71.2247C251.633 71.2091 251.712 71.1548 251.765 71.0724C251.779 71.0507 251.791 71.0266 251.799 71.0007L252.301 69.8871C252.315 69.8479 252.317 69.8029 252.305 69.7607C252.293 69.7185 252.268 69.682 252.236 69.6582C252.199 69.6281 252.155 69.6139 252.112 69.6182C252.068 69.6225 252.029 69.645 252 69.6816L252.006 69.6806ZM252.126 64.8597C252.126 64.8597 252.605 65.3214 252.684 65.7682C252.708 65.8637 252.714 65.9627 252.704 66.0591C252.694 66.1555 252.667 66.2472 252.624 66.3285C252.582 66.4097 252.525 66.4788 252.458 66.5315C252.39 66.5841 252.314 66.6192 252.232 66.6344C252.149 66.6489 252.063 66.6434 251.979 66.6183C251.896 66.5931 251.816 66.5488 251.746 66.488C251.675 66.4272 251.615 66.351 251.568 66.264C251.522 66.177 251.49 66.081 251.474 65.9815L251.456 65.8773C251.188 66.4615 251.107 67.15 251.227 67.8241C251.303 68.2578 251.522 68.6482 251.833 68.9094C252.145 69.1706 252.525 69.2813 252.89 69.217C253.254 69.1527 253.573 68.9188 253.777 68.5667C253.981 68.2146 254.052 67.7731 253.976 67.3394C253.781 66.2375 253.097 65.0272 252.12 64.8607L252.126 64.8597ZM252.737 68.6121C252.592 68.6395 252.441 68.5976 252.316 68.4954C252.191 68.3932 252.103 68.2391 252.07 68.0669C252.042 67.9085 252.064 67.7468 252.132 67.6133C252.201 67.4798 252.31 67.3839 252.44 67.3443C252.739 67.2297 252.987 66.9925 253.142 66.6743C253.257 66.9306 253.34 67.203 253.389 67.4829C253.435 67.7434 253.392 68.0084 253.27 68.2198C253.147 68.4313 252.956 68.5717 252.737 68.6103L252.737 68.6121Z" fill="white" stroke="white" stroke-miterlimit="10"/>
<path opacity="0.3" d="M296.474 60.3822L260.952 66.6456L261.016 67.0057L296.537 60.7423L296.474 60.3822Z" fill="#6C63FF"/>
<path d="M280.409 64.5145C280.938 64.4212 281.282 63.8618 281.177 63.2651C281.072 62.6683 280.557 62.2602 280.028 62.3535C279.499 62.4468 279.155 63.0062 279.261 63.6029C279.366 64.1997 279.88 64.6078 280.409 64.5145Z" fill="#6C63FF"/>
<path d="M280.261 63.241L260.952 66.6456L261.016 67.0057L280.324 63.6011L280.261 63.241Z" fill="#6C63FF"/>
<path d="M255.232 86.8311C255.247 86.9131 255.288 86.9868 255.346 87.0363C255.404 87.0859 255.475 87.1072 255.542 87.0957L256.668 86.8973C256.736 86.8848 256.795 86.8406 256.833 86.7742C256.87 86.7077 256.884 86.6244 256.869 86.5424L256.821 86.265L255.183 86.5538L255.232 86.8311ZM255.057 81.0539C254.038 81.2337 253.379 82.306 253.581 83.4531C253.644 83.7947 253.776 84.1176 253.966 84.3923C254.156 84.667 254.398 84.8847 254.669 85.0253L254.788 85.697C254.796 85.7372 254.811 85.7756 254.831 85.81C254.851 85.8444 254.877 85.8741 254.906 85.8973C254.936 85.9206 254.968 85.937 255.002 85.9457C255.036 85.9543 255.07 85.955 255.104 85.9476L256.688 85.6683C256.721 85.6638 256.754 85.6514 256.782 85.6317C256.811 85.6121 256.836 85.5855 256.856 85.5536C256.875 85.5217 256.889 85.485 256.897 85.4458C256.904 85.4065 256.905 85.3654 256.899 85.3247L256.78 84.653C256.988 84.4285 257.141 84.1414 257.226 83.8182C257.311 83.4949 257.325 83.1459 257.266 82.8034C257.064 81.6563 256.077 80.874 255.057 81.0539Z" fill="white" stroke="white" stroke-miterlimit="10"/>
<path opacity="0.3" d="M299.268 76.2291L263.746 82.4926L263.81 82.8527L299.332 76.5893L299.268 76.2291Z" fill="#6C63FF"/>
<path d="M292.416 78.7372C292.904 78.6511 293.215 78.0975 293.109 77.5008C293.004 76.9041 292.523 76.4901 292.034 76.5762C291.546 76.6624 291.235 77.2159 291.341 77.8127C291.446 78.4094 291.927 78.8233 292.416 78.7372Z" fill="#6C63FF"/>
<path d="M292.341 77.4506L263.746 82.4926L263.81 82.8527L292.404 77.8108L292.341 77.4506Z" fill="#6C63FF"/>
<path d="M256.473 96.4013L257.088 99.8912L257.923 99.744L258.451 102.737L259.418 98.4518L258.583 98.5991L258.978 95.9595L256.473 96.4013Z" fill="white" stroke="white" stroke-miterlimit="10"/>
<path opacity="0.3" d="M301.967 91.536L266.445 97.7994L266.509 98.1595L302.031 91.8961L301.967 91.536Z" fill="#6C63FF"/>
<path d="M277.648 97.1237C278.178 97.0304 278.521 96.471 278.416 95.8743C278.311 95.2775 277.797 94.8694 277.267 94.9627C276.738 95.056 276.395 95.6154 276.5 96.2121C276.605 96.8089 277.119 97.217 277.648 97.1237Z" fill="#6C63FF"/>
<path d="M277.5 95.8502L266.445 97.7994L266.509 98.1595L277.563 96.2103L277.5 95.8502Z" fill="#6C63FF"/>
<path d="M141.683 281.418C144.979 281.233 148.198 282.283 151.471 282.693C163.182 284.158 175.365 276.149 177.951 265.285C178.158 263.838 178.615 262.433 179.305 261.126C181.107 258.353 185.212 257.824 188.596 258.462C191.98 259.099 195.187 260.592 198.633 260.762C203.954 261.025 209.062 257.938 211.898 253.687C214.734 249.436 215.536 244.204 215.154 239.196L212.603 241.719C211.566 239.652 211.166 237.353 211.448 235.083C210.096 234.743 208.675 234.737 207.32 235.064C205.965 235.39 204.721 236.04 203.708 236.949C201.459 237.175 203.157 233.017 201.486 231.581C200.786 230.979 199.713 231.093 198.766 231.101C193.982 231.145 190.111 227.695 186.34 224.919C179.807 220.119 172.168 216.834 164.039 215.332C158.636 214.338 152.891 214.179 147.767 216.075C143.559 217.632 140.036 220.468 136.778 223.422C128.756 230.691 121.652 239.233 118.315 249.239C115.602 257.435 115.525 266.205 118.094 274.441C119.439 278.719 123.491 293.369 129.425 293.71C136.88 294.139 132.404 281.94 141.683 281.418Z" fill="#2F2E41"/>
<path d="M189.198 269.384L200.378 271.644C199.275 280.836 190.551 292.027 180.474 299.852L170.94 295.949C181.987 289.224 186.373 279.924 189.198 269.384Z" fill="#2D3032"/>
<path d="M163.324 279.998L172.875 295.589C172.96 295.727 172.955 295.905 172.863 296.085C172.771 296.265 172.599 296.432 172.384 296.549C172.17 296.666 171.93 296.723 171.719 296.708C171.507 296.693 171.341 296.607 171.257 296.469L161.706 280.879C161.621 280.741 161.626 280.563 161.718 280.383C161.81 280.202 161.982 280.036 162.197 279.919C162.411 279.802 162.651 279.745 162.862 279.76C163.074 279.775 163.24 279.86 163.324 279.998Z" fill="#2D3032"/>
<path d="M189.515 269.905C189.567 269.99 189.586 270.091 189.57 270.2C189.554 270.308 189.504 270.421 189.423 270.528C189.343 270.636 189.235 270.734 189.109 270.814C188.983 270.895 188.843 270.955 188.701 270.991L169.967 275.641C169.853 275.67 169.74 275.681 169.634 275.675C169.529 275.669 169.433 275.645 169.352 275.606C169.272 275.566 169.208 275.51 169.165 275.443C169.122 275.375 169.1 275.297 169.1 275.212C169.101 275.127 169.124 275.037 169.169 274.948C169.213 274.858 169.278 274.771 169.359 274.691C169.441 274.611 169.537 274.54 169.643 274.481C169.749 274.422 169.863 274.378 169.977 274.35L188.711 269.7C188.885 269.656 189.054 269.653 189.197 269.689C189.341 269.726 189.451 269.801 189.515 269.905Z" fill="#2D3032"/>
<defs>
<filter id="filter0_d" x="206.701" y="33.2307" width="251.877" height="138.153" filterUnits="userSpaceOnUse" color-interpolation-filters="sRGB">
<feFlood flood-opacity="0" result="BackgroundImageFix"/>
<feColorMatrix in="SourceAlpha" type="matrix" values="0 0 0 0 0 0 0 0 0 0 0 0 0 0 0 0 0 0 127 0"/>
<feOffset dy="4"/>
<feGaussianBlur stdDeviation="2"/>
<feColorMatrix type="matrix" values="0 0 0 0 0 0 0 0 0 0 0 0 0 0 0 0 0 0 0.25 0"/>
<feBlend mode="normal" in2="BackgroundImageFix" result="effect1_dropShadow"/>
<feBlend mode="normal" in="SourceGraphic" in2="effect1_dropShadow" result="shape"/>
</filter>
<clipPath id="clip0">
<rect width="93.5042" height="71.5007" fill="white" transform="matrix(0.878384 -0.477956 0.522372 0.852717 309 90.6909)"/>
</clipPath>
</defs>
</svg>
