<svg width="734" height="520" viewBox="0 0 734 520" fill="none" xmlns="http://www.w3.org/2000/svg">
<path d="M733.137 0.459839H0.312866V520H733.137V0.459839Z" fill="#E6E6E6"/>
<path d="M712.182 65.6233H21.2678V489.264H712.182V65.6233Z" fill="white"/>
<path d="M732.824 0H0V34.4635H732.824V0Z" fill="#535461"/>
<path d="M23.1354 24.0072C26.3222 24.0072 28.9056 21.1473 28.9056 17.6196C28.9056 14.0919 26.3222 11.2321 23.1354 11.2321C19.9485 11.2321 17.3651 14.0919 17.3651 17.6196C17.3651 21.1473 19.9485 24.0072 23.1354 24.0072Z" fill="white"/>
<path d="M45.038 24.0072C48.2248 24.0072 50.8082 21.1473 50.8082 17.6196C50.8082 14.0919 48.2248 11.2321 45.038 11.2321C41.8511 11.2321 39.2677 14.0919 39.2677 17.6196C39.2677 21.1473 41.8511 24.0072 45.038 24.0072Z" fill="white"/>
<path d="M66.9406 24.0072C70.1274 24.0072 72.7108 21.1473 72.7108 17.6196C72.7108 14.0919 70.1274 11.2321 66.9406 11.2321C63.7537 11.2321 61.1703 14.0919 61.1703 17.6196C61.1703 21.1473 63.7537 24.0072 66.9406 24.0072Z" fill="white"/>
<path d="M159.542 91L139.542 81L119.542 91" stroke="black" stroke-width="4"/>
<path d="M147.163 101.109C145.386 101.45 144.008 102.189 142.557 103.586C141.469 104.631 140.828 105.5 140.104 106.885C139.511 108.035 139.1 109.092 138.834 110.184L138.617 111.029L132.017 111.065L125.405 111.1L124.438 111.417C122.396 112.098 122.879 111.676 110.102 124.073L98.2933 135.518L97.7979 136.516C96.6136 138.852 96.7585 141.576 98.1603 143.689C98.9217 144.828 114.007 159.374 115.071 159.996C117.247 161.252 119.857 161.334 122.203 160.218L123.23 159.737L135.015 148.267C143.863 139.674 146.909 136.645 147.211 136.14C147.429 135.764 147.779 135.002 147.997 134.438L148.372 133.404L148.408 124.834C148.444 116.57 148.432 116.241 148.202 115.502C147.864 114.445 147.223 113.447 146.413 112.708C145.664 112.039 144.02 111.158 143.851 111.346C143.585 111.627 143.44 113.341 143.367 116.969L143.295 120.843L142.944 121.465C142.533 122.17 141.917 122.768 141.155 123.156C140.721 123.379 140.455 123.426 139.488 123.426C138.521 123.426 138.255 123.379 137.82 123.156C137.059 122.768 136.442 122.17 136.031 121.465C135.717 120.901 135.681 120.737 135.681 119.728C135.681 118.519 135.838 118.084 136.551 117.263C136.914 116.84 137.857 116.206 138.123 116.206C138.244 116.206 138.279 116.641 138.279 118.213V120.221L138.63 120.561C139.125 121.03 139.851 121.042 140.334 120.573L140.673 120.244L140.733 116.487C140.806 112.519 140.915 111.545 141.543 109.76C142.715 106.379 144.94 104.043 147.466 103.514C150.174 102.951 153.05 104.712 154.707 107.952C157.414 113.223 156.52 120.572 152.724 124.129C152.313 124.517 151.782 124.939 151.54 125.068L151.093 125.303V126.619C151.093 127.511 151.141 127.946 151.226 127.946C151.516 127.946 153.039 127.077 153.776 126.49C158.84 122.429 160.315 113.471 156.979 106.991C155.94 104.948 154.199 103.034 152.531 102.084C150.934 101.18 148.855 100.792 147.163 101.109Z" fill="#550052"/>
<path d="M113.947 143.889C113.651 143.619 113.339 143.469 113.011 143.44C112.686 143.408 112.36 143.552 112.035 143.871L111.991 143.914L111.947 143.966C111.609 144.298 111.495 144.724 111.607 145.246C111.718 145.761 112.065 146.284 112.647 146.816L112.879 147.028C113.401 147.504 113.902 147.774 114.383 147.838C114.868 147.899 115.257 147.785 115.55 147.498L115.594 147.455C115.935 147.12 116.078 146.748 116.021 146.339C115.964 145.929 115.707 145.516 115.25 145.098C115.182 145.024 115.131 144.971 115.098 144.94L114.794 144.636L114.219 144.11L114.053 143.977C114.016 143.949 113.981 143.92 113.947 143.889ZM111.493 143.246C111.851 142.895 112.02 142.643 112.001 142.49C111.97 142.252 111.724 141.923 111.263 141.502C111.126 141.376 110.97 141.261 110.796 141.158C110.618 141.051 110.506 140.976 110.459 140.933C110.308 140.795 110.235 140.624 110.241 140.42C110.248 140.216 110.357 140.011 110.568 139.804L110.661 139.713C110.918 139.461 111.186 139.425 111.464 139.605C111.665 139.733 112.623 140.581 114.339 142.148L114.935 142.711L115.778 143.481L116.252 143.896C116.329 143.967 116.406 144.037 116.484 144.108L116.6 144.205C116.677 144.269 116.813 144.391 117.008 144.569C117.2 144.744 117.415 144.891 117.652 145.009C117.889 145.12 118.044 145.21 118.118 145.278C118.192 145.345 118.224 145.451 118.213 145.596C118.202 145.74 118.117 145.89 117.958 146.047C117.802 146.2 117.619 146.338 117.409 146.46C117.199 146.577 117.063 146.665 117.001 146.726C116.939 146.786 116.819 146.997 116.64 147.357C116.464 147.714 116.273 147.993 116.068 148.194L115.961 148.299C115.407 148.841 114.783 149.087 114.087 149.037C113.39 148.98 112.728 148.664 112.098 148.089L111.841 147.854C111.511 147.553 111.232 147.202 111.003 146.802C110.774 146.396 110.635 145.985 110.584 145.569C110.487 144.709 110.789 143.935 111.493 143.246ZM119.21 139.517C119.431 139.3 119.552 139.114 119.572 138.961C119.593 138.807 119.558 138.688 119.467 138.605L119.255 138.412C119.013 138.19 118.726 138.092 118.396 138.116C118.065 138.141 117.797 138.254 117.592 138.455L117.465 138.579C117.169 138.869 117.04 139.241 117.077 139.695C117.112 140.145 117.282 140.51 117.588 140.79L117.674 140.869C117.792 140.976 117.955 140.928 118.163 140.724L118.275 140.614L118.3 140.58L118.641 140.199L118.864 139.941L119.01 139.76C119.036 139.728 119.07 139.685 119.112 139.631C119.158 139.574 119.19 139.536 119.21 139.517ZM122.048 142.489L121.833 142.699C121.182 143.337 120.432 143.641 119.584 143.612C119.206 143.6 118.814 143.5 118.407 143.313C117.996 143.123 117.638 142.888 117.332 142.608L117.105 142.401C116.798 142.121 116.539 141.767 116.326 141.338C115.908 140.506 115.866 139.703 116.2 138.93C116.368 138.529 116.617 138.168 116.946 137.846L117.053 137.74C117.509 137.294 118.028 137.056 118.61 137.027C118.944 137.012 119.27 137.069 119.586 137.198C119.903 137.321 120.154 137.467 120.339 137.636C120.746 138.008 120.888 138.372 120.765 138.728C120.68 138.971 120.372 139.423 119.84 140.084C119.312 140.741 119.027 141.107 118.985 141.179C118.776 141.524 118.766 141.783 118.954 141.955C119.281 142.253 119.698 142.36 120.206 142.276C120.579 142.217 120.963 141.994 121.357 141.608C121.507 141.461 121.7 141.179 121.938 140.761C122.176 140.344 122.311 140.119 122.343 140.087C122.513 139.921 122.676 139.91 122.835 140.055C123.033 140.236 123.048 140.595 122.878 141.13C122.709 141.659 122.432 142.112 122.048 142.489ZM125.77 137.513L125.921 137.365C126.224 137.068 126.356 136.684 126.318 136.212C126.297 135.952 126.085 135.638 125.681 135.269L125.621 135.204L125.494 135.089C125.242 134.858 125.015 134.842 124.813 135.04L124.657 135.193L124.423 135.46L124.306 135.603C124.007 135.896 123.849 136.217 123.832 136.565C123.811 136.91 123.92 137.192 124.159 137.41L124.336 137.571C124.517 137.737 124.744 137.827 125.016 137.841C125.288 137.849 125.539 137.74 125.77 137.513ZM128.483 135.314C128.708 135.52 128.601 135.838 128.162 136.269C128.084 136.345 127.9 136.449 127.611 136.579C127.322 136.703 127.15 136.792 127.094 136.846C127.042 136.898 126.925 137.124 126.744 137.525C126.559 137.922 126.352 138.233 126.124 138.456L126.012 138.566C125.657 138.914 125.232 139.105 124.736 139.138C124.236 139.169 123.778 138.994 123.361 138.613C122.513 137.838 122.504 136.847 123.334 135.639C123.87 134.852 124.144 134.443 124.157 134.412C124.232 134.179 124.16 133.962 123.942 133.763C123.72 133.56 123.466 133.458 123.181 133.456C122.897 133.449 122.637 133.56 122.403 133.789C122.171 134.016 121.98 134.359 121.829 134.819C121.675 135.276 121.539 135.562 121.422 135.677C121.211 135.884 120.955 135.851 120.656 135.577C120.467 135.405 120.455 135.079 120.619 134.6C120.786 134.118 121.083 133.668 121.509 133.25L121.753 133.011C122.072 132.699 122.418 132.478 122.79 132.349C123.162 132.221 123.519 132.189 123.861 132.256C124.346 132.347 125.123 132.882 126.193 133.86C126.799 134.413 127.187 134.746 127.358 134.859C127.532 134.969 127.738 135.05 127.978 135.102C128.214 135.151 128.382 135.222 128.483 135.314ZM123.133 128.096C122.867 127.853 122.946 127.524 123.369 127.109L123.457 127.023C123.759 126.727 124.06 126.678 124.358 126.876L125.453 127.877L125.822 128.232L126.009 128.403L126.569 128.943L126.756 129.113L126.852 129.21C126.916 129.269 126.98 129.327 127.044 129.385L127.135 129.478C127.199 129.536 127.263 129.595 127.327 129.653L127.418 129.745L127.892 130.179L128.553 130.755C128.616 130.807 128.771 130.945 129.017 131.17C129.262 131.394 129.556 131.603 129.897 131.798C130.238 131.986 130.539 132.108 130.802 132.163C131.061 132.215 131.248 132.293 131.362 132.397C131.477 132.502 131.509 132.661 131.46 132.875C131.414 133.086 131.264 133.315 131.01 133.564L130.839 133.732C130.38 134.181 129.962 134.234 129.586 133.89C129.559 133.865 129.484 133.772 129.362 133.612C129.24 133.451 128.984 133.189 128.594 132.826L127.417 131.696L127.326 131.603C127.262 131.545 127.198 131.486 127.134 131.428L126.947 131.248C126.883 131.19 126.819 131.131 126.755 131.073L126.664 130.98C126.6 130.922 126.536 130.863 126.473 130.805L126.286 130.625C126.222 130.567 126.158 130.508 126.094 130.45L125.907 130.27L125.71 130.09L125.523 129.91L124.575 129.043C124.191 128.693 123.869 128.46 123.609 128.346C123.349 128.231 123.19 128.148 123.133 128.096ZM130.565 128.821C130.029 128.862 129.56 128.698 129.156 128.329C128.749 127.957 128.585 127.49 128.665 126.928C128.741 126.363 129.038 125.826 129.555 125.319C130.073 124.812 130.516 124.502 130.885 124.389C131.251 124.273 131.538 124.311 131.746 124.501C132.032 124.762 132.086 124.981 131.907 125.156C131.845 125.217 131.611 125.315 131.206 125.45C130.802 125.586 130.474 125.776 130.223 126.022C129.973 126.268 129.843 126.506 129.833 126.738C129.827 126.967 129.917 127.166 130.102 127.335C130.287 127.504 130.572 127.537 130.958 127.433C131.09 127.399 131.471 127.249 132.102 126.981C132.733 126.707 133.222 126.555 133.569 126.528C134.112 126.487 134.59 126.655 135.003 127.034C135.417 127.412 135.598 127.894 135.545 128.481C135.492 129.061 135.202 129.61 134.675 130.126C133.78 131.004 133.045 131.383 132.47 131.264C132.287 131.227 132.152 131.168 132.065 131.088C131.772 130.821 131.713 130.601 131.889 130.429C131.941 130.378 132.223 130.274 132.733 130.118C133.243 129.956 133.627 129.748 133.884 129.496C134.145 129.241 134.293 128.988 134.328 128.737C134.363 128.486 134.283 128.271 134.088 128.093C133.89 127.911 133.589 127.862 133.187 127.944C133.022 127.978 132.629 128.127 132.008 128.392C131.383 128.654 130.902 128.797 130.565 128.821Z" fill="white"/>
<path d="M37.1484 109.49C37.1367 109.49 37.1191 109.49 37.0957 109.49C35.748 109.49 35.0742 109.027 35.0742 108.102C35.0742 107.656 35.1914 107.105 35.4258 106.449C35.6602 105.793 35.7949 105.131 35.8301 104.463C35.8652 103.783 35.8828 102.746 35.8828 101.352V98.0645L35.918 97.1504C35.9414 96.541 35.9531 96.1074 35.9531 95.8496L35.7773 94.0391C35.7773 93.6289 36.1406 93.4238 36.8672 93.4238C37.6055 93.4238 38.3613 93.623 39.1348 94.0215C39.9082 94.4199 40.3828 94.6191 40.5586 94.6191C40.7461 94.6191 41.0918 94.502 41.5957 94.2676C42.1113 94.0332 42.7148 93.7812 43.4062 93.5117C44.1094 93.2305 44.8301 93.0898 45.5684 93.0898H46.0254C46.9043 93.0898 47.6836 93.3301 48.3633 93.8105C49.0547 94.2793 49.5527 94.9355 49.8574 95.7793C50.1738 96.6113 50.3965 98.1465 50.5254 100.385L50.5781 101.352L50.6133 102.318C50.6484 102.881 50.6895 103.49 50.7363 104.146C50.7832 104.803 50.9414 105.494 51.2109 106.221C51.4805 106.936 51.6152 107.416 51.6152 107.662C51.6152 108.705 50.8184 109.227 49.2246 109.227C48.5449 109.227 48.0469 109.092 47.7305 108.822C47.4141 108.541 47.2559 108.072 47.2559 107.416L47.291 106.766C47.291 102.207 46.9629 99.1016 46.3066 97.4492C45.791 96.1719 44.8828 95.5332 43.582 95.5332C42.9609 95.5332 42.3516 95.6914 41.7539 96.0078C41.168 96.3125 40.7109 96.8105 40.3828 97.502C39.7969 98.7324 39.5039 101.1 39.5039 104.604L39.6445 107.785C39.6445 108.289 39.4043 108.699 38.9238 109.016C38.4434 109.332 37.8516 109.49 37.1484 109.49ZM56.9062 110.07H56.4668C55.4824 110.07 54.9902 109.742 54.9902 109.086C54.9902 109.039 55.834 107.814 57.5215 105.412C59.2207 102.998 60.0703 101.604 60.0703 101.229C60.0703 100.854 59.3145 99.582 57.8027 97.4141C57.3809 96.8047 56.8184 96.1133 56.1152 95.3398C55.4238 94.5547 55.0781 94.0156 55.0781 93.7227C55.0781 93.0547 55.916 92.7207 57.5918 92.7207C58.8105 92.7207 59.666 93.0254 60.1582 93.6348C60.252 93.752 60.3691 94.0039 60.5098 94.3906C60.6504 94.7656 60.9082 95.2988 61.2832 95.9902C62.1035 97.4902 62.6895 98.2402 63.041 98.2402C63.3223 98.2402 63.9375 97.4668 64.8867 95.9199C65.2617 95.3105 65.543 94.7422 65.7305 94.2148C65.9297 93.6875 66.0645 93.377 66.1348 93.2832C66.4863 92.8262 67.0371 92.5977 67.7871 92.5977C69.2051 92.5977 69.9141 92.8496 69.9141 93.3535C69.9141 93.6465 69.0996 94.8301 67.4707 96.9043C65.8418 98.9785 65.0273 100.32 65.0273 100.93C65.0273 101.527 65.8945 102.975 67.6289 105.271C68.2031 106.033 68.8066 106.725 69.4395 107.346C70.084 107.967 70.4062 108.453 70.4062 108.805C70.4062 109.461 69.4336 109.795 67.4883 109.807C66.5156 109.807 65.8125 109.531 65.3789 108.98C65.2969 108.875 65.1562 108.6 64.957 108.154C64.7695 107.709 64.541 107.252 64.2715 106.783C63.2168 104.967 62.5488 104.059 62.2676 104.059C61.916 104.059 61.2363 104.896 60.2285 106.572C59.9355 107.064 59.6719 107.627 59.4375 108.26C59.2148 108.881 59.0801 109.227 59.0332 109.297C58.6582 109.812 57.9492 110.07 56.9062 110.07ZM80.6895 109.93H80.0215C78.334 109.93 77.1211 109.203 76.3828 107.75C75.7734 106.566 75.4688 104.621 75.4688 101.914C75.4688 99.207 75.3223 97.3496 75.0293 96.3418C74.9238 95.9668 74.6309 95.5391 74.1504 95.0586C73.6699 94.5781 73.4297 94.1621 73.4297 93.8105V93.582C73.4297 93.2773 73.7051 92.9434 74.2559 92.5801C74.8066 92.2168 75.123 91.959 75.2051 91.8066C75.2988 91.6426 75.4746 91.0742 75.7324 90.1016C76.002 89.1172 76.2773 88.4316 76.5586 88.0449C76.8516 87.6465 77.2383 87.4473 77.7188 87.4473C78.2109 87.4473 78.5566 87.5879 78.7559 87.8691C78.9668 88.1504 79.1719 88.7305 79.3711 89.6094C79.582 90.4883 79.8105 91.0859 80.0566 91.4023C80.3027 91.707 80.9004 92.0293 81.8496 92.3691C82.7988 92.709 83.2734 93.1309 83.2734 93.6348C83.2734 94.0801 82.7754 94.4785 81.7793 94.8301C80.7949 95.1816 80.1738 95.6152 79.916 96.1309C79.4238 97.127 79.1777 98.8906 79.1777 101.422C79.1777 103.953 79.3945 105.506 79.8281 106.08C80.2617 106.643 80.9648 106.988 81.9375 107.117C82.9219 107.246 83.4141 107.615 83.4141 108.225C83.4141 108.693 83.1328 109.098 82.5703 109.438C82.0195 109.766 81.3926 109.93 80.6895 109.93ZM87.6855 101.439C87.1699 101.439 86.9121 101.141 86.9121 100.543V100.139C86.9121 99.3535 87.0938 98.9023 87.457 98.7852C87.8203 98.6562 89.4961 98.5918 92.4844 98.5918L95.9297 98.5391H96.5801C97.2598 98.5391 97.5996 98.8438 97.5996 99.4531V99.8398C97.5762 100.004 97.5645 100.133 97.5645 100.227C97.5645 100.812 97.3418 101.158 96.8965 101.264C96.4629 101.357 94.834 101.404 92.0098 101.404H91.2188L90.832 101.422H90.041L89.5137 101.439H87.6855ZM112.541 98.2051C112.541 97.1738 112.283 96.3359 111.768 95.6914C111.264 95.0469 110.426 94.7246 109.254 94.7246H109.096L108.92 94.7422C107.701 94.7422 106.693 95.3223 105.896 96.4824C105.111 97.6309 104.719 99.2188 104.719 101.246V102.055C104.719 103.871 105.076 105.271 105.791 106.256C106.518 107.24 107.408 107.732 108.463 107.732H108.621C109.852 107.732 110.807 107.305 111.486 106.449C112.166 105.594 112.506 104.369 112.506 102.775C112.529 102.518 112.541 102.33 112.541 102.213L112.594 101.105V99.1016L112.559 98.5566C112.547 98.4395 112.541 98.3223 112.541 98.2051ZM109.5 92.5977C110.789 92.5977 111.562 92.4395 111.82 92.123C112.219 91.6309 112.418 90.582 112.418 88.9766C112.418 88.4961 112.365 88.0039 112.26 87.5C112.154 86.9844 112.102 86.6445 112.102 86.4805C112.102 85.9531 112.301 85.5078 112.699 85.1445C113.098 84.7812 113.678 84.5996 114.439 84.5996H114.773C115.699 84.5996 116.232 85.0156 116.373 85.8477C116.479 86.4453 116.531 89.7324 116.531 95.709L116.496 97.8184V100.754L116.531 102.371C116.531 102.641 116.531 102.91 116.531 103.18L116.549 103.566C116.561 103.824 116.566 104.293 116.566 104.973C116.566 105.641 116.66 106.297 116.848 106.941C117.047 107.574 117.146 108.02 117.146 108.277C117.146 108.535 117 108.787 116.707 109.033C116.414 109.279 115.98 109.402 115.406 109.402C114.844 109.402 114.264 109.326 113.666 109.174C113.08 109.01 112.676 108.928 112.453 108.928C112.23 108.928 111.621 109.098 110.625 109.438C109.641 109.777 108.779 109.947 108.041 109.947H107.654C105.662 109.947 104.109 109.273 102.996 107.926C101.895 106.566 101.344 104.791 101.344 102.6V101.703C101.344 100.555 101.525 99.4062 101.889 98.2578C102.264 97.0977 102.803 96.0898 103.506 95.2344C104.971 93.4766 106.969 92.5977 109.5 92.5977ZM128.625 107.961H128.977C130.16 107.961 131.133 107.439 131.895 106.396C132.656 105.354 133.037 104.035 133.037 102.441L133.072 102.055L133.09 101.457V100.666C133.09 98.9199 132.732 97.4844 132.018 96.3594C131.314 95.2227 130.371 94.6543 129.188 94.6543H128.836C127.676 94.6543 126.697 95.2285 125.9 96.377C125.115 97.5254 124.723 99.0488 124.723 100.947V102.143C124.746 102.424 124.758 102.617 124.758 102.723C124.758 104.059 125.127 105.266 125.865 106.344C126.604 107.422 127.523 107.961 128.625 107.961ZM137.062 100.912V101.492C137.062 102.535 136.893 103.607 136.553 104.709C135.861 106.947 134.502 108.553 132.475 109.525C131.303 110.088 130.143 110.369 128.994 110.369H128.396C127.307 110.369 126.293 110.146 125.355 109.701C123.492 108.811 122.256 107.334 121.646 105.271C121.318 104.182 121.154 103.074 121.154 101.949V101.053C121.154 99.9512 121.324 98.8496 121.664 97.748C122.332 95.5684 123.656 94.0098 125.637 93.0723C126.656 92.5801 127.699 92.334 128.766 92.334H129.645C130.652 92.334 131.648 92.5508 132.633 92.9844C134.602 93.8516 135.926 95.3984 136.605 97.625C136.91 98.6094 137.062 99.7051 137.062 100.912ZM147.891 107.961H148.242C149.426 107.961 150.398 107.439 151.16 106.396C151.922 105.354 152.303 104.035 152.303 102.441L152.338 102.055L152.355 101.457V100.666C152.355 98.9199 151.998 97.4844 151.283 96.3594C150.58 95.2227 149.637 94.6543 148.453 94.6543H148.102C146.941 94.6543 145.963 95.2285 145.166 96.377C144.381 97.5254 143.988 99.0488 143.988 100.947V102.143C144.012 102.424 144.023 102.617 144.023 102.723C144.023 104.059 144.393 105.266 145.131 106.344C145.869 107.422 146.789 107.961 147.891 107.961ZM156.328 100.912V101.492C156.328 102.535 156.158 103.607 155.818 104.709C155.127 106.947 153.768 108.553 151.74 109.525C150.568 110.088 149.408 110.369 148.26 110.369H147.662C146.572 110.369 145.559 110.146 144.621 109.701C142.758 108.811 141.521 107.334 140.912 105.271C140.584 104.182 140.42 103.074 140.42 101.949V101.053C140.42 99.9512 140.59 98.8496 140.93 97.748C141.598 95.5684 142.922 94.0098 144.902 93.0723C145.922 92.5801 146.965 92.334 148.031 92.334H148.91C149.918 92.334 150.914 92.5508 151.898 92.9844C153.867 93.8516 155.191 95.3984 155.871 97.625C156.176 98.6094 156.328 99.7051 156.328 100.912ZM168.527 96.1133C167.426 96.1133 166.57 96.6641 165.961 97.7656C165.352 98.8555 165.047 100.525 165.047 102.775C165.047 103.771 165.088 104.48 165.17 104.902C165.252 105.312 165.375 105.828 165.539 106.449C165.715 107.059 165.803 107.592 165.803 108.049C165.803 108.494 165.533 108.904 164.994 109.279C164.455 109.654 163.752 109.842 162.885 109.842L162.586 109.824H162.27C161.707 109.824 161.238 109.666 160.863 109.35C160.5 109.033 160.318 108.676 160.318 108.277V107.996C160.318 107.914 160.43 107.527 160.652 106.836C160.875 106.145 161.004 105.477 161.039 104.832C161.074 104.188 161.092 103.32 161.092 102.23V100.279L161.074 99.9629C161.074 99.752 161.074 99.541 161.074 99.3301L161.039 98.3809C161.027 98.1699 161.021 97.7598 161.021 97.1504C161.021 96.5293 160.91 95.9434 160.688 95.3926C160.477 94.8301 160.371 94.4668 160.371 94.3027C160.371 93.5996 160.986 93.248 162.217 93.248C163.447 93.248 164.338 93.582 164.889 94.25C165.053 94.4492 165.223 94.5488 165.398 94.5488C165.586 94.5488 165.891 94.4023 166.312 94.1094C167.484 93.3125 168.469 92.9141 169.266 92.9141H169.547C170.25 92.9141 170.783 93.0723 171.146 93.3887C171.521 93.7051 171.709 94.127 171.709 94.6543C171.709 95.6973 171.129 96.2188 169.969 96.2188C169.512 96.1484 169.031 96.1133 168.527 96.1133Z" fill="black"/>
<line y1="-1.5" x2="4.81025" y2="-1.5" transform="matrix(0.726399 0.687274 -0.726399 0.687274 150.533 103.338)" stroke="#550052" stroke-width="3"/>
<mask id="path-12-inside-1" fill="white">
<path d="M664.432 252.214V194.942H629.505V157.74H605.862V194.942H570.935V252.214H551.59V123.475H512.364V111.238H460.242V99H408.658V111.238H359.76V123.475H317.31V251.724H294.742V194.453H259.815V157.251H236.172V194.453H201.245V251.724H178.676V454.867H230.261V382.911H265.725V454.867H404.359V371.163H464.541V454.867H548.366V455.357H599.951V383.4H635.415V455.357H687V252.214H664.432ZM197.215 276.689H217.634V291.374H197.215V276.689ZM197.483 317.807H217.902V332.492H197.483V317.807ZM218.171 373.61H197.752V358.925H218.171V373.61ZM271.636 240.955H224.35V232.144H271.636V240.955ZM271.636 228.228H224.35V219.417H271.636V228.228ZM271.636 215.501H224.35V206.69H271.636V215.501ZM278.353 276.689H298.772V291.374H278.353V276.689ZM278.622 317.807H299.041V332.492H278.622V317.807ZM299.309 373.61H278.89V358.925H299.309V373.61ZM382.866 349.135H345.252V333.961H382.866V349.135ZM382.866 305.57H345.252V290.395H382.866V305.57ZM382.866 262.004H345.252V246.829H382.866V262.004ZM382.866 218.438H345.252V203.264H382.866V218.438ZM382.866 174.873H345.252V159.698H382.866V174.873ZM453.257 349.135H415.643V333.961H453.257V349.135ZM453.257 305.57H415.643V290.395H453.257V305.57ZM453.257 262.004H415.643V246.829H453.257V262.004ZM453.257 218.438H415.643V203.264H453.257V218.438ZM453.257 174.873H415.643V159.698H453.257V174.873ZM523.649 349.135H486.035V333.961H523.649V349.135ZM523.649 305.57H486.035V290.395H523.649V305.57ZM523.649 262.004H486.035V246.829H523.649V262.004ZM523.649 218.438H486.035V203.264H523.649V218.438ZM523.649 174.873H486.035V159.698H523.649V174.873ZM566.904 277.178H587.323V291.863H566.904V277.178ZM567.173 318.297H587.592V332.982H567.173V318.297ZM587.861 374.1H567.442V359.415H587.861V374.1ZM641.326 241.445H594.04V232.634H641.326V241.445ZM641.326 228.718H594.04V219.907H641.326V228.718ZM641.326 215.991H594.04V207.18H641.326V215.991ZM648.043 277.178H668.462V291.863H648.043V277.178ZM648.311 318.297H668.73V332.982H648.311V318.297ZM668.999 374.1H648.58V359.415H668.999V374.1Z"/>
</mask>
<path d="M664.432 252.214V194.942H629.505V157.74H605.862V194.942H570.935V252.214H551.59V123.475H512.364V111.238H460.242V99H408.658V111.238H359.76V123.475H317.31V251.724H294.742V194.453H259.815V157.251H236.172V194.453H201.245V251.724H178.676V454.867H230.261V382.911H265.725V454.867H404.359V371.163H464.541V454.867H548.366V455.357H599.951V383.4H635.415V455.357H687V252.214H664.432ZM197.215 276.689H217.634V291.374H197.215V276.689ZM197.483 317.807H217.902V332.492H197.483V317.807ZM218.171 373.61H197.752V358.925H218.171V373.61ZM271.636 240.955H224.35V232.144H271.636V240.955ZM271.636 228.228H224.35V219.417H271.636V228.228ZM271.636 215.501H224.35V206.69H271.636V215.501ZM278.353 276.689H298.772V291.374H278.353V276.689ZM278.622 317.807H299.041V332.492H278.622V317.807ZM299.309 373.61H278.89V358.925H299.309V373.61ZM382.866 349.135H345.252V333.961H382.866V349.135ZM382.866 305.57H345.252V290.395H382.866V305.57ZM382.866 262.004H345.252V246.829H382.866V262.004ZM382.866 218.438H345.252V203.264H382.866V218.438ZM382.866 174.873H345.252V159.698H382.866V174.873ZM453.257 349.135H415.643V333.961H453.257V349.135ZM453.257 305.57H415.643V290.395H453.257V305.57ZM453.257 262.004H415.643V246.829H453.257V262.004ZM453.257 218.438H415.643V203.264H453.257V218.438ZM453.257 174.873H415.643V159.698H453.257V174.873ZM523.649 349.135H486.035V333.961H523.649V349.135ZM523.649 305.57H486.035V290.395H523.649V305.57ZM523.649 262.004H486.035V246.829H523.649V262.004ZM523.649 218.438H486.035V203.264H523.649V218.438ZM523.649 174.873H486.035V159.698H523.649V174.873ZM566.904 277.178H587.323V291.863H566.904V277.178ZM567.173 318.297H587.592V332.982H567.173V318.297ZM587.861 374.1H567.442V359.415H587.861V374.1ZM641.326 241.445H594.04V232.634H641.326V241.445ZM641.326 228.718H594.04V219.907H641.326V228.718ZM641.326 215.991H594.04V207.18H641.326V215.991ZM648.043 277.178H668.462V291.863H648.043V277.178ZM648.311 318.297H668.73V332.982H648.311V318.297ZM668.999 374.1H648.58V359.415H668.999V374.1Z" fill="#9E99E4" stroke="#5C3D53" stroke-width="4" mask="url(#path-12-inside-1)"/>
<path d="M651.296 415.31C650.055 414.245 648.537 413.485 646.885 413.099C646.805 413.083 646.725 413.069 646.645 413.055C646.844 413.55 647.991 416.467 649.148 420.642L651.296 415.31Z" fill="#6C63FF"/>
<path d="M650.57 427.525L637.059 420.382L637.072 420.253C636.566 421.724 636.225 423.238 636.054 424.772L651.284 432.397C651.1 430.68 650.85 429.04 650.57 427.525Z" fill="#6C63FF"/>
<path d="M635.917 426.431L635.907 426.561C635.909 426.517 635.915 426.475 635.918 426.431L635.917 426.431Z" fill="#6C63FF"/>
<path d="M636.027 425.031L636.028 425.031C636.033 424.989 636.034 424.943 636.039 424.901L636.027 425.031Z" fill="#6C63FF"/>
<path d="M651.314 432.683L636.028 425.031C635.979 425.489 635.942 425.955 635.917 426.431L651.429 433.938C651.395 433.516 651.357 433.098 651.314 432.683Z" fill="#6C63FF"/>
<path d="M651.542 440.215L636.496 432.803C636.864 434.178 637.332 435.529 637.898 436.846L637.918 436.705L651.008 444.909C651.289 443.355 651.467 441.788 651.542 440.215V440.215Z" fill="#6C63FF"/>
<path d="M646.474 413.095L646.544 413.037C644.182 412.653 642.04 413.404 640.305 415.016L648.984 420.683C647.73 416.165 646.492 413.139 646.474 413.095Z" fill="#6C63FF"/>
<path d="M649.076 421.019L640.199 415.222L640.218 415.097C638.787 416.548 637.726 418.27 637.113 420.139L650.514 427.223C650.091 424.982 649.585 422.881 649.076 421.019Z" fill="#6C63FF"/>
<path d="M651.555 439.939C651.633 438.032 651.598 436.123 651.45 434.22L635.9 426.694C635.868 427.461 635.868 428.249 635.9 429.058C635.957 430.215 636.13 431.364 636.416 432.493L651.548 439.946L651.555 439.939Z" fill="#6C63FF"/>
<path d="M178.677 454.867H687V461.493C687 464.28 685.785 466.952 683.622 468.923C681.459 470.893 678.525 472 675.466 472H190.21C187.151 472 184.218 470.893 182.055 468.923C179.892 466.952 178.677 464.28 178.677 461.493V454.867Z" fill="#2F2E41"/>
<path d="M687 449.483H178.677V458.783H687V449.483Z" fill="#3F3D56"/>
<path d="M572.623 131.294L578.462 134.667L574.917 128.796C575.921 128.066 577.163 127.662 578.447 127.648C578.479 127.648 578.51 127.648 578.541 127.649C578.947 127.655 579.352 127.628 579.753 127.567L581.731 128.71L580.883 127.306C582.285 126.86 583.496 126.023 584.344 124.913L587.885 126.958L585.648 123.253C587.719 120.989 590.51 119.6 593.582 119.6C597.264 119.6 600.545 121.595 602.662 124.703C603.288 125.634 604.173 126.396 605.227 126.914C606.282 127.432 607.467 127.686 608.664 127.652C608.73 127.649 608.796 127.648 608.862 127.648C612.928 127.648 616.223 131.847 616.223 137.027C616.223 142.206 612.928 146.405 608.862 146.405C607.968 146.402 607.088 146.202 606.298 145.821C604.915 145.208 603.401 144.876 601.863 144.849C600.325 144.822 598.798 145.099 597.389 145.662C596.199 146.149 594.909 146.403 593.604 146.405C592.299 146.408 591.007 146.16 589.815 145.678C588.416 145.126 586.904 144.854 585.381 144.881C583.857 144.907 582.358 145.232 580.984 145.833C580.201 146.206 579.331 146.402 578.447 146.405C574.382 146.405 571.087 142.206 571.087 137.027C571.063 135.029 571.591 133.057 572.623 131.294V131.294Z" fill="#D0CDE1"/>
<path d="M275.605 158.839L279.318 160.984L277.064 157.249C277.702 156.785 278.492 156.528 279.309 156.519C279.329 156.519 279.349 156.519 279.369 156.52C279.627 156.523 279.885 156.506 280.14 156.468L281.398 157.195L280.859 156.301C281.75 156.018 282.521 155.485 283.06 154.779L285.313 156.08L283.89 153.723C284.489 153.019 285.253 152.445 286.126 152.043C286.999 151.641 287.959 151.421 288.937 151.399C291.279 151.399 293.366 152.669 294.713 154.646C295.111 155.237 295.674 155.723 296.345 156.052C297.015 156.381 297.77 156.543 298.531 156.521C298.573 156.52 298.615 156.519 298.657 156.519C301.243 156.519 303.339 159.19 303.339 162.485C303.339 165.78 301.243 168.451 298.657 168.451C298.088 168.449 297.529 168.321 297.026 168.079C296.146 167.689 295.183 167.478 294.204 167.461C293.226 167.443 292.255 167.62 291.359 167.978C290.601 168.288 289.781 168.449 288.951 168.451C288.12 168.453 287.299 168.295 286.54 167.988C285.651 167.637 284.689 167.464 283.72 167.481C282.751 167.498 281.797 167.705 280.923 168.087C280.425 168.324 279.871 168.449 279.309 168.451C276.723 168.451 274.627 165.78 274.627 162.485C274.612 161.214 274.948 159.96 275.605 158.839Z" fill="#D0CDE1"/>
<path d="M175.659 170.339L179.373 172.485L177.118 168.75C177.757 168.286 178.547 168.029 179.364 168.02C179.384 168.02 179.404 168.02 179.424 168.02C179.682 168.024 179.94 168.007 180.194 167.968L181.453 168.695L180.913 167.802C181.805 167.518 182.576 166.986 183.115 166.28L185.368 167.581L183.945 165.224C184.544 164.52 185.308 163.946 186.181 163.544C187.054 163.142 188.014 162.922 188.991 162.9C191.334 162.9 193.421 164.169 194.768 166.146C195.166 166.738 195.729 167.223 196.399 167.553C197.07 167.882 197.824 168.044 198.586 168.022C198.628 168.02 198.67 168.02 198.712 168.02C201.298 168.02 203.394 170.691 203.394 173.986C203.394 177.28 201.298 179.951 198.712 179.951C198.143 179.95 197.583 179.822 197.081 179.58C196.2 179.19 195.238 178.979 194.259 178.961C193.281 178.944 192.31 179.12 191.413 179.479C190.656 179.789 189.836 179.95 189.005 179.951C188.175 179.953 187.354 179.796 186.595 179.489C185.706 179.137 184.744 178.965 183.775 178.982C182.805 178.999 181.852 179.205 180.978 179.588C180.48 179.825 179.926 179.95 179.364 179.951C176.778 179.951 174.682 177.28 174.682 173.986C174.667 172.715 175.003 171.461 175.659 170.339V170.339Z" fill="#D0CDE1"/>
<path d="M650.588 397.551C651.846 395.551 652.495 393.282 652.471 390.977C652.471 385.037 648.432 380.221 643.451 380.221C638.469 380.221 634.431 385.037 634.431 390.977C634.406 393.282 635.056 395.551 636.313 397.551C635.079 399.559 634.431 401.823 634.431 404.124C634.431 406.426 635.079 408.689 636.313 410.698C635.079 412.706 634.431 414.969 634.431 417.271C634.431 419.573 635.079 421.836 636.313 423.845C635.079 425.853 634.431 428.116 634.431 430.418C634.431 432.72 635.079 434.983 636.313 436.992C635.056 438.991 634.406 441.26 634.431 443.565C634.431 449.506 638.469 454.322 643.451 454.322C648.432 454.322 652.471 449.506 652.471 443.565C652.495 441.26 651.846 438.991 650.588 436.992C651.822 434.983 652.471 432.72 652.471 430.418C652.471 428.116 651.822 425.853 650.588 423.845C651.822 421.836 652.471 419.573 652.471 417.271C652.471 414.969 651.822 412.706 650.588 410.698C651.822 408.689 652.471 406.426 652.471 404.124C652.471 401.823 651.822 399.559 650.588 397.551V397.551Z" fill="#0D191F"/>
<path d="M643.451 388.587C648.432 388.587 652.471 383.771 652.471 377.831C652.471 371.89 648.432 367.074 643.451 367.074C638.469 367.074 634.431 371.89 634.431 377.831C634.431 383.771 638.469 388.587 643.451 388.587Z" fill="#3F3D56"/>
<path d="M643.451 375.44C648.432 375.44 652.471 370.624 652.471 364.684C652.471 358.743 648.432 353.927 643.451 353.927C638.469 353.927 634.431 358.743 634.431 364.684C634.431 370.624 638.469 375.44 643.451 375.44Z" fill="#3F3D56"/>
<path d="M677.217 274.715C678.449 273.286 679.571 271.781 680.576 270.211L656.875 266.665L682.508 266.838C684.967 261.965 686.308 256.685 686.45 251.323C686.592 245.961 685.531 240.628 683.333 235.652L648.944 251.903L680.659 230.666C677.687 225.989 673.691 221.919 668.917 218.71C664.144 215.501 658.697 213.222 652.915 212.015C647.132 210.807 641.139 210.697 635.308 211.692C629.477 212.687 623.934 214.764 619.023 217.796C614.112 220.827 609.939 224.747 606.763 229.312C603.588 233.877 601.479 238.988 600.566 244.328C599.654 249.668 599.958 255.121 601.461 260.349C602.963 265.577 605.631 270.467 609.298 274.715C607.378 276.939 605.726 279.346 604.371 281.893L635.136 296.453L602.332 286.424C600.029 292.626 599.459 299.254 600.676 305.708C601.892 312.162 604.856 318.237 609.298 323.384C604.286 329.19 601.167 336.163 600.3 343.507C599.433 350.851 600.852 358.269 604.394 364.913C607.936 371.557 613.46 377.159 620.332 381.078C627.205 384.998 635.149 387.076 643.257 387.076C651.366 387.076 659.31 384.998 666.183 381.078C673.055 377.159 678.578 371.557 682.121 364.913C685.663 358.269 687.082 350.851 686.215 343.507C685.348 336.163 682.229 329.19 677.217 323.384C683.206 316.447 686.463 307.876 686.463 299.05C686.463 290.223 683.206 281.653 677.217 274.715V274.715Z" fill="#F2F2F2"/>
<path d="M600.052 299.05C600.037 307.878 603.295 316.453 609.298 323.384C604.286 329.19 601.167 336.163 600.3 343.507C599.433 350.851 600.851 358.269 604.394 364.913C607.936 371.557 613.46 377.159 620.332 381.078C627.205 384.998 635.149 387.076 643.257 387.076C651.366 387.076 659.31 384.998 666.183 381.078C673.055 377.159 678.578 371.557 682.121 364.913C685.663 358.269 687.082 350.851 686.215 343.507C685.347 336.163 682.229 329.19 677.216 323.384C683.007 316.687 600.052 294.632 600.052 299.05Z" fill="#F2F2F2"/>
<path d="M677.217 274.715C678.449 273.286 679.571 271.781 680.576 270.211L656.875 266.665L682.508 266.838C684.967 261.965 686.308 256.685 686.45 251.323C686.592 245.961 685.531 240.628 683.333 235.652L648.944 251.903L680.659 230.666C677.687 225.989 673.691 221.919 668.917 218.71C664.144 215.501 658.697 213.222 652.915 212.015C647.132 210.807 641.139 210.697 635.308 211.692C629.477 212.687 623.934 214.764 619.023 217.796C614.112 220.827 609.939 224.747 606.763 229.312C603.588 233.877 601.479 238.988 600.566 244.328C599.654 249.668 599.958 255.121 601.461 260.349C602.963 265.577 605.631 270.467 609.298 274.715C607.378 276.939 605.726 279.346 604.371 281.893L635.136 296.453L602.332 286.424C600.029 292.626 599.459 299.254 600.676 305.708C601.892 312.162 604.856 318.237 609.298 323.384C604.286 329.19 601.167 336.163 600.3 343.507C599.433 350.851 600.852 358.269 604.394 364.913C607.936 371.557 613.46 377.159 620.332 381.078C627.205 384.998 635.149 387.076 643.257 387.076C651.366 387.076 659.31 384.998 666.183 381.078C673.055 377.159 678.578 371.557 682.121 364.913C685.663 358.269 687.082 350.851 686.215 343.507C685.348 336.163 682.229 329.19 677.217 323.384C683.206 316.447 686.463 307.876 686.463 299.05C686.463 290.223 683.206 281.653 677.217 274.715V274.715Z" fill="#E063FF"/>
<path opacity="0.1" d="M600.052 299.05C600.037 307.878 603.295 316.453 609.298 323.384C604.286 329.19 601.167 336.163 600.3 343.507C599.433 350.851 600.851 358.269 604.394 364.913C607.936 371.557 613.46 377.159 620.332 381.078C627.205 384.998 635.149 387.076 643.257 387.076C651.366 387.076 659.31 384.998 666.183 381.078C673.055 377.159 678.578 371.557 682.121 364.913C685.663 358.269 687.082 350.851 686.215 343.507C685.347 336.163 682.229 329.19 677.216 323.384C683.007 316.687 600.052 294.632 600.052 299.05Z" fill="black"/>
<path d="M196.536 397.551C197.793 395.551 198.443 393.282 198.418 390.977C198.418 385.037 194.38 380.221 189.398 380.221C184.417 380.221 180.379 385.037 180.379 390.977C180.354 393.282 181.004 395.551 182.261 397.551C181.027 399.559 180.379 401.823 180.379 404.124C180.379 406.426 181.027 408.689 182.261 410.698C181.027 412.706 180.379 414.969 180.379 417.271C180.379 419.573 181.027 421.836 182.261 423.845C181.027 425.853 180.379 428.116 180.379 430.418C180.379 432.72 181.027 434.983 182.261 436.992C181.004 438.991 180.354 441.26 180.379 443.565C180.379 449.506 184.417 454.322 189.398 454.322C194.38 454.322 198.418 449.506 198.418 443.565C198.443 441.26 197.793 438.991 196.536 436.992C197.77 434.983 198.418 432.72 198.418 430.418C198.418 428.116 197.77 425.853 196.536 423.845C197.77 421.836 198.418 419.573 198.418 417.271C198.418 414.969 197.77 412.706 196.536 410.698C197.77 408.689 198.418 406.426 198.418 404.124C198.418 401.823 197.77 399.559 196.536 397.551V397.551Z" fill="#0D191F"/>
<path d="M189.399 388.587C194.38 388.587 198.418 383.771 198.418 377.831C198.418 371.89 194.38 367.074 189.399 367.074C184.417 367.074 180.379 371.89 180.379 377.831C180.379 383.771 184.417 388.587 189.399 388.587Z" fill="#3F3D56"/>
<path d="M189.399 375.44C194.38 375.44 198.418 370.624 198.418 364.684C198.418 358.743 194.38 353.927 189.399 353.927C184.417 353.927 180.379 358.743 180.379 364.684C180.379 370.624 184.417 375.44 189.399 375.44Z" fill="#3F3D56"/>
<path d="M223.164 274.715C224.397 273.286 225.519 271.781 226.523 270.211L202.823 266.665L228.456 266.838C230.915 261.965 232.256 256.685 232.398 251.323C232.54 245.961 231.479 240.628 229.281 235.652L194.892 251.903L226.606 230.666C223.635 225.989 219.638 221.919 214.865 218.71C210.092 215.501 204.645 213.222 198.862 212.015C193.08 210.807 187.087 210.697 181.256 211.692C175.425 212.687 169.882 214.764 164.971 217.796C160.06 220.827 155.887 224.747 152.711 229.312C149.536 233.877 147.426 238.988 146.514 244.328C145.602 249.668 145.906 255.121 147.409 260.349C148.911 265.577 151.579 270.467 155.246 274.715C153.325 276.939 151.673 279.346 150.319 281.893L181.084 296.453L148.28 286.424C145.976 292.626 145.407 299.254 146.624 305.708C147.84 312.162 150.804 318.237 155.246 323.384C150.233 329.19 147.115 336.163 146.248 343.507C145.381 350.851 146.799 358.269 150.342 364.913C153.884 371.557 159.407 377.159 166.28 381.078C173.153 384.998 181.097 387.076 189.205 387.076C197.313 387.076 205.258 384.998 212.13 381.078C219.003 377.159 224.526 371.557 228.069 364.913C231.611 358.269 233.03 350.851 232.163 343.507C231.295 336.163 228.177 329.19 223.164 323.384C229.154 316.447 232.41 307.876 232.41 299.05C232.41 290.223 229.154 281.653 223.164 274.715L223.164 274.715Z" fill="#F2F2F2"/>
<path d="M146 299.05C145.985 307.878 149.243 316.453 155.246 323.384C150.233 329.19 147.115 336.163 146.248 343.507C145.381 350.851 146.799 358.269 150.342 364.913C153.884 371.557 159.407 377.159 166.28 381.078C173.153 384.998 181.097 387.076 189.205 387.076C197.313 387.076 205.258 384.998 212.13 381.078C219.003 377.159 224.526 371.557 228.069 364.913C231.611 358.269 233.03 350.851 232.163 343.507C231.295 336.163 228.177 329.19 223.164 323.384C228.955 316.687 146 294.632 146 299.05Z" fill="#F2F2F2"/>
<path d="M223.164 274.715C224.397 273.286 225.519 271.781 226.523 270.211L202.823 266.665L228.456 266.838C230.915 261.965 232.256 256.685 232.398 251.323C232.54 245.961 231.479 240.628 229.281 235.652L194.892 251.903L226.606 230.666C223.635 225.989 219.638 221.919 214.865 218.71C210.092 215.501 204.645 213.222 198.862 212.015C193.08 210.807 187.087 210.697 181.256 211.692C175.425 212.687 169.882 214.764 164.971 217.796C160.06 220.827 155.887 224.747 152.711 229.312C149.536 233.877 147.426 238.988 146.514 244.328C145.602 249.668 145.906 255.121 147.409 260.349C148.911 265.577 151.579 270.467 155.246 274.715C153.325 276.939 151.673 279.346 150.319 281.893L181.084 296.453L148.28 286.424C145.976 292.626 145.407 299.254 146.624 305.708C147.84 312.162 150.804 318.237 155.246 323.384C150.233 329.19 147.115 336.163 146.248 343.507C145.381 350.851 146.799 358.269 150.342 364.913C153.884 371.557 159.407 377.159 166.28 381.078C173.153 384.998 181.097 387.076 189.205 387.076C197.313 387.076 205.258 384.998 212.13 381.078C219.003 377.159 224.526 371.557 228.069 364.913C231.611 358.269 233.03 350.851 232.163 343.507C231.295 336.163 228.177 329.19 223.164 323.384C229.154 316.447 232.41 307.876 232.41 299.05C232.41 290.223 229.154 281.653 223.164 274.715L223.164 274.715Z" fill="#E063FF"/>
<path opacity="0.1" d="M146 299.05C145.985 307.878 149.243 316.453 155.246 323.384C150.233 329.19 147.115 336.163 146.248 343.507C145.381 350.851 146.799 358.269 150.342 364.913C153.884 371.557 159.407 377.159 166.28 381.078C173.153 384.998 181.097 387.076 189.205 387.076C197.313 387.076 205.258 384.998 212.13 381.078C219.003 377.159 224.526 371.557 228.069 364.913C231.611 358.269 233.03 350.851 232.163 343.507C231.295 336.163 228.177 329.19 223.164 323.384C228.955 316.687 146 294.632 146 299.05Z" fill="black"/>
<path d="M284.128 427.101C284.128 433.629 290.631 439.125 298.354 439.125C302.418 439.125 306.077 437.751 308.922 435.346L354.446 393.432C356.073 392.057 356.073 389.996 354.446 388.622L343.878 379.689C342.252 378.315 339.814 378.315 338.188 379.689L288.599 418.512C285.754 420.573 284.128 424.009 284.128 427.101Z" fill="#581A59"/>
<path d="M353.083 387.745L345.055 380.974L357.097 370.819L365.125 377.589L353.083 387.745Z" fill="#535461"/>
<path d="M350.667 382.613L348.598 384.283L344.461 380.944L356.873 370.924L365.147 377.604L358.941 382.613C356.459 380.609 353.149 380.609 350.667 382.613Z" fill="#535461"/>
<path d="M401.778 380.768C374.883 380.768 353.08 362.51 353.08 339.988C353.08 317.465 374.883 299.208 401.778 299.208C428.673 299.208 450.476 317.465 450.476 339.988C450.476 362.51 428.673 380.768 401.778 380.768Z" fill="#70B7E5" fill-opacity="0.8"/>
<path d="M401.347 288.661C435.208 288.661 462.543 311.587 462.543 339.988C462.543 368.388 435.208 391.314 401.347 391.314C367.486 391.314 340.152 368.388 340.152 339.988C340.152 311.587 367.486 288.661 401.347 288.661ZM401.347 381.049C428.273 381.049 450.304 362.572 450.304 339.988C450.304 317.404 428.273 298.926 401.347 298.926C374.421 298.926 352.391 317.404 352.391 339.988C352.391 362.571 374.421 381.049 401.347 381.049Z" fill="#535461"/>
<path d="M425.406 344.421C423.389 331.454 411.285 321.218 395.953 319.512H395.549C388.69 318.829 388.287 310.64 394.742 309.616C398.777 308.934 402.812 308.934 406.847 309.275C422.582 311.322 435.09 321.9 437.107 334.867C437.914 338.279 437.511 342.032 436.704 345.104C435.493 350.904 425.81 350.222 425.003 344.421C425.406 344.762 425.406 344.421 425.406 344.421Z" fill="#92C5EB"/>
<path d="M446.413 343.604C446.413 321.064 424.471 302.623 397.653 302.623C385.057 302.623 374.086 306.721 365.147 312.868C374.086 304.33 387.089 299.208 401.717 299.208C428.534 299.208 450.476 317.649 450.476 340.189C450.476 352.483 443.975 363.411 434.223 370.924C441.537 363.411 446.413 354.19 446.413 343.604Z" fill="#4C9CD6"/>
<path d="M402.209 391.314C367.871 391.314 340.152 368.388 340.152 339.988C342.22 339.988 344.289 341.357 344.289 343.409C345.116 355.044 351.322 365.651 360.837 373.521C370.353 381.733 383.592 386.866 398.072 387.893C400.554 387.893 402.209 389.603 402.209 391.314Z" fill="#535461"/>
<path d="M402.209 288.661C435.593 288.661 462.543 311.587 462.543 339.988C460.532 339.988 458.52 338.619 458.52 336.566C457.716 325.274 452.085 315.009 443.638 307.481C433.985 298.926 420.711 293.109 406.231 292.083C403.818 292.083 402.209 290.372 402.209 288.661Z" fill="#535461"/>
<path d="M288.703 418.516L291.165 416.803C289.114 418.859 287.883 421.6 287.883 424.341C287.883 428.795 294.448 430.508 298.141 427.425L341.223 391.45C343.685 389.394 347.378 389.394 349.839 391.45L353.942 394.876L309.219 434.962C306.757 437.018 303.474 438.731 300.192 439.073C295.678 439.416 291.165 438.045 288.293 435.647C285.421 433.249 283.78 429.48 284.19 425.712C284.19 422.97 286.242 420.572 288.703 418.516Z" fill="#400655"/>
<path d="M330.72 394.83C331.114 394.83 331.902 394.83 332.296 394.483L342.146 385.822C342.934 385.129 342.934 384.089 342.146 383.397C341.359 382.704 340.176 382.704 339.388 383.397L329.538 392.058C328.75 392.751 328.75 393.79 329.538 394.483C329.538 394.83 330.326 394.83 330.72 394.83Z" fill="#C75CED"/>
</svg>
