<svg width="733" height="577" viewBox="0 0 733 577" fill="none" xmlns="http://www.w3.org/2000/svg">
<path d="M733 223.383C733.027 250.306 724.621 276.636 708.835 299.074C693.05 321.512 670.588 339.06 644.265 349.516C617.942 359.973 588.93 362.874 560.865 357.855C532.8 352.836 506.931 340.121 486.502 321.303C466.073 302.486 451.993 278.404 446.026 252.075C440.059 225.747 442.471 198.345 452.96 173.303C463.449 148.262 481.548 126.696 504.988 111.308C528.428 95.9209 556.166 87.3972 584.725 86.8057C585.175 86.7965 585.626 86.7873 586.086 86.778C586.733 86.7688 587.389 86.7688 588.045 86.7688C589.69 86.7688 591.336 86.7965 592.972 86.8519C596.576 86.9626 600.141 87.1965 603.667 87.5534C605.704 87.7565 607.712 88.0057 609.72 88.2826C609.945 88.3196 610.18 88.3473 610.405 88.3842C618.691 89.588 626.848 91.4752 634.783 94.0241C663.429 103.232 688.301 120.655 705.914 143.852C723.527 167.049 732.998 194.859 733 223.383V223.383Z" fill="#CCB3EB"/>
<path d="M477.129 230.758C477.416 230.331 476.67 229.401 475.462 228.68C474.255 227.96 473.043 227.721 472.756 228.148C472.47 228.575 473.216 229.505 474.424 230.226C475.631 230.947 476.843 231.185 477.129 230.758Z" fill="#3F3D56"/>
<path d="M472.893 222.816C473.535 221.86 474.555 221.183 475.727 220.935C476.899 220.687 478.127 220.888 479.142 221.494L536.538 255.748C537.552 256.354 538.27 257.315 538.534 258.419C538.797 259.524 538.584 260.682 537.941 261.638L472.893 222.816Z" fill="#D0CDE1"/>
<path d="M467.463 224.628L469.269 221.941C469.708 221.287 470.405 220.825 471.206 220.655C472.007 220.486 472.846 220.623 473.54 221.037L538.889 260.039C539.296 260.281 539.648 260.597 539.925 260.968C540.202 261.339 540.399 261.758 540.505 262.2C540.61 262.643 540.622 263.101 540.54 263.548C540.457 263.995 540.282 264.422 540.025 264.805L538.525 267.038L467.463 224.628Z" fill="#2F2E41"/>
<path d="M477.193 226.104L476.501 227.135L480.874 229.745L481.566 228.714L477.193 226.104Z" fill="#D0CDE1"/>
<path d="M483.206 229.693L482.514 230.723L486.886 233.333L487.579 232.303L483.206 229.693Z" fill="#D0CDE1"/>
<path d="M569.823 104.524C592.354 104.524 610.618 87.3109 610.618 66.0768C610.618 44.8427 592.354 27.6291 569.823 27.6291C547.293 27.6291 529.028 44.8427 529.028 66.0768C529.028 87.3109 547.293 104.524 569.823 104.524Z" fill="#FFB8B8"/>
<path d="M572.311 93.2714C572.311 93.2714 592.211 122.81 587.236 131.25C582.261 139.69 566.838 162.665 566.838 162.665C566.838 162.665 635.493 114.84 626.538 104.524C626.538 104.524 606.141 88.1138 605.146 77.7985L572.311 93.2714Z" fill="#FFB8B8"/>
<path d="M627.281 354.939C594.184 363.651 558.884 361.051 527.624 347.601L530.758 268.678L530.993 262.54L531.082 260.546L531.189 257.611L531.268 255.737C531.268 255.737 531.395 255.728 531.64 255.718C532.306 255.672 533.844 255.571 536.047 255.451C538.604 255.312 542.041 255.137 546.047 254.98C546.997 254.943 547.977 254.906 548.985 254.86C570.082 254.121 603.03 253.965 607.389 259.955L607.937 263.481L608.819 269.177L610.621 280.817C610.621 280.817 631.11 319.217 627.281 354.939Z" fill="#2F2E41"/>
<path d="M664.845 152.349L629.603 225.836L614.299 257.738L608.628 269.568L526.541 268.63L534.998 214.71C523.058 185.64 551.416 173.918 551.416 173.918L575.296 149.935V153.756C575.296 153.756 598.678 127.499 609.126 112.495C619.573 97.4912 634 103.118 634 103.118C658.875 100.773 664.845 152.349 664.845 152.349Z" fill="#E6E6E6"/>
<path opacity="0.2" d="M629.603 225.836L614.299 257.739C609.384 249.074 605.643 239.26 605.643 233.465C605.643 217.523 622.558 225.963 622.558 225.963C622.558 225.963 608.877 155.397 608.877 134.298C608.877 120.284 621.274 182.48 629.603 225.836Z" fill="black"/>
<path d="M616.09 231.12L541.963 229.714C541.963 229.714 487.736 233.934 495.696 254.564C503.656 275.195 546.938 254.564 546.938 254.564L633.503 267.224L616.09 231.12Z" fill="#FFB8B8"/>
<path d="M630.021 106.869C630.021 106.869 604.151 108.744 604.151 129.843C604.151 150.943 627.533 225.963 627.533 225.963C627.533 225.963 610.618 217.523 610.618 233.465C610.618 249.406 638.975 295.825 641.96 264.879C641.96 264.879 684.745 284.572 682.258 247.531C679.77 210.49 652.905 132.188 652.905 132.188C652.905 132.188 649.92 105.462 630.021 106.869Z" fill="#E6E6E6"/>
<path d="M574.284 74.214C571.255 71.0388 571.311 65.6836 568.869 61.9614C565.036 56.1163 557.053 56.5081 550.499 57.5172C546.142 58.1879 541.722 58.8781 537.679 60.7433C535.87 61.5496 534.258 62.8002 532.971 64.3963C531.684 65.9925 530.757 67.8906 530.263 69.941C529.75 72.2436 528.618 65.7104 527.466 57.2489C526.286 48.6154 527.667 39.799 531.41 32.07C535.153 24.341 541.065 18.0984 548.294 14.2418C548.38 14.1961 548.465 14.151 548.549 14.1066C555.963 10.2049 563.729 6.75904 571.923 5.7908C580.116 4.82256 588.86 6.57566 595.286 12.1655C598.223 14.7203 600.612 18.0001 603.761 20.2396C609.294 24.1744 616.3 24.3649 622.874 25.1944C630.309 26.1326 637.762 28.1025 644.18 32.2735C650.599 36.4445 655.917 43.0247 657.702 50.8981C659.783 60.0822 656.386 70.939 648.049 74.9243C646.593 75.5878 645.302 76.6138 644.28 77.919C637.434 86.9833 648.486 91.9428 650.089 99.8326C651.427 106.416 645.581 112.377 639.586 114.19C628.421 117.566 615.425 110.841 610.835 99.3121C608.778 94.1475 608.31 88.4345 607.751 82.843C607.11 76.4424 591.61 64.8497 602.074 73.5699C604.105 75.2169 605.705 77.4082 606.716 79.928C609.899 88.1812 603.292 92.8658 599.749 98.7583C597.82 102.072 596.787 105.906 596.768 109.823C596.749 113.741 597.743 117.586 599.64 120.922C590.454 115.725 585.808 102.697 589.383 92.1616C590.334 89.3612 591.774 86.7724 592.637 83.9393C593.985 79.5185 592.794 70.9274 586.769 72.6691C582.469 73.9123 578.794 78.9407 574.284 74.214Z" fill="#2F2E41"/>
<path d="M290.035 405.228C290.04 432.669 281.277 459.475 264.887 482.155C248.497 504.835 225.24 522.337 198.145 532.382C196.02 533.185 193.855 533.932 191.681 534.625C189.252 535.409 186.797 536.129 184.316 536.785C182.592 537.237 180.852 537.662 179.095 538.059C152.655 544.03 124.97 542.917 99.1644 534.846C97.137 534.209 95.1291 533.526 93.1409 532.815C90.4671 531.846 87.8226 530.803 85.2272 529.686C85.0313 529.612 84.8452 529.529 84.6591 529.446C83.6405 529.003 82.6513 528.56 81.6425 528.089H81.6327C80.2517 527.462 78.8838 526.809 77.5289 526.132C74.4143 524.582 71.3683 522.929 68.3909 521.176C66.8434 520.271 65.3188 519.333 63.817 518.36C40.1801 503.32 21.7784 482.04 10.9177 457.186C0.0568931 432.332 -2.77996 405.011 2.76256 378.644C8.30508 352.278 21.9805 328.039 42.0752 308.965C62.17 289.891 87.7905 276.831 115.727 271.42C118.283 270.922 120.865 270.491 123.474 270.128C125.109 269.888 126.765 269.685 128.42 269.509C129.605 269.38 130.79 269.26 131.995 269.168H132.005C135.227 268.891 138.479 268.719 141.76 268.651C142.21 268.642 142.661 268.632 143.121 268.623C143.376 268.623 143.63 268.614 143.885 268.623H143.895C144.287 268.614 144.678 268.614 145.08 268.614C146.725 268.614 148.371 268.642 150.006 268.697C153.611 268.808 157.176 269.042 160.702 269.399C162.739 269.602 164.747 269.851 166.755 270.128C166.98 270.165 167.215 270.192 167.44 270.229C168.106 270.331 168.782 270.432 169.448 270.543C170.858 270.755 172.259 271.005 173.659 271.272C174.972 271.522 176.275 271.78 177.577 272.057C182.392 273.092 187.145 274.365 191.818 275.869C223.488 286.073 250.451 306.265 268.154 333.035C268.654 333.783 269.144 334.54 269.624 335.306C269.996 335.878 270.348 336.45 270.701 337.032C270.828 337.226 270.946 337.42 271.054 337.614C271.132 337.724 271.191 337.835 271.259 337.946C271.906 339.007 272.532 340.087 273.14 341.167C284.268 360.89 290.07 382.891 290.035 405.228V405.228Z" fill="#6C63FF"/>
<path d="M223.667 356.434C223.667 356.434 257.314 328.558 269.813 348.043C282.312 367.528 234.793 375.415 232.048 374.408C229.303 373.401 223.667 356.434 223.667 356.434Z" fill="#A0616A"/>
<path d="M158.219 377.11C158.219 377.11 198.037 364.906 204.827 359.949C211.617 354.992 217.873 351.329 219.245 351.832C220.618 352.336 229.619 349.68 229.619 349.68L240.284 377.43C240.284 377.43 197.721 388.627 196.652 391.214C195.583 393.801 158.219 377.11 158.219 377.11Z" fill="#D0CDE1"/>
<path d="M179.095 538.059C152.655 544.03 124.97 542.917 99.1644 534.846L100.927 519.136L102.563 504.459L127.098 468.708L134.962 457.253L167.372 468.357L170.672 487.973L175.932 519.256L179.095 538.059Z" fill="#2F2E41"/>
<path d="M198.145 532.382C196.02 533.185 193.855 533.933 191.681 534.625C189.252 535.409 186.797 536.129 184.316 536.785C182.592 537.237 180.852 537.662 179.095 538.059C152.655 544.03 124.97 542.918 99.1645 534.846C97.1371 534.209 95.1293 533.526 93.141 532.816C93.4124 538.282 93.2355 543.76 92.6121 549.2C89.7829 542.824 87.3177 536.311 85.2273 529.686C85.0804 529.243 84.9432 528.8 84.8061 528.357C84.1205 526.123 83.5133 523.991 82.9648 521.988C82.338 519.671 81.7993 517.52 81.3487 515.554C79.5564 507.837 78.9883 503.065 78.9883 503.065L98.1361 465.588L101.966 466.004L103.552 466.17L113.151 467.204L127.098 468.708L149.693 471.136L170.672 487.973L189.467 503.065C189.467 503.065 191.035 508.087 193.493 516.403C194.825 520.871 196.402 526.289 198.145 532.382Z" fill="#2F2E41"/>
<path d="M163.885 274.781C182.596 274.781 197.764 260.485 197.764 242.851C197.764 225.217 182.596 210.922 163.885 210.922C145.175 210.922 130.006 225.217 130.006 242.851C130.006 260.485 145.175 274.781 163.885 274.781Z" fill="#A0616A"/>
<path d="M174.736 315.653C174.736 315.653 151.168 269.841 132.019 269.841C112.87 269.841 62.7878 301.771 64.2608 308.712C65.7338 315.653 65.7338 317.042 65.7338 321.206C65.7338 325.371 55.4229 325.371 64.2608 328.148C73.0988 330.924 74.5718 333.701 74.5718 333.701L67.2068 511.396C67.2068 511.396 99.6128 522.502 111.397 518.337C123.181 514.172 134.965 486.408 134.965 486.408C134.965 486.408 132.019 523.89 143.803 522.502C155.587 521.114 199.777 518.337 201.25 512.784C202.723 507.231 192.412 385.066 192.412 385.066L174.736 315.653Z" fill="#D0CDE1"/>
<path d="M141.683 257.418C144.979 257.233 148.198 258.283 151.471 258.693C163.182 260.158 175.365 252.149 177.951 241.285C178.158 239.838 178.615 238.433 179.305 237.126C181.107 234.353 185.212 233.824 188.596 234.462C191.98 235.099 195.187 236.592 198.633 236.762C203.954 237.025 209.062 233.938 211.898 229.687C214.734 225.436 215.536 220.204 215.154 215.196L212.603 217.719C211.566 215.652 211.166 213.353 211.448 211.083C210.096 210.743 208.675 210.737 207.32 211.064C205.965 211.39 204.721 212.04 203.708 212.949C201.459 213.175 203.157 209.017 201.486 207.581C200.786 206.979 199.713 207.093 198.766 207.101C193.982 207.145 190.111 203.695 186.34 200.919C179.807 196.119 172.168 192.834 164.039 191.332C158.636 190.338 152.891 190.179 147.767 192.075C143.559 193.632 140.036 196.468 136.778 199.422C128.756 206.691 121.652 215.233 118.315 225.239C115.602 233.435 115.525 242.205 118.094 250.441C119.439 254.719 123.491 269.369 129.425 269.71C136.88 270.139 132.404 257.94 141.683 257.418Z" fill="#2F2E41"/>
<path d="M282.309 331.148C283.139 330.051 283.459 328.924 283.022 328.631C282.586 328.337 281.559 328.989 280.729 330.085C279.899 331.182 279.58 332.309 280.016 332.602C280.452 332.895 281.479 332.244 282.309 331.148Z" fill="#3F3D56"/>
<path d="M236.045 382.811C235.067 382.153 234.406 381.157 234.208 380.04C234.01 378.924 234.291 377.778 234.988 376.857L274.446 324.736C275.143 323.815 276.201 323.192 277.386 323.006C278.57 322.819 279.785 323.083 280.763 323.741V323.741L236.045 382.811L236.045 382.811Z" fill="#D0CDE1"/>
<path d="M237.664 388.02L235.381 386.485C234.59 385.953 234.055 385.146 233.895 384.242C233.735 383.339 233.962 382.412 234.527 381.666L279.452 322.323C279.929 321.693 280.651 321.268 281.461 321.14C282.271 321.012 283.101 321.193 283.769 321.642L286.516 323.49L237.664 388.02L237.664 388.02Z" fill="#2F2E41"/>
<path d="M275.089 332.285L276.142 332.994L279.149 329.023L278.095 328.314L275.089 332.285Z" fill="#D0CDE1"/>
<path d="M270.956 337.746L272.009 338.454L275.015 334.483L273.962 333.775L270.956 337.746Z" fill="#D0CDE1"/>
<g filter="url(#filter0_f)">
<ellipse cx="332.64" cy="74.3073" rx="121.938" ry="65.0766" fill="white"/>
<path d="M454.078 74.3073C454.078 92.0033 440.63 108.14 418.628 119.882C396.647 131.613 366.246 138.884 332.64 138.884C299.033 138.884 268.632 131.613 246.652 119.882C224.649 108.14 211.201 92.0033 211.201 74.3073C211.201 56.6113 224.649 40.4745 246.652 28.7323C268.632 17.0016 299.033 9.73071 332.64 9.73071C366.246 9.73071 396.647 17.0016 418.628 28.7323C440.63 40.4745 454.078 56.6113 454.078 74.3073Z" stroke="#550052"/>
</g>
<path d="M250.858 72.3457L253.459 80.9994L256.061 91.9607C256.061 91.9607 262.825 95.9991 263.346 93.1146C263.866 90.23 260.744 89.6531 260.744 89.6531L259.703 83.884L267.508 68.3073L250.858 72.3457Z" fill="#3F3D56"/>
<path d="M294.932 68.3073L299.707 92.6344C299.707 92.6344 303.422 95.0077 306.075 93.8211C308.728 92.6344 304.483 89.6677 304.483 89.6677C304.483 89.6677 306.075 74.8341 314.034 73.0541C321.994 71.274 294.932 68.3073 294.932 68.3073Z" fill="#3F3D56"/>
<path d="M326.133 40.4398C326.133 40.4398 315.584 44.5522 306.09 42.2022C306.09 42.2022 287.63 39.2648 286.048 38.6773C284.465 38.0898 266.532 36.9148 257.038 38.6773C257.038 38.6773 230.666 15.7651 245.435 5.77778C245.435 5.77778 251.764 9.30273 253.346 6.95276C253.94 6.07153 253.643 4.94244 253.04 3.87532C252.36 2.71578 251.436 1.75835 250.348 1.08574C249.261 0.413136 248.043 0.0455967 246.799 0.0149276C241.288 -0.214916 231.411 1.99109 235.894 22.063C237.172 27.5993 239.526 32.7554 242.79 37.1668C245.192 40.465 247.676 45.0295 246.49 48.6646C244.38 55.127 243.852 65.1144 243.852 65.1144L236.468 77.4517C236.468 77.4517 232.249 92.7265 232.249 93.3139C232.249 93.9014 237.987 95.1477 239.105 93.9014C240.16 92.7265 237.523 90.3765 237.523 90.3765C237.523 90.3765 239.633 85.6766 243.325 84.5016C247.017 83.3266 257.038 79.2142 258.621 77.4517C260.203 75.6892 293.959 65.1144 303.453 75.1017C308.781 80.7709 314.418 86.0684 320.331 90.964C320.331 90.964 322.969 95.0764 326.133 95.0764C329.298 95.0764 329.825 89.789 326.133 89.2015C322.441 88.614 317.167 74.5142 317.167 74.5142C317.167 74.5142 315.584 63.9394 323.496 62.1769C327.857 61.2053 330.456 61.1264 331.909 61.2513C332.49 61.305 333.074 61.228 333.627 61.0248C334.181 60.8217 334.692 60.4965 335.13 60.0687C336.071 59.0607 336.914 57.9447 337.645 56.7395C337.838 56.4335 337.962 56.0805 338.007 55.71C338.053 55.3395 338.018 54.9622 337.905 54.6099C337.203 52.4741 336.618 50.2924 336.155 48.0771C335.627 45.1397 331.408 42.7897 331.408 42.7897C331.408 42.7897 330.353 34.5648 328.77 36.9148C327.96 38.1511 327.079 39.3285 326.133 40.4398V40.4398Z" fill="#3F3D56"/>
<g filter="url(#filter1_f)">
<line y1="-0.5" x2="124.842" y2="-0.5" transform="matrix(0.415803 0.909455 -0.926514 0.376259 435.969 109.846)" stroke="#550052"/>
</g>
<g filter="url(#filter2_f)">
<line y1="-0.5" x2="202.29" y2="-0.5" transform="matrix(0.193667 -0.981067 0.984973 0.172707 262.611 335.075)" stroke="#550052"/>
</g>
<g clip-path="url(#clip0)">
<path d="M427.127 73.7258C426.35 73.4022 425.407 73.721 424.994 74.4487L418.193 86.0834L404.442 93.5657L401.385 88.5765L415.556 80.8656C415.85 80.7056 416.085 80.4482 416.219 80.1803L422.857 67.5474C423.249 66.8151 422.919 65.9723 422.129 65.6883C421.345 65.3845 420.389 65.7428 420.018 66.4797L413.617 78.6756L399.894 86.1427L396.763 81.0317L410.934 73.3209C411.25 73.1654 411.506 72.9126 411.661 72.6172L417.918 59.3637C418.26 58.6102 417.888 57.7902 417.091 57.526C416.295 57.2618 415.374 57.649 415.004 58.3858L408.953 71.1537L395.273 78.598L392.291 73.7304L406.462 66.0195C406.804 65.8168 407.08 65.5047 407.205 65.1606L412.665 50.6051C412.869 50.0236 412.681 49.4119 412.18 49.0517C411.679 48.6914 410.967 48.6569 410.386 48.9571L397.027 56.2261C397.013 56.2337 396.851 56.0299 396.749 55.9554C396.256 55.6073 395.544 55.5728 394.97 55.8852L373.545 67.543C373.195 67.7334 372.92 68.0456 372.794 68.3896L372.326 69.6668L358.659 77.1034C358.316 77.306 358.041 77.6182 357.923 77.9744L352.456 92.5178C352.252 93.0993 352.44 93.7109 352.94 94.0712C353.441 94.4315 354.153 94.466 354.735 94.1658L368.066 86.912L371.047 91.7796L357.717 99.0333C356.946 99.4524 356.652 100.343 357.062 101.012C357.472 101.681 358.437 101.886 359.208 101.467L372.538 94.2134L375.669 99.3243L362.338 106.578C361.568 106.997 361.274 107.888 361.684 108.557C362.094 109.226 363.059 109.431 363.829 109.012L377.16 101.758L380.217 106.747L366.886 114.001C366.116 114.42 365.821 115.311 366.231 115.98C366.641 116.649 367.607 116.854 368.377 116.435L420.104 88.2886C420.376 88.1241 420.598 87.9063 420.732 87.6383L427.757 75.6382C428.178 74.9227 427.89 74.0569 427.127 73.7258ZM396.377 59.8895C396.391 59.8819 396.375 59.8256 396.403 59.8104L408.306 53.3339L404.425 63.8829L392.508 70.367L396.377 59.8895ZM366.967 84.2649L356.815 89.789L360.696 79.24L370.806 73.7387L366.977 84.1295C366.956 84.1567 366.92 84.128 366.967 84.2649ZM387.098 82.9L388.988 81.8713C389.758 81.4523 390.724 81.657 391.134 82.3263C391.544 82.9956 391.249 83.8861 390.479 84.3051L388.589 85.3338C388.883 86.4232 388.852 87.5919 388.5 88.7244C387.995 90.2162 386.916 91.5333 385.469 92.4018L393.445 93.8705L393.466 93.8751C394.31 94.0327 394.793 94.7917 394.559 95.568C394.325 96.3443 393.451 96.8365 392.607 96.6789L380.793 94.4917C380.386 94.4053 380.024 94.1803 379.822 93.8517C379.391 93.1779 379.686 92.2874 380.462 91.8486L383.613 90.1342C384.503 89.6663 385.171 88.9293 385.473 88.051C385.584 87.6826 385.644 87.293 385.655 86.9141L379.507 90.259C378.737 90.6781 377.771 90.4733 377.361 89.804C376.951 89.1348 377.246 88.2443 378.016 87.8252L384.164 84.4803C382.961 83.6746 381.454 83.6833 380.123 84.4072L376.973 86.1216C376.202 86.5406 375.237 86.3359 374.827 85.6666C374.417 84.9973 374.712 84.1068 375.482 83.6878L386.46 77.7141C387.23 77.2951 388.196 77.4998 388.606 78.1691C389.016 78.8384 388.721 79.7288 387.944 80.1677L385.242 81.6383C385.941 81.9559 386.571 82.3753 387.098 82.9Z" fill="#484285"/>
</g>
<path d="M582.028 93.7166L575.458 106.146C561.706 107.542 547.019 101.452 537.858 92.9961L546.483 81.8458C553.693 91.6316 566.695 93.6706 582.028 93.7166Z" fill="#F2F2F2"/>
<path d="M573.002 69.3668L546.496 83.7895C546.262 83.917 545.99 83.9623 545.74 83.9152C545.49 83.8682 545.283 83.7328 545.164 83.5388C545.045 83.3448 545.024 83.108 545.106 82.8807C545.188 82.6533 545.365 82.454 545.6 82.3265L572.106 67.9037C572.34 67.7762 572.612 67.731 572.862 67.778C573.111 67.8251 573.318 67.9605 573.437 68.1545C573.556 68.3485 573.577 68.5852 573.495 68.8126C573.414 69.0399 573.236 69.2393 573.002 69.3668V69.3668Z" fill="#F2F2F2"/>
<path d="M581.145 94.1975C581.001 94.2761 580.84 94.3242 580.679 94.3376C580.517 94.351 580.358 94.3292 580.217 94.2742C580.075 94.2193 579.955 94.1327 579.867 94.0223C579.778 93.9118 579.725 93.7807 579.711 93.6405L577.816 75.1638C577.804 75.0511 577.818 74.9348 577.857 74.8218C577.895 74.7087 577.958 74.601 578.042 74.5049C578.125 74.4088 578.227 74.3262 578.343 74.2617C578.458 74.1972 578.584 74.1522 578.714 74.1292C578.844 74.1063 578.975 74.1058 579.099 74.1278C579.223 74.1498 579.338 74.194 579.438 74.2577C579.538 74.3214 579.62 74.4033 579.68 74.4989C579.741 74.5945 579.777 74.7018 579.788 74.8147L581.683 93.2915C581.701 93.4628 581.659 93.6407 581.563 93.8023C581.467 93.9638 581.321 94.1015 581.145 94.1975V94.1975Z" fill="#F2F2F2"/>
<path d="M189.198 245.384L200.378 247.644C199.275 256.836 190.551 268.027 180.474 275.852L170.94 271.949C181.987 265.224 186.373 255.924 189.198 245.384Z" fill="#B3D7EE" fill-opacity="0.8"/>
<path d="M163.324 255.998L172.875 271.589C172.96 271.727 172.955 271.905 172.863 272.085C172.771 272.265 172.599 272.432 172.384 272.549C172.17 272.666 171.93 272.723 171.719 272.708C171.507 272.693 171.341 272.607 171.257 272.469L161.706 256.879C161.621 256.741 161.626 256.563 161.718 256.383C161.81 256.202 161.982 256.036 162.197 255.919C162.411 255.802 162.651 255.745 162.862 255.76C163.074 255.775 163.24 255.86 163.324 255.998V255.998Z" fill="#B3D7EE" fill-opacity="0.8"/>
<path d="M189.515 245.905C189.567 245.99 189.586 246.091 189.57 246.2C189.554 246.308 189.504 246.421 189.423 246.528C189.343 246.636 189.235 246.734 189.109 246.814C188.983 246.895 188.843 246.955 188.701 246.991L169.967 251.641C169.853 251.67 169.74 251.681 169.634 251.675C169.529 251.669 169.433 251.645 169.352 251.606C169.272 251.566 169.208 251.51 169.165 251.443C169.122 251.375 169.1 251.297 169.1 251.212C169.101 251.127 169.124 251.037 169.169 250.948C169.213 250.858 169.278 250.771 169.359 250.691C169.441 250.611 169.537 250.54 169.643 250.481C169.749 250.422 169.863 250.378 169.977 250.35L188.711 245.7C188.885 245.656 189.054 245.653 189.197 245.689C189.341 245.726 189.451 245.801 189.515 245.905V245.905Z" fill="#B3D7EE" fill-opacity="0.8"/>
<path d="M136.204 244.457L118.473 280.206L168.252 312.702C168.252 312.702 162.393 274.001 173.432 264.2C184.47 254.4 136.204 244.457 136.204 244.457Z" fill="#A0616A"/>
<path d="M92.612 549.2V549.219C91.1037 561.523 86.5298 573.994 74.571 576.643C54.2577 581.148 62.0539 541.806 65.717 526.788C66.5789 523.29 67.2057 521.111 67.2057 521.111L68.3908 521.176L82.9647 521.988L92.2496 522.505C92.2496 522.505 92.6316 525.043 92.9254 529.022C93.0136 530.176 93.0919 531.449 93.1409 532.816C93.4122 538.282 93.2354 543.76 92.612 549.2Z" fill="#A0616A"/>
<path d="M98.1399 304.547L55.423 407.278C55.423 407.278 49.5311 418.384 55.423 426.713C61.315 435.043 52.4771 485.019 58.369 496.125C64.261 507.231 64.261 526.667 64.261 526.667L98.1399 529.443L105.505 407.278L143.803 329.536C143.803 329.536 140.857 297.606 98.1399 304.547Z" fill="#D0CDE1"/>
<path opacity="0.1" d="M109.188 301.077C109.188 301.077 82.6736 308.018 73.8356 333.006L109.188 301.077Z" fill="black"/>
<path opacity="0.1" d="M144.09 359.537L109.398 407.492L98.3033 518.879L144.09 359.537Z" fill="black"/>
<defs>
<filter id="filter0_f" x="206.701" y="5.23071" width="251.877" height="138.153" filterUnits="userSpaceOnUse" color-interpolation-filters="sRGB">
<feFlood flood-opacity="0" result="BackgroundImageFix"/>
<feBlend mode="normal" in="SourceGraphic" in2="BackgroundImageFix" result="shape"/>
<feGaussianBlur stdDeviation="2" result="effect1_foregroundBlur"/>
</filter>
<filter id="filter1_f" x="431.969" y="105.469" width="60.836" height="121.914" filterUnits="userSpaceOnUse" color-interpolation-filters="sRGB">
<feFlood flood-opacity="0" result="BackgroundImageFix"/>
<feBlend mode="normal" in="SourceGraphic" in2="BackgroundImageFix" result="shape"/>
<feGaussianBlur stdDeviation="2" result="effect1_foregroundBlur"/>
</filter>
<filter id="filter2_f" x="257.626" y="132.442" width="48.162" height="206.633" filterUnits="userSpaceOnUse" color-interpolation-filters="sRGB">
<feFlood flood-opacity="0" result="BackgroundImageFix"/>
<feBlend mode="normal" in="SourceGraphic" in2="BackgroundImageFix" result="shape"/>
<feGaussianBlur stdDeviation="2" result="effect1_foregroundBlur"/>
</filter>
<clipPath id="clip0">
<rect width="74.3547" height="66.5609" fill="white" transform="matrix(0.878384 -0.477956 0.522372 0.852717 325.294 68.7689)"/>
</clipPath>
</defs>
</svg>
