<svg width="443" height="413" viewBox="0 0 443 413" fill="none" xmlns="http://www.w3.org/2000/svg">
<g id="sell-2">
<path id="Vector" d="M301.729 399.11V405.073H134.403V400.231C144.608 396.246 153.461 389.16 159.842 379.87C166.224 370.579 169.846 359.502 170.252 348.041C170.657 336.579 167.826 325.249 162.119 315.484C156.411 305.718 148.082 297.958 138.187 293.184H300.593C290.92 297.852 282.739 305.376 277.042 314.846C271.346 324.316 268.378 335.324 268.498 346.536C268.618 357.748 271.822 368.682 277.72 378.014C283.618 387.345 291.958 394.673 301.729 399.11Z" fill="#C8CAD7"/>
<path id="Vector_2" opacity="0.1" d="M300.593 293.184C293.129 296.795 286.526 302.121 281.268 308.77C276.01 315.419 272.229 323.223 270.203 331.611H168.585C166.557 323.224 162.776 315.42 157.518 308.771C152.26 302.122 145.658 296.796 138.195 293.184H300.593Z" fill="black"/>
<path id="Vector_3" d="M0.238427 249.967V275.517C0.238427 289.625 10.5624 301.062 23.3014 301.062H419.277C432.017 301.062 442.34 289.625 442.34 275.517V249.967H0.238427Z" fill="#C8CAD7"/>
<path id="Vector_4" opacity="0.1" d="M301.729 399.11V405.073H134.403V400.231C138.99 398.432 143.329 395.995 147.304 392.986H291.469C294.672 395.407 298.111 397.46 301.729 399.11Z" fill="black"/>
<path id="Vector_5" d="M350.15 394.847H85.9816C82.1852 394.847 79.1077 398.09 79.1077 402.092V405.272C79.1077 409.273 82.1852 412.516 85.9816 412.516H350.15C353.947 412.516 357.024 409.273 357.024 405.272V402.092C357.024 398.09 353.947 394.847 350.15 394.847Z" fill="#C8CAD7"/>
<path id="Vector_6" d="M442.34 19.3574C442.333 14.3783 439.899 9.60528 435.575 6.08716C431.25 2.56905 425.389 0.593605 419.277 0.594866L23.3189 0.594866C17.2048 0.589833 11.3385 2.56361 7.01024 6.08214C2.68198 9.60066 0.246147 14.3758 0.238434 19.3574L0.238434 251.492H442.34V19.3574Z" fill="#474157"/>
<path id="Vector_7" d="M218.142 20.6514C221.798 20.6514 224.763 17.5273 224.763 13.6735C224.763 9.81977 221.798 6.69569 218.142 6.69569C214.485 6.69569 211.521 9.81977 211.521 13.6735C211.521 17.5273 214.485 20.6514 218.142 20.6514Z" fill="white"/>
<path id="Vector_8" d="M217.621 314.88C226.636 314.88 233.945 307.177 233.945 297.676C233.945 288.174 226.636 280.471 217.621 280.471C208.606 280.471 201.297 288.174 201.297 297.676C201.297 307.177 208.606 314.88 217.621 314.88Z" fill="white"/>
<path id="Vector_9" d="M442.34 42.5388H0.238425C0.238425 40.6354 0.549094 38.7506 1.15268 36.9922C1.75627 35.2338 2.64096 33.6362 3.75619 32.2906C4.87142 30.945 6.19533 29.8779 7.6523 29.1502C9.10928 28.4224 10.6708 28.0484 12.2475 28.0494H430.301C431.88 28.0435 433.445 28.4139 434.905 29.1395C436.366 29.865 437.693 30.9314 438.812 32.2774C439.93 33.6235 440.818 35.2228 441.423 36.9836C442.029 38.7445 442.34 40.6323 442.34 42.5388Z" fill="#C8CAD7"/>
<path id="Vector_10" d="M14.1817 39.053C16.1318 39.053 17.7127 37.3868 17.7127 35.3315C17.7127 33.2762 16.1318 31.61 14.1817 31.61C12.2315 31.61 10.6506 33.2762 10.6506 35.3315C10.6506 37.3868 12.2315 39.053 14.1817 39.053Z" fill="#EDEDF4"/>
<path id="Vector_11" d="M24.7675 39.053C26.7176 39.053 28.2985 37.3868 28.2985 35.3315C28.2985 33.2762 26.7176 31.61 24.7675 31.61C22.8174 31.61 21.2365 33.2762 21.2365 35.3315C21.2365 37.3868 22.8174 39.053 24.7675 39.053Z" fill="#EDEDF4"/>
<path id="Vector_12" d="M35.3533 39.053C37.3035 39.053 38.8844 37.3868 38.8844 35.3315C38.8844 33.2762 37.3035 31.61 35.3533 31.61C33.4032 31.61 31.8223 33.2762 31.8223 35.3315C31.8223 37.3868 33.4032 39.053 35.3533 39.053Z" fill="#EDEDF4"/>
<rect id="Rectangle 5" x="70.1726" y="71.6983" width="300.923" height="150.996" rx="30" fill="#AFAAC9"/>
<rect id="Rectangle 6" x="211.58" y="94.7116" width="76.3342" height="9.91387" fill="#CAC8F0"/>
<rect id="Rectangle 7" x="211.58" y="115.302" width="120.067" height="9.91387" fill="#CAC8F0"/>
<rect id="Rectangle 8" x="211.58" y="131.317" width="120.067" height="9.91387" fill="#CAC8F0"/>
<rect id="Rectangle 9" x="211.58" y="147.331" width="120.067" height="9.91387" fill="#CAC8F0"/>
<rect id="Rectangle 10" x="241" y="183.174" width="61.2264" height="17.5399" rx="8.76997" fill="#DFB4EE"/>
<g id="shirt">
<path id="Vector_13" d="M132.332 110.125C132.332 110.125 124.924 100.563 127.716 96.8373L115.199 101.621C115.199 101.621 107.666 100.768 104.951 111.243C104.516 112.986 104.358 114.778 104.482 116.564C104.583 118.141 104.351 120.921 102.42 124.519C99.331 130.277 100.044 143.498 106.353 144.805C112.662 146.111 114.92 145.458 114.92 145.458C114.92 145.458 114.076 169.409 110.429 172.155C106.781 174.901 119.738 174.248 119.738 174.248C119.738 174.248 130.93 174.801 136.687 175.56C142.444 176.318 158.591 172.792 158.591 172.792C158.591 172.792 156.215 162.715 155.359 156.304C154.504 149.893 152.555 136.24 152.555 136.24L166.879 118.158C166.879 118.158 169.403 107.229 160.557 102.39C151.712 97.5515 148.379 96.3556 148.379 96.3556C148.379 96.3556 139.467 109.848 134.857 110.501C134.857 110.512 133.099 111.177 132.332 110.125Z" fill="#6357ED"/>
<path id="Vector_14" opacity="0.1" d="M115.9 113.923C115.9 113.923 115.763 118.241 116.607 119.941C117.451 121.64 120.534 131.063 120.534 131.063H113.518C113.518 131.063 117.308 127.271 117.029 125.438C116.75 123.606 115.9 113.923 115.9 113.923Z" fill="black"/>
<path id="Vector_15" opacity="0.1" d="M163.647 115.229L166.457 118.175V125.306C166.457 125.306 164.08 147.817 156.488 150.303C148.896 152.788 135.368 148.863 135.368 148.863C135.368 148.863 131.869 140.226 133.503 139.7C135.136 139.174 147.963 136.024 147.963 136.024C147.963 136.024 147.779 122.82 150.589 118.894C150.589 118.894 148.765 106.593 155.08 106.332C161.395 106.072 163.647 115.229 163.647 115.229Z" fill="black"/>
<path id="Vector_16" d="M164.057 115.229L166.867 118.175V125.306C166.867 125.306 164.49 147.817 156.892 150.303C149.294 152.788 135.778 148.863 135.778 148.863C135.778 148.863 132.279 140.226 133.913 139.7C135.546 139.174 148.367 136.024 148.367 136.024C148.367 136.024 148.189 122.82 150.999 118.894C150.999 118.894 149.169 106.593 155.49 106.332C161.811 106.072 164.057 115.229 164.057 115.229Z" fill="#6357ED"/>
<path id="Vector_17" opacity="0.1" d="M146.585 160.512C146.585 160.512 153.654 158.33 154.171 163.391C154.171 163.391 152.834 159.919 146.585 160.512Z" fill="black"/>
<path id="Vector_18" opacity="0.1" d="M126.154 131.457C126.154 131.457 124.752 140.619 127.277 144.284C123.315 145.585 119.11 146.118 114.92 145.851L114.076 131.457H126.154Z" fill="black"/>
<path id="Vector_19" opacity="0.1" d="M127.116 143.249L126.433 143.603L122.078 134.468L126.154 131.063H126.362C126.296 131.506 125.162 139.374 127.116 143.249Z" fill="black"/>
<path id="Vector_20" d="M126.154 131.063C126.154 131.063 124.752 140.226 127.277 143.891C123.315 145.192 119.11 145.725 114.92 145.458L110.007 131.063H126.154Z" fill="#6357ED"/>
</g>
<g id="Group">
<path id="Vector_21" d="M120.921 187.695C120.878 187.638 120.822 187.61 120.754 187.61H119.514C119.432 187.087 119.277 186.634 119.05 186.25H120.74C120.807 186.25 120.863 186.221 120.907 186.165C120.95 186.108 120.972 186.036 120.972 185.948V184.984C120.972 184.896 120.95 184.823 120.907 184.767C120.863 184.71 120.807 184.682 120.74 184.682H114.706C114.638 184.682 114.583 184.71 114.539 184.767C114.496 184.823 114.474 184.896 114.474 184.984V186.24C114.474 186.322 114.497 186.393 114.543 186.453C114.589 186.512 114.643 186.542 114.706 186.542H115.758C116.778 186.542 117.426 186.898 117.701 187.61H114.706C114.638 187.61 114.583 187.638 114.539 187.695C114.496 187.751 114.474 187.824 114.474 187.912V188.876C114.474 188.964 114.496 189.036 114.539 189.093C114.583 189.149 114.639 189.178 114.706 189.178H117.803C117.696 189.694 117.449 190.088 117.059 190.358C116.67 190.629 116.157 190.765 115.518 190.765H114.706C114.643 190.765 114.589 190.795 114.543 190.854C114.497 190.914 114.474 190.985 114.474 191.067V192.267C114.474 192.349 114.496 192.418 114.539 192.475C115.468 193.759 116.671 195.557 118.151 197.868C118.194 197.944 118.255 197.982 118.332 197.982H119.746C119.848 197.982 119.918 197.925 119.956 197.812C120.005 197.698 119.995 197.591 119.927 197.49C118.516 195.236 117.406 193.548 116.599 192.427C117.421 192.301 118.088 191.955 118.601 191.388C119.113 190.822 119.425 190.085 119.536 189.178H120.754C120.822 189.178 120.878 189.15 120.921 189.093C120.965 189.036 120.986 188.964 120.986 188.876V187.912C120.986 187.824 120.965 187.752 120.921 187.695Z" fill="white"/>
</g>
<path id="499" d="M131.002 193.401H132.777V194.728H131.002V197.698H129.367V194.728H123.54V193.77L129.27 184.902H131.002V193.401ZM125.386 193.401H129.367V187.125L129.174 187.477L125.386 193.401ZM140.476 192.073C140.137 192.478 139.729 192.803 139.255 193.049C138.786 193.295 138.27 193.418 137.708 193.418C136.97 193.418 136.325 193.236 135.774 192.873C135.229 192.51 134.807 192 134.509 191.344C134.21 190.682 134.06 189.952 134.06 189.155C134.06 188.3 134.222 187.529 134.544 186.844C134.872 186.158 135.335 185.634 135.932 185.271C136.53 184.907 137.227 184.726 138.024 184.726C139.29 184.726 140.286 185.2 141.013 186.15C141.745 187.093 142.111 188.382 142.111 190.017V190.491C142.111 192.982 141.619 194.801 140.635 195.949C139.65 197.092 138.165 197.678 136.179 197.707H135.862V196.336H136.205C137.547 196.313 138.578 195.964 139.299 195.29C140.019 194.611 140.412 193.538 140.476 192.073ZM137.972 192.073C138.516 192.073 139.017 191.906 139.474 191.572C139.937 191.238 140.274 190.825 140.485 190.333V189.683C140.485 188.616 140.254 187.749 139.791 187.081C139.328 186.413 138.742 186.079 138.033 186.079C137.318 186.079 136.744 186.355 136.31 186.905C135.877 187.45 135.66 188.171 135.66 189.068C135.66 189.941 135.868 190.661 136.284 191.23C136.706 191.792 137.268 192.073 137.972 192.073ZM150.584 192.073C150.244 192.478 149.837 192.803 149.362 193.049C148.893 193.295 148.378 193.418 147.815 193.418C147.077 193.418 146.432 193.236 145.882 192.873C145.337 192.51 144.915 192 144.616 191.344C144.317 190.682 144.168 189.952 144.168 189.155C144.168 188.3 144.329 187.529 144.651 186.844C144.979 186.158 145.442 185.634 146.04 185.271C146.638 184.907 147.335 184.726 148.132 184.726C149.397 184.726 150.393 185.2 151.12 186.15C151.852 187.093 152.219 188.382 152.219 190.017V190.491C152.219 192.982 151.726 194.801 150.742 195.949C149.758 197.092 148.272 197.678 146.286 197.707H145.97V196.336H146.312C147.654 196.313 148.685 195.964 149.406 195.29C150.127 194.611 150.519 193.538 150.584 192.073ZM148.079 192.073C148.624 192.073 149.125 191.906 149.582 191.572C150.045 191.238 150.382 190.825 150.593 190.333V189.683C150.593 188.616 150.361 187.749 149.898 187.081C149.435 186.413 148.849 186.079 148.14 186.079C147.426 186.079 146.851 186.355 146.418 186.905C145.984 187.45 145.767 188.171 145.767 189.068C145.767 189.941 145.975 190.661 146.391 191.23C146.813 191.792 147.376 192.073 148.079 192.073Z" fill="white"/>
</g>
</svg>
