<svg width="448" height="417" viewBox="0 0 448 417" fill="none" xmlns="http://www.w3.org/2000/svg">
<g id="sell-2">
<path id="Vector" d="M302.549 402.006L302.481 407.969L135.166 406.079L135.221 401.237C145.47 397.368 154.403 390.382 160.889 381.165C167.375 371.947 171.122 360.911 171.657 349.455C172.191 337.999 169.489 326.637 163.892 316.808C158.295 306.979 150.054 299.125 140.214 294.24L302.609 296.074C292.884 300.632 284.619 308.064 278.816 317.469C273.012 326.874 269.92 337.848 269.914 349.06C269.907 360.273 272.987 371.243 278.78 380.64C284.572 390.038 292.829 397.46 302.549 402.006Z" fill="#C8CAD7"/>
<path id="Vector_2" opacity="0.1" d="M302.609 296.074C295.105 299.601 288.443 304.851 283.11 311.441C277.777 318.03 273.908 325.791 271.787 334.156L170.175 333.008C168.243 324.598 164.55 316.752 159.368 310.044C154.185 303.336 147.643 297.936 140.221 294.24L302.609 296.074Z" fill="black"/>
<path id="Vector_3" d="M2.76219 249.467L2.4736 275.016C2.31425 289.123 12.5084 300.675 25.2466 300.819L421.197 305.292C433.936 305.436 444.388 294.117 444.547 280.01L444.836 254.461L2.76219 249.467Z" fill="#C8CAD7"/>
<path id="Vector_4" opacity="0.1" d="M302.549 402.006L302.481 407.969L135.166 406.079L135.221 401.237C139.828 399.49 144.194 397.103 148.203 394.138L292.358 395.767C295.534 398.224 298.95 400.315 302.549 402.006Z" fill="black"/>
<path id="Vector_5" d="M351.015 398.29L86.8635 395.306C83.0673 395.264 79.9533 398.472 79.9082 402.473L79.8722 405.653C79.827 409.654 82.8678 412.932 86.6639 412.975L350.816 415.959C354.612 416.002 357.726 412.793 357.771 408.792L357.807 405.612C357.852 401.611 354.811 398.333 351.015 398.29Z" fill="#C8CAD7"/>
<path id="Vector_6" d="M447.441 23.8661C447.489 18.8872 445.11 14.0871 440.825 10.5203C436.541 6.9536 430.702 4.91207 424.591 4.8443L28.6579 0.371905C22.5442 0.297812 16.656 2.20521 12.2883 5.67462C7.92056 9.14403 5.43094 13.8914 5.36696 18.8725L2.74497 250.993L444.819 255.986L447.441 23.8661Z" fill="#474157"/>
<path id="Vector_7" d="M223.242 22.6277C226.898 22.669 229.897 19.5786 229.941 15.7251C229.984 11.8716 227.056 8.71419 223.399 8.67289C219.743 8.63159 216.744 11.722 216.7 15.5755C216.657 19.429 219.586 22.5864 223.242 22.6277Z" fill="white"/>
<path id="Vector_8" d="M219.398 316.832C228.412 316.933 235.807 309.314 235.915 299.813C236.022 290.312 228.801 282.527 219.786 282.425C210.771 282.323 203.377 289.943 203.269 299.444C203.162 308.945 210.383 316.73 219.398 316.832Z" fill="white"/>
<path id="Vector_9" d="M447.179 47.0461L5.10512 42.0525C5.12661 40.1492 5.45855 38.2681 6.08196 36.5166C6.70538 34.7651 7.60805 33.1775 8.73841 31.8446C9.86876 30.5118 11.2046 29.4596 12.6697 28.7484C14.1348 28.0372 15.7005 27.6808 17.2771 27.6996L435.304 32.4215C436.883 32.4335 438.443 32.8216 439.896 33.5636C441.348 34.3056 442.663 35.3869 443.766 36.7455C444.87 38.1041 445.739 39.7133 446.325 41.4809C446.91 43.2484 447.201 45.1396 447.179 47.0461Z" fill="#C8CAD7"/>
<path id="Vector_10" d="M19.0868 38.7244C21.0368 38.7464 22.6364 37.0982 22.6597 35.043C22.6829 32.9878 21.1209 31.3038 19.1709 31.2818C17.2209 31.2598 15.6213 32.908 15.5981 34.9632C15.5748 37.0184 17.1368 38.7024 19.0868 38.7244Z" fill="#EDEDF4"/>
<path id="Vector_11" d="M29.672 38.8439C31.622 38.866 33.2216 37.2178 33.2448 35.1626C33.2681 33.1074 31.7061 31.4234 29.7561 31.4014C27.8061 31.3794 26.2065 33.0276 26.1832 35.0828C26.16 37.138 27.722 38.8219 29.672 38.8439Z" fill="#EDEDF4"/>
<path id="Vector_12" d="M40.2572 38.9635C42.2072 38.9855 43.8068 37.3373 43.83 35.2821C43.8532 33.2269 42.2913 31.543 40.3412 31.521C38.3912 31.4989 36.7916 33.1472 36.7684 35.2024C36.7452 37.2576 38.3072 38.9415 40.2572 38.9635Z" fill="#EDEDF4"/>
<rect id="Rectangle 5" x="74.7055" y="72" width="300.923" height="150.996" rx="30" transform="rotate(0.647176 74.7055 72)" fill="#AFAAC9"/>
<rect id="Rectangle 6" x="215.844" y="96.6091" width="76.3342" height="9.91387" transform="rotate(0.647176 215.844 96.6091)" fill="#CAC8F0"/>
<rect id="Rectangle 7" x="215.611" y="117.198" width="120.067" height="9.91387" transform="rotate(0.647176 215.611 117.198)" fill="#CAC8F0"/>
<rect id="Rectangle 8" x="215.43" y="133.212" width="120.067" height="9.91387" transform="rotate(0.647176 215.43 133.212)" fill="#CAC8F0"/>
<rect id="Rectangle 9" x="215.249" y="149.225" width="120.067" height="9.91387" transform="rotate(0.647176 215.249 149.225)" fill="#CAC8F0"/>
<rect id="Rectangle 10" x="244.263" y="185.398" width="61.2264" height="17.5399" rx="8.76997" transform="rotate(0.647176 244.263 185.398)" fill="#DFB4EE"/>
<g id="shirt">
<path id="Vector_13" d="M136.427 111.126C136.427 111.126 129.128 101.482 131.962 97.7874L119.391 102.429C119.391 102.429 111.868 101.492 109.035 111.935C108.58 113.673 108.402 115.463 108.506 117.25C108.589 118.829 108.326 121.605 106.354 125.182C103.2 130.905 103.764 144.133 110.058 145.511C116.352 146.888 118.617 146.261 118.617 146.261C118.617 146.261 117.503 170.2 113.824 172.905C110.146 175.61 123.109 175.103 123.109 175.103C123.109 175.103 134.295 175.783 140.043 176.606C145.79 177.43 161.976 174.085 161.976 174.085C161.976 174.085 159.714 163.983 158.931 157.563C158.148 151.142 156.354 137.468 156.354 137.468L170.88 119.549C170.88 119.549 173.529 108.649 164.738 103.711C155.947 98.7726 152.628 97.5391 152.628 97.5391C152.628 97.5391 143.565 110.93 138.948 111.531C138.948 111.542 137.182 112.187 136.427 111.126Z" fill="#83349E"/>
<path id="Vector_14" opacity="0.1" d="M119.953 114.738C119.953 114.738 119.768 119.055 120.592 120.764C121.416 122.473 124.393 131.93 124.393 131.93L117.377 131.851C117.377 131.851 121.21 128.102 120.952 126.266C120.693 124.43 119.953 114.738 119.953 114.738Z" fill="black"/>
<path id="Vector_15" opacity="0.1" d="M167.682 116.584L170.458 119.561L170.378 126.691C170.378 126.691 167.747 149.174 160.127 151.574C152.507 153.974 139.025 149.896 139.025 149.896C139.025 149.896 135.624 141.22 137.263 140.713C138.903 140.206 151.764 137.2 151.764 137.2C151.764 137.2 151.729 123.995 154.583 120.101C154.583 120.101 152.899 107.78 159.216 107.591C165.534 107.402 167.682 116.584 167.682 116.584Z" fill="black"/>
<path id="Vector_16" d="M168.092 116.589L170.868 119.566L170.788 126.696C170.788 126.696 168.157 149.179 160.531 151.579C152.906 153.979 139.435 149.901 139.435 149.901C139.435 149.901 136.034 141.225 137.673 140.718C139.313 140.21 152.168 137.205 152.168 137.205C152.168 137.205 152.139 123.999 154.993 120.106C154.993 120.106 153.303 107.784 159.626 107.595C165.95 107.407 168.092 116.589 168.092 116.589Z" fill="#83349E"/>
<path id="Vector_17" opacity="0.1" d="M150.109 161.671C150.109 161.671 157.203 159.569 157.663 164.635C157.663 164.635 156.365 161.149 150.109 161.671Z" fill="black"/>
<path id="Vector_18" opacity="0.1" d="M130.008 132.387C130.008 132.387 128.503 141.533 130.986 145.226C127.01 146.482 122.799 146.968 118.612 146.654L117.931 132.25L130.008 132.387Z" fill="black"/>
<path id="Vector_19" opacity="0.1" d="M130.837 144.189L130.15 144.536L125.899 135.352L130.013 131.994L130.221 131.996C130.15 132.438 128.927 140.292 130.837 144.189Z" fill="black"/>
<path id="Vector_20" d="M130.013 131.994C130.013 131.994 128.507 141.14 130.991 144.833C127.015 146.089 122.804 146.575 118.617 146.261L113.867 131.811L130.013 131.994Z" fill="#83349E"/>
</g>
<g id="Group">
<path id="Vector_21" d="M124.14 188.562C124.098 188.505 124.042 188.476 123.975 188.476L122.735 188.462C122.658 187.938 122.509 187.483 122.286 187.096L123.975 187.115C124.043 187.116 124.099 187.088 124.143 187.032C124.187 186.976 124.21 186.904 124.211 186.816L124.222 185.852C124.223 185.764 124.202 185.691 124.159 185.634C124.116 185.577 124.061 185.548 123.993 185.547L117.96 185.479C117.892 185.478 117.836 185.506 117.792 185.562C117.748 185.618 117.726 185.691 117.725 185.779L117.71 187.035C117.71 187.117 117.732 187.188 117.777 187.248C117.822 187.309 117.876 187.339 117.939 187.34L118.991 187.352C120.01 187.363 120.654 187.726 120.922 188.441L117.927 188.407C117.859 188.406 117.803 188.434 117.759 188.49C117.715 188.546 117.693 188.618 117.692 188.707L117.681 189.67C117.68 189.758 117.701 189.831 117.743 189.888C117.786 189.945 117.842 189.974 117.909 189.975L121.006 190.01C120.893 190.525 120.641 190.916 120.249 191.182C119.857 191.449 119.342 191.578 118.704 191.571L117.891 191.562C117.829 191.561 117.774 191.59 117.727 191.65C117.681 191.709 117.657 191.78 117.656 191.861L117.642 193.061C117.641 193.143 117.662 193.213 117.705 193.27C118.619 194.565 119.802 196.376 121.255 198.704C121.298 198.78 121.358 198.818 121.436 198.819L122.849 198.835C122.951 198.836 123.022 198.781 123.062 198.668C123.111 198.555 123.103 198.448 123.036 198.346C121.65 196.076 120.56 194.376 119.765 193.246C120.588 193.129 121.26 192.79 121.778 192.229C122.297 191.668 122.617 190.935 122.739 190.03L123.957 190.043C124.025 190.044 124.081 190.016 124.125 189.96C124.169 189.904 124.191 189.832 124.192 189.744L124.203 188.78C124.204 188.692 124.183 188.62 124.14 188.562Z" fill="white"/>
</g>
<path id="499" d="M134.156 194.382L135.931 194.402L135.916 195.729L134.141 195.709L134.108 198.679L132.473 198.661L132.507 195.69L126.68 195.624L126.691 194.666L132.521 185.864L134.252 185.883L134.156 194.382ZM128.54 194.318L132.522 194.363L132.592 188.088L132.395 188.437L128.54 194.318ZM143.645 193.162C143.301 193.562 142.89 193.883 142.413 194.123C141.941 194.364 141.424 194.481 140.862 194.475C140.123 194.467 139.481 194.278 138.934 193.908C138.393 193.539 137.977 193.024 137.686 192.365C137.395 191.699 137.254 190.968 137.263 190.171C137.272 189.316 137.442 188.547 137.772 187.865C138.108 187.184 138.577 186.664 139.178 186.308C139.78 185.951 140.479 185.778 141.276 185.787C142.542 185.801 143.532 186.287 144.248 187.244C144.97 188.196 145.322 189.489 145.303 191.123L145.298 191.598C145.27 194.088 144.757 195.902 143.76 197.039C142.762 198.17 141.27 198.74 139.284 198.746L138.968 198.743L138.983 197.372L139.326 197.376C140.668 197.367 141.703 197.03 142.431 196.365C143.159 195.693 143.564 194.626 143.645 193.162ZM141.14 193.133C141.685 193.139 142.188 192.978 142.649 192.649C143.116 192.321 143.457 191.911 143.674 191.422L143.681 190.771C143.693 189.705 143.471 188.835 143.016 188.162C142.561 187.489 141.979 187.148 141.27 187.14C140.555 187.132 139.978 187.401 139.538 187.947C139.098 188.487 138.873 189.205 138.863 190.101C138.853 190.974 139.053 191.697 139.463 192.27C139.878 192.838 140.437 193.125 141.14 193.133ZM153.752 193.276C153.408 193.676 152.997 193.997 152.519 194.237C152.048 194.478 151.531 194.595 150.968 194.589C150.23 194.581 149.588 194.392 149.041 194.022C148.5 193.653 148.084 193.138 147.793 192.479C147.501 191.813 147.36 191.082 147.369 190.285C147.379 189.43 147.549 188.661 147.879 187.98C148.215 187.298 148.683 186.779 149.285 186.422C149.887 186.066 150.586 185.892 151.383 185.901C152.648 185.915 153.639 186.401 154.355 187.358C155.077 188.31 155.428 189.603 155.41 191.238L155.404 191.712C155.376 194.202 154.864 196.016 153.866 197.153C152.869 198.285 151.377 198.854 149.391 198.861L149.074 198.857L149.09 197.486L149.433 197.49C150.775 197.482 151.81 197.145 152.538 196.479C153.266 195.807 153.671 194.74 153.752 193.276ZM151.247 193.247C151.792 193.254 152.295 193.092 152.756 192.763C153.222 192.435 153.564 192.025 153.78 191.536L153.788 190.885C153.8 189.819 153.578 188.949 153.123 188.276C152.668 187.603 152.085 187.262 151.376 187.254C150.662 187.246 150.084 187.515 149.645 188.061C149.205 188.601 148.98 189.319 148.97 190.216C148.96 191.089 149.16 191.812 149.569 192.385C149.985 192.952 150.544 193.239 151.247 193.247Z" fill="white"/>
</g>
</svg>
