<svg width="191" height="115" viewBox="0 0 191 115" fill="none" xmlns="http://www.w3.org/2000/svg">
<path d="M167.773 21L142.657 7L117.542 21" stroke="black" stroke-width="4"/>
<path d="M152.611 38.1402C150.444 38.577 148.763 39.526 146.993 41.3187C145.666 42.6597 144.885 43.7745 144 45.5523C143.278 47.0284 142.776 48.3844 142.452 49.7859L142.187 50.8708L134.136 50.9163L126.071 50.9619L124.891 51.3688C122.4 52.2424 122.989 51.7003 107.404 67.6101L92.9989 82.2984L92.3946 83.5789C90.9499 86.5767 91.1268 90.0726 92.8367 92.7844C93.7654 94.2456 112.167 112.913 113.465 113.711C116.119 115.323 119.303 115.428 122.164 113.997L123.418 113.38L137.793 98.6599C148.587 87.6317 152.302 83.7446 152.671 83.0965C152.936 82.6142 153.363 81.6353 153.629 80.9118L154.086 79.5857L154.13 68.5874C154.174 57.9811 154.159 57.5593 153.879 56.6103C153.466 55.2544 152.685 53.9738 151.697 53.0248C150.783 52.1662 148.778 51.0365 148.571 51.2769C148.247 51.6383 148.07 53.8379 147.981 58.4934L147.893 63.4654L147.466 64.2635C146.964 65.1677 146.212 65.936 145.284 66.4333C144.753 66.7193 144.429 66.7798 143.249 66.7798C142.07 66.7798 141.745 66.7193 141.215 66.4333C140.286 65.936 139.534 65.1677 139.033 64.2635C138.649 63.54 138.605 63.3295 138.605 62.034C138.605 60.4825 138.797 59.9247 139.667 58.8704C140.109 58.3284 141.259 57.5145 141.584 57.5145C141.731 57.5145 141.775 58.0723 141.775 60.0905V62.6664L142.203 63.1032C142.807 63.7058 143.692 63.7207 144.282 63.1181L144.695 62.6963L144.768 57.8751C144.857 52.7829 144.99 51.5322 145.756 49.2422C147.186 44.9034 149.9 41.9048 152.981 41.2268C156.284 40.5033 159.793 42.7635 161.814 46.9216C165.117 53.6863 164.026 63.1173 159.396 67.6824C158.894 68.1797 158.246 68.7218 157.951 68.8875L157.405 69.1892V70.8782C157.405 72.0228 157.464 72.5806 157.567 72.5806C157.921 72.5806 159.779 71.4658 160.678 70.7125C166.856 65.5 168.655 54.0045 164.585 45.6882C163.318 43.0667 161.194 40.6109 159.16 39.3909C157.212 38.2306 154.676 37.7333 152.611 38.1402Z" fill="#550052"/>
<path d="M110.457 96.3065C110.044 95.9094 109.609 95.6897 109.151 95.6471C108.698 95.5999 108.245 95.8099 107.791 96.2772L107.73 96.3403L107.669 96.4172C107.198 96.9031 107.04 97.5283 107.197 98.2927C107.353 99.0479 107.837 99.8158 108.649 100.596L108.973 100.908C109.7 101.607 110.4 102.004 111.07 102.098C111.746 102.187 112.287 102.021 112.695 101.601L112.757 101.538C113.233 101.047 113.431 100.501 113.351 99.901C113.271 99.3006 112.912 98.6936 112.274 98.0801C112.18 97.9715 112.109 97.8946 112.062 97.8495L111.639 97.4021L110.836 96.6306L110.605 96.4348C110.553 96.3944 110.504 96.3516 110.457 96.3065ZM107.035 95.3602C107.533 94.8462 107.769 94.4769 107.742 94.2523C107.699 93.9039 107.356 93.4207 106.713 92.8026C106.521 92.6176 106.303 92.4491 106.061 92.2972C105.813 92.1407 105.657 92.0309 105.591 91.9678C105.38 91.7647 105.279 91.5138 105.287 91.2151C105.296 90.9164 105.447 90.6151 105.742 90.3114L105.871 90.1782C106.229 89.8091 106.602 89.7566 106.99 90.0209C107.27 90.2089 108.607 91.4535 111.001 93.7544L111.832 94.5805L113.008 95.7107L113.669 96.3193C113.777 96.4231 113.885 96.5269 113.993 96.6306L114.155 96.7725C114.263 96.8671 114.453 97.0452 114.725 97.3069C114.992 97.5641 115.291 97.7793 115.622 97.9527C115.953 98.1169 116.169 98.2486 116.273 98.3479C116.376 98.4471 116.42 98.6026 116.405 98.8141C116.391 99.0257 116.272 99.2459 116.05 99.4749C115.833 99.6992 115.578 99.9012 115.285 100.081C114.993 100.251 114.804 100.381 114.718 100.47C114.632 100.559 114.464 100.867 114.215 101.395C113.97 101.918 113.705 102.327 113.419 102.622L113.27 102.776C112.499 103.57 111.628 103.93 110.658 103.855C109.687 103.771 108.763 103.307 107.886 102.463L107.526 102.118C107.066 101.676 106.677 101.161 106.357 100.574C106.038 99.9781 105.843 99.3752 105.772 98.7655C105.635 97.5046 106.055 96.3695 107.035 95.3602ZM117.787 89.9014C118.095 89.5836 118.263 89.3119 118.292 89.0864C118.32 88.8608 118.271 88.6871 118.144 88.5653L117.848 88.281C117.51 87.9562 117.111 87.8116 116.65 87.8472C116.189 87.8828 115.816 88.0478 115.53 88.3422L115.354 88.5244C114.941 88.9496 114.761 89.4948 114.815 90.1599C114.863 90.8206 115.101 91.3562 115.528 91.7667L115.648 91.8818C115.812 92.0397 116.039 91.9691 116.329 91.6701L116.486 91.5089L116.519 91.46L116.994 90.9005L117.306 90.523L117.509 90.2576C117.545 90.211 117.593 90.1482 117.651 90.0691C117.714 89.9853 117.759 89.9294 117.787 89.9014ZM121.746 94.2628L121.447 94.5712C120.54 95.5057 119.496 95.9512 118.314 95.9075C117.787 95.8891 117.24 95.7425 116.672 95.4676C116.1 95.1882 115.6 94.8432 115.173 94.4326L114.856 94.1281C114.429 93.7175 114.067 93.1979 113.77 92.5692C113.186 91.3483 113.126 90.171 113.591 89.0375C113.825 88.45 114.171 87.9203 114.629 87.4484L114.778 87.2942C115.413 86.64 116.136 86.292 116.948 86.2503C117.413 86.2284 117.867 86.3123 118.309 86.5021C118.75 86.6828 119.1 86.8972 119.358 87.1453C119.926 87.6912 120.125 88.2252 119.954 88.7473C119.836 89.103 119.406 89.7651 118.666 90.7335C117.931 91.6972 117.534 92.2324 117.476 92.3391C117.185 92.8449 117.171 93.2241 117.434 93.4768C117.889 93.9144 118.471 94.0719 119.179 93.9493C119.699 93.8621 120.234 93.5358 120.782 92.9704C120.991 92.7555 121.26 92.3419 121.591 91.7298C121.922 91.1177 122.11 90.7883 122.155 90.7415C122.391 90.4985 122.619 90.4831 122.84 90.6951C123.117 90.9613 123.138 91.4869 122.902 92.2719C122.666 93.0478 122.281 93.7114 121.746 94.2628ZM126.928 86.9718L127.139 86.7546C127.561 86.32 127.745 85.7564 127.691 85.0637C127.661 84.6829 127.365 84.2218 126.802 83.6804L126.717 83.5854L126.541 83.4162C126.189 83.0779 125.872 83.0535 125.591 83.3432L125.374 83.5675L125.048 83.9591L124.886 84.1686C124.469 84.5985 124.249 85.0686 124.225 85.5789C124.197 86.0847 124.35 86.4978 124.683 86.8181L124.929 87.055C125.183 87.2986 125.499 87.4309 125.878 87.4518C126.256 87.4636 126.606 87.3036 126.928 86.9718ZM130.707 83.7501C131.022 84.0523 130.873 84.5189 130.261 85.1497C130.152 85.2619 129.896 85.4133 129.493 85.6041C129.09 85.7857 128.85 85.9162 128.773 85.9956C128.701 86.0704 128.538 86.4017 128.285 86.9895C128.028 87.5728 127.741 88.028 127.423 88.3551L127.267 88.5163C126.773 89.0256 126.18 89.3047 125.489 89.3535C124.792 89.3978 124.153 89.1402 123.571 88.5808C122.389 87.4438 122.375 85.9902 123.53 84.2199C124.276 83.0676 124.658 82.4684 124.675 82.4221C124.78 82.0804 124.68 81.7629 124.375 81.4696C124.065 81.1718 123.712 81.0218 123.315 81.0196C122.918 81.0081 122.556 81.1706 122.23 81.5071C121.908 81.8388 121.642 82.3419 121.432 83.0162C121.218 83.686 121.029 84.105 120.866 84.2732C120.571 84.577 120.215 84.5281 119.797 84.1265C119.534 83.8739 119.517 83.3964 119.744 82.6942C119.977 81.9874 120.39 81.3279 120.984 80.7157L121.324 80.3653C121.768 79.9073 122.249 79.5843 122.767 79.3961C123.286 79.2079 123.783 79.1625 124.26 79.2598C124.936 79.395 126.021 80.1799 127.513 81.6146C128.358 82.4268 128.9 82.9157 129.138 83.0815C129.381 83.2426 129.669 83.3616 130.002 83.4385C130.331 83.5109 130.566 83.6147 130.707 83.7501ZM123.24 73.1589C122.869 72.8025 122.978 72.3205 123.568 71.7131L123.69 71.5869C124.112 71.1523 124.53 71.0807 124.946 71.372L126.474 72.8406L126.988 73.3622L127.249 73.6126L128.031 74.4051L128.292 74.6555L128.426 74.7979C128.515 74.8836 128.604 74.9693 128.693 75.055L128.82 75.1906C128.909 75.2763 128.999 75.3621 129.088 75.4478L129.215 75.5834L129.876 76.2195L130.798 77.0648C130.887 77.1413 131.103 77.3442 131.446 77.6736C131.788 78.0029 132.197 78.3105 132.673 78.5962C133.149 78.8727 133.569 79.0514 133.935 79.1322C134.297 79.2086 134.557 79.3235 134.717 79.4769C134.876 79.6303 134.922 79.8638 134.853 80.1773C134.79 80.4862 134.581 80.8229 134.227 81.1874L133.989 81.4327C133.35 82.0916 132.768 82.1683 132.242 81.663C132.204 81.6269 132.101 81.4909 131.93 81.255C131.76 81.0191 131.403 80.6349 130.858 80.1024L129.216 78.4429L129.089 78.3073C129 78.2216 128.911 78.1359 128.822 78.0501L128.561 77.786C128.472 77.7002 128.383 77.6145 128.293 77.5288L128.166 77.3932C128.077 77.3075 127.988 77.2217 127.899 77.136L127.638 76.8719C127.549 76.7861 127.46 76.7004 127.371 76.6147L127.11 76.3505L126.835 76.0866L126.575 75.8224L125.251 74.5501C124.716 74.0358 124.267 73.6945 123.904 73.5263C123.541 73.358 123.32 73.2356 123.24 73.1589ZM133.601 74.2321C132.854 74.2911 132.199 74.0498 131.636 73.5084C131.068 72.9625 130.839 72.2775 130.949 71.4533C131.055 70.6246 131.468 69.8388 132.189 69.0958C132.91 68.3528 133.527 67.8988 134.041 67.7336C134.55 67.564 134.95 67.619 135.241 67.8987C135.64 68.2822 135.715 68.6025 135.466 68.8595C135.38 68.9482 135.055 69.0917 134.49 69.2899C133.926 69.4881 133.47 69.7671 133.121 70.1269C132.771 70.4867 132.591 70.8367 132.578 71.1768C132.57 71.5123 132.695 71.8041 132.953 72.0522C133.212 72.3004 133.609 72.3486 134.147 72.1968C134.33 72.1476 134.862 71.9271 135.741 71.535C136.62 71.1338 137.301 70.9129 137.785 70.8723C138.541 70.8132 139.208 71.0611 139.785 71.616C140.362 72.171 140.615 72.8786 140.542 73.7389C140.469 74.5899 140.066 75.394 139.331 76.151C138.085 77.436 137.06 77.9913 136.259 77.817C136.004 77.7617 135.816 77.6754 135.694 77.5581C135.285 77.1656 135.204 76.8432 135.449 76.5908C135.521 76.5161 135.913 76.3645 136.624 76.1362C137.335 75.8987 137.87 75.5954 138.228 75.2262C138.591 74.8524 138.797 74.4813 138.846 74.113C138.895 73.7446 138.783 73.4296 138.511 73.168C138.234 72.9018 137.815 72.8287 137.254 72.9487C137.024 72.9987 136.476 73.2172 135.611 73.6044C134.741 73.9871 134.071 74.1963 133.601 74.2321Z" fill="white"/>
<path d="M5.53125 45.3203C5.51562 45.3203 5.49219 45.3203 5.46094 45.3203C3.66406 45.3203 2.76562 44.7031 2.76562 43.4688C2.76562 42.875 2.92188 42.1406 3.23438 41.2656C3.54688 40.3906 3.72656 39.5078 3.77344 38.6172C3.82031 37.7109 3.84375 36.3281 3.84375 34.4688V30.0859L3.89062 28.8672C3.92188 28.0547 3.9375 27.4766 3.9375 27.1328L3.70312 24.7188C3.70312 24.1719 4.1875 23.8984 5.15625 23.8984C6.14062 23.8984 7.14844 24.1641 8.17969 24.6953C9.21094 25.2266 9.84375 25.4922 10.0781 25.4922C10.3281 25.4922 10.7891 25.3359 11.4609 25.0234C12.1484 24.7109 12.9531 24.375 13.875 24.0156C14.8125 23.6406 15.7734 23.4531 16.7578 23.4531H17.3672C18.5391 23.4531 19.5781 23.7734 20.4844 24.4141C21.4062 25.0391 22.0703 25.9141 22.4766 27.0391C22.8984 28.1484 23.1953 30.1953 23.3672 33.1797L23.4375 34.4688L23.4844 35.7578C23.5312 36.5078 23.5859 37.3203 23.6484 38.1953C23.7109 39.0703 23.9219 39.9922 24.2812 40.9609C24.6406 41.9141 24.8203 42.5547 24.8203 42.8828C24.8203 44.2734 23.7578 44.9688 21.6328 44.9688C20.7266 44.9688 20.0625 44.7891 19.6406 44.4297C19.2188 44.0547 19.0078 43.4297 19.0078 42.5547L19.0547 41.6875C19.0547 35.6094 18.6172 31.4688 17.7422 29.2656C17.0547 27.5625 15.8438 26.7109 14.1094 26.7109C13.2812 26.7109 12.4688 26.9219 11.6719 27.3438C10.8906 27.75 10.2812 28.4141 9.84375 29.3359C9.0625 30.9766 8.67188 34.1328 8.67188 38.8047L8.85938 43.0469C8.85938 43.7188 8.53906 44.2656 7.89844 44.6875C7.25781 45.1094 6.46875 45.3203 5.53125 45.3203ZM31.875 46.0938H31.2891C29.9766 46.0938 29.3203 45.6562 29.3203 44.7812C29.3203 44.7188 30.4453 43.0859 32.6953 39.8828C34.9609 36.6641 36.0938 34.8047 36.0938 34.3047C36.0938 33.8047 35.0859 32.1094 33.0703 29.2188C32.5078 28.4062 31.7578 27.4844 30.8203 26.4531C29.8984 25.4062 29.4375 24.6875 29.4375 24.2969C29.4375 23.4062 30.5547 22.9609 32.7891 22.9609C34.4141 22.9609 35.5547 23.3672 36.2109 24.1797C36.3359 24.3359 36.4922 24.6719 36.6797 25.1875C36.8672 25.6875 37.2109 26.3984 37.7109 27.3203C38.8047 29.3203 39.5859 30.3203 40.0547 30.3203C40.4297 30.3203 41.25 29.2891 42.5156 27.2266C43.0156 26.4141 43.3906 25.6562 43.6406 24.9531C43.9062 24.25 44.0859 23.8359 44.1797 23.7109C44.6484 23.1016 45.3828 22.7969 46.3828 22.7969C48.2734 22.7969 49.2188 23.1328 49.2188 23.8047C49.2188 24.1953 48.1328 25.7734 45.9609 28.5391C43.7891 31.3047 42.7031 33.0938 42.7031 33.9062C42.7031 34.7031 43.8594 36.6328 46.1719 39.6953C46.9375 40.7109 47.7422 41.6328 48.5859 42.4609C49.4453 43.2891 49.875 43.9375 49.875 44.4062C49.875 45.2812 48.5781 45.7266 45.9844 45.7422C44.6875 45.7422 43.75 45.375 43.1719 44.6406C43.0625 44.5 42.875 44.1328 42.6094 43.5391C42.3594 42.9453 42.0547 42.3359 41.6953 41.7109C40.2891 39.2891 39.3984 38.0781 39.0234 38.0781C38.5547 38.0781 37.6484 39.1953 36.3047 41.4297C35.9141 42.0859 35.5625 42.8359 35.25 43.6797C34.9531 44.5078 34.7734 44.9688 34.7109 45.0625C34.2109 45.75 33.2656 46.0938 31.875 46.0938ZM63.5859 45.9062H62.6953C60.4453 45.9062 58.8281 44.9375 57.8438 43C57.0312 41.4219 56.625 38.8281 56.625 35.2188C56.625 31.6094 56.4297 29.1328 56.0391 27.7891C55.8984 27.2891 55.5078 26.7188 54.8672 26.0781C54.2266 25.4375 53.9062 24.8828 53.9062 24.4141V24.1094C53.9062 23.7031 54.2734 23.2578 55.0078 22.7734C55.7422 22.2891 56.1641 21.9453 56.2734 21.7422C56.3984 21.5234 56.6328 20.7656 56.9766 19.4688C57.3359 18.1562 57.7031 17.2422 58.0781 16.7266C58.4688 16.1953 58.9844 15.9297 59.625 15.9297C60.2812 15.9297 60.7422 16.1172 61.0078 16.4922C61.2891 16.8672 61.5625 17.6406 61.8281 18.8125C62.1094 19.9844 62.4141 20.7812 62.7422 21.2031C63.0703 21.6094 63.8672 22.0391 65.1328 22.4922C66.3984 22.9453 67.0312 23.5078 67.0312 24.1797C67.0312 24.7734 66.3672 25.3047 65.0391 25.7734C63.7266 26.2422 62.8984 26.8203 62.5547 27.5078C61.8984 28.8359 61.5703 31.1875 61.5703 34.5625C61.5703 37.9375 61.8594 40.0078 62.4375 40.7734C63.0156 41.5234 63.9531 41.9844 65.25 42.1562C66.5625 42.3281 67.2188 42.8203 67.2188 43.6328C67.2188 44.2578 66.8438 44.7969 66.0938 45.25C65.3594 45.6875 64.5234 45.9062 63.5859 45.9062ZM72.9141 34.5859C72.2266 34.5859 71.8828 34.1875 71.8828 33.3906V32.8516C71.8828 31.8047 72.125 31.2031 72.6094 31.0469C73.0938 30.875 75.3281 30.7891 79.3125 30.7891L83.9062 30.7188H84.7734C85.6797 30.7188 86.1328 31.125 86.1328 31.9375V32.4531C86.1016 32.6719 86.0859 32.8438 86.0859 32.9688C86.0859 33.75 85.7891 34.2109 85.1953 34.3516C84.6172 34.4766 82.4453 34.5391 78.6797 34.5391H77.625L77.1094 34.5625H76.0547L75.3516 34.5859H72.9141ZM106.055 30.2734C106.055 28.8984 105.711 27.7812 105.023 26.9219C104.352 26.0625 103.234 25.6328 101.672 25.6328H101.461L101.227 25.6562C99.6016 25.6562 98.2578 26.4297 97.1953 27.9766C96.1484 29.5078 95.625 31.625 95.625 34.3281V35.4062C95.625 37.8281 96.1016 39.6953 97.0547 41.0078C98.0234 42.3203 99.2109 42.9766 100.617 42.9766H100.828C102.469 42.9766 103.742 42.4062 104.648 41.2656C105.555 40.125 106.008 38.4922 106.008 36.3672C106.039 36.0234 106.055 35.7734 106.055 35.6172L106.125 34.1406V31.4688L106.078 30.7422C106.062 30.5859 106.055 30.4297 106.055 30.2734ZM102 22.7969C103.719 22.7969 104.75 22.5859 105.094 22.1641C105.625 21.5078 105.891 20.1094 105.891 17.9688C105.891 17.3281 105.82 16.6719 105.68 16C105.539 15.3125 105.469 14.8594 105.469 14.6406C105.469 13.9375 105.734 13.3438 106.266 12.8594C106.797 12.375 107.57 12.1328 108.586 12.1328H109.031C110.266 12.1328 110.977 12.6875 111.164 13.7969C111.305 14.5938 111.375 18.9766 111.375 26.9453L111.328 29.7578V33.6719L111.375 35.8281C111.375 36.1875 111.375 36.5469 111.375 36.9062L111.398 37.4219C111.414 37.7656 111.422 38.3906 111.422 39.2969C111.422 40.1875 111.547 41.0625 111.797 41.9219C112.062 42.7656 112.195 43.3594 112.195 43.7031C112.195 44.0469 112 44.3828 111.609 44.7109C111.219 45.0391 110.641 45.2031 109.875 45.2031C109.125 45.2031 108.352 45.1016 107.555 44.8984C106.773 44.6797 106.234 44.5703 105.938 44.5703C105.641 44.5703 104.828 44.7969 103.5 45.25C102.188 45.7031 101.039 45.9297 100.055 45.9297H99.5391C96.8828 45.9297 94.8125 45.0312 93.3281 43.2344C91.8594 41.4219 91.125 39.0547 91.125 36.1328V34.9375C91.125 33.4062 91.3672 31.875 91.8516 30.3438C92.3516 28.7969 93.0703 27.4531 94.0078 26.3125C95.9609 23.9688 98.625 22.7969 102 22.7969ZM127.5 43.2812H127.969C129.547 43.2812 130.844 42.5859 131.859 41.1953C132.875 39.8047 133.383 38.0469 133.383 35.9219L133.43 35.4062L133.453 34.6094V33.5547C133.453 31.2266 132.977 29.3125 132.023 27.8125C131.086 26.2969 129.828 25.5391 128.25 25.5391H127.781C126.234 25.5391 124.93 26.3047 123.867 27.8359C122.82 29.3672 122.297 31.3984 122.297 33.9297V35.5234C122.328 35.8984 122.344 36.1562 122.344 36.2969C122.344 38.0781 122.836 39.6875 123.82 41.125C124.805 42.5625 126.031 43.2812 127.5 43.2812ZM138.75 33.8828V34.6562C138.75 36.0469 138.523 37.4766 138.07 38.9453C137.148 41.9297 135.336 44.0703 132.633 45.3672C131.07 46.1172 129.523 46.4922 127.992 46.4922H127.195C125.742 46.4922 124.391 46.1953 123.141 45.6016C120.656 44.4141 119.008 42.4453 118.195 39.6953C117.758 38.2422 117.539 36.7656 117.539 35.2656V34.0703C117.539 32.6016 117.766 31.1328 118.219 29.6641C119.109 26.7578 120.875 24.6797 123.516 23.4297C124.875 22.7734 126.266 22.4453 127.688 22.4453H128.859C130.203 22.4453 131.531 22.7344 132.844 23.3125C135.469 24.4688 137.234 26.5312 138.141 29.5C138.547 30.8125 138.75 32.2734 138.75 33.8828ZM153.188 43.2812H153.656C155.234 43.2812 156.531 42.5859 157.547 41.1953C158.562 39.8047 159.07 38.0469 159.07 35.9219L159.117 35.4062L159.141 34.6094V33.5547C159.141 31.2266 158.664 29.3125 157.711 27.8125C156.773 26.2969 155.516 25.5391 153.938 25.5391H153.469C151.922 25.5391 150.617 26.3047 149.555 27.8359C148.508 29.3672 147.984 31.3984 147.984 33.9297V35.5234C148.016 35.8984 148.031 36.1562 148.031 36.2969C148.031 38.0781 148.523 39.6875 149.508 41.125C150.492 42.5625 151.719 43.2812 153.188 43.2812ZM164.438 33.8828V34.6562C164.438 36.0469 164.211 37.4766 163.758 38.9453C162.836 41.9297 161.023 44.0703 158.32 45.3672C156.758 46.1172 155.211 46.4922 153.68 46.4922H152.883C151.43 46.4922 150.078 46.1953 148.828 45.6016C146.344 44.4141 144.695 42.4453 143.883 39.6953C143.445 38.2422 143.227 36.7656 143.227 35.2656V34.0703C143.227 32.6016 143.453 31.1328 143.906 29.6641C144.797 26.7578 146.562 24.6797 149.203 23.4297C150.562 22.7734 151.953 22.4453 153.375 22.4453H154.547C155.891 22.4453 157.219 22.7344 158.531 23.3125C161.156 24.4688 162.922 26.5312 163.828 29.5C164.234 30.8125 164.438 32.2734 164.438 33.8828ZM180.703 27.4844C179.234 27.4844 178.094 28.2188 177.281 29.6875C176.469 31.1406 176.062 33.3672 176.062 36.3672C176.062 37.6953 176.117 38.6406 176.227 39.2031C176.336 39.75 176.5 40.4375 176.719 41.2656C176.953 42.0781 177.07 42.7891 177.07 43.3984C177.07 43.9922 176.711 44.5391 175.992 45.0391C175.273 45.5391 174.336 45.7891 173.18 45.7891L172.781 45.7656H172.359C171.609 45.7656 170.984 45.5547 170.484 45.1328C170 44.7109 169.758 44.2344 169.758 43.7031V43.3281C169.758 43.2188 169.906 42.7031 170.203 41.7812C170.5 40.8594 170.672 39.9688 170.719 39.1094C170.766 38.25 170.789 37.0938 170.789 35.6406V33.0391L170.766 32.6172C170.766 32.3359 170.766 32.0547 170.766 31.7734L170.719 30.5078C170.703 30.2266 170.695 29.6797 170.695 28.8672C170.695 28.0391 170.547 27.2578 170.25 26.5234C169.969 25.7734 169.828 25.2891 169.828 25.0703C169.828 24.1328 170.648 23.6641 172.289 23.6641C173.93 23.6641 175.117 24.1094 175.852 25C176.07 25.2656 176.297 25.3984 176.531 25.3984C176.781 25.3984 177.188 25.2031 177.75 24.8125C179.312 23.75 180.625 23.2188 181.688 23.2188H182.062C183 23.2188 183.711 23.4297 184.195 23.8516C184.695 24.2734 184.945 24.8359 184.945 25.5391C184.945 26.9297 184.172 27.625 182.625 27.625C182.016 27.5312 181.375 27.4844 180.703 27.4844Z" fill="black"/>
<line y1="-1.5" x2="6.01391" y2="-1.5" transform="matrix(0.708738 0.705472 -0.708738 0.705472 156.722 41)" stroke="#550052" stroke-width="3"/>
</svg>
