<svg width="353" height="158" viewBox="0 0 353 158" fill="none" xmlns="http://www.w3.org/2000/svg">
<g clip-path="url(#clip0)">
<rect width="353" height="158" fill="white"/>
<g opacity="0.9">
<rect width="353" height="135" fill="#B8C8FF"/>
<path opacity="0.1" d="M96.7108 8H68.0225C66.8466 8 65.8933 9.15735 65.8933 10.585V20.415C65.8933 21.8426 66.8466 23 68.0225 23H96.7108C97.8867 23 98.84 21.8426 98.84 20.415V10.585C98.84 9.15735 97.8867 8 96.7108 8Z" fill="#1E0728"/>
<path opacity="0.1" d="M246.818 90H218.129C216.953 90 216 91.1574 216 92.585V102.415C216 103.843 216.953 105 218.129 105H246.818C247.993 105 248.947 103.843 248.947 102.415V92.585C248.947 91.1574 247.993 90 246.818 90Z" fill="#1E0728"/>
<path opacity="0.1" d="M330.161 68H301.473C300.297 68 299.344 69.1574 299.344 70.585V80.415C299.344 81.8426 300.297 83 301.473 83H330.161C331.337 83 332.291 81.8426 332.291 80.415V70.585C332.291 69.1574 331.337 68 330.161 68Z" fill="#1E0728"/>
<path opacity="0.1" d="M330.161 110H301.473C300.297 110 299.344 111.157 299.344 112.585V122.415C299.344 123.843 300.297 125 301.473 125H330.161C331.337 125 332.291 123.843 332.291 122.415V112.585C332.291 111.157 331.337 110 330.161 110Z" fill="#1E0728"/>
<path opacity="0.1" d="M151.308 97H122.62C121.444 97 120.491 98.1574 120.491 99.585V109.415C120.491 110.843 121.444 112 122.62 112H151.308C152.484 112 153.437 110.843 153.437 109.415V99.585C153.437 98.1574 152.484 97 151.308 97Z" fill="#1E0728"/>
</g>
<path d="M87.0095 75.8196C87.0095 75.8196 96.6501 76.5919 102.43 80.0681C108.21 83.5444 104.904 88.3776 104.904 88.3776C104.904 88.3776 107.549 84.2993 103.75 82.1816C99.9509 80.0639 88.1652 77.9966 88.1652 77.9966L87.0095 75.8196Z" fill="#263238" stroke="#263238" stroke-linecap="round" stroke-linejoin="round"/>
<path d="M104.889 88.3828C104.889 88.3828 100.846 97.3769 83.0093 98.2889L82.8404 96.7963C82.8404 96.7963 92.4129 96.4888 98.0923 93.3209C102.744 90.7176 104.889 88.3828 104.889 88.3828Z" fill="#263238" stroke="#263238" stroke-linecap="round" stroke-linejoin="round"/>
<path d="M24.3564 86.5607C24.3564 86.5607 37.3889 78.576 43.9579 72.4219C50.5269 66.2678 53.7533 62.2444 57.108 62.1889C60.4628 62.1334 75.0151 66.5684 78.3294 66.9162C81.6437 67.2639 83.1754 67.3577 83.5928 68.5046C84.0102 69.6515 88.2118 76.5513 87.9558 78.9792C87.6999 81.4072 83.6535 98.5763 82.048 103.438C80.4426 108.3 75.2316 111.499 69.1319 113.331C63.0322 115.162 43.0445 116.351 38.3149 114.686C33.5853 113.021 33.8256 108.538 33.4915 105.548C33.1574 102.558 32.3375 99.3522 29.366 96.8C26.3945 94.2479 21.3223 91.6872 21.6065 89.8965C21.8906 88.1057 24.3564 86.5607 24.3564 86.5607Z" fill="#263238" stroke="#263238" stroke-linecap="round" stroke-linejoin="round"/>
<path d="M74.0812 66.6951C74.0812 66.6951 69.251 65.1928 66.0777 65.3079C62.9043 65.4231 61.0608 65.6523 59.6394 66.4667C58.2181 67.2811 48.153 74.9476 46.3574 76.4886C44.5619 78.0296 38.2234 81.8221 38.2234 81.8221L36.3709 80.272C36.3709 80.272 48.1951 72.1137 52.1641 68.8904C54.2444 67.172 56.439 65.5323 58.7348 63.9812" fill="#263238"/>
<path d="M74.0812 66.6951C74.0812 66.6951 69.251 65.1928 66.0777 65.3079C62.9043 65.4231 61.0608 65.6523 59.6394 66.4667C58.2181 67.2811 48.153 74.9476 46.3574 76.4886C44.5619 78.0296 38.2234 81.8221 38.2234 81.8221L36.3709 80.272C36.3709 80.272 48.1951 72.1137 52.1641 68.8904C54.2444 67.172 56.439 65.5323 58.7348 63.9812" stroke="#263238" stroke-linecap="round" stroke-linejoin="round"/>
<path d="M62.386 66.9487C62.386 66.9487 77.1381 76.2587 79.9777 97.6137Z" fill="#263238"/>
<path d="M62.386 66.9487C62.386 66.9487 77.1381 76.2587 79.9777 97.6137" stroke="#263238" stroke-linecap="round" stroke-linejoin="round"/>
<path d="M79.1982 107.24C79.1982 107.24 75.4153 110.99 70.2103 112.588C65.0053 114.185 44.9781 115.098 41.2344 114.237C37.4908 113.375 36.2548 111.749 36.2548 111.749" fill="#263238"/>
<path d="M79.1982 107.24C79.1982 107.24 75.4153 110.99 70.2103 112.588C65.0053 114.185 44.9781 115.098 41.2344 114.237C37.4908 113.375 36.2548 111.749 36.2548 111.749" stroke="#263238" stroke-linecap="round" stroke-linejoin="round"/>
<path d="M81.2128 99.4037C81.3206 100.575 81.2969 101.775 81.142 102.991Z" fill="#263238"/>
<path d="M81.2128 99.4037C81.3206 100.575 81.2969 101.775 81.142 102.991" stroke="#263238" stroke-linecap="round" stroke-linejoin="round"/>
<path d="M63.2765 66.4303C67.3863 69.4023 73.9706 75.1948 77.2914 83.6378C79.7911 89.9915 80.7607 94.8034 81.1002 98.0354" fill="#263238"/>
<path d="M63.2765 66.4303C67.3863 69.4023 73.9706 75.1948 77.2914 83.6378C79.7911 89.9915 80.7607 94.8034 81.1002 98.0354" stroke="#263238" stroke-linecap="round" stroke-linejoin="round"/>
<path d="M59.6827 64.1048C59.6827 64.1048 60.4707 64.5302 61.7377 65.3641Z" fill="#263238"/>
<path d="M59.6827 64.1048C59.6827 64.1048 60.4707 64.5302 61.7377 65.3641" stroke="#263238" stroke-linecap="round" stroke-linejoin="round"/>
<path d="M41.5619 109.615C41.5619 109.615 33.957 118.096 24.0212 121.187C14.0854 124.278 8.3238 120.806 8.3238 120.806C8.3238 120.806 11.5228 125.481 21.8735 123.53C32.2243 121.58 42.9024 111.725 42.9024 111.725L41.5619 109.615Z" fill="#263238" stroke="#263238" stroke-linecap="round" stroke-linejoin="round"/>
<path d="M25.032 89.9599L26.6299 91.3247C26.6299 91.3247 16.3695 96.0951 10.3819 104.89C4.39429 113.686 6.02234 119.187 8.51619 121.395C6.61547 119.674 5.18919 117.652 4.29486 115.409C3.04378 111.972 6.87891 104.478 10.8901 100.554C14.9013 96.6295 25.032 89.9599 25.032 89.9599Z" fill="#263238" stroke="#263238" stroke-linecap="round" stroke-linejoin="round"/>
<path d="M54.943 109.335L55.0544 109.641L56.1416 109.512L56.6165 110.817L57.1443 110.754L56.0426 107.727L54.1625 107.947L54.2776 108.263L55.6299 108.106L56.029 109.202L54.943 109.335Z" fill="#263238" stroke="#263238" stroke-linecap="round" stroke-linejoin="round"/>
<path d="M52.6459 109.618L52.7573 109.925L53.8493 109.794L54.3243 111.099L54.8521 111.036L53.7504 108.009L51.8715 108.232L51.9829 108.538L53.3388 108.376L53.7391 109.476L52.6459 109.618Z" fill="#263238" stroke="#263238" stroke-linecap="round" stroke-linejoin="round"/>
<path d="M50.4146 108.404C49.6703 108.492 49.4606 108.808 49.6271 109.266L49.7581 109.626C49.8191 109.85 49.9887 110.032 50.2382 110.142C50.4877 110.251 50.8016 110.28 51.1267 110.225L51.5961 110.168L52.0319 111.365L52.5597 111.303L51.458 108.276L50.4146 108.404ZM51.0068 109.925C50.8295 109.957 50.6583 109.94 50.5246 109.878C50.3908 109.816 50.3035 109.714 50.2786 109.589L50.1329 109.188C50.0326 108.913 50.1405 108.755 50.5114 108.716L51.0379 108.65L51.4811 109.867L51.0068 109.925Z" fill="#263238" stroke="#263238" stroke-linecap="round" stroke-linejoin="round"/>
<path d="M47.071 109.564C47.4027 110.475 49.106 110.617 49.3837 111.305L49.4009 111.352L47.8491 111.536L47.9605 111.842L50.0352 111.597L49.9409 111.338C49.5859 110.363 47.9316 110.355 47.6255 109.514C47.5129 109.205 47.6171 109.022 48.0136 108.992C48.1926 108.974 48.3603 109.001 48.49 109.07C48.6198 109.139 48.7041 109.245 48.7297 109.372L48.8264 109.637L49.3226 109.579L49.2332 109.333C49.1788 109.104 49.0171 108.916 48.774 108.797C48.531 108.678 48.2209 108.636 47.8937 108.678C47.1263 108.763 46.9033 109.103 47.071 109.564Z" fill="#263238" stroke="#263238" stroke-linecap="round" stroke-linejoin="round"/>
<path d="M87.0038 74.9418C87.0038 74.9418 96.6444 75.714 102.423 79.187C108.202 82.6599 104.897 87.4964 104.897 87.4964C104.897 87.4964 107.538 83.4232 103.768 81.295C99.9987 79.1667 88.1777 77.1083 88.1777 77.1083L87.0038 74.9418Z" fill="white" stroke="#263238" stroke-linecap="round" stroke-linejoin="round"/>
<path d="M104.887 87.4999C104.887 87.4999 100.85 96.4957 82.9987 97.4129L82.8299 95.9204C82.8299 95.9204 92.4011 95.6095 98.0805 92.4416C102.738 89.8399 104.887 87.4999 104.887 87.4999Z" fill="white" stroke="#263238" stroke-linecap="round" stroke-linejoin="round"/>
<path d="M24.3555 85.6811C24.3555 85.6811 37.3831 77.6981 43.957 71.5422C50.5309 65.3864 53.7512 61.3615 57.1072 61.3093C60.4631 61.2572 74.9948 65.6807 78.3285 66.0365C81.6623 66.3924 83.1745 66.4781 83.5919 67.625C84.0094 68.7719 88.2109 75.6716 87.9549 78.0996C87.699 80.5276 83.6514 97.6933 82.0472 102.558C80.443 107.423 75.2307 110.619 69.1298 112.448C63.0288 114.276 43.0423 115.468 38.314 113.806C33.5857 112.145 33.8247 107.659 33.4857 104.67C33.1468 101.682 32.356 98.4655 29.3651 95.9204C26.3742 93.3754 21.3166 90.8093 21.6056 89.0168C21.8946 87.2243 24.3555 85.6811 24.3555 85.6811Z" fill="white" stroke="#263238" stroke-linecap="round" stroke-linejoin="round"/>
<path d="M74.0804 65.8155C74.0804 65.8155 73.9307 65.7672 73.6604 65.6903" stroke="#263238" stroke-linecap="round" stroke-linejoin="round"/>
<path d="M72.8096 65.4554C71.1592 65.0201 68.2334 64.3481 66.0769 64.4284C62.9036 64.5436 61.0552 64.7745 59.6375 65.5838C58.2198 66.3931 48.151 74.0647 46.3567 75.6091C44.9679 76.8002 40.8878 79.325 39.0888 80.4178" stroke="#263238" stroke-linecap="round" stroke-linejoin="round" stroke-dasharray="2 2"/>
<path d="M38.6563 80.6818L38.2032 80.9495L37.9095 80.7022" stroke="#263238" stroke-linecap="round" stroke-linejoin="round"/>
<path d="M37.5084 80.3416L36.8759 79.8139" stroke="#263238" stroke-linecap="round" stroke-linejoin="round" stroke-dasharray="1.43 1.43"/>
<path d="M36.6614 79.6329L36.3677 79.3856L36.777 79.1033" stroke="#263238" stroke-linecap="round" stroke-linejoin="round"/>
<path d="M37.5931 78.5321C40.7216 76.3574 48.9652 70.5841 52.1597 68.0008C54.798 65.8559 56.837 64.3939 57.9033 63.6478" stroke="#263238" stroke-linecap="round" stroke-linejoin="round" stroke-dasharray="1.99 1.99"/>
<path d="M58.3149 63.3718C58.5883 63.185 58.7316 63.0948 58.7316 63.0948" stroke="#263238" stroke-linecap="round" stroke-linejoin="round"/>
<path d="M62.3889 66.0791C62.3889 66.0791 77.1361 75.3909 79.9805 96.7441" stroke="#263238" stroke-linecap="round" stroke-linejoin="round" stroke-dasharray="2 2"/>
<path d="M79.1925 106.363C79.1925 106.363 75.4133 110.107 70.2095 111.708C65.0057 113.309 44.9773 114.219 41.2336 113.357C37.49 112.495 36.254 110.869 36.254 110.869" stroke="#263238" stroke-linecap="round" stroke-linejoin="round" stroke-dasharray="2 2"/>
<path d="M81.212 98.5241C81.3216 99.6951 81.2995 100.894 81.1461 102.109" stroke="#263238" stroke-linecap="round" stroke-linejoin="round"/>
<path d="M63.2756 65.5508C67.3854 68.5227 73.9697 74.3153 77.2905 82.7583C79.7854 89.1137 80.7586 93.9205 81.0993 97.1559" stroke="#263238" stroke-linecap="round" stroke-linejoin="round"/>
<path d="M59.6819 63.2251C59.6819 63.2251 60.4687 63.6471 61.7369 64.4844" stroke="#263238" stroke-linecap="round" stroke-linejoin="round"/>
<path d="M41.5563 108.737C41.5563 108.737 33.9562 117.217 24.0204 120.308C14.0846 123.398 8.31814 119.929 8.31814 119.929C8.31814 119.929 11.522 124.601 21.8715 122.648C32.2211 120.694 42.9016 110.845 42.9016 110.845L41.5563 108.737Z" fill="white" stroke="#263238" stroke-linecap="round" stroke-linejoin="round"/>
<path d="M25.0275 89.0703L26.6254 90.435C26.6254 90.435 16.3601 95.2073 10.3774 104.001C4.39464 112.794 6.05185 118.285 8.51045 120.502C6.60545 118.784 5.17429 116.763 4.27455 114.522C3.02469 111.088 6.85981 103.594 10.8661 99.6712C14.8725 95.7487 25.0275 89.0703 25.0275 89.0703Z" fill="white" stroke="#263238" stroke-linecap="round" stroke-linejoin="round"/>
<path d="M116.555 148.103C116.846 147.224 116.96 146.294 116.891 145.369C117.448 144.842 119.556 144.218 119.556 144.218L119.358 143.417C118.413 143.552 117.455 143.576 116.505 143.487C116.261 142.801 115.913 142.158 115.474 141.582C115.726 140.979 116.099 140.437 116.569 139.988L115.994 139.397C115.535 139.835 115.017 140.207 114.457 140.501C114.055 140.155 113.617 139.855 113.15 139.606C112.966 138.88 113.504 136.681 113.504 136.681L112.69 136.439C112.328 137.329 111.865 138.173 111.309 138.954C110.634 138.813 109.942 138.777 109.256 138.847C108.873 138.313 108.597 137.708 108.442 137.067L107.65 137.272C107.794 137.882 107.852 138.51 107.821 139.136C107.244 139.318 106.693 139.577 106.182 139.904C105.441 139.662 103.854 138.139 103.854 138.139L103.265 138.726C103.847 139.47 104.34 140.282 104.733 141.144C104.212 141.729 103.79 142.398 103.485 143.123C102.888 143.175 102.286 143.115 101.709 142.946L101.493 143.757C102.048 143.92 102.58 144.155 103.076 144.456C102.951 145.068 102.908 145.695 102.947 146.319C102.142 146.755 101.294 147.101 100.416 147.353L100.618 148.169C101.5 148.031 102.395 148.004 103.283 148.089C103.537 148.844 103.917 149.548 104.406 150.172C104.147 150.713 103.795 151.204 103.366 151.621L103.946 152.217C104.361 151.816 104.825 151.47 105.326 151.187C106.074 151.851 106.952 152.347 107.903 152.641C108.207 153.433 108.212 155.483 108.212 155.483H109.045C109.154 154.605 109.371 153.744 109.689 152.92C110.308 152.945 110.927 152.885 111.53 152.743C111.844 152.669 112.151 152.571 112.45 152.45C112.841 152.892 113.153 153.399 113.371 153.95L114.139 153.628C113.916 153.047 113.77 152.437 113.707 151.816C114.535 151.282 115.242 150.578 115.782 149.748C116.677 149.95 117.548 150.252 118.378 150.647L118.751 149.897C117.95 149.392 117.212 148.789 116.555 148.103ZM108.042 139.08H108.014H108.042Z" fill="#2B6E8B"/>
<g opacity="0.2">
<path opacity="0.2" d="M115.023 146.259C114.733 146.179 114.659 145.588 114.402 144.828C114.374 144.731 114.328 144.633 114.296 144.53C114.264 144.428 114.213 144.33 114.171 144.223C114.078 144.005 113.97 143.793 113.849 143.589C113.592 143.143 113.264 142.741 112.878 142.401C112.483 142.069 112.039 141.802 111.562 141.609C111.337 141.516 111.102 141.451 110.895 141.386L110.573 141.307C110.471 141.307 110.37 141.26 110.269 141.246C109.487 141.106 108.888 141.116 108.778 140.836C108.764 140.798 108.759 140.757 108.763 140.717C108.767 140.677 108.78 140.638 108.801 140.603C108.856 140.49 108.935 140.39 109.031 140.31C109.365 140.037 109.758 139.847 110.177 139.755C110.315 139.721 110.455 139.695 110.596 139.676C110.743 139.676 110.895 139.648 111.056 139.639C111.79 139.63 112.517 139.789 113.182 140.105C113.562 140.29 113.918 140.523 114.241 140.799C114.859 141.339 115.334 142.028 115.621 142.802C115.739 143.129 115.82 143.468 115.865 143.813C115.865 143.976 115.897 144.13 115.902 144.279C115.909 144.423 115.909 144.568 115.902 144.712C115.877 145.144 115.75 145.564 115.534 145.937C115.471 146.047 115.387 146.143 115.285 146.217C115.248 146.245 115.205 146.264 115.159 146.271C115.113 146.278 115.067 146.274 115.023 146.259Z" fill="white"/>
</g>
<path d="M103.983 137.692C104.088 137.799 103.909 138.157 103.587 138.488C103.485 138.591 103.374 138.685 103.255 138.768C103.048 138.908 102.873 138.963 102.795 138.894C102.717 138.824 102.869 138.428 103.196 138.097C103.522 137.766 103.877 137.584 103.983 137.692Z" fill="#2B6E8B"/>
<g opacity="0.3">
<path opacity="0.3" d="M103.288 138.744C103.51 138.576 103.704 138.374 103.863 138.143L104.236 138.488C103.984 138.667 103.704 138.801 103.407 138.884L103.288 138.744Z" fill="black"/>
</g>
<path d="M101.603 142.495C101.751 142.532 101.774 142.932 101.659 143.384C101.625 143.526 101.577 143.663 101.516 143.794C101.41 144.023 101.286 144.162 101.189 144.139C101.092 144.116 101.019 143.701 101.134 143.249C101.249 142.797 101.461 142.457 101.603 142.495Z" fill="#2B6E8B"/>
<g opacity="0.3">
<path opacity="0.3" d="M101.53 143.762C101.656 143.509 101.724 143.23 101.727 142.946C101.879 142.988 102.04 143.026 102.215 143.063C102.086 143.335 101.914 143.584 101.704 143.799L101.53 143.762Z" fill="black"/>
</g>
<path d="M100.103 147.06C100.25 147.018 100.467 147.353 100.586 147.805C100.622 147.947 100.647 148.092 100.66 148.239C100.66 148.49 100.637 148.672 100.54 148.704C100.444 148.737 100.181 148.406 100.08 147.954C99.9787 147.502 99.9603 147.06 100.103 147.06Z" fill="#2B6E8B"/>
<g opacity="0.3">
<path opacity="0.3" d="M100.655 148.183C100.625 147.902 100.55 147.629 100.434 147.372L100.918 147.218C100.941 147.531 100.913 147.846 100.835 148.15L100.655 148.183Z" fill="black"/>
</g>
<path d="M102.896 151.504C102.998 151.397 103.357 151.574 103.683 151.905C103.786 152.006 103.878 152.116 103.96 152.236C104.102 152.445 104.157 152.622 104.088 152.701C104.019 152.781 103.628 152.632 103.301 152.305C102.975 151.979 102.791 151.611 102.896 151.504Z" fill="#2B6E8B"/>
<g opacity="0.3">
<path opacity="0.3" d="M103.946 152.184C103.793 151.947 103.588 151.747 103.347 151.602C103.458 151.495 103.573 151.369 103.693 151.234C103.866 151.485 103.995 151.764 104.075 152.059L103.946 152.184Z" fill="black"/>
</g>
<path d="M107.798 155.706C107.798 155.557 108.18 155.441 108.644 155.45C108.788 155.45 108.932 155.466 109.072 155.497C109.316 155.548 109.477 155.641 109.477 155.739C109.477 155.837 109.095 156.009 108.631 156C108.166 155.99 107.798 155.86 107.798 155.706Z" fill="#2B6E8B"/>
<g opacity="0.3">
<path opacity="0.3" d="M109.036 155.487C108.76 155.442 108.478 155.442 108.203 155.487C108.203 155.329 108.203 155.152 108.203 154.975C108.505 155.036 108.794 155.15 109.059 155.31L109.036 155.487Z" fill="black"/>
</g>
<path d="M113.072 154.346C113.012 154.206 113.311 153.945 113.734 153.759C113.867 153.702 114.004 153.657 114.144 153.624C114.388 153.568 114.572 153.586 114.604 153.68C114.636 153.773 114.365 154.08 113.941 154.267C113.518 154.453 113.15 154.486 113.072 154.346Z" fill="#2B6E8B"/>
<g opacity="0.3">
<path opacity="0.3" d="M114.107 153.633C113.832 153.686 113.572 153.803 113.348 153.973C113.287 153.814 113.218 153.659 113.141 153.507C113.442 153.436 113.754 153.419 114.061 153.456L114.107 153.633Z" fill="black"/>
</g>
<path d="M118.387 151.136C118.254 151.071 118.304 150.67 118.507 150.256C118.57 150.124 118.644 149.998 118.728 149.878C118.879 149.678 119.031 149.566 119.119 149.613C119.206 149.659 119.202 150.079 118.999 150.493C118.797 150.908 118.52 151.201 118.387 151.136Z" fill="#2B6E8B"/>
<g opacity="0.3">
<path opacity="0.3" d="M118.709 149.911C118.551 150.143 118.431 150.399 118.355 150.67L117.895 150.465C118.077 150.214 118.299 149.995 118.553 149.818L118.709 149.911Z" fill="black"/>
</g>
<g opacity="0.3">
<path opacity="0.3" d="M107.245 147.568C107.37 148.099 107.186 148.597 106.831 148.686C106.477 148.774 106.09 148.406 105.966 147.87C105.842 147.335 106.026 146.836 106.38 146.752C106.735 146.669 107.121 147.032 107.245 147.568Z" fill="black"/>
</g>
<path d="M106.877 147.06C107.001 147.591 106.817 148.094 106.463 148.178C106.109 148.262 105.722 147.898 105.598 147.363C105.474 146.827 105.658 146.333 106.012 146.245C106.366 146.156 106.753 146.543 106.877 147.06Z" fill="#2B6E8B"/>
<g opacity="0.3">
<path opacity="0.3" d="M105.694 142.08C106.099 141.721 106.615 141.651 106.868 141.931C107.121 142.21 106.969 142.723 106.564 143.086C106.159 143.45 105.644 143.515 105.391 143.235C105.138 142.956 105.289 142.443 105.694 142.08Z" fill="black"/>
</g>
<path d="M105.294 141.642C105.699 141.283 106.214 141.213 106.468 141.493C106.721 141.773 106.569 142.285 106.164 142.648C105.759 143.012 105.243 143.077 104.99 142.797C104.737 142.518 104.889 142.005 105.294 141.642Z" fill="#2B6E8B"/>
<g opacity="0.3">
<path opacity="0.3" d="M109.809 150.013C109.842 150.139 109.837 150.271 109.795 150.394C109.754 150.516 109.677 150.624 109.575 150.702C109.473 150.78 109.35 150.826 109.222 150.833C109.094 150.84 108.967 150.808 108.857 150.742C108.747 150.676 108.659 150.578 108.604 150.461C108.549 150.343 108.53 150.212 108.549 150.084C108.568 149.956 108.625 149.836 108.712 149.741C108.798 149.645 108.911 149.578 109.036 149.548C109.199 149.508 109.371 149.534 109.516 149.621C109.66 149.708 109.765 149.849 109.809 150.013Z" fill="black"/>
</g>
<path d="M109.731 149.673C109.764 149.799 109.759 149.931 109.717 150.054C109.676 150.176 109.599 150.284 109.497 150.362C109.394 150.44 109.272 150.486 109.144 150.493C109.016 150.5 108.889 150.468 108.778 150.402C108.668 150.336 108.58 150.238 108.526 150.12C108.471 150.003 108.452 149.872 108.471 149.744C108.49 149.616 108.547 149.496 108.633 149.401C108.72 149.305 108.833 149.238 108.957 149.208C109.121 149.168 109.293 149.194 109.438 149.281C109.582 149.368 109.687 149.509 109.731 149.673Z" fill="#2B6E8B"/>
<g opacity="0.3">
<path opacity="0.3" d="M109.731 149.673C109.764 149.799 109.759 149.931 109.717 150.054C109.676 150.176 109.599 150.284 109.497 150.362C109.394 150.44 109.272 150.486 109.144 150.493C109.016 150.5 108.889 150.468 108.778 150.402C108.668 150.336 108.58 150.238 108.526 150.12C108.471 150.003 108.452 149.872 108.471 149.744C108.49 149.616 108.547 149.496 108.633 149.401C108.72 149.305 108.833 149.238 108.957 149.208C109.121 149.168 109.293 149.194 109.438 149.281C109.582 149.368 109.687 149.509 109.731 149.673Z" fill="white"/>
</g>
<g opacity="0.3">
<path opacity="0.3" d="M112.662 143.37C112.586 143.51 112.47 143.624 112.33 143.697C112.189 143.771 112.031 143.8 111.874 143.782C111.717 143.763 111.569 143.698 111.449 143.595C111.329 143.491 111.242 143.354 111.199 143.2C111.156 143.046 111.159 142.883 111.208 142.731C111.257 142.579 111.35 142.445 111.474 142.347C111.598 142.248 111.749 142.189 111.906 142.177C112.064 142.165 112.221 142.201 112.358 142.28C112.54 142.385 112.674 142.558 112.731 142.762C112.788 142.966 112.763 143.185 112.662 143.37Z" fill="black"/>
</g>
<path d="M112.869 142.998C112.792 143.137 112.676 143.25 112.536 143.323C112.395 143.395 112.237 143.424 112.08 143.405C111.924 143.386 111.776 143.321 111.657 143.217C111.537 143.114 111.45 142.976 111.407 142.823C111.365 142.669 111.368 142.506 111.417 142.354C111.466 142.203 111.558 142.069 111.682 141.971C111.806 141.872 111.957 141.813 112.114 141.801C112.271 141.789 112.428 141.825 112.565 141.903C112.749 142.008 112.884 142.182 112.94 142.387C112.997 142.592 112.972 142.812 112.869 142.998Z" fill="#2B6E8B"/>
<g opacity="0.3">
<path opacity="0.3" d="M113.15 149.878C113.167 149.967 113.159 150.06 113.125 150.144C113.092 150.228 113.034 150.301 112.961 150.352C112.887 150.404 112.8 150.433 112.71 150.435C112.62 150.438 112.532 150.413 112.456 150.365C112.38 150.317 112.319 150.248 112.281 150.166C112.243 150.083 112.23 149.991 112.243 149.901C112.256 149.812 112.295 149.728 112.355 149.66C112.415 149.592 112.493 149.543 112.579 149.52C112.64 149.503 112.704 149.499 112.766 149.509C112.828 149.518 112.888 149.54 112.941 149.574C112.995 149.607 113.041 149.652 113.077 149.704C113.113 149.757 113.138 149.816 113.15 149.878Z" fill="black"/>
</g>
<path d="M113.095 149.627C113.109 149.688 113.111 149.751 113.101 149.813C113.091 149.875 113.069 149.935 113.036 149.988C113.004 150.042 112.961 150.088 112.91 150.125C112.86 150.161 112.803 150.188 112.743 150.202C112.682 150.216 112.619 150.219 112.558 150.209C112.497 150.198 112.438 150.176 112.385 150.143C112.333 150.11 112.287 150.067 112.251 150.016C112.214 149.965 112.188 149.907 112.174 149.846C112.145 149.722 112.166 149.592 112.232 149.484C112.298 149.376 112.404 149.299 112.526 149.27C112.648 149.241 112.777 149.263 112.883 149.329C112.99 149.396 113.066 149.503 113.095 149.627Z" fill="#2B6E8B"/>
<path d="M119.883 144.549C119.735 144.586 119.524 144.255 119.422 143.808C119.385 143.67 119.36 143.528 119.349 143.384C119.349 143.137 119.372 142.956 119.468 142.918C119.565 142.881 119.823 143.212 119.929 143.659C120.034 144.106 120.025 144.507 119.883 144.549Z" fill="#2B6E8B"/>
<g opacity="0.3">
<path opacity="0.3" d="M119.335 143.422C119.368 143.697 119.443 143.966 119.556 144.218L119.096 144.372C119.069 144.059 119.095 143.744 119.174 143.44L119.335 143.422Z" fill="black"/>
</g>
<path d="M117.011 140.105C116.91 140.212 116.551 140.035 116.233 139.709C116.133 139.609 116.042 139.5 115.962 139.383C115.819 139.173 115.764 138.996 115.833 138.917C115.902 138.838 116.293 138.987 116.611 139.313C116.928 139.639 117.117 139.998 117.011 140.105Z" fill="#2B6E8B"/>
<g opacity="0.3">
<path opacity="0.3" d="M115.98 139.411C116.131 139.646 116.332 139.843 116.569 139.988C116.459 140.095 116.344 140.217 116.229 140.352C116.058 140.104 115.93 139.828 115.851 139.536L115.98 139.411Z" fill="black"/>
</g>
<path d="M113.923 136.546C113.886 136.69 113.495 136.713 113.053 136.592C112.916 136.556 112.783 136.504 112.657 136.438C112.437 136.331 112.303 136.206 112.326 136.108C112.349 136.01 112.754 135.945 113.196 136.066C113.638 136.187 113.964 136.401 113.923 136.546Z" fill="#2B6E8B"/>
<g opacity="0.3">
<path opacity="0.3" d="M112.69 136.457C112.941 136.568 113.208 136.639 113.481 136.667C113.449 136.816 113.408 136.988 113.371 137.161C113.096 137.026 112.846 136.847 112.63 136.629L112.69 136.457Z" fill="black"/>
</g>
<path d="M108.773 136.737C108.815 136.881 108.488 137.1 108.046 137.202C107.909 137.241 107.769 137.266 107.627 137.277C107.383 137.277 107.204 137.277 107.167 137.161C107.13 137.044 107.457 136.797 107.894 136.695C108.331 136.592 108.736 136.592 108.773 136.737Z" fill="#2B6E8B"/>
<g opacity="0.3">
<path opacity="0.3" d="M107.664 137.277C107.94 137.263 108.209 137.187 108.451 137.053C108.488 137.202 108.539 137.366 108.594 137.519C108.295 137.544 107.995 137.518 107.706 137.44L107.664 137.277Z" fill="black"/>
</g>
<g opacity="0.3">
<path opacity="0.3" d="M114.448 147.829C114.314 148.36 113.918 148.714 113.564 148.621C113.21 148.527 113.039 148.024 113.173 147.493C113.306 146.962 113.707 146.608 114.056 146.701C114.406 146.794 114.586 147.302 114.448 147.829Z" fill="black"/>
</g>
<path d="M114.664 147.526C114.526 148.057 114.13 148.411 113.776 148.318C113.421 148.225 113.251 147.721 113.389 147.19C113.527 146.659 113.918 146.305 114.273 146.398C114.627 146.492 114.797 146.976 114.664 147.526Z" fill="#2B6E8B"/>
<g opacity="0.3">
<path opacity="0.3" d="M110.849 145.448C110.896 145.638 110.887 145.839 110.823 146.023C110.758 146.208 110.641 146.37 110.485 146.487C110.33 146.605 110.144 146.673 109.95 146.683C109.757 146.693 109.564 146.645 109.398 146.545C109.231 146.445 109.098 146.297 109.014 146.12C108.931 145.943 108.901 145.744 108.929 145.55C108.956 145.356 109.04 145.175 109.17 145.029C109.3 144.883 109.469 144.779 109.657 144.731C109.782 144.698 109.912 144.69 110.039 144.709C110.167 144.727 110.29 144.771 110.401 144.838C110.511 144.904 110.608 144.993 110.685 145.097C110.762 145.202 110.818 145.321 110.849 145.448Z" fill="black"/>
</g>
<path d="M110.706 144.884C110.751 145.075 110.739 145.276 110.671 145.46C110.604 145.644 110.484 145.803 110.327 145.918C110.17 146.033 109.982 146.099 109.788 146.106C109.594 146.113 109.403 146.062 109.238 145.959C109.073 145.855 108.942 145.705 108.861 145.526C108.78 145.348 108.754 145.149 108.785 144.955C108.816 144.761 108.903 144.581 109.036 144.438C109.168 144.294 109.339 144.193 109.528 144.148C109.781 144.088 110.047 144.132 110.267 144.27C110.488 144.408 110.646 144.629 110.706 144.884Z" fill="#2B6E8B"/>
<g opacity="0.3">
<path opacity="0.3" d="M114.53 150.139C114.59 150.2 114.53 150.372 114.356 150.605C114.098 150.949 113.787 151.25 113.435 151.495C113.191 151.668 112.936 151.823 112.671 151.961C112.364 152.115 112.046 152.244 111.719 152.347C110.798 152.638 109.824 152.718 108.869 152.581C107.914 152.444 107.001 152.093 106.196 151.555C105.949 151.388 105.715 151.201 105.497 150.996C105.175 150.71 104.902 150.374 104.687 149.999C104.539 149.729 104.507 149.534 104.572 149.496C104.714 149.38 105.197 149.794 106.026 150.274C106.231 150.395 106.462 150.517 106.716 150.638C106.982 150.762 107.254 150.872 107.531 150.968C108.156 151.19 108.808 151.324 109.468 151.369C110.13 151.405 110.794 151.354 111.442 151.215C111.742 151.15 112.022 151.066 112.289 150.982C112.556 150.899 112.795 150.805 113.016 150.708C113.882 150.353 114.411 149.999 114.53 150.139Z" fill="black"/>
</g>
<g opacity="0.3">
<path opacity="0.3" d="M103.9 147.106C104.014 147.084 104.132 147.095 104.24 147.139C104.348 147.183 104.441 147.258 104.508 147.355C104.574 147.452 104.611 147.566 104.614 147.684C104.618 147.802 104.587 147.918 104.525 148.019C104.464 148.119 104.375 148.199 104.27 148.249C104.164 148.299 104.047 148.317 103.931 148.3C103.816 148.283 103.708 148.233 103.621 148.155C103.533 148.077 103.47 147.975 103.439 147.861C103.42 147.781 103.417 147.698 103.43 147.616C103.443 147.535 103.471 147.457 103.514 147.387C103.557 147.317 103.613 147.256 103.679 147.208C103.745 147.159 103.82 147.125 103.9 147.106Z" fill="black"/>
</g>
<g opacity="0.3">
<path opacity="0.3" d="M106.877 147.06C107.001 147.591 106.817 148.094 106.463 148.178C106.109 148.262 105.722 147.898 105.598 147.363C105.474 146.827 105.658 146.333 106.012 146.245C106.366 146.156 106.753 146.543 106.877 147.06Z" fill="white"/>
</g>
<g opacity="0.3">
<path opacity="0.3" d="M105.294 141.642C105.699 141.283 106.214 141.213 106.468 141.493C106.721 141.773 106.569 142.285 106.164 142.648C105.759 143.012 105.243 143.077 104.99 142.797C104.737 142.518 104.889 142.005 105.294 141.642Z" fill="white"/>
</g>
<g opacity="0.3">
<path opacity="0.3" d="M112.869 142.998C112.792 143.137 112.676 143.25 112.536 143.323C112.395 143.395 112.237 143.424 112.08 143.405C111.924 143.386 111.776 143.321 111.657 143.217C111.537 143.114 111.45 142.976 111.407 142.823C111.365 142.669 111.368 142.506 111.417 142.354C111.466 142.203 111.558 142.069 111.682 141.971C111.806 141.872 111.957 141.813 112.114 141.801C112.271 141.789 112.428 141.825 112.565 141.903C112.749 142.008 112.884 142.182 112.94 142.387C112.997 142.592 112.972 142.812 112.869 142.998Z" fill="white"/>
</g>
<g opacity="0.3">
<path opacity="0.3" d="M113.095 149.627C113.109 149.688 113.111 149.751 113.101 149.813C113.091 149.875 113.069 149.935 113.036 149.988C113.004 150.042 112.961 150.088 112.91 150.125C112.86 150.161 112.803 150.188 112.743 150.202C112.682 150.216 112.619 150.219 112.558 150.209C112.497 150.198 112.438 150.176 112.385 150.143C112.333 150.11 112.287 150.067 112.251 150.016C112.214 149.965 112.188 149.907 112.174 149.846C112.145 149.722 112.166 149.592 112.232 149.484C112.298 149.376 112.404 149.299 112.526 149.27C112.648 149.241 112.777 149.263 112.883 149.329C112.99 149.396 113.066 149.503 113.095 149.627Z" fill="white"/>
</g>
<g opacity="0.3">
<path opacity="0.3" d="M114.664 147.526C114.526 148.057 114.13 148.411 113.776 148.318C113.421 148.225 113.251 147.721 113.389 147.19C113.527 146.659 113.918 146.305 114.273 146.398C114.627 146.492 114.797 146.976 114.664 147.526Z" fill="white"/>
</g>
<g opacity="0.3">
<path opacity="0.3" d="M110.706 144.884C110.751 145.075 110.739 145.276 110.671 145.46C110.604 145.644 110.484 145.803 110.327 145.918C110.17 146.033 109.982 146.099 109.788 146.106C109.594 146.113 109.403 146.062 109.238 145.959C109.073 145.855 108.942 145.705 108.861 145.526C108.78 145.348 108.754 145.149 108.785 144.955C108.816 144.761 108.903 144.581 109.036 144.438C109.168 144.294 109.339 144.193 109.528 144.148C109.781 144.088 110.047 144.132 110.267 144.27C110.488 144.408 110.646 144.629 110.706 144.884Z" fill="white"/>
</g>
<path d="M99.1582 14.4097C99.3319 13.9438 99.3987 13.4507 99.3544 12.9606C99.8471 12.6986 100.378 12.4996 100.931 12.3692L100.813 11.9433C100.254 12.015 99.6876 12.0269 99.1255 11.9788C98.9818 11.6171 98.7766 11.2778 98.5172 10.9734C98.6694 10.6559 98.8921 10.3701 99.1713 10.1335L98.8311 9.82004C98.5589 10.0533 98.2531 10.2523 97.9219 10.4115C97.6826 10.2237 97.4191 10.0629 97.137 9.93242C97.123 9.40942 97.1935 8.88738 97.3463 8.38282L96.8819 8.26453C96.6678 8.73246 96.3957 9.17691 96.0708 9.58937C95.6703 9.51817 95.2605 9.50024 94.8542 9.53614C94.6281 9.25417 94.4658 8.93459 94.3767 8.59574L93.9058 8.70219C93.9905 9.02555 94.0257 9.3579 94.0104 9.68992C93.6674 9.78712 93.3397 9.92431 93.0358 10.098C92.5337 9.84358 92.0717 9.52926 91.6622 9.16352L91.309 9.47699C91.6568 9.86621 91.9491 10.2934 92.179 10.7486C91.8742 11.0598 91.6269 11.4133 91.4464 11.7955C91.0941 11.8204 90.7397 11.7883 90.3998 11.7008L90.269 12.1267C90.5982 12.2116 90.9129 12.3369 91.2044 12.4993C91.1308 12.8261 91.1066 13.1603 91.1324 13.4929C90.6554 13.721 90.1534 13.9033 89.6345 14.0371L89.7523 14.4688C90.2736 14.3944 90.8034 14.3805 91.3286 14.4274C91.4774 14.8209 91.6986 15.1888 91.9827 15.5157C91.8291 15.8008 91.6209 16.0591 91.3679 16.2787L91.708 16.5981C91.9554 16.385 92.2324 16.2021 92.5322 16.0539C92.9762 16.4023 93.4951 16.6641 94.0562 16.8228C94.1856 17.3128 94.2471 17.8154 94.2394 18.3192H94.7299C94.7953 17.8549 94.9249 17.3998 95.1159 16.9647C95.4829 16.9741 95.8498 16.9423 96.2082 16.8701C96.3905 16.8295 96.5697 16.7782 96.7446 16.7163C96.9722 16.9486 97.1536 17.2148 97.2809 17.503L97.7323 17.3374C97.603 17.029 97.5173 16.707 97.4772 16.3792C97.9698 16.0992 98.3893 15.7259 98.7069 15.285C99.2351 15.3929 99.7485 15.5536 100.237 15.7641L100.46 15.3678C99.9856 15.0961 99.5486 14.7745 99.1582 14.4097V14.4097Z" fill="#5E6EFF"/>
<g opacity="0.2">
<path opacity="0.2" d="M98.249 13.4338C98.0724 13.3924 98.0266 13.0789 97.8762 12.6768C97.8595 12.6246 97.8399 12.5733 97.8173 12.523C97.8173 12.4698 97.765 12.4106 97.7454 12.3574C97.7258 12.3042 97.6277 12.1326 97.5557 12.0203C97.3999 11.7844 97.2059 11.5711 96.9801 11.3874C96.7457 11.2125 96.4833 11.0709 96.2017 10.9675C96.0644 10.9202 95.9335 10.8847 95.8027 10.8492L95.613 10.8078H95.4364C94.972 10.7309 94.6253 10.7368 94.5534 10.5889C94.5442 10.5693 94.5395 10.5482 94.5395 10.5268C94.5395 10.5055 94.5442 10.4844 94.5534 10.4647C94.5901 10.4073 94.6364 10.3555 94.6907 10.311C94.8815 10.1706 95.1053 10.0715 95.3448 10.0211C95.4263 10.0011 95.5094 9.98727 95.5934 9.97974H95.8681C96.3021 9.97586 96.7314 10.0608 97.124 10.2282C97.5807 10.4211 97.9699 10.7239 98.249 11.1035C98.3734 11.2762 98.4765 11.4606 98.5565 11.6536C98.6275 11.8252 98.6758 12.0039 98.7004 12.1859C98.7066 12.2686 98.7066 12.3515 98.7004 12.4343C98.707 12.5091 98.707 12.5842 98.7004 12.659C98.6869 12.8884 98.6129 13.1115 98.4845 13.3096C98.4465 13.368 98.3952 13.4184 98.3341 13.4575C98.3039 13.4565 98.2746 13.4484 98.249 13.4338V13.4338Z" fill="white"/>
</g>
<path d="M91.7081 8.9092C91.7669 8.96243 91.6623 9.15169 91.4726 9.32913C91.4108 9.38222 91.3452 9.43161 91.2763 9.47699C91.1521 9.54796 91.0474 9.57755 91.0082 9.54206C90.9689 9.50657 91.0474 9.29957 91.2436 9.12213C91.4399 8.9447 91.6623 8.85006 91.7081 8.9092Z" fill="#5E6EFF"/>
<g opacity="0.3">
<path opacity="0.3" d="M91.3156 9.46517C91.4471 9.37578 91.5619 9.26795 91.6557 9.14578L91.8781 9.32913C91.7284 9.4222 91.5626 9.49216 91.3876 9.53614L91.3156 9.46517Z" fill="black"/>
</g>
<path d="M90.3214 11.4465C90.4064 11.4465 90.4195 11.6772 90.3541 11.9138C90.3318 11.9885 90.3033 12.0617 90.269 12.1326C90.2036 12.2509 90.1317 12.3278 90.0728 12.3101C90.0139 12.2923 89.9747 12.0794 90.0401 11.8428C90.1055 11.6062 90.2298 11.4229 90.3214 11.4465Z" fill="#5E6EFF"/>
<g opacity="0.3">
<path opacity="0.3" d="M90.2756 12.1267C90.35 11.9925 90.3902 11.845 90.3933 11.6949C90.488 11.7194 90.5841 11.7391 90.6811 11.7541C90.6082 11.9016 90.5063 12.0359 90.3802 12.1504L90.2756 12.1267Z" fill="black"/>
</g>
<path d="M89.4318 13.8478C89.5169 13.8478 89.6477 14.0016 89.7131 14.2382C89.7367 14.3135 89.7521 14.3908 89.7589 14.4689C89.7589 14.599 89.7589 14.6936 89.6869 14.7114C89.615 14.7291 89.4776 14.5517 89.4056 14.3151C89.3337 14.0785 89.3468 13.8656 89.4318 13.8478Z" fill="#5E6EFF"/>
<g opacity="0.3">
<path opacity="0.3" d="M89.7457 14.4452C89.7259 14.2981 89.6818 14.1546 89.6149 14.0193L89.8962 13.9365C89.9119 14.1013 89.8964 14.2673 89.8504 14.4274L89.7457 14.4452Z" fill="black"/>
</g>
<path d="M91.054 16.2018C91.1194 16.1427 91.3287 16.2373 91.5184 16.4147C91.5788 16.4687 91.6356 16.526 91.6884 16.5862C91.7669 16.6986 91.7996 16.7933 91.7604 16.8287C91.7211 16.8642 91.4922 16.7933 91.296 16.6217C91.0997 16.4502 91.054 16.2669 91.054 16.2018Z" fill="#5E6EFF"/>
<g opacity="0.3">
<path opacity="0.3" d="M91.7081 16.5744C91.6182 16.447 91.4974 16.3397 91.3549 16.2609C91.4203 16.2077 91.4857 16.1426 91.5576 16.0717C91.6586 16.2038 91.7358 16.3495 91.7866 16.5034L91.7081 16.5744Z" fill="black"/>
</g>
<path d="M93.9843 18.4197C93.9843 18.3429 94.2067 18.2778 94.4815 18.2837H94.73C94.8804 18.3133 94.972 18.3606 94.972 18.4138C94.972 18.467 94.7496 18.5558 94.4749 18.5498C94.2002 18.5439 93.9778 18.5025 93.9843 18.4197Z" fill="#5E6EFF"/>
<g opacity="0.3">
<path opacity="0.3" d="M94.7104 18.3073C94.5479 18.2829 94.3822 18.2829 94.2198 18.3073C94.2198 18.2245 94.2198 18.1299 94.2198 18.0352C94.3994 18.0688 94.5718 18.1288 94.73 18.2127L94.7104 18.3073Z" fill="black"/>
</g>
<path d="M97.0978 17.704C97.0651 17.6272 97.2417 17.4911 97.4903 17.3906L97.7323 17.3196C97.8762 17.3196 97.9874 17.3196 98.007 17.3492C98.0267 17.3787 97.8697 17.5621 97.6146 17.6626C97.3595 17.7632 97.1305 17.775 97.0978 17.704Z" fill="#5E6EFF"/>
<g opacity="0.3">
<path opacity="0.3" d="M97.7126 17.3256C97.5497 17.3542 97.3956 17.4148 97.2613 17.503C97.2255 17.4199 97.184 17.3389 97.137 17.2605C97.3144 17.2319 97.496 17.2319 97.6734 17.2605L97.7126 17.3256Z" fill="black"/>
</g>
<path d="M100.244 16.0066C100.159 15.9711 100.192 15.7641 100.316 15.5393C100.353 15.4707 100.397 15.4054 100.447 15.3442C100.532 15.2377 100.623 15.1786 100.676 15.2022C100.728 15.2259 100.722 15.4447 100.604 15.6695C100.486 15.8942 100.323 16.0421 100.244 16.0066Z" fill="#5E6EFF"/>
<g opacity="0.3">
<path opacity="0.3" d="M100.434 15.3619C100.34 15.4855 100.267 15.621 100.218 15.7641L99.9497 15.6517C100.056 15.5205 100.187 15.4066 100.336 15.3146L100.434 15.3619Z" fill="black"/>
</g>
<g opacity="0.3">
<path opacity="0.3" d="M93.6704 14.1199C93.7423 14.4038 93.6311 14.6699 93.4218 14.7113C93.2125 14.7527 92.9836 14.5635 92.9116 14.2855C92.8397 14.0075 92.9443 13.7354 93.1536 13.694C93.3629 13.6526 93.5788 13.8419 93.6704 14.1199Z" fill="black"/>
</g>
<path d="M93.4349 13.8656C93.5134 14.1435 93.4349 14.4097 93.1929 14.457C92.9509 14.5043 92.7546 14.3091 92.6761 14.0253C92.5976 13.7414 92.7154 13.4811 92.9247 13.4338C93.134 13.3865 93.3629 13.5817 93.4349 13.8656Z" fill="#5E6EFF"/>
<g opacity="0.3">
<path opacity="0.3" d="M92.735 11.2277C92.977 11.0325 93.2909 10.997 93.4283 11.1449C93.5657 11.2928 93.4937 11.5648 93.2517 11.7364C93.0097 11.9079 92.7023 11.967 92.5584 11.8192C92.4144 11.6713 92.4995 11.417 92.735 11.2277Z" fill="black"/>
</g>
<path d="M92.4995 10.9911C92.7415 10.8018 93.049 10.7664 93.1929 10.9142C93.3368 11.0621 93.2517 11.3342 93.0162 11.5057C92.7808 11.6772 92.4603 11.7304 92.3229 11.5885C92.1855 11.4465 92.2575 11.1863 92.4995 10.9911Z" fill="#5E6EFF"/>
<g opacity="0.3">
<path opacity="0.3" d="M95.1682 15.4151C95.1856 15.4811 95.1809 15.5502 95.1547 15.6138C95.1286 15.6774 95.0823 15.7325 95.0215 15.7722C94.9608 15.812 94.8884 15.8346 94.8135 15.8371C94.7385 15.8397 94.6644 15.8221 94.6005 15.7866C94.5367 15.7512 94.4858 15.6993 94.4545 15.6378C94.4231 15.5762 94.4127 15.5075 94.4244 15.4406C94.4362 15.3736 94.4696 15.3113 94.5205 15.2615C94.5714 15.2117 94.6375 15.1767 94.7104 15.1608C94.7589 15.1503 94.8093 15.1485 94.8586 15.1555C94.9079 15.1626 94.9552 15.1784 94.9977 15.2021C95.0402 15.2257 95.0772 15.2567 95.1065 15.2932C95.1357 15.3298 95.1567 15.3712 95.1682 15.4151V15.4151Z" fill="black"/>
</g>
<path d="M95.1224 15.2377C95.1385 15.3038 95.1326 15.3726 95.1055 15.4356C95.0784 15.4986 95.0313 15.553 94.9701 15.5919C94.9089 15.6308 94.8364 15.6525 94.7617 15.6542C94.6869 15.656 94.6133 15.6377 94.55 15.6017C94.4867 15.5658 94.4365 15.5136 94.4059 15.452C94.3752 15.3903 94.3654 15.3218 94.3776 15.2551C94.3899 15.1884 94.4236 15.1265 94.4747 15.0771C94.5257 15.0277 94.5918 14.993 94.6646 14.9775C94.7135 14.967 94.7643 14.9654 94.814 14.9729C94.8636 14.9803 94.9112 14.9966 94.9538 15.0209C94.9964 15.0451 95.0332 15.0767 95.0622 15.114C95.0911 15.1512 95.1116 15.1933 95.1224 15.2377V15.2377Z" fill="#5E6EFF"/>
<g opacity="0.3">
<path opacity="0.3" d="M95.1224 15.2377C95.1385 15.3038 95.1326 15.3726 95.1055 15.4356C95.0784 15.4986 95.0313 15.553 94.9701 15.5919C94.9089 15.6308 94.8364 15.6525 94.7617 15.6542C94.6869 15.656 94.6133 15.6377 94.55 15.6017C94.4867 15.5658 94.4365 15.5136 94.4059 15.452C94.3752 15.3903 94.3654 15.3218 94.3776 15.2551C94.3899 15.1884 94.4236 15.1265 94.4747 15.0771C94.5257 15.0277 94.5918 14.993 94.6646 14.9775C94.7135 14.967 94.7643 14.9654 94.814 14.9729C94.8636 14.9803 94.9112 14.9966 94.9538 15.0209C94.9964 15.0451 95.0332 15.0767 95.0622 15.114C95.0911 15.1512 95.1116 15.1933 95.1224 15.2377V15.2377Z" fill="white"/>
</g>
<g opacity="0.3">
<path opacity="0.3" d="M96.8558 11.9079C96.8083 11.9796 96.7385 12.0371 96.6552 12.0733C96.5718 12.1094 96.4785 12.1225 96.387 12.1111C96.2954 12.0996 96.2096 12.064 96.1402 12.0087C96.0709 11.9535 96.021 11.881 95.9969 11.8003C95.9728 11.7195 95.9755 11.6342 96.0047 11.5549C96.0339 11.4756 96.0882 11.4058 96.161 11.3542C96.2337 11.3026 96.3216 11.2715 96.4138 11.2648C96.5059 11.2581 96.5982 11.276 96.6792 11.3164C96.7339 11.3446 96.7818 11.3823 96.8204 11.4274C96.8589 11.4724 96.8871 11.5239 96.9036 11.5789C96.92 11.6339 96.9242 11.6913 96.916 11.7477C96.9078 11.8042 96.8873 11.8586 96.8558 11.9079V11.9079Z" fill="black"/>
</g>
<path d="M96.9801 11.7068C96.9538 11.7614 96.9152 11.8104 96.8668 11.8507C96.8183 11.891 96.761 11.9217 96.6986 11.9407C96.6362 11.9598 96.5701 11.9668 96.5045 11.9612C96.439 11.9557 96.3754 11.9379 96.3179 11.9088C96.2605 11.8797 96.2104 11.84 96.171 11.7923C96.1315 11.7447 96.1035 11.69 96.0889 11.632C96.0742 11.5739 96.0732 11.5138 96.0859 11.4553C96.0986 11.3969 96.1246 11.3415 96.1624 11.2927C96.2294 11.2064 96.3295 11.1455 96.4432 11.1221C96.557 11.0986 96.6763 11.1141 96.7782 11.1657C96.88 11.2172 96.957 11.3011 96.9943 11.4011C97.0316 11.501 97.0265 11.61 96.9801 11.7068V11.7068Z" fill="#5E6EFF"/>
<g opacity="0.3">
<path opacity="0.3" d="M97.1436 15.3442C97.1533 15.376 97.1557 15.4094 97.1506 15.4421C97.1456 15.4749 97.1332 15.5063 97.1142 15.5346C97.0952 15.5628 97.07 15.5873 97.0402 15.6064C97.0104 15.6255 96.9766 15.6389 96.9408 15.6458C96.9047 15.6537 96.8673 15.6551 96.8306 15.6498C96.7939 15.6446 96.7588 15.6328 96.7271 15.6152C96.6955 15.5977 96.6681 15.5746 96.6464 15.5473C96.6247 15.5201 96.6091 15.4892 96.6007 15.4566C96.595 15.3955 96.6139 15.3347 96.6538 15.2852C96.6938 15.2357 96.7521 15.201 96.8182 15.1873C96.8842 15.1736 96.9535 15.182 97.0133 15.2108C97.0731 15.2396 97.1193 15.287 97.1436 15.3442Z" fill="black"/>
</g>
<path d="M97.1109 15.2081C97.1197 15.2408 97.1212 15.2746 97.1154 15.3078C97.1096 15.341 97.0966 15.3727 97.0771 15.4013C97.0577 15.4299 97.0322 15.4548 97.002 15.4744C96.9719 15.494 96.9378 15.5081 96.9016 15.5157C96.864 15.5287 96.8238 15.5343 96.7836 15.5321C96.7434 15.5298 96.7042 15.5198 96.6686 15.5026C96.6331 15.4855 96.602 15.4617 96.5776 15.4327C96.5531 15.4038 96.5358 15.3705 96.5268 15.335C96.5178 15.2995 96.5174 15.2626 96.5255 15.227C96.5336 15.1913 96.5501 15.1576 96.5739 15.1282C96.5976 15.0988 96.6281 15.0743 96.6632 15.0565C96.6983 15.0387 96.7372 15.0278 96.7774 15.0248C96.8126 15.0169 96.8492 15.0153 96.8851 15.0203C96.921 15.0252 96.9554 15.0365 96.9864 15.0536C97.0175 15.0706 97.0444 15.0931 97.0658 15.1196C97.0872 15.1461 97.1025 15.1762 97.1109 15.2081V15.2081Z" fill="#5E6EFF"/>
<path d="M101.127 12.5289C101.042 12.5289 100.911 12.3751 100.846 12.1385C100.823 12.0651 100.807 11.9898 100.8 11.9138C100.8 11.7837 100.8 11.689 100.872 11.6713C100.944 11.6535 101.081 11.8251 101.153 12.0616C101.225 12.2982 101.212 12.5052 101.127 12.5289Z" fill="#5E6EFF"/>
<g opacity="0.3">
<path opacity="0.3" d="M100.8 11.9315C100.82 12.0786 100.864 12.2221 100.931 12.3574L100.65 12.4342C100.637 12.2711 100.655 12.1072 100.702 11.9493L100.8 11.9315Z" fill="black"/>
</g>
<path d="M99.4264 10.1808C99.3675 10.24 99.1582 10.1453 98.9685 9.97381C98.91 9.91984 98.8554 9.86256 98.805 9.8023C98.7265 9.68992 98.6938 9.59529 98.7331 9.5598C98.7723 9.52432 99.0012 9.59529 99.1909 9.76681C99.3806 9.93833 99.4918 10.1217 99.4264 10.1808Z" fill="#5E6EFF"/>
<g opacity="0.3">
<path opacity="0.3" d="M98.8181 9.81412C98.9076 9.93811 99.0259 10.043 99.1647 10.1217C99.0945 10.1805 99.0289 10.2438 98.9685 10.3109C98.8636 10.1809 98.786 10.0346 98.7396 9.87919L98.8181 9.81412Z" fill="black"/>
</g>
<path d="M97.5949 8.30594C97.5949 8.37691 97.3398 8.38874 97.0847 8.30594C97.0029 8.28944 96.9238 8.2636 96.8492 8.22905C96.7184 8.1699 96.6334 8.10483 96.653 8.0516C96.6726 7.99837 96.9016 7.9688 97.1632 8.0516C97.4249 8.1344 97.6276 8.22905 97.5949 8.30594Z" fill="#5E6EFF"/>
<g opacity="0.3">
<path opacity="0.3" d="M96.8754 8.25272C97.0223 8.31314 97.1792 8.35112 97.3398 8.36509C97.3398 8.44198 97.294 8.5366 97.2744 8.62531C97.1124 8.55514 96.9643 8.46121 96.8362 8.34733L96.8754 8.25272Z" fill="black"/>
</g>
<path d="M94.5599 8.40646C94.5599 8.48335 94.3899 8.59573 94.1282 8.66079L93.8797 8.69628C93.7358 8.69628 93.6311 8.69628 93.6115 8.63713C93.5919 8.57799 93.7816 8.44787 94.0432 8.38281C94.3048 8.31775 94.5338 8.32957 94.5599 8.40646Z" fill="#5E6EFF"/>
<g opacity="0.3">
<path opacity="0.3" d="M93.8993 8.6963C94.0639 8.68799 94.2245 8.64763 94.3702 8.578C94.3702 8.65489 94.416 8.7436 94.4487 8.83232C94.273 8.84638 94.0958 8.83236 93.9255 8.79092L93.8993 8.6963Z" fill="black"/>
</g>
<g opacity="0.3">
<path opacity="0.3" d="M97.9155 14.2618C97.8304 14.5398 97.595 14.7291 97.3922 14.6817C97.1894 14.6344 97.0782 14.3624 97.1567 14.0903C97.2352 13.8182 97.4707 13.623 97.68 13.6704C97.8893 13.7177 97.994 13.9838 97.9155 14.2618Z" fill="black"/>
</g>
<path d="M98.0397 14.0903C97.9612 14.3683 97.7257 14.5576 97.5164 14.5043C97.3071 14.4511 97.2025 14.1909 97.2875 13.9129C97.3725 13.6349 97.6015 13.4457 97.8108 13.493C98.0201 13.5403 98.1182 13.8124 98.0397 14.0903Z" fill="#5E6EFF"/>
<g opacity="0.3">
<path opacity="0.3" d="M95.7766 13.0021C95.802 13.1023 95.794 13.207 95.7536 13.3031C95.7132 13.3992 95.6423 13.4823 95.5497 13.542C95.4572 13.6017 95.3471 13.6352 95.2335 13.6385C95.1199 13.6417 95.0078 13.6144 94.9113 13.5601C94.8148 13.5057 94.7382 13.4268 94.6913 13.3332C94.6443 13.2396 94.6291 13.1355 94.6475 13.034C94.6659 12.9326 94.7171 12.8383 94.7946 12.7632C94.8722 12.688 94.9726 12.6353 95.0832 12.6117C95.2323 12.5815 95.3886 12.6054 95.5183 12.6785C95.648 12.7515 95.7408 12.8677 95.7766 13.0021V13.0021Z" fill="black"/>
</g>
<path d="M95.6981 12.7181C95.7235 12.8183 95.7155 12.9231 95.6751 13.0192C95.6347 13.1152 95.5638 13.1984 95.4712 13.2581C95.3787 13.3177 95.2686 13.3513 95.155 13.3545C95.0414 13.3578 94.9293 13.3305 94.8328 13.2761C94.7363 13.2218 94.6597 13.1429 94.6128 13.0492C94.5658 12.9556 94.5506 12.8515 94.569 12.7501C94.5874 12.6487 94.6386 12.5544 94.7161 12.4793C94.7937 12.4041 94.8941 12.3514 95.0047 12.3278C95.0786 12.312 95.1552 12.3096 95.2301 12.3207C95.3051 12.3318 95.3768 12.3562 95.4412 12.3925C95.5057 12.4288 95.5616 12.4762 95.6056 12.5321C95.6497 12.588 95.6811 12.6512 95.6981 12.7181V12.7181Z" fill="#5E6EFF"/>
<g opacity="0.3">
<path opacity="0.3" d="M97.9677 15.4803C98.0005 15.5157 97.9677 15.6045 97.8631 15.7346C97.7092 15.9179 97.5237 16.0777 97.3136 16.2077C97.1714 16.2972 97.0228 16.3782 96.8689 16.4502C96.6851 16.5319 96.4949 16.6011 96.2998 16.6572C95.754 16.8088 95.178 16.8498 94.6127 16.7772C94.0475 16.7046 93.5068 16.5203 93.0293 16.2373C92.883 16.1494 92.7451 16.0505 92.6172 15.9416C92.4265 15.7916 92.2651 15.6137 92.1397 15.4152C92.0547 15.2732 92.0351 15.1786 92.0743 15.1549C92.1136 15.1313 92.4406 15.3087 92.9312 15.563C93.0555 15.6281 93.1928 15.6873 93.3367 15.7523C93.4806 15.8174 93.6442 15.8765 93.8208 15.9297C94.191 16.0438 94.5755 16.1153 94.9654 16.1427C95.3558 16.1584 95.7469 16.1306 96.1297 16.0599C96.3 16.027 96.4682 15.9855 96.6334 15.9357L97.0651 15.7937C97.5949 15.5926 97.8893 15.4093 97.9677 15.4803Z" fill="black"/>
</g>
<g opacity="0.3">
<path opacity="0.3" d="M91.708 13.9011C91.8008 13.8768 91.9004 13.886 91.9858 13.9269C92.0712 13.9677 92.1358 14.0369 92.1659 14.1199C92.1928 14.2062 92.1807 14.2986 92.1322 14.3768C92.0837 14.455 92.0029 14.5126 91.9075 14.5369C91.8121 14.5612 91.7099 14.5502 91.6234 14.5064C91.537 14.4626 91.4733 14.3895 91.4464 14.3032C91.4225 14.2185 91.4366 14.1288 91.4856 14.0534C91.5346 13.9781 91.6145 13.9233 91.708 13.9011V13.9011Z" fill="black"/>
</g>
<path d="M129.031 28.3679C129.284 27.691 129.384 26.975 129.325 26.2624C130.041 25.873 130.814 25.5763 131.621 25.3811L131.444 24.7601C130.63 24.866 129.804 24.8839 128.985 24.8133C128.776 24.286 128.479 23.7912 128.102 23.3465C128.318 22.8835 128.639 22.4665 129.044 22.1222L128.547 21.6668C128.157 22.0025 127.716 22.2872 127.239 22.5126C126.888 22.2425 126.504 22.0102 126.094 21.8206C126.077 21.0581 126.181 20.2973 126.401 19.5612L125.747 19.3897C125.44 20.075 125.042 20.7243 124.563 21.3237C123.98 21.216 123.383 21.1881 122.791 21.241C122.463 20.8299 122.226 20.3662 122.091 19.8747L121.437 20.0285C121.558 20.5013 121.609 20.9866 121.587 21.4716C121.089 21.6105 120.614 21.8094 120.174 22.0631C119.441 21.6931 118.765 21.2356 118.166 20.7027L117.656 21.1522C118.161 21.7236 118.585 22.3494 118.919 23.0153C118.474 23.4659 118.113 23.9794 117.852 24.5353C117.339 24.5751 116.823 24.529 116.328 24.3993L116.139 25.0203C116.616 25.1453 117.074 25.3262 117.499 25.5585C117.393 26.0352 117.356 26.5223 117.388 27.0076C116.696 27.3441 115.966 27.6119 115.21 27.806L115.386 28.433C116.146 28.3267 116.917 28.3068 117.682 28.3738C117.891 28.9457 118.205 29.4816 118.611 29.9589C118.39 30.3778 118.086 30.7566 117.715 31.0768L118.219 31.5381C118.58 31.2282 118.982 30.9599 119.416 30.7396C120.062 31.2509 120.819 31.6338 121.64 31.8634C121.825 32.5785 121.915 33.3113 121.908 34.0458H122.621C122.715 33.3691 122.902 32.7055 123.177 32.0704C123.715 32.0895 124.254 32.0438 124.779 31.9344C125.044 31.8747 125.304 31.7996 125.558 31.7096C125.892 32.0593 126.156 32.4598 126.336 32.8925L126.99 32.6441C126.8 32.1976 126.677 31.7302 126.624 31.2542C127.336 30.8407 127.944 30.2967 128.409 29.6573C129.181 29.8135 129.931 30.0455 130.646 30.3493L130.967 29.7578C130.259 29.3707 129.608 28.9036 129.031 28.3679V28.3679Z" fill="#5E6EFF"/>
<g opacity="0.2">
<path opacity="0.2" d="M127.683 26.9484C127.435 26.8893 127.369 26.4339 127.147 25.8483C127.122 25.7696 127.092 25.6925 127.055 25.6176C127.055 25.5408 126.984 25.4639 126.951 25.3811C126.871 25.2122 126.779 25.0483 126.676 24.8902C126.45 24.5461 126.168 24.235 125.839 23.9675C125.496 23.7182 125.112 23.5186 124.701 23.376C124.513 23.3083 124.321 23.251 124.125 23.2045L123.85 23.1454L123.589 23.0981C122.935 22.9857 122.405 22.9975 122.281 22.7846C122.255 22.7256 122.255 22.6602 122.281 22.6012C122.329 22.5138 122.398 22.4371 122.483 22.3765C122.769 22.1628 123.108 22.0165 123.471 21.9506C123.582 21.9211 123.7 21.9093 123.831 21.8856H124.23C124.526 21.8782 124.823 21.902 125.113 21.9566C125.438 22.0171 125.754 22.1124 126.055 22.2405C126.386 22.3811 126.694 22.5622 126.97 22.7787C127.245 22.9937 127.487 23.2403 127.69 23.5121C127.88 23.7616 128.033 24.0319 128.148 24.3164C128.249 24.5689 128.319 24.8308 128.357 25.0972C128.377 25.2166 128.388 25.3371 128.39 25.458C128.396 25.5683 128.396 25.6788 128.39 25.7892C128.368 26.1232 128.258 26.4477 128.069 26.7355C128.017 26.8207 127.943 26.8936 127.853 26.9484C127.799 26.9665 127.738 26.9665 127.683 26.9484Z" fill="white"/>
</g>
<path d="M118.193 20.3538C118.284 20.4366 118.134 20.7086 117.852 20.9452C117.766 21.0251 117.671 21.0983 117.571 21.1641C117.388 21.2705 117.238 21.3178 117.179 21.2587C117.12 21.1995 117.238 20.9038 117.519 20.6672C117.8 20.4307 118.101 20.271 118.193 20.3538Z" fill="#5E6EFF"/>
<g opacity="0.3">
<path opacity="0.3" d="M117.597 21.1641C117.788 21.0342 117.956 20.8786 118.094 20.7027L118.415 20.9689C118.198 21.1051 117.957 21.2071 117.702 21.2705L117.597 21.1641Z" fill="black"/>
</g>
<path d="M116.145 24.0503C116.269 24.0503 116.296 24.3875 116.191 24.7364C116.164 24.845 116.122 24.9503 116.067 25.0499C115.975 25.2273 115.87 25.3338 115.785 25.316C115.7 25.2983 115.641 24.9789 115.74 24.63C115.838 24.281 116.021 24.0208 116.145 24.0503Z" fill="#5E6EFF"/>
<g opacity="0.3">
<path opacity="0.3" d="M116.086 25.0262C116.195 24.8317 116.253 24.6173 116.256 24.3993L116.675 24.488C116.566 24.7069 116.415 24.9071 116.23 25.0795L116.086 25.0262Z" fill="black"/>
</g>
<path d="M114.857 27.5517C114.981 27.5221 115.164 27.7765 115.269 28.1432C115.298 28.2522 115.32 28.3628 115.334 28.4744C115.334 28.6696 115.334 28.8115 115.229 28.8292C115.125 28.847 114.915 28.6045 114.817 28.2378C114.719 27.8711 114.726 27.5813 114.857 27.5517Z" fill="#5E6EFF"/>
<g opacity="0.3">
<path opacity="0.3" d="M115.328 28.427C115.3 28.2125 115.236 28.003 115.138 27.806L115.55 27.6877C115.573 27.9259 115.551 28.166 115.485 28.3975L115.328 28.427Z" fill="black"/>
</g>
<path d="M117.257 30.988C117.349 30.9052 117.65 31.0413 117.911 31.2956C118.001 31.3728 118.082 31.458 118.153 31.5499C118.271 31.7096 118.323 31.8456 118.258 31.9048C118.192 31.9639 117.865 31.8456 117.604 31.5972C117.342 31.3488 117.166 31.0531 117.257 30.988Z" fill="#5E6EFF"/>
<g opacity="0.3">
<path opacity="0.3" d="M118.16 31.5263C118.027 31.3433 117.85 31.1897 117.643 31.0768C117.748 30.9878 117.846 30.893 117.937 30.7929C118.09 30.9861 118.203 31.2025 118.271 31.4317L118.16 31.5263Z" fill="black"/>
</g>
<path d="M121.483 34.2233C121.483 34.105 121.816 34.0163 122.209 34.0222C122.334 34.0269 122.458 34.0388 122.581 34.0577C122.791 34.0991 122.928 34.1701 122.928 34.2469C122.928 34.3238 122.601 34.4539 122.202 34.448C121.803 34.4421 121.483 34.3416 121.483 34.2233Z" fill="#5E6EFF"/>
<g opacity="0.3">
<path opacity="0.3" d="M122.549 34.0518C122.312 34.0209 122.072 34.0209 121.836 34.0518C121.836 33.9335 121.836 33.7974 121.836 33.6614C122.096 33.7095 122.345 33.7954 122.575 33.9157L122.549 34.0518Z" fill="black"/>
</g>
<path d="M126.029 33.1764C125.976 33.0699 126.231 32.8629 126.598 32.721C126.711 32.6766 126.83 32.6429 126.951 32.6204C127.16 32.579 127.324 32.6204 127.356 32.6618C127.389 32.7032 127.154 32.9694 126.787 33.1113C126.421 33.2533 126.081 33.2828 126.029 33.1764Z" fill="#5E6EFF"/>
<g opacity="0.3">
<path opacity="0.3" d="M126.925 32.6263C126.688 32.6671 126.464 32.7561 126.271 32.8866C126.22 32.765 126.161 32.6464 126.094 32.5317C126.349 32.4774 126.612 32.4634 126.872 32.4903L126.925 32.6263Z" fill="black"/>
</g>
<path d="M130.607 30.7041C130.496 30.6509 130.542 30.3493 130.712 30.024C130.765 29.921 130.831 29.8237 130.908 29.7341C131.032 29.5804 131.163 29.4976 131.242 29.5271C131.32 29.5567 131.307 29.882 131.137 30.2073C130.967 30.5326 130.725 30.7574 130.607 30.7041Z" fill="#5E6EFF"/>
<g opacity="0.3">
<path opacity="0.3" d="M130.888 29.7578C130.754 29.9399 130.65 30.1393 130.581 30.3493L130.182 30.1896C130.339 29.9973 130.531 29.8311 130.751 29.6987L130.888 29.7578Z" fill="black"/>
</g>
<g opacity="0.3">
<path opacity="0.3" d="M121.012 27.9539C121.116 28.362 120.953 28.7523 120.652 28.8174C120.351 28.8825 119.998 28.5986 119.906 28.1905C119.815 27.7824 119.959 27.392 120.259 27.3269C120.56 27.2619 120.9 27.5458 121.012 27.9539Z" fill="black"/>
</g>
<path d="M120.691 27.5753C120.796 27.9894 120.639 28.3738 120.331 28.4389C120.024 28.5039 119.677 28.2259 119.586 27.8119C119.494 27.3979 119.638 27.0194 119.945 26.9543C120.253 26.8893 120.586 27.1672 120.691 27.5753Z" fill="#5E6EFF"/>
<g opacity="0.3">
<path opacity="0.3" d="M119.671 23.7309C120.024 23.453 120.475 23.4056 120.678 23.6186C120.881 23.8315 120.77 24.21 120.416 24.5057C120.063 24.8015 119.618 24.837 119.409 24.624C119.2 24.4111 119.318 24.0089 119.671 23.7309Z" fill="black"/>
</g>
<path d="M119.324 23.3938C119.677 23.1158 120.129 23.0626 120.338 23.2755C120.547 23.4884 120.423 23.867 120.076 24.1686C119.73 24.4702 119.272 24.4998 119.062 24.281C118.853 24.0621 118.977 23.6718 119.324 23.3938Z" fill="#5E6EFF"/>
<g opacity="0.3">
<path opacity="0.3" d="M123.216 29.8702C123.242 29.9675 123.236 30.0696 123.198 30.1636C123.159 30.2576 123.091 30.339 123.001 30.3976C122.911 30.4561 122.804 30.489 122.693 30.4921C122.582 30.4952 122.473 30.4684 122.38 30.415C122.286 30.3616 122.212 30.2841 122.167 30.1925C122.123 30.1009 122.109 29.9993 122.129 29.9007C122.148 29.8021 122.2 29.7111 122.277 29.6393C122.354 29.5675 122.453 29.5181 122.562 29.4976C122.703 29.4693 122.851 29.4925 122.974 29.5623C123.096 29.632 123.183 29.7427 123.216 29.8702Z" fill="black"/>
</g>
<path d="M123.151 29.5804C123.18 29.7081 123.154 29.8411 123.077 29.9515C123 30.0618 122.879 30.1409 122.738 30.1718C122.594 30.2024 122.443 30.18 122.317 30.1096C122.191 30.0392 122.102 29.9265 122.068 29.7963C122.034 29.6661 122.059 29.5291 122.137 29.4154C122.215 29.3017 122.339 29.2206 122.483 29.19C122.629 29.162 122.781 29.1873 122.906 29.2605C123.031 29.3337 123.119 29.4487 123.151 29.5804V29.5804Z" fill="#5E6EFF"/>
<g opacity="0.3">
<path opacity="0.3" d="M123.151 29.5804C123.18 29.7081 123.154 29.8411 123.077 29.9515C123 30.0618 122.879 30.1409 122.738 30.1718C122.594 30.2024 122.443 30.18 122.317 30.1096C122.191 30.0392 122.102 29.9265 122.068 29.7963C122.034 29.6661 122.059 29.5291 122.137 29.4154C122.215 29.3017 122.339 29.2206 122.483 29.19C122.629 29.162 122.781 29.1873 122.906 29.2605C123.031 29.3337 123.119 29.4487 123.151 29.5804V29.5804Z" fill="white"/>
</g>
<g opacity="0.3">
<path opacity="0.3" d="M125.675 24.7245C125.635 24.7978 125.577 24.8626 125.507 24.9148C125.437 24.967 125.356 25.0055 125.269 25.0277C125.181 25.05 125.09 25.0556 125 25.0441C124.91 25.0326 124.824 25.0044 124.747 24.9611C124.668 24.9223 124.599 24.8699 124.544 24.807C124.488 24.7441 124.446 24.6718 124.421 24.5944C124.397 24.517 124.389 24.4358 124.398 24.3557C124.408 24.2755 124.435 24.1979 124.478 24.1272C124.521 24.0565 124.579 23.9942 124.649 23.9437C124.718 23.8933 124.798 23.8557 124.884 23.8332C124.97 23.8107 125.059 23.8037 125.148 23.8125C125.237 23.8213 125.322 23.8459 125.401 23.8847C125.483 23.9205 125.556 23.9715 125.615 24.0344C125.674 24.0972 125.718 24.1705 125.744 24.2496C125.769 24.3287 125.777 24.4118 125.765 24.4936C125.753 24.5754 125.723 24.6541 125.675 24.7245Z" fill="black"/>
</g>
<path d="M125.852 24.4348C125.811 24.5081 125.754 24.5729 125.684 24.6251C125.614 24.6773 125.533 24.7157 125.445 24.738C125.358 24.7602 125.266 24.7658 125.176 24.7543C125.087 24.7428 125 24.7146 124.923 24.6713C124.765 24.5929 124.648 24.461 124.598 24.3046C124.548 24.1482 124.568 23.9801 124.655 23.8374C124.742 23.6946 124.888 23.5889 125.061 23.5434C125.234 23.498 125.419 23.5165 125.577 23.5949C125.659 23.6308 125.732 23.6817 125.791 23.7446C125.851 23.8074 125.894 23.8807 125.92 23.9598C125.946 24.0389 125.953 24.122 125.942 24.2038C125.93 24.2856 125.899 24.3643 125.852 24.4348Z" fill="#5E6EFF"/>
<g opacity="0.3">
<path opacity="0.3" d="M126.101 29.7341C126.121 29.806 126.117 29.8816 126.089 29.9513C126.061 30.0211 126.011 30.0818 125.945 30.1257C125.879 30.1696 125.8 30.1947 125.718 30.1978C125.636 30.2009 125.555 30.1819 125.486 30.1431C125.416 30.1044 125.36 30.0477 125.326 29.9803C125.292 29.9129 125.281 29.8379 125.294 29.7648C125.308 29.6917 125.345 29.6238 125.401 29.5699C125.457 29.516 125.53 29.4785 125.61 29.4621C125.662 29.4507 125.716 29.4486 125.769 29.4561C125.822 29.4636 125.872 29.4805 125.918 29.5058C125.963 29.5311 126.003 29.5643 126.034 29.6035C126.066 29.6427 126.088 29.6871 126.101 29.7341V29.7341Z" fill="black"/>
</g>
<path d="M126.048 29.5449C126.072 29.6398 126.054 29.7395 125.997 29.8221C125.94 29.9048 125.849 29.9635 125.744 29.9855C125.639 30.0075 125.529 29.9908 125.437 29.9392C125.346 29.8877 125.281 29.8054 125.257 29.7105C125.245 29.6635 125.243 29.6148 125.252 29.5672C125.261 29.5197 125.28 29.4741 125.308 29.4332C125.336 29.3923 125.373 29.3568 125.416 29.3288C125.46 29.3007 125.509 29.2807 125.561 29.2698C125.613 29.259 125.667 29.2574 125.719 29.2654C125.772 29.2733 125.822 29.2905 125.868 29.3161C125.913 29.3416 125.952 29.375 125.983 29.4142C126.014 29.4535 126.036 29.4979 126.048 29.5449V29.5449Z" fill="#5E6EFF"/>
<path d="M131.896 25.6295C131.772 25.6591 131.588 25.4047 131.49 25.038C131.458 24.9315 131.436 24.8227 131.425 24.7128C131.425 24.5176 131.425 24.3815 131.53 24.3638C131.634 24.3461 131.837 24.5885 131.935 24.9552C132.033 25.3219 132.02 25.5999 131.896 25.6295Z" fill="#5E6EFF"/>
<g opacity="0.3">
<path opacity="0.3" d="M131.431 24.766C131.459 24.9711 131.523 25.1709 131.621 25.3574C131.49 25.3574 131.353 25.4284 131.209 25.4698C131.189 25.2335 131.211 24.9959 131.274 24.766H131.431Z" fill="black"/>
</g>
<path d="M129.423 22.2109C129.338 22.2937 129.037 22.1577 128.769 21.9034C128.681 21.8283 128.602 21.7451 128.534 21.6549C128.41 21.4953 128.364 21.3592 128.423 21.306C128.481 21.2528 128.815 21.3592 129.077 21.6076C129.338 21.856 129.515 22.1281 129.423 22.2109Z" fill="#5E6EFF"/>
<g opacity="0.3">
<path opacity="0.3" d="M128.534 21.6786C128.666 21.858 128.84 22.0093 129.044 22.1222C128.946 22.205 128.848 22.2996 128.75 22.4002C128.601 22.2101 128.49 21.9979 128.423 21.7733L128.534 21.6786Z" fill="black"/>
</g>
<path d="M126.761 19.4725C126.728 19.5849 126.395 19.5967 126.015 19.508C125.897 19.476 125.781 19.4365 125.669 19.3897C125.479 19.3069 125.368 19.2063 125.388 19.1354C125.407 19.0644 125.754 19.0053 126.133 19.0999C126.513 19.1945 126.794 19.3601 126.761 19.4725Z" fill="#5E6EFF"/>
<g opacity="0.3">
<path opacity="0.3" d="M125.721 19.4015C125.928 19.4864 126.149 19.5404 126.375 19.5612C126.375 19.6795 126.31 19.8096 126.277 19.9457C126.036 19.8432 125.815 19.7053 125.623 19.5376L125.721 19.4015Z" fill="black"/>
</g>
<path d="M122.326 19.6204C122.359 19.7328 122.078 19.8984 121.672 19.993C121.554 20.0204 121.434 20.0382 121.313 20.0462C121.097 20.0462 120.946 20.0462 120.92 19.9575C120.894 19.8688 121.169 19.6795 121.574 19.5849C121.98 19.4903 122.294 19.508 122.326 19.6204Z" fill="#5E6EFF"/>
<g opacity="0.3">
<path opacity="0.3" d="M121.365 20.0462C121.594 20.034 121.818 19.9754 122.019 19.8747C122.052 19.9871 122.091 20.1113 122.143 20.2414C121.886 20.2624 121.627 20.2424 121.378 20.1822L121.365 20.0462Z" fill="black"/>
</g>
<g opacity="0.3">
<path opacity="0.3" d="M127.219 28.1609C127.101 28.569 126.755 28.841 126.454 28.7523C126.153 28.6636 126.002 28.291 126.114 27.8829C126.225 27.4748 126.578 27.2027 126.879 27.2915C127.18 27.3802 127.337 27.7528 127.219 28.1609Z" fill="black"/>
</g>
<path d="M127.402 27.9066C127.284 28.3147 126.944 28.5867 126.637 28.498C126.329 28.4093 126.186 28.0367 126.303 27.6286C126.421 27.2205 126.761 26.9484 127.062 27.0371C127.363 27.1258 127.52 27.5044 127.402 27.9066Z" fill="#5E6EFF"/>
<g opacity="0.3">
<path opacity="0.3" d="M124.106 26.3215C124.14 26.4698 124.125 26.624 124.063 26.7648C124.001 26.9055 123.894 27.0265 123.756 27.1126C123.618 27.1987 123.455 27.246 123.288 27.2486C123.12 27.2512 122.956 27.2089 122.815 27.1271C122.673 27.0454 122.562 26.9277 122.495 26.7889C122.427 26.6501 122.407 26.4965 122.436 26.3472C122.465 26.1979 122.542 26.0597 122.657 25.9499C122.773 25.8401 122.922 25.7636 123.085 25.73C123.195 25.7074 123.309 25.7049 123.42 25.7225C123.531 25.7401 123.637 25.7775 123.732 25.8325C123.827 25.8876 123.909 25.9591 123.973 26.0431C124.037 26.127 124.082 26.2217 124.106 26.3215V26.3215Z" fill="black"/>
</g>
<path d="M123.988 25.8897C124.014 25.9872 124.018 26.0883 124 26.1873C123.983 26.2863 123.944 26.3812 123.886 26.4666C123.828 26.552 123.752 26.6262 123.662 26.685C123.573 26.7439 123.471 26.7861 123.363 26.8094C123.255 26.8327 123.144 26.8366 123.034 26.8208C122.925 26.8051 122.82 26.7699 122.725 26.7175C122.631 26.6651 122.549 26.5963 122.484 26.5151C122.419 26.434 122.372 26.3421 122.346 26.2446C122.294 26.0477 122.331 25.8402 122.448 25.6678C122.565 25.4953 122.753 25.372 122.971 25.3249C123.188 25.2778 123.418 25.3109 123.609 25.4168C123.799 25.5228 123.936 25.6929 123.988 25.8897V25.8897Z" fill="#5E6EFF"/>
<g opacity="0.3">
<path opacity="0.3" d="M127.291 29.9352C127.343 29.9826 127.291 30.1127 127.141 30.3079C126.928 30.5725 126.67 30.8043 126.375 30.9939C126.169 31.1294 125.95 31.2482 125.721 31.3488C125.458 31.4691 125.185 31.57 124.904 31.6505C124.248 31.8341 123.561 31.9102 122.876 31.8752C122.197 31.8347 121.532 31.6824 120.914 31.4257C120.643 31.3169 120.383 31.1883 120.135 31.0413C119.922 30.9124 119.721 30.768 119.533 30.6095C119.243 30.4 118.992 30.1505 118.788 29.8702C118.663 29.6573 118.637 29.5212 118.69 29.4798C118.742 29.4384 119.233 29.7046 119.945 30.0713C120.122 30.1659 120.325 30.2546 120.541 30.3493C120.769 30.4473 121.002 30.5341 121.241 30.6095C121.78 30.7749 122.34 30.8782 122.909 30.9171C123.479 30.9437 124.051 30.9019 124.609 30.7929C124.857 30.7457 125.101 30.6865 125.342 30.6154C125.571 30.5504 125.78 30.4794 125.996 30.4084C126.728 30.1009 127.18 29.8288 127.291 29.9352Z" fill="black"/>
</g>
<g opacity="0.3">
<path opacity="0.3" d="M118.127 27.599C118.225 27.5787 118.328 27.5848 118.422 27.6165C118.516 27.6482 118.598 27.7041 118.658 27.7774C118.718 27.8507 118.753 27.9381 118.758 28.029C118.764 28.1199 118.74 28.2102 118.689 28.289C118.639 28.3677 118.564 28.4313 118.474 28.4722C118.384 28.513 118.283 28.5291 118.183 28.5187C118.083 28.5082 117.988 28.4716 117.911 28.4133C117.834 28.355 117.777 28.2775 117.748 28.1905C117.729 28.1291 117.724 28.065 117.733 28.0018C117.742 27.9387 117.765 27.8778 117.8 27.8227C117.835 27.7677 117.883 27.7195 117.939 27.6811C117.995 27.6427 118.059 27.6148 118.127 27.599V27.599Z" fill="black"/>
</g>
<path d="M107.544 47.9804C107.956 46.8612 108.118 45.679 108.021 44.5027C108.806 43.8402 111.808 43.0477 111.808 43.0477L111.521 42.0245C110.178 42.2003 108.816 42.2321 107.465 42.1191C107.121 41.249 106.629 40.4328 106.007 39.7001C106.363 38.9345 106.893 38.2453 107.563 37.6773L106.752 36.9262C106.096 37.4814 105.359 37.9529 104.561 38.3279C103.983 37.8783 103.348 37.4913 102.671 37.1746C102.416 36.2519 103.181 33.4603 103.181 33.4603L102.062 33.1705C101.549 34.3008 100.89 35.3727 100.1 36.3643C99.1387 36.1855 98.1529 36.1396 97.1763 36.2283C96.6354 35.5491 96.2445 34.782 96.0251 33.9689L94.9 34.2292C95.1045 35.0034 95.186 35.8 95.142 36.595C94.3219 36.8267 93.539 37.1548 92.8134 37.5709C91.7603 37.2633 89.5037 35.3293 89.5037 35.3293L88.6665 36.0745C89.4957 37.0183 90.1963 38.0489 90.753 39.1441C90.0166 39.8859 89.422 40.7334 88.9935 41.6519C88.1456 41.7134 87.2923 41.6352 86.4752 41.4212L86.1678 42.4503C86.9537 42.6602 87.7074 42.9582 88.4114 43.3375C88.2318 44.1249 88.1702 44.9306 88.2282 45.7329C87.0847 46.2846 85.8785 46.7228 84.6307 47.04L84.9185 48.075C86.1718 47.9034 87.4434 47.8696 88.7057 47.9745C89.055 48.9184 89.5744 49.8037 90.2428 50.5946C89.8745 51.2821 89.374 51.9049 88.7646 52.434L89.5953 53.191C90.185 52.6814 90.8445 52.2421 91.5576 51.8839C92.6201 52.7269 93.8687 53.3559 95.2205 53.7293C95.6522 54.7347 95.6588 57.3371 95.6588 57.3371L96.8427 57.3726C96.9977 56.2562 97.3053 55.1616 97.7584 54.1137C98.6378 54.1452 99.5178 54.0696 100.375 53.889C100.82 53.7933 101.257 53.6688 101.683 53.5164C102.238 54.0779 102.68 54.7223 102.991 55.4208L104.077 55.0127C103.76 54.2743 103.555 53.5003 103.469 52.712C104.644 52.0324 105.649 51.1378 106.419 50.0859C107.689 50.3438 108.923 50.7265 110.101 51.2274L110.631 50.2752C109.504 49.6247 108.468 48.8543 107.544 47.9804V47.9804Z" fill="#5E6EFF"/>
<g opacity="0.2">
<path opacity="0.2" d="M105.366 45.6383C104.954 45.5377 104.842 44.7866 104.476 43.8166C104.437 43.6983 104.378 43.5741 104.332 43.444C104.286 43.3139 104.214 43.1838 104.156 43.0536C104.02 42.776 103.867 42.5055 103.698 42.2434C103.329 41.6743 102.863 41.1614 102.318 40.7233C101.758 40.2996 101.126 39.9601 100.447 39.7179C100.137 39.6064 99.8204 39.5116 99.4983 39.434L99.0405 39.3334C98.8966 39.3334 98.7461 39.2743 98.6088 39.2565C97.4968 39.0732 96.6465 39.0909 96.4895 38.736C96.466 38.6896 96.4538 38.6392 96.4538 38.5882C96.4538 38.5371 96.466 38.4867 96.4895 38.4403C96.5743 38.2968 96.6873 38.1686 96.8231 38.0618C97.2988 37.7181 97.8564 37.4791 98.4518 37.3639C98.6478 37.3197 98.8466 37.2861 99.047 37.2633C99.2563 37.2338 99.4722 37.2279 99.7011 37.216C100.191 37.2096 100.68 37.2513 101.16 37.3402C101.699 37.4349 102.222 37.592 102.717 37.8075C103.826 38.2704 104.77 39.0036 105.444 39.9249C105.751 40.3352 106.002 40.7782 106.19 41.2438C106.358 41.6609 106.477 42.0932 106.543 42.5332C106.543 42.7343 106.589 42.9353 106.589 43.1246C106.602 43.3058 106.602 43.4876 106.589 43.6687C106.554 44.2194 106.374 44.7546 106.065 45.2302C105.974 45.3695 105.851 45.4903 105.706 45.585C105.657 45.616 105.601 45.6368 105.542 45.646C105.483 45.6552 105.423 45.6526 105.366 45.6383V45.6383Z" fill="white"/>
</g>
<path d="M89.6738 34.7615C89.8242 34.8975 89.5691 35.3529 89.1113 35.7669C88.9679 35.901 88.8101 36.0218 88.6403 36.1277C88.346 36.3052 88.0974 36.3761 87.9862 36.2874C87.875 36.1987 88.0909 35.696 88.5553 35.276C89.0197 34.8561 89.5233 34.6018 89.6738 34.7615Z" fill="#5E6EFF"/>
<g opacity="0.3">
<path opacity="0.3" d="M88.6862 36.0981C89.0019 35.8848 89.2779 35.6272 89.5038 35.3352L90.0336 35.7729C89.6748 35.9985 89.2769 36.1684 88.8562 36.2756L88.6862 36.0981Z" fill="black"/>
</g>
<path d="M86.2921 40.8593C86.5014 40.9066 86.5341 41.4094 86.3706 41.989C86.3231 42.1684 86.2552 42.3428 86.1679 42.5095C86.0174 42.7993 85.8408 42.9767 85.7035 42.9412C85.5661 42.9057 85.4614 42.3912 85.625 41.8116C85.7885 41.2319 86.0894 40.812 86.2921 40.8593Z" fill="#5E6EFF"/>
<g opacity="0.3">
<path opacity="0.3" d="M86.194 42.4681C86.3746 42.1451 86.4708 41.789 86.4753 41.4271C86.7009 41.4881 86.9303 41.5375 87.1621 41.575C86.9836 41.9301 86.7379 42.2544 86.436 42.5331L86.194 42.4681Z" fill="black"/>
</g>
<path d="M84.1663 46.6259C84.3691 46.5786 84.6765 47.0045 84.8204 47.5782C84.8747 47.7561 84.9098 47.9383 84.9251 48.1223C84.9251 48.4417 84.9251 48.6724 84.755 48.7138C84.5849 48.7552 84.2448 48.3411 84.1009 47.7615C83.957 47.1819 83.957 46.6792 84.1663 46.6259Z" fill="#5E6EFF"/>
<g opacity="0.3">
<path opacity="0.3" d="M84.9447 48.075C84.9006 47.7191 84.7946 47.3718 84.6307 47.0459L85.2848 46.8566C85.322 47.2541 85.2822 47.6544 85.167 48.0395L84.9447 48.075Z" fill="black"/>
</g>
<path d="M88.1301 52.292C88.2806 52.156 88.7843 52.3807 89.2487 52.8007C89.3948 52.9284 89.5262 53.0691 89.6411 53.2206C89.8439 53.4868 89.9224 53.7115 89.8243 53.8121C89.7261 53.9126 89.1702 53.7233 88.7058 53.3034C88.2413 52.8835 87.9797 52.4281 88.1301 52.292Z" fill="#5E6EFF"/>
<g opacity="0.3">
<path opacity="0.3" d="M89.6149 53.1792C89.3958 52.8787 89.1053 52.6261 88.7646 52.4399C88.9216 52.3039 89.0851 52.1442 89.2552 51.9727C89.5024 52.2924 89.6861 52.6487 89.7981 53.0255L89.6149 53.1792Z" fill="black"/>
</g>
<path d="M95.0963 57.6269C95.0963 57.4377 95.6392 57.2898 96.2999 57.3016C96.5022 57.3015 96.704 57.3213 96.9016 57.3608C97.2483 57.4258 97.4838 57.5441 97.4772 57.6683C97.4707 57.7925 96.9409 58.0114 96.2802 57.9995C95.6196 57.9877 95.0963 57.8221 95.0963 57.6269Z" fill="#5E6EFF"/>
<g opacity="0.3">
<path opacity="0.3" d="M96.8558 57.3489C96.4637 57.2916 96.064 57.2916 95.6719 57.3489C95.6719 57.1478 95.6719 56.9231 95.6719 56.6983C96.1009 56.7779 96.5121 56.9218 96.8885 57.1242L96.8558 57.3489Z" fill="black"/>
</g>
<path d="M102.592 55.894C102.507 55.7165 102.926 55.3853 103.534 55.1487C103.72 55.0765 103.913 55.0191 104.11 54.9772C104.456 54.9122 104.725 54.9299 104.764 55.0482C104.803 55.1665 104.43 55.5568 103.822 55.7934C103.214 56.03 102.677 56.0773 102.592 55.894Z" fill="#5E6EFF"/>
<g opacity="0.3">
<path opacity="0.3" d="M104.064 54.995C103.672 55.0606 103.302 55.2085 102.985 55.4267C102.902 55.2375 102.804 55.0403 102.69 54.8353C103.119 54.745 103.562 54.723 103.999 54.7702L104.064 54.995Z" fill="black"/>
</g>
<path d="M110.141 51.8248C109.951 51.742 110.029 51.2333 110.317 50.707C110.404 50.54 110.509 50.3814 110.631 50.2338C110.84 49.9735 111.056 49.8375 111.181 49.8908C111.305 49.944 111.298 50.4822 111.01 51.0086C110.723 51.535 110.337 51.9135 110.141 51.8248Z" fill="#5E6EFF"/>
<g opacity="0.3">
<path opacity="0.3" d="M110.598 50.2693C110.377 50.5653 110.207 50.8905 110.095 51.2334L109.441 50.9731C109.702 50.655 110.02 50.379 110.383 50.1569L110.598 50.2693Z" fill="black"/>
</g>
<g opacity="0.3">
<path opacity="0.3" d="M94.3245 47.2943C94.5011 47.9686 94.2395 48.6073 93.7358 48.7138C93.2321 48.8202 92.6827 48.3589 92.5061 47.6847C92.3295 47.0104 92.5911 46.3716 93.0948 46.2652C93.5984 46.1587 94.1348 46.62 94.3245 47.2943Z" fill="black"/>
</g>
<path d="M93.7881 46.6733C93.9647 47.3475 93.7031 47.9863 93.1994 48.0927C92.6958 48.1992 92.1463 47.7379 91.9697 47.0636C91.7931 46.3894 92.0548 45.7506 92.5584 45.6442C93.0621 45.5377 93.6115 45.999 93.7881 46.6733Z" fill="#5E6EFF"/>
<g opacity="0.3">
<path opacity="0.3" d="M92.107 40.3329C92.6826 39.8775 93.4152 39.7888 93.7684 40.1437C94.1217 40.4985 93.9189 41.1491 93.3433 41.6045C92.7677 42.06 92.0351 42.1487 91.6753 41.7997C91.3156 41.4508 91.5314 40.7883 92.107 40.3329Z" fill="black"/>
</g>
<path d="M91.538 39.777C92.1202 39.3157 92.8462 39.2329 93.2059 39.5818C93.5657 39.9308 93.3499 40.5932 92.7743 41.0486C92.1986 41.504 91.4661 41.5927 91.1063 41.2438C90.7465 40.8948 90.9624 40.2324 91.538 39.777Z" fill="#5E6EFF"/>
<g opacity="0.3">
<path opacity="0.3" d="M97.9547 50.4053C97.9953 50.5649 97.9827 50.7318 97.9184 50.8848C97.8542 51.0379 97.7412 51.1703 97.5938 51.2653C97.4463 51.3604 97.271 51.4137 97.09 51.4187C96.909 51.4236 96.7305 51.38 96.5769 51.2932C96.4234 51.2064 96.3017 51.0804 96.2274 50.9312C96.153 50.7819 96.1292 50.616 96.1591 50.4545C96.1889 50.2931 96.271 50.1432 96.395 50.0239C96.5191 49.9046 96.6794 49.8212 96.8558 49.7843C96.9731 49.7598 97.0945 49.7564 97.2132 49.7743C97.3319 49.7923 97.4456 49.8312 97.5476 49.8888C97.6497 49.9465 97.7382 50.0218 97.808 50.1105C97.8779 50.1991 97.9277 50.2993 97.9547 50.4053V50.4053Z" fill="black"/>
</g>
<path d="M97.8435 49.9795C97.871 50.0855 97.8751 50.1954 97.8556 50.3028C97.8361 50.4103 97.7934 50.5132 97.73 50.6058C97.6665 50.6983 97.5835 50.7787 97.4857 50.8422C97.3879 50.9057 97.2772 50.9512 97.1599 50.9761C97.0427 51.0009 96.9212 51.0046 96.8023 50.987C96.6835 50.9694 96.5696 50.9308 96.4673 50.8734C96.365 50.816 96.2761 50.741 96.2058 50.6525C96.1356 50.5641 96.0853 50.464 96.0578 50.358C96.0023 50.1439 96.0431 49.9186 96.1713 49.7317C96.2995 49.5448 96.5045 49.4116 96.7413 49.3614C96.9781 49.3112 97.2273 49.3481 97.434 49.464C97.6406 49.58 97.788 49.7654 97.8435 49.9795V49.9795Z" fill="#5E6EFF"/>
<g opacity="0.3">
<path opacity="0.3" d="M97.8435 49.9795C97.871 50.0855 97.8751 50.1954 97.8556 50.3028C97.8361 50.4103 97.7934 50.5132 97.73 50.6058C97.6665 50.6983 97.5835 50.7787 97.4857 50.8422C97.3879 50.9057 97.2772 50.9512 97.1599 50.9761C97.0427 51.0009 96.9212 51.0046 96.8023 50.987C96.6835 50.9694 96.5696 50.9308 96.4673 50.8734C96.365 50.816 96.2761 50.741 96.2058 50.6525C96.1356 50.5641 96.0853 50.464 96.0578 50.358C96.0023 50.1439 96.0431 49.9186 96.1713 49.7317C96.2995 49.5448 96.5045 49.4116 96.7413 49.3614C96.9781 49.3112 97.2273 49.3481 97.434 49.464C97.6406 49.58 97.788 49.7654 97.8435 49.9795V49.9795Z" fill="white"/>
</g>
<g opacity="0.3">
<path opacity="0.3" d="M102.004 41.9712C101.893 42.1459 101.729 42.2871 101.53 42.3771C101.331 42.4672 101.107 42.502 100.887 42.4771C100.666 42.4522 100.459 42.3688 100.291 42.2374C100.122 42.106 100.001 41.9325 99.9417 41.7388C99.8825 41.5451 99.888 41.3398 99.9576 41.1489C100.027 40.9581 100.158 40.7901 100.333 40.6663C100.508 40.5425 100.72 40.4683 100.941 40.4532C101.163 40.4381 101.385 40.4827 101.578 40.5813C101.707 40.6471 101.821 40.7353 101.912 40.8409C102.004 40.9464 102.071 41.0673 102.11 41.1964C102.15 41.3256 102.161 41.4605 102.142 41.5935C102.124 41.7264 102.077 41.8548 102.004 41.9712Z" fill="black"/>
</g>
<path d="M102.304 41.4922C102.196 41.6678 102.032 41.8103 101.834 41.9018C101.635 41.9932 101.412 42.0294 101.191 42.0058C100.97 41.9822 100.761 41.8999 100.592 41.7692C100.423 41.6385 100.3 41.4654 100.24 41.2717C100.179 41.078 100.184 40.8725 100.253 40.6811C100.321 40.4897 100.451 40.3211 100.626 40.1965C100.801 40.0719 101.013 39.9971 101.235 39.9814C101.457 39.9656 101.679 40.0098 101.873 40.1082C102.132 40.2411 102.322 40.461 102.403 40.72C102.484 40.9791 102.448 41.2565 102.304 41.4922Z" fill="#5E6EFF"/>
<g opacity="0.3">
<path opacity="0.3" d="M102.703 50.2279C102.724 50.3056 102.727 50.386 102.712 50.4648C102.698 50.5435 102.667 50.619 102.621 50.6868C102.574 50.7546 102.513 50.8135 102.442 50.8601C102.37 50.9067 102.289 50.9401 102.203 50.9583C102.03 50.9952 101.847 50.9682 101.696 50.8834C101.544 50.7985 101.436 50.6627 101.395 50.5059C101.354 50.349 101.384 50.1839 101.478 50.0469C101.572 49.91 101.722 49.8123 101.896 49.7754C102.069 49.7386 102.252 49.7655 102.403 49.8504C102.555 49.9352 102.663 50.071 102.703 50.2279V50.2279Z" fill="black"/>
</g>
<path d="M102.625 49.9144C102.65 50.0275 102.638 50.1448 102.59 50.2517C102.542 50.3587 102.461 50.4506 102.356 50.5163C102.251 50.582 102.127 50.6186 102 50.6215C101.872 50.6244 101.747 50.5935 101.638 50.5327C101.53 50.4718 101.444 50.3837 101.39 50.279C101.336 50.1744 101.318 50.0579 101.336 49.9438C101.355 49.8297 101.41 49.723 101.495 49.6369C101.58 49.5508 101.691 49.4889 101.814 49.459C101.9 49.438 101.991 49.4333 102.079 49.4451C102.168 49.457 102.253 49.4851 102.329 49.5278C102.405 49.5705 102.47 49.6268 102.521 49.6933C102.572 49.7598 102.607 49.8351 102.625 49.9144Z" fill="#5E6EFF"/>
<path d="M112.266 43.4735C112.064 43.5209 111.763 43.1009 111.612 42.5391C111.558 42.3631 111.523 42.1828 111.508 42.0008C111.508 41.6815 111.508 41.4508 111.678 41.4094C111.848 41.368 112.181 41.7761 112.332 42.3439C112.482 42.9117 112.469 43.4144 112.266 43.4735Z" fill="#5E6EFF"/>
<g opacity="0.3">
<path opacity="0.3" d="M111.495 42.0304C111.539 42.3825 111.645 42.7259 111.808 43.0477L111.154 43.237C111.115 42.8395 111.155 42.4389 111.272 42.0541L111.495 42.0304Z" fill="black"/>
</g>
<path d="M108.191 37.8193C108.041 37.9553 107.537 37.7365 107.086 37.3224C106.942 37.1932 106.81 37.0527 106.693 36.9025C106.497 36.6423 106.419 36.4175 106.517 36.3111C106.615 36.2046 107.171 36.3998 107.622 36.8138C108.074 37.2278 108.335 37.6891 108.191 37.8193Z" fill="#5E6EFF"/>
<g opacity="0.3">
<path opacity="0.3" d="M106.752 36.9676C106.967 37.2659 107.253 37.5166 107.59 37.701C107.433 37.837 107.269 37.9908 107.106 38.1564C106.861 37.8415 106.678 37.4915 106.563 37.1214L106.752 36.9676Z" fill="black"/>
</g>
<path d="M103.802 33.3065C103.743 33.4899 103.194 33.5194 102.566 33.3597C102.371 33.3177 102.182 33.2541 102.004 33.1705C101.683 33.0344 101.493 32.8748 101.533 32.7505C101.572 32.6263 102.141 32.5435 102.769 32.6973C103.397 32.8511 103.855 33.1232 103.802 33.3065Z" fill="#5E6EFF"/>
<g opacity="0.3">
<path opacity="0.3" d="M102.049 33.1941C102.406 33.336 102.786 33.4258 103.174 33.4603C103.122 33.6495 103.07 33.8625 103.017 34.0872C102.628 33.9165 102.272 33.6887 101.964 33.413L102.049 33.1941Z" fill="black"/>
</g>
<path d="M96.483 33.549C96.5419 33.7324 96.0774 34.0104 95.4495 34.1405C95.2549 34.1891 95.0556 34.2208 94.8543 34.2351C94.5076 34.2351 94.2525 34.2055 94.2002 34.0873C94.1479 33.969 94.6057 33.6259 95.2337 33.4958C95.8616 33.3657 96.4307 33.3657 96.483 33.549Z" fill="#5E6EFF"/>
<g opacity="0.3">
<path opacity="0.3" d="M94.9066 34.2528C95.2982 34.2352 95.6805 34.1382 96.0251 33.9689C96.0774 34.1582 96.1428 34.3652 96.2213 34.5604C95.7994 34.5923 95.3746 34.5583 94.9654 34.4598L94.9066 34.2528Z" fill="black"/>
</g>
<g opacity="0.3">
<path opacity="0.3" d="M104.548 47.6137C104.352 48.2879 103.789 48.7375 103.292 48.6192C102.795 48.5009 102.54 47.8562 102.736 47.1878C102.932 46.5195 103.495 46.0641 103.992 46.1824C104.489 46.3007 104.744 46.9572 104.548 47.6137Z" fill="black"/>
</g>
<path d="M104.849 47.2174C104.659 47.8857 104.097 48.3353 103.593 48.2229C103.089 48.1105 102.847 47.4599 103.037 46.7857C103.227 46.1114 103.796 45.6678 104.299 45.7861C104.803 45.9044 105.045 46.5432 104.849 47.2174Z" fill="#5E6EFF"/>
<g opacity="0.3">
<path opacity="0.3" d="M99.4133 44.6032C99.4772 44.8457 99.46 45.0999 99.364 45.3336C99.268 45.5673 99.0975 45.77 98.874 45.9161C98.6506 46.0621 98.3842 46.1449 98.1087 46.1539C97.8332 46.163 97.5609 46.098 97.3262 45.967C97.0916 45.8361 96.9052 45.6452 96.7907 45.4184C96.6761 45.1916 96.6386 44.9392 96.6827 44.6931C96.7269 44.4471 96.8508 44.2184 97.0388 44.036C97.2268 43.8536 97.4704 43.7258 97.7388 43.6687C98.0979 43.5923 98.4758 43.6478 98.7897 43.8229C99.1036 43.9981 99.3279 44.2787 99.4133 44.6032V44.6032Z" fill="black"/>
</g>
<path d="M99.2302 43.8935C99.2941 44.136 99.2769 44.3902 99.1809 44.6239C99.0849 44.8576 98.9144 45.0603 98.6909 45.2063C98.4675 45.3523 98.2011 45.4351 97.9256 45.4442C97.6501 45.4533 97.3777 45.3882 97.1431 45.2573C96.9085 45.1264 96.7221 44.9354 96.6076 44.7087C96.493 44.4819 96.4555 44.2295 96.4996 43.9834C96.5438 43.7373 96.6677 43.5086 96.8557 43.3263C97.0437 43.1439 97.2873 43.0161 97.5557 42.959C97.9148 42.8826 98.2927 42.938 98.6066 43.1132C98.9205 43.2884 99.1448 43.569 99.2302 43.8935Z" fill="#5E6EFF"/>
<g opacity="0.3">
<path opacity="0.3" d="M104.672 50.5709C104.757 50.6478 104.672 50.8667 104.43 51.1624C104.06 51.5968 103.619 51.9777 103.122 52.2921C102.776 52.5116 102.413 52.7093 102.036 52.8835C101.599 53.0781 101.147 53.2422 100.682 53.3744C99.6049 53.6819 98.4742 53.8082 97.3464 53.747C95.7262 53.6538 94.1612 53.1787 92.807 52.3689C92.4558 52.1581 92.1234 51.9228 91.8127 51.6651C91.3575 51.3008 90.9689 50.8736 90.6615 50.3994C90.4522 50.0564 90.4064 49.808 90.498 49.7607C90.7008 49.6069 91.3876 50.1333 92.5649 50.7425C92.8571 50.8962 93.1842 51.05 93.5461 51.2038C93.8993 51.3517 94.2852 51.4995 94.6973 51.6296C95.5894 51.9047 96.5173 52.0737 97.4576 52.1324C98.3962 52.1813 99.3379 52.1157 100.257 51.9372C100.689 51.8603 101.088 51.7479 101.467 51.6474C101.847 51.5468 102.187 51.4167 102.494 51.2984C103.743 50.8312 104.496 50.3876 104.672 50.5709Z" fill="black"/>
</g>
<g opacity="0.3">
<path opacity="0.3" d="M89.5561 46.7087C89.6651 46.6767 89.7801 46.6647 89.8944 46.6733C90.0086 46.6819 90.1199 46.711 90.2215 46.7589C90.3232 46.8068 90.4133 46.8726 90.4866 46.9523C90.5599 47.032 90.6149 47.1241 90.6484 47.2233C90.7063 47.4256 90.6735 47.6404 90.5571 47.821C90.4408 48.0015 90.2502 48.1332 90.027 48.1874C89.9196 48.2153 89.8072 48.2239 89.6962 48.2126C89.5852 48.2012 89.4777 48.1703 89.3799 48.1214C89.2821 48.0725 89.1959 48.0067 89.1263 47.9277C89.0566 47.8487 89.0048 47.7581 88.9739 47.661C88.943 47.5639 88.9335 47.4622 88.946 47.3618C88.9586 47.2615 88.9928 47.1643 89.0469 47.0758C89.1009 46.9874 89.1737 46.9095 89.2611 46.8465C89.3484 46.7835 89.4487 46.7367 89.5561 46.7087V46.7087Z" fill="black"/>
</g>
</g>
<defs>
<clipPath id="clip0">
<rect width="353" height="158" fill="white"/>
</clipPath>
</defs>
</svg>
