<svg width="556" height="541" viewBox="0 0 556 541" fill="none" xmlns="http://www.w3.org/2000/svg">
<g id="sell-2">
<path id="Vector" d="M379.163 522.57V530.39H168.729V524.04C181.563 518.815 192.697 509.523 200.722 497.341C208.748 485.158 213.304 470.633 213.813 455.603C214.323 440.574 210.763 425.716 203.585 412.911C196.407 400.107 185.932 389.93 173.488 383.67H377.734C365.569 389.791 355.281 399.658 348.117 412.076C340.952 424.493 337.219 438.928 337.371 453.63C337.522 468.332 341.551 482.671 348.969 494.907C356.386 507.144 366.875 516.753 379.163 522.57V522.57Z" fill="#C8CAD7"/>
<path id="Vector_2" opacity="0.1" d="M377.734 383.67C368.348 388.406 360.044 395.389 353.431 404.108C346.818 412.827 342.063 423.061 339.515 434.06H211.717C209.167 423.061 204.412 412.828 197.799 404.109C191.186 395.391 182.883 388.407 173.497 383.67H377.734Z" fill="black"/>
<path id="Vector_3" d="M0 327V360.504C0 379.003 12.9837 394 29.0047 394H526.995C543.016 394 556 379.003 556 360.504V327H0Z" fill="#C8CAD7"/>
<path id="Vector_4" opacity="0.1" d="M379.163 522.57V530.39H168.729V524.04C174.498 521.681 179.955 518.486 184.954 514.54H366.259C370.288 517.714 374.613 520.406 379.163 522.57V522.57Z" fill="black"/>
<path id="Vector_5" d="M440.059 516.98H107.833C103.059 516.98 99.1882 521.233 99.1882 526.48V530.65C99.1882 535.897 103.059 540.15 107.833 540.15H440.059C444.833 540.15 448.704 535.897 448.704 530.65V526.48C448.704 521.233 444.833 516.98 440.059 516.98Z" fill="#C8CAD7"/>
<path id="Vector_6" d="M556 24.6032C555.99 18.0741 552.93 11.8153 547.491 7.20203C542.053 2.58875 534.681 -0.00164054 526.995 1.25924e-05H29.0266C21.3373 -0.0065876 13.9598 2.58162 8.51642 7.19543C3.07308 11.8092 0.00969991 18.0709 0 24.6032V329H556V24.6032Z" fill="#474157"/>
<path id="Vector_7" d="M274.042 26.3C278.64 26.3 282.368 22.2034 282.368 17.15C282.368 12.0966 278.64 8 274.042 8C269.443 8 265.715 12.0966 265.715 17.15C265.715 22.2034 269.443 26.3 274.042 26.3Z" fill="white"/>
<path id="Vector_8" d="M273.386 412.12C284.724 412.12 293.916 402.02 293.916 389.56C293.916 377.1 284.724 367 273.386 367C262.048 367 252.857 377.1 252.857 389.56C252.857 402.02 262.048 412.12 273.386 412.12Z" fill="white"/>
<path id="Vector_9" d="M556 55H0C-2.60748e-07 52.5041 0.390706 50.0326 1.1498 47.7268C1.90889 45.421 3.0215 43.326 4.42404 41.5616C5.82658 39.7972 7.49157 38.3978 9.3239 37.4436C11.1562 36.4893 13.12 35.9988 15.103 36.0001H540.858C542.845 35.9924 544.812 36.4782 546.649 37.4296C548.486 38.3809 550.156 39.7792 551.562 41.5443C552.969 43.3094 554.085 45.4065 554.847 47.7155C555.608 50.0245 556 52.5 556 55V55Z" fill="#C8CAD7"/>
<path id="Vector_10" d="M17.5354 50.4299C19.9879 50.4299 21.9761 48.2451 21.9761 45.5499C21.9761 42.8548 19.9879 40.6699 17.5354 40.6699C15.0829 40.6699 13.0947 42.8548 13.0947 45.5499C13.0947 48.2451 15.0829 50.4299 17.5354 50.4299Z" fill="#EDEDF4"/>
<path id="Vector_11" d="M30.8485 50.4299C33.301 50.4299 35.2892 48.2451 35.2892 45.5499C35.2892 42.8548 33.301 40.6699 30.8485 40.6699C28.3959 40.6699 26.4077 42.8548 26.4077 45.5499C26.4077 48.2451 28.3959 50.4299 30.8485 50.4299Z" fill="#EDEDF4"/>
<path id="Vector_12" d="M44.1615 50.4299C46.6141 50.4299 48.6023 48.2451 48.6023 45.5499C48.6023 42.8548 46.6141 40.6699 44.1615 40.6699C41.709 40.6699 39.7208 42.8548 39.7208 45.5499C39.7208 48.2451 41.709 50.4299 44.1615 50.4299Z" fill="#EDEDF4"/>
<g id="shirt">
<path id="Vector_13" d="M139.041 141.055C139.041 141.055 129.724 128.518 133.236 123.632L117.494 129.904C117.494 129.904 108.02 128.786 104.606 142.522C104.058 144.807 103.859 147.157 104.015 149.499C104.142 151.568 103.851 155.212 101.423 159.931C97.5376 167.481 98.4342 184.818 106.369 186.531C114.303 188.245 117.143 187.388 117.143 187.388C117.143 187.388 116.082 218.794 111.494 222.395C106.907 225.996 123.202 225.139 123.202 225.139C123.202 225.139 137.278 225.865 144.518 226.86C151.758 227.854 172.065 223.23 172.065 223.23C172.065 223.23 169.076 210.017 168 201.61C166.924 193.203 164.474 175.3 164.474 175.3L182.487 151.589C182.487 151.589 185.663 137.258 174.538 130.913C163.413 124.568 159.221 123 159.221 123C159.221 123 148.014 140.692 142.217 141.549C142.217 141.564 140.005 142.435 139.041 141.055Z" fill="#C75CED"/>
<path id="Vector_14" opacity="0.1" d="M118.375 146.036C118.375 146.036 118.204 151.698 119.264 153.927C120.325 156.156 124.203 168.512 124.203 168.512H115.379C115.379 168.512 120.146 163.539 119.795 161.136C119.444 158.733 118.375 146.036 118.375 146.036Z" fill="black"/>
<path id="Vector_15" opacity="0.1" d="M178.423 147.749L181.957 151.611V160.962C181.957 160.962 178.968 190.481 169.42 193.74C159.871 197 142.859 191.853 142.859 191.853C142.859 191.853 138.458 180.527 140.513 179.838C142.568 179.148 158.698 175.017 158.698 175.017C158.698 175.017 158.467 157.702 162.001 152.555C162.001 152.555 159.707 136.424 167.649 136.082C175.591 135.741 178.423 147.749 178.423 147.749Z" fill="black"/>
<path id="Vector_16" d="M178.938 147.749L182.472 151.611V160.962C182.472 160.962 179.484 190.481 169.928 193.74C160.372 197 143.375 191.853 143.375 191.853C143.375 191.853 138.974 180.527 141.029 179.838C143.083 179.148 159.207 175.017 159.207 175.017C159.207 175.017 158.982 157.702 162.516 152.555C162.516 152.555 160.215 136.424 168.165 136.082C176.114 135.741 178.938 147.749 178.938 147.749Z" fill="#C75CED"/>
<path id="Vector_17" opacity="0.1" d="M156.965 207.127C156.965 207.127 165.856 204.267 166.506 210.903C166.506 210.903 164.825 206.351 156.965 207.127Z" fill="black"/>
<path id="Vector_18" opacity="0.1" d="M131.271 169.028C131.271 169.028 129.508 181.043 132.683 185.849C127.701 187.554 122.413 188.253 117.143 187.903L116.082 169.028H131.271Z" fill="black"/>
<path id="Vector_19" opacity="0.1" d="M132.481 184.491L131.622 184.956L126.146 172.977L131.271 168.512H131.532C131.45 169.093 130.023 179.409 132.481 184.491Z" fill="black"/>
<path id="Vector_20" d="M131.271 168.512C131.271 168.512 129.508 180.527 132.683 185.333C127.701 187.039 122.413 187.738 117.143 187.388L110.964 168.512H131.271Z" fill="#C75CED"/>
</g>
<g id="Group">
<path id="Vector_21" d="M120.946 245.211C120.891 245.113 120.821 245.064 120.736 245.064H119.176C119.073 244.16 118.878 243.376 118.593 242.712H120.718C120.803 242.712 120.873 242.663 120.928 242.565C120.982 242.467 121.009 242.342 121.009 242.189V240.523C121.009 240.37 120.982 240.245 120.928 240.147C120.873 240.049 120.803 240 120.718 240H113.13C113.045 240 112.975 240.049 112.92 240.147C112.865 240.245 112.838 240.37 112.838 240.523V242.695C112.838 242.837 112.867 242.959 112.925 243.063C112.982 243.166 113.051 243.218 113.13 243.218H114.452C115.735 243.218 116.55 243.833 116.896 245.064H113.13C113.045 245.064 112.975 245.113 112.92 245.211C112.865 245.309 112.838 245.434 112.838 245.586V247.253C112.838 247.405 112.865 247.53 112.92 247.628C112.975 247.726 113.045 247.775 113.13 247.775H117.024C116.89 248.668 116.579 249.349 116.089 249.817C115.6 250.286 114.954 250.52 114.151 250.52H113.13C113.051 250.52 112.982 250.571 112.925 250.675C112.867 250.778 112.838 250.901 112.838 251.042V253.117C112.838 253.259 112.865 253.379 112.92 253.477C114.087 255.698 115.601 258.807 117.462 262.804C117.517 262.935 117.592 263 117.69 263H119.468C119.596 263 119.684 262.902 119.733 262.706C119.793 262.51 119.782 262.325 119.696 262.15C117.921 258.252 116.526 255.333 115.51 253.395C116.544 253.177 117.383 252.578 118.027 251.598C118.672 250.618 119.064 249.344 119.204 247.775H120.736C120.821 247.775 120.891 247.727 120.946 247.628C121 247.531 121.028 247.405 121.028 247.253V245.587C121.028 245.434 121 245.309 120.946 245.211Z" fill="white"/>
</g>
<path id="499" d="M137.968 255.27H140.335V257.039H137.968V261H135.788V257.039H128.019V255.762L135.659 243.938H137.968V255.27ZM130.48 255.27H135.788V246.902L135.531 247.371L130.48 255.27ZM150.601 253.5C150.148 254.039 149.605 254.473 148.972 254.801C148.347 255.129 147.659 255.293 146.909 255.293C145.925 255.293 145.066 255.051 144.331 254.566C143.605 254.082 143.042 253.402 142.644 252.527C142.245 251.645 142.046 250.672 142.046 249.609C142.046 248.469 142.261 247.441 142.691 246.527C143.128 245.613 143.745 244.914 144.542 244.43C145.339 243.945 146.269 243.703 147.331 243.703C149.019 243.703 150.347 244.336 151.316 245.602C152.292 246.859 152.781 248.578 152.781 250.758V251.391C152.781 254.711 152.124 257.137 150.812 258.668C149.499 260.191 147.519 260.973 144.87 261.012H144.448V259.184H144.906C146.695 259.152 148.07 258.688 149.031 257.789C149.991 256.883 150.515 255.453 150.601 253.5ZM147.261 253.5C147.988 253.5 148.656 253.277 149.265 252.832C149.882 252.387 150.331 251.836 150.613 251.18V250.312C150.613 248.891 150.304 247.734 149.687 246.844C149.07 245.953 148.288 245.508 147.343 245.508C146.39 245.508 145.624 245.875 145.046 246.609C144.468 247.336 144.179 248.297 144.179 249.492C144.179 250.656 144.456 251.617 145.011 252.375C145.573 253.125 146.323 253.5 147.261 253.5ZM164.077 253.5C163.624 254.039 163.081 254.473 162.448 254.801C161.823 255.129 161.136 255.293 160.386 255.293C159.402 255.293 158.542 255.051 157.808 254.566C157.081 254.082 156.519 253.402 156.12 252.527C155.722 251.645 155.523 250.672 155.523 249.609C155.523 248.469 155.738 247.441 156.167 246.527C156.605 245.613 157.222 244.914 158.019 244.43C158.816 243.945 159.745 243.703 160.808 243.703C162.495 243.703 163.823 244.336 164.792 245.602C165.769 246.859 166.257 248.578 166.257 250.758V251.391C166.257 254.711 165.601 257.137 164.288 258.668C162.976 260.191 160.995 260.973 158.347 261.012H157.925V259.184H158.382C160.171 259.152 161.546 258.688 162.507 257.789C163.468 256.883 163.991 255.453 164.077 253.5ZM160.738 253.5C161.464 253.5 162.132 253.277 162.741 252.832C163.359 252.387 163.808 251.836 164.089 251.18V250.312C164.089 248.891 163.781 247.734 163.163 246.844C162.546 245.953 161.765 245.508 160.82 245.508C159.866 245.508 159.101 245.875 158.523 246.609C157.945 247.336 157.656 248.297 157.656 249.492C157.656 250.656 157.933 251.617 158.488 252.375C159.05 253.125 159.8 253.5 160.738 253.5Z" fill="white"/>
<g id="brand-small">
<path id="Polygon 5" d="M83.5417 75L73.5417 68L63.5417 75" stroke="#FBFBFB" stroke-width="2"/>
<path id="nxt-door" d="M22.0742 84.7451C22.0684 84.7451 22.0596 84.7451 22.0479 84.7451C21.374 84.7451 21.0371 84.5137 21.0371 84.0508C21.0371 83.8281 21.0957 83.5527 21.2129 83.2246C21.3301 82.8965 21.3975 82.5654 21.415 82.2314C21.4326 81.8916 21.4414 81.373 21.4414 80.6758V79.0322L21.459 78.5752C21.4707 78.2705 21.4766 78.0537 21.4766 77.9248L21.3887 77.0195C21.3887 76.8145 21.5703 76.7119 21.9336 76.7119C22.3027 76.7119 22.6807 76.8115 23.0674 77.0107C23.4541 77.21 23.6914 77.3096 23.7793 77.3096C23.873 77.3096 24.0459 77.251 24.2979 77.1338C24.5557 77.0166 24.8574 76.8906 25.2031 76.7559C25.5547 76.6152 25.915 76.5449 26.2842 76.5449H26.5127C26.9521 76.5449 27.3418 76.665 27.6816 76.9053C28.0273 77.1396 28.2764 77.4678 28.4287 77.8896C28.5869 78.3057 28.6982 79.0732 28.7627 80.1924L28.7891 80.6758L28.8066 81.1592C28.8242 81.4404 28.8447 81.7451 28.8682 82.0732C28.8916 82.4014 28.9707 82.7471 29.1055 83.1104C29.2402 83.4678 29.3076 83.708 29.3076 83.8311C29.3076 84.3525 28.9092 84.6133 28.1123 84.6133C27.7725 84.6133 27.5234 84.5459 27.3652 84.4111C27.207 84.2705 27.1279 84.0361 27.1279 83.708L27.1455 83.3828C27.1455 81.1035 26.9814 79.5508 26.6533 78.7246C26.3955 78.0859 25.9414 77.7666 25.291 77.7666C24.9805 77.7666 24.6758 77.8457 24.377 78.0039C24.084 78.1562 23.8555 78.4053 23.6914 78.751C23.3984 79.3662 23.252 80.5498 23.252 82.3018L23.3223 83.8926C23.3223 84.1445 23.2021 84.3496 22.9619 84.5078C22.7217 84.666 22.4258 84.7451 22.0742 84.7451ZM31.9531 85.0352H31.7334C31.2412 85.0352 30.9951 84.8711 30.9951 84.543C30.9951 84.5195 31.417 83.9072 32.2607 82.7061C33.1104 81.499 33.5352 80.8018 33.5352 80.6143C33.5352 80.4268 33.1572 79.791 32.4014 78.707C32.1904 78.4023 31.9092 78.0566 31.5576 77.6699C31.2119 77.2773 31.0391 77.0078 31.0391 76.8613C31.0391 76.5273 31.458 76.3604 32.2959 76.3604C32.9053 76.3604 33.333 76.5127 33.5791 76.8174C33.626 76.876 33.6846 77.002 33.7549 77.1953C33.8252 77.3828 33.9541 77.6494 34.1416 77.9951C34.5518 78.7451 34.8447 79.1201 35.0205 79.1201C35.1611 79.1201 35.4688 78.7334 35.9434 77.96C36.1309 77.6553 36.2715 77.3711 36.3652 77.1074C36.4648 76.8438 36.5322 76.6885 36.5674 76.6416C36.7432 76.4131 37.0186 76.2988 37.3936 76.2988C38.1025 76.2988 38.457 76.4248 38.457 76.6768C38.457 76.8232 38.0498 77.415 37.2354 78.4521C36.4209 79.4893 36.0137 80.1602 36.0137 80.4648C36.0137 80.7637 36.4473 81.4873 37.3145 82.6357C37.6016 83.0166 37.9033 83.3623 38.2197 83.6729C38.542 83.9834 38.7031 84.2266 38.7031 84.4023C38.7031 84.7305 38.2168 84.8975 37.2441 84.9033C36.7578 84.9033 36.4062 84.7656 36.1895 84.4902C36.1484 84.4375 36.0781 84.2998 35.9785 84.0771C35.8848 83.8545 35.7705 83.626 35.6357 83.3916C35.1084 82.4834 34.7744 82.0293 34.6338 82.0293C34.458 82.0293 34.1182 82.4482 33.6143 83.2861C33.4678 83.5322 33.3359 83.8135 33.2188 84.1299C33.1074 84.4404 33.04 84.6133 33.0166 84.6484C32.8291 84.9062 32.4746 85.0352 31.9531 85.0352ZM43.8447 84.9648H43.5107C42.667 84.9648 42.0605 84.6016 41.6914 83.875C41.3867 83.2832 41.2344 82.3105 41.2344 80.957C41.2344 79.6035 41.1611 78.6748 41.0146 78.1709C40.9619 77.9834 40.8154 77.7695 40.5752 77.5293C40.335 77.2891 40.2148 77.0811 40.2148 76.9053V76.791C40.2148 76.6387 40.3525 76.4717 40.6279 76.29C40.9033 76.1084 41.0615 75.9795 41.1025 75.9033C41.1494 75.8213 41.2373 75.5371 41.3662 75.0508C41.501 74.5586 41.6387 74.2158 41.7793 74.0225C41.9258 73.8232 42.1191 73.7236 42.3594 73.7236C42.6055 73.7236 42.7783 73.7939 42.8779 73.9346C42.9834 74.0752 43.0859 74.3652 43.1855 74.8047C43.291 75.2441 43.4053 75.543 43.5283 75.7012C43.6514 75.8535 43.9502 76.0146 44.4248 76.1846C44.8994 76.3545 45.1367 76.5654 45.1367 76.8174C45.1367 77.04 44.8877 77.2393 44.3896 77.415C43.8975 77.5908 43.5869 77.8076 43.458 78.0654C43.2119 78.5635 43.0889 79.4453 43.0889 80.7109C43.0889 81.9766 43.1973 82.7529 43.4141 83.04C43.6309 83.3213 43.9824 83.4941 44.4688 83.5586C44.9609 83.623 45.207 83.8076 45.207 84.1123C45.207 84.3467 45.0664 84.5488 44.7852 84.7188C44.5098 84.8828 44.1963 84.9648 43.8447 84.9648ZM47.3428 80.7197C47.085 80.7197 46.9561 80.5703 46.9561 80.2715V80.0693C46.9561 79.6768 47.0469 79.4512 47.2285 79.3926C47.4102 79.3281 48.248 79.2959 49.7422 79.2959L51.4648 79.2695H51.79C52.1299 79.2695 52.2998 79.4219 52.2998 79.7266V79.9199C52.2881 80.002 52.2822 80.0664 52.2822 80.1133C52.2822 80.4062 52.1709 80.5791 51.9482 80.6318C51.7314 80.6787 50.917 80.7021 49.5049 80.7021H49.1094L48.916 80.7109H48.5205L48.2568 80.7197H47.3428ZM59.7705 79.1025C59.7705 78.5869 59.6416 78.168 59.3838 77.8457C59.1318 77.5234 58.7129 77.3623 58.127 77.3623H58.0479L57.96 77.3711C57.3506 77.3711 56.8467 77.6611 56.4482 78.2412C56.0557 78.8154 55.8594 79.6094 55.8594 80.623V81.0273C55.8594 81.9355 56.0381 82.6357 56.3955 83.1279C56.7588 83.6201 57.2041 83.8662 57.7314 83.8662H57.8105C58.4258 83.8662 58.9033 83.6523 59.2432 83.2246C59.583 82.7969 59.7529 82.1846 59.7529 81.3877C59.7646 81.2588 59.7705 81.165 59.7705 81.1064L59.7969 80.5527V79.5508L59.7793 79.2783C59.7734 79.2197 59.7705 79.1611 59.7705 79.1025ZM58.25 76.2988C58.8945 76.2988 59.2812 76.2197 59.4102 76.0615C59.6094 75.8154 59.709 75.291 59.709 74.4883C59.709 74.248 59.6826 74.002 59.6299 73.75C59.5771 73.4922 59.5508 73.3223 59.5508 73.2402C59.5508 72.9766 59.6504 72.7539 59.8496 72.5723C60.0488 72.3906 60.3389 72.2998 60.7197 72.2998H60.8867C61.3496 72.2998 61.6162 72.5078 61.6865 72.9238C61.7393 73.2227 61.7656 74.8662 61.7656 77.8545L61.748 78.9092V80.377L61.7656 81.1855C61.7656 81.3203 61.7656 81.4551 61.7656 81.5898L61.7744 81.7832C61.7803 81.9121 61.7832 82.1465 61.7832 82.4863C61.7832 82.8203 61.8301 83.1484 61.9238 83.4707C62.0234 83.7871 62.0732 84.0098 62.0732 84.1387C62.0732 84.2676 62 84.3936 61.8535 84.5166C61.707 84.6396 61.4902 84.7012 61.2031 84.7012C60.9219 84.7012 60.6318 84.6631 60.333 84.5869C60.04 84.5049 59.8379 84.4639 59.7266 84.4639C59.6152 84.4639 59.3105 84.5488 58.8125 84.7188C58.3203 84.8887 57.8896 84.9736 57.5205 84.9736H57.3271C56.3311 84.9736 55.5547 84.6367 54.998 83.9629C54.4473 83.2832 54.1719 82.3955 54.1719 81.2998V80.8516C54.1719 80.2773 54.2627 79.7031 54.4443 79.1289C54.6318 78.5488 54.9014 78.0449 55.2529 77.6172C55.9854 76.7383 56.9844 76.2988 58.25 76.2988ZM67.8125 83.9805H67.9883C68.5801 83.9805 69.0664 83.7197 69.4473 83.1982C69.8281 82.6768 70.0186 82.0176 70.0186 81.2207L70.0361 81.0273L70.0449 80.7285V80.333C70.0449 79.46 69.8662 78.7422 69.5088 78.1797C69.1572 77.6113 68.6855 77.3271 68.0938 77.3271H67.918C67.3379 77.3271 66.8486 77.6143 66.4502 78.1885C66.0576 78.7627 65.8613 79.5244 65.8613 80.4736V81.0713C65.873 81.2119 65.8789 81.3086 65.8789 81.3613C65.8789 82.0293 66.0635 82.6328 66.4326 83.1719C66.8018 83.7109 67.2617 83.9805 67.8125 83.9805ZM72.0312 80.4561V80.7461C72.0312 81.2676 71.9463 81.8037 71.7764 82.3545C71.4307 83.4736 70.751 84.2764 69.7373 84.7627C69.1514 85.0439 68.5713 85.1846 67.9971 85.1846H67.6982C67.1533 85.1846 66.6465 85.0732 66.1777 84.8506C65.2461 84.4053 64.6279 83.667 64.3232 82.6357C64.1592 82.0908 64.0771 81.5371 64.0771 80.9746V80.5264C64.0771 79.9756 64.1621 79.4248 64.332 78.874C64.666 77.7842 65.3281 77.0049 66.3184 76.5361C66.8281 76.29 67.3496 76.167 67.8828 76.167H68.3223C68.8262 76.167 69.3242 76.2754 69.8164 76.4922C70.8008 76.9258 71.4629 77.6992 71.8027 78.8125C71.9551 79.3047 72.0312 79.8525 72.0312 80.4561ZM77.4453 83.9805H77.6211C78.2129 83.9805 78.6992 83.7197 79.0801 83.1982C79.4609 82.6768 79.6514 82.0176 79.6514 81.2207L79.6689 81.0273L79.6777 80.7285V80.333C79.6777 79.46 79.499 78.7422 79.1416 78.1797C78.79 77.6113 78.3184 77.3271 77.7266 77.3271H77.5508C76.9707 77.3271 76.4814 77.6143 76.083 78.1885C75.6904 78.7627 75.4941 79.5244 75.4941 80.4736V81.0713C75.5059 81.2119 75.5117 81.3086 75.5117 81.3613C75.5117 82.0293 75.6963 82.6328 76.0654 83.1719C76.4346 83.7109 76.8945 83.9805 77.4453 83.9805ZM81.6641 80.4561V80.7461C81.6641 81.2676 81.5791 81.8037 81.4092 82.3545C81.0635 83.4736 80.3838 84.2764 79.3701 84.7627C78.7842 85.0439 78.2041 85.1846 77.6299 85.1846H77.3311C76.7861 85.1846 76.2793 85.0732 75.8105 84.8506C74.8789 84.4053 74.2607 83.667 73.9561 82.6357C73.792 82.0908 73.71 81.5371 73.71 80.9746V80.5264C73.71 79.9756 73.7949 79.4248 73.9648 78.874C74.2988 77.7842 74.9609 77.0049 75.9512 76.5361C76.4609 76.29 76.9824 76.167 77.5156 76.167H77.9551C78.459 76.167 78.957 76.2754 79.4492 76.4922C80.4336 76.9258 81.0957 77.6992 81.4355 78.8125C81.5879 79.3047 81.6641 79.8525 81.6641 80.4561ZM87.7637 78.0566C87.2129 78.0566 86.7852 78.332 86.4805 78.8828C86.1758 79.4277 86.0234 80.2627 86.0234 81.3877C86.0234 81.8857 86.0439 82.2402 86.085 82.4512C86.126 82.6562 86.1875 82.9141 86.2695 83.2246C86.3574 83.5293 86.4014 83.7959 86.4014 84.0244C86.4014 84.2471 86.2666 84.4521 85.9971 84.6396C85.7275 84.8271 85.376 84.9209 84.9424 84.9209L84.793 84.9121H84.6348C84.3535 84.9121 84.1191 84.833 83.9316 84.6748C83.75 84.5166 83.6592 84.3379 83.6592 84.1387V83.998C83.6592 83.957 83.7148 83.7637 83.8262 83.418C83.9375 83.0723 84.002 82.7383 84.0195 82.416C84.0371 82.0938 84.0459 81.6602 84.0459 81.1152V80.1396L84.0371 79.9814C84.0371 79.876 84.0371 79.7705 84.0371 79.665L84.0195 79.1904C84.0137 79.085 84.0107 78.8799 84.0107 78.5752C84.0107 78.2646 83.9551 77.9717 83.8438 77.6963C83.7383 77.415 83.6855 77.2334 83.6855 77.1514C83.6855 76.7998 83.9932 76.624 84.6084 76.624C85.2236 76.624 85.6689 76.791 85.9443 77.125C86.0264 77.2246 86.1113 77.2744 86.1992 77.2744C86.293 77.2744 86.4453 77.2012 86.6562 77.0547C87.2422 76.6562 87.7344 76.457 88.1328 76.457H88.2734C88.625 76.457 88.8916 76.5361 89.0732 76.6943C89.2607 76.8525 89.3545 77.0635 89.3545 77.3271C89.3545 77.8486 89.0645 78.1094 88.4844 78.1094C88.2559 78.0742 88.0156 78.0566 87.7637 78.0566Z" fill="#FBFBFB"/>
<g id="Group_2">
<g id="Group_3">
<path id="Vector_22" d="M73.2359 82.0546C72.2004 82.2248 71.3973 82.5946 70.5517 83.293C69.9177 83.8155 69.5441 84.2498 69.1216 84.9425C68.7763 85.5176 68.5368 86.0459 68.3818 86.5919L68.2551 87.0146L64.4086 87.0323L60.5551 87.0501L59.9916 87.2086C58.8011 87.549 59.0828 87.3378 51.6364 93.5364L44.7538 99.2591L44.465 99.758C43.7748 100.926 43.8593 102.288 44.6763 103.345C45.12 103.914 53.9121 111.187 54.5321 111.498C55.8002 112.126 57.3218 112.167 58.6887 111.609L59.2874 111.369L66.1561 105.634C71.3129 101.337 73.0879 99.8226 73.2642 99.5701C73.3909 99.3821 73.5952 99.0008 73.7223 98.7189L73.9405 98.2022L73.9614 93.9172C73.9827 89.7849 73.9754 89.6205 73.8417 89.2508C73.6444 88.7225 73.2712 88.2236 72.7991 87.8538C72.3624 87.5193 71.4043 87.0792 71.3055 87.1728C71.1505 87.3136 71.066 88.1706 71.0238 89.9844L70.9815 91.9216L70.7773 92.2325C70.5378 92.5848 70.1785 92.8842 69.7347 93.0779C69.4813 93.1893 69.3263 93.2129 68.7627 93.2129C68.1992 93.2129 68.0442 93.1893 67.7907 93.0779C67.347 92.8842 66.9877 92.5848 66.7482 92.2325C66.5649 91.9506 66.544 91.8686 66.544 91.3639C66.544 90.7594 66.6354 90.5421 67.0513 90.1313C67.2625 89.9201 67.8121 89.6031 67.9671 89.6031C68.0376 89.6031 68.0585 89.8204 68.0585 90.6067V91.6103L68.2628 91.7805C68.5515 92.0152 68.9743 92.021 69.2561 91.7863L69.4534 91.6219L69.4886 89.7435C69.5309 87.7596 69.5944 87.2723 69.9607 86.3801C70.6439 84.6896 71.9403 83.5213 73.4126 83.2572C74.9907 82.9753 76.6673 83.8559 77.6327 85.4759C79.2108 88.1116 78.6895 91.786 76.4774 93.5646C76.2379 93.7583 75.9278 93.9695 75.7871 94.0341L75.5263 94.1516V94.8097C75.5263 95.2556 75.5546 95.473 75.6038 95.473C75.7728 95.473 76.6607 95.0386 77.0901 94.7451C80.0417 92.7143 80.9013 88.2355 78.957 84.9954C78.3512 83.974 77.3366 83.0172 76.3646 82.5419C75.4341 82.0898 74.2222 81.8961 73.2359 82.0546Z" fill="#550052"/>
<path id="deals" d="M54.5976 103.835C54.4173 103.694 54.2269 103.616 54.0264 103.601C53.828 103.585 53.6291 103.661 53.4297 103.828L53.4028 103.851L53.376 103.879C53.1687 104.053 53.0987 104.276 53.166 104.549C53.2333 104.819 53.4443 105.093 53.7988 105.371L53.9403 105.482C54.2579 105.731 54.5637 105.872 54.8574 105.904C55.1532 105.935 55.3908 105.875 55.5702 105.725L55.5971 105.702C55.8064 105.526 55.8941 105.331 55.8601 105.116C55.8261 104.902 55.6697 104.686 55.391 104.467C55.3499 104.428 55.3191 104.401 55.2986 104.385L55.1139 104.226L54.7634 103.951L54.6621 103.881C54.6396 103.867 54.6181 103.852 54.5976 103.835ZM53.0996 103.502C53.3189 103.317 53.4228 103.185 53.4113 103.105C53.393 102.98 53.2435 102.808 52.9627 102.588C52.8786 102.522 52.7836 102.462 52.6775 102.408C52.5694 102.353 52.501 102.313 52.4723 102.291C52.3801 102.219 52.3361 102.129 52.3403 102.022C52.3445 101.916 52.4115 101.808 52.541 101.699L52.5978 101.651C52.7553 101.519 52.9188 101.5 53.0882 101.593C53.2107 101.66 53.7946 102.103 54.8399 102.923L55.2028 103.217L55.7162 103.619L56.005 103.836C56.0522 103.873 56.0993 103.91 56.1465 103.947L56.2171 103.997C56.2642 104.031 56.3472 104.095 56.466 104.188C56.5829 104.279 56.7136 104.356 56.8582 104.417C57.0028 104.476 57.0976 104.522 57.1427 104.558C57.1878 104.593 57.2069 104.649 57.2001 104.724C57.1933 104.8 57.1411 104.879 57.0434 104.961C56.9477 105.041 56.8357 105.114 56.7074 105.178C56.579 105.24 56.4959 105.286 56.458 105.318C56.4202 105.35 56.3462 105.46 56.2362 105.649C56.1282 105.837 56.0114 105.983 55.8858 106.089L55.82 106.144C55.4811 106.429 55.0991 106.558 54.674 106.533C54.2489 106.504 53.8447 106.339 53.4614 106.039L53.3046 105.916C53.1038 105.759 52.9338 105.575 52.7948 105.366C52.6556 105.153 52.5711 104.938 52.5411 104.72C52.4828 104.27 52.669 103.863 53.0996 103.502ZM57.8191 101.537C57.9546 101.423 58.0288 101.326 58.0416 101.245C58.0543 101.165 58.0331 101.103 57.9777 101.059L57.8486 100.958C57.701 100.842 57.5263 100.791 57.3243 100.805C57.1223 100.818 56.9585 100.877 56.8329 100.983L56.7552 101.048C56.5737 101.201 56.4942 101.396 56.5164 101.633C56.5366 101.869 56.64 102.061 56.8265 102.207L56.8788 102.248C56.9505 102.304 57.0502 102.278 57.1778 102.171L57.2465 102.113L57.2614 102.096L57.4703 101.895L57.6075 101.76L57.6969 101.665C57.7128 101.648 57.7336 101.626 57.7594 101.597C57.7872 101.567 57.8071 101.547 57.8191 101.537ZM59.5472 103.091L59.4156 103.202C59.0169 103.537 58.5586 103.697 58.0407 103.683C57.8101 103.677 57.5706 103.625 57.3223 103.528C57.0718 103.429 56.8534 103.306 56.6669 103.16L56.5285 103.051C56.342 102.905 56.1842 102.72 56.0549 102.496C55.8008 102.06 55.7764 101.639 55.9818 101.234C56.0854 101.024 56.2379 100.834 56.4392 100.665L56.505 100.609C56.7841 100.375 57.1014 100.249 57.4571 100.234C57.6612 100.225 57.8598 100.255 58.0531 100.322C58.2463 100.386 58.3992 100.462 58.512 100.55C58.76 100.745 58.8461 100.935 58.7705 101.122C58.718 101.249 58.529 101.487 58.2033 101.834C57.8796 102.179 57.7049 102.371 57.6793 102.409C57.5509 102.59 57.5441 102.726 57.6589 102.815C57.8577 102.971 58.1124 103.027 58.4231 102.982C58.651 102.95 58.8856 102.833 59.1268 102.63C59.2185 102.553 59.3373 102.405 59.4832 102.186C59.6291 101.967 59.712 101.849 59.732 101.832C59.8356 101.745 59.9356 101.739 60.032 101.815C60.1529 101.909 60.1611 102.097 60.0568 102.378C59.9523 102.656 59.7825 102.893 59.5472 103.091ZM61.8291 100.479L61.9218 100.401C62.1072 100.245 62.1886 100.044 62.1662 99.796C62.1538 99.66 62.0246 99.4956 61.7786 99.3028L61.7417 99.269L61.6648 99.2087C61.5111 99.0882 61.3724 99.0799 61.2488 99.1838L61.1531 99.2642L61.0099 99.4046L60.9384 99.4797C60.755 99.6338 60.6578 99.8021 60.6468 99.9845C60.6337 100.165 60.6999 100.313 60.8454 100.427L60.953 100.511C61.0637 100.598 61.202 100.645 61.3679 100.652C61.5338 100.656 61.6875 100.598 61.8291 100.479ZM63.4897 99.3228C63.627 99.4305 63.5611 99.5974 63.292 99.8236C63.2442 99.8638 63.1318 99.9182 62.9551 99.9869C62.7782 100.052 62.6729 100.099 62.639 100.128C62.6071 100.155 62.5353 100.273 62.4236 100.484C62.3099 100.692 62.1833 100.855 62.0437 100.973L61.975 101.03C61.7577 101.213 61.4975 101.314 61.1945 101.332C60.8895 101.349 60.6099 101.257 60.3557 101.058C59.8392 100.653 59.8354 100.134 60.3443 99.4997C60.6729 99.087 60.8411 98.8723 60.8489 98.8558C60.8954 98.7335 60.852 98.6202 60.7187 98.5157C60.5835 98.4097 60.4289 98.3565 60.255 98.3562C60.081 98.3526 59.9223 98.4111 59.7787 98.5318C59.6372 98.6508 59.5199 98.8309 59.427 99.0721C59.332 99.3118 59.2486 99.4617 59.1769 99.5221C59.0473 99.631 58.8913 99.614 58.7089 99.471C58.5941 99.381 58.5872 99.2104 58.688 98.9592C58.7909 98.7063 58.9729 98.47 59.234 98.2505L59.3835 98.1249C59.5789 97.9607 59.7902 97.8446 60.0176 97.7767C60.2449 97.7088 60.463 97.6919 60.6719 97.7261C60.9679 97.7736 61.4418 98.0528 62.0936 98.5637C62.4625 98.8528 62.699 99.0269 62.8032 99.0859C62.9093 99.1431 63.0354 99.1853 63.1815 99.2124C63.3255 99.2378 63.4282 99.2746 63.4897 99.3228ZM60.2343 95.5471C60.0724 95.4202 60.121 95.2478 60.3801 95.03L60.434 94.9847C60.6194 94.8289 60.8029 94.8028 60.9847 94.9064L61.6518 95.4293L61.8764 95.615L61.9902 95.7042L62.3317 95.9865L62.4454 96.0756L62.5039 96.1263C62.5428 96.1569 62.5818 96.1874 62.6207 96.2179L62.6762 96.2662C62.7151 96.2967 62.754 96.3273 62.793 96.3578L62.8484 96.4061L63.1374 96.6326L63.5399 96.9335C63.5788 96.9608 63.673 97.033 63.8226 97.1503C63.9723 97.2676 64.1511 97.377 64.3591 97.4785C64.567 97.5767 64.7511 97.64 64.9113 97.6685C65.0695 97.6953 65.1834 97.7361 65.2531 97.7907C65.3228 97.8453 65.3424 97.9287 65.312 98.0408C65.2835 98.1513 65.1916 98.2719 65.0361 98.4026L64.9314 98.4906C64.6503 98.7268 64.395 98.755 64.1655 98.575C64.1491 98.5622 64.1037 98.5137 64.0295 98.4296C63.9553 98.3455 63.7993 98.2087 63.5615 98.019L62.8446 97.428L62.7892 97.3797C62.7503 97.3492 62.7113 97.3187 62.6724 97.2881L62.5585 97.1941C62.5196 97.1635 62.4807 97.133 62.4417 97.1025L62.3863 97.0542C62.3474 97.0237 62.3084 96.9931 62.2695 96.9626L62.1556 96.8685C62.1167 96.838 62.0777 96.8075 62.0388 96.7769L61.925 96.6829L61.8051 96.5889L61.6912 96.4948L61.1133 96.0418C60.8796 95.8586 60.6834 95.7372 60.5247 95.6775C60.3659 95.6179 60.2691 95.5744 60.2343 95.5471ZM64.7722 95.9177C64.445 95.9397 64.1584 95.8543 63.9125 95.6615C63.6645 95.4671 63.5653 95.2226 63.6148 94.9279C63.6623 94.6316 63.8446 94.3503 64.1615 94.0839C64.4785 93.8174 64.7497 93.6544 64.9752 93.5947C65.1986 93.5335 65.3738 93.5526 65.5009 93.6522C65.6751 93.7888 65.7074 93.9031 65.5978 93.9953C65.5599 94.0271 65.4172 94.0788 65.1697 94.1503C64.9222 94.2219 64.7217 94.3222 64.5682 94.4512C64.4147 94.5802 64.3349 94.7055 64.3289 94.8271C64.3249 94.947 64.3793 95.0511 64.492 95.1395C64.6047 95.2278 64.7789 95.2445 65.0146 95.1896C65.0951 95.1718 65.3283 95.0923 65.7142 94.9511C66.1 94.8067 66.3989 94.7269 66.6109 94.7118C66.9422 94.6897 67.2339 94.7774 67.486 94.9751C67.7381 95.1727 67.8475 95.4252 67.8144 95.7328C67.7811 96.037 67.6031 96.3249 67.2801 96.5963C66.7319 97.0571 66.2824 97.2568 65.9315 97.1955C65.8199 97.1761 65.7375 97.1455 65.6842 97.1037C65.5059 96.964 65.4706 96.8488 65.5782 96.7583C65.6101 96.7315 65.7821 96.6769 66.0941 96.5944C66.4061 96.5086 66.6408 96.3996 66.7983 96.2672C66.9578 96.1332 67.0485 96.0003 67.0705 95.8686C67.0925 95.7369 67.0441 95.6244 66.9252 95.5313C66.8043 95.4365 66.6209 95.4109 66.3749 95.4545C66.2741 95.4726 66.0338 95.5514 65.654 95.6909C65.2722 95.8287 64.9782 95.9043 64.7722 95.9177Z" fill="white"/>
</g>
</g>
</g>
<rect id="Rectangle 5" x="265" y="96" width="224" height="198" rx="30" fill="#81808B"/>
<rect id="Rectangle 6" x="301" y="123" width="96" height="13" fill="#CAC8F0"/>
<rect id="Rectangle 7" x="301" y="150" width="151" height="13" fill="#CAC8F0"/>
<rect id="Rectangle 8" x="301" y="171" width="151" height="13" fill="#CAC8F0"/>
<rect id="Rectangle 9" x="301" y="192" width="151" height="13" fill="#CAC8F0"/>
<rect id="Rectangle 10" x="338" y="239" width="77" height="23" rx="10" fill="#DFB4EE"/>
</g>
</svg>
