<svg width="750" height="626" viewBox="0 0 750 626" fill="none" xmlns="http://www.w3.org/2000/svg">
<path d="M749.271 242C749.298 271.166 740.715 299.691 724.599 323.999C708.482 348.307 685.548 367.317 658.672 378.645C631.796 389.973 602.174 393.115 573.519 387.678C544.865 382.241 518.453 368.466 497.595 348.08C476.737 327.695 462.36 301.605 456.268 273.083C450.176 244.561 452.638 214.875 463.348 187.746C474.057 160.618 492.536 137.254 516.469 120.585C540.401 103.915 568.722 94.6808 597.881 94.04C598.341 94.03 598.801 94.02 599.271 94.01C599.931 94 600.601 94 601.271 94C602.951 94 604.631 94.03 606.301 94.09C609.981 94.21 613.621 94.4633 617.221 94.85C619.301 95.07 621.351 95.34 623.401 95.64C623.631 95.68 623.871 95.71 624.101 95.75C632.56 97.0541 640.889 99.0986 648.991 101.86C678.238 111.835 703.633 130.71 721.616 155.84C739.598 180.971 749.268 211.098 749.271 242V242Z" fill="#C977E6"/>
<path d="M488.025 249.989C488.318 249.527 487.556 248.519 486.323 247.738C485.09 246.958 483.853 246.7 483.56 247.162C483.267 247.624 484.029 248.632 485.262 249.413C486.495 250.193 487.732 250.452 488.025 249.989Z" fill="#3F3D56"/>
<path d="M483.699 241.386C484.355 240.35 485.396 239.617 486.593 239.348C487.789 239.079 489.044 239.297 490.08 239.953L548.681 277.062C549.717 277.718 550.45 278.759 550.719 279.956C550.988 281.152 550.77 282.407 550.114 283.443L483.699 241.386Z" fill="#D0CDE1"/>
<path d="M478.156 243.349L479.999 240.437C480.448 239.729 481.159 239.228 481.977 239.045C482.794 238.861 483.652 239.01 484.36 239.458L551.082 281.71C551.497 281.973 551.857 282.315 552.14 282.717C552.423 283.119 552.624 283.572 552.731 284.052C552.839 284.531 552.851 285.027 552.767 285.512C552.683 285.996 552.505 286.459 552.242 286.874L550.71 289.293L478.156 243.349Z" fill="#2F2E41"/>
<path d="M488.09 244.948L487.383 246.064L491.848 248.891L492.555 247.775L488.09 244.948Z" fill="#D0CDE1"/>
<path d="M494.229 248.835L493.522 249.952L497.987 252.779L498.694 251.663L494.229 248.835Z" fill="#D0CDE1"/>
<path d="M582.666 113.235C605.67 113.235 624.318 94.5872 624.318 71.5835C624.318 48.5798 605.67 29.9316 582.666 29.9316C559.662 29.9316 541.014 48.5798 541.014 71.5835C541.014 94.5872 559.662 113.235 582.666 113.235Z" fill="#FFB8B8"/>
<path d="M585.206 101.045C585.206 101.045 605.524 133.045 600.444 142.188C595.365 151.332 579.618 176.221 579.618 176.221C579.618 176.221 649.715 124.41 640.572 113.235C640.572 113.235 619.746 95.4571 618.73 84.2822L585.206 101.045Z" fill="#FFB8B8"/>
<path d="M641.331 384.52C607.538 393.957 571.497 391.141 539.581 376.57L542.781 291.07L543.021 284.42L543.111 282.26L543.221 279.08L543.301 277.05C543.301 277.05 543.431 277.04 543.681 277.03C544.361 276.98 545.931 276.87 548.181 276.74C550.791 276.59 554.301 276.4 558.391 276.23C559.361 276.19 560.361 276.15 561.391 276.1C582.931 275.3 616.571 275.13 621.021 281.62L621.581 285.44L622.481 291.61L624.321 304.22C624.321 304.22 645.241 345.82 641.331 384.52Z" fill="#2F2E41"/>
<path d="M679.684 165.046L643.701 244.657L628.077 279.218L622.286 292.034L538.474 291.018L547.109 232.603C534.919 201.111 563.872 188.412 563.872 188.412L588.253 162.43V166.57C588.253 166.57 612.127 138.125 622.794 121.87C633.461 105.616 648.191 111.711 648.191 111.711C673.589 109.172 679.684 165.046 679.684 165.046Z" fill="#E6E6E6"/>
<path opacity="0.2" d="M643.701 244.657L628.077 279.218C623.058 269.831 619.238 259.2 619.238 252.922C619.238 235.652 636.509 244.795 636.509 244.795C636.509 244.795 622.54 168.348 622.54 145.49C622.54 130.308 635.198 197.687 643.701 244.657Z" fill="black"/>
<path d="M629.905 250.382L554.221 248.858C554.221 248.858 498.854 253.429 506.981 275.779C515.109 298.129 559.3 275.779 559.3 275.779L647.684 289.494L629.905 250.382Z" fill="#FFB8B8"/>
<path d="M644.128 115.775C644.128 115.775 617.714 117.807 617.714 140.664C617.714 163.522 641.588 244.794 641.588 244.794C641.588 244.794 624.318 235.651 624.318 252.921C624.318 270.192 653.271 320.479 656.319 286.954C656.319 286.954 700.002 308.288 697.463 268.16C694.923 228.032 667.494 143.204 667.494 143.204C667.494 143.204 664.446 114.251 644.128 115.775Z" fill="#E6E6E6"/>
<path d="M587.221 80.399C584.128 76.9592 584.185 71.1577 581.692 67.1252C577.778 60.793 569.628 61.2175 562.936 62.3107C558.488 63.0373 553.975 63.785 549.847 65.8056C547.999 66.6792 546.354 68.0339 545.04 69.7631C543.726 71.4923 542.779 73.5486 542.275 75.7698C541.751 78.2643 540.595 71.1867 539.419 62.02C538.214 52.667 539.624 43.1158 543.446 34.7427C547.267 26.3696 553.303 19.6068 560.684 15.4288C560.772 15.3793 560.859 15.3304 560.945 15.2823C568.514 11.0554 576.444 7.32238 584.81 6.27345C593.176 5.22452 602.102 7.12371 608.664 13.1794C611.663 15.9472 614.102 19.5003 617.317 21.9264C622.966 26.1891 630.119 26.3955 636.831 27.2942C644.423 28.3105 652.032 30.4446 658.585 34.9632C665.139 39.4818 670.569 46.6104 672.391 55.1399C674.516 65.0895 671.047 76.851 662.535 81.1685C661.048 81.8873 659.73 82.9988 658.687 84.4128C651.697 94.2324 662.982 99.6052 664.618 108.153C665.984 115.285 660.015 121.742 653.895 123.706C642.495 127.364 629.225 120.078 624.539 107.589C622.44 101.994 621.962 95.8046 621.39 89.7471C620.737 82.8131 604.911 70.2543 615.595 79.7012C617.668 81.4855 619.301 83.8593 620.334 86.5892C623.584 95.5301 616.838 100.605 613.22 106.989C611.251 110.579 610.197 114.732 610.177 118.976C610.157 123.22 611.173 127.386 613.109 131C603.731 125.369 598.987 111.255 602.637 99.8423C603.607 96.8085 605.078 94.0039 605.959 90.9348C607.335 86.1455 606.119 76.8385 599.968 78.7254C595.578 80.0721 591.825 85.5196 587.221 80.399Z" fill="#2F2E41"/>
<path d="M297 439C297.006 468.727 288.059 497.767 271.324 522.337C254.59 546.907 230.844 565.868 203.18 576.75C201.01 577.62 198.8 578.43 196.58 579.18C194.1 580.03 191.593 580.81 189.06 581.52C187.3 582.01 185.523 582.47 183.73 582.9C156.734 589.369 128.467 588.164 102.12 579.42C100.05 578.73 98 577.99 95.97 577.22C93.24 576.17 90.54 575.04 87.89 573.83C87.69 573.75 87.5 573.66 87.31 573.57C86.27 573.09 85.26 572.61 84.23 572.1H84.22C82.81 571.42 81.4133 570.713 80.0301 569.98C76.85 568.3 73.74 566.51 70.7001 564.61C69.1201 563.63 67.5634 562.613 66.0301 561.56C41.8966 545.266 23.1084 522.212 12.0195 495.287C0.930525 468.362 -1.96592 438.764 3.69303 410.2C9.35199 381.636 23.3146 355.377 43.8316 334.714C64.3485 314.051 90.5072 299.902 119.03 294.04C121.64 293.5 124.277 293.033 126.94 292.64C128.61 292.38 130.3 292.16 131.99 291.97C133.2 291.83 134.41 291.7 135.64 291.6H135.65C138.94 291.3 142.26 291.113 145.61 291.04C146.07 291.03 146.53 291.02 147 291.01C147.26 291.01 147.52 291 147.78 291.01H147.79C148.19 291 148.59 291 149 291C150.68 291 152.36 291.03 154.03 291.09C157.71 291.21 161.35 291.463 164.95 291.85C167.03 292.07 169.08 292.34 171.13 292.64C171.36 292.68 171.6 292.71 171.83 292.75C172.51 292.86 173.2 292.97 173.88 293.09C175.32 293.32 176.75 293.59 178.18 293.88C179.52 294.15 180.85 294.43 182.18 294.73C187.096 295.851 191.949 297.23 196.72 298.86C229.055 309.914 256.585 331.789 274.66 360.79C275.17 361.6 275.67 362.42 276.16 363.25C276.54 363.87 276.9 364.49 277.26 365.12C277.39 365.33 277.51 365.54 277.62 365.75C277.7 365.87 277.76 365.99 277.83 366.11C278.49 367.26 279.13 368.43 279.75 369.6C291.112 390.966 297.036 414.801 297 439V439Z" fill="#6C63FF"/>
<path d="M229.238 386.139C229.238 386.139 263.592 355.94 276.354 377.049C289.115 398.157 240.598 406.702 237.795 405.611C234.992 404.52 229.238 386.139 229.238 386.139Z" fill="#A0616A"/>
<path d="M162.415 408.538C162.415 408.538 203.069 395.317 210.002 389.947C216.935 384.577 223.322 380.608 224.723 381.154C226.125 381.7 235.315 378.822 235.315 378.822L246.204 408.885C246.204 408.885 202.747 421.014 201.655 423.817C200.564 426.62 162.415 408.538 162.415 408.538Z" fill="#D0CDE1"/>
<path d="M183.73 582.9C156.734 589.369 128.467 588.164 102.12 579.42L103.92 562.4L105.59 546.5L130.64 507.77L138.67 495.36L171.76 507.39L175.13 528.64L180.5 562.53L183.73 582.9Z" fill="#2F2E41"/>
<path d="M203.18 576.75C201.01 577.62 198.8 578.43 196.58 579.18C194.1 580.03 191.593 580.81 189.06 581.52C187.3 582.01 185.523 582.47 183.73 582.9C156.734 589.369 128.467 588.164 102.12 579.42C100.05 578.73 98 577.99 95.97 577.22C96.2471 583.142 96.0665 589.076 95.43 594.97C92.5413 588.063 90.0244 581.006 87.89 573.83C87.74 573.35 87.6 572.87 87.46 572.39C86.76 569.97 86.14 567.66 85.58 565.49C84.94 562.98 84.39 560.65 83.93 558.52C82.1 550.16 81.52 544.99 81.52 544.99L101.07 504.39L104.98 504.84L106.6 505.02L116.4 506.14L130.64 507.77L153.71 510.4L175.13 528.64L194.32 544.99C194.32 544.99 195.92 550.43 198.43 559.44C199.79 564.28 201.4 570.15 203.18 576.75Z" fill="#2F2E41"/>
<path d="M168.201 297.681C187.304 297.681 202.791 282.194 202.791 263.09C202.791 243.986 187.304 228.5 168.201 228.5C149.097 228.5 133.61 243.986 133.61 263.09C133.61 282.194 149.097 297.681 168.201 297.681Z" fill="#A0616A"/>
<path d="M139.938 264.83L121.835 303.558L172.659 338.762C172.659 338.762 166.677 296.836 177.947 286.218C189.218 275.601 139.938 264.83 139.938 264.83Z" fill="#A0616A"/>
<path d="M179.279 341.96C179.279 341.96 155.216 292.33 135.665 292.33C116.113 292.33 64.9794 326.92 66.4834 334.44C67.9873 341.96 67.9873 343.464 67.9873 347.975C67.9873 352.487 57.4597 352.487 66.4834 355.495C75.507 358.503 77.011 361.511 77.011 361.511L69.4913 554.015C69.4913 554.015 102.578 566.047 114.609 561.535C126.641 557.023 138.673 526.944 138.673 526.944C138.673 526.944 135.665 567.551 147.696 566.047C159.728 564.543 204.846 561.535 206.35 555.519C207.854 549.503 197.326 417.157 197.326 417.157L179.279 341.96Z" fill="#D0CDE1"/>
<path d="M95.43 594.97V594.99C93.89 608.32 89.22 621.83 77.01 624.7C56.27 629.58 64.23 586.96 67.97 570.69C68.85 566.9 69.49 564.54 69.49 564.54L70.7 564.61L85.58 565.49L95.06 566.05C95.06 566.05 95.45 568.8 95.75 573.11C95.84 574.36 95.92 575.74 95.97 577.22C96.247 583.142 96.0665 589.076 95.43 594.97Z" fill="#A0616A"/>
<path d="M101.074 329.928L57.4597 441.22C57.4597 441.22 51.444 453.251 57.4597 462.275C63.4755 471.299 54.4519 525.44 60.4676 537.472C66.4834 549.503 66.4834 570.559 66.4834 570.559L101.074 573.567L108.594 441.22L147.696 356.999C147.696 356.999 144.688 322.408 101.074 329.928Z" fill="#D0CDE1"/>
<path opacity="0.1" d="M112.354 326.168C112.354 326.168 85.2827 333.688 76.259 360.759L112.354 326.168Z" fill="black"/>
<path d="M145.532 278.871C148.898 278.671 152.184 279.808 155.526 280.252C167.483 281.839 179.921 273.163 182.562 261.393C182.773 259.826 183.24 258.304 183.944 256.888C185.785 253.883 189.976 253.31 193.43 254.001C196.885 254.692 200.16 256.309 203.679 256.494C209.111 256.779 214.327 253.434 217.222 248.829C220.117 244.223 220.937 238.556 220.546 233.13L217.942 235.863C216.883 233.625 216.475 231.134 216.762 228.674C215.382 228.307 213.931 228.299 212.547 228.653C211.164 229.008 209.894 229.711 208.86 230.696C206.564 230.94 208.297 226.437 206.591 224.88C205.877 224.228 204.781 224.351 203.814 224.361C198.929 224.408 194.977 220.671 191.127 217.663C184.457 212.463 176.657 208.905 168.358 207.277C162.841 206.201 156.975 206.028 151.743 208.082C147.447 209.769 143.851 212.842 140.524 216.041C132.333 223.917 125.08 233.171 121.673 244.011C118.903 252.889 118.824 262.39 121.447 271.313C122.82 275.947 126.958 291.818 133.016 292.187C140.628 292.652 136.058 279.437 145.532 278.871Z" fill="#2F2E41"/>
<path opacity="0.1" d="M147.99 389.501L112.569 441.452L101.241 562.122L147.99 389.501Z" fill="black"/>
<path d="M289.112 358.745C289.96 357.557 290.286 356.336 289.84 356.019C289.395 355.701 288.346 356.406 287.499 357.594C286.651 358.782 286.325 360.003 286.771 360.321C287.216 360.638 288.264 359.933 289.112 358.745Z" fill="#3F3D56"/>
<path d="M241.876 414.714C240.877 414.002 240.203 412.922 240.001 411.712C239.798 410.503 240.085 409.262 240.797 408.264L281.083 351.8C281.796 350.801 282.876 350.127 284.085 349.925C285.295 349.722 286.535 350.009 287.534 350.721V350.721L241.876 414.714L241.876 414.714Z" fill="#D0CDE1"/>
<path d="M243.53 420.357L241.199 418.694C240.391 418.118 239.845 417.244 239.681 416.265C239.517 415.286 239.749 414.282 240.326 413.474L286.195 349.185C286.682 348.503 287.42 348.042 288.246 347.903C289.073 347.765 289.921 347.961 290.603 348.448L293.408 350.449L243.53 420.357L243.53 420.357Z" fill="#2F2E41"/>
<path d="M281.741 359.978L282.816 360.745L285.885 356.443L284.81 355.676L281.741 359.978Z" fill="#D0CDE1"/>
<path d="M277.52 365.893L278.596 366.661L281.665 362.359L280.589 361.591L277.52 365.893Z" fill="#D0CDE1"/>
<path d="M464.5 80.5C464.5 99.7089 450.745 117.199 428.288 129.916C405.846 142.624 374.81 150.5 340.5 150.5C306.19 150.5 275.154 142.624 252.712 129.916C230.255 117.199 216.5 99.7089 216.5 80.5C216.5 61.2911 230.255 43.8007 252.712 31.0841C275.154 18.3759 306.19 10.5 340.5 10.5C374.81 10.5 405.846 18.3759 428.288 31.0841C450.745 43.8007 464.5 61.2911 464.5 80.5Z" fill="white" stroke="#550052"/>
<path d="M257 78.3749L259.656 87.7498L262.312 99.6247C262.312 99.6247 269.219 104 269.75 100.875C270.281 97.7497 267.094 97.1247 267.094 97.1247L266.031 90.8748L274 74L257 78.3749Z" fill="#3F3D56"/>
<path d="M302 74L306.876 100.354C306.876 100.354 310.668 102.926 313.377 101.64C316.086 100.354 311.752 97.1405 311.752 97.1405C311.752 97.1405 313.377 81.0707 321.504 79.1423C329.631 77.214 302 74 302 74Z" fill="#3F3D56"/>
<path d="M333.857 43.81C333.857 43.81 323.086 48.2651 313.393 45.7193C313.393 45.7193 294.545 42.5371 292.929 41.9006C291.314 41.2642 273.004 39.9913 263.31 41.9006C263.31 41.9006 236.384 17.079 251.463 6.2593C251.463 6.2593 257.925 10.078 259.541 7.5322C260.147 6.57752 259.844 5.35434 259.228 4.19829C258.533 2.94211 257.59 1.90489 256.48 1.17623C255.37 0.447566 254.126 0.0493967 252.856 0.0161717C247.229 -0.232827 237.145 2.15702 241.722 23.9017C243.027 29.8994 245.431 35.4852 248.763 40.2643C251.215 43.8373 253.752 48.7822 252.54 52.7203C250.386 59.7213 249.847 70.541 249.847 70.541L242.308 83.9064C242.308 83.9064 238 100.454 238 101.091C238 101.727 243.858 103.077 245.001 101.727C246.078 100.454 243.385 97.9084 243.385 97.9084C243.385 97.9084 245.539 92.8168 249.309 91.5439C253.079 90.271 263.31 85.8158 264.926 83.9064C266.542 81.9971 301.007 70.541 310.7 81.3606C316.14 87.5023 321.895 93.2413 327.933 98.5448C327.933 98.5448 330.626 103 333.857 103C337.088 103 337.626 97.2719 333.857 96.6355C330.087 95.999 324.702 80.7242 324.702 80.7242C324.702 80.7242 323.086 69.268 331.164 67.3587C335.617 66.3061 338.27 66.2207 339.754 66.3559C340.347 66.4141 340.944 66.3307 341.508 66.1106C342.073 65.8905 342.595 65.5382 343.042 65.0748C344.003 63.9827 344.864 62.7738 345.61 61.4682C345.807 61.1366 345.934 60.7542 345.98 60.3528C346.027 59.9514 345.991 59.5427 345.876 59.1611C345.159 56.8473 344.562 54.4838 344.089 52.0838C343.55 48.9016 339.242 46.3558 339.242 46.3558C339.242 46.3558 338.165 37.4454 336.549 39.9913C335.722 41.3306 334.822 42.6061 333.857 43.81V43.81Z" fill="#3F3D56"/>
<line x1="446.459" y1="118.802" x2="499.459" y2="241.802" stroke="#550052"/>
<line x1="268.508" y1="362.909" x2="308.508" y2="147.909" stroke="#550052"/>
<g clip-path="url(#clip0)">
<path d="M436.972 79.87C436.179 79.5194 435.216 79.8648 434.794 80.6531L427.85 93.2575L413.81 101.363L410.69 95.9583L425.158 87.6048C425.459 87.4314 425.698 87.1526 425.835 86.8624L432.612 73.1766C433.012 72.3833 432.676 71.4703 431.869 71.1626C431.069 70.8335 430.092 71.2217 429.714 72.0199L423.179 85.2323L409.168 93.3217L405.971 87.7848L420.439 79.4313C420.762 79.2629 421.023 78.989 421.181 78.669L427.57 64.311C427.918 63.4946 427.539 62.6063 426.726 62.3201C425.912 62.0339 424.973 62.4534 424.595 63.2516L418.417 77.0836L404.449 85.1482L401.404 79.8749L415.873 71.5214C416.223 71.3019 416.504 70.9637 416.632 70.591L422.206 54.8224C422.414 54.1924 422.222 53.5298 421.711 53.1395C421.2 52.7492 420.473 52.7118 419.879 53.0371L406.24 60.9118C406.225 60.9201 406.06 60.6993 405.956 60.6186C405.452 60.2415 404.725 60.2041 404.139 60.5425L382.265 73.1719C381.907 73.3782 381.626 73.7164 381.498 74.0891L381.02 75.4727L367.066 83.529C366.716 83.7486 366.434 84.0868 366.314 84.4726L360.732 100.228C360.524 100.858 360.716 101.521 361.227 101.911C361.738 102.301 362.465 102.339 363.059 102.013L376.67 94.1551L379.715 99.4284L366.104 107.287C365.317 107.741 365.016 108.705 365.435 109.43C365.854 110.155 366.84 110.377 367.626 109.923L381.237 102.065L384.433 107.602L370.823 115.46C370.036 115.914 369.735 116.879 370.154 117.604C370.573 118.329 371.559 118.551 372.345 118.097L385.956 110.238L389.076 115.644L375.465 123.502C374.679 123.956 374.378 124.92 374.797 125.646C375.216 126.371 376.201 126.592 376.988 126.138L429.801 95.6465C430.08 95.4682 430.306 95.2322 430.443 94.942L437.616 81.9418C438.045 81.1666 437.751 80.2286 436.972 79.87ZM405.576 64.8806C405.591 64.8724 405.575 64.8114 405.603 64.7949L417.756 57.7786L413.793 69.2067L401.626 76.2313L405.576 64.8806ZM375.548 91.2874L365.183 97.2719L369.145 85.8437L379.468 79.884L375.559 91.1407C375.538 91.1702 375.501 91.1391 375.548 91.2874ZM396.102 89.8087L398.032 88.6944C398.818 88.2404 399.804 88.4622 400.223 89.1872C400.642 89.9123 400.341 90.877 399.554 91.331L397.624 92.4453C397.924 93.6255 397.893 94.8917 397.534 96.1186C397.018 97.7346 395.916 99.1616 394.439 100.102L402.582 101.694L402.604 101.698C403.465 101.869 403.959 102.692 403.72 103.533C403.482 104.374 402.588 104.907 401.727 104.736L389.665 102.366C389.249 102.273 388.879 102.029 388.674 101.673C388.233 100.943 388.534 99.9785 389.327 99.5031L392.544 97.6458C393.452 97.139 394.135 96.3405 394.444 95.389C394.556 94.9899 394.618 94.5678 394.628 94.1573L388.352 97.781C387.566 98.235 386.58 98.0132 386.161 97.2882C385.743 96.5631 386.043 95.5984 386.83 95.1444L393.106 91.5207C391.878 90.6479 390.339 90.6574 388.981 91.4415L385.764 93.2988C384.978 93.7528 383.992 93.531 383.573 92.8059C383.155 92.0809 383.456 91.1162 384.242 90.6622L395.451 84.1907C396.237 83.7367 397.223 83.9585 397.642 84.6835C398.06 85.4086 397.76 86.3733 396.966 86.8487L394.207 88.4418C394.921 88.786 395.564 89.2404 396.102 89.8087Z" fill="#484285"/>
</g>
<path d="M595.128 101.527L588.42 114.992C574.379 116.505 559.383 109.907 550.029 100.746L558.836 88.6667C566.197 99.268 579.472 101.477 595.128 101.527Z" fill="#F2F2F2"/>
<path d="M585.912 75.1477L558.849 90.7725C558.609 90.9106 558.332 90.9596 558.077 90.9087C557.822 90.8577 557.61 90.711 557.489 90.5009C557.368 90.2907 557.346 90.0342 557.43 89.7879C557.513 89.5416 557.694 89.3256 557.934 89.1875L584.996 73.5627C585.236 73.4246 585.513 73.3757 585.768 73.4266C586.023 73.4776 586.235 73.6243 586.356 73.8344C586.477 74.0446 586.499 74.3011 586.415 74.5474C586.332 74.7937 586.151 75.0096 585.912 75.1477V75.1477Z" fill="#F2F2F2"/>
<path d="M594.226 102.048C594.078 102.133 593.915 102.185 593.75 102.2C593.584 102.214 593.422 102.191 593.278 102.131C593.133 102.071 593.011 101.978 592.921 101.858C592.831 101.738 592.776 101.596 592.761 101.444L590.827 81.4279C590.815 81.3058 590.829 81.1798 590.868 81.0574C590.908 80.9349 590.972 80.8183 591.057 80.7141C591.142 80.61 591.247 80.5205 591.365 80.4506C591.482 80.3808 591.611 80.332 591.744 80.3071C591.876 80.2823 592.01 80.2817 592.137 80.3056C592.264 80.3294 592.381 80.3773 592.483 80.4463C592.585 80.5153 592.669 80.604 592.73 80.7076C592.792 80.8111 592.829 80.9274 592.841 81.0497L594.775 101.066C594.793 101.252 594.75 101.445 594.652 101.62C594.555 101.795 594.406 101.944 594.226 102.048V102.048Z" fill="#F2F2F2"/>
<path d="M194.044 265.835L205.459 268.283C204.333 278.241 195.425 290.365 185.137 298.842L175.402 294.614C186.681 287.328 191.159 277.253 194.044 265.835Z" fill="#F2F2F2"/>
<path d="M167.628 277.333L177.379 294.223C177.465 294.372 177.461 294.565 177.367 294.761C177.273 294.956 177.097 295.136 176.878 295.263C176.659 295.389 176.414 295.451 176.198 295.435C175.983 295.419 175.813 295.326 175.727 295.177L165.975 278.287C165.889 278.138 165.893 277.944 165.987 277.749C166.081 277.554 166.257 277.374 166.477 277.247C166.696 277.121 166.94 277.058 167.156 277.075C167.372 277.091 167.542 277.184 167.628 277.333V277.333Z" fill="#F2F2F2"/>
<path d="M194.369 266.398C194.422 266.49 194.441 266.6 194.425 266.718C194.408 266.835 194.357 266.958 194.275 267.074C194.193 267.19 194.083 267.296 193.954 267.384C193.825 267.471 193.682 267.536 193.537 267.575L174.41 272.612C174.293 272.643 174.178 272.656 174.07 272.649C173.962 272.643 173.864 272.617 173.782 272.574C173.7 272.531 173.635 272.471 173.591 272.398C173.547 272.325 173.524 272.24 173.525 272.148C173.526 272.055 173.549 271.958 173.595 271.861C173.64 271.765 173.706 271.67 173.789 271.583C173.873 271.497 173.971 271.419 174.079 271.356C174.188 271.292 174.303 271.244 174.42 271.214L193.547 266.176C193.725 266.129 193.898 266.125 194.044 266.165C194.191 266.204 194.304 266.286 194.369 266.398V266.398Z" fill="#F2F2F2"/>
<defs>
<clipPath id="clip0">
<rect width="77" height="71" fill="white" transform="translate(333 74.5) rotate(-30)"/>
</clipPath>
</defs>
</svg>
