<svg width="752" height="590" viewBox="0 0 752 590" fill="none" xmlns="http://www.w3.org/2000/svg">
<g clip-path="url(#clip0)">
<mask id="path-1-inside-1" fill="white">
<path d="M720.63 242.349V151.759H672.08V92.9134H639.216V151.759H590.667V242.349H563.778V38.7139H509.253V19.357H436.803V0H365.099V19.357H297.13V38.7139H238.124V241.575H206.754V150.984H158.205V92.1391H125.34V150.984H76.7912V241.575H45.4208V562.9H117.124V449.081H166.421V562.9H359.124V430.499H442.778V562.9H559.297V563.674H631V449.856H680.296V563.674H752V242.349H720.63ZM71.1893 281.063H99.572V304.291H71.1893V281.063ZM71.5628 346.102H99.9454V369.331H71.5628V346.102ZM100.319 434.37H71.9362V411.142H100.319V434.37ZM174.637 224.541H108.908V210.604H174.637V224.541ZM174.637 204.409H108.908V190.472H174.637V204.409ZM174.637 184.278H108.908V170.341H174.637V184.278ZM183.973 281.063H212.356V304.291H183.973V281.063ZM184.347 346.102H212.729V369.331H184.347V346.102ZM213.103 434.37H184.72V411.142H213.103V434.37ZM329.248 395.656H276.964V371.654H329.248V395.656ZM329.248 326.745H276.964V302.743H329.248V326.745ZM329.248 257.835H276.964V233.832H329.248V257.835ZM329.248 188.924H276.964V164.921H329.248V188.924ZM329.248 120.013H276.964V96.0105H329.248V120.013ZM427.093 395.656H374.809V371.654H427.093V395.656ZM427.093 326.745H374.809V302.743H427.093V326.745ZM427.093 257.835H374.809V233.832H427.093V257.835ZM427.093 188.924H374.809V164.921H427.093V188.924ZM427.093 120.013H374.809V96.0105H427.093V120.013ZM524.939 395.656H472.655V371.654H524.939V395.656ZM524.939 326.745H472.655V302.743H524.939V326.745ZM524.939 257.835H472.655V233.832H524.939V257.835ZM524.939 188.924H472.655V164.921H524.939V188.924ZM524.939 120.013H472.655V96.0105H524.939V120.013ZM585.065 281.837H613.448V305.066H585.065V281.837ZM585.439 346.877H613.821V370.105H585.439V346.877ZM614.195 435.144H585.812V411.916H614.195V435.144ZM688.512 225.315H622.784V211.378H688.512V225.315ZM688.512 205.184H622.784V191.247H688.512V205.184ZM688.512 185.052H622.784V171.115H688.512V185.052ZM697.849 281.837H726.232V305.066H697.849V281.837ZM698.222 346.877H726.605V370.105H698.222V346.877ZM726.978 435.144H698.596V411.916H726.978V435.144Z"/>
</mask>
<path d="M720.63 242.349V151.759H672.08V92.9134H639.216V151.759H590.667V242.349H563.778V38.7139H509.253V19.357H436.803V0H365.099V19.357H297.13V38.7139H238.124V241.575H206.754V150.984H158.205V92.1391H125.34V150.984H76.7912V241.575H45.4208V562.9H117.124V449.081H166.421V562.9H359.124V430.499H442.778V562.9H559.297V563.674H631V449.856H680.296V563.674H752V242.349H720.63ZM71.1893 281.063H99.572V304.291H71.1893V281.063ZM71.5628 346.102H99.9454V369.331H71.5628V346.102ZM100.319 434.37H71.9362V411.142H100.319V434.37ZM174.637 224.541H108.908V210.604H174.637V224.541ZM174.637 204.409H108.908V190.472H174.637V204.409ZM174.637 184.278H108.908V170.341H174.637V184.278ZM183.973 281.063H212.356V304.291H183.973V281.063ZM184.347 346.102H212.729V369.331H184.347V346.102ZM213.103 434.37H184.72V411.142H213.103V434.37ZM329.248 395.656H276.964V371.654H329.248V395.656ZM329.248 326.745H276.964V302.743H329.248V326.745ZM329.248 257.835H276.964V233.832H329.248V257.835ZM329.248 188.924H276.964V164.921H329.248V188.924ZM329.248 120.013H276.964V96.0105H329.248V120.013ZM427.093 395.656H374.809V371.654H427.093V395.656ZM427.093 326.745H374.809V302.743H427.093V326.745ZM427.093 257.835H374.809V233.832H427.093V257.835ZM427.093 188.924H374.809V164.921H427.093V188.924ZM427.093 120.013H374.809V96.0105H427.093V120.013ZM524.939 395.656H472.655V371.654H524.939V395.656ZM524.939 326.745H472.655V302.743H524.939V326.745ZM524.939 257.835H472.655V233.832H524.939V257.835ZM524.939 188.924H472.655V164.921H524.939V188.924ZM524.939 120.013H472.655V96.0105H524.939V120.013ZM585.065 281.837H613.448V305.066H585.065V281.837ZM585.439 346.877H613.821V370.105H585.439V346.877ZM614.195 435.144H585.812V411.916H614.195V435.144ZM688.512 225.315H622.784V211.378H688.512V225.315ZM688.512 205.184H622.784V191.247H688.512V205.184ZM688.512 185.052H622.784V171.115H688.512V185.052ZM697.849 281.837H726.232V305.066H697.849V281.837ZM698.222 346.877H726.605V370.105H698.222V346.877ZM726.978 435.144H698.596V411.916H726.978V435.144Z" fill="#9E99E4" stroke="#5C3D53" stroke-width="4" mask="url(#path-1-inside-1)"/>
<path d="M702.371 500.33C700.645 498.645 698.536 497.442 696.239 496.833C696.128 496.807 696.017 496.784 695.906 496.762C696.183 497.546 697.777 502.159 699.385 508.764L702.371 500.33Z" fill="#6C63FF"/>
<path d="M701.362 519.651L682.581 508.353L682.598 508.148C681.896 510.475 681.422 512.871 681.184 515.297L702.354 527.357C702.099 524.642 701.75 522.047 701.362 519.651Z" fill="#6C63FF"/>
<path d="M680.994 517.92L680.98 518.126C680.983 518.056 680.991 517.99 680.994 517.92L680.994 517.92Z" fill="#6C63FF"/>
<path d="M681.147 515.706L681.148 515.706C681.154 515.639 681.156 515.567 681.163 515.5L681.147 515.706Z" fill="#6C63FF"/>
<path d="M702.396 527.81L681.148 515.706C681.08 516.43 681.029 517.168 680.994 517.92L702.555 529.794C702.508 529.127 702.455 528.466 702.396 527.81Z" fill="#6C63FF"/>
<path d="M702.713 539.723L681.799 528C682.31 530.175 682.961 532.311 683.747 534.395L683.775 534.171L701.971 547.148C702.361 544.69 702.609 542.211 702.713 539.723V539.723Z" fill="#6C63FF"/>
<path d="M695.668 496.826L695.766 496.734C692.482 496.127 689.504 497.314 687.093 499.864L699.157 508.828C697.414 501.682 695.693 496.895 695.668 496.826Z" fill="#6C63FF"/>
<path d="M699.285 509.36L686.945 500.191L686.972 499.992C684.983 502.287 683.508 505.011 682.656 507.967L701.284 519.173C700.695 515.629 699.992 512.305 699.285 509.36Z" fill="#6C63FF"/>
<path d="M702.731 539.287C702.839 536.271 702.79 533.251 702.585 530.24L680.971 518.336C680.925 519.55 680.925 520.797 680.97 522.076C681.049 523.906 681.289 525.724 681.687 527.508L702.721 539.298L702.731 539.287Z" fill="#6C63FF"/>
<path d="M45.4208 562.9H752V573.38C752 577.788 750.311 582.015 747.304 585.132C744.298 588.249 740.22 590 735.968 590H61.453C57.201 590 53.1232 588.249 50.1165 585.132C47.1099 582.015 45.4208 577.788 45.4208 573.38V562.9Z" fill="#2F2E41"/>
<path d="M752 554.383H45.4208V569.094H752V554.383Z" fill="#3F3D56"/>
<path d="M593.015 51.0822L601.13 56.4169L596.203 47.1305C597.598 45.9762 599.325 45.3373 601.11 45.3148C601.153 45.3148 601.197 45.3152 601.24 45.316C601.804 45.3254 602.368 45.2822 602.924 45.1869L605.674 46.9947L604.495 44.7727C606.444 44.0683 608.128 42.7435 609.306 40.9877L614.229 44.2235L611.119 38.3626C613.997 34.7807 617.878 32.5843 622.147 32.5843C627.266 32.5843 631.825 35.74 634.769 40.6569C635.639 42.128 636.869 43.3343 638.335 44.1533C639.8 44.9723 641.448 45.3748 643.112 45.32C643.203 45.3165 643.295 45.3148 643.387 45.3148C649.038 45.3148 653.619 51.9565 653.619 60.1494C653.619 68.3424 649.038 74.9841 643.387 74.9841C642.144 74.9793 640.921 74.6619 639.823 74.0592C637.9 73.0901 635.796 72.5657 633.658 72.5224C631.52 72.479 629.398 72.9178 627.439 73.8082C625.784 74.5791 623.992 74.9797 622.177 74.9841C620.363 74.9884 618.569 74.5964 616.91 73.8335C614.967 72.96 612.865 72.5299 610.747 72.5724C608.63 72.6148 606.545 73.1288 604.636 74.0794C603.547 74.6693 602.338 74.9795 601.11 74.9841C595.459 74.9841 590.878 68.3424 590.878 60.1495C590.845 56.9891 591.58 53.871 593.015 51.0822Z" fill="#D0CDE1"/>
<path d="M180.153 94.6507L185.315 98.0442L182.181 92.1369C183.068 91.4026 184.167 90.9962 185.302 90.9819C185.33 90.9819 185.358 90.9822 185.385 90.9827C185.744 90.9887 186.103 90.9612 186.457 90.9006L188.206 92.0506L187.456 90.6371C188.695 90.189 189.767 89.3463 190.516 88.2294L193.648 90.2878L191.669 86.5595C192.503 85.4457 193.564 84.538 194.778 83.9022C195.991 83.2665 197.326 82.9186 198.685 82.8838C201.941 82.8838 204.841 84.8912 206.714 88.0189C207.267 88.9547 208.05 89.7221 208.982 90.2431C209.914 90.764 210.962 91.0201 212.021 90.9852C212.079 90.983 212.137 90.9819 212.196 90.9819C215.791 90.9819 218.704 95.2068 218.704 100.419C218.704 105.63 215.791 109.855 212.196 109.855C211.405 109.852 210.627 109.65 209.929 109.267C208.705 108.65 207.367 108.317 206.007 108.289C204.647 108.262 203.297 108.541 202.051 109.107C200.998 109.598 199.858 109.852 198.704 109.855C197.55 109.858 196.408 109.609 195.354 109.123C194.117 108.568 192.78 108.294 191.433 108.321C190.086 108.348 188.76 108.675 187.545 109.28C186.853 109.655 186.084 109.852 185.302 109.855C181.708 109.855 178.794 105.63 178.794 100.419C178.773 98.4082 179.24 96.4247 180.153 94.6507Z" fill="#D0CDE1"/>
<path d="M41.2271 112.842L46.3893 116.236L43.2551 110.328C44.1427 109.594 45.2412 109.188 46.3767 109.173C46.4044 109.173 46.4321 109.173 46.4597 109.174C46.8184 109.18 47.1769 109.153 47.5308 109.092L49.2802 110.242L48.5303 108.828C49.7698 108.38 50.8409 107.538 51.5907 106.421L54.7219 108.479L52.7438 104.751C53.5768 103.637 54.6385 102.729 55.8519 102.094C57.0652 101.458 58.3999 101.11 59.759 101.075C63.0151 101.075 65.9156 103.083 67.788 106.21C68.3415 107.146 69.1241 107.913 70.0562 108.434C70.9882 108.955 72.0367 109.211 73.0951 109.177C73.1533 109.174 73.2117 109.173 73.2702 109.173C76.8648 109.173 79.7788 113.398 79.7788 118.61C79.7788 123.822 76.8648 128.047 73.2702 128.047C72.4797 128.044 71.7018 127.842 71.0032 127.458C69.7796 126.842 68.4414 126.508 67.0812 126.481C65.721 126.453 64.3713 126.732 63.1253 127.299C62.0727 127.789 60.9322 128.044 59.7782 128.047C58.6242 128.049 57.4826 127.8 56.4278 127.315C55.1916 126.759 53.8545 126.485 52.5074 126.512C51.1602 126.539 49.8344 126.866 48.6197 127.471C47.9273 127.846 47.158 128.044 46.3766 128.047C42.7821 128.047 39.868 123.822 39.868 118.61C39.8471 116.6 40.3145 114.616 41.2271 112.842Z" fill="#D0CDE1"/>
<path d="M701.387 472.239C703.135 469.075 704.038 465.486 704.003 461.841C704.003 452.444 698.39 444.827 691.466 444.827C684.541 444.827 678.928 452.444 678.928 461.841C678.893 465.486 679.797 469.075 681.545 472.239C679.829 475.415 678.928 478.995 678.928 482.636C678.928 486.277 679.829 489.857 681.545 493.034C679.829 496.211 678.928 499.791 678.928 503.432C678.928 507.073 679.829 510.653 681.545 513.829C679.829 517.006 678.928 520.586 678.928 524.227C678.928 527.868 679.829 531.448 681.545 534.625C679.797 537.788 678.893 541.377 678.928 545.023C678.928 554.419 684.541 562.037 691.466 562.037C698.39 562.037 704.003 554.419 704.003 545.023C704.038 541.377 703.135 537.788 701.387 534.625C703.102 531.448 704.003 527.868 704.003 524.227C704.003 520.586 703.102 517.006 701.387 513.829C703.102 510.653 704.003 507.073 704.003 503.432C704.003 499.791 703.102 496.211 701.387 493.034C703.102 489.857 704.003 486.277 704.003 482.636C704.003 478.995 703.102 475.415 701.387 472.239V472.239Z" fill="#0D191F"/>
<path d="M691.466 458.06C698.39 458.06 704.004 450.442 704.004 441.046C704.004 431.649 698.39 424.031 691.466 424.031C684.541 424.031 678.928 431.649 678.928 441.046C678.928 450.442 684.541 458.06 691.466 458.06Z" fill="#3F3D56"/>
<path d="M691.466 437.265C698.39 437.265 704.004 429.647 704.004 420.25C704.004 410.853 698.39 403.236 691.466 403.236C684.541 403.236 678.928 410.853 678.928 420.25C678.928 429.647 684.541 437.265 691.466 437.265Z" fill="#3F3D56"/>
<path d="M738.401 277.941C740.114 275.68 741.674 273.299 743.07 270.816L710.126 265.207L745.756 265.482C749.174 257.773 751.038 249.422 751.236 240.94C751.433 232.458 749.958 224.023 746.903 216.152L699.101 241.858L743.185 208.266C739.055 200.867 733.5 194.429 726.865 189.354C720.23 184.278 712.658 180.673 704.621 178.763C696.583 176.853 688.253 176.679 680.148 178.253C672.043 179.826 664.337 183.112 657.51 187.907C650.684 192.702 644.883 198.903 640.47 206.123C636.056 213.344 633.124 221.429 631.855 229.875C630.587 238.322 631.011 246.948 633.099 255.217C635.187 263.487 638.896 271.222 643.993 277.941C641.323 281.459 639.027 285.266 637.144 289.294L679.908 312.325L634.31 296.461C631.108 306.272 630.317 316.756 632.008 326.964C633.698 337.172 637.818 346.782 643.993 354.924C637.025 364.107 632.691 375.138 631.486 386.754C630.28 398.37 632.252 410.104 637.176 420.613C642.1 431.123 649.778 439.984 659.331 446.183C668.884 452.382 679.927 455.67 691.197 455.67C702.467 455.67 713.51 452.382 723.063 446.183C732.616 439.984 740.294 431.123 745.218 420.613C750.142 410.104 752.114 398.37 750.908 386.754C749.703 375.138 745.368 364.107 738.401 354.924C746.727 343.95 751.253 330.394 751.253 316.433C751.253 302.471 746.727 288.915 738.401 277.941V277.941Z" fill="#F2F2F2"/>
<path d="M631.141 316.433C631.12 330.398 635.649 343.961 643.993 354.924C637.025 364.107 632.691 375.138 631.485 386.754C630.28 398.37 632.252 410.104 637.176 420.613C642.1 431.123 649.778 439.984 659.331 446.183C668.884 452.382 679.927 455.67 691.197 455.67C702.467 455.67 713.51 452.382 723.063 446.183C732.616 439.984 740.294 431.123 745.218 420.613C750.142 410.104 752.114 398.37 750.908 386.754C749.703 375.138 745.368 364.107 738.401 354.924C746.45 344.331 631.141 309.445 631.141 316.433Z" fill="#F2F2F2"/>
<path d="M738.401 277.941C740.114 275.68 741.674 273.299 743.07 270.816L710.126 265.207L745.756 265.482C749.174 257.773 751.038 249.422 751.236 240.94C751.433 232.458 749.958 224.023 746.903 216.152L699.101 241.858L743.185 208.266C739.055 200.867 733.5 194.429 726.865 189.354C720.23 184.278 712.658 180.673 704.621 178.763C696.583 176.853 688.253 176.679 680.148 178.253C672.043 179.826 664.337 183.112 657.51 187.907C650.684 192.702 644.883 198.903 640.47 206.123C636.056 213.344 633.124 221.429 631.855 229.875C630.587 238.322 631.011 246.948 633.099 255.217C635.187 263.487 638.896 271.222 643.993 277.941C641.323 281.459 639.027 285.266 637.144 289.294L679.908 312.325L634.31 296.461C631.108 306.272 630.317 316.756 632.008 326.964C633.698 337.172 637.818 346.782 643.993 354.924C637.025 364.107 632.691 375.138 631.486 386.754C630.28 398.37 632.252 410.104 637.176 420.613C642.1 431.123 649.778 439.984 659.331 446.183C668.884 452.382 679.927 455.67 691.197 455.67C702.467 455.67 713.51 452.382 723.063 446.183C732.616 439.984 740.294 431.123 745.218 420.613C750.142 410.104 752.114 398.37 750.908 386.754C749.703 375.138 745.368 364.107 738.401 354.924C746.727 343.95 751.253 330.394 751.253 316.433C751.253 302.471 746.727 288.915 738.401 277.941V277.941Z" fill="#E063FF"/>
<path opacity="0.1" d="M631.141 316.433C631.12 330.398 635.649 343.961 643.993 354.924C637.025 364.107 632.691 375.138 631.485 386.754C630.28 398.37 632.252 410.104 637.176 420.613C642.1 431.123 649.778 439.984 659.331 446.183C668.884 452.382 679.927 455.67 691.197 455.67C702.467 455.67 713.51 452.382 723.063 446.183C732.616 439.984 740.294 431.123 745.218 420.613C750.142 410.104 752.114 398.37 750.908 386.754C749.703 375.138 745.368 364.107 738.401 354.924C746.45 344.331 631.141 309.445 631.141 316.433Z" fill="black"/>
<path d="M70.2456 472.239C71.9938 469.075 72.8971 465.486 72.8625 461.841C72.8625 452.444 67.2491 444.827 60.3247 444.827C53.4003 444.827 47.787 452.444 47.787 461.841C47.7524 465.486 48.6557 469.075 50.4039 472.239C48.688 475.415 47.787 478.995 47.787 482.636C47.787 486.277 48.688 489.857 50.4039 493.034C48.688 496.211 47.787 499.791 47.787 503.432C47.787 507.073 48.688 510.653 50.4039 513.829C48.688 517.006 47.787 520.586 47.787 524.227C47.787 527.868 48.688 531.448 50.4039 534.625C48.6557 537.788 47.7524 541.377 47.787 545.023C47.787 554.419 53.4003 562.037 60.3247 562.037C67.2492 562.037 72.8625 554.419 72.8625 545.023C72.8971 541.377 71.9938 537.788 70.2456 534.625C71.9615 531.448 72.8625 527.868 72.8625 524.227C72.8625 520.586 71.9615 517.006 70.2456 513.829C71.9615 510.653 72.8625 507.073 72.8625 503.432C72.8625 499.791 71.9615 496.211 70.2456 493.034C71.9615 489.857 72.8625 486.277 72.8625 482.636C72.8625 478.995 71.9615 475.415 70.2456 472.239V472.239Z" fill="#0D191F"/>
<path d="M60.3247 458.06C67.2492 458.06 72.8625 450.442 72.8625 441.046C72.8625 431.649 67.2492 424.031 60.3247 424.031C53.4003 424.031 47.787 431.649 47.787 441.046C47.787 450.442 53.4003 458.06 60.3247 458.06Z" fill="#3F3D56"/>
<path d="M60.3247 437.265C67.2492 437.265 72.8625 429.647 72.8625 420.25C72.8625 410.853 67.2492 403.236 60.3247 403.236C53.4003 403.236 47.787 410.853 47.787 420.25C47.787 429.647 53.4003 437.265 60.3247 437.265Z" fill="#3F3D56"/>
<path d="M107.26 277.941C108.973 275.68 110.533 273.299 111.929 270.816L78.985 265.207L114.615 265.482C118.033 257.773 119.897 249.422 120.095 240.94C120.292 232.458 118.817 224.023 115.762 216.152L67.96 241.858L112.044 208.266C107.914 200.867 102.359 194.429 95.7239 189.354C89.0891 184.278 81.5172 180.673 73.4797 178.763C65.4423 176.853 57.1116 176.679 49.0066 178.253C40.9015 179.826 33.1958 183.112 26.3695 187.907C19.5431 192.702 13.7424 198.903 9.32858 206.123C4.91479 213.344 1.98252 221.429 0.71443 229.875C-0.553662 238.322 -0.130404 246.948 1.95784 255.217C4.04608 263.487 7.75458 271.222 12.8523 277.941C10.1823 281.459 7.886 285.266 6.00311 289.294L48.7668 312.325L3.16877 296.461C-0.03289 306.272 -0.824123 316.756 0.86667 326.964C2.55746 337.172 6.67692 346.782 12.8523 354.924C5.88452 364.107 1.55008 375.138 0.344529 386.754C-0.861019 398.37 1.11098 410.104 6.03506 420.613C10.9591 431.123 18.6366 439.984 28.1896 446.183C37.7426 452.382 48.7856 455.67 60.056 455.67C71.3265 455.67 82.3695 452.382 91.9225 446.183C101.475 439.984 109.153 431.123 114.077 420.613C119.001 410.104 120.973 398.37 119.768 386.754C118.562 375.138 114.228 364.107 107.26 354.924C115.586 343.95 120.112 330.394 120.112 316.433C120.112 302.471 115.586 288.915 107.26 277.941L107.26 277.941Z" fill="#F2F2F2"/>
<path d="M9.85668e-06 316.433C-0.0207259 330.398 4.50798 343.961 12.8523 354.924C5.88454 364.107 1.5501 375.138 0.344552 386.754C-0.860997 398.37 1.111 410.104 6.03508 420.613C10.9592 431.123 18.6366 439.984 28.1896 446.183C37.7426 452.382 48.7856 455.67 60.056 455.67C71.3265 455.67 82.3695 452.382 91.9225 446.183C101.476 439.984 109.153 431.123 114.077 420.613C119.001 410.104 120.973 398.37 119.768 386.754C118.562 375.138 114.228 364.107 107.26 354.924C115.309 344.331 9.85668e-06 309.445 9.85668e-06 316.433Z" fill="#F2F2F2"/>
<path d="M107.26 277.941C108.973 275.68 110.533 273.299 111.929 270.816L78.985 265.207L114.615 265.482C118.033 257.773 119.897 249.422 120.095 240.94C120.292 232.458 118.817 224.023 115.762 216.152L67.96 241.858L112.044 208.266C107.914 200.867 102.359 194.429 95.7239 189.354C89.0891 184.278 81.5172 180.673 73.4797 178.763C65.4423 176.853 57.1116 176.679 49.0066 178.253C40.9015 179.826 33.1958 183.112 26.3695 187.907C19.5431 192.702 13.7424 198.903 9.32858 206.123C4.91479 213.344 1.98252 221.429 0.71443 229.875C-0.553662 238.322 -0.130404 246.948 1.95784 255.217C4.04608 263.487 7.75458 271.222 12.8523 277.941C10.1823 281.459 7.886 285.266 6.00311 289.294L48.7668 312.325L3.16877 296.461C-0.03289 306.272 -0.824123 316.756 0.86667 326.964C2.55746 337.172 6.67692 346.782 12.8523 354.924C5.88452 364.107 1.55008 375.138 0.344529 386.754C-0.861019 398.37 1.11098 410.104 6.03506 420.613C10.9591 431.123 18.6366 439.984 28.1896 446.183C37.7426 452.382 48.7856 455.67 60.056 455.67C71.3265 455.67 82.3695 452.382 91.9225 446.183C101.475 439.984 109.153 431.123 114.077 420.613C119.001 410.104 120.973 398.37 119.768 386.754C118.562 375.138 114.228 364.107 107.26 354.924C115.586 343.95 120.112 330.394 120.112 316.433C120.112 302.471 115.586 288.915 107.26 277.941L107.26 277.941Z" fill="#E063FF"/>
<path opacity="0.1" d="M9.85668e-06 316.433C-0.0207259 330.398 4.50798 343.961 12.8523 354.924C5.88454 364.107 1.5501 375.138 0.344552 386.754C-0.860997 398.37 1.111 410.104 6.03508 420.613C10.9592 431.123 18.6366 439.984 28.1896 446.183C37.7426 452.382 48.7856 455.67 60.056 455.67C71.3265 455.67 82.3695 452.382 91.9225 446.183C101.476 439.984 109.153 431.123 114.077 420.613C119.001 410.104 120.973 398.37 119.768 386.754C118.562 375.138 114.228 364.107 107.26 354.924C115.309 344.331 9.85668e-06 309.445 9.85668e-06 316.433Z" fill="black"/>
<rect x="364" y="88" width="86.4477" height="43" fill="#9E99E4"/>
<path d="M192 510.98C192 521.305 201.04 530 211.775 530C217.425 530 222.51 527.826 226.465 524.022L289.744 457.723C292.005 455.549 292.005 452.289 289.744 450.115L275.054 435.986C272.794 433.812 269.405 433.812 267.144 435.986L198.215 497.394C194.26 500.655 192 506.089 192 510.98Z" fill="#581A59"/>
<path d="M287.849 448.727L276.69 438.018L293.428 421.954L304.587 432.664L287.849 448.727Z" fill="#B0C4D8"/>
<path d="M284.491 440.611L281.615 443.252L275.865 437.97L293.117 422.121L304.618 432.687L295.992 440.611C292.542 437.441 287.941 437.441 284.491 440.611Z" fill="#99B4CD"/>
<path d="M355.536 437.692C318.152 437.692 287.845 408.812 287.845 373.187C287.845 337.562 318.152 308.682 355.536 308.682C392.921 308.682 423.227 337.562 423.227 373.187C423.227 408.812 392.921 437.692 355.536 437.692Z" fill="#70B7E5" fill-opacity="0.8"/>
<path d="M354.937 292C402.005 292 440 328.264 440 373.187C440 418.11 402.005 454.374 354.937 454.374C307.869 454.374 269.874 418.11 269.874 373.187C269.874 328.264 307.869 292 354.937 292ZM354.937 438.137C392.365 438.137 422.987 408.91 422.987 373.187C422.987 337.465 392.365 308.237 354.937 308.237C317.509 308.237 286.887 337.465 286.887 373.187C286.887 408.909 317.509 438.137 354.937 438.137Z" fill="#C4D7E5"/>
<path d="M388.38 380.199C385.576 359.689 368.751 343.497 347.439 340.799H346.878C337.343 339.719 336.783 326.765 345.756 325.147C351.365 324.067 356.973 324.067 362.581 324.607C384.454 327.845 401.841 344.577 404.645 365.087C405.766 370.484 405.206 376.421 404.084 381.279C402.401 390.455 388.941 389.375 387.819 380.2C388.38 380.739 388.38 380.199 388.38 380.199Z" fill="#92C5EB"/>
<path d="M417.579 378.906C417.579 343.254 387.08 314.084 349.803 314.084C332.294 314.084 317.044 320.566 304.618 330.29C317.044 316.785 335.118 308.682 355.451 308.682C392.728 308.682 423.227 337.852 423.227 373.505C423.227 392.951 414.19 410.237 400.635 422.121C410.801 410.237 417.579 395.652 417.579 378.906Z" fill="#4C9CD6"/>
<path d="M356.135 454.374C308.404 454.374 269.874 418.11 269.874 373.187C272.75 373.187 275.625 375.352 275.625 378.599C276.775 397.002 285.401 413.78 298.628 426.229C311.855 439.219 330.257 447.338 350.384 448.962C353.835 448.962 356.135 451.668 356.135 454.374Z" fill="#B0C9DB"/>
<path d="M356.135 292C402.54 292 440 328.264 440 373.187C437.205 373.187 434.409 371.022 434.409 367.775C433.291 349.913 425.463 333.676 413.722 321.769C400.304 308.237 381.854 299.036 361.726 297.412C358.371 297.412 356.135 294.706 356.135 292Z" fill="#E2E7F0"/>
<path d="M198.36 497.401L201.783 494.692C198.931 497.943 197.22 502.279 197.22 506.614C197.22 513.659 206.345 516.369 211.478 511.492L271.363 454.588C274.786 451.337 279.919 451.337 283.34 454.588L289.043 460.008L226.877 523.414C223.455 526.666 218.892 529.375 214.33 529.918C208.056 530.46 201.782 528.292 197.79 524.498C193.798 520.705 191.516 514.744 192.087 508.782C192.087 504.446 194.938 500.653 198.36 497.401Z" fill="#400655"/>
<path d="M256.764 459.935C257.311 459.935 258.407 459.935 258.955 459.386L272.647 445.686C273.742 444.59 273.742 442.946 272.647 441.85C271.552 440.754 269.909 440.754 268.813 441.85L255.121 455.55C254.026 456.646 254.026 458.29 255.121 459.386C255.12 459.935 256.216 459.935 256.764 459.935Z" fill="#C75CED"/>
<path d="M459.542 68L439.542 58L419.542 68" stroke="black" stroke-width="4"/>
<path d="M447.163 78.1093C445.386 78.4496 444.008 79.1891 442.557 80.586C441.469 81.631 440.828 82.4996 440.104 83.8849C439.511 85.0351 439.1 86.0917 438.834 87.1838L438.617 88.0292L432.017 88.0647L425.405 88.1002L424.438 88.4173C422.396 89.098 422.879 88.6756 410.102 101.073L398.293 112.518L397.798 113.516C396.614 115.852 396.759 118.576 398.16 120.689C398.922 121.828 414.007 136.374 415.071 136.996C417.247 138.252 419.857 138.334 422.203 137.218L423.23 136.737L435.015 125.267C443.863 116.674 446.909 113.645 447.211 113.14C447.429 112.764 447.779 112.002 447.997 111.438L448.372 110.404L448.408 101.834C448.444 93.5697 448.432 93.241 448.202 92.5015C447.864 91.445 447.223 90.4472 446.413 89.7077C445.664 89.0386 444.02 88.1583 443.851 88.3456C443.585 88.6272 443.44 90.3412 443.367 93.9688L443.295 97.8431L442.944 98.4651C442.533 99.1697 441.917 99.7683 441.155 100.156C440.721 100.379 440.455 100.426 439.488 100.426C438.521 100.426 438.255 100.379 437.82 100.156C437.059 99.7683 436.442 99.1697 436.031 98.4651C435.717 97.9013 435.681 97.7372 435.681 96.7278C435.681 95.5188 435.838 95.0842 436.551 94.2627C436.914 93.8403 437.857 93.2061 438.123 93.2061C438.244 93.2061 438.279 93.6407 438.279 95.2133V97.2206L438.63 97.5609C439.125 98.0305 439.851 98.0421 440.334 97.5726L440.673 97.2439L440.733 93.4871C440.806 89.5191 440.915 88.5446 441.543 86.7602C442.715 83.3793 444.94 81.0427 447.466 80.5144C450.174 79.9506 453.05 81.7118 454.707 84.9519C457.414 90.2231 456.52 97.572 452.724 101.129C452.313 101.517 451.782 101.939 451.54 102.068L451.093 102.303V103.619C451.093 104.511 451.141 104.946 451.226 104.946C451.516 104.946 453.039 104.077 453.776 103.49C458.84 99.4286 460.315 90.471 456.979 83.9908C455.94 81.9481 454.199 80.0345 452.531 79.0838C450.934 78.1797 448.855 77.7922 447.163 78.1093Z" fill="#550052"/>
<path d="M413.947 120.889C413.651 120.619 413.339 120.469 413.011 120.44C412.686 120.408 412.36 120.552 412.035 120.871L411.991 120.914L411.947 120.966C411.609 121.298 411.495 121.724 411.607 122.246C411.718 122.76 412.065 123.284 412.647 123.816L412.879 124.028C413.401 124.504 413.902 124.774 414.383 124.838C414.868 124.898 415.257 124.785 415.55 124.498L415.594 124.455C415.935 124.12 416.078 123.748 416.021 123.339C415.964 122.929 415.707 122.516 415.25 122.097C415.182 122.023 415.131 121.971 415.098 121.94L414.794 121.636L414.219 121.11L414.053 120.976C414.016 120.949 413.981 120.92 413.947 120.889ZM411.493 120.246C411.851 119.895 412.02 119.643 412.001 119.49C411.97 119.252 411.724 118.923 411.263 118.502C411.126 118.376 410.97 118.261 410.796 118.158C410.618 118.051 410.506 117.976 410.459 117.933C410.308 117.795 410.235 117.624 410.241 117.42C410.248 117.216 410.357 117.011 410.568 116.803L410.661 116.713C410.918 116.461 411.186 116.425 411.464 116.605C411.665 116.733 412.623 117.581 414.339 119.148L414.935 119.711L415.778 120.481L416.252 120.896C416.329 120.967 416.406 121.037 416.484 121.108L416.6 121.205C416.677 121.269 416.813 121.39 417.008 121.569C417.2 121.744 417.415 121.891 417.652 122.009C417.889 122.12 418.044 122.21 418.118 122.278C418.192 122.345 418.224 122.451 418.213 122.596C418.202 122.74 418.117 122.89 417.958 123.046C417.802 123.2 417.619 123.337 417.409 123.46C417.199 123.577 417.063 123.665 417.001 123.726C416.939 123.786 416.819 123.997 416.64 124.357C416.464 124.714 416.273 124.993 416.068 125.194L415.961 125.299C415.407 125.841 414.783 126.087 414.087 126.037C413.39 125.98 412.728 125.664 412.098 125.089L411.841 124.854C411.511 124.553 411.232 124.202 411.003 123.802C410.774 123.396 410.635 122.985 410.584 122.569C410.487 121.709 410.789 120.935 411.493 120.246ZM419.21 116.517C419.431 116.3 419.552 116.114 419.572 115.96C419.593 115.807 419.558 115.688 419.467 115.605L419.255 115.412C419.013 115.19 418.726 115.092 418.396 115.116C418.065 115.141 417.797 115.254 417.592 115.455L417.465 115.579C417.169 115.869 417.04 116.241 417.077 116.695C417.112 117.145 417.282 117.51 417.588 117.79L417.674 117.868C417.792 117.976 417.955 117.928 418.163 117.724L418.275 117.614L418.3 117.58L418.641 117.198L418.864 116.941L419.01 116.76C419.036 116.728 419.07 116.685 419.112 116.631C419.158 116.574 419.19 116.536 419.21 116.517ZM422.048 119.489L421.833 119.699C421.182 120.337 420.432 120.641 419.584 120.612C419.206 120.6 418.814 120.5 418.407 120.313C417.996 120.123 417.638 119.888 417.332 119.608L417.105 119.401C416.798 119.121 416.539 118.767 416.326 118.338C415.908 117.506 415.866 116.703 416.2 115.93C416.368 115.529 416.617 115.168 416.946 114.846L417.053 114.74C417.509 114.294 418.028 114.056 418.61 114.027C418.944 114.012 419.27 114.069 419.586 114.198C419.903 114.321 420.154 114.467 420.339 114.636C420.746 115.008 420.888 115.372 420.765 115.728C420.68 115.971 420.372 116.423 419.84 117.084C419.312 117.741 419.027 118.106 418.985 118.179C418.776 118.524 418.766 118.783 418.954 118.955C419.281 119.253 419.698 119.36 420.206 119.276C420.579 119.217 420.963 118.994 421.357 118.608C421.507 118.461 421.7 118.179 421.938 117.761C422.176 117.344 422.311 117.119 422.343 117.087C422.513 116.921 422.676 116.91 422.835 117.055C423.033 117.236 423.048 117.595 422.878 118.13C422.709 118.659 422.432 119.112 422.048 119.489ZM425.77 114.513L425.921 114.365C426.224 114.068 426.356 113.684 426.318 113.212C426.297 112.952 426.085 112.638 425.681 112.269L425.621 112.204L425.494 112.089C425.242 111.858 425.015 111.842 424.813 112.04L424.657 112.193L424.423 112.46L424.306 112.603C424.007 112.896 423.849 113.217 423.832 113.565C423.811 113.91 423.92 114.192 424.159 114.41L424.336 114.571C424.517 114.737 424.744 114.827 425.016 114.841C425.288 114.849 425.539 114.74 425.77 114.513ZM428.483 112.314C428.708 112.52 428.601 112.838 428.162 113.269C428.084 113.345 427.9 113.449 427.611 113.579C427.322 113.703 427.15 113.792 427.094 113.846C427.042 113.897 426.925 114.123 426.744 114.524C426.559 114.922 426.352 115.233 426.124 115.456L426.012 115.566C425.657 115.914 425.232 116.105 424.736 116.138C424.236 116.169 423.778 115.994 423.361 115.613C422.513 114.838 422.504 113.847 423.334 112.639C423.87 111.852 424.144 111.443 424.157 111.412C424.232 111.179 424.16 110.962 423.942 110.762C423.72 110.56 423.466 110.458 423.181 110.456C422.897 110.449 422.637 110.56 422.403 110.789C422.171 111.016 421.98 111.359 421.829 111.819C421.675 112.276 421.539 112.562 421.422 112.677C421.211 112.884 420.955 112.851 420.656 112.577C420.467 112.405 420.455 112.079 420.619 111.6C420.786 111.118 421.083 110.668 421.509 110.25L421.753 110.011C422.072 109.699 422.418 109.478 422.79 109.349C423.162 109.221 423.519 109.189 423.861 109.256C424.346 109.347 425.123 109.882 426.193 110.86C426.799 111.413 427.187 111.746 427.358 111.859C427.532 111.969 427.738 112.05 427.978 112.102C428.214 112.151 428.382 112.222 428.483 112.314ZM423.133 105.096C422.867 104.853 422.946 104.524 423.369 104.109L423.457 104.023C423.759 103.727 424.06 103.678 424.358 103.876L425.453 104.877L425.822 105.232L426.009 105.403L426.569 105.943L426.756 106.113L426.852 106.21C426.916 106.269 426.98 106.327 427.044 106.385L427.135 106.478C427.199 106.536 427.263 106.595 427.327 106.653L427.418 106.745L427.892 107.179L428.553 107.755C428.616 107.807 428.771 107.945 429.017 108.169C429.262 108.394 429.556 108.603 429.897 108.798C430.238 108.986 430.539 109.108 430.802 109.163C431.061 109.215 431.248 109.293 431.362 109.397C431.477 109.502 431.509 109.661 431.46 109.875C431.414 110.086 431.264 110.315 431.01 110.564L430.839 110.732C430.38 111.181 429.962 111.234 429.586 110.89C429.559 110.865 429.484 110.772 429.362 110.612C429.24 110.451 428.984 110.189 428.594 109.826L427.417 108.695L427.326 108.603C427.262 108.545 427.198 108.486 427.134 108.428L426.947 108.248C426.883 108.189 426.819 108.131 426.755 108.073L426.664 107.98C426.6 107.922 426.536 107.863 426.473 107.805L426.286 107.625C426.222 107.567 426.158 107.508 426.094 107.45L425.907 107.27L425.71 107.09L425.523 106.91L424.575 106.043C424.191 105.693 423.869 105.46 423.609 105.346C423.349 105.231 423.19 105.148 423.133 105.096ZM430.565 105.821C430.029 105.862 429.56 105.698 429.156 105.329C428.749 104.957 428.585 104.49 428.665 103.928C428.741 103.363 429.038 102.826 429.555 102.319C430.073 101.812 430.516 101.502 430.885 101.389C431.251 101.273 431.538 101.31 431.746 101.501C432.032 101.762 432.086 101.981 431.907 102.156C431.845 102.217 431.611 102.315 431.206 102.45C430.802 102.586 430.474 102.776 430.223 103.022C429.973 103.267 429.843 103.506 429.833 103.738C429.827 103.967 429.917 104.166 430.102 104.335C430.287 104.504 430.572 104.537 430.958 104.433C431.09 104.399 431.471 104.249 432.102 103.981C432.733 103.706 433.222 103.555 433.569 103.527C434.112 103.487 434.59 103.655 435.003 104.033C435.417 104.412 435.598 104.894 435.545 105.481C435.492 106.061 435.202 106.61 434.675 107.126C433.78 108.003 433.045 108.383 432.47 108.264C432.287 108.227 432.152 108.168 432.065 108.088C431.772 107.821 431.713 107.601 431.889 107.429C431.941 107.378 432.223 107.274 432.733 107.118C433.243 106.956 433.627 106.748 433.884 106.496C434.145 106.241 434.293 105.988 434.328 105.737C434.363 105.486 434.283 105.271 434.088 105.093C433.89 104.911 433.589 104.862 433.187 104.944C433.022 104.978 432.629 105.127 432.008 105.392C431.383 105.653 430.902 105.797 430.565 105.821Z" fill="white"/>
<path d="M337.148 86.4902C337.137 86.4902 337.119 86.4902 337.096 86.4902C335.748 86.4902 335.074 86.0273 335.074 85.1016C335.074 84.6562 335.191 84.1055 335.426 83.4492C335.66 82.793 335.795 82.1309 335.83 81.4629C335.865 80.7832 335.883 79.7461 335.883 78.3516V75.0645L335.918 74.1504C335.941 73.541 335.953 73.1074 335.953 72.8496L335.777 71.0391C335.777 70.6289 336.141 70.4238 336.867 70.4238C337.605 70.4238 338.361 70.623 339.135 71.0215C339.908 71.4199 340.383 71.6191 340.559 71.6191C340.746 71.6191 341.092 71.502 341.596 71.2676C342.111 71.0332 342.715 70.7812 343.406 70.5117C344.109 70.2305 344.83 70.0898 345.568 70.0898H346.025C346.904 70.0898 347.684 70.3301 348.363 70.8105C349.055 71.2793 349.553 71.9355 349.857 72.7793C350.174 73.6113 350.396 75.1465 350.525 77.3848L350.578 78.3516L350.613 79.3184C350.648 79.8809 350.689 80.4902 350.736 81.1465C350.783 81.8027 350.941 82.4941 351.211 83.2207C351.48 83.9355 351.615 84.416 351.615 84.6621C351.615 85.7051 350.818 86.2266 349.225 86.2266C348.545 86.2266 348.047 86.0918 347.73 85.8223C347.414 85.541 347.256 85.0723 347.256 84.416L347.291 83.7656C347.291 79.207 346.963 76.1016 346.307 74.4492C345.791 73.1719 344.883 72.5332 343.582 72.5332C342.961 72.5332 342.352 72.6914 341.754 73.0078C341.168 73.3125 340.711 73.8105 340.383 74.502C339.797 75.7324 339.504 78.0996 339.504 81.6035L339.645 84.7852C339.645 85.2891 339.404 85.6992 338.924 86.0156C338.443 86.332 337.852 86.4902 337.148 86.4902ZM356.906 87.0703H356.467C355.482 87.0703 354.99 86.7422 354.99 86.0859C354.99 86.0391 355.834 84.8145 357.521 82.4121C359.221 79.998 360.07 78.6035 360.07 78.2285C360.07 77.8535 359.314 76.582 357.803 74.4141C357.381 73.8047 356.818 73.1133 356.115 72.3398C355.424 71.5547 355.078 71.0156 355.078 70.7227C355.078 70.0547 355.916 69.7207 357.592 69.7207C358.811 69.7207 359.666 70.0254 360.158 70.6348C360.252 70.752 360.369 71.0039 360.51 71.3906C360.65 71.7656 360.908 72.2988 361.283 72.9902C362.104 74.4902 362.689 75.2402 363.041 75.2402C363.322 75.2402 363.938 74.4668 364.887 72.9199C365.262 72.3105 365.543 71.7422 365.73 71.2148C365.93 70.6875 366.064 70.377 366.135 70.2832C366.486 69.8262 367.037 69.5977 367.787 69.5977C369.205 69.5977 369.914 69.8496 369.914 70.3535C369.914 70.6465 369.1 71.8301 367.471 73.9043C365.842 75.9785 365.027 77.3203 365.027 77.9297C365.027 78.5273 365.895 79.9746 367.629 82.2715C368.203 83.0332 368.807 83.7246 369.439 84.3457C370.084 84.9668 370.406 85.4531 370.406 85.8047C370.406 86.4609 369.434 86.7949 367.488 86.8066C366.516 86.8066 365.812 86.5312 365.379 85.9805C365.297 85.875 365.156 85.5996 364.957 85.1543C364.77 84.709 364.541 84.252 364.271 83.7832C363.217 81.9668 362.549 81.0586 362.268 81.0586C361.916 81.0586 361.236 81.8965 360.229 83.5723C359.936 84.0645 359.672 84.627 359.438 85.2598C359.215 85.8809 359.08 86.2266 359.033 86.2969C358.658 86.8125 357.949 87.0703 356.906 87.0703ZM380.689 86.9297H380.021C378.334 86.9297 377.121 86.2031 376.383 84.75C375.773 83.5664 375.469 81.6211 375.469 78.9141C375.469 76.207 375.322 74.3496 375.029 73.3418C374.924 72.9668 374.631 72.5391 374.15 72.0586C373.67 71.5781 373.43 71.1621 373.43 70.8105V70.582C373.43 70.2773 373.705 69.9434 374.256 69.5801C374.807 69.2168 375.123 68.959 375.205 68.8066C375.299 68.6426 375.475 68.0742 375.732 67.1016C376.002 66.1172 376.277 65.4316 376.559 65.0449C376.852 64.6465 377.238 64.4473 377.719 64.4473C378.211 64.4473 378.557 64.5879 378.756 64.8691C378.967 65.1504 379.172 65.7305 379.371 66.6094C379.582 67.4883 379.811 68.0859 380.057 68.4023C380.303 68.707 380.9 69.0293 381.85 69.3691C382.799 69.709 383.273 70.1309 383.273 70.6348C383.273 71.0801 382.775 71.4785 381.779 71.8301C380.795 72.1816 380.174 72.6152 379.916 73.1309C379.424 74.127 379.178 75.8906 379.178 78.4219C379.178 80.9531 379.395 82.5059 379.828 83.0801C380.262 83.6426 380.965 83.9883 381.938 84.1172C382.922 84.2461 383.414 84.6152 383.414 85.2246C383.414 85.6934 383.133 86.0977 382.57 86.4375C382.02 86.7656 381.393 86.9297 380.689 86.9297ZM387.686 78.4395C387.17 78.4395 386.912 78.1406 386.912 77.543V77.1387C386.912 76.3535 387.094 75.9023 387.457 75.7852C387.82 75.6562 389.496 75.5918 392.484 75.5918L395.93 75.5391H396.58C397.26 75.5391 397.6 75.8438 397.6 76.4531V76.8398C397.576 77.0039 397.564 77.1328 397.564 77.2266C397.564 77.8125 397.342 78.1582 396.896 78.2637C396.463 78.3574 394.834 78.4043 392.01 78.4043H391.219L390.832 78.4219H390.041L389.514 78.4395H387.686ZM412.541 75.2051C412.541 74.1738 412.283 73.3359 411.768 72.6914C411.264 72.0469 410.426 71.7246 409.254 71.7246H409.096L408.92 71.7422C407.701 71.7422 406.693 72.3223 405.896 73.4824C405.111 74.6309 404.719 76.2188 404.719 78.2461V79.0547C404.719 80.8711 405.076 82.2715 405.791 83.2559C406.518 84.2402 407.408 84.7324 408.463 84.7324H408.621C409.852 84.7324 410.807 84.3047 411.486 83.4492C412.166 82.5938 412.506 81.3691 412.506 79.7754C412.529 79.5176 412.541 79.3301 412.541 79.2129L412.594 78.1055V76.1016L412.559 75.5566C412.547 75.4395 412.541 75.3223 412.541 75.2051ZM409.5 69.5977C410.789 69.5977 411.562 69.4395 411.82 69.123C412.219 68.6309 412.418 67.582 412.418 65.9766C412.418 65.4961 412.365 65.0039 412.26 64.5C412.154 63.9844 412.102 63.6445 412.102 63.4805C412.102 62.9531 412.301 62.5078 412.699 62.1445C413.098 61.7812 413.678 61.5996 414.439 61.5996H414.773C415.699 61.5996 416.232 62.0156 416.373 62.8477C416.479 63.4453 416.531 66.7324 416.531 72.709L416.496 74.8184V77.7539L416.531 79.3711C416.531 79.6406 416.531 79.9102 416.531 80.1797L416.549 80.5664C416.561 80.8242 416.566 81.293 416.566 81.9727C416.566 82.6406 416.66 83.2969 416.848 83.9414C417.047 84.5742 417.146 85.0195 417.146 85.2773C417.146 85.5352 417 85.7871 416.707 86.0332C416.414 86.2793 415.98 86.4023 415.406 86.4023C414.844 86.4023 414.264 86.3262 413.666 86.1738C413.08 86.0098 412.676 85.9277 412.453 85.9277C412.23 85.9277 411.621 86.0977 410.625 86.4375C409.641 86.7773 408.779 86.9473 408.041 86.9473H407.654C405.662 86.9473 404.109 86.2734 402.996 84.9258C401.895 83.5664 401.344 81.791 401.344 79.5996V78.7031C401.344 77.5547 401.525 76.4062 401.889 75.2578C402.264 74.0977 402.803 73.0898 403.506 72.2344C404.971 70.4766 406.969 69.5977 409.5 69.5977ZM428.625 84.9609H428.977C430.16 84.9609 431.133 84.4395 431.895 83.3965C432.656 82.3535 433.037 81.0352 433.037 79.4414L433.072 79.0547L433.09 78.457V77.666C433.09 75.9199 432.732 74.4844 432.018 73.3594C431.314 72.2227 430.371 71.6543 429.188 71.6543H428.836C427.676 71.6543 426.697 72.2285 425.9 73.377C425.115 74.5254 424.723 76.0488 424.723 77.9473V79.1426C424.746 79.4238 424.758 79.6172 424.758 79.7227C424.758 81.0586 425.127 82.2656 425.865 83.3438C426.604 84.4219 427.523 84.9609 428.625 84.9609ZM437.062 77.9121V78.4922C437.062 79.5352 436.893 80.6074 436.553 81.709C435.861 83.9473 434.502 85.5527 432.475 86.5254C431.303 87.0879 430.143 87.3691 428.994 87.3691H428.396C427.307 87.3691 426.293 87.1465 425.355 86.7012C423.492 85.8105 422.256 84.334 421.646 82.2715C421.318 81.1816 421.154 80.0742 421.154 78.9492V78.0527C421.154 76.9512 421.324 75.8496 421.664 74.748C422.332 72.5684 423.656 71.0098 425.637 70.0723C426.656 69.5801 427.699 69.334 428.766 69.334H429.645C430.652 69.334 431.648 69.5508 432.633 69.9844C434.602 70.8516 435.926 72.3984 436.605 74.625C436.91 75.6094 437.062 76.7051 437.062 77.9121ZM447.891 84.9609H448.242C449.426 84.9609 450.398 84.4395 451.16 83.3965C451.922 82.3535 452.303 81.0352 452.303 79.4414L452.338 79.0547L452.355 78.457V77.666C452.355 75.9199 451.998 74.4844 451.283 73.3594C450.58 72.2227 449.637 71.6543 448.453 71.6543H448.102C446.941 71.6543 445.963 72.2285 445.166 73.377C444.381 74.5254 443.988 76.0488 443.988 77.9473V79.1426C444.012 79.4238 444.023 79.6172 444.023 79.7227C444.023 81.0586 444.393 82.2656 445.131 83.3438C445.869 84.4219 446.789 84.9609 447.891 84.9609ZM456.328 77.9121V78.4922C456.328 79.5352 456.158 80.6074 455.818 81.709C455.127 83.9473 453.768 85.5527 451.74 86.5254C450.568 87.0879 449.408 87.3691 448.26 87.3691H447.662C446.572 87.3691 445.559 87.1465 444.621 86.7012C442.758 85.8105 441.521 84.334 440.912 82.2715C440.584 81.1816 440.42 80.0742 440.42 78.9492V78.0527C440.42 76.9512 440.59 75.8496 440.93 74.748C441.598 72.5684 442.922 71.0098 444.902 70.0723C445.922 69.5801 446.965 69.334 448.031 69.334H448.91C449.918 69.334 450.914 69.5508 451.898 69.9844C453.867 70.8516 455.191 72.3984 455.871 74.625C456.176 75.6094 456.328 76.7051 456.328 77.9121ZM468.527 73.1133C467.426 73.1133 466.57 73.6641 465.961 74.7656C465.352 75.8555 465.047 77.5254 465.047 79.7754C465.047 80.7715 465.088 81.4805 465.17 81.9023C465.252 82.3125 465.375 82.8281 465.539 83.4492C465.715 84.0586 465.803 84.5918 465.803 85.0488C465.803 85.4941 465.533 85.9043 464.994 86.2793C464.455 86.6543 463.752 86.8418 462.885 86.8418L462.586 86.8242H462.27C461.707 86.8242 461.238 86.666 460.863 86.3496C460.5 86.0332 460.318 85.6758 460.318 85.2773V84.9961C460.318 84.9141 460.43 84.5273 460.652 83.8359C460.875 83.1445 461.004 82.4766 461.039 81.832C461.074 81.1875 461.092 80.3203 461.092 79.2305V77.2793L461.074 76.9629C461.074 76.752 461.074 76.541 461.074 76.3301L461.039 75.3809C461.027 75.1699 461.021 74.7598 461.021 74.1504C461.021 73.5293 460.91 72.9434 460.688 72.3926C460.477 71.8301 460.371 71.4668 460.371 71.3027C460.371 70.5996 460.986 70.248 462.217 70.248C463.447 70.248 464.338 70.582 464.889 71.25C465.053 71.4492 465.223 71.5488 465.398 71.5488C465.586 71.5488 465.891 71.4023 466.312 71.1094C467.484 70.3125 468.469 69.9141 469.266 69.9141H469.547C470.25 69.9141 470.783 70.0723 471.146 70.3887C471.521 70.7051 471.709 71.127 471.709 71.6543C471.709 72.6973 471.129 73.2188 469.969 73.2188C469.512 73.1484 469.031 73.1133 468.527 73.1133Z" fill="black"/>
<line y1="-1.5" x2="4.81025" y2="-1.5" transform="matrix(0.726399 0.687274 -0.726399 0.687274 450.533 80.3376)" stroke="#550052" stroke-width="3"/>
</g>
<defs>
<clipPath id="clip0">
<rect width="752" height="590" fill="white"/>
</clipPath>
</defs>
</svg>
