<svg width="801" height="178" viewBox="0 0 801 178" fill="none" xmlns="http://www.w3.org/2000/svg">
<rect x="0.992554" width="800.007" height="178" fill="white"/>
<rect x="1" width="800" height="155" fill="#DFAAFF"/>
<path opacity="0.1" d="M135.895 74H67.1054C64.2858 74 62 76.1342 62 78.7668V96.8934C62 99.526 64.2858 101.66 67.1054 101.66H135.895C138.714 101.66 141 99.526 141 96.8934V78.7668C141 76.1342 138.714 74 135.895 74Z" fill="#1E0728"/>
<path opacity="0.1" d="M461.895 67H393.105C390.286 67 388 69.1342 388 71.7668V89.8934C388 92.526 390.286 94.6602 393.105 94.6602H461.895C464.714 94.6602 467 92.526 467 89.8934V71.7668C467 69.1342 464.714 67 461.895 67Z" fill="#1E0728"/>
<path opacity="0.1" d="M299.895 110H231.105C228.286 110 226 112.134 226 114.767V132.893C226 135.526 228.286 137.66 231.105 137.66H299.895C302.714 137.66 305 135.526 305 132.893V114.767C305 112.134 302.714 110 299.895 110Z" fill="#1E0728"/>
<path opacity="0.1" d="M750.895 117H682.105C679.286 117 677 119.134 677 121.767V139.893C677 142.526 679.286 144.66 682.105 144.66H750.895C753.714 144.66 756 142.526 756 139.893V121.767C756 119.134 753.714 117 750.895 117Z" fill="#1E0728"/>
<path opacity="0.1" d="M617.895 25H549.105C546.286 25 544 27.1342 544 29.7668V47.8934C544 50.526 546.286 52.6602 549.105 52.6602H617.895C620.714 52.6602 623 50.526 623 47.8934V29.7668C623 27.1342 620.714 25 617.895 25Z" fill="#1E0728"/>
<path opacity="0.1" d="M232.895 25H164.105C161.286 25 159 27.1342 159 29.7668V47.8934C159 50.526 161.286 52.6602 164.105 52.6602H232.895C235.714 52.6602 238 50.526 238 47.8934V29.7668C238 27.1342 235.714 25 232.895 25Z" fill="#1E0728"/>
<g opacity="0.5">
<path opacity="0.5" d="M200.457 15L130.853 15.1595C130.478 15.1603 130.106 15.2306 129.759 15.3665C129.413 15.5024 129.098 15.7012 128.833 15.9516C128.568 16.2019 128.358 16.4989 128.215 16.8255C128.072 17.1522 127.999 17.5021 128 17.8554L128.306 140.318C128.307 140.672 128.382 141.022 128.528 141.349C128.673 141.676 128.885 141.972 129.153 142.221C129.42 142.47 129.737 142.667 130.086 142.801C130.434 142.935 130.808 143.002 131.184 143L200.788 142.84C201.164 142.84 201.535 142.769 201.882 142.633C202.229 142.498 202.543 142.299 202.808 142.048C203.073 141.798 203.283 141.501 203.426 141.174C203.569 140.848 203.642 140.498 203.641 140.145L203.325 17.6801C203.323 16.9671 203.019 16.2842 202.481 15.7816C201.943 15.2791 201.216 14.9979 200.457 15V15Z" fill="url(#paint0_linear)"/>
</g>
<path d="M199.45 16.6701L131.87 16.8254C130.293 16.8291 129.018 18.0346 129.022 19.518L129.331 138.591C129.335 140.075 130.616 141.274 132.193 141.271L199.773 141.115C201.35 141.112 202.625 139.906 202.621 138.423L202.312 19.3495C202.308 17.8661 201.027 16.6665 199.45 16.6701Z" fill="white"/>
<path opacity="0.4" d="M184.079 19.8266C183.871 21.1465 183.167 22.3528 182.095 23.2272C181.024 24.1016 179.655 24.5865 178.236 24.5941L152.919 24.6492C151.502 24.6468 150.132 24.1678 149.057 23.2986C147.982 22.4293 147.273 21.2272 147.058 19.9093L133.65 19.9408C133.284 19.9416 132.923 20.0101 132.585 20.1424C132.248 20.2748 131.941 20.4683 131.683 20.7121C131.425 20.9558 131.221 21.245 131.082 21.563C130.942 21.8811 130.871 22.2218 130.872 22.5658L131.163 135.535C131.164 135.879 131.237 136.22 131.378 136.537C131.519 136.855 131.725 137.143 131.984 137.386C132.244 137.629 132.552 137.821 132.891 137.952C133.229 138.082 133.592 138.149 133.958 138.148L198.015 138.002C198.38 138.001 198.742 137.933 199.079 137.8C199.417 137.668 199.723 137.474 199.981 137.231C200.239 136.987 200.444 136.698 200.583 136.38C200.722 136.062 200.793 135.721 200.792 135.377L200.501 22.4082C200.501 22.0643 200.428 21.7239 200.287 21.4064C200.146 21.0889 199.941 20.8007 199.682 20.558C199.422 20.3153 199.115 20.1231 198.777 19.9922C198.439 19.8613 198.077 19.7943 197.711 19.7951L184.079 19.8266Z" fill="#6C63FF"/>
<g opacity="0.5">
<path opacity="0.5" d="M187.652 48.7192C187.652 45.2515 186.697 41.8431 184.881 38.8255C183.065 35.808 180.449 33.2841 177.289 31.4995C174.128 29.715 170.53 28.7305 166.845 28.642C163.16 28.5534 159.514 29.3638 156.261 30.9942C153.007 32.6247 150.258 35.0196 148.281 37.946C146.303 40.8724 145.165 44.2306 144.976 47.6936C144.787 51.1567 145.555 54.6067 147.204 57.7079C148.853 60.8092 151.328 63.4559 154.387 65.3906L154.399 65.4793C155.097 66.1083 155.92 66.6009 156.821 66.9286L156.849 66.84C157.847 67.6474 162.057 68.9392 166.897 68.9274H167.001C170.066 68.9274 173.39 68.4193 176.315 66.9306C176.315 66.9306 176.34 66.8774 176.38 66.779C177.121 66.4512 177.801 66.013 178.393 65.4812C178.405 65.4051 178.416 65.3289 178.427 65.2528C181.274 63.4068 183.602 60.9373 185.209 58.057C186.816 55.1768 187.655 51.9721 187.652 48.7192V48.7192Z" fill="url(#paint1_linear)"/>
</g>
<path d="M166.3 68.2046C177.739 68.2046 187.012 59.4816 187.012 48.7211C187.012 37.9606 177.739 29.2375 166.3 29.2375C154.861 29.2375 145.588 37.9606 145.588 48.7211C145.588 59.4816 154.861 68.2046 166.3 68.2046Z" fill="#F5F5F5"/>
<path d="M172.746 21.2551L157.252 21.4739C157.021 21.4772 156.837 21.6561 156.84 21.8736L156.843 22.0469C156.846 22.2644 157.037 22.438 157.268 22.4348L172.761 22.216C172.992 22.2127 173.177 22.0338 173.173 21.8163L173.171 21.643C173.167 21.4255 172.977 21.2518 172.746 21.2551Z" fill="#DBDBDB"/>
<path d="M176.652 22.1611C176.99 22.1564 177.261 21.8942 177.256 21.5756C177.251 21.2569 176.972 21.0025 176.633 21.0073C176.294 21.0121 176.024 21.2743 176.029 21.5929C176.034 21.9115 176.313 22.1659 176.652 22.1611Z" fill="#DBDBDB"/>
<path d="M182 76.0244H148.088V79.5691H182V76.0244Z" fill="#F5F5F5"/>
<path d="M189.536 83.1137H140.552V86.6583H189.536V83.1137Z" fill="#F5F5F5"/>
<path d="M158.387 56.7319C158.387 56.7319 153.453 57.112 154.757 65.5698C155.434 66.1799 156.232 66.6578 157.106 66.9759L159.882 58.138L158.387 56.7319Z" fill="#FDA57D"/>
<path d="M174.401 56.7319C174.401 56.7319 179.335 57.112 178.031 65.5698C177.355 66.1799 176.557 66.6578 175.683 66.9759L172.907 58.138L174.401 56.7319Z" fill="#FDA57D"/>
<path d="M158.601 42.8725C158.601 42.8725 156.252 49.3001 154.971 48.6975C154.971 48.6975 167.322 58.7406 178.245 48.6975C178.245 48.6975 176.323 45.4837 173.547 42.8725H158.601Z" fill="#333333"/>
<path d="M166.526 50.9069C171.597 50.9069 175.708 47.04 175.708 42.2699C175.708 37.4998 171.597 33.6328 166.526 33.6328C161.455 33.6328 157.345 37.4998 157.345 42.2699C157.345 47.04 161.455 50.9069 166.526 50.9069Z" fill="#333333"/>
<path opacity="0.1" d="M174.307 56.7319H158.293L156.798 62.7578C156.798 62.7578 155.921 65.5482 157.008 66.775C158.094 68.0018 168.301 70.7922 175.798 66.9719C176.45 65.3647 176.523 63.6007 176.007 61.9504C175.153 59.1383 175.798 61.7535 175.798 61.7535L174.307 56.7319Z" fill="black"/>
<path opacity="0.1" d="M174.521 56.7319H158.507L157.012 62.7578C157.012 62.7578 156.135 65.5482 157.221 66.775C158.308 68.0018 168.515 70.7922 176.011 66.9719C176.663 65.3647 176.737 63.6007 176.221 61.9504C175.366 59.1383 176.011 61.7535 176.011 61.7535L174.521 56.7319Z" fill="black"/>
<path d="M174.401 56.7319H158.387L156.893 62.7578C156.893 62.7578 156.015 65.5482 157.102 66.775C158.188 68.0018 168.396 70.7922 175.892 66.9719C176.544 65.3647 176.618 63.6007 176.101 61.9504C175.247 59.1383 175.892 61.7535 175.892 61.7535L174.401 56.7319Z" fill="#6C63FF"/>
<path opacity="0.1" d="M163.29 51.734H169.696V56.5488C169.696 57.3479 169.358 58.1142 168.757 58.6792C168.157 59.2443 167.342 59.5617 166.493 59.5617V59.5617C165.643 59.5617 164.829 59.2443 164.228 58.6792C163.627 58.1142 163.29 57.3479 163.29 56.5488V51.734Z" fill="black"/>
<path d="M163.29 51.5095H169.696V56.3302C169.696 57.1293 169.358 57.8956 168.757 58.4606C168.157 59.0257 167.342 59.3431 166.493 59.3431V59.3431C165.643 59.3431 164.829 59.0257 164.228 58.4606C163.627 57.8956 163.29 57.1293 163.29 56.3302V51.5095Z" fill="#FDA57D"/>
<path opacity="0.1" d="M163.311 52.3799C165.375 53.106 167.648 53.1115 169.717 52.3957V51.6553H163.311V52.3799Z" fill="black"/>
<path d="M166.526 52.7816C171.597 52.7816 175.708 48.9147 175.708 44.1446C175.708 39.3745 171.597 35.5076 166.526 35.5076C161.455 35.5076 157.345 39.3745 157.345 44.1446C157.345 48.9147 161.455 52.7816 166.526 52.7816Z" fill="#FDA57D"/>
<path d="M157.747 40.8639H175.256C175.256 40.8639 173.761 34.2138 167.142 34.6372C160.522 35.0605 157.747 40.8639 157.747 40.8639Z" fill="#333333"/>
<path d="M157.533 45.2828C158.005 45.2828 158.387 44.6083 158.387 43.7763C158.387 42.9443 158.005 42.2699 157.533 42.2699C157.061 42.2699 156.679 42.9443 156.679 43.7763C156.679 44.6083 157.061 45.2828 157.533 45.2828Z" fill="#FDA57D"/>
<path d="M175.469 45.2828C175.941 45.2828 176.323 44.6083 176.323 43.7763C176.323 42.9443 175.941 42.2699 175.469 42.2699C174.997 42.2699 174.615 42.9443 174.615 43.7763C174.615 44.6083 174.997 45.2828 175.469 45.2828Z" fill="#FDA57D"/>
<path opacity="0.1" d="M157.747 41.0883H175.256C175.256 41.0883 173.761 34.4382 167.142 34.8616C160.522 35.285 157.747 41.0883 157.747 41.0883Z" fill="black"/>
<g opacity="0.5">
<path opacity="0.5" d="M198.067 56.0441L159.629 78.9597C159.422 79.0833 159.239 79.2454 159.091 79.4368C158.943 79.6282 158.833 79.8451 158.767 80.0751C158.701 80.3051 158.68 80.5438 158.706 80.7775C158.732 81.0112 158.804 81.2353 158.918 81.437L198.45 151.366C198.565 151.568 198.719 151.744 198.904 151.883C199.09 152.022 199.302 152.122 199.53 152.177C199.758 152.231 199.997 152.24 200.233 152.202C200.469 152.164 200.697 152.081 200.904 151.956L239.342 129.04C239.549 128.917 239.732 128.755 239.88 128.563C240.028 128.372 240.138 128.155 240.204 127.925C240.27 127.695 240.291 127.456 240.265 127.222C240.239 126.989 240.167 126.765 240.053 126.563L200.514 56.6363C200.283 56.2294 199.896 55.9385 199.437 55.8274C198.978 55.7164 198.485 55.7943 198.067 56.0441V56.0441Z" fill="url(#paint2_linear)"/>
</g>
<path d="M198.045 57.3291L160.726 79.5785C159.855 80.0977 159.537 81.2053 160.016 82.0523L198.461 150.042C198.94 150.889 200.035 151.155 200.905 150.636L238.225 128.386C239.096 127.867 239.413 126.759 238.934 125.912L200.489 57.9228C200.01 57.0757 198.916 56.81 198.045 57.3291Z" fill="white"/>
<path opacity="0.3" d="M190.561 64.1749C190.87 64.9981 190.869 65.9186 190.557 66.77C190.246 67.6214 189.645 68.3475 188.863 68.817L174.881 77.1505C174.097 77.6139 173.185 77.7892 172.311 77.6446C171.438 77.5 170.659 77.0451 170.116 76.3621L162.712 80.7768C162.51 80.8971 162.332 81.055 162.188 81.2413C162.044 81.4276 161.937 81.6388 161.873 81.8628C161.808 82.0868 161.788 82.3191 161.814 82.5467C161.839 82.7742 161.909 82.9924 162.02 83.1888L198.493 147.694C198.604 147.89 198.754 148.061 198.934 148.197C199.114 148.332 199.321 148.43 199.542 148.483C199.764 148.537 199.996 148.546 200.225 148.51C200.454 148.473 200.676 148.392 200.878 148.272L236.253 127.183C236.454 127.063 236.633 126.905 236.777 126.718C236.921 126.532 237.028 126.321 237.092 126.097C237.157 125.873 237.177 125.641 237.151 125.413C237.126 125.186 237.056 124.967 236.945 124.771L200.472 60.266C200.361 60.0696 200.211 59.8988 200.032 59.7634C199.852 59.628 199.645 59.5306 199.424 59.4768C199.203 59.423 198.971 59.4139 198.742 59.4499C198.513 59.4859 198.291 59.5664 198.089 59.6867L190.561 64.1749Z" fill="#6C63FF"/>
<g opacity="0.5">
<path opacity="0.5" d="M201.824 79.5251C200.709 77.5424 199.086 75.9063 197.112 74.7763C195.137 73.6463 192.88 73.0607 190.559 73.0766C188.237 73.0925 185.931 73.7094 183.865 74.8671C181.799 76.0249 180.043 77.684 178.768 79.6832C177.493 81.6824 176.743 83.9534 176.59 86.2753C176.437 88.5972 176.887 90.8909 177.896 92.9331C178.905 94.9753 180.438 96.6964 182.347 97.929C184.256 99.1617 186.475 99.8637 188.788 99.967L188.824 100.014C189.412 100.144 190.025 100.156 190.629 100.048L190.615 99.9885C191.427 100.123 194.17 99.481 196.843 97.8872L196.9 97.8529C198.595 96.8479 200.27 95.4673 201.409 93.657C201.409 93.657 201.405 93.6184 201.396 93.549C201.7 93.1186 201.935 92.645 202.092 92.1466C202.074 92.0994 202.056 92.0522 202.037 92.005C203.018 90.0157 203.512 87.8403 203.475 85.6662C203.437 83.4921 202.871 81.3846 201.824 79.5251V79.5251Z" fill="url(#paint3_linear)"/>
</g>
<path d="M196.28 97.6696C202.606 93.9186 204.929 85.8896 201.471 79.7363C198.012 73.583 190.08 71.6355 183.755 75.3865C177.43 79.1375 175.106 87.1665 178.565 93.3197C182.024 99.473 189.955 101.421 196.28 97.6696Z" fill="#F5F5F5"/>
<path d="M184.755 68.7085L176.258 73.9142C176.131 73.9918 176.086 74.1547 176.158 74.278L176.215 74.3761C176.287 74.4994 176.448 74.5363 176.575 74.4586L185.072 69.253C185.199 69.1753 185.243 69.0124 185.171 68.8892L185.114 68.791C185.042 68.6678 184.881 68.6309 184.755 68.7085Z" fill="#DBDBDB"/>
<path d="M187.206 67.9458C187.391 67.832 187.457 67.5934 187.351 67.4128C187.246 67.2323 187.01 67.1782 186.825 67.292C186.639 67.4058 186.573 67.6444 186.679 67.825C186.784 68.0055 187.02 68.0596 187.206 67.9458Z" fill="#DBDBDB"/>
<path d="M207.476 96.9929L188.723 108.113L189.863 110.14L208.615 99.0199L207.476 96.9929Z" fill="#F5F5F5"/>
<path d="M213.922 98.5756L186.835 114.639L187.974 116.665L215.061 100.603L213.922 98.5756Z" fill="#F5F5F5"/>
<path d="M187.512 93.8218C187.512 93.8218 184.906 95.6571 188.345 100.066C188.915 100.193 189.511 100.205 190.096 100.1L188.79 94.1357L187.512 93.8218Z" fill="#264881"/>
<path d="M196.367 88.5704C196.367 88.5704 199.218 87.1698 201.215 92.434C201.037 93.0047 200.749 93.5397 200.368 94.0082L195.993 89.8646L196.367 88.5704Z" fill="#264881"/>
<path d="M190.14 87.8219C192.944 86.1591 193.974 82.5998 192.441 79.8721C190.908 77.1443 187.392 76.281 184.588 77.9438C181.784 79.6066 180.753 83.1658 182.287 85.8936C183.82 88.6213 187.336 89.4847 190.14 87.8219Z" fill="#333333"/>
<path d="M196.315 88.6013L187.46 93.8526L188.57 97.7886C188.57 97.7886 188.982 99.6719 189.977 100.017C190.972 100.362 197.513 98.611 200.431 93.9682C200.275 92.8353 199.748 91.8024 198.932 91.028C197.556 89.7 198.753 90.9841 198.753 90.9841L196.315 88.6013Z" fill="#264881"/>
<path d="M196.433 88.5313L187.578 93.7826L188.688 97.7186C188.688 97.7186 189.1 99.6019 190.095 99.9472C191.09 100.292 197.631 98.541 200.549 93.8982C200.393 92.7653 199.866 91.7324 199.05 90.958C197.674 89.63 198.871 90.9141 198.871 90.9141L196.433 88.5313Z" fill="#264881"/>
<path d="M196.367 88.5704L187.512 93.8217L188.622 97.7577C188.622 97.7577 189.034 99.641 190.029 99.9863C191.024 100.332 197.565 98.5801 200.483 93.9373C200.327 92.8044 199.8 91.7715 198.984 90.9971C197.608 89.6691 198.805 90.9532 198.805 90.9532L196.367 88.5704Z" fill="#264881"/>
<path opacity="0.1" d="M188.616 89.3561L192.158 87.2555L193.706 90.0088C193.963 90.4658 194.023 91.0147 193.872 91.5347C193.722 92.0548 193.373 92.5035 192.903 92.782V92.782C192.434 93.0606 191.881 93.1462 191.367 93.02C190.854 92.8939 190.421 92.5663 190.164 92.1094L188.616 89.3561Z" fill="black"/>
<path d="M188.544 89.2277L192.086 87.1272L193.636 89.8838C193.893 90.3408 193.952 90.8897 193.802 91.4097C193.651 91.9298 193.303 92.3785 192.833 92.657V92.657C192.363 92.9356 191.811 93.0212 191.297 92.895C190.783 92.7689 190.35 92.4413 190.094 91.9844L188.544 89.2277V89.2277Z" fill="#FDB797"/>
<path opacity="0.1" d="M188.835 89.7186C190.21 89.4568 191.469 88.7147 192.383 87.627L192.145 87.2036L188.603 89.3042L188.835 89.7186Z" fill="black"/>
<path d="M190.743 88.8939C193.547 87.2311 194.577 83.6719 193.043 80.9441C191.51 78.2164 187.994 77.3531 185.19 79.0159C182.386 80.6787 181.356 84.2379 182.889 86.9657C184.423 89.6934 187.939 90.5567 190.743 88.8939Z" fill="#FDB797"/>
<path opacity="0.1" d="M182.129 85.0861L191.811 79.3447C191.811 79.3447 188.847 76.032 185.323 78.4447C181.799 80.8573 182.129 85.0861 182.129 85.0861Z" fill="black"/>
<path d="M182.057 84.9577L191.739 79.2163C191.739 79.2163 188.775 75.9036 185.251 78.3163C181.727 80.7289 182.057 84.9577 182.057 84.9577Z" fill="#333333"/>
<path d="M183.359 87.5547C183.62 87.4001 183.615 86.889 183.347 86.4132C183.08 85.9374 182.652 85.6771 182.391 85.8318C182.13 85.9865 182.135 86.4976 182.403 86.9733C182.67 87.4491 183.099 87.7094 183.359 87.5547Z" fill="#FDB797"/>
<path d="M193.277 81.6733C193.538 81.5186 193.533 81.0075 193.265 80.5317C192.998 80.056 192.57 79.7957 192.309 79.9503C192.048 80.105 192.053 80.6161 192.321 81.0919C192.588 81.5676 193.016 81.8279 193.277 81.6733Z" fill="#FDB797"/>
<path d="M181.395 81.9959C181.288 81.5585 181.332 81.091 181.519 80.6673C181.673 80.3537 181.923 80.0976 182.153 79.8319C182.491 79.4369 182.788 79.0091 183.039 78.5557C183.325 78.0424 183.554 77.492 183.933 77.0394C184.578 76.265 185.58 75.8822 186.541 75.593C186.775 75.5116 187.019 75.4651 187.263 75.4548C187.545 75.4711 187.82 75.5337 188.077 75.6401L190.295 76.4177C190.5 76.4797 190.697 76.5647 190.881 76.6712C191.052 76.7849 191.201 76.9282 191.321 77.0947C191.531 77.3547 191.647 77.68 191.652 78.0215C191.631 78.5338 191.274 78.9964 190.84 79.278C190.405 79.5596 189.892 79.6898 189.396 79.8263C187.786 80.2559 186.183 80.7166 184.657 81.4027C183.896 81.7396 183.165 82.1432 182.471 82.6085C182.255 82.7563 182.013 83.0307 181.749 82.8865C181.526 82.7725 181.441 82.2226 181.395 81.9959Z" fill="#333333"/>
<g opacity="0.5">
<path opacity="0.5" d="M97.9504 72.1648L140.836 97.7177C141.067 97.8555 141.274 98.0316 141.445 98.2358C141.615 98.44 141.745 98.6684 141.829 98.9079C141.912 99.1475 141.946 99.3934 141.93 99.6318C141.913 99.8702 141.847 100.096 141.733 100.297L102.331 169.947C102.217 170.149 102.058 170.321 101.864 170.454C101.67 170.586 101.444 170.678 101.199 170.722C100.954 170.766 100.696 170.762 100.438 170.711C100.18 170.659 99.9283 170.561 99.6968 170.422L56.8112 144.869C56.5798 144.732 56.373 144.556 56.2027 144.351C56.0324 144.147 55.9019 143.919 55.8186 143.679C55.7354 143.44 55.7009 143.194 55.7174 142.955C55.7338 142.717 55.8007 142.491 55.9143 142.29L95.3231 72.6424C95.5532 72.2372 95.9591 71.9593 96.4518 71.8697C96.9445 71.7801 97.4835 71.8863 97.9504 72.1648V72.1648Z" fill="url(#paint4_linear)"/>
</g>
<path d="M57.9911 144.258L99.6293 169.068C100.601 169.647 101.776 169.432 102.253 168.589L140.572 100.871C141.049 100.027 140.648 98.8737 139.677 98.2948L98.0385 73.4848C97.0669 72.9058 95.8923 73.1204 95.4149 73.9641L57.0962 141.682C56.6189 142.526 57.0195 143.679 57.9911 144.258Z" fill="white"/>
<path opacity="0.3" d="M106.508 80.9057C106.214 81.7339 106.262 82.6785 106.643 83.5686C107.024 84.4587 107.713 85.2356 108.586 85.7589L124.184 95.052C125.059 95.5691 126.057 95.7973 126.999 95.6954C127.94 95.5934 128.762 95.168 129.317 94.496L137.578 99.4187C137.803 99.5529 138.005 99.7243 138.17 99.9232C138.336 100.122 138.463 100.344 138.544 100.578C138.625 100.811 138.659 101.05 138.643 101.282C138.627 101.515 138.562 101.735 138.451 101.93L102.098 166.178C101.987 166.373 101.833 166.54 101.645 166.67C101.456 166.799 101.237 166.888 100.999 166.931C100.762 166.974 100.51 166.971 100.26 166.922C100.01 166.872 99.7647 166.778 99.5395 166.644L60.0715 143.128C59.8462 142.994 59.6449 142.822 59.4791 142.623C59.3133 142.425 59.1862 142.202 59.1051 141.969C59.0241 141.736 58.9906 141.496 59.0066 141.264C59.0226 141.032 59.0878 140.812 59.1984 140.616L95.5512 76.3689C95.6618 76.1732 95.8157 76.006 96.0042 75.8766C96.1926 75.7472 96.4118 75.6582 96.6494 75.6148C96.8869 75.5714 97.1381 75.5743 97.3886 75.6234C97.6391 75.6725 97.884 75.7668 98.1092 75.901L106.508 80.9057Z" fill="#6C63FF"/>
<path d="M79.7494 120.525L109.966 138.445L111.101 136.425L80.8844 118.506L79.7494 120.525Z" fill="#F5F5F5"/>
<path d="M77.7568 124.07L107.974 141.989L109.109 139.97L78.8918 122.051L77.7568 124.07Z" fill="#F5F5F5"/>
<g opacity="0.5">
<path opacity="0.5" d="M95.0524 96.0574C96.163 94.0822 97.8434 92.4898 99.9299 91.4352C102.016 90.3806 104.438 89.8997 106.959 90.0392C109.48 90.1788 112.015 90.9342 114.316 92.2317C116.618 93.5293 118.608 95.3249 120.093 97.4438C121.578 99.5627 122.507 101.933 122.789 104.323C123.072 106.714 122.699 109.043 121.707 111.085C120.714 113.127 119.136 114.811 117.126 115.975C115.115 117.138 112.741 117.74 110.235 117.723L110.199 117.769C109.567 117.873 108.901 117.852 108.24 117.709L108.252 117.649C107.377 117.743 104.367 116.939 101.385 115.162L101.321 115.124C99.4301 114.003 97.5422 112.497 96.2149 110.579C96.2149 110.579 96.2164 110.54 96.2234 110.469C95.8712 110.011 95.592 109.513 95.3967 108.993C95.4142 108.946 95.4317 108.898 95.4492 108.851C94.2838 106.758 93.6388 104.499 93.5697 102.271C93.5006 100.042 94.0095 97.9097 95.0524 96.0574V96.0574Z" fill="url(#paint5_linear)"/>
</g>
<path d="M101.985 114.969C109.041 119.153 117.554 117.576 121 111.446C124.445 105.316 121.518 96.955 114.462 92.7705C107.406 88.5861 98.8925 90.1631 95.4469 96.2929C92.0014 102.423 94.9284 110.784 101.985 114.969Z" fill="#F5F5F5"/>
<path d="M112.723 86.4052L122.21 92.1975C122.352 92.2839 122.525 92.2546 122.597 92.1319L122.654 92.0342C122.726 91.9116 122.669 91.7421 122.528 91.6557L113.04 85.8634C112.899 85.777 112.726 85.8063 112.654 85.929L112.597 86.0266C112.525 86.1493 112.582 86.3188 112.723 86.4052Z" fill="#DBDBDB"/>
<path d="M110.907 84.8547C111.013 84.6751 110.93 84.4268 110.722 84.3002C110.515 84.1735 110.262 84.2165 110.156 84.3962C110.051 84.5758 110.134 84.8241 110.342 84.9507C110.549 85.0774 110.802 85.0344 110.907 84.8547Z" fill="#DBDBDB"/>
<path d="M88.6607 115.699L109.58 128.105L110.715 126.085L89.7957 113.68L88.6607 115.699Z" fill="#F5F5F5"/>
<path d="M81.7419 116.981L111.959 134.9L113.094 132.881L82.8769 114.961L81.7419 116.981Z" fill="#F5F5F5"/>
<path d="M100.837 105.125C100.837 105.125 97.6717 103.537 95.768 108.832C95.9899 109.427 96.3293 109.991 96.7666 110.492L101.309 106.473L100.837 105.125Z" fill="#BE7C5E"/>
<path d="M110.716 110.983C110.716 110.983 113.638 113.005 110.125 117.346C109.512 117.446 108.867 117.426 108.226 117.288L109.343 111.238L110.716 110.983Z" fill="#BE7C5E"/>
<path d="M105.407 97.3081C105.407 97.3081 104.84 97.7618 104.123 98.2505C102.555 99.3207 100.144 105.57 101.534 107.212C103.091 109.054 105.403 111.013 108.534 111.747C111.255 112.386 115.654 106.248 114.916 103.688C114.831 103.387 114.739 103.085 114.627 102.778L105.407 97.3081Z" fill="#333333"/>
<path d="M107.723 104.784C110.851 106.639 114.625 105.94 116.152 103.223C117.68 100.505 116.382 96.7989 113.254 94.9439C110.126 93.0889 106.352 93.788 104.825 96.5054C103.297 99.2227 104.595 102.929 107.723 104.784Z" fill="#333333"/>
<path opacity="0.1" d="M110.658 110.949L100.779 105.091L97.9274 107.977C97.9274 107.977 96.4929 109.245 96.7702 110.342C97.0476 111.438 102.451 116.762 108.298 117.328C109.215 116.651 109.825 115.673 110.035 114.544C110.409 112.629 109.969 114.355 109.969 114.355L110.658 110.949Z" fill="black"/>
<path opacity="0.1" d="M110.789 111.027L100.911 105.169L98.0591 108.055C98.0591 108.055 96.6246 109.323 96.9019 110.42C97.1793 111.516 102.582 116.84 108.43 117.406C109.347 116.729 109.957 115.751 110.167 114.622C110.54 112.707 110.101 114.433 110.101 114.433L110.789 111.027Z" fill="black"/>
<path d="M110.716 110.983L100.837 105.125L97.9855 108.011C97.9855 108.011 96.551 109.28 96.8283 110.376C97.1057 111.473 102.509 116.796 108.356 117.362C109.273 116.685 109.883 115.707 110.093 114.578C110.467 112.664 110.027 114.389 110.027 114.389L110.716 110.983Z" fill="#5C1296"/>
<path opacity="0.1" d="M105.462 104.072L109.413 106.415L107.871 109.158C107.745 109.383 107.568 109.576 107.352 109.725C107.136 109.875 106.884 109.977 106.611 110.028C106.338 110.079 106.049 110.076 105.761 110.02C105.472 109.964 105.19 109.856 104.931 109.702V109.702C104.407 109.392 104.006 108.913 103.816 108.371C103.627 107.83 103.664 107.27 103.92 106.814L105.462 104.072Z" fill="black"/>
<path d="M105.534 103.944L109.485 106.287L107.941 109.033C107.815 109.258 107.638 109.451 107.422 109.601C107.206 109.75 106.954 109.853 106.681 109.904C106.408 109.954 106.119 109.951 105.831 109.895C105.542 109.84 105.26 109.732 105.001 109.578V109.578C104.477 109.267 104.076 108.788 103.887 108.247C103.697 107.705 103.734 107.145 103.99 106.69L105.534 103.944V103.944Z" fill="#BE7C5E"/>
<path opacity="0.1" d="M105.268 104.447C106.309 105.616 107.709 106.451 109.214 106.799L109.451 106.378L105.5 104.034L105.268 104.447Z" fill="black"/>
<path d="M107.123 105.852C110.251 107.707 114.025 107.008 115.552 104.291C117.08 101.573 115.782 97.8668 112.654 96.0118C109.526 94.1569 105.752 94.856 104.225 97.5733C102.697 100.291 103.995 103.997 107.123 105.852Z" fill="#BE7C5E"/>
<path d="M105.523 95.8515L116.324 102.256C116.324 102.256 117.531 97.9214 113.312 95.7412C109.094 93.561 105.523 95.8515 105.523 95.8515Z" fill="#333333"/>
<path d="M103.976 98.2906C104.267 98.4632 104.719 98.2189 104.986 97.7449C105.252 97.271 105.232 96.7469 104.941 96.5743C104.65 96.4018 104.198 96.6461 103.932 97.12C103.665 97.594 103.685 98.1181 103.976 98.2906Z" fill="#BE7C5E"/>
<path d="M115.04 104.852C115.331 105.024 115.783 104.78 116.05 104.306C116.316 103.832 116.296 103.308 116.005 103.136C115.714 102.963 115.262 103.207 114.996 103.681C114.73 104.155 114.749 104.679 115.04 104.852Z" fill="#BE7C5E"/>
<path opacity="0.1" d="M105.451 95.9794L116.252 102.384C116.252 102.384 117.459 98.0493 113.24 95.8691C109.022 93.6889 105.451 95.9794 105.451 95.9794Z" fill="black"/>
<defs>
<linearGradient id="paint0_linear" x1="35628" y1="109003" x2="83649.2" y2="41992.1" gradientUnits="userSpaceOnUse">
<stop stop-color="#808080" stop-opacity="0.25"/>
<stop offset="0.54" stop-color="#808080" stop-opacity="0.12"/>
<stop offset="1" stop-color="#808080" stop-opacity="0.1"/>
</linearGradient>
<linearGradient id="paint1_linear" x1="25831.7" y1="18597.2" x2="25831.7" y2="10352.7" gradientUnits="userSpaceOnUse">
<stop stop-color="#808080" stop-opacity="0.25"/>
<stop offset="0.54" stop-color="#808080" stop-opacity="0.12"/>
<stop offset="1" stop-color="#808080" stop-opacity="0.1"/>
</linearGradient>
<linearGradient id="paint2_linear" x1="204.398" y1="151.577" x2="190.271" y2="57.0631" gradientUnits="userSpaceOnUse">
<stop stop-color="#808080" stop-opacity="0.25"/>
<stop offset="0.54" stop-color="#808080" stop-opacity="0.12"/>
<stop offset="1" stop-color="#808080" stop-opacity="0.1"/>
</linearGradient>
<linearGradient id="paint3_linear" x1="25657.2" y1="-4682.88" x2="22899.3" y2="-9333.52" gradientUnits="userSpaceOnUse">
<stop stop-color="#808080" stop-opacity="0.25"/>
<stop offset="0.54" stop-color="#808080" stop-opacity="0.12"/>
<stop offset="1" stop-color="#808080" stop-opacity="0.1"/>
</linearGradient>
<linearGradient id="paint4_linear" x1="-11490.6" y1="63722.6" x2="-14298.4" y2="7713.74" gradientUnits="userSpaceOnUse">
<stop stop-color="#808080" stop-opacity="0.25"/>
<stop offset="0.54" stop-color="#808080" stop-opacity="0.12"/>
<stop offset="1" stop-color="#808080" stop-opacity="0.1"/>
</linearGradient>
<linearGradient id="paint5_linear" x1="2492.53" y1="11811.4" x2="5239.91" y2="7178.5" gradientUnits="userSpaceOnUse">
<stop stop-color="#808080" stop-opacity="0.25"/>
<stop offset="0.54" stop-color="#808080" stop-opacity="0.12"/>
<stop offset="1" stop-color="#808080" stop-opacity="0.1"/>
</linearGradient>
</defs>
</svg>
