<svg width="375" height="149" viewBox="0 0 375 149" fill="none" xmlns="http://www.w3.org/2000/svg">
<rect width="375" height="149" fill="white"/>
<rect width="375" height="128" fill="#DFAAFF"/>
<path opacity="0.1" d="M98.0612 28H71.9388C70.868 28 70 28.7716 70 29.7233V36.2767C70 37.2284 70.868 38 71.9388 38H98.0612C99.132 38 100 37.2284 100 36.2767V29.7233C100 28.7716 99.132 28 98.0612 28Z" fill="#1E0728"/>
<path opacity="0.1" d="M337.061 101H310.939C309.868 101 309 101.772 309 102.723V109.277C309 110.228 309.868 111 310.939 111H337.061C338.132 111 339 110.228 339 109.277V102.723C339 101.772 338.132 101 337.061 101Z" fill="#1E0728"/>
<path opacity="0.1" d="M50.0612 93H23.9388C22.868 93 22 93.7716 22 94.7233V101.277C22 102.228 22.868 103 23.9388 103H50.0612C51.132 103 52 102.228 52 101.277V94.7233C52 93.7716 51.132 93 50.0612 93Z" fill="#1E0728"/>
<path opacity="0.1" d="M248.061 72H221.939C220.868 72 220 72.7716 220 73.7233V80.2767C220 81.2284 220.868 82 221.939 82H248.061C249.132 82 250 81.2284 250 80.2767V73.7233C250 72.7716 249.132 72 248.061 72Z" fill="#1E0728"/>
<path opacity="0.1" d="M142.415 100H107.585C106.157 100 105 101.62 105 103.619V117.381C105 119.38 106.157 121 107.585 121H142.415C143.843 121 145 119.38 145 117.381V103.619C145 101.62 143.843 100 142.415 100Z" fill="#1E0728"/>
<path opacity="0.1" d="M317.061 43H290.939C289.868 43 289 43.7716 289 44.7233V51.2767C289 52.2284 289.868 53 290.939 53H317.061C318.132 53 319 52.2284 319 51.2767V44.7233C319 43.7716 318.132 43 317.061 43Z" fill="#1E0728"/>
<path opacity="0.1" d="M226.061 92H199.939C198.868 92 198 92.7716 198 93.7233V100.277C198 101.228 198.868 102 199.939 102H226.061C227.132 102 228 101.228 228 100.277V93.7233C228 92.7716 227.132 92 226.061 92Z" fill="#1E0728"/>
<path opacity="0.1" d="M164.061 47H137.939C136.868 47 136 47.7716 136 48.7233V55.2767C136 56.2284 136.868 57 137.939 57H164.061C165.132 57 166 56.2284 166 55.2767V48.7233C166 47.7716 165.132 47 164.061 47Z" fill="#1E0728"/>
<g opacity="0.5">
<path opacity="0.5" d="M57.0267 31.8355L8.05263 50.2212C7.78839 50.3203 7.54573 50.4715 7.3385 50.6662C7.13128 50.8609 6.96355 51.0952 6.84489 51.3557C6.72623 51.6163 6.65896 51.898 6.64693 52.1849C6.6349 52.4717 6.67835 52.7579 6.77478 53.0273L40.2185 146.407C40.3153 146.677 40.4635 146.924 40.6545 147.135C40.8455 147.347 41.0756 147.517 41.3315 147.637C41.5875 147.757 41.8642 147.824 42.146 147.835C42.4277 147.845 42.7088 147.799 42.9733 147.698L91.9474 129.313C92.2116 129.214 92.4543 129.062 92.6615 128.868C92.8687 128.673 93.0364 128.439 93.1551 128.178C93.2738 127.918 93.341 127.636 93.3531 127.349C93.3651 127.062 93.3216 126.776 93.2252 126.507L59.7736 33.1284C59.5781 32.5849 59.179 32.1434 58.6639 31.901C58.1489 31.6585 57.56 31.635 57.0267 31.8355Z" fill="url(#paint0_linear_10:233)"/>
</g>
<path d="M56.7702 33.3745L9.2207 51.2258C8.11115 51.6423 7.54017 52.897 7.9454 54.0281L40.472 144.82C40.8773 145.951 42.1052 146.53 43.2148 146.114L90.7643 128.262C91.8738 127.846 92.4448 126.591 92.0396 125.46L59.513 34.6683C59.1077 33.5372 57.8798 32.9579 56.7702 33.3745Z" fill="white"/>
<path opacity="0.4" d="M46.8022 39.8167C47.0135 40.8787 46.8453 41.9839 46.3279 42.9324C45.8106 43.8809 44.9782 44.6101 43.9812 44.9881L26.1672 51.6734C25.1683 52.0435 24.0736 52.0373 23.0808 51.656C22.088 51.2747 21.2625 50.5433 20.7533 49.594L11.3195 53.1363C11.0622 53.2328 10.826 53.38 10.6242 53.5696C10.4225 53.7591 10.2592 53.9873 10.1437 54.241C10.0281 54.4947 9.96267 54.769 9.95098 55.0483C9.93928 55.3275 9.98159 55.6062 10.0755 55.8685L40.9329 142.007C41.0269 142.269 41.1708 142.51 41.3562 142.715C41.5417 142.921 41.7651 143.087 42.0138 143.204C42.2624 143.321 42.5314 143.387 42.8053 143.398C43.0792 143.409 43.3527 143.365 43.61 143.267L88.6812 126.348C88.9385 126.251 89.1747 126.104 89.3765 125.915C89.5782 125.725 89.7415 125.497 89.8571 125.243C89.9726 124.989 90.038 124.715 90.0497 124.436C90.0614 124.157 90.0191 123.878 89.9252 123.616L59.0678 37.4777C58.9739 37.2154 58.8302 36.9747 58.645 36.7694C58.4598 36.564 58.2367 36.398 57.9884 36.2808C57.74 36.1636 57.4714 36.0975 57.1978 36.0863C56.9241 36.0752 56.6509 36.1191 56.3936 36.2156L46.8022 39.8167Z" fill="#6C63FF"/>
<path d="M70.4964 93L36 105.853L36.9618 108.559L71.4582 95.7052L70.4964 93Z" fill="#F5F5F5"/>
<path d="M72.4964 98L38 110.853L38.9618 113.559L73.4582 100.705L72.4964 98Z" fill="#F5F5F5"/>
<g opacity="0.5">
<path opacity="0.5" d="M57.1582 60.9289C56.217 58.2827 54.6198 55.932 52.5221 54.1056C50.4243 52.2792 47.8975 51.0394 45.1875 50.5068C42.4776 49.9742 39.6767 50.167 37.0576 51.0663C34.4385 51.9657 32.0904 53.541 30.2417 55.639C28.393 57.7369 27.1068 60.2861 26.5082 63.0383C25.9096 65.7905 26.019 68.6521 26.8258 71.3445C27.6326 74.0369 29.1093 76.4684 31.1122 78.4025C33.1151 80.3365 35.5759 81.7071 38.2552 82.3809L38.2881 82.4453C38.95 82.7422 39.6634 82.9022 40.387 82.9158L40.3821 82.8411C41.3044 83.1952 44.6195 83.0765 48.0247 81.7975L48.0984 81.77C50.2566 80.9659 52.4598 79.7058 54.1153 77.8023C54.1153 77.8023 54.1186 77.7551 54.1199 77.6696C54.5529 77.2249 54.9129 76.7121 55.1859 76.1508C55.1731 76.0897 55.1603 76.0287 55.1475 75.9676C56.6518 73.8117 57.6208 71.3164 57.9711 68.6965C58.3214 66.0767 58.0424 63.4109 57.1582 60.9289Z" fill="url(#paint1_linear_10:233)"/>
</g>
<path d="M47.4084 81.4024C55.4639 78.4009 59.6273 69.3105 56.7076 61.0985C53.7879 52.8864 44.8907 48.6624 36.8352 51.6639C28.7797 54.6654 24.6163 63.7558 27.536 71.9679C30.4557 80.1799 39.3529 84.4039 47.4084 81.4024Z" fill="#F5F5F5"/>
<path d="M39.2085 43.8807L28.357 48.1131C28.1951 48.1762 28.1136 48.3612 28.1751 48.5263L28.224 48.6578C28.2855 48.8229 28.4666 48.9055 28.6285 48.8423L39.48 44.61C39.6419 44.5468 39.7234 44.3618 39.6619 44.1967L39.613 44.0652C39.5515 43.9001 39.3704 43.8175 39.2085 43.8807Z" fill="#DBDBDB"/>
<path d="M42.205 43.5472C42.4422 43.4547 42.5615 43.1837 42.4715 42.9418C42.3815 42.7 42.1161 42.579 41.8789 42.6715C41.6417 42.764 41.5224 43.0351 41.6124 43.2769C41.7024 43.5187 41.9677 43.6398 42.205 43.5472Z" fill="#DBDBDB"/>
<path d="M60.5868 83.2506L36.7047 92.1491L37.6664 94.8543L61.5486 85.9557L60.5868 83.2506Z" fill="#F5F5F5"/>
<path d="M67.8175 86.6834L33.3211 99.5369L34.2829 102.242L68.7793 89.3886L67.8175 86.6834Z" fill="#F5F5F5"/>
<path d="M38.723 74.7232C38.723 74.7232 35.3514 76.3079 38.5647 82.4204C39.2067 82.7085 39.8985 82.8638 40.6003 82.8772L40.1571 75.404L38.723 74.7232Z" fill="#FDA57D"/>
<path d="M50.0006 70.5211C50.0006 70.5211 53.5784 69.5164 54.9549 76.3134C54.6441 76.9565 54.2116 77.5307 53.6824 78.0028L49.3295 71.9863L50.0006 70.5211Z" fill="#FDA57D"/>
<path d="M35.1128 64.09C35.1128 64.09 35.2028 69.6117 34.137 69.488C34.137 69.488 45.5599 73.9117 50.5273 63.3809C50.5273 63.3809 48.3019 61.4325 45.6386 60.1681L35.1128 64.09Z" fill="#333333"/>
<path d="M42.8741 68.142C46.4451 66.8115 48.2908 62.7817 46.9965 59.1413C45.7022 55.5009 41.7581 53.6284 38.1871 54.959C34.6161 56.2895 32.7704 60.3193 34.0647 63.9597C35.359 67.6001 39.3031 69.4726 42.8741 68.142Z" fill="#333333"/>
<path opacity="0.1" d="M49.9343 70.5458L38.6566 74.7479L39.239 79.7388C39.239 79.7388 39.3785 82.0985 40.4765 82.7497C41.5745 83.4009 49.5198 82.8521 53.7624 77.9696C53.7855 76.5719 53.3587 75.2063 52.5473 74.0823C51.1828 72.1604 52.3464 73.987 52.3464 73.987L49.9343 70.5458Z" fill="black"/>
<path opacity="0.1" d="M50.0847 70.4898L38.807 74.6918L39.3894 79.6828C39.3894 79.6828 39.5289 82.0425 40.6269 82.6937C41.7249 83.3449 49.6702 82.7961 53.9128 77.9135C53.9359 76.5159 53.5091 75.1503 52.6977 74.0263C51.3332 72.1043 52.4968 73.931 52.4968 73.931L50.0847 70.4898Z" fill="black"/>
<path d="M50.0006 70.5211L38.723 74.7232L39.3054 79.7141C39.3054 79.7141 39.4448 82.0738 40.5428 82.725C41.6408 83.3762 49.5862 82.8274 53.8288 77.9448C53.8519 76.5472 53.425 75.1816 52.6136 74.0576C51.2492 72.1357 52.4128 73.9623 52.4128 73.9623L50.0006 70.5211Z" fill="#6C63FF"/>
<path opacity="0.1" d="M40.8194 69.6225L45.3305 67.9416L46.6369 71.6161C46.8537 72.2259 46.824 72.8993 46.5544 73.4882C46.2847 74.077 45.7971 74.533 45.1989 74.7559C44.6007 74.9788 43.9409 74.9503 43.3645 74.6767C42.7882 74.4031 42.3427 73.9068 42.1258 73.297L40.8194 69.6225Z" fill="black"/>
<path d="M40.7585 69.4511L45.2696 67.7703L46.5776 71.4493C46.7944 72.0591 46.7647 72.7325 46.495 73.3213C46.2254 73.9101 45.7378 74.3662 45.1396 74.5891C44.5414 74.8119 43.8815 74.7835 43.3052 74.5099C42.7289 74.2362 42.2834 73.7399 42.0665 73.1301L40.7585 69.4511Z" fill="#FDA57D"/>
<path opacity="0.1" d="M41.0094 70.1099C42.6603 70.1223 44.2624 69.5302 45.5248 68.4411L45.3239 67.876L40.8128 69.5569L41.0094 70.1099Z" fill="black"/>
<path d="M43.3828 69.5727C46.9538 68.2422 48.7995 64.2124 47.5052 60.572C46.2109 56.9316 42.2668 55.0591 38.6958 56.3897C35.1248 57.7203 33.2791 61.75 34.5734 65.3904C35.8677 69.0308 39.8118 70.9033 43.3828 69.5727Z" fill="#FDA57D"/>
<path d="M33.9663 62.7812L46.2965 58.1869C46.2965 58.1869 43.4395 53.504 38.893 55.5639C34.3464 57.6239 33.9663 62.7812 33.9663 62.7812Z" fill="#333333"/>
<path d="M35.0149 66.2096C35.3471 66.0859 35.4334 65.4708 35.2076 64.8358C34.9819 64.2009 34.5296 63.7865 34.1974 63.9103C33.8652 64.034 33.7789 64.6491 34.0047 65.2841C34.2304 65.919 34.6827 66.3334 35.0149 66.2096Z" fill="#FDA57D"/>
<path d="M47.6459 61.5033C47.9781 61.3795 48.0644 60.7644 47.8386 60.1295C47.6129 59.4945 47.1606 59.0801 46.8284 59.2039C46.4962 59.3277 46.4099 59.9427 46.6357 60.5777C46.8614 61.2127 47.3137 61.627 47.6459 61.5033Z" fill="#FDA57D"/>
<path opacity="0.1" d="M34.0272 62.9525L46.3574 58.3582C46.3574 58.3582 43.5004 53.6753 38.9539 55.7352C34.4073 57.7952 34.0272 62.9525 34.0272 62.9525Z" fill="black"/>
<rect x="72" y="122.429" width="27" height="12" rx="6" transform="rotate(-20.44 72 122.429)" fill="#5F43CE"/>
<g opacity="0.5">
<path opacity="0.5" d="M105.95 43.1648L148.836 68.7177C149.067 68.8555 149.274 69.0316 149.445 69.2358C149.615 69.44 149.745 69.6684 149.829 69.9079C149.912 70.1475 149.946 70.3934 149.93 70.6318C149.913 70.8702 149.847 71.0963 149.733 71.2972L110.331 140.947C110.217 141.149 110.058 141.321 109.864 141.454C109.67 141.586 109.444 141.678 109.199 141.722C108.954 141.766 108.696 141.762 108.438 141.711C108.18 141.659 107.928 141.561 107.697 141.422L64.8112 115.869C64.5798 115.732 64.373 115.556 64.2027 115.351C64.0324 115.147 63.9019 114.919 63.8186 114.679C63.7354 114.44 63.7009 114.194 63.7174 113.955C63.7338 113.717 63.8007 113.491 63.9143 113.29L103.323 43.6424C103.553 43.2372 103.959 42.9593 104.452 42.8697C104.944 42.7801 105.484 42.8863 105.95 43.1648Z" fill="url(#paint2_linear_10:233)"/>
</g>
<path d="M65.9911 115.258L107.629 140.068C108.601 140.647 109.776 140.432 110.253 139.589L148.572 71.8706C149.049 71.0269 148.648 69.8737 147.677 69.2948L106.039 44.4848C105.067 43.9058 103.892 44.1204 103.415 44.9641L65.0962 112.682C64.6189 113.526 65.0195 114.679 65.9911 115.258Z" fill="white"/>
<path opacity="0.3" d="M114.508 51.9057C114.214 52.7339 114.262 53.6784 114.643 54.5686C115.024 55.4587 115.713 56.2356 116.586 56.7589L132.184 66.052C133.059 66.5691 134.057 66.7973 134.999 66.6954C135.94 66.5934 136.762 66.168 137.317 65.496L145.578 70.4187C145.803 70.5529 146.005 70.7243 146.17 70.9232C146.336 71.122 146.463 71.3444 146.544 71.5776C146.625 71.8108 146.659 72.0503 146.643 72.2824C146.627 72.5145 146.562 72.7346 146.451 72.9303L110.098 137.178C109.987 137.373 109.833 137.54 109.645 137.67C109.456 137.799 109.237 137.888 108.999 137.931C108.762 137.974 108.51 137.971 108.26 137.922C108.01 137.872 107.765 137.778 107.54 137.644L68.0715 114.128C67.8462 113.994 67.6449 113.822 67.4791 113.623C67.3133 113.424 67.1862 113.202 67.1051 112.969C67.0241 112.736 66.9906 112.496 67.0066 112.264C67.0226 112.032 67.0878 111.812 67.1984 111.616L103.551 47.3689C103.662 47.1732 103.816 47.006 104.004 46.8766C104.193 46.7472 104.412 46.6582 104.649 46.6148C104.887 46.5714 105.138 46.5743 105.389 46.6234C105.639 46.6725 105.884 46.7668 106.109 46.901L114.508 51.9057Z" fill="#6C63FF"/>
<path d="M87.7494 91.5255L117.966 109.445L119.101 107.425L88.8844 89.5062L87.7494 91.5255Z" fill="#F5F5F5"/>
<path d="M85.7568 95.0703L115.974 112.99L117.109 110.97L86.8918 93.0511L85.7568 95.0703Z" fill="#F5F5F5"/>
<g opacity="0.5">
<path opacity="0.5" d="M103.052 67.0574C104.163 65.0822 105.843 63.4898 107.93 62.4352C110.016 61.3806 112.438 60.8996 114.959 61.0392C117.48 61.1788 120.015 61.9341 122.316 63.2317C124.618 64.5293 126.608 66.3249 128.093 68.4438C129.578 70.5627 130.507 72.9327 130.789 75.3232C131.072 77.7136 130.699 80.0431 129.707 82.0849C128.714 84.1266 127.136 85.8112 125.126 86.9745C123.115 88.1379 120.741 88.7404 118.235 88.7235L118.199 88.7694C117.567 88.8725 116.901 88.852 116.24 88.709L116.252 88.6486C115.377 88.7432 112.367 87.9391 109.385 86.1619L109.321 86.1236C107.43 85.0025 105.542 83.4971 104.215 81.5792C104.215 81.5792 104.216 81.5397 104.223 81.4691C103.871 81.0112 103.592 80.5128 103.397 79.9931C103.414 79.9457 103.432 79.8982 103.449 79.8508C102.284 77.7576 101.639 75.4994 101.57 73.2707C101.501 71.042 102.009 68.9097 103.052 67.0574Z" fill="url(#paint3_linear_10:233)"/>
</g>
<path d="M109.985 85.9685C117.041 90.153 125.554 88.5759 129 82.4461C132.445 76.3163 129.518 67.955 122.462 63.7705C115.406 59.5861 106.893 61.1631 103.447 67.2929C100.001 73.4227 102.928 81.7841 109.985 85.9685Z" fill="#F5F5F5"/>
<path d="M120.723 57.4052L130.21 63.1975C130.352 63.2839 130.525 63.2546 130.597 63.1319L130.654 63.0342C130.726 62.9116 130.669 62.7421 130.528 62.6557L121.04 56.8634C120.899 56.777 120.726 56.8063 120.654 56.929L120.597 57.0267C120.525 57.1493 120.582 57.3188 120.723 57.4052Z" fill="#DBDBDB"/>
<path d="M118.907 55.8547C119.013 55.6751 118.93 55.4268 118.722 55.3002C118.515 55.1736 118.262 55.2165 118.156 55.3962C118.051 55.5758 118.134 55.8241 118.342 55.9507C118.549 56.0774 118.802 56.0344 118.907 55.8547Z" fill="#DBDBDB"/>
<path d="M96.6607 86.699L117.58 99.1046L118.715 97.0854L97.7957 84.6798L96.6607 86.699Z" fill="#F5F5F5"/>
<path d="M89.7419 87.9807L119.959 105.9L121.094 103.881L90.8769 85.9614L89.7419 87.9807Z" fill="#F5F5F5"/>
<path d="M108.837 76.1252C108.837 76.1252 105.672 74.5368 103.768 79.832C103.99 80.427 104.329 80.9912 104.767 81.4921L109.309 77.473L108.837 76.1252Z" fill="#BE7C5E"/>
<path d="M118.716 81.9834C118.716 81.9834 121.638 84.0049 118.125 88.3459C117.512 88.446 116.867 88.4262 116.226 88.2877L117.343 82.2376L118.716 81.9834Z" fill="#BE7C5E"/>
<path d="M113.407 68.3082C113.407 68.3082 112.84 68.7619 112.123 69.2505C110.555 70.3207 108.144 76.5701 109.534 78.2121C111.091 80.0542 113.403 82.0128 116.534 82.7474C119.255 83.386 123.654 77.2477 122.916 74.6879C122.831 74.3873 122.739 74.0847 122.627 73.7777L113.407 68.3082Z" fill="#333333"/>
<path d="M115.723 75.7843C118.851 77.6392 122.625 76.9401 124.152 74.2228C125.68 71.5054 124.382 67.7989 121.254 65.9439C118.126 64.0889 114.352 64.788 112.825 67.5054C111.297 70.2227 112.595 73.9293 115.723 75.7843Z" fill="#333333"/>
<path opacity="0.1" d="M118.658 81.949L108.779 76.0908L105.927 78.9767C105.927 78.9767 104.493 80.2454 104.77 81.3417C105.048 82.438 110.451 87.7615 116.298 88.3275C117.215 87.6505 117.825 86.6725 118.035 85.5435C118.409 83.6292 117.969 85.3548 117.969 85.3548L118.658 81.949Z" fill="black"/>
<path opacity="0.1" d="M118.789 82.0271L108.911 76.1689L106.059 79.0548C106.059 79.0548 104.625 80.3235 104.902 81.4198C105.179 82.5161 110.582 87.8396 116.43 88.4056C117.347 87.7286 117.957 86.7506 118.167 85.6216C118.54 83.7073 118.101 85.4329 118.101 85.4329L118.789 82.0271Z" fill="black"/>
<path d="M118.716 81.9834L108.837 76.1252L105.986 79.0112C105.986 79.0112 104.551 80.2799 104.828 81.3762C105.106 82.4725 110.509 87.796 116.356 88.362C117.273 87.685 117.883 86.707 118.093 85.578C118.467 83.6636 118.027 85.3892 118.027 85.3892L118.716 81.9834Z" fill="#5C1296"/>
<path opacity="0.1" d="M113.462 75.0715L117.413 77.4148L115.871 80.1576C115.745 80.383 115.568 80.5759 115.352 80.7252C115.136 80.8746 114.884 80.9775 114.611 81.0281C114.338 81.0786 114.049 81.0759 113.761 81.02C113.472 80.9641 113.19 80.8562 112.931 80.7023C112.407 80.3916 112.006 79.9127 111.816 79.3711C111.627 78.8295 111.664 78.2695 111.92 77.8143L113.462 75.0715Z" fill="black"/>
<path d="M113.534 74.9436L117.485 77.2869L115.941 80.0331C115.815 80.2585 115.638 80.4513 115.422 80.6007C115.206 80.75 114.954 80.853 114.681 80.9035C114.408 80.9541 114.119 80.9514 113.831 80.8955C113.542 80.8396 113.26 80.7316 113.001 80.5778C112.477 80.267 112.076 79.7882 111.887 79.2466C111.697 78.705 111.734 78.145 111.99 77.6898L113.534 74.9436Z" fill="#BE7C5E"/>
<path opacity="0.1" d="M113.268 75.4472C114.309 76.6159 115.709 77.4505 117.214 77.7994L117.451 77.3776L113.5 75.0343L113.268 75.4472Z" fill="black"/>
<path d="M115.123 76.8522C118.251 78.7072 122.025 78.0081 123.552 75.2907C125.08 72.5734 123.782 68.8668 120.654 67.0118C117.526 65.1569 113.752 65.856 112.225 68.5733C110.697 71.2907 111.995 74.9972 115.123 76.8522Z" fill="#BE7C5E"/>
<path d="M113.523 66.8515L124.324 73.2565C124.324 73.2565 125.531 68.9214 121.312 66.7412C117.094 64.561 113.523 66.8515 113.523 66.8515Z" fill="#333333"/>
<path d="M111.976 69.2906C112.267 69.4632 112.719 69.2189 112.986 68.7449C113.252 68.271 113.232 67.7469 112.941 67.5743C112.65 67.4018 112.198 67.6461 111.932 68.12C111.665 68.594 111.685 69.1181 111.976 69.2906Z" fill="#BE7C5E"/>
<path d="M123.04 75.8518C123.331 76.0244 123.783 75.7801 124.05 75.3061C124.316 74.8321 124.296 74.308 124.005 74.1355C123.714 73.9629 123.262 74.2073 122.996 74.6812C122.73 75.1552 122.749 75.6793 123.04 75.8518Z" fill="#BE7C5E"/>
<path opacity="0.1" d="M113.451 66.9794L124.252 73.3844C124.252 73.3844 125.459 69.0493 121.24 66.8691C117.022 64.6889 113.451 66.9794 113.451 66.9794Z" fill="black"/>
<rect x="85.1211" y="104" width="27" height="12" rx="6" transform="rotate(30.67 85.1211 104)" fill="#5F43CE"/>
<defs>
<linearGradient id="paint0_linear_10:233" x1="54578.6" y1="73912.2" x2="74344" y2="11478.2" gradientUnits="userSpaceOnUse">
<stop stop-color="#808080" stop-opacity="0.25"/>
<stop offset="0.54" stop-color="#808080" stop-opacity="0.12"/>
<stop offset="1" stop-color="#808080" stop-opacity="0.1"/>
</linearGradient>
<linearGradient id="paint1_linear_10:233" x1="23149.4" y1="7487.65" x2="20818" y2="1230.78" gradientUnits="userSpaceOnUse">
<stop stop-color="#808080" stop-opacity="0.25"/>
<stop offset="0.54" stop-color="#808080" stop-opacity="0.12"/>
<stop offset="1" stop-color="#808080" stop-opacity="0.1"/>
</linearGradient>
<linearGradient id="paint2_linear_10:233" x1="-11482.6" y1="63693.6" x2="-14290.4" y2="7684.74" gradientUnits="userSpaceOnUse">
<stop stop-color="#808080" stop-opacity="0.25"/>
<stop offset="0.54" stop-color="#808080" stop-opacity="0.12"/>
<stop offset="1" stop-color="#808080" stop-opacity="0.1"/>
</linearGradient>
<linearGradient id="paint3_linear_10:233" x1="2500.53" y1="11782.4" x2="5247.91" y2="7149.5" gradientUnits="userSpaceOnUse">
<stop stop-color="#808080" stop-opacity="0.25"/>
<stop offset="0.54" stop-color="#808080" stop-opacity="0.12"/>
<stop offset="1" stop-color="#808080" stop-opacity="0.1"/>
</linearGradient>
</defs>
</svg>
