<svg width="375" height="149" viewBox="0 0 375 149" fill="none" xmlns="http://www.w3.org/2000/svg">
<rect width="375" height="149" fill="white"/>
<rect width="375" height="128" fill="#DFAAFF"/>
<path opacity="0.1" d="M54.415 57H19.585C18.1574 57 17 58.6203 17 60.619V74.381C17 76.3797 18.1574 78 19.585 78H54.415C55.8426 78 57 76.3797 57 74.381V60.619C57 58.6203 55.8426 57 54.415 57Z" fill="#1E0728"/>
<path opacity="0.1" d="M257.729 87.1835H222.899C221.471 87.1835 220.314 88.8038 220.314 90.8025V104.565C220.314 106.563 221.471 108.184 222.899 108.184H257.729C259.157 108.184 260.314 106.563 260.314 104.565V90.8025C260.314 88.8038 259.157 87.1835 257.729 87.1835Z" fill="#1E0728"/>
<path opacity="0.1" d="M142.415 100H107.585C106.157 100 105 101.62 105 103.619V117.381C105 119.38 106.157 121 107.585 121H142.415C143.843 121 145 119.38 145 117.381V103.619C145 101.62 143.843 100 142.415 100Z" fill="#1E0728"/>
<path opacity="0.1" d="M356.415 31H321.585C320.157 31 319 32.6203 319 34.619V48.381C319 50.3797 320.157 52 321.585 52H356.415C357.843 52 359 50.3797 359 48.381V34.619C359 32.6203 357.843 31 356.415 31Z" fill="#1E0728"/>
<path opacity="0.1" d="M308.415 70H273.585C272.157 70 271 71.6203 271 73.619V87.381C271 89.3797 272.157 91 273.585 91H308.415C309.843 91 311 89.3797 311 87.381V73.619C311 71.6203 309.843 70 308.415 70Z" fill="#1E0728"/>
<path opacity="0.1" d="M182.261 36.2622H147.431C146.003 36.2622 144.846 37.8825 144.846 39.8812V53.6432C144.846 55.6419 146.003 57.2622 147.431 57.2622H182.261C183.689 57.2622 184.846 55.6419 184.846 53.6432V39.8812C184.846 37.8825 183.689 36.2622 182.261 36.2622Z" fill="#1E0728"/>
<g opacity="0.5">
<path opacity="0.5" d="M80.0267 31.8355L31.0526 50.2212C30.7884 50.3203 30.5457 50.4715 30.3385 50.6662C30.1313 50.8609 29.9635 51.0952 29.8449 51.3557C29.7262 51.6163 29.659 51.898 29.6469 52.1849C29.6349 52.4717 29.6783 52.7579 29.7748 53.0273L63.2185 146.407C63.3153 146.677 63.4635 146.924 63.6545 147.135C63.8455 147.347 64.0756 147.517 64.3315 147.637C64.5875 147.757 64.8642 147.824 65.146 147.835C65.4277 147.845 65.7088 147.799 65.9733 147.698L114.947 129.313C115.212 129.214 115.454 129.062 115.661 128.868C115.869 128.673 116.036 128.439 116.155 128.178C116.274 127.918 116.341 127.636 116.353 127.349C116.365 127.062 116.322 126.776 116.225 126.507L82.7736 33.1284C82.5781 32.5849 82.179 32.1434 81.6639 31.901C81.1489 31.6585 80.56 31.635 80.0267 31.8355V31.8355Z" fill="url(#paint0_linear)"/>
</g>
<path d="M79.7702 33.3745L32.2207 51.2258C31.1111 51.6423 30.5402 52.897 30.9454 54.0281L63.472 144.82C63.8773 145.951 65.1052 146.53 66.2148 146.114L113.764 128.262C114.874 127.846 115.445 126.591 115.04 125.46L82.513 34.6683C82.1077 33.5372 80.8798 32.9579 79.7702 33.3745Z" fill="white"/>
<path opacity="0.4" d="M69.8022 39.8167C70.0135 40.8787 69.8453 41.9839 69.3279 42.9324C68.8106 43.8809 67.9782 44.6101 66.9812 44.9881L49.1672 51.6734C48.1683 52.0435 47.0736 52.0373 46.0808 51.656C45.088 51.2747 44.2625 50.5433 43.7533 49.594L34.3195 53.1363C34.0622 53.2328 33.826 53.38 33.6242 53.5696C33.4225 53.7591 33.2592 53.9873 33.1437 54.241C33.0281 54.4947 32.9627 54.769 32.951 55.0483C32.9393 55.3275 32.9816 55.6062 33.0755 55.8685L63.9329 142.007C64.0269 142.269 64.1708 142.51 64.3562 142.715C64.5417 142.921 64.7651 143.087 65.0138 143.204C65.2624 143.321 65.5314 143.387 65.8053 143.398C66.0792 143.409 66.3527 143.365 66.61 143.267L111.681 126.348C111.938 126.251 112.175 126.104 112.376 125.915C112.578 125.725 112.742 125.497 112.857 125.243C112.973 124.989 113.038 124.715 113.05 124.436C113.061 124.157 113.019 123.878 112.925 123.616L82.0678 37.4777C81.9739 37.2154 81.8302 36.9747 81.645 36.7694C81.4598 36.564 81.2367 36.398 80.9884 36.2808C80.74 36.1636 80.4714 36.0975 80.1978 36.0863C79.9242 36.0752 79.6509 36.1191 79.3936 36.2156L69.8022 39.8167Z" fill="#6C63FF"/>
<g opacity="0.5">
<path opacity="0.5" d="M80.1582 60.9289C79.217 58.2827 77.6198 55.932 75.5221 54.1056C73.4243 52.2792 70.8975 51.0394 68.1875 50.5068C65.4776 49.9742 62.6767 50.167 60.0576 51.0663C57.4385 51.9657 55.0904 53.541 53.2417 55.639C51.393 57.7369 50.1068 60.2861 49.5082 63.0383C48.9096 65.7905 49.019 68.6521 49.8258 71.3445C50.6326 74.0369 52.1093 76.4684 54.1122 78.4025C56.1151 80.3365 58.5759 81.7071 61.2552 82.3809L61.2881 82.4453C61.95 82.7422 62.6634 82.9022 63.387 82.9158L63.3821 82.8411C64.3044 83.1952 67.6195 83.0765 71.0247 81.7975L71.0984 81.77C73.2566 80.9659 75.4598 79.7058 77.1153 77.8023C77.1153 77.8023 77.1186 77.7551 77.1199 77.6696C77.5529 77.2249 77.9129 76.7121 78.1859 76.1508C78.1731 76.0897 78.1603 76.0287 78.1475 75.9676C79.6518 73.8117 80.6208 71.3164 80.9711 68.6965C81.3214 66.0767 81.0424 63.4109 80.1582 60.9289V60.9289Z" fill="url(#paint1_linear)"/>
</g>
<path d="M70.4084 81.4024C78.4639 78.4009 82.6273 69.3105 79.7076 61.0985C76.7879 52.8864 67.8907 48.6624 59.8352 51.6639C51.7797 54.6654 47.6163 63.7558 50.536 71.9679C53.4557 80.1799 62.3529 84.4039 70.4084 81.4024Z" fill="#F5F5F5"/>
<path d="M62.2085 43.8807L51.357 48.1131C51.1951 48.1762 51.1136 48.3612 51.1751 48.5263L51.224 48.6578C51.2855 48.8229 51.4666 48.9055 51.6285 48.8423L62.48 44.61C62.6419 44.5468 62.7234 44.3618 62.6619 44.1967L62.613 44.0652C62.5515 43.9001 62.3704 43.8175 62.2085 43.8807Z" fill="#DBDBDB"/>
<path d="M65.205 43.5472C65.4422 43.4547 65.5615 43.1837 65.4715 42.9418C65.3815 42.7 65.1161 42.579 64.8789 42.6715C64.6417 42.764 64.5224 43.0351 64.6124 43.2769C64.7024 43.5187 64.9677 43.6398 65.205 43.5472Z" fill="#DBDBDB"/>
<path d="M83.5868 83.2506L59.7047 92.1491L60.6664 94.8543L84.5486 85.9557L83.5868 83.2506Z" fill="#F5F5F5"/>
<path d="M90.8175 86.6834L56.3211 99.5369L57.2829 102.242L91.7793 89.3886L90.8175 86.6834Z" fill="#F5F5F5"/>
<path d="M61.723 74.7232C61.723 74.7232 58.3514 76.3079 61.5647 82.4204C62.2067 82.7085 62.8985 82.8638 63.6003 82.8772L63.1571 75.404L61.723 74.7232Z" fill="#FDA57D"/>
<path d="M73.0006 70.5211C73.0006 70.5211 76.5784 69.5164 77.9549 76.3134C77.6441 76.9565 77.2116 77.5307 76.6824 78.0028L72.3295 71.9863L73.0006 70.5211Z" fill="#FDA57D"/>
<path d="M58.1128 64.09C58.1128 64.09 58.2028 69.6117 57.137 69.488C57.137 69.488 68.5599 73.9117 73.5273 63.3809C73.5273 63.3809 71.3019 61.4325 68.6386 60.1681L58.1128 64.09Z" fill="#333333"/>
<path d="M65.8741 68.142C69.4451 66.8115 71.2908 62.7817 69.9965 59.1413C68.7022 55.5009 64.7581 53.6284 61.1871 54.959C57.6161 56.2895 55.7704 60.3193 57.0647 63.9597C58.359 67.6001 62.3031 69.4726 65.8741 68.142Z" fill="#333333"/>
<path opacity="0.1" d="M72.9343 70.5458L61.6566 74.7479L62.239 79.7388C62.239 79.7388 62.3785 82.0985 63.4765 82.7497C64.5745 83.4009 72.5198 82.8521 76.7624 77.9696C76.7855 76.5719 76.3587 75.2063 75.5473 74.0823C74.1828 72.1604 75.3464 73.987 75.3464 73.987L72.9343 70.5458Z" fill="black"/>
<path opacity="0.1" d="M73.0847 70.4898L61.807 74.6918L62.3894 79.6828C62.3894 79.6828 62.5289 82.0425 63.6269 82.6937C64.7249 83.3449 72.6702 82.7961 76.9128 77.9135C76.9359 76.5159 76.5091 75.1503 75.6977 74.0263C74.3332 72.1043 75.4968 73.931 75.4968 73.931L73.0847 70.4898Z" fill="black"/>
<path d="M73.0006 70.5211L61.723 74.7232L62.3054 79.7141C62.3054 79.7141 62.4448 82.0738 63.5428 82.725C64.6408 83.3762 72.5862 82.8274 76.8288 77.9448C76.8519 76.5472 76.425 75.1816 75.6136 74.0576C74.2492 72.1357 75.4128 73.9623 75.4128 73.9623L73.0006 70.5211Z" fill="#6C63FF"/>
<path opacity="0.1" d="M63.8194 69.6225L68.3305 67.9416L69.6369 71.6161C69.8537 72.2259 69.824 72.8993 69.5544 73.4882C69.2847 74.077 68.7971 74.533 68.1989 74.7559V74.7559C67.6007 74.9788 66.9409 74.9503 66.3645 74.6767C65.7882 74.4031 65.3427 73.9068 65.1258 73.297L63.8194 69.6225Z" fill="black"/>
<path d="M63.7585 69.4511L68.2696 67.7703L69.5776 71.4493C69.7944 72.0591 69.7647 72.7325 69.495 73.3213C69.2254 73.9101 68.7378 74.3662 68.1396 74.5891V74.5891C67.5414 74.8119 66.8815 74.7835 66.3052 74.5099C65.7289 74.2362 65.2834 73.7399 65.0665 73.1301L63.7585 69.4511Z" fill="#FDA57D"/>
<path opacity="0.1" d="M64.0094 70.1099C65.6603 70.1223 67.2624 69.5302 68.5248 68.4411L68.3239 67.876L63.8128 69.5569L64.0094 70.1099Z" fill="black"/>
<path d="M66.3828 69.5727C69.9538 68.2422 71.7995 64.2124 70.5052 60.572C69.2109 56.9316 65.2668 55.0591 61.6958 56.3897C58.1248 57.7203 56.2791 61.75 57.5734 65.3904C58.8677 69.0308 62.8118 70.9033 66.3828 69.5727Z" fill="#FDA57D"/>
<path d="M56.9663 62.7812L69.2965 58.1869C69.2965 58.1869 66.4395 53.504 61.893 55.5639C57.3464 57.6239 56.9663 62.7812 56.9663 62.7812Z" fill="#333333"/>
<path d="M58.0149 66.2096C58.3471 66.0859 58.4334 65.4708 58.2076 64.8358C57.9819 64.2009 57.5296 63.7865 57.1974 63.9103C56.8652 64.034 56.7789 64.6491 57.0047 65.2841C57.2304 65.919 57.6827 66.3334 58.0149 66.2096Z" fill="#FDA57D"/>
<path d="M70.6459 61.5033C70.9781 61.3795 71.0644 60.7644 70.8386 60.1295C70.6129 59.4945 70.1606 59.0801 69.8284 59.2039C69.4962 59.3277 69.4099 59.9427 69.6357 60.5777C69.8614 61.2127 70.3137 61.627 70.6459 61.5033Z" fill="#FDA57D"/>
<path opacity="0.1" d="M57.0272 62.9525L69.3574 58.3582C69.3574 58.3582 66.5004 53.6753 61.9539 55.7352C57.4073 57.7952 57.0272 62.9525 57.0272 62.9525Z" fill="black"/>
<defs>
<linearGradient id="paint0_linear" x1="54601.6" y1="73912.2" x2="74367" y2="11478.2" gradientUnits="userSpaceOnUse">
<stop stop-color="#808080" stop-opacity="0.25"/>
<stop offset="0.54" stop-color="#808080" stop-opacity="0.12"/>
<stop offset="1" stop-color="#808080" stop-opacity="0.1"/>
</linearGradient>
<linearGradient id="paint1_linear" x1="23172.4" y1="7487.65" x2="20841" y2="1230.78" gradientUnits="userSpaceOnUse">
<stop stop-color="#808080" stop-opacity="0.25"/>
<stop offset="0.54" stop-color="#808080" stop-opacity="0.12"/>
<stop offset="1" stop-color="#808080" stop-opacity="0.1"/>
</linearGradient>
</defs>
</svg>
