<svg width="375" height="149" viewBox="0 0 375 149" fill="none" xmlns="http://www.w3.org/2000/svg">
<rect width="375" height="149" fill="white"/>
<rect width="375" height="128" fill="#DFAAFF"/>
<path opacity="0.1" d="M98.0612 28H71.9388C70.868 28 70 28.7716 70 29.7233V36.2767C70 37.2284 70.868 38 71.9388 38H98.0612C99.132 38 100 37.2284 100 36.2767V29.7233C100 28.7716 99.132 28 98.0612 28Z" fill="#1E0728"/>
<path opacity="0.1" d="M337.061 101H310.939C309.868 101 309 101.772 309 102.723V109.277C309 110.228 309.868 111 310.939 111H337.061C338.132 111 339 110.228 339 109.277V102.723C339 101.772 338.132 101 337.061 101Z" fill="#1E0728"/>
<path opacity="0.1" d="M50.0612 93H23.9388C22.868 93 22 93.7716 22 94.7233V101.277C22 102.228 22.868 103 23.9388 103H50.0612C51.132 103 52 102.228 52 101.277V94.7233C52 93.7716 51.132 93 50.0612 93Z" fill="#1E0728"/>
<path opacity="0.1" d="M248.061 72H221.939C220.868 72 220 72.7716 220 73.7233V80.2767C220 81.2284 220.868 82 221.939 82H248.061C249.132 82 250 81.2284 250 80.2767V73.7233C250 72.7716 249.132 72 248.061 72Z" fill="#1E0728"/>
<path opacity="0.1" d="M142.415 100H107.585C106.157 100 105 101.62 105 103.619V117.381C105 119.38 106.157 121 107.585 121H142.415C143.843 121 145 119.38 145 117.381V103.619C145 101.62 143.843 100 142.415 100Z" fill="#1E0728"/>
<path opacity="0.1" d="M317.061 43H290.939C289.868 43 289 43.7716 289 44.7233V51.2767C289 52.2284 289.868 53 290.939 53H317.061C318.132 53 319 52.2284 319 51.2767V44.7233C319 43.7716 318.132 43 317.061 43Z" fill="#1E0728"/>
<path opacity="0.1" d="M226.061 92H199.939C198.868 92 198 92.7716 198 93.7233V100.277C198 101.228 198.868 102 199.939 102H226.061C227.132 102 228 101.228 228 100.277V93.7233C228 92.7716 227.132 92 226.061 92Z" fill="#1E0728"/>
<path opacity="0.1" d="M164.061 47H137.939C136.868 47 136 47.7716 136 48.7233V55.2767C136 56.2284 136.868 57 137.939 57H164.061C165.132 57 166 56.2284 166 55.2767V48.7233C166 47.7716 165.132 47 164.061 47Z" fill="#1E0728"/>
<g opacity="0.5">
<path opacity="0.5" d="M80.0267 31.8355L31.0526 50.2212C30.7884 50.3203 30.5457 50.4715 30.3385 50.6662C30.1313 50.8609 29.9635 51.0952 29.8449 51.3557C29.7262 51.6163 29.659 51.898 29.6469 52.1849C29.6349 52.4717 29.6783 52.7579 29.7748 53.0273L63.2185 146.407C63.3153 146.677 63.4635 146.924 63.6545 147.135C63.8455 147.347 64.0756 147.517 64.3315 147.637C64.5875 147.757 64.8642 147.824 65.146 147.835C65.4277 147.845 65.7088 147.799 65.9733 147.698L114.947 129.313C115.212 129.214 115.454 129.062 115.661 128.868C115.869 128.673 116.036 128.439 116.155 128.178C116.274 127.918 116.341 127.636 116.353 127.349C116.365 127.062 116.322 126.776 116.225 126.507L82.7736 33.1284C82.5781 32.5849 82.179 32.1434 81.6639 31.901C81.1489 31.6585 80.56 31.635 80.0267 31.8355Z" fill="url(#paint0_linear)"/>
</g>
<path d="M79.7702 33.3745L32.2207 51.2258C31.1111 51.6423 30.5402 52.897 30.9454 54.0281L63.472 144.82C63.8773 145.951 65.1052 146.53 66.2148 146.114L113.764 128.262C114.874 127.846 115.445 126.591 115.04 125.46L82.513 34.6683C82.1077 33.5372 80.8798 32.9579 79.7702 33.3745Z" fill="white"/>
<path opacity="0.4" d="M69.8022 39.8167C70.0135 40.8787 69.8453 41.9839 69.3279 42.9324C68.8106 43.8809 67.9782 44.6101 66.9812 44.9881L49.1672 51.6734C48.1683 52.0435 47.0736 52.0373 46.0808 51.656C45.088 51.2747 44.2625 50.5433 43.7533 49.594L34.3195 53.1363C34.0622 53.2328 33.826 53.38 33.6242 53.5696C33.4225 53.7591 33.2592 53.9873 33.1437 54.241C33.0281 54.4947 32.9627 54.769 32.951 55.0483C32.9393 55.3275 32.9816 55.6062 33.0755 55.8685L63.9329 142.007C64.0269 142.269 64.1708 142.51 64.3562 142.715C64.5417 142.921 64.7651 143.087 65.0138 143.204C65.2624 143.321 65.5314 143.387 65.8053 143.398C66.0792 143.409 66.3527 143.365 66.61 143.267L111.681 126.348C111.938 126.251 112.175 126.104 112.376 125.915C112.578 125.725 112.742 125.497 112.857 125.243C112.973 124.989 113.038 124.715 113.05 124.436C113.061 124.157 113.019 123.878 112.925 123.616L82.0678 37.4777C81.9739 37.2154 81.8302 36.9747 81.645 36.7694C81.4598 36.564 81.2367 36.398 80.9884 36.2808C80.74 36.1636 80.4714 36.0975 80.1978 36.0863C79.9241 36.0752 79.6509 36.1191 79.3936 36.2156L69.8022 39.8167Z" fill="#6C63FF"/>
<path d="M93.4964 93L59 105.853L59.9618 108.559L94.4582 95.7052L93.4964 93Z" fill="#F5F5F5"/>
<path d="M95.4964 98L61 110.853L61.9618 113.559L96.4582 100.705L95.4964 98Z" fill="#F5F5F5"/>
<g opacity="0.5">
<path opacity="0.5" d="M80.1582 60.9289C79.217 58.2827 77.6198 55.932 75.5221 54.1056C73.4243 52.2792 70.8975 51.0394 68.1875 50.5068C65.4776 49.9742 62.6767 50.167 60.0576 51.0663C57.4385 51.9657 55.0904 53.541 53.2417 55.639C51.393 57.7369 50.1068 60.2861 49.5082 63.0383C48.9096 65.7905 49.019 68.6521 49.8258 71.3445C50.6326 74.0369 52.1093 76.4684 54.1122 78.4025C56.1151 80.3365 58.5759 81.7071 61.2552 82.3809L61.2881 82.4453C61.95 82.7422 62.6634 82.9022 63.387 82.9158L63.3821 82.8411C64.3044 83.1952 67.6195 83.0765 71.0247 81.7975L71.0984 81.77C73.2566 80.9659 75.4598 79.7058 77.1153 77.8023C77.1153 77.8023 77.1186 77.7551 77.1199 77.6696C77.5529 77.2249 77.9129 76.7121 78.1859 76.1508C78.1731 76.0897 78.1603 76.0287 78.1475 75.9676C79.6518 73.8117 80.6208 71.3164 80.9711 68.6965C81.3214 66.0767 81.0424 63.4109 80.1582 60.9289Z" fill="url(#paint1_linear)"/>
</g>
<path d="M70.4084 81.4024C78.4639 78.4009 82.6273 69.3105 79.7076 61.0985C76.7879 52.8864 67.8907 48.6624 59.8352 51.6639C51.7797 54.6654 47.6163 63.7558 50.536 71.9679C53.4557 80.1799 62.3529 84.4039 70.4084 81.4024Z" fill="#F5F5F5"/>
<path d="M62.2085 43.8807L51.357 48.1131C51.1951 48.1762 51.1136 48.3612 51.1751 48.5263L51.224 48.6578C51.2855 48.8229 51.4666 48.9055 51.6285 48.8423L62.48 44.61C62.6419 44.5468 62.7234 44.3618 62.6619 44.1967L62.613 44.0652C62.5515 43.9001 62.3704 43.8175 62.2085 43.8807Z" fill="#DBDBDB"/>
<path d="M65.205 43.5472C65.4422 43.4547 65.5615 43.1837 65.4715 42.9418C65.3815 42.7 65.1161 42.579 64.8789 42.6715C64.6417 42.764 64.5224 43.0351 64.6124 43.2769C64.7024 43.5187 64.9677 43.6398 65.205 43.5472Z" fill="#DBDBDB"/>
<path d="M83.5868 83.2506L59.7047 92.1491L60.6664 94.8543L84.5486 85.9557L83.5868 83.2506Z" fill="#F5F5F5"/>
<path d="M90.8175 86.6834L56.3211 99.5369L57.2829 102.242L91.7793 89.3886L90.8175 86.6834Z" fill="#F5F5F5"/>
<path d="M61.723 74.7232C61.723 74.7232 58.3514 76.3079 61.5647 82.4204C62.2067 82.7085 62.8985 82.8638 63.6003 82.8772L63.1571 75.404L61.723 74.7232Z" fill="#FDA57D"/>
<path d="M73.0006 70.5211C73.0006 70.5211 76.5784 69.5164 77.9549 76.3134C77.6441 76.9565 77.2116 77.5307 76.6824 78.0028L72.3295 71.9863L73.0006 70.5211Z" fill="#FDA57D"/>
<path d="M58.1128 64.09C58.1128 64.09 58.2028 69.6117 57.137 69.488C57.137 69.488 68.5599 73.9117 73.5273 63.3809C73.5273 63.3809 71.3019 61.4325 68.6386 60.1681L58.1128 64.09Z" fill="#333333"/>
<path d="M65.8741 68.142C69.4451 66.8115 71.2908 62.7817 69.9965 59.1413C68.7022 55.5009 64.7581 53.6284 61.1871 54.959C57.6161 56.2895 55.7704 60.3193 57.0647 63.9597C58.359 67.6001 62.3031 69.4726 65.8741 68.142Z" fill="#333333"/>
<path opacity="0.1" d="M72.9343 70.5458L61.6566 74.7479L62.239 79.7388C62.239 79.7388 62.3785 82.0985 63.4765 82.7497C64.5745 83.4009 72.5198 82.8521 76.7624 77.9696C76.7855 76.5719 76.3587 75.2063 75.5473 74.0823C74.1828 72.1604 75.3464 73.987 75.3464 73.987L72.9343 70.5458Z" fill="black"/>
<path opacity="0.1" d="M73.0847 70.4898L61.807 74.6918L62.3894 79.6828C62.3894 79.6828 62.5289 82.0425 63.6269 82.6937C64.7249 83.3449 72.6702 82.7961 76.9128 77.9135C76.9359 76.5159 76.5091 75.1503 75.6977 74.0263C74.3332 72.1043 75.4968 73.931 75.4968 73.931L73.0847 70.4898Z" fill="black"/>
<path d="M73.0006 70.5211L61.723 74.7232L62.3054 79.7141C62.3054 79.7141 62.4448 82.0738 63.5428 82.725C64.6408 83.3762 72.5862 82.8274 76.8288 77.9448C76.8519 76.5472 76.425 75.1816 75.6136 74.0576C74.2492 72.1357 75.4128 73.9623 75.4128 73.9623L73.0006 70.5211Z" fill="#6C63FF"/>
<path opacity="0.1" d="M63.8194 69.6225L68.3305 67.9416L69.6369 71.6161C69.8537 72.2259 69.824 72.8993 69.5544 73.4882C69.2847 74.077 68.7971 74.533 68.1989 74.7559C67.6007 74.9788 66.9409 74.9503 66.3645 74.6767C65.7882 74.4031 65.3427 73.9068 65.1258 73.297L63.8194 69.6225Z" fill="black"/>
<path d="M63.7585 69.4511L68.2696 67.7703L69.5776 71.4493C69.7944 72.0591 69.7647 72.7325 69.495 73.3213C69.2254 73.9101 68.7378 74.3662 68.1396 74.5891C67.5414 74.8119 66.8815 74.7835 66.3052 74.5099C65.7289 74.2362 65.2834 73.7399 65.0665 73.1301L63.7585 69.4511Z" fill="#FDA57D"/>
<path opacity="0.1" d="M64.0094 70.1099C65.6603 70.1223 67.2624 69.5302 68.5248 68.4411L68.3239 67.876L63.8128 69.5569L64.0094 70.1099Z" fill="black"/>
<path d="M66.3828 69.5727C69.9538 68.2422 71.7995 64.2124 70.5052 60.572C69.2109 56.9316 65.2668 55.0591 61.6958 56.3897C58.1248 57.7203 56.2791 61.75 57.5734 65.3904C58.8677 69.0308 62.8118 70.9033 66.3828 69.5727Z" fill="#FDA57D"/>
<path d="M56.9663 62.7812L69.2965 58.1869C69.2965 58.1869 66.4395 53.504 61.893 55.5639C57.3464 57.6239 56.9663 62.7812 56.9663 62.7812Z" fill="#333333"/>
<path d="M58.0149 66.2096C58.3471 66.0859 58.4334 65.4708 58.2076 64.8358C57.9819 64.2009 57.5296 63.7865 57.1974 63.9103C56.8652 64.034 56.7789 64.6491 57.0047 65.2841C57.2304 65.919 57.6827 66.3334 58.0149 66.2096Z" fill="#FDA57D"/>
<path d="M70.6459 61.5033C70.9781 61.3795 71.0644 60.7644 70.8386 60.1295C70.6129 59.4945 70.1606 59.0801 69.8284 59.2039C69.4962 59.3277 69.4099 59.9427 69.6357 60.5777C69.8614 61.2127 70.3137 61.627 70.6459 61.5033Z" fill="#FDA57D"/>
<path opacity="0.1" d="M57.0272 62.9525L69.3574 58.3582C69.3574 58.3582 66.5004 53.6753 61.9539 55.7352C57.4073 57.7952 57.0272 62.9525 57.0272 62.9525Z" fill="black"/>
<rect x="72" y="122.429" width="27" height="12" rx="6" transform="rotate(-20.44 72 122.429)" fill="#5F43CE"/>
<g opacity="0.5">
<path opacity="0.5" d="M128.95 43.1648L171.836 68.7177C172.067 68.8555 172.274 69.0316 172.445 69.2358C172.615 69.44 172.745 69.6684 172.829 69.9079C172.912 70.1475 172.946 70.3934 172.93 70.6318C172.913 70.8702 172.847 71.0963 172.733 71.2972L133.331 140.947C133.217 141.149 133.058 141.321 132.864 141.454C132.67 141.586 132.444 141.678 132.199 141.722C131.954 141.766 131.696 141.762 131.438 141.711C131.18 141.659 130.928 141.561 130.697 141.422L87.8112 115.869C87.5798 115.732 87.373 115.556 87.2027 115.351C87.0324 115.147 86.9019 114.919 86.8186 114.679C86.7354 114.44 86.7009 114.194 86.7174 113.955C86.7338 113.717 86.8007 113.491 86.9143 113.29L126.323 43.6424C126.553 43.2372 126.959 42.9593 127.452 42.8697C127.944 42.7801 128.484 42.8863 128.95 43.1648Z" fill="url(#paint2_linear)"/>
</g>
<path d="M88.9911 115.258L130.629 140.068C131.601 140.647 132.776 140.432 133.253 139.589L171.572 71.8706C172.049 71.0269 171.648 69.8737 170.677 69.2948L129.039 44.4848C128.067 43.9058 126.892 44.1204 126.415 44.9641L88.0962 112.682C87.6189 113.526 88.0195 114.679 88.9911 115.258Z" fill="white"/>
<path opacity="0.3" d="M137.508 51.9057C137.214 52.7339 137.262 53.6784 137.643 54.5686C138.024 55.4587 138.713 56.2356 139.586 56.7589L155.184 66.052C156.059 66.5691 157.057 66.7973 157.999 66.6954C158.94 66.5934 159.762 66.168 160.317 65.496L168.578 70.4187C168.803 70.5529 169.005 70.7243 169.17 70.9232C169.336 71.122 169.463 71.3444 169.544 71.5776C169.625 71.8108 169.659 72.0503 169.643 72.2824C169.627 72.5145 169.562 72.7346 169.451 72.9303L133.098 137.178C132.987 137.373 132.833 137.54 132.645 137.67C132.456 137.799 132.237 137.888 131.999 137.931C131.762 137.974 131.51 137.971 131.26 137.922C131.01 137.872 130.765 137.778 130.54 137.644L91.0715 114.128C90.8462 113.994 90.6449 113.822 90.4791 113.623C90.3133 113.424 90.1862 113.202 90.1051 112.969C90.0241 112.736 89.9906 112.496 90.0066 112.264C90.0226 112.032 90.0878 111.812 90.1984 111.616L126.551 47.3689C126.662 47.1732 126.816 47.006 127.004 46.8766C127.193 46.7472 127.412 46.6582 127.649 46.6148C127.887 46.5714 128.138 46.5743 128.389 46.6234C128.639 46.6725 128.884 46.7668 129.109 46.901L137.508 51.9057Z" fill="#6C63FF"/>
<path d="M110.749 91.5255L140.966 109.445L142.101 107.425L111.884 89.5062L110.749 91.5255Z" fill="#F5F5F5"/>
<path d="M108.757 95.0703L138.974 112.99L140.109 110.97L109.892 93.0511L108.757 95.0703Z" fill="#F5F5F5"/>
<g opacity="0.5">
<path opacity="0.5" d="M126.052 67.0574C127.163 65.0822 128.843 63.4898 130.93 62.4352C133.016 61.3806 135.438 60.8996 137.959 61.0392C140.48 61.1788 143.015 61.9341 145.316 63.2317C147.618 64.5293 149.608 66.3249 151.093 68.4438C152.578 70.5627 153.507 72.9327 153.789 75.3232C154.072 77.7136 153.699 80.0431 152.707 82.0849C151.714 84.1266 150.136 85.8112 148.126 86.9745C146.115 88.1379 143.741 88.7404 141.235 88.7235L141.199 88.7694C140.567 88.8725 139.901 88.852 139.24 88.709L139.252 88.6486C138.377 88.7432 135.367 87.9391 132.385 86.1619L132.321 86.1236C130.43 85.0025 128.542 83.4971 127.215 81.5792C127.215 81.5792 127.216 81.5397 127.223 81.4691C126.871 81.0112 126.592 80.5128 126.397 79.9931C126.414 79.9457 126.432 79.8982 126.449 79.8508C125.284 77.7576 124.639 75.4994 124.57 73.2707C124.501 71.042 125.009 68.9097 126.052 67.0574Z" fill="url(#paint3_linear)"/>
</g>
<path d="M132.985 85.9685C140.041 90.153 148.554 88.5759 152 82.4461C155.445 76.3163 152.518 67.955 145.462 63.7705C138.406 59.5861 129.893 61.1631 126.447 67.2929C123.001 73.4227 125.928 81.7841 132.985 85.9685Z" fill="#F5F5F5"/>
<path d="M143.723 57.4052L153.21 63.1975C153.352 63.2839 153.525 63.2546 153.597 63.1319L153.654 63.0342C153.726 62.9116 153.669 62.7421 153.528 62.6557L144.04 56.8634C143.899 56.777 143.726 56.8063 143.654 56.929L143.597 57.0267C143.525 57.1493 143.582 57.3188 143.723 57.4052Z" fill="#DBDBDB"/>
<path d="M141.907 55.8547C142.013 55.6751 141.93 55.4268 141.722 55.3002C141.515 55.1736 141.262 55.2165 141.156 55.3962C141.051 55.5758 141.134 55.8241 141.342 55.9507C141.549 56.0774 141.802 56.0344 141.907 55.8547Z" fill="#DBDBDB"/>
<path d="M119.661 86.699L140.58 99.1046L141.715 97.0854L120.796 84.6798L119.661 86.699Z" fill="#F5F5F5"/>
<path d="M112.742 87.9807L142.959 105.9L144.094 103.881L113.877 85.9614L112.742 87.9807Z" fill="#F5F5F5"/>
<path d="M131.837 76.1252C131.837 76.1252 128.672 74.5368 126.768 79.832C126.99 80.427 127.329 80.9912 127.767 81.4921L132.309 77.473L131.837 76.1252Z" fill="#BE7C5E"/>
<path d="M141.716 81.9834C141.716 81.9834 144.638 84.0049 141.125 88.3459C140.512 88.446 139.867 88.4262 139.226 88.2877L140.343 82.2376L141.716 81.9834Z" fill="#BE7C5E"/>
<path d="M136.407 68.3082C136.407 68.3082 135.84 68.7619 135.123 69.2505C133.555 70.3207 131.144 76.5701 132.534 78.2121C134.091 80.0542 136.403 82.0128 139.534 82.7474C142.255 83.386 146.654 77.2477 145.916 74.6879C145.831 74.3873 145.739 74.0847 145.627 73.7777L136.407 68.3082Z" fill="#333333"/>
<path d="M138.723 75.7843C141.851 77.6392 145.625 76.9401 147.152 74.2228C148.68 71.5054 147.382 67.7989 144.254 65.9439C141.126 64.0889 137.352 64.788 135.825 67.5054C134.297 70.2227 135.595 73.9293 138.723 75.7843Z" fill="#333333"/>
<path opacity="0.1" d="M141.658 81.949L131.779 76.0908L128.927 78.9767C128.927 78.9767 127.493 80.2454 127.77 81.3417C128.048 82.438 133.451 87.7615 139.298 88.3275C140.215 87.6505 140.825 86.6725 141.035 85.5435C141.409 83.6292 140.969 85.3548 140.969 85.3548L141.658 81.949Z" fill="black"/>
<path opacity="0.1" d="M141.789 82.0271L131.911 76.1689L129.059 79.0548C129.059 79.0548 127.625 80.3235 127.902 81.4198C128.179 82.5161 133.582 87.8396 139.43 88.4056C140.347 87.7286 140.957 86.7506 141.167 85.6216C141.54 83.7073 141.101 85.4329 141.101 85.4329L141.789 82.0271Z" fill="black"/>
<path d="M141.716 81.9834L131.837 76.1252L128.986 79.0112C128.986 79.0112 127.551 80.2799 127.828 81.3762C128.106 82.4725 133.509 87.796 139.356 88.362C140.273 87.685 140.883 86.707 141.093 85.578C141.467 83.6636 141.027 85.3892 141.027 85.3892L141.716 81.9834Z" fill="#5C1296"/>
<path opacity="0.1" d="M136.462 75.0715L140.413 77.4148L138.871 80.1576C138.745 80.383 138.568 80.5759 138.352 80.7252C138.136 80.8746 137.884 80.9775 137.611 81.0281C137.338 81.0786 137.049 81.0759 136.761 81.02C136.472 80.9641 136.19 80.8562 135.931 80.7023C135.407 80.3916 135.006 79.9127 134.816 79.3711C134.627 78.8295 134.664 78.2695 134.92 77.8143L136.462 75.0715Z" fill="black"/>
<path d="M136.534 74.9436L140.485 77.2869L138.941 80.0331C138.815 80.2585 138.638 80.4513 138.422 80.6007C138.206 80.75 137.954 80.853 137.681 80.9035C137.408 80.9541 137.119 80.9514 136.831 80.8955C136.542 80.8396 136.26 80.7316 136.001 80.5778C135.477 80.267 135.076 79.7882 134.887 79.2466C134.697 78.705 134.734 78.145 134.99 77.6898L136.534 74.9436Z" fill="#BE7C5E"/>
<path opacity="0.1" d="M136.268 75.4472C137.309 76.6159 138.709 77.4505 140.214 77.7994L140.451 77.3776L136.5 75.0343L136.268 75.4472Z" fill="black"/>
<path d="M138.123 76.8522C141.251 78.7072 145.025 78.0081 146.552 75.2907C148.08 72.5734 146.782 68.8668 143.654 67.0118C140.526 65.1569 136.752 65.856 135.225 68.5733C133.697 71.2907 134.995 74.9972 138.123 76.8522Z" fill="#BE7C5E"/>
<path d="M136.523 66.8515L147.324 73.2565C147.324 73.2565 148.531 68.9214 144.312 66.7412C140.094 64.561 136.523 66.8515 136.523 66.8515Z" fill="#333333"/>
<path d="M134.976 69.2906C135.267 69.4632 135.719 69.2189 135.986 68.7449C136.252 68.271 136.232 67.7469 135.941 67.5743C135.65 67.4018 135.198 67.6461 134.932 68.12C134.665 68.594 134.685 69.1181 134.976 69.2906Z" fill="#BE7C5E"/>
<path d="M146.04 75.8518C146.331 76.0244 146.783 75.7801 147.05 75.3061C147.316 74.8321 147.296 74.308 147.005 74.1355C146.714 73.9629 146.262 74.2073 145.996 74.6812C145.73 75.1552 145.749 75.6793 146.04 75.8518Z" fill="#BE7C5E"/>
<path opacity="0.1" d="M136.451 66.9794L147.252 73.3844C147.252 73.3844 148.459 69.0493 144.24 66.8691C140.022 64.6889 136.451 66.9794 136.451 66.9794Z" fill="black"/>
<rect x="108.121" y="104" width="27" height="12" rx="6" transform="rotate(30.67 108.121 104)" fill="#5F43CE"/>
<defs>
<linearGradient id="paint0_linear" x1="54601.6" y1="73912.2" x2="74367" y2="11478.2" gradientUnits="userSpaceOnUse">
<stop stop-color="#808080" stop-opacity="0.25"/>
<stop offset="0.54" stop-color="#808080" stop-opacity="0.12"/>
<stop offset="1" stop-color="#808080" stop-opacity="0.1"/>
</linearGradient>
<linearGradient id="paint1_linear" x1="23172.4" y1="7487.65" x2="20841" y2="1230.78" gradientUnits="userSpaceOnUse">
<stop stop-color="#808080" stop-opacity="0.25"/>
<stop offset="0.54" stop-color="#808080" stop-opacity="0.12"/>
<stop offset="1" stop-color="#808080" stop-opacity="0.1"/>
</linearGradient>
<linearGradient id="paint2_linear" x1="-11459.6" y1="63693.6" x2="-14267.4" y2="7684.74" gradientUnits="userSpaceOnUse">
<stop stop-color="#808080" stop-opacity="0.25"/>
<stop offset="0.54" stop-color="#808080" stop-opacity="0.12"/>
<stop offset="1" stop-color="#808080" stop-opacity="0.1"/>
</linearGradient>
<linearGradient id="paint3_linear" x1="2523.53" y1="11782.4" x2="5270.91" y2="7149.5" gradientUnits="userSpaceOnUse">
<stop stop-color="#808080" stop-opacity="0.25"/>
<stop offset="0.54" stop-color="#808080" stop-opacity="0.12"/>
<stop offset="1" stop-color="#808080" stop-opacity="0.1"/>
</linearGradient>
</defs>
</svg>
