<svg width="799" height="582" viewBox="0 0 799 582" fill="none" xmlns="http://www.w3.org/2000/svg">
<path d="M23.66 448.57C23.66 448.57 22.98 446.57 21.88 442.85" stroke="#69F0AE" stroke-width="9" stroke-miterlimit="10"/>
<path d="M18.66 431.25C-5.64998 337.65 -81.44 -93.73 678.32 175.57" stroke="#69BFF0" stroke-width="9" stroke-miterlimit="10" stroke-dasharray="12.04 12.04"/>
<path d="M684.01 177.57L689.66 179.57" stroke="#69BFF0" stroke-width="9" stroke-miterlimit="10"/>
<path d="M496.14 0H198.22C191.454 0 185.97 5.48451 185.97 12.25V569.71C185.97 576.476 191.454 581.96 198.22 581.96H496.14C502.905 581.96 508.39 576.476 508.39 569.71V12.25C508.39 5.48451 502.905 0 496.14 0Z" fill="url(#paint0_linear)"/>
<path d="M490.39 7.87H203.97C196.437 7.87 190.33 13.9768 190.33 21.51V560.47C190.33 568.003 196.437 574.11 203.97 574.11H490.39C497.923 574.11 504.03 568.003 504.03 560.47V21.51C504.03 13.9768 497.923 7.87 490.39 7.87Z" fill="#454545"/>
<path d="M425.99 22.06C425.082 28.065 422.056 33.5469 417.458 37.5142C412.859 41.4815 406.993 43.6722 400.92 43.69H292.58C286.509 43.6698 280.645 41.4781 276.049 37.511C271.452 33.5439 268.427 28.0633 267.52 22.06H210.12C208.555 22.0587 207.005 22.3658 205.559 22.9637C204.113 23.5617 202.799 24.4388 201.692 25.5448C200.585 26.6509 199.707 27.9643 199.107 29.4099C198.508 30.8556 198.2 32.4051 198.2 33.97V547.97C198.199 549.535 198.506 551.085 199.104 552.531C199.702 553.977 200.579 555.291 201.685 556.398C202.791 557.505 204.104 558.383 205.55 558.982C206.996 559.582 208.545 559.89 210.11 559.89H484.25C485.815 559.891 487.365 559.584 488.811 558.986C490.257 558.388 491.571 557.511 492.678 556.405C493.785 555.299 494.663 553.986 495.262 552.54C495.862 551.094 496.17 549.545 496.17 547.98V33.98C496.171 32.4151 495.864 30.8653 495.266 29.4192C494.668 27.973 493.791 26.6589 492.685 25.5519C491.579 24.4449 490.266 23.5667 488.82 22.9676C487.374 22.3684 485.825 22.06 484.26 22.06H425.99Z" fill="#6C63FF"/>
<path d="M380.58 28.84H314.67C313.565 28.84 312.67 29.7355 312.67 30.84V31.21C312.67 32.3146 313.565 33.21 314.67 33.21H380.58C381.685 33.21 382.58 32.3146 382.58 31.21V30.84C382.58 29.7355 381.685 28.84 380.58 28.84Z" fill="#DBDBDB"/>
<path d="M397.43 33.21C398.877 33.21 400.05 32.037 400.05 30.59C400.05 29.143 398.877 27.97 397.43 27.97C395.983 27.97 394.81 29.143 394.81 30.59C394.81 32.037 395.983 33.21 397.43 33.21Z" fill="#DBDBDB"/>
<path d="M410.5 192.09C410.5 187.31 409.5 186.09 407.36 184.24L349.29 140.57C348.469 139.954 347.471 139.621 346.445 139.621C345.419 139.621 344.421 139.954 343.6 140.57L286.55 183.05C285.178 184.03 284.074 185.34 283.34 186.858C282.606 188.377 282.266 190.056 282.35 191.74H282.29L282.14 257.18V260.09C282.137 261.982 282.886 263.798 284.221 265.138C285.556 266.479 287.368 267.235 289.26 267.24H292.07L346.17 267.36L403.08 267.49C404.972 267.493 406.788 266.744 408.128 265.409C409.469 264.074 410.225 262.262 410.23 260.37L410.38 192.14L410.5 192.09Z" fill="url(#paint1_linear)"/>
<path d="M283.339 192.002L409.168 192.288L409.011 261.517C409.01 262.066 408.901 262.61 408.689 263.116C408.478 263.623 408.169 264.083 407.78 264.47C407.391 264.858 406.93 265.164 406.422 265.373C405.914 265.582 405.371 265.689 404.822 265.688L287.822 265.422C286.599 265.42 285.428 264.931 284.565 264.065C283.703 263.198 283.22 262.025 283.222 260.802L283.379 192.002L283.339 192.002Z" fill="#6C63FF"/>
<path opacity="0.2" d="M283.339 192.002L409.168 192.288L409.011 261.517C409.01 262.066 408.901 262.61 408.689 263.116C408.478 263.623 408.169 264.083 407.78 264.47C407.391 264.858 406.93 265.164 406.422 265.373C405.914 265.582 405.371 265.689 404.822 265.688L287.822 265.422C286.599 265.42 285.428 264.931 284.565 264.065C283.703 263.198 283.22 262.025 283.222 260.802L283.379 192.002L283.339 192.002Z" fill="white"/>
<path d="M283.35 191.98L283.21 255.57C283.207 256.853 283.457 258.124 283.946 259.31C284.435 260.497 285.152 261.575 286.057 262.484C286.963 263.393 288.038 264.115 289.223 264.609C290.407 265.102 291.677 265.357 292.96 265.36L399.25 265.6" fill="#F5F5F5"/>
<path d="M409.19 192.26L409.05 255.89C409.047 257.173 408.792 258.443 408.299 259.627C407.805 260.812 407.083 261.887 406.174 262.793C405.265 263.698 404.187 264.415 403 264.904C401.814 265.393 400.543 265.643 399.26 265.64L292.97 265.4" fill="white"/>
<path d="M343.59 142.23L287.59 183.53C286.245 184.476 285.161 185.747 284.439 187.224C283.717 188.701 283.38 190.338 283.46 191.98L409.35 192.38C409.35 187.73 408.35 186.51 406.27 184.75L349.22 142.25C348.41 141.638 347.424 141.305 346.408 141.301C345.393 141.298 344.404 141.624 343.59 142.23V142.23Z" fill="#6C63FF"/>
<path opacity="0.2" d="M343.59 142.23L287.59 183.53C286.245 184.476 285.161 185.747 284.439 187.224C283.717 188.701 283.38 190.338 283.46 191.98L409.35 192.38C409.35 187.73 408.35 186.51 406.27 184.75L349.22 142.25C348.41 141.638 347.424 141.305 346.408 141.301C345.393 141.298 344.404 141.624 343.59 142.23V142.23Z" fill="black"/>
<path d="M449.18 323.57H245.18V384.57H449.18V323.57Z" fill="url(#paint2_linear)"/>
<path d="M442.18 329.57H252.18V373.57H442.18V329.57Z" fill="#69BFF0"/>
<path d="M795.23 214.52L798.82 215.08L798.26 214.55H798.56L798.09 214.39L733 152.66L717.2 177.59L704.06 200.33L710.15 201.28L707.45 213.6L795.23 214.52Z" fill="url(#paint3_linear)"/>
<path d="M719.93 178.89L707.93 199.7L795.93 214.03L739.25 174.56L719.93 178.89Z" fill="#6C63FF"/>
<path opacity="0.2" d="M719.93 178.89L707.93 199.7L795.93 214.03L739.25 174.56L719.93 178.89Z" fill="black"/>
<path d="M734.38 156.09L795.93 214.03L719.93 178.89L734.38 156.09Z" fill="#6C63FF"/>
<path d="M711.17 211.93L795.69 213.54L716.79 185.52L711.17 211.93Z" fill="#6C63FF"/>
<path d="M348.842 184H346.884C345.13 183.998 343.448 183.261 342.207 181.951C340.967 180.641 340.269 178.864 340.267 177.012V175.275C340.267 170.974 341.038 167.373 342.56 164.572C344.405 161.314 346.556 158.26 348.983 155.459C350.593 153.749 352.055 151.888 353.349 149.901C354.278 148.357 354.758 146.559 354.728 144.73C354.728 140.415 352.067 138.318 346.592 138.318C343.554 138.354 340.536 138.833 337.623 139.74C336.499 140.078 335.317 140.137 334.168 139.911C333.019 139.685 331.936 139.181 331.003 138.437C330.07 137.694 329.314 136.733 328.792 135.628C328.271 134.524 328 133.306 328 132.072V128.557C327.994 127.044 328.403 125.562 329.178 124.289C329.954 123.017 331.062 122.009 332.369 121.389C337.515 119.07 343.064 117.917 348.657 118.005C354.518 118.005 359.808 119.044 364.381 121.094C368.963 123.149 372.583 126.046 375.14 129.705C377.69 133.339 379.045 137.753 378.999 142.275C378.999 147.131 377.743 151.361 375.268 154.846C372.819 158.296 369.309 162.073 364.834 166.073C362.477 168.143 360.243 170.366 358.145 172.728C356.79 174.269 355.832 176.152 355.364 178.196C355.103 179.822 354.304 181.297 353.11 182.36C351.916 183.423 350.404 184.004 348.842 184V184Z" fill="#F2F2F2"/>
<path d="M347.622 216H347.362C344.082 215.998 340.938 214.627 338.62 212.189C336.302 209.752 335 206.446 335 203C335 199.554 336.302 196.248 338.62 193.811C340.938 191.373 344.082 190.002 347.362 190H347.622C349.247 189.999 350.857 190.334 352.358 190.987C353.86 191.64 355.225 192.597 356.374 193.805C357.524 195.012 358.435 196.445 359.058 198.023C359.68 199.601 360 201.292 360 203C360 204.708 359.68 206.399 359.058 207.977C358.435 209.555 357.524 210.988 356.374 212.195C355.225 213.403 353.86 214.36 352.358 215.013C350.857 215.666 349.247 216.001 347.622 216Z" fill="#F2F2F2"/>
<defs>
<linearGradient id="paint0_linear" x1="175874" y1="380756" x2="175874" y2="42078.9" gradientUnits="userSpaceOnUse">
<stop stop-color="#808080" stop-opacity="0.25"/>
<stop offset="0.54" stop-color="#808080" stop-opacity="0.12"/>
<stop offset="1" stop-color="#808080" stop-opacity="0.1"/>
</linearGradient>
<linearGradient id="paint1_linear" x1="70193.4" y1="43597.1" x2="70193.4" y2="27247.8" gradientUnits="userSpaceOnUse">
<stop stop-color="#808080" stop-opacity="0.25"/>
<stop offset="0.54" stop-color="#808080" stop-opacity="0.12"/>
<stop offset="1" stop-color="#808080" stop-opacity="0.1"/>
</linearGradient>
<linearGradient id="paint2_linear" x1="71069.9" y1="23782.3" x2="71069.9" y2="20061.3" gradientUnits="userSpaceOnUse">
<stop stop-opacity="0.12"/>
<stop offset="0.55" stop-opacity="0.09"/>
<stop offset="1" stop-opacity="0.02"/>
</linearGradient>
<linearGradient id="paint3_linear" x1="66199.7" y1="66190.3" x2="68376.4" y2="62755.2" gradientUnits="userSpaceOnUse">
<stop stop-color="#808080" stop-opacity="0.25"/>
<stop offset="0.54" stop-color="#808080" stop-opacity="0.12"/>
<stop offset="1" stop-color="#808080" stop-opacity="0.1"/>
</linearGradient>
</defs>
</svg>
