<svg width="228" height="206" viewBox="0 0 228 206" fill="none" xmlns="http://www.w3.org/2000/svg">
<path fill-rule="evenodd" clip-rule="evenodd" d="M113.035 0.0330047C136.931 -1.21154 142.878 33.078 162.411 45.8267C182.364 58.8495 219.793 52.8049 226.918 74.3619C234.086 96.0493 203.786 112.501 190.814 131.763C181.611 145.429 174.298 159.199 162.062 170.668C147.363 184.446 133.591 200.87 113.035 204.667C90.5252 208.825 66.891 202.896 47.2992 191.866C26.5994 180.211 7.02293 163.643 1.50222 141.872C-3.86754 120.696 5.902 98.39 19.0106 80.3092C30.054 65.0769 52.9713 63.2167 67.553 50.7671C85.452 35.4854 88.6764 1.30165 113.035 0.0330047Z" fill="#EED5ED" fill-opacity="0.55"/>
<path d="M68.4232 61.3956H62.2772L50 164.183L90.5006 162.878L68.4232 61.3956Z" fill="#B482C6"/>
<path opacity="0.2" d="M68.4232 61.3956H62.2772L50 164.183L90.5006 162.878L68.4232 61.3956Z" fill="black"/>
<path d="M67.0645 59.4553L59.6429 163.417L150.578 170L158 68.6672L67.0645 59.4553Z" fill="#B482C6"/>
<path opacity="0.2" d="M98.2137 71.0918C99.2782 71.0918 100.143 70.2226 100.143 69.1518C100.143 68.0811 99.2782 67.2119 98.2137 67.2119C97.1492 67.2119 96.2869 68.0811 96.2869 69.1518C96.2869 70.2226 97.1492 71.0918 98.2137 71.0918Z" fill="black"/>
<path opacity="0.2" d="M126.18 73.029C126.713 73.029 127.147 72.5959 127.147 72.0619C127.147 71.5251 126.713 71.0919 126.18 71.0919C125.647 71.0919 125.215 71.5251 125.215 72.0619C125.215 72.5959 125.647 73.029 126.18 73.029Z" fill="black"/>
<path d="M127.142 73.032H126.44C126.44 72.7514 126.937 45.3365 109.89 42.8108C106.533 42.3177 103.786 43.018 101.734 44.8979C94.6961 51.3443 97.6071 69.55 97.6338 69.7298L96.944 69.8307C96.8162 69.065 93.9557 51.11 101.246 44.4375C103.465 42.3967 106.426 41.6338 110.009 42.1624C127.647 44.7698 127.151 72.7514 127.142 73.032Z" fill="#3F3D56"/>
<g filter="url(#filter0_i)">
<path d="M109.5 137C121.926 137 132 127.15 132 115C132 102.85 121.926 93 109.5 93C97.0736 93 87 102.85 87 115C87 127.15 97.0736 137 109.5 137Z" fill="#9605AD"/>
</g>
<g filter="url(#filter1_i)">
<path d="M114 110.136C114 109.438 113.808 108.752 113.442 108.14C113.076 107.529 112.547 107.013 111.905 106.64C111.263 106.267 110.529 106.05 109.771 106.007C109.013 105.965 108.256 106.1 107.57 106.4C106.884 106.699 106.291 107.153 105.848 107.72C105.404 108.286 105.124 108.946 105.032 109.639C104.941 110.332 105.043 111.035 105.327 111.682C105.611 112.329 106.069 112.899 106.657 113.34L105 124H114L112.343 113.34C112.861 112.953 113.279 112.464 113.565 111.91C113.852 111.356 114.001 110.75 114 110.136V110.136Z" fill="white"/>
</g>
<path d="M39.2296 104.553C39.0981 102.193 38.1157 99.9429 36.4667 98.223C34.8177 96.503 32.6152 95.4318 30.272 95.21C27.9289 94.9881 25.606 95.631 23.7387 97.0181C21.8714 98.4051 20.588 100.441 20.129 102.744C19.67 105.048 20.0669 107.46 21.2454 109.53C22.4238 111.599 24.3029 113.184 26.5304 113.986C28.7578 114.788 31.1808 114.753 33.345 113.888C35.5093 113.022 37.2662 111.386 38.2866 109.285L70.6063 115.984L69.6995 121.124L71.4431 121.679L70.9897 124.249L69.2112 123.891L68.7578 126.461L71.5243 127.018L71.8033 125.436L74.7675 126.033L74.4884 127.614L78.8359 128.489L79.2544 126.117L77.6735 125.799L78.1269 123.229L80.1031 123.626L80.9401 118.882L85.6828 119.836L86.6942 114.103L39.2296 104.553ZM24.3657 108.419C23.6415 107.363 23.2404 106.121 23.2131 104.852C23.1857 103.583 23.5334 102.344 24.2121 101.29C24.8908 100.236 25.8701 99.4161 27.0261 98.9329C28.1821 98.4498 29.4629 98.3255 30.7065 98.5757C31.9501 98.8259 33.1007 99.4395 34.0128 100.339C34.9249 101.238 35.5575 102.383 35.8306 103.628C36.1038 104.873 36.0051 106.163 35.5472 107.334C35.0893 108.506 34.2927 109.506 33.2581 110.209C31.8708 111.151 30.1545 111.492 28.4868 111.157C26.8192 110.821 25.3367 109.836 24.3657 108.419L24.3657 108.419Z" fill="#320150" fill-opacity="0.86"/>
<defs>
<filter id="filter0_i" x="87" y="93" width="45" height="48" filterUnits="userSpaceOnUse" color-interpolation-filters="sRGB">
<feFlood flood-opacity="0" result="BackgroundImageFix"/>
<feBlend mode="normal" in="SourceGraphic" in2="BackgroundImageFix" result="shape"/>
<feColorMatrix in="SourceAlpha" type="matrix" values="0 0 0 0 0 0 0 0 0 0 0 0 0 0 0 0 0 0 127 0" result="hardAlpha"/>
<feOffset dy="4"/>
<feGaussianBlur stdDeviation="2"/>
<feComposite in2="hardAlpha" operator="arithmetic" k2="-1" k3="1"/>
<feColorMatrix type="matrix" values="0 0 0 0 0 0 0 0 0 0 0 0 0 0 0 0 0 0 0.25 0"/>
<feBlend mode="normal" in2="shape" result="effect1_innerShadow"/>
</filter>
<filter id="filter1_i" x="105" y="106" width="9" height="22" filterUnits="userSpaceOnUse" color-interpolation-filters="sRGB">
<feFlood flood-opacity="0" result="BackgroundImageFix"/>
<feBlend mode="normal" in="SourceGraphic" in2="BackgroundImageFix" result="shape"/>
<feColorMatrix in="SourceAlpha" type="matrix" values="0 0 0 0 0 0 0 0 0 0 0 0 0 0 0 0 0 0 127 0" result="hardAlpha"/>
<feOffset dy="4"/>
<feGaussianBlur stdDeviation="2"/>
<feComposite in2="hardAlpha" operator="arithmetic" k2="-1" k3="1"/>
<feColorMatrix type="matrix" values="0 0 0 0 0 0 0 0 0 0 0 0 0 0 0 0 0 0 0.25 0"/>
<feBlend mode="normal" in2="shape" result="effect1_innerShadow"/>
</filter>
</defs>
</svg>
