<svg width="645" height="413" viewBox="0 0 645 413" fill="none" xmlns="http://www.w3.org/2000/svg">
<path d="M644.137 0.36499H0.274902V412.723H644.137V0.36499Z" fill="#E6E6E6"/>
<path d="M625.725 52.085H18.686V388.328H625.725V52.085Z" fill="white"/>
<path d="M643.862 0H0V27.3536H643.862V0Z" fill="#535461"/>
<path d="M20.327 19.0544C23.1269 19.0544 25.3968 16.7845 25.3968 13.9846C25.3968 11.1846 23.1269 8.91479 20.327 8.91479C17.527 8.91479 15.2572 11.1846 15.2572 13.9846C15.2572 16.7845 17.527 19.0544 20.327 19.0544Z" fill="white"/>
<path d="M39.5706 19.0544C42.3706 19.0544 44.6404 16.7845 44.6404 13.9846C44.6404 11.1846 42.3706 8.91479 39.5706 8.91479C36.7707 8.91479 34.5009 11.1846 34.5009 13.9846C34.5009 16.7845 36.7707 19.0544 39.5706 19.0544Z" fill="white"/>
<path d="M58.8142 19.0544C61.6142 19.0544 63.884 16.7845 63.884 13.9846C63.884 11.1846 61.6142 8.91479 58.8142 8.91479C56.0143 8.91479 53.7444 11.1846 53.7444 13.9846C53.7444 16.7845 56.0143 19.0544 58.8142 19.0544Z" fill="white"/>
<path opacity="0.3" d="M444.355 262.551C424.949 246.174 412.412 223.099 409.232 197.906C406.052 172.714 412.462 147.247 427.19 126.562C425.256 128.51 423.386 130.55 421.58 132.682C413.012 142.834 406.528 154.575 402.498 167.234C398.467 179.893 396.97 193.221 398.091 206.459C399.212 219.696 402.929 232.583 409.031 244.384C415.133 256.185 423.499 266.668 433.652 275.235C443.805 283.802 455.547 290.286 468.206 294.315C480.865 298.345 494.194 299.841 507.431 298.719C520.668 297.597 533.555 293.879 545.355 287.776C557.156 281.674 567.638 273.307 576.205 263.153C578.006 261.018 579.702 258.832 581.294 256.594C563.381 274.592 539.356 285.195 513.987 286.299C488.619 287.402 463.763 278.925 444.355 262.551V262.551Z" fill="black"/>
<path d="M223.64 199.837H202.418V218.595H223.64V199.837Z" fill="#3F3D56"/>
<path d="M223.64 199.837H202.418V218.595H223.64V199.837Z" fill="white"/>
<path d="M223.64 265.835H202.418V284.593H223.64V265.835Z" fill="white"/>
<path d="M223.64 233.367H202.418V251.828H223.64V233.367Z" fill="white"/>
<path d="M142 245.663L198.628 195H309.962L378 244.785L376.626 245.448H377.116V349H142.078V245.448L142 245.663Z" fill="#3F3D56"/>
<path d="M177 224H190V191H177V224Z" fill="#3F3D56"/>
<path d="M197.902 194L268 255.614V349H142V243.893L197.902 194Z" fill="#6C63FF"/>
<path d="M251 268H226V288H251V268Z" fill="#3F3D56"/>
<path d="M251 295H226V314H251V295Z" fill="#3F3D56"/>
<path d="M251 268H226V288H251V268Z" fill="white"/>
<path d="M251 295H226V314H251V295Z" fill="white"/>
<path d="M216 268H191V288H216V268Z" fill="#3F3D56"/>
<path d="M216 295H191V314H216V295Z" fill="#3F3D56"/>
<path d="M216 268H191V288H216V268Z" fill="white"/>
<path d="M216 295H191V314H216V295Z" fill="white"/>
<path d="M181 268H156V288H181V268Z" fill="#3F3D56"/>
<path d="M181 295H156V314H181V295Z" fill="#3F3D56"/>
<path d="M181 268H156V288H181V268Z" fill="white"/>
<path d="M181 295H156V314H181V295Z" fill="white"/>
<path d="M429 76H418V98H429V76Z" fill="#6C63FF"/>
<path d="M429 96H329V349H429V96Z" fill="#6C63FF"/>
<path d="M468 96H429V349H468V96Z" fill="#3F3D56"/>
<path d="M363 118H348V129H363V118Z" fill="white"/>
<path d="M387 118H372V129H387V118Z" fill="white"/>
<path d="M411 118H395V129H411V118Z" fill="white"/>
<path d="M363 143H348V155H363V143Z" fill="white"/>
<path d="M387 143H372V155H387V143Z" fill="white"/>
<path d="M411 143H397V155H411V143Z" fill="white"/>
<path d="M363 169H348V180H363V169Z" fill="white"/>
<path d="M387 169H372V180H387V169Z" fill="white"/>
<path d="M411 169H397V180H411V169Z" fill="white"/>
<path d="M364 195H350V206H364V195Z" fill="white"/>
<path d="M389 195H372V206H389V195Z" fill="white"/>
<path d="M411 195H397V206H411V195Z" fill="white"/>
<path d="M364 221H350V231H364V221Z" fill="white"/>
<path d="M389 221H374V231H389V221Z" fill="white"/>
<path d="M413 221H398V231H413V221Z" fill="white"/>
<path d="M364 246H350V258H364V246Z" fill="white"/>
<path d="M389 246H374V258H389V246Z" fill="white"/>
<path d="M413 246H398V258H413V246Z" fill="white"/>
<path d="M366 271H350V283H366V271Z" fill="white"/>
<path d="M389 271H374V283H389V271Z" fill="white"/>
<path d="M413 271H398V283H413V271Z" fill="white"/>
<path d="M366 297H351V309H366V297Z" fill="white"/>
<path d="M390 297H375V309H390V297Z" fill="white"/>
<path d="M390 327H375V348H390V327Z" fill="white"/>
<path d="M414 297H399V309H414V297Z" fill="white"/>
<path d="M436 76H429V97H436V76Z" fill="#3F3D56"/>
<path d="M554 187H542V200H554V187Z" fill="#6C63FF"/>
<path d="M553 199H454V349H553V199Z" fill="#6C63FF"/>
<path d="M593 199H553V349H593V199Z" fill="#3F3D56"/>
<path d="M489 221H473V231H489V221Z" fill="white"/>
<path d="M512 221H498V231H512V221Z" fill="white"/>
<path d="M537 221H522V231H537V221Z" fill="white"/>
<path d="M489 246H475V258H489V246Z" fill="white"/>
<path d="M514 246H499V258H514V246Z" fill="white"/>
<path d="M538 246H523V258H538V246Z" fill="white"/>
<path d="M489 271H475V283H489V271Z" fill="white"/>
<path d="M514 271H499V283H514V271Z" fill="white"/>
<path d="M538 271H523V283H538V271Z" fill="white"/>
<path d="M489 297H475V309H489V297Z" fill="white"/>
<path d="M514 297H499V309H514V297Z" fill="white"/>
<path d="M514 327H499V348H514V327Z" fill="white"/>
<path d="M538 297H523V309H538V297Z" fill="white"/>
<path d="M559 187H553V200H559V187Z" fill="#3F3D56"/>
<path d="M155.464 341.2C153.44 341.2 151.452 341.587 149.7 342.322C147.921 341.155 145.713 340.387 143.344 340.113C140.975 339.838 138.548 340.068 136.356 340.775C134.164 341.483 132.302 342.636 130.996 344.096C129.691 345.556 128.997 347.26 129 349H167C166.793 346.882 165.488 344.901 163.347 343.453C161.207 342.006 158.39 341.201 155.464 341.2V341.2Z" fill="#3F3D56"/>
<path d="M352.16 341.2C350.083 341.2 348.043 341.587 346.245 342.322C344.419 341.155 342.153 340.387 339.722 340.113C337.29 339.838 334.799 340.068 332.549 340.775C330.3 341.483 328.389 342.636 327.049 344.096C325.709 345.556 324.997 347.26 325 349H364C363.787 346.882 362.448 344.901 360.251 343.453C358.054 342.006 355.163 341.201 352.16 341.2V341.2Z" fill="#3F3D56"/>
<path d="M480.464 341.2C478.44 341.2 476.452 341.587 474.7 342.322C472.921 341.155 470.713 340.387 468.344 340.113C465.975 339.838 463.548 340.068 461.356 340.775C459.164 341.483 457.302 342.636 455.996 344.096C454.691 345.556 453.997 347.26 454 349H492C491.793 346.882 490.488 344.901 488.347 343.453C486.207 342.006 483.39 341.201 480.464 341.2V341.2Z" fill="#3F3D56"/>
<path d="M163.542 81L143.542 71L123.542 81" stroke="black" stroke-width="4"/>
<path d="M151.163 91.1093C149.386 91.4496 148.008 92.1891 146.557 93.586C145.469 94.631 144.828 95.4996 144.104 96.8849C143.511 98.0351 143.1 99.0917 142.834 100.184L142.617 101.029L136.017 101.065L129.405 101.1L128.438 101.417C126.396 102.098 126.879 101.676 114.102 114.073L102.293 125.518L101.798 126.516C100.614 128.852 100.759 131.576 102.16 133.689C102.922 134.828 118.007 149.374 119.071 149.996C121.247 151.252 123.857 151.334 126.203 150.218L127.23 149.737L139.015 138.267C147.863 129.674 150.909 126.645 151.211 126.14C151.429 125.764 151.779 125.002 151.997 124.438L152.372 123.404L152.408 114.834C152.444 106.57 152.432 106.241 152.202 105.502C151.864 104.445 151.223 103.447 150.413 102.708C149.664 102.039 148.02 101.158 147.851 101.346C147.585 101.627 147.44 103.341 147.367 106.969L147.295 110.843L146.944 111.465C146.533 112.17 145.917 112.768 145.155 113.156C144.721 113.379 144.455 113.426 143.488 113.426C142.521 113.426 142.255 113.379 141.82 113.156C141.059 112.768 140.442 112.17 140.031 111.465C139.717 110.901 139.681 110.737 139.681 109.728C139.681 108.519 139.838 108.084 140.551 107.263C140.914 106.84 141.857 106.206 142.123 106.206C142.244 106.206 142.279 106.641 142.279 108.213V110.221L142.63 110.561C143.125 111.03 143.851 111.042 144.334 110.573L144.673 110.244L144.733 106.487C144.806 102.519 144.915 101.545 145.543 99.7602C146.715 96.3793 148.94 94.0427 151.466 93.5144C154.174 92.9506 157.05 94.7118 158.707 97.9519C161.414 103.223 160.52 110.572 156.724 114.129C156.313 114.517 155.782 114.939 155.54 115.068L155.093 115.303V116.619C155.093 117.511 155.141 117.946 155.226 117.946C155.516 117.946 157.039 117.077 157.776 116.49C162.84 112.429 164.315 103.471 160.979 96.9908C159.94 94.9481 158.199 93.0345 156.531 92.0838C154.934 91.1797 152.855 90.7922 151.163 91.1093Z" fill="#550052"/>
<path d="M117.947 133.889C117.651 133.619 117.339 133.469 117.011 133.44C116.686 133.408 116.36 133.552 116.035 133.871L115.991 133.914L115.947 133.966C115.609 134.298 115.495 134.724 115.607 135.246C115.718 135.76 116.065 136.284 116.647 136.816L116.879 137.028C117.401 137.504 117.902 137.774 118.383 137.838C118.868 137.898 119.257 137.785 119.55 137.498L119.594 137.455C119.935 137.12 120.078 136.748 120.021 136.339C119.964 135.929 119.707 135.516 119.25 135.097C119.182 135.023 119.131 134.971 119.098 134.94L118.794 134.636L118.219 134.11L118.053 133.976C118.016 133.949 117.981 133.92 117.947 133.889ZM115.493 133.246C115.851 132.895 116.02 132.643 116.001 132.49C115.97 132.252 115.724 131.923 115.263 131.502C115.126 131.376 114.97 131.261 114.796 131.158C114.618 131.051 114.506 130.976 114.459 130.933C114.308 130.795 114.235 130.624 114.241 130.42C114.248 130.216 114.357 130.011 114.568 129.803L114.661 129.713C114.918 129.461 115.186 129.425 115.464 129.605C115.665 129.733 116.623 130.581 118.339 132.148L118.935 132.711L119.778 133.481L120.252 133.896C120.329 133.967 120.406 134.037 120.484 134.108L120.6 134.205C120.677 134.269 120.813 134.39 121.008 134.569C121.2 134.744 121.415 134.891 121.652 135.009C121.889 135.12 122.044 135.21 122.118 135.278C122.192 135.345 122.224 135.451 122.213 135.596C122.202 135.74 122.117 135.89 121.958 136.046C121.802 136.2 121.619 136.337 121.409 136.46C121.199 136.577 121.063 136.665 121.001 136.726C120.939 136.786 120.819 136.997 120.64 137.357C120.464 137.714 120.273 137.993 120.068 138.194L119.961 138.299C119.407 138.841 118.783 139.087 118.087 139.037C117.39 138.98 116.728 138.664 116.098 138.089L115.841 137.854C115.511 137.553 115.232 137.202 115.003 136.802C114.774 136.396 114.635 135.985 114.584 135.569C114.487 134.709 114.789 133.935 115.493 133.246ZM123.21 129.517C123.431 129.3 123.552 129.114 123.572 128.96C123.593 128.807 123.558 128.688 123.467 128.605L123.255 128.412C123.013 128.19 122.726 128.092 122.396 128.116C122.065 128.141 121.797 128.254 121.592 128.455L121.465 128.579C121.169 128.869 121.04 129.241 121.077 129.695C121.112 130.145 121.282 130.51 121.588 130.79L121.674 130.868C121.792 130.976 121.955 130.928 122.163 130.724L122.275 130.614L122.3 130.58L122.641 130.198L122.864 129.941L123.01 129.76C123.036 129.728 123.07 129.685 123.112 129.631C123.158 129.574 123.19 129.536 123.21 129.517ZM126.048 132.489L125.833 132.699C125.182 133.337 124.432 133.641 123.584 133.612C123.206 133.6 122.814 133.5 122.407 133.313C121.996 133.123 121.638 132.888 121.332 132.608L121.105 132.401C120.798 132.121 120.539 131.767 120.326 131.338C119.908 130.506 119.866 129.703 120.2 128.93C120.368 128.529 120.617 128.168 120.946 127.846L121.053 127.74C121.509 127.294 122.028 127.056 122.61 127.027C122.944 127.012 123.27 127.069 123.586 127.198C123.903 127.321 124.154 127.467 124.339 127.636C124.746 128.008 124.888 128.372 124.765 128.728C124.68 128.971 124.372 129.423 123.84 130.084C123.312 130.741 123.027 131.106 122.985 131.179C122.776 131.524 122.766 131.783 122.954 131.955C123.281 132.253 123.698 132.36 124.206 132.276C124.579 132.217 124.963 131.994 125.357 131.608C125.507 131.461 125.7 131.179 125.938 130.761C126.176 130.344 126.311 130.119 126.343 130.087C126.513 129.921 126.676 129.91 126.835 130.055C127.033 130.236 127.048 130.595 126.878 131.13C126.709 131.659 126.432 132.112 126.048 132.489ZM129.77 127.513L129.921 127.365C130.224 127.068 130.356 126.684 130.318 126.212C130.297 125.952 130.085 125.638 129.681 125.269L129.621 125.204L129.494 125.089C129.242 124.858 129.015 124.842 128.813 125.04L128.657 125.193L128.423 125.46L128.306 125.603C128.007 125.896 127.849 126.217 127.832 126.565C127.811 126.91 127.92 127.192 128.159 127.41L128.336 127.571C128.517 127.737 128.744 127.827 129.016 127.841C129.288 127.849 129.539 127.74 129.77 127.513ZM132.483 125.314C132.708 125.52 132.601 125.838 132.162 126.269C132.084 126.345 131.9 126.449 131.611 126.579C131.322 126.703 131.15 126.792 131.094 126.846C131.042 126.897 130.925 127.123 130.744 127.524C130.559 127.922 130.352 128.233 130.124 128.456L130.012 128.566C129.657 128.914 129.232 129.105 128.736 129.138C128.236 129.169 127.778 128.994 127.361 128.613C126.513 127.838 126.504 126.847 127.334 125.639C127.87 124.852 128.144 124.443 128.157 124.412C128.232 124.179 128.16 123.962 127.942 123.762C127.72 123.56 127.466 123.458 127.181 123.456C126.897 123.449 126.637 123.56 126.403 123.789C126.171 124.016 125.98 124.359 125.829 124.819C125.675 125.276 125.539 125.562 125.422 125.677C125.211 125.884 124.955 125.851 124.656 125.577C124.467 125.405 124.455 125.079 124.619 124.6C124.786 124.118 125.083 123.668 125.509 123.25L125.753 123.011C126.072 122.699 126.418 122.478 126.79 122.349C127.162 122.221 127.519 122.189 127.861 122.256C128.346 122.347 129.123 122.882 130.193 123.86C130.799 124.413 131.187 124.746 131.358 124.859C131.532 124.969 131.738 125.05 131.978 125.102C132.214 125.151 132.382 125.222 132.483 125.314ZM127.133 118.096C126.867 117.853 126.946 117.524 127.369 117.109L127.457 117.023C127.759 116.727 128.06 116.678 128.358 116.876L129.453 117.877L129.822 118.232L130.009 118.403L130.569 118.943L130.756 119.113L130.852 119.21C130.916 119.269 130.98 119.327 131.044 119.385L131.135 119.478C131.199 119.536 131.263 119.595 131.327 119.653L131.418 119.745L131.892 120.179L132.553 120.755C132.616 120.807 132.771 120.945 133.017 121.169C133.262 121.394 133.556 121.603 133.897 121.798C134.238 121.986 134.539 122.108 134.802 122.163C135.061 122.215 135.248 122.293 135.362 122.397C135.477 122.502 135.509 122.661 135.46 122.875C135.414 123.086 135.264 123.315 135.01 123.564L134.839 123.732C134.38 124.181 133.962 124.234 133.586 123.89C133.559 123.865 133.484 123.772 133.362 123.612C133.24 123.451 132.984 123.189 132.594 122.826L131.417 121.695L131.326 121.603C131.262 121.545 131.198 121.486 131.134 121.428L130.947 121.248C130.883 121.189 130.819 121.131 130.755 121.073L130.664 120.98C130.6 120.922 130.536 120.863 130.473 120.805L130.286 120.625C130.222 120.567 130.158 120.508 130.094 120.45L129.907 120.27L129.71 120.09L129.523 119.91L128.575 119.043C128.191 118.693 127.869 118.46 127.609 118.346C127.349 118.231 127.19 118.148 127.133 118.096ZM134.565 118.821C134.029 118.862 133.56 118.698 133.156 118.329C132.749 117.957 132.585 117.49 132.665 116.928C132.741 116.363 133.038 115.826 133.555 115.319C134.073 114.812 134.516 114.502 134.885 114.389C135.251 114.273 135.538 114.31 135.746 114.501C136.032 114.762 136.086 114.981 135.907 115.156C135.845 115.217 135.611 115.315 135.206 115.45C134.802 115.586 134.474 115.776 134.223 116.022C133.973 116.267 133.843 116.506 133.833 116.738C133.827 116.967 133.917 117.166 134.102 117.335C134.287 117.504 134.572 117.537 134.958 117.433C135.09 117.399 135.471 117.249 136.102 116.981C136.733 116.706 137.222 116.555 137.569 116.527C138.112 116.487 138.59 116.655 139.003 117.033C139.417 117.412 139.598 117.894 139.545 118.481C139.492 119.061 139.202 119.61 138.675 120.126C137.78 121.003 137.045 121.383 136.47 121.264C136.287 121.227 136.152 121.168 136.065 121.088C135.772 120.821 135.713 120.601 135.889 120.429C135.941 120.378 136.223 120.274 136.733 120.118C137.243 119.956 137.627 119.748 137.884 119.496C138.145 119.241 138.293 118.988 138.328 118.737C138.363 118.486 138.283 118.271 138.088 118.093C137.89 117.911 137.589 117.862 137.187 117.944C137.022 117.978 136.629 118.127 136.008 118.392C135.383 118.653 134.902 118.797 134.565 118.821Z" fill="white"/>
<path d="M41.1484 99.4902C41.1367 99.4902 41.1191 99.4902 41.0957 99.4902C39.748 99.4902 39.0742 99.0273 39.0742 98.1016C39.0742 97.6562 39.1914 97.1055 39.4258 96.4492C39.6602 95.793 39.7949 95.1309 39.8301 94.4629C39.8652 93.7832 39.8828 92.7461 39.8828 91.3516V88.0645L39.918 87.1504C39.9414 86.541 39.9531 86.1074 39.9531 85.8496L39.7773 84.0391C39.7773 83.6289 40.1406 83.4238 40.8672 83.4238C41.6055 83.4238 42.3613 83.623 43.1348 84.0215C43.9082 84.4199 44.3828 84.6191 44.5586 84.6191C44.7461 84.6191 45.0918 84.502 45.5957 84.2676C46.1113 84.0332 46.7148 83.7812 47.4062 83.5117C48.1094 83.2305 48.8301 83.0898 49.5684 83.0898H50.0254C50.9043 83.0898 51.6836 83.3301 52.3633 83.8105C53.0547 84.2793 53.5527 84.9355 53.8574 85.7793C54.1738 86.6113 54.3965 88.1465 54.5254 90.3848L54.5781 91.3516L54.6133 92.3184C54.6484 92.8809 54.6895 93.4902 54.7363 94.1465C54.7832 94.8027 54.9414 95.4941 55.2109 96.2207C55.4805 96.9355 55.6152 97.416 55.6152 97.6621C55.6152 98.7051 54.8184 99.2266 53.2246 99.2266C52.5449 99.2266 52.0469 99.0918 51.7305 98.8223C51.4141 98.541 51.2559 98.0723 51.2559 97.416L51.291 96.7656C51.291 92.207 50.9629 89.1016 50.3066 87.4492C49.791 86.1719 48.8828 85.5332 47.582 85.5332C46.9609 85.5332 46.3516 85.6914 45.7539 86.0078C45.168 86.3125 44.7109 86.8105 44.3828 87.502C43.7969 88.7324 43.5039 91.0996 43.5039 94.6035L43.6445 97.7852C43.6445 98.2891 43.4043 98.6992 42.9238 99.0156C42.4434 99.332 41.8516 99.4902 41.1484 99.4902ZM60.9062 100.07H60.4668C59.4824 100.07 58.9902 99.7422 58.9902 99.0859C58.9902 99.0391 59.834 97.8145 61.5215 95.4121C63.2207 92.998 64.0703 91.6035 64.0703 91.2285C64.0703 90.8535 63.3145 89.582 61.8027 87.4141C61.3809 86.8047 60.8184 86.1133 60.1152 85.3398C59.4238 84.5547 59.0781 84.0156 59.0781 83.7227C59.0781 83.0547 59.916 82.7207 61.5918 82.7207C62.8105 82.7207 63.666 83.0254 64.1582 83.6348C64.252 83.752 64.3691 84.0039 64.5098 84.3906C64.6504 84.7656 64.9082 85.2988 65.2832 85.9902C66.1035 87.4902 66.6895 88.2402 67.041 88.2402C67.3223 88.2402 67.9375 87.4668 68.8867 85.9199C69.2617 85.3105 69.543 84.7422 69.7305 84.2148C69.9297 83.6875 70.0645 83.377 70.1348 83.2832C70.4863 82.8262 71.0371 82.5977 71.7871 82.5977C73.2051 82.5977 73.9141 82.8496 73.9141 83.3535C73.9141 83.6465 73.0996 84.8301 71.4707 86.9043C69.8418 88.9785 69.0273 90.3203 69.0273 90.9297C69.0273 91.5273 69.8945 92.9746 71.6289 95.2715C72.2031 96.0332 72.8066 96.7246 73.4395 97.3457C74.084 97.9668 74.4062 98.4531 74.4062 98.8047C74.4062 99.4609 73.4336 99.7949 71.4883 99.8066C70.5156 99.8066 69.8125 99.5312 69.3789 98.9805C69.2969 98.875 69.1562 98.5996 68.957 98.1543C68.7695 97.709 68.541 97.252 68.2715 96.7832C67.2168 94.9668 66.5488 94.0586 66.2676 94.0586C65.916 94.0586 65.2363 94.8965 64.2285 96.5723C63.9355 97.0645 63.6719 97.627 63.4375 98.2598C63.2148 98.8809 63.0801 99.2266 63.0332 99.2969C62.6582 99.8125 61.9492 100.07 60.9062 100.07ZM84.6895 99.9297H84.0215C82.334 99.9297 81.1211 99.2031 80.3828 97.75C79.7734 96.5664 79.4688 94.6211 79.4688 91.9141C79.4688 89.207 79.3223 87.3496 79.0293 86.3418C78.9238 85.9668 78.6309 85.5391 78.1504 85.0586C77.6699 84.5781 77.4297 84.1621 77.4297 83.8105V83.582C77.4297 83.2773 77.7051 82.9434 78.2559 82.5801C78.8066 82.2168 79.123 81.959 79.2051 81.8066C79.2988 81.6426 79.4746 81.0742 79.7324 80.1016C80.002 79.1172 80.2773 78.4316 80.5586 78.0449C80.8516 77.6465 81.2383 77.4473 81.7188 77.4473C82.2109 77.4473 82.5566 77.5879 82.7559 77.8691C82.9668 78.1504 83.1719 78.7305 83.3711 79.6094C83.582 80.4883 83.8105 81.0859 84.0566 81.4023C84.3027 81.707 84.9004 82.0293 85.8496 82.3691C86.7988 82.709 87.2734 83.1309 87.2734 83.6348C87.2734 84.0801 86.7754 84.4785 85.7793 84.8301C84.7949 85.1816 84.1738 85.6152 83.916 86.1309C83.4238 87.127 83.1777 88.8906 83.1777 91.4219C83.1777 93.9531 83.3945 95.5059 83.8281 96.0801C84.2617 96.6426 84.9648 96.9883 85.9375 97.1172C86.9219 97.2461 87.4141 97.6152 87.4141 98.2246C87.4141 98.6934 87.1328 99.0977 86.5703 99.4375C86.0195 99.7656 85.3926 99.9297 84.6895 99.9297ZM91.6855 91.4395C91.1699 91.4395 90.9121 91.1406 90.9121 90.543V90.1387C90.9121 89.3535 91.0938 88.9023 91.457 88.7852C91.8203 88.6562 93.4961 88.5918 96.4844 88.5918L99.9297 88.5391H100.58C101.26 88.5391 101.6 88.8438 101.6 89.4531V89.8398C101.576 90.0039 101.564 90.1328 101.564 90.2266C101.564 90.8125 101.342 91.1582 100.896 91.2637C100.463 91.3574 98.834 91.4043 96.0098 91.4043H95.2188L94.832 91.4219H94.041L93.5137 91.4395H91.6855ZM116.541 88.2051C116.541 87.1738 116.283 86.3359 115.768 85.6914C115.264 85.0469 114.426 84.7246 113.254 84.7246H113.096L112.92 84.7422C111.701 84.7422 110.693 85.3223 109.896 86.4824C109.111 87.6309 108.719 89.2188 108.719 91.2461V92.0547C108.719 93.8711 109.076 95.2715 109.791 96.2559C110.518 97.2402 111.408 97.7324 112.463 97.7324H112.621C113.852 97.7324 114.807 97.3047 115.486 96.4492C116.166 95.5938 116.506 94.3691 116.506 92.7754C116.529 92.5176 116.541 92.3301 116.541 92.2129L116.594 91.1055V89.1016L116.559 88.5566C116.547 88.4395 116.541 88.3223 116.541 88.2051ZM113.5 82.5977C114.789 82.5977 115.562 82.4395 115.82 82.123C116.219 81.6309 116.418 80.582 116.418 78.9766C116.418 78.4961 116.365 78.0039 116.26 77.5C116.154 76.9844 116.102 76.6445 116.102 76.4805C116.102 75.9531 116.301 75.5078 116.699 75.1445C117.098 74.7812 117.678 74.5996 118.439 74.5996H118.773C119.699 74.5996 120.232 75.0156 120.373 75.8477C120.479 76.4453 120.531 79.7324 120.531 85.709L120.496 87.8184V90.7539L120.531 92.3711C120.531 92.6406 120.531 92.9102 120.531 93.1797L120.549 93.5664C120.561 93.8242 120.566 94.293 120.566 94.9727C120.566 95.6406 120.66 96.2969 120.848 96.9414C121.047 97.5742 121.146 98.0195 121.146 98.2773C121.146 98.5352 121 98.7871 120.707 99.0332C120.414 99.2793 119.98 99.4023 119.406 99.4023C118.844 99.4023 118.264 99.3262 117.666 99.1738C117.08 99.0098 116.676 98.9277 116.453 98.9277C116.23 98.9277 115.621 99.0977 114.625 99.4375C113.641 99.7773 112.779 99.9473 112.041 99.9473H111.654C109.662 99.9473 108.109 99.2734 106.996 97.9258C105.895 96.5664 105.344 94.791 105.344 92.5996V91.7031C105.344 90.5547 105.525 89.4062 105.889 88.2578C106.264 87.0977 106.803 86.0898 107.506 85.2344C108.971 83.4766 110.969 82.5977 113.5 82.5977ZM132.625 97.9609H132.977C134.16 97.9609 135.133 97.4395 135.895 96.3965C136.656 95.3535 137.037 94.0352 137.037 92.4414L137.072 92.0547L137.09 91.457V90.666C137.09 88.9199 136.732 87.4844 136.018 86.3594C135.314 85.2227 134.371 84.6543 133.188 84.6543H132.836C131.676 84.6543 130.697 85.2285 129.9 86.377C129.115 87.5254 128.723 89.0488 128.723 90.9473V92.1426C128.746 92.4238 128.758 92.6172 128.758 92.7227C128.758 94.0586 129.127 95.2656 129.865 96.3438C130.604 97.4219 131.523 97.9609 132.625 97.9609ZM141.062 90.9121V91.4922C141.062 92.5352 140.893 93.6074 140.553 94.709C139.861 96.9473 138.502 98.5527 136.475 99.5254C135.303 100.088 134.143 100.369 132.994 100.369H132.396C131.307 100.369 130.293 100.146 129.355 99.7012C127.492 98.8105 126.256 97.334 125.646 95.2715C125.318 94.1816 125.154 93.0742 125.154 91.9492V91.0527C125.154 89.9512 125.324 88.8496 125.664 87.748C126.332 85.5684 127.656 84.0098 129.637 83.0723C130.656 82.5801 131.699 82.334 132.766 82.334H133.645C134.652 82.334 135.648 82.5508 136.633 82.9844C138.602 83.8516 139.926 85.3984 140.605 87.625C140.91 88.6094 141.062 89.7051 141.062 90.9121ZM151.891 97.9609H152.242C153.426 97.9609 154.398 97.4395 155.16 96.3965C155.922 95.3535 156.303 94.0352 156.303 92.4414L156.338 92.0547L156.355 91.457V90.666C156.355 88.9199 155.998 87.4844 155.283 86.3594C154.58 85.2227 153.637 84.6543 152.453 84.6543H152.102C150.941 84.6543 149.963 85.2285 149.166 86.377C148.381 87.5254 147.988 89.0488 147.988 90.9473V92.1426C148.012 92.4238 148.023 92.6172 148.023 92.7227C148.023 94.0586 148.393 95.2656 149.131 96.3438C149.869 97.4219 150.789 97.9609 151.891 97.9609ZM160.328 90.9121V91.4922C160.328 92.5352 160.158 93.6074 159.818 94.709C159.127 96.9473 157.768 98.5527 155.74 99.5254C154.568 100.088 153.408 100.369 152.26 100.369H151.662C150.572 100.369 149.559 100.146 148.621 99.7012C146.758 98.8105 145.521 97.334 144.912 95.2715C144.584 94.1816 144.42 93.0742 144.42 91.9492V91.0527C144.42 89.9512 144.59 88.8496 144.93 87.748C145.598 85.5684 146.922 84.0098 148.902 83.0723C149.922 82.5801 150.965 82.334 152.031 82.334H152.91C153.918 82.334 154.914 82.5508 155.898 82.9844C157.867 83.8516 159.191 85.3984 159.871 87.625C160.176 88.6094 160.328 89.7051 160.328 90.9121ZM172.527 86.1133C171.426 86.1133 170.57 86.6641 169.961 87.7656C169.352 88.8555 169.047 90.5254 169.047 92.7754C169.047 93.7715 169.088 94.4805 169.17 94.9023C169.252 95.3125 169.375 95.8281 169.539 96.4492C169.715 97.0586 169.803 97.5918 169.803 98.0488C169.803 98.4941 169.533 98.9043 168.994 99.2793C168.455 99.6543 167.752 99.8418 166.885 99.8418L166.586 99.8242H166.27C165.707 99.8242 165.238 99.666 164.863 99.3496C164.5 99.0332 164.318 98.6758 164.318 98.2773V97.9961C164.318 97.9141 164.43 97.5273 164.652 96.8359C164.875 96.1445 165.004 95.4766 165.039 94.832C165.074 94.1875 165.092 93.3203 165.092 92.2305V90.2793L165.074 89.9629C165.074 89.752 165.074 89.541 165.074 89.3301L165.039 88.3809C165.027 88.1699 165.021 87.7598 165.021 87.1504C165.021 86.5293 164.91 85.9434 164.688 85.3926C164.477 84.8301 164.371 84.4668 164.371 84.3027C164.371 83.5996 164.986 83.248 166.217 83.248C167.447 83.248 168.338 83.582 168.889 84.25C169.053 84.4492 169.223 84.5488 169.398 84.5488C169.586 84.5488 169.891 84.4023 170.312 84.1094C171.484 83.3125 172.469 82.9141 173.266 82.9141H173.547C174.25 82.9141 174.783 83.0723 175.146 83.3887C175.521 83.7051 175.709 84.127 175.709 84.6543C175.709 85.6973 175.129 86.2188 173.969 86.2188C173.512 86.1484 173.031 86.1133 172.527 86.1133Z" fill="black"/>
<line y1="-1.5" x2="4.81025" y2="-1.5" transform="matrix(0.726399 0.687274 -0.726399 0.687274 154.533 93.3376)" stroke="#550052" stroke-width="3"/>
<path d="M537 366.898C537 376.182 529.182 384 519.898 384C515.012 384 510.614 382.045 507.193 378.625L452.466 319.012C450.511 317.057 450.511 314.125 452.466 312.171L465.171 299.466C467.126 297.511 470.057 297.511 472.012 299.466L531.625 354.682C535.045 357.614 537 362.5 537 366.898Z" fill="#581A59"/>
<path d="M453.905 310.923L463.58 301.294L449.068 286.85L439.394 296.479L453.905 310.923Z" fill="#B0C4D8"/>
<path d="M456.5 303.625L459 306L464 301.25L449 287L439 296.5L446.5 303.625C449.5 300.775 453.5 300.775 456.5 303.625Z" fill="#99B4CD"/>
<path d="M395.5 301C427.809 301 454 275.033 454 243C454 210.967 427.809 185 395.5 185C363.191 185 337 210.967 337 243C337 275.033 363.191 301 395.5 301Z" fill="#70B7E5" fill-opacity="0.8"/>
<path d="M395.5 170C354.83 170 322 202.607 322 243C322 283.393 354.83 316 395.5 316C436.17 316 469 283.393 469 243C469 202.607 436.17 170 395.5 170ZM395.5 301.4C363.16 301.4 336.7 275.121 336.7 243C336.7 210.88 363.16 184.6 395.5 184.6C427.84 184.6 454.3 210.88 454.3 243C454.3 275.12 427.84 301.4 395.5 301.4Z" fill="#C4D7E5"/>
<path d="M366.598 249.305C369.024 230.864 383.578 216.304 402.014 213.878H402.499C410.746 212.907 411.231 201.26 403.469 199.804C398.618 198.834 393.766 198.834 388.915 199.319C369.994 202.231 354.955 217.275 352.529 235.717C351.559 240.57 352.044 245.908 353.014 250.276C354.47 258.526 366.113 257.556 367.083 249.306C366.598 249.791 366.598 249.305 366.598 249.305Z" fill="#92C5EB"/>
<path d="M341.857 248.143C341.857 216.085 368.085 189.857 400.143 189.857C415.2 189.857 428.314 195.686 439 204.428C428.314 192.286 412.772 185 395.286 185C363.228 185 337 211.228 337 243.286C337 260.772 344.771 276.314 356.428 287C347.686 276.314 341.857 263.2 341.857 248.143Z" fill="#4C9CD6"/>
<path d="M395 316C435.947 316 469 283.393 469 243C466.533 243 464.067 244.947 464.067 247.867C463.08 264.413 455.68 279.5 444.334 290.693C432.987 302.373 417.2 309.673 399.934 311.133C396.974 311.133 395 313.567 395 316Z" fill="#B0C9DB"/>
<path d="M395 170C354.607 170 322 202.607 322 243C324.433 243 326.867 241.053 326.867 238.133C327.84 222.073 334.654 207.473 344.873 196.767C356.553 184.6 372.613 176.327 390.133 174.867C393.054 174.867 395 172.433 395 170Z" fill="#E2E7F0"/>
<path d="M531.494 354.689L528.532 352.252C531.001 355.176 532.482 359.074 532.482 362.973C532.482 369.307 524.583 371.744 520.14 367.358L468.304 316.193C465.342 313.269 460.898 313.269 457.937 316.193L453 321.066L506.811 378.078C509.773 381.002 513.722 383.438 517.672 383.926C523.102 384.413 528.533 382.464 531.988 379.053C535.444 375.642 537.419 370.282 536.925 364.922C536.925 361.023 534.457 357.612 531.494 354.689Z" fill="#400655"/>
<path d="M480.815 321C480.329 321 479.358 321 478.872 320.507L466.728 308.188C465.757 307.203 465.757 305.724 466.728 304.739C467.7 303.754 469.157 303.754 470.128 304.739L482.271 317.058C483.243 318.043 483.243 319.522 482.271 320.507C482.272 321 481.3 321 480.815 321Z" fill="#C75CED"/>
</svg>
