<svg width="484" height="649" viewBox="0 0 484 649" fill="none" xmlns="http://www.w3.org/2000/svg">
<path opacity="0.1" d="M483.96 256.77C483.974 231.247 481.205 205.956 475.805 182.273L22.1255 266.177C17.4598 281.081 13.8897 296.971 11.5008 313.463L151.99 350.351L8.2951 377.249C12.6174 483.801 64.4626 567.945 127.8 567.945C159.679 567.945 188.643 546.62 210.11 511.845C231.64 547.273 260.883 569.06 293.106 569.06C340.916 569.06 382.176 521.097 401.393 451.747C439.945 430.23 469.868 376.057 480.14 308.338L302.466 259.822H483.934C483.934 258.808 483.96 257.793 483.96 256.77Z" fill="#6C63FF"/>
<path d="M295.793 191.7C296.009 191.336 295.447 190.545 294.536 189.932C293.627 189.319 292.714 189.115 292.498 189.479C292.281 189.842 292.845 190.634 293.754 191.247C294.665 191.86 295.577 192.064 295.793 191.7Z" fill="#3F3D56"/>
<path d="M292.599 184.941C293.083 184.127 293.851 183.551 294.734 183.339C295.618 183.128 296.543 183.299 297.308 183.815L340.56 212.971C341.324 213.487 341.865 214.305 342.064 215.245C342.262 216.184 342.101 217.17 341.617 217.984L292.599 184.941Z" fill="#6C63FF"/>
<path d="M288.509 186.482L289.87 184.196C290.201 183.638 290.726 183.246 291.33 183.101C291.932 182.956 292.565 183.074 293.089 183.426L342.334 216.623C342.953 217.04 343.391 217.702 343.55 218.462C343.711 219.223 343.581 220.021 343.189 220.68L342.058 222.581L288.509 186.482Z" fill="#3F3D56"/>
<path d="M295.841 187.739L295.319 188.615L298.614 190.837L299.137 189.961L295.841 187.739Z" fill="#D0CDE1"/>
<path d="M300.372 190.793L299.851 191.67L303.146 193.892L303.667 193.015L300.372 190.793Z" fill="#D0CDE1"/>
<path d="M365.644 84.2537C382.622 84.2537 396.386 69.602 396.386 51.5282C396.386 33.4544 382.622 18.8027 365.644 18.8027C348.665 18.8027 334.902 33.4544 334.902 51.5282C334.902 69.602 348.665 84.2537 365.644 84.2537Z" fill="#FFB8B8"/>
<path d="M367.518 74.676C367.518 74.676 382.514 99.8186 378.766 107.002C375.017 114.186 363.395 133.741 363.395 133.741C363.395 133.741 415.13 93.0341 408.383 84.2541C408.383 84.2541 393.012 70.2858 392.262 61.5059L367.518 74.676Z" fill="#FFB8B8"/>
<path d="M391.512 555.159L393.012 580.302L417.006 575.912L415.505 551.567L391.512 555.159Z" fill="#FFB8B8"/>
<path d="M284.666 569.15L280.168 585.113L306.785 590.301L310.534 575.534L284.666 569.15Z" fill="#FFB8B8"/>
<path d="M393.949 216.553L396.385 234.312C396.385 234.312 427.128 299.364 393.762 331.291L348.773 449.422C348.773 449.422 343.9 510.882 329.654 532.434L316.532 581.521L277.543 570.746L309.035 464.188C309.035 464.188 308.66 419.49 313.159 409.513L333.027 314.53L336.59 212.961C336.59 212.961 389.075 208.969 393.949 216.553Z" fill="#2F2E41"/>
<path d="M388.138 327.278L405.009 448.601C405.009 448.601 414.005 495.294 414.755 513.254C415.505 531.213 418.505 554.361 418.505 554.361L388.138 559.548L358.146 403.105L388.138 327.278Z" fill="#2F2E41"/>
<path d="M369.383 83.4689L358.358 89.6712C347.003 85.4077 338.486 75.5432 335.392 66.1279L347.406 61.6049C348.35 71.2078 357.486 77.592 369.383 83.4689Z" fill="#545151"/>
<path d="M371.463 49.0122L347.673 62.7475C347.461 62.8695 347.225 62.9231 347.012 62.898C346.799 62.873 346.628 62.7709 346.538 62.6139C346.447 62.457 346.444 62.2581 346.529 62.0613C346.613 61.8644 346.778 61.6861 346.989 61.5641L370.78 47.8288C370.991 47.7067 371.228 47.6533 371.441 47.6783C371.654 47.7033 371.824 47.8054 371.915 47.9624C372.005 48.1193 372.009 48.3182 371.924 48.515C371.839 48.712 371.674 48.8901 371.463 49.0122Z" fill="#545151"/>
<path d="M367.393 84.2717C367.314 84.251 367.251 84.1775 367.208 84.0583C367.165 83.9387 367.144 83.7772 367.148 83.5873C367.151 83.3978 367.179 83.186 367.227 82.9701C367.276 82.7543 367.345 82.5416 367.428 82.3498L378.334 57.1017C378.4 56.9472 378.475 56.81 378.552 56.6978C378.63 56.5857 378.709 56.5009 378.785 56.4481C378.862 56.3954 378.935 56.376 378.999 56.3907C379.063 56.4055 379.117 56.4544 379.159 56.5341C379.201 56.6141 379.229 56.7239 379.242 56.8568C379.255 56.9899 379.252 57.1433 379.235 57.3091C379.218 57.4748 379.185 57.6491 379.139 57.8221C379.094 57.9951 379.035 58.1632 378.969 58.3172L368.063 83.5655C367.962 83.7998 367.844 83.9923 367.724 84.1184C367.605 84.2444 367.49 84.2977 367.393 84.2717Z" fill="#545151"/>
<path d="M421.504 563.14L397.51 564.736C397.51 564.736 388.578 553.961 389.107 559.548C389.638 565.136 384.014 588.682 384.014 588.682L365.269 609.435C365.269 609.435 328.155 609.435 333.777 628.592C339.401 647.748 383.264 631.784 383.264 631.784L400.134 625.798V633.779C400.134 633.779 429.003 638.169 429.751 630.188C430.501 622.206 429.751 612.229 428.628 611.43C427.503 610.632 421.504 563.14 421.504 563.14Z" fill="#2F2E41"/>
<path d="M310.615 582.841C310.615 582.841 293.465 581.379 291.064 579.189C288.663 576.998 284.889 567.869 279.745 573.712C274.6 579.554 256.077 598.541 256.077 598.541L238.24 607.67C238.24 607.67 214.916 601.097 207.027 616.434C199.138 631.769 245.786 647.836 257.792 642.725L272.885 639.438L272.199 647.106C272.199 647.106 293.465 652.218 296.552 645.646C299.64 639.073 302.041 631.405 300.668 629.213C299.296 627.023 310.615 582.841 310.615 582.841Z" fill="#2F2E41"/>
<path d="M437.25 124.961L410.692 187.511L399.16 214.666L394.887 224.734L333.027 223.937L339.401 178.041C330.404 153.297 351.773 143.32 351.773 143.32L369.768 122.906V126.159C369.768 126.159 387.388 103.809 395.262 91.0385C403.134 78.2676 414.005 83.0568 414.005 83.0568C432.751 81.0612 437.25 124.961 437.25 124.961Z" fill="#947AB4"/>
<path opacity="0.2" d="M410.692 187.511L399.16 214.666C395.457 207.29 392.637 198.936 392.637 194.004C392.637 180.435 405.383 187.618 405.383 187.618C405.383 187.618 395.074 127.555 395.074 109.596C395.074 97.6674 404.417 150.607 410.692 187.511Z" fill="black"/>
<path d="M400.509 192.008L344.65 190.812C344.65 190.812 303.786 194.403 309.785 211.962C315.782 229.523 348.398 211.962 348.398 211.962L413.63 222.739L400.509 192.008Z" fill="#FFB8B8"/>
<path d="M411.007 86.2494C411.007 86.2494 391.512 87.8458 391.512 105.805C391.512 123.764 409.133 187.618 409.133 187.618C409.133 187.618 396.386 180.435 396.386 194.004C396.386 207.573 417.755 247.083 420.004 220.743C420.004 220.743 452.246 237.505 450.371 205.977C448.496 174.449 428.253 107.8 428.253 107.8C428.253 107.8 426.003 85.0521 411.007 86.2494Z" fill="#947AB4"/>
<path d="M366.666 47.9688C364.513 45.7509 364.554 42.0104 362.819 39.4105C360.095 35.3278 354.422 35.6014 349.764 36.3063C346.649 36.6323 343.585 37.3898 340.654 38.5596C339.369 39.123 338.223 39.9965 337.308 41.1114C336.394 42.2261 335.735 43.5519 335.385 44.9842C335.019 46.5925 334.215 42.0291 333.397 36.1189C332.557 30.0885 333.539 23.9305 336.199 18.5319C338.859 13.1333 343.061 8.773 348.198 6.07922C348.258 6.0473 348.319 6.01581 348.379 5.98475C353.647 3.25947 359.166 0.852644 364.989 0.176315C370.811 -0.500013 377.024 0.72453 381.591 4.62896C383.678 6.41345 385.376 8.70434 387.613 10.2686C391.545 13.0169 396.524 13.15 401.196 13.7294C406.515 14.2194 411.675 15.9047 416.337 18.674C421.023 21.4958 424.475 26.1699 425.945 31.6829C427.424 38.098 425.011 45.6811 419.085 48.465C418.051 48.9284 417.133 49.6451 416.408 50.5567C411.543 56.8878 419.396 60.352 420.536 65.8629C421.486 70.4613 417.332 74.6248 413.072 75.891C409.063 76.9518 404.831 76.495 401.104 74.5992C397.376 72.7033 394.384 69.4861 392.64 65.4993C391.18 61.892 390.846 57.9015 390.449 53.9959C389.994 49.5253 378.979 41.428 386.415 47.5188C387.859 48.6693 388.994 50.1998 389.713 51.96C391.976 57.7246 387.28 60.9967 384.762 65.1125C383.392 67.4274 382.659 70.1049 382.644 72.8413C382.63 75.5777 383.338 78.2634 384.685 80.5938C381.463 78.6728 378.971 75.6148 377.64 71.9473C376.309 68.2798 376.223 64.2328 377.396 60.5049C378.072 58.5488 379.095 56.7407 379.708 54.7617C380.667 51.6739 379.82 45.6731 375.539 46.8897C372.484 47.7579 369.871 51.2703 366.666 47.9688Z" fill="#2F2E41"/>
<path d="M227.228 167.638L227.608 208.858L187.558 167.122L187.357 166.915H187.076H0.681702V45.1119H244.601V166.915H227.909H227.221L227.228 167.638ZM1.61068 165.19V165.906H2.29237H187.732L225.48 205.242L226.658 206.469L226.642 204.726L226.283 165.906H242.991H243.673V165.19V46.836V46.1197H242.991H2.29237H1.61068V46.836V165.19Z" fill="#F2F2F2" stroke="#6C63FF"/>
<path d="M284.525 209.431H161.884V211.871H284.525V209.431Z" fill="#3F3D56"/>
<path d="M128.813 122.017L117.764 133.979L109.172 114.539L128.813 108.558V122.017Z" fill="#FFB8B8"/>
<path d="M76.0674 90.4709C76.0674 90.4709 79.6037 96.4803 100.552 94.978L112.795 117.514L121 128.842C122.288 130.622 122.361 133.321 121.096 135.126C120.327 136.221 119.222 136.797 117.692 135.543C117.692 135.543 117.692 143.055 111.571 140.051C111.571 140.051 109.123 146.059 104.226 143.055C104.226 143.055 104.226 146.059 100.554 144.558C96.881 143.055 77.2916 123.525 77.2916 123.525L68.7222 116.013L76.0674 90.4709Z" fill="#DB8C68"/>
<path d="M120.275 98.043C120.275 98.043 114.97 98.043 109.725 95.1433C104.956 92.5095 99.4018 92.8449 95.0006 96.3022C91.4139 99.1204 88.306 103.786 88.3644 111.493C88.3644 111.493 93.1377 117.471 98.1841 105.515H101.867C101.867 105.515 105.413 120.461 115.37 118.963C125.328 117.466 127.646 115.975 127.646 115.975L120.275 98.043Z" fill="#FFB8B8"/>
<path d="M93.1558 110.577C94.4281 108.978 94.7359 106.772 93.8432 105.65C92.9505 104.528 91.1954 104.915 89.9231 106.514C88.6507 108.113 88.3429 110.319 89.2356 111.441C90.1283 112.563 91.8834 112.177 93.1558 110.577Z" fill="#850FE1"/>
<path d="M87.999 127.702L87.6007 127.214C86.5249 125.896 84.7804 125.896 83.7046 127.214L80.8531 130.709C79.7772 132.028 79.7772 134.166 80.8531 135.484L81.2513 135.972C82.3272 137.291 84.0715 137.291 85.1475 135.972L87.999 132.477C89.0748 131.159 89.0748 129.021 87.999 127.702Z" fill="#FFB8B8"/>
<path d="M84.0447 122.022L83.6465 121.534C82.5705 120.216 80.8262 120.216 79.7504 121.534L76.8989 125.029C75.823 126.348 75.823 128.486 76.8989 129.804L77.2971 130.292C78.373 131.611 80.1173 131.611 81.1932 130.292L84.0447 126.797C85.1206 125.479 85.1206 123.341 84.0447 122.022Z" fill="#FFB8B8"/>
<path d="M93.519 131.46L93.1208 130.972C92.0449 129.653 90.3005 129.653 89.2246 130.972L85.76 135.218C84.6842 136.537 84.6842 138.675 85.76 139.993L86.1582 140.481C87.2341 141.8 88.9784 141.8 90.0544 140.481L93.519 136.235C94.5948 134.917 94.5948 132.779 93.519 131.46Z" fill="#FFB8B8"/>
<path d="M96.4244 136.692L96.1463 136.351C95.3949 135.43 94.1769 135.43 93.4255 136.351L91.2388 139.031C90.4875 139.952 90.4875 141.445 91.2388 142.366L91.5169 142.706C92.2683 143.627 93.4863 143.627 94.2377 142.706L96.4244 140.026C97.1756 139.106 97.1756 137.613 96.4244 136.692Z" fill="#FFB8B8"/>
<path d="M141.065 125.023L129.98 131.046L118.895 97.921L128.749 93.4042L141.065 125.023Z" fill="white"/>
<path d="M57.0753 84.3051L84.8425 91.081L68.0762 118.727L58.3622 116.49L57.0753 84.3051Z" fill="#550052"/>
<path d="M134.064 93.4042L109.366 100.399L125.42 123.713L134.064 121.382V93.4042Z" fill="#FFB8B8"/>
<path d="M82.4118 126.743C83.513 125.359 83.7901 123.463 83.0306 122.508C82.2712 121.554 80.7628 121.902 79.6616 123.286C78.5604 124.67 78.2834 126.566 79.0428 127.52C79.8023 128.475 81.3106 128.127 82.4118 126.743Z" fill="#850FE1"/>
<path d="M86.3012 132.365C87.4023 130.981 87.6794 129.085 86.9199 128.13C86.1605 127.176 84.6522 127.524 83.551 128.908C82.4498 130.292 82.1727 132.188 82.9322 133.142C83.6916 134.097 85.2 133.749 86.3012 132.365Z" fill="#850FE1"/>
<path d="M94.8184 140.577C95.613 139.578 95.8455 138.251 95.3379 137.613C94.8302 136.975 93.7745 137.268 92.9799 138.266C92.1853 139.265 91.9527 140.592 92.4604 141.23C92.9681 141.868 94.0238 141.576 94.8184 140.577Z" fill="#850FE1"/>
<path d="M91.9408 136.52C93.0419 135.135 93.319 133.24 92.5595 132.285C91.8001 131.331 90.2918 131.679 89.1906 133.063C88.0894 134.447 87.8123 136.343 88.5718 137.297C89.3312 138.252 90.8396 137.904 91.9408 136.52Z" fill="#850FE1"/>
<path d="M64.2831 86.2109L31.6565 78.5891L27.5764 109.245L60.203 116.867L64.2831 86.2109Z" fill="#550052"/>
<path d="M161.001 85.8161L129.821 94.5968L134.108 121.321L165.289 112.54L161.001 85.8161Z" fill="#FFB8B8"/>
<path d="M128.456 94.7866L126.391 95.7822L133.606 122.044L135.671 121.049L128.456 94.7866Z" fill="#289D9E"/>
<path d="M126.608 95.678C130.059 101.692 131.993 106.796 135.437 120.529M126.545 96.341C129.996 102.355 131.93 107.459 135.374 121.192L126.545 96.341Z" stroke="#289D9E"/>
<path d="M196.284 78.7969V80.6857C196.284 86.0496 199.314 91.011 204.222 93.4285L204.605 93.6174H207.136L207.519 93.4285C212.427 91.011 215.456 86.0496 215.456 80.6857V78.7969H196.284Z" fill="#5F63C7"/>
<path d="M207.136 93.6174H205.87V78.7969H215.456V80.6857C215.456 86.0496 212.427 91.011 207.519 93.4285L207.136 93.6174Z" fill="#5F63C7"/>
<path d="M210.472 90.5575C208.938 90.3309 207.404 90.2554 205.87 90.2554C204.298 90.2554 202.765 90.3309 201.269 90.5575C198.432 90.9731 196.284 93.3906 196.284 96.2239C196.284 99.6616 199.352 102.306 202.803 101.815C203.799 101.664 204.836 101.588 205.87 101.588C206.905 101.588 207.941 101.664 208.938 101.815C212.389 102.306 215.456 99.6236 215.456 96.2239C215.456 93.3906 213.309 90.9731 210.472 90.5575Z" fill="#D0CDE1"/>
<path d="M215.456 96.2239C215.456 99.6238 212.389 102.306 208.938 101.815C207.941 101.663 206.905 101.588 205.87 101.588V90.2554C207.404 90.2554 208.938 90.3309 210.472 90.5575C213.309 90.9731 215.456 93.3906 215.456 96.2239Z" fill="#D0CDE1"/>
<path d="M231.831 127.137C231.524 126.834 231.139 126.57 230.794 126.343V122.49C230.794 108.967 219.598 97.8105 205.87 97.8105C192.143 97.8105 180.946 108.967 180.946 122.49V126.343C180.602 126.57 180.217 126.835 179.91 127.137C178.108 128.912 177.111 131.292 177.111 133.823C177.111 136.354 178.108 138.734 179.91 140.509C181.713 142.285 184.129 143.267 186.697 143.267H225.042C227.612 143.267 230.028 142.285 231.831 140.509C233.632 138.734 234.63 136.354 234.63 133.823C234.63 131.292 233.632 128.912 231.831 127.137Z" fill="#5F63C7"/>
<path d="M234.63 133.823C234.63 136.354 233.633 138.734 231.831 140.509C230.028 142.285 227.612 143.267 225.042 143.267H205.87V97.8105C219.598 97.8105 230.794 108.967 230.794 122.49V126.343C231.139 126.57 231.524 126.835 231.831 127.137C233.633 128.912 234.63 131.292 234.63 133.823Z" fill="#5F63C7"/>
<path d="M215.229 113.919C215.113 113.797 214.964 113.736 214.784 113.736H211.473C211.253 112.61 210.84 111.633 210.233 110.805H214.745C214.926 110.805 215.075 110.744 215.19 110.623C215.306 110.501 215.364 110.344 215.364 110.155V108.078C215.364 107.888 215.306 107.733 215.19 107.61C215.073 107.488 214.926 107.427 214.745 107.427H198.632C198.451 107.427 198.304 107.488 198.186 107.61C198.071 107.732 198.013 107.888 198.013 108.078V110.785C198.013 110.961 198.075 111.114 198.196 111.243C198.319 111.372 198.465 111.436 198.632 111.436H201.441C204.165 111.436 205.895 112.202 206.63 113.735H198.632C198.451 113.735 198.302 113.796 198.186 113.919C198.071 114.041 198.013 114.197 198.013 114.387V116.463C198.013 116.652 198.071 116.809 198.186 116.93C198.304 117.052 198.452 117.113 198.632 117.113H206.901C206.618 118.226 205.956 119.074 204.916 119.657C203.877 120.241 202.506 120.532 200.801 120.532H198.632C198.465 120.532 198.319 120.597 198.196 120.726C198.073 120.855 198.013 121.007 198.013 121.184V123.768C198.013 123.945 198.071 124.094 198.186 124.216C200.665 126.984 203.88 130.857 207.831 135.836C207.947 135.999 208.109 136.08 208.315 136.08H212.092C212.363 136.08 212.55 135.959 212.653 135.714C212.783 135.47 212.757 135.239 212.575 135.022C208.806 130.165 205.843 126.529 203.686 124.114C205.881 123.843 207.663 123.097 209.032 121.876C210.401 120.655 211.233 119.067 211.53 117.114H214.784C214.964 117.114 215.113 117.053 215.229 116.931C215.345 116.809 215.403 116.653 215.403 116.463V114.387C215.403 114.197 215.345 114.041 215.229 113.919Z" fill="white"/>
</svg>
