<svg width="450" height="250" viewBox="0 0 450 250" fill="none" xmlns="http://www.w3.org/2000/svg">
<path d="M172.804 0H6.58783V247.829H172.804V0Z" fill="#E6E6E6"/>
<path d="M161.426 14.9439H17.621V120.957H161.426V14.9439Z" fill="white"/>
<path d="M161.427 116.61H17.6199V230.233H161.427V116.61Z" fill="white"/>
<path d="M93.2586 14.4003H85.7882V120.957H93.2586V14.4003Z" fill="#3F3D56"/>
<path d="M161.426 14.4003H153.955V120.957H161.426V14.4003Z" fill="#3F3D56"/>
<path d="M161.426 112.259H17.621V120.957H161.426V112.259Z" fill="#3F3D56"/>
<path d="M37.9439 72.0281L25.0916 82.0876V90.4099L44.5616 72.0281H37.9439Z" fill="white"/>
<path d="M59.1198 72.0281L25.0916 103.046V110.136L69.4429 72.0281H59.1198Z" fill="#E6E6E6"/>
<path d="M25.0914 14.4003H17.621V120.957H25.0914V14.4003Z" fill="#3F3D56"/>
<path d="M140.647 23.0988L111.934 65.5042L120.806 66.5911L145.551 21.4679L140.647 23.0988Z" fill="#E6E6E6"/>
<path d="M161.426 14.4003H17.621V23.0988H161.426V14.4003Z" fill="#3F3D56"/>
<path d="M161.426 63.3295H17.621V72.0281H161.426V63.3295Z" fill="#3F3D56"/>
<path d="M444.932 0H278.716V247.829H444.932V0Z" fill="#E6E6E6"/>
<path d="M433.542 14.6324H289.738V120.646H433.542V14.6324Z" fill="white"/>
<path d="M433.541 116.297H289.738V229.921H433.541V116.297Z" fill="white"/>
<path d="M365.375 14.0887H357.905V120.646H365.375V14.0887Z" fill="#3F3D56"/>
<path d="M433.542 14.0887H426.072V120.646H433.542V14.0887Z" fill="#3F3D56"/>
<path d="M433.542 111.947H289.738V120.646H433.542V111.947Z" fill="#3F3D56"/>
<path d="M310.061 71.7165L297.208 81.7766V90.0984L316.678 71.7165H310.061Z" fill="#E6E6E6"/>
<path d="M331.237 71.7165L297.208 102.735V109.824L341.56 71.7165H331.237Z" fill="#E6E6E6"/>
<path d="M297.208 14.0887H289.738V120.646H297.208V14.0887Z" fill="#3F3D56"/>
<path d="M412.764 22.7873L384.051 65.1927L392.922 66.2796L417.668 21.1564L412.764 22.7873Z" fill="#E6E6E6"/>
<path d="M433.542 14.0887H289.738V22.7873H433.542V14.0887Z" fill="#3F3D56"/>
<path d="M433.542 63.0181H289.738V71.7166H433.542V63.0181Z" fill="#3F3D56"/>
<path d="M358.504 142.207C358.504 142.207 359.051 145.091 355.948 147.686C352.844 150.282 351.931 160.087 355.582 162.971C359.234 165.855 360.329 169.604 358.504 172.199C356.678 174.795 353.392 181.716 357.773 183.447C362.155 185.177 362.703 188.638 361.425 190.08C360.147 191.522 364.346 187.484 364.346 187.484C364.346 187.484 365.076 194.405 368.91 192.675C372.744 190.945 383.515 158.068 378.038 153.454C372.561 148.84 358.504 142.207 358.504 142.207Z" fill="#2F2E41"/>
<path d="M353.483 190.481L335.987 204.797C335.987 204.797 322.746 188.829 322.746 179.468C322.746 170.107 315.653 152.488 312.343 159.646C309.032 166.804 316.126 183.873 316.126 183.873L329.366 220.214C329.366 220.214 336.932 221.866 341.188 218.012C345.444 214.157 357.266 206.449 357.266 206.449L353.483 190.481Z" fill="#FFB9B9"/>
<path d="M370.743 166.529C378.056 166.529 383.984 159.626 383.984 151.111C383.984 142.596 378.056 135.694 370.743 135.694C363.431 135.694 357.503 142.596 357.503 151.111C357.503 159.626 363.431 166.529 370.743 166.529Z" fill="#FFB9B9"/>
<path d="M363.887 161.848C363.887 161.848 368.615 176.164 366.724 179.468C364.832 182.772 362.468 182.772 360.576 183.873C359.631 184.424 349.7 188.829 349.7 192.133C349.746 194.255 350.233 196.334 351.119 198.189L352.537 207.55L364.359 216.36L379.964 214.158L391.787 206.449C391.787 206.449 393.678 186.076 388.476 182.772C383.275 179.468 377.127 171.759 377.6 169.006C378.073 166.253 378.546 159.646 378.546 159.646L363.887 161.848Z" fill="#FFB9B9"/>
<path d="M388.951 203.698V203.716L388.525 208.578L387.983 214.815L387.365 221.866L386.666 229.921H352.399C351.937 225.519 351.122 220.851 349.698 218.013C348.803 216.324 348.404 214.342 348.562 212.366C348.882 208.678 351.117 206.105 351.117 205.35C351.117 204.524 347.133 199.68 345.142 197.302C344.473 196.505 344.027 195.986 344.027 195.986L350.174 190.48L350.26 190.652L351.122 192.41L353.954 198.187L353.012 202.595C353.012 202.595 354.476 202.89 356.514 203.267C360.035 203.91 365.275 204.796 367.667 204.796C369.887 204.796 372.598 206.123 374.838 206.884C374.909 206.908 374.975 206.932 375.041 206.955C376.449 207.415 377.655 207.628 378.416 207.097C378.461 207.067 378.505 207.033 378.547 206.996C378.944 206.684 379.373 206.432 379.824 206.247H379.829C381.467 205.572 383.144 205.032 384.846 204.63C386.762 204.141 388.444 203.798 388.855 203.716C388.855 203.715 388.856 203.714 388.857 203.714C388.858 203.713 388.859 203.713 388.86 203.713C388.861 203.713 388.862 203.713 388.863 203.714C388.863 203.714 388.864 203.715 388.865 203.716C388.921 203.704 388.951 203.698 388.951 203.698Z" fill="#6C63FF"/>
<path d="M390.426 202.86C390.39 203.155 390.36 203.456 390.329 203.751C390.182 205.049 390.061 206.347 389.954 207.646C389.661 211.092 389.483 214.547 389.422 218.013C389.405 219.307 389.288 220.597 389.073 221.866C388.602 224.599 387.969 227.29 387.177 229.921H373.789C374.144 226.852 374.62 222.132 374.853 217.187V217.181C374.889 216.414 374.914 215.641 374.939 214.868C375.027 212.27 374.996 209.668 374.848 207.073C374.843 207.008 374.843 206.943 374.838 206.884C374.813 206.548 374.787 206.223 374.762 205.899C373.819 194.888 379.49 182.774 379.49 182.774C381.41 182.774 383.286 184.007 384.958 185.707C387 187.831 388.565 190.505 389.518 193.494C390.471 196.483 390.783 199.699 390.426 202.86Z" fill="#FFB9B9"/>
<path opacity="0.1" d="M389.422 218.013C389.405 219.307 389.288 220.597 389.073 221.866C388.602 224.599 387.969 227.29 387.177 229.921H373.688C374.1 224.96 374.227 219.972 374.068 214.992C374.042 214.26 374.007 213.517 373.956 212.779V212.767C373.921 212.13 373.875 211.493 373.819 210.856C373.736 210.119 373.77 209.371 373.921 208.649V208.637C374.028 208.088 374.286 207.596 374.655 207.233C374.715 207.173 374.78 207.119 374.848 207.073C374.908 207.026 374.973 206.986 375.041 206.955C375.102 206.916 375.167 206.882 375.233 206.855C375.762 206.651 376.324 206.595 376.875 206.69C377.399 206.762 377.916 206.899 378.416 207.097C380.649 208.049 382.735 209.416 384.593 211.145C385.829 212.229 386.965 213.459 387.983 214.815C388.875 216.042 389.422 217.175 389.422 218.013Z" fill="black"/>
<path d="M373.344 209.753L374.852 217.186L383.275 221.866H390.368L393.678 204.246C393.678 204.246 387.834 202.807 384.845 204.628C381.856 206.449 374.837 206.884 374.837 206.884L373.344 209.753Z" fill="#6C63FF"/>
<path d="M370.852 135.637C370.852 135.637 371.458 137.989 368.023 140.106C364.589 142.223 363.579 150.22 367.619 152.573C371.66 154.925 372.872 157.983 370.852 160.1C368.831 162.217 365.195 167.862 370.043 169.273C374.892 170.684 375.498 173.507 374.084 174.683C372.67 175.859 377.316 172.566 377.316 172.566C377.316 172.566 378.124 178.211 382.366 176.8C386.608 175.389 390.841 149.734 386.112 143.127C381.715 136.983 370.852 135.637 370.852 135.637Z" fill="#2F2E41"/>
<path d="M371.479 132.46C359.639 131.63 358.45 142.008 358.45 142.008C358.532 148.014 366.723 145.088 368.998 145.983C371.742 143.684 377.033 139.334 380.816 136.23C378.069 133.978 374.834 132.671 371.479 132.46Z" fill="#2F2E41"/>
<path d="M450 247.734H0V248.915H450V247.734Z" fill="#3F3D56"/>
<path d="M46.7403 228.61V232.078C46.7403 232.078 44.7544 250 39.293 250C33.8316 250 38.3 231.5 38.3 231.5V228.61L46.7403 228.61Z" fill="#9E616A"/>
<path d="M129.654 163.283L128.661 160.392C128.661 160.392 122.207 149.408 126.675 146.518C131.143 143.627 136.605 158.08 136.605 158.08L137.598 162.705L129.654 163.283Z" fill="#9E616A"/>
<path d="M109.05 159.754C116.288 159.754 122.155 152.922 122.155 144.494C122.155 136.066 116.288 129.234 109.05 129.234C101.812 129.234 95.9441 136.066 95.9441 144.494C95.9441 152.922 101.812 159.754 109.05 159.754Z" fill="#9E616A"/>
<path d="M99.6162 146.229L90.6801 154.322L103.092 166.462L110.042 156.635L99.6162 146.229Z" fill="#9E616A"/>
<path d="M107.772 230.233H62.1334L65.5946 187.495L68.1638 155.755V155.749C68.2188 155.068 68.3886 154.406 68.6634 153.802C68.9383 153.197 69.3129 152.662 69.7657 152.226C70.2185 151.79 70.7407 151.463 71.3024 151.262C71.864 151.062 72.4541 150.992 73.0388 151.058L91.9763 153.147L105.912 162.476L106.318 166.754L120.223 178.313L110.772 199.249L104.828 212.425L107.772 230.233Z" fill="#CCB3EB"/>
<path d="M68.5858 182.939L55.6771 202.595L47.7333 230.344H35.8176L44.2579 189.298L66.5371 153.826C67.1102 152.919 67.9199 152.251 68.8455 151.923C69.7711 151.595 70.7629 151.624 71.6732 152.005C71.9576 152.142 72.2543 152.24 72.5577 152.299L68.5858 182.939Z" fill="#CCB3EB"/>
<path d="M109.298 198.548L140.329 213.29L145.789 206.931L138.094 160.392L128.164 162.705L132.136 190.454L120.221 178.314L116.248 177.158L109.298 198.548Z" fill="#CCB3EB"/>
<path d="M96.2168 149.437C95.5888 143.365 96.1726 137.207 97.9229 131.441C100.831 122.352 110.101 125.091 115.38 127.152C120.659 129.213 127.655 137.835 125.834 142.54C124.014 147.246 115.376 141.301 112.295 138.27C109.214 135.239 103.831 144.444 103.831 144.444L96.2168 149.437Z" fill="#2F2E41"/>
<path d="M105.501 143.975C105.985 142.425 105.778 140.915 105.039 140.602C104.299 140.289 103.308 141.292 102.824 142.842C102.34 144.391 102.547 145.901 103.287 146.214C104.026 146.527 105.018 145.525 105.501 143.975Z" fill="#9E616A"/>
<path d="M273.051 176.431L258.652 192.654L211.318 191.71L224.333 176.431H273.051Z" fill="#DDA2A6"/>
<path d="M273.051 231.93V176.431L258.652 192.654V246.962L273.051 231.93Z" fill="#B77B7F"/>
<path d="M211.318 191.71V246.962H258.652V192.654L211.318 191.71Z" fill="#DDA2A6"/>
<path opacity="0.3" d="M211.318 191.71V246.962H258.652V192.654L211.318 191.71Z" fill="white"/>
<path d="M254.806 207.863L219.602 200.958L215.013 227.364L251.256 234.971L254.806 207.863Z" fill="#DCE0ED"/>
<path d="M247.852 214.03L224.187 209.782L223.594 213.307L247.259 217.894L247.852 214.03Z" fill="#5F63C7"/>
<path d="M241.344 221.571L227.883 219.338L227.29 223.253L241.344 225.505V221.571Z" fill="#5F63C7"/>
<path d="M267.229 205.559L266.588 183.709L262.887 187.881L263.533 209.782L267.229 205.559Z" fill="#65617D"/>
<path d="M219.571 182.022L265.058 182.724L266.588 183.709L262.887 187.881L261.61 187.023L216.556 185.563L219.571 182.022Z" fill="#65617D"/>
<rect x="353.209" y="195.313" width="26.3513" height="14.7518" fill="#6C63FF"/>
<path d="M369.426 134.467C369.426 128.54 383.044 135.047 385.854 143.321C387.8 149.052 390.756 157.673 388.279 163.749C385.802 169.826 385.462 175.545 387.265 177.96C389.068 180.375 392.628 187.761 389.414 192.716C386.2 197.671 386.252 202.673 387.461 203.857C388.671 205.041 384.794 202.096 384.794 202.096C384.794 202.096 385.186 211.882 381.92 211.835C378.654 211.788 369.283 163.234 371.522 149.738C373.603 137.189 369.426 134.467 369.426 134.467Z" fill="#2F2E41"/>
<g clip-path="url(#clip0)">
<path d="M171.396 201.804V203.118C171.396 206.849 173.202 210.3 176.128 211.982L176.357 212.113H177.866L178.094 211.982C181.021 210.3 182.827 206.849 182.827 203.118V201.804H171.396Z" fill="#5F63C7"/>
<path d="M177.866 212.113H177.111V201.804H182.827V203.118C182.827 206.849 181.021 210.3 178.095 211.982L177.866 212.113Z" fill="#5F63C7"/>
<path d="M179.855 209.985C178.941 209.827 178.026 209.774 177.111 209.774C176.174 209.774 175.259 209.827 174.368 209.985C172.676 210.274 171.396 211.955 171.396 213.926C171.396 216.317 173.225 218.157 175.282 217.815C175.877 217.71 176.494 217.657 177.111 217.657C177.729 217.657 178.346 217.71 178.941 217.815C180.998 218.157 182.827 216.291 182.827 213.926C182.827 211.955 181.547 210.274 179.855 209.985Z" fill="#FEA832"/>
<path d="M182.827 213.926C182.827 216.291 180.998 218.157 178.941 217.815C178.346 217.71 177.729 217.657 177.111 217.657V209.774C178.026 209.774 178.941 209.827 179.855 209.985C181.547 210.274 182.827 211.955 182.827 213.926Z" fill="#FE8821"/>
<path d="M192.59 235.429C192.407 235.219 192.179 235.035 191.973 234.877V232.197C191.973 222.79 185.297 215.03 177.111 215.03C168.926 215.03 162.25 222.79 162.25 232.197V234.877C162.044 235.035 161.816 235.219 161.633 235.429C160.558 236.664 159.964 238.319 159.964 240.08C159.964 241.841 160.558 243.496 161.633 244.731C162.707 245.966 164.148 246.649 165.68 246.649H188.543C190.075 246.649 191.515 245.966 192.59 244.731C193.665 243.496 194.259 241.841 194.259 240.08C194.259 238.319 193.665 236.664 192.59 235.429Z" fill="#5F63C7"/>
<path d="M194.259 240.08C194.259 241.841 193.665 243.496 192.59 244.731C191.515 245.966 190.075 246.649 188.543 246.649H177.111V215.03C185.297 215.03 191.973 222.79 191.973 232.197V234.877C192.179 235.035 192.407 235.219 192.59 235.429C193.665 236.664 194.259 238.319 194.259 240.08Z" fill="#5F63C7"/>
<g clip-path="url(#clip1)">
<path d="M182.691 226.235C182.622 226.15 182.534 226.107 182.426 226.107H180.452C180.321 225.324 180.074 224.645 179.712 224.069H182.403C182.511 224.069 182.599 224.027 182.668 223.942C182.737 223.857 182.772 223.748 182.772 223.616V222.172C182.772 222.04 182.737 221.932 182.668 221.847C182.599 221.762 182.511 221.719 182.403 221.719H172.796C172.688 221.719 172.599 221.762 172.53 221.846C172.461 221.931 172.426 222.04 172.426 222.172V224.055C172.426 224.177 172.463 224.284 172.536 224.373C172.609 224.463 172.696 224.508 172.796 224.508H174.47C176.094 224.508 177.126 225.041 177.564 226.107H172.796C172.688 226.107 172.599 226.15 172.53 226.235C172.461 226.32 172.426 226.428 172.426 226.56V228.004C172.426 228.136 172.461 228.245 172.53 228.329C172.599 228.415 172.688 228.457 172.796 228.457H177.726C177.557 229.231 177.162 229.821 176.543 230.226C175.923 230.632 175.105 230.835 174.089 230.835H172.796C172.696 230.835 172.609 230.88 172.536 230.97C172.463 231.059 172.426 231.166 172.426 231.288V233.086C172.426 233.209 172.461 233.313 172.53 233.398C174.008 235.323 175.925 238.017 178.28 241.48C178.35 241.594 178.446 241.65 178.569 241.65H180.821C180.983 241.65 181.094 241.566 181.156 241.395C181.233 241.225 181.218 241.065 181.109 240.914C178.862 237.535 177.095 235.006 175.809 233.327C177.118 233.138 178.18 232.619 178.997 231.77C179.812 230.92 180.309 229.816 180.486 228.457H182.426C182.534 228.457 182.622 228.415 182.691 228.33C182.761 228.245 182.795 228.136 182.795 228.004V226.561C182.795 226.428 182.761 226.32 182.691 226.235Z" fill="white"/>
</g>
</g>
<path d="M116.393 157.813C111.232 156.693 106.819 153.533 103.065 148.57C105.607 147.128 104.527 143.869 104.698 140.752L122.262 152.218C119.892 153.385 116.703 154.494 116.393 157.813Z" fill="white"/>
<path d="M121.876 151.927L121.779 151.573L122.214 151.476L124.96 150.6L125.08 150.947L122.323 151.826L121.876 151.927Z" fill="white"/>
<path d="M104.435 138.539L104.13 138.629L105.036 141.338L105.341 141.248L104.435 138.539Z" fill="white"/>
<path d="M121.468 154.166L115.97 157.213L116.108 157.627L121.606 154.581L121.468 154.166Z" fill="white"/>
<path d="M103.589 141.904L102.901 141.883L102.862 148.964L103.55 148.986L103.589 141.904Z" fill="white"/>
<path d="M368.977 160.114C365.345 162.343 361.536 162.253 357.572 160.114C358.725 157.209 357.001 154.934 356.116 152.002L370.918 151.353C369.786 153.9 368.116 156.91 368.977 160.114Z" fill="white"/>
<path d="M370.761 151.837L370.589 151.584L370.832 151.226L372.282 148.73L372.466 148.963L371.01 151.469L370.761 151.837Z" fill="white"/>
<path d="M371.18 153.942L368.631 159.849L368.836 160.041L371.384 154.134L371.18 153.942Z" fill="white"/>
<defs>
<clipPath id="clip0">
<rect width="39.0203" height="44.8453" fill="white" transform="translate(157.601 201.804)"/>
</clipPath>
<clipPath id="clip1">
<rect width="16.2584" height="19.9312" fill="white" transform="translate(169.482 221.719)"/>
</clipPath>
</defs>
</svg>
