<svg width="355" height="453" viewBox="0 0 355 453" fill="none" xmlns="http://www.w3.org/2000/svg">
<path opacity="0.1" d="M354.971 179.225C354.981 161.41 352.95 143.757 348.989 127.226L16.2284 185.791C12.8063 196.194 10.1877 207.285 8.43554 218.796L111.48 244.544L6.08424 263.319C9.25449 337.692 47.2815 396.424 93.7379 396.424C117.12 396.424 138.364 381.539 154.11 357.266C169.901 381.995 191.35 397.202 214.985 397.202C250.052 397.202 280.315 363.724 294.41 315.318C322.687 300.299 344.635 262.487 352.169 215.219L221.85 181.355H354.952C354.952 180.647 354.971 179.939 354.971 179.225Z" fill="#6C63FF"/>
<path d="M216.956 133.806C217.114 133.552 216.702 133 216.034 132.572C215.367 132.144 214.697 132.002 214.539 132.256C214.38 132.509 214.793 133.062 215.46 133.49C216.128 133.918 216.797 134.06 216.956 133.806Z" fill="#3F3D56"/>
<path d="M214.613 129.088C214.968 128.52 215.531 128.118 216.179 127.97C216.827 127.823 217.506 127.942 218.067 128.302L249.791 148.653C250.351 149.013 250.748 149.584 250.894 150.24C251.039 150.896 250.921 151.584 250.566 152.152L214.613 129.088Z" fill="#6C63FF"/>
<path d="M211.613 130.164L212.611 128.568C212.854 128.179 213.239 127.905 213.682 127.804C214.124 127.703 214.588 127.785 214.972 128.031L251.092 151.202C251.546 151.493 251.867 151.955 251.984 152.486C252.102 153.017 252.007 153.574 251.719 154.034L250.89 155.361L211.613 130.164Z" fill="#3F3D56"/>
<path d="M216.991 131.041L216.608 131.653L219.025 133.204L219.408 132.592L216.991 131.041Z" fill="#D0CDE1"/>
<path d="M220.314 133.173L219.932 133.785L222.349 135.336L222.731 134.724L220.314 133.173Z" fill="#D0CDE1"/>
<path d="M268.189 58.8089C280.642 58.8089 290.738 48.582 290.738 35.9666C290.738 23.3511 280.642 13.1243 268.189 13.1243C255.736 13.1243 245.641 23.3511 245.641 35.9666C245.641 48.582 255.736 58.8089 268.189 58.8089Z" fill="#FFB8B8"/>
<path d="M269.564 52.1236C269.564 52.1236 280.563 69.6731 277.814 74.6873C275.064 79.7015 266.54 93.3511 266.54 93.3511C266.54 93.3511 304.486 64.9375 299.537 58.8091C299.537 58.8091 288.263 49.0593 287.713 42.9309L269.564 52.1236Z" fill="#FFB8B8"/>
<path d="M287.163 387.499L288.263 405.049L305.862 401.985L304.761 384.992L287.163 387.499Z" fill="#FFB8B8"/>
<path d="M208.794 397.265L205.495 408.407L225.018 412.028L227.768 401.721L208.794 397.265Z" fill="#FFB8B8"/>
<path d="M288.95 151.153L290.737 163.549C290.737 163.549 313.286 208.955 288.813 231.24L255.815 313.695C255.815 313.695 252.241 356.594 241.792 371.637L232.167 405.9L203.57 398.379L226.668 324.002C226.668 324.002 226.393 292.803 229.693 285.839L244.266 219.541L246.879 148.646C246.879 148.646 285.375 145.86 288.95 151.153Z" fill="#2F2E41"/>
<path d="M284.688 228.439L297.062 313.122C297.062 313.122 303.661 345.714 304.211 358.25C304.761 370.785 306.961 386.942 306.961 386.942L284.688 390.563L262.69 281.366L284.688 228.439Z" fill="#2F2E41"/>
<path d="M270.932 58.261L262.845 62.5902C254.517 59.6143 248.27 52.7289 246 46.1571L254.812 43C255.505 49.7028 262.206 54.159 270.932 58.261Z" fill="#F2F2F2"/>
<path d="M274.29 43.9538H254.141C253.962 43.9538 253.792 43.9036 253.666 43.8141C253.54 43.7247 253.469 43.6034 253.469 43.4769C253.469 43.3504 253.54 43.2291 253.666 43.1397C253.792 43.0503 253.962 43 254.141 43H274.29C274.469 43 274.639 43.0503 274.765 43.1397C274.891 43.2291 274.962 43.3504 274.962 43.4769C274.962 43.6034 274.891 43.7247 274.765 43.8141C274.639 43.9036 274.469 43.9538 274.29 43.9538Z" fill="#F2F2F2"/>
<path d="M270.26 58.2611C270.151 58.2612 270.043 58.2421 269.946 58.2056C269.849 58.169 269.766 58.1162 269.704 58.0516C269.643 57.9871 269.605 57.9129 269.593 57.8354C269.581 57.7579 269.597 57.6796 269.637 57.6072L275.011 48.0691C275.043 48.0108 275.092 47.9576 275.153 47.9126C275.215 47.8676 275.288 47.8317 275.369 47.8069C275.45 47.7821 275.538 47.7689 275.626 47.7681C275.714 47.7673 275.802 47.7789 275.884 47.8021C275.966 47.8254 276.041 47.86 276.104 47.9038C276.167 47.9477 276.217 47.9999 276.252 48.0576C276.287 48.1153 276.305 48.1773 276.306 48.24C276.307 48.3027 276.29 48.3649 276.257 48.4231L270.884 57.9612C270.834 58.0497 270.748 58.1256 270.637 58.1791C270.526 58.2326 270.395 58.2611 270.26 58.2611Z" fill="#F2F2F2"/>
<path d="M309.161 393.07L291.562 394.184C291.562 394.184 285.011 386.663 285.399 390.563C285.788 394.463 281.663 410.898 281.663 410.898L267.914 425.384C267.914 425.384 240.692 425.384 244.816 438.755C248.941 452.126 281.113 440.983 281.113 440.983L293.487 436.805V442.376C293.487 442.376 314.661 445.44 315.21 439.869C315.76 434.298 315.21 427.334 314.386 426.776C313.561 426.219 309.161 393.07 309.161 393.07Z" fill="#2F2E41"/>
<path d="M227.827 406.821C227.827 406.821 215.248 405.801 213.487 404.272C211.726 402.743 208.958 396.371 205.185 400.449C201.411 404.527 187.825 417.78 187.825 417.78L174.742 424.152C174.742 424.152 157.635 419.564 151.848 430.269C146.062 440.973 180.277 452.188 189.083 448.62L200.153 446.326L199.65 451.678C199.65 451.678 215.248 455.246 217.512 450.659C219.777 446.071 221.538 440.719 220.531 439.189C219.525 437.66 227.827 406.821 227.827 406.821Z" fill="#2F2E41"/>
<path d="M320.71 87.2226L301.231 130.882L292.772 149.836L289.638 156.864L244.266 156.307L248.941 124.272C242.342 107.001 258.015 100.037 258.015 100.037L271.214 85.788V88.0583C271.214 88.0583 284.138 72.4587 289.913 63.5446C295.687 54.6306 303.661 57.9734 303.661 57.9734C317.41 56.5805 320.71 87.2226 320.71 87.2226Z" fill="#B73DE1"/>
<path opacity="0.2" d="M301.231 130.882L292.772 149.836C290.056 144.688 287.988 138.857 287.988 135.414C287.988 125.943 297.337 130.957 297.337 130.957C297.337 130.957 289.775 89.0332 289.775 76.4978C289.775 68.1715 296.628 105.123 301.231 130.882Z" fill="black"/>
<path d="M293.762 134.021L252.791 133.186C252.791 133.186 222.818 135.693 227.218 147.949C231.617 160.206 255.54 147.949 255.54 147.949L303.386 155.471L293.762 134.021Z" fill="#FFB8B8"/>
<path d="M301.462 60.2018C301.462 60.2018 287.163 61.3161 287.163 73.8515C287.163 86.3869 300.087 130.957 300.087 130.957C300.087 130.957 290.738 125.943 290.738 135.414C290.738 144.885 306.411 172.463 308.061 154.078C308.061 154.078 331.709 165.778 330.334 143.771C328.959 121.765 314.111 75.2443 314.111 75.2443C314.111 75.2443 312.461 59.3661 301.462 60.2018Z" fill="#B73DE1"/>
<path d="M268.939 33.4821C267.36 31.934 267.39 29.3231 266.117 27.5084C264.119 24.6587 259.958 24.8497 256.542 25.3417C254.257 25.5692 252.01 26.098 249.86 26.9145C248.917 27.3077 248.077 27.9174 247.406 28.6956C246.735 29.4737 246.252 30.3991 245.995 31.3988C245.727 32.5214 245.137 29.3362 244.537 25.2109C243.921 21.0017 244.641 16.7034 246.592 12.9352C248.543 9.16699 251.625 6.12353 255.393 4.24328C255.437 4.221 255.482 4.19902 255.526 4.17734C259.39 2.2751 263.438 0.595143 267.709 0.123068C271.979 -0.349007 276.536 0.50572 279.886 3.231C281.417 4.47657 282.662 6.0756 284.303 7.16743C287.187 9.08577 290.839 9.17868 294.266 9.5831C298.167 9.92507 301.952 11.1014 305.371 13.0344C308.808 15.004 311.34 18.2665 312.418 22.1146C313.503 26.5923 311.733 31.8853 307.387 33.8284C306.628 34.1519 305.955 34.6521 305.423 35.2884C301.855 39.7075 307.615 42.1255 308.451 45.9721C309.148 49.1818 306.101 52.0879 302.976 52.9717C300.036 53.7121 296.932 53.3933 294.198 52.07C291.464 50.7467 289.269 48.5011 287.99 45.7183C286.919 43.2004 286.674 40.4151 286.383 37.689C286.049 34.5685 277.97 28.9166 283.424 33.168C284.483 33.971 285.316 35.0393 285.843 36.2679C287.503 40.2916 284.059 42.5755 282.212 45.4483C281.207 47.0641 280.669 48.933 280.658 50.843C280.648 52.753 281.167 54.6276 282.155 56.2542C279.792 54.9134 277.964 52.7789 276.988 50.219C276.012 47.6591 275.949 44.8343 276.809 42.2322C277.305 40.8669 278.055 39.6048 278.505 38.2235C279.208 36.0682 278.587 31.8797 275.447 32.7289C273.206 33.3349 271.29 35.7865 268.939 33.4821Z" fill="#2F2E41"/>
<path d="M166.665 117.011L166.944 145.782L137.568 116.651L137.421 116.506H137.215H0.5V31.488H179.408V116.506H167.165H166.66L166.665 117.011ZM1.18138 115.302V115.802H1.68138H137.696L165.383 143.258L166.247 144.115L166.235 142.898L165.972 115.802H178.227H178.727V115.302V32.6914V32.1914H178.227H1.68138H1.18138V32.6914V115.302Z" fill="#F2F2F2" stroke="#6C63FF"/>
<path d="M208.691 146.182H118.737V147.885H208.691V146.182Z" fill="#3F3D56"/>
<path d="M94.4805 85.1675L86.3766 93.5168L80.0742 79.9481L94.4805 75.7734V85.1675Z" fill="#FFB8B8"/>
<path d="M55.7932 63.1484C55.7932 63.1484 58.387 67.3429 73.7522 66.2943L82.7322 82.0245L88.7497 89.931C89.6948 91.1736 89.7484 93.0577 88.8205 94.3173C88.2567 95.0818 87.446 95.4837 86.3238 94.6089C86.3238 94.6089 86.3238 99.852 81.8343 97.7548C81.8343 97.7548 80.0385 101.949 76.4468 99.852C76.4468 99.852 76.4468 101.949 73.7531 100.901C71.0594 99.852 56.6911 86.22 56.6911 86.22L50.4057 80.977L55.7932 63.1484Z" fill="#DB8C68"/>
<path d="M88.2183 68.4337C88.2183 68.4337 84.3275 68.4337 80.4804 66.4097C76.982 64.5713 72.9083 64.8054 69.6802 67.2186C67.0494 69.1857 64.7699 72.4426 64.8127 77.8216C64.8127 77.8216 68.3138 81.9941 72.0152 73.6492H74.7162C74.7162 73.6492 77.317 84.0813 84.6206 83.0361C91.9242 81.9909 93.6247 80.9499 93.6247 80.9499L88.2183 68.4337Z" fill="#FFB8B8"/>
<ellipse rx="2.63446" ry="1.84835" transform="matrix(0.641412 -0.767197 0.641412 0.767197 67.1415 75.7646)" fill="#850FE1"/>
<path d="M64.5447 89.1358L64.2526 88.7951C63.4635 87.8748 62.184 87.8748 61.3949 88.7951L59.3034 91.2345C58.5143 92.1548 58.5143 93.6471 59.3034 94.5674L59.5955 94.9081C60.3846 95.8285 61.664 95.8285 62.4532 94.9081L64.5447 92.4688C65.3338 91.5484 65.3338 90.0562 64.5447 89.1358Z" fill="#FFB8B8"/>
<path d="M61.6444 85.1712L61.3523 84.8306C60.5631 83.9102 59.2837 83.9102 58.4946 84.8306L56.4031 87.2699C55.614 88.1903 55.614 89.6825 56.4031 90.6029L56.6952 90.9435C57.4843 91.8639 58.7637 91.8639 59.5529 90.9435L61.6444 88.5042C62.4335 87.5838 62.4335 86.0916 61.6444 85.1712Z" fill="#FFB8B8"/>
<path d="M68.5935 91.7588L68.3014 91.4182C67.5123 90.4978 66.2328 90.4978 65.4437 91.4182L62.9025 94.382C62.1134 95.3024 62.1134 96.7946 62.9025 97.715L63.1946 98.0556C63.9837 98.976 65.2631 98.976 66.0523 98.0556L68.5935 95.0918C69.3826 94.1714 69.3826 92.6792 68.5935 91.7588Z" fill="#FFB8B8"/>
<path d="M70.7245 95.4104L70.5205 95.1726C69.9694 94.5298 69.076 94.5298 68.5249 95.1726L66.921 97.0431C66.37 97.6859 66.37 98.7279 66.921 99.3707L67.125 99.6085C67.6761 100.251 68.5695 100.251 69.1206 99.6085L70.7245 97.7379C71.2755 97.0952 71.2755 96.0531 70.7245 95.4104Z" fill="#FFB8B8"/>
<path d="M103.467 87.2659L95.3368 91.4696L87.2061 68.3485L94.4335 65.1958L103.467 87.2659Z" fill="white"/>
<path d="M41.8631 58.8447L62.2295 63.5743L49.9319 82.8712L42.807 81.3095L41.8631 58.8447Z" fill="#550052"/>
<path d="M98.3317 65.1958L80.2169 70.0781L91.9918 86.3513L98.3317 84.724V65.1958Z" fill="#FFB8B8"/>
<ellipse rx="2.28007" ry="1.57246" transform="matrix(0.641412 -0.767197 0.641412 0.767197 59.4381 87.2596)" fill="#850FE1"/>
<ellipse rx="2.28007" ry="1.57246" transform="matrix(0.641412 -0.767196 0.641412 0.767196 62.2908 91.1837)" fill="#850FE1"/>
<ellipse rx="1.64522" ry="1.05115" transform="matrix(0.641412 -0.767197 0.641412 0.767197 68.8723 97.316)" fill="#850FE1"/>
<ellipse rx="2.28007" ry="1.57246" transform="matrix(0.641412 -0.767197 0.641412 0.767197 66.4273 94.0838)" fill="#850FE1"/>
<rect width="24.5149" height="21.6063" transform="matrix(0.976169 0.217011 -0.138508 0.990361 23.2191 54.855)" fill="#550052"/>
<rect width="23.6771" height="18.9167" transform="matrix(0.965917 -0.258853 0.166245 0.986084 95.2197 66.0283)" fill="#FFB8B8"/>
<rect width="1.66626" height="19.0793" transform="matrix(0.908875 -0.41707 0.277361 0.960766 92.7045 66.8557)" fill="#289D9E"/>
<path d="M92.8171 67.2457C95.3486 71.4436 96.7666 75.0061 99.2927 84.5915M92.8632 66.7829C95.3947 70.9807 96.8128 74.5433 99.3389 84.1287" stroke="#289D9E"/>
<g clip-path="url(#clip0)">
<path d="M143.969 55V56.3184C143.969 60.0624 146.191 63.5254 149.791 65.2128L150.072 65.3447H151.928L152.209 65.2128C155.809 63.5254 158.031 60.0624 158.031 56.3184V55H143.969Z" fill="#5F63C7"/>
<path d="M151.928 65.3447H151V55H158.031V56.3184C158.031 60.0624 155.809 63.5254 152.209 65.2128L151.928 65.3447Z" fill="#5F63C7"/>
<path d="M154.375 63.2089C153.25 63.0507 152.125 62.998 151 62.998C149.847 62.998 148.722 63.0507 147.625 63.2089C145.544 63.499 143.969 65.1864 143.969 67.164C143.969 69.5635 146.219 71.4092 148.75 71.0664C149.481 70.9609 150.241 70.9082 151 70.9082C151.759 70.9082 152.519 70.9609 153.25 71.0664C155.781 71.4092 158.031 69.537 158.031 67.164C158.031 65.1864 156.456 63.499 154.375 63.2089Z" fill="#D0CDE1"/>
<path d="M158.031 67.164C158.031 69.5371 155.781 71.4092 153.25 71.0664C152.519 70.9608 151.759 70.9082 151 70.9082V62.998C152.125 62.998 153.25 63.0507 154.375 63.2089C156.456 63.499 158.031 65.1864 158.031 67.164Z" fill="#D0CDE1"/>
<path d="M170.041 88.7411C169.816 88.5301 169.534 88.3455 169.281 88.1873V85.498C169.281 76.0585 161.069 68.2715 151 68.2715C140.931 68.2715 132.719 76.0585 132.719 85.498V88.1874C132.466 88.3456 132.184 88.5302 131.959 88.7412C130.637 89.9805 129.906 91.6415 129.906 93.4082C129.906 95.1747 130.637 96.8359 131.959 98.0751C133.281 99.3145 135.053 100 136.937 100H165.062C166.947 100 168.719 99.3145 170.041 98.0751C171.362 96.8359 172.094 95.1747 172.094 93.4082C172.094 91.6415 171.362 89.9805 170.041 88.7411Z" fill="#5F63C7"/>
<path d="M172.094 93.4082C172.094 95.1747 171.363 96.8359 170.041 98.0751C168.719 99.3145 166.947 100 165.062 100H151V68.2715C161.069 68.2715 169.281 76.0585 169.281 85.498V88.1874C169.534 88.3456 169.816 88.5302 170.041 88.7412C171.363 89.9805 172.094 91.6415 172.094 93.4082Z" fill="#5F63C7"/>
<g clip-path="url(#clip1)">
<path d="M157.864 79.5151C157.779 79.4298 157.67 79.3873 157.538 79.3873H155.109C154.948 78.6016 154.645 77.9195 154.2 77.3419H157.509C157.642 77.3419 157.751 77.2993 157.836 77.2143C157.921 77.1291 157.963 77.0201 157.963 76.8876V75.4384C157.963 75.3058 157.921 75.197 157.836 75.1117C157.75 75.0266 157.642 74.9839 157.509 74.9839H145.691C145.558 74.9839 145.45 75.0266 145.364 75.1116C145.279 75.1969 145.237 75.3057 145.237 75.4384V77.3275C145.237 77.4506 145.282 77.5571 145.371 77.6471C145.461 77.737 145.568 77.782 145.691 77.782H147.751C149.749 77.782 151.018 78.3169 151.557 79.387H145.691C145.558 79.387 145.449 79.4296 145.364 79.5148C145.279 79.6001 145.237 79.7089 145.237 79.8415V81.2905C145.237 81.423 145.279 81.532 145.364 81.617C145.45 81.7023 145.559 81.7448 145.691 81.7448H151.756C151.548 82.5215 151.063 83.1132 150.3 83.5204C149.538 83.9277 148.532 84.1313 147.282 84.1313H145.691C145.568 84.1313 145.461 84.1764 145.371 84.2663C145.281 84.3563 145.237 84.4628 145.237 84.5858V86.39C145.237 86.5132 145.279 86.6174 145.364 86.7025C147.182 88.6343 149.54 91.3376 152.438 94.8132C152.523 94.927 152.642 94.9837 152.793 94.9837H155.563C155.762 94.9837 155.899 94.8987 155.975 94.7279C156.07 94.5575 156.051 94.3965 155.918 94.2449C153.153 90.8547 150.98 88.3169 149.398 86.6314C151.008 86.442 152.315 85.9211 153.319 85.069C154.323 84.2168 154.933 83.1086 155.151 81.745H157.538C157.67 81.745 157.779 81.7025 157.864 81.6173C157.949 81.5322 157.992 81.4233 157.992 81.2907V79.8419C157.992 79.7091 157.949 79.6003 157.864 79.5151Z" fill="white"/>
</g>
</g>
<ellipse cx="250.098" cy="37.366" rx="3" ry="1" transform="rotate(-30 250.098 37.366)" fill="#171515"/>
<defs>
<clipPath id="clip0">
<rect width="48" height="45" fill="white" transform="translate(127 55)"/>
</clipPath>
<clipPath id="clip1">
<rect width="20" height="20" fill="white" transform="translate(141.614 74.9839)"/>
</clipPath>
</defs>
</svg>
