<svg width="904" height="609" viewBox="0 0 904 609" fill="none" xmlns="http://www.w3.org/2000/svg">
<path d="M0 0H904V533C564.268 634.109 366.399 634.56 0 533V0Z" fill="url(#paint0_linear)"/>
<mask id="path-2-inside-1" fill="white">
<path d="M441.947 243.863V202.342H421.746V175.371H408.072V202.342H387.871V243.863H376.683V150.53H353.996V141.658H323.85V132.786H294.015V141.658H265.734V150.53H241.182V243.508H228.129V201.987H207.928V175.017H194.254V201.987H174.053V243.508H161V390.782H190.835V338.615H211.347V390.782H291.529V330.098H326.336V390.782H374.818V391.137H404.653V338.97H425.165V391.137H455V243.863H441.947ZM171.722 261.607H183.532V272.253H171.722V261.607ZM171.877 291.416H183.687V302.063H171.877V291.416ZM183.842 331.873H172.033V321.226H183.842V331.873ZM214.765 235.701H187.416V229.313H214.765V235.701ZM214.765 226.474H187.416V220.086H214.765V226.474ZM214.765 217.247H187.416V210.859H214.765V217.247ZM218.65 261.607H230.46V272.253H218.65V261.607ZM218.806 291.416H230.615V302.063H218.806V291.416ZM230.771 331.873H218.961V321.226H230.771V331.873ZM279.097 314.129H257.342V303.127H279.097V314.129ZM279.097 282.545H257.342V271.543H279.097V282.545ZM279.097 250.96H257.342V239.959H279.097V250.96ZM279.097 219.376H257.342V208.375H279.097V219.376ZM279.097 187.792H257.342V176.791H279.097V187.792ZM319.81 314.129H298.055V303.127H319.81V314.129ZM319.81 282.545H298.055V271.543H319.81V282.545ZM319.81 250.96H298.055V239.959H319.81V250.96ZM319.81 219.376H298.055V208.375H319.81V219.376ZM319.81 187.792H298.055V176.791H319.81V187.792ZM360.522 314.129H338.767V303.127H360.522V314.129ZM360.522 282.545H338.767V271.543H360.522V282.545ZM360.522 250.96H338.767V239.959H360.522V250.96ZM360.522 219.376H338.767V208.375H360.522V219.376ZM360.522 187.792H338.767V176.791H360.522V187.792ZM385.54 261.962H397.35V272.608H385.54V261.962ZM385.696 291.771H397.505V302.418H385.696V291.771ZM397.661 332.227H385.851V321.581H397.661V332.227ZM428.584 236.056H401.235V229.668H428.584V236.056ZM428.584 226.829H401.235V220.441H428.584V226.829ZM428.584 217.602H401.235V211.214H428.584V217.602ZM432.468 261.962H444.278V272.608H432.468V261.962ZM432.624 291.771H444.433V302.418H432.624V291.771ZM444.589 332.227H432.779V321.581H444.589V332.227Z"/>
</mask>
<path d="M441.947 243.863V202.342H421.746V175.371H408.072V202.342H387.871V243.863H376.683V150.53H353.996V141.658H323.85V132.786H294.015V141.658H265.734V150.53H241.182V243.508H228.129V201.987H207.928V175.017H194.254V201.987H174.053V243.508H161V390.782H190.835V338.615H211.347V390.782H291.529V330.098H326.336V390.782H374.818V391.137H404.653V338.97H425.165V391.137H455V243.863H441.947ZM171.722 261.607H183.532V272.253H171.722V261.607ZM171.877 291.416H183.687V302.063H171.877V291.416ZM183.842 331.873H172.033V321.226H183.842V331.873ZM214.765 235.701H187.416V229.313H214.765V235.701ZM214.765 226.474H187.416V220.086H214.765V226.474ZM214.765 217.247H187.416V210.859H214.765V217.247ZM218.65 261.607H230.46V272.253H218.65V261.607ZM218.806 291.416H230.615V302.063H218.806V291.416ZM230.771 331.873H218.961V321.226H230.771V331.873ZM279.097 314.129H257.342V303.127H279.097V314.129ZM279.097 282.545H257.342V271.543H279.097V282.545ZM279.097 250.96H257.342V239.959H279.097V250.96ZM279.097 219.376H257.342V208.375H279.097V219.376ZM279.097 187.792H257.342V176.791H279.097V187.792ZM319.81 314.129H298.055V303.127H319.81V314.129ZM319.81 282.545H298.055V271.543H319.81V282.545ZM319.81 250.96H298.055V239.959H319.81V250.96ZM319.81 219.376H298.055V208.375H319.81V219.376ZM319.81 187.792H298.055V176.791H319.81V187.792ZM360.522 314.129H338.767V303.127H360.522V314.129ZM360.522 282.545H338.767V271.543H360.522V282.545ZM360.522 250.96H338.767V239.959H360.522V250.96ZM360.522 219.376H338.767V208.375H360.522V219.376ZM360.522 187.792H338.767V176.791H360.522V187.792ZM385.54 261.962H397.35V272.608H385.54V261.962ZM385.696 291.771H397.505V302.418H385.696V291.771ZM397.661 332.227H385.851V321.581H397.661V332.227ZM428.584 236.056H401.235V229.668H428.584V236.056ZM428.584 226.829H401.235V220.441H428.584V226.829ZM428.584 217.602H401.235V211.214H428.584V217.602ZM432.468 261.962H444.278V272.608H432.468V261.962ZM432.624 291.771H444.433V302.418H432.624V291.771ZM444.589 332.227H432.779V321.581H444.589V332.227Z" stroke="#FAFBFC" stroke-width="2" mask="url(#path-2-inside-1)"/>
<path d="M494.695 414.698H426.712L429.016 386.123H492.391L494.695 414.698Z" fill="#E6E6E6"/>
<path d="M499.304 411.401H423.255V417.996H499.304V411.401Z" fill="#E6E6E6"/>
<path d="M590.909 202.029H331.074C329.241 202.029 327.482 202.724 326.186 203.96C324.889 205.197 324.161 206.874 324.161 208.623V359.745H597.822V208.623C597.822 207.757 597.643 206.9 597.296 206.1C596.948 205.3 596.439 204.573 595.797 203.96C595.155 203.348 594.393 202.862 593.554 202.531C592.715 202.199 591.816 202.029 590.909 202.029H590.909Z" fill="#3F3D56"/>
<path d="M324.161 359.745V384.474C324.161 385.34 324.34 386.198 324.687 386.998C325.035 387.798 325.544 388.525 326.186 389.137C326.828 389.75 327.59 390.235 328.429 390.567C329.268 390.898 330.167 391.069 331.075 391.069H590.909C592.742 391.069 594.501 390.374 595.797 389.137C597.094 387.9 597.822 386.223 597.822 384.474V359.745H324.161Z" fill="#E6E6E6"/>
<path d="M584.571 215.767H337.988V347.655H584.571V215.767Z" fill="#E6E6E6"/>
<path d="M461.28 381.726C465.098 381.726 468.193 378.774 468.193 375.132C468.193 371.49 465.098 368.538 461.28 368.538C457.461 368.538 454.366 371.49 454.366 375.132C454.366 378.774 457.461 381.726 461.28 381.726Z" fill="#3F3D56"/>
<path d="M345.677 221.338C346.401 221.338 346.989 220.778 346.989 220.086C346.989 219.395 346.401 218.835 345.677 218.835C344.952 218.835 344.365 219.395 344.365 220.086C344.365 220.778 344.952 221.338 345.677 221.338Z" fill="#FAFBFC"/>
<path d="M350.657 221.338C351.381 221.338 351.969 220.778 351.969 220.086C351.969 219.395 351.381 218.835 350.657 218.835C349.932 218.835 349.345 219.395 349.345 220.086C349.345 220.778 349.932 221.338 350.657 221.338Z" fill="#FAFBFC"/>
<path d="M355.637 221.338C356.361 221.338 356.949 220.778 356.949 220.086C356.949 219.395 356.361 218.835 355.637 218.835C354.912 218.835 354.325 219.395 354.325 220.086C354.325 220.778 354.912 221.338 355.637 221.338Z" fill="#FAFBFC"/>
<path d="M577.464 224.339H344.365V335.103H577.464V224.339Z" fill="#FAFBFC"/>
<path d="M359.86 241.187C359.641 241.187 359.432 241.27 359.277 241.417C359.123 241.564 359.036 241.764 359.035 241.973V281.703C359.036 281.912 359.123 282.112 359.277 282.259C359.432 282.406 359.641 282.489 359.86 282.489H407.963C408.181 282.489 408.391 282.406 408.545 282.259C408.7 282.112 408.786 281.912 408.787 281.703V241.973C408.786 241.764 408.7 241.564 408.545 241.417C408.391 241.27 408.181 241.187 407.963 241.187H359.86Z" fill="#E6E6E6"/>
<path d="M437.095 241.314C436.877 241.315 436.667 241.397 436.513 241.545C436.358 241.692 436.271 241.892 436.271 242.1V281.704C436.271 281.912 436.358 282.112 436.513 282.259C436.667 282.407 436.877 282.489 437.095 282.49H485.045C485.264 282.489 485.473 282.406 485.628 282.259C485.782 282.112 485.869 281.912 485.869 281.704V242.1C485.869 241.892 485.782 241.692 485.628 241.545C485.473 241.398 485.264 241.315 485.045 241.314H437.095Z" fill="#E6E6E6"/>
<path d="M513.521 240.899C513.303 240.9 513.093 240.983 512.939 241.13C512.784 241.277 512.698 241.477 512.697 241.685V281.704C512.698 281.912 512.784 282.112 512.939 282.259C513.093 282.406 513.303 282.489 513.521 282.49H561.97C562.188 282.489 562.398 282.406 562.552 282.259C562.706 282.112 562.793 281.912 562.794 281.704V241.685C562.793 241.477 562.706 241.277 562.552 241.13C562.398 240.983 562.188 240.9 561.97 240.899H513.521Z" fill="#E6E6E6"/>
<path d="M360.739 302.156C360.288 302.157 359.855 302.329 359.536 302.633C359.217 302.938 359.038 303.351 359.038 303.781C359.038 304.212 359.217 304.625 359.536 304.929C359.855 305.234 360.288 305.406 360.739 305.406H405.965C406.417 305.406 406.849 305.234 407.168 304.929C407.487 304.625 407.666 304.212 407.666 303.781C407.666 303.351 407.487 302.938 407.168 302.633C406.849 302.329 406.417 302.157 405.965 302.156H360.739Z" fill="#E6E6E6"/>
<path d="M360.739 309.886C360.288 309.887 359.855 310.058 359.536 310.363C359.217 310.668 359.038 311.08 359.038 311.511C359.038 311.941 359.217 312.354 359.536 312.659C359.855 312.964 360.288 313.135 360.739 313.136H381.102C381.553 313.135 381.986 312.964 382.305 312.659C382.623 312.354 382.803 311.941 382.803 311.511C382.803 311.08 382.623 310.668 382.305 310.363C381.986 310.058 381.553 309.887 381.102 309.886H360.739Z" fill="#6C63FF"/>
<path d="M438.805 302.156C438.353 302.157 437.921 302.329 437.602 302.633C437.283 302.938 437.104 303.351 437.104 303.781C437.104 304.212 437.283 304.625 437.602 304.929C437.921 305.234 438.353 305.406 438.805 305.406H484.031C484.482 305.406 484.915 305.234 485.234 304.929C485.553 304.625 485.732 304.212 485.732 303.781C485.732 303.351 485.553 302.938 485.234 302.633C484.915 302.329 484.482 302.157 484.031 302.156H438.805Z" fill="#E6E6E6"/>
<path d="M438.805 309.886C438.353 309.887 437.921 310.058 437.602 310.363C437.283 310.668 437.104 311.08 437.104 311.511C437.104 311.941 437.283 312.354 437.602 312.659C437.921 312.964 438.353 313.135 438.805 313.136H459.168C459.619 313.135 460.052 312.964 460.371 312.659C460.689 312.354 460.869 311.941 460.869 311.511C460.869 311.08 460.689 310.668 460.371 310.363C460.052 310.058 459.619 309.887 459.168 309.886H438.805Z" fill="#6C63FF"/>
<path d="M514.919 302.156C514.468 302.157 514.035 302.329 513.717 302.633C513.398 302.938 513.219 303.351 513.219 303.781C513.219 304.212 513.398 304.625 513.717 304.929C514.035 305.234 514.468 305.406 514.919 305.406H560.146C560.597 305.406 561.03 305.234 561.349 304.929C561.667 304.625 561.846 304.212 561.846 303.781C561.846 303.351 561.667 302.938 561.349 302.633C561.03 302.329 560.597 302.157 560.146 302.156H514.919Z" fill="#E6E6E6"/>
<path d="M360.739 294.173C360.288 294.174 359.855 294.345 359.536 294.65C359.217 294.955 359.038 295.367 359.038 295.798C359.038 296.228 359.217 296.641 359.536 296.946C359.855 297.251 360.288 297.422 360.739 297.423H405.965C406.417 297.422 406.849 297.251 407.168 296.946C407.487 296.641 407.666 296.228 407.666 295.798C407.666 295.367 407.487 294.955 407.168 294.65C406.849 294.345 406.417 294.174 405.965 294.173H360.739Z" fill="#E6E6E6"/>
<path d="M438.805 294.173C438.353 294.174 437.921 294.345 437.602 294.65C437.283 294.955 437.104 295.367 437.104 295.798C437.104 296.228 437.283 296.641 437.602 296.946C437.921 297.251 438.353 297.422 438.805 297.423H484.031C484.482 297.422 484.915 297.251 485.234 296.946C485.553 296.641 485.732 296.228 485.732 295.798C485.732 295.367 485.553 294.955 485.234 294.65C484.915 294.345 484.482 294.174 484.031 294.173H438.805Z" fill="#E6E6E6"/>
<path d="M514.919 294.173C514.468 294.174 514.035 294.345 513.717 294.65C513.398 294.955 513.219 295.367 513.219 295.798C513.219 296.228 513.398 296.641 513.717 296.946C514.035 297.251 514.468 297.422 514.919 297.423H560.146C560.597 297.422 561.03 297.251 561.349 296.946C561.667 296.641 561.846 296.228 561.846 295.798C561.846 295.367 561.667 294.955 561.349 294.65C561.03 294.345 560.597 294.174 560.146 294.173H514.919Z" fill="#E6E6E6"/>
<path d="M514.919 309.886C514.468 309.887 514.035 310.058 513.717 310.363C513.398 310.668 513.219 311.08 513.219 311.511C513.219 311.941 513.398 312.354 513.717 312.659C514.035 312.964 514.468 313.135 514.919 313.136H535.282C535.733 313.135 536.166 312.964 536.485 312.659C536.804 312.354 536.983 311.941 536.983 311.511C536.983 311.08 536.804 310.668 536.485 310.363C536.166 310.058 535.733 309.887 535.282 309.886H514.919Z" fill="#6C63FF"/>
<path d="M367.363 268.309H397.832V264.8C397.832 255.323 390.998 247.613 382.598 247.613C374.197 247.613 367.363 255.323 367.363 264.8V268.309Z" fill="#3F3D56"/>
<path opacity="0.2" d="M367.363 268.309H397.832V264.8C397.832 255.323 390.998 247.613 382.598 247.613C374.197 247.613 367.363 255.323 367.363 264.8V268.309Z" fill="black"/>
<path d="M371.312 269.524H394.761C394.738 268.132 394.233 266.806 393.353 265.83C392.473 264.854 391.289 264.307 390.055 264.305H376.017C374.783 264.307 373.599 264.854 372.719 265.83C371.839 266.806 371.334 268.132 371.312 269.524Z" fill="#6C63FF"/>
<path d="M368.519 268.984C371.118 268.984 373.225 266.607 373.225 263.675C373.225 260.743 371.118 258.366 368.519 258.366C365.92 258.366 363.813 260.743 363.813 263.675C363.813 266.607 365.92 268.984 368.519 268.984Z" fill="#3F3D56"/>
<path d="M397.075 268.984C399.674 268.984 401.781 266.607 401.781 263.675C401.781 260.743 399.674 258.366 397.075 258.366C394.476 258.366 392.369 260.743 392.369 263.675C392.369 266.607 394.476 268.984 397.075 268.984Z" fill="#3F3D56"/>
<path d="M393.525 266.375V268.354H371.79V266.375H366.924V276.023C366.924 276.614 367.132 277.181 367.503 277.599C367.873 278.017 368.376 278.252 368.9 278.252H396.415C396.674 278.252 396.931 278.195 397.171 278.082C397.411 277.97 397.629 277.806 397.812 277.599C397.995 277.392 398.141 277.147 398.24 276.876C398.34 276.606 398.391 276.316 398.391 276.023V266.375H393.525Z" fill="#3F3D56"/>
<path opacity="0.2" d="M368.519 264.755C369.048 264.755 369.477 264.271 369.477 263.675C369.477 263.079 369.048 262.595 368.519 262.595C367.991 262.595 367.562 263.079 367.562 263.675C367.562 264.271 367.991 264.755 368.519 264.755Z" fill="black"/>
<path opacity="0.2" d="M397.075 264.755C397.603 264.755 398.032 264.271 398.032 263.675C398.032 263.079 397.603 262.595 397.075 262.595C396.546 262.595 396.118 263.079 396.118 263.675C396.118 264.271 396.546 264.755 397.075 264.755Z" fill="black"/>
<path d="M455.64 268.699L455.449 268.696L455.468 268.191L456.142 268.258L456.117 268.398L455.653 268.353L455.64 268.699Z" fill="#3F3D56"/>
<path d="M455.494 272.503L455.303 272.499L455.339 271.548L455.531 271.552L455.494 272.503ZM455.543 271.235L455.352 271.231L455.388 270.281L455.58 270.285L455.543 271.235ZM455.592 269.968L455.4 269.964L455.437 269.013L455.629 269.017L455.592 269.968Z" fill="#3F3D56"/>
<path d="M455.271 273.32L455.29 272.816L455.482 272.82L455.468 273.167L455.935 273.14L455.949 273.281L455.271 273.32Z" fill="#3F3D56"/>
<path d="M456.314 273.26L456.3 273.119L457.397 273.055L457.412 273.197L456.314 273.26ZM457.778 273.176L457.763 273.034L458.86 272.971L458.875 273.112L457.778 273.176ZM459.241 273.091L459.226 272.95L460.323 272.886L460.338 273.028L459.241 273.091ZM460.704 273.007L460.689 272.865L461.786 272.802L461.801 272.943L460.704 273.007ZM462.167 272.922L462.152 272.781L463.249 272.717L463.264 272.859L462.167 272.922ZM463.63 272.838L463.615 272.696L464.712 272.633L464.727 272.774L463.63 272.838ZM465.093 272.753L465.078 272.612L466.176 272.548L466.19 272.69L465.093 272.753ZM466.556 272.669L466.541 272.527L467.639 272.464L467.653 272.605L466.556 272.669ZM468.019 272.584L468.004 272.443L469.102 272.379L469.117 272.521L468.019 272.584ZM469.482 272.5L469.468 272.358L470.565 272.295L470.58 272.437L469.482 272.5ZM470.945 272.415L470.931 272.274L472.028 272.21L472.043 272.352L470.945 272.415ZM472.409 272.331L472.394 272.189L473.491 272.126L473.506 272.268L472.409 272.331Z" fill="#3F3D56"/>
<path d="M473.872 272.246L473.857 272.105L474.269 272.081L474.045 271.823L474.206 271.747L474.604 272.204L473.872 272.246Z" fill="#3F3D56"/>
<path d="M473.806 271.548L473.089 270.721L473.25 270.644L473.967 271.471L473.806 271.548ZM472.851 270.446L472.134 269.619L472.294 269.542L473.011 270.369L472.851 270.446Z" fill="#3F3D56"/>
<path d="M470.279 275.303C473.868 275.303 476.778 273.141 476.778 270.474C476.778 267.807 473.868 265.645 470.279 265.645C466.69 265.645 463.78 267.807 463.78 270.474C463.78 273.141 466.69 275.303 470.279 275.303Z" fill="#6C63FF"/>
<path d="M475.631 276.084L466.121 263.55L464.019 265.112L473.385 276.049L475.631 276.084Z" fill="#3F3D56"/>
<path d="M446.816 275.765L468.176 259.679L469.944 262.271L449.683 276.475L446.816 275.765Z" fill="#3F3D56"/>
<path d="M455.513 274.06C457.888 274.06 459.814 272.63 459.814 270.865C459.814 269.1 457.888 267.669 455.513 267.669C453.138 267.669 451.212 269.1 451.212 270.865C451.212 272.63 453.138 274.06 455.513 274.06Z" fill="#3F3D56"/>
<path d="M449.779 271.788C449.753 271.788 449.729 271.796 449.711 271.809C449.693 271.822 449.683 271.84 449.683 271.859V272.428C449.683 272.447 449.693 272.465 449.711 272.478C449.729 272.492 449.753 272.499 449.779 272.499H452.168C452.193 272.499 452.217 272.492 452.235 272.478C452.253 272.465 452.263 272.447 452.263 272.428V271.859C452.263 271.84 452.253 271.822 452.235 271.809C452.217 271.796 452.193 271.788 452.168 271.788H449.779Z" fill="#6C63FF"/>
<path d="M455.274 263.87C455.249 263.87 455.224 263.877 455.206 263.89C455.189 263.904 455.178 263.922 455.178 263.941V264.51C455.178 264.529 455.189 264.547 455.206 264.56C455.224 264.573 455.249 264.581 455.274 264.581H457.663C457.689 264.581 457.713 264.573 457.731 264.56C457.749 264.547 457.759 264.529 457.759 264.51V263.941C457.759 263.922 457.749 263.904 457.731 263.89C457.713 263.877 457.689 263.87 457.663 263.87H455.274Z" fill="#6C63FF"/>
<path d="M466.886 262.698H464.401V261.277L465.357 260.993L466.886 261.845V262.698Z" fill="#3F3D56"/>
<path d="M464.717 260.633L464.456 260.725L464.947 261.495L465.207 261.404L464.717 260.633Z" fill="#3F3D56"/>
<path d="M464.99 259.712C464.972 259.712 464.954 259.716 464.939 259.723L463.251 260.53C463.229 260.54 463.215 260.556 463.209 260.575C463.204 260.593 463.208 260.612 463.222 260.628L463.636 261.106C463.649 261.122 463.671 261.133 463.696 261.137C463.721 261.141 463.746 261.137 463.768 261.127L465.456 260.321V260.321C465.477 260.31 465.492 260.294 465.497 260.276C465.503 260.257 465.498 260.238 465.484 260.222L465.071 259.745C465.064 259.737 465.055 259.73 465.045 259.725C465.035 259.719 465.023 259.716 465.011 259.714C465.004 259.712 464.997 259.712 464.99 259.712Z" fill="#6C63FF"/>
<path d="M468.797 262.556L466.838 255.49L469.132 255.206L470.696 260.898C470.763 261.104 470.764 261.32 470.698 261.526C470.631 261.733 470.5 261.925 470.315 262.086C470.13 262.248 469.896 262.375 469.632 262.457C469.368 262.538 469.082 262.572 468.797 262.556Z" fill="#3F3D56"/>
<path d="M476.016 254.097L473.747 253.977C473.717 253.975 473.687 253.968 473.661 253.956C473.635 253.945 473.614 253.928 473.598 253.909C473.582 253.89 473.572 253.868 473.57 253.846C473.568 253.823 473.573 253.8 473.585 253.78L476.881 247.997C476.893 247.975 476.913 247.956 476.937 247.941C476.962 247.927 476.992 247.917 477.023 247.912L479.261 247.615C479.294 247.611 479.329 247.613 479.361 247.622C479.393 247.631 479.421 247.646 479.442 247.665C479.464 247.685 479.478 247.708 479.483 247.733C479.489 247.758 479.485 247.784 479.473 247.807L476.208 254.007C476.193 254.035 476.166 254.059 476.132 254.076C476.097 254.092 476.057 254.099 476.016 254.097Z" fill="#3F3D56"/>
<path d="M474.054 253.536L475.87 253.678L478.832 248.138L476.921 248.351L474.054 253.536Z" fill="#6C63FF"/>
<path d="M454.271 268.734L451.881 270.51L448.441 259.36L450.352 259.573L454.271 268.734Z" fill="#3F3D56"/>
<path d="M451.486 259.556L451.073 259.464C450.263 259.73 449.38 259.853 448.495 259.825C448.304 259.819 448.123 259.758 447.991 259.655C447.859 259.552 447.786 259.415 447.787 259.273C447.787 259.126 447.865 258.986 448.004 258.882C448.144 258.779 448.333 258.721 448.53 258.721H452.134C452.232 258.721 452.326 258.75 452.395 258.801C452.464 258.852 452.502 258.922 452.502 258.994C452.502 259.086 452.474 259.176 452.418 259.257C452.363 259.339 452.283 259.41 452.184 259.465C452.085 259.519 451.971 259.556 451.85 259.572C451.729 259.588 451.604 259.582 451.486 259.556Z" fill="#3F3D56"/>
<path d="M474.318 252.583C474.226 252.583 474.136 252.606 474.063 252.648L471.129 254.315L467.844 254.633C467.279 254.688 466.887 255.145 466.838 255.561L470.704 255.162C471.241 255.123 471.749 254.961 472.156 254.699L474.594 253.132C474.659 253.091 474.705 253.035 474.726 252.973C474.748 252.912 474.743 252.846 474.713 252.787C474.683 252.727 474.629 252.675 474.559 252.639C474.488 252.603 474.404 252.583 474.318 252.583Z" fill="#3F3D56"/>
<path d="M472.885 251.518C472.793 251.518 472.703 251.54 472.629 251.582L469.695 253.249L466.411 253.568C465.845 253.623 465.454 254.08 465.405 254.495L469.271 254.096C469.808 254.058 470.315 253.896 470.723 253.633L473.16 252.067C473.225 252.025 473.271 251.97 473.293 251.908C473.314 251.846 473.309 251.781 473.279 251.721C473.249 251.662 473.196 251.61 473.125 251.574C473.054 251.537 472.971 251.518 472.885 251.518Z" fill="#3F3D56"/>
<path d="M474.675 255.809C473.992 255.808 473.318 255.688 472.709 255.458C472.1 255.228 471.571 254.896 471.166 254.487L471.552 254.277C471.861 254.59 472.252 254.854 472.702 255.052C473.152 255.251 473.652 255.379 474.171 255.429C474.689 255.48 475.217 255.452 475.72 255.347C476.224 255.242 476.694 255.062 477.102 254.819C477.509 254.575 477.846 254.272 478.092 253.929C478.338 253.586 478.487 253.209 478.532 252.822C478.576 252.434 478.514 252.044 478.35 251.675C478.186 251.306 477.923 250.966 477.577 250.674L477.935 250.439C478.489 250.905 478.85 251.48 478.975 252.096C479.1 252.711 478.983 253.339 478.639 253.906C478.295 254.473 477.738 254.954 477.034 255.292C476.331 255.629 475.512 255.809 474.675 255.809V255.809Z" fill="#3F3D56"/>
<path d="M478.02 275.729H444.188V277.505H478.02V275.729Z" fill="#3F3D56"/>
<path d="M457.09 264.509H456.039V268.77H457.09V264.509Z" fill="#3F3D56"/>
<path d="M465.978 254.218L465.691 254.36L467.603 255.78L468.75 254.999L466.838 253.863L465.978 254.218Z" fill="#3F3D56"/>
<path d="M551.213 269.215L550.541 269.029C551.012 267.8 551.222 266.508 551.163 265.208C550.883 258.818 544.273 253.641 536.429 253.669C528.585 253.696 522.432 258.918 522.712 265.309C522.764 266.526 523.052 267.735 523.564 268.892L522.902 269.071C522.091 267.238 521.821 265.288 522.115 263.381C522.409 261.475 523.259 259.667 524.593 258.107C525.928 256.547 527.709 255.28 529.79 254.411C531.872 253.541 534.193 253.094 536.562 253.106C538.932 253.118 541.281 253.589 543.417 254.48C545.552 255.371 547.413 256.657 548.844 258.231C550.276 259.805 551.237 261.622 551.649 263.532C552.061 265.442 551.911 267.39 551.213 269.215Z" fill="black"/>
<path d="M526.849 264.225C525.518 264.229 524.26 264.664 523.352 265.434C522.444 266.204 521.961 267.246 522.008 268.33C522.056 269.415 522.63 270.453 523.604 271.217C524.579 271.981 525.874 272.407 527.205 272.403L528.452 272.399L528.095 264.22L526.849 264.225Z" fill="black"/>
<path d="M528.102 263.647C527.806 263.649 527.526 263.746 527.323 263.917C527.121 264.089 527.013 264.321 527.023 264.563L527.35 272.064C527.361 272.305 527.489 272.537 527.706 272.707C527.924 272.877 528.212 272.972 528.509 272.971C528.806 272.97 529.086 272.873 529.289 272.702C529.491 272.53 529.599 272.298 529.588 272.056L529.261 264.555C529.25 264.313 529.122 264.082 528.905 263.912C528.688 263.742 528.399 263.647 528.102 263.647Z" fill="#407BFF"/>
<path d="M546.034 272.34L547.28 272.335C548.611 272.331 549.869 271.896 550.777 271.126C551.685 270.356 552.168 269.314 552.121 268.23C552.097 267.693 551.944 267.161 551.671 266.666C551.397 266.171 551.007 265.721 550.525 265.343C549.55 264.579 548.255 264.153 546.924 264.157L545.677 264.162L546.034 272.34Z" fill="black"/>
<path d="M545.62 263.589C545.324 263.59 545.043 263.687 544.841 263.859C544.639 264.03 544.531 264.262 544.541 264.504L544.868 272.005C544.879 272.247 545.007 272.478 545.224 272.648C545.441 272.818 545.73 272.913 546.027 272.912C546.323 272.911 546.604 272.814 546.806 272.643C547.008 272.471 547.116 272.239 547.106 271.997L546.779 264.497C546.768 264.255 546.64 264.024 546.423 263.853C546.205 263.683 545.917 263.588 545.62 263.589Z" fill="#407BFF"/>
<path d="M820.999 510.27C812.516 536.386 509.326 529.654 510.001 505.729C518.483 479.615 821.674 486.347 820.999 510.27Z" fill="#585591"/>
<g clip-path="url(#clip0)">
<path d="M779.339 424.942C780.972 428.058 781.419 431.768 780.588 435.299C779.757 438.83 777.712 441.908 774.879 443.891C772.046 445.874 768.644 446.61 765.384 445.943C762.123 445.277 759.256 443.261 757.38 440.315C757.261 440.129 757.146 439.941 757.036 439.745L757.031 439.735C756.949 439.593 756.87 439.45 756.794 439.305C755.12 436.099 754.701 432.271 755.628 428.661C756.556 425.052 758.755 421.955 761.742 420.052C764.729 418.149 768.26 417.595 771.56 418.512C774.859 419.429 777.657 421.742 779.339 424.942Z" fill="#65617D"/>
<path d="M771.662 438.986C775.246 436.703 776.544 431.783 774.56 427.997C772.577 424.212 768.063 422.993 764.479 425.277C760.895 427.56 759.598 432.48 761.582 436.266C763.565 440.051 768.079 441.27 771.662 438.986Z" fill="#DCE0ED"/>
<path d="M770.296 436.378C772.372 435.055 773.059 432.082 771.83 429.737C770.602 427.391 767.922 426.563 765.846 427.885C763.77 429.208 763.083 432.181 764.311 434.527C765.54 436.872 768.219 437.701 770.296 436.378Z" fill="#65617D"/>
<path d="M725.717 427.262L698.928 445.015L696.774 440.918C695.286 437.471 697.974 434.224 700.791 431.953C702.993 430.191 705.463 428.867 708.072 428.048C714.637 425.959 718.461 423.934 720.276 422.821C720.675 422.576 721.133 422.48 721.573 422.548C722.014 422.617 722.409 422.847 722.692 423.198C723.024 423.612 723.376 424.068 723.72 424.521C723.987 424.877 724.248 425.229 724.49 425.558C725.19 426.512 725.717 427.262 725.717 427.262Z" fill="#65617D"/>
<path d="M760.587 437.347L703.244 473.829C702.804 474.115 702.3 474.259 701.796 474.243C701.291 474.227 700.808 474.051 700.407 473.737C699.405 472.927 699.646 471.849 700.078 471.033C700.966 469.371 701.291 467.448 700.995 465.604C700.614 463.322 699.648 459.962 697.447 455.169C695.169 450.212 695.577 446.785 696.76 444.498L696.762 444.497C698.291 441.544 701.113 440.491 701.113 440.491L724.466 425.895C724.983 425.829 725.504 425.848 726.01 425.952C729.146 426.662 727.514 431.232 727.514 431.232C724.811 442.566 733.553 446.75 733.553 446.75L745.45 439.181C747.679 437.779 749.486 435.696 750.629 433.21C751.624 431.02 751.654 429.492 751.535 428.656C751.444 428.016 751.357 427.376 751.314 426.729C750.7 417.625 740.861 408.44 736.966 405.143C735.998 404.322 735.397 403.866 735.397 403.866L738.972 401.196L741.233 399.507L741.256 399.49C751.403 405.614 758.42 414.076 762.837 420.843C763.253 421.481 763.648 422.105 764.018 422.71C764.721 423.86 765.19 425.164 765.398 426.539C765.605 427.914 765.546 429.331 765.224 430.703C764.903 432.076 764.325 433.373 763.527 434.516C762.73 435.659 761.729 436.623 760.587 437.347Z" fill="#1C1952"/>
<path opacity="0.1" d="M724.605 425.399L697.682 442.361L697.345 441.725L724.098 424.87C724.275 425.051 724.446 425.231 724.605 425.399Z" fill="black"/>
<path opacity="0.1" d="M725.629 425.639L696.905 443.734C696.83 443.782 696.751 443.819 696.673 443.844C698.494 441.526 701.174 440.277 701.174 440.277L724.261 425.887C724.733 425.746 725.194 425.662 725.629 425.639Z" fill="black"/>
<path d="M725.071 424.267L686.466 448.597C686.158 448.791 686.059 449.233 686.245 449.585C686.432 449.936 686.832 450.064 687.14 449.87L725.744 425.541C726.052 425.347 726.151 424.904 725.965 424.553C725.779 424.201 725.378 424.073 725.071 424.267Z" fill="#DCE0ED"/>
<path opacity="0.1" d="M762.884 421.248C762.347 423.644 761.675 424.88 760.869 423.225C758.43 418.219 738.562 401.205 738.562 401.205L740.887 399.469C751.226 405.719 758.379 414.348 762.884 421.248Z" fill="black"/>
<path opacity="0.1" d="M778.473 423.51C777.31 424.707 775.831 426.111 773.95 427.733C773.251 428.336 772.495 428.969 771.68 429.633C769.728 431.227 767.431 432.995 764.731 434.949C763.967 435.503 763.169 436.071 762.339 436.654C760.784 437.746 759.107 438.892 757.309 440.091L756.968 439.528L756.962 439.517C758.933 436.809 761.408 431.353 758.078 423.364C759.34 421.684 760.933 420.327 762.734 419.399C764.536 418.47 766.497 417.995 768.467 418.009C770.437 418.023 772.364 418.526 774.099 419.48C775.834 420.434 777.33 421.812 778.473 423.51Z" fill="black"/>
<path d="M754.44 441.806C754.44 441.806 766.899 431.858 751.196 413.508C751.196 413.508 761.055 415.657 766.968 416.575C772.881 417.494 782.677 417.713 782.677 417.713C782.677 417.713 780.578 424.738 754.44 441.806Z" fill="#1C1952"/>
<path opacity="0.1" d="M754.44 441.806C754.44 441.806 766.899 431.858 751.196 413.508C751.196 413.508 761.055 415.657 766.968 416.575C772.881 417.494 782.677 417.713 782.677 417.713C782.677 417.713 780.578 424.738 754.44 441.806Z" fill="#FAFBFC"/>
<path d="M726.299 474.478C732.711 470.393 735.077 461.675 731.582 455.006C728.088 448.336 720.057 446.242 713.645 450.327C707.232 454.412 704.867 463.13 708.361 469.799C711.855 476.468 719.886 478.563 726.299 474.478Z" fill="#65617D"/>
<path d="M723.565 469.261C726.962 467.097 728.107 462.272 726.123 458.484C724.138 454.696 719.775 453.38 716.378 455.544C712.981 457.708 711.836 462.533 713.821 466.321C715.805 470.109 720.168 471.425 723.565 469.261Z" fill="#DCE0ED"/>
<path d="M721.86 466.86C723.936 465.538 724.623 462.564 723.395 460.219C722.166 457.874 719.487 457.045 717.41 458.368C715.334 459.69 714.647 462.664 715.876 465.009C717.105 467.354 719.784 468.183 721.86 466.86Z" fill="#65617D"/>
<path opacity="0.1" d="M730.665 450.06C726.624 442.357 717.417 439.885 710.1 444.54C702.784 449.195 700.129 459.214 704.17 466.917C704.34 467.242 704.521 467.557 704.709 467.863L731.14 451.047C730.993 450.715 730.835 450.385 730.665 450.06Z" fill="black"/>
<path d="M730.014 450.542C726.149 443.173 717.388 440.779 710.446 445.196C703.504 449.612 701.011 459.167 704.876 466.536C705.039 466.847 705.212 467.148 705.392 467.441L730.469 451.486C730.328 451.168 730.177 450.853 730.014 450.542Z" fill="#1C1952"/>
<path opacity="0.1" d="M730.014 450.542C730.126 450.756 730.232 450.972 730.333 451.189C730.38 451.288 730.424 451.386 730.469 451.486L705.392 467.441C705.336 467.349 705.28 467.257 705.226 467.164C705.105 466.959 704.988 466.75 704.876 466.536C701.011 459.167 703.504 449.613 710.446 445.196C717.388 440.779 726.149 443.173 730.014 450.542Z" fill="#FAFBFC"/>
<path opacity="0.1" d="M753.277 409.775C753.904 408.825 752.696 406.723 750.578 405.079C748.459 403.436 746.233 402.873 745.605 403.823C744.978 404.773 746.186 406.875 748.304 408.518C750.423 410.162 752.649 410.724 753.277 409.775Z" fill="black"/>
<path d="M753.335 409.54C753.962 408.59 752.754 406.488 750.636 404.844C748.517 403.201 746.291 402.638 745.663 403.588C745.036 404.538 746.244 406.64 748.363 408.283C750.481 409.927 752.707 410.489 753.335 409.54Z" fill="#DCE0ED"/>
<path opacity="0.1" d="M740.516 399.512L741.533 401.446L737.294 404.136C736.899 404.387 736.49 404.61 736.071 404.801C735.19 404.147 734.64 403.788 734.64 403.788L738.24 401.169L740.516 399.512Z" fill="black"/>
<path d="M741.533 401.302L737.306 403.994C733.594 406.359 729.046 405.338 727.147 401.714L726.828 401.105C724.929 397.481 726.399 392.626 730.111 390.261L734.55 387.974L741.533 401.302Z" fill="#1C1952"/>
<path d="M729.5 396.062C729.5 396.062 732.782 395.797 732.52 399.053C732.52 399.053 732.265 403.171 729.272 404.703L724.899 398.993C724.899 398.993 728.141 396.507 729.5 396.062Z" fill="#1C1952"/>
<path opacity="0.1" d="M728.447 396.557C728.862 396.314 729.317 396.167 729.777 396.127C730.237 396.088 730.69 396.157 731.105 396.33C731.893 396.671 732.648 397.42 732.518 399.05C732.518 399.05 732.265 403.171 729.272 404.703L724.895 398.985C726.039 398.109 727.225 397.298 728.447 396.557Z" fill="black"/>
<path opacity="0.1" d="M734.504 388.313C734.959 388.024 735.457 387.83 735.971 387.742C736.485 387.654 737.004 387.674 737.499 387.8C737.994 387.926 738.455 388.156 738.855 388.477C739.256 388.797 739.588 389.203 739.833 389.67L743.029 395.75C743.524 396.693 743.635 397.828 743.336 398.907C743.037 399.986 742.353 400.919 741.435 401.502L734.504 388.313Z" fill="black"/>
<path d="M734.504 388.312C735.422 387.73 736.499 387.545 737.499 387.8C738.498 388.054 739.338 388.727 739.833 389.67L743.029 395.75C743.524 396.693 743.635 397.828 743.336 398.907C743.037 399.986 742.353 400.919 741.435 401.502L734.504 388.312Z" fill="#DCE0ED"/>
<path d="M728.644 405.994C730.156 405.031 730.538 402.639 729.497 400.652C728.455 398.664 726.385 397.834 724.873 398.798C723.36 399.761 722.979 402.153 724.02 404.14C725.061 406.128 727.131 406.958 728.644 405.994Z" fill="#1C1952"/>
<path d="M706.12 437.996L708.759 439.786L709.525 435.827" stroke="black" stroke-miterlimit="10"/>
<path d="M713.732 436.788L703.49 443.313L708.961 453.755L719.203 447.23L713.732 436.788Z" fill="#FAFBFC"/>
<path d="M720.914 386.123L724.851 378.267L723.846 377.6L719.909 385.455C719.549 385.406 719.181 385.506 718.866 385.74C718.551 385.974 718.31 386.326 718.183 386.736C718.057 387.147 718.053 387.59 718.172 387.99C718.292 388.389 718.527 388.721 718.838 388.927C719.149 389.134 719.516 389.202 719.877 389.121C720.237 389.04 720.568 388.815 720.814 388.483C721.059 388.152 721.203 387.735 721.221 387.304C721.24 386.873 721.131 386.456 720.914 386.123Z" fill="#E6E6E6"/>
<path d="M683.414 467.387L676.555 462.829L727.319 361.516L724.643 359.737L673.879 461.05L667.02 456.492C666.207 455.952 665.305 455.612 664.364 455.491C663.424 455.371 662.464 455.472 661.539 455.789C660.614 456.106 659.742 456.632 658.973 457.339C658.205 458.046 657.554 458.918 657.059 459.906L657.059 459.906L685.832 479.027L685.832 479.027C686.327 478.039 686.658 476.953 686.804 475.833C686.951 474.714 686.911 473.581 686.686 472.5C686.462 471.419 686.057 470.411 685.496 469.534C684.934 468.656 684.227 467.927 683.414 467.387Z" fill="#E6E6E6"/>
<path d="M705.084 365.59L733.268 384.408L744.664 356.921C745.053 355.971 745.136 354.898 744.896 353.914C744.657 352.93 744.111 352.106 743.368 351.604L724.551 339.04C723.803 338.547 722.914 338.413 722.058 338.666C721.203 338.918 720.442 339.538 719.927 340.404L705.084 365.59Z" fill="#FCFCFD"/>
<path d="M662.382 396.569C665.255 394.682 666.219 390.462 664.536 387.143C662.852 383.825 659.158 382.665 656.285 384.553C653.412 386.44 652.448 390.66 654.132 393.978C655.815 397.297 659.509 398.457 662.382 396.569Z" fill="#FAFBFC"/>
<path d="M677.777 386.455C680.65 384.568 681.614 380.348 679.93 377.03C678.247 373.711 674.553 372.551 671.68 374.439C668.807 376.326 667.843 380.546 669.526 383.865C671.21 387.183 674.904 388.343 677.777 386.455Z" fill="#FAFBFC"/>
<path opacity="0.1" d="M676.511 387.287C678.686 385.858 679.266 382.369 677.808 379.494C676.349 376.619 673.403 375.447 671.229 376.875C669.054 378.304 668.474 381.793 669.932 384.668C671.391 387.543 674.336 388.716 676.511 387.287Z" fill="black"/>
<path opacity="0.1" d="M663.648 395.738C665.822 394.309 666.403 390.82 664.944 387.945C663.485 385.07 660.54 383.898 658.365 385.327C656.19 386.755 655.61 390.244 657.069 393.119C658.527 395.994 661.473 397.167 663.648 395.738Z" fill="black"/>
<path d="M697.98 397.819C698.779 399.787 698.407 402.465 696.787 403.545C696.063 404.02 695.213 404.142 694.377 404.184C693.652 404.22 692.908 404.2 692.223 403.912C692.123 403.87 692.027 403.824 691.932 403.773C690.752 403.14 689.906 401.827 688.768 401.058C686.724 399.676 684.151 400.262 681.894 401.019C679.513 401.816 677.173 402.757 674.882 403.839C673.324 404.572 671.774 405.382 670.429 406.541C667.565 409.008 665.817 412.884 662.981 415.371C662.885 415.454 662.789 415.536 662.69 415.618C661.782 416.363 660.775 416.95 659.86 417.689C658.336 418.919 657.062 420.573 655.384 421.507C653.705 422.44 651.345 422.371 650.286 420.583C649.539 419.324 649.688 417.589 650.322 416.271C650.957 414.953 651.995 413.965 653.025 413.037C655.759 410.574 658.666 408.241 660.692 405.007C661.418 403.85 662.023 402.589 662.829 401.505C663.186 401.02 663.593 400.587 664.041 400.213C664.599 399.741 665.251 399.432 665.939 399.313L664.814 400.9L678.365 390.461L678.899 390.05C679.541 389.556 680.195 389.054 680.937 388.795C682.214 388.35 683.612 388.677 684.859 389.262C686.107 389.847 687.246 390.694 688.469 391.349C690.187 392.264 692.039 392.786 693.769 393.663C695.5 394.54 697.181 395.853 697.98 397.819Z" fill="#FAFBFC"/>
<path opacity="0.1" d="M690.172 399.742C690.839 401.038 691.428 402.384 691.937 403.769C690.757 403.136 689.911 401.823 688.773 401.055C686.728 399.673 684.156 400.259 681.899 401.016C679.518 401.812 677.177 402.754 674.887 403.835C673.329 404.569 671.779 405.379 670.433 406.538C667.57 409.004 665.821 412.881 662.986 415.367C660.858 409.416 661.48 404.299 664.051 400.204C665.449 397.986 667.418 396.061 669.841 394.468C672.816 392.514 675.631 390.85 678.377 390.451C682.378 389.866 686.224 391.961 690.172 399.742Z" fill="black"/>
<path d="M689.776 400.743C691.27 403.688 692.133 406.19 692.487 408.354C693.355 413.66 691.179 416.931 687.809 419.698C686.673 420.63 685.409 421.502 684.077 422.377C682.405 423.494 680.598 424.324 678.711 424.84C675.198 425.763 671.694 425.295 668.803 422.873C667.246 421.57 665.869 419.701 664.762 417.177C660.542 407.547 663.552 400.077 670.46 395.539C677.368 391.001 683.386 388.149 689.776 400.743Z" fill="#2F2E41"/>
<path opacity="0.1" d="M675.969 403.119C681.361 399.577 683.171 391.656 680.011 385.428C676.851 379.2 669.918 377.023 664.526 380.566C659.134 384.108 657.324 392.029 660.484 398.257C663.644 404.484 670.577 406.661 675.969 403.119Z" fill="black"/>
<path d="M675.635 402.46C681.027 398.917 682.836 390.997 679.676 384.769C676.516 378.541 669.584 376.364 664.192 379.907C658.8 383.449 656.99 391.37 660.15 397.597C663.31 403.825 670.243 406.002 675.635 402.46Z" fill="#2F2E41"/>
<path d="M667.101 388.918C667.376 388.737 667.469 388.331 667.307 388.013C667.146 387.694 666.791 387.583 666.515 387.764C666.239 387.945 666.147 388.351 666.308 388.669C666.47 388.988 666.825 389.099 667.101 388.918Z" fill="#FAFBFC"/>
<path d="M669.523 387.326C669.799 387.145 669.891 386.74 669.73 386.421C669.568 386.103 669.213 385.991 668.938 386.172C668.662 386.354 668.569 386.759 668.731 387.077C668.892 387.396 669.247 387.507 669.523 387.326Z" fill="#FAFBFC"/>
<path opacity="0.1" d="M672.527 396.334C675.341 394.486 676.761 391.289 675.698 389.194C674.635 387.099 671.492 386.9 668.678 388.749C665.864 390.598 664.444 393.795 665.507 395.889C666.569 397.984 669.712 398.183 672.527 396.334Z" fill="black"/>
<path d="M672.419 396.123C675.076 394.377 676.417 391.359 675.413 389.381C674.41 387.403 671.443 387.215 668.786 388.961C666.128 390.706 664.788 393.725 665.791 395.703C666.795 397.68 669.762 397.868 672.419 396.123Z" fill="#FAFBFC"/>
<path opacity="0.1" d="M678.711 424.84C675.198 425.763 671.694 425.295 668.803 422.873C669.139 422.428 669.538 422.051 669.984 421.757C672.531 420.084 676.095 421.464 678.711 424.84Z" fill="black"/>
<path d="M680.243 428.025C682.814 433.092 682.395 438.847 679.305 440.876C677.212 442.252 674.432 441.566 672.056 439.404C670.844 438.288 669.824 436.922 669.049 435.379C666.477 430.31 666.898 424.554 669.987 422.525C672.775 420.693 676.785 422.518 679.432 426.623C679.725 427.073 679.996 427.54 680.243 428.025Z" fill="#2F2E41"/>
<path opacity="0.1" d="M680.243 428.025C682.814 433.092 682.394 438.847 679.305 440.876C677.212 442.252 674.432 441.566 672.056 439.404C670.347 435.635 672.068 430.595 676.006 428.008C677.064 427.304 678.228 426.831 679.44 426.61C679.731 427.064 679.999 427.536 680.243 428.025Z" fill="black"/>
<path d="M683.576 441.803C687.61 439.152 689.319 433.926 687.393 430.13C685.467 426.334 680.635 425.405 676.601 428.056C672.567 430.706 670.858 435.932 672.784 439.728C674.71 443.524 679.542 444.453 683.576 441.803Z" fill="#FAFBFC"/>
<path d="M684.127 441.44C687.856 438.99 689.416 434.12 687.611 430.563C685.806 427.005 681.32 426.107 677.591 428.557C673.862 431.007 672.302 435.877 674.107 439.435C675.912 442.992 680.398 443.89 684.127 441.44Z" fill="#2F2E41"/>
<path opacity="0.1" d="M682.862 432.626C683.512 432.199 683.653 431.093 683.177 430.156C682.702 429.219 681.79 428.805 681.14 429.232C680.49 429.658 680.349 430.764 680.825 431.702C681.3 432.639 682.213 433.053 682.862 432.626Z" fill="black"/>
<path d="M682.732 432.369C683.283 432.007 683.402 431.069 682.999 430.273C682.595 429.477 681.821 429.126 681.27 429.488C680.719 429.85 680.6 430.788 681.003 431.584C681.407 432.38 682.181 432.731 682.732 432.369Z" fill="#FAFBFC"/>
<path opacity="0.1" d="M680.014 436.186C680.696 435.738 680.904 434.692 680.477 433.851C680.051 433.01 679.151 432.692 678.468 433.14C677.785 433.589 677.578 434.634 678.004 435.476C678.431 436.317 679.331 436.635 680.014 436.186Z" fill="black"/>
<path d="M679.909 435.98C680.499 435.592 680.679 434.688 680.31 433.961C679.941 433.233 679.163 432.958 678.573 433.346C677.982 433.734 677.803 434.638 678.172 435.365C678.541 436.092 679.319 436.367 679.909 435.98Z" fill="#FAFBFC"/>
<path opacity="0.1" d="M679.698 440.622C680.427 440.143 680.736 439.201 680.389 438.518C680.043 437.835 679.171 437.668 678.443 438.147C677.715 438.625 677.405 439.567 677.752 440.25C678.099 440.934 678.97 441.1 679.698 440.622Z" fill="black"/>
<path d="M679.614 440.454C680.243 440.041 680.511 439.226 680.211 438.635C679.911 438.044 679.157 437.9 678.528 438.314C677.898 438.728 677.631 439.542 677.931 440.133C678.23 440.724 678.984 440.868 679.614 440.454Z" fill="#FAFBFC"/>
<path opacity="0.1" d="M686.428 437.901C687.044 435.814 686.768 433.812 685.812 433.429C684.857 433.045 683.582 434.426 682.967 436.513C682.351 438.599 682.626 440.601 683.582 440.984C684.538 441.368 685.812 439.987 686.428 437.901Z" fill="black"/>
<path d="M686.314 437.855C686.889 435.905 686.632 434.033 685.739 433.675C684.847 433.317 683.656 434.608 683.08 436.558C682.505 438.509 682.762 440.38 683.655 440.738C684.547 441.096 685.738 439.805 686.314 437.855Z" fill="#FAFBFC"/>
<path opacity="0.1" d="M692.487 408.354C693.355 413.66 691.179 416.931 687.809 419.699C686.331 415.264 687.017 410.787 689.665 409.047C690.52 408.496 691.504 408.255 692.487 408.354Z" fill="black"/>
<path d="M700.553 414.681C701.414 416.351 701.966 418.203 702.172 420.12C702.494 423.353 701.612 426.221 699.616 427.533C696.526 429.563 691.937 427.099 689.365 422.031C689.123 421.555 688.903 421.063 688.707 420.559C686.898 415.894 687.509 411.013 690.303 409.178C693.392 407.148 697.981 409.612 700.553 414.681Z" fill="#2F2E41"/>
<path opacity="0.1" d="M702.162 420.099L702.172 420.12C702.494 423.353 701.612 426.221 699.615 427.533C696.526 429.563 691.937 427.099 689.365 422.031C689.123 421.554 688.903 421.063 688.707 420.559C689.459 419.543 690.36 418.686 691.372 418.028C695.406 415.378 700.235 416.302 702.162 420.099Z" fill="black"/>
<path d="M698.185 432.205C702.219 429.555 703.928 424.329 702.002 420.532C700.076 416.736 695.244 415.807 691.21 418.458C687.176 421.108 685.467 426.334 687.393 430.13C689.319 433.927 694.151 434.855 698.185 432.205Z" fill="#FAFBFC"/>
<path d="M697.561 432.615C701.251 430.19 702.779 425.341 700.974 421.784C699.169 418.226 694.715 417.307 691.025 419.731C687.335 422.155 685.807 427.005 687.612 430.562C689.417 434.12 693.872 435.039 697.561 432.615Z" fill="#2F2E41"/>
<path opacity="0.1" d="M691.573 426.946C692.234 426.511 692.377 425.385 691.892 424.43C691.408 423.475 690.479 423.053 689.818 423.487C689.157 423.921 689.014 425.048 689.499 426.003C689.983 426.958 690.912 427.38 691.573 426.946Z" fill="black"/>
<path d="M691.426 426.657C691.977 426.295 692.097 425.357 691.693 424.561C691.289 423.765 690.515 423.414 689.964 423.776C689.413 424.138 689.294 425.076 689.698 425.872C690.101 426.668 690.875 427.019 691.426 426.657Z" fill="#FAFBFC"/>
<path opacity="0.1" d="M695.692 425.886C696.374 425.437 696.582 424.392 696.155 423.551C695.729 422.709 694.829 422.391 694.146 422.84C693.463 423.289 693.256 424.334 693.682 425.175C694.109 426.016 695.009 426.335 695.692 425.886Z" fill="black"/>
<path d="M695.587 425.68C696.177 425.292 696.357 424.388 695.988 423.661C695.619 422.934 694.841 422.659 694.251 423.046C693.66 423.434 693.481 424.338 693.85 425.065C694.219 425.792 694.997 426.068 695.587 425.68Z" fill="#FAFBFC"/>
<path opacity="0.1" d="M699.225 427.793C699.953 427.315 700.262 426.373 699.916 425.689C699.569 425.006 698.698 424.84 697.969 425.318C697.241 425.797 696.932 426.739 697.279 427.422C697.625 428.105 698.497 428.271 699.225 427.793Z" fill="black"/>
<path d="M699.14 427.626C699.77 427.212 700.037 426.398 699.737 425.807C699.437 425.216 698.684 425.072 698.054 425.485C697.424 425.899 697.157 426.713 697.457 427.304C697.757 427.896 698.51 428.039 699.14 427.626Z" fill="#FAFBFC"/>
<path opacity="0.1" d="M697.57 431.82C697.756 430.687 696.37 429.414 694.474 428.978C692.578 428.541 690.89 429.107 690.704 430.24C690.518 431.374 691.904 432.646 693.8 433.082C695.696 433.519 697.383 432.954 697.57 431.82Z" fill="black"/>
<path d="M697.346 431.769C697.52 430.71 696.224 429.521 694.452 429.113C692.68 428.705 691.102 429.233 690.928 430.292C690.754 431.351 692.05 432.54 693.822 432.947C695.594 433.355 697.172 432.828 697.346 431.769Z" fill="#FAFBFC"/>
<path opacity="0.2" d="M613.141 383.638C613.141 383.889 613.047 384.13 612.881 384.307C612.714 384.485 612.488 384.584 612.253 384.584C612.017 384.584 611.791 384.485 611.625 384.307C611.458 384.13 611.364 383.889 611.364 383.638" fill="black"/>
<path d="M553.741 326.412L561.52 325.658L566.471 312.847L557.631 307.571L553.741 326.412Z" fill="#FFB8B8"/>
<path d="M625.133 361.584C625.391 360.897 625.493 360.154 625.429 359.416C625.366 358.679 625.138 357.968 624.766 357.342C624.394 356.717 623.888 356.194 623.289 355.818C622.69 355.442 622.016 355.223 621.323 355.179L609.245 354.411L607.466 360.713L619.9 364.352C620.939 364.657 622.047 364.542 623.012 364.032C623.977 363.521 624.732 362.65 625.133 361.584Z" fill="#FFB8B8"/>
<path d="M612.164 364.458L612.031 352.632L585.202 348.07L564.534 322.809C563.459 321.495 561.973 320.64 560.352 320.404C558.731 320.168 557.084 320.566 555.717 321.524C554.89 322.104 554.192 322.871 553.673 323.771C553.154 324.67 552.826 325.68 552.714 326.729C552.602 327.778 552.707 328.84 553.022 329.841C553.337 330.842 553.855 331.757 554.539 332.521L571.59 354.884L612.164 364.458Z" fill="#575A89"/>
<path d="M547.73 497.492H554.802L572.343 412.974L590.515 439.083L601.123 495.607H607.841L606.427 434.938L582.736 370.124H559.399C553.021 382.424 548.018 395.103 553.741 408.184L547.73 497.492Z" fill="#2F2E41"/>
<path d="M596.788 502.625C596.71 502.892 596.686 503.173 596.717 503.45C596.749 503.728 596.836 503.995 596.972 504.233C597.108 504.472 597.291 504.677 597.507 504.835C597.723 504.993 597.969 505.1 598.227 505.148L615.532 508.421C616.216 508.554 616.922 508.417 617.517 508.033C618.112 507.65 618.555 507.048 618.762 506.341C618.964 505.666 618.935 504.936 618.682 504.28C618.429 503.624 617.967 503.085 617.378 502.756C613.573 500.674 610.298 497.64 607.835 493.914C605.933 495.801 603.807 495.623 601.55 494.233L599.155 494.551L596.788 502.625Z" fill="#E6E6E6"/>
<path d="M544.456 502.625C544.377 502.892 544.353 503.173 544.385 503.45C544.417 503.728 544.504 503.995 544.64 504.233C544.776 504.472 544.959 504.677 545.175 504.835C545.391 504.993 545.637 505.1 545.895 505.148L563.2 508.421C563.884 508.554 564.59 508.417 565.185 508.033C565.78 507.65 566.223 507.048 566.43 506.341C566.632 505.666 566.603 504.936 566.35 504.28C566.097 503.624 565.635 503.085 565.046 502.756C561.241 500.674 557.966 497.64 555.502 493.914C553.601 495.801 551.475 495.623 549.217 494.233L546.823 494.551L544.456 502.625Z" fill="#E6E6E6"/>
<path d="M566.647 317.556C572.115 317.556 576.548 312.833 576.548 307.005C576.548 301.178 572.115 296.454 566.647 296.454C561.179 296.454 556.747 301.178 556.747 307.005C556.747 312.833 561.179 317.556 566.647 317.556Z" fill="#FFB8B8"/>
<path d="M557.808 372.95L583.62 372.197L576.039 346.771C580.75 338.723 576.009 330.682 569.299 322.644L563.995 318.876L555.509 318.122C551.835 322.312 549.824 327.854 549.899 333.589C550.067 345.868 552.107 359.235 557.808 372.95Z" fill="#575A89"/>
<path d="M617.113 390.064C617.604 389.541 617.972 388.9 618.186 388.195C618.4 387.491 618.453 386.742 618.342 386.011C618.231 385.279 617.958 384.587 617.546 383.99C617.135 383.393 616.596 382.909 615.974 382.578L605.153 376.809L601.192 381.857L611.28 390.416C612.123 391.131 613.184 391.49 614.259 391.425C615.335 391.361 616.351 390.876 617.113 390.064Z" fill="#FFB8B8"/>
<path d="M604.128 387.27L608.372 376.342L585.39 360.9L575.714 329.011C575.21 327.352 574.16 325.943 572.756 325.046C571.353 324.149 569.692 323.825 568.082 324.133C567.107 324.319 566.182 324.732 565.373 325.341C564.564 325.951 563.89 326.742 563.399 327.659C562.909 328.576 562.613 329.597 562.534 330.65C562.454 331.702 562.592 332.76 562.939 333.749L570.36 361.457L604.128 387.27Z" fill="#575A89"/>
<path d="M550.382 302.86C550.382 306.966 552.884 313.324 556.04 316.049C558.163 317.883 560.969 317.806 562.051 315.296C563.16 312.721 566.986 306.668 573.719 302.86C582.695 297.785 570.536 289.101 562.051 290.425C555.674 291.42 550.382 295.993 550.382 302.86Z" fill="#2F2E41"/>
<path d="M556.393 297.208C560.299 297.208 563.465 293.834 563.465 289.671C563.465 285.509 560.299 282.135 556.393 282.135C552.487 282.135 549.321 285.509 549.321 289.671C549.321 293.834 552.487 297.208 556.393 297.208Z" fill="#2F2E41"/>
<path d="M564.526 287.034C564.525 285.134 563.851 283.304 562.638 281.912C561.424 280.519 559.762 279.667 557.984 279.526C558.16 279.512 558.336 279.497 558.515 279.497C560.39 279.497 562.189 280.291 563.515 281.704C564.842 283.118 565.587 285.035 565.587 287.034C565.587 289.032 564.842 290.949 563.515 292.363C562.189 293.776 560.39 294.57 558.515 294.57C558.336 294.57 558.16 294.556 557.984 294.542C559.762 294.4 561.424 293.548 562.638 292.156C563.851 290.763 564.525 288.934 564.526 287.034Z" fill="#2F2E41"/>
<path d="M566.824 310.774C567.703 310.774 568.415 309.762 568.415 308.513C568.415 307.264 567.703 306.252 566.824 306.252C565.945 306.252 565.233 307.264 565.233 308.513C565.233 309.762 565.945 310.774 566.824 310.774Z" fill="#FFB8B8"/>
<path d="M767.194 483.67H657.106L633.794 366.227H613.899V360.957H637.802L661.114 478.4H767.194V483.67Z" fill="#3F3D56"/>
<path d="M673.239 505.126C679.091 505.126 683.835 500.07 683.835 493.834C683.835 487.597 679.091 482.541 673.239 482.541C667.387 482.541 662.642 487.597 662.642 493.834C662.642 500.07 667.387 505.126 673.239 505.126Z" fill="#3F3D56"/>
<path d="M752.359 505.126C758.211 505.126 762.955 500.07 762.955 493.834C762.955 487.597 758.211 482.541 752.359 482.541C746.507 482.541 741.762 487.597 741.762 493.834C741.762 500.07 746.507 505.126 752.359 505.126Z" fill="#3F3D56"/>
<path d="M765.187 481.189H658.078L639.179 381.66H782.922C783.655 381.66 784.38 381.83 785.046 382.157C785.712 382.484 786.304 382.961 786.781 383.555C787.257 384.149 787.608 384.846 787.808 385.598C788.007 386.35 788.052 387.139 787.938 387.912L770.203 476.617C770.02 477.894 769.412 479.057 768.492 479.896C767.571 480.735 766.398 481.194 765.187 481.189ZM659.241 479.683H765.187C766.061 479.687 766.907 479.356 767.572 478.75C768.236 478.145 768.674 477.305 768.806 476.384L786.542 387.678C786.624 387.12 786.592 386.551 786.448 386.008C786.304 385.465 786.051 384.962 785.707 384.533C785.363 384.104 784.936 383.76 784.455 383.524C783.974 383.288 783.451 383.166 782.922 383.166H640.894L659.241 479.683Z" fill="#3F3D56"/>
<path d="M678.9 480.87L666.524 382.535L667.917 382.29L680.294 480.625L678.9 480.87Z" fill="#3F3D56"/>
<path d="M747.717 480.115L746.322 479.874L758.337 382.292L759.732 382.533L747.717 480.115Z" fill="#3F3D56"/>
<path d="M714.929 382.413H713.516V480.747H714.929V382.413Z" fill="#3F3D56"/>
<path d="M646.396 408.762L646.393 410.268L783.156 410.621L783.159 409.115L646.396 408.762Z" fill="#3F3D56"/>
<path d="M773.508 455.275L653.359 456.15L653.369 457.656L773.518 456.78L773.508 455.275Z" fill="#3F3D56"/>
<path d="M616.018 367.356C620.31 367.356 623.789 365.334 623.789 362.839C623.789 360.344 620.31 358.322 616.018 358.322C611.726 358.322 608.247 360.344 608.247 362.839C608.247 365.334 611.726 367.356 616.018 367.356Z" fill="#3F3D56"/>
</g>
<path d="M749.549 182.067L761.963 172.139C752.319 171.075 748.357 176.334 746.735 180.497C739.202 177.369 731 181.469 731 181.469L755.837 190.486C754.584 187.139 752.403 184.219 749.549 182.067V182.067Z" fill="white"/>
<path d="M553.214 141.212L561.621 146.753L556.517 137.108C557.963 135.909 559.752 135.245 561.601 135.222C561.646 135.222 561.691 135.222 561.736 135.223C562.32 135.233 562.904 135.188 563.481 135.089L566.33 136.967L565.108 134.659C567.127 133.927 568.871 132.552 570.093 130.728L575.192 134.089L571.971 128.001C574.952 124.281 578.972 122 583.396 122C588.698 122 593.422 125.278 596.472 130.384C597.373 131.912 598.648 133.165 600.166 134.016C601.684 134.866 603.391 135.284 605.115 135.228C605.21 135.224 605.305 135.222 605.4 135.222C611.254 135.222 616 142.12 616 150.63C616 159.139 611.254 166.037 605.4 166.037C604.113 166.032 602.846 165.702 601.708 165.076C599.715 164.07 597.536 163.525 595.321 163.48C593.105 163.435 590.907 163.891 588.878 164.816C587.164 165.616 585.306 166.033 583.427 166.037C581.548 166.042 579.688 165.634 577.97 164.842C575.957 163.935 573.78 163.488 571.586 163.532C569.392 163.576 567.232 164.11 565.254 165.097C564.126 165.71 562.874 166.032 561.601 166.037C555.747 166.037 551.001 159.139 551.001 150.63C550.967 147.347 551.728 144.109 553.214 141.212Z" fill="white"/>
<path d="M511.738 146.943L518.334 151.252L514.329 143.751C515.463 142.818 516.867 142.302 518.318 142.284C518.353 142.284 518.389 142.284 518.424 142.285C518.882 142.292 519.34 142.258 519.793 142.181L522.028 143.641L521.07 141.846C522.654 141.277 524.022 140.207 524.981 138.788L528.982 141.402L526.454 136.668C527.518 135.253 528.875 134.101 530.425 133.293C531.976 132.486 533.681 132.044 535.418 132C539.579 132 543.285 134.549 545.678 138.521C546.385 139.71 547.385 140.684 548.576 141.346C549.767 142.007 551.107 142.332 552.459 142.288C552.534 142.285 552.608 142.284 552.683 142.284C557.276 142.284 561 147.649 561 154.267C561 160.886 557.276 166.251 552.683 166.251C551.673 166.247 550.679 165.991 549.786 165.504C548.223 164.721 546.513 164.297 544.775 164.262C543.037 164.227 541.312 164.582 539.72 165.301C538.375 165.924 536.917 166.248 535.443 166.251C533.968 166.255 532.509 165.938 531.161 165.322C529.582 164.616 527.873 164.269 526.152 164.303C524.43 164.337 522.736 164.752 521.184 165.52C520.299 165.997 519.316 166.247 518.318 166.251C513.724 166.251 510.001 160.886 510.001 154.267C509.974 151.714 510.571 149.196 511.738 146.943Z" fill="white"/>
<path d="M351.872 310.389H350.595V281.639C350.595 279.454 350.071 277.291 349.054 275.272C348.036 273.253 346.545 271.419 344.665 269.874C342.785 268.328 340.554 267.103 338.097 266.267C335.641 265.43 333.009 265 330.35 265H256.244C253.586 265 250.953 265.43 248.497 266.267C246.041 267.103 243.809 268.328 241.929 269.874C240.05 271.419 238.558 273.253 237.541 275.272C236.524 277.291 236 279.454 236 281.639V439.361C236 441.546 236.524 443.709 237.541 445.728C238.558 447.747 240.05 449.581 241.929 451.126C243.809 452.672 246.041 453.897 248.497 454.733C250.953 455.57 253.586 456 256.244 456H330.35C333.009 456 335.641 455.57 338.097 454.733C340.554 453.897 342.785 452.672 344.665 451.126C346.545 449.581 348.036 447.747 349.054 445.728C350.071 443.709 350.595 441.546 350.595 439.361V330.853H351.872V310.389Z" fill="#3F3D56"/>
<path d="M331.167 269.329H321.494C321.939 270.226 322.109 271.198 321.988 272.161C321.868 273.124 321.462 274.048 320.805 274.852C320.148 275.655 319.26 276.314 318.221 276.769C317.181 277.224 316.022 277.462 314.844 277.462H272.389C271.212 277.462 270.052 277.224 269.012 276.769C267.973 276.314 267.085 275.655 266.428 274.852C265.771 274.048 265.365 273.124 265.245 272.161C265.125 271.198 265.294 270.226 265.739 269.329H256.704C254.719 269.329 252.753 269.651 250.919 270.275C249.085 270.899 247.418 271.815 246.014 272.969C244.61 274.122 243.497 275.492 242.737 277C241.977 278.508 241.586 280.123 241.586 281.755V439.245C241.586 440.877 241.977 442.493 242.737 444C243.497 445.508 244.61 446.878 246.014 448.032C247.418 449.186 249.085 450.101 250.919 450.725C252.753 451.35 254.719 451.671 256.704 451.671H331.167C333.153 451.671 335.118 451.35 336.953 450.725C338.787 450.101 340.454 449.186 341.857 448.032C343.261 446.878 344.375 445.508 345.135 444C345.894 442.493 346.285 440.877 346.285 439.245V281.755C346.285 278.46 344.693 275.299 341.857 272.969C339.022 270.638 335.177 269.329 331.167 269.329V269.329Z" fill="white"/>
<path d="M333.21 293.93H254.661V349.306H333.21V293.93Z" fill="#E6E6E6"/>
<path d="M277.971 360.853C281.145 360.853 283.718 358.738 283.718 356.129C283.718 353.52 281.145 351.405 277.971 351.405C274.796 351.405 272.223 353.52 272.223 356.129C272.223 358.738 274.796 360.853 277.971 360.853Z" fill="#6C63FF"/>
<path d="M280.844 355.735H278.45V353.767H277.492V355.735H275.097V356.523H277.492V358.491H278.45V356.523H280.844V355.735Z" fill="white"/>
<path d="M308.304 360.853C311.479 360.853 314.052 358.738 314.052 356.129C314.052 353.52 311.479 351.405 308.304 351.405C305.13 351.405 302.557 353.52 302.557 356.129C302.557 358.738 305.13 360.853 308.304 360.853Z" fill="#6C63FF"/>
<path d="M311.178 356.523V355.735H305.431V356.523H311.178Z" fill="white"/>
<path d="M333.21 371.875H254.661V427.251H333.21V371.875Z" fill="#E6E6E6"/>
<path d="M277.971 438.799C281.145 438.799 283.718 436.684 283.718 434.075C283.718 431.466 281.145 429.351 277.971 429.351C274.796 429.351 272.223 431.466 272.223 434.075C272.223 436.684 274.796 438.799 277.971 438.799Z" fill="#6C63FF"/>
<path d="M280.844 433.681H278.45V431.712H277.492V433.681H275.097V434.468H277.492V436.436H278.45V434.468H280.844V433.681Z" fill="white"/>
<path d="M308.304 438.799C311.479 438.799 314.052 436.684 314.052 434.075C314.052 431.466 311.479 429.351 308.304 429.351C305.13 429.351 302.557 431.466 302.557 434.075C302.557 436.684 305.13 438.799 308.304 438.799Z" fill="#6C63FF"/>
<path d="M311.178 434.468V433.681H305.431V434.468H311.178Z" fill="white"/>
<path d="M283.281 301.39C283.281 301.39 281.715 301.232 282.528 302.87C283.342 304.509 284.843 309.897 284.094 311.006C283.346 312.116 283.72 315.127 280.466 315.711L281.402 318.826C281.402 318.826 281.589 325.695 281.215 326.701C280.84 327.707 280.775 333.25 280.901 333.831C281.027 334.411 280.966 338.216 280.466 338.378C279.966 338.539 279.653 340.383 281.28 340.699C282.907 341.015 289.849 341.177 291.102 341.493C292.355 341.808 301.238 341.493 301.238 341.493C301.238 341.493 304.992 341.07 305.932 340.806C306.871 340.541 307.058 339.909 306.745 338.694C306.432 337.478 304.992 328.655 305.305 327.546C305.618 326.437 305.683 315.605 305.683 315.605C305.683 315.605 303.243 314.918 303.243 312.909C303.243 310.9 302.304 305.511 304.244 302.132C304.244 302.132 302.678 301.225 302.43 301.387C302.182 301.548 299.818 300.968 299.818 300.968C299.818 300.968 298.598 310.161 293.494 310.213C288.389 310.264 286.116 300.968 286.116 300.968C286.116 300.968 286.16 300.123 283.281 301.39Z" fill="#6C63FF"/>
<path d="M302.55 378.9C302.55 378.9 305.622 382.183 301.135 387.138C296.649 392.093 292.963 396.288 294.447 399.37C294.447 399.37 301.213 390.165 306.723 390.038C312.233 389.911 308.611 384.435 302.55 378.9Z" fill="#9F9EFF"/>
<path opacity="0.1" d="M302.618 378.9C302.884 379.216 303.093 379.562 303.24 379.927C308.564 385.094 311.396 389.915 306.281 390.038C301.519 390.15 295.799 397.189 294.432 398.966C294.477 399.103 294.531 399.238 294.594 399.37C294.594 399.37 301.294 390.165 306.749 390.038C312.205 389.911 308.619 384.435 302.618 378.9Z" fill="#9F9EFF"/>
<path d="M308.162 383.067C308.162 384.244 308.019 385.199 307.845 385.199C307.671 385.199 307.524 384.244 307.524 383.067C307.524 381.89 307.702 382.443 307.88 382.443C308.058 382.443 308.162 381.887 308.162 383.067Z" fill="#407BFF"/>
<path d="M310.268 384.418C309.026 384.972 307.94 385.308 307.849 385.166C307.759 385.025 308.686 384.461 309.928 383.907C311.17 383.353 310.682 383.758 310.79 383.907C310.898 384.055 311.51 383.875 310.268 384.418Z" fill="#407BFF"/>
<path d="M286.315 378.9C286.315 378.9 283.245 382.183 287.73 387.138C292.216 392.093 295.902 396.288 294.418 399.37C294.418 399.37 287.653 390.165 282.144 390.038C276.634 389.911 280.247 384.435 286.315 378.9Z" fill="#9F9EFF"/>
<path opacity="0.1" d="M286.393 378.9C286.122 379.216 285.908 379.562 285.758 379.927C280.322 385.094 277.429 389.915 282.653 390.038C287.519 390.15 293.356 397.189 294.752 398.966C294.708 399.103 294.652 399.239 294.586 399.37C294.586 399.37 287.745 390.165 282.174 390.038C276.603 389.911 280.256 384.435 286.393 378.9Z" fill="black"/>
<path d="M280.702 383.067C280.702 384.244 280.846 385.199 281.024 385.199C281.202 385.199 281.341 384.244 281.341 383.067C281.341 381.89 281.163 382.443 280.989 382.443C280.815 382.443 280.702 381.887 280.702 383.067Z" fill="#407BFF"/>
<path d="M278.595 384.418C279.84 384.972 280.92 385.308 281.015 385.166C281.11 385.025 280.175 384.461 278.935 383.907C277.695 383.353 278.182 383.758 278.074 383.907C277.966 384.055 277.355 383.875 278.595 384.418Z" fill="#407BFF"/>
<path d="M311.029 394.85L310.874 395.868L310.658 397.31L310.567 397.908L310.351 399.35L310.256 399.952L310.039 401.39L307.571 417.766C307.351 419.229 304.403 420.366 300.842 420.366H288.022C284.461 420.366 281.539 419.229 281.297 417.766L278.825 401.383L278.609 399.945L278.518 399.343L278.297 397.901L278.207 397.303L277.991 395.861L277.835 394.843C277.714 394.034 279.326 393.334 281.323 393.334H307.546C309.555 393.334 311.155 394.034 311.029 394.85Z" fill="#65617D"/>
<path d="M310.717 395.959L310.503 397.271H278.362L278.148 395.959H310.717Z" fill="#9D9CB5"/>
<path d="M310.717 397.796L310.501 399.371H278.687L278.467 397.796H310.717Z" fill="#9D9CB5"/>
<path d="M310.397 399.896L310.182 401.47H279.002L278.787 399.896H310.397Z" fill="#9D9CB5"/>
<path d="M599.549 154.067L611.963 144.139C602.319 143.075 598.357 148.334 596.735 152.497C589.202 149.369 581 153.469 581 153.469L605.837 162.486C604.584 159.139 602.403 156.219 599.549 154.067V154.067Z" fill="#3F3D56"/>
<path d="M224.549 158.067L236.963 148.139C227.319 147.075 223.357 152.334 221.735 156.497C214.202 153.369 206 157.469 206 157.469L230.837 166.486C229.584 163.139 227.403 160.219 224.549 158.067V158.067Z" fill="#3F3D56"/>
<defs>
<linearGradient id="paint0_linear" x1="452" y1="0" x2="452" y2="533" gradientUnits="userSpaceOnUse">
<stop offset="0.0208333" stop-color="#7B0869" stop-opacity="0.7597"/>
<stop offset="0.255208" stop-color="#C910CD" stop-opacity="0.5694"/>
<stop offset="0.536458" stop-color="#9063CA" stop-opacity="0.69"/>
<stop offset="0.692708" stop-color="#7A5FBF" stop-opacity="0.58"/>
<stop offset="1" stop-color="#29338F" stop-opacity="0.61"/>
</linearGradient>
<clipPath id="clip0">
<rect width="367.688" height="327" fill="white" transform="translate(420.312 181.471)"/>
</clipPath>
</defs>
</svg>
