<svg width="1379" height="1062" viewBox="0 0 1379 1062" fill="none" xmlns="http://www.w3.org/2000/svg">
<path d="M146.781 1056.94C113.777 1071.16 77 1046.96 77 1011.02L77 50C77 22.3857 99.3858 -2.86102e-05 127 -2.86102e-05H1329C1356.61 -2.86102e-05 1379 22.3857 1379 50V731.476C1379 759.09 1356.61 781.476 1329 781.476H796.58C789.777 781.476 783.046 782.864 776.799 785.555L146.781 1056.94Z" fill="url(#paint0_linear)"/>
<mask id="path-2-inside-1" fill="white">
<path d="M746.822 438.78V380.923H714.048V343.341H691.862V380.923H659.087V438.78H640.934V308.725H604.126V296.363H555.216V284H506.81V296.363H460.925V308.725H421.091V438.286H399.913V380.429H367.138V342.846H344.952V380.429H312.178V438.286H291V643.505H339.406V570.813H372.685V643.505H502.776V558.945H559.249V643.505H637.909V644H686.315V571.308H719.594V644H768V438.78H746.822ZM308.396 463.505H327.557V478.341H308.396V463.505ZM308.648 505.044H327.809V519.879H308.648V505.044ZM328.061 561.418H308.9V546.582H328.061V561.418ZM378.232 427.407H333.859V418.505H378.232V427.407ZM378.232 414.549H333.859V405.648H378.232V414.549ZM378.232 401.692H333.859V392.791H378.232V401.692ZM384.534 463.505H403.695V478.341H384.534V463.505ZM384.786 505.044H403.947V519.879H384.786V505.044ZM404.199 561.418H385.039V546.582H404.199V561.418ZM482.607 536.692H447.311V521.363H482.607V536.692ZM482.607 492.681H447.311V477.352H482.607V492.681ZM482.607 448.67H447.311V433.341H482.607V448.67ZM482.607 404.659H447.311V389.33H482.607V404.659ZM482.607 360.648H447.311V345.319H482.607V360.648ZM548.661 536.692H513.365V521.363H548.661V536.692ZM548.661 492.681H513.365V477.352H548.661V492.681ZM548.661 448.67H513.365V433.341H548.661V448.67ZM548.661 404.659H513.365V389.33H548.661V404.659ZM548.661 360.648H513.365V345.319H548.661V360.648ZM614.715 536.692H579.419V521.363H614.715V536.692ZM614.715 492.681H579.419V477.352H614.715V492.681ZM614.715 448.67H579.419V433.341H614.715V448.67ZM614.715 404.659H579.419V389.33H614.715V404.659ZM614.715 360.648H579.419V345.319H614.715V360.648ZM655.305 464H674.466V478.835H655.305V464ZM655.557 505.538H674.718V520.374H655.557V505.538ZM674.97 561.912H655.809V547.077H674.97V561.912ZM725.141 427.901H680.769V419H725.141V427.901ZM725.141 415.044H680.769V406.143H725.141V415.044ZM725.141 402.187H680.769V393.286H725.141V402.187ZM731.443 464H750.604V478.835H731.443V464ZM731.696 505.538H750.856V520.374H731.696V505.538ZM751.108 561.912H731.948V547.077H751.108V561.912Z"/>
</mask>
<path d="M746.822 438.78V380.923H714.048V343.341H691.862V380.923H659.087V438.78H640.934V308.725H604.126V296.363H555.216V284H506.81V296.363H460.925V308.725H421.091V438.286H399.913V380.429H367.138V342.846H344.952V380.429H312.178V438.286H291V643.505H339.406V570.813H372.685V643.505H502.776V558.945H559.249V643.505H637.909V644H686.315V571.308H719.594V644H768V438.78H746.822ZM308.396 463.505H327.557V478.341H308.396V463.505ZM308.648 505.044H327.809V519.879H308.648V505.044ZM328.061 561.418H308.9V546.582H328.061V561.418ZM378.232 427.407H333.859V418.505H378.232V427.407ZM378.232 414.549H333.859V405.648H378.232V414.549ZM378.232 401.692H333.859V392.791H378.232V401.692ZM384.534 463.505H403.695V478.341H384.534V463.505ZM384.786 505.044H403.947V519.879H384.786V505.044ZM404.199 561.418H385.039V546.582H404.199V561.418ZM482.607 536.692H447.311V521.363H482.607V536.692ZM482.607 492.681H447.311V477.352H482.607V492.681ZM482.607 448.67H447.311V433.341H482.607V448.67ZM482.607 404.659H447.311V389.33H482.607V404.659ZM482.607 360.648H447.311V345.319H482.607V360.648ZM548.661 536.692H513.365V521.363H548.661V536.692ZM548.661 492.681H513.365V477.352H548.661V492.681ZM548.661 448.67H513.365V433.341H548.661V448.67ZM548.661 404.659H513.365V389.33H548.661V404.659ZM548.661 360.648H513.365V345.319H548.661V360.648ZM614.715 536.692H579.419V521.363H614.715V536.692ZM614.715 492.681H579.419V477.352H614.715V492.681ZM614.715 448.67H579.419V433.341H614.715V448.67ZM614.715 404.659H579.419V389.33H614.715V404.659ZM614.715 360.648H579.419V345.319H614.715V360.648ZM655.305 464H674.466V478.835H655.305V464ZM655.557 505.538H674.718V520.374H655.557V505.538ZM674.97 561.912H655.809V547.077H674.97V561.912ZM725.141 427.901H680.769V419H725.141V427.901ZM725.141 415.044H680.769V406.143H725.141V415.044ZM725.141 402.187H680.769V393.286H725.141V402.187ZM731.443 464H750.604V478.835H731.443V464ZM731.696 505.538H750.856V520.374H731.696V505.538ZM751.108 561.912H731.948V547.077H751.108V561.912Z" stroke="#FAFBFC" stroke-width="4" mask="url(#path-2-inside-1)"/>
<path d="M831.852 678.509H721.665L725.4 638.497H828.117L831.852 678.509Z" fill="#E6E6E6"/>
<path d="M839.322 673.893H716.062V683.126H839.322V673.893Z" fill="#E6E6E6"/>
<path d="M987.795 380.724H566.656C563.684 380.724 560.834 381.697 558.733 383.429C556.631 385.16 555.451 387.509 555.451 389.958V389.958V601.562H999V389.958C999 388.745 998.71 387.544 998.147 386.424C997.584 385.304 996.759 384.286 995.718 383.429C994.678 382.571 993.442 381.891 992.083 381.427C990.723 380.963 989.266 380.724 987.795 380.724H987.795Z" fill="#3F3D56"/>
<path d="M555.451 601.562V636.188C555.451 637.401 555.741 638.602 556.304 639.722C556.867 640.842 557.692 641.86 558.733 642.717C559.773 643.575 561.009 644.255 562.368 644.719C563.728 645.183 565.185 645.422 566.656 645.422H987.795C990.766 645.422 993.617 644.449 995.718 642.717C997.819 640.986 999 638.637 999 636.188V601.562H555.451Z" fill="#E6E6E6"/>
<path d="M977.523 399.961H577.862V584.634H977.523V399.961Z" fill="#E6E6E6"/>
<path d="M777.692 632.341C783.881 632.341 788.898 628.207 788.898 623.108C788.898 618.008 783.881 613.874 777.692 613.874C771.504 613.874 766.487 618.008 766.487 623.108C766.487 628.207 771.504 632.341 777.692 632.341Z" fill="#3F3D56"/>
<path d="M590.323 407.761C591.498 407.761 592.45 406.976 592.45 406.009C592.45 405.041 591.498 404.256 590.323 404.256C589.149 404.256 588.197 405.041 588.197 406.009C588.197 406.976 589.149 407.761 590.323 407.761Z" fill="#FAFBFC"/>
<path d="M598.395 407.761C599.569 407.761 600.521 406.976 600.521 406.009C600.521 405.041 599.569 404.256 598.395 404.256C597.221 404.256 596.269 405.041 596.269 406.009C596.269 406.976 597.221 407.761 598.395 407.761Z" fill="#FAFBFC"/>
<path d="M606.467 407.761C607.641 407.761 608.593 406.976 608.593 406.009C608.593 405.041 607.641 404.256 606.467 404.256C605.292 404.256 604.34 405.041 604.34 406.009C604.34 406.976 605.292 407.761 606.467 407.761Z" fill="#FAFBFC"/>
<path d="M966.004 411.963H588.197V567.058H966.004V411.963Z" fill="#FAFBFC"/>
<path d="M613.311 435.553C612.957 435.553 612.617 435.67 612.367 435.876C612.116 436.082 611.976 436.362 611.975 436.654V492.286C611.976 492.578 612.116 492.857 612.367 493.064C612.617 493.27 612.957 493.386 613.311 493.386H691.276C691.631 493.386 691.97 493.27 692.22 493.064C692.471 492.857 692.612 492.578 692.612 492.286V436.654C692.612 436.362 692.471 436.082 692.22 435.876C691.97 435.67 691.631 435.553 691.276 435.553H613.311Z" fill="#E6E6E6"/>
<path d="M738.494 435.733C738.14 435.733 737.8 435.849 737.55 436.055C737.299 436.262 737.159 436.542 737.158 436.833V492.287C737.159 492.578 737.299 492.858 737.55 493.065C737.8 493.271 738.14 493.387 738.494 493.387H816.212C816.566 493.387 816.905 493.271 817.155 493.064C817.406 492.858 817.547 492.578 817.547 492.287V436.833C817.547 436.542 817.406 436.262 817.155 436.056C816.905 435.849 816.566 435.733 816.212 435.733H738.494Z" fill="#E6E6E6"/>
<path d="M862.365 435.151C862.011 435.152 861.672 435.268 861.422 435.474C861.171 435.68 861.03 435.96 861.03 436.252V492.286C861.03 492.578 861.171 492.858 861.422 493.064C861.672 493.27 862.011 493.387 862.365 493.387H940.891C941.245 493.387 941.584 493.27 941.834 493.064C942.085 492.858 942.226 492.578 942.226 492.286V436.252C942.226 435.96 942.085 435.68 941.834 435.474C941.584 435.268 941.245 435.152 940.891 435.151H862.365Z" fill="#E6E6E6"/>
<path d="M614.736 520.925C614.005 520.926 613.304 521.166 612.787 521.593C612.27 522.019 611.98 522.597 611.98 523.2C611.98 523.803 612.27 524.381 612.787 524.808C613.304 525.234 614.005 525.475 614.736 525.476H688.039C688.771 525.475 689.472 525.234 689.989 524.808C690.505 524.381 690.796 523.803 690.796 523.2C690.796 522.597 690.505 522.019 689.989 521.593C689.472 521.166 688.771 520.926 688.039 520.925H614.736Z" fill="#E6E6E6"/>
<path d="M614.736 531.748C614.005 531.749 613.304 531.989 612.787 532.416C612.27 532.843 611.98 533.421 611.98 534.024C611.98 534.627 612.27 535.205 612.787 535.631C613.304 536.058 614.005 536.298 614.736 536.299H647.741C648.472 536.298 649.173 536.058 649.69 535.631C650.207 535.205 650.497 534.627 650.497 534.024C650.497 533.421 650.207 532.843 649.69 532.416C649.173 531.989 648.472 531.749 647.741 531.748H614.736Z" fill="#6C63FF"/>
<path d="M741.265 520.925C740.534 520.926 739.833 521.166 739.316 521.593C738.799 522.019 738.509 522.597 738.509 523.2C738.509 523.803 738.799 524.381 739.316 524.808C739.833 525.234 740.534 525.475 741.265 525.476H814.568C815.299 525.475 816 525.234 816.517 524.808C817.034 524.381 817.324 523.803 817.324 523.2C817.324 522.597 817.034 522.019 816.517 521.593C816 521.166 815.299 520.926 814.568 520.925H741.265Z" fill="#E6E6E6"/>
<path d="M741.265 531.748C740.534 531.749 739.833 531.989 739.316 532.416C738.799 532.843 738.509 533.421 738.509 534.024C738.509 534.627 738.799 535.205 739.316 535.631C739.833 536.058 740.534 536.298 741.265 536.299H774.27C775.001 536.298 775.702 536.058 776.219 535.631C776.736 535.205 777.026 534.627 777.026 534.024C777.026 533.421 776.736 532.843 776.219 532.416C775.702 531.989 775.001 531.749 774.27 531.748H741.265Z" fill="#6C63FF"/>
<path d="M864.631 520.925C863.9 520.926 863.199 521.166 862.682 521.593C862.165 522.019 861.875 522.597 861.875 523.2C861.875 523.803 862.165 524.381 862.682 524.808C863.199 525.234 863.9 525.475 864.631 525.476H937.935C938.666 525.475 939.367 525.234 939.884 524.808C940.401 524.381 940.691 523.803 940.691 523.2C940.691 522.597 940.401 522.019 939.884 521.593C939.367 521.166 938.666 520.926 937.935 520.925H864.631Z" fill="#E6E6E6"/>
<path d="M614.736 509.746C614.005 509.747 613.304 509.987 612.787 510.414C612.27 510.841 611.98 511.419 611.98 512.022C611.98 512.624 612.27 513.202 612.787 513.629C613.304 514.056 614.005 514.296 614.736 514.297H688.039C688.771 514.296 689.472 514.056 689.989 513.629C690.505 513.202 690.796 512.624 690.796 512.022C690.796 511.419 690.505 510.841 689.989 510.414C689.472 509.987 688.771 509.747 688.039 509.746H614.736Z" fill="#E6E6E6"/>
<path d="M741.265 509.746C740.534 509.747 739.833 509.987 739.316 510.414C738.799 510.841 738.509 511.419 738.509 512.022C738.509 512.624 738.799 513.202 739.316 513.629C739.833 514.056 740.534 514.296 741.265 514.297H814.568C815.299 514.296 816 514.056 816.517 513.629C817.034 513.202 817.324 512.624 817.324 512.022C817.324 511.419 817.034 510.841 816.517 510.414C816 509.987 815.299 509.747 814.568 509.746H741.265Z" fill="#E6E6E6"/>
<path d="M864.631 509.746C863.9 509.747 863.199 509.987 862.682 510.414C862.165 510.841 861.875 511.419 861.875 512.022C861.875 512.624 862.165 513.202 862.682 513.629C863.199 514.056 863.9 514.296 864.631 514.297H937.935C938.666 514.296 939.367 514.056 939.884 513.629C940.401 513.202 940.691 512.624 940.691 512.022C940.691 511.419 940.401 510.841 939.884 510.414C939.367 509.987 938.666 509.747 937.935 509.746H864.631Z" fill="#E6E6E6"/>
<path d="M864.632 531.748C863.9 531.749 863.199 531.989 862.682 532.416C862.165 532.843 861.875 533.421 861.875 534.024C861.875 534.627 862.165 535.205 862.682 535.631C863.199 536.058 863.9 536.298 864.632 536.299H897.636C898.367 536.298 899.068 536.058 899.585 535.631C900.102 535.205 900.392 534.627 900.392 534.024C900.392 533.421 900.102 532.843 899.585 532.416C899.068 531.989 898.367 531.749 897.636 531.748H864.632Z" fill="#6C63FF"/>
<path d="M625.472 473.531H674.857V468.617C674.857 455.348 663.78 444.552 650.165 444.552C636.549 444.552 625.472 455.348 625.472 468.617V473.531Z" fill="#3F3D56"/>
<path opacity="0.2" d="M625.472 473.531H674.857V468.617C674.857 455.348 663.78 444.552 650.165 444.552C636.549 444.552 625.472 455.348 625.472 468.617V473.531Z" fill="black"/>
<path d="M631.873 475.232H669.879C669.843 473.283 669.024 471.426 667.597 470.06C666.171 468.693 664.252 467.926 662.252 467.924H639.499C637.499 467.926 635.58 468.693 634.154 470.06C632.728 471.426 631.909 473.283 631.873 475.232V475.232Z" fill="#6C63FF"/>
<path d="M627.347 474.476C631.559 474.476 634.974 471.148 634.974 467.042C634.974 462.937 631.559 459.608 627.347 459.608C623.134 459.608 619.719 462.937 619.719 467.042C619.719 471.148 623.134 474.476 627.347 474.476Z" fill="#3F3D56"/>
<path d="M673.629 474.476C677.842 474.476 681.256 471.148 681.256 467.042C681.256 462.937 677.842 459.608 673.629 459.608C669.416 459.608 666.002 462.937 666.002 467.042C666.002 471.148 669.416 474.476 673.629 474.476Z" fill="#3F3D56"/>
<path d="M667.876 470.822V473.594H632.647V470.822H624.761V484.332C624.761 485.16 625.099 485.954 625.699 486.539C626.3 487.125 627.115 487.454 627.964 487.454H672.56C672.98 487.454 673.397 487.373 673.785 487.216C674.174 487.059 674.527 486.829 674.824 486.539C675.122 486.25 675.357 485.906 675.518 485.527C675.679 485.148 675.762 484.742 675.762 484.332V470.822H667.876Z" fill="#3F3D56"/>
<path opacity="0.2" d="M627.347 468.554C628.204 468.554 628.898 467.877 628.898 467.042C628.898 466.207 628.204 465.53 627.347 465.53C626.49 465.53 625.796 466.207 625.796 467.042C625.796 467.877 626.49 468.554 627.347 468.554Z" fill="black"/>
<path opacity="0.2" d="M673.629 468.554C674.486 468.554 675.181 467.877 675.181 467.042C675.181 466.207 674.486 465.53 673.629 465.53C672.772 465.53 672.078 466.207 672.078 467.042C672.078 467.877 672.772 468.554 673.629 468.554Z" fill="black"/>
<path d="M768.552 474.078L768.242 474.072L768.273 473.366L769.366 473.459L769.325 473.656L768.573 473.592L768.552 474.078Z" fill="#3F3D56"/>
<path d="M768.315 479.403L768.005 479.398L768.064 478.067L768.374 478.072L768.315 479.403ZM768.394 477.629L768.084 477.623L768.143 476.292L768.453 476.297L768.394 477.629ZM768.473 475.854L768.163 475.848L768.222 474.517L768.532 474.523L768.473 475.854Z" fill="#3F3D56"/>
<path d="M767.954 480.548L767.985 479.842L768.295 479.847L768.273 480.333L769.029 480.295L769.053 480.493L767.954 480.548Z" fill="#3F3D56"/>
<path d="M769.645 480.464L769.621 480.265L771.399 480.177L771.423 480.375L769.645 480.464ZM772.016 480.345L771.992 480.147L773.771 480.058L773.795 480.257L772.016 480.345ZM774.388 480.227L774.364 480.029L776.142 479.94L776.166 480.138L774.388 480.227ZM776.759 480.109L776.735 479.91L778.514 479.822L778.538 480.02L776.759 480.109ZM779.13 479.99L779.106 479.792L780.885 479.703L780.909 479.902L779.13 479.99ZM781.502 479.872L781.478 479.674L783.256 479.585L783.28 479.783L781.502 479.872ZM783.873 479.754L783.849 479.556L785.628 479.467L785.652 479.665L783.873 479.754ZM786.245 479.636L786.221 479.437L787.999 479.349L788.023 479.547L786.245 479.636ZM788.616 479.517L788.592 479.319L790.371 479.23L790.395 479.429L788.616 479.517ZM790.987 479.399L790.964 479.201L792.742 479.112L792.766 479.31L790.987 479.399ZM793.359 479.281L793.335 479.083L795.114 478.994L795.137 479.192L793.359 479.281ZM795.73 479.163L795.706 478.964L797.485 478.875L797.509 479.074L795.73 479.163Z" fill="#3F3D56"/>
<path d="M798.102 479.044L798.078 478.846L798.746 478.813L798.383 478.452L798.644 478.344L799.288 478.985L798.102 479.044Z" fill="#3F3D56"/>
<path d="M797.995 478.066L796.834 476.909L797.094 476.801L798.256 477.958L797.995 478.066ZM796.446 476.523L795.285 475.366L795.545 475.258L796.707 476.416L796.446 476.523Z" fill="#3F3D56"/>
<path d="M792.278 483.325C798.095 483.325 802.811 480.297 802.811 476.563C802.811 472.828 798.095 469.801 792.278 469.801C786.461 469.801 781.745 472.828 781.745 476.563C781.745 480.297 786.461 483.325 792.278 483.325Z" fill="#6C63FF"/>
<path d="M800.953 484.418L785.54 466.867L782.132 469.054L797.313 484.368L800.953 484.418Z" fill="#3F3D56"/>
<path d="M754.25 483.971L788.87 461.447L791.736 465.077L758.897 484.965L754.25 483.971Z" fill="#3F3D56"/>
<path d="M768.346 481.584C772.196 481.584 775.316 479.581 775.316 477.11C775.316 474.638 772.196 472.635 768.346 472.635C764.496 472.635 761.375 474.638 761.375 477.11C761.375 479.581 764.496 481.584 768.346 481.584Z" fill="#3F3D56"/>
<path d="M759.052 478.402C759.01 478.402 758.971 478.412 758.942 478.431C758.913 478.45 758.897 478.475 758.897 478.501V479.298C758.897 479.324 758.913 479.35 758.942 479.368C758.971 479.387 759.01 479.398 759.052 479.398H762.924C762.965 479.398 763.004 479.387 763.034 479.368C763.063 479.35 763.079 479.324 763.079 479.298V478.501C763.079 478.475 763.063 478.45 763.034 478.431C763.004 478.412 762.965 478.402 762.924 478.402H759.052Z" fill="#6C63FF"/>
<path d="M767.958 467.315C767.917 467.315 767.878 467.325 767.849 467.344C767.82 467.363 767.804 467.388 767.804 467.415V468.211C767.804 468.238 767.82 468.263 767.849 468.282C767.878 468.3 767.917 468.311 767.958 468.311H771.831C771.872 468.311 771.912 468.3 771.941 468.282C771.97 468.263 771.986 468.238 771.986 468.211V467.415C771.986 467.388 771.97 467.363 771.941 467.344C771.912 467.325 771.872 467.315 771.831 467.315H767.958Z" fill="#6C63FF"/>
<path d="M786.779 465.674H782.752V463.685L784.301 463.287L786.779 464.48V465.674Z" fill="#3F3D56"/>
<path d="M783.263 462.783L782.841 462.911L783.636 463.989L784.057 463.861L783.263 462.783Z" fill="#3F3D56"/>
<path d="M783.707 461.493C783.677 461.493 783.648 461.498 783.623 461.509L780.887 462.638C780.853 462.652 780.828 462.675 780.82 462.701C780.811 462.726 780.819 462.753 780.841 462.776L781.511 463.445C781.533 463.467 781.568 463.482 781.608 463.488C781.649 463.494 781.691 463.489 781.725 463.475L784.461 462.345V462.345C784.496 462.331 784.52 462.308 784.529 462.282C784.537 462.257 784.53 462.23 784.507 462.207L783.837 461.538C783.826 461.527 783.812 461.518 783.795 461.51C783.779 461.503 783.76 461.498 783.74 461.495C783.729 461.493 783.718 461.493 783.707 461.493V461.493Z" fill="#6C63FF"/>
<path d="M789.877 465.475L786.702 455.581L790.419 455.183L792.954 463.154C793.063 463.443 793.064 463.744 792.957 464.033C792.85 464.323 792.637 464.591 792.337 464.818C792.037 465.044 791.658 465.222 791.23 465.336C790.803 465.45 790.339 465.498 789.877 465.475Z" fill="#3F3D56"/>
<path d="M801.577 453.631L797.9 453.462C797.851 453.46 797.803 453.45 797.761 453.434C797.719 453.417 797.683 453.395 797.658 453.368C797.632 453.341 797.616 453.31 797.613 453.279C797.609 453.247 797.617 453.216 797.636 453.186L802.978 445.089C802.999 445.059 803.03 445.032 803.07 445.011C803.111 444.991 803.158 444.977 803.209 444.971L806.837 444.555C806.891 444.549 806.947 444.552 806.998 444.565C807.05 444.577 807.096 444.598 807.131 444.625C807.165 444.652 807.188 444.685 807.197 444.72C807.206 444.755 807.2 444.791 807.18 444.824L801.888 453.505C801.864 453.545 801.821 453.578 801.765 453.601C801.709 453.623 801.643 453.634 801.577 453.631Z" fill="#3F3D56"/>
<path d="M798.397 452.845L801.34 453.044L806.142 445.287L803.044 445.585L798.397 452.845Z" fill="#6C63FF"/>
<path d="M766.332 474.126L762.46 476.612L756.883 461L759.981 461.298L766.332 474.126Z" fill="#3F3D56"/>
<path d="M761.819 461.275L761.15 461.146C759.836 461.518 758.406 461.69 756.971 461.651C756.661 461.642 756.368 461.557 756.154 461.413C755.94 461.269 755.821 461.077 755.823 460.878V460.878C755.823 460.673 755.95 460.476 756.176 460.331C756.402 460.186 756.708 460.105 757.027 460.105H762.87C763.028 460.105 763.18 460.145 763.292 460.217C763.404 460.289 763.466 460.386 763.466 460.488C763.466 460.616 763.42 460.742 763.33 460.857C763.241 460.971 763.111 461.07 762.951 461.147C762.791 461.223 762.605 461.275 762.408 461.297C762.212 461.319 762.01 461.311 761.819 461.275V461.275Z" fill="#3F3D56"/>
<path d="M798.826 451.511C798.676 451.511 798.531 451.543 798.412 451.601L793.656 453.935L788.332 454.381C787.416 454.458 786.781 455.098 786.702 455.68L792.968 455.121C793.838 455.067 794.661 454.841 795.322 454.473L799.272 452.28C799.377 452.221 799.452 452.144 799.487 452.057C799.521 451.971 799.514 451.879 799.465 451.796C799.417 451.712 799.329 451.64 799.215 451.589C799.101 451.538 798.965 451.511 798.826 451.511V451.511Z" fill="#3F3D56"/>
<path d="M796.502 450.02C796.353 450.02 796.207 450.051 796.088 450.11L791.332 452.444L786.009 452.89C785.092 452.967 784.458 453.607 784.378 454.189L790.644 453.63C791.515 453.576 792.338 453.35 792.998 452.982L796.948 450.788C797.054 450.73 797.129 450.652 797.163 450.566C797.198 450.479 797.19 450.388 797.142 450.305C797.093 450.221 797.006 450.149 796.891 450.098C796.777 450.047 796.641 450.02 796.502 450.02V450.02Z" fill="#3F3D56"/>
<path d="M799.404 456.027C798.296 456.026 797.205 455.858 796.217 455.536C795.229 455.215 794.373 454.749 793.717 454.176L794.341 453.882C794.842 454.321 795.477 454.691 796.206 454.968C796.936 455.246 797.745 455.425 798.586 455.496C799.427 455.567 800.281 455.528 801.098 455.381C801.914 455.234 802.676 454.982 803.337 454.641C803.997 454.299 804.543 453.876 804.942 453.395C805.34 452.915 805.583 452.387 805.655 451.845C805.727 451.302 805.627 450.756 805.361 450.239C805.095 449.723 804.668 449.246 804.107 448.838L804.687 448.508C805.585 449.161 806.171 449.967 806.373 450.828C806.575 451.689 806.386 452.569 805.828 453.363C805.27 454.157 804.367 454.831 803.228 455.303C802.088 455.776 800.76 456.027 799.404 456.027V456.027Z" fill="#3F3D56"/>
<path d="M804.825 483.921H749.99V486.407H804.825V483.921Z" fill="#3F3D56"/>
<path d="M770.902 468.21H769.198V474.176H770.902V468.21Z" fill="#3F3D56"/>
<path d="M785.308 453.8L784.843 453.999L787.941 455.988L789.8 454.894L786.702 453.303L785.308 453.8Z" fill="#3F3D56"/>
<path d="M923.456 474.8L922.366 474.54C923.13 472.818 923.471 471.01 923.375 469.19C922.921 460.241 912.208 452.993 899.494 453.032C886.781 453.071 876.808 460.382 877.263 469.33C877.347 471.035 877.812 472.728 878.642 474.348L877.571 474.599C876.255 472.032 875.818 469.301 876.295 466.632C876.771 463.962 878.148 461.431 880.311 459.247C882.474 457.063 885.361 455.288 888.735 454.071C892.108 452.853 895.87 452.226 899.71 452.243C903.551 452.26 907.359 452.92 910.82 454.168C914.282 455.415 917.297 457.216 919.617 459.42C921.937 461.623 923.495 464.168 924.163 466.842C924.83 469.517 924.588 472.245 923.456 474.8V474.8Z" fill="black"/>
<path d="M883.967 467.812C881.809 467.818 879.771 468.428 878.3 469.506C876.828 470.584 876.045 472.043 876.121 473.561C876.198 475.08 877.129 476.534 878.708 477.603C880.288 478.672 882.387 479.27 884.545 479.263L886.565 479.258L885.987 467.806L883.967 467.812Z" fill="black"/>
<path d="M885.999 467.004C885.518 467.006 885.064 467.142 884.736 467.382C884.408 467.622 884.233 467.947 884.25 468.286L884.78 478.789C884.797 479.127 885.004 479.451 885.357 479.69C885.709 479.928 886.177 480.061 886.658 480.06C887.139 480.059 887.593 479.923 887.921 479.682C888.249 479.442 888.424 479.117 888.407 478.778L887.877 468.275C887.859 467.937 887.651 467.613 887.299 467.375C886.947 467.136 886.48 467.003 885.999 467.004Z" fill="#407BFF"/>
<path d="M915.062 479.176L917.082 479.17C919.24 479.164 921.278 478.554 922.749 477.476C924.221 476.398 925.004 474.939 924.928 473.421C924.89 472.669 924.642 471.925 924.198 471.231C923.754 470.538 923.123 469.908 922.341 469.379C920.761 468.31 918.662 467.712 916.504 467.719L914.484 467.724L915.062 479.176Z" fill="black"/>
<path d="M914.391 466.922C913.911 466.924 913.457 467.06 913.129 467.3C912.801 467.54 912.626 467.865 912.643 468.204L913.173 478.707C913.19 479.045 913.398 479.369 913.75 479.607C914.102 479.845 914.57 479.978 915.05 479.977C915.531 479.976 915.985 479.84 916.313 479.6C916.641 479.36 916.816 479.035 916.799 478.696L916.269 468.193C916.252 467.855 916.044 467.531 915.692 467.293C915.34 467.054 914.872 466.921 914.391 466.922V466.922Z" fill="#407BFF"/>
<path d="M1277 863.107C1264.23 898.844 807.986 889.631 809.002 856.892C821.766 821.157 1278.01 830.369 1277 863.107Z" fill="#585591"/>
<g clip-path="url(#clip0)">
<path d="M1248.76 746.926C1251.27 751.344 1252.02 756.578 1250.87 761.535C1249.71 766.492 1246.72 770.79 1242.53 773.531C1238.34 776.273 1233.28 777.246 1228.39 776.247C1223.5 775.249 1219.17 772.357 1216.29 768.174C1216.11 767.91 1215.93 767.642 1215.76 767.365L1215.76 767.35C1215.63 767.149 1215.51 766.946 1215.39 766.74C1212.82 762.195 1212.1 756.796 1213.4 751.729C1214.7 746.662 1217.92 742.341 1222.34 739.716C1226.76 737.091 1232.02 736.375 1236.98 737.727C1241.93 739.079 1246.17 742.388 1248.76 746.926Z" fill="#65617D"/>
<path d="M1237.61 766.566C1242.92 763.415 1244.74 756.509 1241.69 751.141C1238.63 745.772 1231.86 743.973 1226.55 747.123C1221.25 750.273 1219.42 757.179 1222.48 762.548C1225.53 767.917 1232.31 769.716 1237.61 766.566Z" fill="#DCE0ED"/>
<path d="M1235.5 762.864C1238.58 761.039 1239.53 756.866 1237.64 753.541C1235.75 750.217 1231.73 749.001 1228.66 750.825C1225.59 752.649 1224.63 756.823 1226.52 760.147C1228.41 763.472 1232.43 764.688 1235.5 762.864Z" fill="#65617D"/>
<path d="M1168.48 750.237L1128.51 774.929L1125.17 769.067C1122.85 764.143 1126.83 759.584 1131.02 756.413C1134.3 753.954 1137.99 752.121 1141.91 751.009C1151.75 748.17 1157.47 745.369 1160.18 743.823C1160.78 743.483 1161.46 743.355 1162.13 743.461C1162.79 743.567 1163.4 743.901 1163.83 744.406C1164.34 745 1164.88 745.655 1165.41 746.304C1165.82 746.815 1166.22 747.32 1166.59 747.792C1167.67 749.162 1168.48 750.237 1168.48 750.237Z" fill="#65617D"/>
<path d="M1220.96 764.86L1135.63 815.399C1134.98 815.796 1134.22 815.991 1133.47 815.958C1132.71 815.926 1131.98 815.668 1131.37 815.217C1129.84 814.05 1130.18 812.531 1130.81 811.384C1132.1 809.049 1132.55 806.334 1132.06 803.719C1131.44 800.484 1129.91 795.712 1126.49 788.889C1122.95 781.832 1123.48 776.991 1125.21 773.778L1125.21 773.777C1127.44 769.627 1131.65 768.19 1131.65 768.19L1166.41 747.978C1167.19 747.894 1167.97 747.931 1168.73 748.087C1173.46 749.151 1171.11 755.586 1171.11 755.586C1167.32 771.572 1180.55 777.656 1180.55 777.656L1198.25 767.17C1201.57 765.228 1204.24 762.316 1205.9 758.819C1207.34 755.739 1207.35 753.579 1207.15 752.392C1207 751.485 1206.85 750.578 1206.77 749.662C1205.64 736.769 1190.64 723.589 1184.71 718.851C1183.24 717.672 1182.32 717.015 1182.32 717.015L1187.63 713.305L1190.99 710.957L1191.03 710.934C1206.42 719.789 1217.16 731.893 1223.95 741.552C1224.59 742.462 1225.2 743.352 1225.77 744.214C1226.85 745.856 1227.59 747.708 1227.93 749.658C1228.28 751.607 1228.22 753.612 1227.77 755.547C1227.32 757.482 1226.48 759.308 1225.31 760.91C1224.14 762.512 1222.66 763.856 1220.96 764.86Z" fill="#1C1952"/>
<path opacity="0.1" d="M1166.83 747.423L1126.42 771.203L1125.9 770.281L1166.05 746.651C1166.32 746.915 1166.58 747.177 1166.83 747.423Z" fill="black"/>
<path opacity="0.1" d="M1168.36 747.761L1125.26 773.131C1125.15 773.198 1125.03 773.249 1124.91 773.283C1127.62 769.993 1131.65 768.256 1131.65 768.256L1166.3 748.087C1167.01 747.894 1167.71 747.784 1168.36 747.761Z" fill="black"/>
<path d="M1167.49 745.805L1109.57 779.9C1109.11 780.172 1108.97 780.805 1109.26 781.315C1109.54 781.824 1110.15 782.017 1110.62 781.745L1168.54 747.649C1169 747.377 1169.14 746.744 1168.85 746.235C1168.56 745.725 1167.95 745.533 1167.49 745.805Z" fill="#DCE0ED"/>
<path opacity="0.1" d="M1224.28 741.769C1223.53 745.116 1222.57 746.835 1221.33 744.5C1217.61 737.439 1187.78 713.223 1187.78 713.223L1191.19 710.834C1206.65 719.788 1217.44 732.015 1224.28 741.769Z" fill="black"/>
<path opacity="0.1" d="M1247.64 744.961C1245.92 746.632 1243.73 748.59 1240.94 750.849C1239.91 751.689 1238.79 752.57 1237.58 753.494C1234.68 755.712 1231.27 758.17 1227.26 760.883C1226.13 761.652 1224.94 762.441 1223.71 763.25C1221.4 764.766 1218.91 766.354 1216.23 768.017L1215.71 767.213L1215.7 767.199C1218.6 763.405 1222.19 755.735 1217 744.373C1218.86 742.02 1221.22 740.13 1223.9 738.851C1226.59 737.571 1229.52 736.936 1232.48 736.993C1235.44 737.049 1238.35 737.797 1240.98 739.179C1243.6 740.56 1245.89 742.539 1247.64 744.961Z" fill="black"/>
<path d="M1212.13 770.424C1212.13 770.424 1230.58 756.61 1206.6 730.412C1206.6 730.412 1221.44 733.627 1230.32 735.034C1239.21 736.44 1253.91 736.931 1253.91 736.931C1253.91 736.931 1250.92 746.81 1212.13 770.424Z" fill="#1C1952"/>
<path opacity="0.1" d="M1212.13 770.424C1212.13 770.424 1230.58 756.61 1206.6 730.412C1206.6 730.412 1221.44 733.627 1230.32 735.034C1239.21 736.44 1253.91 736.931 1253.91 736.931C1253.91 736.931 1250.92 746.81 1212.13 770.424Z" fill="#FAFBFC"/>
<path d="M1169.61 816.461C1179.11 810.824 1182.44 798.587 1177.06 789.128C1171.68 779.67 1159.62 776.571 1150.13 782.208C1140.64 787.845 1137.3 800.082 1142.68 809.541C1148.07 818.999 1160.12 822.098 1169.61 816.461Z" fill="#65617D"/>
<path d="M1165.4 809.058C1170.43 806.073 1172.02 799.3 1168.97 793.93C1165.92 788.56 1159.37 786.627 1154.34 789.612C1149.32 792.597 1147.72 799.37 1150.77 804.74C1153.83 810.11 1160.38 812.043 1165.4 809.058Z" fill="#DCE0ED"/>
<path d="M1162.79 805.651C1165.86 803.827 1166.82 799.653 1164.93 796.329C1163.04 793.004 1159.01 791.788 1155.94 793.613C1152.87 795.437 1151.91 799.61 1153.81 802.935C1155.7 806.259 1159.72 807.475 1162.79 805.651Z" fill="#65617D"/>
<path opacity="0.1" d="M1175.9 782.302C1169.65 771.328 1155.76 767.659 1144.87 774.107C1133.99 780.555 1130.23 794.678 1136.48 805.652C1136.75 806.115 1137.02 806.564 1137.31 807.001L1176.64 783.707C1176.41 783.234 1176.16 782.765 1175.9 782.302Z" fill="black"/>
<path d="M1174.93 782.963C1168.95 772.466 1155.73 768.916 1145.4 775.034C1135.07 781.151 1131.55 794.62 1137.53 805.117C1137.78 805.56 1138.05 805.989 1138.32 806.407L1175.63 784.308C1175.41 783.855 1175.18 783.406 1174.93 782.963Z" fill="#1C1952"/>
<path opacity="0.1" d="M1174.92 782.963C1175.1 783.268 1175.26 783.576 1175.42 783.885C1175.49 784.026 1175.56 784.166 1175.63 784.307L1138.32 806.408C1138.24 806.275 1138.15 806.145 1138.07 806.012C1137.88 805.72 1137.7 805.422 1137.53 805.117C1131.55 794.62 1135.07 781.151 1145.4 775.034C1155.73 768.916 1168.95 772.466 1174.92 782.963Z" fill="#FAFBFC"/>
<path opacity="0.1" d="M1209.93 725.489C1210.84 724.171 1208.97 721.22 1205.76 718.898C1202.55 716.577 1199.21 715.764 1198.3 717.082C1197.39 718.401 1199.25 721.352 1202.46 723.673C1205.67 725.995 1209.02 726.808 1209.93 725.489Z" fill="black"/>
<path d="M1210.01 725.16C1210.93 723.841 1209.06 720.89 1205.85 718.569C1202.64 716.247 1199.29 715.434 1198.38 716.753C1197.47 718.071 1199.34 721.022 1202.55 723.344C1205.76 725.665 1209.1 726.478 1210.01 725.16Z" fill="#DCE0ED"/>
<path opacity="0.1" d="M1190.66 711.057L1192.24 713.825L1185.91 717.565C1185.32 717.914 1184.71 718.221 1184.08 718.485C1182.74 717.538 1181.9 717.018 1181.9 717.018L1187.27 713.367L1190.66 711.057Z" fill="black"/>
<path d="M1192.24 713.747L1185.99 717.458C1180.51 720.717 1173.7 719.197 1170.78 714.063L1170.29 713.201C1167.37 708.067 1169.45 701.263 1174.93 698.004L1181.51 694.868L1192.24 713.747Z" fill="#1C1952"/>
<path d="M1174.08 706.193C1174.08 706.193 1178.98 705.88 1178.66 710.462C1178.66 710.462 1178.38 716.257 1173.94 718.36L1167.27 710.238C1167.27 710.238 1172.06 706.795 1174.08 706.193Z" fill="#1C1952"/>
<path opacity="0.1" d="M1172.52 706.871C1173.13 706.536 1173.81 706.337 1174.5 706.29C1175.18 706.244 1175.86 706.349 1176.49 706.6C1177.67 707.095 1178.82 708.164 1178.66 710.457C1178.66 710.457 1178.38 716.257 1173.94 718.359L1167.26 710.226C1168.95 709.013 1170.71 707.893 1172.52 706.871Z" fill="black"/>
<path opacity="0.1" d="M1181.69 695.261C1182.35 694.866 1183.09 694.604 1183.84 694.491C1184.6 694.378 1185.37 694.415 1186.1 694.601C1186.84 694.787 1187.52 695.118 1188.12 695.575C1188.72 696.031 1189.22 696.605 1189.59 697.263L1194.45 705.833C1195.2 707.162 1195.39 708.753 1194.97 710.257C1194.56 711.761 1193.57 713.054 1192.22 713.851L1181.69 695.261Z" fill="black"/>
<path d="M1181.69 695.261C1183.03 694.463 1184.62 694.226 1186.1 694.601C1187.58 694.977 1188.84 695.934 1189.59 697.263L1194.45 705.833C1195.2 707.162 1195.39 708.753 1194.97 710.257C1194.56 711.761 1193.57 713.054 1192.22 713.851L1181.69 695.261Z" fill="#DCE0ED"/>
<path d="M1172.96 720.202C1175.19 718.875 1175.7 715.517 1174.1 712.702C1172.5 709.888 1169.4 708.682 1167.16 710.01C1164.93 711.337 1164.41 714.695 1166.01 717.509C1167.61 720.324 1170.72 721.529 1172.96 720.202Z" fill="#1C1952"/>
<path d="M1139.08 765.03L1143.07 767.606L1144.13 762.032" stroke="black" stroke-miterlimit="10"/>
<path d="M1150.29 763.38L1135.13 772.385L1143.55 787.196L1158.72 778.191L1150.29 763.38Z" fill="#FAFBFC"/>
<path d="M1161.24 692.265L1167.23 681.195L1165.76 680.281L1159.77 691.352C1159.24 691.289 1158.7 691.438 1158.23 691.771C1157.76 692.104 1157.39 692.602 1157.2 693.179C1157 693.756 1156.99 694.376 1157.15 694.933C1157.32 695.49 1157.66 695.949 1158.12 696.231C1158.57 696.514 1159.11 696.602 1159.65 696.482C1160.18 696.361 1160.68 696.039 1161.05 695.57C1161.42 695.101 1161.64 694.515 1161.67 693.912C1161.71 693.309 1161.56 692.727 1161.24 692.265Z" fill="#E6E6E6"/>
<path d="M1104.23 806.427L1094.18 800.185L1171.38 657.366L1167.46 654.93L1090.26 797.75L1080.22 791.508C1079.03 790.768 1077.7 790.31 1076.32 790.16C1074.93 790.01 1073.51 790.171 1072.13 790.633C1070.76 791.095 1069.46 791.85 1068.31 792.855C1067.15 793.859 1066.17 795.093 1065.42 796.486L1065.42 796.486L1107.56 822.671L1107.56 822.671C1108.31 821.277 1108.82 819.752 1109.06 818.181C1109.3 816.611 1109.27 815.026 1108.96 813.518C1108.65 812.009 1108.07 810.607 1107.26 809.39C1106.45 808.174 1105.42 807.167 1104.23 806.427Z" fill="#E6E6E6"/>
<path d="M1137.52 663.881L1179.25 689.857L1196.91 650.912C1197.51 649.565 1197.66 648.053 1197.33 646.671C1196.99 645.289 1196.19 644.138 1195.09 643.445L1167.23 626.102C1166.12 625.422 1164.8 625.25 1163.51 625.622C1162.22 625.994 1161.07 626.883 1160.28 628.113L1137.52 663.881Z" fill="#FCFCFD"/>
<path d="M1073.41 706.927C1077.73 704.278 1079.17 698.354 1076.65 693.696C1074.12 689.039 1068.57 687.411 1064.26 690.06C1059.95 692.709 1058.5 698.633 1061.03 703.29C1063.55 707.948 1069.1 709.576 1073.41 706.927Z" fill="#FAFBFC"/>
<path d="M1096.52 692.73C1100.84 690.081 1102.29 684.157 1099.76 679.5C1097.23 674.842 1091.68 673.214 1087.37 675.863C1083.06 678.512 1081.61 684.436 1084.14 689.094C1086.67 693.751 1092.21 695.38 1096.52 692.73Z" fill="#FAFBFC"/>
<path opacity="0.1" d="M1094.62 693.897C1097.89 691.892 1098.76 686.995 1096.57 682.959C1094.38 678.924 1089.96 677.278 1086.69 679.283C1083.43 681.289 1082.56 686.186 1084.75 690.222C1086.94 694.257 1091.36 695.903 1094.62 693.897Z" fill="black"/>
<path opacity="0.1" d="M1075.31 705.76C1078.58 703.755 1079.45 698.858 1077.26 694.822C1075.07 690.786 1070.65 689.141 1067.38 691.146C1064.12 693.152 1063.25 698.049 1065.44 702.084C1067.63 706.12 1072.05 707.766 1075.31 705.76Z" fill="black"/>
<path d="M1126.86 708.681C1128.06 711.444 1127.5 715.203 1125.06 716.718C1123.98 717.386 1122.7 717.557 1121.45 717.616C1120.36 717.666 1119.24 717.638 1118.21 717.234C1118.06 717.175 1117.92 717.11 1117.78 717.038C1116 716.15 1114.73 714.307 1113.03 713.228C1109.96 711.288 1106.09 712.111 1102.71 713.173C1099.13 714.291 1095.62 715.612 1092.18 717.131C1089.84 718.16 1087.51 719.298 1085.49 720.924C1081.19 724.386 1078.57 729.827 1074.31 733.318C1074.17 733.435 1074.02 733.55 1073.88 733.665C1072.51 734.711 1071 735.535 1069.63 736.572C1067.34 738.298 1065.43 740.62 1062.91 741.931C1060.39 743.241 1056.84 743.143 1055.25 740.634C1054.13 738.866 1054.36 736.431 1055.31 734.581C1056.26 732.732 1057.82 731.344 1059.36 730.042C1063.47 726.584 1067.83 723.309 1070.88 718.77C1071.97 717.147 1072.87 715.376 1074.08 713.855C1074.62 713.175 1075.23 712.566 1075.9 712.042C1076.74 711.379 1077.72 710.945 1078.75 710.779L1077.06 713.005L1097.41 698.353L1098.21 697.776C1099.17 697.083 1100.16 696.378 1101.27 696.014C1103.19 695.39 1105.28 695.848 1107.16 696.669C1109.03 697.49 1110.74 698.68 1112.58 699.599C1115.16 700.884 1117.94 701.616 1120.53 702.847C1123.13 704.079 1125.66 705.921 1126.86 708.681Z" fill="#FAFBFC"/>
<path opacity="0.1" d="M1115.13 711.381C1116.13 713.2 1117.02 715.089 1117.78 717.034C1116.01 716.145 1114.74 714.302 1113.03 713.224C1109.96 711.283 1106.1 712.106 1102.71 713.168C1099.14 714.287 1095.62 715.608 1092.19 717.126C1089.85 718.156 1087.52 719.293 1085.5 720.92C1081.2 724.382 1078.58 729.823 1074.32 733.314C1071.12 724.96 1072.06 717.778 1075.92 712.03C1078.02 708.915 1080.97 706.213 1084.61 703.978C1089.08 701.235 1093.3 698.899 1097.43 698.339C1103.43 697.518 1109.21 700.459 1115.13 711.381Z" fill="black"/>
<path d="M1114.54 712.786C1116.78 716.919 1118.08 720.432 1118.61 723.469C1119.91 730.916 1116.64 735.508 1111.59 739.393C1109.88 740.701 1107.98 741.924 1105.98 743.152C1103.47 744.72 1100.76 745.885 1097.93 746.609C1092.65 747.906 1087.39 747.249 1083.05 743.849C1080.72 742.02 1078.65 739.397 1076.99 735.854C1070.65 722.336 1075.17 711.851 1085.54 705.481C1095.91 699.111 1104.95 695.108 1114.54 712.786Z" fill="#2F2E41"/>
<path opacity="0.1" d="M1093.81 716.12C1101.91 711.148 1104.62 700.03 1099.88 691.288C1095.13 682.546 1084.73 679.49 1076.63 684.463C1068.54 689.435 1065.82 700.553 1070.56 709.295C1075.31 718.037 1085.72 721.093 1093.81 716.12Z" fill="black"/>
<path d="M1093.31 715.195C1101.4 710.223 1104.12 699.105 1099.38 690.363C1094.63 681.621 1084.22 678.566 1076.13 683.538C1068.03 688.511 1065.32 699.628 1070.06 708.37C1074.81 717.112 1085.21 720.168 1093.31 715.195Z" fill="#2F2E41"/>
<path d="M1080.5 696.187C1080.91 695.932 1081.05 695.364 1080.81 694.916C1080.56 694.469 1080.03 694.313 1079.62 694.567C1079.2 694.822 1079.06 695.39 1079.31 695.838C1079.55 696.285 1080.08 696.441 1080.5 696.187Z" fill="#FAFBFC"/>
<path d="M1084.13 693.953C1084.55 693.698 1084.69 693.13 1084.44 692.683C1084.2 692.235 1083.67 692.079 1083.25 692.333C1082.84 692.588 1082.7 693.156 1082.94 693.604C1083.19 694.051 1083.72 694.207 1084.13 693.953Z" fill="#FAFBFC"/>
<path opacity="0.1" d="M1088.64 706.597C1092.87 704.002 1095 699.515 1093.4 696.574C1091.81 693.634 1087.09 693.354 1082.86 695.95C1078.64 698.545 1076.51 703.032 1078.1 705.973C1079.7 708.913 1084.42 709.193 1088.64 706.597Z" fill="black"/>
<path d="M1088.48 706.3C1092.47 703.85 1094.48 699.613 1092.98 696.837C1091.47 694.061 1087.02 693.797 1083.03 696.247C1079.04 698.697 1077.02 702.934 1078.53 705.71C1080.04 708.486 1084.49 708.75 1088.48 706.3Z" fill="#FAFBFC"/>
<path opacity="0.1" d="M1097.93 746.609C1092.65 747.905 1087.39 747.249 1083.05 743.849C1083.56 743.223 1084.16 742.694 1084.83 742.283C1088.65 739.934 1094 741.87 1097.93 746.609Z" fill="black"/>
<path d="M1100.23 751.08C1104.09 758.193 1103.46 766.27 1098.82 769.119C1095.68 771.05 1091.5 770.087 1087.94 767.052C1086.12 765.486 1084.59 763.569 1083.42 761.403C1079.56 754.287 1080.19 746.209 1084.83 743.36C1089.02 740.789 1095.04 743.35 1099.01 749.113C1099.45 749.743 1099.86 750.4 1100.23 751.08Z" fill="#2F2E41"/>
<path opacity="0.1" d="M1100.23 751.079C1104.09 758.193 1103.46 766.27 1098.82 769.119C1095.68 771.049 1091.5 770.087 1087.94 767.052C1085.37 761.762 1087.95 754.688 1093.87 751.057C1095.45 750.068 1097.2 749.403 1099.02 749.095C1099.46 749.731 1099.86 750.394 1100.23 751.079Z" fill="black"/>
<path d="M1105.23 770.42C1111.29 766.699 1113.85 759.364 1110.96 754.035C1108.07 748.707 1100.82 747.403 1094.76 751.123C1088.7 754.844 1086.14 762.179 1089.03 767.508C1091.92 772.836 1099.17 774.14 1105.23 770.42Z" fill="#FAFBFC"/>
<path d="M1106.06 769.911C1111.66 766.472 1114 759.636 1111.29 754.643C1108.58 749.649 1101.84 748.389 1096.25 751.828C1090.65 755.266 1088.31 762.102 1091.02 767.096C1093.72 772.09 1100.46 773.35 1106.06 769.911Z" fill="#2F2E41"/>
<path opacity="0.1" d="M1104.16 757.538C1105.13 756.939 1105.35 755.387 1104.63 754.071C1103.92 752.756 1102.55 752.175 1101.57 752.774C1100.6 753.373 1100.39 754.925 1101.1 756.241C1101.81 757.556 1103.18 758.137 1104.16 757.538Z" fill="black"/>
<path d="M1103.96 757.178C1104.79 756.67 1104.97 755.353 1104.36 754.236C1103.76 753.119 1102.6 752.626 1101.77 753.134C1100.94 753.642 1100.76 754.959 1101.37 756.076C1101.97 757.193 1103.14 757.686 1103.96 757.178Z" fill="#FAFBFC"/>
<path opacity="0.1" d="M1099.88 762.536C1100.91 761.906 1101.22 760.438 1100.58 759.258C1099.94 758.077 1098.59 757.63 1097.56 758.26C1096.54 758.89 1096.23 760.357 1096.87 761.538C1097.51 762.719 1098.86 763.165 1099.88 762.536Z" fill="black"/>
<path d="M1099.73 762.246C1100.61 761.702 1100.88 760.433 1100.33 759.412C1099.77 758.391 1098.61 758.005 1097.72 758.549C1096.83 759.094 1096.56 760.363 1097.12 761.383C1097.67 762.404 1098.84 762.79 1099.73 762.246Z" fill="#FAFBFC"/>
<path opacity="0.1" d="M1099.41 768.762C1100.5 768.09 1100.97 766.768 1100.45 765.809C1099.93 764.85 1098.62 764.616 1097.52 765.288C1096.43 765.96 1095.97 767.281 1096.49 768.241C1097.01 769.2 1098.32 769.433 1099.41 768.762Z" fill="black"/>
<path d="M1099.28 768.527C1100.23 767.946 1100.63 766.803 1100.18 765.974C1099.73 765.144 1098.6 764.942 1097.65 765.523C1096.71 766.104 1096.31 767.247 1096.76 768.076C1097.21 768.906 1098.34 769.108 1099.28 768.527Z" fill="#FAFBFC"/>
<path opacity="0.1" d="M1109.51 764.942C1110.44 762.013 1110.02 759.203 1108.59 758.665C1107.15 758.127 1105.24 760.065 1104.32 762.994C1103.39 765.923 1103.8 768.733 1105.24 769.271C1106.67 769.809 1108.59 767.871 1109.51 764.942Z" fill="black"/>
<path d="M1109.34 764.878C1110.21 762.14 1109.82 759.514 1108.48 759.011C1107.14 758.509 1105.35 760.321 1104.49 763.058C1103.62 765.796 1104.01 768.423 1105.35 768.925C1106.69 769.428 1108.48 767.616 1109.34 764.878Z" fill="#FAFBFC"/>
<path opacity="0.1" d="M1118.61 723.469C1119.91 730.916 1116.64 735.508 1111.59 739.393C1109.37 733.167 1110.4 726.883 1114.37 724.441C1115.66 723.668 1117.13 723.329 1118.61 723.469Z" fill="black"/>
<path d="M1130.72 732.35C1132.01 734.693 1132.84 737.293 1133.15 739.984C1133.63 744.522 1132.31 748.548 1129.31 750.389C1124.67 753.238 1117.78 749.78 1113.92 742.667C1113.56 741.998 1113.23 741.308 1112.93 740.601C1110.22 734.052 1111.14 727.202 1115.33 724.625C1119.97 721.776 1126.86 725.234 1130.72 732.35Z" fill="#2F2E41"/>
<path opacity="0.1" d="M1133.13 739.954L1133.15 739.984C1133.63 744.522 1132.31 748.548 1129.31 750.389C1124.67 753.238 1117.78 749.78 1113.92 742.667C1113.56 741.998 1113.23 741.308 1112.93 740.601C1114.06 739.174 1115.42 737.972 1116.93 737.048C1122.99 733.328 1130.24 734.625 1133.13 739.954Z" fill="black"/>
<path d="M1127.16 756.947C1133.22 753.227 1135.79 745.892 1132.89 740.563C1130 735.235 1122.75 733.931 1116.69 737.651C1110.64 741.371 1108.07 748.707 1110.96 754.035C1113.85 759.364 1121.11 760.668 1127.16 756.947Z" fill="#FAFBFC"/>
<path d="M1126.23 757.522C1131.77 754.12 1134.06 747.313 1131.35 742.319C1128.64 737.326 1121.95 736.036 1116.41 739.439C1110.87 742.841 1108.58 749.648 1111.29 754.641C1114 759.635 1120.69 760.925 1126.23 757.522Z" fill="#2F2E41"/>
<path opacity="0.1" d="M1117.24 749.566C1118.23 748.956 1118.44 747.375 1117.72 746.035C1116.99 744.694 1115.59 744.102 1114.6 744.711C1113.61 745.321 1113.4 746.902 1114.12 748.242C1114.85 749.583 1116.24 750.175 1117.24 749.566Z" fill="black"/>
<path d="M1117.02 749.16C1117.84 748.652 1118.02 747.335 1117.42 746.218C1116.81 745.101 1115.65 744.608 1114.82 745.116C1113.99 745.624 1113.82 746.941 1114.42 748.058C1115.03 749.175 1116.19 749.668 1117.02 749.16Z" fill="#FAFBFC"/>
<path opacity="0.1" d="M1123.42 748.078C1124.44 747.448 1124.76 745.98 1124.12 744.8C1123.48 743.619 1122.12 743.172 1121.1 743.802C1120.07 744.432 1119.76 745.899 1120.4 747.08C1121.04 748.261 1122.39 748.707 1123.42 748.078Z" fill="black"/>
<path d="M1123.26 747.788C1124.15 747.244 1124.42 745.975 1123.86 744.954C1123.31 743.933 1122.14 743.547 1121.26 744.091C1120.37 744.636 1120.1 745.905 1120.66 746.925C1121.21 747.946 1122.38 748.332 1123.26 747.788Z" fill="#FAFBFC"/>
<path opacity="0.1" d="M1128.72 750.755C1129.82 750.083 1130.28 748.761 1129.76 747.802C1129.24 746.843 1127.93 746.61 1126.84 747.281C1125.75 747.953 1125.28 749.275 1125.8 750.234C1126.32 751.193 1127.63 751.426 1128.72 750.755Z" fill="black"/>
<path d="M1128.6 750.52C1129.54 749.94 1129.94 748.796 1129.49 747.967C1129.04 747.137 1127.91 746.935 1126.97 747.516C1126.02 748.097 1125.62 749.24 1126.07 750.069C1126.52 750.899 1127.65 751.101 1128.6 750.52Z" fill="#FAFBFC"/>
<path opacity="0.1" d="M1126.24 756.407C1126.52 754.816 1124.44 753.03 1121.59 752.417C1118.75 751.805 1116.21 752.598 1115.93 754.189C1115.65 755.781 1117.73 757.567 1120.58 758.179C1123.43 758.792 1125.96 757.998 1126.24 756.407Z" fill="black"/>
<path d="M1125.9 756.335C1126.16 754.849 1124.22 753.18 1121.56 752.607C1118.9 752.035 1116.53 752.776 1116.27 754.262C1116.01 755.748 1117.95 757.417 1120.61 757.99C1123.27 758.562 1125.64 757.821 1125.9 756.335Z" fill="#FAFBFC"/>
<path opacity="0.2" d="M999.488 688.775C999.488 689.128 999.348 689.466 999.098 689.715C998.848 689.964 998.509 690.104 998.155 690.104C997.801 690.104 997.462 689.964 997.212 689.715C996.962 689.466 996.821 689.128 996.821 688.775" fill="black"/>
<path d="M910.313 608.45L921.992 607.392L929.424 589.408L916.153 582.003L910.313 608.45Z" fill="#FFB8B8"/>
<path d="M1017.49 657.82C1017.88 656.855 1018.03 655.812 1017.94 654.776C1017.84 653.741 1017.5 652.743 1016.94 651.865C1016.38 650.987 1015.62 650.254 1014.72 649.726C1013.82 649.198 1012.81 648.89 1011.77 648.828L993.639 647.751L990.969 656.597L1009.64 661.705C1011.2 662.132 1012.86 661.972 1014.31 661.255C1015.76 660.539 1016.89 659.316 1017.49 657.82Z" fill="#FFB8B8"/>
<path d="M998.021 661.854L997.822 645.254L957.545 638.851L926.517 603.392C924.902 601.547 922.672 600.348 920.238 600.016C917.804 599.685 915.332 600.243 913.28 601.588C912.037 602.403 910.989 603.479 910.21 604.742C909.431 606.004 908.94 607.422 908.771 608.894C908.602 610.367 908.76 611.858 909.234 613.263C909.707 614.668 910.484 615.952 911.51 617.025L937.109 648.414L998.021 661.854Z" fill="#575A89"/>
<path d="M901.289 848.588H911.906L938.24 729.954L965.521 766.603L981.446 845.944H991.532L989.409 760.784L953.842 669.807H918.807C909.232 687.072 901.722 704.869 910.313 723.23L901.289 848.588Z" fill="#2F2E41"/>
<path d="M974.938 855.794C974.82 856.168 974.784 856.563 974.832 856.952C974.88 857.342 975.01 857.716 975.215 858.051C975.419 858.387 975.693 858.674 976.018 858.896C976.342 859.117 976.711 859.267 977.098 859.336L1003.08 863.93C1004.1 864.117 1005.16 863.923 1006.06 863.386C1006.95 862.848 1007.62 862.003 1007.93 861.01C1008.23 860.062 1008.19 859.038 1007.81 858.117C1007.43 857.197 1006.73 856.439 1005.85 855.977C1000.14 853.055 995.221 848.796 991.522 843.566C988.667 846.215 985.476 845.966 982.087 844.014L978.492 844.461L974.938 855.794Z" fill="#E6E6E6"/>
<path d="M896.373 855.794C896.256 856.168 896.22 856.563 896.267 856.952C896.315 857.342 896.446 857.716 896.65 858.051C896.854 858.387 897.128 858.674 897.453 858.896C897.778 859.117 898.146 859.267 898.534 859.336L924.513 863.93C925.54 864.117 926.6 863.923 927.493 863.386C928.386 862.848 929.051 862.003 929.362 861.01C929.665 860.062 929.623 859.038 929.243 858.117C928.863 857.197 928.17 856.439 927.285 855.977C921.572 853.055 916.656 848.796 912.957 843.566C910.102 846.215 906.911 845.966 903.522 844.014L899.927 844.461L896.373 855.794Z" fill="#E6E6E6"/>
<path d="M929.689 596.02C937.898 596.02 944.553 589.389 944.553 581.209C944.553 573.03 937.898 566.399 929.689 566.399C921.48 566.399 914.825 573.03 914.825 581.209C914.825 589.389 921.48 596.02 929.689 596.02Z" fill="#FFB8B8"/>
<path d="M916.418 673.774L955.169 672.716L943.789 637.027C950.861 625.729 943.744 614.444 933.67 603.16L925.708 597.871L912.967 596.813C907.451 602.694 904.433 610.474 904.545 618.523C904.797 635.759 907.86 654.521 916.418 673.774Z" fill="#575A89"/>
<path d="M1005.45 697.797C1006.19 697.062 1006.74 696.163 1007.06 695.173C1007.38 694.184 1007.46 693.133 1007.3 692.107C1007.13 691.08 1006.72 690.108 1006.1 689.27C1005.48 688.433 1004.68 687.753 1003.74 687.288L987.497 679.19L981.55 686.276L996.695 698.29C997.96 699.293 999.553 699.798 1001.17 699.707C1002.78 699.616 1004.31 698.936 1005.45 697.797Z" fill="#FFB8B8"/>
<path d="M985.958 693.874L992.328 678.534L957.827 656.86L943.3 612.097C942.544 609.768 940.967 607.791 938.86 606.532C936.753 605.273 934.26 604.818 931.842 605.251C930.378 605.512 928.99 606.091 927.775 606.947C926.561 607.802 925.549 608.913 924.813 610.2C924.076 611.488 923.633 612.921 923.513 614.398C923.394 615.875 923.601 617.36 924.121 618.749L935.263 657.641L985.958 693.874Z" fill="#575A89"/>
<path d="M905.27 575.391C905.27 581.154 909.026 590.078 913.764 593.904C916.951 596.478 921.164 596.37 922.788 592.846C924.454 589.232 930.197 580.736 940.306 575.391C953.781 568.266 935.527 556.077 922.788 557.936C913.215 559.333 905.27 565.751 905.27 575.391Z" fill="#2F2E41"/>
<path d="M914.294 567.457C920.158 567.457 924.911 562.721 924.911 556.878C924.911 551.036 920.158 546.299 914.294 546.299C908.431 546.299 903.678 551.036 903.678 556.878C903.678 562.721 908.431 567.457 914.294 567.457Z" fill="#2F2E41"/>
<path d="M926.504 553.175C926.503 550.508 925.49 547.94 923.669 545.986C921.848 544.032 919.352 542.835 916.683 542.637C916.947 542.617 917.211 542.597 917.48 542.597C920.295 542.597 922.996 543.711 924.987 545.695C926.978 547.679 928.096 550.37 928.096 553.175C928.096 555.981 926.978 558.672 924.987 560.656C922.996 562.64 920.295 563.754 917.48 563.754C917.211 563.754 916.947 563.734 916.683 563.714C919.352 563.516 921.848 562.319 923.669 560.365C925.49 558.411 926.503 555.842 926.504 553.175Z" fill="#2F2E41"/>
<path d="M929.954 586.499C931.274 586.499 932.343 585.078 932.343 583.325C932.343 581.572 931.274 580.151 929.954 580.151C928.635 580.151 927.566 581.572 927.566 583.325C927.566 585.078 928.635 586.499 929.954 586.499Z" fill="#FFB8B8"/>
<path d="M1230.76 829.188H1065.49L1030.49 664.336H1000.63V656.939H1036.51L1071.51 821.791H1230.76V829.188Z" fill="#3F3D56"/>
<path d="M1089.71 859.305C1098.5 859.305 1105.62 852.208 1105.62 843.454C1105.62 834.699 1098.5 827.603 1089.71 827.603C1080.93 827.603 1073.8 834.699 1073.8 843.454C1073.8 852.208 1080.93 859.305 1089.71 859.305Z" fill="#3F3D56"/>
<path d="M1208.49 859.305C1217.28 859.305 1224.4 852.208 1224.4 843.454C1224.4 834.699 1217.28 827.603 1208.49 827.603C1199.71 827.603 1192.58 834.699 1192.58 843.454C1192.58 852.208 1199.71 859.305 1208.49 859.305Z" fill="#3F3D56"/>
<path d="M1227.75 825.705H1066.95L1038.58 686H1254.38C1255.48 686 1256.56 686.237 1257.57 686.696C1258.57 687.156 1259.45 687.825 1260.17 688.659C1260.89 689.493 1261.41 690.471 1261.71 691.527C1262.01 692.583 1262.08 693.69 1261.91 694.774L1235.28 819.288C1235.01 821.079 1234.09 822.713 1232.71 823.891C1231.33 825.068 1229.57 825.712 1227.75 825.705ZM1068.7 823.591H1227.75C1229.06 823.597 1230.33 823.132 1231.33 822.282C1232.33 821.432 1232.99 820.253 1233.18 818.96L1259.81 694.446C1259.93 693.664 1259.89 692.864 1259.67 692.102C1259.45 691.34 1259.07 690.634 1258.56 690.032C1258.04 689.43 1257.4 688.947 1256.68 688.616C1255.96 688.284 1255.17 688.113 1254.38 688.113H1041.15L1068.7 823.591Z" fill="#3F3D56"/>
<path d="M1098.21 825.257L1079.63 687.228L1081.72 686.884L1100.3 824.913L1098.21 825.257Z" fill="#3F3D56"/>
<path d="M1201.52 824.197L1199.43 823.859L1217.47 686.887L1219.56 687.225L1201.52 824.197Z" fill="#3F3D56"/>
<path d="M1152.3 687.056H1150.18V825.085H1152.3V687.056Z" fill="#3F3D56"/>
<path d="M1049.41 724.042L1049.41 726.155L1254.73 726.651L1254.73 724.537L1049.41 724.042Z" fill="#3F3D56"/>
<path d="M1240.24 789.33L1059.87 790.559L1059.88 792.672L1240.26 791.444L1240.24 789.33Z" fill="#3F3D56"/>
<path d="M1003.81 665.921C1010.25 665.921 1015.47 663.082 1015.47 659.581C1015.47 656.079 1010.25 653.24 1003.81 653.24C997.365 653.24 992.142 656.079 992.142 659.581C992.142 663.082 997.365 665.921 1003.81 665.921Z" fill="#3F3D56"/>
</g>
<path d="M1197.55 330.067L1209.96 320.139C1200.32 319.075 1196.36 324.334 1194.74 328.497C1187.2 325.369 1179 329.469 1179 329.469L1203.84 338.486C1202.58 335.139 1200.4 332.219 1197.55 330.067V330.067Z" fill="white"/>
<path d="M604.273 531.36H602.655V493.128C602.655 490.222 601.991 487.344 600.702 484.66C599.412 481.975 597.522 479.536 595.139 477.481C592.756 475.426 589.928 473.796 586.814 472.684C583.701 471.572 580.364 471 576.994 471H483.063C479.693 471 476.356 471.572 473.243 472.684C470.129 473.796 467.301 475.426 464.918 477.481C462.535 479.536 460.645 481.975 459.355 484.66C458.066 487.344 457.402 490.222 457.402 493.128V702.872C457.402 705.778 458.066 708.656 459.355 711.34C460.645 714.025 462.535 716.464 464.918 718.519C467.301 720.574 470.129 722.204 473.243 723.316C476.356 724.428 479.693 725 483.063 725H576.994C580.364 725 583.701 724.428 586.814 723.316C589.928 722.204 592.756 720.574 595.139 718.519C597.522 716.464 599.412 714.025 600.702 711.34C601.991 708.656 602.655 705.778 602.655 702.872V558.574H604.273V531.36Z" fill="#3F3D56"/>
<path d="M578.03 476.757H565.769C566.332 477.949 566.548 479.242 566.395 480.523C566.243 481.804 565.728 483.032 564.895 484.101C564.062 485.17 562.937 486.045 561.62 486.651C560.302 487.256 558.832 487.573 557.339 487.573H503.527C502.034 487.573 500.564 487.256 499.246 486.651C497.929 486.045 496.804 485.17 495.971 484.101C495.138 483.032 494.623 481.804 494.471 480.523C494.318 479.242 494.534 477.949 495.097 476.757H483.645C481.129 476.757 478.637 477.184 476.312 478.015C473.987 478.845 471.875 480.062 470.095 481.597C468.316 483.131 466.904 484.953 465.941 486.958C464.978 488.963 464.482 491.111 464.482 493.282V702.718C464.482 704.888 464.978 707.037 465.941 709.042C466.904 711.047 468.316 712.869 470.095 714.403C471.875 715.938 473.987 717.155 476.312 717.985C478.637 718.816 481.129 719.243 483.645 719.243H578.03C580.546 719.243 583.038 718.816 585.363 717.985C587.688 717.155 589.801 715.938 591.58 714.403C593.36 712.869 594.771 711.047 595.734 709.042C596.697 707.037 597.193 704.888 597.193 702.718V493.282C597.193 488.899 595.174 484.696 591.58 481.597C587.986 478.498 583.112 476.757 578.03 476.757V476.757Z" fill="white"/>
<path d="M580.619 509.473H481.056V583.113H580.619V509.473Z" fill="#E6E6E6"/>
<path d="M510.601 598.47C514.625 598.47 517.886 595.657 517.886 592.187C517.886 588.718 514.625 585.905 510.601 585.905C506.578 585.905 503.316 588.718 503.316 592.187C503.316 595.657 506.578 598.47 510.601 598.47Z" fill="#6C63FF"/>
<path d="M514.244 591.664H511.208V589.046H509.994V591.664H506.959V592.711H509.994V595.329H511.208V592.711H514.244V591.664Z" fill="white"/>
<path d="M549.05 598.47C553.074 598.47 556.336 595.657 556.336 592.187C556.336 588.718 553.074 585.905 549.05 585.905C545.027 585.905 541.765 588.718 541.765 592.187C541.765 595.657 545.027 598.47 549.05 598.47Z" fill="#6C63FF"/>
<path d="M552.693 592.711V591.664H545.408V592.711H552.693Z" fill="white"/>
<path d="M580.619 613.128H481.056V686.769H580.619V613.128Z" fill="#E6E6E6"/>
<path d="M510.601 702.125C514.625 702.125 517.886 699.312 517.886 695.843C517.886 692.373 514.625 689.561 510.601 689.561C506.578 689.561 503.316 692.373 503.316 695.843C503.316 699.312 506.578 702.125 510.601 702.125Z" fill="#6C63FF"/>
<path d="M514.244 695.319H511.208V692.701H509.994V695.319H506.959V696.366H509.994V698.983H511.208V696.366H514.244V695.319Z" fill="white"/>
<path d="M549.05 702.125C553.074 702.125 556.336 699.312 556.336 695.843C556.336 692.373 553.074 689.561 549.05 689.561C545.027 689.561 541.765 692.373 541.765 695.843C541.765 699.312 545.027 702.125 549.05 702.125Z" fill="#6C63FF"/>
<path d="M552.693 696.366V695.319H545.408V696.366H552.693Z" fill="white"/>
<path d="M517.332 519.393C517.332 519.393 515.347 519.183 516.378 521.362C517.409 523.54 519.312 530.706 518.363 532.181C517.414 533.656 517.889 537.662 513.764 538.438L514.95 542.581C514.95 542.581 515.187 551.715 514.713 553.053C514.239 554.391 514.156 561.762 514.316 562.534C514.476 563.306 514.399 568.366 513.764 568.581C513.13 568.796 512.733 571.248 514.795 571.668C516.858 572.088 525.658 572.303 527.246 572.723C528.834 573.143 540.093 572.723 540.093 572.723C540.093 572.723 544.852 572.162 546.043 571.81C547.234 571.458 547.471 570.618 547.074 569.001C546.677 567.384 544.852 555.652 545.249 554.176C545.646 552.701 545.728 538.297 545.728 538.297C545.728 538.297 542.635 537.383 542.635 534.711C542.635 532.04 541.444 524.874 543.903 520.38C543.903 520.38 541.918 519.174 541.604 519.389C541.289 519.604 538.294 518.832 538.294 518.832C538.294 518.832 536.748 531.058 530.277 531.126C523.807 531.195 520.925 518.832 520.925 518.832C520.925 518.832 520.982 517.708 517.332 519.393Z" fill="#6C63FF"/>
<path d="M541.757 622.469C541.757 622.469 545.65 626.836 539.963 633.425C534.277 640.014 529.604 645.592 531.485 649.692C531.485 649.692 540.061 637.449 547.046 637.281C554.03 637.112 549.439 629.831 541.757 622.469Z" fill="#9F9EFF"/>
<path opacity="0.1" d="M541.843 622.469C542.179 622.89 542.445 623.35 542.631 623.836C549.379 630.706 552.969 637.117 546.486 637.281C540.45 637.431 533.2 646.79 531.467 649.154C531.524 649.336 531.593 649.516 531.672 649.692C531.672 649.692 540.164 637.449 547.079 637.281C553.995 637.112 549.449 629.831 541.843 622.469Z" fill="#9F9EFF"/>
<path d="M548.87 628.011C548.87 629.576 548.689 630.845 548.468 630.845C548.247 630.845 548.061 629.576 548.061 628.011C548.061 626.446 548.287 627.18 548.512 627.18C548.738 627.18 548.87 626.441 548.87 628.011Z" fill="#407BFF"/>
<path d="M551.54 629.808C549.966 630.544 548.588 630.99 548.473 630.803C548.359 630.615 549.534 629.864 551.108 629.127C552.682 628.39 552.065 628.93 552.201 629.127C552.338 629.324 553.114 629.085 551.54 629.808Z" fill="#407BFF"/>
<path d="M521.179 622.469C521.179 622.469 517.286 626.836 522.972 633.425C528.658 640.014 533.33 645.592 531.449 649.692C531.449 649.692 522.874 637.449 515.891 637.281C508.908 637.112 513.487 629.831 521.179 622.469Z" fill="#9F9EFF"/>
<path opacity="0.1" d="M521.277 622.469C520.933 622.89 520.662 623.35 520.472 623.836C513.581 630.706 509.915 637.117 516.536 637.281C522.704 637.431 530.102 646.79 531.872 649.154C531.816 649.337 531.746 649.517 531.662 649.692C531.662 649.692 522.991 637.449 515.93 637.281C508.868 637.112 513.499 629.831 521.277 622.469Z" fill="black"/>
<path d="M514.064 628.011C514.064 629.576 514.245 630.845 514.471 630.845C514.697 630.845 514.873 629.576 514.873 628.011C514.873 626.446 514.648 627.18 514.427 627.18C514.206 627.18 514.064 626.441 514.064 628.011Z" fill="#407BFF"/>
<path d="M511.393 629.808C512.97 630.544 514.34 630.99 514.46 630.803C514.58 630.615 513.396 629.864 511.824 629.127C510.252 628.39 510.869 628.93 510.732 629.127C510.596 629.324 509.821 629.085 511.393 629.808Z" fill="#407BFF"/>
<path d="M552.504 643.679L552.307 645.034L552.033 646.951L551.918 647.747L551.644 649.664L551.524 650.464L551.25 652.377L548.121 674.155C547.842 676.1 544.106 677.612 539.591 677.612H523.342C518.828 677.612 515.124 676.1 514.818 674.155L511.684 652.367L511.41 650.455L511.295 649.654L511.016 647.737L510.901 646.942L510.627 645.024L510.429 643.67C510.276 642.595 512.319 641.665 514.851 641.665H548.089C550.636 641.665 552.663 642.595 552.504 643.679Z" fill="#65617D"/>
<path d="M552.108 645.155L551.837 646.9H511.097L510.826 645.155H552.108Z" fill="#9D9CB5"/>
<path d="M552.108 647.598L551.835 649.692H511.51L511.231 647.598H552.108Z" fill="#9D9CB5"/>
<path d="M551.704 650.39L551.43 652.484H511.909L511.635 650.39H551.704Z" fill="#9D9CB5"/>
<path d="M796.122 232.412L811.772 241.471L802.27 225.701C804.961 223.741 808.292 222.656 811.734 222.618C811.818 222.618 811.902 222.619 811.986 222.62C813.073 222.636 814.16 222.562 815.233 222.401L820.537 225.471L818.263 221.697C822.021 220.501 825.268 218.252 827.542 215.27L837.034 220.765L831.037 210.812C836.588 204.73 844.072 201 852.306 201C862.177 201 870.971 206.359 876.647 214.708C878.326 217.206 880.698 219.255 883.524 220.646C886.35 222.036 889.528 222.72 892.737 222.627C892.913 222.621 893.09 222.618 893.268 222.618C904.166 222.618 913 233.896 913 247.809C913 261.722 904.166 273 893.268 273C890.871 272.992 888.513 272.453 886.395 271.429C882.685 269.784 878.628 268.893 874.504 268.82C870.381 268.746 866.289 269.491 862.511 271.003C859.32 272.312 855.863 272.993 852.364 273C848.865 273.007 845.404 272.342 842.206 271.046C838.459 269.563 834.405 268.832 830.321 268.905C826.237 268.977 822.217 269.849 818.535 271.464C816.435 272.465 814.103 272.992 811.734 273C800.836 273 792.002 261.722 792.002 247.809C791.939 242.442 793.355 237.147 796.122 232.412Z" fill="white"/>
<path d="M734.794 246.505L745.4 252.418L738.96 242.124C740.784 240.845 743.041 240.137 745.374 240.112C745.431 240.112 745.488 240.112 745.544 240.113C746.281 240.123 747.018 240.076 747.745 239.97L751.339 241.974L749.798 239.511C752.345 238.73 754.546 237.262 756.086 235.315L762.519 238.902L758.455 232.405C760.167 230.464 762.348 228.883 764.841 227.775C767.334 226.667 770.076 226.061 772.868 226C779.558 226 785.517 229.498 789.364 234.948C790.502 236.579 792.109 237.916 794.024 238.824C795.939 239.732 798.093 240.178 800.268 240.118C800.388 240.114 800.507 240.112 800.628 240.112C808.013 240.112 814 247.474 814 256.556C814 265.638 808.013 273 800.628 273C799.004 272.995 797.405 272.643 795.97 271.975C793.456 270.9 790.707 270.319 787.912 270.271C785.118 270.223 782.344 270.709 779.785 271.697C777.622 272.551 775.279 272.995 772.908 273C770.537 273.005 768.191 272.57 766.024 271.725C763.484 270.756 760.737 270.28 757.969 270.327C755.202 270.374 752.478 270.943 749.982 271.997C748.559 272.651 746.979 272.995 745.374 273C737.988 273 732.001 265.638 732.001 256.556C731.958 253.053 732.919 249.596 734.794 246.505Z" fill="white"/>
<path d="M895.549 247.067L907.963 237.139C898.319 236.075 894.357 241.334 892.735 245.497C885.202 242.369 877 246.469 877 246.469L901.837 255.486C900.584 252.139 898.403 249.219 895.549 247.067V247.067Z" fill="#3F3D56"/>
<path d="M386.549 321.067L398.963 311.139C389.319 310.075 385.357 315.334 383.735 319.497C376.202 316.369 368 320.469 368 320.469L392.837 329.486C391.584 326.139 389.403 323.219 386.549 321.067V321.067Z" fill="#1C1952"/>
<path d="M386.549 321.067L398.963 311.139C389.319 310.075 385.357 315.334 383.735 319.497C376.202 316.369 368 320.469 368 320.469L392.837 329.486C391.584 326.139 389.403 323.219 386.549 321.067V321.067Z" fill="#3F3D56"/>
<defs>
<linearGradient id="paint0_linear" x1="557.919" y1="-19.7448" x2="559.338" y2="1087" gradientUnits="userSpaceOnUse">
<stop stop-color="#7B0869" stop-opacity="0.7597"/>
<stop offset="0.244792" stop-color="#C910CD" stop-opacity="0.62"/>
<stop offset="0.557292" stop-color="#7328AD" stop-opacity="0.67823"/>
<stop offset="0.833333" stop-color="#622CA7" stop-opacity="0.69"/>
<stop offset="0.9999" stop-color="#260354" stop-opacity="0.69"/>
<stop offset="1" stop-color="#4E57AA" stop-opacity="0.36"/>
</linearGradient>
<clipPath id="clip0">
<rect width="552" height="459" fill="white" transform="translate(710 405)"/>
</clipPath>
</defs>
</svg>
