<svg version="1" xmlns="http://www.w3.org/2000/svg" width="682.667" height="682.667" viewBox="0 0 512.000000 512.000000"><path d="M81.7 1.6C62.4 5.1 44.6 14.5 30 29 16.3 42.5 8.2 56.4 2.7 75.9L.5 83.5.2 251.9c-.3 186.5-.6 177.3 6.2 195.2 5.1 13.7 11.8 24 22.6 34.9 13.5 13.7 27.4 21.8 46.9 27.3l7.6 2.2 168.4.3c186.5.3 177.3.6 195.2-6.2 13.7-5.1 24-11.8 34.9-22.6 13.7-13.5 21.8-27.4 27.3-46.9l2.2-7.6.3-168.4c.3-186.5.6-177.3-6.2-195.2-5.1-13.7-11.8-24-22.6-34.9-13.5-13.7-27.4-21.8-46.9-27.3L428.5.5 259 .3C116.4.2 88.3.4 81.7 1.6zm197.8 83.2c73.7 14.1 128.1 67.1 143.5 139.7 2.7 12.8 3.8 40.7 2.1 55.3-8.1 69.7-56.7 128.8-123.1 150-20.9 6.6-34.6 8.2-72.6 8.2h-29.2l9.6-25.4 9.6-25.4 24.1-.5c30.7-.7 40.7-2.8 60.5-12.7 30.4-15.3 53.7-42.5 64.4-75.4 14.5-44.2 3.6-92.5-28.3-125.9-18.5-19.4-42.7-32.2-70.6-37.3-8.7-1.6-14.8-1.9-46.3-1.7-20 .1-36.6.3-36.8.6-.2.2 13.1 29.1 29.6 64.3 16.5 35.1 30 64.5 30 65.4 0 1.5-79.4 171.4-81 173.5-.5.6-10.2.9-26.4.7l-25.6-.3v-356l77.8.4c73.9.4 78.2.5 88.7 2.5z"/></svg>
