<svg width="786" height="511" viewBox="0 0 786 511" fill="none" xmlns="http://www.w3.org/2000/svg">
<path d="M319.104 223.788C311.043 225.355 305.786 233.203 307.363 241.317C308.94 249.431 316.754 254.738 324.816 253.171C332.878 251.604 338.134 243.756 336.557 235.642C334.98 227.528 327.166 222.221 319.104 223.788Z" fill="#3F3D56"/>
<path d="M307.902 258.284L435.52 233.478L483.206 358.588L311.941 391.879C311.067 392.048 310.161 391.996 309.285 391.725C308.408 391.453 307.582 390.97 306.864 390.308C306.146 389.645 305.552 388.819 305.124 387.887C304.696 386.955 304.443 385.938 304.383 384.907L303.082 265.394C302.977 263.691 303.406 262.036 304.291 260.731C305.176 259.426 306.458 258.558 307.902 258.284V258.284ZM434.515 235.706L308.283 260.243C307.24 260.441 306.315 261.067 305.677 262.009C305.038 262.951 304.729 264.145 304.805 265.374L306.106 384.888C306.149 385.632 306.331 386.366 306.64 387.039C306.949 387.712 307.378 388.308 307.896 388.786C308.414 389.264 309.01 389.613 309.643 389.809C310.276 390.005 310.93 390.042 311.561 389.92L480.782 357.026L434.515 235.706Z" fill="#3F3D56"/>
<path d="M410.791 238.715L450.405 363.782L448.806 364.424L409.193 239.357L410.791 238.715Z" fill="#3F3D56"/>
<path d="M328.989 255.635L330.712 255.626L341.074 385.362L339.351 385.372L328.989 255.635Z" fill="#3F3D56"/>
<path d="M392.762 375.152L394.445 374.825L369.578 246.892L367.894 247.219L392.762 375.152Z" fill="#3F3D56"/>
<path d="M467.753 324.999L467.377 323.04L304.339 354.255L304.715 356.214L467.753 324.999Z" fill="#3F3D56"/>
<path d="M304.541 293.926L447.474 264.961L447.082 263.004L304.149 291.969L304.541 293.926Z" fill="#3F3D56"/>
<path d="M514.419 371.834C509.306 372.828 505.672 376.264 506.303 379.51C506.934 382.756 511.591 384.581 516.704 383.587C521.817 382.593 525.451 379.156 524.82 375.911C524.189 372.665 519.533 370.84 514.419 371.834Z" fill="#3F3D56"/>
<path d="M304.883 255.52L435.382 230.154L492.717 377.577L516.301 372.993L517.633 379.848L489.298 385.356L431.963 237.934L306.216 262.377L304.883 255.52Z" fill="#3F3D56"/>
<path d="M544.406 358.841C536.333 360.411 531.067 368.26 532.644 376.374C534.222 384.488 542.045 389.794 550.118 388.225C558.191 386.655 563.456 378.806 561.879 370.692C560.302 362.578 552.479 357.272 544.406 358.841Z" fill="#3F3D56"/>
<path d="M169.678 364.648L145.956 344.141L152.823 298.829L175.796 319.428L169.678 364.648Z" fill="#535461"/>
<path d="M156.688 405.631L186.464 406.313L169.589 363.918L149.519 386.69L152.532 394.543L156.688 405.631Z" fill="#535461"/>
<path d="M186.112 406.727L251.983 397.635L259.205 353.285L193.406 360.764L186.112 406.727Z" fill="#535461"/>
<path d="M241.331 311.011L259.205 353.285L193.478 361.355L175.354 319.112L241.331 311.011Z" fill="#535461"/>
<path opacity="0.07" d="M241.331 311.011L259.205 353.285L193.478 361.355L175.354 319.112L241.331 311.011Z" fill="black"/>
<path opacity="0.1" d="M209.675 314.548L219.435 338.261L204.363 360.134L193.618 361.453L176.243 319.118L209.675 314.548Z" fill="black"/>
<path d="M175.354 319.112L192.808 293.92L210.154 336.025L193.478 361.355L175.354 319.112Z" fill="#535461"/>
<path opacity="0.07" d="M175.354 319.112L192.808 293.92L210.154 336.025L193.478 361.355L175.354 319.112Z" fill="black"/>
<path d="M206.767 379.844C206.214 379.873 205.715 379.812 205.271 379.661C204.826 379.511 204.444 379.283 204.123 378.977C203.802 378.672 203.544 378.303 203.349 377.869C203.161 377.428 203.042 376.935 202.995 376.39L202.824 373.66C202.813 373.452 202.878 373.267 203.021 373.104C203.163 372.941 203.39 372.846 203.702 372.819C203.864 372.805 204.001 372.838 204.112 372.92C204.224 373.002 204.316 373.118 204.388 373.269C204.467 373.419 204.528 373.599 204.573 373.811C204.617 374.016 204.649 374.236 204.67 374.469C204.693 374.742 204.706 375.035 204.707 375.348C204.715 375.661 204.729 375.938 204.75 376.178C204.79 376.632 204.887 376.996 205.042 377.27C205.203 377.537 205.413 377.74 205.674 377.881C205.94 378.015 206.258 378.098 206.627 378.131C206.995 378.158 207.41 378.154 207.871 378.12L209.801 377.991C209.804 377.801 209.798 377.553 209.785 377.247C209.777 376.934 209.76 376.592 209.734 376.222C209.714 375.845 209.69 375.452 209.66 375.042C209.631 374.627 209.598 374.221 209.564 373.825C209.515 373.274 209.456 372.776 209.384 372.332C209.319 371.886 209.276 371.55 209.257 371.323C209.226 370.979 209.296 370.728 209.465 370.57C209.64 370.404 209.851 370.31 210.097 370.289C210.221 370.278 210.337 370.301 210.446 370.356C210.555 370.406 210.65 370.476 210.729 370.567C210.815 370.651 210.882 370.746 210.931 370.853C210.985 370.953 211.016 371.045 211.024 371.129C211.077 371.739 211.126 372.333 211.17 372.91C211.213 373.482 211.257 374.053 211.3 374.624C211.349 375.189 211.396 375.756 211.439 376.328C211.483 376.899 211.531 377.483 211.583 378.08C211.661 378.151 211.735 378.253 211.805 378.384C211.875 378.508 211.916 378.639 211.928 378.775C211.934 378.846 211.913 378.94 211.864 379.055C211.815 379.164 211.758 379.26 211.693 379.344C211.687 379.574 211.687 379.796 211.693 380.011C211.698 380.22 211.705 380.369 211.713 380.46C211.747 380.849 211.815 381.255 211.917 381.678C212.019 382.1 212.091 382.545 212.132 383.012C212.149 383.206 212.129 383.384 212.071 383.546C212.02 383.708 211.94 383.848 211.833 383.969C211.727 384.096 211.598 384.195 211.448 384.267C211.298 384.346 211.132 384.393 210.95 384.409C210.873 384.416 210.789 384.4 210.701 384.362C210.613 384.324 210.53 384.269 210.452 384.198C210.38 384.126 210.317 384.043 210.263 383.949C210.209 383.856 210.178 383.761 210.17 383.664L209.841 379.683L206.767 379.844ZM215.567 377.231C215.46 376.005 215.537 374.943 215.798 374.045C216.059 373.14 216.45 372.386 216.973 371.785C217.495 371.178 218.124 370.714 218.861 370.395C219.597 370.069 220.383 369.869 221.22 369.796C222.212 369.709 223.095 369.792 223.869 370.045C224.648 370.29 225.314 370.693 225.866 371.252C226.424 371.805 226.868 372.504 227.197 373.351C227.526 374.198 227.739 375.176 227.836 376.285C227.919 377.239 227.833 378.122 227.578 378.935C227.328 379.741 226.952 380.447 226.449 381.053C225.953 381.652 225.348 382.136 224.635 382.506C223.929 382.875 223.158 383.096 222.321 383.169C221.737 383.22 221.17 383.191 220.618 383.083C220.072 382.974 219.557 382.8 219.072 382.561C218.593 382.316 218.148 382.011 217.738 381.649C217.333 381.279 216.976 380.866 216.668 380.409C216.367 379.952 216.121 379.457 215.931 378.925C215.74 378.386 215.619 377.821 215.567 377.231ZM217.369 376.76C217.406 377.188 217.492 377.608 217.626 378.022C217.766 378.428 217.944 378.814 218.159 379.181C218.374 379.547 218.622 379.882 218.903 380.184C219.185 380.486 219.492 380.744 219.824 380.956C220.163 381.169 220.52 381.327 220.895 381.431C221.27 381.536 221.655 381.571 222.051 381.536C222.68 381.481 223.251 381.326 223.765 381.072C224.285 380.811 224.721 380.456 225.074 380.007C225.426 379.558 225.683 379.016 225.843 378.381C226.01 377.746 226.057 377.022 225.987 376.212C225.918 375.433 225.766 374.741 225.53 374.134C225.301 373.527 224.998 373.021 224.623 372.616C224.248 372.211 223.804 371.916 223.291 371.732C222.784 371.541 222.223 371.473 221.606 371.527C220.964 371.583 220.37 371.736 219.823 371.987C219.277 372.237 218.807 372.585 218.415 373.031C218.029 373.47 217.738 374.002 217.545 374.627C217.358 375.251 217.299 375.962 217.369 376.76ZM234.396 377.427C233.843 377.456 233.344 377.395 232.9 377.244C232.455 377.093 232.073 376.865 231.752 376.56C231.431 376.255 231.173 375.885 230.978 375.452C230.789 375.011 230.671 374.518 230.623 373.973L230.453 371.243C230.442 371.035 230.507 370.849 230.65 370.687C230.792 370.524 231.019 370.429 231.331 370.402C231.493 370.387 231.63 370.421 231.741 370.503C231.853 370.585 231.945 370.701 232.017 370.851C232.095 371.001 232.157 371.182 232.202 371.394C232.246 371.599 232.278 371.819 232.298 372.052C232.322 372.324 232.335 372.617 232.336 372.931C232.344 373.244 232.358 373.521 232.379 373.761C232.419 374.215 232.516 374.579 232.671 374.853C232.831 375.119 233.042 375.323 233.303 375.464C233.569 375.597 233.887 375.681 234.256 375.714C234.624 375.74 235.039 375.737 235.5 375.703L237.429 375.573C237.432 375.384 237.427 375.136 237.413 374.83C237.406 374.517 237.389 374.175 237.363 373.805C237.343 373.428 237.318 373.034 237.289 372.625C237.259 372.209 237.227 371.804 237.193 371.408C237.144 370.857 237.084 370.359 237.013 369.914C236.948 369.469 236.905 369.133 236.885 368.906C236.855 368.562 236.925 368.311 237.094 368.152C237.269 367.987 237.48 367.893 237.726 367.872C237.849 367.861 237.966 367.883 238.075 367.939C238.184 367.988 238.278 368.059 238.358 368.15C238.444 368.234 238.511 368.329 238.56 368.436C238.614 368.536 238.645 368.628 238.653 368.712C238.706 369.322 238.755 369.915 238.799 370.493C238.842 371.065 238.885 371.636 238.929 372.207C238.978 372.771 239.025 373.339 239.068 373.911C239.112 374.482 239.159 375.066 239.212 375.662C239.29 375.734 239.364 375.835 239.434 375.967C239.504 376.091 239.545 376.222 239.557 376.358C239.563 376.429 239.542 376.522 239.493 376.638C239.444 376.747 239.387 376.843 239.322 376.927C239.316 377.156 239.316 377.379 239.322 377.594C239.327 377.803 239.334 377.952 239.341 378.043C239.376 378.432 239.444 378.838 239.546 379.26C239.648 379.683 239.72 380.127 239.761 380.594C239.778 380.789 239.757 380.967 239.7 381.129C239.648 381.29 239.569 381.431 239.462 381.552C239.356 381.679 239.227 381.778 239.077 381.85C238.927 381.929 238.761 381.976 238.579 381.992C238.501 381.999 238.418 381.983 238.33 381.945C238.242 381.907 238.159 381.852 238.08 381.78C238.009 381.708 237.946 381.626 237.892 381.532C237.838 381.439 237.807 381.344 237.798 381.246L237.47 377.266L234.396 377.427Z" fill="white"/>
<path d="M648.856 315.114C648.856 315.114 622.479 324.913 610.05 347.74C597.622 370.566 603.849 397.776 603.849 397.776C603.849 397.776 630.227 387.977 642.655 365.151C655.083 342.324 648.856 315.114 648.856 315.114Z" fill="#8A548B"/>
<path d="M684.289 349.151C684.289 349.151 675.647 375.706 653.209 389.075C630.77 402.444 603.032 397.565 603.032 397.565C603.032 397.565 611.674 371.01 634.112 357.641C656.551 344.272 684.289 349.151 684.289 349.151Z" fill="#BD5DCC"/>
<path d="M773.789 405.019L23.7894 405.019L23.7894 407L773.789 407L773.789 405.019Z" fill="#2F2E41"/>
<path d="M658.288 405.01C658.288 405.01 640.826 399.649 606.027 394.273L606.788 383.717C612.788 324.297 572.788 235.167 572.788 235.167C588.069 279.452 595.337 326.061 594.258 372.848C588.92 363.626 578.609 353.677 558.788 347.57C558.788 347.57 584.566 369.463 591.947 392.236C558.103 387.797 524.051 385.082 489.925 384.1L498.788 363.911L481.788 380.746C481.788 380.746 474.788 330.239 459.788 328.259L470.788 377.775C470.788 377.775 457.788 367.872 454.788 368.862L462.186 383.514C412.367 383.003 353.101 385.233 284.42 392.38L292.788 373.319L275.788 390.155C275.788 390.155 268.788 339.648 253.788 337.667L264.788 387.184C264.788 387.184 251.788 377.28 248.788 378.271L257.431 395.389C234.987 398.033 211.606 401.24 187.288 405.01L658.288 405.01Z" fill="#8A548B"/>
<path d="M758.789 154.809L758.789 404.809L763.765 405.29L763.765 155.29L758.789 154.809Z" fill="#263238"/>
<path d="M719.858 232.387L764.016 155.904L759.946 153L715.789 229.482L719.858 232.387Z" fill="#263238"/>
<path d="M732.693 202.198C735.537 203.205 737.774 205.442 738.781 208.286L757.184 260.249C758.471 263.883 757.554 267.932 754.829 270.658L723.447 302.04C720.721 304.766 716.671 305.682 713.037 304.395L661.075 285.993C658.231 284.986 655.994 282.748 654.987 279.905L636.584 227.942C635.297 224.308 636.214 220.258 638.939 217.533L670.321 186.151C673.047 183.425 677.097 182.509 680.731 183.796L732.693 202.198Z" fill="#263238"/>
<path d="M686.737 274.192C687.114 274.597 687.388 275.018 687.558 275.455C687.729 275.893 687.8 276.332 687.772 276.774C687.745 277.216 687.627 277.651 687.42 278.079C687.204 278.507 686.902 278.915 686.516 279.302L684.534 281.187C684.382 281.329 684.198 281.398 683.981 281.394C683.765 281.389 683.546 281.277 683.325 281.056C683.21 280.94 683.148 280.814 683.139 280.676C683.13 280.538 683.16 280.393 683.229 280.241C683.293 280.084 683.392 279.921 683.526 279.75C683.655 279.585 683.802 279.419 683.968 279.253C684.161 279.06 684.377 278.862 684.617 278.659C684.851 278.452 685.054 278.263 685.224 278.093C685.547 277.771 685.763 277.462 685.873 277.168C685.975 276.873 685.995 276.581 685.936 276.291C685.867 276.001 685.726 275.704 685.514 275.4C685.298 275.101 685.029 274.785 684.706 274.454L683.367 273.059C683.219 273.179 683.033 273.342 682.807 273.549C682.573 273.757 682.322 273.989 682.055 274.247C681.779 274.505 681.493 274.776 681.199 275.062C680.899 275.352 680.609 275.637 680.328 275.918C679.937 276.309 679.594 276.675 679.3 277.016C679 277.352 678.77 277.601 678.609 277.762C678.365 278.006 678.128 278.114 677.898 278.086C677.658 278.059 677.451 277.957 677.276 277.782C677.189 277.695 677.131 277.591 677.104 277.472C677.071 277.357 677.065 277.239 677.083 277.119C677.092 277 677.122 276.887 677.173 276.781C677.214 276.675 677.265 276.592 677.325 276.533C677.757 276.1 678.181 275.681 678.595 275.276C679.005 274.875 679.415 274.475 679.824 274.074C680.225 273.674 680.63 273.273 681.04 272.873C681.449 272.472 681.866 272.06 682.29 271.637C682.294 271.531 682.324 271.409 682.379 271.271C682.43 271.137 682.504 271.022 682.6 270.925C682.651 270.875 682.736 270.831 682.856 270.794C682.971 270.762 683.081 270.744 683.187 270.739C683.367 270.596 683.537 270.454 683.698 270.311C683.855 270.173 683.965 270.071 684.03 270.007C684.306 269.731 684.573 269.418 684.831 269.068C685.089 268.718 685.383 268.377 685.715 268.046C685.853 267.908 686.002 267.809 686.163 267.749C686.32 267.684 686.479 267.655 686.64 267.659C686.806 267.659 686.964 267.694 687.116 267.763C687.273 267.827 687.416 267.924 687.545 268.053C687.6 268.108 687.641 268.182 687.669 268.274C687.696 268.366 687.708 268.465 687.703 268.571C687.694 268.672 687.671 268.773 687.634 268.875C687.597 268.976 687.545 269.061 687.475 269.13L684.637 271.94L686.737 274.192ZM679.079 269.13C678.209 270 677.345 270.624 676.489 271.001C675.628 271.383 674.8 271.568 674.003 271.554C673.202 271.545 672.443 271.36 671.724 271.001C671.002 270.647 670.343 270.173 669.749 269.579C669.045 268.875 668.541 268.145 668.237 267.39C667.924 266.635 667.804 265.866 667.878 265.083C667.943 264.301 668.193 263.511 668.631 262.715C669.068 261.919 669.68 261.127 670.468 260.34C671.144 259.663 671.876 259.161 672.664 258.834C673.442 258.507 674.224 258.342 675.011 258.337C675.789 258.332 676.549 258.484 677.29 258.793C678.027 259.097 678.692 259.545 679.286 260.139C679.7 260.554 680.043 261.007 680.315 261.5C680.582 261.988 680.78 262.494 680.909 263.019C681.028 263.544 681.081 264.08 681.067 264.628C681.044 265.176 680.957 265.714 680.805 266.244C680.648 266.768 680.427 267.275 680.142 267.763C679.852 268.255 679.498 268.711 679.079 269.13ZM677.559 268.053C677.863 267.749 678.13 267.413 678.36 267.045C678.581 266.676 678.763 266.292 678.906 265.891C679.049 265.491 679.145 265.086 679.196 264.676C679.247 264.266 679.247 263.866 679.196 263.475C679.141 263.079 679.033 262.703 678.871 262.349C678.71 261.994 678.489 261.677 678.209 261.396C677.762 260.949 677.276 260.611 676.751 260.381C676.217 260.151 675.665 260.045 675.094 260.063C674.523 260.082 673.943 260.234 673.354 260.519C672.76 260.8 672.176 261.228 671.6 261.803C671.048 262.356 670.615 262.918 670.302 263.488C669.984 264.055 669.791 264.612 669.722 265.159C669.653 265.707 669.713 266.237 669.901 266.748C670.081 267.259 670.389 267.733 670.827 268.17C671.282 268.626 671.782 268.983 672.325 269.24C672.868 269.498 673.437 269.634 674.031 269.648C674.615 269.662 675.209 269.542 675.812 269.289C676.411 269.031 676.993 268.619 677.559 268.053ZM667.125 254.58C667.503 254.986 667.777 255.407 667.947 255.844C668.118 256.281 668.189 256.721 668.161 257.163C668.134 257.605 668.016 258.04 667.809 258.468C667.593 258.896 667.291 259.304 666.904 259.69L664.923 261.576C664.771 261.718 664.587 261.787 664.37 261.783C664.154 261.778 663.935 261.665 663.714 261.444C663.599 261.329 663.537 261.203 663.528 261.065C663.519 260.926 663.548 260.781 663.618 260.63C663.682 260.473 663.781 260.31 663.914 260.139C664.043 259.974 664.191 259.808 664.356 259.642C664.55 259.449 664.766 259.251 665.006 259.048C665.24 258.841 665.443 258.652 665.613 258.482C665.935 258.16 666.152 257.851 666.262 257.557C666.364 257.262 666.384 256.97 666.324 256.68C666.255 256.39 666.115 256.093 665.903 255.789C665.687 255.49 665.418 255.174 665.095 254.843L663.756 253.448C663.608 253.568 663.422 253.731 663.196 253.938C662.962 254.145 662.711 254.378 662.444 254.636C662.167 254.894 661.882 255.165 661.587 255.451C661.288 255.741 660.998 256.026 660.717 256.307C660.326 256.698 659.983 257.064 659.688 257.405C659.389 257.741 659.159 257.989 658.998 258.151C658.754 258.395 658.517 258.503 658.287 258.475C658.047 258.447 657.84 258.346 657.665 258.171C657.578 258.084 657.52 257.98 657.492 257.86C657.46 257.745 657.453 257.628 657.472 257.508C657.481 257.389 657.511 257.276 657.562 257.17C657.603 257.064 657.654 256.981 657.713 256.921C658.146 256.489 658.57 256.07 658.984 255.665C659.394 255.264 659.803 254.864 660.213 254.463C660.614 254.063 661.019 253.662 661.429 253.262C661.838 252.861 662.255 252.449 662.678 252.025C662.683 251.92 662.713 251.798 662.768 251.66C662.819 251.526 662.892 251.411 662.989 251.314C663.04 251.264 663.125 251.22 663.245 251.183C663.36 251.151 663.47 251.132 663.576 251.128C663.756 250.985 663.926 250.842 664.087 250.7C664.244 250.562 664.354 250.46 664.419 250.396C664.695 250.12 664.962 249.807 665.22 249.457C665.477 249.107 665.772 248.766 666.103 248.435C666.242 248.297 666.391 248.198 666.552 248.138C666.709 248.073 666.868 248.043 667.029 248.048C667.195 248.048 667.353 248.083 667.505 248.152C667.662 248.216 667.804 248.313 667.933 248.442C667.989 248.497 668.03 248.571 668.058 248.663C668.085 248.755 668.097 248.854 668.092 248.96C668.083 249.061 668.06 249.162 668.023 249.263C667.986 249.365 667.933 249.45 667.864 249.519L665.026 252.329L667.125 254.58ZM709.227 257.377C709.048 257.557 708.848 257.762 708.627 257.992C708.406 258.222 708.198 258.434 708.005 258.627C707.71 258.922 707.397 259.23 707.066 259.552C706.734 259.875 706.398 260.201 706.058 260.533C705.712 260.869 705.367 261.205 705.022 261.541C704.677 261.877 704.338 262.211 704.007 262.542C703.666 262.883 703.339 263.237 703.026 263.606C702.709 263.969 702.359 264.342 701.977 264.724C701.912 264.789 701.822 264.86 701.707 264.938C701.588 265.012 701.461 265.07 701.328 265.111C701.189 265.157 701.056 265.176 700.927 265.166C700.794 265.162 700.678 265.111 700.582 265.014C700.388 264.821 700.273 264.614 700.237 264.393C700.191 264.172 700.197 263.944 700.257 263.709C700.313 263.47 700.405 263.226 700.533 262.977C700.662 262.729 700.8 262.48 700.948 262.232C701.091 261.978 701.231 261.727 701.369 261.479C701.498 261.23 701.595 260.986 701.659 260.747C701.779 260.323 701.905 259.861 702.039 259.359C702.172 258.857 702.304 258.353 702.432 257.847C702.557 257.336 702.679 256.841 702.798 256.362C702.909 255.883 703.003 255.453 703.082 255.071C703.141 254.661 703.199 254.267 703.254 253.89C703.305 253.508 703.346 253.167 703.378 252.868C703.406 252.573 703.422 252.332 703.427 252.143C703.427 251.95 703.406 251.832 703.365 251.791C703.351 251.777 703.284 251.816 703.164 251.908C703.04 251.996 702.888 252.115 702.709 252.267C702.525 252.424 702.322 252.599 702.101 252.792C701.871 252.985 701.65 253.179 701.438 253.372C701.217 253.565 701.012 253.747 700.824 253.918C700.63 254.083 700.476 254.219 700.361 254.325C699.758 254.919 699.226 255.441 698.766 255.892C698.305 256.344 697.898 256.746 697.543 257.101C697.18 257.455 696.858 257.773 696.577 258.054C696.296 258.335 696.031 258.599 695.783 258.848C695.552 259.078 695.341 259.271 695.147 259.428C694.954 259.585 694.772 259.697 694.602 259.766C694.427 259.831 694.266 259.849 694.118 259.822C693.962 259.794 693.815 259.711 693.676 259.573C693.561 259.458 693.472 259.35 693.407 259.248C693.338 259.152 693.306 259.046 693.31 258.931C693.31 258.82 693.357 258.696 693.449 258.558C693.531 258.42 693.67 258.254 693.863 258.061C694.337 257.587 694.818 257.129 695.306 256.687C695.79 256.249 696.277 255.798 696.77 255.333C697.608 254.541 698.473 253.745 699.366 252.944C700.255 252.147 701.141 251.353 702.025 250.562C702.232 250.382 702.451 250.186 702.681 249.975C702.911 249.763 703.153 249.595 703.406 249.471C703.65 249.346 703.906 249.298 704.173 249.325C704.44 249.344 704.72 249.5 705.015 249.795C705.079 249.86 705.13 249.933 705.167 250.016C705.204 250.099 705.234 250.184 705.257 250.272C705.28 250.35 705.294 250.428 705.298 250.506C705.303 250.585 705.3 250.647 705.291 250.693C705.277 251.517 705.218 252.359 705.112 253.22C704.997 254.081 704.856 254.94 704.69 255.796C704.525 256.652 704.338 257.497 704.131 258.33C703.915 259.163 703.692 259.962 703.461 260.726C704.608 259.58 705.455 258.701 706.003 258.088C706.55 257.476 706.852 257.133 706.907 257.059C707.022 256.889 707.163 256.693 707.328 256.473C707.489 256.247 707.681 256.024 707.901 255.803C708.03 255.674 708.164 255.563 708.302 255.471C708.435 255.375 708.571 255.308 708.709 255.271C708.848 255.234 708.983 255.232 709.117 255.264C709.25 255.296 709.379 255.375 709.504 255.499C709.683 255.678 709.798 255.849 709.849 256.01C709.895 256.176 709.897 256.334 709.856 256.486C709.81 256.643 709.731 256.795 709.621 256.942C709.501 257.089 709.37 257.234 709.227 257.377ZM696.404 251.514C695.81 252.108 695.212 252.578 694.609 252.923C694.001 253.264 693.403 253.499 692.813 253.628C692.215 253.756 691.628 253.791 691.052 253.731C690.472 253.667 689.913 253.531 689.374 253.324C688.836 253.117 688.325 252.845 687.841 252.509C687.349 252.173 686.893 251.795 686.474 251.376C685.751 250.654 685.22 249.887 684.879 249.077C684.538 248.267 684.389 247.44 684.43 246.598C684.467 245.76 684.697 244.918 685.121 244.071C685.54 243.228 686.147 242.409 686.944 241.612C687.404 241.152 687.901 240.779 688.435 240.494C688.965 240.204 689.51 239.994 690.072 239.865C690.634 239.736 691.202 239.683 691.778 239.706C692.344 239.729 692.901 239.821 693.449 239.983C693.996 240.144 694.519 240.372 695.016 240.666C695.513 240.961 695.967 241.313 696.376 241.723C696.814 242.16 697.171 242.655 697.447 243.207C697.718 243.755 697.916 244.331 698.041 244.934C698.165 245.537 698.22 246.149 698.206 246.771C698.193 247.392 698.112 247.993 697.965 248.573C697.817 249.153 697.615 249.696 697.357 250.202C697.09 250.709 696.772 251.146 696.404 251.514ZM694.94 250.465C695.253 250.152 695.525 249.793 695.755 249.388C695.976 248.983 696.151 248.554 696.28 248.103C696.404 247.647 696.482 247.183 696.515 246.708C696.542 246.239 696.519 245.778 696.446 245.327C696.363 244.876 696.229 244.448 696.045 244.043C695.856 243.642 695.608 243.288 695.299 242.979C694.811 242.492 694.27 242.107 693.676 241.826C693.073 241.545 692.452 241.394 691.812 241.371C691.172 241.348 690.528 241.467 689.879 241.73C689.229 241.992 688.608 242.42 688.014 243.014C687.434 243.594 686.994 244.199 686.695 244.83C686.391 245.456 686.221 246.078 686.184 246.695C686.147 247.311 686.239 247.905 686.46 248.476C686.681 249.047 687.024 249.565 687.489 250.03C687.991 250.532 688.55 250.948 689.167 251.28C689.78 251.607 690.415 251.809 691.073 251.887C691.731 251.966 692.394 251.897 693.062 251.68C693.72 251.464 694.346 251.059 694.94 250.465ZM685.528 233.416C685.418 233.526 685.303 233.632 685.183 233.733C685.063 233.835 684.944 233.945 684.824 234.065C684.677 234.212 684.541 234.366 684.416 234.527C684.283 234.688 684.152 234.852 684.023 235.018C683.894 235.183 683.763 235.351 683.629 235.522C683.491 235.687 683.344 235.849 683.187 236.005C682.939 236.254 682.704 236.511 682.483 236.778C682.257 237.041 682.032 237.308 681.806 237.58C681.581 237.851 681.353 238.125 681.123 238.401C680.883 238.677 680.632 238.951 680.37 239.223L678.927 240.694C679.079 240.837 679.254 240.984 679.451 241.136C679.645 241.292 679.847 241.449 680.059 241.605C680.262 241.762 680.467 241.925 680.674 242.096C680.876 242.261 681.06 242.427 681.226 242.593C681.53 242.897 681.714 243.15 681.779 243.352C681.834 243.555 681.792 243.734 681.654 243.891C681.47 244.103 681.284 244.239 681.095 244.298C680.906 244.358 680.724 244.37 680.549 244.333C680.37 244.301 680.2 244.232 680.038 244.126C679.873 244.015 679.725 243.896 679.596 243.767C678.915 243.085 678.215 242.413 677.497 241.75C676.775 241.083 676.045 240.381 675.308 239.644C675.202 239.538 675.09 239.439 674.97 239.347C674.846 239.26 674.721 239.172 674.597 239.085C674.468 238.993 674.344 238.901 674.224 238.809C674.095 238.717 673.973 238.613 673.858 238.498C673.748 238.387 673.674 238.263 673.637 238.125C673.6 237.987 673.591 237.844 673.61 237.697C673.623 237.554 673.667 237.414 673.741 237.276C673.805 237.138 673.89 237.016 673.996 236.91C674.061 236.845 674.157 236.79 674.286 236.744C674.411 236.703 674.546 236.677 674.694 236.668C674.841 236.659 674.986 236.67 675.129 236.703C675.267 236.739 675.38 236.802 675.467 236.889C675.573 236.995 675.654 237.108 675.709 237.227C675.759 237.352 675.803 237.474 675.84 237.593C675.868 237.713 675.898 237.821 675.93 237.918C675.957 238.019 675.999 238.097 676.054 238.153C676.1 238.199 676.192 238.286 676.33 238.415C676.459 238.544 676.604 238.684 676.765 238.836C676.922 238.984 677.076 239.124 677.228 239.258C677.375 239.386 677.49 239.478 677.573 239.534L677.725 239.382C677.799 239.308 677.914 239.193 678.07 239.037C678.218 238.88 678.436 238.657 678.726 238.367C679.191 237.902 679.64 237.421 680.073 236.924C680.496 236.426 680.915 235.911 681.33 235.377C681.753 234.898 682.184 234.426 682.621 233.961C683.054 233.492 683.473 232.99 683.878 232.456C683.91 232.414 683.956 232.341 684.016 232.235C684.076 232.129 684.143 232.016 684.216 231.896C684.285 231.781 684.354 231.671 684.423 231.565C684.488 231.454 684.541 231.379 684.582 231.337C684.688 231.231 684.785 231.148 684.872 231.088C684.955 231.033 685.043 231.006 685.135 231.006C685.227 231.006 685.328 231.038 685.438 231.102C685.549 231.167 685.678 231.268 685.825 231.406C686.037 231.599 686.17 231.784 686.226 231.959C686.281 232.134 686.283 232.302 686.233 232.463C686.177 232.628 686.085 232.79 685.956 232.946C685.827 233.103 685.685 233.259 685.528 233.416ZM737.67 250.023C737.638 250.055 737.571 250.108 737.47 250.182C737.369 250.255 737.258 250.338 737.139 250.43C737.019 250.522 736.899 250.614 736.78 250.707C736.655 250.803 736.554 250.891 736.476 250.969L731.007 256.438C730.933 256.512 730.836 256.608 730.717 256.728C730.592 256.843 730.457 256.965 730.309 257.094C730.153 257.223 729.989 257.345 729.819 257.46C729.644 257.57 729.474 257.658 729.308 257.722C729.142 257.787 728.983 257.817 728.832 257.812C728.68 257.808 728.546 257.748 728.431 257.633C728.311 257.513 728.205 257.384 728.113 257.246C728.012 257.108 727.918 256.967 727.83 256.825C727.734 256.682 727.639 256.542 727.547 256.403C727.446 256.265 727.333 256.134 727.209 256.01L723.715 252.516C723.669 252.47 723.602 252.412 723.514 252.343C723.422 252.279 723.33 252.21 723.238 252.136C723.142 252.067 723.049 251.998 722.962 251.929C722.87 251.864 722.799 251.807 722.748 251.756C722.66 251.669 722.589 251.547 722.534 251.39C722.479 251.234 722.449 251.07 722.444 250.9C722.435 250.725 722.453 250.555 722.499 250.389C722.541 250.228 722.617 250.092 722.727 249.982C722.934 249.774 723.144 249.666 723.356 249.657C723.563 249.652 723.779 249.763 724.005 249.988C724.042 250.025 724.111 250.113 724.212 250.251C724.304 250.389 724.405 250.536 724.516 250.693C724.617 250.849 724.716 250.999 724.813 251.142C724.9 251.284 724.958 251.379 724.985 251.425C725.008 251.448 725.087 251.521 725.22 251.646C725.349 251.775 725.515 251.936 725.717 252.129C725.92 252.322 726.145 252.539 726.394 252.778C726.643 253.018 726.896 253.262 727.154 253.51C727.757 254.086 728.438 254.739 729.198 255.471C729.234 255.508 729.283 255.524 729.343 255.52C729.398 255.51 729.432 255.499 729.446 255.485C729.593 255.365 729.732 255.25 729.86 255.14C729.985 255.034 730.127 254.905 730.289 254.753C730.445 254.606 730.638 254.422 730.869 254.201C731.094 253.975 731.384 253.685 731.739 253.331C731.789 253.28 731.817 253.225 731.822 253.165C731.817 253.105 731.803 253.041 731.78 252.972C731.748 252.902 731.706 252.833 731.656 252.764C731.601 252.7 731.543 252.638 731.483 252.578C731.05 252.145 730.583 251.733 730.081 251.342C729.57 250.951 729.064 250.559 728.562 250.168C728.479 250.103 728.394 250.046 728.307 249.995C728.215 249.94 728.123 249.885 728.031 249.83C727.934 249.77 727.837 249.705 727.741 249.636C727.644 249.567 727.549 249.487 727.457 249.395C727.319 249.256 727.243 249.121 727.23 248.987C727.207 248.854 727.216 248.734 727.257 248.628C727.294 248.518 727.347 248.423 727.416 248.345C727.48 248.262 727.531 248.202 727.568 248.165C727.724 248.009 727.881 247.912 728.037 247.875C728.185 247.839 728.341 247.852 728.507 247.917C728.668 247.977 728.841 248.08 729.025 248.228C729.204 248.379 729.402 248.564 729.619 248.78C729.89 249.052 730.178 249.307 730.482 249.546C730.777 249.786 731.078 250.023 731.387 250.258C731.69 250.497 731.997 250.739 732.305 250.983C732.604 251.227 732.894 251.489 733.175 251.77C733.322 251.623 733.437 251.508 733.52 251.425C733.599 251.337 733.645 251.287 733.658 251.273C734.068 250.863 734.478 250.435 734.888 249.988C735.288 249.542 735.739 249.068 736.241 248.566C736.338 248.469 736.45 248.37 736.579 248.269C736.699 248.168 736.828 248.089 736.966 248.034C737.1 247.984 737.238 247.965 737.38 247.979C737.514 247.993 737.645 248.064 737.774 248.193C737.935 248.354 738.046 248.515 738.105 248.676C738.165 248.838 738.186 248.996 738.168 249.153C738.145 249.305 738.092 249.454 738.009 249.602C737.917 249.749 737.804 249.889 737.67 250.023ZM725.413 245.168C724.82 245.762 724.221 246.232 723.618 246.577C723.01 246.918 722.412 247.153 721.823 247.282C721.224 247.41 720.637 247.445 720.062 247.385C719.482 247.321 718.922 247.185 718.384 246.978C717.845 246.771 717.334 246.499 716.851 246.163C716.358 245.827 715.902 245.449 715.484 245.03C714.761 244.308 714.229 243.541 713.888 242.731C713.548 241.921 713.398 241.094 713.44 240.252C713.476 239.414 713.707 238.572 714.13 237.725C714.549 236.882 715.157 236.063 715.953 235.266C716.413 234.806 716.911 234.433 717.445 234.148C717.974 233.858 718.52 233.648 719.081 233.519C719.643 233.39 720.211 233.337 720.787 233.36C721.353 233.383 721.91 233.475 722.458 233.637C723.006 233.798 723.528 234.026 724.025 234.32C724.523 234.615 724.976 234.967 725.386 235.377C725.823 235.814 726.18 236.309 726.456 236.861C726.728 237.409 726.926 237.985 727.05 238.588C727.174 239.191 727.23 239.803 727.216 240.425C727.202 241.046 727.121 241.647 726.974 242.227C726.827 242.807 726.624 243.35 726.366 243.856C726.099 244.363 725.782 244.8 725.413 245.168ZM723.949 244.119C724.263 243.806 724.534 243.447 724.764 243.042C724.985 242.637 725.16 242.208 725.289 241.757C725.413 241.301 725.492 240.837 725.524 240.362C725.552 239.893 725.529 239.432 725.455 238.981C725.372 238.53 725.238 238.102 725.054 237.697C724.866 237.296 724.617 236.942 724.309 236.633C723.821 236.146 723.28 235.761 722.686 235.48C722.083 235.199 721.461 235.048 720.821 235.025C720.181 235.002 719.537 235.121 718.888 235.384C718.239 235.646 717.617 236.074 717.023 236.668C716.443 237.248 716.004 237.853 715.705 238.484C715.401 239.11 715.23 239.732 715.194 240.349C715.157 240.965 715.249 241.559 715.47 242.13C715.691 242.701 716.034 243.219 716.499 243.684C717 244.186 717.56 244.602 718.177 244.934C718.789 245.261 719.424 245.463 720.082 245.541C720.741 245.62 721.404 245.551 722.071 245.334C722.73 245.118 723.356 244.713 723.949 244.119ZM715.511 225.433C715.925 225.847 716.213 226.287 716.374 226.752C716.531 227.222 716.593 227.698 716.561 228.181C716.524 228.669 716.407 229.16 716.209 229.652C716.011 230.145 715.764 230.626 715.47 231.095C715.175 231.565 714.848 232.016 714.489 232.449C714.125 232.877 713.762 233.273 713.398 233.637C713.131 233.904 712.827 234.189 712.487 234.493C712.141 234.801 711.787 235.105 711.423 235.404C711.06 235.704 710.698 235.991 710.339 236.267C709.975 236.539 709.639 236.774 709.331 236.972C709.174 237.073 708.981 237.115 708.751 237.096C708.521 237.078 708.313 236.976 708.129 236.792C708.019 236.682 707.945 236.576 707.908 236.475C707.872 236.373 707.86 236.274 707.874 236.178C707.888 236.081 707.924 235.989 707.984 235.902C708.035 235.814 708.102 235.729 708.185 235.646C708.235 235.595 708.293 235.542 708.357 235.487C708.422 235.432 708.486 235.381 708.551 235.335C708.795 235.165 709.062 234.972 709.352 234.755C709.632 234.539 709.918 234.313 710.208 234.079C710.493 233.848 710.772 233.616 711.043 233.381C711.306 233.146 711.541 232.925 711.748 232.718C712.047 232.419 712.355 232.097 712.673 231.751C712.986 231.402 713.283 231.04 713.564 230.667C713.835 230.294 714.075 229.917 714.282 229.535C714.489 229.153 714.632 228.775 714.71 228.402C714.788 228.029 714.788 227.67 714.71 227.325C714.627 226.975 714.439 226.653 714.144 226.358C713.794 226.008 713.428 225.735 713.046 225.537C712.659 225.334 712.273 225.214 711.886 225.178C711.495 225.145 711.112 225.196 710.74 225.329C710.362 225.458 710.005 225.677 709.669 225.985L705.692 229.631C705.185 230.092 704.739 230.46 704.352 230.736C703.961 231.017 703.62 231.215 703.33 231.33C703.04 231.445 702.792 231.487 702.584 231.454C702.373 231.427 702.193 231.339 702.046 231.192C701.894 231.04 701.855 230.835 701.928 230.577C701.997 230.324 702.149 230.08 702.384 229.846C702.439 229.79 702.603 229.668 702.874 229.48C703.146 229.291 703.489 229.045 703.903 228.741C704.308 228.437 704.76 228.078 705.257 227.663C705.749 227.254 706.244 226.8 706.741 226.303C706.995 226.05 707.257 225.783 707.529 225.502C707.8 225.221 708.076 224.936 708.357 224.646C708.629 224.356 708.905 224.066 709.186 223.776C709.462 223.481 709.734 223.2 710.001 222.933C710.139 222.795 710.284 222.701 710.436 222.65C710.588 222.6 710.737 222.579 710.885 222.588C711.032 222.597 711.175 222.634 711.313 222.699C711.442 222.763 711.557 222.846 711.658 222.947C711.709 222.998 711.736 223.062 711.741 223.14C711.741 223.223 711.734 223.308 711.72 223.396C711.697 223.483 711.672 223.569 711.644 223.651C711.612 223.73 711.587 223.796 711.568 223.852C711.904 223.847 712.238 223.868 712.569 223.914C712.901 223.96 713.232 224.043 713.564 224.162C713.895 224.282 714.224 224.446 714.551 224.653C714.874 224.855 715.194 225.115 715.511 225.433ZM707.245 220.04C707.066 220.219 706.866 220.424 706.645 220.655C706.424 220.885 706.217 221.096 706.023 221.29C705.729 221.584 705.416 221.893 705.084 222.215C704.753 222.537 704.417 222.864 704.076 223.196C703.731 223.532 703.385 223.868 703.04 224.204C702.695 224.54 702.356 224.874 702.025 225.205C701.684 225.546 701.358 225.9 701.044 226.269C700.727 226.632 700.377 227.005 699.995 227.387C699.93 227.452 699.841 227.523 699.726 227.601C699.606 227.675 699.479 227.732 699.346 227.774C699.208 227.82 699.074 227.838 698.945 227.829C698.812 227.825 698.697 227.774 698.6 227.677C698.407 227.484 698.292 227.277 698.255 227.056C698.209 226.835 698.216 226.607 698.275 226.372C698.331 226.133 698.423 225.889 698.552 225.64C698.681 225.392 698.819 225.143 698.966 224.894C699.109 224.641 699.249 224.39 699.387 224.142C699.516 223.893 699.613 223.649 699.677 223.41C699.797 222.986 699.924 222.524 700.057 222.022C700.191 221.52 700.322 221.016 700.451 220.51C700.575 219.999 700.697 219.504 700.817 219.025C700.927 218.546 701.021 218.116 701.1 217.734C701.16 217.324 701.217 216.93 701.272 216.553C701.323 216.171 701.364 215.83 701.397 215.531C701.424 215.236 701.44 214.994 701.445 214.806C701.445 214.612 701.424 214.495 701.383 214.454C701.369 214.44 701.302 214.479 701.183 214.571C701.058 214.658 700.906 214.778 700.727 214.93C700.543 215.087 700.34 215.261 700.119 215.455C699.889 215.648 699.668 215.842 699.456 216.035C699.235 216.228 699.03 216.41 698.842 216.58C698.648 216.746 698.494 216.882 698.379 216.988C697.776 217.582 697.244 218.104 696.784 218.555C696.324 219.006 695.916 219.409 695.562 219.764C695.198 220.118 694.876 220.436 694.595 220.717C694.314 220.997 694.049 221.262 693.801 221.511C693.571 221.741 693.359 221.934 693.165 222.091C692.972 222.247 692.79 222.36 692.62 222.429C692.445 222.494 692.284 222.512 692.137 222.484C691.98 222.457 691.833 222.374 691.695 222.236C691.58 222.121 691.49 222.013 691.425 221.911C691.356 221.815 691.324 221.709 691.329 221.594C691.329 221.483 691.375 221.359 691.467 221.221C691.55 221.083 691.688 220.917 691.881 220.724C692.355 220.249 692.836 219.791 693.324 219.349C693.808 218.912 694.296 218.461 694.788 217.996C695.626 217.204 696.492 216.408 697.385 215.607C698.273 214.81 699.159 214.016 700.043 213.224C700.25 213.045 700.469 212.849 700.699 212.637C700.929 212.426 701.171 212.258 701.424 212.133C701.668 212.009 701.924 211.961 702.191 211.988C702.458 212.007 702.739 212.163 703.033 212.458C703.098 212.522 703.148 212.596 703.185 212.679C703.222 212.762 703.252 212.847 703.275 212.934C703.298 213.013 703.312 213.091 703.316 213.169C703.321 213.247 703.319 213.31 703.309 213.356C703.296 214.18 703.236 215.022 703.13 215.883C703.015 216.744 702.874 217.602 702.709 218.459C702.543 219.315 702.356 220.16 702.149 220.993C701.933 221.826 701.71 222.625 701.48 223.389C702.626 222.243 703.473 221.363 704.021 220.751C704.568 220.139 704.87 219.796 704.925 219.722C705.04 219.552 705.181 219.356 705.347 219.135C705.508 218.91 705.699 218.687 705.92 218.466C706.049 218.337 706.182 218.226 706.32 218.134C706.454 218.037 706.589 217.971 706.728 217.934C706.866 217.897 707.001 217.895 707.135 217.927C707.268 217.959 707.397 218.037 707.522 218.162C707.701 218.341 707.816 218.512 707.867 218.673C707.913 218.838 707.915 218.997 707.874 219.149C707.828 219.306 707.75 219.458 707.639 219.605C707.519 219.752 707.388 219.897 707.245 220.04ZM690.479 217.223C690.217 217.485 689.964 217.655 689.72 217.734C689.471 217.816 689.241 217.839 689.029 217.803C688.808 217.766 688.608 217.685 688.428 217.561C688.24 217.437 688.069 217.299 687.917 217.147L686.557 215.786C686.161 215.39 685.793 214.921 685.452 214.378C685.102 213.834 684.805 213.247 684.561 212.617C684.313 211.981 684.131 211.321 684.016 210.635C683.896 209.954 683.869 209.272 683.933 208.591C683.993 207.914 684.161 207.258 684.437 206.623C684.704 205.988 685.105 205.403 685.639 204.869C686.2 204.307 686.79 203.893 687.406 203.626C688.023 203.359 688.645 203.207 689.271 203.17C689.897 203.133 690.523 203.193 691.149 203.35C691.766 203.506 692.36 203.723 692.931 203.999C693.497 204.28 694.029 204.604 694.526 204.973C695.023 205.341 695.465 205.718 695.852 206.105C695.953 206.206 696.073 206.331 696.211 206.478C696.349 206.616 696.487 206.763 696.625 206.92C696.768 207.072 696.901 207.224 697.026 207.376C697.145 207.523 697.244 207.654 697.322 207.769C697.461 207.806 697.601 207.854 697.744 207.914C697.882 207.969 697.976 208.022 698.027 208.073C698.206 208.253 698.292 208.457 698.282 208.688C698.269 208.922 698.202 209.159 698.082 209.399C697.962 209.638 697.81 209.873 697.626 210.103C697.433 210.333 697.249 210.536 697.074 210.711L690.479 217.223ZM695.935 208.909C695.935 208.881 695.923 208.837 695.9 208.777C695.872 208.722 695.833 208.66 695.783 208.591C695.732 208.522 695.677 208.448 695.617 208.37C695.548 208.292 695.476 208.216 695.403 208.142L694.291 207.03C694.024 206.763 693.706 206.505 693.338 206.257C692.965 206.004 692.567 205.78 692.143 205.587C691.715 205.398 691.276 205.249 690.825 205.138C690.364 205.028 689.915 204.975 689.478 204.979C689.041 204.984 688.624 205.055 688.228 205.193C687.823 205.332 687.464 205.557 687.151 205.87C686.769 206.252 686.467 206.683 686.246 207.161C686.016 207.64 685.857 208.14 685.77 208.66C685.682 209.18 685.659 209.71 685.701 210.248C685.742 210.787 685.841 211.309 685.998 211.816C686.15 212.327 686.355 212.808 686.612 213.259C686.866 213.705 687.162 214.099 687.503 214.44C687.595 214.532 687.722 214.654 687.883 214.806C688.039 214.962 688.203 215.116 688.373 215.268C688.539 215.416 688.693 215.547 688.836 215.662C688.979 215.777 689.084 215.842 689.153 215.855C689.356 215.726 689.545 215.593 689.72 215.455C689.89 215.312 690.06 215.165 690.231 215.013C690.392 214.861 690.555 214.702 690.721 214.536C690.887 214.371 691.064 214.193 691.253 214.005C691.446 213.811 691.672 213.586 691.929 213.328C692.178 213.07 692.445 212.794 692.73 212.499C693.016 212.205 693.308 211.899 693.607 211.581C693.902 211.259 694.192 210.941 694.477 210.628C694.763 210.315 695.03 210.011 695.279 209.716C695.527 209.422 695.746 209.153 695.935 208.909Z" fill="white"/>
<path d="M105.192 155.377C102.918 158.905 100.046 159.744 97.3255 159.503C94.6052 159.263 93.0669 158.033 95.3406 154.506C97.6143 150.978 105.559 146.73 105.559 146.73C105.559 146.73 107.465 151.85 105.192 155.377Z" fill="#CCCCCC"/>
<path d="M99.1041 216.835C96.8304 220.363 93.9582 221.202 91.2379 220.962C88.5176 220.721 86.9793 219.491 89.253 215.964C91.5267 212.437 99.4717 208.188 99.4717 208.188C99.4717 208.188 101.378 213.308 99.1041 216.835Z" fill="#CCCCCC"/>
<path d="M109.057 191.709C107.669 193.862 105.917 194.374 104.257 194.227C102.597 194.08 101.658 193.33 103.046 191.177C104.433 189.025 109.281 186.433 109.281 186.433C109.281 186.433 110.444 189.557 109.057 191.709Z" fill="#CCCCCC"/>
<path d="M65.6828 202.14C64.2954 204.293 62.5428 204.805 60.8829 204.658C59.223 204.511 58.2844 203.761 59.6717 201.608C61.0591 199.456 65.9071 196.864 65.9071 196.864C65.9071 196.864 67.0702 199.988 65.6828 202.14Z" fill="#CCCCCC"/>
<path d="M384.459 100.403C382.185 103.93 379.313 104.77 376.593 104.529C373.873 104.289 372.334 103.059 374.608 99.5314C376.882 96.004 384.827 91.7554 384.827 91.7554C384.827 91.7554 386.733 96.8755 384.459 100.403Z" fill="#CCCCCC"/>
<path d="M394.412 75.2767C393.024 77.4291 391.272 77.9414 389.612 77.7945C387.952 77.6477 387.013 76.8973 388.401 74.7448C389.788 72.5924 394.636 70 394.636 70C394.636 70 395.799 73.1243 394.412 75.2767Z" fill="#CCCCCC"/>
<path d="M351.038 85.7077C349.65 87.8601 347.898 88.3724 346.238 88.2255C344.578 88.0787 343.639 87.3283 345.027 85.1759C346.414 83.0235 351.262 80.431 351.262 80.431C351.262 80.431 352.425 83.5553 351.038 85.7077Z" fill="#CCCCCC"/>
<path d="M264.23 210.915C261.956 214.443 259.084 215.282 256.363 215.041C253.643 214.801 252.105 213.571 254.378 210.044C256.652 206.516 264.597 202.268 264.597 202.268C264.597 202.268 266.503 207.388 264.23 210.915Z" fill="#CCCCCC"/>
<path d="M274.182 185.789C272.795 187.941 271.042 188.454 269.382 188.307C267.722 188.16 266.784 187.409 268.171 185.257C269.559 183.105 274.407 180.512 274.407 180.512C274.407 180.512 275.57 183.637 274.182 185.789Z" fill="#CCCCCC"/>
<path d="M230.808 196.22C229.421 198.372 227.668 198.885 226.008 198.738C224.348 198.591 223.41 197.84 224.797 195.688C226.185 193.536 231.033 190.943 231.033 190.943C231.033 190.943 232.196 194.068 230.808 196.22Z" fill="#CCCCCC"/>
<path d="M219.334 105.759C217.06 109.287 214.188 110.126 211.468 109.886C208.747 109.645 207.209 108.415 209.483 104.888C211.756 101.36 219.701 97.1119 219.701 97.1119C219.701 97.1119 221.607 102.232 219.334 105.759Z" fill="#CCCCCC"/>
<path d="M213.246 167.218C210.972 170.745 208.1 171.585 205.38 171.344C202.66 171.103 201.121 169.874 203.395 166.346C205.669 162.819 213.614 158.57 213.614 158.57C213.614 158.57 215.52 163.69 213.246 167.218Z" fill="#CCCCCC"/>
<path d="M223.199 142.091C221.811 144.244 220.059 144.756 218.399 144.609C216.739 144.462 215.8 143.712 217.188 141.56C218.575 139.407 223.423 136.815 223.423 136.815C223.423 136.815 224.586 139.939 223.199 142.091Z" fill="#CCCCCC"/>
<path d="M179.825 152.522C178.437 154.675 176.685 155.187 175.025 155.04C173.365 154.893 172.426 154.143 173.814 151.991C175.201 149.838 180.049 147.246 180.049 147.246C180.049 147.246 181.212 150.37 179.825 152.522Z" fill="#CCCCCC"/>
<path d="M335.759 108.297C333.485 111.824 330.613 112.664 327.892 112.423C325.172 112.182 323.634 110.953 325.907 107.425C328.181 103.898 336.126 99.6491 336.126 99.6491C336.126 99.6491 338.032 104.769 335.759 108.297Z" fill="#CCCCCC"/>
<path d="M329.671 169.755C327.397 173.282 324.525 174.122 321.805 173.881C319.084 173.641 317.546 172.411 319.82 168.883C322.094 165.356 330.039 161.107 330.039 161.107C330.039 161.107 331.945 166.228 329.671 169.755Z" fill="#CCCCCC"/>
<path d="M339.624 144.629C338.236 146.781 336.484 147.293 334.824 147.147C333.164 147 332.225 146.249 333.613 144.097C335 141.944 339.848 139.352 339.848 139.352C339.848 139.352 341.011 142.476 339.624 144.629Z" fill="#CCCCCC"/>
<path d="M443.813 120.137C441.539 123.665 438.667 124.504 435.947 124.264C433.227 124.023 431.688 122.793 433.962 119.266C436.236 115.738 444.181 111.49 444.181 111.49C444.181 111.49 446.087 116.61 443.813 120.137Z" fill="#CCCCCC"/>
<path d="M410.392 105.442C409.004 107.594 407.252 108.107 405.592 107.96C403.932 107.813 402.993 107.063 404.381 104.91C405.768 102.758 410.616 100.165 410.616 100.165C410.616 100.165 411.779 103.29 410.392 105.442Z" fill="#CCCCCC"/>
<path d="M497.84 103.504C495.567 107.031 492.694 107.871 489.974 107.63C487.254 107.39 485.715 106.16 487.989 102.632C490.263 99.1051 498.208 94.8565 498.208 94.8565C498.208 94.8565 500.114 99.9766 497.84 103.504Z" fill="#CCCCCC"/>
<path d="M491.753 164.962C489.479 168.49 486.607 169.329 483.886 169.089C481.166 168.848 479.628 167.618 481.902 164.091C484.175 160.563 492.12 156.315 492.12 156.315C492.12 156.315 494.026 161.435 491.753 164.962Z" fill="#CCCCCC"/>
<path d="M501.705 139.836C500.318 141.989 498.565 142.501 496.905 142.354C495.246 142.207 494.307 141.457 495.694 139.304C497.082 137.152 501.93 134.559 501.93 134.559C501.93 134.559 503.093 137.684 501.705 139.836Z" fill="#CCCCCC"/>
<path d="M605.895 115.345C603.621 118.872 600.749 119.712 598.029 119.471C595.308 119.23 593.77 118 596.044 114.473C598.317 110.946 606.262 106.697 606.262 106.697C606.262 106.697 608.168 111.817 605.895 115.345Z" fill="#CCCCCC"/>
<path d="M572.473 100.649C571.086 102.802 569.333 103.314 567.674 103.167C566.014 103.02 565.075 102.27 566.462 100.118C567.85 97.9652 572.698 95.3727 572.698 95.3727C572.698 95.3727 573.861 98.497 572.473 100.649Z" fill="#CCCCCC"/>
<path d="M560.999 143.818C558.725 147.346 555.853 148.185 553.133 147.945C550.412 147.704 548.874 146.474 551.148 142.947C553.421 139.419 561.366 135.171 561.366 135.171C561.366 135.171 563.273 140.291 560.999 143.818Z" fill="#CCCCCC"/>
<path d="M554.911 205.277C552.638 208.804 549.765 209.644 547.045 209.403C544.325 209.162 542.786 207.933 545.06 204.405C547.334 200.878 555.279 196.629 555.279 196.629C555.279 196.629 557.185 201.749 554.911 205.277Z" fill="#CCCCCC"/>
<path d="M564.864 180.151C563.477 182.303 561.724 182.815 560.064 182.668C558.404 182.522 557.465 181.771 558.853 179.619C560.24 177.466 565.088 174.874 565.088 174.874C565.088 174.874 566.251 177.998 564.864 180.151Z" fill="#CCCCCC"/>
<path d="M669.053 155.659C666.78 159.186 663.907 160.026 661.187 159.785C658.467 159.545 656.928 158.315 659.202 154.787C661.476 151.26 669.421 147.012 669.421 147.012C669.421 147.012 671.327 152.132 669.053 155.659Z" fill="#CCCCCC"/>
<path d="M635.632 140.964C634.245 143.116 632.492 143.629 630.832 143.482C629.172 143.335 628.234 142.584 629.621 140.432C631.008 138.28 635.856 135.687 635.856 135.687C635.856 135.687 637.019 138.811 635.632 140.964Z" fill="#CCCCCC"/>
<path d="M152.952 73.6475C150.678 77.1749 147.806 78.0145 145.086 77.7738C142.365 77.5332 140.827 76.3034 143.101 72.776C145.374 69.2486 153.319 65 153.319 65C153.319 65 155.226 70.1201 152.952 73.6475Z" fill="#CCCCCC"/>
<path d="M85.3576 386.959L147.897 260.258L145.614 258.843L83.0737 385.544L85.3576 386.959Z" fill="#263238"/>
<path d="M85.2446 386.398L75.1837 405.605" stroke="#263238" stroke-width="8" stroke-miterlimit="10"/>
<path d="M22.0498 317.659C69.6212 443.788 166.743 396.697 166.743 396.697L22.0498 317.659Z" fill="#AD6BCC"/>
<path d="M105.933 383.403C106.402 383.696 106.776 384.032 107.053 384.411C107.331 384.789 107.514 385.195 107.602 385.629C107.689 386.063 107.689 386.514 107.599 386.981C107.501 387.45 107.315 387.922 107.042 388.396L105.615 390.73C105.506 390.907 105.346 391.021 105.135 391.073C104.925 391.124 104.685 391.072 104.414 390.916C104.273 390.834 104.18 390.728 104.136 390.597C104.091 390.466 104.083 390.318 104.11 390.154C104.132 389.986 104.185 389.802 104.27 389.603C104.351 389.41 104.451 389.211 104.568 389.008C104.705 388.772 104.863 388.524 105.041 388.267C105.214 388.006 105.361 387.771 105.482 387.563C105.71 387.168 105.839 386.814 105.869 386.501C105.891 386.19 105.835 385.902 105.702 385.638C105.56 385.375 105.348 385.125 105.065 384.886C104.778 384.653 104.437 384.418 104.04 384.182L102.385 383.181C102.273 383.335 102.135 383.541 101.971 383.799C101.798 384.06 101.616 384.35 101.425 384.668C101.225 384.988 101.019 385.324 100.808 385.676C100.595 386.034 100.388 386.385 100.19 386.729C99.913 387.208 99.6764 387.65 99.48 388.056C99.278 388.458 99.12 388.757 99.006 388.955C98.8335 389.253 98.6325 389.419 98.403 389.452C98.1646 389.487 97.9383 389.443 97.7241 389.32C97.6169 389.258 97.5346 389.173 97.4769 389.064C97.416 388.961 97.3789 388.85 97.3657 388.729C97.3436 388.611 97.3434 388.495 97.3649 388.379C97.3775 388.266 97.405 388.173 97.4473 388.1C97.7533 387.57 98.0539 387.056 98.3493 386.557C98.6414 386.064 98.9335 385.571 99.2256 385.078C99.5088 384.588 99.7964 384.096 100.089 383.603C100.381 383.11 100.676 382.604 100.976 382.086C100.953 381.982 100.95 381.857 100.968 381.709C100.982 381.567 101.024 381.437 101.092 381.318C101.128 381.256 101.199 381.192 101.305 381.125C101.408 381.064 101.51 381.018 101.611 380.986C101.747 380.802 101.875 380.62 101.993 380.44C102.109 380.267 102.189 380.14 102.235 380.061C102.43 379.723 102.607 379.351 102.766 378.947C102.924 378.542 103.12 378.137 103.355 377.731C103.453 377.562 103.571 377.427 103.712 377.328C103.846 377.225 103.992 377.155 104.149 377.118C104.309 377.075 104.471 377.067 104.636 377.095C104.803 377.116 104.966 377.173 105.124 377.264C105.192 377.303 105.251 377.363 105.301 377.445C105.352 377.527 105.389 377.62 105.412 377.723C105.429 377.823 105.433 377.927 105.424 378.034C105.414 378.142 105.385 378.238 105.336 378.322L103.322 381.772L105.933 383.403ZM97.2255 380.496C96.6103 381.561 95.938 382.387 95.2086 382.973C94.476 383.565 93.7232 383.958 92.9504 384.15C92.1743 384.349 91.3929 384.367 90.6063 384.207C89.8164 384.051 89.0578 383.764 88.3305 383.344C87.4678 382.846 86.7921 382.271 86.3032 381.621C85.8054 380.972 85.4908 380.261 85.3594 379.486C85.2191 378.713 85.2571 377.886 85.4734 377.003C85.6897 376.121 86.0762 375.197 86.6329 374.233C87.1114 373.404 87.6885 372.73 88.3643 372.211C89.0312 371.694 89.7443 371.331 90.5034 371.123C91.2537 370.917 92.0268 370.867 92.8225 370.973C93.6126 371.076 94.3713 371.338 95.0987 371.758C95.6061 372.05 96.0547 372.4 96.4446 372.805C96.8288 373.207 97.1511 373.645 97.4114 374.119C97.6629 374.595 97.8528 375.099 97.9812 375.632C98.1008 376.167 98.1557 376.71 98.146 377.261C98.1306 377.808 98.0483 378.354 97.8989 378.9C97.7462 379.451 97.5218 379.982 97.2255 380.496ZM95.4793 379.848C95.6942 379.476 95.8651 379.082 95.9921 378.667C96.1102 378.254 96.1864 377.836 96.2206 377.412C96.2548 376.988 96.2433 376.572 96.1862 376.163C96.129 375.754 96.0254 375.367 95.8752 375.002C95.7194 374.634 95.5178 374.3 95.2704 373.999C95.023 373.698 94.7274 373.449 94.3834 373.25C93.8365 372.935 93.2798 372.733 92.7133 372.647C92.1379 372.563 91.5769 372.603 91.0303 372.769C90.4837 372.935 89.9627 373.231 89.4674 373.66C88.9665 374.085 88.5125 374.649 88.1056 375.354C87.715 376.031 87.4424 376.685 87.2878 377.318C87.1275 377.947 87.0849 378.535 87.16 379.082C87.2351 379.629 87.4299 380.125 87.7445 380.57C88.0501 381.017 88.4708 381.395 89.0064 381.704C89.5646 382.026 90.1394 382.242 90.7308 382.35C91.3223 382.459 91.9066 382.443 92.4838 382.302C93.0521 382.164 93.5947 381.895 94.1117 381.494C94.6231 381.09 95.0789 380.542 95.4793 379.848ZM81.914 369.535C82.3835 369.829 82.7571 370.165 83.0348 370.543C83.3125 370.922 83.4952 371.328 83.5829 371.762C83.6706 372.196 83.6698 372.647 83.5805 373.114C83.4824 373.583 83.2965 374.055 83.0231 374.528L81.5967 376.862C81.4869 377.04 81.3269 377.154 81.1167 377.205C80.9065 377.257 80.6661 377.205 80.3955 377.048C80.2546 376.967 80.1618 376.861 80.1171 376.73C80.0725 376.599 80.0639 376.451 80.0912 376.286C80.113 376.118 80.1663 375.935 80.2512 375.736C80.3328 375.542 80.4322 375.344 80.5494 375.141C80.6861 374.904 80.8438 374.657 81.0226 374.4C81.1958 374.139 81.3426 373.904 81.463 373.695C81.6909 373.301 81.8201 372.947 81.8505 372.634C81.8721 372.323 81.8165 372.035 81.6836 371.77C81.5418 371.508 81.3294 371.258 81.0462 371.019C80.7597 370.786 80.418 370.551 80.0209 370.314L78.3659 369.314C78.2546 369.467 78.1168 369.674 77.9525 369.932C77.7794 370.193 77.5972 370.482 77.406 370.801C77.2059 371.121 77.0005 371.457 76.7898 371.809C76.5758 372.167 76.3696 372.518 76.171 372.862C75.8943 373.341 75.6578 373.783 75.4613 374.188C75.2593 374.59 75.1013 374.89 74.9874 375.087C74.8148 375.386 74.6138 375.552 74.3843 375.585C74.146 375.62 73.9196 375.576 73.7054 375.452C73.5983 375.391 73.5159 375.305 73.4582 375.197C73.3973 375.094 73.3603 374.982 73.3471 374.862C73.325 374.744 73.3247 374.627 73.3462 374.512C73.3588 374.399 73.3863 374.306 73.4286 374.233C73.7346 373.703 74.0353 373.188 74.3306 372.69C74.6227 372.197 74.9148 371.704 75.2069 371.211C75.4901 370.721 75.7778 370.229 76.0698 369.736C76.3619 369.243 76.6577 368.737 76.9572 368.219C76.9343 368.115 76.9316 367.989 76.9492 367.842C76.9636 367.7 77.0049 367.569 77.0733 367.451C77.1091 367.389 77.18 367.325 77.2861 367.258C77.3889 367.197 77.4909 367.151 77.592 367.119C77.7285 366.935 77.8561 366.753 77.9748 366.573C78.0902 366.399 78.1707 366.273 78.2163 366.194C78.4116 365.856 78.5885 365.484 78.7469 365.08C78.9054 364.675 79.1018 364.27 79.3362 363.864C79.4339 363.694 79.5528 363.56 79.6929 363.461C79.8274 363.358 79.9731 363.288 80.1299 363.251C80.29 363.208 80.4523 363.2 80.6169 363.227C80.7848 363.249 80.9477 363.306 81.1055 363.397C81.1732 363.436 81.2323 363.496 81.2828 363.578C81.3333 363.66 81.37 363.752 81.393 363.856C81.4103 363.956 81.4143 364.06 81.4049 364.167C81.3956 364.275 81.3665 364.371 81.3177 364.455L79.3037 367.904L81.914 369.535Z" fill="white"/>
<path d="M360.967 40.4117L380.627 49.4705L368.69 33.7011C372.071 31.741 376.254 30.656 380.579 30.6179C380.684 30.6179 380.79 30.6185 380.895 30.6199C382.261 30.6358 383.626 30.5625 384.974 30.4007L391.636 33.4706L388.78 29.6973C393.501 28.5012 397.58 26.2516 400.436 23.2699L412.361 28.7647L404.828 18.8123C411.801 12.7297 421.201 9 431.545 9C443.945 9 454.991 14.3588 462.123 22.7082C464.231 25.2064 467.211 27.2548 470.761 28.6456C474.31 30.0363 478.303 30.7199 482.334 30.6268C482.556 30.6209 482.778 30.6179 483.001 30.6179C496.691 30.6179 507.789 41.8963 507.789 55.8089C507.789 69.7216 496.691 81 483.001 81C479.991 80.9918 477.028 80.4528 474.367 79.4293C469.707 77.7837 464.611 76.8933 459.431 76.8197C454.25 76.7461 449.11 77.4911 444.365 79.0031C440.356 80.3122 436.013 80.9925 431.618 80.9999C427.223 81.0073 422.875 80.3416 418.858 79.046C414.15 77.5628 409.058 76.8325 403.927 76.9046C398.797 76.9766 393.747 77.8494 389.121 79.4637C386.484 80.4654 383.555 80.9922 380.579 81C366.889 81 355.791 69.7216 355.791 55.8089C355.711 50.4423 357.491 45.1473 360.967 40.4117Z" fill="#959595"/>
<path d="M277.911 40.4117L293.561 49.4705L284.059 33.7011C286.75 31.741 290.08 30.656 293.523 30.6179C293.607 30.6179 293.691 30.6185 293.775 30.6199C294.862 30.6358 295.949 30.5625 297.022 30.4007L302.325 33.4706L300.052 29.6973C303.81 28.5012 307.057 26.2516 309.33 23.2699L318.823 28.7647L312.826 18.8123C318.377 12.7297 325.86 9 334.094 9C343.966 9 352.759 14.3588 358.436 22.7082C360.114 25.2064 362.487 27.2548 365.312 28.6456C368.138 30.0363 371.317 30.7199 374.526 30.6268C374.702 30.6209 374.879 30.6179 375.056 30.6179C385.954 30.6179 394.789 41.8963 394.789 55.8089C394.789 69.7216 385.954 81 375.056 81C372.66 80.9918 370.301 80.4528 368.183 79.4293C364.474 77.7837 360.417 76.8933 356.293 76.8197C352.169 76.7461 348.077 77.4911 344.3 79.0031C341.109 80.3122 337.651 80.9925 334.153 80.9999C330.654 81.0073 327.193 80.3416 323.995 79.046C320.247 77.5628 316.194 76.8325 312.109 76.9046C308.025 76.9766 304.006 77.8494 300.323 79.4637C298.224 80.4654 295.892 80.9922 293.523 81C282.625 81 273.791 69.7216 273.791 55.8089C273.727 50.4423 275.144 45.1473 277.911 40.4117Z" fill="#959595"/>
<path d="M43.9108 35.4117L59.5609 44.4705L50.059 28.7011C52.75 26.741 56.0803 25.656 59.5229 25.6179C59.6069 25.6179 59.6908 25.6185 59.7747 25.6199C60.862 25.6358 61.9488 25.5625 63.0217 25.4007L68.3253 28.4706L66.0518 24.6973C69.8095 23.5012 73.057 21.2516 75.3302 18.2699L84.8231 23.7647L78.8262 13.8123C84.3771 7.72966 91.8602 4 100.094 4C109.966 4 118.759 9.35879 124.436 17.7082C126.114 20.2064 128.487 22.2548 131.312 23.6456C134.138 25.0363 137.317 25.7199 140.526 25.6268C140.702 25.6209 140.879 25.6179 141.056 25.6179C151.954 25.6179 160.789 36.8963 160.789 50.8089C160.789 64.7216 151.954 76 141.056 76C138.66 75.9918 136.301 75.4528 134.183 74.4293C130.474 72.7837 126.417 71.8933 122.293 71.8197C118.169 71.7461 114.077 72.4911 110.3 74.0031C107.109 75.3122 103.651 75.9925 100.153 75.9999C96.6541 76.0073 93.193 75.3416 89.9951 74.046C86.2472 72.5628 82.1937 71.8325 78.1095 71.9046C74.0252 71.9766 70.0057 72.8494 66.3233 74.4637C64.224 75.4654 61.8918 75.9922 59.5229 76C48.6252 76 39.7907 64.7216 39.7907 50.8089C39.7272 45.4423 41.144 40.1473 43.9108 35.4117Z" fill="#959595"/>
<path d="M129.339 49.5049L142.014 55.4183L134.318 45.1243C136.498 43.8448 139.195 43.1366 141.983 43.1117C142.051 43.1117 142.119 43.1121 142.187 43.113C143.068 43.1234 143.948 43.0755 144.817 42.9699L149.112 44.9739L147.271 42.5108C150.314 41.7299 152.945 40.2614 154.786 38.3151L162.474 41.902L157.617 35.4052C162.113 31.4346 168.174 29 174.843 29C182.838 29 189.96 32.4981 194.557 37.9484C195.917 39.5791 197.838 40.9163 200.127 41.8242C202.415 42.732 204.99 43.1782 207.589 43.1175C207.732 43.1136 207.875 43.1117 208.019 43.1117C216.845 43.1117 224 50.474 224 59.5558C224 68.6377 216.845 76 208.019 76C206.078 75.9947 204.167 75.6428 202.452 74.9747C199.448 73.9005 196.162 73.3192 192.822 73.2712C189.482 73.2231 186.168 73.7095 183.109 74.6965C180.524 75.551 177.724 75.9951 174.89 76C172.056 76.0048 169.253 75.5702 166.663 74.7245C163.628 73.7563 160.345 73.2795 157.037 73.3266C153.729 73.3736 150.473 73.9434 147.491 74.9972C145.791 75.651 143.902 75.9949 141.983 76C133.157 76 126.002 68.6377 126.002 59.5558C125.95 56.0526 127.098 52.5962 129.339 49.5049Z" fill="#959595"/>
<path d="M571.317 31.4509L580.112 36.4836L574.772 27.7228C576.284 26.6339 578.156 26.0311 580.09 26.0099C580.138 26.0099 580.185 26.0103 580.232 26.011C580.843 26.0199 581.454 25.9791 582.057 25.8893L585.037 27.5948L583.76 25.4985C585.871 24.834 587.696 23.5842 588.974 21.9277L594.309 24.9804L590.939 19.4513C594.058 16.072 598.263 14 602.891 14C608.438 14 613.38 16.9771 616.571 21.6156C617.514 23.0035 618.847 24.1416 620.435 24.9142C622.023 25.6868 623.809 26.0666 625.613 26.0149C625.712 26.0116 625.811 26.0099 625.911 26.0099C632.035 26.0099 637 32.2757 637 40.005C637 47.7342 632.035 54 625.911 54C624.564 53.9955 623.239 53.696 622.048 53.1274C619.964 52.2132 617.684 51.7185 615.366 51.6776C613.049 51.6367 610.749 52.0506 608.626 52.8906C606.833 53.6179 604.89 53.9959 602.924 54C600.958 54.0041 599.012 53.6342 597.215 52.9145C595.109 52.0905 592.831 51.6847 590.536 51.7248C588.24 51.7648 585.982 52.2497 583.912 53.1465C582.732 53.703 581.422 53.9957 580.09 54C573.966 54 569.001 47.7342 569.001 40.005C568.966 37.0235 569.762 34.0819 571.317 31.4509Z" fill="#959595"/>
<path d="M188.151 94.598L193.325 97.366L190.184 92.5476C191.073 91.9486 192.174 91.6171 193.312 91.6055C193.34 91.6055 193.368 91.6057 193.396 91.6061C193.755 91.6109 194.114 91.5885 194.469 91.5391L196.222 92.4771L195.471 91.3242C196.713 90.9587 197.786 90.2713 198.538 89.3602L201.676 91.0392L199.694 87.9982C201.529 86.1396 204.002 85 206.724 85C209.988 85 212.895 86.6374 214.771 89.1886C215.326 89.9519 216.11 90.5779 217.044 91.0028C217.979 91.4278 219.029 91.6366 220.09 91.6082C220.148 91.6064 220.207 91.6055 220.266 91.6055C223.868 91.6055 226.789 95.0516 226.789 99.3027C226.789 103.554 223.868 107 220.266 107C219.473 106.998 218.694 106.833 217.994 106.52C216.767 106.017 215.426 105.745 214.063 105.723C212.7 105.7 211.347 105.928 210.098 106.39C209.043 106.79 207.9 106.998 206.744 107C205.587 107.002 204.443 106.799 203.386 106.403C202.147 105.95 200.807 105.727 199.457 105.749C198.107 105.771 196.778 106.037 195.56 106.531C194.866 106.837 194.096 106.998 193.312 107C189.71 107 186.789 103.554 186.789 99.3027C186.768 97.6629 187.237 96.045 188.151 94.598Z" fill="#959595"/>
<path d="M627.889 23.5588L639.659 30.3529L632.513 18.5258C634.536 17.0558 637.041 16.242 639.63 16.2134C639.693 16.2134 639.756 16.2139 639.819 16.2149C640.637 16.2269 641.455 16.1719 642.261 16.0505L646.25 18.3529L644.54 15.523C647.366 14.6259 649.809 12.9387 651.518 10.7024L658.658 14.8235L654.147 7.3592C658.322 2.79725 663.95 0 670.143 0C677.566 0 684.18 4.0191 688.449 10.2811C689.711 12.1548 691.495 13.6911 693.621 14.7342C695.746 15.7772 698.136 16.2899 700.55 16.2201C700.682 16.2156 700.815 16.2134 700.949 16.2134C709.145 16.2134 715.789 24.6722 715.789 35.1067C715.789 45.5412 709.145 54 700.949 54C699.146 53.9939 697.373 53.5896 695.78 52.822C692.99 51.5878 689.939 50.9199 686.838 50.8647C683.736 50.8096 680.659 51.3683 677.818 52.5023C675.418 53.4841 672.818 53.9944 670.186 54C667.555 54.0055 664.952 53.5062 662.547 52.5345C659.729 51.4221 656.68 50.8744 653.608 50.9284C650.537 50.9825 647.514 51.6371 644.744 52.8478C643.166 53.599 641.412 53.9942 639.63 54C631.434 54 624.79 45.5412 624.79 35.1067C624.742 31.0817 625.808 27.1105 627.889 23.5588Z" fill="#959595"/>
<path d="M489.317 58.4509L498.112 63.4836L492.772 54.7228C494.284 53.6339 496.156 53.0311 498.09 53.0099C498.138 53.0099 498.185 53.0103 498.232 53.011C498.843 53.0199 499.454 52.9791 500.057 52.8893L503.037 54.5948L501.759 52.4985C503.871 51.834 505.696 50.5842 506.974 48.9277L512.309 51.9804L508.939 46.4513C512.058 43.072 516.263 41 520.891 41C526.438 41 531.38 43.9771 534.571 48.6156C535.514 50.0035 536.847 51.1416 538.435 51.9142C540.023 52.6868 541.809 53.0666 543.613 53.0149C543.712 53.0116 543.811 53.0099 543.911 53.0099C550.035 53.0099 555 59.2757 555 67.005C555 74.7342 550.035 81 543.911 81C542.564 80.9955 541.239 80.696 540.048 80.1274C537.964 79.2132 535.684 78.7185 533.366 78.6776C531.049 78.6367 528.749 79.0506 526.626 79.8906C524.833 80.6179 522.89 80.9959 520.924 81C518.957 81.0041 517.012 80.6342 515.215 79.9145C513.109 79.0905 510.831 78.6847 508.536 78.7248C506.24 78.7648 503.982 79.2497 501.912 80.1465C500.732 80.703 499.422 80.9957 498.09 81C491.966 81 487.001 74.7342 487.001 67.005C486.966 64.0235 487.762 61.0819 489.317 58.4509Z" fill="#959595"/>
</svg>
