<svg width="643" height="431" viewBox="0 0 643 431" fill="none" xmlns="http://www.w3.org/2000/svg">
<path d="M261.055 188.988C254.46 190.311 250.16 196.939 251.45 203.791C252.74 210.643 259.133 215.125 265.728 213.802C272.323 212.479 276.624 205.851 275.333 198.999C274.043 192.147 267.65 187.665 261.055 188.988Z" fill="#3F3D56"/>
<path d="M251.891 218.12L356.293 197.171L395.305 302.826L255.195 330.94C254.48 331.083 253.739 331.039 253.022 330.81C252.305 330.581 251.629 330.173 251.042 329.613C250.454 329.054 249.968 328.356 249.618 327.569C249.268 326.782 249.061 325.923 249.012 325.053L247.948 224.124C247.862 222.686 248.213 221.289 248.937 220.187C249.661 219.085 250.709 218.351 251.891 218.12V218.12ZM355.471 199.053L252.203 219.774C251.35 219.941 250.593 220.47 250.07 221.266C249.548 222.061 249.295 223.07 249.357 224.108L250.421 325.037C250.457 325.665 250.606 326.285 250.858 326.853C251.111 327.421 251.462 327.925 251.886 328.328C252.31 328.732 252.798 329.027 253.315 329.192C253.833 329.357 254.368 329.389 254.884 329.286L393.322 301.507L355.471 199.053Z" fill="#3F3D56"/>
<path d="M336.063 201.594L368.471 307.212L367.163 307.755L334.755 202.136L336.063 201.594Z" fill="#3F3D56"/>
<path d="M269.142 215.883L270.551 215.875L279.028 325.437L277.619 325.445L269.142 215.883Z" fill="#3F3D56"/>
<path d="M321.314 316.815L322.691 316.538L302.347 208.499L300.97 208.776L321.314 316.815Z" fill="#3F3D56"/>
<path d="M382.663 274.461L382.355 272.806L248.976 299.167L249.284 300.822L382.663 274.461Z" fill="#3F3D56"/>
<path d="M249.141 248.219L366.073 223.759L365.752 222.106L248.82 246.567L249.141 248.219Z" fill="#3F3D56"/>
<path d="M420.84 314.012C416.657 314.851 413.684 317.754 414.2 320.495C414.716 323.236 418.526 324.777 422.709 323.938C426.892 323.098 429.865 320.196 429.349 317.455C428.833 314.714 425.023 313.173 420.84 314.012Z" fill="#3F3D56"/>
<path d="M249.421 215.786L356.181 194.364L403.085 318.862L422.379 314.991L423.469 320.78L400.289 325.432L353.384 200.934L250.511 221.576L249.421 215.786Z" fill="#3F3D56"/>
<path d="M445.372 303.04C438.767 304.365 434.459 310.994 435.75 317.847C437.04 324.699 443.44 329.179 450.044 327.854C456.649 326.529 460.957 319.9 459.666 313.048C458.376 306.195 451.976 301.715 445.372 303.04Z" fill="#3F3D56"/>
<path d="M138.812 307.944L119.404 290.626L125.023 252.36L143.817 269.756L138.812 307.944Z" fill="#535461"/>
<path d="M128.185 342.553L152.544 343.13L138.738 307.327L122.319 326.558L124.785 333.19L128.185 342.553Z" fill="#535461"/>
<path d="M152.256 343.479L206.144 335.801L212.052 298.348L158.223 304.664L152.256 343.479Z" fill="#535461"/>
<path d="M197.43 262.648L212.052 298.348L158.282 305.163L143.455 269.489L197.43 262.648Z" fill="#535461"/>
<path opacity="0.07" d="M197.43 262.648L212.052 298.348L158.282 305.163L143.455 269.489L197.43 262.648Z" fill="black"/>
<path opacity="0.1" d="M171.532 265.635L179.517 285.66L167.187 304.132L158.396 305.246L144.182 269.494L171.532 265.635Z" fill="black"/>
<path d="M143.455 269.489L157.733 248.214L171.925 283.772L158.282 305.163L143.455 269.489Z" fill="#535461"/>
<path opacity="0.07" d="M143.455 269.489L157.733 248.214L171.925 283.772L158.282 305.163L143.455 269.489Z" fill="black"/>
<path d="M168.995 319.949C168.553 319.973 168.155 319.926 167.8 319.806C167.445 319.687 167.139 319.505 166.883 319.261C166.628 319.018 166.422 318.722 166.267 318.375C166.117 318.023 166.024 317.628 165.987 317.192L165.857 315.007C165.848 314.841 165.9 314.692 166.015 314.561C166.129 314.431 166.311 314.354 166.56 314.332C166.689 314.32 166.799 314.347 166.888 314.412C166.977 314.477 167.05 314.57 167.107 314.69C167.17 314.81 167.219 314.955 167.254 315.124C167.289 315.288 167.314 315.464 167.33 315.651C167.348 315.869 167.358 316.103 167.358 316.354C167.364 316.605 167.375 316.826 167.391 317.018C167.422 317.382 167.499 317.673 167.622 317.892C167.749 318.105 167.917 318.268 168.125 318.38C168.338 318.486 168.592 318.552 168.887 318.578C169.181 318.599 169.513 318.595 169.881 318.567L171.424 318.459C171.427 318.307 171.423 318.108 171.413 317.863C171.407 317.613 171.395 317.339 171.375 317.043C171.36 316.741 171.341 316.426 171.318 316.099C171.295 315.766 171.27 315.441 171.244 315.125C171.206 314.684 171.159 314.285 171.103 313.929C171.052 313.573 171.019 313.304 171.003 313.122C170.98 312.847 171.036 312.646 171.172 312.518C171.312 312.386 171.48 312.31 171.678 312.292C171.776 312.283 171.869 312.301 171.956 312.346C172.043 312.385 172.119 312.441 172.182 312.514C172.251 312.581 172.304 312.657 172.343 312.742C172.386 312.822 172.411 312.896 172.416 312.963C172.458 313.451 172.495 313.926 172.529 314.389C172.563 314.846 172.596 315.303 172.63 315.761C172.668 316.212 172.704 316.667 172.738 317.124C172.771 317.581 172.808 318.049 172.849 318.526C172.911 318.583 172.97 318.664 173.026 318.769C173.081 318.869 173.114 318.973 173.123 319.082C173.128 319.139 173.111 319.214 173.071 319.306C173.032 319.394 172.986 319.471 172.934 319.539C172.929 319.722 172.928 319.9 172.933 320.072C172.936 320.239 172.941 320.359 172.947 320.432C172.974 320.743 173.027 321.068 173.108 321.406C173.189 321.744 173.246 322.1 173.277 322.473C173.29 322.629 173.274 322.772 173.227 322.902C173.186 323.031 173.122 323.144 173.037 323.241C172.951 323.342 172.848 323.422 172.728 323.48C172.608 323.543 172.475 323.582 172.33 323.595C172.268 323.6 172.201 323.588 172.131 323.558C172.06 323.528 171.994 323.484 171.931 323.427C171.874 323.369 171.824 323.303 171.781 323.228C171.738 323.154 171.714 323.078 171.707 323L171.453 319.814L168.995 319.949ZM176.035 317.838C175.952 316.857 176.016 316.007 176.227 315.287C176.437 314.562 176.752 313.958 177.17 313.475C177.589 312.988 178.093 312.615 178.683 312.358C179.272 312.096 179.901 311.934 180.57 311.874C181.363 311.802 182.069 311.866 182.687 312.067C183.309 312.262 183.841 312.583 184.281 313.029C184.726 313.47 185.079 314.03 185.34 314.707C185.602 315.384 185.77 316.167 185.845 317.054C185.91 317.817 185.839 318.525 185.633 319.176C185.432 319.822 185.13 320.388 184.727 320.875C184.328 321.355 183.844 321.744 183.274 322.041C182.708 322.338 182.091 322.517 181.422 322.577C180.955 322.62 180.502 322.598 180.061 322.512C179.625 322.426 179.213 322.288 178.826 322.098C178.444 321.902 178.089 321.66 177.761 321.37C177.438 321.075 177.154 320.745 176.909 320.38C176.669 320.015 176.474 319.619 176.323 319.193C176.171 318.762 176.075 318.311 176.035 317.838ZM177.477 317.457C177.506 317.8 177.573 318.136 177.68 318.467C177.791 318.791 177.932 319.1 178.103 319.393C178.274 319.687 178.472 319.954 178.696 320.195C178.921 320.436 179.165 320.642 179.43 320.811C179.701 320.981 179.986 321.107 180.285 321.189C180.585 321.272 180.893 321.299 181.209 321.271C181.712 321.225 182.17 321.1 182.581 320.896C182.997 320.686 183.346 320.4 183.629 320.04C183.912 319.68 184.118 319.245 184.248 318.737C184.382 318.227 184.422 317.648 184.367 317C184.314 316.377 184.194 315.823 184.006 315.337C183.824 314.852 183.584 314.447 183.284 314.124C182.985 313.8 182.631 313.565 182.221 313.419C181.817 313.268 181.368 313.214 180.875 313.258C180.362 313.305 179.886 313.429 179.449 313.63C179.011 313.832 178.635 314.112 178.321 314.47C178.011 314.822 177.778 315.249 177.622 315.749C177.471 316.249 177.422 316.819 177.477 317.457ZM191.087 317.954C190.645 317.978 190.246 317.931 189.891 317.811C189.536 317.691 189.231 317.51 188.975 317.266C188.719 317.022 188.514 316.727 188.359 316.38C188.209 316.028 188.115 315.633 188.078 315.197L187.948 313.012C187.939 312.845 187.992 312.697 188.106 312.566C188.22 312.436 188.402 312.359 188.651 312.336C188.781 312.325 188.89 312.352 188.979 312.417C189.068 312.482 189.142 312.575 189.199 312.695C189.261 312.815 189.31 312.96 189.345 313.129C189.38 313.293 189.405 313.469 189.421 313.656C189.44 313.874 189.449 314.108 189.45 314.359C189.455 314.61 189.466 314.831 189.482 315.023C189.513 315.387 189.59 315.678 189.713 315.897C189.841 316.11 190.009 316.273 190.217 316.385C190.43 316.491 190.684 316.557 190.978 316.583C191.273 316.603 191.604 316.6 191.973 316.572L193.516 316.464C193.518 316.312 193.515 316.113 193.504 315.868C193.499 315.618 193.486 315.344 193.466 315.048C193.451 314.746 193.432 314.431 193.41 314.104C193.387 313.771 193.362 313.446 193.335 313.13C193.298 312.688 193.251 312.29 193.194 311.934C193.143 311.578 193.11 311.309 193.095 311.127C193.071 310.852 193.127 310.651 193.263 310.523C193.403 310.39 193.572 310.315 193.769 310.297C193.868 310.288 193.96 310.306 194.048 310.35C194.135 310.39 194.21 310.446 194.274 310.518C194.342 310.585 194.396 310.662 194.434 310.747C194.478 310.827 194.502 310.901 194.508 310.968C194.549 311.456 194.587 311.931 194.621 312.394C194.654 312.851 194.688 313.308 194.721 313.766C194.76 314.217 194.796 314.672 194.829 315.129C194.863 315.586 194.9 316.054 194.94 316.531C195.002 316.588 195.062 316.669 195.117 316.774C195.173 316.874 195.205 316.978 195.214 317.087C195.219 317.144 195.202 317.219 195.163 317.311C195.123 317.399 195.078 317.476 195.026 317.543C195.021 317.727 195.02 317.905 195.024 318.077C195.028 318.244 195.033 318.364 195.039 318.437C195.065 318.748 195.119 319.073 195.2 319.411C195.281 319.749 195.337 320.105 195.369 320.478C195.382 320.634 195.365 320.777 195.319 320.907C195.277 321.036 195.214 321.149 195.128 321.245C195.043 321.347 194.94 321.427 194.819 321.485C194.699 321.548 194.566 321.586 194.421 321.6C194.359 321.605 194.293 321.593 194.222 321.563C194.152 321.532 194.085 321.489 194.023 321.432C193.966 321.374 193.916 321.308 193.873 321.233C193.83 321.159 193.805 321.082 193.799 321.005L193.544 317.818L191.087 317.954Z" fill="white"/>
<path d="M530.821 266.113C530.821 266.113 509.242 274.388 499.075 293.665C488.907 312.941 494.001 335.92 494.001 335.92C494.001 335.92 515.581 327.645 525.748 308.368C535.916 289.092 530.821 266.113 530.821 266.113Z" fill="#8A548B"/>
<path d="M559.808 294.856C559.808 294.856 552.738 317.282 534.382 328.572C516.025 339.863 493.333 335.742 493.333 335.742C493.333 335.742 500.403 313.317 518.759 302.026C537.116 290.736 559.808 294.856 559.808 294.856Z" fill="#BD5DCC"/>
<path d="M633.027 342.037L19.4618 342.037L19.4618 343.71L633.027 343.71L633.027 342.037Z" fill="#2F2E41"/>
<path d="M538.537 342.029C538.537 342.029 524.252 337.502 495.783 332.962L496.406 324.048C501.314 273.868 468.591 198.598 468.591 198.598C481.092 235.996 487.038 275.357 486.155 314.869C481.788 307.081 473.353 298.679 457.138 293.522C457.138 293.522 478.226 312.01 484.265 331.242C456.577 327.493 428.719 325.2 400.801 324.371L408.052 307.321L394.145 321.539C394.145 321.539 388.418 278.886 376.147 277.213L385.146 319.03C385.146 319.03 374.511 310.667 372.057 311.503L378.108 323.876C337.352 323.444 288.868 325.328 232.68 331.363L239.526 315.266L225.619 329.484C225.619 329.484 219.892 286.831 207.621 285.158L216.62 326.975C216.62 326.975 205.985 318.612 203.531 319.448L210.601 333.905C192.24 336.137 173.112 338.845 153.218 342.029L538.537 342.029Z" fill="#8A548B"/>
<path d="M620.755 130.736L620.755 341.86L624.827 342.265L624.827 131.141L620.755 130.736Z" fill="#263238"/>
<path d="M588.907 196.25L625.032 131.661L621.702 129.208L585.578 193.797L588.907 196.25Z" fill="#263238"/>
<path d="M598.661 170.483C601.46 171.506 603.661 173.778 604.652 176.667L619.093 218.761C620.359 222.451 619.458 226.565 616.776 229.334L592.583 254.308C589.901 257.076 585.916 258.007 582.34 256.7L541.563 241.792C538.765 240.769 536.563 238.497 535.572 235.608L521.131 193.515C519.865 189.824 520.766 185.71 523.449 182.941L547.641 157.968C550.323 155.199 554.308 154.268 557.884 155.575L598.661 170.483Z" fill="#263238"/>
<path d="M563.155 231.658C563.489 232.029 563.732 232.414 563.883 232.814C564.034 233.214 564.097 233.615 564.072 234.019C564.048 234.423 563.944 234.821 563.761 235.213C563.569 235.604 563.302 235.976 562.959 236.33L561.204 238.053C561.07 238.184 560.907 238.247 560.715 238.243C560.524 238.238 560.33 238.135 560.134 237.933C560.032 237.828 559.977 237.712 559.969 237.586C559.961 237.46 559.987 237.327 560.049 237.188C560.106 237.045 560.193 236.896 560.312 236.74C560.426 236.589 560.556 236.437 560.703 236.286C560.874 236.109 561.066 235.928 561.278 235.743C561.486 235.553 561.665 235.381 561.816 235.225C562.101 234.931 562.293 234.649 562.391 234.379C562.48 234.11 562.499 233.843 562.446 233.578C562.385 233.312 562.26 233.041 562.073 232.763C561.881 232.49 561.643 232.201 561.357 231.898L560.171 230.623C560.04 230.733 559.875 230.882 559.676 231.071C559.468 231.261 559.245 231.473 559.009 231.709C558.764 231.945 558.512 232.193 558.251 232.454C557.986 232.719 557.729 232.98 557.48 233.237C557.134 233.594 556.83 233.929 556.569 234.24C556.304 234.548 556.1 234.775 555.957 234.922C555.741 235.145 555.531 235.244 555.328 235.219C555.116 235.194 554.932 235.101 554.777 234.941C554.7 234.861 554.649 234.766 554.624 234.657C554.596 234.552 554.59 234.444 554.606 234.335C554.614 234.226 554.641 234.123 554.685 234.026C554.722 233.929 554.767 233.853 554.82 233.798C555.203 233.403 555.578 233.02 555.945 232.65C556.308 232.283 556.671 231.917 557.034 231.551C557.388 231.185 557.747 230.819 558.11 230.453C558.473 230.087 558.842 229.71 559.217 229.323C559.221 229.226 559.247 229.114 559.296 228.988C559.341 228.866 559.406 228.761 559.492 228.673C559.537 228.626 559.612 228.586 559.718 228.553C559.82 228.523 559.918 228.506 560.012 228.502C560.171 228.372 560.322 228.241 560.464 228.111C560.603 227.984 560.701 227.892 560.758 227.833C561.003 227.58 561.239 227.294 561.467 226.974C561.696 226.655 561.957 226.343 562.25 226.04C562.372 225.914 562.505 225.823 562.648 225.769C562.786 225.71 562.927 225.682 563.07 225.687C563.216 225.687 563.357 225.718 563.492 225.781C563.63 225.84 563.757 225.929 563.871 226.046C563.92 226.097 563.956 226.164 563.981 226.248C564.005 226.333 564.015 226.423 564.011 226.52C564.003 226.612 563.983 226.705 563.95 226.798C563.918 226.89 563.871 226.968 563.81 227.031L561.296 229.601L563.155 231.658ZM556.373 227.031C555.603 227.827 554.838 228.397 554.08 228.742C553.318 229.091 552.584 229.26 551.879 229.247C551.169 229.239 550.496 229.07 549.86 228.742C549.22 228.418 548.637 227.984 548.111 227.442C547.488 226.798 547.041 226.131 546.772 225.44C546.495 224.75 546.389 224.047 546.454 223.332C546.511 222.617 546.734 221.895 547.121 221.167C547.508 220.439 548.05 219.715 548.747 218.995C549.347 218.376 549.995 217.918 550.692 217.619C551.381 217.32 552.074 217.169 552.771 217.164C553.46 217.16 554.133 217.299 554.789 217.581C555.442 217.859 556.031 218.269 556.557 218.812C556.924 219.191 557.227 219.605 557.468 220.056C557.704 220.502 557.88 220.965 557.994 221.444C558.1 221.924 558.147 222.415 558.134 222.915C558.114 223.416 558.037 223.909 557.902 224.393C557.763 224.872 557.568 225.335 557.315 225.781C557.058 226.232 556.744 226.648 556.373 227.031ZM555.028 226.046C555.297 225.769 555.533 225.461 555.737 225.125C555.933 224.788 556.094 224.437 556.22 224.071C556.347 223.704 556.432 223.334 556.477 222.96C556.522 222.585 556.522 222.219 556.477 221.861C556.428 221.499 556.333 221.156 556.19 220.832C556.047 220.508 555.851 220.218 555.603 219.961C555.207 219.553 554.777 219.243 554.312 219.033C553.84 218.823 553.35 218.726 552.845 218.743C552.339 218.759 551.826 218.898 551.304 219.159C550.778 219.416 550.26 219.807 549.75 220.333C549.261 220.838 548.878 221.352 548.601 221.874C548.319 222.391 548.148 222.901 548.087 223.401C548.026 223.902 548.079 224.386 548.246 224.853C548.405 225.32 548.678 225.754 549.065 226.154C549.469 226.57 549.911 226.897 550.393 227.132C550.874 227.368 551.377 227.492 551.903 227.505C552.421 227.517 552.947 227.408 553.481 227.176C554.011 226.941 554.526 226.564 555.028 226.046ZM545.788 213.73C546.122 214.101 546.365 214.486 546.515 214.886C546.666 215.285 546.729 215.687 546.705 216.091C546.681 216.495 546.577 216.893 546.393 217.284C546.201 217.676 545.934 218.048 545.592 218.402L543.837 220.125C543.702 220.256 543.539 220.319 543.348 220.314C543.156 220.31 542.962 220.207 542.767 220.005C542.665 219.9 542.61 219.784 542.602 219.658C542.593 219.532 542.62 219.399 542.681 219.26C542.738 219.117 542.826 218.968 542.944 218.812C543.058 218.661 543.189 218.509 543.335 218.358C543.507 218.181 543.698 218 543.91 217.815C544.118 217.625 544.298 217.453 544.448 217.297C544.734 217.002 544.925 216.72 545.023 216.451C545.113 216.182 545.131 215.915 545.078 215.649C545.017 215.384 544.893 215.113 544.705 214.835C544.514 214.562 544.275 214.273 543.99 213.97L542.803 212.695C542.673 212.804 542.508 212.954 542.308 213.143C542.1 213.333 541.878 213.545 541.641 213.781C541.397 214.017 541.144 214.265 540.883 214.526C540.618 214.791 540.361 215.052 540.113 215.309C539.766 215.666 539.462 216.001 539.201 216.312C538.936 216.619 538.733 216.847 538.59 216.994C538.374 217.217 538.164 217.316 537.96 217.291C537.748 217.265 537.565 217.173 537.41 217.013C537.332 216.933 537.281 216.838 537.257 216.729C537.228 216.624 537.222 216.516 537.238 216.407C537.247 216.298 537.273 216.194 537.318 216.098C537.355 216.001 537.399 215.925 537.452 215.87C537.836 215.475 538.211 215.092 538.578 214.721C538.941 214.355 539.303 213.989 539.666 213.623C540.021 213.257 540.38 212.891 540.743 212.525C541.105 212.158 541.474 211.782 541.849 211.395C541.853 211.298 541.88 211.186 541.929 211.06C541.974 210.938 542.039 210.833 542.125 210.744C542.169 210.698 542.245 210.658 542.351 210.624C542.453 210.595 542.551 210.578 542.644 210.574C542.803 210.444 542.954 210.313 543.097 210.183C543.236 210.056 543.333 209.964 543.39 209.905C543.635 209.652 543.872 209.366 544.1 209.046C544.328 208.726 544.589 208.415 544.883 208.112C545.005 207.986 545.137 207.895 545.28 207.841C545.419 207.782 545.559 207.754 545.702 207.758C545.849 207.758 545.989 207.79 546.124 207.853C546.263 207.912 546.389 208 546.503 208.118C546.552 208.169 546.589 208.236 546.613 208.32C546.638 208.404 546.648 208.495 546.644 208.592C546.636 208.684 546.615 208.777 546.583 208.87C546.55 208.962 546.503 209.04 546.442 209.103L543.929 211.672L545.788 213.73ZM582.725 216.646C582.566 216.81 582.389 216.998 582.193 217.208C581.997 217.418 581.814 217.612 581.642 217.789C581.382 218.058 581.104 218.34 580.811 218.635C580.517 218.929 580.22 219.228 579.918 219.531C579.612 219.838 579.306 220.145 579.001 220.453C578.695 220.76 578.395 221.065 578.102 221.368C577.8 221.679 577.511 222.004 577.233 222.34C576.952 222.673 576.642 223.014 576.304 223.363C576.247 223.422 576.167 223.487 576.065 223.559C575.959 223.626 575.847 223.678 575.729 223.716C575.607 223.758 575.488 223.775 575.374 223.767C575.256 223.763 575.154 223.716 575.068 223.628C574.897 223.451 574.795 223.262 574.763 223.06C574.722 222.858 574.728 222.65 574.781 222.435C574.83 222.216 574.912 221.993 575.026 221.766C575.14 221.538 575.262 221.311 575.393 221.084C575.519 220.852 575.643 220.623 575.766 220.396C575.88 220.169 575.965 219.946 576.022 219.727C576.128 219.34 576.241 218.917 576.359 218.458C576.477 217.999 576.593 217.538 576.707 217.075C576.817 216.608 576.926 216.156 577.032 215.718C577.129 215.28 577.213 214.887 577.282 214.538C577.335 214.163 577.386 213.803 577.435 213.458C577.48 213.109 577.517 212.797 577.545 212.524C577.57 212.255 577.584 212.034 577.588 211.861C577.588 211.684 577.57 211.577 577.533 211.539C577.521 211.526 577.462 211.562 577.356 211.646C577.246 211.726 577.111 211.836 576.952 211.975C576.789 212.118 576.61 212.278 576.414 212.454C576.21 212.631 576.014 212.808 575.827 212.985C575.631 213.161 575.45 213.328 575.283 213.483C575.111 213.635 574.975 213.759 574.873 213.856C574.339 214.399 573.868 214.876 573.46 215.289C573.052 215.701 572.692 216.07 572.378 216.394C572.056 216.718 571.77 217.008 571.522 217.265C571.273 217.521 571.038 217.763 570.818 217.991C570.615 218.201 570.427 218.378 570.256 218.521C570.085 218.664 569.923 218.767 569.773 218.83C569.618 218.889 569.475 218.906 569.345 218.881C569.206 218.856 569.075 218.78 568.953 218.654C568.851 218.548 568.772 218.449 568.715 218.357C568.654 218.268 568.625 218.172 568.629 218.066C568.629 217.965 568.67 217.852 568.751 217.726C568.825 217.599 568.947 217.448 569.118 217.271C569.538 216.838 569.964 216.419 570.396 216.015C570.824 215.615 571.257 215.203 571.693 214.778C572.435 214.054 573.201 213.326 573.992 212.593C574.779 211.865 575.564 211.139 576.347 210.415C576.53 210.251 576.724 210.072 576.928 209.879C577.131 209.685 577.345 209.532 577.57 209.418C577.786 209.304 578.012 209.26 578.248 209.285C578.485 209.302 578.734 209.445 578.995 209.715C579.052 209.774 579.096 209.841 579.129 209.917C579.162 209.992 579.188 210.07 579.209 210.15C579.229 210.222 579.241 210.293 579.245 210.365C579.249 210.436 579.247 210.493 579.239 210.535C579.227 211.289 579.174 212.059 579.08 212.846C578.978 213.633 578.854 214.418 578.707 215.2C578.56 215.983 578.395 216.756 578.212 217.517C578.02 218.279 577.822 219.009 577.619 219.708C578.634 218.66 579.384 217.856 579.869 217.296C580.354 216.737 580.621 216.423 580.67 216.356C580.772 216.2 580.896 216.021 581.043 215.819C581.186 215.613 581.355 215.409 581.551 215.207C581.665 215.089 581.783 214.988 581.905 214.904C582.024 214.815 582.144 214.754 582.266 214.721C582.389 214.687 582.509 214.685 582.627 214.714C582.745 214.744 582.859 214.815 582.969 214.929C583.128 215.093 583.23 215.249 583.275 215.396C583.316 215.548 583.318 215.693 583.281 215.832C583.241 215.975 583.171 216.114 583.073 216.248C582.967 216.383 582.851 216.516 582.725 216.646ZM571.369 211.287C570.843 211.829 570.313 212.259 569.779 212.574C569.241 212.886 568.711 213.1 568.189 213.218C567.659 213.336 567.139 213.368 566.629 213.313C566.116 213.254 565.62 213.13 565.143 212.941C564.666 212.751 564.214 212.503 563.786 212.196C563.35 211.888 562.946 211.543 562.575 211.16C561.935 210.5 561.464 209.799 561.162 209.058C560.861 208.318 560.728 207.562 560.765 206.792C560.797 206.026 561.001 205.256 561.376 204.481C561.747 203.711 562.285 202.962 562.991 202.234C563.398 201.813 563.839 201.472 564.312 201.211C564.78 200.946 565.264 200.755 565.761 200.637C566.258 200.519 566.762 200.471 567.271 200.492C567.773 200.513 568.266 200.597 568.751 200.744C569.237 200.892 569.699 201.1 570.14 201.369C570.58 201.639 570.981 201.961 571.344 202.335C571.732 202.735 572.048 203.187 572.292 203.692C572.533 204.193 572.708 204.719 572.818 205.271C572.928 205.822 572.977 206.382 572.965 206.95C572.953 207.518 572.881 208.067 572.751 208.597C572.62 209.128 572.441 209.624 572.213 210.087C571.976 210.55 571.695 210.95 571.369 211.287ZM570.072 210.327C570.35 210.041 570.59 209.713 570.794 209.342C570.99 208.972 571.144 208.581 571.259 208.168C571.369 207.751 571.438 207.326 571.467 206.893C571.491 206.464 571.471 206.043 571.405 205.63C571.332 205.218 571.214 204.827 571.051 204.456C570.884 204.09 570.663 203.766 570.39 203.484C569.958 203.038 569.479 202.687 568.953 202.43C568.419 202.173 567.869 202.034 567.302 202.013C566.735 201.992 566.165 202.102 565.59 202.341C565.015 202.581 564.465 202.973 563.939 203.516C563.425 204.046 563.036 204.599 562.771 205.176C562.502 205.748 562.351 206.316 562.318 206.88C562.285 207.444 562.367 207.987 562.563 208.509C562.758 209.031 563.062 209.504 563.474 209.929C563.918 210.388 564.414 210.769 564.96 211.072C565.502 211.371 566.065 211.556 566.648 211.627C567.231 211.699 567.818 211.636 568.409 211.438C568.992 211.24 569.546 210.87 570.072 210.327ZM561.737 194.741C561.639 194.842 561.537 194.939 561.431 195.031C561.325 195.124 561.219 195.225 561.113 195.334C560.983 195.469 560.863 195.61 560.753 195.757C560.634 195.905 560.518 196.054 560.404 196.206C560.29 196.357 560.174 196.511 560.055 196.666C559.933 196.818 559.803 196.965 559.664 197.108C559.444 197.335 559.236 197.571 559.04 197.815C558.84 198.055 558.641 198.299 558.441 198.548C558.241 198.796 558.039 199.046 557.836 199.299C557.624 199.551 557.401 199.802 557.169 200.05L555.891 201.395C556.025 201.525 556.18 201.66 556.356 201.799C556.527 201.942 556.706 202.085 556.894 202.228C557.073 202.371 557.255 202.52 557.438 202.676C557.617 202.828 557.78 202.979 557.927 203.131C558.196 203.408 558.359 203.64 558.416 203.825C558.465 204.01 558.429 204.174 558.306 204.317C558.143 204.511 557.978 204.635 557.811 204.69C557.644 204.745 557.483 204.755 557.328 204.721C557.169 204.692 557.018 204.629 556.875 204.532C556.729 204.431 556.598 204.322 556.484 204.204C555.881 203.581 555.261 202.966 554.625 202.36C553.985 201.75 553.339 201.108 552.686 200.435C552.593 200.338 552.493 200.248 552.387 200.164C552.277 200.084 552.167 200.004 552.057 199.924C551.942 199.84 551.832 199.755 551.726 199.671C551.612 199.587 551.504 199.492 551.402 199.387C551.304 199.286 551.239 199.172 551.207 199.046C551.174 198.92 551.166 198.79 551.182 198.655C551.194 198.524 551.233 198.396 551.298 198.27C551.355 198.144 551.431 198.032 551.525 197.935C551.582 197.876 551.667 197.826 551.781 197.784C551.891 197.746 552.012 197.723 552.142 197.714C552.273 197.706 552.401 197.716 552.527 197.746C552.65 197.779 552.75 197.836 552.827 197.916C552.921 198.013 552.992 198.116 553.041 198.226C553.086 198.339 553.125 198.451 553.157 198.56C553.182 198.67 553.208 198.768 553.237 198.857C553.261 198.949 553.298 199.021 553.347 199.071C553.388 199.114 553.469 199.194 553.591 199.311C553.706 199.429 553.834 199.558 553.977 199.696C554.115 199.831 554.252 199.959 554.386 200.082C554.517 200.199 554.619 200.284 554.692 200.334L554.827 200.195C554.892 200.128 554.994 200.023 555.133 199.88C555.263 199.736 555.457 199.532 555.714 199.267C556.125 198.842 556.523 198.402 556.906 197.948C557.281 197.493 557.652 197.022 558.019 196.534C558.394 196.096 558.775 195.665 559.163 195.24C559.546 194.81 559.917 194.352 560.276 193.863C560.304 193.826 560.345 193.758 560.398 193.661C560.451 193.565 560.51 193.462 560.575 193.352C560.636 193.247 560.697 193.146 560.759 193.049C560.816 192.948 560.863 192.879 560.899 192.841C560.993 192.744 561.079 192.668 561.156 192.614C561.23 192.563 561.307 192.538 561.389 192.538C561.47 192.538 561.56 192.567 561.658 192.626C561.755 192.685 561.87 192.778 562 192.904C562.188 193.081 562.306 193.249 562.355 193.409C562.404 193.569 562.406 193.722 562.361 193.87C562.312 194.021 562.23 194.169 562.116 194.312C562.002 194.455 561.876 194.598 561.737 194.741ZM607.566 210.282C607.537 210.312 607.478 210.36 607.389 210.427C607.299 210.495 607.201 210.57 607.095 210.655C606.989 210.739 606.883 210.823 606.777 210.907C606.667 210.996 606.577 211.075 606.508 211.147L601.665 216.147C601.599 216.214 601.514 216.302 601.408 216.412C601.298 216.517 601.178 216.629 601.047 216.746C600.908 216.864 600.764 216.976 600.613 217.081C600.458 217.182 600.307 217.262 600.16 217.321C600.014 217.38 599.873 217.407 599.738 217.403C599.604 217.399 599.486 217.344 599.384 217.239C599.278 217.129 599.184 217.012 599.102 216.885C599.013 216.759 598.929 216.631 598.852 216.5C598.766 216.37 598.682 216.241 598.601 216.115C598.511 215.989 598.411 215.869 598.301 215.755L595.207 212.561C595.166 212.519 595.107 212.466 595.03 212.403C594.948 212.344 594.866 212.281 594.785 212.214C594.699 212.151 594.618 212.088 594.54 212.024C594.459 211.966 594.396 211.913 594.351 211.867C594.273 211.787 594.21 211.675 594.161 211.532C594.112 211.389 594.086 211.24 594.082 211.084C594.074 210.924 594.09 210.768 594.131 210.617C594.167 210.469 594.235 210.345 594.332 210.244C594.516 210.055 594.701 209.956 594.889 209.948C595.072 209.943 595.264 210.044 595.464 210.251C595.496 210.284 595.558 210.364 595.647 210.49C595.729 210.617 595.818 210.751 595.916 210.895C596.006 211.038 596.094 211.174 596.179 211.305C596.257 211.435 596.308 211.522 596.332 211.564C596.353 211.585 596.422 211.652 596.54 211.766C596.654 211.884 596.801 212.031 596.98 212.208C597.16 212.384 597.36 212.582 597.58 212.801C597.8 213.02 598.024 213.243 598.252 213.47C598.786 213.996 599.39 214.594 600.062 215.263C600.095 215.297 600.138 215.311 600.191 215.307C600.24 215.299 600.27 215.288 600.283 215.276C600.413 215.166 600.535 215.061 600.65 214.96C600.76 214.863 600.886 214.745 601.029 214.606C601.167 214.472 601.339 214.303 601.542 214.101C601.742 213.895 601.999 213.63 602.313 213.306C602.358 213.26 602.382 213.209 602.386 213.154C602.382 213.1 602.37 213.041 602.35 212.978C602.321 212.915 602.284 212.851 602.24 212.788C602.191 212.729 602.14 212.673 602.087 212.618C601.703 212.222 601.29 211.846 600.845 211.488C600.393 211.13 599.944 210.772 599.5 210.415C599.426 210.356 599.351 210.303 599.274 210.257C599.192 210.206 599.111 210.156 599.029 210.105C598.943 210.051 598.858 209.992 598.772 209.929C598.687 209.866 598.603 209.792 598.521 209.708C598.399 209.581 598.332 209.457 598.32 209.335C598.299 209.213 598.307 209.104 598.344 209.007C598.377 208.906 598.424 208.82 598.485 208.748C598.542 208.672 598.587 208.618 598.619 208.584C598.758 208.441 598.896 208.353 599.035 208.319C599.166 208.285 599.304 208.298 599.451 208.357C599.594 208.412 599.747 208.506 599.91 208.641C600.069 208.78 600.244 208.948 600.436 209.146C600.676 209.394 600.931 209.628 601.2 209.847C601.461 210.065 601.728 210.282 602.001 210.497C602.27 210.716 602.541 210.937 602.814 211.16C603.079 211.383 603.336 211.623 603.585 211.879C603.715 211.745 603.817 211.639 603.891 211.564C603.96 211.484 604.001 211.437 604.013 211.425C604.376 211.05 604.739 210.659 605.101 210.251C605.456 209.842 605.856 209.409 606.3 208.95C606.386 208.862 606.486 208.771 606.6 208.679C606.706 208.586 606.82 208.515 606.942 208.464C607.06 208.418 607.183 208.401 607.309 208.414C607.427 208.426 607.544 208.491 607.658 208.609C607.8 208.757 607.898 208.904 607.951 209.051C608.004 209.198 608.023 209.344 608.006 209.487C607.986 209.626 607.939 209.762 607.866 209.897C607.784 210.032 607.684 210.16 607.566 210.282ZM596.711 205.844C596.185 206.387 595.655 206.816 595.121 207.132C594.583 207.444 594.053 207.658 593.531 207.776C593.001 207.894 592.482 207.925 591.972 207.871C591.458 207.812 590.963 207.688 590.486 207.498C590.009 207.309 589.556 207.061 589.128 206.753C588.692 206.446 588.288 206.101 587.917 205.718C587.277 205.057 586.807 204.357 586.505 203.616C586.203 202.875 586.071 202.12 586.107 201.35C586.14 200.584 586.344 199.814 586.719 199.039C587.09 198.269 587.628 197.52 588.333 196.792C588.741 196.371 589.181 196.03 589.654 195.769C590.123 195.504 590.606 195.313 591.104 195.195C591.601 195.077 592.104 195.029 592.614 195.05C593.115 195.071 593.609 195.155 594.094 195.302C594.579 195.449 595.042 195.658 595.482 195.927C595.922 196.196 596.324 196.518 596.687 196.893C597.074 197.293 597.39 197.745 597.635 198.25C597.875 198.751 598.051 199.277 598.161 199.828C598.271 200.38 598.32 200.939 598.307 201.507C598.295 202.076 598.224 202.625 598.093 203.155C597.963 203.685 597.784 204.182 597.555 204.645C597.319 205.108 597.037 205.508 596.711 205.844ZM595.415 204.885C595.692 204.599 595.933 204.27 596.136 203.9C596.332 203.53 596.487 203.138 596.601 202.726C596.711 202.309 596.781 201.884 596.809 201.451C596.834 201.021 596.813 200.601 596.748 200.188C596.675 199.776 596.556 199.384 596.393 199.014C596.226 198.648 596.006 198.324 595.733 198.042C595.301 197.596 594.822 197.244 594.296 196.988C593.762 196.731 593.211 196.592 592.645 196.571C592.078 196.55 591.507 196.659 590.932 196.899C590.357 197.139 589.807 197.53 589.281 198.073C588.767 198.604 588.378 199.157 588.113 199.734C587.844 200.306 587.693 200.874 587.661 201.438C587.628 202.002 587.71 202.545 587.905 203.067C588.101 203.589 588.405 204.062 588.816 204.487C589.261 204.946 589.756 205.327 590.302 205.63C590.845 205.928 591.407 206.114 591.99 206.185C592.573 206.257 593.16 206.194 593.751 205.996C594.334 205.798 594.889 205.428 595.415 204.885ZM587.942 187.803C588.309 188.181 588.564 188.583 588.706 189.008C588.845 189.438 588.9 189.873 588.871 190.315C588.839 190.761 588.735 191.209 588.56 191.66C588.384 192.11 588.166 192.55 587.905 192.979C587.644 193.408 587.355 193.821 587.037 194.216C586.715 194.608 586.393 194.97 586.071 195.302C585.834 195.546 585.565 195.807 585.263 196.085C584.958 196.367 584.644 196.645 584.322 196.918C584 197.192 583.68 197.455 583.362 197.707C583.039 197.956 582.742 198.17 582.469 198.351C582.33 198.444 582.159 198.482 581.955 198.465C581.751 198.448 581.568 198.355 581.405 198.187C581.307 198.086 581.242 197.989 581.209 197.897C581.176 197.804 581.166 197.714 581.178 197.625C581.191 197.537 581.223 197.453 581.276 197.373C581.321 197.293 581.38 197.215 581.454 197.139C581.498 197.093 581.549 197.044 581.606 196.994C581.664 196.943 581.721 196.897 581.778 196.855C581.994 196.699 582.23 196.523 582.487 196.325C582.736 196.127 582.989 195.921 583.245 195.706C583.498 195.496 583.745 195.283 583.985 195.069C584.218 194.854 584.426 194.652 584.609 194.462C584.874 194.189 585.147 193.894 585.429 193.579C585.706 193.259 585.969 192.928 586.217 192.588C586.458 192.247 586.67 191.902 586.853 191.552C587.037 191.203 587.163 190.858 587.233 190.517C587.302 190.176 587.302 189.848 587.233 189.532C587.159 189.212 586.992 188.918 586.731 188.648C586.421 188.329 586.097 188.078 585.759 187.897C585.416 187.712 585.074 187.603 584.731 187.569C584.385 187.54 584.046 187.586 583.716 187.708C583.382 187.826 583.066 188.026 582.768 188.308L579.246 191.641C578.797 192.062 578.402 192.398 578.06 192.651C577.713 192.907 577.411 193.088 577.154 193.194C576.898 193.299 576.677 193.337 576.494 193.307C576.307 193.282 576.148 193.202 576.017 193.067C575.883 192.928 575.848 192.741 575.913 192.506C575.974 192.274 576.109 192.051 576.317 191.836C576.366 191.786 576.51 191.674 576.751 191.502C576.991 191.329 577.295 191.104 577.662 190.826C578.021 190.549 578.42 190.22 578.861 189.842C579.297 189.467 579.735 189.052 580.175 188.598C580.4 188.366 580.632 188.122 580.873 187.866C581.113 187.609 581.358 187.348 581.606 187.083C581.847 186.818 582.092 186.553 582.34 186.288C582.585 186.018 582.825 185.761 583.062 185.517C583.184 185.391 583.313 185.305 583.447 185.259C583.582 185.212 583.714 185.193 583.845 185.202C583.975 185.21 584.101 185.244 584.224 185.303C584.338 185.362 584.44 185.437 584.53 185.53C584.574 185.576 584.599 185.635 584.603 185.707C584.603 185.782 584.597 185.86 584.585 185.94C584.564 186.02 584.542 186.098 584.517 186.174C584.489 186.245 584.466 186.306 584.45 186.357C584.748 186.353 585.043 186.372 585.337 186.414C585.63 186.456 585.924 186.532 586.217 186.641C586.511 186.75 586.802 186.9 587.092 187.089C587.377 187.274 587.661 187.512 587.942 187.803ZM580.622 182.872C580.463 183.036 580.286 183.224 580.09 183.434C579.894 183.645 579.711 183.838 579.539 184.015C579.279 184.284 579.001 184.566 578.708 184.861C578.414 185.155 578.117 185.454 577.815 185.757C577.509 186.064 577.203 186.372 576.898 186.679C576.592 186.986 576.292 187.291 575.999 187.594C575.697 187.906 575.408 188.23 575.13 188.566C574.849 188.899 574.539 189.24 574.201 189.589C574.144 189.648 574.064 189.713 573.962 189.785C573.856 189.852 573.744 189.905 573.626 189.943C573.504 189.985 573.385 190.001 573.271 189.993C573.153 189.989 573.051 189.943 572.966 189.854C572.794 189.677 572.692 189.488 572.66 189.286C572.619 189.084 572.625 188.876 572.678 188.661C572.727 188.442 572.809 188.219 572.923 187.992C573.037 187.765 573.159 187.537 573.29 187.31C573.416 187.079 573.54 186.849 573.663 186.622C573.777 186.395 573.862 186.172 573.919 185.953C574.025 185.566 574.138 185.143 574.256 184.684C574.374 184.225 574.49 183.765 574.604 183.302C574.714 182.834 574.823 182.382 574.929 181.944C575.026 181.507 575.11 181.113 575.179 180.764C575.232 180.389 575.283 180.029 575.332 179.684C575.377 179.335 575.414 179.024 575.442 178.75C575.467 178.481 575.481 178.26 575.485 178.087C575.485 177.911 575.467 177.803 575.43 177.765C575.418 177.753 575.359 177.788 575.253 177.873C575.143 177.953 575.008 178.062 574.849 178.201C574.686 178.344 574.507 178.504 574.311 178.681C574.107 178.857 573.911 179.034 573.724 179.211C573.528 179.388 573.347 179.554 573.18 179.71C573.008 179.861 572.872 179.985 572.77 180.082C572.236 180.625 571.765 181.103 571.357 181.515C570.949 181.928 570.589 182.296 570.275 182.62C569.953 182.944 569.667 183.234 569.419 183.491C569.17 183.748 568.936 183.99 568.715 184.217C568.512 184.427 568.324 184.604 568.153 184.747C567.982 184.89 567.82 184.993 567.67 185.057C567.515 185.115 567.372 185.132 567.242 185.107C567.103 185.082 566.972 185.006 566.85 184.88C566.748 184.775 566.669 184.676 566.612 184.583C566.551 184.495 566.522 184.398 566.526 184.293C566.526 184.192 566.567 184.078 566.648 183.952C566.722 183.826 566.844 183.674 567.015 183.497C567.435 183.064 567.861 182.645 568.293 182.241C568.721 181.841 569.154 181.429 569.59 181.004C570.332 180.28 571.098 179.552 571.889 178.82C572.676 178.091 573.461 177.366 574.244 176.642C574.427 176.478 574.621 176.299 574.825 176.105C575.028 175.911 575.242 175.758 575.467 175.644C575.683 175.531 575.909 175.486 576.145 175.512C576.382 175.529 576.631 175.672 576.892 175.941C576.949 176 576.993 176.067 577.026 176.143C577.059 176.219 577.085 176.297 577.106 176.377C577.126 176.448 577.138 176.52 577.142 176.591C577.146 176.663 577.144 176.72 577.136 176.762C577.124 177.515 577.071 178.285 576.977 179.072C576.875 179.859 576.751 180.644 576.604 181.427C576.457 182.209 576.292 182.982 576.109 183.743C575.917 184.505 575.719 185.235 575.516 185.934C576.531 184.886 577.281 184.082 577.766 183.523C578.251 182.963 578.518 182.649 578.567 182.582C578.669 182.426 578.793 182.247 578.94 182.045C579.083 181.839 579.252 181.635 579.448 181.433C579.562 181.315 579.68 181.214 579.802 181.13C579.921 181.042 580.041 180.981 580.163 180.947C580.286 180.913 580.406 180.911 580.524 180.941C580.642 180.97 580.756 181.042 580.866 181.155C581.025 181.319 581.127 181.475 581.172 181.622C581.213 181.774 581.215 181.919 581.178 182.058C581.138 182.201 581.068 182.34 580.97 182.475C580.864 182.609 580.748 182.742 580.622 182.872ZM565.774 180.297C565.542 180.537 565.317 180.692 565.101 180.764C564.881 180.84 564.677 180.861 564.49 180.827C564.294 180.793 564.117 180.72 563.958 180.606C563.79 180.492 563.64 180.366 563.505 180.227L562.3 178.984C561.95 178.622 561.624 178.192 561.322 177.696C561.012 177.199 560.749 176.663 560.533 176.086C560.313 175.505 560.152 174.901 560.05 174.274C559.944 173.652 559.919 173.029 559.977 172.406C560.03 171.787 560.178 171.187 560.423 170.607C560.659 170.026 561.014 169.491 561.487 169.003C561.984 168.49 562.506 168.111 563.053 167.867C563.599 167.623 564.149 167.484 564.704 167.45C565.258 167.417 565.813 167.471 566.367 167.614C566.913 167.758 567.439 167.955 567.945 168.208C568.446 168.465 568.917 168.761 569.357 169.098C569.798 169.435 570.189 169.78 570.532 170.133C570.621 170.226 570.727 170.339 570.85 170.474C570.972 170.6 571.094 170.735 571.217 170.878C571.343 171.017 571.461 171.156 571.571 171.295C571.677 171.429 571.765 171.549 571.834 171.655C571.956 171.688 572.081 171.732 572.207 171.787C572.33 171.838 572.413 171.886 572.458 171.932C572.617 172.097 572.692 172.284 572.684 172.494C572.672 172.709 572.613 172.926 572.507 173.144C572.401 173.363 572.266 173.578 572.103 173.788C571.932 173.999 571.769 174.184 571.614 174.344L565.774 180.297ZM570.605 172.696C570.605 172.671 570.595 172.631 570.574 172.576C570.55 172.526 570.515 172.469 570.47 172.406C570.426 172.343 570.377 172.275 570.324 172.204C570.263 172.132 570.199 172.063 570.134 171.995L569.15 170.979C568.913 170.735 568.632 170.499 568.306 170.272C567.975 170.041 567.623 169.837 567.248 169.66C566.869 169.487 566.479 169.35 566.08 169.249C565.672 169.148 565.274 169.1 564.887 169.104C564.5 169.108 564.131 169.174 563.78 169.3C563.422 169.426 563.104 169.632 562.826 169.919C562.488 170.268 562.221 170.661 562.025 171.099C561.821 171.537 561.681 171.993 561.603 172.469C561.526 172.945 561.505 173.428 561.542 173.921C561.579 174.413 561.666 174.891 561.805 175.354C561.94 175.821 562.121 176.261 562.349 176.673C562.574 177.081 562.836 177.441 563.138 177.753C563.22 177.837 563.332 177.948 563.475 178.087C563.613 178.23 563.758 178.371 563.909 178.51C564.055 178.645 564.192 178.765 564.318 178.87C564.445 178.975 564.539 179.034 564.6 179.047C564.779 178.929 564.946 178.807 565.101 178.681C565.252 178.55 565.403 178.416 565.554 178.277C565.696 178.138 565.841 177.993 565.988 177.841C566.135 177.69 566.292 177.528 566.459 177.355C566.63 177.178 566.83 176.972 567.058 176.736C567.278 176.501 567.515 176.248 567.767 175.979C568.02 175.709 568.279 175.43 568.544 175.139C568.805 174.845 569.062 174.554 569.315 174.268C569.567 173.982 569.804 173.704 570.024 173.435C570.244 173.165 570.438 172.919 570.605 172.696Z" fill="white"/>
<path d="M86.056 131.215C84.1959 134.194 81.8462 134.903 79.6208 134.7C77.3953 134.497 76.1369 133.458 77.9969 130.479C79.857 127.5 86.3567 123.913 86.3567 123.913C86.3567 123.913 87.9161 128.236 86.056 131.215Z" fill="#CCCCCC"/>
<path d="M81.0758 183.117C79.2157 186.096 76.8661 186.805 74.6406 186.601C72.4152 186.398 71.1567 185.36 73.0168 182.381C74.8769 179.402 81.3765 175.814 81.3765 175.814C81.3765 175.814 82.9359 180.138 81.0758 183.117Z" fill="#CCCCCC"/>
<path d="M89.218 161.898C88.083 163.715 86.6492 164.148 85.2913 164.024C83.9334 163.9 83.1654 163.266 84.3004 161.449C85.4354 159.631 89.4015 157.442 89.4015 157.442C89.4015 157.442 90.353 160.08 89.218 161.898Z" fill="#CCCCCC"/>
<path d="M53.7343 170.707C52.5993 172.524 51.1655 172.957 49.8076 172.833C48.4496 172.709 47.6817 172.075 48.8167 170.257C49.9517 168.44 53.9178 166.25 53.9178 166.25C53.9178 166.25 54.8693 168.889 53.7343 170.707Z" fill="#CCCCCC"/>
<path d="M314.521 84.7899C312.661 87.7687 310.311 88.4778 308.086 88.2745C305.861 88.0713 304.602 87.0327 306.462 84.0538C308.322 81.075 314.822 77.4871 314.822 77.4871C314.822 77.4871 316.381 81.811 314.521 84.7899Z" fill="#CCCCCC"/>
<path d="M322.663 63.5709C321.528 65.3885 320.095 65.8212 318.737 65.6972C317.379 65.5731 316.611 64.9394 317.746 63.1217C318.881 61.304 322.847 59.1147 322.847 59.1147C322.847 59.1147 323.798 61.7532 322.663 63.5709Z" fill="#CCCCCC"/>
<path d="M287.18 72.3798C286.045 74.1975 284.611 74.6301 283.253 74.5061C281.895 74.3821 281.127 73.7484 282.262 71.9307C283.397 70.113 287.363 67.9237 287.363 67.9237C287.363 67.9237 288.315 70.5621 287.18 72.3798Z" fill="#CCCCCC"/>
<path d="M216.163 178.117C214.303 181.096 211.953 181.805 209.728 181.602C207.502 181.398 206.244 180.36 208.104 177.381C209.964 174.402 216.464 170.814 216.464 170.814C216.464 170.814 218.023 175.138 216.163 178.117Z" fill="#CCCCCC"/>
<path d="M224.305 156.898C223.17 158.716 221.736 159.148 220.378 159.024C219.02 158.9 218.252 158.267 219.387 156.449C220.522 154.631 224.489 152.442 224.489 152.442C224.489 152.442 225.44 155.08 224.305 156.898Z" fill="#CCCCCC"/>
<path d="M188.821 165.707C187.686 167.525 186.253 167.957 184.895 167.833C183.537 167.709 182.769 167.075 183.904 165.258C185.039 163.44 189.005 161.251 189.005 161.251C189.005 161.251 189.956 163.889 188.821 165.707Z" fill="#CCCCCC"/>
<path d="M179.434 89.3134C177.574 92.2923 175.224 93.0013 172.999 92.798C170.773 92.5948 169.515 91.5562 171.375 88.5774C173.235 85.5985 179.735 82.0106 179.735 82.0106C179.735 82.0106 181.294 86.3345 179.434 89.3134Z" fill="#CCCCCC"/>
<path d="M174.454 141.215C172.594 144.194 170.244 144.903 168.019 144.699C165.793 144.496 164.535 143.458 166.395 140.479C168.255 137.5 174.755 133.912 174.755 133.912C174.755 133.912 176.314 138.236 174.454 141.215Z" fill="#CCCCCC"/>
<path d="M182.596 119.996C181.461 121.813 180.027 122.246 178.669 122.122C177.312 121.998 176.544 121.364 177.679 119.547C178.814 117.729 182.78 115.54 182.78 115.54C182.78 115.54 183.731 118.178 182.596 119.996Z" fill="#CCCCCC"/>
<path d="M147.112 128.805C145.977 130.622 144.544 131.055 143.186 130.931C141.828 130.807 141.06 130.173 142.195 128.355C143.33 126.538 147.296 124.348 147.296 124.348C147.296 124.348 148.247 126.987 147.112 128.805Z" fill="#CCCCCC"/>
<path d="M274.68 91.4561C272.82 94.435 270.47 95.144 268.245 94.9407C266.019 94.7375 264.761 93.6989 266.621 90.7201C268.481 87.7412 274.981 84.1533 274.981 84.1533C274.981 84.1533 276.54 88.4772 274.68 91.4561Z" fill="#CCCCCC"/>
<path d="M269.7 143.357C267.84 146.336 265.49 147.045 263.264 146.842C261.039 146.639 259.781 145.6 261.641 142.621C263.501 139.643 270 136.055 270 136.055C270 136.055 271.56 140.379 269.7 143.357Z" fill="#CCCCCC"/>
<path d="M277.842 122.138C276.707 123.956 275.273 124.389 273.915 124.265C272.557 124.141 271.789 123.507 272.924 121.689C274.059 119.872 278.025 117.682 278.025 117.682C278.025 117.682 278.977 120.321 277.842 122.138Z" fill="#CCCCCC"/>
<path d="M363.078 101.455C361.218 104.434 358.868 105.143 356.643 104.94C354.417 104.737 353.159 103.698 355.019 100.719C356.879 97.7406 363.379 94.1526 363.379 94.1526C363.379 94.1526 364.938 98.4766 363.078 101.455Z" fill="#CCCCCC"/>
<path d="M335.736 89.0454C334.601 90.8631 333.168 91.2957 331.81 91.1717C330.452 91.0477 329.684 90.4139 330.819 88.5962C331.954 86.7785 335.92 84.5892 335.92 84.5892C335.92 84.5892 336.871 87.2277 335.736 89.0454Z" fill="#CCCCCC"/>
<path d="M407.277 87.4087C405.417 90.3876 403.067 91.0967 400.842 90.8934C398.616 90.6901 397.358 89.6516 399.218 86.6727C401.078 83.6939 407.578 80.1059 407.578 80.1059C407.578 80.1059 409.137 84.4299 407.277 87.4087Z" fill="#CCCCCC"/>
<path d="M402.297 139.31C400.437 142.289 398.087 142.998 395.861 142.795C393.636 142.591 392.378 141.553 394.238 138.574C396.098 135.595 402.597 132.007 402.597 132.007C402.597 132.007 404.157 136.331 402.297 139.31Z" fill="#CCCCCC"/>
<path d="M410.439 118.091C409.304 119.909 407.87 120.341 406.512 120.217C405.154 120.093 404.386 119.46 405.521 117.642C406.656 115.824 410.622 113.635 410.622 113.635C410.622 113.635 411.574 116.273 410.439 118.091Z" fill="#CCCCCC"/>
<path d="M495.675 97.4081C493.815 100.387 491.465 101.096 489.24 100.893C487.014 100.689 485.756 99.6509 487.616 96.6721C489.476 93.6932 495.976 90.1053 495.976 90.1053C495.976 90.1053 497.535 94.4292 495.675 97.4081Z" fill="#CCCCCC"/>
<path d="M468.333 84.998C467.198 86.8157 465.765 87.2483 464.407 87.1243C463.049 87.0003 462.281 86.3666 463.416 84.5489C464.551 82.7312 468.517 80.5419 468.517 80.5419C468.517 80.5419 469.468 83.1803 468.333 84.998Z" fill="#CCCCCC"/>
<path d="M458.946 121.454C457.086 124.433 454.736 125.142 452.511 124.939C450.285 124.735 449.027 123.697 450.887 120.718C452.747 117.739 459.247 114.151 459.247 114.151C459.247 114.151 460.806 118.475 458.946 121.454Z" fill="#CCCCCC"/>
<path d="M453.966 173.355C452.106 176.334 449.756 177.043 447.531 176.84C445.305 176.637 444.047 175.598 445.907 172.619C447.767 169.641 454.267 166.053 454.267 166.053C454.267 166.053 455.826 170.377 453.966 173.355Z" fill="#CCCCCC"/>
<path d="M462.108 152.136C460.973 153.954 459.539 154.387 458.181 154.263C456.823 154.139 456.056 153.505 457.191 151.687C458.326 149.87 462.292 147.68 462.292 147.68C462.292 147.68 463.243 150.319 462.108 152.136Z" fill="#CCCCCC"/>
<path d="M547.344 131.453C545.484 134.432 543.134 135.141 540.909 134.938C538.683 134.735 537.425 133.696 539.285 130.717C541.145 127.739 547.645 124.151 547.645 124.151C547.645 124.151 549.204 128.475 547.344 131.453Z" fill="#CCCCCC"/>
<path d="M520.003 119.043C518.868 120.861 517.434 121.294 516.076 121.17C514.718 121.046 513.95 120.412 515.085 118.594C516.22 116.777 520.186 114.587 520.186 114.587C520.186 114.587 521.138 117.226 520.003 119.043Z" fill="#CCCCCC"/>
<path d="M125.128 62.195C123.268 65.1739 120.918 65.883 118.693 65.6797C116.467 65.4764 115.209 64.4379 117.069 61.459C118.929 58.4802 125.429 54.8922 125.429 54.8922C125.429 54.8922 126.988 59.2162 125.128 62.195Z" fill="#CCCCCC"/>
<path d="M69.83 326.786L120.993 219.787L119.125 218.592L67.9616 325.591L69.83 326.786Z" fill="#263238"/>
<path d="M69.7376 326.312L61.5069 342.532" stroke="#263238" stroke-width="8" stroke-miterlimit="10"/>
<path d="M18.0387 268.262C56.9562 374.777 136.411 335.009 136.411 335.009L18.0387 268.262Z" fill="#AD6BCC"/>
<path d="M86.3666 324.524C86.7406 324.765 87.0391 325.039 87.2619 325.347C87.4848 325.655 87.6326 325.985 87.7055 326.336C87.7783 326.688 87.7812 327.052 87.7141 327.429C87.64 327.807 87.4966 328.187 87.2837 328.567L86.1724 330.442C86.0869 330.584 85.9611 330.675 85.795 330.715C85.629 330.755 85.4382 330.711 85.2227 330.583C85.1105 330.516 85.0362 330.429 84.9998 330.323C84.9634 330.217 84.9554 330.097 84.9758 329.964C84.9917 329.829 85.0325 329.681 85.0982 329.521C85.1613 329.365 85.2385 329.206 85.3297 329.043C85.4361 328.853 85.5591 328.654 85.6987 328.447C85.8337 328.238 85.9482 328.049 86.0419 327.882C86.2193 327.565 86.3188 327.28 86.3405 327.027C86.3551 326.776 86.3088 326.543 86.2015 326.328C86.0872 326.115 85.917 325.911 85.6909 325.716C85.4623 325.525 85.1899 325.332 84.8736 325.138L83.5553 324.316C83.4683 324.439 83.3608 324.605 83.2328 324.812C83.0977 325.022 82.9557 325.254 82.8068 325.51C82.6508 325.767 82.4908 326.037 82.3267 326.32C82.1601 326.607 81.9995 326.889 81.8449 327.165C81.6295 327.55 81.4457 327.906 81.2933 328.232C81.1364 328.555 81.0137 328.796 80.925 328.955C80.7907 329.195 80.6328 329.327 80.4514 329.352C80.2629 329.378 80.0833 329.341 79.9127 329.239C79.8274 329.188 79.7615 329.119 79.715 329.031C79.666 328.947 79.6357 328.857 79.6244 328.759C79.606 328.664 79.6048 328.569 79.621 328.476C79.6301 328.385 79.6511 328.31 79.684 328.251C79.9222 327.825 80.1563 327.412 80.3863 327.012C80.6137 326.616 80.8412 326.22 81.0686 325.824C81.289 325.43 81.513 325.035 81.7404 324.639C81.9679 324.243 82.1982 323.836 82.4313 323.419C82.4123 323.336 82.4092 323.234 82.422 323.115C82.4323 323 82.464 322.895 82.5172 322.8C82.5451 322.75 82.6007 322.699 82.6842 322.646C82.7652 322.598 82.8455 322.561 82.9253 322.536C83.032 322.388 83.1316 322.242 83.2242 322.098C83.3142 321.958 83.377 321.857 83.4125 321.794C83.5645 321.522 83.7017 321.223 83.824 320.897C83.9463 320.571 84.0987 320.246 84.2811 319.919C84.3571 319.783 84.4502 319.676 84.5604 319.597C84.6661 319.515 84.7809 319.459 84.9048 319.43C85.0313 319.397 85.1597 319.392 85.2903 319.415C85.4234 319.434 85.5528 319.481 85.6785 319.556C85.7324 319.588 85.7797 319.638 85.8203 319.704C85.8609 319.771 85.8907 319.846 85.9097 319.93C85.9242 320.011 85.9282 320.095 85.9216 320.181C85.915 320.268 85.8927 320.345 85.8547 320.413L84.2869 323.184L86.3666 324.524ZM79.4492 322.104C78.9703 322.96 78.4444 323.622 77.8714 324.09C77.2959 324.563 76.7029 324.874 76.0924 325.023C75.4794 325.177 74.8608 325.186 74.2367 325.05C73.61 324.918 73.007 324.679 72.4278 324.334C71.7409 323.925 71.2013 323.455 70.8091 322.926C70.4099 322.398 70.1552 321.82 70.0451 321.193C69.928 320.567 69.9516 319.899 70.1161 319.187C70.2805 318.476 70.5793 317.733 71.0125 316.958C71.385 316.292 71.8368 315.752 72.3678 315.338C72.8919 314.925 73.4537 314.638 74.0532 314.476C74.6457 314.316 75.2575 314.282 75.8884 314.374C76.5149 314.463 77.1177 314.681 77.6969 315.026C78.101 315.267 78.459 315.552 78.7708 315.883C79.0782 316.211 79.3368 316.568 79.5466 316.953C79.7495 317.339 79.9038 317.748 80.0097 318.18C80.1085 318.613 80.1562 319.053 80.1528 319.497C80.1449 319.94 80.0839 320.381 79.9699 320.82C79.8533 321.264 79.6797 321.692 79.4492 322.104ZM78.0614 321.567C78.2286 321.268 78.3609 320.951 78.4582 320.617C78.5485 320.284 78.6056 319.946 78.6294 319.604C78.6531 319.262 78.6408 318.926 78.5924 318.595C78.5439 318.264 78.4588 317.95 78.3371 317.654C78.2108 317.356 78.0486 317.084 77.8503 316.839C77.6521 316.594 77.416 316.39 77.1422 316.226C76.7066 315.967 76.2642 315.8 75.815 315.725C75.3587 315.653 74.9148 315.681 74.4832 315.81C74.0517 315.94 73.6415 316.176 73.2526 316.518C72.8592 316.857 72.5042 317.31 72.1875 317.876C71.8835 318.42 71.6727 318.946 71.5552 319.456C71.4332 319.963 71.404 320.438 71.4677 320.881C71.5315 321.324 71.6896 321.726 71.9422 322.088C72.1877 322.452 72.5237 322.761 72.9503 323.015C73.3948 323.28 73.8516 323.458 74.3208 323.551C74.79 323.643 75.2525 323.635 75.7085 323.526C76.1574 323.419 76.585 323.206 76.9913 322.886C77.393 322.564 77.7497 322.124 78.0614 321.567ZM67.2393 313.124C67.6134 313.365 67.9118 313.64 68.1347 313.948C68.3575 314.256 68.5054 314.585 68.5782 314.937C68.651 315.288 68.6539 315.652 68.5869 316.029C68.5128 316.408 68.3693 316.787 68.1565 317.168L67.0452 319.042C66.9596 319.185 66.8338 319.276 66.6678 319.316C66.5018 319.356 66.311 319.312 66.0955 319.183C65.9832 319.116 65.9089 319.03 65.8725 318.923C65.8362 318.817 65.8282 318.698 65.8486 318.565C65.8645 318.429 65.9053 318.281 65.9709 318.121C66.034 317.966 66.1112 317.806 66.2024 317.643C66.3088 317.453 66.4318 317.254 66.5714 317.048C66.7065 316.838 66.8209 316.65 66.9146 316.482C67.092 316.165 67.1915 315.88 67.2132 315.627C67.2279 315.376 67.1816 315.143 67.0743 314.928C66.96 314.715 66.7898 314.511 66.5637 314.316C66.335 314.125 66.0626 313.933 65.7463 313.738L64.428 312.916C64.3411 313.04 64.2336 313.205 64.1055 313.413C63.9704 313.622 63.8284 313.855 63.6795 314.11C63.5236 314.367 63.3636 314.638 63.1995 314.92C63.0328 315.207 62.8722 315.489 62.7177 315.766C62.5023 316.151 62.3184 316.506 62.166 316.832C62.0092 317.155 61.8864 317.396 61.7977 317.555C61.6634 317.795 61.5056 317.927 61.3241 317.952C61.1356 317.979 60.9561 317.941 60.7855 317.84C60.7002 317.789 60.6342 317.719 60.5877 317.631C60.5387 317.547 60.5085 317.457 60.4971 317.36C60.4787 317.264 60.4776 317.17 60.4937 317.077C60.5028 316.985 60.5238 316.91 60.5568 316.852C60.7949 316.426 61.029 316.013 61.259 315.612C61.4865 315.216 61.7139 314.82 61.9414 314.424C62.1618 314.03 62.3857 313.635 62.6132 313.239C62.8406 312.843 63.0709 312.437 63.304 312.02C63.285 311.936 63.2819 311.835 63.2947 311.715C63.305 311.601 63.3367 311.496 63.3899 311.401C63.4178 311.351 63.4735 311.299 63.557 311.246C63.6379 311.198 63.7183 311.161 63.7981 311.136C63.9047 310.989 64.0043 310.843 64.0969 310.698C64.187 310.559 64.2498 310.457 64.2852 310.394C64.4372 310.122 64.5744 309.823 64.6967 309.498C64.8191 309.172 64.9714 308.846 65.1539 308.52C65.2299 308.384 65.323 308.276 65.4332 308.197C65.5389 308.115 65.6537 308.06 65.7776 308.031C65.904 307.997 66.0325 307.992 66.1631 308.016C66.2962 308.035 66.4256 308.082 66.5513 308.157C66.6052 308.189 66.6524 308.238 66.693 308.305C66.7337 308.371 66.7635 308.446 66.7825 308.53C66.797 308.611 66.8009 308.695 66.7944 308.782C66.7878 308.868 66.7655 308.946 66.7275 309.014L65.1596 311.785L67.2393 313.124Z" fill="white"/>
<path d="M295.302 34.1275L311.386 41.7777L301.621 28.4605C304.386 26.8052 307.809 25.8889 311.347 25.8567C311.433 25.8567 311.519 25.8572 311.605 25.8584C312.723 25.8718 313.84 25.8099 314.942 25.6733L320.393 28.2658L318.056 25.0793C321.918 24.0691 325.255 22.1693 327.592 19.6513L337.347 24.2917L331.184 15.8869C336.889 10.7501 344.579 7.60046 353.041 7.60046C363.186 7.60046 372.223 12.1259 378.057 19.177C379.781 21.2867 382.219 23.0166 385.123 24.1911C388.027 25.3655 391.294 25.9428 394.592 25.8642C394.773 25.8592 394.955 25.8567 395.137 25.8567C406.337 25.8567 415.416 35.3812 415.416 47.1304C415.416 58.8796 406.337 68.4042 395.137 68.4042C392.674 68.3973 390.251 67.9421 388.074 67.0778C384.262 65.688 380.092 64.936 375.854 64.8739C371.617 64.8118 367.411 65.4409 363.529 66.7178C360.25 67.8233 356.697 68.3979 353.101 68.4041C349.506 68.4104 345.949 67.8481 342.662 66.7541C338.811 65.5015 334.645 64.8847 330.448 64.9456C326.25 65.0064 322.12 65.7435 318.335 67.1068C316.178 67.9527 313.781 68.3976 311.347 68.4042C300.147 68.4042 291.068 58.8796 291.068 47.1304C291.003 42.5983 292.459 38.1267 295.302 34.1275Z" fill="#959595"/>
<path d="M227.355 34.1275L240.159 41.7777L232.385 28.4605C234.587 26.8052 237.311 25.8889 240.127 25.8567C240.196 25.8567 240.265 25.8572 240.333 25.8584C241.223 25.8718 242.112 25.8099 242.99 25.6733L247.329 28.2658L245.469 25.0793C248.543 24.0691 251.199 22.1693 253.059 19.6513L260.825 24.2917L255.919 15.8869C260.46 10.7501 266.582 7.60046 273.318 7.60046C281.394 7.60046 288.588 12.1259 293.232 19.177C294.605 21.2867 296.546 23.0166 298.858 24.1911C301.169 25.3655 303.77 25.9428 306.395 25.8642C306.539 25.8592 306.684 25.8567 306.829 25.8567C315.744 25.8567 322.972 35.3812 322.972 47.1304C322.972 58.8796 315.744 68.4042 306.829 68.4042C304.868 68.3973 302.939 67.9421 301.206 67.0778C298.171 65.688 294.853 64.936 291.479 64.8739C288.105 64.8118 284.758 65.4409 281.668 66.7178C279.057 67.8233 276.228 68.3979 273.366 68.4041C270.504 68.4104 267.672 67.8481 265.056 66.7541C261.99 65.5015 258.674 64.8847 255.333 64.9456C251.992 65.0064 248.703 65.7435 245.691 67.1068C243.973 67.9527 242.065 68.3976 240.127 68.4042C231.212 68.4042 223.985 58.8796 223.985 47.1304C223.933 42.5983 225.092 38.1267 227.355 34.1275Z" fill="#959595"/>
<path d="M35.9228 29.905L48.726 37.5552L40.9526 24.238C43.1541 22.5827 45.8786 21.6664 48.6949 21.6342C48.7637 21.6342 48.8323 21.6348 48.9009 21.6359C49.7905 21.6494 50.6795 21.5874 51.5573 21.4508L55.8961 24.0433L54.0361 20.8568C57.1103 19.8466 59.767 17.9469 61.6267 15.4288L69.3927 20.0692L64.4867 11.6644C69.0278 6.52767 75.1497 3.37799 81.8859 3.37799C89.9616 3.37799 97.1555 7.90347 101.8 14.9545C103.172 17.0642 105.113 18.7941 107.425 19.9686C109.737 21.1431 112.337 21.7203 114.962 21.6417C115.107 21.6367 115.251 21.6342 115.397 21.6342C124.312 21.6342 131.539 31.1588 131.539 42.9079C131.539 54.6571 124.312 64.1817 115.397 64.1817C113.436 64.1748 111.506 63.7196 109.774 62.8553C106.739 61.4655 103.42 60.7136 100.046 60.6514C96.6729 60.5893 93.3253 61.2184 90.2352 62.4954C87.6245 63.6008 84.7959 64.1754 81.9337 64.1816C79.0715 64.1879 76.24 63.6256 73.6239 62.5316C70.5578 61.279 67.2417 60.6623 63.9004 60.7231C60.5591 60.784 57.2708 61.521 54.2583 62.8843C52.5408 63.7302 50.6329 64.1751 48.695 64.1817C39.7796 64.1817 32.5523 54.6571 32.5523 42.908C32.5003 38.3759 33.6594 33.9043 35.9228 29.905Z" fill="#959595"/>
<path d="M105.81 41.8067L116.18 46.8005L109.884 38.1073C111.667 37.0268 113.874 36.4287 116.155 36.4076C116.21 36.4076 116.266 36.408 116.321 36.4087C117.042 36.4175 117.762 36.3771 118.473 36.2879L121.987 37.9802L120.481 35.9002C122.97 35.2408 125.122 34.0006 126.628 32.3569L132.918 35.386L128.945 29.8996C132.623 26.5464 137.581 24.4904 143.037 24.4904C149.577 24.4904 155.404 27.4445 159.165 32.0473C160.277 33.4244 161.849 34.5537 163.721 35.3204C165.594 36.087 167.7 36.4639 169.826 36.4126C169.943 36.4093 170.06 36.4076 170.177 36.4076C177.398 36.4076 183.252 42.6251 183.252 50.2947C183.252 57.9643 177.398 64.1817 170.177 64.1817C168.59 64.1772 167.027 63.8801 165.623 63.3158C163.166 62.4086 160.477 61.9178 157.745 61.8772C155.013 61.8366 152.302 62.2473 149.799 63.0809C147.684 63.8025 145.393 64.1776 143.075 64.1817C140.757 64.1857 138.464 63.8187 136.345 63.1045C133.862 62.2869 131.176 61.8843 128.47 61.924C125.764 61.9637 123.1 62.4449 120.661 63.3348C119.27 63.887 117.724 64.1774 116.155 64.1817C108.934 64.1817 103.08 57.9643 103.08 50.2947C103.038 47.3362 103.977 44.4173 105.81 41.8067Z" fill="#959595"/>
<path d="M467.387 26.5602L474.582 30.8103L470.214 23.4118C471.451 22.4922 472.982 21.9832 474.565 21.9653C474.603 21.9653 474.642 21.9656 474.68 21.9662C475.18 21.9737 475.68 21.9393 476.173 21.8634L478.612 23.3037L477.566 21.5334C479.294 20.9722 480.787 19.9168 481.832 18.5179L486.197 21.0958L483.439 16.4265C485.991 13.5728 489.432 11.8229 493.217 11.8229C497.756 11.8229 501.799 14.3371 504.409 18.2543C505.18 19.4264 506.271 20.3874 507.57 21.0399C508.869 21.6924 510.331 22.0131 511.806 21.9695C511.887 21.9667 511.968 21.9653 512.05 21.9653C517.06 21.9653 521.122 27.2567 521.122 33.784C521.122 40.3113 517.06 45.6028 512.05 45.6028C510.948 45.5989 509.864 45.3461 508.89 44.8659C507.185 44.0938 505.319 43.676 503.423 43.6415C501.528 43.607 499.646 43.9565 497.91 44.6659C496.442 45.2801 494.853 45.5993 493.244 45.6027C491.636 45.6062 490.045 45.2939 488.574 44.686C486.851 43.9902 484.988 43.6475 483.11 43.6813C481.232 43.7152 479.384 44.1246 477.691 44.882C476.726 45.3519 475.654 45.5991 474.565 45.6028C469.554 45.6028 465.493 40.3113 465.493 33.784C465.464 31.2662 466.115 28.782 467.387 26.5602Z" fill="#959595"/>
<path d="M153.924 79.8877L158.157 82.2252L155.587 78.1561C156.315 77.6503 157.215 77.3703 158.146 77.3604C158.169 77.3604 158.192 77.3606 158.215 77.361C158.509 77.3651 158.803 77.3462 159.093 77.3044L160.527 78.0966L159.912 77.1229C160.928 76.8143 161.807 76.2338 162.421 75.4644L164.989 76.8823L163.367 74.3141C164.868 72.7446 166.892 71.7822 169.119 71.7822C171.788 71.7822 174.166 73.165 175.702 75.3194C176.156 75.9641 176.797 76.4926 177.561 76.8515C178.326 77.2104 179.185 77.3868 180.053 77.3628C180.101 77.3612 180.149 77.3605 180.197 77.3604C183.144 77.3604 185.533 80.2707 185.533 83.8608C185.533 87.4508 183.144 90.3611 180.197 90.3611C179.548 90.359 178.911 90.2199 178.338 89.9558C177.335 89.5311 176.237 89.3014 175.122 89.2824C174.007 89.2634 172.9 89.4556 171.879 89.8458C171.016 90.1836 170.081 90.3592 169.134 90.3611C168.188 90.363 167.252 90.1912 166.387 89.8569C165.374 89.4741 164.278 89.2857 163.173 89.3043C162.069 89.3229 160.981 89.5481 159.986 89.9647C159.418 90.2231 158.787 90.3591 158.146 90.3611C155.199 90.3611 152.81 87.4508 152.81 83.8608C152.793 82.476 153.176 81.1096 153.924 79.8877Z" fill="#959595"/>
<path d="M513.668 19.8953L523.297 25.6329L517.451 15.645C519.106 14.4035 521.155 13.7163 523.273 13.6922C523.325 13.6922 523.377 13.6926 523.428 13.6934C524.097 13.7035 524.766 13.6571 525.426 13.5546L528.689 15.499L527.29 13.1091C529.602 12.3515 531.6 10.9267 532.999 9.03814L538.84 12.5184L535.15 6.21482C538.565 2.36226 543.169 0 548.235 0C554.309 0 559.719 3.39411 563.212 8.68237C564.244 10.2647 565.704 11.5621 567.442 12.4429C569.181 13.3238 571.137 13.7567 573.111 13.6978C573.219 13.694 573.328 13.6922 573.437 13.6922C580.142 13.6922 585.578 20.8356 585.578 29.6475C585.578 38.4593 580.142 45.6028 573.437 45.6028C571.963 45.5976 570.512 45.2562 569.209 44.608C566.926 43.5657 564.43 43.0017 561.893 42.9551C559.356 42.9085 556.838 43.3803 554.514 44.338C552.551 45.1671 550.424 45.5981 548.271 45.6027C546.119 45.6074 543.989 45.1857 542.022 44.3652C539.716 43.4258 537.222 42.9632 534.709 43.0088C532.196 43.0545 529.723 43.6073 527.457 44.6298C526.166 45.2642 524.731 45.5979 523.273 45.6028C516.569 45.6028 511.133 38.4593 511.133 29.6475C511.094 26.2484 511.966 22.8947 513.668 19.8953Z" fill="#959595"/>
<path d="M400.304 49.3616L407.499 53.6117L403.13 46.2132C404.368 45.2936 405.899 44.7846 407.482 44.7667C407.52 44.7667 407.559 44.767 407.597 44.7676C408.097 44.7751 408.597 44.7407 409.09 44.6648L411.528 46.1051L410.483 44.3348C412.211 43.7736 413.704 42.7181 414.749 41.3192L419.113 43.8972L416.356 39.2279C418.908 36.3742 422.349 34.6243 426.134 34.6243C430.673 34.6243 434.716 37.1385 437.325 41.0557C438.097 42.2278 439.188 43.1888 440.487 43.8413C441.786 44.4938 443.247 44.8145 444.723 44.7709C444.804 44.7681 444.885 44.7667 444.967 44.7667C449.977 44.7667 454.039 50.0581 454.039 56.5854C454.039 63.1127 449.977 68.4042 444.967 68.4042C443.865 68.4003 442.781 68.1475 441.807 67.6673C440.101 66.8952 438.236 66.4774 436.34 66.4429C434.444 66.4084 432.563 66.7579 430.826 67.4673C429.359 68.0815 427.77 68.4007 426.161 68.4041C424.553 68.4076 422.961 68.0952 421.491 67.4874C419.768 66.7916 417.904 66.4489 416.027 66.4827C414.149 66.5165 412.301 66.926 410.608 67.6834C409.643 68.1533 408.571 68.4005 407.482 68.4042C402.471 68.4042 398.41 63.1127 398.41 56.5854C398.38 54.0676 399.032 51.5834 400.304 49.3616Z" fill="#959595"/>
</svg>
