<svg width="438" height="457" viewBox="0 0 438 457" fill="none" xmlns="http://www.w3.org/2000/svg">
<path d="M427.252 221.91C430.781 221.91 433.641 219.984 433.641 217.609C433.641 215.234 430.781 213.308 427.252 213.308C423.724 213.308 420.863 215.234 420.863 217.609C420.863 219.984 423.724 221.91 427.252 221.91Z" fill="#575A89"/>
<path d="M219 457C339.95 457 438 359.622 438 239.5C438 119.378 339.95 22 219 22C98.0496 22 0 119.378 0 239.5C0 359.622 98.0496 457 219 457Z" fill="#EDCA4F"/>
<path d="M333.909 348.8C333.909 383.135 279.56 351.733 221.293 351.733C163.025 351.733 104.091 381.837 104.091 347.503C104.091 327.924 122.874 300.696 149.822 280.92C170.124 266.016 195.056 255.342 220.1 255.342C245.855 255.342 271.084 266.897 291.21 282.76C316.609 302.762 333.909 329.637 333.909 348.8Z" fill="#444053"/>
<path d="M291.203 282.746C260.23 278.114 204.213 272.467 149.822 280.906C170.124 266.002 195.056 255.328 220.1 255.328C245.848 255.328 271.077 266.883 291.203 282.746Z" fill="#F6F8FB"/>
<path opacity="0.05" d="M104.091 85.9669C104.091 85.9669 38.1209 127.852 38.6604 193.37C39.1999 258.888 104.091 85.9669 104.091 85.9669Z" fill="black"/>
<path d="M140.927 153.688C145.071 153.573 164.576 152.851 176.965 149.376C178.955 148.801 181.202 148.475 183.509 148.429C187.448 148.373 191.98 149.182 189.079 153.708C184.377 161.112 157.079 169.443 140.136 168.982C123.843 168.537 104.514 165.309 91.751 153.958C90.5281 152.866 89.9258 151.633 90.0073 150.387C90.1556 148.096 91.8498 145.225 100.596 148.425C112.414 152.747 134.834 153.566 139.331 153.688C139.863 153.702 140.395 153.702 140.927 153.688V153.688Z" fill="#444053"/>
<path d="M297.927 153.688C302.071 153.573 321.576 152.851 333.965 149.376C335.955 148.801 338.202 148.475 340.509 148.429C344.448 148.373 348.98 149.182 346.079 153.708C341.377 161.112 314.079 169.443 297.136 168.982C280.843 168.537 261.514 165.309 248.751 153.958C247.528 152.866 246.926 151.633 247.007 150.387C247.156 148.096 248.85 145.225 257.596 148.425C269.414 152.747 291.834 153.566 296.331 153.688C296.863 153.702 297.395 153.702 297.927 153.688V153.688Z" fill="#444053"/>
<path d="M219.21 35.3839C241.417 35.3839 259.42 32.3393 259.42 28.5838C259.42 24.8283 241.417 21.7838 219.21 21.7838C197.003 21.7838 179 24.8283 179 28.5838C179 32.3393 197.003 35.3839 219.21 35.3839Z" fill="#444053"/>
<path d="M235.83 18.5338C237.665 17.0359 239.004 15.0173 239.67 12.7438C240.16 10.4538 239.18 7.69378 236.99 6.85378C234.53 5.91378 231.9 7.62383 229.91 9.34383C227.92 11.0638 225.63 13.0238 223.02 12.6638C224.362 11.4484 225.366 9.90565 225.934 8.18624C226.502 6.46683 226.614 4.62953 226.26 2.85378C226.146 2.11804 225.835 1.42688 225.36 0.853778C223.99 -0.606222 221.52 0.0138366 219.88 1.16384C214.68 4.82384 213.23 11.8838 213.2 18.2438C212.68 15.9538 213.12 13.5638 213.11 11.2438C213.1 8.92379 212.45 6.24381 210.47 5.01381C209.241 4.35757 207.863 4.03355 206.47 4.07381C204.13 3.98381 201.53 4.21379 199.93 5.92379C197.93 8.05379 198.46 11.6138 200.19 13.9238C201.92 16.2338 204.54 17.7338 206.95 19.3438C208.89 20.4969 210.544 22.0727 211.79 23.9538C211.936 24.2186 212.056 24.4965 212.15 24.7838H226.8C230.078 23.1173 233.116 21.0149 235.83 18.5338Z" fill="#444053"/>
</svg>
