<svg width="319" height="211" viewBox="0 0 319 211" fill="none" xmlns="http://www.w3.org/2000/svg">
<path opacity="0.1" d="M161.148 160.026H140.96L120.735 159.752L120.853 158.653H160.948L161.148 160.026Z" fill="black"/>
<path d="M167.67 158.927H113.993V160.301H167.67V158.927Z" fill="#D0D2D5"/>
<path d="M218.881 31.6079C218.885 31.137 218.801 30.6699 218.634 30.2335C218.467 29.797 218.22 29.3998 217.908 29.0646C217.596 28.7294 217.225 28.4627 216.815 28.2801C216.405 28.0974 215.966 28.0022 215.521 28H65.6216C65.1773 28.0025 64.7378 28.0979 64.3282 28.2807C63.9187 28.4635 63.5473 28.7301 63.2352 29.0653C62.9231 29.4004 62.6764 29.7975 62.5094 30.2339C62.3424 30.6702 62.2583 31.1371 62.2619 31.6079V127.882H218.881V31.6079Z" fill="#3F3D56"/>
<path d="M62.2618 126.92V138.198C62.2618 139.143 62.6158 140.048 63.2459 140.716C63.876 141.383 64.7305 141.758 65.6216 141.758H215.521C216.412 141.758 217.267 141.383 217.897 140.716C218.527 140.048 218.881 139.143 218.881 138.198V126.92H62.2618Z" fill="#D0D2D5"/>
<path d="M213.176 34.0565H68.7453V120.601H213.176V34.0565Z" fill="#2F2E41"/>
<path d="M141.35 137.479C141.88 137.479 142.404 137.352 142.881 137.106C143.358 136.861 143.776 136.504 144.104 136.063C144.204 135.928 144.295 135.785 144.376 135.637L142.456 135.302L144.533 135.319C144.732 134.86 144.841 134.362 144.852 133.857C144.863 133.351 144.777 132.849 144.599 132.38L141.813 133.912L144.383 131.911C144.146 131.463 143.824 131.072 143.436 130.763C143.049 130.454 142.606 130.233 142.134 130.115C141.662 129.997 141.172 129.984 140.696 130.077C140.219 130.17 139.766 130.367 139.365 130.656C138.963 130.944 138.623 131.317 138.365 131.752C138.107 132.187 137.938 132.674 137.867 133.182C137.796 133.69 137.825 134.208 137.953 134.704C138.081 135.199 138.305 135.661 138.61 136.06C138.936 136.501 139.352 136.857 139.826 137.103C140.301 137.349 140.822 137.477 141.35 137.479Z" fill="#B13DA6"/>
<path opacity="0.1" d="M144.851 141.756L160.989 158.927L158.512 141.756H144.851Z" fill="black"/>
<path d="M83.7688 155.642L88.1138 152.933C87.525 151.871 86.774 150.92 85.8914 150.119L77.694 152.82L84.1275 148.818C82.5372 147.895 80.7474 147.426 78.9344 147.459C77.1214 147.491 75.3475 148.023 73.7875 149.003C72.2275 149.982 70.9351 151.375 70.0374 153.044C69.1398 154.714 68.6678 156.602 68.6681 158.523C68.6681 164.633 73.3422 164.847 79.1106 164.847C84.8789 164.847 89.5531 164.633 89.5531 158.523C89.5518 156.976 89.2424 155.447 88.645 154.035L83.7688 155.642Z" fill="#B13DA6"/>
<path opacity="0.1" d="M84.8744 161.583C84.412 161.091 83.8952 160.661 83.3353 160.301C82.5453 159.745 81.7303 159.177 80.7996 158.99C79.9823 158.824 79.1401 158.963 78.3024 158.915C76.857 158.821 75.4965 158.16 74.4864 157.061C73.8939 156.411 73.4263 155.618 72.7134 155.115C71.9439 154.581 70.9677 154.465 70.0551 154.598C69.7905 154.639 69.5283 154.696 69.2697 154.768C68.86 155.973 68.6511 157.243 68.6522 158.523C68.6522 164.633 73.3264 164.847 79.0947 164.847C81.8937 164.847 84.434 164.796 86.3091 164.046L85.9958 163.425C85.697 162.763 85.3202 162.144 84.8744 161.583Z" fill="black"/>
<path opacity="0.1" fill-rule="evenodd" clip-rule="evenodd" d="M148.32 3.4487C174.015 -1.22567 204.297 -1.98241 227.241 6.47268C250.146 14.913 257.234 32.7102 268.139 47.6024C278.091 61.1918 281.475 75.4412 288.22 89.743C297.634 109.705 329.032 129.503 315.789 148.642C303.032 167.08 257.571 164.997 229.186 175.065C200.668 185.181 180.705 204.179 148.32 208.044C113.993 212.14 66.0074 214.647 46.8272 196.828C23.993 175.615 66.6682 146.742 55.95 122.23C49.2037 106.801 0.434363 105.707 0.00371545 89.743C-0.423863 73.8924 36.1606 68.0714 54.1805 56.6341C67.5723 48.1342 78.431 38.9759 92.6112 30.9646C110.444 20.8899 125.016 7.68818 148.32 3.4487Z" fill="#6C63FF"/>
<path opacity="0.1" d="M132.479 167.875C185.764 167.875 228.959 164.321 228.959 159.937C228.959 155.554 185.764 152 132.479 152C79.1953 152 36 155.554 36 159.937C36 164.321 79.1953 167.875 132.479 167.875Z" fill="#B13DA6"/>
<path d="M161.186 160.301L120.735 159.752L120.853 158.653L122.81 140.52H158.333L160.948 158.653L161.148 160.026L161.186 160.301Z" fill="#D0D2D5"/>
<path d="M48.8234 132.043C49.7878 132.043 50.5696 131.138 50.5696 130.022C50.5696 128.905 49.7878 128 48.8234 128C47.8589 128 47.0771 128.905 47.0771 130.022C47.0771 131.138 47.8589 132.043 48.8234 132.043Z" fill="#B13DA6"/>
<path opacity="0.2" d="M49.5604 128.191C49.8701 128.515 50.0688 128.958 50.1204 129.438C50.172 129.918 50.0732 130.403 49.8418 130.806C49.6104 131.208 49.2618 131.501 48.8595 131.632C48.4572 131.762 48.0279 131.721 47.6497 131.515C47.8355 131.711 48.0558 131.859 48.2954 131.947C48.535 132.035 48.7882 132.063 49.0378 132.027C49.2874 131.992 49.5273 131.894 49.7413 131.741C49.9553 131.588 50.1382 131.384 50.2775 131.141C50.4168 130.899 50.5091 130.625 50.5483 130.337C50.5875 130.049 50.5725 129.756 50.5044 129.475C50.4363 129.195 50.3167 128.935 50.1538 128.714C49.9909 128.492 49.7885 128.314 49.5604 128.191Z" fill="black"/>
<path d="M93.7172 134.233C96.0881 134.233 98.0101 133.328 98.0101 132.212C98.0101 131.095 96.0881 130.19 93.7172 130.19C91.3463 130.19 89.4243 131.095 89.4243 132.212C89.4243 133.328 91.3463 134.233 93.7172 134.233Z" fill="#3F3D56"/>
<path opacity="0.2" d="M93.7172 130.19C93.5698 130.19 93.4243 130.193 93.2806 130.2C95.4465 130.303 97.137 131.164 97.137 132.212C97.137 133.259 95.4465 134.12 93.2806 134.223C93.4242 134.23 93.5697 134.233 93.7172 134.233C96.0881 134.233 98.0101 133.328 98.0101 132.212C98.0101 131.095 96.0881 130.19 93.7172 130.19Z" fill="black"/>
<path d="M99.3199 132.212H77.7824V129.516C77.7824 129.382 77.7364 129.254 77.6546 129.159C77.5727 129.064 77.4617 129.011 77.3459 129.011H65.413C65.2972 129.011 65.1862 129.064 65.1043 129.159C65.0224 129.254 64.9764 129.382 64.9764 129.516V132.212H52.4614V130.527C52.4614 130.393 52.4154 130.264 52.3336 130.17C52.2517 130.075 52.1407 130.022 52.0249 130.022H45.6219C45.5061 130.022 45.395 130.075 45.3132 130.17C45.2313 130.264 45.1853 130.393 45.1853 130.527V132.212H43.439C43.3817 132.211 43.3249 132.224 43.2719 132.25C43.2189 132.275 43.1707 132.312 43.1301 132.359C43.0896 132.406 43.0574 132.462 43.0355 132.523C43.0136 132.585 43.0024 132.651 43.0024 132.717V165.904C43.0024 165.97 43.0136 166.036 43.0355 166.097C43.0574 166.159 43.0896 166.214 43.1301 166.261C43.1707 166.308 43.2189 166.346 43.2719 166.371C43.3249 166.396 43.3817 166.409 43.439 166.409H99.3199C99.3772 166.409 99.434 166.396 99.487 166.371C99.54 166.346 99.5882 166.308 99.6287 166.261C99.6693 166.214 99.7014 166.159 99.7233 166.097C99.7453 166.036 99.7565 165.97 99.7564 165.904V132.717C99.7565 132.651 99.7453 132.585 99.7233 132.523C99.7014 132.462 99.6693 132.406 99.6287 132.359C99.5882 132.312 99.54 132.275 99.487 132.25C99.434 132.224 99.3772 132.211 99.3199 132.212Z" fill="#3F3D56"/>
<path opacity="0.2" d="M99.3174 163.934H43.4366C43.3792 163.934 43.3224 163.921 43.2694 163.896C43.2164 163.871 43.1683 163.833 43.1277 163.786C43.0871 163.739 43.055 163.684 43.0331 163.622C43.0112 163.561 42.9999 163.495 43 163.429V165.787C42.9999 165.854 43.0112 165.919 43.0331 165.981C43.055 166.042 43.0871 166.098 43.1277 166.145C43.1683 166.192 43.2164 166.229 43.2694 166.254C43.3224 166.28 43.3792 166.293 43.4366 166.293H99.3174C99.3748 166.293 99.4316 166.28 99.4846 166.254C99.5376 166.229 99.5857 166.192 99.6263 166.145C99.6668 166.098 99.699 166.042 99.7209 165.981C99.7428 165.919 99.7541 165.854 99.754 165.787V163.429C99.7541 163.495 99.7428 163.561 99.7209 163.622C99.699 163.684 99.6668 163.739 99.6263 163.786C99.5857 163.833 99.5376 163.871 99.4846 163.896C99.4316 163.921 99.3748 163.934 99.3174 163.934Z" fill="black"/>
<path opacity="0.2" d="M99.7564 147.71H43.0024V154.112H99.7564V147.71Z" fill="black"/>
<path opacity="0.2" d="M99.7564 144.509H43.0024V150.911H99.7564V144.509Z" fill="black"/>
<path d="M99.7564 146.025H43.0024V152.427H99.7564V146.025Z" fill="#B13DA6"/>
<path d="M71.3794 162.029C77.4875 162.029 82.4391 156.297 82.4391 149.226C82.4391 142.155 77.4875 136.423 71.3794 136.423C65.2713 136.423 60.3196 142.155 60.3196 149.226C60.3196 156.297 65.2713 162.029 71.3794 162.029Z" fill="#B13DA6"/>
<path opacity="0.2" d="M79.8984 141.062C81.3053 143.837 81.7581 147.123 81.1666 150.267C80.5751 153.411 78.9827 156.181 76.7063 158.028C74.4299 159.874 71.6366 160.66 68.8821 160.23C66.1277 159.799 63.6141 158.184 61.8418 155.706C62.6147 157.231 63.6521 158.554 64.8886 159.591C66.125 160.629 67.5337 161.359 69.0259 161.735C70.5181 162.112 72.0615 162.126 73.5587 161.778C75.056 161.43 76.4747 160.726 77.7255 159.712C78.9763 158.697 80.0321 157.394 80.8262 155.884C81.6204 154.374 82.1358 152.69 82.3399 150.938C82.5441 149.186 82.4325 147.403 82.0123 145.704C81.5921 144.004 80.8723 142.424 79.8984 141.062Z" fill="black"/>
<path d="M71.3794 158.754C75.925 158.754 79.6099 154.488 79.6099 149.226C79.6099 143.964 75.925 139.698 71.3794 139.698C66.8339 139.698 63.1489 143.964 63.1489 149.226C63.1489 154.488 66.8339 158.754 71.3794 158.754Z" fill="#3F3D56"/>
<path d="M77.7824 149.226C77.7837 150.232 77.6069 151.228 77.2629 152.152C77.0787 152.651 76.8468 153.124 76.5717 153.562C76.0293 154.433 75.3299 155.158 74.5219 155.685C73.7139 156.212 72.8165 156.53 71.892 156.616C70.9674 156.703 70.0377 156.555 69.1671 156.185C68.2966 155.814 67.506 155.229 66.8501 154.469C66.1942 153.71 65.6887 152.795 65.3685 151.787C65.0482 150.779 64.921 149.703 64.9955 148.633C65.07 147.563 65.3445 146.524 65.8 145.588C66.2555 144.653 66.8812 143.843 67.6336 143.215C68.0126 142.897 68.4211 142.629 68.8517 142.415C69.8257 141.931 70.8884 141.734 71.9443 141.843C73.0002 141.951 74.0164 142.361 74.9016 143.036C75.7869 143.711 76.5135 144.63 77.0163 145.711C77.5191 146.791 77.7823 147.999 77.7824 149.226Z" fill="white"/>
<path opacity="0.2" d="M77.714 148.146C77.4753 146.262 76.618 144.556 75.3205 143.385C75.8828 144.404 76.2211 145.567 76.306 146.772C76.3909 147.977 76.2198 149.188 75.8077 150.299C75.6234 150.798 75.3916 151.271 75.1164 151.709C74.6126 152.518 73.9729 153.201 73.2356 153.717C72.4983 154.233 71.6785 154.571 70.8256 154.712C69.9726 154.852 69.1039 154.791 68.2716 154.534C67.4393 154.276 66.6606 153.826 65.9821 153.212C66.5436 154.232 67.3125 155.078 68.2215 155.675C69.1304 156.272 70.1519 156.602 71.1966 156.637C72.2412 156.671 73.2773 156.409 74.2143 155.873C75.1513 155.337 75.9606 154.544 76.5717 153.562C76.8468 153.124 77.0786 152.651 77.2629 152.152C77.7306 150.891 77.8868 149.504 77.714 148.146V148.146Z" fill="black"/>
<path d="M300.512 178H196.488C195.563 178 194.676 177.639 194.022 176.996C193.367 176.354 193 175.482 193 174.573V174.573C230.709 170.267 267.709 170.267 304 174.573C304 175.482 303.633 176.354 302.978 176.996C302.324 177.639 301.437 178 300.512 178Z" fill="#2F2E41"/>
<path d="M304 174.775L193 174.573L205.865 153.305L205.926 153.204V106.332C205.926 105.763 206.04 105.2 206.262 104.674C206.483 104.149 206.808 103.671 207.217 103.269C207.627 102.866 208.113 102.547 208.648 102.33C209.183 102.112 209.756 102 210.335 102H286.049C286.628 102 287.202 102.112 287.737 102.33C288.272 102.547 288.758 102.866 289.167 103.269C289.577 103.671 289.901 104.149 290.123 104.674C290.344 105.2 290.458 105.763 290.458 106.332V153.527L304 174.775Z" fill="#3F3D56"/>
<path d="M210.235 105.024C209.854 105.024 209.489 105.173 209.22 105.438C208.95 105.702 208.799 106.061 208.799 106.435V149.172C208.799 149.547 208.95 149.905 209.22 150.17C209.489 150.434 209.854 150.583 210.235 150.584H286.765C287.146 150.583 287.511 150.434 287.78 150.17C288.05 149.905 288.201 149.547 288.201 149.172V106.435C288.201 106.061 288.05 105.702 287.78 105.438C287.511 105.173 287.146 105.024 286.765 105.024L210.235 105.024Z" fill="white"/>
<path d="M210.738 156.228C210.62 156.228 210.505 156.262 210.406 156.324C210.307 156.386 210.228 156.475 210.178 156.58L206.215 165.047C206.171 165.139 206.152 165.24 206.16 165.342C206.167 165.443 206.2 165.541 206.255 165.626C206.311 165.711 206.388 165.782 206.478 165.83C206.569 165.879 206.67 165.905 206.774 165.905H290.134C290.238 165.905 290.342 165.878 290.433 165.828C290.525 165.778 290.602 165.705 290.657 165.618C290.712 165.53 290.744 165.43 290.748 165.327C290.753 165.224 290.731 165.121 290.684 165.029L286.375 156.562C286.324 156.462 286.246 156.377 286.149 156.318C286.051 156.259 285.939 156.228 285.825 156.228L210.738 156.228Z" fill="#2F2E41"/>
<path d="M248.192 104.318C248.702 104.318 249.116 103.912 249.116 103.411C249.116 102.91 248.702 102.504 248.192 102.504C247.682 102.504 247.269 102.91 247.269 103.411C247.269 103.912 247.682 104.318 248.192 104.318Z" fill="white"/>
<path d="M239.999 167.517C239.863 167.517 239.732 167.561 239.624 167.642C239.517 167.723 239.44 167.836 239.404 167.965L238.41 171.593C238.385 171.683 238.382 171.777 238.401 171.868C238.419 171.959 238.458 172.045 238.516 172.119C238.573 172.192 238.647 172.252 238.732 172.293C238.817 172.334 238.91 172.355 239.004 172.355H257.914C258.012 172.355 258.109 172.332 258.196 172.288C258.283 172.244 258.359 172.18 258.415 172.101C258.472 172.023 258.509 171.932 258.523 171.837C258.537 171.741 258.528 171.644 258.496 171.553L257.217 167.924C257.175 167.805 257.097 167.702 256.993 167.629C256.888 167.557 256.764 167.517 256.636 167.517H239.999Z" fill="#2F2E41"/>
<path d="M290.458 152.498V153.305H205.865L205.928 153.204V152.498H290.458Z" fill="#2F2E41"/>
<path d="M229.94 122.457C237.033 122.385 244.125 122.26 251.218 122.166C253.582 122.134 255.947 122.106 258.311 122.083C260.349 122.062 260.354 118.949 258.311 118.97C251.219 119.042 244.127 119.167 237.034 119.262C234.67 119.293 232.305 119.321 229.94 119.345C227.903 119.365 227.898 122.478 229.94 122.457Z" fill="#6C63FF"/>
<path d="M229.94 129.721L258.607 129.429L266.76 129.346C268.797 129.325 268.802 126.212 266.76 126.233L238.093 126.525L229.94 126.608C227.903 126.629 227.898 129.741 229.94 129.721Z" fill="#6C63FF"/>
<path d="M229.94 136.984L258.607 136.692L266.76 136.609C268.797 136.588 268.802 133.475 266.76 133.496L238.093 133.788L229.94 133.871C227.903 133.892 227.898 137.005 229.94 136.984Z" fill="#6C63FF"/>
</svg>
