<svg width="202" height="179" viewBox="0 0 202 179" fill="none" xmlns="http://www.w3.org/2000/svg">
<path opacity="0.1" d="M63.7354 7.35878C70.5153 1.78035 81.1616 0.650949 90.8667 1.07956C121.325 2.47685 148.819 16.0382 172.602 31.3805C181.213 36.9333 189.689 42.9189 195.277 50.5675C206.662 66.137 203.279 87.7049 187.461 100.531C182.077 104.895 175.553 108.246 168.854 111.206C156.944 116.478 144.093 120.71 130.575 121.921C120.937 122.779 111.179 122.082 101.594 120.884C74.8208 117.534 48.5398 110.128 26.5109 97.4581C16.8499 91.9011 7.73948 84.9918 3.76168 76.0016C-0.216127 67.0114 2.32809 55.6188 12.1936 50.2975C16.2736 48.0966 21.1529 47.1022 25.9277 46.1678C32.9586 44.7941 40.101 43.4396 46.4441 40.6472C52.9986 37.7626 60.7567 32.1842 59.4556 25.7978C58.0661 18.9464 56.9509 12.9308 63.7354 7.35878Z" fill="#6C63FF"/>
<path opacity="0.1" d="M92.0029 179C109.088 179 122.938 175.001 122.938 170.068C122.938 165.134 109.088 161.135 92.0029 161.135C74.9181 161.135 61.0681 165.134 61.0681 170.068C61.0681 175.001 74.9181 179 92.0029 179Z" fill="#6C63FF"/>
<path d="M155.439 78.2025L156.561 133.22L158.947 133.479L158.048 77.9839L155.439 78.2025Z" fill="#F5C5CC"/>
<path d="M149.669 77.1673L150.792 132.184L153.178 132.444L152.279 76.9487L149.669 77.1673Z" fill="#F5C5CC"/>
<path d="M151.08 74.2913L151.196 134.297L153.636 134.083L152.706 73.1126L151.08 74.2913Z" fill="#CC929B"/>
<path d="M83.7848 64.2724L84.8141 114.144L87.2003 114.375L86.3964 64.071L83.7848 64.2724Z" fill="#F5C5CC"/>
<path d="M85.1627 63.3403L86.343 115.246L87.2003 114.376L86.3964 64.0711L85.1627 63.3403Z" fill="#CC929B"/>
<path d="M88.8616 65.5348L89.8909 115.404L92.2771 115.636L91.4732 65.3333L88.8616 65.5348Z" fill="#F5C5CC"/>
<path d="M90.2394 64.6004L91.422 116.506L92.2771 115.636L91.4732 65.3333L90.2394 64.6004Z" fill="#CC929B"/>
<path d="M93.8245 66.9021L94.8538 116.774L97.2401 117.005L96.4361 66.7028L93.8245 66.9021Z" fill="#F5C5CC"/>
<path d="M95.2024 65.972L96.385 117.875L97.2401 117.005L96.4362 66.7028L95.2024 65.972Z" fill="#CC929B"/>
<path d="M98.6527 67.1806L99.7122 118.803L102.098 119.043L101.262 66.9749L98.6527 67.1806Z" fill="#F5C5CC"/>
<path d="M100.028 66.2163L101.243 119.943L102.098 119.043L101.262 66.975L100.028 66.2163Z" fill="#CC929B"/>
<path d="M103.888 67.5836L104.949 119.204L107.336 119.444L106.499 67.3757L103.888 67.5836Z" fill="#F5C5CC"/>
<path d="M105.265 66.6191L106.481 120.344L107.336 119.444L106.499 67.3756L105.265 66.6191Z" fill="#CC929B"/>
<path d="M109.032 69.2701L110.091 120.893L112.477 121.133L111.643 69.0644L109.032 69.2701Z" fill="#F5C5CC"/>
<path d="M110.407 68.3057L111.622 122.033L112.478 121.133L111.643 69.0644L110.407 68.3057Z" fill="#CC929B"/>
<path d="M114.919 70.3845L116.007 123.447L118.393 123.694L117.531 70.1724L114.919 70.3845Z" fill="#F5C5CC"/>
<path d="M116.295 69.3945L117.538 124.619L118.393 123.694L117.531 70.1724L116.295 69.3945Z" fill="#CC929B"/>
<path d="M120.043 70.9482L121.128 124.011L123.516 124.257L122.652 70.736L120.043 70.9482Z" fill="#F5C5CC"/>
<path d="M121.418 69.9559L122.661 125.183L123.516 124.257L122.652 70.736L121.418 69.9559Z" fill="#CC929B"/>
<path d="M125.47 72.3627L126.558 125.425L128.944 125.674L128.082 72.1526L125.47 72.3627Z" fill="#F5C5CC"/>
<path d="M126.848 71.3725L128.089 126.6L128.944 125.674L128.082 72.1526L126.848 71.3725Z" fill="#CC929B"/>
<path d="M79.1355 64.1846L79.0193 61.0257L80.2276 60.4171L166.88 76.8095L167.04 80.8192L79.1355 64.1846Z" fill="#F5C5CC"/>
<path d="M80.2275 60.4171L167.198 76.7966L167.11 78.2989L79.1982 60.9335" fill="#CC929B"/>
<path d="M83.815 142.801L81.3754 143.62H79.0519L78.9357 59.0669L80.2136 57.4296L81.4474 57.0953L83.0018 56.8788L83.815 142.801Z" fill="#F5C5CC"/>
<path d="M83.8149 142.801L81.3753 143.62L81.2242 59.2341L81.4473 57.0953L83.0017 56.8788L83.8149 142.801Z" fill="#CC929B"/>
<path d="M131.367 73.9335L132.455 126.994L134.841 127.243L133.979 73.7213L131.367 73.9335Z" fill="#F5C5CC"/>
<path d="M132.743 72.9413L133.986 128.168L134.841 127.243L133.979 73.7214L132.743 72.9413Z" fill="#CC929B"/>
<path d="M137.308 74.7715L138.417 128.968L140.803 129.221L139.918 74.5572L137.308 74.7715Z" fill="#F5C5CC"/>
<path d="M143.426 75.7636L144.549 130.781L146.935 131.04L146.038 75.545L143.426 75.7636Z" fill="#F5C5CC"/>
<path d="M144.802 74.7372L146.082 132L146.935 131.04L146.038 75.5451L144.802 74.7372Z" fill="#CC929B"/>
<path d="M50.0083 126.583L47.5687 126.797L47.4548 67.6071L47.4525 66.7906L49.0789 65.6119L49.1045 67.2535L50.0083 126.583Z" fill="#F5C5CC"/>
<path d="M58.6052 123.261L56.1656 123.475L56.0517 65.2519L56.0494 63.4689L57.6758 62.2902L57.713 64.6818L58.6052 123.261Z" fill="#F5C5CC"/>
<path d="M72.7784 117.903L70.3388 118.117L70.2272 60.6293L70.2226 58.1112L71.849 56.9325L71.9001 60.2714L72.7784 117.903Z" fill="#F5C5CC"/>
<path d="M78.9357 115.76L76.4961 115.974L76.3869 59.8898L76.3799 55.968L78.0063 54.7893L78.09 60.237L78.9357 115.76Z" fill="#F5C5CC"/>
<path d="M54.3067 125.94L51.8671 126.154L51.7509 66.5763V66.1477L53.3774 64.969L53.3936 66.0984L54.3067 125.94Z" fill="#F5C5CC"/>
<path d="M66.8536 120.582L64.4139 120.796L64.3001 62.3416L64.2977 60.79L65.9242 59.6113L65.9567 61.8101L66.8536 120.582Z" fill="#F5C5CC"/>
<path d="M62.7874 121.653L60.3477 121.868L60.2362 63.7666L60.2316 61.8614L61.858 60.6827L61.8952 63.1644L62.7874 121.653Z" fill="#F5C5CC"/>
<path d="M47.4061 116.694L46.8252 117.819C46.8252 117.819 45.3149 119.909 45.4892 123.124C45.6635 126.338 43.0565 134.857 43.0565 134.857C43.0565 134.857 45.4381 135.875 47.2388 135.768C49.0395 135.661 52.9313 137.429 52.9313 137.429L60.9985 139.737L77.3209 143.273C77.3209 143.273 86.9053 148.202 89.5192 148.202C92.1331 148.202 102.531 151.47 102.531 151.47C102.531 151.47 116.588 154.31 117.691 155.381C118.795 156.453 123.449 157.895 123.914 157.953C124.378 158.011 131.465 158.649 131.465 158.649C131.465 158.649 139.713 160.417 140.875 158.542C141.552 157.488 142.006 156.324 142.211 155.113C142.211 155.113 145.871 155.863 146.858 154.738C147.846 153.613 147.904 151.202 149.065 151.309C150.227 151.416 154.99 152.756 155.513 152.274C156.036 151.792 158.824 146.112 160.799 146.97C162.774 147.827 166.201 149.166 166.201 149.166L164.226 130.629L163.355 125.539C163.355 125.539 131.697 137.433 130.594 137.433C129.49 137.433 47.4061 116.694 47.4061 116.694Z" fill="#6C63FF"/>
<path d="M163.181 100.46L163.006 126.606L130.122 138.236L46.8252 117.824C46.8252 117.824 41.1907 110.484 46.4186 103.626C46.4186 103.626 39.6805 95.0535 48.045 89.4815L48.2518 89.4365L79.8767 82.4093L93.9408 84.7795L156.082 95.2635C156.082 95.2635 162.186 97.353 163.181 100.46Z" fill="#6C63FF"/>
<path opacity="0.1" d="M92.8301 87.2805C91.2617 88.0306 79.8766 90.763 77.6112 92.4239C75.3459 94.0848 59.6623 95.3749 59.6623 95.3749L57.9197 95.6964C57.9197 95.6964 58.0359 94.6248 51.1235 91.5174C50.0192 91.0163 49.041 90.3074 48.2517 89.4365L79.8766 82.4093L93.9407 84.7795C93.9593 85.8061 93.7687 86.8305 92.8301 87.2805Z" fill="black"/>
<path d="M45.0244 76.9445C45.0244 76.9445 44.4435 87.3384 51.3559 90.4458C58.2683 93.5533 58.159 94.6206 58.159 94.6206L59.9017 94.2991C59.9017 94.2991 53.8606 88.0842 54.2672 87.0126C54.6738 85.9411 48.8651 80.5298 48.0449 80.3155C47.2248 80.1012 45.0244 76.9445 45.0244 76.9445Z" fill="#6C63FF"/>
<path opacity="0.1" d="M45.1476 77.101C45.1476 77.101 44.5667 87.4949 51.4791 90.6023C58.3914 93.7098 58.2753 94.7813 58.2753 94.7813L60.0179 94.4599C60.0179 94.4599 53.9768 88.245 54.3834 87.1734C54.79 86.1019 48.9744 80.6906 48.1681 80.4763C47.3619 80.262 45.1476 77.101 45.1476 77.101Z" fill="black"/>
<path opacity="0.1" d="M46.774 81.4943C46.774 81.4943 52.3503 89.2629 53.3378 89.5308C54.3253 89.7987 48.103 81.6014 46.774 81.4943Z" fill="black"/>
<path d="M44.2182 75.4937C44.2182 75.4937 47.8196 72.8148 48.2843 72.279C48.749 71.7433 53.8607 71.529 54.0349 71.529C54.2092 71.529 58.101 69.3323 62.4575 68.6358C66.8141 67.9393 68.5567 67.6179 68.5567 67.6179C68.5567 67.6179 74.9463 65.1533 75.2948 64.6175C75.6433 64.0818 78.6058 63.4924 82.2653 66.1177C85.9247 68.743 93.9988 80.5299 94.0569 81.8157C94.115 83.1016 94.6378 85.459 93.0695 86.209C91.5011 86.9591 80.116 89.6915 77.8506 91.3524C75.5852 93.0133 59.8947 94.3034 59.8947 94.3034L53.9768 88.3521L50.8401 83.6909L45.6123 78.6011L44.2182 75.4937Z" fill="#6C63FF"/>
<path opacity="0.1" d="M53.9303 121.767C53.9303 121.767 51.7625 122.196 53.0009 123.338C54.2393 124.48 53.9303 121.767 53.9303 121.767Z" fill="black"/>
<path opacity="0.1" d="M61.5212 124.054C61.5212 124.054 59.1978 126.625 59.6625 127.339C60.1272 128.053 61.5212 124.054 61.5212 124.054Z" fill="black"/>
<path opacity="0.1" d="M75.1531 127.339C75.1531 127.339 72.8296 129.911 73.2943 130.624C73.759 131.338 75.1531 127.339 75.1531 127.339Z" fill="black"/>
<path opacity="0.1" d="M91.7265 131.625C91.7265 131.625 89.403 134.197 89.8677 134.91C90.3324 135.624 91.7265 131.625 91.7265 131.625Z" fill="black"/>
<path opacity="0.1" d="M114.032 136.768C114.032 136.768 111.708 139.34 112.173 140.054C112.638 140.767 114.032 136.768 114.032 136.768Z" fill="black"/>
<path opacity="0.1" d="M68.1826 124.767C68.1826 124.767 65.8591 127.339 66.3238 128.053C66.7885 128.766 68.1826 124.767 68.1826 124.767Z" fill="black"/>
<path opacity="0.1" d="M100.556 133.768C100.556 133.768 98.2322 136.34 98.6969 137.054C99.1616 137.767 100.556 133.768 100.556 133.768Z" fill="black"/>
<path opacity="0.1" d="M107.37 135.768C107.37 135.768 105.047 138.339 105.512 139.055C105.976 139.771 107.37 135.768 107.37 135.768Z" fill="black"/>
<path opacity="0.1" d="M81.1941 129.053C81.1941 129.053 78.8706 131.625 79.3353 132.339C79.8 133.052 81.1941 129.053 81.1941 129.053Z" fill="black"/>
<path opacity="0.1" d="M139.746 144.627L142.204 155.109C142.204 155.109 142.223 147.769 139.746 144.627Z" fill="black"/>
<path opacity="0.1" d="M147.334 146.198L149.058 151.309C149.058 151.309 148.884 149.342 147.334 146.198Z" fill="black"/>
<path opacity="0.1" d="M155.513 152.269C155.513 152.269 151.835 139.912 151.059 139.055C150.283 138.198 153.299 151.485 155.513 152.269Z" fill="black"/>
<path opacity="0.1" d="M159.881 146.483C159.881 146.483 155.545 139.484 157.249 138.198C158.952 136.912 159.881 146.483 159.881 146.483Z" fill="black"/>
<path opacity="0.1" d="M46.4186 103.622L130.605 121.053L162.981 112.337L130.296 120.196C130.296 120.196 48.9744 102.908 46.4186 103.622Z" fill="black"/>
<path d="M48.9628 84.6853L49.0789 134.565L51.4605 134.833L51.5767 84.5246L48.9628 84.6853Z" fill="#F5C5CC"/>
<path d="M50.3568 83.7745L50.5892 135.691L51.4605 134.833L51.5766 84.5246L50.3568 83.7745Z" fill="#CC929B"/>
<path d="M54.0164 86.0247L54.1325 135.905L56.5141 136.173L56.6303 85.864L54.0164 86.0247Z" fill="#F5C5CC"/>
<path d="M55.4104 85.1139L55.6428 137.03L56.5141 136.173L56.6302 85.864L55.4104 85.1139Z" fill="#CC929B"/>
<path d="M58.9538 87.4713L59.07 137.351L61.4516 137.619L61.5677 87.3106L58.9538 87.4713Z" fill="#F5C5CC"/>
<path d="M60.3478 86.5604L60.5802 138.476L61.4515 137.619L61.5677 87.3105L60.3478 86.5604Z" fill="#CC929B"/>
<path d="M63.775 87.8249L63.8911 139.456L66.2727 139.732L66.3889 87.6577L63.775 87.8249Z" fill="#F5C5CC"/>
<path d="M65.1691 86.882L65.4014 140.62L66.2727 139.732L66.3889 87.6578L65.1691 86.882Z" fill="#CC929B"/>
<path d="M69.0028 88.3071L69.119 139.938L71.5006 140.215L71.6167 88.14L69.0028 88.3071Z" fill="#F5C5CC"/>
<path d="M70.3969 87.3641L70.6292 141.102L71.5005 140.215L71.6167 88.1399L70.3969 87.3641Z" fill="#CC929B"/>
<path d="M74.1144 90.0751L74.2306 141.706L76.6121 141.983L76.7283 89.9079L74.1144 90.0751Z" fill="#F5C5CC"/>
<path d="M75.5086 89.1322L75.741 142.87L76.6123 141.983L76.7284 89.908L75.5086 89.1322Z" fill="#CC929B"/>
<path d="M81.3754 90.3109L81.6077 145.549L82.479 144.636L82.5952 91.1081L81.3754 90.3109Z" fill="#CC929B"/>
<path d="M85.0929 91.9225L85.2091 144.994L87.5906 145.279L87.7068 91.751L85.0929 91.9225Z" fill="#F5C5CC"/>
<path d="M86.487 90.9538L86.7193 146.192L87.5906 145.279L87.7068 91.751L86.487 90.9538Z" fill="#CC929B"/>
<path d="M90.495 93.4227L90.6112 146.494L92.9927 146.779L93.1089 93.2513L90.495 93.4227Z" fill="#F5C5CC"/>
<path d="M91.889 92.4539L92.1214 147.692L92.9927 146.779L93.1089 93.2511L91.889 92.4539Z" fill="#CC929B"/>
<path d="M96.3618 95.0835L96.478 148.155L98.8596 148.44L98.9757 94.912L96.3618 95.0835Z" fill="#F5C5CC"/>
<path d="M97.7559 94.1149L97.9882 149.353L98.8595 148.44L98.9757 94.9121L97.7559 94.1149Z" fill="#CC929B"/>
<path d="M102.287 96.0157L102.403 150.218L104.784 150.51L104.901 95.84L102.287 96.0157Z" fill="#F5C5CC"/>
<path d="M103.681 95.0257L103.913 151.442L104.784 150.51L104.901 95.8401L103.681 95.0257Z" fill="#CC929B"/>
<path d="M108.386 97.1023L108.502 152.13L110.884 152.426L111 96.9244L108.386 97.1023Z" fill="#CC929B"/>
<path d="M114.601 98.6024L114.717 153.63L117.099 153.926L117.215 98.4246L114.601 98.6024Z" fill="#F5C5CC"/>
<path d="M115.995 97.5974L116.228 154.871L117.099 153.926L117.215 98.4246L115.995 97.5974Z" fill="#CC929B"/>
<path d="M120.352 99.7276L120.468 154.755L122.849 155.051L122.966 99.5497L120.352 99.7276Z" fill="#CC929B"/>
<path d="M45.826 144.263L43.3864 145.12H41.0629L40.9467 66.4691L42.2246 64.7546L43.4584 64.4053L45.2452 63.8974L45.826 144.263Z" fill="#F5C5CC"/>
<path d="M45.826 144.263L43.3864 145.12L43.2354 66.6427L43.4584 64.4053L45.2452 63.8974L45.826 144.263Z" fill="#CC929B"/>
<path d="M43.6187 147.585C45.1586 147.585 46.4069 146.433 46.4069 145.013C46.4069 143.593 45.1586 142.441 43.6187 142.441C42.0788 142.441 40.8305 143.593 40.8305 145.013C40.8305 146.433 42.0788 147.585 43.6187 147.585Z" fill="#40414D"/>
<path d="M170.597 156.303L168.157 157.121H165.834L165.718 70.6396L166.996 70.9311L168.229 70.5968L170.016 70.1124L170.597 156.303Z" fill="#F5C5CC"/>
<path d="M170.597 156.303L168.157 157.121L168.006 72.7356L168.229 70.5968L170.016 70.1124L170.597 156.303Z" fill="#CC929B"/>
<path d="M136.79 140.084L134.351 140.298L134.239 82.523L134.235 80.292L135.861 79.1133L135.907 82.1929L136.79 140.084Z" fill="#F5C5CC"/>
<path d="M145.387 136.762L142.948 136.976L142.838 80.2684L142.831 76.9702L144.458 75.7915L144.518 79.7048L145.387 136.762Z" fill="#F5C5CC"/>
<path d="M159.561 131.404L157.121 131.619L157.012 75.0436L157.005 71.6125L158.631 70.4338L158.692 74.4007L159.561 131.404Z" fill="#F5C5CC"/>
<path d="M163.162 69.4695L163.278 129.476L165.718 129.261L164.788 68.2908L163.162 69.4695Z" fill="#F5C5CC"/>
<path d="M141.089 139.441L138.649 139.655L138.538 81.5521L138.533 79.649L140.159 78.4703L140.199 81.087L141.089 139.441Z" fill="#F5C5CC"/>
<path d="M149.57 135.155L147.13 135.369L147.021 78.8112L147.014 75.363L148.64 74.1843L148.701 78.1875L149.57 135.155Z" fill="#F5C5CC"/>
<path d="M154.293 133.725L151.854 133.94L151.744 77.3817V77.0452L151.737 73.9335L153.364 72.7548L153.42 76.4109L153.424 76.758L154.293 133.725Z" fill="#F5C5CC"/>
<path d="M131.911 139.692L165.602 126.475L167.925 126.975L168.002 131.904L132.531 144.548L131.911 139.692Z" fill="#F5C5CC"/>
<path d="M165.602 126.475L131.911 139.692L167.8 126.947" fill="#CC929B"/>
<path d="M44.6248 132.69L129.588 156.478L129.432 160.336L44.3157 136.119L44.6248 132.69Z" fill="#F5C5CC"/>
<path d="M133.305 169.98L130.865 170.837H128.542L128.426 82.7565V82.3279L128.607 82.0836L129.704 80.6134L130.938 80.2641L132.724 79.7562L132.743 82.7565L133.305 169.98Z" fill="#F5C5CC"/>
<path d="M133.305 169.98L130.866 170.837L130.715 82.5014L130.938 80.2641L132.724 79.7562L133.305 169.98Z" fill="#CC929B"/>
<path opacity="0.1" d="M132.724 79.7562L132.743 82.7565C132.07 82.8471 131.393 82.9058 130.714 82.9322C129.042 82.9922 128.426 82.7586 128.426 82.7586C128.426 82.7286 128.491 82.4886 128.607 82.0878L129.704 80.6177L130.938 80.2684L132.724 79.7562Z" fill="black"/>
<path opacity="0.1" d="M135.861 79.1133L135.908 82.1929C135.308 82.3215 134.752 82.4315 134.239 82.523V80.292L135.861 79.1133Z" fill="black"/>
<path opacity="0.1" d="M140.159 78.4703L140.199 81.087C139.62 81.2563 139.065 81.4106 138.538 81.5521V79.649L140.159 78.4703Z" fill="black"/>
<path opacity="0.1" d="M144.458 75.7915L144.518 79.7048C143.937 79.9033 143.377 80.0912 142.838 80.2684V76.9702L144.458 75.7915Z" fill="black"/>
<path opacity="0.1" d="M148.64 74.1843L148.7 78.1875L147.362 78.6847L147.021 78.8112V75.363L148.64 74.1843Z" fill="black"/>
<path opacity="0.1" d="M158.692 74.4007L157.012 75.0436V71.6147L158.638 70.436L158.692 74.4007Z" fill="black"/>
<path opacity="0.1" d="M153.422 76.4109L151.747 77.0538V73.9421L153.373 72.7634L153.422 76.4109Z" fill="black"/>
<path d="M171.41 72.0411C171.41 72.0411 167.112 72.0411 165.95 71.7197C164.788 71.3982 162.349 72.684 147.362 78.256C138.301 81.6271 133.27 82.4093 130.714 82.5015C129.042 82.5615 128.426 82.3279 128.426 82.3279C128.426 82.3279 131.486 69.3794 141.231 66.9599C142.317 66.6869 143.385 66.3556 144.43 65.9676L144.618 65.9012C145.436 65.6088 146.276 65.3689 147.13 65.1833C150.257 64.5211 152.49 63.2545 158.143 63.2159C161.651 63.1617 165.074 64.2092 167.851 66.1862C169.788 67.5921 171.459 69.5359 171.41 72.0411Z" fill="#CC929B"/>
<path d="M145.039 65.8262C132.98 70.6224 131.14 79.5869 130.714 82.5015C129.042 82.5615 128.426 82.3279 128.426 82.3279C128.426 82.3279 131.486 69.3795 141.231 66.9599C142.317 66.6869 143.385 66.3556 144.43 65.9677L144.618 65.9012C144.758 65.882 144.897 65.8562 145.039 65.8262Z" fill="#F5C5CC"/>
<path opacity="0.1" d="M49.0789 65.6119L49.1044 67.2535C48.5166 67.3886 47.9683 67.5064 47.4548 67.6071V66.7906L49.0789 65.6119Z" fill="black"/>
<path opacity="0.1" d="M53.3773 64.969L53.3936 66.0984C52.822 66.2727 52.2745 66.432 51.7509 66.5763V66.1477L53.3773 64.969Z" fill="black"/>
<path opacity="0.1" d="M57.6758 62.2902L57.713 64.6818C57.1414 64.8833 56.5876 65.0733 56.0517 65.2519V63.4689L57.6758 62.2902Z" fill="black"/>
<path opacity="0.1" d="M61.8581 60.6827L61.8952 63.1644C61.3608 63.3544 60.8078 63.5552 60.2363 63.7666V61.8614L61.8581 60.6827Z" fill="black"/>
<path opacity="0.1" d="M65.9242 59.6113L65.9568 61.8101C65.4301 61.973 64.8779 62.1502 64.3001 62.3416V60.79L65.9242 59.6113Z" fill="black"/>
<path opacity="0.1" d="M71.849 56.9325L71.9001 60.2714C71.3867 60.37 70.8313 60.4857 70.2272 60.6293V58.1112L71.849 56.9325Z" fill="black"/>
<path opacity="0.1" d="M78.09 60.2285C77.5431 60.0385 76.9696 59.9216 76.3868 59.8813V55.9595L78.0133 54.7808L78.09 60.2285Z" fill="black"/>
<path d="M83.9312 60.2541C83.9312 60.2541 79.6327 60.2541 78.471 59.9327C77.3092 59.6112 74.8696 57.8967 59.8831 63.4687C50.8215 66.8398 45.7912 67.622 43.2353 67.7142C41.5624 67.7742 40.9467 67.5406 40.9467 67.5406C40.9467 67.5406 43.2539 56.2894 53.4285 54.3907C53.9963 54.2886 54.5572 54.1562 55.1083 53.9942C55.7334 53.8056 56.7185 53.5356 58.0429 53.2548C61.4584 52.5305 67.1207 51.7354 74.6465 52.0719C77.2549 52.162 79.7289 53.1623 81.5682 54.8707C82.3377 55.573 82.9441 56.4126 83.3503 57.3381C83.7566 58.2637 83.9542 59.2558 83.9312 60.2541V60.2541Z" fill="#CC929B"/>
<path d="M58.0429 53.2549C45.984 58.0511 43.6605 64.7996 43.2353 67.7142C41.5624 67.7742 40.9467 67.5406 40.9467 67.5406C40.9467 67.5406 43.2539 56.2895 53.4285 54.3907C53.9963 54.2886 54.5572 54.1563 55.1083 53.9942C55.7334 53.7992 56.7185 53.5356 58.0429 53.2549Z" fill="#F5C5CC"/>
<path d="M44.3158 84.5246L44.2577 81.3635L45.4775 80.7742L128.891 98.0259L128.658 102.044L44.3158 84.5246Z" fill="#F5C5CC"/>
<path d="M45.4776 80.7742L128.891 98.0259L128.774 99.5261L44.439 81.2756" fill="#CC929B"/>
<path d="M168.157 159.693C169.697 159.693 170.945 158.542 170.945 157.121C170.945 155.701 169.697 154.55 168.157 154.55C166.617 154.55 165.369 155.701 165.369 157.121C165.369 158.542 166.617 159.693 168.157 159.693Z" fill="#40414D"/>
<path d="M131.214 174.266C132.754 174.266 134.002 173.115 134.002 171.694C134.002 170.274 132.754 169.123 131.214 169.123C129.674 169.123 128.426 170.274 128.426 171.694C128.426 173.115 129.674 174.266 131.214 174.266Z" fill="#40414D"/>
<path d="M47.4919 118.831C47.4919 118.831 45.0128 121.403 44.239 123.689C43.4653 125.976 45.1684 134.548 45.1684 134.548C46.0416 133.122 46.6687 131.579 47.0272 129.975C47.6453 127.262 47.4919 118.831 47.4919 118.831Z" fill="#6C63FF"/>
<path d="M165.137 140.191C165.137 140.191 166.647 147.263 166.763 148.335C166.879 149.406 162.93 147.799 162.93 147.799L165.137 140.191Z" fill="#6C63FF"/>
<path d="M119.364 52.687H119.325C119.315 52.6142 119.286 52.5448 119.239 52.4856C119.133 52.3711 119.001 52.2791 118.853 52.2155L117.763 51.6562L118.704 51.9712C118.66 51.9013 118.611 51.834 118.558 51.7698L118.667 51.8255L118.593 51.7291L118.493 51.6969C117.991 51.1547 117.155 50.9297 116.344 50.9404H116.358C116.462 50.9276 116.569 50.919 116.674 50.9126C116.441 50.8991 116.208 50.9056 115.977 50.9318V50.9318C116.003 50.9422 116.03 50.9494 116.058 50.9533C115.984 50.9533 115.909 50.9661 115.826 50.9747C115.706 51.0046 115.58 51.0046 115.461 50.9747C115.387 50.9402 115.323 50.8902 115.275 50.8288C115.226 50.7674 115.193 50.6962 115.18 50.6211C115.063 50.1925 115.247 49.7317 115.3 49.2838C115.327 49.0736 115.302 48.8606 115.228 48.6602C115.228 48.6173 115.228 48.5745 115.228 48.5316C115.19 48.4368 115.128 48.3516 115.047 48.2831C114.966 48.2146 114.869 48.1646 114.764 48.1373C114.763 48.1537 114.763 48.1701 114.764 48.1866L114.724 48.1716C114.724 48.5552 114.724 48.9409 114.724 49.3245C114.363 49.0621 114.044 48.7549 113.774 48.4116C113.726 48.3594 113.693 48.2966 113.679 48.2294C113.655 48.0344 113.925 47.8994 113.941 47.7022C113.94 47.6389 113.917 47.5775 113.875 47.5273C113.833 47.4771 113.775 47.4407 113.709 47.4236L113.779 47.4C113.696 47.3647 113.605 47.3499 113.514 47.3572C113.315 47.399 113.119 47.4535 112.928 47.5201L112.989 47.5308C112.944 47.5445 112.898 47.5559 112.851 47.5651C112.268 47.6765 111.748 47.2479 111.327 46.86L111.237 46.7764C111.037 45.1627 110.714 43.3132 110.714 43.3132C110.714 43.3132 110.423 41.2001 110.017 40.0643C109.61 38.9285 109.025 36.9225 109.025 36.9225C109.025 36.9225 107.686 34.4859 107.398 34.3787C107.286 34.3269 107.177 34.2697 107.071 34.2073C106.945 33.8428 106.867 33.4658 106.838 33.0843C106.766 30.9541 109.234 29.4411 109.606 27.3301C109.91 25.6157 108.739 23.9012 108.909 22.1632C108.988 21.4024 109.32 20.6866 109.499 19.9408C109.669 19.2173 109.691 18.471 109.566 17.7398C109.507 17.3467 109.378 16.9651 109.185 16.6104C109.523 16.208 109.805 15.7681 110.024 15.301C110.4 14.3109 109.994 13.2051 109.406 12.3007C107.517 9.42256 103.69 7.15732 100.112 6.86372C98.669 6.74157 97.2214 6.71799 95.7762 6.69656C94.1173 6.6687 92.4025 6.65156 90.869 7.24305C87.8206 8.4196 86.3777 11.5635 84.5259 14.1009C82.9962 16.1994 81.0373 18.0026 78.759 19.4093C77.6879 20.0694 76.4355 20.7723 76.1846 21.9446C76.1607 22.057 76.146 22.1709 76.1405 22.2853C76.1092 22.1823 76.0836 22.0779 76.0638 21.9724C75.8105 23.1961 76.7469 24.3298 77.2255 25.4978C77.4756 26.1082 77.6199 26.7512 77.6531 27.403C77.6717 27.0946 77.6717 26.7855 77.6531 26.4772C78.1177 28.7017 77.265 31.0891 76.7376 33.3629C76.6981 33.53 76.6679 33.6972 76.6307 33.8644C76.1978 33.9757 75.7858 34.147 75.4086 34.3723C74.5812 34.8802 73.6442 35.2165 72.6622 35.3581C71.3449 35.5489 70.1598 36.2053 69.3582 37.1883C69.2095 37.3726 69.0655 37.499 68.94 37.5119C68.4172 37.5676 65.5036 45.9599 65.5036 45.9599C65.5036 45.9599 64.8971 49.4167 64.8971 50.2268C64.8971 51.0368 63.8492 56.8875 63.8492 56.8875C63.8492 56.8875 63.4984 57.959 63.6169 58.4026C63.6843 58.6491 63.524 59.4741 63.3729 60.1385C63.3096 60.1142 63.2538 60.0759 63.2103 60.0271C63.036 59.7035 59.8296 60.0271 60.8217 62.1937C61.0684 62.7766 61.4516 63.302 61.944 63.7324C61.5025 64.7526 61.1191 65.7019 61.1703 65.8219C61.1703 65.8219 61.1703 66.5956 61.2446 67.5514C60.5638 67.98 60.0062 68.3658 60.0062 68.3658C59.9574 69.5488 60.8125 69.7374 61.6164 69.6945C61.8232 70.3803 62.1252 70.9246 62.569 71.0725C64.0258 71.5611 64.9575 71.3447 65.4246 71.7154C65.8916 72.0862 68.3824 72.8062 68.3824 72.8062C69.4402 72.9532 70.5059 73.0469 71.5748 73.087L72.0023 73.2841L71.9512 73.0698C72.0883 73.0463 72.0256 72.8962 71.8536 72.6412C71.777 72.3133 71.6794 71.8847 71.5702 71.3961L72.2091 71.1818L72.3834 71.4197C72.151 72.5426 72.0023 73.2906 72.0023 73.2906C72.0023 73.2906 70.8406 77.1353 71.3611 77.731C71.8815 78.3268 71.3611 79.0855 71.3611 79.0855C71.3611 79.0855 71.2449 80.0584 71.5376 80.0584C71.8304 80.0584 72.1766 81.3035 71.8862 81.3593C71.5957 81.415 70.2597 82.4415 70.7244 82.658C71.1891 82.8744 70.7244 83.3609 70.7244 83.8495C70.7244 84.2053 71.4354 84.7325 71.8211 84.9918C71.7514 85.2232 71.6794 85.4697 71.612 85.7119C71.4122 86.4276 71.2565 87.1177 71.3053 87.3685C71.4215 87.9642 71.0149 89.6423 71.131 90.1845C71.2472 90.7267 71.6561 91.9161 71.3634 92.4047C71.0706 92.8933 71.4215 94.5156 71.4215 94.5156L71.9466 99.1168C71.9466 99.1168 71.5981 100.418 71.9466 100.741C72.2951 101.065 72.5879 104.858 72.9364 105.291C73.2849 105.724 73.8123 107.998 73.4011 108.756C72.9898 109.515 73.9262 111.084 73.9262 111.084C73.9262 111.084 73.8681 112.925 73.8681 113.411C73.8681 113.898 74.3909 114.656 74.3909 114.656C74.3909 114.656 74.916 117.256 74.8556 117.905C74.7952 118.555 75.2041 119.476 75.2041 119.476C75.2041 119.476 75.5549 121.371 75.4969 121.803C75.4388 122.236 75.9616 122.832 75.9616 122.832C75.9616 122.832 76.6028 124.24 76.4263 124.836C76.2497 125.432 76.8329 126.027 76.8329 126.027C76.8329 126.027 76.7748 127.326 76.7748 127.489C76.7748 127.652 77.9993 128.951 77.9993 128.951C77.9993 128.951 77.4741 129.926 77.7669 130.305C78.0597 130.684 77.9993 132.037 78.464 132.472C78.9286 132.907 78.8125 134.69 79.3933 135.015C79.9742 135.341 80.4993 135.611 80.6155 136.314C80.7317 137.017 81.1987 138.048 81.7238 138.211C81.8235 138.274 81.91 138.353 81.9794 138.444L81.747 139.355L81.0291 142.109C81.0291 142.109 80.332 146.114 80.3878 146.71C80.4436 147.306 79.6908 147.902 79.6908 147.902C79.6908 147.902 79.0495 151.367 78.9333 151.8C78.8171 152.233 78.9914 153.045 78.9914 153.045C78.9914 153.045 78.5848 155.103 78.8752 155.212C79.1656 155.321 80.3901 156.457 80.3901 156.457H80.4854L80.3599 156.864L78.3501 163.443C78.3501 163.443 76.4913 166.313 80.799 167.775C80.9431 168.032 81.0755 168.038 80.9199 167.989C81.0616 168.1 83.9404 170.346 84.1727 171.399C84.4051 172.451 86.387 173.563 87.0864 173.672C87.7858 173.782 92.4467 177.245 94.1358 173.835C95.825 170.426 91.1641 168.203 91.1641 168.203L87.6161 166.097C87.6161 166.097 85.8108 163.66 85.525 163.227C85.2392 162.794 84.7095 160.681 85.0603 160.357C85.2392 160.19 85.7992 158.707 86.3057 157.297C86.3522 157.162 86.401 157.029 86.4474 156.896C87.4372 157.111 88.5572 156.682 88.5572 156.682L91.1525 152.906L91.6172 152.244L91.7008 152.398C91.7008 152.398 93.857 152.561 94.9049 152.724C95.2378 152.736 95.5707 152.698 95.8901 152.61C95.9296 152.689 95.9691 152.771 96.0062 152.852C96.2606 153.354 96.4764 153.872 96.6522 154.402C96.8264 155.105 97.003 157.595 97.003 157.595C97.003 157.595 95.8413 161.17 95.5462 161.819C95.2511 162.468 95.8366 167.884 101.606 165.717C101.606 165.717 102.303 164.689 102.944 164.689C103.585 164.689 105.158 163.227 104.571 161.656C103.983 160.085 101.55 155.268 103.232 152.724C104.589 150.675 104.48 147.928 102.656 146.65C102.579 146.597 102.498 146.55 102.424 146.502C102.443 146.23 102.443 145.956 102.424 145.684C102.015 140.487 99.4032 140.215 99.4032 140.215C99.4032 140.215 97.8883 139.891 97.714 139.357C97.6118 139.044 96.299 137.429 95.2116 136.115C95.2488 136.059 95.2836 136.003 95.3185 135.948C95.3185 135.928 95.3417 135.909 95.351 135.89C95.4021 135.802 95.4509 135.712 95.4974 135.618C96.3432 133.865 96.1247 131.314 96.0806 130.858C96.0225 130.262 96.0806 129.504 96.0806 128.638C96.0806 127.772 97.01 126.471 96.8961 125.985C96.7823 125.498 98.0044 123.494 98.0044 123.006C98.0044 122.517 98.8618 119.592 98.8618 119.592C98.8618 119.592 100.551 116.234 100.902 115.258C101.236 114.324 107.203 97.2909 107.686 95.9108C107.695 95.8802 107.706 95.8502 107.719 95.8208C107.719 95.8208 109.624 90.0709 108.349 86.2948C108.266 86.0455 108.166 85.8014 108.049 85.564C108.439 85.3904 108.709 85.264 108.709 85.264C108.709 85.264 107.951 83.2066 108.3 82.4479C108.648 81.6893 108.416 80.2277 108.416 80.2277C108.416 80.2277 107.022 79.4691 106.961 79.1455C106.901 78.8219 106.32 78.3868 106.497 77.9539C106.673 77.521 107.659 77.7396 107.545 76.7624C107.431 75.7851 106.206 74.7586 106.323 74.1628C106.439 73.567 106.903 72.4848 106.323 71.8354C105.742 71.1861 105.507 70.1574 105.449 69.3452C105.433 69.1309 105.484 68.4987 105.565 67.665C106.186 68.0215 106.828 68.347 107.487 68.6401C107.487 68.6401 109.991 68.9658 110.11 68.7494C110.334 68.4735 110.588 68.2193 110.867 67.9907C114.013 67.2878 112.614 61.9901 112.614 61.9901C112.614 61.9901 112.568 61.6022 112.494 60.9636C112.573 60.9452 112.647 60.9124 112.712 60.8672C112.979 60.6871 113.044 60.3442 113.207 60.0742C113.392 59.8189 113.609 59.5844 113.853 59.3756C114.429 58.7969 114.771 58.0576 115.101 57.3311C115.31 56.8682 115.523 56.4053 115.735 55.9402C115.946 55.4752 116.2 54.9201 116.664 54.5836C117.199 54.1872 117.924 54.11 118.604 54.0522C118.577 53.5713 118.382 53.1113 118.049 52.7406C118.254 52.6828 118.47 52.6682 118.681 52.6979C118.893 52.7276 119.095 52.8007 119.271 52.912C119.281 52.8975 119.289 52.8825 119.297 52.867H119.311C119.35 52.8141 119.368 52.7508 119.364 52.687ZM69.6115 67.515C69.6254 67.4078 69.6463 67.3007 69.6719 67.1935C69.7857 67.0949 69.9228 66.9792 70.0692 66.8721L70.8824 66.9449C70.6826 67.0949 70.5083 67.2321 70.3666 67.3435C70.1157 67.2257 69.8415 67.3414 69.6115 67.515ZM71.2379 66.0298C71.353 66.0221 71.4664 65.9998 71.5748 65.9634C71.7305 65.9634 71.8908 65.9634 72.0535 65.9634H72.2858C71.8978 66.2141 71.5051 66.4927 71.1566 66.752L71.2379 66.047V66.0298ZM72.5786 55.1001C72.5786 55.1001 72.5251 56.6389 72.6436 58.1862C72.4624 58.304 72.2742 58.4326 72.0883 58.5676L72.4996 54.9994L72.5786 55.1001Z" fill="url(#paint0_linear)"/>
<path d="M102.926 164.461C102.287 164.461 101.59 165.479 101.59 165.479C95.839 167.622 95.2581 162.265 95.5485 161.622C95.839 160.979 97.0007 157.443 97.0007 157.443C97.0007 157.443 96.8265 154.978 96.6522 154.282C96.476 153.758 96.261 153.246 96.0086 152.749C95.6182 151.929 95.2 151.121 95.2 151.121C95.2 151.121 97.6978 145.442 101.009 145.977C101.599 146.068 102.157 146.289 102.635 146.62C104.454 147.885 104.564 150.604 103.209 152.621C101.525 155.139 103.964 159.907 104.545 161.461C105.126 163.015 103.565 164.461 102.926 164.461Z" fill="#FDC2CC"/>
<path d="M94.1544 173.516C92.4699 176.891 87.823 173.462 87.1259 173.355C86.4289 173.248 84.4539 172.177 84.2216 171.105C83.9892 170.033 81.1151 167.841 80.9687 167.732C81.1244 167.777 80.9919 167.77 80.8479 167.517C76.5494 166.071 78.4082 163.231 78.4082 163.231L80.4111 156.721L80.964 154.927L87.2374 154.552C87.2374 154.552 86.8076 155.818 86.329 157.149C85.8248 158.544 85.2671 160.012 85.0882 160.177C84.7397 160.499 85.2625 162.588 85.5529 163.017C85.8433 163.446 87.644 165.857 87.644 165.857L91.1874 167.946C91.1874 167.946 95.839 170.141 94.1544 173.516Z" fill="#FDC2CC"/>
<path opacity="0.1" d="M87.2422 154.55C87.2422 154.55 86.8123 155.816 86.3337 157.147C86.006 157.06 85.7149 156.883 85.4996 156.639L80.446 156.746L80.4158 156.718L80.9688 154.925L87.2422 154.55Z" fill="black"/>
<path d="M107.689 96.3114C107.689 96.3114 107.689 96.3414 107.659 96.3993C107.175 97.7644 101.227 114.615 100.893 115.546C100.544 116.51 98.8595 119.832 98.8595 119.832C98.8595 119.832 97.9882 122.725 97.9882 123.207C97.9882 123.689 96.7684 125.672 96.8845 126.154C97.0007 126.636 96.0713 127.922 96.0713 128.779C96.0713 129.636 96.0132 130.386 96.0713 130.976C96.1155 131.428 96.3316 133.952 95.4881 135.69C95.3042 136.095 95.0312 136.46 94.6865 136.762C94.5927 136.84 94.4925 136.912 94.3868 136.976C92.2957 138.262 92.1214 151.442 92.1214 151.442L92.0238 151.584L91.1757 152.809L88.5781 156.538C88.5781 156.538 86.487 157.342 85.4995 156.217L80.4459 156.324C80.4459 156.324 79.2261 155.199 78.9356 155.092C78.6452 154.985 79.0518 152.949 79.0518 152.949C79.0518 152.949 78.8776 152.145 78.9937 151.716C79.1099 151.288 79.7489 147.859 79.7489 147.859C79.7489 147.859 80.504 147.27 80.4459 146.68C80.3878 146.091 81.0849 142.126 81.0849 142.126L81.8005 139.402L82.1537 138.059L82.8856 135.273L87.823 95.0363L94.0964 93.2682L106.178 93.804L107.503 96.0114L107.689 96.3114Z" fill="#5F5D7E"/>
<path opacity="0.1" d="M90.6693 116.081C90.6112 117.099 90.3207 118.653 90.4369 119.564C90.5531 120.475 90.9597 123.904 90.7854 124.547C90.6112 125.19 91.4244 125.94 91.7148 126.261C92.0053 126.583 91.831 127.547 91.8891 128.297C91.9472 129.047 92.7023 129.744 92.7023 129.744C92.7023 129.744 91.831 131.458 92.47 131.726C93.1089 131.994 94.4449 134.458 94.4449 134.458C94.4449 134.458 94.8933 134.979 95.4882 135.686C95.2607 136.203 94.8787 136.649 94.3868 136.972C92.2957 138.258 92.1214 151.438 92.1214 151.438L92.0239 151.579L90.7273 149.188C90.7273 149.188 83.0018 138.419 82.479 138.258C82.353 138.212 82.2412 138.139 82.1537 138.044L82.8856 135.258L87.823 95.0214L94.0964 93.2534L106.179 93.7891L99.8168 94.3785C99.8168 94.3785 96.9891 96.2494 96.9705 96.3072L91.8891 98.2896L90.9597 111.148C90.9597 111.148 90.7273 115.063 90.6693 116.081Z" fill="black"/>
<path opacity="0.1" d="M107.503 96.0007C107.343 96.5964 90.6112 94.8113 90.6112 94.8113L90.7274 98.9367L89.798 111.795C89.798 111.795 89.5656 115.706 89.5075 116.724C89.4494 117.742 89.159 119.296 89.2752 120.207C89.3914 121.118 89.798 124.546 89.6237 125.189C89.4494 125.832 90.2627 126.582 90.5531 126.904C90.8435 127.225 90.6693 128.19 90.7274 128.94C90.7854 129.69 91.5406 130.386 91.5406 130.386C91.5406 130.386 90.6693 132.101 91.3082 132.369C91.9472 132.637 93.2832 135.101 93.2832 135.101C93.2832 135.101 93.9221 135.845 94.6773 136.758C94.5834 136.836 94.4832 136.908 94.3776 136.972C92.2864 138.258 92.1122 151.438 92.1122 151.438L92.0146 151.579L91.1758 152.809L89.5656 149.841C89.5656 149.841 83.6059 141.533 81.8005 139.402L82.1537 138.059L82.8856 135.273L87.823 95.0363L94.0964 93.2682L106.179 93.804L107.503 96.0007Z" fill="black"/>
<path opacity="0.1" d="M102.642 146.612C102.41 150.448 98.0277 152.325 96.0086 152.749C95.6182 151.929 95.2 151.121 95.2 151.121C95.2 151.121 97.6978 145.442 101.009 145.977C101.6 146.065 102.161 146.282 102.642 146.612V146.612Z" fill="black"/>
<path d="M89.9722 116.081C89.9141 117.099 89.6237 118.653 89.7399 119.564C89.856 120.475 90.2626 123.904 90.0884 124.547C89.9141 125.189 90.7273 125.94 91.0178 126.261C91.3082 126.582 91.1339 127.547 91.192 128.297C91.2501 129.047 92.0052 129.743 92.0052 129.743C92.0052 129.743 91.1339 131.458 91.7729 131.726C92.4119 131.994 93.7479 134.458 93.7479 134.458C93.7479 134.458 97.5235 138.852 97.6978 139.387C97.872 139.923 99.3823 140.245 99.3823 140.245C99.3823 140.245 101.996 140.512 102.403 145.656C102.809 150.799 95.9552 152.782 94.9096 152.621C93.864 152.46 91.7148 152.299 91.7148 152.299L90.0303 149.192C90.0303 149.192 82.3047 138.423 81.7819 138.262C81.2591 138.101 80.7944 137.084 80.6783 136.387C80.5621 135.691 80.0393 135.423 79.4584 135.101C78.8776 134.78 78.9937 133.012 78.529 132.583C78.0644 132.154 78.1224 130.815 77.832 130.44C77.5416 130.065 78.0644 129.101 78.0644 129.101C78.0644 129.101 76.8445 127.815 76.8445 127.654C76.8445 127.493 76.9026 126.207 76.9026 126.207C76.9026 126.207 76.3217 125.618 76.496 125.029C76.6703 124.439 76.0313 123.046 76.0313 123.046C76.0313 123.046 75.5085 122.457 75.5666 122.028C75.6247 121.6 75.2762 119.725 75.2762 119.725C75.2762 119.725 74.8696 118.814 74.9276 118.171C74.9857 117.528 74.463 114.956 74.463 114.956C74.463 114.956 73.9402 114.206 73.9402 113.724C73.9402 113.242 73.9983 111.42 73.9983 111.42C73.9983 111.42 73.0689 109.866 73.4755 109.116C73.8821 108.366 73.3593 106.116 73.0108 105.687C72.6623 105.259 72.3718 101.508 72.0233 101.187C71.6748 100.866 72.0233 99.5797 72.0233 99.5797L71.5005 95.0256C71.5005 95.0256 71.152 93.4183 71.4424 92.9361C71.7329 92.4539 71.3262 91.2752 71.2101 90.7395C71.0939 90.2037 71.5005 88.5428 71.3843 87.9535C71.3355 87.7049 71.4912 87.0234 71.6887 86.314C71.9629 85.3368 72.3137 84.3102 72.3137 84.3102C72.3137 84.3102 102.17 81.7385 106.469 84.4174C107.398 84.9917 107.972 85.864 108.328 86.8841C109.599 90.6216 107.698 96.3136 107.698 96.3136L91.2013 98.296L90.2719 111.154C90.2719 111.154 90.0303 115.063 89.9722 116.081Z" fill="#5F5D7E"/>
<path opacity="0.1" d="M85.209 135.155C85.209 135.155 90.3788 133.708 91.5986 134.673C92.8184 135.637 85.209 135.155 85.209 135.155Z" fill="black"/>
<path opacity="0.1" d="M87.0679 141.262C87.0679 141.262 88.6363 139.709 90.9598 140.191C92.3228 140.484 93.7527 140.352 95.0259 139.816L87.0679 141.262Z" fill="black"/>
<path opacity="0.1" d="M92.5281 143.031C92.5281 143.031 96.7685 142.495 96.9427 142.977C97.117 143.459 92.5281 143.031 92.5281 143.031Z" fill="black"/>
<path opacity="0.1" d="M91.3082 146.192C91.3082 146.192 96.0132 144.906 96.2456 145.442C96.4779 145.977 91.0758 146.138 91.0758 146.138L91.3082 146.192Z" fill="black"/>
<path opacity="0.1" d="M96.5941 117.314C96.5941 117.314 92.1795 120.903 92.8185 121.278C93.4574 121.653 96.5941 117.314 96.5941 117.314Z" fill="black"/>
<path opacity="0.1" d="M92.9927 126.207C92.9927 126.207 96.0714 126.207 95.4905 126.85C94.9096 127.493 92.9927 126.207 92.9927 126.207Z" fill="black"/>
<path opacity="0.1" d="M94.8515 128.726C94.8515 128.726 93.6317 129.69 93.9221 129.904C94.2126 130.119 94.8515 128.726 94.8515 128.726Z" fill="black"/>
<path opacity="0.1" d="M81.4334 151.71C81.4334 151.71 85.2671 152.889 85.3252 153.639C85.3833 154.389 81.4334 151.71 81.4334 151.71Z" fill="black"/>
<path d="M100.021 39.6807L98.8015 46.3779C98.8015 46.3779 88.2296 51.5213 88.0554 51.5213C87.8811 51.5213 80.3298 50.3426 80.0394 50.3426C79.7489 50.3426 74.8115 36.5733 78.2967 35.716C79.2401 35.4846 80.6086 34.9274 82.1026 34.2352C86.1315 32.3771 91.0759 29.5547 91.0759 29.5547C91.0759 29.5547 98.453 28.8046 96.6523 33.5194C95.9552 35.3689 96.313 36.7147 97.017 37.6684C98.123 39.1471 100.021 39.6807 100.021 39.6807Z" fill="#FDC2CC"/>
<path opacity="0.1" d="M100.021 39.6807L98.8015 46.3778C98.8015 46.3778 88.2296 51.5212 88.0554 51.5212C87.8811 51.5212 80.3298 50.3425 80.0394 50.3425C79.7489 50.3425 74.8115 36.5732 78.2967 35.716C79.2401 35.4845 80.6086 34.9273 82.1026 34.2351C83.0529 34.293 83.6988 34.3765 83.6988 34.3765C83.6988 34.3765 86.0223 42.5738 86.1966 45.0919C86.3708 47.6101 92.4119 47.8779 92.8185 47.7708C93.2251 47.6636 94.9096 41.5023 94.9096 41.5023C94.9096 41.5023 94.7354 39.3592 95.2582 39.3592C95.695 39.3592 96.7034 38.0734 97.017 37.6683C98.123 39.147 100.021 39.6807 100.021 39.6807Z" fill="black"/>
<path opacity="0.1" d="M108.318 86.8841C107.51 87.2484 105.577 88.08 105.066 87.9557C104.427 87.7949 102.858 87.7949 102.858 87.7949C102.858 87.7949 101.929 88.7593 100.941 88.545C99.9539 88.3307 96.0621 88.4914 96.0621 88.4914C96.0621 88.4914 89.0916 88.7593 87.7556 88.3307C86.4196 87.9021 81.6565 87.527 81.6565 87.527C81.6565 87.527 75.1507 86.8305 74.0471 86.4019C73.7359 86.2767 73.394 86.2305 73.057 86.2682C72.7199 86.3059 72.3999 86.426 72.1302 86.6162C72.1302 86.6162 71.9281 86.4941 71.6794 86.3162C71.9536 85.339 72.3045 84.3124 72.3045 84.3124C72.3045 84.3124 102.161 81.7407 106.46 84.4196C107.389 84.9918 107.972 85.864 108.318 86.8841Z" fill="black"/>
<path d="M83.6988 34.8052C83.6988 34.8052 77.832 34.0552 75.5085 35.5017C74.6829 36.0047 73.7493 36.3373 72.7715 36.4768C71.4605 36.6642 70.2794 37.3134 69.4768 38.2877C69.3281 38.472 69.184 38.5963 69.0609 38.6092C68.5381 38.6628 65.6337 46.9672 65.6337 46.9672L72.6623 56.0217C72.6623 56.0217 72.488 61.0579 73.4755 62.0223C74.463 62.9867 72.0814 74.0236 72.0814 74.0236C72.0814 74.0236 70.9196 77.8275 71.4424 78.4169C71.9652 79.0062 71.4424 79.7563 71.4424 79.7563C71.4424 79.7563 71.3263 80.7207 71.6167 80.7207C71.9071 80.7207 72.2557 81.953 71.9652 82.0065C71.6748 82.0601 70.3388 83.0781 70.8035 83.2924C71.2682 83.5067 70.8035 83.9889 70.8035 84.4711C70.8035 84.9533 72.1395 85.7569 72.1395 85.7569C72.4092 85.5667 72.7292 85.4465 73.0663 85.4089C73.4033 85.3712 73.7452 85.4174 74.0564 85.5426C75.16 85.9712 81.6658 86.6677 81.6658 86.6677C81.6658 86.6677 86.4289 87.0428 87.7649 87.4714C89.1009 87.9 96.0713 87.6321 96.0713 87.6321C96.0713 87.6321 99.9632 87.4714 100.951 87.6857C101.938 87.9 102.868 86.9356 102.868 86.9356C102.868 86.9356 104.436 86.9356 105.075 87.0963C105.714 87.2571 108.676 85.8641 108.676 85.8641C108.676 85.8641 107.921 83.8281 108.27 83.0781C108.618 82.328 108.386 80.8814 108.386 80.8814C108.386 80.8814 106.992 80.1313 106.934 79.8099C106.876 79.4884 106.295 79.0598 106.469 78.6312C106.643 78.2026 107.631 78.4169 107.514 77.4525C107.398 76.4881 106.178 75.4701 106.295 74.8808C106.411 74.2914 106.876 73.2199 106.295 72.577C105.714 71.9341 105.481 70.9161 105.423 70.1124C105.365 69.3088 106.295 62.0223 106.295 62.0223L104.145 47.3422L110.709 44.3419C110.709 44.3419 110.419 42.2524 110.012 41.1273C109.606 40.0022 109.025 38.0198 109.025 38.0198C109.025 38.0198 107.689 35.6089 107.398 35.5017C107.108 35.3946 104.029 33.5194 103.332 33.7873C102.635 34.0552 97.1169 37.9663 97.1169 37.9663C97.1169 37.9663 95.7809 39.7879 95.2581 39.7879C94.7353 39.7879 94.9096 41.931 94.9096 41.931C94.9096 41.931 93.2251 48.0923 92.8185 48.1995C92.4119 48.3066 86.3708 48.0387 86.1965 45.5206C86.0223 43.0025 83.6988 34.8052 83.6988 34.8052Z" fill="#D399CD"/>
<path d="M74.5908 66.482C73.785 66.6455 72.9643 66.7388 72.1395 66.7606C70.9476 66.7906 69.8997 66.6513 69.6418 66.2549C68.9448 65.1833 68.9448 63.1474 68.9448 63.1474C68.9448 63.1474 72.0954 63.8182 74.2702 64.5511L74.6303 64.6754C75.4737 64.9776 76.115 65.2862 76.2568 65.5562C76.4589 65.9184 75.6805 66.257 74.5908 66.482Z" fill="#FDC2CC"/>
<path opacity="0.1" d="M97.4074 36.6804C103.278 36.6804 108.037 32.2907 108.037 26.8758C108.037 21.4609 103.278 17.0712 97.4074 17.0712C91.5366 17.0712 86.7775 21.4609 86.7775 26.8758C86.7775 32.2907 91.5366 36.6804 97.4074 36.6804Z" fill="black"/>
<path d="M97.4074 36.2517C103.278 36.2517 108.037 31.8621 108.037 26.4472C108.037 21.0322 103.278 16.6426 97.4074 16.6426C91.5366 16.6426 86.7775 21.0322 86.7775 26.4472C86.7775 31.8621 91.5366 36.2517 97.4074 36.2517Z" fill="#FDC2CC"/>
<path opacity="0.1" d="M73.8821 79.3812C73.8821 79.3812 76.9026 79.3812 78.0643 79.649C79.2261 79.9169 81.6657 79.9705 81.6657 79.9705C81.6657 79.9705 74.9276 79.7562 73.8821 79.3812Z" fill="black"/>
<path opacity="0.1" d="M73.9983 81.0956C73.9983 81.0956 77.8901 81.3635 77.9482 81.8992C78.0063 82.435 73.9983 81.0956 73.9983 81.0956Z" fill="black"/>
<path opacity="0.1" d="M103.623 74.5057C103.623 74.5057 106.004 75.3093 105.946 75.5772C105.888 75.8451 103.855 75.1486 103.623 74.5057Z" fill="black"/>
<path d="M67.1439 46.0028L65.6337 46.9672C65.6337 46.9672 64.9947 50.3961 64.9947 51.1998C64.9947 52.0034 63.9491 57.7897 63.9491 57.7897C63.9491 57.7897 63.6006 58.8613 63.7168 59.2899C63.833 59.7185 63.2521 61.9152 63.2521 61.9152C63.2521 61.9152 61.161 66.3621 61.2771 66.6299C61.3933 66.8978 71.21 67.7551 71.21 67.7551L72.6041 55.7538L67.1439 46.0028Z" fill="#D399CD"/>
<path d="M62.7294 65.1833L61.2772 66.6299C61.2772 66.6299 61.2191 71.3446 62.6713 71.8268C64.1234 72.309 65.0528 72.0947 65.5175 72.4698C65.9822 72.8448 68.48 73.5413 68.48 73.5413C68.48 73.5413 71.2101 73.9163 72.0233 73.8092C72.8365 73.702 67.2601 69.5766 70.9196 66.0941L62.7294 65.1833Z" fill="#D399CD"/>
<path d="M108.676 42.2523L110.709 44.3418C110.709 44.3418 111.581 49.3245 111.348 50.021C111.116 50.7175 112.568 62.8259 112.568 62.8259C112.568 62.8259 113.962 68.0764 110.825 68.7729C110.547 68.9987 110.294 69.25 110.07 69.523C109.954 69.7373 107.456 69.4158 107.456 69.4158L103.623 46.217L108.676 42.2523Z" fill="#D399CD"/>
<path opacity="0.1" d="M81.0268 61.4329C81.0268 61.4329 88.6362 57.2539 90.0303 57.0396C91.4244 56.8253 100.079 53.0214 100.079 53.0214C100.079 53.0214 104.378 55.0573 104.784 56.611C105.191 58.1647 102.984 64.3797 102.984 64.3797C102.984 64.3797 95.8971 68.9337 95.4905 69.8981C95.0839 70.8625 88.9847 73.7021 88.9847 74.1843C88.9847 74.6664 79.3423 79.917 75.1019 75.3094C70.8616 70.7018 70.9197 69.3623 70.9197 69.3623L81.6658 67.0585L82.7113 62.7724L81.0268 61.4329Z" fill="black"/>
<path d="M81.0268 61.0043C81.0268 61.0043 88.6362 56.8253 90.0303 56.611C91.4244 56.3967 100.079 52.5927 100.079 52.5927C100.079 52.5927 104.378 54.6286 104.784 56.1824C105.191 57.7361 102.984 63.951 102.984 63.951C102.984 63.951 95.8971 68.5051 95.4905 69.4695C95.0839 70.4338 88.9847 73.2734 88.9847 73.7556C88.9847 74.2378 79.3423 79.4883 75.1019 74.8807C70.8616 70.2731 70.9197 68.9337 70.9197 68.9337L81.6658 66.6299L82.7113 62.3437L81.0268 61.0043Z" fill="#C4C8E2"/>
<path d="M69.2932 62.8795L68.9447 65.5584L66.1821 65.3719L63.4845 65.1876C63.4845 65.1876 61.9162 65.1876 60.9287 63.0446C59.9412 60.9015 63.136 60.58 63.3103 60.9015C63.4427 61.1436 66.7955 62.153 68.4219 62.6309L69.2932 62.8795Z" fill="#FDC2CC"/>
<path opacity="0.1" d="M69.2933 62.8795L68.9448 65.5584L66.1821 65.3719C66.6329 64.7547 67.5762 63.6253 68.4243 62.6309L69.2933 62.8795Z" fill="black"/>
<path opacity="0.1" d="M68.9448 63.1474C68.9448 63.1474 72.0954 63.8182 74.2702 64.5511C74.1261 64.7654 73.1642 66.1541 72.1395 66.7606C70.9476 66.7906 69.8997 66.6513 69.6418 66.2549C68.9448 65.1833 68.9448 63.1474 68.9448 63.1474Z" fill="black"/>
<path opacity="0.1" d="M74.5908 66.482L74.5397 66.1112C74.5397 66.1112 74.5165 66.0319 74.4956 65.9119C74.4537 65.6676 74.4235 65.2561 74.6187 65.0054C74.7325 64.8575 74.707 64.7525 74.6326 64.6775C75.4761 64.9797 76.1173 65.2883 76.2591 65.5583C76.4589 65.9183 75.6805 66.2569 74.5908 66.482Z" fill="black"/>
<path d="M84.454 64.729C84.454 64.729 81.2987 67.6414 81.1035 68.265C80.9083 68.8887 74.9463 68.908 74.9463 68.908L74.5397 65.9076C74.5397 65.9076 74.5164 65.8284 74.4955 65.7083C74.4537 65.464 74.4235 65.0526 74.6187 64.8018C74.9091 64.4268 74.2887 64.3196 74.2887 64.3196C74.2887 64.3196 72.6809 66.7649 71.3263 66.8377C71.3263 66.8377 69.4489 68.0872 69.4675 68.3379C69.4675 68.3379 68.5567 69.1051 68.5381 70.0331C68.5195 70.961 67.3578 71.3382 66.5051 71.0703C65.6523 70.8024 63.5426 70.2302 62.8641 70.3202C62.1857 70.4102 60.0388 70.9975 60.1155 69.1587C60.1155 69.1587 62.9036 67.2299 63.6007 67.2835C64.2977 67.3371 65.9242 66.587 66.1565 65.9977C66.3889 65.4083 70.3388 60.9078 70.3388 60.9078C70.3388 60.9078 72.8365 58.7283 73.8426 58.514C73.8426 58.514 75.8571 57.0674 78.8962 59.2641C78.8962 59.2641 83.0994 61.6558 83.2341 61.9772C83.341 62.2301 84.5609 63.3102 84.6631 64.1203C84.6867 64.2298 84.6799 64.343 84.6433 64.4494C84.6067 64.5558 84.5416 64.652 84.454 64.729V64.729Z" fill="#FDC2CC"/>
<path opacity="0.1" d="M74.5977 60.4685C74.5977 60.4685 74.9067 62.1123 74.7534 62.7016C74.6 63.291 74.2887 64.3089 74.2887 64.3089C74.2887 64.3089 76.166 61.5936 74.5977 60.4685Z" fill="black"/>
<path opacity="0.1" d="M74.7325 64.4697C74.7325 64.4697 75.7014 63.486 75.9151 63.7367C76.1289 63.9875 74.7325 64.4697 74.7325 64.4697Z" fill="black"/>
<path d="M114.399 54.4422C114.399 55.8056 113.917 57.1319 113.027 58.2201C112.136 59.3083 110.886 60.0992 109.464 60.4729C108.869 60.6305 108.254 60.7113 107.635 60.7129H107.601C106.708 60.7126 105.824 60.5502 105 60.2349C104.175 59.9196 103.426 59.4577 102.796 58.8754C102.165 58.2931 101.664 57.6019 101.323 56.8413C100.982 56.0806 100.806 55.2654 100.807 54.4422C100.806 54.0742 100.841 53.7069 100.914 53.345C101.179 51.9742 101.932 50.7241 103.054 49.7925C104.175 48.861 105.602 48.3011 107.108 48.2016C107.271 48.1887 107.436 48.1823 107.601 48.1823C109.402 48.1817 111.13 48.8407 112.404 50.0145C113.679 51.1883 114.397 52.7808 114.399 54.4422V54.4422Z" fill="#F8BDC5"/>
<path d="M117.984 53.6728C118.316 54.039 118.51 54.4948 118.537 54.9715C117.859 55.0293 117.143 55.1043 116.604 55.4965C116.139 55.8308 115.907 56.3537 115.675 56.8402C115.462 57.2988 115.252 57.7575 115.043 58.2161C114.713 58.934 114.373 59.6669 113.8 60.2391C113.556 60.4455 113.339 60.677 113.154 60.9292C112.993 61.1971 112.921 61.5357 112.661 61.7157C112.53 61.7895 112.381 61.8323 112.228 61.8401C112.075 61.848 111.922 61.8207 111.783 61.7607C111.497 61.6621 111.241 61.4971 110.956 61.3921C110.772 61.3269 110.581 61.2809 110.386 61.255V61.255C109.536 61.1392 108.6 61.3085 107.877 60.8864C107.793 60.8351 107.716 60.7762 107.645 60.7106C107.362 60.4554 107.158 60.1361 107.052 59.7848C106.999 59.6424 106.98 59.491 106.996 59.3412C107.03 59.2041 107.095 59.0755 107.188 58.9644C107.282 58.8533 107.4 58.7624 107.535 58.6983C107.575 58.6768 107.614 58.6554 107.656 58.6361C108.353 58.2997 109.322 58.2204 109.687 57.5646C110.036 56.9431 109.603 56.1866 109.074 55.6851C108.823 55.4494 108.525 55.1815 108.56 54.8514C108.593 54.56 108.874 54.3564 109.108 54.1614C109.773 53.6074 110.22 52.867 110.382 52.0547C110.443 51.8038 110.439 51.5428 110.368 51.2939C110.296 51.1155 110.196 50.9474 110.073 50.7946L109.32 49.7659C109.088 49.4028 108.77 49.0923 108.391 48.8573C108.077 48.6837 107.717 48.6237 107.401 48.4522C107.28 48.3915 107.18 48.3029 107.108 48.195C107.068 48.1347 107.055 48.0627 107.071 47.9936C107.11 47.8222 107.303 47.7386 107.496 47.6893C107.995 47.5557 108.517 47.5099 109.034 47.5543C109.198 47.5864 109.367 47.5864 109.531 47.5543C109.613 47.5342 109.683 47.4879 109.731 47.4238C109.778 47.3597 109.799 47.282 109.789 47.2049C110.361 47.0678 110.902 47.4793 111.32 47.865C111.739 48.2508 112.25 48.673 112.84 48.5637C113.051 48.5251 113.247 48.4136 113.46 48.3922C113.674 48.3708 113.939 48.4994 113.925 48.6987C113.911 48.898 113.642 49.0266 113.665 49.2194C113.679 49.2862 113.712 49.3483 113.76 49.3995C114.028 49.74 114.347 50.0444 114.706 50.3038C114.706 49.9245 114.706 49.543 114.706 49.1637C115.17 49.2709 115.34 49.8195 115.287 50.2631C115.233 50.7067 115.054 51.1546 115.166 51.5875C115.18 51.6617 115.212 51.7318 115.261 51.7924C115.309 51.8531 115.372 51.9025 115.445 51.9369C115.564 51.9667 115.69 51.9667 115.809 51.9369C116.876 51.7976 118.121 52.059 118.651 52.9227L117.722 52.6119L118.802 53.1563C118.95 53.219 119.081 53.3104 119.188 53.4242C119.239 53.482 119.27 53.5532 119.275 53.6279C119.28 53.7025 119.259 53.7767 119.216 53.8399C119.037 53.729 118.834 53.6565 118.62 53.6276C118.407 53.5986 118.19 53.6141 117.984 53.6728V53.6728Z" fill="#585268"/>
<g opacity="0.1">
<path opacity="0.1" d="M115.937 51.8878C116.057 51.9179 116.183 51.9179 116.302 51.8878C116.406 51.8749 116.511 51.8663 116.618 51.8598C116.385 51.8462 116.152 51.8527 115.921 51.8792L115.937 51.8878Z" fill="black"/>
<path opacity="0.1" d="M118.205 52.5692L118.605 52.7727L118.53 52.6763L118.205 52.5692Z" fill="black"/>
<path opacity="0.1" d="M115.208 50.2546C115.208 50.006 115.208 49.7553 115.208 49.5045C115.167 49.4112 115.105 49.3276 115.024 49.26C114.944 49.1924 114.848 49.1426 114.743 49.1145V49.8689C114.889 50.0063 115.044 50.1351 115.208 50.2546V50.2546Z" fill="black"/>
<path opacity="0.1" d="M118.67 53.5978C118.875 53.6303 119.07 53.7034 119.241 53.8121C119.282 53.7623 119.303 53.7009 119.299 53.6385C119.095 53.5833 118.88 53.5694 118.67 53.5978Z" fill="black"/>
<path opacity="0.1" d="M112.296 61.7287C112.01 61.6301 111.755 61.4651 111.469 61.3601C111.286 61.2949 111.095 61.2489 110.9 61.2229C110.049 61.1072 109.113 61.2765 108.39 60.8543C108.307 60.8031 108.229 60.7442 108.158 60.6786C107.876 60.4234 107.672 60.104 107.566 59.7528C107.513 59.6103 107.493 59.459 107.51 59.3091C107.543 59.1721 107.609 59.0434 107.702 58.9323C107.795 58.8212 107.913 58.7304 108.049 58.6662C108.088 58.6448 108.128 58.6234 108.17 58.6041C108.878 58.2676 109.836 58.1883 110.2 57.5325C110.549 56.911 110.117 56.1545 109.587 55.6531C109.336 55.4173 109.039 55.1494 109.074 54.8194C109.106 54.5279 109.387 54.3243 109.622 54.1293C110.286 53.5754 110.734 52.8349 110.895 52.0227C110.957 51.7717 110.952 51.5108 110.881 51.2619C110.809 51.0834 110.71 50.9153 110.586 50.7625L109.833 49.7339C109.601 49.3708 109.283 49.0603 108.904 48.8252C108.59 48.6516 108.23 48.5916 107.914 48.4202C107.794 48.3595 107.693 48.2708 107.621 48.163C107.582 48.1027 107.568 48.0306 107.584 47.9615C107.624 47.7901 107.828 47.7065 108.009 47.6572C108.313 47.5788 108.624 47.5314 108.939 47.5158C108.469 47.4902 107.997 47.538 107.545 47.6572C107.364 47.7065 107.159 47.7901 107.12 47.9615C107.104 48.0306 107.117 48.1027 107.157 48.163C107.228 48.2708 107.329 48.3595 107.449 48.4202C107.765 48.5916 108.126 48.6516 108.439 48.8252C108.819 49.0603 109.136 49.3708 109.369 49.7339L110.122 50.7625C110.245 50.9153 110.344 51.0834 110.417 51.2619C110.487 51.5108 110.492 51.7717 110.431 52.0227C110.269 52.8349 109.821 53.5754 109.157 54.1293C108.925 54.3243 108.641 54.5279 108.609 54.8194C108.574 55.1494 108.871 55.4173 109.122 55.6531C109.652 56.1545 110.084 56.911 109.736 57.5325C109.371 58.1862 108.414 58.2655 107.705 58.6041C107.663 58.6234 107.624 58.6448 107.584 58.6662C107.449 58.7304 107.33 58.8212 107.237 58.9323C107.144 59.0434 107.078 59.1721 107.045 59.3091C107.029 59.459 107.048 59.6103 107.101 59.7528C107.207 60.104 107.411 60.4234 107.693 60.6786C107.764 60.7442 107.842 60.8031 107.926 60.8543C108.648 61.2829 109.585 61.1072 110.435 61.2229C110.63 61.2489 110.821 61.2949 111.004 61.3601C111.29 61.4651 111.546 61.6301 111.832 61.7287C112.039 61.8072 112.268 61.8252 112.487 61.7801C112.422 61.7672 112.358 61.75 112.296 61.7287V61.7287Z" fill="black"/>
<path opacity="0.1" d="M113.342 48.5144C113.485 48.4807 113.625 48.4385 113.762 48.388C113.68 48.3509 113.589 48.3353 113.497 48.343C113.3 48.3861 113.106 48.4405 112.917 48.5058C113.056 48.5377 113.201 48.5406 113.342 48.5144V48.5144Z" fill="black"/>
<path opacity="0.1" d="M109.536 47.5158C109.701 47.5445 109.87 47.5408 110.033 47.5051C110.114 47.4851 110.184 47.4391 110.232 47.3754C110.279 47.3118 110.3 47.2346 110.291 47.1579C110.139 47.1216 109.979 47.1216 109.826 47.1579C109.836 47.235 109.815 47.3126 109.768 47.3768C109.72 47.4409 109.65 47.4872 109.569 47.5072C109.553 47.5118 109.536 47.5154 109.52 47.5179L109.536 47.5158Z" fill="black"/>
</g>
<path d="M101.474 51.0133C100.607 51.6112 99.2244 51.8705 97.9534 51.9563C96.9598 52.0289 95.9614 52.0289 94.9677 51.9563L92.7302 51.1805C92.7302 51.1805 92.9115 50.8483 93.2182 50.409C93.8292 49.5346 94.9399 48.2337 96.0993 48.2873C97.8419 48.3666 99.6728 48.4459 99.8471 48.4459C100.021 48.4459 103.418 49.6739 101.474 51.0133Z" fill="#FDC2CC"/>
<path d="M95.8134 8.11536C94.1591 8.0875 92.4513 8.07035 90.9341 8.65756C87.8834 9.82125 86.4451 12.9309 84.6003 15.4383C83.0703 17.5161 81.1173 19.3001 78.8497 20.6909C77.7809 21.3339 76.5401 22.0411 76.2822 23.1983C76.0081 24.422 76.956 25.5557 77.444 26.7151C78.4779 29.1818 77.444 31.9142 76.8329 34.4988C76.547 35.7401 76.3629 36.9995 76.2822 38.2663C76.2158 38.8529 76.2574 39.4456 76.4054 40.0194C76.8701 41.5324 78.6266 42.6253 78.6406 44.1984C78.6406 45.2699 77.8227 46.2814 78.062 47.323C78.371 48.6538 80.1229 49.1339 81.5751 49.3632C81.9228 49.4513 82.2912 49.4408 82.6323 49.3332C82.8646 49.2303 83.0552 49.0331 83.2922 48.9238C84.0984 48.5552 84.993 49.3332 85.8945 49.3182C87.026 49.2989 87.6626 48.0666 87.6905 47.0229C87.7184 45.9793 87.4164 44.8799 87.823 43.9155C88.3643 42.6296 89.9141 42.0188 91.2222 41.3438C92.6697 40.5958 94.0476 39.5157 94.4751 38.0392C94.7423 37.1262 94.6215 36.1597 94.5146 35.221C94.3519 33.7809 94.2242 32.3343 94.1359 30.8898C93.9035 27.2038 97.2238 24.1327 101.213 24.4199H101.288C102.449 24.5078 103.82 24.6106 104.64 23.8305C104.966 23.5198 105.172 23.0912 105.57 22.8769C106.346 22.4697 107.412 23.0505 108.193 22.6497C108.804 22.3347 108.934 21.5782 108.839 20.9352C108.744 20.2923 108.5 19.6494 108.63 19.0193C108.816 18.1257 109.696 17.487 110.024 16.6277C110.4 15.6483 109.994 14.5532 109.408 13.6659C107.533 10.8135 103.716 8.5804 100.137 8.28037C98.6992 8.15179 97.2563 8.13679 95.8134 8.11536Z" fill="black"/>
<path opacity="0.1" d="M93.2182 50.4025C94.5983 50.6639 96.2782 51.2447 97.9534 51.9541C96.9598 52.0267 95.9614 52.0267 94.9677 51.9541L92.7302 51.1783C92.7302 51.1783 92.9115 50.8418 93.2182 50.4025Z" fill="black"/>
<path opacity="0.1" d="M110.389 61.2549C109.538 61.1392 108.602 61.3085 107.879 60.8863C107.796 60.8351 107.718 60.7762 107.647 60.7106H107.612C106.719 60.7117 105.834 60.5504 105.009 60.2359C104.183 59.9214 103.433 59.4598 102.801 58.8776C102.168 58.2954 101.667 57.604 101.325 56.8429C100.983 56.0818 100.807 55.266 100.807 54.4421C100.806 54.0741 100.841 53.7068 100.914 53.3448C103.295 54.5728 105.226 55.8351 105.598 56.4523C106.147 57.2646 106.794 58.0173 107.526 58.6961C108.174 59.339 108.869 59.9562 109.464 60.4727C109.817 60.7749 110.135 61.0428 110.389 61.2549Z" fill="black"/>
<path d="M110.767 61.9687C110.767 61.9687 106.527 58.5933 105.365 56.6646C104.204 54.7358 87.8811 46.5385 89.9722 52.7534C92.0633 58.9684 99.2661 59.5577 99.2661 59.5577C99.2661 59.5577 101.59 61.9687 101.822 63.1474C102.054 64.3261 102.868 66.0405 102.868 66.0405L106.759 67.6478L108.56 67.2728C108.56 67.2728 112.8 65.1297 110.767 61.9687Z" fill="#FDC2CC"/>
<path opacity="0.1" d="M102.635 65.8263C102.635 65.8263 109.489 69.416 110.187 61.0044L111.929 61.5402L110.187 67.2193L107.224 69.2017C107.224 69.2017 103.1 67.4336 102.635 65.8263Z" fill="black"/>
<path d="M102.867 66.0405C102.867 66.0405 109.722 69.6301 110.419 61.2186L112.161 61.7543L110.419 67.4335L107.456 69.4158C107.456 69.4158 103.332 67.6478 102.867 66.0405Z" fill="#D399CD"/>
<path d="M108.92 23.4147C108.999 22.6625 109.331 21.9532 109.506 21.2138C109.677 20.4985 109.701 19.7598 109.575 19.0364C109.505 18.5139 109.294 18.016 108.962 17.5877C108.73 17.3198 108.033 16.7305 107.626 16.9962C107.394 17.1484 107.331 18.0292 107.238 18.2821C106.912 19.1314 106.475 19.941 105.937 20.693C107.086 22.1555 107.774 23.8823 107.927 25.6829C108.079 27.4836 107.689 29.288 106.8 30.897C105.91 32.5061 104.556 33.8573 102.887 34.8014C101.218 35.7456 99.2981 36.246 97.3399 36.2475C97.0867 36.2475 96.8357 36.2368 96.5871 36.2196C96.3548 36.5925 96.1433 36.9697 95.9296 37.3469C95.6771 37.7299 95.5068 38.154 95.4277 38.5963C95.4083 39.0191 95.4786 39.4413 95.6345 39.8393C96.0671 41.1485 96.6644 42.4065 97.4143 43.5875C97.6757 43.9542 97.8902 44.3475 98.0532 44.7598C98.1857 45.1563 98.2089 45.5806 98.3808 45.9621C98.7665 46.8193 99.7749 47.2479 100.704 47.6058C101.26 47.8201 101.841 48.0344 102.44 47.9894C102.496 47.9933 102.553 47.9863 102.606 47.9689C102.659 47.9515 102.707 47.9241 102.748 47.8884C102.789 47.8527 102.821 47.8095 102.843 47.7615C102.865 47.7136 102.876 47.662 102.874 47.6101C102.907 47.3855 102.881 47.157 102.801 46.9431C102.72 46.7291 102.586 46.5355 102.41 46.3778C103.198 46.6057 104.025 46.6965 104.849 46.6457C104.923 46.6599 105 46.6542 105.07 46.6294C105.141 46.6045 105.202 46.5615 105.246 46.5055C105.291 46.4494 105.317 46.3827 105.322 46.3134C105.326 46.244 105.309 46.1749 105.272 46.1142C105.058 45.3059 104.732 44.5265 104.301 43.7954C103.878 43.0753 103.339 42.2374 103.725 41.5023C103.946 41.0737 104.41 40.8337 104.833 40.5786C106.262 39.7214 107.528 38.3241 107.417 36.7533C107.356 35.896 106.887 35.0795 106.859 34.2158C106.787 32.1092 109.245 30.6026 109.617 28.5217C109.912 26.8201 108.741 25.1356 108.92 23.4147Z" fill="black"/>
<g opacity="0.1">
<path opacity="0.1" d="M78.5154 43.341C78.5014 41.768 76.7472 40.675 76.2802 39.162C76.2083 38.9234 76.1639 38.6784 76.1478 38.4312C76.096 38.9637 76.1407 39.5003 76.2802 40.0192C76.7077 41.4015 78.204 42.4345 78.4712 43.8039C78.5011 43.6511 78.5158 43.4962 78.5154 43.341V43.341Z" fill="black"/>
<path opacity="0.1" d="M85.769 48.4609C84.8675 48.4759 83.9729 47.6979 83.1667 48.0665C82.9343 48.1758 82.7485 48.373 82.5068 48.4759C82.1657 48.5835 81.7973 48.594 81.4496 48.5059C80.0021 48.2766 78.2548 47.7987 77.9412 46.4785C77.8819 46.7573 77.8819 47.0441 77.9412 47.3229C78.2502 48.6538 80.0021 49.1338 81.4543 49.3631C81.8019 49.4512 82.1703 49.4408 82.5115 49.3331C82.7438 49.2302 82.9343 49.0331 83.1713 48.9238C83.9776 48.5552 84.8721 49.3331 85.7736 49.3181C86.9052 49.2988 87.5418 48.0665 87.5697 47.0229C87.5697 46.8086 87.5697 46.5943 87.5534 46.3799C87.4349 47.37 86.8215 48.4416 85.769 48.4609Z" fill="black"/>
<path opacity="0.1" d="M94.3543 37.1797C93.9221 38.6563 92.5443 39.7364 91.1014 40.4843C89.7933 41.1615 88.2436 41.7702 87.7022 43.056C87.5029 43.6113 87.4348 44.1996 87.5024 44.7812C87.5225 44.4844 87.5898 44.192 87.7022 43.9132C88.2436 42.6274 89.7933 42.0166 91.1014 41.3415C92.549 40.5936 93.9268 39.5135 94.3543 38.0369C94.5017 37.4763 94.5511 36.8975 94.5007 36.3224C94.4826 36.6119 94.4335 36.8991 94.3543 37.1797V37.1797Z" fill="black"/>
<path opacity="0.1" d="M107.075 21.9316C106.515 21.893 105.932 21.773 105.449 22.0216C105.042 22.2359 104.835 22.6646 104.519 22.9753C103.699 23.7554 102.34 23.6525 101.167 23.5646H101.092C97.1029 23.2775 93.7873 26.3507 94.015 30.0346C94.015 30.0625 94.015 30.0925 94.015 30.1203C94.0704 29.3167 94.2977 28.5312 94.6839 27.8091C95.07 27.0869 95.6073 26.4424 96.2648 25.9126C96.9222 25.3829 97.6869 24.9785 98.5147 24.7226C99.3424 24.4667 100.217 24.3645 101.088 24.4219H101.162C102.324 24.5097 103.695 24.6126 104.515 23.8325C104.84 23.5218 105.047 23.0932 105.444 22.8789C105.909 22.6303 106.501 22.7503 107.071 22.7889C107.518 23.8133 107.773 24.9003 107.826 26.0035C107.826 25.8642 107.837 25.7249 107.837 25.5749C107.837 24.3267 107.579 23.0901 107.075 21.9316V21.9316Z" fill="black"/>
<path opacity="0.1" d="M77.753 28.6052C77.8226 27.6734 77.6777 26.7386 77.3278 25.8621C76.9607 24.9856 76.331 24.1262 76.166 23.2325C75.9128 24.4434 76.8491 25.5642 77.3278 26.7193C77.5761 27.3235 77.7196 27.9599 77.753 28.6052V28.6052Z" fill="black"/>
<path opacity="0.1" d="M109.52 19.5357C109.498 19.8119 109.455 20.0863 109.39 20.3565C109.215 21.0959 108.883 21.8052 108.804 22.5574C108.776 22.8254 108.776 23.0953 108.804 23.3632C108.892 22.6303 109.211 21.936 109.383 21.2202C109.517 20.6678 109.563 20.1004 109.52 19.5357V19.5357Z" fill="black"/>
<path opacity="0.1" d="M109.492 27.6686C109.12 29.7496 106.662 31.2561 106.734 33.3628C106.738 33.4769 106.748 33.5906 106.766 33.7035C107.059 31.8583 109.153 30.4332 109.492 28.5259C109.549 28.1804 109.557 27.8295 109.515 27.4822C109.508 27.5443 109.508 27.6065 109.492 27.6686Z" fill="black"/>
<path opacity="0.1" d="M109.915 15.766C109.695 16.2252 109.414 16.6572 109.078 17.0519C109.174 17.2245 109.252 17.4054 109.31 17.5919C109.556 17.2912 109.756 16.9619 109.908 16.6126C110.053 16.2126 110.09 15.7857 110.014 15.3696C109.994 15.5042 109.961 15.6369 109.915 15.766Z" fill="black"/>
<path opacity="0.1" d="M107.264 36.5239C107.057 37.8354 105.944 38.9777 104.708 39.7256C104.285 39.9806 103.82 40.2292 103.599 40.6493C103.447 40.9654 103.424 41.3221 103.537 41.6522C103.553 41.6021 103.574 41.5534 103.599 41.5065C103.82 41.0779 104.285 40.8379 104.708 40.5828C106.137 39.7256 107.403 38.3283 107.291 36.7575C107.287 36.6782 107.275 36.601 107.264 36.5239Z" fill="black"/>
<path opacity="0.1" d="M102.617 47.0421C102.53 47.1028 102.425 47.136 102.317 47.1364C101.717 47.1836 101.136 46.9671 100.581 46.7528C99.6517 46.3971 98.6387 45.9642 98.2576 45.1091C98.0857 44.7276 98.0625 44.3033 97.93 43.9068C97.7669 43.4945 97.5525 43.1012 97.2911 42.7345C96.5412 41.5535 95.9439 40.2955 95.5113 38.9863C95.4438 38.7885 95.388 38.5875 95.344 38.3841C95.3277 38.4548 95.3138 38.5277 95.3045 38.5984C95.2851 39.0212 95.3553 39.4434 95.5113 39.8414C95.9439 41.1506 96.5412 42.4086 97.2911 43.5896C97.5525 43.9562 97.7669 44.3496 97.93 44.7619C98.0625 45.1584 98.0857 45.5827 98.2576 45.9642C98.6433 46.8214 99.6517 47.25 100.581 47.6079C101.136 47.8222 101.717 48.0365 102.317 47.9915C102.373 47.9954 102.429 47.9884 102.482 47.971C102.536 47.9536 102.584 47.9262 102.625 47.8905C102.666 47.8548 102.698 47.8116 102.72 47.7636C102.742 47.7157 102.752 47.6641 102.751 47.6122C102.782 47.3958 102.758 47.1758 102.682 46.9693C102.665 46.997 102.643 47.0217 102.617 47.0421V47.0421Z" fill="black"/>
<path opacity="0.1" d="M105.028 45.7264C104.933 45.7682 104.829 45.7909 104.724 45.7928C103.9 45.8436 103.073 45.7528 102.284 45.5249C102.572 45.7819 102.743 46.1308 102.761 46.5C103.403 46.6397 104.065 46.6903 104.724 46.65C104.798 46.6642 104.874 46.6586 104.945 46.6337C105.015 46.6088 105.076 46.5658 105.121 46.5098C105.165 46.4537 105.192 46.387 105.196 46.3177C105.201 46.2483 105.184 46.1792 105.147 46.1185C105.112 45.9857 105.07 45.8549 105.028 45.7264Z" fill="black"/>
</g>
<path opacity="0.1" d="M72.6042 50.4496C72.6042 50.4496 72.3718 54.843 73.0689 55.1644C73.7659 55.4859 72.6042 50.4496 72.6042 50.4496Z" fill="black"/>
<path opacity="0.1" d="M85.7899 62.0222C86.0223 62.0222 86.9517 62.4508 87.0678 62.933C87.184 63.4152 85.7899 62.0222 85.7899 62.0222Z" fill="black"/>
<path opacity="0.1" d="M85.209 62.7188C85.4414 62.7188 86.3708 63.1474 86.487 63.6295C86.6031 64.1117 85.209 62.7188 85.209 62.7188Z" fill="black"/>
<path opacity="0.1" d="M87.3583 64.6476C87.5906 64.6476 88.52 65.0762 88.6362 65.5584C88.7524 66.0406 87.3583 64.6476 87.3583 64.6476Z" fill="black"/>
<path opacity="0.1" d="M84.454 64.729C84.454 64.729 81.2987 67.6414 81.1035 68.2651C80.9083 68.8887 74.9463 68.908 74.9463 68.908L74.5397 65.9077C74.5397 65.9077 74.5165 65.8284 74.4955 65.7084C76.1429 65.3183 81.4846 63.4989 84.6631 64.1439C84.6822 64.2498 84.6732 64.3583 84.6368 64.4602C84.6003 64.5622 84.5376 64.6544 84.454 64.729V64.729Z" fill="black"/>
<path d="M70.0855 68.415C70.0855 68.415 73.127 65.9334 74.0564 65.9869C74.9857 66.0405 86.3127 61.5936 87.0678 66.5763C87.823 71.5589 72.6042 71.8268 72.6042 71.8268L70.2807 72.6305C70.2807 72.6305 68.3429 68.7365 70.0855 68.415Z" fill="#FDC2CC"/>
<path d="M69.1957 68.7729C69.1957 68.7729 70.5898 66.9877 71.015 69.1651C71.4401 71.3424 72.0814 74.0234 72.0814 74.0234L68.9633 72.594L69.1957 68.7729Z" fill="#D399CD"/>
<path opacity="0.1" d="M0.736543 121.735C0.542107 121.97 0.334247 122.195 0.113848 122.41C0.0593904 122.11 0.0213942 121.807 0 121.503C0.265739 121.507 0.523375 121.588 0.736543 121.735V121.735Z" fill="black"/>
<defs>
<linearGradient id="paint0_linear" x1="89.6817" y1="175.338" x2="89.6817" y2="6.67728" gradientUnits="userSpaceOnUse">
<stop stop-color="#808080" stop-opacity="0.25"/>
<stop offset="0.54" stop-color="#808080" stop-opacity="0.12"/>
<stop offset="1" stop-color="#808080" stop-opacity="0.1"/>
</linearGradient>
</defs>
</svg>
