<svg width="204" height="162" viewBox="0 0 204 162" fill="none" xmlns="http://www.w3.org/2000/svg">
<path opacity="0.1" d="M118.527 28.4144C105.449 27.9492 92.9908 23.6295 81.0968 18.9024C69.2027 14.1754 57.4219 8.93761 44.6569 6.43348C36.4467 4.82264 27.0564 4.59518 20.4425 9.0989C14.0752 13.4413 12.0181 20.9165 10.9128 27.8603C10.0802 33.0836 9.59121 38.5799 11.8726 43.4703C13.4548 46.8656 16.2657 49.7192 18.2076 52.9822C24.971 64.2974 20.192 78.251 12.8628 89.2994C9.42753 94.4835 5.43659 99.4318 2.78539 104.945C0.134193 110.457 -1.09441 116.783 1.22539 122.411C3.527 127.995 9.00924 132.18 14.9461 135.127C27.0079 141.113 41.2156 142.825 55.0799 143.795C85.7606 145.943 116.603 145.013 147.365 144.082C158.749 143.737 170.183 143.387 181.382 141.586C187.601 140.586 194.021 139 198.538 135.166C204.268 130.3 205.689 122.06 201.85 115.96C195.405 105.726 177.601 103.185 173.091 92.2006C170.613 86.1563 173.159 79.4235 176.76 73.8156C184.487 61.7891 197.438 51.237 198.121 37.4901C198.59 28.0464 192.362 18.5923 182.735 14.1237C172.646 9.42355 158.65 10.0191 151.21 17.7714C143.543 25.7594 130.073 28.8239 118.527 28.4144Z" fill="#6C63FF"/>
<path d="M85.3039 142.782L16.1384 142.436L9.26587 125.941L33.5672 124.136L29.3317 106.051L77.3968 99.6758L31.3706 83.3028L35.4363 82.3143L109.446 94.6696L105.37 122.893L99.544 138.404L85.3039 142.782Z" fill="#6C63FF"/>
<path d="M17.1992 135.528C17.1992 135.528 21.4428 134.833 23.9889 137.902C23.9889 137.902 22.1217 139.407 18.1045 137.323L17.1992 135.528Z" fill="#6C63FF"/>
<path d="M16.7546 135.459C16.7546 135.459 14.0468 138.869 15.3805 142.666C15.3805 142.666 17.5871 141.762 17.8276 137.159L16.7546 135.459Z" fill="#6C63FF"/>
<path d="M124.765 129.639C124.765 129.639 120.184 135.36 123.821 144.01L87.2459 160.242L83.7359 160.995L82.1193 153.758L83.2004 144.624V139.632L124.765 129.639Z" fill="#D5D6DB"/>
<path d="M9.26587 125.941L59.8892 116.498L126.967 127.432L85.3039 142.782L9.26587 125.941Z" fill="#6C63FF"/>
<path d="M9.26587 125.941L59.8892 116.498L126.967 127.432L85.3039 142.782L9.26587 125.941Z" fill="#6C63FF"/>
<path d="M9.26586 125.939C9.26586 125.939 4.53129 135.118 9.98726 143.596L85.0574 160.242C85.0574 160.242 80.3976 152.931 85.2978 142.782L9.26586 125.939Z" fill="#6C63FF"/>
<path opacity="0.1" d="M9.26586 125.939C9.26586 125.939 4.53129 135.118 9.98726 143.596L85.0574 160.242C85.0574 160.242 80.3976 152.931 85.2978 142.782L9.26586 125.939Z" fill="black"/>
<path opacity="0.1" d="M11.5029 129.122C11.5029 129.122 8.79709 135.838 11.5029 140.184Z" fill="black"/>
<path d="M85.0573 160.242L126.967 141.942C126.967 141.942 129.311 142.459 127.796 144.217C126.28 145.974 85.8656 162 85.8656 162L9.98718 143.596L85.0573 160.242Z" fill="#6C63FF"/>
<path opacity="0.1" d="M85.0573 160.242L126.967 141.942C126.967 141.942 129.311 142.459 127.796 144.217C126.28 145.974 85.8656 162 85.8656 162L9.98718 143.596L85.0573 160.242Z" fill="black"/>
<path opacity="0.1" d="M81.6221 144.63C81.6221 144.63 77.5807 149.593 81.6221 157.037Z" fill="black"/>
<path opacity="0.1" d="M101.188 144.546L83.0605 150.735L83.1245 150.931L101.252 144.743L101.188 144.546Z" fill="black"/>
<path opacity="0.1" d="M104.819 143.931L83.0548 152.4L83.1266 152.593L104.891 144.124L104.819 143.931Z" fill="black"/>
<path opacity="0.1" d="M108.154 143.901L83.1763 154.363L83.2529 154.554L108.23 144.092L108.154 143.901Z" fill="black"/>
<path opacity="0.1" d="M111.78 143.005L83.4678 156.092L83.551 156.281L111.863 143.193L111.78 143.005Z" fill="black"/>
<path opacity="0.1" d="M114.826 143.009L83.692 156.935L83.7729 157.125L114.907 143.199L114.826 143.009Z" fill="black"/>
<path opacity="0.1" d="M121.49 141.851L84.1614 158.349L84.2416 158.539L121.57 142.041L121.49 141.851Z" fill="black"/>
<path opacity="0.3" d="M28.0728 126.95L63.6376 119.299L85.3039 123.538L56.1609 133.154L28.0728 126.95Z" fill="white"/>
<path d="M126.967 127.432C126.967 127.432 128.806 128.191 127.727 129.364C126.648 130.536 85.2979 142.782 85.2979 142.782L126.967 127.432Z" fill="#6C63FF"/>
<path d="M144.829 109.75C144.829 109.75 140.25 115.47 143.887 124.122L107.312 140.354L103.802 141.111L102.185 133.873L103.282 124.742V119.744L144.829 109.75Z" fill="#D5D6DB"/>
<path d="M29.3318 106.051L79.9531 96.6093L147.033 107.544L105.37 122.893L29.3318 106.051Z" fill="#3A3768"/>
<path d="M29.3237 106.051C29.3237 106.051 24.5871 115.23 30.043 123.708L105.113 140.354C105.113 140.354 100.455 133.036 105.362 122.891L29.3237 106.051Z" fill="#3A3768"/>
<path opacity="0.1" d="M29.3237 106.051C29.3237 106.051 24.5871 115.23 30.043 123.708L105.113 140.354C105.113 140.354 100.455 133.036 105.362 122.891L81.6222 117.633L29.3237 106.051Z" fill="black"/>
<path opacity="0.1" d="M31.5667 109.233C31.5667 109.233 28.8629 115.947 31.5667 120.296Z" fill="black"/>
<path d="M105.121 140.354L147.033 122.054C147.033 122.054 149.375 122.571 147.86 124.328C146.344 126.086 105.93 142.112 105.93 142.112L30.0511 123.708L105.121 140.354Z" fill="#3A3768"/>
<path opacity="0.1" d="M105.121 140.354L147.033 122.054C147.033 122.054 149.375 122.571 147.86 124.328C146.344 126.086 105.93 142.112 105.93 142.112L30.0511 123.708L105.121 140.354Z" fill="black"/>
<path opacity="0.1" d="M101.686 124.742C101.686 124.742 97.6445 129.705 101.686 137.149Z" fill="black"/>
<path opacity="0.1" d="M121.254 124.66L103.126 130.849L103.19 131.045L121.318 124.856L121.254 124.66Z" fill="black"/>
<path opacity="0.1" d="M124.887 124.043L103.123 132.513L103.195 132.706L124.959 124.237L124.887 124.043Z" fill="black"/>
<path opacity="0.1" d="M128.219 124.011L103.241 134.473L103.318 134.664L128.295 124.202L128.219 124.011Z" fill="black"/>
<path opacity="0.1" d="M131.847 123.115L103.535 136.203L103.618 136.391L131.93 123.304L131.847 123.115Z" fill="black"/>
<path opacity="0.1" d="M134.891 123.117L103.756 137.043L103.837 137.232L134.972 123.307L134.891 123.117Z" fill="black"/>
<path opacity="0.1" d="M141.556 121.959L104.227 138.457L104.307 138.647L141.636 122.149L141.556 121.959Z" fill="black"/>
<path opacity="0.45" d="M48.1387 107.062L83.7035 99.4111L105.37 103.65L76.2268 113.266L48.1387 107.062Z" fill="white"/>
<path d="M147.033 107.544C147.033 107.544 148.87 108.303 147.793 109.473C146.716 110.644 105.37 122.891 105.37 122.891L147.033 107.544Z" fill="#3A3768"/>
<path d="M146.728 86.998C146.728 86.998 142.147 97.2689 145.784 105.919L109.209 117.602L105.707 118.361L104.091 111.123L105.172 101.99V96.9918L146.728 86.998Z" fill="#D5D6DB"/>
<path d="M31.2372 83.3007L81.8605 73.8569L148.941 84.7916L107.275 100.141L31.2372 83.3007Z" fill="#6C63FF"/>
<path d="M31.2372 83.2986C31.2372 83.2986 26.4945 92.4777 31.9505 100.956L107.021 117.602C107.021 117.602 102.361 110.284 107.267 100.141L31.2372 83.2986Z" fill="#6C63FF"/>
<path opacity="0.1" d="M31.2372 83.2986C31.2372 83.2986 26.4945 92.4777 31.9505 100.956L107.021 117.602C107.021 117.602 102.361 110.284 107.267 100.141L31.2372 83.2986Z" fill="black"/>
<path opacity="0.1" d="M33.4743 86.481C33.4743 86.481 30.7685 93.1973 33.4743 97.5439Z" fill="black"/>
<path d="M107.029 117.602L148.939 103.851C148.939 103.851 151.283 104.368 149.767 106.125C148.252 107.883 107.837 119.359 107.837 119.359L31.9587 100.956L107.029 117.602Z" fill="#6C63FF"/>
<path opacity="0.1" d="M107.029 117.602L148.939 103.851C148.939 103.851 151.283 104.368 149.767 106.125C148.252 107.883 107.837 119.359 107.837 119.359L31.9587 100.956L107.029 117.602Z" fill="black"/>
<path opacity="0.1" d="M103.594 101.99C103.594 101.99 99.552 106.952 103.594 114.397Z" fill="black"/>
<path opacity="0.1" d="M123.162 101.908L105.034 108.096L105.098 108.293L123.226 102.104L123.162 101.908Z" fill="black"/>
<path opacity="0.1" d="M126.794 101.292L105.029 109.761L105.101 109.954L126.866 101.485L126.794 101.292Z" fill="black"/>
<path opacity="0.1" d="M130.124 101.26L105.146 111.722L105.223 111.914L130.2 101.452L130.124 101.26Z" fill="black"/>
<path opacity="0.1" d="M133.755 100.363L105.443 113.45L105.526 113.639L133.838 100.551L133.755 100.363Z" fill="black"/>
<path opacity="0.1" d="M136.799 100.367L105.665 114.292L105.746 114.482L136.88 100.556L136.799 100.367Z" fill="black"/>
<path opacity="0.1" d="M143.464 99.2099L106.135 115.708L106.216 115.898L143.544 99.3997L143.464 99.2099Z" fill="black"/>
<path opacity="0.3" d="M50.0443 84.3098L85.6092 76.6589L107.275 80.8979L78.1325 90.5133L50.0443 84.3098Z" fill="white"/>
<path d="M148.939 84.7916C148.939 84.7916 150.778 85.5505 149.699 86.723C148.619 87.8954 107.275 100.141 107.275 100.141L148.939 84.7916Z" fill="#6C63FF"/>
<path d="M141.785 78.0154C140.464 74.3408 133.189 73.9955 130.033 74.9322C127.79 75.6001 123.061 76.3528 120.535 76.7312L120.372 76.572C120.699 76.4728 120.707 76.2288 120.667 75.8669C120.643 75.39 120.65 74.912 120.687 74.4359C122.235 74.9281 123.613 73.7639 123.613 73.7639C125.432 72.9368 124.943 69.3967 125.29 68.4289C125.551 67.7052 125.832 63.4413 125.957 61.3156H125.983L125.997 60.6022C126.016 60.2941 126.024 60.1142 126.024 60.1142C126.024 60.1142 126.201 54.9157 126.549 53.8632C126.872 52.8954 127.135 48.0195 127.175 47.2461C127.175 47.18 127.175 47.1448 127.175 47.1448L127.149 46.694C127.167 46.3652 127.175 45.9992 127.173 45.6146C127.173 43.8466 126.994 41.6196 126.971 41.2598C126.971 41.2081 126.971 41.1461 126.971 41.0716C126.986 40.3169 126.893 36.5369 123.75 35.108C122.592 34.5787 121.2 33.948 119.852 33.3338C119.505 30.2631 118.711 27.2089 118.779 24.1155C118.779 23.6502 118.82 23.1849 118.864 22.7218C118.864 22.8562 118.85 22.9926 118.848 23.1353C118.848 23.4352 118.848 23.7371 118.848 24.0369C118.967 20.168 120.396 16.2784 120.263 12.4922C120.25 12.8624 120.224 13.2346 120.19 13.6068C120.26 12.3261 120.129 11.0423 119.802 9.80406C119.681 9.36775 119.517 8.91696 119.167 8.6254C118.837 8.39059 118.458 8.23702 118.06 8.17668C117.104 7.92622 116.132 7.74109 115.152 7.62251C115.003 7.15595 114.782 6.71683 114.497 6.32185C112.448 3.44344 109.413 0.738723 105.824 0.118375C104.024 -0.191798 101.953 0.0666797 100.728 1.38388C100.6 1.4996 100.48 1.62394 100.368 1.75609C99.7097 2.56047 99.4268 3.61713 98.7519 4.41945C98.7074 4.47321 98.6569 4.52284 98.6084 4.57454C97.2869 5.78421 95.2277 6.03649 93.7587 7.12209C93.4998 7.31698 93.2572 7.53346 93.0332 7.76932C92.4413 8.3696 91.9105 9.02986 91.449 9.73996C90.7882 10.6912 90.1092 11.6816 89.8991 12.8169C89.4767 15.0915 90.9903 17.2482 91.2711 19.5373C91.8976 24.6593 86.3588 29.2044 87.4075 34.2581C87.6874 35.4997 88.3053 36.6347 89.1898 37.5315C87.0296 39.5332 85.1908 41.4748 85.1908 41.4748V41.5906H84.8493L84.8836 42.0042H84.8493L85.0372 44.2478L84.8493 47.515C84.8493 47.515 84.8493 47.5501 84.8493 47.6163V47.6328V47.7217C84.8493 47.7217 84.8493 47.7569 84.8493 47.8231H84.8614C84.924 49.0203 85.1726 53.3255 85.4676 54.2333C85.8152 55.2858 85.991 60.4843 85.991 60.4843C85.991 60.4843 86.3749 67.8313 86.7265 68.8032C87.0781 69.7751 86.579 73.3048 88.4037 74.1382C88.9375 74.5572 89.5696 74.8253 90.2365 74.9157C90.1436 75.6891 90.2022 76.2494 90.5033 76.4252C90.6321 76.5027 90.7782 76.5454 90.9276 76.5493C90.8038 76.7372 90.6937 76.9341 90.5982 77.1386C89.874 77.0612 89.1623 76.8896 88.4805 76.6278C86.5204 75.8007 80.0157 73.9397 78.1263 75.2486C76.2369 76.5575 71.6903 77.7445 73.7898 83.0133C75.8894 88.2821 76.8674 88.4144 76.8674 88.4144C77.5136 88.8945 78.0806 89.4775 78.5466 90.1411C79.1771 91.1109 85.0513 93.3297 86.5204 93.3297C87.1448 93.3198 87.7692 93.3516 88.3896 93.4248C88.3896 93.4248 86.7952 94.8557 87.0074 95.687C87.2196 96.5182 86.5224 103.172 86.5224 103.172C86.5224 103.172 88.139 104.839 88.8301 102.653L88.8544 102.687C88.9837 102.866 89.6829 103.679 90.9984 102.653C91.5367 102.235 92.1086 101.865 92.7079 101.545L99.0772 100.623C99.7413 100.58 100.407 100.576 101.072 100.608C102.082 100.693 103.074 100.081 103.699 99.6076C105.018 100.12 106.501 100.681 107.207 100.885C108.637 101.299 115.213 103.104 116.751 102.54C117.07 102.41 117.354 102.203 117.579 101.936L119.046 101.983L118.359 102.124C118.359 102.124 119.697 102.147 121.515 102.172L121.439 102.217L123.72 102.196C127.058 102.228 130.809 102.238 131.302 102.124C132.074 101.948 136.085 102.072 137.267 102.124H137.596C137.596 102.124 142.004 101.225 140.185 96.6485C138.787 93.1332 134.488 92.1117 132.581 91.8305C133.118 91.7209 133.581 91.6361 133.888 91.5865C135.22 91.3797 137.807 90.139 138.017 89.7151C138.227 89.2912 140.395 88.0608 140.955 87.3598C141.515 86.6589 143.113 81.6899 141.785 78.0154ZM105.281 88.2986L105.065 88.371L104.919 88.4206L104.64 88.7019C104.418 88.5488 104.18 88.3876 103.931 88.2221C104.37 88.249 104.82 88.2759 105.281 88.2986Z" fill="url(#paint0_linear)"/>
<path d="M118.165 66.4955C118.165 66.4955 121.257 74.7668 123.015 73.9397C124.773 73.1125 124.296 69.5972 124.631 68.6336C124.967 67.67 125.339 60.3623 125.339 60.3623C125.339 60.3623 125.508 55.1928 125.844 54.1465C126.155 53.1849 126.408 48.3359 126.45 47.5729C126.45 47.5067 126.45 47.4715 126.45 47.4715L126.117 41.4748L124.229 40.993L119.852 42.6473L119.246 46.1895L119.01 47.5729L118.909 48.1622L118.165 66.4955Z" fill="#BE6F72"/>
<path opacity="0.1" d="M119.183 65.1101C119.183 65.1101 122.134 67.5812 123.023 67.7983C123.912 68.0154 124.458 69.9426 124.458 69.9426" fill="black"/>
<path d="M93.987 66.8574C93.987 66.8574 90.8953 75.1287 89.1373 74.3016C87.3792 73.4744 87.8561 69.9591 87.5207 68.9955C87.1852 68.0319 86.8134 60.7242 86.8134 60.7242C86.8134 60.7242 86.6437 55.5547 86.3082 54.5083C85.9971 53.5468 85.7445 48.6978 85.702 47.9347C85.702 47.8686 85.702 47.8334 85.702 47.8334L86.0375 41.8367L87.9248 41.3549L92.3017 43.0092L92.9079 46.5514L93.1444 47.9347L93.2454 48.5241L93.987 66.8574Z" fill="#BE6F72"/>
<path d="M114.12 22.5936H107.219V33.6006H114.12V22.5936Z" fill="black"/>
<path opacity="0.1" d="M114.12 22.5936H107.219V33.6006H114.12V22.5936Z" fill="black"/>
<path d="M92.7745 75.0956C92.7745 75.0956 90.4163 77.7486 91.2913 78.2304C92.1663 78.7122 97.8263 87.7424 97.8263 87.7424C97.8263 87.7424 116.417 90.0852 119.923 86.5699C123.429 83.0546 123.358 76.7747 123.358 76.7747C123.358 76.7747 120.541 77.395 120.234 77.058C119.927 76.7209 118.24 75.0956 118.24 75.0956C118.24 75.0956 94.3911 73.615 92.7745 75.0956Z" fill="#4B4B5B"/>
<path opacity="0.02" d="M92.7745 75.0956C92.7745 75.0956 90.4163 77.7486 91.2913 78.2304C92.1663 78.7122 97.8263 87.7424 97.8263 87.7424C97.8263 87.7424 116.417 90.0852 119.923 86.5699C123.429 83.0546 123.358 76.7747 123.358 76.7747C123.358 76.7747 120.541 77.395 120.234 77.058C119.927 76.7209 118.24 75.0956 118.24 75.0956C118.24 75.0956 94.3911 73.615 92.7745 75.0956Z" fill="black"/>
<path d="M126.242 41.5617L120.18 46.5245L118.347 46.6609L117.674 46.7106L106.372 47.5584L94.6518 46.6816L92.9079 46.5513L90.6851 46.3859L86.0374 41.8367C86.0374 41.8367 89.3272 38.2304 92.2087 35.7966C93.3444 34.835 94.4174 34.0575 95.1994 33.7515L95.3328 33.7039C95.8247 33.5077 96.2638 33.1944 96.6139 32.79C98.8893 30.3892 100.993 24.4649 100.993 24.4649C100.993 24.4649 111.03 19.1589 109.817 26.1192C108.605 33.0795 114.33 31.359 114.33 31.359L116.217 32.2399L116.963 32.5894L118.864 33.4806L123.154 35.4947C126.521 37.0807 126.242 41.5617 126.242 41.5617Z" fill="#BE6F72"/>
<path opacity="0.1" d="M105.901 30.1328C110.886 30.1328 114.928 25.9973 114.928 20.8958C114.928 15.7944 110.886 11.6589 105.901 11.6589C100.916 11.6589 96.8746 15.7944 96.8746 20.8958C96.8746 25.9973 100.916 30.1328 105.901 30.1328Z" fill="black"/>
<path opacity="0.1" d="M126.256 48.1415H85.702C85.702 48.0754 85.702 48.0402 85.702 48.0402L86.0375 42.0435C86.0375 42.0435 89.3272 38.4372 92.2088 36.0034L117.67 34.9695L118.854 33.6916L123.144 35.7057C126.513 37.2896 126.242 41.7706 126.242 41.7706C126.242 41.7706 126.703 46.9629 126.256 48.1415Z" fill="black"/>
<path d="M126.256 47.9348H85.702C85.702 47.8686 85.702 47.8334 85.702 47.8334L86.0375 41.8367C86.0375 41.8367 89.3272 38.2305 92.2088 35.7966L117.67 34.7627L118.854 33.4848L123.144 35.4989C126.513 37.0828 126.242 41.5638 126.242 41.5638C126.242 41.5638 126.703 46.7561 126.256 47.9348Z" fill="#B13DA6"/>
<path opacity="0.1" d="M99.4005 31.1192C99.4005 31.1192 105.798 39.4608 114.32 30.9476C122.841 22.4343 115.263 49.9364 115.263 49.9364L96.8746 52.1697L99.4005 31.1192Z" fill="black"/>
<path d="M99.4005 31.5328C99.4005 31.5328 105.798 39.8744 114.32 31.3612C122.841 22.8479 115.263 50.35 115.263 50.35L96.8746 52.5832L99.4005 31.5328Z" fill="#B13DA6"/>
<path opacity="0.1" d="M116.953 32.9968L117.63 43.5613L118.355 47.0766L118.909 49.7647C118.909 49.7647 120.323 70.443 119.919 71.4769C119.515 72.5108 120.121 73.3379 120.206 73.888C120.291 74.438 120.121 75.8193 120.188 76.4397C120.254 77.06 120.188 77.335 118.64 77.1138C117.092 76.8925 114.934 76.5079 114.934 76.5079C114.934 76.5079 109.478 76.9215 107.593 76.2329C105.707 75.5443 102.137 75.5422 102.137 75.5422C102.137 75.5422 96.7473 75.6808 94.9973 75.474C93.2474 75.2672 92.3017 77.6804 91.158 76.9897C90.0142 76.2991 92.5038 69.6159 93.3121 67.6845C94.1203 65.7532 92.235 60.8607 92.235 60.8607L94.6599 47.0952L95.1994 43.9748V34.1651L95.3328 34.1175C95.8247 33.9212 96.2638 33.6079 96.6139 33.2036L97.2202 43.0753L116.215 43.766V32.6556" fill="black"/>
<path d="M116.953 32.5832L117.63 43.1477L118.355 46.663L118.909 49.3512C118.909 49.3512 120.323 70.0294 119.919 71.0633C119.515 72.0972 120.121 72.9244 120.206 73.4744C120.291 74.0244 120.121 75.4057 120.188 76.0261C120.254 76.6464 120.188 76.9215 118.64 76.7002C117.092 76.479 114.934 76.0943 114.934 76.0943C114.934 76.0943 109.478 76.5079 107.593 75.8193C105.707 75.1307 102.137 75.1287 102.137 75.1287C102.137 75.1287 96.7473 75.2672 94.9973 75.0604C93.2474 74.8536 92.3017 77.2668 91.158 76.5761C90.0142 75.8855 92.5038 69.2023 93.3121 67.2709C94.1203 65.3396 92.235 60.4471 92.235 60.4471L94.6599 46.6816L95.1994 43.5613V33.7515L95.3328 33.704C95.8247 33.5077 96.2638 33.1944 96.6139 32.79L97.2202 42.6618L116.215 43.3524V32.242" fill="#B13DA6"/>
<path opacity="0.1" d="M119.137 10.5361C119.022 10.1039 118.862 9.65517 118.531 9.36567C118.214 9.13315 117.849 8.98013 117.464 8.91902C116.542 8.67101 115.605 8.48724 114.659 8.36898C114.524 7.90982 114.319 7.47514 114.053 7.08073C112.073 4.21886 109.142 1.52035 105.695 0.910342C103.891 0.589829 101.799 0.877256 100.643 2.333C100.009 3.13325 99.736 4.19405 99.0954 4.97982C97.8607 6.50587 95.6319 6.69404 94.0759 7.87477C93.2454 8.49512 92.6432 9.39462 92.0552 10.2672C91.4186 11.2122 90.7639 12.1965 90.5619 13.3256C90.1577 15.5815 91.6147 17.7321 91.8834 20.0088C92.4896 25.1018 87.1549 29.62 88.1632 34.6448C88.7513 37.5749 91.3964 39.6386 94.1325 40.6849C95.0964 41.0551 96.1977 41.4231 96.6483 42.3702C96.8504 42.7838 96.8847 43.2614 97.0747 43.6791C97.7132 45.0728 99.8128 45.1266 100.94 44.1113C102.068 43.096 102.424 41.4542 102.557 39.9219C103.098 33.2304 100.48 26.6196 100.785 19.9116C100.876 17.883 101.433 15.5815 103.21 14.6634C105.6 13.4227 108.476 15.4906 111.107 15.0956C112.352 18.1956 112.616 21.6169 111.862 24.8785C111.444 26.663 110.721 28.3938 110.668 30.2341C110.589 33.036 112.066 35.596 113.344 38.0733C113.618 38.5365 113.801 39.0499 113.883 39.5848C113.903 40.1276 113.804 40.6681 113.594 41.1667C112.873 43.1539 111.628 44.9984 111.487 47.1138C111.445 47.3607 111.499 47.6145 111.638 47.821C111.78 47.9588 111.964 48.0434 112.159 48.0609C114.342 48.4434 116.229 46.4645 117.294 44.4773C118.481 42.2825 119.173 39.8434 119.319 37.3392C119.539 33.1291 118.064 28.9872 118.155 24.773C118.26 19.9819 120.376 15.1576 119.137 10.5361Z" fill="black"/>
<path d="M119.339 10.3293C119.224 9.8971 119.064 9.44838 118.733 9.15888C118.416 8.92636 118.051 8.77335 117.666 8.71223C116.744 8.46422 115.807 8.28045 114.861 8.16219C114.726 7.70304 114.521 7.26835 114.255 6.87394C112.275 4.01207 109.345 1.31356 105.897 0.703555C104.093 0.383042 102.001 0.670469 100.845 2.12622C100.211 2.92646 99.9381 3.98726 99.2975 4.77303C98.0628 6.29908 95.834 6.48726 94.278 7.66798C93.4475 8.28833 92.8453 9.18783 92.2573 10.0605C91.6207 11.0055 90.966 11.9897 90.7639 13.1188C90.3598 15.3748 91.8167 17.5253 92.0855 19.802C92.6917 24.895 87.357 29.4132 88.3653 34.438C88.9534 37.3681 91.5985 39.4318 94.3346 40.4781C95.2985 40.8483 96.3998 41.2164 96.8504 42.1634C97.0525 42.577 97.0868 43.0546 97.2768 43.4723C97.9153 44.8661 100.015 44.9198 101.142 43.9045C102.27 42.8892 102.626 41.2474 102.759 39.7151C103.301 33.0236 100.682 26.4128 100.987 19.7048C101.078 17.6762 101.635 15.3748 103.412 14.4566C105.802 13.216 108.678 15.2838 111.309 14.8888C112.554 17.9888 112.818 21.4101 112.064 24.6717C111.646 26.4562 110.923 28.187 110.87 30.0274C110.791 32.8293 112.269 35.3892 113.546 37.8665C113.82 38.3297 114.003 38.8431 114.085 39.3781C114.105 39.9208 114.007 40.4613 113.796 40.9599C113.075 42.9471 111.83 44.7916 111.689 46.907C111.647 47.1539 111.702 47.4077 111.84 47.6142C111.983 47.752 112.166 47.8366 112.362 47.8541C114.544 48.2366 116.431 46.2577 117.496 44.2705C118.683 42.0757 119.375 39.6366 119.521 37.1324C119.741 32.9223 118.266 28.7805 118.357 24.5662C118.462 19.7751 120.578 14.9509 119.339 10.3293Z" fill="black"/>
<path d="M114.875 101.886L122.891 102.149L121.742 96.0654L115.601 96.663L114.875 101.886Z" fill="#C3C7D9"/>
<path d="M139.714 87.4674C139.175 88.1559 137.087 89.3966 136.885 89.8102C136.683 90.2238 134.191 91.4645 132.91 91.6712C131.629 91.878 127.59 92.7755 126.848 93.2573C126.317 93.6047 122.051 94.7047 119.248 95.3147C118.489 95.4985 117.721 95.64 116.947 95.7386C115.734 95.8069 102.466 91.1894 102.466 91.1894L105.024 88.5013L105.166 88.4516C105.889 88.2014 109.231 87.0455 111.086 86.4955C113.176 85.8751 115.601 83.3255 115.601 83.3255C115.601 83.3255 119.169 82.0848 119.642 81.9463C120.115 81.8077 118.43 77.122 118.43 77.122C118.43 77.122 126.175 76.0219 129.206 75.0894C132.237 74.1568 139.243 74.5021 140.522 78.1559C141.802 81.8098 140.262 86.7788 139.714 87.4674Z" fill="#4B4B5B"/>
<path d="M104.418 99.1154C104.418 99.1154 102.87 100.77 101.32 100.633C99.7703 100.497 94.3507 101.047 94.3507 101.047C93.3686 101.448 92.4489 101.993 91.6207 102.666C90.3537 103.687 89.6808 102.873 89.5555 102.699L89.5333 102.666C88.8584 104.839 87.3105 103.183 87.3105 103.183C87.3105 103.183 87.9834 96.5658 87.7773 95.7387C87.5712 94.9115 89.1089 93.4909 89.1089 93.4909L90.9276 93.0174L95.5348 91.8098L102.137 94.1527L104.418 99.1154Z" fill="#B13DA6"/>
<path opacity="0.1" d="M90.9195 93.0174L89.5555 102.699L89.5333 102.666C88.8584 104.839 87.3105 103.183 87.3105 103.183C87.3105 103.183 87.9834 96.5658 87.7773 95.7387C87.5712 94.9115 89.1089 93.4909 89.1089 93.4909L90.9195 93.0174Z" fill="black"/>
<path opacity="0.1" d="M100.453 65.4781C100.453 65.4781 104.022 66.7188 107.122 65.4781Z" fill="black"/>
<path opacity="0.1" d="M112.636 67.8231C112.636 67.8231 114.117 68.5799 115.263 67.8231Z" fill="black"/>
<path opacity="0.1" d="M112.636 69.618C112.636 69.618 115.128 69.9592 115.601 69.2706Z" fill="black"/>
<path opacity="0.1" d="M111.828 73.4744C111.828 73.4744 116.508 72.854 117.67 72.0269Z" fill="black"/>
<path opacity="0.1" d="M97.5475 72.0269C97.5475 72.0269 100.174 73.5426 102.129 73.4744Z" fill="black"/>
<path opacity="0.1" d="M119.246 95.3148C118.487 95.4986 117.719 95.6401 116.944 95.7387C115.732 95.8069 102.464 91.1895 102.464 91.1895L105.022 88.5013L105.164 88.4517C105.568 88.7432 105.899 88.9934 106.136 89.1837C107.249 90.0811 108.324 88.9087 108.728 88.9087C109.132 88.9087 112.634 91.8718 112.634 91.8718C112.634 91.8718 115.867 92.6307 116.407 93.3193C116.946 94.0079 118.832 93.8714 119.167 94.3532C119.268 94.5021 119.28 94.8681 119.246 95.3148Z" fill="black"/>
<path d="M94.3508 77.4033C94.3508 77.4033 91.0812 77.5956 89.1959 76.783C87.3105 75.9703 81.0463 74.0948 79.2276 75.412C77.409 76.7292 73.03 77.8934 75.0508 83.1333C77.0715 88.3731 78.0152 88.5096 78.0152 88.5096C78.6404 88.9894 79.1862 89.5689 79.6318 90.2259C80.238 91.1916 85.896 93.3959 87.3105 93.3959C88.7251 93.3959 91.2166 93.3959 94.7185 95.8772C98.2205 98.3586 101.387 98.6357 101.387 98.6357C101.387 98.6357 105.833 100.497 107.217 100.91C108.601 101.324 114.926 103.115 116.409 102.565C117.892 102.015 118.834 98.5654 118.834 98.5654C118.834 98.5654 119.507 95.4637 119.169 94.9819C118.832 94.5001 116.947 94.6366 116.409 93.948C115.872 93.2594 112.636 92.5005 112.636 92.5005C112.636 92.5005 109.143 89.5352 108.738 89.5352C108.334 89.5352 107.259 90.7056 106.146 89.8103C103.928 88.1292 101.598 86.6091 99.1722 85.261C96.614 83.8818 94.3508 77.4033 94.3508 77.4033Z" fill="#4B4B5B"/>
<path opacity="0.1" d="M87.7773 79.4029C88.3594 79.2812 88.9612 79.2986 89.5357 79.4539C90.1101 79.6092 90.6418 79.8982 91.0892 80.2982C92.7058 81.6775 98.1456 84.4463 98.1456 84.4463" fill="black"/>
<path opacity="0.1" d="M128.196 79.316C128.196 79.316 120.988 80.4327 119.642 81.9484Z" fill="black"/>
<path d="M136.481 102.149H136.164C135.024 102.108 131.162 101.984 130.419 102.149C129.544 102.356 117.957 102.149 117.957 102.149L120.222 101.667C120.222 101.667 119.381 98.6522 119.915 98.402C119.915 98.402 116.884 96.359 119.169 94.9798C121.455 93.6005 123.918 94.1816 123.918 94.1816L129.655 92.1924L130.756 91.8098C130.756 91.8098 137.222 92.1551 138.972 96.7043C140.722 101.254 136.481 102.149 136.481 102.149Z" fill="#B13DA6"/>
<path opacity="0.1" d="M136.481 102.149H136.164C138.045 100.561 142.301 95.7263 129.655 92.2027L130.756 91.8202C130.756 91.8202 137.223 92.1655 138.972 96.7147C140.722 101.264 136.481 102.149 136.481 102.149Z" fill="black"/>
<path d="M124.593 96.7891C124.788 96.7891 124.947 96.6271 124.947 96.4272C124.947 96.2274 124.788 96.0654 124.593 96.0654C124.398 96.0654 124.239 96.2274 124.239 96.4272C124.239 96.6271 124.398 96.7891 124.593 96.7891Z" fill="#4B4B5B"/>
<path d="M122.538 97.3867C122.733 97.3867 122.892 97.2247 122.892 97.0248C122.892 96.825 122.733 96.663 122.538 96.663C122.343 96.663 122.184 96.825 122.184 97.0248C122.184 97.2247 122.343 97.3867 122.538 97.3867Z" fill="#4B4B5B"/>
<g opacity="0.1">
<path opacity="0.1" d="M112.525 20.5538C112.604 18.2793 112.208 16.0139 111.365 13.9078C108.738 14.309 105.861 12.2349 103.468 13.4756C101.698 14.3937 101.142 16.6952 101.043 18.7238C101.019 19.2593 101.015 19.7949 101.025 20.3305C101.025 20.1402 101.025 19.9479 101.043 19.7577C101.136 17.7291 101.692 15.4276 103.468 14.5095C105.861 13.2688 108.734 15.3367 111.365 14.9417C112.079 16.7256 112.472 18.6269 112.525 20.5538V20.5538Z" fill="black"/>
<path opacity="0.1" d="M92.1683 20.1763C92.203 19.7257 92.1942 19.2728 92.1421 18.8239C91.9279 17.0043 90.9559 15.2652 90.7801 13.491C90.5538 15.6312 91.8854 17.6866 92.1421 19.8579C92.1683 19.9695 92.1683 20.0688 92.1683 20.1763Z" fill="black"/>
<path opacity="0.1" d="M102.816 38.7329C102.69 40.2672 102.337 41.907 101.199 42.9244C100.061 43.9417 97.9658 43.8859 97.3334 42.4922C97.1313 42.0786 97.101 41.5968 96.905 41.1833C96.4564 40.2362 95.353 39.8681 94.3892 39.498C91.6511 38.4496 89.01 36.3963 88.4219 33.4579C88.3694 33.1917 88.3336 32.9223 88.3148 32.6514C88.2651 33.267 88.3012 33.8866 88.4219 34.4918C89.01 37.4219 91.6551 39.4835 94.3892 40.5319C95.353 40.902 96.4564 41.2701 96.905 42.2172C97.107 42.6307 97.1414 43.1084 97.3334 43.5261C97.9699 44.9198 100.069 44.9736 101.199 43.9583C102.329 42.943 102.68 41.3011 102.816 39.7668C102.877 38.9592 102.898 38.149 102.878 37.3392C102.878 37.8086 102.852 38.2718 102.816 38.7329Z" fill="black"/>
<path opacity="0.1" d="M118.424 23.5861C118.424 23.8859 118.424 24.1837 118.424 24.4815C118.537 20.6353 119.915 16.7685 119.78 13.003C119.674 16.4852 118.5 20.046 118.424 23.5861Z" fill="black"/>
<path opacity="0.1" d="M114.087 39.1444C114.137 38.899 114.153 38.6477 114.134 38.3979C114.052 37.8628 113.869 37.3492 113.594 36.8863C112.426 34.6117 111.095 32.2834 110.937 29.7585C110.937 29.8661 110.923 29.9653 110.921 30.0811C110.84 32.881 112.317 35.443 113.594 37.9202C113.811 38.3039 113.977 38.7156 114.087 39.1444V39.1444Z" fill="black"/>
<path opacity="0.1" d="M119.586 36.1523C119.435 38.6575 118.738 41.0964 117.547 43.2904C116.48 45.2776 114.594 47.2565 112.41 46.8739C112.214 46.8567 112.03 46.7713 111.889 46.632C111.848 46.5846 111.815 46.53 111.794 46.4707C111.769 46.632 111.749 46.7954 111.737 46.9608C111.695 47.2071 111.75 47.4603 111.889 47.6659C112.03 47.8052 112.214 47.8906 112.41 47.9078C114.594 48.2904 116.48 46.3115 117.547 44.3243C118.738 42.1303 119.435 39.6914 119.586 37.1862C119.61 36.7023 119.612 36.2205 119.598 35.7387C119.594 35.8773 119.594 36.0137 119.586 36.1523Z" fill="black"/>
</g>
<path opacity="0.1" d="M119.915 98.402C119.915 98.402 125.029 100.598 128.402 95.7386" stroke="black" stroke-miterlimit="10"/>
<path opacity="0.1" d="M120.921 102.24C120.921 102.24 125.098 99.4607 130.419 102.149" stroke="black" stroke-miterlimit="10"/>
<path opacity="0.1" d="M92.9625 101.609C92.9625 101.609 94.7165 97.5604 99.4005 100.648" stroke="black" stroke-miterlimit="10"/>
<path opacity="0.1" d="M87.2761 41.7334L90.8528 38.4248C90.8528 38.4248 104.721 37.4943 105.295 42.3185C105.295 42.3185 110.211 36.5989 120.551 37.8727L124.926 41.4377L112.834 46.8678L101.084 51.0386L92.429 47.0745L87.2761 41.7334Z" fill="black"/>
<path d="M87.2761 41.9401L90.8528 38.6316C90.8528 38.6316 104.721 37.701 105.295 42.5253C105.295 42.5253 110.211 36.8057 120.551 38.0795L124.926 41.6444L112.834 47.0745L101.084 51.2453L92.429 47.2813L87.2761 41.9401Z" fill="#D5D6DB"/>
<path opacity="0.1" d="M85.6939 42.3537L87.2761 61.723L104.048 62.5853L103.321 43.2987L103.307 42.974L85.6939 42.3537Z" fill="black"/>
<path d="M85.6939 41.9401L87.2761 61.3094L104.048 62.1717L103.321 42.8851L103.307 42.5605L85.6939 41.9401Z" fill="#6C63FF"/>
<path opacity="0.1" d="M125.694 41.9401L108.393 44.5952V64.0514L125.3 61.5514L125.694 41.9401Z" fill="black"/>
<path d="M125.694 41.5266L108.393 44.1816V63.6378L125.3 61.1378L125.694 41.5266Z" fill="#6C63FF"/>
<path opacity="0.3" d="M121.614 46.2743L112.269 47.3372L112.473 50.596L121.608 49.5745L121.614 46.2743Z" fill="white"/>
<path d="M88.1855 71.6816L89.1372 74.3016C89.1372 74.3016 90.5518 75.5423 92.0996 74.9219C93.6475 74.3016 94.9974 73.9935 95.6703 73.3896C96.3432 72.7858 97.2869 69.7523 97.2869 69.7523C97.2869 69.7523 98.2305 66.4438 99.1722 65.6167C100.114 64.7896 102.607 53.3938 99.1722 54.5084C95.7369 55.6229 93.11 65.962 93.11 65.962C93.11 65.962 92.5038 66.7189 91.6288 66.7892C90.7538 66.8595 89.0019 66.6506 88.6644 67.4095C88.3269 68.1684 87.1751 70.1659 88.1855 71.6816Z" fill="#BE6F72"/>
<path opacity="0.1" d="M108.393 44.5932C107.507 44.7974 106.587 44.7867 105.706 44.562C104.825 44.3372 104.007 43.9046 103.319 43.2987L104.048 62.5832C104.048 62.5832 105.766 64.4856 108.393 64.0514V44.5932Z" fill="black"/>
<path d="M108.393 44.1796C107.507 44.3838 106.587 44.3732 105.706 44.1484C104.825 43.9236 104.007 43.491 103.319 42.8851L104.048 62.1697C104.048 62.1697 105.766 64.072 108.393 63.6378V44.1796Z" fill="#6C63FF"/>
<path opacity="0.1" d="M108.393 44.1796C107.507 44.3838 106.587 44.3732 105.706 44.1484C104.825 43.9236 104.007 43.491 103.319 42.8851L104.048 62.1697C104.048 62.1697 105.766 64.072 108.393 63.6378V44.1796Z" fill="black"/>
<path opacity="0.1" d="M108.797 42.0063C108.797 42.0063 115.835 39.8041 117.67 40.1142Z" fill="black"/>
<path opacity="0.1" d="M100.924 41.0447C100.924 41.0447 94.1022 39.3905 92.9625 39.8599Z" fill="black"/>
<path opacity="0.1" d="M113.234 42.2813C113.234 42.2813 117.941 40.5154 119.642 41.3549Z" fill="black"/>
<path opacity="0.1" d="M110.864 86.5803C111.593 86.0198 112.37 85.5264 113.184 85.1059C114.396 84.5083 116.619 82.9575 116.619 82.9575" fill="black"/>
<path opacity="0.1" d="M92.9625 65.4781C92.9625 65.4781 90.0102 67.9492 89.1231 68.1663C88.236 68.3834 87.6884 70.3107 87.6884 70.3107" fill="black"/>
<path d="M123.958 71.3135L123.017 73.9397C123.017 73.9397 121.602 75.1804 120.052 74.56C118.503 73.9397 117.157 73.6316 116.482 73.0278C115.807 72.424 114.865 69.3905 114.865 69.3905C114.865 69.3905 113.924 66.082 112.98 65.2548C112.036 64.4277 109.545 53.0319 112.98 54.1465C116.415 55.261 119.042 65.6002 119.042 65.6002C119.042 65.6002 119.648 66.357 120.523 66.4273C121.398 66.4976 123.15 66.2887 123.488 67.0476C123.825 67.8065 124.969 69.804 123.958 71.3135Z" fill="#BE6F72"/>
<path opacity="0.1" d="M122.307 66.4831C122.307 66.4831 124.237 67.7527 124.229 69.2705Z" fill="black"/>
<path d="M105.934 29.68C110.919 29.68 114.96 25.5445 114.96 20.443C114.96 15.3416 110.919 11.2061 105.934 11.2061C100.948 11.2061 96.907 15.3416 96.907 20.443C96.907 25.5445 100.948 29.68 105.934 29.68Z" fill="#BE6F72"/>
<path d="M100.265 17.9637C101.361 17.788 102.321 17.1366 103.367 16.7623C105.709 15.9207 108.3 16.4976 110.67 17.2565C111.579 17.5481 112.503 17.8769 113.457 17.8769C114.411 17.8769 115.423 17.4778 115.91 16.6362C116.359 15.8628 116.272 14.8579 115.894 14.0452C115.516 13.2325 114.883 12.5791 114.245 11.9629C112.143 9.9323 109.537 8.03404 106.653 8.24082C105.493 8.3256 104.384 8.7495 103.317 9.2189C101.973 9.81133 100.666 10.4853 99.4006 11.2371C98.4286 11.814 96.6281 12.5853 96.0684 13.6399C94.7953 16.0158 98.2851 18.2822 100.265 17.9637Z" fill="black"/>
<path opacity="0.1" d="M115.91 15.7677C115.423 16.6093 114.411 17.0084 113.457 17.0084C112.503 17.0084 111.579 16.692 110.668 16.4004C108.298 15.6415 105.709 15.0625 103.365 15.9062C102.32 16.2805 101.359 16.9401 100.263 17.1055C98.667 17.362 96.0966 15.9393 95.8178 14.1299C95.5046 16.2205 98.4851 18.0112 100.263 17.7259C101.359 17.5501 102.32 16.8988 103.365 16.5266C105.709 15.6829 108.298 16.2619 110.668 17.0208C111.579 17.3123 112.501 17.6411 113.457 17.6287C114.413 17.6163 115.423 17.2317 115.91 16.388C116.162 15.929 116.262 15.3984 116.193 14.8764C116.161 15.1907 116.065 15.4945 115.91 15.7677Z" fill="black"/>
<defs>
<linearGradient id="paint0_linear" x1="107.772" y1="103.787" x2="107.772" y2="-0.00155894" gradientUnits="userSpaceOnUse">
<stop stop-color="#808080" stop-opacity="0.25"/>
<stop offset="0.54" stop-color="#808080" stop-opacity="0.12"/>
<stop offset="1" stop-color="#808080" stop-opacity="0.1"/>
</linearGradient>
</defs>
</svg>
