<svg width="338" height="234" viewBox="0 0 338 234" fill="none" xmlns="http://www.w3.org/2000/svg">
<path opacity="0.1" d="M166.5 208C249.067 208 316 161.438 316 104C316 46.5624 249.067 0 166.5 0C83.9334 0 17 46.5624 17 104C17 161.438 83.9334 208 166.5 208Z" fill="#6C63FF"/>
<path d="M248.223 70.3769C248.223 77.2397 245.837 83.8375 241.561 88.7935C237.286 93.7494 231.452 96.6807 225.276 96.9754C219.101 97.2702 213.062 94.9057 208.42 90.3755C203.777 85.8452 200.889 79.4991 200.359 72.6616C200.324 72.2292 200.298 71.7968 200.286 71.3579V71.3353C200.274 71.0158 200.269 70.6963 200.269 70.3769C200.271 63.3175 202.798 56.5481 207.294 51.5572C211.791 46.5663 217.888 43.7626 224.246 43.7626C230.604 43.7626 236.701 46.5663 241.197 51.5572C245.694 56.5481 248.221 63.3175 248.223 70.3769V70.3769Z" fill="#65617D"/>
<path opacity="0.2" d="M248.223 70.3769C248.223 77.2397 245.837 83.8375 241.561 88.7935C237.286 93.7494 231.452 96.6807 225.276 96.9754C219.101 97.2702 213.062 94.9057 208.42 90.3755C203.777 85.8452 200.889 79.4991 200.359 72.6616C200.324 72.2292 200.298 71.7968 200.286 71.3579V71.3353C200.274 71.0158 200.269 70.6963 200.269 70.3769C200.271 63.3175 202.798 56.5481 207.294 51.5572C211.791 46.5663 217.888 43.7626 224.246 43.7626C230.604 43.7626 236.701 46.5663 241.197 51.5572C245.694 56.5481 248.221 63.3175 248.223 70.3769V70.3769Z" fill="black"/>
<path d="M224.245 84.8985C231.468 84.8985 237.324 78.3969 237.324 70.3768C237.324 62.3567 231.468 55.8551 224.245 55.8551C217.022 55.8551 211.167 62.3567 211.167 70.3768C211.167 78.3969 217.022 84.8985 224.245 84.8985Z" fill="#DCE0ED"/>
<path d="M224.245 79.0899C228.579 79.0899 232.092 75.1889 232.092 70.3768C232.092 65.5648 228.579 61.6638 224.245 61.6638C219.911 61.6638 216.398 65.5648 216.398 70.3768C216.398 75.1889 219.911 79.0899 224.245 79.0899Z" fill="#65617D"/>
<path d="M120.219 70.3769C120.219 77.2397 117.832 83.8375 113.557 88.7935C109.281 93.7495 103.447 96.6807 97.2723 96.9754C91.0971 97.2702 85.0581 94.9057 80.4152 90.3755C75.7724 85.8452 72.8846 79.4991 72.3544 72.6616C72.3195 72.2292 72.2934 71.7967 72.2817 71.3579V71.3353C72.2701 71.0158 72.2643 70.6963 72.2643 70.3769C72.2664 63.3175 74.7935 56.5481 79.2899 51.5572C83.7863 46.5663 89.8838 43.7626 96.2416 43.7626C102.599 43.7626 108.697 46.5663 113.193 51.5572C117.69 56.5481 120.217 63.3175 120.219 70.3769V70.3769Z" fill="#65617D"/>
<path opacity="0.2" d="M120.219 70.3769C120.219 77.2397 117.832 83.8375 113.557 88.7935C109.281 93.7495 103.447 96.6807 97.2723 96.9754C91.0971 97.2702 85.0581 94.9057 80.4152 90.3755C75.7724 85.8452 72.8846 79.4991 72.3544 72.6616C72.3195 72.2292 72.2934 71.7967 72.2817 71.3579V71.3353C72.2701 71.0158 72.2643 70.6963 72.2643 70.3769C72.2664 63.3175 74.7935 56.5481 79.2899 51.5572C83.7863 46.5663 89.8838 43.7626 96.2416 43.7626C102.599 43.7626 108.697 46.5663 113.193 51.5572C117.69 56.5481 120.217 63.3175 120.219 70.3769V70.3769Z" fill="black"/>
<path d="M96.241 84.8985C103.464 84.8985 109.319 78.3969 109.319 70.3768C109.319 62.3567 103.464 55.8551 96.241 55.8551C89.0179 55.8551 83.1624 62.3567 83.1624 70.3768C83.1624 78.3969 89.0179 84.8985 96.241 84.8985Z" fill="#DCE0ED"/>
<path d="M96.241 79.0899C100.575 79.0899 104.088 75.1889 104.088 70.3768C104.088 65.5648 100.575 61.6638 96.241 61.6638C91.9071 61.6638 88.3939 65.5648 88.3939 70.3768C88.3939 75.1889 91.9071 79.0899 96.241 79.0899Z" fill="#65617D"/>
<path d="M255.702 65.3881L247.701 65.0018L240.397 49.9392L214.657 47.6219L202.135 65.7743L202.83 70.7951L201.091 75.4298L119.349 76.2022V73.8849H118.654L117.958 70.4089H124.219L119.697 65.0018L103.697 49.9392C103.697 49.9392 76.2176 50.7117 75.8697 49.9392C75.5219 49.1668 77.435 41.2493 77.435 41.2493L89.2615 37.3871L129.611 33.9111C138.48 18.2692 146.481 10.931 146.481 10.931H250.136L255.006 38.7389V38.8045L255.702 65.3881Z" fill="#444053"/>
<path d="M197.961 67.3192C197.961 67.3192 208.396 45.6909 216.396 45.6909H235.875C235.875 45.6909 240.745 45.6909 242.832 49.9393L250.832 67.3192H244.571C244.571 67.3192 239.353 51.098 233.44 50.7118C227.527 50.3256 217.44 50.7118 217.44 50.7118C217.44 50.7118 213.961 50.7118 211.874 55.3464C209.787 59.9811 202.731 70.0766 202.731 70.0766C202.731 70.0766 195.178 72.7263 197.961 67.3192Z" fill="#33323D"/>
<path d="M260.223 63.8434H247.139L247.006 75.4298L260.223 71.954V63.8434Z" fill="#33323D"/>
<path d="M71 56.8913C71 56.8913 71.6957 51.098 76.5654 48.7806L108.566 46.8495C108.566 46.8495 113.784 47.2358 116.567 54.574L125.61 69.6365V71.9539H115.523C115.523 71.9539 110.653 51.4842 96.74 52.2566H80.0438C80.0438 52.2566 76.2176 52.2566 74.8262 59.2086L71 56.8913Z" fill="#33323D"/>
<path d="M146.133 13.2484H252.919C252.919 12.1217 252.516 11.0411 251.798 10.2443C251.081 9.4476 250.107 9 249.093 9H149.959C149.457 9 148.959 9.10989 148.495 9.32339C148.031 9.5369 147.609 9.84983 147.253 10.2443C146.898 10.6388 146.616 11.1072 146.424 11.6226C146.232 12.1381 146.133 12.6905 146.133 13.2484Z" fill="#33323D"/>
<path opacity="0.3" d="M169.017 36.0354H139.467C139.135 36.0354 138.807 35.943 138.514 35.7667C138.222 35.5904 137.974 35.3358 137.792 35.0259C137.611 34.716 137.502 34.3607 137.476 33.9922C137.45 33.6238 137.507 33.2539 137.642 32.9162L142.318 21.2344C143.039 19.4322 144.216 17.9009 145.705 16.8262C147.195 15.7515 148.933 15.1795 150.709 15.1795H168.663C168.993 15.1795 169.32 15.2517 169.625 15.392C169.93 15.5323 170.207 15.7379 170.441 15.9972C170.674 16.2564 170.859 16.5642 170.986 16.9029C171.112 17.2416 171.177 17.6046 171.177 17.9712V33.6375C171.177 33.9524 171.121 34.2642 171.013 34.5551C170.904 34.8461 170.745 35.1104 170.545 35.3331C170.344 35.5557 170.106 35.7324 169.844 35.8529C169.582 35.9734 169.301 36.0354 169.017 36.0354Z" fill="#6C63FF"/>
<path opacity="0.3" d="M206.213 15.1795H180.316C179.495 15.1795 178.83 15.9186 178.83 16.8303V34.3846C178.83 35.2963 179.495 36.0354 180.316 36.0354H206.213C207.034 36.0354 207.7 35.2963 207.7 34.3846V16.8303C207.7 15.9186 207.034 15.1795 206.213 15.1795Z" fill="#6C63FF"/>
<path d="M255.006 38.7388V38.8047L210.135 39.5113L208.966 10.9312H250.136L255.006 38.7388Z" fill="#33323D"/>
<path opacity="0.3" d="M245.519 15.1795H215.448C214.627 15.1795 213.961 15.9186 213.961 16.8303V34.3846C213.961 35.2963 214.627 36.0354 215.448 36.0354H245.519C246.34 36.0354 247.006 35.2963 247.006 34.3846V16.8303C247.006 15.9186 246.34 15.1795 245.519 15.1795Z" fill="#6C63FF"/>
<path d="M172.792 43.3736H162.606C162.345 43.3736 162.133 43.6084 162.133 43.8981V45.1664C162.133 45.4561 162.345 45.6909 162.606 45.6909H172.792C173.053 45.6909 173.264 45.4561 173.264 45.1664V43.8981C173.264 43.6084 173.053 43.3736 172.792 43.3736Z" fill="#33323D"/>
<path d="M204.793 43.3736H194.607C194.346 43.3736 194.134 43.6084 194.134 43.8981V45.1664C194.134 45.4561 194.346 45.6909 194.607 45.6909H204.793C205.054 45.6909 205.265 45.4561 205.265 45.1664V43.8981C205.265 43.6084 205.054 43.3736 204.793 43.3736Z" fill="#33323D"/>
<path d="M229.555 12.8732H216.674V26.9286H229.555V12.8732Z" fill="white"/>
<path d="M329.503 166.09C329.503 171.796 327.794 177.283 324.733 181.404C321.671 185.525 317.494 187.963 313.073 188.208C308.651 188.453 304.327 186.487 301.003 182.72C297.678 178.952 295.611 173.675 295.231 167.989C295.206 167.63 295.188 167.27 295.179 166.905V166.887C295.171 166.621 295.167 166.355 295.167 166.09C295.173 160.223 296.984 154.6 300.203 150.454C303.422 146.308 307.785 143.98 312.335 143.98C316.884 143.98 321.247 146.308 324.466 150.454C327.685 154.6 329.497 160.223 329.503 166.09Z" fill="#65617D"/>
<path d="M312.334 178.165C317.506 178.165 321.699 172.759 321.699 166.09C321.699 159.421 317.506 154.014 312.334 154.014C307.162 154.014 302.97 159.421 302.97 166.09C302.97 172.759 307.162 178.165 312.334 178.165Z" fill="#DCE0ED"/>
<path d="M312.334 173.335C315.438 173.335 317.953 170.091 317.953 166.09C317.953 162.088 315.438 158.845 312.334 158.845C309.231 158.845 306.716 162.088 306.716 166.09C306.716 170.091 309.231 173.335 312.334 173.335Z" fill="#65617D"/>
<path d="M267.249 124.049L225.908 125.122V117.251C226.278 110.927 231.308 108.707 235.899 108.012C239.478 107.488 243.102 107.839 246.58 109.046C255.352 112.04 260.945 112.62 263.692 112.676C264.296 112.688 264.879 112.969 265.342 113.47C265.804 113.972 266.118 114.664 266.231 115.429C266.362 116.328 266.491 117.308 266.612 118.274C266.703 119.031 266.791 119.777 266.87 120.472C267.097 122.487 267.249 124.049 267.249 124.049Z" fill="#65617D"/>
<path d="M300.23 167.52H214.35C213.687 167.529 213.037 167.286 212.48 166.822C211.923 166.357 211.484 165.692 211.218 164.909C210.571 162.915 211.476 161.643 212.442 160.897C214.418 159.387 215.916 157.024 216.671 154.226C217.586 150.751 218.481 145.28 218.833 136.752C219.195 127.931 221.671 123.571 224.347 121.459H224.349C227.806 118.733 231.595 119.755 231.595 119.755L266.416 120.115C267.036 120.477 267.609 120.959 268.116 121.545C271.219 125.269 266.695 130.132 266.695 130.132C256.983 143.369 264.335 156.786 264.335 156.786H282.152C285.481 156.808 288.737 155.523 291.486 153.102C293.893 150.958 294.825 148.881 295.186 147.625C295.46 146.664 295.739 145.706 296.072 144.778C300.746 131.707 295.109 110.444 292.676 102.493C292.072 100.515 291.667 99.361 291.667 99.361L297.254 98.8163L300.787 98.4701L300.823 98.4675C308.61 115.786 311.504 133.583 312.478 146.769C312.57 148.011 312.645 149.216 312.705 150.373C312.816 152.572 312.575 154.778 311.998 156.853C311.421 158.927 310.52 160.827 309.351 162.435C308.181 164.042 306.768 165.323 305.199 166.198C303.631 167.072 301.939 167.522 300.23 167.52V167.52Z" fill="#6C63FF"/>
<path opacity="0.1" d="M266.87 120.471H225.908V118.274H266.612C266.703 119.03 266.791 119.776 266.87 120.471Z" fill="black"/>
<path opacity="0.1" d="M268.116 121.545H224.678C224.565 121.546 224.453 121.517 224.349 121.459C227.806 118.733 231.595 119.755 231.595 119.755L266.416 120.115C267.036 120.477 267.609 120.959 268.116 121.545Z" fill="black"/>
<path d="M268.854 118.719H225.086C224.737 118.719 224.454 119.272 224.454 119.954C224.454 120.636 224.737 121.19 225.086 121.19H268.854C269.203 121.19 269.486 120.636 269.486 119.954C269.486 119.272 269.203 118.719 268.854 118.719Z" fill="#DCE0ED"/>
<path opacity="0.1" d="M312.478 146.769C310.499 149.544 309.043 150.636 309.111 147.708C309.319 138.853 297.254 98.8163 297.254 98.8163L300.823 98.4675C308.61 115.786 311.504 133.583 312.478 146.769Z" fill="black"/>
<path opacity="0.1" d="M329.399 163.664C327.349 164.297 324.814 164.941 321.689 165.532C320.527 165.752 319.282 165.963 317.951 166.165C314.761 166.653 311.072 167.08 306.81 167.407C305.603 167.501 304.349 167.586 303.049 167.662C300.615 167.804 298.009 167.914 295.231 167.99L295.179 166.905V166.887C299.06 164.866 305.166 159.475 306.15 145.433C308.603 144.214 311.24 143.737 313.858 144.04C316.476 144.342 319.005 145.415 321.251 147.176C323.497 148.937 325.399 151.34 326.812 154.198C328.224 157.057 329.109 160.295 329.399 163.664Z" fill="black"/>
<path d="M291.943 167.52C291.943 167.52 311.65 164.767 304.866 126.043C304.866 126.043 314.604 137.553 320.661 143.951C326.717 150.35 337.513 159.169 337.513 159.169C337.513 159.169 331.066 166.939 291.943 167.52Z" fill="#6C63FF"/>
<path opacity="0.1" d="M291.943 167.52C291.943 167.52 311.65 164.767 304.866 126.043C304.866 126.043 314.604 137.553 320.661 143.951C326.717 150.35 337.513 159.169 337.513 159.169C337.513 159.169 331.066 166.939 291.943 167.52Z" fill="white"/>
<path d="M239.295 188.228C248.776 188.228 256.463 178.316 256.463 166.09C256.463 153.863 248.776 143.951 239.295 143.951C229.813 143.951 222.127 153.863 222.127 166.09C222.127 178.316 229.813 188.228 239.295 188.228Z" fill="#65617D"/>
<path d="M239.295 178.165C244.467 178.165 248.659 172.759 248.659 166.09C248.659 159.421 244.467 154.014 239.295 154.014C234.123 154.014 229.93 159.421 229.93 166.09C229.93 172.759 234.123 178.165 239.295 178.165Z" fill="#DCE0ED"/>
<path d="M239.295 173.335C242.398 173.335 244.913 170.091 244.913 166.09C244.913 162.088 242.398 158.845 239.295 158.845C236.192 158.845 233.676 162.088 233.676 166.09C233.676 170.091 236.192 173.335 239.295 173.335Z" fill="#65617D"/>
<path opacity="0.1" d="M258.544 159.441C258.544 145.145 249.739 133.555 238.879 133.555C228.018 133.555 219.214 145.145 219.214 159.441C219.214 160.045 219.231 160.642 219.261 161.235H258.496C258.527 160.642 258.544 160.045 258.544 159.441Z" fill="black"/>
<path d="M257.816 158.995C257.816 145.228 249.337 134.068 238.879 134.068C228.42 134.068 219.942 145.228 219.942 158.995C219.942 159.576 219.958 160.152 219.988 160.723H257.769C257.799 160.152 257.816 159.576 257.816 158.995Z" fill="#6C63FF"/>
<path opacity="0.1" d="M257.815 158.995C257.815 159.395 257.807 159.792 257.793 160.186C257.786 160.366 257.778 160.543 257.77 160.723H219.988C219.979 160.543 219.971 160.366 219.965 160.186C219.95 159.792 219.942 159.395 219.942 158.995C219.942 145.229 228.42 134.068 238.879 134.068C249.338 134.068 257.815 145.229 257.815 158.995Z" fill="white"/>
<path opacity="0.1" d="M257.793 160.186C257.786 160.366 257.778 160.543 257.77 160.723H219.988C219.979 160.543 219.971 160.366 219.965 160.186H257.793Z" fill="black"/>
<path opacity="0.1" d="M309.094 123.379C310.348 122.648 310.207 118.753 308.778 114.68C307.35 110.607 305.175 107.898 303.921 108.63C302.667 109.361 302.808 113.256 304.237 117.329C305.665 121.402 307.84 124.111 309.094 123.379Z" fill="black"/>
<path d="M309.302 123.111C310.556 122.38 310.415 118.485 308.987 114.412C307.558 110.339 305.384 107.63 304.129 108.361C302.875 109.093 303.017 112.987 304.445 117.06C305.873 121.133 308.048 123.842 309.302 123.111Z" fill="#DCE0ED"/>
<path opacity="0.1" d="M300.788 98.4702V102.675H294.441C293.85 102.676 293.259 102.615 292.676 102.493C292.072 100.515 291.667 99.361 291.667 99.361L297.254 98.8163L300.788 98.4702Z" fill="black"/>
<path d="M300.787 102.138H294.44C288.866 102.138 284.348 96.7601 284.348 90.1262V89.0117C284.348 82.3778 288.866 77 294.44 77L300.787 77.743V102.138Z" fill="#6C63FF"/>
<path d="M290.331 84.1112C290.331 84.1112 294.128 86.7275 291.943 91.1552C291.943 91.1552 289.264 96.8239 285.05 96.2872L283.515 84.1112C283.515 84.1112 288.562 83.5074 290.331 84.1112Z" fill="#6C63FF"/>
<path opacity="0.1" d="M288.873 83.8746C289.476 83.905 290.066 84.1093 290.599 84.4724C291.133 84.8355 291.597 85.3482 291.956 85.9728C292.633 87.1803 293.036 88.9413 291.943 91.1552C291.943 91.1552 289.264 96.8239 285.05 96.2872L283.515 84.1112C285.296 83.9008 287.085 83.8219 288.873 83.8746V83.8746Z" fill="black"/>
<path opacity="0.1" d="M300.579 77.743C301.249 77.743 301.912 77.9131 302.53 78.2435C303.149 78.5739 303.711 79.0581 304.184 79.6686C304.658 80.2791 305.033 81.0039 305.29 81.8015C305.546 82.5992 305.678 83.4541 305.678 84.3174V95.5636C305.678 97.3072 305.14 98.9795 304.184 100.212C303.228 101.445 301.931 102.138 300.579 102.138V102.138V77.743V77.743Z" fill="black"/>
<path d="M300.788 77.743C302.14 77.743 303.436 78.4357 304.393 79.6686C305.349 80.9016 305.886 82.5738 305.886 84.3174V95.5636C305.886 97.3072 305.349 98.9795 304.393 100.212C303.436 101.445 302.14 102.138 300.788 102.138V77.743Z" fill="#DCE0ED"/>
<path d="M283.076 97.0586C285.405 97.0586 287.293 94.097 287.293 90.4437C287.293 86.7903 285.405 83.8287 283.076 83.8287C280.747 83.8287 278.859 86.7903 278.859 90.4437C278.859 94.097 280.747 97.0586 283.076 97.0586Z" fill="#6C63FF"/>
<path d="M238.172 121.023L240.014 126.314L243.094 121.023" stroke="black" stroke-miterlimit="10"/>
<path d="M247.368 126.535H232.344V145.575H247.368V126.535Z" fill="white"/>
<g clip-path="url(#clip0)">
<path d="M242.542 133.628C242.508 133.579 242.464 133.554 242.411 133.554H241.433C241.368 133.098 241.246 132.703 241.067 132.368H242.399C242.453 132.368 242.496 132.343 242.531 132.294C242.565 132.244 242.582 132.181 242.582 132.104V131.264C242.582 131.187 242.565 131.124 242.531 131.074C242.496 131.025 242.453 131 242.399 131H237.641C237.588 131 237.544 131.025 237.51 131.074C237.476 131.124 237.458 131.187 237.458 131.264V132.359C237.458 132.431 237.476 132.493 237.513 132.545C237.549 132.597 237.592 132.623 237.641 132.623H238.471C239.275 132.623 239.786 132.933 240.003 133.554H237.641C237.588 133.554 237.544 133.579 237.51 133.628C237.476 133.678 237.458 133.741 237.458 133.818V134.658C237.458 134.735 237.475 134.798 237.51 134.848C237.544 134.897 237.588 134.922 237.641 134.922H240.083C239.999 135.372 239.804 135.715 239.497 135.952C239.19 136.188 238.785 136.306 238.282 136.306H237.641C237.592 136.306 237.549 136.332 237.513 136.384C237.476 136.437 237.458 136.498 237.458 136.57V137.616C237.458 137.688 237.475 137.748 237.51 137.797C238.242 138.918 239.191 140.486 240.358 142.502C240.392 142.568 240.44 142.601 240.501 142.601H241.616C241.696 142.601 241.751 142.552 241.782 142.453C241.82 142.354 241.812 142.26 241.759 142.172C240.646 140.206 239.771 138.734 239.134 137.756C239.782 137.646 240.308 137.344 240.712 136.85C241.116 136.356 241.362 135.713 241.45 134.922H242.411C242.464 134.922 242.508 134.897 242.542 134.848C242.577 134.798 242.594 134.735 242.594 134.658V133.818C242.594 133.741 242.577 133.678 242.542 133.628Z" fill="#6A6666"/>
</g>
<g clip-path="url(#clip1)">
<path d="M225.542 16.6283C225.508 16.5789 225.464 16.5542 225.411 16.5542H224.433C224.368 16.0985 224.246 15.7028 224.067 15.3678H225.399C225.453 15.3678 225.497 15.3431 225.531 15.2938C225.565 15.2444 225.582 15.1811 225.582 15.1042V14.2637C225.582 14.1867 225.565 14.1236 225.531 14.0741C225.496 14.0248 225.453 14 225.399 14H220.641C220.588 14 220.544 14.0248 220.51 14.0741C220.476 14.1236 220.458 14.1867 220.458 14.2636V15.3594C220.458 15.4308 220.476 15.4926 220.513 15.5448C220.549 15.597 220.592 15.6231 220.641 15.6231H221.471C222.275 15.6231 222.786 15.9333 223.003 16.5541H220.641C220.588 16.5541 220.544 16.5787 220.51 16.6282C220.476 16.6777 220.458 16.7408 220.458 16.8177V17.6582C220.458 17.7351 220.475 17.7983 220.51 17.8476C220.544 17.8971 220.588 17.9217 220.641 17.9217H223.083C222.999 18.3722 222.804 18.7155 222.497 18.9517C222.19 19.1879 221.785 19.306 221.282 19.306H220.641C220.592 19.306 220.549 19.3322 220.513 19.3843C220.476 19.4365 220.458 19.4983 220.458 19.5697V20.6162C220.458 20.6877 220.475 20.7481 220.51 20.7974C221.242 21.918 222.191 23.4861 223.358 25.5021C223.392 25.5681 223.44 25.601 223.501 25.601H224.616C224.696 25.601 224.751 25.5517 224.782 25.4526C224.82 25.3538 224.812 25.2604 224.759 25.1725C223.646 23.206 222.771 21.7339 222.134 20.7562C222.782 20.6463 223.308 20.3442 223.712 19.8499C224.116 19.3556 224.362 18.7128 224.45 17.9218H225.411C225.464 17.9218 225.508 17.8972 225.542 17.8477C225.577 17.7984 225.594 17.7352 225.594 17.6583V16.8179C225.594 16.7409 225.577 16.6778 225.542 16.6283Z" fill="#6A6666"/>
</g>
<path d="M188.698 168.982H129.116V199.055H188.698V168.982Z" fill="#6F7D95"/>
<path d="M113.967 154.898L122.43 178.619L139.189 177.348L139.865 167.606L140.373 156.169L116.676 154.049L113.967 154.898Z" fill="#4B5C7A"/>
<path d="M113.967 154.898C113.967 154.898 117.178 151.087 121.077 150.238C124.976 149.389 138.005 151.084 138.005 151.084L139.867 155.102L139.518 157.015L113.967 154.898Z" fill="#FF4D52"/>
<path d="M145.873 167.076H85.7839V189.102H145.873V167.076Z" fill="#4B5C7A"/>
<g opacity="0.1">
<path opacity="0.1" d="M121.18 156.784C120.12 154.976 118.099 156.46 117.768 156.719L117.248 156.653C116.795 156.036 115.404 154.393 114.098 155.601L114.041 155.654L113.963 157.972L114.019 158.027C114.397 158.391 114.825 158.665 115.282 158.835C115.571 158.942 115.876 158.961 116.173 158.891C116.392 158.827 116.597 158.705 116.775 158.531C116.952 158.357 117.096 158.137 117.198 157.886L117.469 157.909L117.67 157.861C117.71 158.128 117.795 158.381 117.92 158.604C118.044 158.826 118.205 159.013 118.392 159.152C119.289 159.787 120.6 159.152 120.654 159.139L120.722 159.107L121.204 156.864L121.18 156.784ZM120.499 158.823C120.232 158.936 119.225 159.307 118.549 158.823C118.38 158.691 118.238 158.512 118.134 158.3C118.03 158.089 117.965 157.85 117.947 157.602L117.923 157.419L117.483 157.532L117.042 157.512L116.999 157.618C116.919 157.846 116.798 158.048 116.645 158.208C116.492 158.368 116.312 158.482 116.118 158.542C115.362 158.745 114.487 158.012 114.258 157.803L114.324 155.845C115.46 154.888 116.712 156.44 117.074 156.947L117.112 157L117.844 157.09L117.888 157.053C117.908 157.038 119.729 155.508 120.766 156.739C120.818 156.798 120.865 156.863 120.909 156.932L120.499 158.823Z" fill="black"/>
<path opacity="0.1" d="M124.467 157.949L121.055 157.595L120.774 157.527L120.901 156.935C120.857 156.866 120.81 156.801 120.758 156.741L121.172 156.791L123.963 157.133L124.467 157.949Z" fill="black"/>
</g>
<path d="M101.186 184.231H41.6044V214.304H101.186V184.231Z" fill="#6F7D95"/>
<path d="M68.8727 234C78.0551 234 85.499 223.807 85.499 211.233C85.499 198.66 78.0551 188.467 68.8727 188.467C59.6903 188.467 52.2465 198.66 52.2465 211.233C52.2465 223.807 59.6903 234 68.8727 234Z" fill="#4B5C7A"/>
<path opacity="0.05" d="M68.8727 234C78.0551 234 85.499 223.807 85.499 211.233C85.499 198.66 78.0551 188.467 68.8727 188.467C59.6903 188.467 52.2465 198.66 52.2465 211.233C52.2465 223.807 59.6903 234 68.8727 234Z" fill="black"/>
<path d="M72.5671 234C81.7495 234 89.1934 223.807 89.1934 211.233C89.1934 198.66 81.7495 188.467 72.5671 188.467C63.3847 188.467 55.9409 198.66 55.9409 211.233C55.9409 223.807 63.3847 234 72.5671 234Z" fill="#4B5C7A"/>
<path opacity="0.05" d="M72.1979 220.594C76.2787 220.594 79.5869 216.455 79.5869 211.349C79.5869 206.243 76.2787 202.104 72.1979 202.104C68.1171 202.104 64.8089 206.243 64.8089 211.349C64.8089 216.455 68.1171 220.594 72.1979 220.594Z" fill="black"/>
<path d="M72.1979 214.124C73.4226 214.124 74.4154 212.881 74.4154 211.349C74.4154 209.817 73.4226 208.574 72.1979 208.574C70.9732 208.574 69.9804 209.817 69.9804 211.349C69.9804 212.881 70.9732 214.124 72.1979 214.124Z" stroke="#6F7D95" stroke-width="2" stroke-miterlimit="10"/>
<path d="M72.1979 207.188C72.5038 207.188 72.7518 206.878 72.7518 206.495C72.7518 206.113 72.5038 205.802 72.1979 205.802C71.892 205.802 71.644 206.113 71.644 206.495C71.644 206.878 71.892 207.188 72.1979 207.188Z" fill="#6F7D95"/>
<path d="M75.5847 208.364C75.819 208.118 75.8496 207.681 75.653 207.388C75.4563 207.095 75.107 207.057 74.8727 207.303C74.6383 207.549 74.6078 207.986 74.8044 208.279C75.001 208.572 75.3504 208.61 75.5847 208.364Z" fill="#6F7D95"/>
<path d="M76.9072 211.72C76.9603 211.343 76.7592 210.984 76.4579 210.917C76.1567 210.851 75.8694 211.103 75.8163 211.48C75.7632 211.857 75.9643 212.216 76.2656 212.282C76.5668 212.349 76.8541 212.097 76.9072 211.72Z" fill="#6F7D95"/>
<path d="M75.0553 215.706C75.3202 215.515 75.411 215.091 75.258 214.76C75.1051 214.428 74.7663 214.315 74.5014 214.506C74.2365 214.697 74.1457 215.121 74.2987 215.453C74.4516 215.784 74.7904 215.898 75.0553 215.706Z" fill="#6F7D95"/>
<path d="M72.1391 216.081C72.2437 215.722 72.0955 215.324 71.808 215.193C71.5206 215.062 71.2028 215.248 71.0981 215.607C70.9935 215.967 71.1417 216.365 71.4292 216.496C71.7166 216.627 72.0344 216.441 72.1391 216.081Z" fill="#6F7D95"/>
<path d="M69.3237 213.941C69.6112 213.81 69.7594 213.413 69.6548 213.053C69.5501 212.693 69.2323 212.508 68.9449 212.639C68.6574 212.77 68.5092 213.167 68.6138 213.527C68.7184 213.887 69.0363 214.072 69.3237 213.941Z" fill="#6F7D95"/>
<path d="M69.5821 209.612C69.7351 209.28 69.6443 208.856 69.3794 208.665C69.1145 208.474 68.7757 208.587 68.6228 208.919C68.4698 209.25 68.5606 209.674 68.8255 209.865C69.0904 210.057 69.4292 209.943 69.5821 209.612Z" fill="#6F7D95"/>
<path d="M192.033 193.639C191.465 198.546 189.886 203.917 189.886 203.917C189.897 203.582 189.903 203.251 189.906 202.925C189.906 202.503 189.906 202.086 189.906 201.669C189.705 188.145 183.816 179.802 180.017 175.807C179.029 174.754 177.967 173.816 176.844 173.005H187.169C187.169 173.005 191.231 183.382 192.077 188.464C192.322 189.891 192.254 191.731 192.033 193.639Z" fill="#FF4D52"/>
<path opacity="0.05" d="M192.033 193.639C191.465 198.546 189.886 203.917 189.886 203.917C189.897 203.582 189.903 203.251 189.906 202.925C189.906 202.503 189.906 202.086 189.906 201.669C189.705 188.145 183.816 179.802 180.017 175.807C179.029 174.754 177.967 173.816 176.844 173.005H187.169C187.169 173.005 191.231 183.382 192.077 188.464C192.322 189.891 192.254 191.731 192.033 193.639Z" fill="black"/>
<path d="M174.43 211.394C181.413 211.394 187.075 203.642 187.075 194.079C187.075 184.516 181.413 176.763 174.43 176.763C167.446 176.763 161.785 184.516 161.785 194.079C161.785 203.642 167.446 211.394 174.43 211.394Z" fill="#4B5C7A"/>
<path opacity="0.05" d="M174.43 211.394C181.413 211.394 187.075 203.642 187.075 194.079C187.075 184.516 181.413 176.763 174.43 176.763C167.446 176.763 161.785 184.516 161.785 194.079C161.785 203.642 167.446 211.394 174.43 211.394Z" fill="black"/>
<path d="M177.239 211.394C184.223 211.394 189.884 203.642 189.884 194.079C189.884 184.516 184.223 176.763 177.239 176.763C170.256 176.763 164.594 184.516 164.594 194.079C164.594 203.642 170.256 211.394 177.239 211.394Z" fill="#4B5C7A"/>
<path opacity="0.05" d="M176.958 201.197C180.062 201.197 182.577 198.05 182.577 194.167C182.577 190.284 180.062 187.136 176.958 187.136C173.855 187.136 171.339 190.284 171.339 194.167C171.339 198.05 173.855 201.197 176.958 201.197Z" fill="black"/>
<path d="M176.958 196.276C177.889 196.276 178.644 195.331 178.644 194.167C178.644 193.002 177.889 192.057 176.958 192.057C176.027 192.057 175.273 193.002 175.273 194.167C175.273 195.331 176.027 196.276 176.958 196.276Z" stroke="#6F7D95" stroke-width="2" stroke-miterlimit="10"/>
<path d="M176.958 191.003C177.191 191.003 177.38 190.767 177.38 190.476C177.38 190.184 177.191 189.948 176.958 189.948C176.726 189.948 176.537 190.184 176.537 190.476C176.537 190.767 176.726 191.003 176.958 191.003Z" fill="#6F7D95"/>
<path d="M179.536 191.897C179.714 191.71 179.737 191.377 179.588 191.154C179.438 190.931 179.172 190.902 178.994 191.089C178.816 191.276 178.792 191.609 178.942 191.832C179.092 192.055 179.357 192.084 179.536 191.897Z" fill="#6F7D95"/>
<path d="M180.54 194.451C180.58 194.164 180.427 193.891 180.198 193.84C179.969 193.79 179.75 193.981 179.71 194.268C179.669 194.555 179.822 194.828 180.052 194.879C180.281 194.93 180.499 194.738 180.54 194.451Z" fill="#6F7D95"/>
<path d="M179.133 197.482C179.335 197.337 179.404 197.014 179.287 196.762C179.171 196.51 178.913 196.423 178.712 196.569C178.51 196.715 178.441 197.037 178.557 197.289C178.674 197.541 178.932 197.628 179.133 197.482Z" fill="#6F7D95"/>
<path d="M176.915 197.767C176.994 197.493 176.882 197.19 176.663 197.091C176.444 196.991 176.202 197.132 176.123 197.406C176.043 197.68 176.156 197.982 176.375 198.082C176.593 198.181 176.835 198.04 176.915 197.767Z" fill="#6F7D95"/>
<path d="M174.773 196.137C174.991 196.037 175.104 195.735 175.024 195.461C174.945 195.187 174.703 195.046 174.484 195.146C174.266 195.245 174.153 195.548 174.232 195.822C174.312 196.095 174.554 196.236 174.773 196.137Z" fill="#6F7D95"/>
<path d="M174.972 192.845C175.088 192.593 175.019 192.27 174.817 192.125C174.616 191.979 174.358 192.065 174.242 192.318C174.125 192.57 174.194 192.892 174.396 193.038C174.597 193.183 174.855 193.097 174.972 192.845Z" fill="#6F7D95"/>
<path d="M1.57495 213.564L0.0457764 198.526H18.1571L27.4666 208.903L22.8971 222.246C22.8971 222.246 4.46071 218.435 1.57495 213.564Z" fill="#FF4D52"/>
<path opacity="0.05" d="M27.4725 208.903L22.9031 222.246C22.9031 222.246 4.46069 218.435 1.57493 213.564L1.5087 212.908L0.103949 199.003L0.0899012 198.865L0.0557861 198.528H18.1671L27.4725 208.903Z" fill="black"/>
<path d="M102.458 152.357V157.228C102.458 157.228 93.0986 166.77 90.8711 175.772C90.4822 177.233 90.3354 178.779 90.4396 180.314C91.2865 190.267 66.0692 172.264 66.0692 172.264L67.1909 171.581C72.9886 168.083 99.4461 152.166 102.458 152.357Z" fill="#7597CE"/>
<path d="M123.786 175.867C123.786 175.867 132.552 170.478 133.959 166.491C134.148 165.956 134.326 165.416 134.535 164.892C135.404 162.705 137.23 157.575 136.311 155.112C135.127 151.935 139.189 155.536 139.189 155.536L136.819 170.569L131.063 174.586L123.616 175.867" fill="#FF4D52"/>
<path opacity="0.05" d="M123.786 175.867C123.786 175.867 132.552 170.478 133.959 166.491C134.148 165.956 134.326 165.416 134.535 164.892C135.404 162.705 137.23 157.575 136.311 155.112C135.127 151.935 139.189 155.536 139.189 155.536L136.819 170.569L131.063 174.586L123.616 175.867" fill="black"/>
<path opacity="0.05" d="M27.4725 208.903L22.9031 222.246C22.9031 222.246 4.46067 218.435 1.5749 213.563L1.50868 212.908C1.58293 212.845 1.6612 212.78 1.74347 212.717C1.74347 212.717 7.32837 218.224 20.0253 219.497C20.0253 219.497 27.6511 211.871 15.2853 203.402C15.2853 203.402 4.5289 203.824 0.0979077 199.005L0.0497437 198.955L0.0838602 198.867C0.113293 198.795 0.160787 198.683 0.226342 198.531H18.161L27.4725 208.903Z" fill="black"/>
<path opacity="0.05" d="M90.4396 180.311C91.2865 190.267 66.0692 172.264 66.0692 172.264L67.1909 171.581C67.9335 172.57 70.8975 175.907 76.8235 175.546C80.6364 175.312 86.426 175.525 90.8811 175.769C90.4889 177.23 90.3387 178.775 90.4396 180.311V180.311Z" fill="black"/>
<path opacity="0.05" d="M101.188 184.231V214.304H90.1186C90.8491 207.309 90.4276 197.112 83.3276 191.266C80.6795 189.101 77.6047 187.892 74.4425 187.774C71.2802 187.657 68.1534 188.634 65.407 190.599C60.7532 193.923 55.5496 200.682 52.2424 214.304H41.6064V184.231H101.188Z" fill="black"/>
<path opacity="0.05" d="M192.033 193.639C191.616 196.959 190.946 200.183 189.908 202.93C189.774 203.3 189.629 203.66 189.471 204.012C189.497 203.889 189.687 203.03 189.908 201.679C190.984 195.101 192.824 176.896 180.494 175.857C180.334 175.844 180.175 175.832 180.017 175.824C179.03 174.765 177.968 173.822 176.844 173.005H187.169C187.169 173.005 191.231 183.382 192.077 188.464C192.322 189.891 192.254 191.731 192.033 193.639Z" fill="black"/>
<path d="M189.806 203.806C189.966 203.08 195.686 176.906 180.829 175.654C165.764 174.383 163.902 188.572 162.21 207.846C162.21 207.846 114.65 212.293 89.087 221.614C89.087 221.614 95.2238 200.572 83.6687 191.056C81.0206 188.89 77.9458 187.681 74.7836 187.563C71.6213 187.446 68.4945 188.423 65.7481 190.388C60.0488 194.46 53.5207 203.696 50.665 224.366H22.2248C22.2248 224.366 16.8065 224.79 14.9462 221.604C14.9462 221.604 7.3204 221.814 2.5904 216.732C2.5904 216.732 -2.48678 215.462 1.57496 212.285C1.57496 212.285 7.33043 217.792 20.0254 219.065C20.0254 219.065 27.6512 211.439 15.2853 202.97C15.2853 202.97 4.44868 203.394 0.0518072 198.523C0.0518072 198.523 1.59503 194.528 5.11695 189.695C9.93407 183.065 16.072 178.154 22.9031 175.465C27.5061 173.685 32.3038 172.819 37.1212 172.899L66.9963 171.734C66.9963 171.734 69.8821 176.394 76.8135 175.97C83.745 175.546 97.2948 176.605 97.2948 176.605H97.4293L125.308 175.026C126.108 174.884 126.9 174.675 127.678 174.398C131.719 173.025 139.385 168.859 138.003 157.226L181.843 160.616C183.495 160.711 185.137 161.001 186.745 161.482C188.997 162.205 191.056 163.526 190.476 165.911C189.292 170.782 192.507 171.418 192.507 171.418C192.507 171.418 192.575 172.068 192.659 173.198C193.061 178.526 193.849 194.546 189.806 203.806Z" fill="#FF4D52"/>
<path opacity="0.05" d="M55.7402 180.525C55.7402 180.525 37.4584 180.736 25.4377 194.084H32.2086C32.2086 194.084 51.1667 187.942 55.7362 183.071L55.7402 180.525Z" fill="black"/>
<path d="M55.5697 180.311C55.5697 180.311 37.2878 180.522 25.2672 193.87H32.0381C32.0381 193.87 50.9962 187.729 55.5657 182.857L55.5697 180.311Z" fill="#FFEC9F"/>
<path opacity="0.05" d="M23.0716 175.679V181.371L7.67154 190.267L5.28748 189.908C10.104 183.278 16.2412 178.368 23.0716 175.679V175.679Z" fill="black"/>
<path d="M22.9011 175.468V181.16L7.499 190.054L5.11493 189.695C9.93229 183.066 16.0702 178.156 22.9011 175.468V175.468Z" fill="#FFEC9F"/>
<path opacity="0.05" d="M44.737 201.28C44.737 201.28 36.4429 207.633 35.5961 221.619H40.3361C40.3361 221.619 42.1984 206.37 47.6147 201.28H44.737Z" fill="black"/>
<path opacity="0.05" d="M142.745 201.704L99.7491 208.057C99.7491 208.057 96.9055 185.408 97.4313 176.598L125.31 175.018C126.109 174.879 126.9 174.672 127.678 174.398V176.5L148.667 170.147C148.667 170.147 152.223 176.711 142.745 201.704Z" fill="black"/>
<path d="M138.005 151.084C138.005 151.084 147.145 149.603 151.207 159.345L138.135 158.715L138.005 151.084Z" fill="#FF4D52"/>
<path opacity="0.05" d="M150.573 162.76C150.214 164.169 150.485 165.718 152.566 166.79C154.298 167.684 156.328 166.649 156.92 164.427C157.266 163.132 157.029 161.665 155.163 160.472C153.296 159.28 151.201 160.299 150.573 162.76Z" fill="black"/>
<path d="M0.372925 201.699C0.372925 201.699 11.2216 208.73 19.008 206.068" stroke="#FF4D52" stroke-miterlimit="10"/>
<path d="M0.756165 205.496C0.756165 205.496 7.76588 212.26 21.9338 210.689" stroke="#FF4D52" stroke-miterlimit="10"/>
<path d="M1.07935 208.682C1.07935 208.682 8.03287 216.233 22.3212 213.84" stroke="#FF4D52" stroke-miterlimit="10"/>
<path opacity="0.05" d="M150.683 158.208C150.683 158.208 145.028 164.317 139.867 167.079C139.867 167.079 147.705 168.824 150.683 158.208Z" fill="black"/>
<path opacity="0.1" d="M90.7728 176.188C90.7728 176.188 117.608 179.36 127.762 176.394C127.762 176.394 128.304 176.844 125.071 175.031L90.7728 176.188Z" fill="black"/>
<path opacity="0.05" d="M192.661 173.198C190.99 171.824 188.339 168.974 188.7 165.803C188.881 164.214 187.982 162.727 186.747 161.479C188.999 162.202 191.058 163.523 190.478 165.909C189.294 170.78 192.509 171.415 192.509 171.415C192.509 171.415 192.575 172.068 192.661 173.198Z" fill="black"/>
<defs>
<clipPath id="clip0">
<rect width="8.05207" height="11.6011" fill="white" transform="translate(236 131)"/>
</clipPath>
<clipPath id="clip1">
<rect width="8.05214" height="11.6011" fill="white" transform="translate(219 14)"/>
</clipPath>
</defs>
</svg>
