<svg width="255" height="191" viewBox="0 0 255 191" fill="none" xmlns="http://www.w3.org/2000/svg">
<path d="M230.645 152.312H221.641V35.376H218.128V152.312H209.125C208.058 152.312 207.001 152.537 206.016 152.973C205.03 153.41 204.134 154.05 203.38 154.857C202.625 155.663 202.027 156.621 201.618 157.675C201.21 158.729 201 159.859 201 161L238.769 161C238.769 159.859 238.559 158.729 238.151 157.675C237.743 156.621 237.144 155.663 236.39 154.857C235.635 154.05 234.74 153.41 233.754 152.973C232.768 152.537 231.712 152.312 230.645 152.312Z" fill="#65617D"/>
<path d="M201.019 52.7521H238.752L236.445 21.9119C236.36 20.8484 235.907 19.8573 235.174 19.1333C234.44 18.4094 233.48 18.0051 232.482 18H207.289C206.291 18.0051 205.331 18.4094 204.598 19.1333C203.864 19.8573 203.411 20.8484 203.327 21.9119L201.019 52.7521Z" fill="#A863FF"/>
<path d="M84.9409 113.261C84.8414 113.162 82.4803 110.766 80.4789 105.081C78.6428 99.865 76.7899 90.7697 78.391 77.0584C81.4242 51.0831 65.8701 34.5291 65.7123 34.3649L66.1728 33.9218C66.2127 33.9635 70.2119 38.1759 73.77 45.5711C78.4799 55.3773 80.3027 66.3256 79.0249 77.1327C75.9969 103.064 85.2969 112.713 85.3912 112.808L84.9409 113.261Z" fill="#6979A2"/>
<path d="M60.9363 33.9296C63.2271 33.9296 65.0843 32.0688 65.0843 29.7733C65.0843 27.4778 63.2271 25.617 60.9363 25.617C58.6454 25.617 56.7883 27.4778 56.7883 29.7733C56.7883 32.0688 58.6454 33.9296 60.9363 33.9296Z" fill="#6979A2"/>
<path d="M77.2778 45.7288C79.5686 45.7288 81.4258 43.868 81.4258 41.5725C81.4258 39.277 79.5686 37.4162 77.2778 37.4162C74.9869 37.4162 73.1298 39.277 73.1298 41.5725C73.1298 43.868 74.9869 45.7288 77.2778 45.7288Z" fill="#6979A2"/>
<path opacity="0.1" fill-rule="evenodd" clip-rule="evenodd" d="M135.539 30.4349C144.792 35.9501 157.646 30.0484 168.731 31.5135C182.725 33.3629 197.947 33.0292 209.457 40.2039C221.498 47.7096 238.739 59.8918 233.729 72.0282C226.903 88.5629 255.431 95.4732 254 113C252.202 135.023 227.126 132.966 226.95 155.044C226.83 170.048 199.516 172.724 183.646 178.561C168.257 184.221 152.229 188.057 135.539 188.665C118.458 189.287 95.3279 194.294 85.4522 182.139C73.0146 166.831 23.2313 164.564 17.4468 146.5C14.4214 137.052 69.7398 112.703 61.1773 106.332C41.8139 91.9253 11.1056 85.9495 2.44687 65.0897C-4.79246 47.6493 11.0424 28.6517 22.4281 12.9808C34.397 -3.49276 45.9611 0.599179 68 4C99.1037 8.79961 109.47 14.8974 135.539 30.4349Z" fill="#6C63FF"/>
<path d="M71.0205 57.7912C73.3114 57.7912 75.1685 55.9304 75.1685 53.6349C75.1685 51.3394 73.3114 49.4786 71.0205 49.4786C68.7297 49.4786 66.8726 51.3394 66.8726 53.6349C66.8726 55.9304 68.7297 57.7912 71.0205 57.7912Z" fill="#6979A2"/>
<path d="M83.6029 63.5988C85.8938 63.5988 87.7509 61.738 87.7509 59.4425C87.7509 57.147 85.8938 55.2862 83.6029 55.2862C81.3121 55.2862 79.455 57.147 79.455 59.4425C79.455 61.738 81.3121 63.5988 83.6029 63.5988Z" fill="#6979A2"/>
<path d="M73.143 79.9805C75.4338 79.9805 77.2909 78.1196 77.2909 75.8242C77.2909 73.5287 75.4338 71.6678 73.143 71.6678C70.8521 71.6678 68.995 73.5287 68.995 75.8242C68.995 78.1196 70.8521 79.9805 73.143 79.9805Z" fill="#6979A2"/>
<path d="M82.4118 113.846C82.4118 113.846 78.0024 103.725 63.8304 107.289L82.4118 113.846Z" fill="#6979A2"/>
<path d="M205.267 161H30V159.269H205.267V161Z" fill="#2F2E41"/>
<path d="M121.842 73.6847C121.842 73.6847 119.374 71.2111 113.696 71.7058C113.696 71.7058 58.8944 66.0167 57.6602 76.1582C56.4259 86.2996 56.179 92.2361 59.3881 94.4623C59.3881 94.4623 69.8795 103.985 64.4487 112.395L61.4864 117.342L177.755 116.353C177.755 116.353 178.989 98.2962 182.692 94.8333C186.395 91.3703 187.629 73.0663 182.692 72.5716C177.755 72.0769 120.485 69.356 121.842 73.6847Z" fill="#3F3D56"/>
<path d="M60.4989 93.8439C60.4989 93.8439 25.6924 102.007 39.5163 117.342L41.738 119.569L40.7506 153.703H201.206L202.934 120.311L204.909 116.353C204.909 116.353 217.207 101.574 181.682 96.2246L175.286 112.395L67.164 111.653C67.164 111.653 66.4235 93.3492 60.4989 93.8439Z" fill="#3F3D56"/>
<path d="M53.8339 151.477H43.7129V159.145H53.8339V151.477Z" fill="#3F3D56"/>
<path d="M199.478 151.477H189.357V159.145H199.478V151.477Z" fill="#3F3D56"/>
<path d="M119.965 112.519C119.965 112.519 95.7992 95.328 65.6829 112.643L56.7961 125.505L58.5241 136.141C58.5241 136.141 120.978 137.131 121.719 130.452C122.46 123.773 119.965 112.519 119.965 112.519Z" fill="#3F3D56"/>
<path d="M176.521 112.643C176.521 112.643 134.123 99.0383 121.379 112.643L122.953 132.183C122.953 132.183 184.914 136.883 185.901 133.668C186.889 130.452 187.382 124.763 187.382 124.763L176.521 112.643Z" fill="#3F3D56"/>
<path opacity="0.1" d="M176.521 112.643C176.521 112.643 134.123 99.0383 121.379 112.643L121.414 113.078C121.373 112.876 121.349 112.766 121.349 112.766C121.349 112.766 95.7992 95.328 65.6829 112.643L56.7961 125.505L58.5241 136.141C58.5241 136.141 119 137.43 122.885 131.336L122.953 132.183C122.953 132.183 184.914 136.883 185.901 133.668C186.889 130.452 187.382 124.763 187.382 124.763L176.521 112.643Z" fill="black"/>
<path d="M61.4864 78.508C73.4843 78.2523 84.8584 76.7266 95.3055 73.3137C95.5596 85.3549 97.2874 96.6165 101.23 106.706C89.5502 104.579 77.696 106.684 65.6829 112.643C67.8405 101.758 65.9752 90.3148 61.4864 78.508Z" fill="#A863FF"/>
<path d="M184.173 80.4869C172.175 80.2312 160.801 78.7054 150.354 75.2925C150.1 87.3338 148.372 98.5953 144.43 108.685C156.109 106.558 167.964 108.663 179.977 114.621C177.819 103.736 179.684 92.2936 184.173 80.4869Z" fill="#A863FF"/>
</svg>
