<svg width="279" height="211" viewBox="0 0 279 211" fill="none" xmlns="http://www.w3.org/2000/svg">
<path opacity="0.1" fill-rule="evenodd" clip-rule="evenodd" d="M95.0223 82.1054C107.342 75.6365 114.06 62.0198 126.646 56.0321C145.268 47.1728 165.075 38.6278 185.898 38.8714C210.297 39.1568 241.617 38.6493 255.768 57.5427C268.749 74.8726 198.661 111.508 202.008 132.541C205.603 155.136 294.207 167.942 275.645 182.466C246.999 204.879 202.393 184.684 165.296 184.059C151.736 183.831 137.458 174.433 125.191 179.931C114.808 184.584 119.632 203.235 109.831 208.916C101.457 213.771 90.2373 208.365 80.8598 205.629C71.8896 203.013 63.1938 199.174 56.1685 193.262C49.4485 187.607 50.0373 173.731 41.1976 172.253C8.97129 166.864 48.5158 199.982 33.6984 172.253C20.2099 147.011 1.15725 150.786 16.8754 126.737C24.5891 114.935 -0.300507 102.54 0.00275057 88.6495C0.289058 75.5352 4.70488 54.7747 18.4677 53.8033C39.972 52.2856 54.4515 75.9586 74.5483 83.3883C80.9773 85.7651 88.9842 85.2759 95.0223 82.1054Z" fill="#6C63FF"/>
<path d="M97.5888 118.857C97.5888 118.857 124.813 115.102 134.342 109.157C143.87 103.211 214.654 100.395 214.654 118.857C214.654 137.318 133.253 145.453 133.253 145.453L90.5105 142.637L97.5888 118.857Z" fill="#FBBEBE"/>
<path opacity="0.1" d="M97.5888 118.857C97.5888 118.857 124.813 115.102 134.342 109.157C143.87 103.211 214.654 100.395 214.654 118.857C214.654 137.318 133.253 145.453 133.253 145.453L90.5105 142.637L97.5888 118.857Z" fill="black"/>
<path d="M105.484 115.415L99.7668 134.502L10.1984 135.753V107.592C10.1984 107.592 44.5012 98.5179 71.7256 117.918C71.7256 117.918 103.85 113.537 105.484 115.415Z" fill="#6C63FF"/>
<path opacity="0.1" d="M105.484 115.384L99.7668 134.471L10.1984 135.723V107.561C10.1984 107.561 44.5012 98.487 71.7256 117.887C71.7256 117.887 103.85 113.506 105.484 115.384Z" fill="black"/>
<path d="M207.888 107.436C207.888 108.502 205.807 109.294 205.602 110.323C205.4 111.343 206.636 112.894 206.245 113.869C205.84 114.865 205.363 115.82 204.817 116.723C204.304 117.567 202.721 117.443 202.072 118.234C201.437 118.953 200.763 119.625 200.056 120.249C199.367 120.907 198.434 121.046 197.651 121.652C196.906 122.228 196.996 124.342 196.173 124.866C195.386 125.368 194.181 124.965 193.327 125.415C192.507 125.848 192.075 127.413 191.199 127.795C190.354 128.164 189.308 128.005 188.414 128.325C187.55 128.634 186.582 128.584 185.676 128.845C184.796 129.098 184.124 130.613 183.209 130.818C182.317 131.017 181.272 130.486 180.35 130.637C179.45 130.784 178.403 129.474 177.476 129.573C176.57 129.67 175.715 130.277 174.787 130.326C173.876 130.374 172.976 130.834 172.048 130.834C171.119 130.834 170.161 131.836 169.251 131.788C168.322 131.739 167.481 130.221 166.575 130.124C165.648 130.025 164.544 131.61 163.643 131.463C162.721 131.312 161.991 129.76 161.099 129.561C160.183 129.357 159.001 130.466 158.121 130.213C157.215 129.952 156.677 128.147 155.812 127.838C154.919 127.518 153.812 127.951 152.967 127.582C152.09 127.199 151.023 127.261 150.203 126.828C149.349 126.377 148.736 125.311 147.949 124.809C147.125 124.285 146.745 122.983 146.001 122.407C145.217 121.801 144.024 121.878 143.335 121.22C142.608 120.524 141.246 120.488 140.632 119.74C139.983 118.949 139.72 117.621 139.208 116.778C138.668 115.889 139.727 114.011 139.35 113.072C138.959 112.098 137.324 111.702 137.122 110.682C136.912 109.616 136.805 108.528 136.801 107.436C136.801 106.369 138.2 105.554 138.404 104.525C138.607 103.505 137.578 102.04 137.969 101.065C138.346 100.126 138.298 98.6827 138.838 97.7942C139.35 96.9508 140.629 96.6202 141.278 95.8293C141.892 95.0815 142.99 94.8729 143.718 94.1778C144.406 93.5195 144.319 91.5341 145.102 90.928C145.847 90.3517 146.886 90.0888 147.71 89.5641C148.497 89.0626 149.611 89.1471 150.465 88.6964C151.285 88.2638 152.568 89.1162 153.445 88.7336C154.29 88.3645 154.975 87.558 155.868 87.2384C156.733 86.929 157.139 84.5698 158.045 84.3093C158.925 84.0564 160.008 84.4762 160.923 84.2719C161.815 84.0727 163.015 85.9341 163.937 85.7833C164.837 85.636 165.511 83.1512 166.437 83.052C167.344 82.955 168.366 84.242 169.294 84.193C170.205 84.145 171.119 84.899 172.048 84.899C172.976 84.899 173.901 83.8641 174.812 83.9121C175.74 83.9611 176.559 85.3288 177.465 85.4258C178.392 85.525 179.529 83.4447 180.43 83.5919C181.352 83.7428 182.064 85.3509 182.956 85.55C183.871 85.7544 185.018 84.756 185.898 85.009C186.804 85.2694 187.349 86.9786 188.214 87.288C189.107 87.6077 189.658 88.8135 190.503 89.1825C191.379 89.5652 193.007 87.7746 193.827 88.2073C194.681 88.6581 195.418 89.4381 196.205 89.9396C197.029 90.4644 198.339 90.2005 199.083 90.7768C199.867 91.3829 200.059 93.01 200.748 93.6684C201.475 94.3636 202.675 94.5728 203.288 95.3207C203.938 96.1118 204.028 97.5291 204.54 98.3726C205.08 99.2609 205.063 100.492 205.44 101.431C205.831 102.405 206.875 103.142 207.078 104.162C207.282 105.19 207.888 106.369 207.888 107.436Z" fill="#3F3D56"/>
<path d="M109.84 126.992C109.84 126.992 140.603 108.844 160.477 115.727C180.351 122.611 208.12 110.721 211.387 114.789C214.654 118.857 219.282 162.663 180.079 165.166C140.876 167.669 107.39 157.657 107.39 157.657L109.84 126.992Z" fill="#FBBEBE"/>
<path d="M102.595 125.059C102.595 125.059 114.74 124.176 114.196 129.182C113.651 134.189 113.107 172.989 109.84 173.928C106.573 174.866 80.7097 174.866 70.0921 174.866H10.1984V114.879C10.1984 114.879 52.6685 111.973 73.9035 124.176C73.9035 124.176 99.434 123.752 102.595 125.059Z" fill="#6C63FF"/>
<path d="M159.492 31.2302C158.331 31.3056 157.212 31.751 156.26 32.5165C155.307 33.282 154.559 34.3374 154.099 35.5642C152.75 39.3109 154.487 43.7119 157.093 46.444C159.7 49.1761 163.048 50.7377 166.09 52.7904C170.177 55.5475 173.849 59.3748 175.893 64.2877C177.938 69.2006 178.155 75.2863 175.752 79.9798C173.521 84.3361 169.465 86.9434 165.596 89.348" stroke="#3F3D56" stroke-miterlimit="10"/>
<path d="M170.382 8.38831C169.221 8.46365 168.102 8.90904 167.149 9.67456C166.197 10.4401 165.448 11.4954 164.989 12.7223C163.64 16.469 165.376 20.87 167.983 23.6021C170.59 26.3342 173.938 27.8958 176.98 29.9485C181.066 32.7056 184.738 36.5328 186.783 41.4458C188.827 46.3587 189.045 52.4443 186.642 57.1378C184.411 61.4942 180.355 64.1015 176.486 66.5061" stroke="#3F3D56" stroke-miterlimit="10"/>
<path d="M206.186 13.6418C205.229 12.8849 204.106 12.4495 202.945 12.3846C201.784 12.3197 200.631 12.6277 199.613 13.2742C196.552 15.2879 195.58 19.9896 196.186 23.9839C196.792 27.9783 198.608 31.569 199.92 35.3327C201.683 40.3878 202.548 45.9977 201.548 51.321C200.548 56.6443 197.478 61.6094 193.078 63.6297C188.994 65.5048 184.398 64.7125 180.058 63.892" stroke="#3F3D56" stroke-miterlimit="10"/>
<path d="M174.634 60.8621C178.243 60.8621 181.168 59.2291 181.168 57.2146C181.168 55.2001 178.243 53.567 174.634 53.567C171.025 53.567 168.1 55.2001 168.1 57.2146C168.1 59.2291 171.025 60.8621 174.634 60.8621Z" fill="#57B894"/>
<path d="M173.817 60.2363C177.426 60.2363 180.351 58.6033 180.351 56.5888C180.351 54.5743 177.426 52.9412 173.817 52.9412C170.209 52.9412 167.283 54.5743 167.283 56.5888C167.283 58.6033 170.209 60.2363 173.817 60.2363Z" stroke="#3F3D56" stroke-miterlimit="10"/>
<path d="M188.791 57.7331C192.399 57.7331 195.325 56.1 195.325 54.0856C195.325 52.0711 192.399 50.438 188.791 50.438C185.182 50.438 182.257 52.0711 182.257 54.0856C182.257 56.1 185.182 57.7331 188.791 57.7331Z" fill="#57B894"/>
<path d="M187.974 57.1073C191.582 57.1073 194.508 55.4742 194.508 53.4598C194.508 51.4453 191.582 49.8122 187.974 49.8122C184.365 49.8122 181.44 51.4453 181.44 53.4598C181.44 55.4742 184.365 57.1073 187.974 57.1073Z" stroke="#3F3D56" stroke-miterlimit="10"/>
<path d="M190.969 71.5009C194.577 71.5009 197.502 69.8678 197.502 67.8533C197.502 65.8388 194.577 64.2057 190.969 64.2057C187.36 64.2057 184.435 65.8388 184.435 67.8533C184.435 69.8678 187.36 71.5009 190.969 71.5009Z" fill="#57B894"/>
<path d="M190.152 70.8751C193.76 70.8751 196.686 69.242 196.686 67.2275C196.686 65.213 193.76 63.58 190.152 63.58C186.543 63.58 183.618 65.213 183.618 67.2275C183.618 69.242 186.543 70.8751 190.152 70.8751Z" stroke="#3F3D56" stroke-miterlimit="10"/>
<path d="M189.607 37.0815C193.216 37.0815 196.141 35.4484 196.141 33.4339C196.141 31.4194 193.216 29.7864 189.607 29.7864C185.999 29.7864 183.073 31.4194 183.073 33.4339C183.073 35.4484 185.999 37.0815 189.607 37.0815Z" fill="#57B894"/>
<path d="M188.791 36.4556C192.399 36.4556 195.325 34.8226 195.325 32.8081C195.325 30.7936 192.399 29.1605 188.791 29.1605C185.182 29.1605 182.257 30.7936 182.257 32.8081C182.257 34.8226 185.182 36.4556 188.791 36.4556Z" stroke="#3F3D56" stroke-miterlimit="10"/>
<path d="M173.273 34.8911C176.881 34.8911 179.807 33.2581 179.807 31.2436C179.807 29.2291 176.881 27.596 173.273 27.596C169.664 27.596 166.739 29.2291 166.739 31.2436C166.739 33.2581 169.664 34.8911 173.273 34.8911Z" fill="#57B894"/>
<path d="M172.456 34.2653C176.065 34.2653 178.99 32.6323 178.99 30.6178C178.99 28.6033 176.065 26.9702 172.456 26.9702C168.847 26.9702 165.922 28.6033 165.922 30.6178C165.922 32.6323 168.847 34.2653 172.456 34.2653Z" stroke="#3F3D56" stroke-miterlimit="10"/>
<path d="M180.623 27.0686C184.232 27.0686 187.157 25.4355 187.157 23.421C187.157 21.4065 184.232 19.7734 180.623 19.7734C177.015 19.7734 174.089 21.4065 174.089 23.421C174.089 25.4355 177.015 27.0686 180.623 27.0686Z" fill="#57B894"/>
<path d="M179.807 26.4428C183.415 26.4428 186.34 24.8097 186.34 22.7952C186.34 20.7807 183.415 19.1476 179.807 19.1476C176.198 19.1476 173.273 20.7807 173.273 22.7952C173.273 24.8097 176.198 26.4428 179.807 26.4428Z" stroke="#3F3D56" stroke-miterlimit="10"/>
<path d="M196.686 28.6331C200.294 28.6331 203.22 27 203.22 24.9855C203.22 22.971 200.294 21.338 196.686 21.338C193.077 21.338 190.152 22.971 190.152 24.9855C190.152 27 193.077 28.6331 196.686 28.6331Z" fill="#57B894"/>
<path d="M195.869 28.0073C199.477 28.0073 202.403 26.3742 202.403 24.3597C202.403 22.3452 199.477 20.7122 195.869 20.7122C192.26 20.7122 189.335 22.3452 189.335 24.3597C189.335 26.3742 192.26 28.0073 195.869 28.0073Z" stroke="#3F3D56" stroke-miterlimit="10"/>
<path d="M208.664 38.9589C212.273 38.9589 215.198 37.3258 215.198 35.3113C215.198 33.2968 212.273 31.6638 208.664 31.6638C205.056 31.6638 202.131 33.2968 202.131 35.3113C202.131 37.3258 205.056 38.9589 208.664 38.9589Z" fill="#57B894"/>
<path d="M207.848 38.3331C211.456 38.3331 214.382 36.7 214.382 34.6855C214.382 32.671 211.456 31.038 207.848 31.038C204.239 31.038 201.314 32.671 201.314 34.6855C201.314 36.7 204.239 38.3331 207.848 38.3331Z" stroke="#3F3D56" stroke-miterlimit="10"/>
<path d="M166.467 20.8105C170.075 20.8105 173 19.1774 173 17.1629C173 15.1484 170.075 13.5154 166.467 13.5154C162.858 13.5154 159.933 15.1484 159.933 17.1629C159.933 19.1774 162.858 20.8105 166.467 20.8105Z" fill="#57B894"/>
<path d="M165.65 20.1847C169.258 20.1847 172.184 18.5516 172.184 16.5371C172.184 14.5227 169.258 12.8896 165.65 12.8896C162.041 12.8896 159.116 14.5227 159.116 16.5371C159.116 18.5516 162.041 20.1847 165.65 20.1847Z" stroke="#3F3D56" stroke-miterlimit="10"/>
<path d="M170.55 8.92018C174.159 8.92018 177.084 7.28711 177.084 5.27262C177.084 3.25813 174.159 1.62506 170.55 1.62506C166.942 1.62506 164.016 3.25813 164.016 5.27262C164.016 7.28711 166.942 8.92018 170.55 8.92018Z" fill="#57B894"/>
<path d="M169.734 8.29512C173.342 8.29512 176.267 6.66205 176.267 4.64756C176.267 2.63307 173.342 1 169.734 1C166.125 1 163.2 2.63307 163.2 4.64756C163.2 6.66205 166.125 8.29512 169.734 8.29512Z" stroke="#3F3D56" stroke-miterlimit="10"/>
<path d="M208.392 17.6814C212.001 17.6814 214.926 16.0483 214.926 14.0339C214.926 12.0194 212.001 10.3863 208.392 10.3863C204.784 10.3863 201.858 12.0194 201.858 14.0339C201.858 16.0483 204.784 17.6814 208.392 17.6814Z" fill="#57B894"/>
<path d="M207.575 17.0557C211.184 17.0557 214.109 15.4226 214.109 13.4081C214.109 11.3936 211.184 9.76056 207.575 9.76056C203.967 9.76056 201.042 11.3936 201.042 13.4081C201.042 15.4226 203.967 17.0557 207.575 17.0557Z" stroke="#3F3D56" stroke-miterlimit="10"/>
<path d="M148.226 46.4686C151.835 46.4686 154.76 44.8355 154.76 42.821C154.76 40.8065 151.835 39.1735 148.226 39.1735C144.618 39.1735 141.692 40.8065 141.692 42.821C141.692 44.8355 144.618 46.4686 148.226 46.4686Z" fill="#57B894"/>
<path d="M147.409 45.8428C151.018 45.8428 153.943 44.2097 153.943 42.1952C153.943 40.1807 151.018 38.5477 147.409 38.5477C143.801 38.5477 140.876 40.1807 140.876 42.1952C140.876 44.2097 143.801 45.8428 147.409 45.8428Z" stroke="#3F3D56" stroke-miterlimit="10"/>
<path d="M170.823 44.5911C174.431 44.5911 177.356 42.9581 177.356 40.9436C177.356 38.9291 174.431 37.296 170.823 37.296C167.214 37.296 164.289 38.9291 164.289 40.9436C164.289 42.9581 167.214 44.5911 170.823 44.5911Z" fill="#57B894"/>
<path d="M170.006 43.9653C173.614 43.9653 176.54 42.3323 176.54 40.3178C176.54 38.3033 173.614 36.6702 170.006 36.6702C166.397 36.6702 163.472 38.3033 163.472 40.3178C163.472 42.3323 166.397 43.9653 170.006 43.9653Z" stroke="#3F3D56" stroke-miterlimit="10"/>
<path d="M200.497 47.4073C204.106 47.4073 207.031 45.7742 207.031 43.7597C207.031 41.7453 204.106 40.1122 200.497 40.1122C196.889 40.1122 193.963 41.7453 193.963 43.7597C193.963 45.7742 196.889 47.4073 200.497 47.4073Z" fill="#57B894"/>
<path d="M199.68 46.7815C203.289 46.7815 206.214 45.1484 206.214 43.1339C206.214 41.1195 203.289 39.4864 199.68 39.4864C196.072 39.4864 193.147 41.1195 193.147 43.1339C193.147 45.1484 196.072 46.7815 199.68 46.7815Z" stroke="#3F3D56" stroke-miterlimit="10"/>
<path d="M184.707 48.6589C188.315 48.6589 191.241 47.0258 191.241 45.0113C191.241 42.9968 188.315 41.3638 184.707 41.3638C181.098 41.3638 178.173 42.9968 178.173 45.0113C178.173 47.0258 181.098 48.6589 184.707 48.6589Z" fill="#57B894"/>
<path d="M183.89 48.0331C187.499 48.0331 190.424 46.4 190.424 44.3855C190.424 42.371 187.499 40.738 183.89 40.738C180.282 40.738 177.356 42.371 177.356 44.3855C177.356 46.4 180.282 48.0331 183.89 48.0331Z" stroke="#3F3D56" stroke-miterlimit="10"/>
<path d="M185.796 17.3685C189.404 17.3685 192.33 15.7355 192.33 13.721C192.33 11.7065 189.404 10.0734 185.796 10.0734C182.187 10.0734 179.262 11.7065 179.262 13.721C179.262 15.7355 182.187 17.3685 185.796 17.3685Z" fill="#57B894"/>
<path d="M184.979 16.7428C188.588 16.7428 191.513 15.1097 191.513 13.0952C191.513 11.0807 188.588 9.44763 184.979 9.44763C181.371 9.44763 178.445 11.0807 178.445 13.0952C178.445 15.1097 181.371 16.7428 184.979 16.7428Z" stroke="#3F3D56" stroke-miterlimit="10"/>
<path d="M157.755 36.7686C161.363 36.7686 164.289 35.1355 164.289 33.121C164.289 31.1065 161.363 29.4734 157.755 29.4734C154.146 29.4734 151.221 31.1065 151.221 33.121C151.221 35.1355 154.146 36.7686 157.755 36.7686Z" fill="#57B894"/>
<path d="M156.938 36.1428C160.547 36.1428 163.472 34.5097 163.472 32.4952C163.472 30.4807 160.547 28.8477 156.938 28.8477C153.329 28.8477 150.404 30.4807 150.404 32.4952C150.404 34.5097 153.329 36.1428 156.938 36.1428Z" stroke="#3F3D56" stroke-miterlimit="10"/>
<path d="M161.566 50.8493C165.175 50.8493 168.1 49.2162 168.1 47.2017C168.1 45.1872 165.175 43.5541 161.566 43.5541C157.958 43.5541 155.032 45.1872 155.032 47.2017C155.032 49.2162 157.958 50.8493 161.566 50.8493Z" fill="#57B894"/>
<path d="M160.749 50.2234C164.358 50.2234 167.283 48.5903 167.283 46.5758C167.283 44.5614 164.358 42.9283 160.749 42.9283C157.141 42.9283 154.216 44.5614 154.216 46.5758C154.216 48.5903 157.141 50.2234 160.749 50.2234Z" stroke="#3F3D56" stroke-miterlimit="10"/>
<g opacity="0.3">
<path opacity="0.3" d="M161.718 72.1073C162.641 70.2106 162.809 68.3008 162.094 67.8418C161.38 67.3827 160.053 68.5481 159.13 70.4448C158.208 72.3415 158.04 74.2512 158.754 74.7103C159.469 75.1694 160.796 74.004 161.718 72.1073Z" fill="#57B894"/>
<path opacity="0.3" d="M161.287 72.3939C162.21 70.4972 162.378 68.5875 161.663 68.1284C160.949 67.6694 159.622 68.8348 158.699 70.7315C157.777 72.6282 157.609 74.5379 158.323 74.997C159.038 75.4561 160.365 74.2906 161.287 72.3939Z" stroke="#3F3D56" stroke-miterlimit="10"/>
</g>
<g opacity="0.3">
<path opacity="0.3" d="M195.776 81.1999C196.322 80.4987 195.622 78.7556 194.214 77.3066C192.805 75.8575 191.22 75.2512 190.674 75.9524C190.128 76.6536 190.828 78.3967 192.236 79.8457C193.645 81.2948 195.23 81.9011 195.776 81.1999Z" fill="#57B894"/>
<path opacity="0.3" d="M195.626 80.654C196.172 79.9529 195.473 78.2098 194.064 76.7607C192.656 75.3117 191.071 74.7054 190.525 75.4066C189.979 76.1077 190.678 77.8508 192.087 79.2999C193.496 80.7489 195.08 81.3552 195.626 80.654Z" stroke="#3F3D56" stroke-miterlimit="10"/>
</g>
<g opacity="0.3">
<path opacity="0.3" d="M165.284 61.487C165.83 60.7858 165.131 59.0427 163.722 57.5937C162.313 56.1446 160.729 55.5383 160.183 56.2395C159.637 56.9407 160.336 58.6838 161.745 60.1328C163.154 61.5819 164.738 62.1881 165.284 61.487Z" fill="#57B894"/>
<path opacity="0.3" d="M165.135 60.9411C165.681 60.24 164.982 58.4969 163.573 57.0478C162.164 55.5988 160.58 54.9925 160.034 55.6937C159.488 56.3948 160.187 58.1379 161.596 59.587C163.004 61.036 164.589 61.6423 165.135 60.9411Z" stroke="#3F3D56" stroke-miterlimit="10"/>
</g>
</svg>
