<svg width="202" height="195" viewBox="0 0 202 195" fill="none" xmlns="http://www.w3.org/2000/svg">
<path d="M74.6833 155.811C84.1077 155.811 91.7477 154.599 91.7477 153.104C91.7477 151.608 84.1077 150.396 74.6833 150.396C65.259 150.396 57.619 151.608 57.619 153.104C57.619 154.599 65.259 155.811 74.6833 155.811Z" fill="#3B477B"/>
<path d="M77.3884 53.9476H71.9783V153.104H77.3884V53.9476Z" fill="#3B477B"/>
<path d="M74.6833 63.5302C78.4768 63.5302 81.5521 60.4521 81.5521 56.6551C81.5521 52.8581 78.4768 49.78 74.6833 49.78C70.8898 49.78 67.8145 52.8581 67.8145 56.6551C67.8145 60.4521 70.8898 63.5302 74.6833 63.5302Z" fill="#3B477B"/>
<path d="M90.0373 62.5285C90.0373 62.5285 87.3322 68.3625 85.2519 80.4372L73.3884 67.3213C73.3884 67.3213 76.5757 66.0344 79.96 64.5895C83.1459 63.2294 86.5737 62.5284 90.0373 62.5285V62.5285Z" fill="#B29DDD"/>
<path opacity="0.08" d="M89.8765 62.9049C89.8765 62.9049 87.1715 68.7389 85.0911 80.8136L73.2277 67.6978C73.2277 67.6978 76.4149 66.4108 79.7993 64.9659C82.9851 63.6058 86.413 62.9048 89.8765 62.9049V62.9049Z" fill="black"/>
<path d="M59.9085 62.9049C59.9085 62.9049 63.6538 73.9445 63.8509 78.3185V83.5272H85.7037V78.1121C83.0351 74.7355 80.0227 71.6461 76.7151 68.8937C71.9692 65.0178 66.0307 62.9031 59.9055 62.9079L59.9085 62.9049Z" fill="#B29DDD"/>
<path d="M63.86 83.5272C63.86 83.5272 58.2407 90.205 57.8252 98.0969C57.4097 105.989 61.3642 129.552 61.3642 129.552C61.3642 129.552 74.6833 134.342 88.0024 129.552C88.0024 129.552 92.1661 105.388 91.7476 97.6811C91.3291 89.9743 83.3201 79.8696 83.3201 79.8696L63.86 83.5272Z" fill="#B29DDD"/>
<path opacity="0.08" d="M51.2354 70.5267C51.2354 70.5267 53.9405 70.3172 55.6054 71.152C57.2702 71.9867 59.4567 72.0626 59.4567 72.0626" fill="black"/>
<path opacity="0.08" d="M51.2354 71.7681C51.2354 71.7681 53.9405 71.5587 55.6054 72.3934C57.2702 73.2281 59.4567 73.304 59.4567 73.304" fill="black"/>
<path opacity="0.08" d="M51.2354 73.4437C51.2354 73.4437 53.9405 73.2342 55.6054 74.069C57.2702 74.9037 59.4567 74.9796 59.4567 74.9796" fill="black"/>
<path opacity="0.08" d="M38.7472 76.5701C38.7472 76.5701 37.0823 80.9441 37.2916 81.5694C37.5008 82.1947 35.6267 85.9433 35.6267 85.9433" fill="black"/>
<path opacity="0.08" d="M39.9967 79.2776C39.9967 79.2776 38.3318 83.6516 38.541 84.2769C38.7503 84.9022 36.8762 88.6509 36.8762 88.6509" fill="black"/>
<path opacity="0.08" d="M58.7259 76.5701C58.7259 76.5701 60.3908 80.9441 60.1815 81.5694C59.9723 82.1947 61.8464 85.9433 61.8464 85.9433" fill="black"/>
<path opacity="0.08" d="M57.4765 79.2776C57.4765 79.2776 59.1414 83.6516 58.9321 84.2769C58.7229 84.9022 60.597 88.6509 60.597 88.6509" fill="black"/>
<path d="M100.827 161.87C110.252 161.87 117.892 160.658 117.892 159.162C117.892 157.667 110.252 156.455 100.827 156.455C91.4028 156.455 83.7629 157.667 83.7629 159.162C83.7629 160.658 91.4028 161.87 100.827 161.87Z" fill="#3B477B"/>
<path d="M103.532 60.0092H98.1221V159.165H103.532V60.0092Z" fill="#3B477B"/>
<path d="M100.827 69.5918C104.621 69.5918 107.696 66.5137 107.696 62.7167C107.696 58.9197 104.621 55.8416 100.827 55.8416C97.0336 55.8416 93.9584 58.9197 93.9584 62.7167C93.9584 66.5137 97.0336 69.5918 100.827 69.5918Z" fill="#3B477B"/>
<path d="M90.3193 94.4848L65.5522 128.854L72.421 131.565C72.421 131.565 71.1716 132.815 72.0056 133.441C72.0056 133.441 74.9199 136.148 82.6196 136.564C82.6196 136.564 84.9092 133.441 89.4884 137.605C94.0676 141.77 99.687 138.44 99.687 138.44C99.687 138.44 103.848 134.904 108.633 138.243C113.418 141.582 119.456 136.576 119.456 136.576C119.456 136.576 122.577 131.993 129.236 133.659C135.896 135.326 135.908 129.076 135.908 129.076L110.738 93.6622L90.3193 94.4848Z" fill="#DD9DD7"/>
<g opacity="0.08">
<path opacity="0.08" d="M129.709 133.75C131.529 134.118 132.803 133.872 133.709 133.334C132.362 133.187 130.998 133.328 129.709 133.75Z" fill="white"/>
<path opacity="0.08" d="M78.2466 133.438C77.4157 132.812 78.6591 131.565 78.6591 131.565L71.7903 128.857L90.3133 94.4848L65.5522 128.854L72.421 131.565C72.421 131.565 71.1716 132.815 72.0056 133.441C72.0056 133.441 74.9199 136.148 82.6196 136.564C82.8787 136.248 83.201 135.989 83.5658 135.805C79.7841 134.861 78.2466 133.438 78.2466 133.438Z" fill="white"/>
<path opacity="0.08" d="M95.7294 137.602C91.1502 133.435 88.8606 136.561 88.8606 136.561C88.6029 136.561 88.3481 136.531 88.1025 136.512C88.5901 136.842 89.0523 137.207 89.4853 137.605C92.5695 140.413 96.1236 139.815 98.116 139.123C97.237 138.761 96.4289 138.246 95.7294 137.602V137.602Z" fill="white"/>
<path opacity="0.08" d="M114.877 138.243C111.845 136.118 109.061 136.78 107.429 137.538C107.852 137.74 108.257 137.976 108.642 138.243C110.977 139.867 113.606 139.511 115.69 138.719C115.408 138.58 115.136 138.421 114.877 138.243V138.243Z" fill="white"/>
</g>
<path d="M112.797 97.2956H89.4854C89.4854 97.2956 88.0297 79.5903 85.9464 76.8828C86.8011 76.5117 87.677 76.1914 88.5695 75.9236C89.9638 75.4896 91.3812 75.1339 92.8151 74.8582C97.7591 73.9032 102.836 73.8569 107.796 74.7216C109.243 74.9767 110.674 75.3111 112.084 75.7233C113.204 76.049 114.34 76.4356 115.493 76.8828C115.493 76.8828 111.338 93.5469 112.797 97.2956Z" fill="#DD9DD7"/>
<path opacity="0.08" d="M95.69 97.2955H92.5907C92.5513 93.3769 89.6825 80.7073 88.5695 75.9205C89.9638 75.4866 91.3812 75.1309 92.8151 74.8551C93.0547 79.8968 95.1199 93.5894 95.69 97.2955Z" fill="white"/>
<path opacity="0.08" d="M112.093 75.7141C111.017 80.337 108.066 93.3192 108.027 97.2865H104.927C105.5 93.5439 107.599 79.6358 107.802 74.7125C109.25 74.9675 110.682 75.3018 112.093 75.7141V75.7141Z" fill="white"/>
<path d="M129.332 54.9484L124.828 75.0655C126.303 76.0978 128.01 76.7585 129.807 76.9916L134.556 55.1456C132.86 54.6728 131.07 54.6052 129.332 54.9484V54.9484Z" fill="#F2F2F2"/>
<path d="M129.287 54.9833L124.857 47.3022L118.499 50.9761L122.916 58.6335C124.582 56.7534 126.824 55.4693 129.287 54.9833Z" fill="#9646C7"/>
<path d="M133.374 76.7639L137.908 84.6235L144.265 80.9496L139.718 73.0662C138.066 74.9586 135.834 76.2594 133.374 76.7639V76.7639Z" fill="#9646C7"/>
<path d="M136.939 75.5181C131.53 78.644 124.626 76.8463 121.548 71.5109C118.47 66.1754 120.367 59.2916 125.777 56.1658C131.186 53.0399 138.09 54.8376 141.168 60.173C144.245 65.5085 142.349 72.3923 136.939 75.5181ZM125.815 56.2332C120.444 59.3373 118.56 66.1731 121.616 71.4714C124.673 76.7696 131.529 78.5548 136.9 75.4507C142.272 72.3466 144.156 65.5108 141.099 60.2125C138.043 54.9143 131.187 53.1291 125.815 56.2332Z" fill="black"/>
<path d="M124.453 69.8319C125.495 71.6382 127.222 72.95 129.254 73.479C131.285 74.0079 133.455 73.7106 135.286 72.6524L127.43 59.0316C125.598 60.0898 124.256 61.8222 123.698 63.8476C123.14 65.8731 123.412 68.0257 124.453 69.8319V69.8319Z" fill="#575A89"/>
<path d="M127.43 59.0316L135.286 72.6523C137.118 71.5941 138.46 69.8617 139.018 67.8363C139.576 65.8108 139.304 63.6582 138.262 61.852C137.221 60.0457 135.494 58.7339 133.462 58.2049C131.431 57.676 129.261 57.9733 127.43 59.0316V59.0316Z" fill="#9646C7"/>
<path d="M132.097 67.1231C132.626 66.8177 132.81 66.1474 132.509 65.626C132.209 65.1047 131.536 64.9296 131.008 65.2351C130.479 65.5405 130.295 66.2108 130.595 66.7322C130.896 67.2535 131.568 67.4286 132.097 67.1231Z" fill="#2F2E41"/>
<path d="M129.554 62.7181L130.869 64.4461L132.183 66.1742L131.706 66.4498L131.229 66.7253L130.392 64.7217L129.554 62.7181Z" fill="#2F2E41"/>
<path d="M137.289 62.9345L134.244 64.8472L131.199 66.7598L131.046 66.4907L130.894 66.2217L134.091 64.5781L137.289 62.9345Z" fill="#2F2E41"/>
<path d="M141.976 60.7846C141.818 60.8761 141.692 60.8057 141.533 60.7167C141.493 60.6945 141.45 60.6704 141.402 60.6462L141.439 60.5764C141.488 60.6012 141.532 60.6258 141.572 60.6485C141.731 60.7372 141.818 60.7861 141.937 60.7172C142.333 60.4885 142.28 59.652 141.819 58.8527C141.358 58.0533 140.661 57.589 140.265 57.8177C140.036 57.9498 139.958 58.1807 140.01 58.5664L139.932 58.5777C139.875 58.156 139.966 57.9008 140.226 57.7503C140.66 57.4998 141.405 57.9766 141.887 58.8132C142.37 59.6497 142.41 60.5341 141.976 60.7846Z" fill="black"/>
<path d="M141.295 158.323C142.612 158.323 143.679 157.148 143.679 155.698C143.679 154.248 142.612 153.073 141.295 153.073C139.978 153.073 138.911 154.248 138.911 155.698C138.911 157.148 139.978 158.323 141.295 158.323Z" fill="#3F3D56"/>
<path d="M128.843 158.323C130.159 158.323 131.227 157.148 131.227 155.698C131.227 154.248 130.159 153.073 128.843 153.073C127.526 153.073 126.459 154.248 126.459 155.698C126.459 157.148 127.526 158.323 128.843 158.323Z" fill="#3F3D56"/>
<path d="M132.552 92.3804H131.492V124.624H132.552V92.3804Z" fill="#3F3D56"/>
<path d="M138.248 92.3804H137.188V124.624H138.248V92.3804Z" fill="#3F3D56"/>
<path d="M131.751 93.2555L131.485 92.3804C131.485 92.3804 134.4 88.5879 138.507 91.6451L138.242 92.9595H137.181C137.181 92.9595 135.46 91.3693 132.545 93.1856L131.751 93.2555Z" fill="#3F3D56"/>
<path d="M131.095 122.581C131.095 122.581 127.517 122.727 126.988 127.249C126.459 131.771 126.988 152.781 126.988 152.781C126.988 152.781 131.095 156.136 136.13 155.698C141.165 155.26 149.245 153.656 149.245 153.656V129.021C149.245 125.344 146.46 122.346 143.125 122.557C143.046 122.557 142.958 122.568 142.886 122.578L131.095 122.581Z" fill="#3C354C"/>
<path d="M136.262 159.053C137.578 159.053 138.646 157.878 138.646 156.428C138.646 154.978 137.578 153.803 136.262 153.803C134.945 153.803 133.878 154.978 133.878 156.428C133.878 157.878 134.945 159.053 136.262 159.053Z" fill="#3F3D56"/>
<path d="M149.245 157.886C150.562 157.886 151.629 156.71 151.629 155.26C151.629 153.811 150.562 152.635 149.245 152.635C147.928 152.635 146.861 153.811 146.861 155.26C146.861 156.71 147.928 157.886 149.245 157.886Z" fill="#3F3D56"/>
<path opacity="0.1" fill-rule="evenodd" clip-rule="evenodd" d="M102.812 30.0623C119.113 27.0806 125.346 -0.681977 141.901 0.0128214C155.34 0.576794 154.995 23.7306 165.048 32.6742C175.251 41.7508 196.344 39.2825 200.626 52.2557C205.259 66.2903 190.678 79.6969 185.083 93.3755C181.237 102.777 176.711 111.599 172.56 120.869C168.858 129.135 165.526 137.314 161.724 145.535C157.26 155.185 157.047 168.478 147.977 174.016C138.885 179.567 126.418 169.915 116.308 173.265C104.265 177.255 97.8775 193.141 85.2986 194.783C73.6616 196.301 61.4805 189.647 53.0024 181.526C44.5087 173.389 45.4641 159.099 38.3048 149.765C31.0793 140.344 17.5648 137.136 11.246 127.083C4.68229 116.64 -3.70315 102.69 1.76628 91.6341C8.31336 78.3996 31.3868 81.7506 39.7056 69.5536C46.5304 59.5471 35.7945 44.3041 41.3786 33.5544C46.6694 23.3694 57.4418 14.0187 68.8923 13.3678C81.5798 12.6466 90.3116 32.349 102.812 30.0623Z" fill="#6C63FF"/>
</svg>
