<svg width="194" height="195" viewBox="0 0 194 195" fill="none" xmlns="http://www.w3.org/2000/svg">
<path opacity="0.1" d="M59.8985 9.32654C66.4802 1.15184 76.8134 -0.523976 86.2161 0.126856C115.754 2.17368 142.416 22.0728 165.491 44.5815C173.842 52.7279 182.061 61.5094 187.48 72.7308C198.521 95.5696 195.241 127.212 179.901 146.03C174.68 152.431 168.353 157.348 161.857 161.69C150.307 169.428 137.844 175.638 124.737 177.411C115.389 178.669 105.925 177.647 96.6328 175.886C70.6554 170.969 45.1692 160.103 23.8087 141.511C14.4375 133.359 5.60715 123.222 1.74513 110.033C-2.11689 96.843 0.354898 80.1289 9.92208 72.3221C13.8787 69.093 18.6105 67.6342 23.2409 66.2665C30.0591 64.2511 36.9855 62.264 43.1391 58.1641C49.4931 53.9321 57.0166 45.748 55.7571 36.3817C54.4074 26.3299 53.3259 17.5012 59.8985 9.32654Z" fill="#6C63FF"/>
<path d="M155.504 51.0609L155.573 51.1803C149.186 59.1827 148.763 71.6185 148.747 71.716L147.399 70.1438C147.415 70.0432 149.073 59.1198 155.504 51.0609Z" fill="#444053"/>
<path d="M158.544 70.6343C158.544 70.6343 155.097 63.3709 158.165 58.645" stroke="#444053" stroke-miterlimit="10"/>
<path d="M161.531 50.7024C161.531 50.7024 157.08 51.501 156.457 50.0358" stroke="#444053" stroke-miterlimit="10"/>
<path d="M155.748 45.313C155.748 45.313 157.996 48.3001 158.569 47.6304" stroke="#444053" stroke-miterlimit="10"/>
<path d="M151.64 47.8159C151.64 47.8159 151.64 54.4976 149.828 54.9724" stroke="#444053" stroke-miterlimit="10"/>
<path d="M136.819 56.4723C136.819 56.4723 144.027 57.1012 147.34 53.3625" stroke="#444053" stroke-miterlimit="10"/>
<path d="M132.5 49.3346C132.5 49.3346 137.596 51.1112 141.98 46.5865" stroke="#444053" stroke-miterlimit="10"/>
<path d="M121 131.116L120.964 131.868L118.739 178H115L116.83 131.868L116.866 131L121 131.116Z" fill="#504F60"/>
<path opacity="0.1" d="M121 131.116L120.964 131.868L118.739 178H115L116.83 131.868L116.866 131L121 131.116Z" fill="black"/>
<path d="M141.291 156.348L138.627 156.342L98.9995 156.257L96.8871 156.254L98.0123 152.776H141.012L141.291 156.348Z" fill="#504F60"/>
<path opacity="0.1" d="M120.681 130.814L120.647 132.037H116.71L116.745 130.625L120.681 130.814Z" fill="black"/>
<path d="M122.179 128.981H115.576V131.474H122.179V128.981Z" fill="#504F60"/>
<path opacity="0.1" d="M99.3505 190.776L98.9995 194.257L96.8871 194.254L98.0123 190.776H99.3505Z" fill="black"/>
<path d="M105 129L104.893 129.663L96.0507 183L92 182.882L101.315 129.663L101.419 129.058L105 129Z" fill="#504F60"/>
<path opacity="0.1" d="M141.291 194.348L138.627 194.342L138.263 190.776H141.012L141.291 194.348Z" fill="black"/>
<path d="M146 182.882L141.947 183L133.11 129.663L133 129L136.58 129.058L136.684 129.663L146 182.882Z" fill="#504F60"/>
<path d="M162.65 43.1717H73.8422V128.603H162.65V43.1717Z" fill="white"/>
<path d="M162.65 43.1717H73.8422V128.603H162.65V43.1717Z" fill="white"/>
<path d="M119.976 14.6023V35.2291H116.513V14.6023C116.503 14.3679 116.54 14.134 116.623 13.9145C116.705 13.6951 116.831 13.4946 116.993 13.3253C117.155 13.1559 117.349 13.0211 117.564 12.9291C117.779 12.837 118.011 12.7896 118.244 12.7896C118.478 12.7896 118.71 12.837 118.925 12.9291C119.14 13.0211 119.334 13.1559 119.496 13.3253C119.657 13.4946 119.783 13.6951 119.866 13.9145C119.948 14.134 119.986 14.3679 119.976 14.6023Z" fill="#504F60"/>
<path opacity="0.1" d="M119.979 33.3519H116.513V35.2291H119.979V33.3519Z" fill="black"/>
<path d="M121.336 34.7606V41.5744H115.165V34.7606C115.165 34.6495 115.187 34.5396 115.229 34.4369C115.272 34.3343 115.334 34.2411 115.412 34.1625C115.49 34.084 115.583 34.0217 115.686 33.9792C115.788 33.9367 115.898 33.9148 116.008 33.9148H120.493C120.716 33.9156 120.93 34.005 121.088 34.1634C121.246 34.3219 121.335 34.5365 121.336 34.7606Z" fill="#504F60"/>
<path opacity="0.1" d="M118.246 39.5526C118.97 39.5526 119.556 38.9642 119.556 38.2383C119.556 37.5124 118.97 36.924 118.246 36.924C117.523 36.924 116.936 37.5124 116.936 38.2383C116.936 38.9642 117.523 39.5526 118.246 39.5526Z" fill="black"/>
<path d="M118.246 39.2696C118.97 39.2696 119.556 38.6812 119.556 37.9553C119.556 37.2294 118.97 36.6409 118.246 36.6409C117.523 36.6409 116.936 37.2294 116.936 37.9553C116.936 38.6812 117.523 39.2696 118.246 39.2696Z" fill="#3F3D56"/>
<path opacity="0.1" d="M121.339 40.7286H115.156V41.5744H121.339V40.7286Z" fill="black"/>
<path opacity="0.1" d="M123.865 41.8574H112.623V43.7377H123.865V41.8574Z" fill="black"/>
<path d="M123.865 41.2914H112.623V43.1717H123.865V41.2914Z" fill="#504F60"/>
<path opacity="0.1" d="M95.505 126.402H142.72C143.26 126.402 143.778 126.618 144.161 127.001C144.543 127.384 144.757 127.904 144.757 128.446V128.893H93.4678V128.446C93.4678 127.904 93.6825 127.384 94.0645 127.001C94.4465 126.618 94.9647 126.402 95.505 126.402V126.402Z" fill="black"/>
<path opacity="0.1" d="M101.475 129.028L105.036 128.933L104.929 130.015H101.372L101.475 129.028Z" fill="black"/>
<path opacity="0.1" d="M122.179 128.981H115.576V130.015H122.179V128.981Z" fill="black"/>
<path opacity="0.1" d="M136.242 130.015H132.688L132.578 128.933L136.139 129.028L136.242 130.015Z" fill="black"/>
<path d="M95.505 126.959H142.72C143.26 126.959 143.778 127.174 144.161 127.557C144.543 127.941 144.757 128.461 144.757 129.003V129.449H93.4678V129.003C93.4678 128.461 93.6825 127.941 94.0645 127.557C94.4465 127.174 94.9647 126.959 95.505 126.959Z" fill="#504F60"/>
<path opacity="0.05" d="M102.171 52.0796C104.923 48.5926 109.239 47.8851 113.169 48.1618C125.511 49.0328 136.652 57.5068 146.29 67.0907C149.778 70.5495 153.213 74.2975 155.479 79.0769C160.089 88.8023 158.72 102.276 152.31 110.288C150.116 113.014 147.484 115.105 144.77 116.957C139.946 120.252 134.741 122.893 129.259 123.648C125.354 124.186 121.399 123.748 117.516 123C106.669 120.906 96.019 116.281 87.0931 108.363C83.1755 104.904 79.4867 100.578 77.8726 94.9621C76.2586 89.3463 77.2928 82.2275 81.2888 78.904C82.9436 77.5267 84.9212 76.9073 86.8549 76.3225C89.7038 75.4672 92.5997 74.6182 95.1697 72.8637C97.8242 71.0588 100.968 67.5749 100.441 63.5848C99.8771 59.3179 99.4257 55.5604 102.171 52.0796Z" fill="#6C63FF"/>
<g opacity="0.08">
<path opacity="0.08" d="M35.2459 52.6015C35.2851 51.4158 35.2631 50.2288 35.1801 49.0453C35.0923 47.7561 34.92 46.4355 34.3088 45.2941C33.9954 44.6998 33.5629 44.1716 33.2683 43.5679C33.1131 43.2488 32.9973 42.912 32.9236 42.5648C32.6882 43.6161 32.8096 44.7161 33.2683 45.6903C33.5629 46.294 33.9923 46.8254 34.3088 47.4197C34.92 48.5579 35.0923 49.8785 35.1801 51.1709C35.2271 51.6457 35.2459 52.1236 35.2459 52.6015Z" fill="black"/>
<path opacity="0.08" d="M70.7865 47.0455C70.7468 47.6543 70.7573 48.2653 70.8179 48.8724C71.1626 45.5614 73.1622 42.3196 72.6826 39.1249C72.341 41.7284 70.9746 44.3634 70.7865 47.0455Z" fill="black"/>
<path opacity="0.08" d="M70.5232 60.5976C69.1035 62.3239 66.5649 63.0785 65.6842 65.1349C65.1953 66.2795 65.33 67.6221 64.8098 68.7509C63.8696 70.7664 61.3184 71.3167 59.1151 71.5808C56.1848 71.9361 53.2262 72.2285 50.2802 71.9927C47.3341 71.7569 44.3849 70.9677 41.9372 69.3106C39.5647 67.7038 37.7814 65.3676 36.2457 62.9433C35.6488 62.0879 35.1977 61.1391 34.9106 60.1354C34.8689 59.9633 34.8364 59.7891 34.8134 59.6135C34.698 60.4942 34.7309 61.3881 34.9106 62.2579C35.1973 63.2626 35.6485 64.2126 36.2457 65.0689C37.7814 67.49 39.5647 69.8263 41.9372 71.433C44.3849 73.0901 47.3372 73.8825 50.2802 74.1151C53.2231 74.3478 56.1848 74.0585 59.1151 73.7032C61.309 73.4391 63.8727 72.8889 64.8098 70.8733C65.33 69.7445 65.1953 68.4019 65.6842 67.2605C66.5649 65.201 69.1035 64.4306 70.5232 62.7201C71.7769 61.2108 72.0088 59.145 71.8364 57.1609C71.7518 58.4126 71.2943 59.61 70.5232 60.5976Z" fill="black"/>
</g>
<g opacity="0.75">
<path opacity="0.75" d="M140.58 114.891C140.506 114.736 140.444 114.577 140.395 114.413C140.297 114.032 140.417 113.636 140.423 113.243C140.419 112.971 140.389 112.701 140.332 112.435C140.147 111.419 139.965 110.401 139.78 109.382C139.696 108.913 139.611 108.439 139.57 107.97C139.53 107.502 139.536 106.995 139.526 106.508C139.505 104.936 139.213 103.364 139.166 101.776C139.132 100.955 139.069 100.134 139.003 99.3138C138.887 97.9051 138.765 96.4839 138.517 95.1067C138.323 94.003 137.771 92.9717 137.759 91.8523C137.759 91.2706 137.759 90.6889 137.743 90.1072C137.776 89.6075 137.697 89.1068 137.511 88.6419C137.295 88.2584 137.003 87.9234 136.652 87.6577C135.666 86.8025 134.645 85.9902 133.587 85.2209C133.908 85.2806 134.238 85.2557 134.546 85.1486C134.698 85.0899 134.821 84.9745 134.889 84.8267C134.958 84.6789 134.966 84.5102 134.913 84.3562C134.804 84.1793 134.629 84.0528 134.427 84.004C134.049 83.8894 133.657 83.8259 133.261 83.8154C133.298 83.665 133.326 83.5128 133.346 83.3594C133.553 81.7369 132.741 80.1459 132.744 78.5109C132.744 76.8255 133.597 75.2816 134.089 73.6717C134.863 71.1163 134.741 68.3722 133.744 65.8958C133.214 64.5878 132.44 63.3583 132.177 61.9717C131.973 60.8837 132.102 59.7706 131.917 58.667C131.453 55.8905 128.987 53.7555 126.276 53.0072C124.185 52.438 122.057 52.6204 119.954 53.0072C118.146 53.3436 116.507 52.6015 114.689 52.8405C113.98 52.9317 113.244 53.155 112.786 53.7146C112.556 54.0571 112.347 54.413 112.16 54.7806C111.354 56.0383 109.756 56.4691 108.427 57.1577C106.409 58.2079 104.801 60.1668 104.5 62.4244C104.221 64.5186 105.042 66.5938 105.167 68.7131C105.327 71.4047 104.353 74.0145 103.528 76.574C103.258 77.2762 103.119 78.0223 103.118 78.775C103.165 79.2886 103.279 79.7939 103.456 80.278C103.716 81.0704 104.011 81.8502 104.346 82.6205C103.721 82.8755 103.066 83.0478 102.397 83.133C101.714 83.2116 100.983 83.1833 100.391 83.5324C100.116 83.7039 99.8788 83.9309 99.6953 84.199C99.4131 84.5948 99.2123 85.0431 99.1047 85.5176C98.997 85.9922 98.9848 86.4835 99.0685 86.9628C98.9451 87.0412 98.8437 87.1499 98.774 87.2787C98.7043 87.4075 98.6687 87.5521 98.6705 87.6986C98.6548 87.991 98.7206 88.2803 98.7332 88.5727C98.7097 89.1241 98.6041 89.6689 98.4198 90.1889C97.932 91.9759 97.8105 93.8435 98.0625 95.6789C98.4636 98.6157 98.542 101.531 98.6705 104.483C98.7551 106.423 98.5953 108.385 98.9149 110.303C99.0215 110.932 99.2283 111.624 99.7235 112.026C99.8507 112.113 99.9722 112.207 100.087 112.309C100.369 112.605 100.379 113.061 100.473 113.46C100.622 114.011 100.958 114.494 101.421 114.826C101.885 115.158 102.449 115.318 103.017 115.281V115.281C102.807 115.91 102.601 116.491 102.391 117.095H134.597C134.578 117.02 134.559 116.944 134.543 116.869C134.49 116.551 134.483 116.227 134.521 115.906C134.791 116.221 134.744 116.683 134.816 117.095H140.865C140.928 116.348 140.831 115.597 140.58 114.891V114.891Z" fill="url(#paint0_linear)"/>
<path opacity="0.75" d="M114.852 53.2242C114.147 53.3185 113.416 53.5386 112.971 54.0951C112.741 54.4349 112.531 54.7889 112.344 55.1548C111.545 56.4125 109.956 56.8307 108.64 57.5162C106.634 58.557 105.039 60.5064 104.741 62.7484C104.462 64.8299 105.277 66.8926 105.402 68.9867C105.559 71.6594 104.594 74.2535 103.776 76.8035C103.505 77.5057 103.366 78.2518 103.365 79.0046C103.412 79.5152 103.526 80.0173 103.704 80.4981C104.456 82.7841 105.475 85.0102 106.991 86.8748C108.508 88.7394 110.558 90.2298 112.893 90.7801C113.964 91.0008 115.053 91.1166 116.146 91.126C117.818 91.1889 119.489 91.2203 121.161 91.2203C122.08 91.2468 122.999 91.1846 123.906 91.0348C125.821 90.6606 127.507 89.5758 129.143 88.5193C131.024 87.293 133.092 85.7869 133.377 83.5513C133.581 81.9414 132.779 80.3598 132.779 78.7341C132.779 77.1085 133.625 75.5269 134.114 73.9296C134.884 71.3854 134.762 68.6534 133.769 66.1883C133.243 64.8865 132.475 63.6728 132.202 62.2861C131.998 61.2076 132.124 60.0851 131.942 59.0034C131.481 56.2459 129.033 54.1266 126.344 53.394C124.267 52.8311 122.154 53.0072 120.076 53.394C118.299 53.7241 116.648 52.9821 114.852 53.2242Z" fill="#3F3D56"/>
<path opacity="0.75" d="M115.422 76.3318C115.827 78.0819 115.524 79.9215 114.579 81.4477C114.08 82.1754 113.467 82.8177 112.764 83.35C111.698 84.2186 110.486 84.8903 109.185 85.3341C109.996 85.974 110.935 86.4319 111.937 86.6767C112.709 86.8429 113.495 86.9387 114.284 86.9628C118.246 87.1733 122.218 87.0292 126.153 86.5321C127.47 86.3654 128.842 86.1359 129.914 85.3404C130.008 85.2815 130.082 85.1947 130.124 85.092C130.199 84.831 129.889 84.6329 129.632 84.5448C128.378 84.1078 126.996 83.8594 125.899 83.0859C124.22 81.9005 123.517 79.7277 123.367 77.6745C123.217 75.6212 123.511 73.5491 123.311 71.4959C120.594 71.456 117.878 71.5357 115.162 71.7348C114.849 71.7568 113.495 71.6814 113.332 71.9423C113.169 72.2033 113.908 72.9611 114.096 73.2473C114.726 74.1836 115.176 75.2298 115.422 76.3318V76.3318Z" fill="#FBBEBE"/>
<path opacity="0.1" d="M119.18 76.3916C124.298 76.3916 128.447 72.2289 128.447 67.0938C128.447 61.9588 124.298 57.796 119.18 57.796C114.062 57.796 109.912 61.9588 109.912 67.0938C109.912 72.2289 114.062 76.3916 119.18 76.3916Z" fill="black"/>
<path opacity="0.75" d="M119.18 76.0614C124.298 76.0614 128.447 71.8987 128.447 66.7636C128.447 61.6286 124.298 57.4658 119.18 57.4658C114.062 57.4658 109.912 61.6286 109.912 66.7636C109.912 71.8987 114.062 76.0614 119.18 76.0614Z" fill="#FBBEBE"/>
<path opacity="0.75" d="M132.193 100.996C131.434 104.109 130.958 107.332 131.277 110.523C131.491 112.636 132.218 114.925 132.268 117.089H109.289C109.289 115.925 109.289 114.721 109.289 113.52C109.289 113.297 109.289 113.077 109.289 112.856C109.289 112.57 109.289 112.284 109.289 111.998C109.289 111.127 109.289 110.265 109.289 109.429C109.289 107.923 109.289 106.411 109.129 104.911C108.836 102.239 108.219 99.6127 107.292 97.0907L107.095 96.5373C107.095 96.5153 107.095 96.4964 107.07 96.4776C107.004 96.2889 106.932 96.1034 106.863 95.9147C105.744 92.9339 104.465 89.8399 105.08 86.7396C105.303 85.6319 105.758 84.5847 106.417 83.6679C107.075 82.751 107.92 81.9855 108.897 81.4225C109.497 81.0608 110.176 80.8515 110.875 80.8125C112.069 80.7936 113.144 81.498 114.14 82.1646C114.614 82.479 115.081 82.7934 115.579 83.1079C116.726 83.8538 117.965 84.4478 119.265 84.875C121.117 85.4378 123.214 85.4598 124.906 84.5228C125.237 84.3345 125.552 84.1178 125.846 83.8751C126.418 83.3859 126.937 82.8379 127.394 82.24C127.846 83.1204 128.824 83.4978 129.635 84.048C130.761 84.8739 131.615 86.018 132.089 87.3339C132.557 88.6431 132.872 90.0021 133.029 91.3838C133.251 92.7343 133.342 94.1033 133.299 95.4714C133.18 97.358 132.635 99.1723 132.193 100.996Z" fill="#3F3D56"/>
<path opacity="0.75" d="M118.381 117.089H102.657C102.867 116.485 103.071 115.897 103.284 115.284H103.256C102.691 115.322 102.13 115.162 101.67 114.832C101.209 114.501 100.877 114.021 100.73 113.473C100.636 113.077 100.626 112.627 100.344 112.331C100.232 112.23 100.112 112.136 99.9868 112.052C99.479 111.652 99.2879 110.976 99.1844 110.338C98.871 108.432 99.0214 106.486 98.94 104.555C98.8115 101.612 98.7331 98.7132 98.3351 95.7953C98.0851 93.9725 98.2056 92.1178 98.6892 90.343C98.8736 89.8263 98.9792 89.2846 99.0026 88.7363C99.0026 88.447 98.9243 88.1577 98.94 87.8684C98.9377 87.723 98.9729 87.5795 99.0421 87.4517C99.1112 87.324 99.2121 87.2162 99.3349 87.1389C99.2525 86.6621 99.2656 86.1735 99.3732 85.7017C99.4808 85.2299 99.6808 84.7843 99.9617 84.3908C100.146 84.1252 100.381 83.8995 100.654 83.7273C101.244 83.3815 101.967 83.4129 102.644 83.3312C105.81 82.9727 108.317 80.1868 111.486 79.8724C112.2 79.8247 112.918 79.8415 113.629 79.9227C114.795 80.0202 115.222 81.4949 115.491 82.6457C115.529 82.7966 115.56 82.9601 115.591 83.0985C116.187 85.9284 116.077 88.884 116.077 91.7926C116.077 92.46 116.168 93.1243 116.347 93.7672C116.826 95.5217 116.876 97.358 116.974 99.1755C117.178 103.423 117.603 107.657 118.246 111.86C118.384 112.647 118.481 113.44 118.537 114.237C118.58 115.19 118.527 116.146 118.381 117.089V117.089Z" fill="#F86D70"/>
<path opacity="0.75" d="M115.034 94.0848C115.373 94.4718 115.68 94.8874 115.949 95.3268C116.074 95.5343 116.178 95.8362 115.993 95.9934C115.893 96.0612 115.774 96.0943 115.654 96.0877L113.46 96.182C113.127 96.217 112.791 96.1861 112.47 96.0908C112.048 95.8861 111.692 95.567 111.442 95.1696L110.464 93.8867C110.176 93.5688 109.962 93.1908 109.837 92.7799C109.783 92.5735 109.796 92.355 109.875 92.1568C109.954 91.9586 110.095 91.7912 110.276 91.6793C110.632 91.5649 111.018 91.592 111.354 91.7548C112.019 91.9812 112.808 92.1321 113.394 92.5189C114.009 92.9645 114.56 93.4912 115.034 94.0848V94.0848Z" fill="#F86D70"/>
<path opacity="0.1" d="M115.034 94.0848C115.373 94.4718 115.68 94.8874 115.949 95.3268C116.074 95.5343 116.178 95.8362 115.993 95.9934C115.893 96.0612 115.774 96.0943 115.654 96.0877L113.46 96.182C113.127 96.217 112.791 96.1861 112.47 96.0908C112.048 95.8861 111.692 95.567 111.442 95.1696L110.464 93.8867C110.176 93.5688 109.962 93.1908 109.837 92.7799C109.783 92.5735 109.796 92.355 109.875 92.1568C109.954 91.9586 110.095 91.7912 110.276 91.6793C110.632 91.5649 111.018 91.592 111.354 91.7548C112.019 91.9812 112.808 92.1321 113.394 92.5189C114.009 92.9645 114.56 93.4912 115.034 94.0848V94.0848Z" fill="black"/>
<path opacity="0.1" d="M113.78 94.2326C114.049 92.7893 114.419 91.3666 114.886 89.9751C115.145 89.3075 115.331 88.6138 115.441 87.9062C115.501 87.3496 115.441 86.7868 115.497 86.2302C115.541 85.7491 115.657 85.2869 115.729 84.8027C115.87 83.8336 115.811 82.8459 115.557 81.9005C115.356 81.149 115.557 80.234 115.068 79.624C114.874 79.3756 114.614 79.1869 114.41 78.9448C114.299 78.8321 114.218 78.6933 114.175 78.5411C114.132 78.3889 114.127 78.2282 114.162 78.0738C114.845 78.2292 115.552 78.2517 116.243 78.1399C116.451 78.1172 116.65 78.0473 116.826 77.9355C116.913 77.8789 116.981 77.7991 117.025 77.7051C117.068 77.6111 117.084 77.5068 117.071 77.4041C117.039 77.3049 116.987 77.2134 116.918 77.135C116.85 77.0566 116.766 76.993 116.673 76.9481C116.059 76.5679 115.369 76.3289 114.652 76.2485C113.935 76.168 113.209 76.248 112.526 76.4828C112.506 76.4292 112.505 76.3701 112.524 76.316C112.543 76.2618 112.58 76.2162 112.63 76.1872C112.727 76.1333 112.833 76.0981 112.943 76.0835C113.291 76.0045 113.615 75.8403 113.884 75.6055C114.154 75.3707 114.361 75.0725 114.488 74.7377C114.531 74.6454 114.542 74.5414 114.52 74.4421C114.438 74.2126 114.112 74.2252 113.877 74.2849L112.598 74.5993C112.351 74.6496 112.111 74.7309 111.884 74.8414C111.608 75.0094 111.361 75.2219 111.154 75.4703C110.483 76.1966 109.8 76.945 109.43 77.8631C109.264 78.2782 109.167 78.7184 108.994 79.1209C108.84 79.5453 108.543 79.9023 108.154 80.1302C107.953 80.2404 107.791 80.4117 107.693 80.6195C107.594 80.8273 107.564 81.0611 107.606 81.2873C107.707 81.7439 107.906 82.173 108.189 82.5451C108.663 83.2892 109.201 83.9909 109.796 84.6423C110.227 85.0345 110.597 85.4892 110.893 85.9913C111.075 86.3623 111.154 86.7773 111.313 87.1547C111.402 87.3306 111.471 87.5163 111.517 87.7081C111.537 87.8457 111.537 87.9855 111.517 88.1231C111.251 90.2141 109.706 91.9183 109.129 93.9433C109.1 94.0128 109.086 94.0873 109.086 94.1625C109.086 94.2378 109.102 94.3122 109.131 94.3814C109.16 94.4507 109.202 94.5136 109.256 94.5663C109.309 94.619 109.373 94.6605 109.442 94.6885C110.564 95.5406 111.95 95.9808 113.278 96.4053C113.501 95.695 113.668 94.9686 113.78 94.2326Z" fill="black"/>
<path opacity="0.75" d="M113.598 94.1382C113.868 92.6949 114.237 91.2723 114.704 89.8808C114.964 89.2136 115.15 88.5198 115.259 87.8118C115.319 87.2553 115.259 86.6924 115.316 86.1359C115.359 85.6548 115.475 85.1926 115.548 84.7084C115.688 83.7393 115.629 82.7516 115.375 81.8061C115.175 81.0547 115.375 80.1396 114.886 79.5296C114.692 79.2812 114.432 79.0926 114.228 78.8505C114.117 78.7378 114.037 78.599 113.993 78.4467C113.95 78.2945 113.946 78.1338 113.98 77.9795C114.664 78.1349 115.37 78.1573 116.062 78.0455C116.269 78.0229 116.468 77.953 116.644 77.8411C116.731 77.7842 116.799 77.7044 116.843 77.6106C116.887 77.5168 116.904 77.4126 116.892 77.3097C116.859 77.2107 116.806 77.1194 116.737 77.0411C116.669 76.9628 116.585 76.8991 116.491 76.8538C115.877 76.4736 115.187 76.2346 114.47 76.1541C113.753 76.0736 113.027 76.1537 112.344 76.3885C112.324 76.3349 112.323 76.2758 112.342 76.2216C112.361 76.1675 112.399 76.1219 112.448 76.0929C112.545 76.0389 112.651 76.0037 112.761 75.9891C113.109 75.9097 113.432 75.7453 113.701 75.5105C113.97 75.2757 114.177 74.9778 114.303 74.6434C114.346 74.5521 114.357 74.4492 114.335 74.3509C114.253 74.1182 113.927 74.1308 113.708 74.1906L112.432 74.505C112.184 74.5547 111.943 74.6361 111.715 74.7471C111.438 74.9151 111.192 75.1275 110.984 75.376C110.314 76.1023 109.63 76.8507 109.261 77.7688C109.094 78.1839 108.997 78.6241 108.825 79.0265C108.671 79.451 108.374 79.808 107.985 80.0359C107.784 80.1468 107.623 80.3182 107.525 80.5258C107.427 80.7334 107.396 80.9668 107.437 81.193C107.538 81.6496 107.737 82.0786 108.019 82.4507C108.495 83.1942 109.033 83.8958 109.627 84.548C110.058 84.9402 110.428 85.3949 110.724 85.8969C110.906 86.268 110.984 86.683 111.144 87.0635C111.234 87.2381 111.302 87.4228 111.348 87.6137C111.368 87.7513 111.368 87.8912 111.348 88.0288C111.081 90.1198 109.536 91.824 108.96 93.8489C108.931 93.9185 108.917 93.993 108.917 94.0682C108.917 94.1434 108.932 94.2178 108.961 94.2871C108.991 94.3564 109.033 94.4192 109.087 94.4719C109.14 94.5246 109.204 94.5662 109.273 94.5942C110.395 95.4463 111.78 95.8865 113.109 96.311C113.327 95.6003 113.491 94.874 113.598 94.1382Z" fill="#FBBEBE"/>
<path opacity="0.75" d="M114.441 93.6131C114.486 93.6332 114.524 93.6674 114.548 93.7106C114.568 93.7643 114.568 93.8235 114.548 93.8772C114.24 94.8087 113.835 95.7046 113.338 96.5499C112.341 96.0007 111.369 95.4127 110.42 94.786C110.18 94.6558 109.978 94.4651 109.834 94.2326C108.433 91.519 113.51 93.0691 114.441 93.6131Z" fill="#3F3D56"/>
<path opacity="0.1" d="M108.85 94.9275C108.521 95.3677 108.142 95.7639 107.816 96.2072C107.278 97.0313 106.801 97.8941 106.39 98.7887C105.787 99.935 105.061 101.012 104.224 101.999C103.381 102.993 102.372 104.011 102.278 105.313C102.288 105.5 102.248 105.685 102.162 105.851C102.068 105.989 101.902 106.058 101.779 106.165C101.657 106.272 101.582 106.48 101.707 106.609C101.225 106.659 101.024 107.238 100.93 107.719L100.717 108.819C100.653 109.107 100.618 109.401 100.614 109.696C100.645 110.095 100.741 110.486 100.899 110.854C101.409 112.205 102.074 113.492 102.88 114.69C103.265 115.262 103.71 115.837 104.343 116.111C104.947 116.318 105.592 116.378 106.224 116.287C107.117 116.23 108.154 116.089 108.599 115.309C108.881 114.815 108.837 114.177 109.145 113.699C109.323 113.467 109.52 113.249 109.734 113.048C110.065 112.621 110.311 112.135 110.458 111.614C111.273 109.278 111.927 106.888 112.413 104.461C112.541 103.641 112.756 102.836 113.056 102.062C113.396 101.372 113.794 100.712 114.247 100.09C115.04 98.8862 115.159 97.8423 115.707 96.5091C114.498 96.2261 113.94 95.4211 112.909 94.7388C111.937 94.0942 110.498 92.7233 109.461 92.2233C109.119 93.0817 109.405 94.1728 108.85 94.9275Z" fill="black"/>
<path opacity="0.1" d="M108.11 94.2672C107.797 94.7074 107.402 95.1067 107.079 95.5501C106.54 96.3724 106.063 97.2342 105.653 98.1284C105.051 99.2762 104.325 100.354 103.488 101.342C102.641 102.336 101.635 103.351 101.541 104.656C101.55 104.841 101.51 105.026 101.425 105.191C101.309 105.309 101.179 105.415 101.04 105.505C100.918 105.618 100.846 105.819 100.968 105.945C100.485 105.999 100.285 106.574 100.194 107.058L99.9805 108.159C99.9135 108.445 99.8788 108.739 99.8771 109.033C99.9065 109.433 100.003 109.825 100.162 110.193C100.672 111.544 101.336 112.831 102.14 114.029C102.525 114.602 102.974 115.177 103.607 115.451C104.211 115.658 104.855 115.718 105.487 115.627C106.377 115.57 107.418 115.425 107.86 114.649C108.142 114.152 108.098 113.517 108.405 113.036C108.586 112.807 108.783 112.59 108.994 112.388C109.326 111.961 109.573 111.475 109.721 110.954C110.536 108.618 111.188 106.228 111.674 103.801C111.797 102.98 112.007 102.175 112.301 101.399C112.642 100.71 113.04 100.052 113.492 99.4302C114.288 98.2259 114.241 97.5121 114.789 96.1758C113.579 95.8959 113.184 94.7608 112.153 94.0785C111.182 93.4339 109.746 92.063 108.706 91.563C108.383 92.4246 108.668 93.5188 108.11 94.2672Z" fill="black"/>
<path opacity="0.75" d="M108.521 94.5973C108.207 95.0375 107.813 95.4368 107.49 95.877C106.95 96.7001 106.473 97.5631 106.064 98.4585C105.463 99.6058 104.736 100.682 103.898 101.669C103.052 102.666 102.046 103.681 101.952 104.983C101.961 105.169 101.921 105.355 101.836 105.521C101.718 105.639 101.589 105.744 101.45 105.835C101.328 105.948 101.256 106.15 101.378 106.275C100.896 106.326 100.695 106.904 100.604 107.388L100.391 108.489C100.324 108.775 100.289 109.069 100.288 109.363C100.318 109.763 100.413 110.155 100.57 110.523C101.082 111.873 101.746 113.159 102.55 114.356C102.936 114.932 103.384 115.507 104.017 115.781C104.622 115.986 105.266 116.047 105.898 115.957C106.788 115.9 107.828 115.756 108.27 114.979C108.552 114.482 108.508 113.844 108.815 113.366C108.997 113.136 109.194 112.918 109.405 112.715C109.736 112.289 109.983 111.803 110.132 111.284C110.947 108.947 111.599 106.556 112.084 104.128C112.207 103.308 112.417 102.504 112.711 101.729C113.052 101.04 113.451 100.382 113.902 99.7603C114.697 98.554 115.374 97.2736 115.924 95.9368C114.722 95.631 113.584 95.1124 112.564 94.4055C111.592 93.7766 110.157 92.39 109.116 91.89C108.794 92.7516 109.076 93.8584 108.521 94.5973Z" fill="#F86D70"/>
<path opacity="0.75" d="M111.633 96.2229C111.995 96.2229 112.288 95.9287 112.288 95.5657C112.288 95.2028 111.995 94.9086 111.633 94.9086C111.271 94.9086 110.978 95.2028 110.978 95.5657C110.978 95.9287 111.271 96.2229 111.633 96.2229Z" fill="#3F3D56"/>
<path opacity="0.75" d="M109.583 99.4333C109.945 99.4333 110.238 99.1391 110.238 98.7761C110.238 98.4132 109.945 98.119 109.583 98.119C109.222 98.119 108.928 98.4132 108.928 98.7761C108.928 99.1391 109.222 99.4333 109.583 99.4333Z" fill="#3F3D56"/>
<path opacity="0.75" d="M107.452 102.725C107.814 102.725 108.107 102.431 108.107 102.068C108.107 101.705 107.814 101.411 107.452 101.411C107.09 101.411 106.797 101.705 106.797 102.068C106.797 102.431 107.09 102.725 107.452 102.725Z" fill="#3F3D56"/>
<path opacity="0.75" d="M140.836 117.089H134.838C134.766 116.68 134.813 116.218 134.546 115.903C134.51 116.223 134.517 116.545 134.568 116.862C134.584 116.938 134.603 117.013 134.622 117.089H126.993C126.971 116.124 127.062 115.161 127.266 114.218C127.521 112.84 127.666 111.444 127.702 110.042C127.739 108.31 127.611 106.584 127.601 104.851C127.595 103.137 127.705 101.425 127.93 99.7258C128.137 98.1536 128.444 96.5814 128.19 95.0093C127.905 93.2704 127.661 91.5096 127.441 89.7614C127.406 89.3745 127.333 88.9922 127.222 88.62C127.132 88.3597 127.027 88.1046 126.909 87.8559C126.337 86.5922 125.994 85.237 125.893 83.8531C125.849 83.3312 125.113 82.8595 125.122 82.3313C126.125 82.1269 127.915 81.8754 128.883 82.2244C129.851 82.5734 130.566 83.4318 131.538 83.7557C132.509 84.0795 133.537 83.8437 134.481 84.1613C134.682 84.2079 134.856 84.3322 134.966 84.5072C135.019 84.6608 135.009 84.8287 134.941 84.9758C134.873 85.1228 134.75 85.2377 134.6 85.2964C134.298 85.4023 133.974 85.4273 133.659 85.3687C134.704 86.1338 135.717 86.9409 136.699 87.7899C137.047 88.0542 137.337 88.387 137.552 88.7677C137.736 89.2297 137.815 89.727 137.784 90.2236C137.784 90.8021 137.784 91.3775 137.8 91.9561C137.8 93.0692 138.357 94.0943 138.552 95.1885C138.796 96.572 138.918 97.9712 139.031 99.3704C139.097 100.185 139.16 100.999 139.194 101.817C139.257 103.389 139.53 104.961 139.555 106.518C139.555 107.002 139.555 107.489 139.599 107.97C139.644 108.442 139.713 108.911 139.805 109.376C139.987 110.385 140.169 111.398 140.354 112.407C140.409 112.671 140.439 112.939 140.442 113.209C140.382 113.594 140.373 113.985 140.413 114.372C140.463 114.535 140.525 114.693 140.598 114.847C140.838 115.568 140.919 116.333 140.836 117.089V117.089Z" fill="#F86D70"/>
<path opacity="0.75" d="M119.55 62.937C124.443 62.937 128.41 61.3899 128.41 59.4814C128.41 57.5729 124.443 56.0258 119.55 56.0258C114.656 56.0258 110.69 57.5729 110.69 59.4814C110.69 61.3899 114.656 62.937 119.55 62.937Z" fill="#3F3D56"/>
<path opacity="0.75" d="M124.314 62.9716C121.53 61.8742 120.44 64.2671 120.44 64.2671C119.368 67.1347 121.38 68.8138 122.59 69.5338C123.05 69.8076 123.575 69.952 124.11 69.952C124.498 69.9539 124.883 69.878 125.241 69.7288C126.033 69.421 126.731 68.9108 127.266 68.249C127.801 67.5872 128.154 66.7966 128.291 65.9556C128.786 62.0755 124.314 62.9716 124.314 62.9716ZM127.216 66.0216C127.107 66.7152 126.821 67.3689 126.387 67.9196C125.953 68.4704 125.384 68.8996 124.737 69.1659C124.391 69.3118 124.015 69.373 123.64 69.3446C123.266 69.3161 122.904 69.1989 122.584 69.0024C121.596 68.405 119.963 67.0026 120.835 64.6161C120.835 64.6161 121.722 62.6226 123.969 63.5376C123.984 63.5313 127.62 62.7829 127.216 66.0216V66.0216Z" fill="#F86D70"/>
<path opacity="0.75" d="M123.984 63.5313C123.984 63.5313 127.62 62.783 127.216 66.0216C127.106 66.7152 126.821 67.3689 126.387 67.9196C125.953 68.4704 125.384 68.8996 124.737 69.166C124.446 69.2886 124.134 69.3516 123.818 69.3515V69.3515C123.382 69.3519 122.955 69.2311 122.584 69.0025C121.596 68.405 119.963 67.0026 120.835 64.6161C120.835 64.6161 121.722 62.6163 123.984 63.5313Z" fill="#3F3D56"/>
<path opacity="0.1" d="M123.984 63.5313C123.984 63.5313 127.62 62.783 127.216 66.0216C127.106 66.7152 126.821 67.3689 126.387 67.9196C125.953 68.4704 125.384 68.8996 124.737 69.166C124.446 69.2886 124.134 69.3516 123.818 69.3515V69.3515C123.382 69.3519 122.955 69.2311 122.584 69.0025C121.596 68.405 119.963 67.0026 120.835 64.6161C120.835 64.6161 121.722 62.6163 123.984 63.5313Z" fill="url(#paint1_radial)"/>
<path opacity="0.75" d="M109.875 65.9619C110.011 66.8028 110.365 67.5934 110.899 68.2553C111.434 68.9171 112.132 69.4272 112.924 69.7351C113.283 69.8843 113.668 69.9602 114.056 69.9583C114.591 69.9583 115.116 69.8138 115.576 69.5401C116.792 68.8201 118.798 67.141 117.726 64.2734C117.726 64.2734 116.635 61.8805 113.852 62.9779C113.852 62.9716 109.38 62.0755 109.875 65.9619ZM114.181 63.5313C116.444 62.6163 117.315 64.6098 117.315 64.6098C118.186 66.9964 116.554 68.383 115.566 68.9961C115.246 69.1926 114.884 69.3099 114.509 69.3383C114.135 69.3667 113.759 69.3055 113.413 69.1597C112.766 68.8933 112.197 68.4641 111.763 67.9133C111.329 67.3626 111.043 66.7089 110.934 66.0153C110.546 62.7829 114.181 63.5313 114.181 63.5313V63.5313Z" fill="#F86D70"/>
<path opacity="0.75" d="M114.181 63.5313C114.181 63.5313 110.545 62.783 110.95 66.0216C111.059 66.7152 111.344 67.3689 111.779 67.9196C112.213 68.4704 112.781 68.8996 113.429 69.166C113.72 69.2886 114.032 69.3516 114.347 69.3515V69.3515C114.783 69.3519 115.21 69.2311 115.582 69.0025C116.569 68.405 118.202 67.0026 117.331 64.6161C117.331 64.6161 116.444 62.6163 114.181 63.5313Z" fill="#3F3D56"/>
<path opacity="0.1" d="M114.181 63.5313C114.181 63.5313 110.545 62.783 110.95 66.0216C111.059 66.7152 111.344 67.3689 111.779 67.9196C112.213 68.4704 112.781 68.8996 113.429 69.166C113.72 69.2886 114.032 69.3516 114.347 69.3515V69.3515C114.783 69.3519 115.21 69.2311 115.582 69.0025C116.569 68.405 118.202 67.0026 117.331 64.6161C117.331 64.6161 116.444 62.6163 114.181 63.5313Z" fill="url(#paint2_radial)"/>
</g>
<path d="M44.5914 167.139L45.1236 144.575L61.444 144.269V167.139H44.5914Z" fill="#3F3D56"/>
<path d="M92.2222 150.612V154.364L84.4168 164.191L2.28235 161.869V157.759L24.2848 149.681L92.2222 150.612Z" fill="#3F3D56"/>
<path opacity="0.1" d="M92.2222 150.612V154.364L84.4168 164.191L2.28235 161.869V158.116L83.8846 160.082L92.2222 150.612Z" fill="black"/>
<path d="M92.2223 147.396V150.612L83.8847 160.082L23.5699 158.629V154.722L43.2609 147.396H92.2223Z" fill="#AFB6C1"/>
<path opacity="0.1" d="M92.2223 147.396V150.612L83.8847 160.082L23.5699 158.629V154.722L83.8847 156.33L92.2223 147.396Z" fill="black"/>
<path d="M44.5027 150.612L45.0349 111.125L61.3553 110.589V150.612H44.5027Z" fill="#3F3D56"/>
<path d="M89.0131 119.676C88.3887 123.226 85.8289 126.067 83.379 128.698C80.2515 132.055 77.3103 135.376 74.1828 138.735H34.0717C33.6886 138.735 33.1706 138.66 32.7998 138.768L32.1984 138.946C29.22 136.74 26.9138 133.765 24.6485 130.817L20.5471 125.492C18.4538 122.773 16.2416 119.63 16.7508 116.228C16.783 115.864 16.913 115.516 17.1269 115.222C17.3363 115.003 17.5865 114.827 17.8631 114.705C23.5397 111.802 29.926 110.685 36.0462 108.875C36.9935 108.595 37.9975 108.262 38.6379 107.51C39.5036 106.508 39.5249 105.052 39.7928 103.758C40.0606 102.464 40.6354 101.192 40.9565 99.8808C41.3273 98.3567 41.3556 96.7737 41.3805 95.2031C41.4089 93.514 41.4366 91.8256 41.4638 90.1377C41.491 88.4498 41.5182 86.7732 41.5455 85.108C48.1091 84.9793 54.5876 84.4701 61.1229 84.9829C61.7917 85.0365 62.5155 85.1169 63.0015 85.5797C63.3758 85.937 63.5337 86.4587 63.6703 86.9626C64.1901 88.9602 64.426 91.0042 64.5786 93.0662C64.8003 96.0536 64.85 99.0714 65.3449 102.021C65.6181 103.653 66.0545 105.32 67.0941 106.603C68.5363 108.389 70.8602 109.118 73.0351 109.819C77.5421 111.262 81.977 112.906 86.3398 114.75C86.9944 115.027 87.6632 115.32 88.1634 115.822C89.132 116.783 89.2509 118.324 89.0131 119.676Z" fill="#AFB6C1"/>
<path opacity="0.1" d="M64.5786 93.0554C63.2552 94.5045 60.6333 95.3657 59.145 96.1876C57.6566 97.0095 56.1292 97.8385 54.4581 98.0083C52.4837 98.2102 50.5466 97.4722 48.6963 96.7575C47.7011 96.368 46.7006 95.9749 45.7994 95.3996C43.8481 94.1489 42.5868 92.2121 41.4639 90.1341C41.4911 88.4581 41.5183 86.7815 41.5455 85.1044C48.1091 84.9757 54.5876 84.4665 61.1229 84.9793C61.7917 85.0329 62.5155 85.1133 63.0016 85.5761C63.3759 85.9334 63.5337 86.4551 63.6703 86.959C64.1972 88.9494 64.426 90.9935 64.5786 93.0554Z" fill="black"/>
<path d="M67.5251 84.2164C67.997 83.859 68.5558 83.6196 69.0117 83.2372C69.4772 82.813 69.8604 82.3053 70.1417 81.7399C70.9489 80.2784 71.5502 78.6328 71.4207 76.9658C71.2912 75.2987 70.2961 73.6227 68.7243 73.0849C69.7124 70.0117 68.9017 66.6794 68.0751 63.5562C67.8107 62.5503 67.5429 61.5336 67.0639 60.6098C66.1042 58.7606 64.3834 57.4401 62.629 56.3395C60.6084 55.0727 58.4211 53.9953 56.0653 53.6433C53.6261 53.286 51.1213 53.7166 48.801 54.5545C47.5592 55.0048 46.3174 55.5909 45.3914 56.5486C44.7155 57.2472 44.2365 58.1138 43.6405 58.8838C42.6755 60.1346 41.3982 61.1334 40.5999 62.4949C39.7129 64.0047 39.5089 65.8057 39.3191 67.5496L38.6876 73.3404C38.2689 72.7526 37.3624 72.699 36.7362 73.0688C36.11 73.4387 35.7517 74.1195 35.5193 74.8038C35.1878 75.7987 35.0795 76.8553 35.2022 77.8974C35.3249 78.9395 35.6756 79.9413 36.2289 80.8305C36.7203 81.6042 37.3571 82.2724 37.9195 82.996C40.7791 86.666 41.8736 91.8672 45.7852 94.3705C46.6864 94.9458 47.6869 95.3389 48.6821 95.7284C50.5323 96.4431 52.4695 97.1882 54.4439 96.9791C56.1221 96.8005 57.6512 95.9732 59.1307 95.1567C60.9419 94.1579 64.4384 93.0965 65.2208 90.99C66.0935 88.6958 65.2615 85.9424 67.5251 84.2164Z" fill="#AFB6C1"/>
<path opacity="0.1" d="M48.8701 85.7315C49.3775 85.3527 49.8618 84.9293 50.4348 84.6595C51.2271 84.2964 52.1285 84.258 52.9485 84.5523C53.1093 84.6274 53.2825 84.6723 53.4594 84.6845C53.6862 84.6502 53.9043 84.5719 54.1016 84.454C54.8874 84.1092 55.801 84.3593 56.5851 84.7077C57.6241 85.2025 58.6225 85.7796 59.5707 86.4337C59.1925 86.5532 58.8251 86.7051 58.4726 86.8875C58.0664 87.0984 57.6796 87.3503 57.2734 87.5629C56.2472 88.0705 55.1348 88.3778 53.9951 88.4688C53.6894 88.5024 53.382 88.5173 53.0744 88.5135C51.8203 88.4885 50.6175 88.0329 49.4449 87.5826L48.4089 87.1895L47.8927 86.993C47.788 86.9519 47.4563 86.8893 47.3978 86.7982C47.2754 86.6195 47.8359 86.4123 47.9956 86.3158C48.2989 86.1353 48.5863 85.9388 48.8701 85.7315Z" fill="black"/>
<path opacity="0.1" d="M59.0527 71.5679C59.1885 71.5065 59.3277 71.4528 59.4695 71.4071C60.2941 71.1449 61.1823 71.1708 61.9905 71.4805C62.7986 71.7901 63.4792 72.3656 63.9222 73.1135C63.7927 73.1421 63.6809 73.0313 63.5816 72.9437C63.3029 72.7354 62.9966 72.5676 62.6716 72.4452C62.4569 72.3434 62.2493 72.2255 62.0311 72.1326C61.2537 71.8287 60.4012 71.7781 59.5937 71.9878C58.8185 72.1665 58.1746 72.5596 57.465 72.9009C57.465 72.6418 57.9475 72.2862 58.1355 72.1308C58.4149 71.9027 58.7234 71.7134 59.0527 71.5679V71.5679Z" fill="black"/>
<path opacity="0.1" d="M61.0041 74.1963C61.774 74.2213 62.6007 74.1355 63.2003 73.6603C62.8348 73.6245 62.4783 73.755 62.1217 73.8389C61.469 73.9944 60.7899 73.9999 60.1348 73.855C59.8084 73.7818 59.4891 73.6764 59.1574 73.6174C58.8853 73.5544 58.6014 73.5674 58.3361 73.6549C58.4212 73.9033 59.3277 73.9962 59.5778 74.0426C60.0488 74.1293 60.5256 74.1807 61.0041 74.1963V74.1963Z" fill="black"/>
<path opacity="0.1" d="M47.6816 71.5679C47.5459 71.5062 47.4067 71.4525 47.2647 71.4071C46.4402 71.1449 45.5519 71.1708 44.7438 71.4805C43.9357 71.7901 43.255 72.3656 42.8121 73.1135C42.9416 73.1421 43.0533 73.0313 43.1544 72.9437C43.4326 72.7361 43.7383 72.5689 44.0627 72.447C44.2774 72.3452 44.4849 72.2272 44.7031 72.1343C45.4812 71.8305 46.3342 71.7798 47.1423 71.9896C47.9158 72.1683 48.5615 72.5614 49.2622 72.9026C49.2622 72.6436 48.7779 72.288 48.5899 72.1326C48.3136 71.9042 48.0081 71.7143 47.6816 71.5679V71.5679Z" fill="black"/>
<path opacity="0.1" d="M45.7267 74.1963C44.9586 74.2213 44.1301 74.1355 43.5323 73.6602C43.8977 73.6245 44.2543 73.7549 44.6109 73.8389C45.263 73.9943 45.9414 73.9998 46.5959 73.855C46.9241 73.7817 47.2434 73.6763 47.5734 73.6174C47.846 73.5545 48.1306 73.5675 48.3965 73.6549C48.3113 73.9032 47.4031 73.9962 47.1547 74.0426C46.6831 74.1292 46.2058 74.1805 45.7267 74.1963V74.1963Z" fill="black"/>
<path opacity="0.1" d="M50.9404 81.3736C51.5635 81.3736 52.0686 81.1697 52.0686 80.918C52.0686 80.6664 51.5635 80.4624 50.9404 80.4624C50.3173 80.4624 49.8121 80.6664 49.8121 80.918C49.8121 81.1697 50.3173 81.3736 50.9404 81.3736Z" fill="black"/>
<path opacity="0.1" d="M55.9093 81.3736C56.5324 81.3736 57.0375 81.1697 57.0375 80.918C57.0375 80.6664 56.5324 80.4624 55.9093 80.4624C55.2861 80.4624 54.781 80.6664 54.781 80.918C54.781 81.1697 55.2861 81.3736 55.9093 81.3736Z" fill="black"/>
<path opacity="0.1" d="M29.4754 114.234C30.9107 113.727 32.4232 113.478 33.944 113.498C35.4306 113.517 36.9012 113.794 38.3789 113.95C40.7099 114.196 43.0586 114.141 45.402 114.085" fill="black"/>
<path opacity="0.1" d="M74.1013 114.234C72.666 113.727 71.1535 113.478 69.6326 113.498C68.1461 113.517 66.6754 113.794 65.1977 113.95C62.8668 114.196 60.518 114.141 58.1764 114.085" fill="black"/>
<path opacity="0.1" d="M48.3326 122.476C48.9163 124.084 50.8836 124.749 51.744 126.228C52.0143 126.747 52.2119 127.301 52.3311 127.874L52.7888 129.661C52.6114 128.78 52.434 127.888 52.4837 126.991C52.5334 126.094 52.8562 125.178 53.5268 124.586C53.8958 124.293 54.3029 124.053 54.7366 123.871L57.4561 122.572" fill="black"/>
<defs>
<linearGradient id="paint0_linear" x1="26404.9" y1="28153.9" x2="26404.9" y2="14938.5" gradientUnits="userSpaceOnUse">
<stop stop-color="#808080" stop-opacity="0.25"/>
<stop offset="0.54" stop-color="#808080" stop-opacity="0.12"/>
<stop offset="1" stop-color="#808080" stop-opacity="0.1"/>
</linearGradient>
<radialGradient id="paint1_radial" cx="0" cy="0" r="1" gradientUnits="userSpaceOnUse" gradientTransform="translate(123.916 66.3172) scale(3.17796 3.18836)">
<stop stop-color="white"/>
<stop offset="1"/>
</radialGradient>
<radialGradient id="paint2_radial" cx="0" cy="0" r="1" gradientUnits="userSpaceOnUse" gradientTransform="translate(-12336.4 1726.17) rotate(180) scale(67.531 61.4468)">
<stop stop-color="white"/>
<stop offset="1"/>
</radialGradient>
</defs>
</svg>
