<svg width="145" height="148" viewBox="0 0 145 148" fill="none" xmlns="http://www.w3.org/2000/svg">
<path d="M37.2868 51.3477L32.3971 54.1143L83.3203 121.095L88.2099 118.328L37.2868 51.3477Z" fill="#2F2E41"/>
<path d="M25.6087 26.5481L36.974 41.1314C37.1941 41.4138 37.2719 41.7582 37.1902 42.0889C37.1086 42.4195 36.8742 42.7093 36.5386 42.8946C36.203 43.0798 35.7938 43.1452 35.4009 43.0765C35.0079 43.0078 34.6636 42.8105 34.4435 42.5281L21.3777 25.7629C19.6042 25.6383 17.8216 25.8847 16.1887 26.4801L30.4244 44.7465C30.6443 45.0289 30.722 45.3733 30.6403 45.7039C30.5586 46.0345 30.3242 46.3242 29.9887 46.5094C29.6532 46.6946 29.244 46.7601 28.8512 46.6914C28.4583 46.6228 28.114 46.4256 27.8938 46.1433L13.6581 27.8769C12.3585 28.9001 11.3798 30.1779 10.809 31.5965L23.8748 48.3617C24.0947 48.6441 24.1724 48.9885 24.0907 49.3191C24.009 49.6497 23.7746 49.9394 23.4391 50.1246C23.1036 50.3098 22.6944 50.3752 22.3016 50.3066C21.9087 50.2379 21.5644 50.0408 21.3442 49.7585L9.97892 35.1752C9.68701 39.2414 11.2623 44.0609 14.7147 48.4908C21.1311 56.724 31.5976 60.4922 38.0923 56.9074C44.5869 53.3226 44.6503 43.7422 38.2339 35.509C34.7814 31.0791 30.1566 27.9429 25.6087 26.5481Z" fill="#2F2E41"/>
<path d="M59.2111 42.3043H53.3769V122.713H59.2111V42.3043Z" fill="#2F2E41"/>
<path d="M56.294 47.8286C63.9913 47.8286 70.2312 39.5842 70.2312 29.4143C70.2312 19.2444 63.9913 11 56.294 11C48.5967 11 42.3568 19.2444 42.3568 29.4143C42.3568 39.5842 48.5967 47.8286 56.294 47.8286Z" fill="#2F2E41"/>
<path d="M72.5 126.396C108.122 126.396 137 124.885 137 123.02C137 121.156 108.122 119.644 72.5 119.644C36.8776 119.644 8 121.156 8 123.02C8 124.885 36.8776 126.396 72.5 126.396Z" fill="#E6E6E6"/>
<path d="M110.507 123.29C86.2291 119.554 61.3639 119.554 37.0856 123.29C36.6999 123.35 36.3037 123.337 35.9247 123.251C35.5457 123.166 35.1933 123.011 34.8924 122.796C34.5914 122.582 34.3492 122.314 34.1829 122.011C34.0165 121.708 33.9301 121.377 33.9297 121.042V92.6367H113.663V121.042C113.663 121.377 113.577 121.708 113.41 122.011C113.244 122.314 113.002 122.582 112.701 122.796C112.4 123.011 112.047 123.166 111.668 123.251C111.289 123.337 110.893 123.35 110.507 123.29Z" fill="#6C63FF"/>
<path d="M106.335 71.5288C104.51 71.5274 102.698 71.7897 100.973 72.305C98.4578 67.5848 94.4381 63.5833 89.3861 60.77C84.3341 57.9568 78.4594 56.4485 72.4514 56.4223C66.4433 56.396 60.5513 57.8528 55.4667 60.6218C50.3821 63.3907 46.3159 67.3569 43.7454 72.0548C41.2142 71.4405 38.5494 71.3615 35.9756 71.8244C33.4017 72.2873 30.9941 73.2785 28.9557 74.7146C26.9172 76.1507 25.3075 77.9895 24.2622 80.0763C23.2168 82.1631 22.7665 84.4366 22.9492 86.7054C23.1318 88.9742 23.9421 91.1718 25.3116 93.113C26.6812 95.0543 28.57 96.6824 30.8189 97.8602C33.0678 99.038 35.6109 99.7309 38.2341 99.8807C40.8573 100.03 43.4837 99.6327 45.892 98.7208C48.7866 102.537 52.7402 105.664 57.3917 107.818C62.0432 109.972 67.2443 111.083 72.52 111.05C77.7957 111.017 82.9778 109.842 87.593 107.63C92.2082 105.419 96.1094 102.242 98.9402 98.3906C101.152 99.3565 103.588 99.8765 106.065 99.9116C108.542 99.9467 110.996 99.496 113.243 98.5933C115.49 97.6906 117.472 96.3593 119.039 94.6994C120.606 93.0395 121.718 91.094 122.292 89.0091C122.866 86.9241 122.887 84.7537 122.353 82.6608C121.819 80.568 120.743 78.607 119.208 76.925C117.672 75.243 115.716 73.8837 113.487 72.9491C111.257 72.0145 108.812 71.529 106.335 71.5288Z" fill="#6C63FF"/>
<path d="M40.7523 83.4295H40.4121C40.4005 79.3958 41.4029 75.4109 43.3458 71.7672L43.6533 71.8969C41.732 75.5001 40.7408 79.4407 40.7523 83.4295Z" fill="#3F3D56"/>
<path d="M103.94 83.4295H103.656C103.665 79.4474 102.877 75.5114 101.347 71.8969L101.604 71.7672C103.151 75.4223 103.948 79.4027 103.94 83.4295Z" fill="#3F3D56"/>
<path d="M34.0155 105.527L33.9297 105.215C34.03 105.193 44.1351 102.955 58.944 101.844C72.6122 100.819 93.2006 100.572 113.663 105.216L113.577 105.526C93.164 100.895 72.6205 101.141 58.981 102.163C44.1985 103.271 34.1155 105.504 34.0155 105.527Z" fill="#3F3D56"/>
<path d="M34.0155 109.823L33.9297 109.512C34.03 109.49 44.1351 107.251 58.944 106.141C72.6122 105.116 93.2006 104.869 113.663 109.512L113.577 109.823C93.164 105.191 72.6205 105.438 58.981 106.46C44.1985 107.568 34.1155 109.801 34.0155 109.823Z" fill="#3F3D56"/>
<path d="M34.0155 113.506L33.9297 113.239C34.03 113.22 44.1351 111.302 58.944 110.35C72.6122 109.471 93.2006 109.259 113.663 113.239L113.577 113.506C93.164 109.536 72.6205 109.747 58.981 110.623C44.1985 111.573 34.1155 113.487 34.0155 113.506Z" fill="#3F3D56"/>
<path d="M24.5008 122.414C20.847 124.451 17.1932 124.45 13.5394 122.412C13.4238 122.348 13.3298 122.258 13.2678 122.15C13.2058 122.043 13.1782 121.922 13.1878 121.801L14.3279 108.596H23.5493L24.8518 121.796C24.863 121.918 24.8362 122.041 24.7742 122.15C24.7122 122.259 24.6176 122.35 24.5008 122.414Z" fill="#3F3D56"/>
<path d="M19.0201 109.823C21.8842 109.823 24.206 109.136 24.206 108.289C24.206 107.441 21.8842 106.754 19.0201 106.754C16.156 106.754 13.8342 107.441 13.8342 108.289C13.8342 109.136 16.156 109.823 19.0201 109.823Z" fill="#3F3D56"/>
<path d="M22.9095 108.02C20.4542 109.606 18.0773 109.606 15.7789 108.02V105.527H22.9095V108.02Z" fill="#6C63FF"/>
<path d="M19.3442 106.754C21.3133 106.754 22.9095 106.067 22.9095 105.22C22.9095 104.372 21.3133 103.685 19.3442 103.685C17.3751 103.685 15.7789 104.372 15.7789 105.22C15.7789 106.067 17.3751 106.754 19.3442 106.754Z" fill="#6C63FF"/>
<path d="M19.3443 105.527C19.5233 105.527 19.6684 105.389 19.6684 105.22C19.6684 105.05 19.5233 104.913 19.3443 104.913C19.1653 104.913 19.0201 105.05 19.0201 105.22C19.0201 105.389 19.1653 105.527 19.3443 105.527Z" fill="#E6E6E6"/>
<path d="M20.9648 105.527C21.3228 105.527 21.6131 105.389 21.6131 105.22C21.6131 105.05 21.3228 104.913 20.9648 104.913C20.6068 104.913 20.3166 105.05 20.3166 105.22C20.3166 105.389 20.6068 105.527 20.9648 105.527Z" fill="#E6E6E6"/>
<path d="M18.0478 105.527C18.2268 105.527 18.3719 105.389 18.3719 105.22C18.3719 105.05 18.2268 104.913 18.0478 104.913C17.8687 104.913 17.7236 105.05 17.7236 105.22C17.7236 105.389 17.8687 105.527 18.0478 105.527Z" fill="#E6E6E6"/>
<path d="M132.089 122.414C128.232 124.451 124.376 124.45 120.519 122.412C120.397 122.348 120.298 122.258 120.232 122.15C120.167 122.043 120.138 121.922 120.148 121.801L121.351 108.596H131.085L132.46 121.796C132.472 121.918 132.443 122.041 132.378 122.15C132.312 122.259 132.212 122.35 132.089 122.414Z" fill="#3F3D56"/>
<path d="M126.304 109.823C128.989 109.823 131.166 109.136 131.166 108.289C131.166 107.441 128.989 106.754 126.304 106.754C123.619 106.754 121.442 107.441 121.442 108.289C121.442 109.136 123.619 109.823 126.304 109.823Z" fill="#3F3D56"/>
<path d="M129.869 108.02C127.414 109.606 125.037 109.606 122.739 108.02V105.527H129.869V108.02Z" fill="#6C63FF"/>
<path d="M126.304 106.754C128.273 106.754 129.869 106.067 129.869 105.22C129.869 104.372 128.273 103.685 126.304 103.685C124.335 103.685 122.739 104.372 122.739 105.22C122.739 106.067 124.335 106.754 126.304 106.754Z" fill="#6C63FF"/>
<path d="M128.249 105.527C128.428 105.527 128.573 105.389 128.573 105.22C128.573 105.05 128.428 104.913 128.249 104.913C128.07 104.913 127.925 105.05 127.925 105.22C127.925 105.389 128.07 105.527 128.249 105.527Z" fill="#E6E6E6"/>
<path d="M125.008 105.527C125.187 105.527 125.332 105.389 125.332 105.22C125.332 105.05 125.187 104.913 125.008 104.913C124.829 104.913 124.683 105.05 124.683 105.22C124.683 105.389 124.829 105.527 125.008 105.527Z" fill="#E6E6E6"/>
<path d="M84.8874 76.4206H83.7697V77.0165H84.8874V76.4206Z" fill="#3F3D56"/>
<path d="M87.1228 76.4206H86.0051V77.0165H87.1228V76.4206Z" fill="#3F3D56"/>
<path d="M89.3581 76.4206H88.2404V77.0165H89.3581V76.4206Z" fill="#3F3D56"/>
<path d="M91.5936 76.4206H90.4759V77.0165H91.5936V76.4206Z" fill="#3F3D56"/>
<path d="M93.8289 76.4206H92.7112V77.0165H93.8289V76.4206Z" fill="#3F3D56"/>
<path d="M96.0644 76.4206H94.9467V77.0165H96.0644V76.4206Z" fill="#3F3D56"/>
<path d="M98.2998 76.4206H97.1821V77.0165H98.2998V76.4206Z" fill="#3F3D56"/>
<path d="M100.535 76.4206H99.4175V77.0165H100.535V76.4206Z" fill="#3F3D56"/>
<path d="M102.771 76.4206H101.653V77.0165H102.771V76.4206Z" fill="#3F3D56"/>
<path d="M105.006 76.4206H103.888V77.0165H105.006V76.4206Z" fill="#3F3D56"/>
<path d="M107.241 76.4206H106.124V77.0165H107.241V76.4206Z" fill="#3F3D56"/>
<path d="M109.803 76.8036C109.803 80.0548 108.39 83.1727 105.874 85.4716C103.359 87.7705 99.9475 89.062 96.3903 89.062C92.8332 89.062 89.4217 87.7705 86.9064 85.4716C84.3911 83.1727 82.978 80.0548 82.978 76.8036H109.803Z" fill="#3F3D56"/>
<path d="M109.154 76.882L100.623 53.6388C102.292 53.1257 104.057 52.9184 105.814 53.0289C107.572 53.1394 109.288 53.5655 110.865 54.2827C112.442 55 113.849 55.9944 115.006 57.209C116.162 58.4237 117.045 59.8347 117.604 61.3615C117.695 61.6076 117.777 61.8553 117.849 62.103C118.727 65.1151 118.317 68.3197 116.702 71.0652C115.087 73.8106 112.388 75.8906 109.154 76.882Z" fill="#3F3D56"/>
<path d="M109.477 78.719C110.403 78.719 111.153 78.033 111.153 77.1867C111.153 76.3405 110.403 75.6544 109.477 75.6544C108.551 75.6544 107.8 76.3405 107.8 77.1867C107.8 78.033 108.551 78.719 109.477 78.719Z" fill="#3F3D56"/>
<path d="M92.432 79.9959C92.3084 79.9959 92.19 80.0408 92.1027 80.1206C92.0153 80.2004 91.9662 80.3087 91.9662 80.4216C91.9662 80.5345 92.0153 80.6427 92.1027 80.7225C92.19 80.8024 92.3084 80.8472 92.432 80.8472H100.442C100.566 80.8472 100.684 80.8024 100.771 80.7225C100.859 80.6427 100.908 80.5345 100.908 80.4216C100.908 80.3087 100.859 80.2004 100.771 80.1206C100.684 80.0408 100.566 79.9959 100.442 79.9959H92.432Z" fill="#6C63FF"/>
<path d="M107.521 98.9794L105.853 99.0357L99.8444 87.2256L101.365 86.5795L107.521 98.9794Z" fill="#3F3D56"/>
<path d="M85.2599 98.9794L86.9277 99.0357L92.9363 87.2256L91.416 86.5795L85.2599 98.9794Z" fill="#3F3D56"/>
<path d="M103.329 92.1692H89.5445V93.0204H103.329V92.1692Z" fill="#3F3D56"/>
<path d="M100.964 53.2048C100.898 53.2048 100.834 53.2189 100.775 53.2459C100.717 53.2728 100.666 53.3119 100.627 53.36C100.588 53.4082 100.562 53.4639 100.551 53.5229C100.54 53.5819 100.544 53.6425 100.563 53.6997L100.916 54.7582C100.949 54.8553 101.022 54.9366 101.12 54.9843C101.218 55.032 101.333 55.0421 101.439 55.0125C101.546 54.9829 101.635 54.9159 101.687 54.8263C101.739 54.7367 101.751 54.6318 101.718 54.5346L101.365 53.4762C101.339 53.3977 101.285 53.329 101.213 53.2801C101.141 53.2313 101.054 53.2049 100.964 53.2048Z" fill="#6C63FF"/>
<path d="M82.4191 77.0165C82.308 77.0165 82.2014 77.0568 82.1228 77.1287C82.0442 77.2005 82 77.298 82 77.3996C82 77.5012 82.0442 77.5986 82.1228 77.6704C82.2014 77.7423 82.308 77.7826 82.4191 77.7826H83.63C83.7411 77.7826 83.8477 77.7423 83.9264 77.6704C84.005 77.5986 84.0491 77.5012 84.0491 77.3996C84.0491 77.298 84.005 77.2005 83.9264 77.1287C83.8477 77.0568 83.7411 77.0165 83.63 77.0165H82.4191Z" fill="#6C63FF"/>
<path opacity="0.1" fill-rule="evenodd" clip-rule="evenodd" d="M74.306 18.7296C82.77 18.6037 88.8201 3.98409 97.192 5.58667C104.891 7.06051 107.223 20.6869 113.679 26.2665C123.228 34.5197 139.356 32.6429 144.079 46.1116C148.404 58.4427 136.218 70.7911 133.92 83.9866C131.609 97.2538 137.47 113.767 130.51 124.02C123.464 134.398 110.337 132.042 99.7546 134.31C91.2693 136.129 82.764 134.048 74.306 136.065C63.7643 138.579 54.391 150.171 43.8516 147.641C33.4689 145.15 23.069 135.48 19.2436 122.852C15.2474 109.661 27.0202 94.8529 23.7635 81.3312C20.1055 66.1428 2.64661 60.5743 0.474743 44.9238C-1.55976 30.2632 3.00508 11.3999 13.0105 3.84482C24.2708 -4.65778 38.8352 3.14568 51.674 6.26342C59.8434 8.24725 65.992 18.8532 74.306 18.7296Z" fill="#6C63FF"/>
</svg>
