<svg width="274" height="206" viewBox="0 0 274 206" fill="none" xmlns="http://www.w3.org/2000/svg">
<path opacity="0.1" fill-rule="evenodd" clip-rule="evenodd" d="M144.822 0.159882C172.588 -2.3537 189.215 25.3441 205.412 42.8824C217.412 55.8756 214.442 73.57 225.198 87.1929C238.225 103.692 274.718 110.438 273.989 129.736C273.288 148.304 243.267 157.994 222.181 167.033C205.665 174.114 184.959 169.438 167.665 175.317C146.265 182.591 133.844 202.412 110.68 204.933C83.7287 207.867 51.5766 205.331 33.075 189.966C14.5818 174.607 24.2099 149.937 19.6086 129.299C14.8438 107.927 -11.1924 83.9333 5.54567 66.4908C23.5197 47.7604 67.0208 65.3342 92.7481 53.0815C117.703 41.1967 115.677 2.79829 144.822 0.159882Z" fill="#6C63FF"/>
<path d="M103.265 155.898H101.547L102.12 119.059H102.692L103.265 155.898Z" fill="#E6E6E6"/>
<path d="M163.894 69.045C163.98 69.045 164.065 69.0265 164.144 68.9905C164.223 68.9545 164.295 68.9018 164.356 68.8353C164.416 68.7688 164.464 68.6899 164.497 68.6031C164.53 68.5162 164.547 68.4231 164.547 68.3291V60.6929C164.548 60.5781 164.523 60.4647 164.476 60.3625C164.428 60.2603 164.358 60.1724 164.273 60.1063C164.187 60.0401 164.088 59.9978 163.984 59.9829C163.88 59.9681 163.775 59.9811 163.677 60.0208V51.3863C163.677 51.0729 163.62 50.7626 163.511 50.4731C163.402 50.1836 163.241 49.9205 163.039 49.6989C162.837 49.4773 162.597 49.3016 162.333 49.1816C162.069 49.0617 161.787 49 161.501 49H90.3546C90.0688 49 89.7859 49.0617 89.5219 49.1816C89.258 49.3016 89.0181 49.4773 88.8161 49.6989C88.6141 49.9205 88.4538 50.1836 88.3444 50.4731C88.2351 50.7626 88.1788 51.0729 88.1788 51.3863V156.145C88.1788 156.778 88.4081 157.385 88.8161 157.833C89.2241 158.28 89.7775 158.532 90.3546 158.532H161.501C162.078 158.532 162.631 158.28 163.039 157.833C163.447 157.385 163.677 156.778 163.677 156.145V79.7395C163.775 79.7793 163.88 79.7923 163.984 79.7774C164.088 79.7625 164.187 79.7202 164.273 79.6541C164.358 79.588 164.428 79.5001 164.476 79.3979C164.523 79.2957 164.548 79.1823 164.547 79.0675V71.4313C164.548 71.3164 164.523 71.2031 164.476 71.1009C164.428 70.9987 164.358 70.9108 164.273 70.8446C164.187 70.7785 164.088 70.7362 163.984 70.7213C163.88 70.7065 163.775 70.7195 163.677 70.7592V69.0011C163.746 69.0294 163.82 69.0442 163.894 69.045V69.045Z" fill="#3F3D56"/>
<path d="M157.149 53.6533C157.435 53.6533 157.718 53.715 157.982 53.8349C158.246 53.9549 158.486 54.1306 158.688 54.3522C158.89 54.5738 159.05 54.8369 159.16 55.1264C159.269 55.4159 159.325 55.7262 159.325 56.0396V151.492C159.325 152.125 159.096 152.732 158.688 153.179C158.28 153.627 157.726 153.878 157.149 153.878H94.7061C94.129 153.878 93.5756 153.627 93.1676 153.179C92.7596 152.732 92.5303 152.125 92.5303 151.492V56.0396C92.5303 55.4067 92.7596 54.7997 93.1676 54.3522C93.5756 53.9047 94.129 53.6533 94.7061 53.6533H157.149Z" fill="white"/>
<path d="M125.928 52.3408C126.408 52.3408 126.798 51.9135 126.798 51.3863C126.798 50.8591 126.408 50.4318 125.928 50.4318C125.447 50.4318 125.057 50.8591 125.057 51.3863C125.057 51.9135 125.447 52.3408 125.928 52.3408Z" fill="white"/>
<path d="M151.767 66.1749H98.289V72.0037H151.767V66.1749Z" fill="#EAA9DC"/>
<path d="M151.767 79.905H98.289V82.1127H151.767V79.905Z" fill="#E6E6E6"/>
<path d="M151.767 86.6435H98.289V88.8512H151.767V86.6435Z" fill="#E6E6E6"/>
<path d="M125.921 93.4673H98.289V95.675H125.921V93.4673Z" fill="#E6E6E6"/>
<path d="M151.767 100.412H98.289V102.62H151.767V100.412Z" fill="#E6E6E6"/>
<path d="M151.767 107.357H98.289V109.565H151.767V107.357Z" fill="#E6E6E6"/>
<path d="M124.995 114.302H98.289V116.51H124.995V114.302Z" fill="#E6E6E6"/>
<path d="M151.767 121.247H98.289V123.455H151.767V121.247Z" fill="#E6E6E6"/>
<path d="M151.767 128.192H98.289V130.4H151.767V128.192Z" fill="#E6E6E6"/>
<path d="M151.83 136.711H134.943V142.8H151.83V136.711Z" fill="#6C63FF"/>
<path d="M95.2398 94.4725L94.8823 94.3298L99.2162 81.27C99.8843 79.2567 99.7959 77.0347 98.9703 75.093C98.1447 73.1512 96.6497 71.6486 94.814 70.9158L69.4503 60.7907C68.5413 60.4278 67.5762 60.2649 66.6098 60.3112C65.6435 60.3574 64.6949 60.612 63.8183 61.0604C62.9417 61.5087 62.1541 62.142 61.5007 62.9242C60.8472 63.7063 60.3406 64.622 60.0098 65.6189L36.1178 137.615C35.787 138.612 35.6384 139.67 35.6806 140.73C35.7228 141.79 35.9549 142.831 36.3637 143.792C36.7725 144.753 37.3499 145.617 38.063 146.334C38.7762 147.051 39.611 147.606 40.5199 147.969L65.8837 158.094C67.7194 158.827 69.7453 158.73 71.5157 157.825C73.2861 156.919 74.6561 155.279 75.3242 153.266L91.8028 103.61L92.1603 103.752L95.2398 94.4725Z" fill="#3F3D56"/>
<path d="M97.818 80.1267L73.8094 152.474C73.3105 153.978 72.2873 155.202 70.9651 155.879C69.6429 156.555 68.13 156.627 66.7591 156.08L41.3465 145.935C39.9756 145.388 38.8591 144.266 38.2425 142.816C37.626 141.366 37.5599 139.706 38.0589 138.203L62.0675 65.8552C62.5172 64.4999 63.4394 63.3961 64.6312 62.7866C65.8229 62.1771 67.1866 62.1118 68.4223 62.6051L72.0102 64.0373C71.7513 64.3549 71.5584 64.7303 71.4447 65.1377C71.3311 65.545 71.2993 65.9745 71.3518 66.3966C71.4288 66.8703 71.613 67.3153 71.8874 67.6908C72.1618 68.0663 72.5177 68.3604 72.9225 68.546L87.7076 74.4482C88.1265 74.5914 88.5715 74.617 89.0018 74.5228C89.4321 74.4286 89.834 74.2175 90.1707 73.9089C90.4582 73.6225 90.6855 73.2711 90.8371 72.8789C90.9887 72.4868 91.061 72.0632 91.0488 71.6375L94.8547 73.1568C96.0904 73.6501 97.0968 74.6615 97.6525 75.9686C98.2082 77.2757 98.2678 78.7714 97.818 80.1267V80.1267Z" fill="white"/>
<path d="M86.8523 95.2287L58.9936 84.1076L57.9859 87.1441L85.8447 98.2652L86.8523 95.2287Z" fill="#6C63FF"/>
<path d="M85.1513 100.496L57.2926 89.3752L56.9109 90.5252L84.7697 101.646L85.1513 100.496Z" fill="#E6E6E6"/>
<path d="M83.9946 103.724L56.1359 92.6033L55.7542 93.7534L83.6129 104.875L83.9946 103.724Z" fill="#E6E6E6"/>
<path d="M68.2477 104.566L53.8531 98.82L53.4715 99.9701L67.8661 105.716L68.2477 104.566Z" fill="#E6E6E6"/>
<path d="M83.0693 107.044L55.2106 95.9231L54.8289 97.0732L82.6877 108.194L83.0693 107.044Z" fill="#E6E6E6"/>
<path d="M80.5246 113.178L52.6659 102.057L52.2842 103.207L80.143 114.328L80.5246 113.178Z" fill="#E6E6E6"/>
<path d="M78.149 115.583L69.3516 112.071L68.2989 115.243L77.0963 118.755L78.149 115.583Z" fill="#EAA9DC"/>
<path d="M215.646 176.057C215.646 176.057 195.039 167.957 197.983 145.198C200.927 122.439 199.945 124.754 199.945 124.754C199.945 124.754 204.852 112.024 213.683 107.395C213.683 107.395 192.586 90.4229 175.904 121.282C175.904 121.282 171.489 139.798 174.923 152.141C178.358 164.485 186.208 174.514 186.208 174.514C186.208 174.514 193.567 180.3 201.908 180.3C210.249 180.3 215.646 176.057 215.646 176.057Z" fill="#807D7D"/>
<path d="M249.745 162.363C249.745 162.363 237.97 187.051 201.172 182.422C164.374 177.793 174.187 127.647 174.187 127.647C174.187 127.647 170.075 165.054 191.59 176.056C197.551 179.104 205.337 179.131 211.031 175.782C214.804 173.563 218.038 169.692 217.608 162.942L249.745 162.363Z" fill="#3C3F85"/>
<path d="M248.598 115.394C248.598 115.394 231.837 91.5801 195.53 99.6806C173.024 107.219 173.443 126.631 173.443 126.631C170.729 158.815 199.937 158.295 206.814 123.982C208.022 117.958 205.588 114.532 205.588 114.532C205.588 114.532 202.153 122.632 191.605 124.368C181.04 126.107 179.233 123.341 179.584 119.16C179.588 119.119 179.591 119.077 179.595 119.036C179.884 115.65 181.555 112.427 184.36 109.847C190.408 104.311 203.59 96.2262 217.608 113.182L218.59 115.089C218.59 115.089 235.92 118.764 248.598 115.394Z" fill="#3C3F85"/>
<path d="M221.529 114.724C218.993 114.727 216.563 115.52 214.77 116.929C212.977 118.338 211.969 120.249 211.966 122.243V157.622C211.969 159.697 213.019 161.687 214.885 163.154C216.752 164.622 219.282 165.447 221.922 165.449H245.597C248.778 165.446 251.828 164.452 254.077 162.683C256.326 160.915 257.591 158.518 257.595 156.017V124.23C257.591 121.71 256.316 119.294 254.05 117.512C251.783 115.73 248.71 114.727 245.504 114.724L221.529 114.724Z" fill="#3F3D56"/>
<path d="M225.634 116.267C224.287 116.269 222.995 116.69 222.042 117.439C221.09 118.188 220.554 119.204 220.552 120.263V160.104C220.554 161.163 221.09 162.179 222.042 162.928C222.995 163.677 224.287 164.098 225.634 164.099H248.149C250.849 164.097 253.437 163.253 255.345 161.752C257.254 160.251 258.328 158.217 258.331 156.094V123.32C258.328 121.45 257.382 119.658 255.701 118.335C254.019 117.013 251.739 116.27 249.361 116.267H225.634Z" fill="#6C63FF"/>
<path opacity="0.2" d="M224.804 116.489C224.171 116.86 223.656 117.342 223.301 117.896C222.946 118.451 222.761 119.063 222.76 119.684V159.525C222.761 160.584 223.297 161.6 224.25 162.349C225.203 163.098 226.495 163.519 227.842 163.521H250.357C251.211 163.518 252.062 163.43 252.888 163.26C251.368 163.937 249.651 164.292 247.904 164.292H225.389C224.042 164.291 222.75 163.87 221.797 163.12C220.844 162.371 220.308 161.356 220.307 160.296V120.456C220.309 119.476 220.768 118.532 221.596 117.8C222.425 117.069 223.567 116.603 224.804 116.489V116.489Z" fill="black"/>
<path d="M213.683 135.554C216.393 135.554 218.59 133.396 218.59 130.733C218.59 128.07 216.393 125.911 213.683 125.911C210.974 125.911 208.777 128.07 208.777 130.733C208.777 133.396 210.974 135.554 213.683 135.554Z" fill="#6C63FF"/>
<path opacity="0.2" d="M217.118 130.733C217.118 128.4 215.432 126.455 213.193 126.008C213.513 125.944 213.843 125.911 214.174 125.911C216.884 125.911 219.08 128.07 219.08 130.733C219.08 133.396 216.884 135.554 214.174 135.554C213.843 135.554 213.513 135.522 213.193 135.458C215.432 135.011 217.118 133.065 217.118 130.733Z" fill="black"/>
<path d="M212.702 143.076V153.106C212.702 153.464 212.883 153.807 213.205 154.06C213.527 154.313 213.964 154.456 214.419 154.456C214.875 154.456 215.311 154.313 215.633 154.06C215.956 153.807 216.136 153.464 216.136 153.106V143.076C216.136 142.718 215.956 142.375 215.633 142.122C215.311 141.869 214.875 141.726 214.419 141.726C213.964 141.726 213.527 141.869 213.205 142.122C212.883 142.375 212.702 142.718 212.702 143.076V143.076Z" fill="#6C63FF"/>
<path opacity="0.2" d="M215.4 153.106V143.076C215.399 142.787 215.279 142.505 215.058 142.273C214.837 142.041 214.527 141.872 214.174 141.789C214.333 141.749 214.498 141.728 214.665 141.726C215.12 141.727 215.556 141.869 215.878 142.122C216.2 142.375 216.381 142.718 216.382 143.076V153.106C216.381 153.464 216.2 153.807 215.878 154.06C215.556 154.313 215.12 154.455 214.665 154.456C214.498 154.454 214.333 154.433 214.174 154.393C214.527 154.31 214.837 154.141 215.058 153.909C215.279 153.677 215.399 153.395 215.4 153.106Z" fill="black"/>
<path d="M188.17 163.713C189.525 163.713 190.623 162.85 190.623 161.785C190.623 160.72 189.525 159.856 188.17 159.856C186.815 159.856 185.717 160.72 185.717 161.785C185.717 162.85 186.815 163.713 188.17 163.713Z" fill="white"/>
<path opacity="0.3" d="M189.642 161.785C189.642 161.34 189.447 160.909 189.089 160.565C188.732 160.221 188.234 159.984 187.68 159.895C188.036 159.838 188.404 159.844 188.757 159.912C189.11 159.981 189.44 160.11 189.721 160.291C190.003 160.472 190.23 160.7 190.386 160.958C190.542 161.216 190.623 161.499 190.623 161.785C190.623 162.071 190.542 162.353 190.386 162.611C190.23 162.87 190.003 163.098 189.721 163.279C189.44 163.459 189.11 163.589 188.757 163.657C188.404 163.726 188.036 163.732 187.68 163.675C188.234 163.586 188.732 163.349 189.089 163.005C189.447 162.66 189.642 162.229 189.642 161.785V161.785Z" fill="black"/>
<path d="M187.064 156.06C188.419 156.06 189.517 155.196 189.517 154.131C189.517 153.066 188.419 152.202 187.064 152.202C185.709 152.202 184.611 153.066 184.611 154.131C184.611 155.196 185.709 156.06 187.064 156.06Z" fill="white"/>
<path opacity="0.3" d="M188.536 154.131C188.536 153.686 188.34 153.255 187.983 152.911C187.625 152.567 187.127 152.33 186.573 152.241C186.93 152.184 187.298 152.19 187.651 152.258C188.004 152.327 188.333 152.456 188.615 152.637C188.897 152.818 189.124 153.046 189.28 153.304C189.436 153.563 189.517 153.845 189.517 154.131C189.517 154.417 189.436 154.699 189.28 154.958C189.124 155.216 188.897 155.444 188.615 155.625C188.333 155.806 188.004 155.935 187.651 156.003C187.298 156.072 186.93 156.078 186.573 156.021C187.127 155.932 187.625 155.695 187.983 155.351C188.34 155.006 188.536 154.575 188.536 154.131V154.131Z" fill="black"/>
<path d="M189.642 120.896C190.997 120.896 192.095 120.033 192.095 118.968C192.095 117.902 190.997 117.039 189.642 117.039C188.287 117.039 187.189 117.902 187.189 118.968C187.189 120.033 188.287 120.896 189.642 120.896Z" fill="white"/>
<path opacity="0.3" d="M191.114 118.968C191.114 118.523 190.919 118.092 190.561 117.748C190.203 117.403 189.706 117.167 189.152 117.078C189.508 117.021 189.876 117.027 190.229 117.095C190.582 117.164 190.912 117.293 191.193 117.474C191.475 117.655 191.702 117.883 191.858 118.141C192.014 118.399 192.095 118.682 192.095 118.968C192.095 119.254 192.014 119.536 191.858 119.794C191.702 120.053 191.475 120.281 191.193 120.461C190.912 120.642 190.582 120.772 190.229 120.84C189.876 120.909 189.508 120.915 189.152 120.857C189.706 120.768 190.203 120.532 190.561 120.187C190.919 119.843 191.114 119.412 191.114 118.968V118.968Z" fill="black"/>
<path opacity="0.2" d="M240.396 146.113C243.105 146.113 245.302 143.954 245.302 141.291C245.302 138.628 243.105 136.469 240.396 136.469C237.686 136.469 235.489 138.628 235.489 141.291C235.489 143.954 237.686 146.113 240.396 146.113Z" fill="white"/>
<path opacity="0.2" d="M240.395 150.301C245.459 150.301 249.563 146.267 249.563 141.291C249.563 136.315 245.459 132.281 240.395 132.281C235.332 132.281 231.228 136.315 231.228 141.291C231.228 146.267 235.332 150.301 240.395 150.301Z" fill="white"/>
<path opacity="0.2" d="M240.396 154.865C248.024 154.865 254.208 148.788 254.208 141.291C254.208 133.794 248.024 127.717 240.396 127.717C232.767 127.717 226.583 133.794 226.583 141.291C226.583 148.788 232.767 154.865 240.396 154.865Z" fill="white"/>
</svg>
