<svg width="257" height="228" viewBox="0 0 257 228" fill="none" xmlns="http://www.w3.org/2000/svg">
<path d="M222.46 133.21C222.939 132.915 223.316 132.507 223.548 132.032C223.78 131.556 223.857 131.032 223.771 130.52C223.685 130.007 223.44 129.526 223.062 129.131C222.685 128.736 222.19 128.444 221.635 128.286L214.481 126.256L210.55 129.287L219.228 133.379C219.732 133.617 220.301 133.727 220.871 133.697C221.44 133.667 221.99 133.499 222.46 133.21V133.21Z" fill="#FFB9B9"/>
<path d="M210.429 131.266L215.146 126.4L197.584 109.3L189.498 92.6211C188.965 91.5221 188.016 90.6238 186.817 90.082C185.617 89.5402 184.242 89.3892 182.931 89.6552V89.6552C182.073 89.8292 181.271 90.1757 180.588 90.6682C179.904 91.1606 179.356 91.786 178.986 92.4962C178.616 93.2064 178.434 93.9826 178.454 94.7651C178.473 95.5477 178.695 96.3158 179.1 97.0105L189.654 115.096L210.429 131.266Z" fill="#444053"/>
<path d="M221.697 195.717L220.793 194.468H219.123V193.924H221.126L222.211 195.421L221.697 195.717Z" fill="#3F3D56"/>
<path d="M217.951 194.468H214.433V193.924H217.951V194.468ZM213.26 194.468H209.742V193.924H213.26V194.468ZM208.57 194.468H205.052V193.924H208.57L208.57 194.468ZM203.879 194.468H200.361V193.924H203.879V194.468ZM199.188 194.468H195.67V193.924H199.188V194.468ZM194.498 194.468L191.238 194.466L190.942 194.431L191.023 193.891L191.299 193.924H194.498V194.468ZM189.78 194.294L186.292 193.881L186.373 193.342L189.86 193.754L189.78 194.294ZM185.13 193.744L181.642 193.332L181.723 192.792L185.21 193.204L185.13 193.744ZM180.48 193.194L176.993 192.782L177.073 192.243L180.561 192.655L180.48 193.194ZM175.83 192.645L172.343 192.232L172.424 191.693L175.911 192.105L175.83 192.645Z" fill="#3F3D56"/>
<path d="M169.654 193.25L169.043 193.235L169.105 191.3L171.261 191.555L171.18 192.095L169.697 191.92L169.654 193.25Z" fill="#3F3D56"/>
<path d="M169.186 207.826L168.575 207.811L168.692 204.167L169.303 204.182L169.186 207.826ZM169.342 202.968L168.731 202.952L168.848 199.308L169.459 199.324L169.342 202.968ZM169.498 198.109L168.887 198.094L169.004 194.45L169.615 194.465L169.498 198.109Z" fill="#3F3D56"/>
<path d="M168.473 210.961L168.536 209.026L169.147 209.041L169.104 210.371L170.595 210.268L170.643 210.811L168.473 210.961Z" fill="#3F3D56"/>
<path d="M171.814 210.73L171.767 210.187L175.28 209.944L175.327 210.487L171.814 210.73ZM176.498 210.406L176.451 209.863L179.964 209.62L180.012 210.163L176.498 210.406ZM181.183 210.083L181.135 209.54L184.649 209.297L184.696 209.84L181.183 210.083ZM185.867 209.759L185.82 209.216L189.333 208.973L189.38 209.516L185.867 209.759ZM190.551 209.435L190.504 208.892L194.017 208.649L194.065 209.192L190.551 209.435ZM195.236 209.111L195.188 208.568L198.702 208.325L198.749 208.868L195.236 209.111ZM199.92 208.787L199.873 208.244L203.386 208.001L203.433 208.544L199.92 208.787ZM204.604 208.464L204.557 207.921L208.07 207.678L208.118 208.221L204.604 208.464ZM209.289 208.14L209.241 207.597L212.755 207.354L212.802 207.897L209.289 208.14ZM213.973 207.816L213.926 207.273L217.439 207.03L217.486 207.573L213.973 207.816ZM218.657 207.492L218.61 206.949L222.124 206.706L222.171 207.249L218.657 207.492ZM223.342 207.168L223.295 206.625L226.808 206.382L226.855 206.925L223.342 207.168Z" fill="#3F3D56"/>
<path d="M228.026 206.845L227.979 206.302L229.298 206.211L228.581 205.221L229.096 204.926L230.368 206.683L228.026 206.845Z" fill="#3F3D56"/>
<path d="M227.816 204.165L225.521 200.997L226.036 200.702L228.331 203.87L227.816 204.165ZM224.756 199.941L222.461 196.773L222.976 196.478L225.271 199.646L224.756 199.941Z" fill="#3F3D56"/>
<path d="M216.523 218.561C228.014 218.561 237.33 210.273 237.33 200.049C237.33 189.826 228.014 181.538 216.523 181.538C205.031 181.538 195.716 189.826 195.716 200.049C195.716 210.273 205.031 218.561 216.523 218.561Z" fill="#6C63FF"/>
<path d="M233.658 221.555L203.212 173.507L196.481 179.496L226.467 221.419L233.658 221.555Z" fill="#3F3D56"/>
<path d="M141.403 220.33L209.791 158.67L215.452 168.607L150.583 223.053L141.403 220.33Z" fill="#3F3D56"/>
<path d="M169.248 213.797C176.852 213.797 183.017 208.312 183.017 201.546C183.017 194.781 176.852 189.296 169.248 189.296C161.643 189.296 155.479 194.781 155.479 201.546C155.479 208.312 161.643 213.797 169.248 213.797Z" fill="#3F3D56"/>
<path d="M150.889 205.085C150.808 205.086 150.73 205.114 150.672 205.165C150.615 205.216 150.583 205.286 150.583 205.358V207.536C150.583 207.608 150.615 207.677 150.672 207.728C150.73 207.779 150.808 207.808 150.889 207.808H158.538C158.62 207.808 158.697 207.779 158.755 207.728C158.812 207.677 158.844 207.608 158.844 207.536V205.358C158.844 205.286 158.812 205.216 158.755 205.165C158.697 205.114 158.62 205.086 158.538 205.085H150.889Z" fill="#6C63FF"/>
<path d="M168.483 174.732C168.402 174.732 168.324 174.76 168.267 174.812C168.209 174.863 168.177 174.932 168.177 175.004V177.182C168.177 177.254 168.209 177.323 168.267 177.374C168.324 177.425 168.402 177.454 168.483 177.454H176.132C176.214 177.454 176.291 177.425 176.349 177.374C176.406 177.323 176.438 177.254 176.438 177.182V175.004C176.438 174.932 176.406 174.863 176.349 174.812C176.291 174.76 176.214 174.732 176.132 174.732H168.483Z" fill="#6C63FF"/>
<path d="M205.66 170.24H197.704V164.795L200.764 163.707L205.66 166.973V170.24Z" fill="#3F3D56"/>
<path d="M198.711 162.328L197.882 162.677L199.452 165.63L200.281 165.281L198.711 162.328Z" fill="#3F3D56"/>
<path d="M199.591 158.794C199.532 158.794 199.475 158.809 199.426 158.838L194.022 161.93C193.953 161.969 193.906 162.031 193.888 162.101C193.871 162.172 193.886 162.245 193.93 162.306L195.254 164.138C195.298 164.199 195.367 164.241 195.446 164.257C195.526 164.272 195.608 164.259 195.677 164.22L201.081 161.127V161.127C201.15 161.088 201.197 161.027 201.215 160.956C201.232 160.885 201.217 160.812 201.173 160.751L199.849 158.919C199.827 158.889 199.799 158.863 199.766 158.843C199.733 158.822 199.696 158.808 199.657 158.801C199.635 158.796 199.613 158.794 199.591 158.794V158.794Z" fill="#6C63FF"/>
<path d="M211.78 169.696L205.507 142.609L212.851 141.52L217.858 163.341C218.073 164.132 218.075 164.957 217.863 165.748C217.651 166.54 217.232 167.276 216.639 167.896C216.046 168.516 215.297 169.002 214.452 169.315C213.608 169.627 212.692 169.758 211.78 169.696Z" fill="#3F3D56"/>
<path d="M234.891 137.272L227.627 136.81C227.53 136.804 227.436 136.777 227.352 136.732C227.269 136.687 227.199 136.625 227.148 136.551C227.098 136.477 227.067 136.394 227.06 136.307C227.053 136.221 227.069 136.134 227.107 136.055L237.659 113.888C237.699 113.805 237.761 113.731 237.841 113.675C237.921 113.618 238.015 113.58 238.115 113.564L245.28 112.426C245.388 112.409 245.498 112.418 245.6 112.451C245.702 112.485 245.792 112.542 245.861 112.617C245.93 112.691 245.975 112.781 245.992 112.877C246.009 112.972 245.998 113.07 245.958 113.16L235.505 136.927C235.457 137.035 235.372 137.127 235.262 137.189C235.151 137.251 235.021 137.28 234.891 137.272Z" fill="#3F3D56"/>
<path d="M228.609 135.122L234.423 135.667L243.908 114.433L237.789 115.25L228.609 135.122Z" fill="#6C63FF"/>
<path d="M165.27 193.38L157.62 200.185L146.605 157.445L152.725 158.262L165.27 193.38Z" fill="#3F3D56"/>
<path d="M156.355 158.197L155.034 157.844C152.438 158.863 149.613 159.336 146.779 159.227C146.167 159.204 145.588 158.971 145.165 158.576C144.742 158.182 144.508 157.657 144.511 157.112V157.112C144.511 156.55 144.762 156.012 145.208 155.615C145.654 155.218 146.259 154.995 146.89 154.995H158.431C158.744 154.995 159.043 155.106 159.264 155.302C159.485 155.499 159.609 155.765 159.609 156.043C159.609 156.394 159.517 156.739 159.34 157.053C159.163 157.366 158.907 157.638 158.59 157.847C158.274 158.057 157.908 158.197 157.52 158.258C157.131 158.319 156.733 158.298 156.355 158.197V158.197Z" fill="#3F3D56"/>
<path d="M229.456 131.469C229.161 131.468 228.873 131.554 228.638 131.714L219.244 138.105L208.729 139.325C206.918 139.536 205.664 141.288 205.507 142.881L217.885 141.352C219.605 141.204 221.23 140.584 222.534 139.576L230.338 133.572C230.546 133.412 230.694 133.2 230.762 132.963C230.83 132.726 230.815 132.477 230.719 132.248C230.623 132.019 230.451 131.821 230.225 131.682C229.999 131.543 229.731 131.468 229.456 131.469V131.469Z" fill="#3F3D56"/>
<path d="M224.866 127.385C224.571 127.385 224.283 127.471 224.049 127.631L214.654 134.022L204.139 135.242C202.328 135.452 201.075 137.204 200.917 138.798L213.295 137.268C215.015 137.121 216.64 136.5 217.945 135.493L225.748 129.489C225.956 129.329 226.104 129.117 226.172 128.88C226.241 128.643 226.226 128.393 226.13 128.164C226.034 127.935 225.861 127.738 225.635 127.598C225.409 127.459 225.141 127.385 224.866 127.385V127.385Z" fill="#3F3D56"/>
<path d="M230.598 143.834C228.41 143.83 226.255 143.369 224.303 142.489C222.352 141.608 220.661 140.333 219.364 138.765L220.598 137.96C221.587 139.163 222.841 140.174 224.282 140.934C225.723 141.693 227.322 142.185 228.983 142.379C230.644 142.573 232.332 142.466 233.944 142.063C235.557 141.661 237.062 140.972 238.367 140.037C239.672 139.103 240.75 137.943 241.537 136.628C242.324 135.312 242.803 133.868 242.946 132.384C243.088 130.899 242.89 129.404 242.365 127.988C241.839 126.573 240.997 125.268 239.888 124.151L241.035 123.249C242.809 125.037 243.965 127.242 244.365 129.599C244.764 131.957 244.391 134.367 243.289 136.54C242.187 138.714 240.403 140.558 238.152 141.852C235.901 143.145 233.278 143.834 230.598 143.834V143.834Z" fill="#3F3D56"/>
<path d="M241.307 220.194H132.989V227H241.307V220.194Z" fill="#3F3D56"/>
<path d="M214.762 140.213C215.303 140.021 215.773 139.697 216.117 139.28C216.462 138.862 216.668 138.366 216.713 137.849C216.757 137.333 216.638 136.815 216.368 136.356C216.099 135.896 215.69 135.513 215.188 135.249L208.72 131.856L204.13 134.034L211.569 139.739C212.002 140.071 212.528 140.29 213.091 140.374C213.654 140.458 214.232 140.402 214.762 140.213V140.213Z" fill="#FFB9B9"/>
<path d="M164.046 164.251L168.33 166.429L194.782 149.107C195.752 148.517 196.574 147.755 197.197 146.869C197.821 145.983 198.231 144.992 198.403 143.958V143.958C198.619 142.651 198.447 141.316 197.906 140.086C197.366 138.855 196.474 137.771 195.319 136.941C189.477 132.719 182.258 128.891 174.603 125.186L163.281 130.086C167.947 138.598 173.126 145.615 180.722 145.603L164.046 164.251Z" fill="#6C63FF"/>
<path d="M162.179 169.796C165.733 173 170.413 175.292 175.641 177.141C176.035 177.28 176.468 177.307 176.879 177.218C177.291 177.129 177.662 176.928 177.94 176.644C178.279 176.299 178.459 175.854 178.444 175.396C178.43 174.938 178.223 174.502 177.864 174.174L174.476 171.079L172.428 164.592C168.032 166.525 165.149 166.093 164.58 162.042L161.809 165.404C161.274 166.056 161.017 166.856 161.084 167.661C161.152 168.466 161.54 169.223 162.179 169.796V169.796Z" fill="#2F2E41"/>
<path d="M150.277 198.552L156.702 198.824L171.39 131.583L146.146 124.369C143.626 132.753 147.368 146.475 153.949 162.618L150.277 198.552Z" fill="#6C63FF"/>
<path d="M199.693 87.6182C205.27 87.6182 209.791 83.5961 209.791 78.6346C209.791 73.6731 205.27 69.651 199.693 69.651C194.117 69.651 189.596 73.6731 189.596 78.6346C189.596 83.5961 194.117 87.6182 199.693 87.6182Z" fill="#FFB9B9"/>
<path d="M181.181 89.6599L187.607 93.7434L197.398 85.032L192.503 79.5874L181.181 89.6599Z" fill="#FFB9B9"/>
<path d="M145.075 125.05C152.999 130.795 161.653 134.572 172.308 132.944C175.527 128.365 177.905 118.718 181.946 114.569C190.773 105.508 195.15 97.432 192.35 90.0682C189.628 88.4849 189.747 88.4875 187.76 83.2625C172.192 85.8249 157.121 101.46 145.075 125.05Z" fill="#444053"/>
<path d="M150.174 204.154C154.748 206.079 160.028 206.803 165.651 206.945C166.075 206.955 166.492 206.848 166.844 206.639C167.197 206.429 167.468 206.128 167.62 205.776V205.776C167.804 205.349 167.801 204.875 167.612 204.45C167.422 204.024 167.059 203.678 166.596 203.479L162.219 201.606L157.794 196.137C154.41 199.295 151.536 199.769 149.44 196.137L148.133 200.141C147.881 200.917 147.948 201.747 148.322 202.482C148.696 203.218 149.353 203.811 150.174 204.154Z" fill="#2F2E41"/>
<path d="M203.518 135.939L209.332 132.128L196.481 111.983L192.763 94.1222C192.518 92.9454 191.818 91.882 190.783 91.1166C189.749 90.3512 188.446 89.9321 187.101 89.9321V89.9321C186.221 89.9321 185.353 90.1115 184.563 90.4565C183.774 90.8014 183.083 91.3028 182.545 91.9221C182.007 92.5414 181.636 93.2622 181.46 94.0291C181.283 94.796 181.307 95.5886 181.529 96.3461L187.301 116.066L203.518 135.939Z" fill="#444053"/>
<path d="M174.297 177.182H170.931V193.516H174.297V177.182Z" fill="#3F3D56"/>
<path d="M207.686 76.0291C208.081 76.4507 208.588 76.7781 209.161 76.9818C209.734 77.1855 210.355 77.2591 210.968 77.196C212.184 77.0275 213.265 76.105 213.343 75.0127C213.41 74.0695 212.787 73.2045 212.133 72.4597C210.69 70.8173 208.977 69.3782 207.051 68.1912C206.133 67.6255 205.119 67.1048 204.004 67.0438C203.453 67.0136 202.9 67.0982 202.348 67.0771C201.332 67.0383 200.381 66.6474 199.39 66.4449C198.373 66.2433 197.319 66.2385 196.3 66.4306C195.281 66.6228 194.32 67.0075 193.482 67.5587C192.923 67.9385 192.418 68.3766 191.977 68.8638C190.757 70.191 189.939 71.7736 189.601 73.4612C189.068 76.1364 189.733 79.0703 188.288 81.4637C189.984 81.3229 191.343 80.1727 192.954 79.6811C194.149 79.3201 195.446 79.3304 196.634 79.7103C196.94 79.8499 197.285 79.9072 197.627 79.8755C197.909 79.7868 198.156 79.6262 198.337 79.4136L201.417 76.4321C202.043 75.8253 202.755 75.1788 203.677 75.0948C204.227 75.0779 204.774 75.1745 205.275 75.3769C206.51 75.7924 207.705 76.2973 208.847 76.8867" fill="#2F2E41"/>
<path d="M201.835 138.253L200.917 138.797L207.037 144.242L210.709 141.248L204.589 136.892L201.835 138.253Z" fill="#3F3D56"/>
<g opacity="0.1">
<mask id="path-41-inside-1" fill="white">
<path d="M58.1726 99.3662L49.2152 84.5146L41.27 98.845L34.3764 83.8265L27.2041 99.1182L26.9544 99.0221C29.8464 90.8955 26.978 67.8592 26.9544 67.6264L26.8439 66.7637L34.3843 83.1914L40.6705 69.782L49.2231 83.9682L57.0447 69.8402L63.6701 84.3907L70.101 67.7504L71.71 67.4417L71.6732 67.629C71.6259 67.8668 67.2326 90.1466 69.7303 97.7014L70.3245 99.0069L70.0878 99.1258C69.8309 98.7041 69.6262 98.2549 69.4779 97.7874L63.6938 85.0789L58.1726 99.3662ZM49.3624 84.2389L58.1174 98.764L63.536 84.7449L57.0211 70.4373L49.3624 84.2389ZM34.5131 83.5026L41.27 98.2555L49.0469 84.2439L40.6837 70.3463L34.5131 83.5026ZM27.304 68.4335C27.7615 72.4007 29.5414 89.3243 27.659 97.4914L34.2318 83.5026L27.304 68.4335ZM63.8279 84.7398L69.1045 96.3276C67.5008 88.0795 70.9449 69.987 71.3761 67.7757L70.306 67.9806L63.8279 84.7398Z"/>
</mask>
<path d="M58.1726 99.3662L49.2152 84.5146L41.27 98.845L34.3764 83.8265L27.2041 99.1182L26.9544 99.0221C29.8464 90.8955 26.978 67.8592 26.9544 67.6264L26.8439 66.7637L34.3843 83.1914L40.6705 69.782L49.2231 83.9682L57.0447 69.8402L63.6701 84.3907L70.101 67.7504L71.71 67.4417L71.6732 67.629C71.6259 67.8668 67.2326 90.1466 69.7303 97.7014L70.3245 99.0069L70.0878 99.1258C69.8309 98.7041 69.6262 98.2549 69.4779 97.7874L63.6938 85.0789L58.1726 99.3662ZM49.3624 84.2389L58.1174 98.764L63.536 84.7449L57.0211 70.4373L49.3624 84.2389ZM34.5131 83.5026L41.27 98.2555L49.0469 84.2439L40.6837 70.3463L34.5131 83.5026ZM27.304 68.4335C27.7615 72.4007 29.5414 89.3243 27.659 97.4914L34.2318 83.5026L27.304 68.4335ZM63.8279 84.7398L69.1045 96.3276C67.5008 88.0795 70.9449 69.987 71.3761 67.7757L70.306 67.9806L63.8279 84.7398Z" fill="black"/>
<path d="M58.1726 99.3662L57.3163 99.8826L58.37 101.63L59.1054 99.7266L58.1726 99.3662ZM49.2152 84.5146L50.0715 83.9982L49.1788 82.518L48.3406 84.0298L49.2152 84.5146ZM41.27 98.845L40.3611 99.2621L41.1859 101.059L42.1445 99.3299L41.27 98.845ZM34.3764 83.8265L35.2852 83.4093L34.3862 81.4506L33.471 83.4018L34.3764 83.8265ZM27.2041 99.1182L26.8449 100.051L27.714 100.386L28.1095 99.5429L27.2041 99.1182ZM26.9544 99.0221L26.0122 98.6868L25.6854 99.6052L26.5952 99.9553L26.9544 99.0221ZM26.9544 67.6264L27.9492 67.5253L27.9479 67.5124L27.9463 67.4995L26.9544 67.6264ZM26.8439 66.7637L27.7528 66.3465L25.852 66.8906L26.8439 66.7637ZM34.3843 83.1914L33.4754 83.6086L34.3747 85.5677L35.2897 83.6159L34.3843 83.1914ZM40.6705 69.782L41.5269 69.2657L40.56 67.6619L39.7651 69.3576L40.6705 69.782ZM49.2231 83.9682L48.3667 84.4845L49.2599 85.9661L50.0979 84.4525L49.2231 83.9682ZM57.0447 69.8402L57.9548 69.4258L57.1318 67.6184L56.1699 69.3559L57.0447 69.8402ZM63.6701 84.3907L62.76 84.8051L63.7456 86.9695L64.6029 84.7512L63.6701 84.3907ZM70.101 67.7504L69.9126 66.7683L69.3681 66.8728L69.1682 67.3899L70.101 67.7504ZM71.71 67.4417L72.6912 67.6346L72.9771 66.1804L71.5216 66.4596L71.71 67.4417ZM71.6732 67.629L72.654 67.8241L72.6544 67.8218L71.6732 67.629ZM69.7303 97.7014L68.7808 98.0153L68.7978 98.0665L68.8201 98.1156L69.7303 97.7014ZM70.3245 99.0069L70.7735 99.9004L71.6332 99.4684L71.2346 98.5927L70.3245 99.0069ZM70.0878 99.1258L69.2339 99.6462L69.7134 100.433L70.5368 100.019L70.0878 99.1258ZM69.4779 97.7874L70.4311 97.4851L70.4129 97.4278L70.388 97.3732L69.4779 97.7874ZM63.6938 85.0789L64.604 84.6646L63.6185 82.4994L62.761 84.7184L63.6938 85.0789ZM49.3624 84.2389L48.488 83.7537L48.2073 84.2596L48.506 84.7551L49.3624 84.2389ZM58.1174 98.764L57.261 99.2802L58.3144 101.028L59.0502 99.1245L58.1174 98.764ZM63.536 84.7449L64.4688 85.1054L64.6204 84.7132L64.4461 84.3305L63.536 84.7449ZM57.0211 70.4373L57.9312 70.0229L57.1091 68.2177L56.1467 69.9521L57.0211 70.4373ZM34.5131 83.5026L33.6077 83.078L33.4109 83.4976L33.6039 83.919L34.5131 83.5026ZM41.27 98.2555L40.3608 98.6719L41.1844 100.47L42.1443 98.7408L41.27 98.2555ZM49.0469 84.2439L49.9213 84.7292L50.2018 84.2237L49.9037 83.7283L49.0469 84.2439ZM40.6837 70.3463L41.5405 69.8306L40.5741 68.2248L39.7783 69.9216L40.6837 70.3463ZM27.304 68.4335L28.2126 68.0158L26.3106 68.5481L27.304 68.4335ZM27.659 97.4914L26.6845 97.2668L28.564 97.9166L27.659 97.4914ZM34.2318 83.5026L35.1369 83.9279L35.3345 83.5072L35.1404 83.0849L34.2318 83.5026ZM63.8279 84.7398L62.8951 84.3793L62.7435 84.7715L62.9178 85.1543L63.8279 84.7398ZM69.1045 96.3276L68.1945 96.742L70.0862 96.1367L69.1045 96.3276ZM71.3761 67.7757L72.3576 67.9671L72.6407 66.5153L71.188 66.7936L71.3761 67.7757ZM70.306 67.9806L70.1179 66.9985L69.5733 67.1028L69.3733 67.6201L70.306 67.9806ZM59.0289 98.8497L50.0715 83.9982L48.3589 85.0311L57.3163 99.8826L59.0289 98.8497ZM48.3406 84.0298L40.3954 98.3601L42.1445 99.3299L50.0898 84.9995L48.3406 84.0298ZM42.1788 98.4278L35.2852 83.4093L33.4676 84.2436L40.3611 99.2621L42.1788 98.4278ZM33.471 83.4018L26.2988 98.6936L28.1095 99.5429L35.2817 84.2511L33.471 83.4018ZM27.5633 98.1849L27.3135 98.0888L26.5952 99.9553L26.8449 100.051L27.5633 98.1849ZM27.8965 99.3574C28.6725 97.1767 29.0387 94.087 29.1769 90.7624C29.3161 87.413 29.2265 83.73 29.0464 80.3114C28.8661 76.8903 28.5943 73.7193 28.3663 71.39C28.1429 69.1079 27.948 67.5133 27.9492 67.5253L25.9595 67.7276C25.9736 67.8667 26.6923 73.6447 27.0491 80.4167C27.2275 83.8021 27.3142 87.4165 27.1786 90.6793C27.042 93.9669 26.6822 96.8042 26.0122 98.6868L27.8965 99.3574ZM27.9463 67.4995L27.8358 66.6367L25.852 66.8906L25.9624 67.7534L27.9463 67.4995ZM25.9351 67.1808L33.4754 83.6086L35.2931 82.7743L27.7528 66.3465L25.9351 67.1808ZM35.2897 83.6159L41.576 70.2065L39.7651 69.3576L33.4788 82.767L35.2897 83.6159ZM39.8141 70.2984L48.3667 84.4845L50.0795 83.4518L41.5269 69.2657L39.8141 70.2984ZM50.0979 84.4525L57.9196 70.3246L56.1699 69.3559L48.3482 83.4838L50.0979 84.4525ZM56.1346 70.2546L62.76 84.8051L64.5802 83.9763L57.9548 69.4258L56.1346 70.2546ZM64.6029 84.7512L71.0337 68.1109L69.1682 67.3899L62.7374 84.0302L64.6029 84.7512ZM70.2894 68.7325L71.8984 68.4238L71.5216 66.4596L69.9126 66.7683L70.2894 68.7325ZM70.7288 67.2489L70.692 67.4361L72.6544 67.8218L72.6912 67.6346L70.7288 67.2489ZM70.6924 67.4338C70.6666 67.5638 69.551 73.2211 68.7546 79.8012C68.3565 83.0903 68.036 86.6277 67.9737 89.8294C67.912 93.0002 68.0996 95.9548 68.7808 98.0153L70.6797 97.3875C70.1121 95.6706 69.9122 93.0071 69.9733 89.8683C70.0338 86.7603 70.3462 83.2963 70.7401 80.0415C71.5278 73.5335 72.6325 67.932 72.654 67.8241L70.6924 67.4338ZM68.8201 98.1156L69.4143 99.4211L71.2346 98.5927L70.6404 97.2871L68.8201 98.1156ZM69.8755 98.1134L69.6388 98.2323L70.5368 100.019L70.7735 99.9004L69.8755 98.1134ZM70.9418 98.6054C70.7262 98.2517 70.555 97.8757 70.4311 97.4851L68.5247 98.0897C68.6974 98.6342 68.9355 99.1565 69.2339 99.6462L70.9418 98.6054ZM70.388 97.3732L64.604 84.6646L62.7836 85.4931L68.5677 98.2017L70.388 97.3732ZM62.761 84.7184L57.2398 99.0057L59.1054 99.7266L64.6266 85.4393L62.761 84.7184ZM48.506 84.7551L57.261 99.2802L58.9739 98.2478L50.2189 83.7226L48.506 84.7551ZM59.0502 99.1245L64.4688 85.1054L62.6033 84.3844L57.1847 98.4035L59.0502 99.1245ZM64.4461 84.3305L57.9312 70.0229L56.111 70.8517L62.626 85.1593L64.4461 84.3305ZM56.1467 69.9521L48.488 83.7537L50.2368 84.7241L57.8955 70.9225L56.1467 69.9521ZM33.6039 83.919L40.3608 98.6719L42.1791 97.8391L35.4223 83.0862L33.6039 83.919ZM42.1443 98.7408L49.9213 84.7292L48.1726 83.7586L40.3956 97.7702L42.1443 98.7408ZM49.9037 83.7283L41.5405 69.8306L39.8268 70.8619L48.1901 84.7595L49.9037 83.7283ZM39.7783 69.9216L33.6077 83.078L35.4185 83.9273L41.589 70.7709L39.7783 69.9216ZM26.3106 68.5481C26.5381 70.5208 27.0947 75.7183 27.36 81.4339C27.627 87.1843 27.5915 93.3317 26.6845 97.2668L28.6334 97.716C29.6089 93.484 29.6246 87.0861 29.3579 81.3411C29.0895 75.5612 28.5274 70.3134 28.2974 68.319L26.3106 68.5481ZM28.564 97.9166L35.1369 83.9279L33.3267 83.0774L26.7539 97.0661L28.564 97.9166ZM35.1404 83.0849L28.2126 68.0158L26.3954 68.8512L33.3232 83.9203L35.1404 83.0849ZM62.9178 85.1543L68.1945 96.742L70.0146 95.9131L64.738 84.3254L62.9178 85.1543ZM70.0862 96.1367C69.3185 92.1886 69.7538 85.7524 70.4698 79.9095C71.1801 74.1127 72.1439 69.0629 72.3576 67.9671L70.3946 67.5843C70.1771 68.6998 69.2032 73.8019 68.4846 79.6662C67.7717 85.4844 67.2868 92.2185 68.1229 96.5184L70.0862 96.1367ZM71.188 66.7936L70.1179 66.9985L70.4941 68.9628L71.5642 68.7579L71.188 66.7936ZM69.3733 67.6201L62.8951 84.3793L64.7606 85.1004L71.2388 68.3412L69.3733 67.6201Z" fill="black" mask="url(#path-41-inside-1)"/>
</g>
<g opacity="0.1">
<path d="M34.8339 99.3989L28.1874 83.3861L28.4372 83.2899L34.847 98.7234L41.27 84.6182L32.7069 69.4783L32.9409 69.3543L41.4041 84.3197L47.8218 70.2322H47.9006L66.9566 68.4991L49.3046 98.817L41.4356 84.9016L34.8339 99.3989ZM41.5723 84.6056L49.3072 98.2831L66.4781 68.7952L48.0111 70.4751L41.5723 84.6056Z" fill="black"/>
</g>
<g opacity="0.1">
<path d="M63.2547 98.6044L63.118 98.3514L47.3117 68.9596L47.551 68.8407L63.2206 97.977L69.1098 83.2925L69.3596 83.3861L63.2547 98.6044Z" fill="black"/>
</g>
<path d="M48.7709 63.7454C36.1931 63.7454 26 65.3621 26 67.3558C26 69.3495 36.1958 70.9662 48.7709 70.9662C61.346 70.9662 71.5418 69.3495 71.5418 67.3558C71.5418 65.3621 61.346 63.7454 48.7709 63.7454ZM48.7709 69.4178C37.229 69.4178 27.8746 68.3779 27.8746 67.0977C27.8746 65.8175 37.229 64.7802 48.7709 64.7802C60.3127 64.7802 69.6646 65.815 69.6646 67.0977C69.6646 68.3805 60.3101 69.4178 48.7709 69.4178V69.4178Z" fill="url(#paint0_linear)"/>
<g opacity="0.2">
<path opacity="0.2" d="M48.7709 63.7454C36.1931 63.7454 26 65.3621 26 67.3558C26 69.3495 36.1958 70.9662 48.7709 70.9662C61.346 70.9662 71.5418 69.3495 71.5418 67.3558C71.5418 65.3621 61.346 63.7454 48.7709 63.7454ZM48.7709 69.4178C37.229 69.4178 27.8746 68.3779 27.8746 67.0977C27.8746 65.8175 37.229 64.7802 48.7709 64.7802C60.3127 64.7802 69.6646 65.815 69.6646 67.0977C69.6646 68.3805 60.3101 69.4178 48.7709 69.4178V69.4178Z" fill="url(#paint1_linear)"/>
</g>
<path d="M48.7709 62.9736C36.1931 62.9736 26 64.5904 26 66.584C26 68.5777 36.1958 70.1945 48.7709 70.1945C61.346 70.1945 71.5418 68.5777 71.5418 66.584C71.5418 64.5904 61.346 62.9736 48.7709 62.9736ZM48.7709 68.6461C37.229 68.6461 27.8746 67.6062 27.8746 66.326C27.8746 65.0458 37.2316 64.0059 48.7709 64.0059C60.3101 64.0059 69.6646 65.0331 69.6646 66.3235C69.6646 67.6138 60.3101 68.6435 48.7709 68.6435V68.6461Z" fill="url(#paint2_linear)"/>
<path opacity="0.1" d="M57.9912 99.1409L49.1994 84.5576L41.3882 98.6273L34.6235 83.8896L27.5985 98.898L27.354 98.8044C30.2039 90.8271 27.3776 68.2209 27.354 67.9932L27.2462 67.1456L34.6471 83.2672L40.8177 70.1109L49.2099 84.0263L56.9053 70.1615L63.4072 84.4412L69.7171 68.1096L71.2946 67.806L71.2578 67.9907C71.2104 68.226 66.8987 90.0883 69.3516 97.504L69.9353 98.7842L69.7013 98.9005C69.4489 98.4869 69.2477 98.0462 69.1019 97.5874L63.423 85.1142L57.9912 99.1409ZM49.3466 84.2944L57.9386 98.5489L63.2547 84.7929L56.8633 70.751L49.3466 84.2944ZM34.7707 83.581L41.4119 98.053L49.0364 84.302L40.8203 70.67L34.7707 83.581ZM27.6957 68.7927C28.1453 72.6839 29.8911 89.2863 28.0428 97.3091L34.4815 83.581L27.6957 68.7927ZM63.5386 84.7853L68.7154 96.1529C67.1379 88.0567 70.519 70.3032 70.9449 68.1349L69.8932 68.3373L63.5386 84.7853Z" fill="black"/>
<path opacity="0.1" d="M35.0863 99.1737L28.5634 83.4594L28.8079 83.3658L35.0994 98.5184L41.4093 84.6688L32.9961 69.8123L33.2275 69.6908L41.5329 84.3652L47.8428 70.5409H47.9191L66.62 68.8407L49.2862 98.6019L41.5645 84.9395L35.0863 99.1737ZM41.6985 84.6562L49.2888 98.0782L66.1415 69.1393L48.019 70.7863L41.6985 84.6562Z" fill="black"/>
<path opacity="0.1" d="M62.9787 98.3945L62.8419 98.144L47.3301 69.3012L47.5641 69.1848L62.9418 97.7771L68.7233 83.3659L68.9678 83.4569L62.9787 98.3945Z" fill="black"/>
<path d="M48.7629 64.183C36.4218 64.183 26.4153 65.7693 26.4153 67.7251C26.4153 69.6808 36.4218 71.2672 48.7629 71.2672C61.1041 71.2672 71.1105 69.6808 71.1105 67.7251C71.1105 65.7693 61.1041 64.183 48.7629 64.183ZM48.7629 69.7491C37.4366 69.7491 28.2557 68.7371 28.2557 67.4721C28.2557 66.207 37.4366 65.195 48.7629 65.195C60.0892 65.195 69.2701 66.207 69.2701 67.4721C69.2701 68.7371 60.0892 69.7491 48.7629 69.7491Z" fill="#5F546F"/>
<path opacity="0.2" d="M48.7629 64.183C36.4218 64.183 26.4153 65.7693 26.4153 67.7251C26.4153 69.6808 36.4218 71.2672 48.7629 71.2672C61.1041 71.2672 71.1105 69.6808 71.1105 67.7251C71.1105 65.7693 61.1041 64.183 48.7629 64.183ZM48.7629 69.7491C37.4366 69.7491 28.2557 68.7371 28.2557 67.4721C28.2557 66.207 37.4366 65.195 48.7629 65.195C60.0892 65.195 69.2701 66.207 69.2701 67.4721C69.2701 68.7371 60.0892 69.7491 48.7629 69.7491Z" fill="black"/>
<path d="M48.7629 63.4238C36.4218 63.4238 26.4153 65.0102 26.4153 66.9659C26.4153 68.9217 36.4218 70.508 48.7629 70.508C61.1041 70.508 71.1105 68.9217 71.1105 66.9659C71.1105 65.0102 61.1041 63.4238 48.7629 63.4238ZM48.7629 68.99C37.4366 68.99 28.2557 67.978 28.2557 66.7129C28.2557 65.4479 37.4366 64.4359 48.7629 64.4359C60.0892 64.4359 69.2701 65.4479 69.2701 66.7129C69.2701 67.978 60.0892 68.99 48.7629 68.99Z" fill="#5F546F"/>
<path d="M171.675 128.538C169.834 128.285 166.432 125.502 166.432 125.502C166.186 125.147 165.848 124.859 165.453 124.665C165.058 124.472 164.617 124.379 164.174 124.396L160.795 119.824C159.486 117.659 157.932 115.638 156.163 113.8C155.874 113.492 155.575 113.192 155.266 112.902C154.355 112.03 153.376 111.227 152.338 110.498C151.654 110.008 151.009 109.47 150.408 108.889C149.852 108.356 149.325 107.796 148.83 107.209L146.48 104.042L146.322 103.827C146.382 103.517 146.398 103.201 146.369 102.888C146.369 102.815 146.354 102.741 146.343 102.668L136.642 91.6924L133.75 86.0149C133.715 86.0428 133.6 86.1364 133.418 86.268L133.366 86.1237V86.058V85.5798C133.351 81.6499 134.365 77.7798 136.313 74.326C136.967 73.1666 137.31 71.868 137.309 70.5486C137.309 70.4424 137.309 70.3361 137.309 70.2298L137.259 70.1767C137.167 70.078 136.957 69.8503 136.686 69.5138C136.721 69.448 136.757 69.3797 136.791 69.3165C137.996 67.1862 139.67 66.8218 139.67 66.8218C145.307 66.0628 149.372 62.4069 149.372 62.4069C153.578 60.1298 152.79 58.1057 152.79 58.1057L148.988 49.2758L146.622 44.6078L145.967 42.4623C145.753 41.0352 145.45 39.6218 145.06 38.2295C144.5 36.1751 141.711 35.5906 140.364 37.2731C140.333 37.3136 140.299 37.3566 140.267 37.4022C139.671 38.231 139.418 39.244 139.557 40.243C139.696 41.242 140.217 42.1552 141.019 42.8039C142.334 43.8817 143.477 44.9873 143.477 44.9873C145.844 45.6173 147.421 57.3492 147.421 57.3492L145.844 58.3613C144.634 58.4217 143.45 58.7226 142.367 59.2452C141.285 59.7677 140.326 60.5005 139.552 61.3974H134.604C134.604 61.3771 134.617 61.3569 134.625 61.3341L133.805 61.157L131.439 60.651L130.563 60.4612L130.55 60.5144L130.303 60.4612V60.4941C129.971 59.9874 129.672 59.461 129.409 58.9179C129.479 58.9282 129.551 58.9282 129.622 58.9179C129.64 58.8799 129.656 58.842 129.669 58.804H129.753C130.119 58.045 129.803 57.0962 130.156 56.322C130.346 55.9954 130.557 55.6803 130.787 55.3783C131.312 54.5054 131.249 53.4125 131.094 52.4105C130.926 51.3327 130.668 50.2322 130.024 49.334C129.38 48.4358 128.268 47.778 127.132 47.9197C126.238 48.0335 125.455 48.623 124.556 48.6787C123.919 48.7141 123.309 48.4738 122.715 48.2865C122.065 48.0849 121.397 47.9384 120.72 47.8488C120.27 47.7881 119.742 47.7805 119.439 48.1018L119.413 48.1347C119.375 48.1627 119.34 48.1941 119.308 48.2283C119.189 48.371 119.1 48.5341 119.045 48.7091L118.464 50.2499C118.434 50.3022 118.418 50.3609 118.418 50.4206C118.418 50.4804 118.434 50.5391 118.464 50.5914C118.516 50.6547 118.608 50.6724 118.679 50.7154C119.14 51.0013 118.522 51.7072 118.903 52.0538C119.132 52.2613 119.621 52.284 120.104 52.2815C119.664 52.9489 119.398 53.7086 119.328 54.4962C119.257 55.2837 119.385 56.076 119.701 56.8058C120.016 57.5357 120.51 58.1816 121.14 58.6888C121.77 59.1961 122.518 59.5498 123.32 59.7199C123.32 59.8034 123.32 59.8869 123.32 59.9729C123.332 60.6402 123.278 61.307 123.157 61.9641V61.9641L122.773 61.997C122.134 62.0299 120.843 62.0779 119.715 62.0273C119.338 62.0129 118.961 61.9783 118.587 61.9236C118.587 61.9236 118.543 62.3841 118.456 63.09L118.193 63.1608C115.741 63.8388 113.612 65.3188 112.172 67.3456L106.273 70.6347C106.273 70.6347 103.643 70.0047 96.0479 76.3121L90.5425 79.0952C90.5425 79.0952 82.1319 81.4785 83.7041 83.872C85.2764 86.2654 93.1427 80.9725 93.1427 80.9725L96.2977 79.586L105.868 75.5379C105.868 75.5379 109.023 73.5139 111.373 72.7548C113.724 71.9958 116.092 69.7188 116.092 69.7188L116.684 69.6884L116.947 69.6732C116.908 69.7412 116.865 69.8071 116.818 69.8706C116.794 69.906 116.768 69.9389 116.742 69.9692V90.2781L116.7 90.8423H116.718L116.087 99.103C116.087 99.103 116.219 102.898 115.693 105.031C115.167 107.164 116.087 115.88 116.087 115.88C116.087 115.88 116.432 115.88 116.992 115.842L116.976 116.095L116.744 119.665C116.744 119.665 116.303 121.041 118.848 121.757C119.431 121.92 119.985 122.165 120.494 122.483L123.428 124.333L126.443 126.104L127.053 127.336L127.082 127.397L126.441 127.02C126.441 127.02 125.915 128.285 127.621 129.922C128.26 130.472 128.759 131.156 129.078 131.922C129.397 132.688 129.528 133.514 129.461 134.337C129.461 134.337 129.724 137.373 131.302 136.614C131.302 136.614 133.792 136.108 133.668 131.946C133.668 131.946 132.674 128.48 133.831 127.015C133.863 126.974 133.896 126.935 133.931 126.898C135.246 125.512 133.537 123.356 133.537 123.356C133.537 123.356 130.5 122.177 130.329 124.136L130.203 124.082C129.656 123.829 128.675 123.215 127.637 121.717C127.637 121.717 125.933 117.555 123.312 117.175L123.751 114.779L123.801 114.504C124.703 114.094 125.434 113.565 125.802 112.884L125.818 112.854V112.841V112.824V112.806V112.788L125.831 112.763V112.743L125.844 112.715L125.86 112.684V112.659L125.878 112.624L125.928 112.598L125.946 112.56L125.962 112.528L125.983 112.485L126.002 112.449L126.023 112.406L126.046 112.361L126.065 112.325L126.091 112.272L126.109 112.237L126.222 112.001L126.238 111.971L126.27 111.905L126.293 111.857L126.328 111.784L126.349 111.741L126.388 111.655L126.404 111.619L126.446 111.531L126.467 111.488L126.509 111.397L126.527 111.356L126.572 111.26L126.59 111.222L126.638 111.121L126.654 111.083L126.701 110.977L126.717 110.941L126.769 110.827V110.807C127.608 108.93 128.662 106.23 128.61 104.631C128.617 104.504 128.617 104.376 128.61 104.249H128.578V104.224C128.578 104.171 128.557 104.12 128.541 104.072L135.619 105.59L139.826 110.005H139.844H139.86H139.878H139.899H139.92L139.946 109.992H139.97L140.004 109.977L140.031 109.965L140.067 109.947L140.099 109.932L140.144 109.909L140.173 109.894L140.223 109.868L140.254 109.851L140.307 109.825L140.343 109.805L140.401 109.775L140.438 109.757L140.499 109.724L140.541 109.701L140.606 109.666L140.651 109.562L140.725 109.522L140.764 109.502L140.84 109.461L140.885 109.436L140.964 109.393L141.006 109.368L141.09 109.319L141.135 109.294L141.222 109.244L141.264 109.218L141.356 109.165H141.371L141.519 109.33L143.359 111.384C145.199 112.143 149.39 115.925 149.39 115.925C149.874 117.041 151.922 118.635 152.969 119.399C153.268 119.612 153.585 119.8 153.918 119.961C154.491 120.247 155.298 120.927 156.037 121.616C157.001 122.532 158.035 123.378 159.131 124.146C160.145 124.889 161.046 125.765 161.81 126.747V126.747L161.9 126.858C161.274 128.882 164.855 130.939 164.855 130.939C166.169 130.686 170.229 134.228 170.229 134.228C170.229 134.228 174.03 137.13 175.603 133.975C177.175 130.82 171.675 128.538 171.675 128.538ZM164.729 125.158L164.203 124.442C164.346 124.506 164.468 124.606 164.559 124.73C164.65 124.854 164.706 124.999 164.721 125.15L164.729 125.158Z" fill="url(#paint3_linear)"/>
<path d="M132.035 63.2241C132.035 63.2241 118.771 70.66 121.606 66.4449C122.831 64.6696 123.473 62.5799 123.446 60.4486C123.446 59.7528 123.348 59.0601 123.157 58.3891L128.694 55.9097C128.598 56.6395 128.666 57.3807 128.894 58.083C129.669 60.7193 132.035 63.2241 132.035 63.2241Z" fill="#DB8B8B"/>
<path opacity="0.1" d="M128.886 58.0854C128.36 58.9888 127.547 59.7061 126.567 60.1319C125.586 60.5577 124.49 60.6696 123.438 60.4511C123.438 59.7552 123.34 59.0626 123.149 58.3916L128.686 55.9121C128.59 56.642 128.658 57.3831 128.886 58.0854V58.0854Z" fill="black"/>
<path d="M124.503 60.3118C127.276 60.3118 129.525 58.1483 129.525 55.4794C129.525 52.8105 127.276 50.647 124.503 50.647C121.73 50.647 119.481 52.8105 119.481 55.4794C119.481 58.1483 121.73 60.3118 124.503 60.3118Z" fill="#DB8B8B"/>
<path opacity="0.1" d="M121.293 52.909C121.778 53.0046 122.206 53.2764 122.489 53.668C122.82 54.174 122.812 54.8673 123.278 55.2619C123.629 55.5117 124.068 55.6189 124.5 55.5605C124.928 55.5007 125.36 55.4863 125.791 55.5175C126.488 55.6263 127.058 56.1222 127.445 56.6889C127.796 57.2766 128.109 57.885 128.381 58.5106C128.492 58.7587 128.651 58.9844 128.849 59.176C128.949 59.2709 129.071 59.3419 129.205 59.3833C129.338 59.4246 129.48 59.435 129.619 59.4138C129.979 58.6548 129.669 57.7338 130.014 56.9773C130.2 56.6569 130.406 56.3477 130.631 56.0513C131.157 55.1936 131.086 54.1209 130.931 53.1367C130.765 52.0766 130.513 50.9963 129.879 50.1158C129.246 49.2353 128.155 48.5977 127.05 48.7268C126.172 48.8381 125.402 49.4175 124.519 49.4681C123.896 49.5035 123.293 49.2682 122.699 49.0835C122.061 48.8854 121.405 48.7415 120.741 48.6534C120.299 48.5952 119.781 48.5851 119.484 48.9064C119.366 49.0457 119.277 49.2054 119.221 49.377L118.65 50.895C118.621 50.9466 118.606 51.0045 118.606 51.0633C118.606 51.1221 118.621 51.18 118.65 51.2315C118.703 51.2923 118.792 51.31 118.861 51.3555C119.313 51.6364 118.706 52.3296 119.079 52.6712C119.452 53.0127 120.77 52.7901 121.293 52.909Z" fill="black"/>
<path d="M121.422 52.7848C121.907 52.8805 122.335 53.1523 122.618 53.5439C122.949 54.0499 122.941 54.7431 123.407 55.1378C123.758 55.3876 124.197 55.4948 124.629 55.4364C125.056 55.3766 125.489 55.3621 125.92 55.3933C126.617 55.5021 127.187 55.998 127.574 56.5648C127.925 57.1525 128.238 57.7609 128.51 58.3864C128.621 58.6345 128.78 58.8603 128.978 59.0518C129.078 59.1468 129.2 59.2178 129.333 59.2591C129.467 59.3004 129.609 59.3109 129.748 59.2897C130.108 58.5306 129.798 57.6097 130.142 56.8532C130.329 56.5328 130.535 56.2235 130.76 55.9272C131.286 55.0695 131.215 53.9967 131.06 53.0125C130.894 51.9524 130.642 50.8721 130.008 49.9916C129.375 49.1112 128.284 48.4736 127.179 48.6026C126.301 48.714 125.531 49.2933 124.647 49.3439C124.024 49.3794 123.422 49.1441 122.828 48.9594C122.19 48.7613 121.534 48.6174 120.869 48.5293C120.428 48.4711 119.91 48.4609 119.613 48.7823C119.495 48.9215 119.405 49.0813 119.35 49.2529L118.779 50.7709C118.75 50.8225 118.734 50.8803 118.734 50.9392C118.734 50.998 118.75 51.0559 118.779 51.1074C118.832 51.1681 118.921 51.1858 118.99 51.2314C119.442 51.5122 118.834 52.2055 119.208 52.547C119.581 52.8886 120.898 52.6659 121.422 52.7848Z" fill="#472727"/>
<path d="M149.033 62.852C149.033 62.852 145.042 66.4447 139.505 67.1886C139.505 67.1886 137.859 67.5479 136.676 69.6402C136.245 70.4267 135.939 71.271 135.769 72.145L129.827 62.4574L129.459 61.8577H139.373C140.134 60.9784 141.077 60.2603 142.14 59.7486C143.204 59.237 144.367 58.9429 145.554 58.8849L147.1 57.8931C147.1 57.8931 145.554 46.3686 143.238 45.7488C143.238 45.7488 142.107 44.6608 140.822 43.6033C140.033 42.9657 139.519 42.0674 139.383 41.0845C139.246 40.1015 139.496 39.105 140.083 38.2901C140.115 38.2471 140.146 38.2041 140.18 38.1636C141.495 36.5115 144.242 37.0858 144.794 39.1048C145.178 40.4763 145.475 41.8686 145.686 43.2744L146.33 45.3819L148.649 49.9664L152.382 58.6395C152.382 58.6395 153.152 60.6231 149.033 62.852Z" fill="#DB8B8B"/>
<path d="M119.416 63.348L118.643 69.9262L116.905 70.0198L116.324 70.0502C116.324 70.0502 114.005 72.2817 111.689 73.023C109.372 73.7643 106.28 75.7504 106.28 75.7504L96.8813 79.7075L93.7921 81.0712C93.7921 81.0712 86.0651 86.2856 84.5191 83.92C82.9732 81.5544 91.2234 79.2014 91.2234 79.2014L96.6315 76.474C104.101 70.2779 106.675 70.9079 106.675 70.9079L112.459 67.6871C113.872 65.6961 115.964 64.2421 118.372 63.5757C118.713 63.4753 119.062 63.3992 119.416 63.348V63.348Z" fill="#DB8B8B"/>
<path opacity="0.1" d="M136.676 69.6402C136.245 70.4267 135.939 71.2711 135.769 72.145L129.827 62.4574C129.968 62.2684 130.093 62.0677 130.198 61.8577C130.35 61.5609 130.469 61.2497 130.555 60.9292L131.415 61.1164L133.742 61.6224L134.549 61.797C134.549 61.8173 134.533 61.8375 134.528 61.8577C133.445 64.9191 135.487 68.1247 136.676 69.6402Z" fill="black"/>
<path opacity="0.1" d="M119.416 63.348L118.643 69.9262L116.905 70.0198C117.644 68.7548 118.146 65.405 118.374 63.5858C118.715 63.4821 119.063 63.4026 119.416 63.348V63.348Z" fill="black"/>
<path d="M136.208 74.4373C134.276 77.8621 133.281 81.7033 133.316 85.6V86.0857V86.149C133.316 86.149 134.733 89.8657 133.316 89.8657C131.899 89.8657 132.027 91.7253 130.226 92.0972C128.426 92.4691 122.113 95.07 120.183 93.9568C118.253 92.8436 116.965 90.4881 116.965 90.4881V70.288C116.991 70.2576 117.018 70.2247 117.041 70.1893C118.154 68.6713 118.769 62.3461 118.769 62.3461C119.136 62.4005 119.507 62.4351 119.878 62.4498C120.985 62.5004 122.244 62.4498 122.881 62.4195L123.275 62.3967C124.387 63.2341 125.904 63.3556 126.656 63.3556C126.92 63.3565 127.184 63.3751 127.445 63.4113C129.619 63.7047 130.282 60.9242 130.282 60.9242L131.141 61.1114L133.468 61.6174L134.275 61.792C132.827 65.7414 136.642 69.9641 137.123 70.4752L137.173 70.5283C137.214 71.8903 136.881 73.2386 136.208 74.4373Z" fill="#6C63FF"/>
<path opacity="0.3" d="M119.881 62.4599C119.881 64.1019 119.473 69.5441 116.97 70.331V70.288C116.997 70.2576 117.023 70.2247 117.047 70.1893C118.159 68.6712 118.774 62.3461 118.774 62.3461C119.141 62.4038 119.51 62.4418 119.881 62.4599Z" fill="white"/>
<path opacity="0.3" d="M137.136 70.4828C132.424 70.25 132.982 64.3196 133.481 61.6276L134.288 61.8021C132.84 65.749 136.652 69.9717 137.136 70.4828Z" fill="white"/>
<g opacity="0.1">
<path opacity="0.1" d="M137.186 70.6599C137.184 70.6471 137.179 70.635 137.17 70.6255C137.161 70.6159 137.149 70.6094 137.136 70.6068C136.084 70.3538 137.252 70.7206 136.084 70.3538C136.04 70.3386 136.147 70.1691 136.147 70.1691C136.183 71.5296 135.845 72.8751 135.169 74.0704C133.237 77.4952 132.242 81.3365 132.277 85.2331V85.7189V85.7796C132.277 85.7796 133.694 89.4963 132.277 89.4963C130.86 89.4963 130.989 91.3559 129.188 91.7278C127.537 92.0694 122.108 94.2781 119.723 93.7898C119.87 93.8935 120.02 93.9922 120.175 94.0808C122.108 95.1965 128.418 92.5931 130.219 92.2212C132.02 91.8492 131.893 89.9896 133.308 89.9896C134.722 89.9896 133.308 86.273 133.308 86.273V86.2097V85.7239C133.273 81.8273 134.268 77.9861 136.2 74.5613C136.879 73.3667 137.219 72.0211 137.186 70.6599V70.6599Z" fill="black"/>
<path opacity="0.1" d="M123.588 62.6604C123.528 62.6197 123.464 62.5765 123.407 62.5333H123.27C123.375 62.5841 123.483 62.6223 123.588 62.6604Z" fill="black"/>
</g>
<path d="M164.226 124.687L162.683 128.032C162.243 127.335 161.76 126.663 161.237 126.02V126.02C160.487 125.057 159.603 124.198 158.608 123.468C157.532 122.714 156.516 121.883 155.569 120.983C154.843 120.307 154.049 119.637 153.486 119.356C153.16 119.198 152.847 119.014 152.553 118.805C151.528 118.046 149.514 116.49 149.038 115.394C149.038 115.394 144.918 111.677 143.115 110.934L141.316 108.909L139.25 106.589L144.529 101.509L146.083 103.601L148.394 106.713C149.439 107.963 150.635 109.09 151.956 110.068C153.273 110.987 154.488 112.032 155.585 113.188C157.313 114.997 158.829 116.983 160.107 119.111L163.427 123.602L163.451 123.637L163.977 124.343L164.226 124.687Z" fill="#DB8B8B"/>
<path d="M131.52 125.059L129.459 129.767L127.787 128.032L127.098 126.64L126.498 125.428L123.535 123.693L120.643 121.876C120.144 121.563 119.599 121.323 119.026 121.163C116.526 120.459 116.957 119.108 116.957 119.108L117.186 115.602L117.344 113.16L124.18 112.416L123.838 114.276L123.407 116.629C125.983 117.001 127.655 121.089 127.655 121.089C128.673 122.559 129.638 123.169 130.177 123.412C130.317 123.48 130.465 123.532 130.618 123.566L131.52 125.059Z" fill="#DB8B8B"/>
<path opacity="0.1" d="M163.451 123.639L163.39 123.607H163.427L163.451 123.639Z" fill="black"/>
<path opacity="0.1" d="M164.226 124.687L162.683 128.032C162.243 127.335 161.76 126.663 161.237 126.02C161.474 126.238 162.796 127.397 163.219 126.339C163.382 125.908 163.569 125.485 163.779 125.074C163.91 124.855 163.976 124.606 163.971 124.353L164.226 124.687Z" fill="black"/>
<path opacity="0.1" d="M164.1 124.467L163.574 123.761L163.551 123.726L160.23 119.235C158.95 117.108 157.431 115.124 155.7 113.317C154.604 112.161 153.388 111.116 152.072 110.197C150.751 109.219 149.555 108.092 148.509 106.842L146.206 103.743L144.652 101.651L144.426 101.868L145.817 103.743L148.128 106.855C149.175 108.102 150.372 109.224 151.693 110.2C153.01 111.119 154.225 112.164 155.321 113.319C157.049 115.126 158.566 117.11 159.844 119.235L163.169 123.731L163.193 123.766L163.719 124.472L163.982 124.816L162.599 127.812C162.744 128.032 162.825 128.161 162.825 128.161L164.371 124.816L164.1 124.467Z" fill="black"/>
<path opacity="0.1" d="M131.52 125.059L129.459 129.767L127.787 128.032L127.098 126.64L129.075 127.905C131.018 126.736 130.269 123.748 130.179 123.414C130.319 123.482 130.468 123.534 130.621 123.569L131.52 125.059Z" fill="black"/>
<path d="M130.298 123.511C130.298 123.511 131.262 126.8 129.204 128.034L126.498 126.299C126.498 126.299 125.973 127.538 127.658 129.15C128.285 129.691 128.774 130.363 129.086 131.115C129.399 131.868 129.528 132.679 129.461 133.487C129.461 133.487 129.724 136.459 131.265 135.718C131.265 135.718 133.713 135.212 133.584 131.134C133.584 131.134 132.609 127.731 133.744 126.291C133.776 126.252 133.808 126.214 133.842 126.177C135.13 124.814 133.455 122.709 133.455 122.709C133.455 122.709 130.426 121.53 130.298 123.511Z" fill="#535461"/>
<path opacity="0.1" d="M133.324 89.8681C131.907 89.8681 132.035 91.7277 130.234 92.0996C128.434 92.4716 122.121 95.0725 120.191 93.9592C118.261 92.846 116.973 90.4905 116.973 90.4905V90.2375C120.191 91.8492 124.185 90.2375 124.185 90.2375C127.03 90.7638 131.922 87.1736 133.326 86.0831V86.1464C133.326 86.1464 134.738 89.8681 133.324 89.8681Z" fill="black"/>
<path opacity="0.1" d="M117.354 113.163L124.19 112.419L123.848 114.278C121.732 115.225 118.685 115.516 117.207 115.604L117.354 113.163Z" fill="black"/>
<path opacity="0.1" d="M146.078 103.606C145.754 105.884 143.109 107.839 141.311 108.92L139.244 106.6L144.524 101.519L146.078 103.606Z" fill="black"/>
<path d="M124.18 90.4855C124.18 90.4855 120.189 92.0972 116.968 90.4855L116.324 98.9132C116.324 98.9132 116.453 102.63 115.937 104.732C115.422 106.835 116.324 115.389 116.324 115.389C116.324 115.389 124.308 115.265 125.852 112.416C125.852 112.416 129.199 105.972 128.557 103.743L135.511 105.231L139.634 109.562C139.634 109.562 146.716 106.341 146.072 102.374L136.542 91.5987L133.71 86.0326C133.71 86.0326 127.529 91.1054 124.18 90.4855Z" fill="#6C63FF"/>
<path opacity="0.1" d="M139.634 109.562L135.514 105.226L128.557 103.743C128.573 103.799 128.586 103.857 128.599 103.918C128.62 104.036 128.633 104.156 128.636 104.277C128.744 106.855 125.854 112.419 125.854 112.419C124.308 115.27 116.326 115.392 116.326 115.392C116.326 115.392 115.411 106.845 115.937 104.737C116.463 102.63 116.324 98.9182 116.324 98.9182L116.944 90.8043L116.968 90.4931C117.867 90.9287 118.854 91.1705 119.86 91.2015C121.285 91.2411 122.705 91.0187 124.043 90.5462L124.18 90.4931C124.255 90.5066 124.332 90.5176 124.411 90.526C127.177 90.8195 131.612 87.6468 133.155 86.4652C133.505 86.197 133.708 86.0326 133.708 86.0326L136.542 91.5987L146.07 102.379C146.09 102.503 146.102 102.628 146.106 102.754C146.272 106.549 139.634 109.562 139.634 109.562Z" fill="black"/>
<path opacity="0.3" d="M131.155 61.119C128.286 66.1058 124.056 63.3455 122.883 62.4296L123.278 62.4068C124.39 63.2443 125.907 63.3657 126.659 63.3657C126.923 63.3667 127.186 63.3853 127.448 63.4214C129.622 63.7149 130.284 60.9343 130.284 60.9343L131.155 61.119Z" fill="white"/>
<path d="M163.524 123.731C163.965 123.707 164.405 123.794 164.8 123.984C165.196 124.174 165.532 124.46 165.778 124.813C165.778 124.813 169.122 127.526 170.923 127.779C170.923 127.779 176.331 130.01 174.785 133.107C173.239 136.204 169.506 133.36 169.506 133.36C169.506 133.36 165.515 129.891 164.226 130.139C164.226 130.139 160.685 128.095 161.334 126.111C161.334 126.111 162.886 127.629 163.354 126.463C163.515 126.032 163.701 125.609 163.911 125.198C164.161 124.722 164.289 124.102 163.524 123.731Z" fill="#535461"/>
<path opacity="0.1" d="M123.333 90.5159C121.987 90.8929 119.279 91.3964 116.97 90.2401L116.928 90.7942C119.728 91.7733 122.826 90.7056 123.333 90.5159Z" fill="black"/>
<path opacity="0.1" d="M126.259 90.0807C125.589 90.2897 124.877 90.3477 124.179 90.2502C124.179 90.2502 123.896 90.3641 123.422 90.5032C124.245 90.6373 125.234 90.4425 126.259 90.0807Z" fill="black"/>
<path opacity="0.1" d="M146.109 102.756C145.985 106.433 139.634 109.322 139.634 109.322L139.544 109.228C141.303 108.3 145.82 105.585 145.299 102.382L135.769 91.5987L133.155 86.4551C133.505 86.1869 133.707 86.0225 133.707 86.0225L136.542 91.5886L146.07 102.369C146.092 102.497 146.105 102.627 146.109 102.756Z" fill="black"/>
<path opacity="0.1" d="M127.787 103.743C128.431 105.975 125.081 112.416 125.081 112.416C124.624 113.259 123.606 113.863 122.397 114.296C123.932 113.856 125.302 113.185 125.854 112.168C125.854 112.168 128.825 106.45 128.631 103.923L127.787 103.743Z" fill="black"/>
<path opacity="0.3" d="M125.597 71.5884C123.782 71.5884 122.313 73.6124 122.313 76.1121C122.313 78.6119 123.782 80.6359 125.597 80.6359C127.411 80.6359 128.88 78.6119 128.88 76.1121C128.88 73.6124 127.411 71.5884 125.597 71.5884ZM125.597 78.7763C124.529 78.7763 123.662 77.5846 123.662 76.1121C123.662 74.6396 124.527 73.448 125.597 73.448C126.667 73.448 127.532 74.6396 127.532 76.1121C127.532 77.5846 126.664 78.7763 125.597 78.7763V78.7763Z" fill="white"/>
<path d="M147.119 39.664C147.119 39.8108 147.119 39.9558 147.119 40.0992C147.119 40.1776 147.119 40.256 147.1 40.3319C146.99 41.6316 146.538 42.8828 145.786 43.9677C145.736 44.041 145.683 44.1119 145.631 44.1827C144.914 45.1502 143.967 45.9391 142.87 46.4839C141.772 47.0286 140.556 47.3136 139.321 47.3149C139.145 47.3149 138.968 47.3149 138.795 47.2972C138.621 47.2795 138.472 47.2719 138.311 47.2517C137.197 47.1063 136.128 46.7304 135.178 46.15C134.229 45.5696 133.421 44.7984 132.811 43.8892C132.769 43.831 132.729 43.7678 132.693 43.7096V43.6969C131.922 42.4828 131.515 41.0869 131.517 39.664C131.517 39.2847 131.545 38.9059 131.602 38.5305L131.644 38.2775C131.857 37.1199 132.344 36.0252 133.069 35.0783C133.793 34.1314 134.734 33.3579 135.819 32.8176L136.103 32.6835C137.025 32.2737 138.023 32.0433 139.039 32.0055C140.055 31.9678 141.068 32.1234 142.021 32.4634C142.269 32.5522 142.512 32.6536 142.749 32.767V32.767C144.496 33.6042 145.86 35.0321 146.58 36.7772C146.606 36.8354 146.627 36.891 146.648 36.9492C146.972 37.8199 147.131 38.7393 147.119 39.664V39.664Z" fill="#F88787"/>
<path opacity="0.5" d="M146.617 36.9492C146.116 37.092 145.598 37.1644 145.076 37.1643H144.986H144.781C144.655 37.1643 144.532 37.1491 144.413 37.1339C143.391 37.0163 142.411 36.6697 141.553 36.1219V36.1219C139.258 33.8702 137.01 33.101 135.795 32.8328L136.079 32.6987C137.273 32.9897 139.21 33.7108 141.227 35.5324C141.747 36.0058 142.36 36.374 143.03 36.6153C143.491 36.7792 143.97 36.8904 144.458 36.9467C144.563 36.9467 144.666 36.967 144.768 36.9745H144.976C145.509 36.9886 146.041 36.9237 146.553 36.7823C146.572 36.8455 146.595 36.9012 146.617 36.9492Z" fill="white"/>
<path opacity="0.5" d="M147.105 40.0993C147.105 40.1777 147.105 40.2561 147.087 40.332C146.415 39.9182 145.696 39.5787 144.944 39.32L144.747 39.2517C142.955 38.6724 141.105 38.2789 139.226 38.0777C134.809 37.5363 132.606 38.0423 131.557 38.523L131.599 38.27C132.735 37.7893 134.972 37.3516 139.252 37.8753C141.13 38.0771 142.98 38.4663 144.773 39.0366L144.971 39.105C145.718 39.3609 146.433 39.6943 147.105 40.0993V40.0993Z" fill="white"/>
<path opacity="0.5" d="M144.971 39.1225C144.971 39.1908 144.955 39.2592 144.947 39.33C144.901 39.6758 144.837 40.0376 144.752 40.4154C144.688 40.7005 144.616 40.9746 144.537 41.2377C144.516 41.306 144.495 41.3743 144.474 41.4401C143.475 44.5192 141.442 46.0802 139.836 46.8595C139.495 47.0264 139.144 47.1734 138.784 47.2997L138.301 47.2542C138.805 47.1031 139.296 46.9118 139.768 46.6824C141.345 45.9234 143.341 44.3724 144.313 41.3237C144.334 41.263 144.353 41.1997 144.371 41.1365C144.445 40.8919 144.511 40.6389 144.571 40.3774C144.657 39.9979 144.723 39.6269 144.768 39.2642C144.768 39.1959 144.784 39.1251 144.792 39.0568C144.859 38.4293 144.859 37.7968 144.792 37.1693C144.792 37.1035 144.779 37.0378 144.768 36.9745C144.608 35.6117 143.994 34.3353 143.017 33.3363C142.698 33.0148 142.346 32.7257 141.966 32.4735C142.214 32.5623 142.457 32.6636 142.694 32.7771V32.7771C142.848 32.907 143.001 33.0487 143.151 33.2022C144.156 34.2423 144.784 35.5675 144.942 36.9796C144.942 37.0428 144.958 37.1086 144.965 37.1719C145.037 37.8201 145.039 38.4739 144.971 39.1225V39.1225Z" fill="white"/>
<path opacity="0.5" d="M145.765 43.9702C145.715 44.0436 145.662 44.1145 145.61 44.1853C145.389 43.2643 145.035 42.3777 144.558 41.5515C144.533 41.5104 144.502 41.4729 144.466 41.4402C144.413 41.3941 144.354 41.3557 144.29 41.3263C143.278 40.8431 140.254 41.6527 138.006 42.8216C136.276 43.7223 134.012 43.8817 132.774 43.8918L132.656 43.7122V43.6995C133.839 43.6995 136.163 43.5629 137.914 42.6521C140.017 41.5641 143.146 40.628 144.35 41.134C144.414 41.1609 144.475 41.1939 144.532 41.2327C144.614 41.2894 144.684 41.3617 144.737 41.4452C145.192 42.2402 145.538 43.0891 145.765 43.9702V43.9702Z" fill="white"/>
<path opacity="0.1" fill-rule="evenodd" clip-rule="evenodd" d="M151.751 1.46313C177.795 5.72258 197.2 24.9434 216.46 42.4749C233.356 57.8542 250.648 74.1728 255.725 96.1027C260.57 117.032 250.568 137.478 243.131 157.678C235.932 177.232 230.156 198.267 213.368 211.148C196.227 224.3 173.564 229.107 151.751 227.79C130.816 226.527 115.001 211.431 95.4613 204.033C66.2626 192.978 26.6336 199.07 9.18274 173.812C-8.19981 148.653 2.49195 113.646 13.4061 85.2693C23.9866 57.7607 43.3033 33.9059 68.9756 18.3542C93.491 3.50323 123.25 -3.19806 151.751 1.46313Z" fill="#6C63FF"/>
<path d="M68.2739 147.317L42.4536 162.225L44.5369 165.833L70.3573 150.926L68.2739 147.317Z" fill="#2F2E41"/>
<path d="M49.7453 174.854C50.9853 174.138 49.1923 168.711 45.7405 162.733C42.2887 156.754 38.4853 152.488 37.2453 153.204C36.0052 153.92 37.7982 159.347 41.25 165.325C44.7018 171.304 48.5052 175.57 49.7453 174.854Z" fill="#2F2E41"/>
<path d="M75.5656 159.947C76.8056 159.231 75.0127 153.804 71.5609 147.825C68.1091 141.847 64.3056 137.58 63.0656 138.296C61.8256 139.012 63.6186 144.439 67.0704 150.418C70.5221 156.397 74.3256 160.663 75.5656 159.947Z" fill="#2F2E41"/>
<path d="M94.4075 167.417H64.5927V171.583H94.4075V167.417Z" fill="#2F2E41"/>
<path d="M94.4074 182C95.8393 182 97 176.404 97 169.5C97 162.596 95.8393 157 94.4074 157C92.9756 157 91.8148 162.596 91.8148 169.5C91.8148 176.404 92.9756 182 94.4074 182Z" fill="#2F2E41"/>
<path d="M64.5926 182C66.0244 182 67.1852 176.404 67.1852 169.5C67.1852 162.596 66.0244 157 64.5926 157C63.1607 157 62 162.596 62 169.5C62 176.404 63.1607 182 64.5926 182Z" fill="#2F2E41"/>
<defs>
<linearGradient id="paint0_linear" x1="17219.4" y1="3070.79" x2="17219.4" y2="2864.78" gradientUnits="userSpaceOnUse">
<stop stop-color="#808080" stop-opacity="0.79"/>
<stop offset="0.54" stop-color="#808080" stop-opacity="0.12"/>
<stop offset="1" stop-color="#808080" stop-opacity="0.1"/>
</linearGradient>
<linearGradient id="paint1_linear" x1="17219.4" y1="3070.79" x2="17219.4" y2="2864.78" gradientUnits="userSpaceOnUse">
<stop stop-color="#808080" stop-opacity="0.79"/>
<stop offset="0.54" stop-color="#808080" stop-opacity="0.12"/>
<stop offset="1" stop-color="#808080" stop-opacity="0.1"/>
</linearGradient>
<linearGradient id="paint2_linear" x1="17219.4" y1="3047.99" x2="17219.4" y2="2841.98" gradientUnits="userSpaceOnUse">
<stop stop-color="#808080" stop-opacity="0.25"/>
<stop offset="0.54" stop-color="#808080" stop-opacity="0.12"/>
<stop offset="1" stop-color="#808080" stop-opacity="0.1"/>
</linearGradient>
<linearGradient id="paint3_linear" x1="63392.2" y1="67972.9" x2="63392.2" y2="28113.5" gradientUnits="userSpaceOnUse">
<stop stop-color="#808080" stop-opacity="0.25"/>
<stop offset="0.54" stop-color="#808080" stop-opacity="0.12"/>
<stop offset="1" stop-color="#808080" stop-opacity="0.1"/>
</linearGradient>
</defs>
</svg>
